<svg version="1.1" xmlns="http://www.w3.org/2000/svg" xmlns:xlink="http://www.w3.org/1999/xlink" width="79.2" height="79.2" viewBox="0,0,79.2,79.2"><defs><radialGradient cx="240" cy="180" r="4.94444" gradientUnits="userSpaceOnUse" id="color-1"><stop offset="0" stop-color="#af6600"/><stop offset="1" stop-color="#af6600" stop-opacity="0"/></radialGradient></defs><g transform="translate(-200.4,-140.4)"><g data-paper-data="{&quot;isPaintingLayer&quot;:true}" fill-rule="nonzero" stroke="none" stroke-width="0" stroke-linecap="butt" stroke-linejoin="miter" stroke-miterlimit="10" stroke-dasharray="" stroke-dashoffset="0" style="mix-blend-mode: normal"><path d="M235.05555,180c0,-2.68227 2.2137,-4.85667 4.94444,-4.85667c2.73074,0 4.94444,2.17441 4.94444,4.85667c0,2.68227 -2.2137,4.85667 -4.94444,4.85667c-2.73074,0 -4.94444,-2.17441 -4.94444,-4.85667z" fill="url(#color-1)"/><path d="M240,175.90646c2.2608,0 4.09354,1.83274 4.09354,4.09354c0,2.2608 -1.83274,4.09354 -4.09354,4.09354c-2.2608,0 -4.09354,-1.83274 -4.09354,-4.09354c0,-2.2608 1.83274,-4.09354 4.09354,-4.09354z" fill="#f7b400"/><path d="M240.00001,177.55032c1.35292,0 2.44968,1.09676 2.44968,2.44968c0,1.35292 -1.09676,2.44968 -2.44968,2.44968c-1.35292,0 -2.44968,-1.09676 -2.44968,-2.44968c0,-1.35292 1.09676,-2.44968 2.44968,-2.44968z" fill="#f7c334"/><path d="M240,178.5173c0.81888,0 1.4827,0.66383 1.4827,1.4827c0,0.81888 -0.66383,1.4827 -1.4827,1.4827c-0.81888,0 -1.4827,-0.66383 -1.4827,-1.4827c0,-0.81887 0.66383,-1.4827 1.4827,-1.4827z" fill="#6b5517"/><path d="M200.4,219.6v-79.2h79.2v79.2z" fill="none"/></g></g></svg>