<svg version="1.1" xmlns="http://www.w3.org/2000/svg" xmlns:xlink="http://www.w3.org/1999/xlink" width="562.38121" height="360.53869" viewBox="0,0,562.38121,360.53869"><defs><linearGradient x1="148.01489" y1="164.45071" x2="148.01489" y2="135.75107" gradientUnits="userSpaceOnUse" id="color-1"><stop offset="0" stop-color="#525252"/><stop offset="1" stop-color="#000000"/></linearGradient><linearGradient x1="543.28602" y1="179.10908" x2="214.94357" y2="179.10908" gradientUnits="userSpaceOnUse" id="color-2"><stop offset="0" stop-color="#aa00d7"/><stop offset="1" stop-color="#d20000"/></linearGradient><linearGradient x1="397.07004" y1="157.91241" x2="397.07004" y2="176.89783" gradientUnits="userSpaceOnUse" id="color-3"><stop offset="0" stop-color="#580038"/><stop offset="1" stop-color="#580038" stop-opacity="0"/></linearGradient><linearGradient x1="529.08915" y1="163.43554" x2="516.93846" y2="163.43554" gradientUnits="userSpaceOnUse" id="color-4"><stop offset="0" stop-color="#eaeaea"/><stop offset="1" stop-color="#8d8d8d"/></linearGradient><linearGradient x1="529.34227" y1="195.71078" x2="517.44474" y2="195.71078" gradientUnits="userSpaceOnUse" id="color-5"><stop offset="0" stop-color="#eaeaea"/><stop offset="1" stop-color="#8d8d8d"/></linearGradient><linearGradient x1="230.97741" y1="180.50219" x2="230.07724" y2="180.50219" gradientUnits="userSpaceOnUse" id="color-6"><stop offset="0" stop-color="#b6b6b6"/><stop offset="1" stop-color="#6e6e6e"/></linearGradient><linearGradient x1="230.97741" y1="179.63955" x2="230.07724" y2="179.63955" gradientUnits="userSpaceOnUse" id="color-7"><stop offset="0" stop-color="#b6b6b6"/><stop offset="1" stop-color="#6e6e6e"/></linearGradient><linearGradient x1="231.01491" y1="178.17681" x2="230.11474" y2="178.17681" gradientUnits="userSpaceOnUse" id="color-8"><stop offset="0" stop-color="#b6b6b6"/><stop offset="1" stop-color="#6e6e6e"/></linearGradient><linearGradient x1="205.46123" y1="187.06471" x2="205.46123" y2="198.79069" gradientUnits="userSpaceOnUse" id="color-9"><stop offset="0" stop-color="#c8c8c8"/><stop offset="1" stop-color="#6e6e6e"/></linearGradient><linearGradient x1="205.39105" y1="185.12148" x2="205.38854" y2="186.97075" gradientUnits="userSpaceOnUse" id="color-10"><stop offset="0" stop-color="#b4b4b4"/><stop offset="1" stop-color="#808080"/></linearGradient><radialGradient cx="220.26707" cy="192.58059" r="0.5157" gradientUnits="userSpaceOnUse" id="color-11"><stop offset="0" stop-color="#b3b3b3"/><stop offset="1" stop-color="#636363"/></radialGradient><radialGradient cx="220.26707" cy="192.58059" r="0.46418" gradientUnits="userSpaceOnUse" id="color-12"><stop offset="0" stop-color="#b3b3b3"/><stop offset="1" stop-color="#636363"/></radialGradient><linearGradient x1="205.50836" y1="171.62209" x2="205.50836" y2="159.89609" gradientUnits="userSpaceOnUse" id="color-13"><stop offset="0" stop-color="#c8c8c8"/><stop offset="1" stop-color="#6e6e6e"/></linearGradient><radialGradient cx="195.83854" cy="162.03444" r="0.5157" gradientUnits="userSpaceOnUse" id="color-14"><stop offset="0" stop-color="#b3b3b3"/><stop offset="1" stop-color="#636363"/></radialGradient><radialGradient cx="203.07726" cy="161.95943" r="0.5157" gradientUnits="userSpaceOnUse" id="color-15"><stop offset="0" stop-color="#b3b3b3"/><stop offset="1" stop-color="#636363"/></radialGradient><radialGradient cx="210.57843" cy="161.84693" r="0.51569" gradientUnits="userSpaceOnUse" id="color-16"><stop offset="0" stop-color="#b3b3b3"/><stop offset="1" stop-color="#636363"/></radialGradient><radialGradient cx="190.70255" cy="166.10622" r="0.51571" gradientUnits="userSpaceOnUse" id="color-17"><stop offset="0" stop-color="#b3b3b3"/><stop offset="1" stop-color="#636363"/></radialGradient><radialGradient cx="190.70255" cy="166.10622" r="0.46418" gradientUnits="userSpaceOnUse" id="color-18"><stop offset="0" stop-color="#b3b3b3"/><stop offset="1" stop-color="#636363"/></radialGradient><linearGradient x1="224.7728" y1="188.23488" x2="220.67392" y2="188.23488" gradientUnits="userSpaceOnUse" id="color-19"><stop offset="0" stop-color="#dfdfdf"/><stop offset="1" stop-color="#c0c0c0"/></linearGradient><radialGradient cx="222.76355" cy="186.70383" r="0.5157" gradientUnits="userSpaceOnUse" id="color-20"><stop offset="0" stop-color="#b3b3b3"/><stop offset="1" stop-color="#636363"/></radialGradient><radialGradient cx="222.76355" cy="186.70383" r="0.46419" gradientUnits="userSpaceOnUse" id="color-21"><stop offset="0" stop-color="#b3b3b3"/><stop offset="1" stop-color="#636363"/></radialGradient><linearGradient x1="205.58269" y1="173.59836" x2="205.58012" y2="171.70941" gradientUnits="userSpaceOnUse" id="color-22"><stop offset="0" stop-color="#b4b4b4"/><stop offset="1" stop-color="#808080"/></linearGradient><radialGradient cx="203.86333" cy="190.45011" r="2.03104" gradientUnits="userSpaceOnUse" id="color-23"><stop offset="0" stop-color="#bdbdbd"/><stop offset="1" stop-color="#727272"/></radialGradient><radialGradient cx="207.10625" cy="168.2367" r="2.03104" gradientUnits="userSpaceOnUse" id="color-24"><stop offset="0" stop-color="#bdbdbd"/><stop offset="1" stop-color="#727272"/></radialGradient><linearGradient x1="198.64211" y1="180.06234" x2="198.63712" y2="185.754" gradientUnits="userSpaceOnUse" id="color-25"><stop offset="0" stop-color="#d4d4d4"/><stop offset="1" stop-color="#646464"/></linearGradient><linearGradient x1="210.10079" y1="179.99079" x2="210.09594" y2="185.83272" gradientUnits="userSpaceOnUse" id="color-26"><stop offset="0" stop-color="#d4d4d4"/><stop offset="1" stop-color="#646464"/></linearGradient><linearGradient x1="201.2432" y1="172.75164" x2="201.23801" y2="178.68292" gradientUnits="userSpaceOnUse" id="color-27"><stop offset="0" stop-color="#646464"/><stop offset="1" stop-color="#d4d4d4"/></linearGradient><linearGradient x1="213.20983" y1="172.94373" x2="213.20487" y2="178.61332" gradientUnits="userSpaceOnUse" id="color-28"><stop offset="0" stop-color="#646464"/><stop offset="1" stop-color="#d4d4d4"/></linearGradient><radialGradient cx="205.98446" cy="181.26001" r="7.73563" gradientUnits="userSpaceOnUse" id="color-29"><stop offset="0" stop-color="#002e95" stop-opacity="0"/><stop offset="1" stop-color="#002e95"/></radialGradient><linearGradient x1="148.62113" y1="194.65604" x2="148.62113" y2="223.35568" gradientUnits="userSpaceOnUse" id="color-30"><stop offset="0" stop-color="#525252"/><stop offset="1" stop-color="#000000"/></linearGradient><linearGradient x1="189.75624" y1="179.44659" x2="178.61811" y2="179.44659" gradientUnits="userSpaceOnUse" id="color-31"><stop offset="0" stop-color="#b9b9b9"/><stop offset="1" stop-color="#a1a1a1"/></linearGradient><linearGradient x1="173.55534" y1="179.57316" x2="164.69547" y2="179.57316" gradientUnits="userSpaceOnUse" id="color-32"><stop offset="0" stop-color="#b9b9b9"/><stop offset="1" stop-color="#a1a1a1"/></linearGradient><linearGradient x1="156.99281" y1="179.59124" x2="139.99632" y2="179.59124" gradientUnits="userSpaceOnUse" id="color-33"><stop offset="0" stop-color="#b9b9b9"/><stop offset="1" stop-color="#a1a1a1"/></linearGradient><linearGradient x1="397.07005" y1="201.15699" x2="397.07005" y2="182.17156" gradientUnits="userSpaceOnUse" id="color-34"><stop offset="0" stop-color="#580038"/><stop offset="1" stop-color="#580038" stop-opacity="0"/></linearGradient><linearGradient x1="233.9507" y1="199.11234" x2="233.9507" y2="180.75278" gradientUnits="userSpaceOnUse" id="color-35"><stop offset="0" stop-color="#6a0034"/><stop offset="1" stop-color="#6a0034" stop-opacity="0"/></linearGradient><linearGradient x1="233.95068" y1="161.97941" x2="233.95068" y2="180.33897" gradientUnits="userSpaceOnUse" id="color-36"><stop offset="0" stop-color="#6a0034"/><stop offset="1" stop-color="#6a0034" stop-opacity="0"/></linearGradient><linearGradient x1="317.6231" y1="179.63645" x2="285.98075" y2="179.63645" gradientUnits="userSpaceOnUse" id="color-37"><stop offset="0" stop-color="#808080"/><stop offset="1" stop-color="#000000"/></linearGradient></defs><g transform="translate(-4.42566,-1.09611)"><g data-paper-data="{&quot;isPaintingLayer&quot;:true}" fill-rule="nonzero" stroke-linejoin="miter" stroke-miterlimit="10" stroke-dasharray="" stroke-dashoffset="0" style="mix-blend-mode: normal"><path d="M128.41253,164.22921c0,0 -2.58917,-0.63911 -3.61616,-1.84564c-1.02699,-1.20654 -0.95626,-3.52615 -0.95626,-3.52615l0.31643,-16.51504c0,0 0.18398,-3.45367 1.60772,-4.84962c1.42375,-1.39595 5.1148,-1.74167 5.1148,-1.74167h34.36618c0,0 3.95347,0.11789 5.48457,1.7645c1.5311,1.64662 1.20673,5.43163 1.20673,5.43163l0.25314,16.26751c0,0 -0.26788,2.92743 -1.53056,4.05041c-1.26268,1.12299 -4.35677,1.18558 -4.35677,1.18558z" data-paper-data="{&quot;index&quot;:null}" fill="url(#color-1)" stroke="#000000" stroke-width="0" stroke-linecap="round"/><path d="M543.28603,185.59577l-38.1818,0.63284l-24.99749,1.89855l-59.8041,3.48066l-79.7388,3.16423l-76.25814,3.16424l-5.3792,0.63285h-6.96132l-10.12556,4.1135l-16.13761,15.50477l-9.80914,0.63284l4.74636,-9.17629l4.42994,-16.13761l-0.31642,-38.28728l-3.19388,-7.52706l-6.61525,-7.78101l10.44199,0.31643l5.3792,5.49892l13.92265,12.65695l8.85987,3.63887h15.82119l73.41032,3.16424l6.96132,0.63284l146.82065,6.32848l45.56504,1.26569z" data-paper-data="{&quot;index&quot;:null}" fill="url(#color-2)" stroke="#76002f" stroke-width="0" stroke-linecap="round"/><path d="M536.17705,149.76603l-0.25314,2.53139l-1.77198,1.51884l-25.06077,-0.50628l-1.51884,-1.51884l0.25314,-3.79708l2.02512,-0.84379h25.31391z" data-paper-data="{&quot;index&quot;:null}" fill="#000000" stroke="#000000" stroke-width="1" stroke-linecap="round"/><path d="M254.85513,176.89783l-0.13896,-14.90224l10.68642,-0.56737l278.45293,12.30537v3.16423z" data-paper-data="{&quot;index&quot;:null}" fill="url(#color-3)" stroke="none" stroke-width="0" stroke-linecap="butt"/><path d="M535.92389,205.96291l1.01255,1.51884l0.25314,2.27825l-1.26569,1.51884h-27.08588l-1.77198,-0.75942l0.25314,-2.53139l1.51884,-1.51884z" data-paper-data="{&quot;index&quot;:null}" fill="#000000" stroke="#000000" stroke-width="2" stroke-linecap="round"/><path d="M525.79834,172.29542l-0.25314,-3.03767l-1.77197,-8.10045l-1.51884,3.54394l-1.01256,5.31592l-0.75941,2.78453l-3.54395,-0.50627l0.75942,-18.22601l7.84731,0.25314l1.51884,7.59417l1.77198,6.32848l0.25314,4.05022z" data-paper-data="{&quot;index&quot;:null}" fill="url(#color-4)" stroke="#000000" stroke-width="0" stroke-linecap="round"/><path d="M529.34227,185.96492l-0.25313,3.79708l-1.51884,6.07534l-1.77198,7.59418l-0.25314,1.77197l-7.84731,0.25314l-0.25314,-18.73229l2.53139,-0.21697l1.26569,7.41336l1.80814,5.24359l3.07384,-7.9558l0.36162,-4.70114z" data-paper-data="{&quot;index&quot;:null}" fill="url(#color-5)" stroke="#000000" stroke-width="0" stroke-linecap="round"/><path d="M216.37526,201.56035v-7.0324h4.36009v7.0324z" data-paper-data="{&quot;index&quot;:null}" fill="#ffffff" stroke="#000000" stroke-width="0.5" stroke-linecap="butt"/><path d="M230.07726,181.00852v-1.01265h0.90015v1.01265z" data-paper-data="{&quot;index&quot;:null}" fill="url(#color-6)" stroke="#000000" stroke-width="0.5" stroke-linecap="butt"/><path d="M230.07726,180.14589v-1.01266h0.90015v1.01266z" data-paper-data="{&quot;index&quot;:null}" fill="url(#color-7)" stroke="#000000" stroke-width="0.5" stroke-linecap="butt"/><path d="M230.11476,178.68313v-1.01266h0.90015v1.01266z" data-paper-data="{&quot;index&quot;:null}" fill="url(#color-8)" stroke="#000000" stroke-width="0.5" stroke-linecap="butt"/><path d="M228.7333,188.29302v-6.75109h1.26583v6.75109z" data-paper-data="{&quot;index&quot;:null}" fill="#242424" stroke="#000000" stroke-width="0.35" stroke-linecap="butt"/><path d="M220.45404,185.38583h-29.95802" data-paper-data="{&quot;index&quot;:null}" fill="none" stroke="#000000" stroke-width="0.5" stroke-linecap="round"/><path d="M224.33408,170.73091v-5.76657h1.9222v5.76657z" data-paper-data="{&quot;index&quot;:null}" fill="#ae9418" stroke="#000000" stroke-width="0.5" stroke-linecap="butt"/><path d="M217.77055,171.48103v-7.3137h6.89174v7.3137z" data-paper-data="{&quot;index&quot;:null}" fill="#c8c8c8" stroke="#000000" stroke-width="0.5" stroke-linecap="butt"/><path d="M226.38141,195.95471v-21.17294h0.87635v21.17294z" data-paper-data="{&quot;index&quot;:null}" fill="#242424" stroke="#000000" stroke-width="0.35" stroke-linecap="butt"/><path d="M220.35242,196.63359v-5.94741h5.06332v5.94741z" data-paper-data="{&quot;index&quot;:null}" fill="#003797" stroke="#000000" stroke-width="0.5" stroke-linecap="butt"/><path d="M222.76355,181.4436v-4.58111h3.05408v4.58111z" data-paper-data="{&quot;index&quot;:null}" fill="#0f0f0f" stroke="#000000" stroke-width="0.35" stroke-linecap="butt"/><path d="M225.37729,196.97249c0,0 0.02943,-2.03273 -0.04885,-2.8713c-0.10791,-1.15611 -4.83256,-2.76981 -4.83256,-2.76981l-0.34621,-0.9088l6.01541,0.30294c0,0 0.01203,4.18409 0.06116,5.03707c0.01632,0.28338 0.26702,0.66004 0.26702,0.66004l-0.04688,0.53466z" data-paper-data="{&quot;index&quot;:null}" fill="#c8c8c8" stroke="#000000" stroke-width="0.5" stroke-linecap="butt"/><path d="M220.23302,186.70391v-14.54703h3.2349v14.54703z" data-paper-data="{&quot;index&quot;:null}" fill="#00286d" stroke="#000000" stroke-width="0.5" stroke-linecap="butt"/><path d="M190.30032,198.79196v-38.9034h30.4109v38.9034z" data-paper-data="{&quot;index&quot;:null}" fill="#00286d" stroke="#000000" stroke-width="0.5" stroke-linecap="butt"/><path d="M191.20303,198.79069c-0.95836,-0.0205 -0.9306,-0.83993 -0.9306,-0.83993v-10.02526c0,0 -0.0796,-0.89061 1.04915,-0.90628c1.8551,-0.02576 28.25254,0.0395 28.65312,0.04548c0.76348,0.01139 0.68527,0.77819 0.68527,0.77819c0,0 0.06771,6.65551 0.00259,9.97399c-0.01678,0.85547 -0.38525,0.97381 -0.38525,0.97381c0,0 -26.13598,0.06285 -29.07429,0z" data-paper-data="{&quot;index&quot;:null}" fill="url(#color-9)" stroke="#000000" stroke-width="0.5" stroke-linecap="butt"/><path d="M190.27442,186.95879l0.0025,-1.84928l30.2282,0.02392l-0.0025,1.84927z" data-paper-data="{&quot;index&quot;:null}" fill="url(#color-10)" stroke="none" stroke-width="0" stroke-linecap="butt"/><path d="M190.2838,190.44091c0.02584,-1.5884 0.03005,-2.71495 0.03005,-2.71495c0,0 0.03434,-0.6867 0.72341,-0.67876c0.94978,0.01095 2.24146,0.00166 3.45484,-0.00105c1.31971,-0.00293 -0.19922,1.80595 1.57303,1.8052c1.69917,-0.00074 0.26982,-1.74618 1.52192,-1.77583c1.44643,-0.03423 2.46738,-0.0532 4.66223,-0.01421c1.04483,0.01857 -0.18905,1.72797 1.49317,1.73325c1.59249,0.00499 0.3041,-1.73437 1.39705,-1.71136c1.04087,0.02191 2.55524,-0.03086 4.32069,-0.01093c1.04028,0.01174 -0.0378,1.66385 1.55292,1.66396c1.69098,0.00011 0.47886,-1.67306 1.37189,-1.68163c0.88323,-0.00847 2.59213,0.01583 4.09677,0.02356c1.14634,0.0059 0.25014,1.73697 1.10156,1.75907c1.54552,0.0401 3.03891,-0.13549 3.05986,0.88376c0.00801,0.38998 0.10051,1.28849 0.06038,1.81486c-0.04309,0.56521 -1.20739,0.03287 -1.12196,1.12565c0.07831,1.00167 1.13681,0.37307 1.12794,0.98452c-0.02052,1.41672 -0.02796,2.39358 -0.03415,3.4121c-0.00943,1.55204 -0.18034,1.68941 -0.61132,1.73219c-1.47944,-0.01567 -1.64972,0.02479 -2.89637,0c-1.34019,-0.02665 0.18109,-6.54589 -2.20084,-6.54589c-2.33173,0 -0.44494,6.47699 -1.96849,6.5088c-1.56073,0.0326 -1.56801,0.08353 -3.11406,0.03747c-1.21481,-0.03618 0.1898,-6.56329 -2.10503,-6.52039c-2.35407,0.04401 -0.43838,6.40476 -1.91498,6.49118c-1.8684,0.10936 -1.5148,0.01301 -3.23671,-0.00892c-1.38513,-0.01763 -0.17999,-6.4979 -2.34034,-6.46015c-2.15596,0.03768 -0.68535,6.54495 -2.11331,6.50924c-1.21597,-0.0304 -1.98062,0.03867 -2.97586,0c-1.47984,-0.0575 -0.08603,-6.42532 -2.73211,-6.46057c-1.43063,-0.09817 -2.12816,-0.86263 -2.18217,-1.90012z" data-paper-data="{&quot;index&quot;:null}" fill="none" stroke="#000000" stroke-width="0.45" stroke-linecap="round"/><path d="M193.55247,192.90366h5.78967c0,0 0.47288,-0.6144 0.94939,-0.63293c0.44517,-0.0173 0.98453,0.63293 0.98453,0.63293h5.55559c0,0 0.35833,-0.6819 0.94937,-0.66808c0.56918,0.01331 0.94937,0.66808 0.94937,0.66808h5.23914c0,0 0.51652,-0.70324 1.01971,-0.70324c0.52661,0 1.01969,0.70324 1.01969,0.70324h3.62834" data-paper-data="{&quot;index&quot;:null}" fill="none" stroke="#000000" stroke-width="0.5" stroke-linecap="round"/><path d="M215.01831,194.01458c-0.34033,0 -0.61623,-0.26378 -0.61623,-0.58917c0,-0.32538 0.2759,-0.58917 0.61623,-0.58917c0.34033,0 0.61622,0.26378 0.61622,0.58917c0,0.32539 -0.27589,0.58917 -0.61622,0.58917z" data-paper-data="{&quot;index&quot;:null}" fill="#000000" stroke="none" stroke-width="0.5" stroke-linecap="butt"/><path d="M207.81049,194.01458c-0.33462,0 -0.60586,-0.26378 -0.60586,-0.58917c0,-0.32538 0.27127,-0.58917 0.60586,-0.58917c0.3346,0 0.60585,0.26378 0.60585,0.58917c0,0.32539 -0.27126,0.58917 -0.60585,0.58917z" data-paper-data="{&quot;index&quot;:null}" fill="#000000" stroke="none" stroke-width="0.5" stroke-linecap="butt"/><path d="M200.33613,194.07351c-0.3338,0 -0.60438,-0.26379 -0.60438,-0.58918c0,-0.32541 0.27058,-0.58918 0.60438,-0.58918c0.3338,0 0.60438,0.26379 0.60438,0.58918c0,0.32541 -0.27058,0.58918 -0.60438,0.58918z" data-paper-data="{&quot;index&quot;:null}" fill="#000000" stroke="none" stroke-width="0.5" stroke-linecap="butt"/><path d="M192.7418,194.01458c-0.31464,0 -0.5697,-0.26378 -0.5697,-0.58917c0,-0.32538 0.25508,-0.58917 0.5697,-0.58917c0.31464,0 0.5697,0.26378 0.5697,0.58917c0,0.32539 -0.25508,0.58917 -0.5697,0.58917z" data-paper-data="{&quot;index&quot;:null}" fill="#000000" stroke="none" stroke-width="0.5" stroke-linecap="butt"/><path d="M217.21532,191.7762c-0.71407,0 -1.29295,-0.54786 -1.29295,-1.22366c0,-0.6758 0.57888,-1.22367 1.29295,-1.22367c0.71406,0 1.29293,0.54787 1.29293,1.22367c0,0.6758 -0.57886,1.22366 -1.29293,1.22366z" data-paper-data="{&quot;index&quot;:null}" fill="none" stroke="#000000" stroke-width="0.5" stroke-linecap="butt"/><path d="M193.62169,191.7762c-0.68301,0 -1.23669,-0.54786 -1.23669,-1.22366c0,-0.6758 0.55368,-1.22367 1.23669,-1.22367c0.68301,0 1.23669,0.54787 1.23669,1.22367c0,0.6758 -0.55368,1.22366 -1.23669,1.22366z" data-paper-data="{&quot;index&quot;:null}" fill="none" stroke="#000000" stroke-width="0.5" stroke-linecap="butt"/><path d="M193.71239,191.7762h23.36228" data-paper-data="{&quot;index&quot;:null}" fill="none" stroke="#000000" stroke-width="0.5" stroke-linecap="round"/><path d="M193.65928,189.32886h23.36228" data-paper-data="{&quot;index&quot;:null}" fill="none" stroke="#000000" stroke-width="0.5" stroke-linecap="round"/><path d="M216.17591,189.80221h-21.53718" data-paper-data="{&quot;index&quot;:null}" fill="none" stroke="#000000" stroke-width="0.5" stroke-linecap="round"/><path d="M194.69973,191.28307h21.45064" data-paper-data="{&quot;index&quot;:null}" fill="none" stroke="#000000" stroke-width="0.5" stroke-linecap="round"/><path d="M207.77854,191.76871v-2.42116h6.5022v2.42116z" data-paper-data="{&quot;index&quot;:null}" fill="#bdbdbd" stroke="#000000" stroke-width="0.4" stroke-linecap="butt"/><path d="M213.0831,191.13542c-0.01531,0.00036 -0.02441,0.00075 -0.02633,0.00117c-0.00815,0.00176 0.01918,-0.01735 0.02633,-0.00117z" data-paper-data="{&quot;noHover&quot;:false,&quot;origItem&quot;:[&quot;Path&quot;,{&quot;applyMatrix&quot;:true,&quot;segments&quot;:[[[476.86243,360.82271],[0,0],[-0.1938,-0.00608]],[[475.87487,360.82101],[0.0259,-0.00572],[-0.02408,0.00528]],[[475.74555,360.87285],[0.07272,-0.03348],[-0.03662,0.01688]],[[475.60449,360.93723],[0.04092,-0.01854],[-0.04098,0.0185]],[[475.42861,361.02263],[0.05578,-0.02846],[-0.05576,0.02848]],[[475.32065,361.07439],[0.0036,0],[-0.0057,0]],[[475.11393,361.17501],[0.04074,-0.02262],[-0.00824,0.00456]],[[475.06759,361.19671],[0.01722,-0.00736],[-0.01726,0.0074]],[[474.95395,361.24893],[0.04526,-0.02134],[-0.04528,0.02134]],[[474.85595,361.29465],[0.00866,-0.0038],[-0.0086,0.00386]],[[474.82855,361.30889],[0.00644,-0.004],[-0.0065,0.00404]],[[474.71097,361.36685],[0.0582,-0.02786],[-0.05818,0.02786]],[[474.46017,361.48799],[0.07976,-0.03874],[-0.07974,0.03878]],[[474.17407,361.62667],[0.0776,-0.03754],[-0.55618,0.26892]],[[473.37593,362.04349],[0.03482,-0.03972],[-0.04466,0.05098]],[[473.37335,362.71403],[-0.0442,-0.05538],[0.02934,0.03674]],[[474.50323,362.74545],[-1.07494,0.00604],[1.13222,-0.00634]],[[476.39721,362.75241],[-0.04184,-0.01066],[0.03798,0.00962]],[[476.43991,362.92409],[-0.00384,-0.15858],[0.00524,0.21718]],[[476.46547,363.32961],[-0.00954,-0.01786],[0.017,0.03168]],[[476.79513,363.36541],[-0.2779,-0.00034],[0.28534,0.00034]],[[477.11641,363.32145],[-0.0156,0.0415],[0.01016,-0.02706]],[[477.14061,362.89917],[0,0.15034],[0,0]],[477.14061,362.76263],[[477.16605,362.75379],[0,0],[0.014,-0.00486]],[[477.31693,362.73989],[-0.06894,0.00276],[0.36334,-0.01458]],[[477.67171,362.51757],[0.00714,0.20866],[-0.00598,-0.17436]],[[477.47763,362.33547],[0.18922,0.00878],[-0.3818,-0.0177]],[[477.12573,362.25203],[-0.00254,0.07222],[0.00324,-0.09194]],[[477.11267,360.98035],[0.00502,0.08068],[-0.00958,-0.15394]],[[476.86237,360.82271],[0.2472,0.00778],[0,0]]],&quot;fillColor&quot;:[0.16078,0.16078,0.16078],&quot;fillRule&quot;:&quot;evenodd&quot;,&quot;strokeColor&quot;:[0.16078,0.16078,0.16078],&quot;strokeWidth&quot;:0.05}],&quot;index&quot;:null}" fill="#00286d" stroke="#292929" stroke-width="0.025" stroke-linecap="butt"/><path d="M219.89251,192.22604c0.1958,-0.20684 0.52221,-0.21579 0.72905,-0.01997c0.20684,0.19581 0.21578,0.52221 0.01997,0.72905c-0.19581,0.20684 -0.52221,0.21579 -0.72905,0.01997c-0.20682,-0.1958 -0.21578,-0.5222 -0.01997,-0.72904z" data-paper-data="{&quot;index&quot;:null}" fill="url(#color-11)" stroke="#000000" stroke-width="0.15" stroke-linecap="butt"/><path d="M220.1626,193.03422l-0.3371,-0.31912l0.10444,-0.45364l0.44154,-0.13453l0.33709,0.31911l-0.10444,0.45365z" data-paper-data="{&quot;index&quot;:null}" fill="url(#color-12)" stroke="#000000" stroke-width="0.15" stroke-linecap="round"/><path d="M190.69221,159.89609c0,0 26.13597,-0.06285 29.07428,0c0.95838,0.0205 0.93061,0.83993 0.93061,0.83993v10.02526c0,0 0.07961,0.89061 -1.04914,0.90628c-1.8551,0.02576 -28.25255,-0.03952 -28.65313,-0.0455c-0.76347,-0.01139 -0.68526,-0.77818 -0.68526,-0.77818c0,0 -0.06771,-6.6555 -0.00259,-9.97398c0.01679,-0.85547 0.38527,-0.97381 0.38527,-0.97381z" data-paper-data="{&quot;index&quot;:null}" fill="url(#color-13)" stroke="#000000" stroke-width="0.5" stroke-linecap="butt"/><path d="M220.68581,168.24586c-0.02584,1.5884 -0.03005,2.71494 -0.03005,2.71494c0,0 -0.03434,0.68671 -0.72341,0.67877c-0.94978,-0.01095 -2.24145,-0.00166 -3.45484,0.00105c-1.3197,0.00295 0.19922,-1.80594 -1.57303,-1.80519c-1.69916,0.00073 -0.2698,1.74617 -1.5219,1.77582c-1.44643,0.03423 -2.46738,0.0532 -4.66223,0.01421c-1.04483,-0.01857 0.18904,-1.72797 -1.49318,-1.73325c-1.59249,-0.00499 -0.30411,1.73437 -1.39706,1.71136c-1.04087,-0.02191 -2.55523,0.03086 -4.32068,0.01093c-1.04028,-0.01174 0.0378,-1.66385 -1.55292,-1.66396c-1.69098,-0.00011 -0.47887,1.67306 -1.3719,1.68163c-0.88323,0.00847 -2.59214,-0.01583 -4.09678,-0.02356c-1.14634,-0.0059 -0.25014,-1.73697 -1.10156,-1.75907c-1.54552,-0.0401 -3.03892,0.13549 -3.05987,-0.88376c-0.00803,-0.38998 -0.10051,-1.28849 -0.06038,-1.81486c0.04309,-0.56521 1.20739,-0.03287 1.12196,-1.12565c-0.07831,-1.00167 -1.13682,-0.37307 -1.12795,-0.98452c0.02052,-1.41672 0.02797,-2.39359 0.03416,-3.41211c0.00943,-1.55203 0.18034,-1.6894 0.61132,-1.73218c1.47944,0.01567 1.64971,-0.0248 2.89636,0c1.34019,0.02667 -0.18108,6.5459 2.20085,6.5459c2.33173,0 0.44494,-6.47698 1.96849,-6.5088c1.56073,-0.0326 1.56801,-0.08353 3.11406,-0.03747c1.21481,0.03618 -0.18981,6.56329 2.10502,6.52039c2.35408,-0.04401 0.4384,-6.40478 1.915,-6.49118c1.8684,-0.10934 1.5148,-0.01298 3.23671,0.00894c1.38513,0.01765 0.17998,6.49789 2.34033,6.46014c2.15596,-0.03769 0.68535,-6.54495 2.11331,-6.50924c1.21597,0.0304 1.98061,-0.03867 2.97585,0c1.47984,0.05752 0.08604,6.42533 2.73212,6.46058c1.43064,0.09817 2.12816,0.86264 2.18217,1.90013z" data-paper-data="{&quot;index&quot;:null}" fill="none" stroke="#000000" stroke-width="0.45" stroke-linecap="round"/><path d="M217.41711,165.78313h-5.78967c0,0 -0.47286,0.61441 -0.94937,0.63292c-0.44517,0.0173 -0.98455,-0.63292 -0.98455,-0.63292h-5.55558c0,0 -0.35835,0.68189 -0.94939,0.66807c-0.56918,-0.01331 -0.94937,-0.66807 -0.94937,-0.66807h-5.23914c0,0 -0.5165,0.70323 -1.01969,0.70323c-0.5266,0 -1.0197,-0.70323 -1.0197,-0.70323h-3.62833" data-paper-data="{&quot;index&quot;:null}" fill="none" stroke="#000000" stroke-width="0.5" stroke-linecap="round"/><path d="M195.95127,164.67222c0.34033,0 0.61622,0.26378 0.61622,0.58917c0,0.32538 -0.27589,0.58917 -0.61622,0.58917c-0.34033,0 -0.61623,-0.26378 -0.61623,-0.58917c0,-0.32539 0.2759,-0.58917 0.61623,-0.58917z" data-paper-data="{&quot;index&quot;:null}" fill="#000000" stroke="none" stroke-width="0.5" stroke-linecap="butt"/><path d="M203.15912,164.67222c0.33462,0 0.60586,0.26378 0.60586,0.58917c0,0.32538 -0.27127,0.58917 -0.60586,0.58917c-0.33462,0 -0.60586,-0.26378 -0.60586,-0.58917c0,-0.32539 0.27127,-0.58917 0.60586,-0.58917z" data-paper-data="{&quot;index&quot;:null}" fill="#000000" stroke="none" stroke-width="0.5" stroke-linecap="butt"/><path d="M210.63345,164.61328c0.33379,0 0.60438,0.26378 0.60438,0.58917c0,0.32541 -0.27058,0.58919 -0.60438,0.58919c-0.3338,0 -0.60438,-0.2638 -0.60438,-0.58919c0,-0.32539 0.27058,-0.58917 0.60438,-0.58917z" data-paper-data="{&quot;index&quot;:null}" fill="#000000" stroke="none" stroke-width="0.5" stroke-linecap="butt"/><path d="M218.22775,164.67222c0.31464,0 0.56971,0.26378 0.56971,0.58917c0,0.32538 -0.25509,0.58917 -0.56971,0.58917c-0.31464,0 -0.5697,-0.26378 -0.5697,-0.58917c0,-0.32539 0.25508,-0.58917 0.5697,-0.58917z" data-paper-data="{&quot;index&quot;:null}" fill="#000000" stroke="none" stroke-width="0.5" stroke-linecap="butt"/><path d="M193.75426,166.9106c0.71407,0 1.29295,0.54786 1.29295,1.22366c0,0.6758 -0.57888,1.22366 -1.29295,1.22366c-0.71406,0 -1.29293,-0.54786 -1.29293,-1.22366c0,-0.6758 0.57886,-1.22366 1.29293,-1.22366z" data-paper-data="{&quot;index&quot;:null}" fill="none" stroke="#000000" stroke-width="0.5" stroke-linecap="butt"/><path d="M217.3479,166.9106c0.68301,0 1.23668,0.54786 1.23668,1.22366c0,0.6758 -0.55367,1.22366 -1.23668,1.22366c-0.683,0 -1.23669,-0.54786 -1.23669,-1.22366c0,-0.6758 0.55368,-1.22366 1.23669,-1.22366z" data-paper-data="{&quot;index&quot;:null}" fill="none" stroke="#000000" stroke-width="0.5" stroke-linecap="butt"/><path d="M217.25719,166.91059h-23.36228" data-paper-data="{&quot;index&quot;:null}" fill="none" stroke="#000000" stroke-width="0.5" stroke-linecap="round"/><path d="M193.948,169.35792h23.36228" data-paper-data="{&quot;index&quot;:null}" fill="none" stroke="#000000" stroke-width="0.5" stroke-linecap="round"/><path d="M216.33083,168.88459h-21.53717" data-paper-data="{&quot;index&quot;:null}" fill="none" stroke="#000000" stroke-width="0.5" stroke-linecap="round"/><path d="M216.26983,167.40373h-21.45064" data-paper-data="{&quot;index&quot;:null}" fill="none" stroke="#000000" stroke-width="0.5" stroke-linecap="round"/><path d="M203.19103,166.9181v2.42116h-6.5022v-2.42116z" data-paper-data="{&quot;index&quot;:null}" fill="#bdbdbd" stroke="#000000" stroke-width="0.4" stroke-linecap="butt"/><path d="M195.37021,161.81859c0.11922,-0.25866 0.42557,-0.37171 0.68423,-0.25249c0.25866,0.11922 0.37169,0.42556 0.25248,0.68422c-0.11922,0.25867 -0.42555,0.37171 -0.68421,0.25249c-0.25867,-0.11922 -0.37172,-0.42556 -0.2525,-0.68422z" data-paper-data="{&quot;index&quot;:null}" fill="url(#color-14)" stroke="#000000" stroke-width="0.15" stroke-linecap="butt"/><path d="M202.56546,162.02307c-0.03515,-0.28264 0.16548,-0.54026 0.44813,-0.5754c0.28264,-0.03514 0.54026,0.16549 0.5754,0.44814c0.03515,0.28264 -0.16548,0.54027 -0.44813,0.57541c-0.28263,0.03514 -0.54026,-0.16549 -0.5754,-0.44814z" data-paper-data="{&quot;index&quot;:null}" fill="url(#color-15)" stroke="#000000" stroke-width="0.15" stroke-linecap="butt"/><path d="M210.63197,161.33397c0.28329,0.02954 0.48897,0.28313 0.45942,0.56642c-0.02955,0.28327 -0.28313,0.48898 -0.56642,0.45943c-0.28327,-0.02954 -0.48897,-0.28313 -0.45942,-0.56642c0.02954,-0.28327 0.28313,-0.48898 0.56642,-0.45943z" data-paper-data="{&quot;index&quot;:null}" fill="url(#color-16)" stroke="#000000" stroke-width="0.15" stroke-linecap="butt"/><path d="M190.348,166.48074c-0.20684,-0.1958 -0.21577,-0.52221 -0.01996,-0.72905c0.19581,-0.20684 0.5222,-0.21578 0.72904,-0.01997c0.20682,0.1958 0.21578,0.52221 0.01997,0.72905c-0.1958,0.20684 -0.52221,0.21578 -0.72905,0.01997z" data-paper-data="{&quot;index&quot;:null}" fill="url(#color-17)" stroke="#000000" stroke-width="0.15" stroke-linecap="butt"/><path d="M190.80698,165.65256l0.33711,0.31912l-0.10445,0.45365l-0.44153,0.13453l-0.33711,-0.31912l0.10445,-0.45363z" data-paper-data="{&quot;index&quot;:null}" fill="url(#color-18)" stroke="#000000" stroke-width="0.15" stroke-linecap="round"/><path d="M220.5947,173.43075h-29.95803" data-paper-data="{&quot;index&quot;:null}" fill="none" stroke="#000000" stroke-width="0.5" stroke-linecap="round"/><path d="M226.33523,181.63729v-4.9508h3.93086v4.9508z" data-paper-data="{&quot;index&quot;:null}" fill="#242424" stroke="#000000" stroke-width="0.35" stroke-linecap="butt"/><path d="M221.55796,190.52544v-4.66148h4.09888v4.66148z" data-paper-data="{&quot;index&quot;:null}" fill="#dfdfdf" stroke="#000000" stroke-width="0.5" stroke-linecap="butt"/><path d="M224.76409,173.87351v10.3517" data-paper-data="{&quot;index&quot;:null}" fill="none" stroke="#000000" stroke-width="0.35" stroke-linecap="round"/><path d="M220.67393,190.92729v-5.38481h4.09888v5.38481z" data-paper-data="{&quot;index&quot;:null}" fill="url(#color-19)" stroke="#000000" stroke-width="0.5" stroke-linecap="butt"/><path d="M225.33541,191.40952v-27.24218h0.88408v27.24218z" data-paper-data="{&quot;index&quot;:null}" fill="#242424" stroke="#000000" stroke-width="0.35" stroke-linecap="butt"/><path d="M222.76354,187.21955c-0.28482,0 -0.5157,-0.23089 -0.5157,-0.51571c0,-0.28482 0.23088,-0.5157 0.5157,-0.5157c0.28482,0 0.51571,0.23088 0.51571,0.5157c0,0.28482 -0.23089,0.51571 -0.51571,0.51571z" data-paper-data="{&quot;index&quot;:null}" fill="url(#color-20)" stroke="#000000" stroke-width="0.15" stroke-linecap="butt"/><path d="M222.5275,186.30259h0.4642l0.23601,0.40125l-0.22815,0.40124h-0.46419l-0.23602,-0.40124z" data-paper-data="{&quot;index&quot;:null}" fill="url(#color-21)" stroke="#000000" stroke-width="0.15" stroke-linecap="round"/><path d="M220.78149,180.88448v-1.91282h2.58793v1.91282z" data-paper-data="{&quot;index&quot;:null}" fill="#00286d" stroke="#000000" stroke-width="0.5" stroke-linecap="butt"/><path d="M224.25443,196.56608v-3.54434" data-paper-data="{&quot;index&quot;:null}" fill="none" stroke="#000000" stroke-width="0.5" stroke-linecap="round"/><path d="M219.97221,185.56675c-1.51472,0 -2.74263,-1.22792 -2.74263,-2.74263c0,-1.51471 1.22791,-2.74263 2.74263,-2.74263c1.51472,0 2.74263,1.22792 2.74263,2.74263c0,1.51471 -1.22791,2.74263 -2.74263,2.74263z" data-paper-data="{&quot;index&quot;:null}" fill="#131313" stroke="#000000" stroke-width="0.35" stroke-linecap="butt"/><path d="M220.90516,171.69721l0.00253,1.88894l-30.6501,0.02443l-0.00254,-1.88895z" data-paper-data="{&quot;index&quot;:null}" fill="url(#color-22)" stroke="none" stroke-width="0" stroke-linecap="butt"/><path d="M219.97224,185.07448c-1.24285,0 -2.25037,-1.00753 -2.25037,-2.25036c0,-1.24285 1.00754,-2.25037 2.25037,-2.25037c1.24285,0 2.25036,1.00754 2.25036,2.25037c0,1.24284 -1.00753,2.25036 -2.25036,2.25036z" data-paper-data="{&quot;index&quot;:null}" fill="#131313" stroke="#000000" stroke-width="0.35" stroke-linecap="butt"/><path d="M218.72986,185.13542c-0.27964,0 -0.50634,-0.2267 -0.50634,-0.50633c0,-0.27964 0.22671,-0.50634 0.50634,-0.50634c0.27964,0 0.50633,0.22671 0.50633,0.50634c0,0.27964 -0.2267,0.50633 -0.50633,0.50633z" data-paper-data="{&quot;index&quot;:null}" fill="#131313" stroke="#000000" stroke-width="0.35" stroke-linecap="butt"/><path d="M220.40824,185.52924c-0.27963,0 -0.50633,-0.22671 -0.50633,-0.50634c0,-0.27964 0.2267,-0.50634 0.50633,-0.50634c0.27963,0 0.50632,0.22671 0.50632,0.50634c0,0.27964 -0.22669,0.50634 -0.50632,0.50634z" data-paper-data="{&quot;index&quot;:null}" fill="#131313" stroke="#000000" stroke-width="0.35" stroke-linecap="butt"/><path d="M221.80064,184.55408c-0.27964,0 -0.50633,-0.22669 -0.50633,-0.50632c0,-0.27965 0.2267,-0.50634 0.50633,-0.50634c0.27964,0 0.50634,0.22671 0.50634,0.50634c0,0.27964 -0.22671,0.50632 -0.50634,0.50632z" data-paper-data="{&quot;index&quot;:null}" fill="#131313" stroke="#000000" stroke-width="0.35" stroke-linecap="butt"/><path d="M222.17572,182.81943c-0.27964,0 -0.50632,-0.22671 -0.50632,-0.50634c0,-0.27963 0.22669,-0.50633 0.50632,-0.50633c0.27964,0 0.50633,0.2267 0.50633,0.50633c0,0.27965 -0.2267,0.50634 -0.50633,0.50634z" data-paper-data="{&quot;index&quot;:null}" fill="#131313" stroke="#000000" stroke-width="0.35" stroke-linecap="butt"/><path d="M217.7828,183.7524c-0.27963,0 -0.50633,-0.22671 -0.50633,-0.50634c0,-0.27964 0.2267,-0.50634 0.50633,-0.50634c0.27963,0 0.50633,0.22671 0.50633,0.50634c0,0.27964 -0.2267,0.50634 -0.50633,0.50634z" data-paper-data="{&quot;index&quot;:null}" fill="#131313" stroke="#000000" stroke-width="0.35" stroke-linecap="butt"/><path d="M218.01722,182.13964c-0.27964,0 -0.50634,-0.22671 -0.50634,-0.50634c0,-0.27964 0.22671,-0.50633 0.50634,-0.50633c0.27964,0 0.50633,0.2267 0.50633,0.50633c0,0.27964 -0.2267,0.50634 -0.50633,0.50634z" data-paper-data="{&quot;index&quot;:null}" fill="#131313" stroke="#000000" stroke-width="0.35" stroke-linecap="butt"/><path d="M219.41431,181.15511c-0.27964,0 -0.50633,-0.22671 -0.50633,-0.50634c0,-0.27964 0.2267,-0.50634 0.50633,-0.50634c0.27963,0 0.50633,0.22671 0.50633,0.50634c0,0.27964 -0.2267,0.50634 -0.50633,0.50634z" data-paper-data="{&quot;index&quot;:null}" fill="#131313" stroke="#000000" stroke-width="0.35" stroke-linecap="butt"/><path d="M221.16775,181.40827c-0.27964,0 -0.50632,-0.22671 -0.50632,-0.50634c0,-0.27964 0.22669,-0.50633 0.50632,-0.50633c0.27964,0 0.50633,0.2267 0.50633,0.50633c0,0.27965 -0.2267,0.50634 -0.50633,0.50634z" data-paper-data="{&quot;index&quot;:null}" fill="#131313" stroke="#000000" stroke-width="0.35" stroke-linecap="butt"/><path d="M218.21593,165.2128c0,0 0.27892,0.80571 0.79082,1.26774c0.72873,0.6577 1.76463,1.19637 1.72651,2.67129c-0.02505,0.96915 0.32002,4.43299 -0.01239,6.98417c-0.35101,2.69392 -1.32351,4.45432 -1.32351,4.45432" data-paper-data="{&quot;index&quot;:null}" fill="none" stroke="#000000" stroke-width="1" stroke-linecap="round"/><path d="M210.52719,165.11905c0,0 1.19778,2.09641 3.37302,2.54397c2.22398,0.4576 7.60594,0.62279 9.64144,12.12262c0.46663,2.63632 -1.68762,4.25525 -1.68762,4.25525" data-paper-data="{&quot;index&quot;:null}" fill="none" stroke="#000000" stroke-width="1" stroke-linecap="round"/><path d="M203.04469,165.10781c0,0 0.58681,1.57039 2.757,1.96742c2.28252,0.4176 10.15316,-0.408 12.75673,1.37207c5.62586,3.84642 5.91902,11.42721 5.16687,13.48979c-2.41249,6.61567 -5.04055,2.69266 -5.04055,2.69266" data-paper-data="{&quot;index&quot;:null}" fill="none" stroke="#000000" stroke-width="1" stroke-linecap="round"/><path d="M195.94664,165.23472c0,0 0.0911,1.84393 3.4345,2.05629c5.75287,0.36539 16.4773,-0.54547 19.32426,1.65748c6.4843,5.01748 3.43302,13.35152 3.43302,13.35152" data-paper-data="{&quot;index&quot;:null}" fill="none" stroke="#000000" stroke-width="1" stroke-linecap="round"/><path d="M221.13203,180.74438c0,0 0.63407,4.51798 -0.44076,6.69488c-0.61284,1.24119 -3.6048,4.07229 -4.83755,4.5382c-0.86018,0.3251 -0.96645,1.60205 -0.96645,1.60205" data-paper-data="{&quot;index&quot;:null}" fill="none" stroke="#000000" stroke-width="1" stroke-linecap="round"/><path d="M220.51318,184.65841c0,0 -1.43571,5.2096 -3.1822,6.40284c-1.24026,0.84739 -5.61905,0.47478 -7.82807,1.15346c-2.01601,0.61937 -1.76861,1.3648 -1.76861,1.3648" data-paper-data="{&quot;index&quot;:null}" fill="none" stroke="#000000" stroke-width="1" stroke-linecap="round"/><path d="M217.86093,183.05101c0,0 -0.04124,4.28283 -1.91236,5.36875c-1.63391,0.94825 -9.63579,-0.76534 -13.23012,0.26252c-3.63883,1.0406 -2.37825,4.89722 -2.37825,4.89722" data-paper-data="{&quot;index&quot;:null}" fill="none" stroke="#000000" stroke-width="1" stroke-linecap="round"/><path d="M218.02971,181.52397c0,0 0.50423,5.38606 -2.42137,6.76008c-2.51352,1.18047 -10.79209,-0.42512 -16.23198,0.58096c-2.90538,0.53736 -5.17076,2.12349 -6.15015,3.33895c-0.57225,0.71018 -0.60155,1.31931 -0.60155,1.31931" data-paper-data="{&quot;index&quot;:null}" fill="none" stroke="#000000" stroke-width="1" stroke-linecap="round"/><path d="M203.86333,192.42383c-1.12171,0 -2.03104,-0.88367 -2.03104,-1.97372c0,-1.09005 0.90933,-1.97373 2.03104,-1.97373c1.12172,0 2.03104,0.88368 2.03104,1.97373c0,1.09005 -0.90933,1.97372 -2.03104,1.97372z" data-paper-data="{&quot;index&quot;:null}" fill="url(#color-23)" stroke="#000000" stroke-width="0.5" stroke-linecap="butt"/><path d="M207.10626,166.26297c1.12171,0 2.03105,0.88367 2.03105,1.97372c0,1.09005 -0.90934,1.97372 -2.03105,1.97372c-1.12172,0 -2.03104,-0.88367 -2.03104,-1.97372c0,-1.09005 0.90933,-1.97372 2.03104,-1.97372z" data-paper-data="{&quot;index&quot;:null}" fill="url(#color-24)" stroke="#000000" stroke-width="0.5" stroke-linecap="butt"/><path d="M193.75882,185.74798c0,0 1.73344,-3.02648 3.90854,-4.23057c2.1751,-1.20409 6.496,-1.52917 6.496,-1.52917c0,0 -1.12744,1.10248 -2.07237,2.99261c-0.83242,1.66508 -1.16168,2.72611 -1.16168,2.72611" data-paper-data="{&quot;index&quot;:null}" fill="none" stroke="url(#color-25)" stroke-width="4.5" stroke-linecap="round"/><path d="M208.01962,185.70309c0,0 -0.33607,-1.65385 -0.64258,-2.55314c-0.74085,-2.17348 -2.2399,-3.32572 -2.2399,-3.32572c0,0 4.45223,0.30072 6.92115,2.52885c1.59374,1.43828 2.51906,3.48545 2.51906,3.48545" data-paper-data="{&quot;index&quot;:null}" fill="none" stroke="url(#color-26)" stroke-width="4.5" stroke-linecap="round"/><path d="M203.68665,172.97017c0,0 0.76091,2.60139 1.24204,3.63173c0.38846,0.83187 1.37331,2.08324 1.37331,2.08324c0,0 -3.68,-0.01341 -5.75541,-1.20421c-3.02959,-1.73828 -4.28702,-4.41408 -4.28702,-4.41408" data-paper-data="{&quot;index&quot;:null}" fill="none" stroke="url(#color-27)" stroke-width="4.5" stroke-linecap="round"/><path d="M217.72085,173.02995c0,0 -0.30394,3.34385 -3.03405,4.76253c-2.73013,1.41869 -8.16299,1.056 -8.16299,1.056c0,0 1.02216,-0.45968 1.76282,-0.98395c0.68037,-0.48161 1.47485,-1.64814 1.71052,-2.19274c0.49222,-1.13748 0.90406,-2.77812 0.90406,-2.77812" data-paper-data="{&quot;index&quot;:null}" fill="none" stroke="url(#color-28)" stroke-width="4.5" stroke-linecap="round"/><path d="M212.62853,179.64969l-3.17268,-3.94605l13.37274,-10.75188l3.17269,3.94605z" data-paper-data="{&quot;index&quot;:null}" fill="#003fab" stroke="#000000" stroke-width="0.5" stroke-linecap="butt"/><path d="M205.98446,193.07444c-6.52494,0 -11.81443,-5.28951 -11.81443,-11.81444c0,-6.52494 5.2895,-11.81444 11.81443,-11.81444c6.52494,0 11.81444,5.28951 11.81444,11.81444c0,6.52494 -5.28951,11.81444 -11.81444,11.81444z" data-paper-data="{&quot;index&quot;:null}" fill="#00286d" stroke="#000000" stroke-width="1" stroke-linecap="butt"/><path d="M205.98446,191.38666c-5.5928,0 -10.12666,-4.53386 -10.12666,-10.12666c0,-5.5928 4.53387,-10.12666 10.12666,-10.12666c5.59279,0 10.12665,4.53386 10.12665,10.12666c0,5.5928 -4.53386,10.12666 -10.12665,10.12666z" data-paper-data="{&quot;index&quot;:null}" fill="#003fab" stroke="#000000" stroke-width="0.5" stroke-linecap="butt"/><path d="M205.98449,188.99565c-4.27226,0 -7.73564,-3.46336 -7.73564,-7.73564c0,-4.27228 3.46338,-7.73563 7.73564,-7.73563c4.27228,0 7.73563,3.46335 7.73563,7.73563c0,4.27228 -3.46337,7.73564 -7.73563,7.73564z" data-paper-data="{&quot;index&quot;:null}" fill="url(#color-29)" stroke="#000000" stroke-width="0.5" stroke-linecap="butt"/><path d="M205.61855,185.22617c-2.29149,0 -4.14912,-1.85762 -4.14912,-4.14912c0,-2.29149 1.85762,-4.14911 4.14912,-4.14911c2.29149,0 4.14911,1.85762 4.14911,4.14911c0,2.29149 -1.85762,4.14912 -4.14911,4.14912z" data-paper-data="{&quot;index&quot;:null}" fill="#003fab" stroke="#000000" stroke-width="0.5" stroke-linecap="butt"/><path d="M220.46114,173.21025l-3.05407,-3.69703" data-paper-data="{&quot;index&quot;:null}" fill="none" stroke="#000000" stroke-width="0.5" stroke-linecap="round"/><path d="M205.91414,182.44613c-0.69909,0 -1.26584,-0.56673 -1.26584,-1.26583c0,-0.6991 0.56674,-1.26583 1.26584,-1.26583c0.6991,0 1.26583,0.56673 1.26583,1.26583c0,0.69909 -0.56673,1.26583 -1.26583,1.26583z" data-paper-data="{&quot;index&quot;:null}" fill="#cecece" stroke="#000000" stroke-width="0.5" stroke-linecap="butt"/><path d="M228.54575,176.72863v-6.75111h1.26584v6.75111z" data-paper-data="{&quot;index&quot;:null}" fill="#242424" stroke="#000000" stroke-width="0.35" stroke-linecap="butt"/><path d="M229.73919,182.19827l-0.97467,-6.64172" data-paper-data="{&quot;index&quot;:null}" fill="none" stroke="#000000" stroke-width="0.5" stroke-linecap="round"/><path d="M220.85016,199.04377l-0.42189,5.48467l-4.21898,5.90659l-3.3752,3.37519l-0.52738,-2.10949l-1.05474,-1.05475l-2.53139,-0.63284l5.48467,-4.64089l1.26569,-4.00803l0.21096,-2.32044z" data-paper-data="{&quot;index&quot;:null}" fill="#a5a5a5" stroke="#000000" stroke-width="1" stroke-linecap="round"/><path d="M213.88884,199.67661l-0.42189,5.48468l-4.21898,5.90658l-3.3752,3.3752l-0.52738,-2.1095l-1.05474,-1.05474l-2.53139,-0.63285l5.48467,-4.64088l1.26569,-4.00804l0.21096,-2.32044z" data-paper-data="{&quot;index&quot;:null}" fill="#a5a5a5" stroke="#000000" stroke-width="1" stroke-linecap="round"/><path d="M205.45087,199.46568l-0.42189,5.48467l-4.21899,5.90659l-3.37518,3.37518l-0.52738,-2.10948l-1.05475,-1.05476l-2.53139,-0.63284l5.48467,-4.64087l1.26569,-4.00804l0.21096,-2.32044z" data-paper-data="{&quot;index&quot;:null}" fill="#a5a5a5" stroke="#000000" stroke-width="1" stroke-linecap="round"/><path d="M196.38003,199.46568l-0.42188,5.48467l-4.21899,5.90659l-3.37519,3.37518l-0.52738,-2.10948l-1.05474,-1.05476l-2.5314,-0.63284l5.48468,-4.64087l1.26569,-4.00804l0.21095,-2.32044z" data-paper-data="{&quot;index&quot;:null}" fill="#a5a5a5" stroke="#000000" stroke-width="1" stroke-linecap="round"/><path d="M215.04906,159.17436l-0.21095,-2.32043l-1.2657,-4.00804l-5.48467,-4.64087l2.53139,-0.63285l1.05475,-1.05476l0.52738,-2.10948l3.37519,3.37519l4.21898,5.90658l0.42189,5.48467z" data-paper-data="{&quot;index&quot;:null}" fill="#a5a5a5" stroke="#000000" stroke-width="1" stroke-linecap="round"/><path d="M207.87681,159.38529l-0.21096,-2.32043l-1.26569,-4.00804l-5.48467,-4.64087l2.53139,-0.63285l1.05475,-1.05475l0.52738,-2.10948l3.37518,3.37518l4.21899,5.90658l0.42189,5.48467z" data-paper-data="{&quot;index&quot;:null}" fill="#a5a5a5" stroke="#000000" stroke-width="1" stroke-linecap="round"/><path d="M200.28264,159.59628l-0.21096,-2.32044l-1.26569,-4.00804l-5.48467,-4.64088l2.53139,-0.63285l1.05474,-1.05474l0.52738,-2.1095l3.37518,3.3752l4.219,5.90658l0.42189,5.48468z" data-paper-data="{&quot;index&quot;:null}" fill="#a5a5a5" stroke="#000000" stroke-width="1" stroke-linecap="round"/><path d="M191.63367,159.17436l-0.21095,-2.32043l-1.26569,-4.00804l-5.48468,-4.64087l2.5314,-0.63285l1.05474,-1.05476l0.52738,-2.10948l3.37519,3.37519l4.21898,5.90658l0.42189,5.48467z" data-paper-data="{&quot;index&quot;:null}" fill="#a5a5a5" stroke="#000000" stroke-width="1" stroke-linecap="round"/><path d="M212.8461,214.10428l-1.15063,1.03557l-1.61089,0.46024l-1.15063,-0.46024l-0.57531,-1.72595l0.69039,-2.07115l1.15063,-0.9205l1.03557,0.23012l0.57532,0.57531z" data-paper-data="{&quot;index&quot;:null}" fill="#000000" stroke="#000000" stroke-width="1" stroke-linecap="round"/><path d="M205.59712,213.52895l-1.2657,1.03557l-1.95607,0.46024l-1.03557,-0.11506l-0.9205,-0.57533l-0.34519,-1.72594l1.03556,-1.841l2.87659,0.34519l1.15063,1.15063z" data-paper-data="{&quot;index&quot;:null}" fill="#000000" stroke="#000000" stroke-width="1" stroke-linecap="round"/><path d="M196.73721,214.10428l-1.26569,1.03557l-1.95608,0.46024l-1.03557,-0.11506l-0.9205,-0.57532l-0.3452,-1.72595l1.03557,-1.84101l2.87659,0.3452l1.15063,1.15063z" data-paper-data="{&quot;index&quot;:null}" fill="#000000" stroke="#000000" stroke-width="1" stroke-linecap="round"/><path d="M187.99241,214.10428l-1.26569,1.03557l-1.95607,0.46024l-1.03557,-0.11506l-0.92051,-0.57532l-0.34518,-1.72595l1.03556,-1.84101l2.87659,0.3452l1.15063,1.15063z" data-paper-data="{&quot;index&quot;:null}" fill="#000000" stroke="#000000" stroke-width="1" stroke-linecap="round"/><path d="M211.8872,146.02519l-1.15063,1.15064l-2.87659,0.34519l-1.03557,-1.841l0.34518,-1.72596l0.92051,-0.57531l1.03557,-0.11506l1.95608,0.46024l1.26569,1.03557z" data-paper-data="{&quot;index&quot;:null}" fill="#000000" stroke="#000000" stroke-width="1" stroke-linecap="round"/><path d="M196.55822,146.30646l-1.15063,1.15063l-2.87659,0.34519l-1.03557,-1.841l0.34518,-1.72595l0.92051,-0.57532l1.03557,-0.11506l1.95608,0.46024l1.26569,1.03557z" data-paper-data="{&quot;index&quot;:null}" fill="#000000" stroke="#000000" stroke-width="1" stroke-linecap="round"/><path d="M188.68278,146.44708l-1.15063,1.15064l-2.87659,0.34519l-1.03556,-1.841l0.34519,-1.72596l0.9205,-0.57531l1.03557,-0.11506l1.95607,0.46025l1.26569,1.03557z" data-paper-data="{&quot;index&quot;:null}" fill="#000000" stroke="#000000" stroke-width="1" stroke-linecap="round"/><path d="M203.73049,145.88454l-1.15063,1.15065l-2.87658,0.34519l-1.03557,-1.841l0.34518,-1.72596l0.92051,-0.57531l1.03557,-0.11507l1.95608,0.46026l1.26569,1.03557z" data-paper-data="{&quot;index&quot;:null}" fill="#000000" stroke="#000000" stroke-width="1" stroke-linecap="round"/><path d="M166.90859,194.65604c0,0 3.09408,0.06258 4.35677,1.18557c1.26268,1.12299 1.53056,4.05041 1.53056,4.05041l-0.25314,16.26752c0,0 0.32437,3.78501 -1.20673,5.43163c-1.5311,1.64662 -5.48457,1.7645 -5.48457,1.7645h-34.36617c0,0 -3.69105,-0.34573 -5.1148,-1.74168c-1.42375,-1.39595 -1.60772,-4.84962 -1.60772,-4.84962l-0.31642,-16.51504c0,0 -0.07073,-2.31963 0.95626,-3.52616c1.02699,-1.20654 3.61616,-1.84564 3.61616,-1.84564z" data-paper-data="{&quot;index&quot;:null}" fill="url(#color-30)" stroke="#000000" stroke-width="0" stroke-linecap="round"/><path d="M109.89086,171.46214l0.31642,56.95629l-0.31642,7.9106l3.90256,-0.05275l-0.21096,2.10949l-39.8694,0.63285v-1.89855l3.79708,0.21096v-43.45553l-0.21095,-61.38623v-10.75841l-2.74235,0.21096l0.21095,-2.32044h38.18182l-0.42189,2.10949h-2.53139z" data-paper-data="{&quot;index&quot;:null}" fill="#000000" stroke="#000000" stroke-width="1" stroke-linecap="round"/><text transform="translate(88.214,136.14186) rotate(90.52365) scale(0.70301,0.46314) skewX(-0.45008)" font-size="40" xml:space="preserve" data-paper-data="{&quot;index&quot;:null}" fill="#ffb900" fill-rule="nonzero" stroke="none" stroke-width="1" stroke-linecap="butt" stroke-linejoin="miter" stroke-miterlimit="10" stroke-dasharray="" stroke-dashoffset="0" font-family="Sans Serif" font-weight="normal" text-anchor="start" style="mix-blend-mode: normal"><tspan x="0" dy="0">SPEED</tspan></text><path d="M189.5031,191.4707l-7.84731,-0.25314v-3.29081l-3.03767,0.25314v-17.71973l1.77198,-0.25314l0.25314,-2.78453h9.113z" data-paper-data="{&quot;index&quot;:null}" fill="url(#color-31)" stroke="#000000" stroke-width="1" stroke-linecap="round"/><path d="M178.11183,187.16734l-4.05022,-0.25314l0.25314,-12.91009v-2.53139h4.30336z" data-paper-data="{&quot;index&quot;:null}" fill="#000000" stroke="#000000" stroke-width="1" stroke-linecap="round"/><path d="M173.3022,184.63594l-8.60673,-0.24313l0.25314,-9.88242h8.60673z" data-paper-data="{&quot;index&quot;:null}" fill="url(#color-32)" stroke="#000000" stroke-width="1" stroke-linecap="round"/><path d="M164.04453,183.47874l-3.61627,-0.18081l0.18082,-1.80814h-2.71221l0.18082,-2.71221h3.25464l0.07232,-1.48267l3.29081,-0.25314z" data-paper-data="{&quot;index&quot;:null}" fill="#000000" stroke="#000000" stroke-width="1" stroke-linecap="round"/><path d="M153.19572,164.49329l0.36163,5.78604l0.90407,1.44651l2.35058,2.53139l0.18081,9.94475l-2.71221,3.07382l-0.18082,6.87092l-11.02963,0.54243l0.36163,-5.78604l-2.89301,-2.71221l-0.54244,-12.47614l1.44651,-1.62732l1.08489,-0.36162l0.54243,-6.5093z" data-paper-data="{&quot;index&quot;:null}" fill="url(#color-33)" stroke="#000000" stroke-width="1" stroke-linecap="round"/><path d="M151.74922,175.52294l-0.36162,8.31743l-5.96686,-0.18082v-7.95579z" data-paper-data="{&quot;index&quot;:null}" fill="#b9b9b9" stroke="#000000" stroke-width="1" stroke-linecap="round"/><text transform="translate(357.47625,183.95222) scale(0.79803,0.29992)" font-size="40" xml:space="preserve" data-paper-data="{&quot;index&quot;:null}" fill="#ffa000" fill-rule="nonzero" stroke="none" stroke-width="0" stroke-linecap="butt" stroke-linejoin="miter" stroke-miterlimit="10" stroke-dasharray="" stroke-dashoffset="0" font-family="Sans Serif" font-weight="normal" text-anchor="start" style="mix-blend-mode: normal"><tspan x="0" dy="0">SPEED</tspan></text><path d="M142.48251,163.97347l-0.31642,4.11351l-19.9347,9.80913l-0.31643,3.16424l2.5314,0.94927l18.669,9.49271l0.31642,2.21497l-3.79708,0.31642l-17.40331,-10.44199l-10.75842,-0.31642l0.63285,-6.6449h8.85987l19.61828,-12.0241z" data-paper-data="{&quot;index&quot;:null}" fill="#000000" stroke="#000000" stroke-width="1" stroke-linecap="round"/><path d="M270.12791,172.46418l-8.60673,0.50628v-5.31592l9.61928,0.25313z" data-paper-data="{&quot;index&quot;:null}" fill="#757575" stroke="#000000" stroke-width="1" stroke-linecap="round"/><path d="M270.38104,174.4893v9.87242h-7.84732v-10.12556z" data-paper-data="{&quot;index&quot;:null}" fill="#757575" stroke="#000000" stroke-width="1" stroke-linecap="round"/><path d="M270.38104,189.93078l-8.60673,0.25314l-0.25314,-3.54395l8.60673,-0.25314z" data-paper-data="{&quot;index&quot;:null}" fill="#757575" stroke="#000000" stroke-width="1" stroke-linecap="round"/><path d="M188.68039,205.42499l-15.82118,-1.89855l-2.5314,-5.69563l8.85987,1.89855l-6.6449,-4.74636l3.48066,-0.31642l14.77201,6.32847z" data-paper-data="{&quot;index&quot;:null}" fill="#000000" stroke="#000000" stroke-width="1" stroke-linecap="round"/><path d="M190.47904,158.21121l-14.77201,6.07867l-3.48066,-0.31642l6.6449,-4.74636l-8.85987,1.89854l2.5314,-5.69563l16.82041,-2.39815z" data-paper-data="{&quot;index&quot;:null}" fill="#000000" stroke="#000000" stroke-width="1" stroke-linecap="round"/><path d="M136.78688,166.82126l-12.97337,0.94927l-7.27774,2.21497h-5.06279l0.31643,-5.69563h26.26317z" data-paper-data="{&quot;index&quot;:null}" fill="#000000" stroke="#000000" stroke-width="1" stroke-linecap="round"/><path d="M137.73616,194.35015h-26.26318l-0.31642,-5.69563h5.06279l7.27774,2.21497l12.97337,0.94927z" data-paper-data="{&quot;index&quot;:null}" fill="#000000" stroke="#000000" stroke-width="1" stroke-linecap="round"/><path d="M119.7,169.03624v7.59418l-3.79709,0.31642l0.31643,-6.6449z" data-paper-data="{&quot;index&quot;:null}" fill="#b1b1b1" stroke="#000000" stroke-width="1" stroke-linecap="round"/><path d="M119.17263,183.85544l-0.42189,6.32848l-2.1095,-2.1095v-4.21898z" data-paper-data="{&quot;index&quot;:null}" fill="#b1b1b1" stroke="#000000" stroke-width="1" stroke-linecap="round"/><path d="M235.82758,163.18239l18.98542,3.48066v25.94675l-6.01205,1.26569l-17.08689,2.21497v-10.12556l-0.31642,-12.0241l0.31642,-10.44199z" data-paper-data="{&quot;index&quot;:null}" fill="none" stroke="#000000" stroke-width="1" stroke-linecap="round"/><path d="M255.44582,180.83886h-11.39126l-0.25314,1.51884l-3.79708,0.25314l0.25314,-6.32848h3.54394l0.25314,1.77198h11.6444z" data-paper-data="{&quot;index&quot;:null}" fill="#000000" stroke="#000000" stroke-width="1" stroke-linecap="round"/><path d="M240.6372,186.15477h-9.61928l0.25314,-12.40381l9.113,-0.25314l0.25314,11.13812z" data-paper-data="{&quot;index&quot;:null}" fill="#b9b9b9" stroke="#000000" stroke-width="1" stroke-linecap="round"/><path d="M538.01231,217.13267l3.48066,-0.31642l0.31642,-43.35007l0.63285,-31.00954h-4.42994l0.31642,-3.79708l28.47815,-0.31642l-0.31642,2.21497h-9.17629l0.31642,8.54344l0.63285,68.03112h7.9106v3.32245l-28.47815,0.63284z" data-paper-data="{&quot;index&quot;:null}" fill="#000000" stroke="#000000" stroke-width="0" stroke-linecap="round"/><text transform="translate(548.57317,146.6746) rotate(90.37229) scale(0.17622,0.22329) skewX(0.18073)" font-size="40" xml:space="preserve" data-paper-data="{&quot;index&quot;:null}" fill="#ffa000" fill-rule="nonzero" stroke="none" stroke-width="0" stroke-linecap="butt" stroke-linejoin="miter" stroke-miterlimit="10" stroke-dasharray="" stroke-dashoffset="0" font-family="Sans Serif" font-weight="normal" text-anchor="start" style="mix-blend-mode: normal"><tspan x="0" dy="0">SPEED</tspan></text><text transform="translate(547.72938,191.81773) rotate(90.37229) scale(0.17622,0.22329) skewX(0.18073)" font-size="40" xml:space="preserve" data-paper-data="{&quot;index&quot;:null}" fill="#ffa000" fill-rule="nonzero" stroke="none" stroke-width="0" stroke-linecap="butt" stroke-linejoin="miter" stroke-miterlimit="10" stroke-dasharray="" stroke-dashoffset="0" font-family="Sans Serif" font-weight="normal" text-anchor="start" style="mix-blend-mode: normal"><tspan x="0" dy="0">SPEED</tspan></text><path d="M543.85553,182.17156v3.16424l-278.45294,12.30536l-10.68643,1.48142l0.13896,-16.95103z" data-paper-data="{&quot;index&quot;:null}" fill="url(#color-34)" stroke="none" stroke-width="0" stroke-linecap="butt"/><path d="M254.73852,180.75279v18.35956l-4.74939,0.27317l-8.19515,3.27806l-16.35211,15.60033l-9.56738,0.19904l4.52739,-8.28717l6.41954,-28.46691z" data-paper-data="{&quot;index&quot;:null}" fill="url(#color-35)" stroke="none" stroke-width="0" stroke-linecap="butt"/><path d="M226.82142,179.38289l-2.21382,-6.5953l0.11465,-17.07826l-3.09549,-8.00862l-6.6709,-7.92715l10.79224,0.19904l18.80183,18.14938l8.34826,3.73738l1.84032,0.12006v18.35955z" data-paper-data="{&quot;index&quot;:null}" fill="url(#color-36)" stroke="none" stroke-width="0" stroke-linecap="butt"/><path d="M303.54226,170.65441l1.04651,18.22702l-1.94415,2.0753l-4.07075,1.87003l-23.20441,-1.2828l-4.64088,-3.37518l0.42189,-17.96955l4.03024,-4.39107l23.81505,0.4219z" data-paper-data="{&quot;index&quot;:null}" fill="#000000" stroke="#000000" stroke-width="0" stroke-linecap="round"/><path d="M285.98074,164.20155l23.09894,1.12598c0,0 4.55418,2.62323 6.07784,3.45467c0.86081,0.46972 1.99662,2.21499 1.97307,3.30355c-0.04891,2.26043 0.02064,10.74513 -0.0775,15.28138c-0.03772,1.74303 -1.44141,3.69856 -2.35433,4.22533c-1.35569,0.78226 -5.23417,2.91591 -5.23417,2.91591l-23.16743,0.80956l0.05754,-3.02451l12.15835,0.12465l4.55459,-3.28889l0.31642,-18.2027l-4.1135,-4.08019l-13.28981,-0.24981z" data-paper-data="{&quot;index&quot;:null}" fill="url(#color-37)" stroke="#000000" stroke-width="0" stroke-linecap="round"/><path d="M298.19822,192.92621c0,0 2.11206,-7.58102 2.21723,-12.8849c0.11516,-5.80754 -1.37343,-13.16732 -1.37343,-13.16732l4.32446,4.00804c0,0 1.02165,6.02786 0.95174,9.06844c-0.17621,4.0258 -1.37364,9.28414 -1.37364,9.28414z" data-paper-data="{&quot;index&quot;:null}" fill="#181818" stroke="none" stroke-width="0" stroke-linecap="butt"/><path d="M4.42566,361.63479v-360.53868h472.87786v360.53869z" fill="none" stroke="none" stroke-width="0" stroke-linecap="butt"/></g></g></svg>