<svg version="1.1" xmlns="http://www.w3.org/2000/svg" xmlns:xlink="http://www.w3.org/1999/xlink" width="206.74324" height="221.19304" viewBox="0,0,206.74324,221.19304"><defs><radialGradient cx="240.00001" cy="180.91186" r="71.34785" gradientUnits="userSpaceOnUse" id="color-1"><stop offset="0" stop-color="#f0f0f0" stop-opacity="0.41961"/><stop offset="1" stop-color="#f2f2f2" stop-opacity="0.84706"/></radialGradient></defs><g transform="translate(-136.90626,-67.6695)"><g data-paper-data="{&quot;isPaintingLayer&quot;:true}" fill-rule="nonzero" stroke-linecap="butt" stroke-linejoin="miter" stroke-miterlimit="10" stroke-dasharray="" stroke-dashoffset="0" style="mix-blend-mode: normal"><path d="M187.52537,252.2597v-142.69571h104.94929v142.69571z" fill="url(#color-1)" stroke="#ffffff" stroke-width="2.5"/><g data-paper-data="{&quot;index&quot;:null}" stroke="none" stroke-width="0"><g><path d="M289.77776,220.56433l1.61053,1.74835l-0.00825,17.07751l-12.93541,11.70056l-21.86089,-0.05352z" fill-opacity="0.75294" fill="#1c1c1c"/><path d="M291.38099,233.01474l-1.9521,-1.97353l2,-1.84234z" fill="#ffffff"/><path d="M284.3526,225.52619l5.0561,5.48877l-5.40954,4.98311l-5.0561,-5.48877z" fill="#ffffff"/><path d="M283.99669,236.0584l5.0561,5.48877l-5.40954,4.98311l-5.0561,-5.48877z" fill="#ffffff"/><path d="M273.51084,235.52649l5.0561,5.48877l-5.40954,4.98311l-5.0561,-5.48877z" fill="#ffffff"/><path d="M273.10211,246.10734l5.0561,5.48877l-0.44003,0.40534l-9.18627,0.00016l-0.83934,-0.91117z" fill="#ffffff"/><path d="M262.61625,245.57544l5.0561,5.48877l-1.09453,1.00825l-8.00799,-0.03415l-1.36312,-1.47977z" fill="#ffffff"/></g><path d="M291.42389,222.31946l-1.70359,-1.77943l1.66837,-1.41815z" fill="#ffffff"/></g><g data-paper-data="{&quot;index&quot;:null}" stroke="none" stroke-width="0"><g><path d="M190.85156,141.74514l-1.61053,-1.74835l0.00825,-17.07751l12.98585,-11.90534l21.86089,0.05352z" fill-opacity="0.75294" fill="#1c1c1c"/><path d="M189.24831,129.29473l1.9521,1.97354l-2,1.84235z" fill="#ffffff"/><path d="M196.27671,136.78329l-5.05609,-5.48877l5.40954,-4.98311l5.05609,5.48877z" fill="#ffffff"/><path d="M196.63263,126.25108l-5.0561,-5.48877l5.40954,-4.98311l5.05609,5.48878z" fill="#ffffff"/><path d="M207.11847,126.78299l-5.0561,-5.48877l5.40954,-4.98311l5.05609,5.48878z" fill="#ffffff"/><path d="M207.52719,116.20212l-5.0561,-5.48878l0.44003,-0.40534l9.18626,-0.00016l0.83934,0.91116z" fill="#ffffff"/><path d="M218.01303,116.73403l-5.0561,-5.48877l1.09453,-1.00825l8.00799,0.03415l1.36312,1.47977z" fill="#ffffff"/></g><path d="M189.20542,139.99001l1.7036,1.77943l-1.66838,1.41815z" fill="#ffffff"/></g><path d="M136.90626,288.86254v-221.19304h206.74324v221.19304z" fill="none" stroke="none" stroke-width="0"/></g></g></svg>