<svg version="1.1" xmlns="http://www.w3.org/2000/svg" xmlns:xlink="http://www.w3.org/1999/xlink" width="274.75949" height="95.60126" viewBox="0,0,274.75949,95.60126"><defs><radialGradient cx="313.37154" cy="176.69949" r="30.48314" gradientUnits="userSpaceOnUse" id="color-1"><stop offset="0" stop-color="#313131"/><stop offset="1" stop-color="#313131" stop-opacity="0"/></radialGradient><radialGradient cx="268.16524" cy="175.87002" r="30.48314" gradientUnits="userSpaceOnUse" id="color-2"><stop offset="0" stop-color="#313131"/><stop offset="1" stop-color="#313131" stop-opacity="0"/></radialGradient><radialGradient cx="231.25369" cy="177.52896" r="30.48315" gradientUnits="userSpaceOnUse" id="color-3"><stop offset="0" stop-color="#313131"/><stop offset="1" stop-color="#313131" stop-opacity="0"/></radialGradient><radialGradient cx="192.26845" cy="175.87002" r="30.48314" gradientUnits="userSpaceOnUse" id="color-4"><stop offset="0" stop-color="#313131"/><stop offset="1" stop-color="#313131" stop-opacity="0"/></radialGradient><radialGradient cx="155.35688" cy="177.52896" r="30.48315" gradientUnits="userSpaceOnUse" id="color-5"><stop offset="0" stop-color="#313131"/><stop offset="1" stop-color="#313131" stop-opacity="0"/></radialGradient><radialGradient cx="338.74853" cy="168.37777" r="13.82455" gradientUnits="userSpaceOnUse" id="color-6"><stop offset="0" stop-color="#f07070"/><stop offset="1" stop-color="#cf5555"/></radialGradient><radialGradient cx="338.74853" cy="168.37777" r="11.92469" gradientUnits="userSpaceOnUse" id="color-7"><stop offset="0" stop-color="#ff9d9d"/><stop offset="1" stop-color="#ff9d9d" stop-opacity="0"/></radialGradient><radialGradient cx="338.74853" cy="168.37777" r="11.92469" gradientUnits="userSpaceOnUse" id="color-8"><stop offset="0" stop-color="#ff9d9d"/><stop offset="1" stop-color="#ff9d9d" stop-opacity="0"/></radialGradient><radialGradient cx="283.27506" cy="168.71228" r="13.58909" gradientUnits="userSpaceOnUse" id="color-9"><stop offset="0" stop-color="#f7f7f7"/><stop offset="1" stop-color="#cecece"/></radialGradient><radialGradient cx="283.27506" cy="168.71228" r="11.72159" gradientUnits="userSpaceOnUse" id="color-10"><stop offset="0" stop-color="#f7f7f7"/><stop offset="1" stop-color="#f7f7f7" stop-opacity="0"/></radialGradient><radialGradient cx="310.85749" cy="168.20496" r="13.82455" gradientUnits="userSpaceOnUse" id="color-11"><stop offset="0" stop-color="#f07070"/><stop offset="1" stop-color="#cf5555"/></radialGradient><radialGradient cx="310.85749" cy="168.20496" r="11.92468" gradientUnits="userSpaceOnUse" id="color-12"><stop offset="0" stop-color="#ff9d9d"/><stop offset="1" stop-color="#ff9d9d" stop-opacity="0"/></radialGradient><radialGradient cx="310.85749" cy="168.20496" r="11.92468" gradientUnits="userSpaceOnUse" id="color-13"><stop offset="0" stop-color="#ff9d9d"/><stop offset="1" stop-color="#ff9d9d" stop-opacity="0"/></radialGradient><radialGradient cx="338.71397" cy="192.39793" r="13.82455" gradientUnits="userSpaceOnUse" id="color-14"><stop offset="0" stop-color="#f07070"/><stop offset="1" stop-color="#cf5555"/></radialGradient><radialGradient cx="338.71397" cy="192.39793" r="11.92469" gradientUnits="userSpaceOnUse" id="color-15"><stop offset="0" stop-color="#ff9d9d"/><stop offset="1" stop-color="#ff9d9d" stop-opacity="0"/></radialGradient><radialGradient cx="338.71397" cy="192.39793" r="11.92469" gradientUnits="userSpaceOnUse" id="color-16"><stop offset="0" stop-color="#ff9d9d"/><stop offset="1" stop-color="#ff9d9d" stop-opacity="0"/></radialGradient><radialGradient cx="310.54644" cy="192.05231" r="13.82455" gradientUnits="userSpaceOnUse" id="color-17"><stop offset="0" stop-color="#f07070"/><stop offset="1" stop-color="#cf5555"/></radialGradient><radialGradient cx="310.54644" cy="192.05231" r="11.92469" gradientUnits="userSpaceOnUse" id="color-18"><stop offset="0" stop-color="#ff9d9d"/><stop offset="1" stop-color="#ff9d9d" stop-opacity="0"/></radialGradient><radialGradient cx="310.54644" cy="192.05231" r="11.92469" gradientUnits="userSpaceOnUse" id="color-19"><stop offset="0" stop-color="#ff9d9d"/><stop offset="1" stop-color="#ff9d9d" stop-opacity="0"/></radialGradient><radialGradient cx="283.13681" cy="192.49051" r="13.58909" gradientUnits="userSpaceOnUse" id="color-20"><stop offset="0" stop-color="#f7f7f7"/><stop offset="1" stop-color="#cecece"/></radialGradient><radialGradient cx="283.13681" cy="192.49051" r="11.72159" gradientUnits="userSpaceOnUse" id="color-21"><stop offset="0" stop-color="#f7f7f7"/><stop offset="1" stop-color="#f7f7f7" stop-opacity="0"/></radialGradient><radialGradient cx="255.76419" cy="168.71228" r="13.58909" gradientUnits="userSpaceOnUse" id="color-22"><stop offset="0" stop-color="#f7f7f7"/><stop offset="1" stop-color="#cecece"/></radialGradient><radialGradient cx="255.76419" cy="168.71228" r="11.72159" gradientUnits="userSpaceOnUse" id="color-23"><stop offset="0" stop-color="#f7f7f7"/><stop offset="1" stop-color="#f7f7f7" stop-opacity="0"/></radialGradient><radialGradient cx="255.62595" cy="192.49051" r="13.58909" gradientUnits="userSpaceOnUse" id="color-24"><stop offset="0" stop-color="#f7f7f7"/><stop offset="1" stop-color="#cecece"/></radialGradient><radialGradient cx="255.62595" cy="192.49051" r="11.72159" gradientUnits="userSpaceOnUse" id="color-25"><stop offset="0" stop-color="#f7f7f7"/><stop offset="1" stop-color="#f7f7f7" stop-opacity="0"/></radialGradient><radialGradient cx="225.52543" cy="168.37777" r="13.82455" gradientUnits="userSpaceOnUse" id="color-26"><stop offset="0" stop-color="#f07070"/><stop offset="1" stop-color="#cf5555"/></radialGradient><radialGradient cx="225.52543" cy="168.37777" r="11.92468" gradientUnits="userSpaceOnUse" id="color-27"><stop offset="0" stop-color="#ff9d9d"/><stop offset="1" stop-color="#ff9d9d" stop-opacity="0"/></radialGradient><radialGradient cx="225.52543" cy="168.37777" r="11.92468" gradientUnits="userSpaceOnUse" id="color-28"><stop offset="0" stop-color="#ff9d9d"/><stop offset="1" stop-color="#ff9d9d" stop-opacity="0"/></radialGradient><radialGradient cx="170.05195" cy="168.71227" r="13.5891" gradientUnits="userSpaceOnUse" id="color-29"><stop offset="0" stop-color="#f7f7f7"/><stop offset="1" stop-color="#cecece"/></radialGradient><radialGradient cx="170.05195" cy="168.71227" r="11.72159" gradientUnits="userSpaceOnUse" id="color-30"><stop offset="0" stop-color="#f7f7f7"/><stop offset="1" stop-color="#f7f7f7" stop-opacity="0"/></radialGradient><radialGradient cx="197.63439" cy="168.20496" r="13.82456" gradientUnits="userSpaceOnUse" id="color-31"><stop offset="0" stop-color="#f07070"/><stop offset="1" stop-color="#cf5555"/></radialGradient><radialGradient cx="197.63439" cy="168.20496" r="11.92469" gradientUnits="userSpaceOnUse" id="color-32"><stop offset="0" stop-color="#ff9d9d"/><stop offset="1" stop-color="#ff9d9d" stop-opacity="0"/></radialGradient><radialGradient cx="197.63439" cy="168.20496" r="11.92469" gradientUnits="userSpaceOnUse" id="color-33"><stop offset="0" stop-color="#ff9d9d"/><stop offset="1" stop-color="#ff9d9d" stop-opacity="0"/></radialGradient><radialGradient cx="225.49087" cy="192.39793" r="13.82455" gradientUnits="userSpaceOnUse" id="color-34"><stop offset="0" stop-color="#f07070"/><stop offset="1" stop-color="#cf5555"/></radialGradient><radialGradient cx="225.49087" cy="192.39793" r="11.92468" gradientUnits="userSpaceOnUse" id="color-35"><stop offset="0" stop-color="#ff9d9d"/><stop offset="1" stop-color="#ff9d9d" stop-opacity="0"/></radialGradient><radialGradient cx="225.49087" cy="192.39793" r="11.92468" gradientUnits="userSpaceOnUse" id="color-36"><stop offset="0" stop-color="#ff9d9d"/><stop offset="1" stop-color="#ff9d9d" stop-opacity="0"/></radialGradient><radialGradient cx="197.32334" cy="192.05231" r="13.82455" gradientUnits="userSpaceOnUse" id="color-37"><stop offset="0" stop-color="#f07070"/><stop offset="1" stop-color="#cf5555"/></radialGradient><radialGradient cx="197.32334" cy="192.05231" r="11.92468" gradientUnits="userSpaceOnUse" id="color-38"><stop offset="0" stop-color="#ff9d9d"/><stop offset="1" stop-color="#ff9d9d" stop-opacity="0"/></radialGradient><radialGradient cx="197.32334" cy="192.05231" r="11.92468" gradientUnits="userSpaceOnUse" id="color-39"><stop offset="0" stop-color="#ff9d9d"/><stop offset="1" stop-color="#ff9d9d" stop-opacity="0"/></radialGradient><radialGradient cx="169.91371" cy="192.49051" r="13.5891" gradientUnits="userSpaceOnUse" id="color-40"><stop offset="0" stop-color="#f7f7f7"/><stop offset="1" stop-color="#cecece"/></radialGradient><radialGradient cx="169.91371" cy="192.49051" r="11.72159" gradientUnits="userSpaceOnUse" id="color-41"><stop offset="0" stop-color="#f7f7f7"/><stop offset="1" stop-color="#f7f7f7" stop-opacity="0"/></radialGradient><radialGradient cx="142.54109" cy="168.71227" r="13.5891" gradientUnits="userSpaceOnUse" id="color-42"><stop offset="0" stop-color="#f7f7f7"/><stop offset="1" stop-color="#cecece"/></radialGradient><radialGradient cx="142.54109" cy="168.71227" r="11.72159" gradientUnits="userSpaceOnUse" id="color-43"><stop offset="0" stop-color="#f7f7f7"/><stop offset="1" stop-color="#f7f7f7" stop-opacity="0"/></radialGradient><radialGradient cx="142.40284" cy="192.49051" r="13.5891" gradientUnits="userSpaceOnUse" id="color-44"><stop offset="0" stop-color="#f7f7f7"/><stop offset="1" stop-color="#cecece"/></radialGradient><radialGradient cx="142.40284" cy="192.49051" r="11.72159" gradientUnits="userSpaceOnUse" id="color-45"><stop offset="0" stop-color="#f7f7f7"/><stop offset="1" stop-color="#f7f7f7" stop-opacity="0"/></radialGradient></defs><g transform="translate(-101.41772,-133.08861)"><g data-paper-data="{&quot;isPaintingLayer&quot;:true}" fill-rule="nonzero" stroke-width="0" stroke-linecap="butt" stroke-linejoin="miter" stroke-miterlimit="10" stroke-dasharray="" stroke-dashoffset="0" style="mix-blend-mode: normal"><g><path d="M282.8884,176.69949c0,-16.83537 13.64777,-30.48314 30.48314,-30.48314c16.83538,0 30.48314,13.64776 30.48314,30.48314c0,9.64214 7.52325,26.57202 0.53486,32.15784c-5.21347,4.16712 -50.75437,2.93599 -56.06999,-1.57726c-6.58555,-5.59148 -5.43115,-21.26468 -5.43115,-30.58058z" fill="url(#color-1)" stroke="none"/><path d="M237.6821,175.87002c0,-16.83537 13.64776,-30.48315 30.48314,-30.48315c16.83538,0 30.48314,13.64777 30.48314,30.48315c0,9.66615 -2.49907,23.61481 -9.51737,29.19949c-5.20536,4.14207 -45.52029,5.09396 -50.74886,0.87935c-6.93196,-5.58769 -0.70005,-20.48203 -0.70005,-30.07883z" fill="url(#color-2)" stroke="none"/><path d="M200.77055,177.52896c0,-16.83537 13.64776,-30.48314 30.48314,-30.48314c16.83538,0 30.48315,13.64777 30.48315,30.48314c0,9.3159 -0.84561,23.65575 -7.43115,29.24724c-5.31562,4.51326 -41.02139,2.75356 -46.37276,-1.89756c-6.43026,-5.58884 -7.16237,-18.16116 -7.16237,-27.34969z" fill="url(#color-3)" stroke="none"/><path d="M161.7853,175.87002c0,-16.83537 13.64777,-30.48315 30.48315,-30.48315c16.83538,0 30.48314,13.64777 30.48314,30.48315c0,10.27011 -2.74552,26.02064 -10.5286,31.54366c-4.97541,3.53065 -34.03826,1.25833 -39.17789,-2.69095c-7.25207,-5.57247 -11.25979,-19.00005 -11.25979,-28.85271z" fill="url(#color-4)" stroke="none"/><path d="M124.87374,177.52896c0,-16.83537 13.64776,-30.48314 30.48314,-30.48314c16.83538,0 30.48315,13.64777 30.48315,30.48314c0,9.52584 -1.03608,19.03115 -7.88002,24.62105c-2.52597,2.06313 -10.93117,10.02346 -19.23366,9.9087c-8.95883,-0.12382 -24.85284,-8.83275 -27.67052,-11.42531c-6.05479,-5.57103 -6.18209,-14.22801 -6.18209,-23.10445z" fill="url(#color-5)" stroke="none"/><g><path d="M338.74853,154.55321c7.63509,0 13.82455,6.18947 13.82455,13.82456c0,7.63509 -6.18946,13.82455 -13.82455,13.82455c-7.63509,0 -13.82455,-6.18946 -13.82455,-13.82455c0,-7.63509 6.18946,-13.82456 13.82455,-13.82456z" fill="url(#color-6)" stroke="#bfbfbf"/><path d="M338.74853,156.45308c6.58583,0 11.92469,5.33886 11.92469,11.92469c0,6.58583 -5.33886,11.92469 -11.92469,11.92469c-6.58582,0 -11.92469,-5.33886 -11.92469,-11.92469c0,-6.58582 5.33886,-11.92469 11.92469,-11.92469z" fill="url(#color-7)" stroke="none"/><path d="M338.74853,160.29323c4.46497,0 8.08454,3.61957 8.08454,8.08454c0,4.46497 -3.61957,8.08454 -8.08454,8.08454c-4.46497,0 -8.08454,-3.61957 -8.08454,-8.08454c0,-4.46497 3.61957,-8.08454 8.08454,-8.08454z" fill="#a3a3a3" stroke="none"/><path d="M338.74853,156.45308c6.58583,0 11.92469,5.33886 11.92469,11.92469c0,6.58583 -5.33886,11.92469 -11.92469,11.92469c-6.58582,0 -11.92469,-5.33886 -11.92469,-11.92469c0,-6.58582 5.33886,-11.92469 11.92469,-11.92469z" fill="url(#color-8)" stroke="none"/><path d="M338.74853,161.42507c3.83987,0 6.9527,3.11283 6.9527,6.9527c0,3.83987 -3.11283,6.9527 -6.9527,6.9527c-3.83987,0 -6.9527,-3.11283 -6.9527,-6.9527c0,-3.83987 3.11283,-6.9527 6.9527,-6.9527z" fill="#787878" stroke="none"/></g><g><path d="M269.68596,168.71228c0,-7.50505 6.08405,-13.58909 13.58909,-13.58909c7.50506,0 13.58909,6.08404 13.58909,13.58909c0,7.50505 -6.08404,13.58909 -13.58909,13.58909c-7.50506,0 -13.58909,-6.08404 -13.58909,-13.58909z" fill="url(#color-9)" stroke="#bfbfbf"/><path d="M271.55347,168.71228c0,-6.47366 5.24793,-11.72158 11.72159,-11.72158c6.47366,0 11.72159,5.24793 11.72159,11.72158c0,6.47366 -5.24793,11.72159 -11.72159,11.72159c-6.47366,0 -11.72159,-5.24793 -11.72159,-11.72159z" fill="url(#color-10)" stroke="none"/><path d="M275.32822,168.71228c0,-3.14091 1.82217,-5.85622 4.46707,-7.14648c1.05093,-0.51268 2.23175,-0.80036 3.47976,-0.80036c4.38891,0 7.94684,3.55793 7.94684,7.94684c0,4.38891 -3.55792,7.94684 -7.94684,7.94684c-4.38891,0 -7.94684,-3.55793 -7.94684,-7.94684z" fill="#a3a3a3" stroke="none"/><path d="M276.44078,168.71228c0,-3.77447 3.05981,-6.83428 6.83428,-6.83428c3.77447,0 6.83428,3.05981 6.83428,6.83428c0,3.77447 -3.05981,6.83428 -6.83428,6.83428c-3.77447,0 -6.83428,-3.05981 -6.83428,-6.83428z" fill="#2e3e02" stroke="none"/></g><g><path d="M310.85749,154.3804c7.63509,0 13.82455,6.18947 13.82455,13.82456c0,7.63509 -6.18946,13.82456 -13.82455,13.82456c-7.63509,0 -13.82455,-6.18947 -13.82455,-13.82456c0,-7.63509 6.18946,-13.82456 13.82455,-13.82456z" fill="url(#color-11)" stroke="#bfbfbf"/><path d="M310.85749,156.28027c6.58583,0 11.92468,5.33886 11.92468,11.92468c0,6.58583 -5.33886,11.92469 -11.92468,11.92469c-6.58582,0 -11.92469,-5.33886 -11.92469,-11.92469c0,-6.58582 5.33886,-11.92468 11.92469,-11.92468z" fill="url(#color-12)" stroke="none"/><path d="M310.85749,160.12042c4.46497,0 8.08453,3.61957 8.08453,8.08453c0,4.46497 -3.61957,8.08454 -8.08453,8.08454c-4.46497,0 -8.08454,-3.61957 -8.08454,-8.08454c0,-4.46497 3.61957,-8.08453 8.08454,-8.08453z" fill="#a3a3a3" stroke="none"/><path d="M310.85749,156.28027c6.58583,0 11.92468,5.33886 11.92468,11.92468c0,6.58583 -5.33886,11.92469 -11.92468,11.92469c-6.58582,0 -11.92469,-5.33886 -11.92469,-11.92469c0,-6.58582 5.33886,-11.92468 11.92469,-11.92468z" fill="url(#color-13)" stroke="none"/><path d="M310.85749,161.25226c3.83987,0 6.9527,3.11283 6.9527,6.9527c0,3.83987 -3.11283,6.9527 -6.9527,6.9527c-3.83987,0 -6.9527,-3.11283 -6.9527,-6.9527c0,-3.83987 3.11283,-6.9527 6.9527,-6.9527z" fill="#787878" stroke="none"/></g><path d="M338.71397,178.57337c7.63509,0 13.82455,6.18947 13.82455,13.82456c0,7.63509 -6.18946,13.82455 -13.82455,13.82455c-7.63509,0 -13.82455,-6.18946 -13.82455,-13.82455c0,-7.63509 6.18946,-13.82456 13.82455,-13.82456z" fill="url(#color-14)" stroke="#bfbfbf"/><path d="M338.71397,180.47324c6.58583,0 11.92469,5.33886 11.92469,11.92469c0,6.58583 -5.33886,11.92469 -11.92469,11.92469c-6.58582,0 -11.92469,-5.33886 -11.92469,-11.92469c0,-6.58582 5.33886,-11.92469 11.92469,-11.92469z" fill="url(#color-15)" stroke="none"/><path d="M338.71397,184.31339c4.46497,0 8.08454,3.61957 8.08454,8.08453c0,4.46497 -3.61957,8.08454 -8.08454,8.08454c-4.46497,0 -8.08454,-3.61957 -8.08454,-8.08454c0,-4.46497 3.61957,-8.08453 8.08454,-8.08453z" fill="#a3a3a3" stroke="none"/><path d="M338.71397,180.47324c6.58583,0 11.92469,5.33886 11.92469,11.92469c0,6.58583 -5.33886,11.92469 -11.92469,11.92469c-6.58582,0 -11.92469,-5.33886 -11.92469,-11.92469c0,-6.58582 5.33886,-11.92469 11.92469,-11.92469z" fill="url(#color-16)" stroke="none"/><path d="M338.71397,185.44523c3.83987,0 6.9527,3.11283 6.9527,6.9527c0,3.83987 -3.11283,6.9527 -6.9527,6.9527c-3.83987,0 -6.9527,-3.11282 -6.9527,-6.9527c0,-3.83987 3.11283,-6.9527 6.9527,-6.9527z" fill="#787878" stroke="none"/><g><path d="M310.54644,178.22776c7.63509,0 13.82455,6.18946 13.82455,13.82455c0,7.63509 -6.18946,13.82456 -13.82455,13.82456c-7.63509,0 -13.82455,-6.18947 -13.82455,-13.82456c0,-7.63509 6.18946,-13.82455 13.82455,-13.82455z" fill="url(#color-17)" stroke="#bfbfbf"/><path d="M310.54644,180.12763c6.58583,0 11.92469,5.33886 11.92469,11.92468c0,6.58583 -5.33886,11.92469 -11.92469,11.92469c-6.58582,0 -11.92469,-5.33886 -11.92469,-11.92469c0,-6.58582 5.33886,-11.92468 11.92469,-11.92468z" fill="url(#color-18)" stroke="none"/><path d="M310.54644,183.96778c4.46497,0 8.08454,3.61957 8.08454,8.08453c0,4.46497 -3.61957,8.08454 -8.08454,8.08454c-4.46497,0 -8.08454,-3.61957 -8.08454,-8.08454c0,-4.46497 3.61957,-8.08453 8.08454,-8.08453z" fill="#a3a3a3" stroke="none"/><path d="M310.54644,180.12763c6.58583,0 11.92469,5.33886 11.92469,11.92468c0,6.58583 -5.33886,11.92469 -11.92469,11.92469c-6.58582,0 -11.92469,-5.33886 -11.92469,-11.92469c0,-6.58582 5.33886,-11.92468 11.92469,-11.92468z" fill="url(#color-19)" stroke="none"/><path d="M310.54644,185.09961c3.83987,0 6.9527,3.11283 6.9527,6.9527c0,3.83987 -3.11282,6.9527 -6.9527,6.9527c-3.83987,0 -6.9527,-3.11283 -6.9527,-6.9527c0,-3.83987 3.11283,-6.9527 6.9527,-6.9527z" fill="#787878" stroke="none"/></g><g><path d="M269.54772,192.49051c0,-7.50505 6.08405,-13.58909 13.58909,-13.58909c7.50506,0 13.58909,6.08404 13.58909,13.58909c0,7.50505 -6.08405,13.58909 -13.58909,13.58909c-7.50506,0 -13.58909,-6.08405 -13.58909,-13.58909z" fill="url(#color-20)" stroke="#bfbfbf"/><path d="M271.41523,192.49051c0,-6.47366 5.24793,-11.72159 11.72159,-11.72159c6.47366,0 11.72159,5.24793 11.72159,11.72159c0,6.47366 -5.24793,11.72159 -11.72159,11.72159c-6.47366,0 -11.72159,-5.24793 -11.72159,-11.72159z" fill="url(#color-21)" stroke="none"/><path d="M275.18997,192.49051c0,-3.14091 1.82218,-5.85622 4.46708,-7.14648c1.05093,-0.51268 2.23175,-0.80036 3.47976,-0.80036c4.38892,0 7.94684,3.55792 7.94684,7.94684c0,4.38892 -3.55793,7.94684 -7.94684,7.94684c-4.38891,0 -7.94684,-3.55793 -7.94684,-7.94684z" fill="#a3a3a3" stroke="none"/><path d="M276.30253,192.49051c0,-3.77447 3.05981,-6.83428 6.83428,-6.83428c3.77447,0 6.83428,3.05981 6.83428,6.83428c0,3.77447 -3.05981,6.83429 -6.83428,6.83429c-3.77447,0 -6.83428,-3.05982 -6.83428,-6.83429z" fill="#2e3e02" stroke="none"/></g><g><path d="M242.1751,168.71228c0,-7.50505 6.08405,-13.58909 13.5891,-13.58909c7.50506,0 13.58909,6.08404 13.58909,13.58909c0,7.50505 -6.08405,13.58909 -13.58909,13.58909c-7.50505,0 -13.5891,-6.08404 -13.5891,-13.58909z" fill="url(#color-22)" stroke="#bfbfbf"/><path d="M244.04261,168.71228c0,-6.47366 5.24793,-11.72158 11.72159,-11.72158c6.47366,0 11.72159,5.24793 11.72159,11.72158c0,6.47366 -5.24793,11.72159 -11.72159,11.72159c-6.47366,0 -11.72159,-5.24793 -11.72159,-11.72159z" fill="url(#color-23)" stroke="none"/><path d="M247.81735,168.71228c0,-3.14091 1.82218,-5.85622 4.46708,-7.14648c1.05093,-0.51268 2.23175,-0.80036 3.47976,-0.80036c4.38892,0 7.94684,3.55792 7.94684,7.94684c0,4.38892 -3.55793,7.94684 -7.94684,7.94684c-4.38891,0 -7.94684,-3.55792 -7.94684,-7.94684z" fill="#a3a3a3" stroke="none"/><path d="M248.92991,168.71228c0,-3.77447 3.05981,-6.83428 6.83428,-6.83428c3.77447,0 6.83428,3.05981 6.83428,6.83428c0,3.77447 -3.05981,6.83428 -6.83428,6.83428c-3.77447,0 -6.83428,-3.05981 -6.83428,-6.83428z" fill="#2e3e02" stroke="none"/></g><g><path d="M242.03685,192.49051c0,-7.50505 6.08404,-13.58909 13.58909,-13.58909c7.50505,0 13.58909,6.08404 13.58909,13.58909c0,7.50505 -6.08404,13.58909 -13.58909,13.58909c-7.50505,0 -13.58909,-6.08405 -13.58909,-13.58909z" fill="url(#color-24)" stroke="#bfbfbf"/><path d="M243.90436,192.49051c0,-6.47366 5.24793,-11.72159 11.72159,-11.72159c6.47366,0 11.72159,5.24793 11.72159,11.72159c0,6.47366 -5.24793,11.72159 -11.72159,11.72159c-6.47365,0 -11.72159,-5.24793 -11.72159,-11.72159z" fill="url(#color-25)" stroke="none"/><path d="M247.67911,192.49051c0,-3.14091 1.82217,-5.85622 4.46707,-7.14648c1.05093,-0.51268 2.23175,-0.80037 3.47976,-0.80037c4.38892,0 7.94684,3.55793 7.94684,7.94684c0,4.38892 -3.55792,7.94684 -7.94684,7.94684c-4.38891,0 -7.94684,-3.55793 -7.94684,-7.94684z" fill="#a3a3a3" stroke="none"/><path d="M248.79167,192.49051c0,-3.77447 3.05981,-6.83428 6.83428,-6.83428c3.77447,0 6.83428,3.05981 6.83428,6.83428c0,3.77447 -3.05981,6.83428 -6.83428,6.83428c-3.77447,0 -6.83428,-3.05981 -6.83428,-6.83428z" fill="#2e3e02" stroke="none"/></g><g><path d="M225.52543,154.55321c7.63509,0 13.82455,6.18947 13.82455,13.82456c0,7.63509 -6.18946,13.82455 -13.82455,13.82455c-7.63509,0 -13.82456,-6.18946 -13.82456,-13.82455c0,-7.63509 6.18947,-13.82456 13.82456,-13.82456z" fill="url(#color-26)" stroke="#bfbfbf"/><path d="M225.52543,156.45308c6.58583,0 11.92468,5.33886 11.92468,11.92469c0,6.58583 -5.33886,11.92469 -11.92468,11.92469c-6.58582,0 -11.92469,-5.33886 -11.92469,-11.92469c0,-6.58582 5.33886,-11.92469 11.92469,-11.92469z" fill="url(#color-27)" stroke="none"/><path d="M225.52543,160.29323c4.46497,0 8.08453,3.61957 8.08453,8.08454c0,4.46497 -3.61957,8.08454 -8.08453,8.08454c-4.46497,0 -8.08454,-3.61957 -8.08454,-8.08454c0,-4.46497 3.61957,-8.08454 8.08454,-8.08454z" fill="#a3a3a3" stroke="none"/><path d="M225.52543,156.45308c6.58583,0 11.92468,5.33886 11.92468,11.92469c0,6.58583 -5.33886,11.92469 -11.92468,11.92469c-6.58582,0 -11.92469,-5.33886 -11.92469,-11.92469c0,-6.58582 5.33886,-11.92469 11.92469,-11.92469z" fill="url(#color-28)" stroke="none"/><path d="M225.52543,161.42507c3.83987,0 6.9527,3.11283 6.9527,6.9527c0,3.83987 -3.11283,6.9527 -6.9527,6.9527c-3.83987,0 -6.9527,-3.11283 -6.9527,-6.9527c0,-3.83987 3.11283,-6.9527 6.9527,-6.9527z" fill="#787878" stroke="none"/></g><g><path d="M156.46286,168.71227c0,-7.50505 6.08404,-13.5891 13.58909,-13.5891c7.50505,0 13.5891,6.08405 13.5891,13.5891c0,7.50505 -6.08405,13.58909 -13.5891,13.58909c-7.50505,0 -13.58909,-6.08404 -13.58909,-13.58909z" fill="url(#color-29)" stroke="#bfbfbf"/><path d="M158.33037,168.71227c0,-6.47366 5.24793,-11.72159 11.72159,-11.72159c6.47366,0 11.72159,5.24793 11.72159,11.72159c0,6.47366 -5.24793,11.72159 -11.72159,11.72159c-6.47366,0 -11.72159,-5.24793 -11.72159,-11.72159z" fill="url(#color-30)" stroke="none"/><path d="M162.10512,168.71227c0,-3.14091 1.82217,-5.85622 4.46707,-7.14648c1.05093,-0.51268 2.23174,-0.80036 3.47976,-0.80036c4.38891,0 7.94684,3.55792 7.94684,7.94684c0,4.38892 -3.55793,7.94684 -7.94684,7.94684c-4.38892,0 -7.94683,-3.55792 -7.94683,-7.94684z" fill="#a3a3a3" stroke="none"/><path d="M163.21768,168.71227c0,-3.77447 3.0598,-6.83428 6.83427,-6.83428c3.77447,0 6.83428,3.05981 6.83428,6.83428c0,3.77447 -3.05981,6.83428 -6.83428,6.83428c-3.77447,0 -6.83427,-3.05981 -6.83427,-6.83428z" fill="#2e3e02" stroke="none"/></g><g><path d="M197.63439,154.3804c7.63509,0 13.82456,6.18947 13.82456,13.82456c0,7.63509 -6.18947,13.82456 -13.82456,13.82456c-7.63509,0 -13.82456,-6.18947 -13.82456,-13.82456c0,-7.63509 6.18947,-13.82456 13.82456,-13.82456z" fill="url(#color-31)" stroke="#bfbfbf"/><path d="M197.63439,156.28027c6.58583,0 11.92469,5.33886 11.92469,11.92468c0,6.58583 -5.33886,11.92469 -11.92469,11.92469c-6.58582,0 -11.92469,-5.33886 -11.92469,-11.92469c0,-6.58582 5.33886,-11.92468 11.92469,-11.92468z" fill="url(#color-32)" stroke="none"/><path d="M197.63439,160.12042c4.46497,0 8.08453,3.61957 8.08453,8.08453c0,4.46497 -3.61957,8.08454 -8.08453,8.08454c-4.46497,0 -8.08453,-3.61957 -8.08453,-8.08454c0,-4.46497 3.61957,-8.08453 8.08453,-8.08453z" fill="#a3a3a3" stroke="none"/><path d="M197.63439,156.28027c6.58583,0 11.92469,5.33886 11.92469,11.92468c0,6.58583 -5.33886,11.92469 -11.92469,11.92469c-6.58582,0 -11.92469,-5.33886 -11.92469,-11.92469c0,-6.58582 5.33886,-11.92468 11.92469,-11.92468z" fill="url(#color-33)" stroke="none"/><path d="M197.63439,161.25226c3.83987,0 6.9527,3.11283 6.9527,6.9527c0,3.83987 -3.11283,6.9527 -6.9527,6.9527c-3.83987,0 -6.9527,-3.11283 -6.9527,-6.9527c0,-3.83987 3.11283,-6.9527 6.9527,-6.9527z" fill="#787878" stroke="none"/></g><path d="M225.49087,178.57337c7.63509,0 13.82455,6.18947 13.82455,13.82456c0,7.63509 -6.18946,13.82455 -13.82455,13.82455c-7.63509,0 -13.82456,-6.18946 -13.82456,-13.82455c0,-7.63509 6.18947,-13.82456 13.82456,-13.82456z" fill="url(#color-34)" stroke="#bfbfbf"/><path d="M225.49087,180.47324c6.58583,0 11.92468,5.33886 11.92468,11.92469c0,6.58583 -5.33886,11.92469 -11.92468,11.92469c-6.58582,0 -11.92469,-5.33886 -11.92469,-11.92469c0,-6.58582 5.33886,-11.92469 11.92469,-11.92469z" fill="url(#color-35)" stroke="none"/><path d="M225.49087,184.31339c4.46497,0 8.08453,3.61957 8.08453,8.08453c0,4.46497 -3.61957,8.08454 -8.08453,8.08454c-4.46497,0 -8.08454,-3.61957 -8.08454,-8.08454c0,-4.46497 3.61957,-8.08453 8.08454,-8.08453z" fill="#a3a3a3" stroke="none"/><path d="M225.49087,180.47324c6.58583,0 11.92468,5.33886 11.92468,11.92469c0,6.58583 -5.33886,11.92469 -11.92468,11.92469c-6.58582,0 -11.92469,-5.33886 -11.92469,-11.92469c0,-6.58582 5.33886,-11.92469 11.92469,-11.92469z" fill="url(#color-36)" stroke="none"/><path d="M225.49087,185.44523c3.83987,0 6.9527,3.11283 6.9527,6.9527c0,3.83987 -3.11283,6.9527 -6.9527,6.9527c-3.83987,0 -6.9527,-3.11282 -6.9527,-6.9527c0,-3.83987 3.11283,-6.9527 6.9527,-6.9527z" fill="#787878" stroke="none"/><g><path d="M197.32334,178.22776c7.63509,0 13.82455,6.18946 13.82455,13.82455c0,7.63509 -6.18946,13.82456 -13.82455,13.82456c-7.63509,0 -13.82456,-6.18947 -13.82456,-13.82456c0,-7.63509 6.18947,-13.82455 13.82456,-13.82455z" fill="url(#color-37)" stroke="#bfbfbf"/><path d="M197.32334,180.12763c6.58583,0 11.92468,5.33886 11.92468,11.92468c0,6.58583 -5.33886,11.92469 -11.92468,11.92469c-6.58582,0 -11.92469,-5.33886 -11.92469,-11.92469c0,-6.58582 5.33886,-11.92468 11.92469,-11.92468z" fill="url(#color-38)" stroke="none"/><path d="M197.32334,183.96778c4.46497,0 8.08453,3.61957 8.08453,8.08453c0,4.46497 -3.61957,8.08454 -8.08453,8.08454c-4.46497,0 -8.08454,-3.61957 -8.08454,-8.08454c0,-4.46497 3.61957,-8.08453 8.08454,-8.08453z" fill="#a3a3a3" stroke="none"/><path d="M197.32334,180.12763c6.58583,0 11.92468,5.33886 11.92468,11.92468c0,6.58583 -5.33886,11.92469 -11.92468,11.92469c-6.58582,0 -11.92469,-5.33886 -11.92469,-11.92469c0,-6.58582 5.33886,-11.92468 11.92469,-11.92468z" fill="url(#color-39)" stroke="none"/><path d="M197.32334,185.09961c3.83987,0 6.9527,3.11283 6.9527,6.9527c0,3.83987 -3.11283,6.9527 -6.9527,6.9527c-3.83987,0 -6.9527,-3.11283 -6.9527,-6.9527c0,-3.83987 3.11283,-6.9527 6.9527,-6.9527z" fill="#787878" stroke="none"/></g><g><path d="M156.32461,192.49051c0,-7.50505 6.08404,-13.58909 13.58909,-13.58909c7.50505,0 13.5891,6.08404 13.5891,13.58909c0,7.50505 -6.08405,13.58909 -13.5891,13.58909c-7.50505,0 -13.58909,-6.08405 -13.58909,-13.58909z" fill="url(#color-40)" stroke="#bfbfbf"/><path d="M158.19212,192.49051c0,-6.47366 5.24793,-11.72159 11.72158,-11.72159c6.47366,0 11.72159,5.24793 11.72159,11.72159c0,6.47366 -5.24793,11.72159 -11.72159,11.72159c-6.47366,0 -11.72158,-5.24793 -11.72158,-11.72159z" fill="url(#color-41)" stroke="none"/><path d="M161.96687,192.49051c0,-3.14091 1.82217,-5.85622 4.46707,-7.14648c1.05093,-0.51268 2.23175,-0.80037 3.47977,-0.80037c4.38891,0 7.94683,3.55793 7.94683,7.94684c0,4.38892 -3.55792,7.94684 -7.94683,7.94684c-4.38892,0 -7.94684,-3.55793 -7.94684,-7.94684z" fill="#a3a3a3" stroke="none"/><path d="M163.07943,192.49051c0,-3.77447 3.05981,-6.83428 6.83428,-6.83428c3.77447,0 6.83428,3.05981 6.83428,6.83428c0,3.77447 -3.05981,6.83428 -6.83428,6.83428c-3.77447,0 -6.83428,-3.05981 -6.83428,-6.83428z" fill="#2e3e02" stroke="none"/></g><g><path d="M128.95199,168.71227c0,-7.50505 6.08404,-13.5891 13.5891,-13.5891c7.50505,0 13.5891,6.08405 13.5891,13.5891c0,7.50505 -6.08405,13.58909 -13.5891,13.58909c-7.50505,0 -13.5891,-6.08404 -13.5891,-13.58909z" fill="url(#color-42)" stroke="#bfbfbf"/><path d="M130.8195,168.71227c0,-6.47366 5.24793,-11.72159 11.72159,-11.72159c6.47366,0 11.72159,5.24793 11.72159,11.72159c0,6.47366 -5.24793,11.72159 -11.72159,11.72159c-6.47366,0 -11.72159,-5.24793 -11.72159,-11.72159z" fill="url(#color-43)" stroke="none"/><path d="M134.59425,168.71227c0,-3.14091 1.82218,-5.85622 4.46708,-7.14648c1.05093,-0.51268 2.23174,-0.80036 3.47976,-0.80036c4.38892,0 7.94684,3.55792 7.94684,7.94684c0,4.38892 -3.55792,7.94684 -7.94684,7.94684c-4.38891,0 -7.94684,-3.55792 -7.94684,-7.94684z" fill="#a3a3a3" stroke="none"/><path d="M135.70681,168.71227c0,-3.77447 3.05981,-6.83428 6.83428,-6.83428c3.77447,0 6.83428,3.05981 6.83428,6.83428c0,3.77447 -3.05981,6.83428 -6.83428,6.83428c-3.77447,0 -6.83428,-3.05981 -6.83428,-6.83428z" fill="#2e3e02" stroke="none"/></g><g><path d="M128.81375,192.49051c0,-7.50505 6.08404,-13.58909 13.58909,-13.58909c7.50505,0 13.5891,6.08404 13.5891,13.58909c0,7.50505 -6.08405,13.58909 -13.5891,13.58909c-7.50505,0 -13.58909,-6.08405 -13.58909,-13.58909z" fill="url(#color-44)" stroke="#bfbfbf"/><path d="M130.68126,192.49051c0,-6.47366 5.24793,-11.72159 11.72159,-11.72159c6.47366,0 11.72159,5.24793 11.72159,11.72159c0,6.47366 -5.24793,11.72159 -11.72159,11.72159c-6.47366,0 -11.72159,-5.24793 -11.72159,-11.72159z" fill="url(#color-45)" stroke="none"/><path d="M134.45601,192.49051c0,-3.14091 1.82217,-5.85622 4.46707,-7.14648c1.05093,-0.51268 2.23175,-0.80037 3.47976,-0.80037c4.38892,0 7.94684,3.55793 7.94684,7.94684c0,4.38892 -3.55793,7.94684 -7.94684,7.94684c-4.38891,0 -7.94683,-3.55793 -7.94683,-7.94684z" fill="#a3a3a3" stroke="none"/><path d="M135.56857,192.49051c0,-3.77447 3.0598,-6.83428 6.83427,-6.83428c3.77447,0 6.83428,3.05981 6.83428,6.83428c0,3.77447 -3.05981,6.83428 -6.83428,6.83428c-3.77447,0 -6.83427,-3.05981 -6.83427,-6.83428z" fill="#2e3e02" stroke="none"/></g></g><path d="M101.41773,228.68987v-95.60126h274.75949v95.60126z" fill="none" stroke="none"/></g></g></svg>