<svg version="1.1" xmlns="http://www.w3.org/2000/svg" xmlns:xlink="http://www.w3.org/1999/xlink" width="81.17089" height="75.75949" viewBox="0,0,81.17089,75.75949"><defs><radialGradient cx="275.99666" cy="160.28454" r="12.96607" gradientUnits="userSpaceOnUse" id="color-1"><stop offset="0" stop-color="#b7b7b7"/><stop offset="1" stop-color="#a9a9a9"/></radialGradient><radialGradient cx="275.99666" cy="160.41387" r="7.75929" gradientUnits="userSpaceOnUse" id="color-2"><stop offset="0" stop-color="#000000"/><stop offset="1" stop-color="#363636"/></radialGradient></defs><g transform="translate(-234.6519,-121.52817)"><g data-paper-data="{&quot;isPaintingLayer&quot;:true}" fill-rule="nonzero" stroke="none" stroke-width="0" stroke-linecap="butt" stroke-linejoin="miter" stroke-miterlimit="10" stroke-dasharray="" stroke-dashoffset="0" style="mix-blend-mode: normal"><path d="M263.03059,169.59569c0,-5.57281 0,-15.86595 0,-18.88093c0,-1.63101 2.15778,-3.39628 4.04289,-3.39628c3.09225,0 12.70313,0 18.10501,0c2.26072,0 3.78424,1.52352 3.78424,3.78423c0,5.40188 0,15.01276 0,18.10501c0,1.88511 -1.81266,4.04288 -4.43085,4.04288c-5.74772,0 -15.37759,0 -18.23433,0c-1.57863,0 -3.26695,-1.46201 -3.26695,-3.65492z" fill="url(#color-1)"/><path d="M277.33298,173.2167v-4.91422h1.42254v4.91422z" fill="#9b9b9b"/><path d="M268.43092,166.12514h-5.30218v-1.42254h5.30218z" fill="#9b9b9b"/><path d="M271.67029,154.70131h-8.62624v-1.42253h8.62624z" fill="#9b9b9b"/><path d="M279.03469,147.26173v8.62623h-1.42254v-8.62623z" fill="#9b9b9b"/><path d="M280.37402,160.03995h8.62624v1.42253h-8.62624z" fill="#9b9b9b"/><path d="M268.23737,165.32808c0,-3.15926 0,-8.04852 0,-9.82843c0,-1.28696 0.93798,-2.84508 2.32779,-2.84508c3.353,0 9.3358,0 11.12165,0c0.99081,0 2.06914,1.55812 2.06914,2.84508c0,1.77991 0,6.66917 0,9.82843c0,1.6619 -0.82351,2.84508 -2.06914,2.84508c-3.25581,0 -9.39545,0 -11.25097,0c-1.04222,0 -2.19846,-1.18318 -2.19846,-2.84508z" fill="url(#color-2)"/><path d="M234.6519,197.28767v-75.75949h81.17089v75.75949z" fill="none"/></g></g></svg>