<svg version="1.1" xmlns="http://www.w3.org/2000/svg" xmlns:xlink="http://www.w3.org/1999/xlink" width="655.35267" height="360.53869" viewBox="0,0,655.35267,360.53869"><defs><radialGradient cx="18.62735" cy="189.9533" r="62.08881" gradientUnits="userSpaceOnUse" id="color-1"><stop offset="0" stop-color="#cfd6ce"/><stop offset="1" stop-color="#818681"/></radialGradient><linearGradient x1="199.95044" y1="191.3294" x2="341.29043" y2="191.3294" gradientUnits="userSpaceOnUse" id="color-2"><stop offset="0" stop-color="#2d2d2d"/><stop offset="1" stop-color="#444444"/></linearGradient><linearGradient x1="342.85602" y1="117.75224" x2="365.9586" y2="117.75224" gradientUnits="userSpaceOnUse" id="color-3"><stop offset="0" stop-color="#979a95"/><stop offset="1" stop-color="#f5fff5"/></linearGradient><linearGradient x1="342.83911" y1="106.15171" x2="353.47919" y2="106.15171" gradientUnits="userSpaceOnUse" id="color-4"><stop offset="0" stop-color="#626665"/><stop offset="1" stop-color="#4d504f"/></linearGradient><linearGradient x1="342.39316" y1="266.7049" x2="365.32561" y2="266.7049" gradientUnits="userSpaceOnUse" id="color-5"><stop offset="0" stop-color="#979a95"/><stop offset="1" stop-color="#f5fff5"/></linearGradient><linearGradient x1="342.51842" y1="277.31414" x2="352.89588" y2="277.31414" gradientUnits="userSpaceOnUse" id="color-6"><stop offset="0" stop-color="#626665"/><stop offset="1" stop-color="#4d504f"/></linearGradient><linearGradient x1="334.5884" y1="190.97251" x2="390.78596" y2="190.97251" gradientUnits="userSpaceOnUse" id="color-7"><stop offset="0" stop-color="#545454"/><stop offset="1" stop-color="#3e3e3e"/></linearGradient><linearGradient x1="387.052" y1="191.12837" x2="340.46863" y2="191.15882" gradientUnits="userSpaceOnUse" id="color-8"><stop offset="0" stop-color="#2d2d2d"/><stop offset="1" stop-color="#4b4b4b"/></linearGradient><linearGradient x1="292.30183" y1="130.2986" x2="292.30183" y2="141.84743" gradientUnits="userSpaceOnUse" id="color-9"><stop offset="0" stop-color="#2c2d2d"/><stop offset="1" stop-color="#646665"/></linearGradient><linearGradient x1="321.18045" y1="155.60981" x2="330.4478" y2="155.60981" gradientUnits="userSpaceOnUse" id="color-10"><stop offset="0" stop-color="#d0d400"/><stop offset="1" stop-color="#fff900"/></linearGradient><linearGradient x1="328.52993" y1="205.93618" x2="337.7973" y2="205.93618" gradientUnits="userSpaceOnUse" id="color-11"><stop offset="0" stop-color="#d0d400"/><stop offset="1" stop-color="#fff900"/></linearGradient><linearGradient x1="321.26726" y1="227.16591" x2="330.5346" y2="227.16591" gradientUnits="userSpaceOnUse" id="color-12"><stop offset="0" stop-color="#d0d400"/><stop offset="1" stop-color="#fff900"/></linearGradient><linearGradient x1="328.58778" y1="191.31563" x2="337.85514" y2="191.31563" gradientUnits="userSpaceOnUse" id="color-13"><stop offset="0" stop-color="#d0d400"/><stop offset="1" stop-color="#fff900"/></linearGradient><linearGradient x1="328.47081" y1="176.69522" x2="337.73814" y2="176.69522" gradientUnits="userSpaceOnUse" id="color-14"><stop offset="0" stop-color="#d0d400"/><stop offset="1" stop-color="#fff900"/></linearGradient><linearGradient x1="207.57216" y1="191.84784" x2="202.54615" y2="191.85115" gradientUnits="userSpaceOnUse" id="color-15"><stop offset="0" stop-color="#4b4b4b"/><stop offset="1" stop-color="#000000"/></linearGradient><linearGradient x1="32.86047" y1="190.32689" x2="198.10961" y2="190.32689" gradientUnits="userSpaceOnUse" id="color-16"><stop offset="0" stop-color="#707070"/><stop offset="1" stop-color="#424242"/></linearGradient><linearGradient x1="293.57895" y1="241.09329" x2="293.57895" y2="251.89373" gradientUnits="userSpaceOnUse" id="color-17"><stop offset="0" stop-color="#646665"/><stop offset="1" stop-color="#2c2d2d"/></linearGradient><radialGradient cx="104.76654" cy="134.00431" r="54.46489" gradientUnits="userSpaceOnUse" id="color-18"><stop offset="0" stop-color="#333333"/><stop offset="1" stop-color="#333333" stop-opacity="0"/></radialGradient><radialGradient cx="468.901" cy="187.36226" r="71.69929" gradientUnits="userSpaceOnUse" id="color-19"><stop offset="0" stop-color="#cfd6ce"/><stop offset="1" stop-color="#818681"/></radialGradient><linearGradient x1="382.48747" y1="192.38342" x2="467.07752" y2="192.38342" gradientUnits="userSpaceOnUse" id="color-20"><stop offset="0" stop-color="#464646"/><stop offset="1" stop-color="#2d2d2d"/></linearGradient><radialGradient cx="103.67742" cy="246.55644" r="54.4649" gradientUnits="userSpaceOnUse" id="color-21"><stop offset="0" stop-color="#333333"/><stop offset="1" stop-color="#333333" stop-opacity="0"/></radialGradient><linearGradient x1="197.20393" y1="190.16532" x2="172.76278" y2="190.16532" gradientUnits="userSpaceOnUse" id="color-22"><stop offset="0" stop-color="#333333"/><stop offset="1" stop-color="#333333" stop-opacity="0"/></linearGradient><linearGradient x1="238.14435" y1="237.99237" x2="238.14435" y2="258.86748" gradientUnits="userSpaceOnUse" id="color-23"><stop offset="0" stop-color="#1c1c1c" stop-opacity="0"/><stop offset="1" stop-color="#1c1c1c"/></linearGradient><linearGradient x1="414.93755" y1="188.73295" x2="452.47953" y2="188.73295" gradientUnits="userSpaceOnUse" id="color-24"><stop offset="0" stop-color="#242424" stop-opacity="0"/><stop offset="1" stop-color="#242424"/></linearGradient></defs><g transform="translate(78.24249,-1.09611)"><g data-paper-data="{&quot;isPaintingLayer&quot;:true}" fill-rule="nonzero" stroke-linejoin="miter" stroke-miterlimit="10" stroke-dasharray="" stroke-dashoffset="0" style="mix-blend-mode: normal"><path d="M385.11789,240.42389l3.15883,-8.75105l3.62329,-22.96547l-1.29183,-34.57136l-1.50585,-25.50136l-5.59054,-9.30376l0.18323,-4.46767l27.73829,3.33253l52.49947,14.46836l1.49579,10.13012l1.68824,45.65271l-4.92539,24.456l-15.41505,6.52519l-62.72471,11.2099l-1.11799,-1.67461l-0.37316,-1.3028z" fill="none" stroke="#000000" stroke-width="0.5" stroke-linecap="round"/><path d="M26.74448,253.25728l-4.50436,-0.04008l-3.13513,-3.72201l-0.08348,-3.81421l-1.39801,-0.01599l0.10262,-20.08196l-1.5251,-0.01744l-0.26911,-28.96186l0.60039,-19.1506l0.06457,-20.79516l1.6522,0.0189l0.29261,-18.50765l2.28911,-0.10093l-0.0675,-5.21222l1.27238,-0.11257l0.02181,-1.90637l1.90639,0.02182l0.02036,-1.7793l6.14769,0.05746l-0.69868,0.582l-1.69031,1.52312l-0.8111,0.60132l-1.3361,0.81355l-2.18527,2.13584l-3.65766,30.8455l0.36225,33.99911l0.93573,19.60717c0,0 0.83644,7.29505 1.32936,10.67103c0.4452,3.04907 1.26314,8.70434 1.26314,8.70434l2.07762,13.60584z" fill="url(#color-1)" stroke="#000000" stroke-width="0" stroke-linecap="round"/><path d="M353.83876,134.82608l-0.01538,-0.07662" fill="none" stroke="#000000" stroke-width="0.5" stroke-linecap="round"/><path d="M353.90194,134.45775l0.00841,-0.00001" fill="none" stroke="#000000" stroke-width="0.5" stroke-linecap="round"/><g stroke-linecap="round"><path d="M407.41147,258.67879l12.65834,0.36401" fill="none" stroke="none" stroke-width="0"/><path d="M421.12069,258.48366l-56.43723,0.03688l-11.52017,0.22075l-32.69461,-0.16278l-19.68464,0.00609l-35.19267,0.03428l-13.26832,0.02802l-1.61143,-0.06979l-16.05515,0.2432l-0.91674,-0.13415l-2.94032,0.00622l-25.91516,0.01693l-5.02367,-0.14903l-162.37613,0.54598l-11.63439,-6.69376l-4.6749,-33.29945l-1.07332,-37.02524l-0.19656,-15.92291l3.70229,-31.64767l9.86064,-8.01083l157.4778,-2.09275l43.18301,-0.02821l17.44249,0.01868l35.32477,0.31912l15.39164,-0.24223l17.16842,-0.27019l4.46025,-0.0702l29.67704,0.16863l8.33666,-0.04154l0.96026,0.09437l19.78686,0.11244l57.07182,-0.18961l15.45823,12.08954l7.63892,10.41933l4.10136,4.94369l1.89578,52.49263l-0.34841,10.67193l-5.57144,19.92152l-21.62306,21.58877z" fill="#2d2d2d" stroke="#000000" stroke-width="0"/><path d="M341.27881,182.31349l-1.09877,27.73684l-1.66488,16.00986l-2.60304,4.6554l-0.82714,8.07441l-14.14886,-2.41068l-3.53682,0.00231l-61.24392,-1.63531l-48.96081,0.60736l-7.24414,18.45483l7.4339,-18.43356l-0.38032,-38.12605l-0.20671,-31.47656l-0.00088,-1.37195l-0.00951,-14.51958l0.18506,-1.67547l-6.71399,-19.35506l5.78215,17.68032l1.40376,1.78895l69.91827,0.64816l44.67501,-0.95994l11.35347,-2.42735l2.48211,-0.94219l0.93792,10.98215l4.47973,18.61192z" fill="url(#color-2)" stroke="#1a1a1a" stroke-width="0.5"/></g><g stroke="#000000" stroke-width="0" stroke-linecap="round"><path d="M365.4021,132.8202l0.3099,-0.55865l-8.87163,2.23958l-1.92292,0.93199l10.23626,-2.92301l-15.38564,4.04325l-0.00352,-5.3983l2.23366,-0.18763l-0.18736,-1.86136l1.86161,0.18492l-1.11998,-4.71503l-0.93417,-5.2736l-0.18985,-5.64639l-2.97849,-0.18421l-5.39819,0.18968l-0.19574,-14.7056l7.25979,-0.00474l0.93244,2.60547l0.88471,0.79055l1.79224,0.8365l0.11637,0.04648l5.41217,21.21739l1.30424,1.86063l0.18834,3.35055l5.21229,0.18275z" fill="url(#color-3)"/><path d="M350.15259,99.50116l0.79943,2.52577l2.52716,1.32798l-1.85478,10.23938l-8.50957,0.13852l-0.14225,-14.22696l-0.13348,-0.79769l7.04696,-0.13758z" fill="url(#color-4)"/></g><path d="M331.15975,124.25869l-8.05732,0.00527l0.00171,2.60608l-3.72297,0.00243l0.55541,-4.65407l14.89175,-0.19589l0.22514,2.08838l0.32581,2.57455l-4.07201,0.00267z" fill="#a1afb1" stroke="#000000" stroke-width="0" stroke-linecap="round"/><path d="M380.45836,245.46197v-108.98795h19.88131v108.98795z" fill="#000000" stroke="none" stroke-width="0" stroke-linecap="butt"/><path d="M247.7671,122.13448c0,0 3.03588,-0.07898 4.88902,-0.0664c2.44208,0.01659 8.49047,0.15729 8.49047,0.15729l0.01617,1.48902l0.0025,3.80935l-3.35067,0.00221l-0.18802,-2.86887l-9.67294,-0.13899l0.04978,3.09526l-3.374,-0.09741l0.11282,-5.37946z" fill="#a1afb1" stroke="#000000" stroke-width="0" stroke-linecap="round"/><g stroke="#000000" stroke-width="0" stroke-linecap="round"><path d="M360.62502,252.82736l-0.18335,4.28153l-2.23224,2.35159l-0.18403,3.23445l-1.30303,0.00084l0.00402,6.14289l-0.16294,-0.09295l-1.87922,8.47098l-1.86136,0.18737l0.00122,1.86148l-4.83585,6.14605l-5.3983,0.00353l-0.19675,-16.19479l5.21204,-0.18955l0.18737,1.86134l1.86148,-0.00122l1.53129,-6.79542l-0.11609,0.39563l1.23135,-2.88609l0.88274,-2.25763l-0.19016,-6.14277l-1.11726,-0.55772l-2.04836,-1.11555l-0.18847,-3.5367l6.10467,0.84142l-0.07754,0.01558l6.16695,1.18267l0.04655,0.02324l3.39817,1.46371l0.04775,1.86145l-1.72188,0.00113z" fill="url(#color-5)"/><path d="M349.96558,271.19464l2.5303,6.11464l0.40002,1.72828l-5.04852,6.25257l-5.05252,0.13626l-0.27644,-16.08838l4.91955,-0.13617l0.0012,1.8615z" fill="url(#color-6)"/></g><g stroke="#1a1a1a" stroke-linecap="round"><path d="M390.78596,200.16698l-0.36779,6.88774l-1.66318,18.61593l-6.90826,20.11797c0,0 -12.9491,-0.12692 -19.40947,-0.7825c-6.59897,-0.66963 -19.77737,-3.19409 -19.77737,-3.19409l-8.07146,-3.06664l0.55371,-7.73789c0,0 1.64509,-2.25593 2.12017,-3.44594c0.35953,-0.90059 0.48165,-3.07095 0.48165,-3.07095l1.85114,-15.34609l0.35988,-18.98739l0.17624,-15.19189l-1.30779,-7.25895l-3.59922,-17.81275c0,0 -0.2594,-2.37439 -0.32026,-4.11823c-0.02334,-0.66912 -0.54376,-0.54703 -0.00874,-0.86102c1.81255,-1.06383 -0.3534,-1.28213 9.36902,-3.91012c0.62665,-0.16939 11.0344,-2.67524 11.67987,-2.85104c10.65993,-2.90353 25.12889,-1.78484 25.12889,-1.78484l0.3259,0.18595l2.18975,3.8146l5.21957,11.35164l1.69323,27.36273z" fill="url(#color-7)" stroke-width="0.5"/><path d="M387.05432,194.65688c0,0 -0.37126,10.45877 -0.5895,15.35129c-0.15518,3.47886 -0.72654,8.65793 -0.9255,10.60437c-0.04324,0.42314 -0.3013,1.13154 -0.3013,1.13154c0,0 -0.12178,1.09451 -0.27124,1.57913c-0.70487,2.28574 -5.92793,19.13393 -5.92793,19.13393c0,0 -10.4018,0.83914 -16.84635,0.12735c-6.44454,-0.71179 -20.43257,-4.2448 -20.43257,-4.2448c0,0 -0.74468,-1.45821 -0.78321,-2.28447c-0.03853,-0.82623 0.31121,-7.83705 0.31121,-7.83705l0.093,-0.1164c0,0 0.44223,-4.33329 0.91045,-6.96505c0.53187,-2.98967 1.24382,-7.88169 1.24382,-7.88169l0.34797,-1.62903l0.81212,-3.51408l6.88091,-10.05651l0.38089,-12.75934l-5.96197,-8.00049l-0.97912,-2.79621l-0.09353,-0.69799c0,0 -0.1733,-0.72623 -0.2421,-1.04312c-0.31912,-1.46961 -2.23247,-11.38068 -2.23247,-11.38068l-0.04876,-0.24099l-1.65773,-8.65483l-0.09295,0.16295c0,0 -1.00509,-6.5377 1.41572,-7.75009c4.72668,-2.36719 25.82312,-5.48427 25.82312,-5.48427l9.98221,-0.00652c0,0 3.05175,5.55209 4.14656,8.50223c1.34119,3.61395 3.42875,11.48051 3.42875,11.48051c0,0 0.68163,6.14729 0.93583,9.56253c0.30119,4.04675 0.6381,13.2629 0.6381,13.2629z" fill="url(#color-8)" stroke-width="0"/></g><path d="M202.14412,135.02326l4.27799,-5.21495l58.26434,-0.22422l85.36441,0.44903l0.2587,5.85252l-0.02464,0.34387l-22.70622,5.9716l-54.54148,0.03564l-38.46681,0.39742l-6.33719,-12.46779l9.40376,-0.36034l0.5617,5.02563l5.77499,6.69758l0.97071,0.94686l-10.49145,-0.16799l-6.47778,-12.41053l9.4421,-0.18103l0.87759,5.07025l6.29995,7.8644l-10.31661,-0.16811l-6.47789,-12.58541l9.79181,-0.18124l0.52776,4.89561l6.64943,7.51446" fill="none" stroke="#1a1a1a" stroke-width="0.5" stroke-linecap="round"/><path d="M285.92715,141.84743l-0.00755,-11.54048l12.76448,-0.00833l-4.36386,11.54333z" fill="url(#color-9)" stroke="#000000" stroke-width="0" stroke-linecap="round"/><path d="M330.4478,158.48893l-9.26735,0.00605l0.17108,-5.77036l8.74291,0.16913z" fill="url(#color-10)" stroke="#1a1a1a" stroke-width="0.5" stroke-linecap="round"/><path d="M337.7973,208.81531l-9.26736,0.00605l0.17109,-5.77036l8.74292,0.16914z" fill="url(#color-11)" stroke="#1a1a1a" stroke-width="0.5" stroke-linecap="round"/><path d="M330.5346,230.04503l-9.26735,0.00605l0.17108,-5.77037l8.74291,0.16914z" fill="url(#color-12)" stroke="#1a1a1a" stroke-width="0.5" stroke-linecap="round"/><path d="M337.85514,194.19475l-9.26736,0.00605l0.17108,-5.77036l8.74292,0.16914z" fill="url(#color-13)" stroke="#1a1a1a" stroke-width="0.5" stroke-linecap="round"/><path d="M337.73814,179.57435l-9.26736,0.00605l0.17109,-5.77035l8.74292,0.16914z" fill="url(#color-14)" stroke="#1a1a1a" stroke-width="0.5" stroke-linecap="round"/><g stroke="#000000" stroke-width="0.5" stroke-linecap="round"><path d="M207.27076,180.28854l3.563,1.42547l0.35084,19.54244l-3.71234,0.62519z" fill="#000000"/><path d="M210.97597,197.1813l-2.97788,0.05345l-0.22386,-12.46994l2.79176,-0.0501z" fill="#a60000"/></g><path d="M207.60013,234.63187l-5.02053,8.37995l0.30844,-45.928l0.25287,-53.32517l-0.56045,-3.06821l4.28628,7.44314l-0.17489,43.1862z" fill="url(#color-15)" stroke="#000000" stroke-width="0.5" stroke-linecap="round"/><g fill="none" stroke="#1a1a1a" stroke-width="0.5" stroke-linecap="round"><path d="M243.66992,240.54981l-5.95188,7.44982l-0.92782,4.46818l0.96398,-0.02622l-1.54034,0.67075l-10.00593,-0.69152l6.9728,-11.87151z"/><path d="M350.42656,252.41517l-8.37668,0.00548c0,0 -61.18999,0.16865 -80.10627,0.22079c-10.3754,0.02859 -24.09933,0.06642 -24.09933,0.06642l-11.85075,-0.32607l7.43792,-12.29066l21.59322,-0.01412l1.1169,-0.00072l24.13092,0.69523l15.63635,-0.19637l34.06528,0.16388l20.10829,6.50205l0.00291,4.46755l0.18482,-2.04775z"/><path d="M226.13792,252.78747l-17.68411,0.01156l-6.05301,-4.88244"/></g><path d="M202.1735,162.88079l-0.2621,36.7858l0.20261,42.48986l-2.71412,10.5051l-89.17663,-0.11658l-53.61654,-0.13984l-27.55327,-1.36495l-1.06637,-26.40256l0.12161,-32.98336l-0.25573,-50.78183l1.37072,-8.87195c0,0 13.93845,-1.43102 21.76563,-1.54998c8.18513,-0.12441 24.87636,-0.62193 24.87636,-0.62193l86.75379,-0.87759l35.33509,-0.32538l4.02913,11.363l0.35921,14.51283z" fill="#3e3e3e" stroke="#1f1f1f" stroke-width="0.5" stroke-linecap="round"/><path d="M201.77154,191.50675l-4.72111,0.00308l-0.36857,-28.85099l5.42066,0.17132z" fill="#ffffff" stroke="#000000" stroke-width="0.5" stroke-linecap="round"/><path d="M202.58414,145.80537l-5.42044,0.17841l0.36047,-13.71656l1.72909,0.42616l3.1521,7.16704z" fill="#ffffff" stroke="#000000" stroke-width="0.5" stroke-linecap="round"/><path d="M196.93135,152.33381l-0.15933,10.14764l0.54944,38.06502l0.47598,40.55822l0.19301,3.83988l0.11914,3.21335l-63.37154,-0.30636l-4.21309,-0.01381c0,0 -19.98256,0.68205 -30.25496,0.66203c-5.23952,-0.01021 -13.19773,-0.41727 -19.94211,-0.39013c-11.54221,0.04644 -12.64678,-0.39439 -12.64678,-0.39439l-3.66069,0.00239l-14.5131,-0.09488l-16.64683,-0.16399l0.19228,-46.38197l-0.13751,-15.85784l0.09079,-18.79606l-0.00184,-15.37919c0,0 0.03707,-11.35105 0.11886,-14.09881c0.03279,-1.10086 0.09869,-4.11231 0.09869,-4.11231l29.65491,-0.21683l5.00034,0.00803l31.19479,-0.11344l32.99914,0.16585l3.13233,-0.05484l61.85789,-0.46769l-0.24386,13.11435l0.12132,2.47159z" fill="url(#color-16)" stroke="#000000" stroke-width="0.5" stroke-linecap="round"/><path d="M300.50929,251.89373l-13.85399,-0.11804l-0.00673,-10.29511l9.15095,-0.38727l4.58216,10.03792z" fill="url(#color-17)" stroke="#1f1f1f" stroke-width="0" stroke-linecap="round"/><path d="M197.21215,196.14816l4.54615,-0.17782l0.02261,34.62148l-4.21486,0.08032z" fill="#ffffff" stroke="#000000" stroke-width="0.5" stroke-linecap="round"/><path d="M202.2193,244.29844l-1.74605,3.84798l-1.9233,0.1761l-0.53244,-12.06471l3.67197,-0.00241z" fill="#ffffff" stroke="#000000" stroke-width="0.5" stroke-linecap="round"/><path d="M69.86073,248.10982l0.40329,-18.20686l6.0693,-4.75687l59.27592,-0.38845l4.19895,3.66924l0.7121,19.40855c0,0 -5.2447,0.11369 -14.54059,0.21813c-6.47544,0.07276 -16.52497,0.14207 -21.38428,0.16093c-11.71686,0.0455 -34.73467,-0.10466 -34.73467,-0.10466z" fill="#3e3e3e" stroke="#1f1f1f" stroke-width="0.5" stroke-linecap="round"/><path d="M383.92417,239.95278l3.25577,-8.71543l3.87804,-22.92384l-0.90798,-34.58357l-1.22266,-25.51652l-5.48691,-9.36526l0.23281,-4.46537l27.69961,3.64026l52.3356,15.05028l1.38326,10.14611l1.18134,45.66863l-5.19658,24.39983l-15.48653,6.35368l-62.84529,10.51286l-1.09933,-1.68692l-0.35866,-1.30687z" fill="#131313" stroke="#000000" stroke-width="0.5" stroke-linecap="round"/><path d="M50.30167,134.00431l108.92977,-1.13076c0,0 -0.07866,4.52939 -0.23257,6.19772c-2.55582,27.70452 -25.8607,49.39792 -54.23231,49.39792c-28.07629,0 -51.19075,-21.24412 -54.14576,-48.53475c-0.2109,-1.94776 -0.31912,-5.93014 -0.31912,-5.93014z" fill="url(#color-18)" stroke="none" stroke-width="0" stroke-linecap="butt"/><path d="M440.92938,256.52232l7.67736,-7.80624l14.69649,-14.15689l5.01384,-18.61813l0.28153,-9.38576l-1.96506,-54.87795l-11.00171,-14.80987l-16.11012,-12.64756c0,0 -2.08779,-0.22843 -2.75046,-0.22379c-5.16572,0.03599 -66.40602,0.24117 -66.40602,0.24117l2.76693,-3.09653l7.63295,-1.00554l34.2512,-0.20854c0,0 18.54769,-0.08629 24.04983,0.42271c3.25848,0.30142 5.92187,2.34993 5.92187,2.34993l4.65554,2.78919c0,0 9.32635,9.16973 12.80277,13.23991c2.27241,2.66052 6.04477,6.93581 6.04477,6.93581c0,0 2.12396,1.996 2.2822,4.15458c0.09961,1.35901 -0.04293,4.22065 -0.04293,4.22065l3.16452,-0.00207l0.17323,6.14929l-1.86148,0.00121l0.18699,1.30292l0.00195,2.97838l0.56562,10.98239l-0.20063,29.62558l-0.36122,16.93974l1.28633,0.32013l0.37656,6.51496l-3.56008,0.02561c0,0 -0.68416,1.84478 -0.86593,2.59224c-0.09207,0.37856 -0.09441,3.68389 -2.67264,7.03257c-2.6676,3.46475 -5.7579,7.13464 -5.7579,7.13464l-3.56042,3.49882l-16.2334,12.34294c0,0 -8.42684,0.52587 -12.59878,0.78621c-4.11736,0.25695 -12.27127,0.76577 -12.27127,0.76577c0,0 -34.12832,0.22524 -37.15659,0.28841c-0.43574,0.00909 -0.39873,-0.10098 -0.39873,-0.10098l-7.77467,-4.53228l50.33129,-0.0615l0.74446,-0.18663z" fill="url(#color-19)" stroke="#000000" stroke-width="0" stroke-linecap="round"/><path d="M385.05105,240.05778l3.16635,-8.74832l3.6431,-22.96235l-1.26206,-34.57245l-1.48388,-25.50266l-5.58253,-9.30858l0.18709,-4.46753l27.73543,3.35645l52.48698,14.51359l1.48708,10.13141l1.64891,45.65412l-4.94646,24.45175l-15.42065,6.51192c0,0 -14.57197,2.59128 -23.37224,4.15622c-11.4205,2.03086 -39.36212,6.99963 -39.36212,6.99963l-1.11655,-1.67557l-0.37201,-1.3031z" fill="url(#color-20)" stroke="#1a1a1a" stroke-width="0.5" stroke-linecap="round"/><path d="M140.16864,132.39912l0.18792,19.98962l-3.49339,5.71364l-63.12269,0.4806l-4.54942,-4.82973l-0.53804,-20.64839z" fill="#3e3e3e" stroke="#1f1f1f" stroke-width="0.5" stroke-linecap="round"/><path d="M49.53166,240.6263c2.95501,-27.29063 26.06947,-48.53473 54.14576,-48.53473c28.37163,0 51.67649,21.6934 54.23232,49.39792c0.15391,1.66833 0.23258,6.19772 0.23258,6.19772l-108.92976,-1.13076c0,0 0.10822,-3.98239 0.31912,-5.93014z" data-paper-data="{&quot;index&quot;:null}" fill="url(#color-21)" stroke="none" stroke-width="0" stroke-linecap="butt"/><path d="M173.4294,247.45778c0,0 -0.66661,-1.05384 -0.66661,-2.28059c0,-8.98178 0,-112.1152 0,-112.1152h24.44112c0,0 0.66661,38.99229 0.66661,58.20712c0,18.84694 0,56.18868 0,56.18868z" data-paper-data="{&quot;index&quot;:null}" fill="url(#color-22)" stroke="none" stroke-width="0" stroke-linecap="butt"/><path d="M37.97397,258.86748l-11.26157,-6.15232l-3.22707,-14.69406l438.07545,-1.45984l-19.96,19.48628l-18.89001,2.45804l-50.25999,0.12289z" fill="url(#color-23)" stroke="none" stroke-width="0" stroke-linecap="butt"/><path d="M335.73665,259.44225l0.10886,1.29616l-16.0087,0.10353l0.11384,-3.83939l3.16439,-0.1882l0.1875,2.04749l7.3453,-0.13597l1.60474,-0.00111l-0.11756,-1.86141l3.37395,-0.00221z" fill="#a1afb1" stroke="#000000" stroke-width="0" stroke-linecap="round"/><path d="M243.76775,256.217l2.67589,-0.00174l0.08657,2.02096l0.0003,0.43563l9.67971,-0.00633l0.1845,-2.53529l3.72297,-0.00243l0.00302,4.60938l-16.00861,0.24093l-0.1366,-3.49262z" fill="#a1afb1" stroke="#000000" stroke-width="0" stroke-linecap="round"/><path d="M410.89072,222.55126l-3.7096,-60.89191l45.29841,4.7213v44.70459z" fill="url(#color-24)" stroke="#1a1a1a" stroke-width="0" stroke-linecap="butt"/><path d="M451.78987,206.2026l-2.38935,-38.61842l2.66887,-1.54l3.45593,7.90359l2.03954,29.90565l-1.59358,7.0694l-4.37819,-0.92731z" fill="#000000" stroke="#000000" stroke-width="0.5" stroke-linecap="round"/><path d="M452.03197,209.91419l-2.25698,-42.10916l-44.37407,-7.24857l47.09287,5.60682l3.19885,7.21118l2.10922,30.64426l-1.64024,7.41648l-50.87376,12.89932z" fill="#0d0d0d" stroke="#000000" stroke-width="0.5" stroke-linecap="round"/><path d="M-78.24249,361.63479v-360.53868h655.35267v360.53869z" fill="none" stroke="none" stroke-width="0" stroke-linecap="butt"/></g></g></svg>