<svg version="1.1" xmlns="http://www.w3.org/2000/svg" xmlns:xlink="http://www.w3.org/1999/xlink" width="52.9227" height="49.43896" viewBox="0,0,52.9227,49.43896"><defs><linearGradient x1="6242.93337" y1="-2002.8529" x2="6242.93337" y2="1192.94981" gradientUnits="userSpaceOnUse" id="color-1"><stop offset="0" stop-color="#000000"/><stop offset="1" stop-color="#000000" stop-opacity="0"/></linearGradient></defs><g transform="translate(-213.53865,-155.28052)"><g data-paper-data="{&quot;isPaintingLayer&quot;:true}" fill-rule="nonzero" stroke-linejoin="miter" stroke-miterlimit="10" stroke-dasharray="" stroke-dashoffset="0" style="mix-blend-mode: normal"><path d="M213.53865,155.28052h52.56782l0.35488,49.16619l-52.37715,0.27277z" fill="url(#color-1)" stroke="none" stroke-width="0" stroke-linecap="butt"/><path d="" fill="none" stroke="#cbfeff" stroke-width="2" stroke-linecap="round"/><path d="" fill="none" stroke="#cbfeff" stroke-width="2" stroke-linecap="round"/><path d="" data-paper-data="{&quot;index&quot;:null}" fill="none" stroke="#cbfeff" stroke-width="2" stroke-linecap="round"/><path d="" data-paper-data="{&quot;index&quot;:null}" fill="none" stroke="#cbfeff" stroke-width="2" stroke-linecap="round"/><path d="" data-paper-data="{&quot;index&quot;:null}" fill="none" stroke="#cbfeff" stroke-width="2" stroke-linecap="round"/><path d="" data-paper-data="{&quot;index&quot;:null}" fill="none" stroke="#cbfeff" stroke-width="2" stroke-linecap="round"/><path d="" data-paper-data="{&quot;index&quot;:null}" fill="none" stroke="#cbfeff" stroke-width="2" stroke-linecap="round"/><path d="" data-paper-data="{&quot;index&quot;:null}" fill="none" stroke="#cbfeff" stroke-width="2" stroke-linecap="round"/><path d="" data-paper-data="{&quot;index&quot;:null}" fill="none" stroke="#cbfeff" stroke-width="2" stroke-linecap="round"/><path d="" data-paper-data="{&quot;index&quot;:null}" fill="none" stroke="#cbfeff" stroke-width="2" stroke-linecap="round"/><path d="" data-paper-data="{&quot;index&quot;:null}" fill="none" stroke="#cbfeff" stroke-width="2" stroke-linecap="round"/><path d="M248.03643,169.42771c0,0 0.06473,9.0352 -6.29706,13.07581c-6.80219,4.32033 -12.93659,3.47019 -12.93659,3.47019" fill="none" stroke="#ffffff" stroke-width="3" stroke-linecap="round"/><path d="M248.51461,169.36726c0,0 6.70772,12.98509 -1.09039,18.8211c-9.4953,6.29527 -18.50235,-1.55694 -18.50235,-1.55694" fill="none" stroke="#ffffff" stroke-width="3" stroke-linecap="round"/><g fill="none" stroke="#ffffff" stroke-width="2" stroke-linecap="round"><path d="M232.70119,169.20605c0,0 -0.10163,2.16447 -1.31172,3.32979c-1.24262,1.19664 -3.1604,1.21473 -3.1604,1.21473"/><path d="M237.26319,173.70807c0,0 -1.91778,-0.01809 -3.1604,-1.21473c-1.21009,-1.16532 -1.31171,-3.32979 -1.31171,-3.32979" data-paper-data="{&quot;index&quot;:null}"/><path d="M228.31896,173.79181c0,0 1.91778,0.01809 3.1604,1.21473c1.21009,1.16532 1.31171,3.32979 1.31171,3.32979" data-paper-data="{&quot;index&quot;:null}"/><path d="M232.88097,178.37883c0,0 0.10162,-2.16447 1.31171,-3.32979c1.24262,-1.19664 3.1604,-1.21473 3.1604,-1.21473" data-paper-data="{&quot;index&quot;:null}"/></g></g></g></svg>