<svg version="1.1" xmlns="http://www.w3.org/2000/svg" xmlns:xlink="http://www.w3.org/1999/xlink" width="320.95283" height="320.95283" viewBox="0,0,320.95283,320.95283"><defs><linearGradient x1="468.38472" y1="3914.76028" x2="468.38472" y2="-1840.69418" gradientUnits="userSpaceOnUse" id="color-1"><stop offset="0" stop-color="#6b6b6b"/><stop offset="1" stop-color="#6b6b6b" stop-opacity="0"/></linearGradient><linearGradient x1="279.95034" y1="164.99755" x2="286.32705" y2="188.13104" gradientUnits="userSpaceOnUse" id="color-2"><stop offset="0" stop-color="#6b9c38"/><stop offset="1" stop-color="#608b32"/></linearGradient><radialGradient cx="228.85737" cy="179.29487" r="44.63431" gradientUnits="userSpaceOnUse" id="color-3"><stop offset="0" stop-color="#adff5c"/><stop offset="1" stop-color="#70a53b"/></radialGradient><radialGradient cx="228.9913" cy="179.96451" r="30.9375" gradientUnits="userSpaceOnUse" id="color-4"><stop offset="0" stop-color="#679536"/><stop offset="1" stop-color="#679536" stop-opacity="0"/></radialGradient></defs><g transform="translate(-79.52358,-19.52359)"><g data-paper-data="{&quot;isPaintingLayer&quot;:true}" fill-rule="nonzero" stroke-width="0" stroke-linecap="butt" stroke-linejoin="miter" stroke-miterlimit="10" stroke-dasharray="" stroke-dashoffset="0" style="mix-blend-mode: normal"><path d="M330.59263,188.35398c-0.09584,1.55424 3.73784,12.2286 -6.88718,16.61213c-4.98762,2.05773 -17.69341,-2.62999 -25.24497,-3.36066c-3.5425,-0.34276 -9.98886,0.55113 -12.73699,2.29145c-1.10202,0.69788 -0.74766,3.03606 -0.6972,3.17335c1.99414,5.42611 34.15134,17.28068 33.57875,27.12041c0.00041,0.59492 -0.02713,1.18722 -0.08117,1.77613c-1.29403,14.1021 -17.78849,26.26574 -29.90495,26.27625c-1.75579,0.00152 -29.43671,-11.39842 -43.10224,-19.3231c-13.96138,-8.09624 -24.1954,-18.52207 -27.39164,-20.98845c-7.51905,-5.80206 -9.06072,-11.08138 -9.95614,-13.05191c-5.40909,-11.90374 3.51615,-21.33229 3.51615,-21.33229c0,0 21.86002,-36.16067 25.61121,-39.83289c0.66872,-0.65464 32.00872,25.04973 33.94854,30.37805c0,0 24.42273,3.11954 42.31278,3.46002c13.11575,0.24962 17.20973,3.96865 17.03504,6.8015z" fill="url(#color-1)" stroke="none"/><path d="M265.2416,193.57587l-6.15154,-22.31658c0,0 7.37981,-2.43135 14.40965,-4.48187c1.59226,-0.46444 5.49219,-1.2796 6.75515,-1.62773c3.63449,-1.00184 8.97118,-2.40021 13.30276,-3.5235c4.10198,-1.06375 8.14151,1.05249 8.77392,3.2637c0.64507,2.25547 2.09581,7.32797 3.24277,11.33828c0.89367,3.12468 -0.51481,6.27849 -3.48868,7.20571c-4.37397,1.36373 -10.60003,3.2752 -14.66437,4.39553c-1.88152,0.51864 -5.70605,1.44218 -8.24507,2.08498c-7.0233,1.7781 -13.93464,3.66146 -13.93464,3.66146z" fill="url(#color-2)" stroke="none"/><path d="M278.64973,183.03108l2.54652,-0.90493l-1.72136,-2.60723l2.08964,2.19588l1.07126,-1.74823l-0.17796,1.78864l2.46569,-0.2305l-2.72619,1.09628l1.17855,2.42957l-1.60622,-2.02852l-0.78106,1.45665l0.2741,-1.74124z" fill="#cabb5d" stroke="none"/><path d="M261.51011,181.09879l-0.3294,-1.19499l30.04536,-8.28199l0.3294,1.19499z" fill="#cabb5d" stroke="none"/><path d="M264.17512,185.60816l-0.35852,-1.32386l30.09062,-8.11633l0.35852,1.32386z" fill="#bcae56" stroke="none"/><path d="M266.82554,190.34373l-0.20068,-0.75125l30.07086,-8.18802l0.20068,0.75125z" fill="#b8aa54" stroke="none"/><path d="M260.9436,175.71183l-0.25046,-0.90863l30.04537,-8.28197l0.25046,0.90863z" fill="#b8aa54" stroke="none"/><path d="M235.21935,224.60976c-4.92758,0.48549 -12.32537,-6.53058 -12.32537,-6.53058c0,0 -9.18537,4.69026 -12.52554,1.64915c-4.76802,-2.93196 -4.31651,-9.5974 -4.31651,-9.5974c0,0 -10.56596,-2.00098 -11.82895,-3.61525c-3.38037,-4.32061 -0.25622,-11.46257 -0.25622,-11.46257c0,0 -9.15288,-3.30116 -9.80211,-8.29708c-0.62276,-4.79233 5.11586,-11.46966 5.11586,-11.46966c0,0 -5.55918,-7.84751 -4.37741,-10.93243c1.25171,-3.26746 11.16839,-8.31808 11.16839,-8.31808c0,0 0.21989,-9.13487 4.10989,-11.55011c3.21816,-1.99809 11.07377,-2.27085 11.07377,-2.27085c0,0 4.89188,-6.16354 9.07946,-6.75771c5.56019,-0.78893 12.45911,3.8114 12.45911,3.8114c0,0 7.81321,-5.82303 13.4986,-2.39971c2.84798,1.2891 5.38476,8.19401 5.38476,8.19401c0,0 9.41703,0.57856 11.67379,6.3143c1.46768,3.73024 0.35705,10.04915 0.35705,10.04915c0,0 8.08817,2.60634 9.34454,6.97793c1.70621,5.39818 -3.68862,11.90734 -3.68862,11.90734c0,0 4.9673,8.16583 3.32481,13.00622c-1.53647,4.528 -7.52506,9.31624 -7.52506,9.31624c0,0 0.90028,8.85504 -5.23879,13.23759c-3.86428,2.7586 -12.66108,0.92989 -12.66108,0.92989c0,0 -6.3406,7.24622 -12.04443,7.8082z" data-paper-data="{&quot;index&quot;:null}" fill="url(#color-3)" stroke="#49ac26"/><path d="M195.67785,157.33609l0.46432,-0.90795l26.07856,17.10673l-1.36922,2.07716z" fill="#cabb5d" stroke="none"/><path d="M210.8143,143.23025l0.70434,-0.04303l13.94766,28.07575l-2.94694,2.26987z" fill="#cabb5d" stroke="none"/><path d="M232.59414,139.80838l1.26645,0.13504l-3.41396,32.49729l-1.81689,-0.25145z" fill="#cabb5d" stroke="none"/><path d="M251.44195,145.18575l0.97561,0.97777l-18.44492,28.53551l-1.22719,-1.37486z" fill="#cabb5d" stroke="none"/><path d="M263.5367,161.38843l0.76098,1.38042l-27.42471,15.13738l-1.19845,-2.18016z" fill="#cabb5d" stroke="none"/><path d="M269.49026,181.54533l0.29025,1.14882l-34.19744,-1.79891l0.62926,-1.73212z" fill="#cabb5d" stroke="none"/><path d="M265.71046,203.11818l-0.3698,1.05818l-28.36924,-18.03174l0.40531,-2.30261z" fill="#cabb5d" stroke="none"/><path d="M247.94216,217.92283l-1.19932,0.3644l-14.82594,-31.3303l1.47295,-0.23784z" fill="#cabb5d" stroke="none"/><path d="M224.02498,219.3782l-1.50033,-0.1259l3.40702,-32.71834l2.08307,0.0791z" fill="#cabb5d" stroke="none"/><path d="M206.38901,211.41843l-0.88767,-0.59584l19.09412,-26.73999l2.21695,1.14541z" fill="#cabb5d" stroke="none"/><path d="M194.10679,196.84893l-0.54352,-1.14931l29.26031,-17.33069l1.4287,2.5794z" fill="#cabb5d" stroke="none"/><path d="M188.88004,177.60302l0.67412,-1.33376l30.20357,-1.11857l-0.40723,2.69437z" fill="#cabb5d" stroke="none"/><path d="M198.0538,179.96451c0,-17.08631 13.85119,-30.9375 30.9375,-30.9375c17.08631,0 30.9375,13.85119 30.9375,30.9375c0,17.08631 -13.85119,30.9375 -30.9375,30.9375c-17.08631,0 -30.9375,-13.85119 -30.9375,-30.9375z" fill="url(#color-4)" stroke="none"/><path d="M79.52359,340.47643v-320.95283h320.95283v320.95283z" fill="none" stroke="none"/></g></g></svg>