<svg version="1.1" xmlns="http://www.w3.org/2000/svg" xmlns:xlink="http://www.w3.org/1999/xlink" width="221.41646" height="64.50196" viewBox="0,0,221.41646,64.50196"><defs><radialGradient cx="240.00003" cy="180.00001" r="121.20618" gradientUnits="userSpaceOnUse" id="color-1"><stop offset="0" stop-color="#f0f0f0" stop-opacity="0.41961"/><stop offset="1" stop-color="#f2f2f2" stop-opacity="0.84706"/></radialGradient></defs><g transform="translate(-149.54277,-147.74902)"><g data-paper-data="{&quot;isPaintingLayer&quot;:true}" fill-rule="nonzero" stroke-linecap="butt" stroke-linejoin="miter" stroke-miterlimit="10" stroke-dasharray="" stroke-dashoffset="0" style="mix-blend-mode: normal"><path d="M150.79522,210.80826l0.12119,-61.8079l178.28842,0.19138l-0.12119,61.8079z" fill="url(#color-1)" stroke="#baff8c" stroke-width="2.5"/><text transform="translate(208.564,189.4308) scale(0.7859,0.7859)" font-size="40" xml:space="preserve" fill="#ffffff" fill-rule="nonzero" stroke="#ffffff" stroke-width="1" stroke-linecap="butt" stroke-linejoin="miter" stroke-miterlimit="10" stroke-dasharray="" stroke-dashoffset="0" font-family="Sans Serif" font-weight="normal" text-anchor="start" style="mix-blend-mode: normal"><tspan x="0" dy="0">简单</tspan></text><path d="M340.16777,179.52624c0,-6.38372 5.17502,-11.55874 11.55874,-11.55874c6.38372,0 11.55875,5.17502 11.55875,11.55874c0,6.38372 -5.17503,11.55874 -11.55875,11.55874c-6.38372,0 -11.55874,-5.17502 -11.55874,-11.55874z" fill="none" stroke="#ffffff" stroke-width="4.5"/><path d="M351.65212,186.91392l-5.07804,-4.46719l18.60069,-21.05818l5.07804,4.46718z" fill="#baff8c" stroke="#baff8c" stroke-width="1"/><path d="M353.5127,181.74311l-2.84862,3.23815l-13.42829,-11.86121l2.84861,-3.23814z" fill="#baff8c" stroke="#baff8c" stroke-width="2.5"/></g></g></svg>