<svg version="1.1" xmlns="http://www.w3.org/2000/svg" xmlns:xlink="http://www.w3.org/1999/xlink" width="917.05823" height="360.53869" viewBox="0,0,917.05823,360.53869"><defs><radialGradient cx="544.80887" cy="109.89846" r="6.13935" gradientUnits="userSpaceOnUse" id="color-1"><stop offset="0" stop-color="#ffffff"/><stop offset="1" stop-color="#afafaf"/></radialGradient><radialGradient cx="544.80887" cy="250.10158" r="6.13935" gradientUnits="userSpaceOnUse" id="color-2"><stop offset="0" stop-color="#ffffff"/><stop offset="1" stop-color="#afafaf"/></radialGradient><radialGradient cx="595.06346" cy="228.93413" r="40.98505" gradientUnits="userSpaceOnUse" id="color-3"><stop offset="0" stop-color="#ffbe3b"/><stop offset="1" stop-color="#c9982f"/></radialGradient><linearGradient x1="551.51807" y1="179.78567" x2="563.19535" y2="179.78567" gradientUnits="userSpaceOnUse" id="color-4"><stop offset="0" stop-color="#cc972f"/><stop offset="1" stop-color="#cc972f" stop-opacity="0"/></linearGradient><radialGradient cx="622.63186" cy="224.95027" r="15.14816" gradientUnits="userSpaceOnUse" id="color-5"><stop offset="0" stop-color="#e8e8e8"/><stop offset="1" stop-color="#4e4e4e"/></radialGradient><radialGradient cx="623.18273" cy="226.2478" r="10.94148" gradientUnits="userSpaceOnUse" id="color-6"><stop offset="0" stop-color="#dedcdf"/><stop offset="1" stop-color="#dedcdf" stop-opacity="0"/></radialGradient><radialGradient cx="623.14181" cy="229.23473" r="3.03842" gradientUnits="userSpaceOnUse" id="color-7"><stop offset="0" stop-color="#dedcdf"/><stop offset="1" stop-color="#dedcdf" stop-opacity="0"/></radialGradient><radialGradient cx="620.87677" cy="231.55499" r="2.43073" gradientUnits="userSpaceOnUse" id="color-8"><stop offset="0" stop-color="#dedcdf"/><stop offset="1" stop-color="#dedcdf" stop-opacity="0"/></radialGradient><radialGradient cx="618.28032" cy="234.2067" r="2.3755" gradientUnits="userSpaceOnUse" id="color-9"><stop offset="0" stop-color="#dedcdf"/><stop offset="1" stop-color="#dedcdf" stop-opacity="0"/></radialGradient><radialGradient cx="624.02978" cy="222.19658" r="10.9415" gradientUnits="userSpaceOnUse" id="color-10"><stop offset="0" stop-color="#dedcdf"/><stop offset="1" stop-color="#dedcdf" stop-opacity="0"/></radialGradient><radialGradient cx="622.76051" cy="228.1602" r="3.03842" gradientUnits="userSpaceOnUse" id="color-11"><stop offset="0" stop-color="#605f60"/><stop offset="1" stop-color="#605f60" stop-opacity="0"/></radialGradient><radialGradient cx="621.11943" cy="229.64851" r="2.43073" gradientUnits="userSpaceOnUse" id="color-12"><stop offset="0" stop-color="#939294"/><stop offset="1" stop-color="#939294" stop-opacity="0"/></radialGradient><radialGradient cx="619.1469" cy="231.3643" r="2.3755" gradientUnits="userSpaceOnUse" id="color-13"><stop offset="0" stop-color="#605f60"/><stop offset="1" stop-color="#605f60" stop-opacity="0"/></radialGradient><radialGradient cx="-7.41941" cy="180.64305" r="66.11871" gradientUnits="userSpaceOnUse" id="color-14"><stop offset="0" stop-color="#474644"/><stop offset="1" stop-color="#020008"/></radialGradient><linearGradient x1="268.06014" y1="117.21207" x2="268.06014" y2="134.62587" gradientUnits="userSpaceOnUse" id="color-15"><stop offset="0" stop-color="#a67c2a"/><stop offset="1" stop-color="#a67c2a" stop-opacity="0"/></linearGradient><radialGradient cx="271.13685" cy="132.86477" r="233.27806" gradientUnits="userSpaceOnUse" id="color-16"><stop offset="0" stop-color="#f7dca5"/><stop offset="1" stop-color="#f7dca5" stop-opacity="0"/></radialGradient><linearGradient x1="268.06014" y1="242.11206" x2="268.06014" y2="224.69825" gradientUnits="userSpaceOnUse" id="color-17"><stop offset="0" stop-color="#a67c2a"/><stop offset="1" stop-color="#a67c2a" stop-opacity="0"/></linearGradient><radialGradient cx="269.14714" cy="227.37205" r="233.27806" gradientUnits="userSpaceOnUse" id="color-18"><stop offset="0" stop-color="#f7dca5"/><stop offset="1" stop-color="#f7dca5" stop-opacity="0"/></radialGradient><linearGradient x1="-17.45189" y1="128.93867" x2="-17.45189" y2="131.21972" gradientUnits="userSpaceOnUse" id="color-19"><stop offset="0" stop-color="#151616"/><stop offset="1" stop-color="#151616" stop-opacity="0"/></linearGradient><linearGradient x1="-17.45187" y1="136.23798" x2="-17.45187" y2="134.21766" gradientUnits="userSpaceOnUse" id="color-20"><stop offset="0" stop-color="#151616"/><stop offset="1" stop-color="#151616" stop-opacity="0"/></linearGradient><linearGradient x1="-17.45189" y1="137.65435" x2="-17.45189" y2="139.93542" gradientUnits="userSpaceOnUse" id="color-21"><stop offset="0" stop-color="#151616"/><stop offset="1" stop-color="#151616" stop-opacity="0"/></linearGradient><linearGradient x1="-17.45187" y1="144.95369" x2="-17.45187" y2="142.93335" gradientUnits="userSpaceOnUse" id="color-22"><stop offset="0" stop-color="#151616"/><stop offset="1" stop-color="#151616" stop-opacity="0"/></linearGradient><linearGradient x1="-17.45189" y1="146.69894" x2="-17.45189" y2="148.98001" gradientUnits="userSpaceOnUse" id="color-23"><stop offset="0" stop-color="#151616"/><stop offset="1" stop-color="#151616" stop-opacity="0"/></linearGradient><linearGradient x1="-17.45187" y1="153.99828" x2="-17.45187" y2="151.97795" gradientUnits="userSpaceOnUse" id="color-24"><stop offset="0" stop-color="#151616"/><stop offset="1" stop-color="#151616" stop-opacity="0"/></linearGradient><linearGradient x1="-17.45189" y1="229.27735" x2="-17.45189" y2="226.99629" gradientUnits="userSpaceOnUse" id="color-25"><stop offset="0" stop-color="#151616"/><stop offset="1" stop-color="#151616" stop-opacity="0"/></linearGradient><linearGradient x1="-17.45187" y1="221.97802" x2="-17.45187" y2="223.9984" gradientUnits="userSpaceOnUse" id="color-26"><stop offset="0" stop-color="#151616"/><stop offset="1" stop-color="#151616" stop-opacity="0"/></linearGradient><linearGradient x1="-17.45189" y1="220.56166" x2="-17.45189" y2="218.28063" gradientUnits="userSpaceOnUse" id="color-27"><stop offset="0" stop-color="#151616"/><stop offset="1" stop-color="#151616" stop-opacity="0"/></linearGradient><linearGradient x1="-17.45187" y1="213.26236" x2="-17.45187" y2="215.28271" gradientUnits="userSpaceOnUse" id="color-28"><stop offset="0" stop-color="#151616"/><stop offset="1" stop-color="#151616" stop-opacity="0"/></linearGradient><linearGradient x1="-17.45189" y1="211.51711" x2="-17.45189" y2="209.23605" gradientUnits="userSpaceOnUse" id="color-29"><stop offset="0" stop-color="#151616"/><stop offset="1" stop-color="#151616" stop-opacity="0"/></linearGradient><linearGradient x1="-17.45187" y1="204.21778" x2="-17.45187" y2="206.23813" gradientUnits="userSpaceOnUse" id="color-30"><stop offset="0" stop-color="#151616"/><stop offset="1" stop-color="#151616" stop-opacity="0"/></linearGradient><radialGradient cx="595.06346" cy="130.42529" r="40.98505" gradientUnits="userSpaceOnUse" id="color-31"><stop offset="0" stop-color="#ffbe3b"/><stop offset="1" stop-color="#c9982f"/></radialGradient><radialGradient cx="622.63186" cy="134.40916" r="15.14816" gradientUnits="userSpaceOnUse" id="color-32"><stop offset="0" stop-color="#e8e8e8"/><stop offset="1" stop-color="#4e4e4e"/></radialGradient><radialGradient cx="623.18273" cy="133.11161" r="10.9415" gradientUnits="userSpaceOnUse" id="color-33"><stop offset="0" stop-color="#dedcdf"/><stop offset="1" stop-color="#dedcdf" stop-opacity="0"/></radialGradient><radialGradient cx="623.14181" cy="130.12468" r="3.03842" gradientUnits="userSpaceOnUse" id="color-34"><stop offset="0" stop-color="#dedcdf"/><stop offset="1" stop-color="#dedcdf" stop-opacity="0"/></radialGradient><radialGradient cx="620.87677" cy="127.80446" r="2.43073" gradientUnits="userSpaceOnUse" id="color-35"><stop offset="0" stop-color="#dedcdf"/><stop offset="1" stop-color="#dedcdf" stop-opacity="0"/></radialGradient><radialGradient cx="618.28032" cy="125.15275" r="2.37548" gradientUnits="userSpaceOnUse" id="color-36"><stop offset="0" stop-color="#dedcdf"/><stop offset="1" stop-color="#dedcdf" stop-opacity="0"/></radialGradient><radialGradient cx="624.02978" cy="137.16283" r="10.9415" gradientUnits="userSpaceOnUse" id="color-37"><stop offset="0" stop-color="#dedcdf"/><stop offset="1" stop-color="#dedcdf" stop-opacity="0"/></radialGradient><radialGradient cx="622.76051" cy="131.19921" r="3.03842" gradientUnits="userSpaceOnUse" id="color-38"><stop offset="0" stop-color="#605f60"/><stop offset="1" stop-color="#605f60" stop-opacity="0"/></radialGradient><radialGradient cx="621.11943" cy="129.71091" r="2.43073" gradientUnits="userSpaceOnUse" id="color-39"><stop offset="0" stop-color="#939294"/><stop offset="1" stop-color="#939294" stop-opacity="0"/></radialGradient><radialGradient cx="619.1469" cy="127.99511" r="2.3755" gradientUnits="userSpaceOnUse" id="color-40"><stop offset="0" stop-color="#605f60"/><stop offset="1" stop-color="#605f60" stop-opacity="0"/></radialGradient><radialGradient cx="592.82787" cy="230.67957" r="17.20664" gradientUnits="userSpaceOnUse" id="color-41"><stop offset="0" stop-color="#ffc95c"/><stop offset="1" stop-color="#ffc95c" stop-opacity="0"/></radialGradient><radialGradient cx="592.82787" cy="129.50667" r="17.20664" gradientUnits="userSpaceOnUse" id="color-42"><stop offset="0" stop-color="#ffc95c"/><stop offset="1" stop-color="#ffc95c" stop-opacity="0"/></radialGradient><linearGradient x1="608.66158" y1="214.30732" x2="606.78982" y2="206.42384" gradientUnits="userSpaceOnUse" id="color-43"><stop offset="0" stop-color="#aa7e27"/><stop offset="1" stop-color="#aa7e27" stop-opacity="0"/></linearGradient><radialGradient cx="633.36957" cy="179.14474" r="29.4045" gradientUnits="userSpaceOnUse" id="color-44"><stop offset="0" stop-color="#e4e5e8"/><stop offset="1" stop-color="#a7a7ae"/></radialGradient><linearGradient x1="608.66158" y1="144.94508" x2="606.78982" y2="152.82857" gradientUnits="userSpaceOnUse" id="color-45"><stop offset="0" stop-color="#aa7e27"/><stop offset="1" stop-color="#aa7e27" stop-opacity="0"/></linearGradient><radialGradient cx="593.16865" cy="152.88471" r="22.70575" gradientUnits="userSpaceOnUse" id="color-46"><stop offset="0" stop-color="#ffc95c"/><stop offset="1" stop-color="#ffc95c" stop-opacity="0"/></radialGradient><radialGradient cx="594.12015" cy="207.20554" r="22.70575" gradientUnits="userSpaceOnUse" id="color-47"><stop offset="0" stop-color="#ffc95c"/><stop offset="1" stop-color="#ffc95c" stop-opacity="0"/></radialGradient></defs><g transform="translate(122.18803,-1.09611)"><g data-paper-data="{&quot;isPaintingLayer&quot;:true}" fill-rule="nonzero" stroke="none" stroke-width="0" stroke-linecap="butt" stroke-linejoin="miter" stroke-miterlimit="10" stroke-dasharray="" stroke-dashoffset="0" style="mix-blend-mode: normal"><g data-paper-data="{&quot;index&quot;:null}"><path d="M546.06432,111.39501l-7.45438,8.33536l-1.63439,-1.46164l7.45439,-8.33536z" fill="#3f4440"/><path d="M546.12443,104.4169v10.96314h-2.63115v-10.96314z" fill="url(#color-1)"/></g><g><path d="M544.42995,250.06667l-7.45439,-8.33535l1.63438,-1.46165l7.45439,8.33535z" fill="#3f4440"/><path d="M543.49331,255.58313v-10.96313h2.63115v10.96313z" fill="url(#color-2)"/></g><path d="M551.53554,229.30912v-99.10189l81.08336,20.11371v59.08401z" fill="#fabb3a"/><path d="M563.23106,225.88919c0,0 -1.59555,-6.11881 -1.59555,-15.03693c0,-20.27482 0,-55.018 0,-65.22447c0,-5.56456 1.59555,-11.50735 1.59555,-11.50735h1.88566c0,0 -1.59555,5.77134 -1.59555,11.21726c0,10.14951 0,45.14289 0,65.51458c0,8.92019 1.59555,15.03693 1.59555,15.03693z" fill="#dfaa36"/><path d="M629.07066,229.68367c-9.16653,12.88988 -20.19909,12.61729 -20.19909,12.61729c0,0 -50.50814,-0.11276 -53.61275,-0.29969c-1.24207,-0.07479 -2.62914,-0.65949 -2.64562,-2.89709c-0.01778,-2.41551 0.19407,-10.82402 0.19407,-10.82402l78.81924,-19.56805l2.95573,-0.0307c0,0 -0.36635,13.76712 -5.51158,21.00229z" fill="url(#color-3)"/><path d="M551.51807,239.0801v-118.58895h11.67725v118.58895z" data-paper-data="{&quot;index&quot;:null}" fill="url(#color-4)"/><path d="M613.2655,240.04311c-0.28581,-0.4083 -0.3582,-2.25919 -0.10533,-3.35106c0.24365,-1.05208 7.5188,-8.53619 10.25614,-12.47526c3.36206,-4.83806 7.06624,-14.47174 8.42997,-14.41443c1.11686,0.04693 0.01026,12.69252 -3.90305,19.26869c-5.28318,8.87819 -14.34093,11.45317 -14.67771,10.97209z" fill="url(#color-5)"/><path d="M614.07999,237.70035c0,0 9.09193,-7.255 11.88143,-12.09145c2.58861,-4.48817 3.86308,-10.31207 4.80907,-10.30256c0.48197,0.00485 -0.2223,6.33361 -2.22329,10.88325c-1.58927,3.61351 -9.41659,10.99971 -9.41659,10.99971z" fill="url(#color-6)"/><path d="M620.10339,230.00817v-1.54684h6.07684v1.54684z" fill="url(#color-7)"/><path d="M618.44607,232.32839v-1.54683h4.86148v1.54683z" fill="url(#color-8)"/><path d="M615.90482,235.20106v-1.98879h4.75098v1.98879z" fill="url(#color-9)"/><path d="M614.92707,233.64913c0,0 9.09193,-7.255 11.88143,-12.09145c2.58861,-4.48819 4.25531,-7.72555 2.25431,-3.1759c-0.92635,6.04426 -9.08511,14.75628 -9.08511,14.75628z" fill="url(#color-10)"/><path d="M619.7221,228.9336l1.12689,-1.54684h4.94995v1.54684z" fill="url(#color-11)"/><path d="M618.46335,230.30923l1.35226,-1.43414h3.73459v1.54684z" fill="url(#color-12)"/><path d="M616.65874,232.35874l1.69032,-2.10147l3.17334,0.11269v1.98879z" fill="url(#color-13)"/><path d="M2.09951,246.76177c-4.12428,0 -14.96061,0 -18.17789,0c-2.53572,0 -6.00179,-3.13781 -6.00179,-6.82922c0,-13.40715 0,-94.17481 0,-118.48831c0,-4.37311 3.46609,-6.91988 6.00179,-6.91988c3.36564,0 14.8168,0 18.72185,0c1.18559,0 1.92222,0.70546 1.92222,1.75244c0,8.29745 0,111.42345 0,128.18858c0,1.48863 -0.9661,2.29639 -2.46618,2.29639z" fill="url(#color-14)"/><path d="M552.96399,236.73715c0,3.52662 -2.08192,5.55323 -5.99229,5.55323c-57.5088,0 -510.49117,0 -552.70822,0c-6.20961,0 -10.59722,-4.83647 -10.59722,-12.54297c0,-26.65214 0,-87.63101 0,-101.5936c0,-5.57737 4.91524,-10.95832 11.76218,-10.95832c43.7525,0 486.57358,0 549.98999,0c4.90994,0 7.54556,3.2102 7.54556,6.92901c0,13.20114 0,91.02099 0,112.61268z" fill="#fabb3a"/><path d="M4.28142,241.37804c0,0 -2.21508,-6.29816 -2.21508,-15.89928c0,-26.01882 0,-76.2945 0,-91.21593c0,-8.18484 2.21508,-17.19646 2.21508,-17.19646h1.42852c0,0 -2.21508,9.11447 -2.21508,17.36685c0,14.95126 0,65.07658 0,91.04554c0,9.60033 2.21508,15.89928 2.21508,15.89928z" data-paper-data="{&quot;index&quot;:null}" fill="#e1a536"/><path d="M4.96113,145.24091v-1.70535h513.91911v1.70535z" fill="#fabb3d"/><path d="M534.04973,241.37804c0,0 2.21508,-6.29895 2.21508,-15.89928c0,-25.96896 0,-76.09428 0,-91.04554c0,-8.25238 -2.21508,-17.36685 -2.21508,-17.36685h1.42854c0,0 2.21508,9.01162 2.21508,17.19646c0,14.92143 0,65.19711 0,91.21593c0,9.60112 -2.21508,15.89928 -2.21508,15.89928z" fill="#e1a536"/><path d="M-16.90256,134.62587c0,0 0,-4.5415 0,-7.13667c0,-3.11426 3.29591,-10.27718 13.07763,-10.27718c86.87591,0 519.81004,0 551.01294,0c3.53078,0 5.83483,3.34605 5.83483,5.67163c0,3.197 0,11.74223 0,11.74223z" fill="url(#color-15)"/><path d="M37.85878,136.82571v-7.92186h466.5561v7.92186z" fill="url(#color-16)"/><path d="M553.02284,224.69826c0,0 0,9.26675 0,12.46376c0,2.90284 -2.30405,4.95008 -5.83483,4.95008c-31.20291,0 -464.13702,0 -551.01294,0c-9.78173,0 -13.07763,-7.16292 -13.07763,-10.27718c0,-2.5952 0,-7.13667 0,-7.13667z" data-paper-data="{&quot;index&quot;:null}" fill="url(#color-17)"/><g><path d="M10.81437,140.6863v-1.70535h514.6274l-0.03526,1.70535z" fill="#fbc354"/><path d="M11.43385,143.99658v-1.70535h513.98964v1.70535z" fill="#efb039"/></g><g><path d="M11.63822,150.11459v-1.70535h514.6274l-0.03526,1.70535z" fill="#fbc354"/><path d="M12.25769,153.42491v-1.70535h513.98964v1.70535z" fill="#efb039"/></g><g><path d="M377.48123,203.78138v-48.13583h45.17363v48.13583z" fill="#d99f31"/><path d="M420.16797,201.98894h-40.63553v-44.28852l-1.81208,-2.03353h44.98893v48.17341z" fill="#ffcd68"/><path d="M379.52254,201.99888v-44.28552h40.77005v44.28552z" fill="#fac14e"/></g><g><path d="M138.51627,203.78138v-48.13583h45.17363v48.13583z" fill="#d99f31"/><path d="M181.20304,201.98899h-40.63553v-44.28852l-1.81208,-2.03353h44.98895v48.17341z" fill="#ffcd68"/><path d="M140.5576,201.99888v-44.28552h40.77005v44.28552z" fill="#fac14e"/></g><path d="M35.86909,231.33297v-7.92186h466.5561v7.92186z" fill="url(#color-18)"/><g><g><path d="M9.85468,208.092v-1.70535h514.6274l-0.03526,1.70535z" fill="#fbc354"/><path d="M10.47416,211.40228v-1.70535h513.98964v1.70535z" fill="#efb039"/></g><g><path d="M10.67853,217.1946v-1.70535h514.6274l-0.03526,1.70535z" fill="#fbc354"/><path d="M11.298,220.50488v-1.70535h513.98964v1.70535z" fill="#efb039"/></g></g><g><g><g><path d="M428.15681,160.85955v-1.70535h97.71223l-0.00669,1.70535z" fill="#fbc354"/><path d="M428.27442,164.16983v-1.70535h97.59115v1.70535z" fill="#efb039"/></g><g><path d="M428.31324,169.96215v-1.70535h97.71223l-0.00669,1.70535z" fill="#fbc354"/><path d="M428.43085,173.27243v-1.70535h97.59113v1.70535z" fill="#efb039"/></g></g><g><path d="M427.66059,179.21993v-1.70535h97.71223l-0.00669,1.70535z" fill="#fbc354"/><path d="M427.7782,182.53022v-1.70535h97.59115v1.70535z" fill="#efb039"/></g><g><path d="M427.81702,188.32249v-1.70535h97.71223l-0.00669,1.70535z" fill="#fbc354"/><path d="M427.93463,191.63281v-1.70535h97.59113v1.70535z" fill="#efb039"/></g><g><path d="M427.3208,197.37862v-1.70535h97.71223l-0.00669,1.70535z" fill="#fbc354"/><path d="M427.4384,200.68894v-1.70535h97.59113v1.70535z" fill="#efb039"/></g></g><g><g><path d="M187.98927,160.23924v-1.70535h186.14114l-0.01277,1.70535z" fill="#fbc354"/><path d="M188.21331,163.54956v-1.70535h185.91046v1.70535z" fill="#efb039"/></g><g><path d="M188.28722,169.34184v-1.70535h186.14114l-0.01275,1.70535z" fill="#fbc354"/><path d="M188.51131,172.65216v-1.70535h185.91044v1.70535z" fill="#efb039"/></g></g><g><path d="M187.79204,178.59961v-1.70535h185.398l-0.01271,1.70535z" fill="#fbc354"/><path d="M188.0152,181.90994v-1.70535h185.16823v1.70535z" fill="#efb039"/></g><g><path d="M187.71666,187.70222v-1.70535h185.77015l-0.01273,1.70535z" fill="#fbc354"/><path d="M187.9403,191.01249v-1.70535h185.53993v1.70535z" fill="#efb039"/></g><g><path d="M187.1473,196.75835v-1.70535h185.398l-0.01271,1.70535z" fill="#fbc354"/><path d="M187.37046,200.06863v-1.70535h185.16823v1.70535z" fill="#efb039"/></g><g><g><path d="M11.91667,159.99112v-1.70535h123.25741l-0.00845,1.70535z" fill="#fbc354"/><path d="M12.06505,163.30144v-1.70535h123.10465v1.70535z" fill="#efb039"/></g><g><path d="M12.11398,169.09372v-1.70535h123.25739l-0.00843,1.70535z" fill="#fbc354"/><path d="M12.26237,172.40404v-1.70535h123.10464v1.70535z" fill="#efb039"/></g></g><g><path d="M11.78609,178.3515v-1.70535h122.76531l-0.00841,1.70535z" fill="#fbc354"/><path d="M11.93388,181.66182v-1.70535h122.61318v1.70535z" fill="#efb039"/></g><g><path d="M11.73619,187.4541v-1.70535h123.01175l-0.00843,1.70535z" fill="#fbc354"/><path d="M11.88425,190.76438v-1.70535h122.85931v1.70535z" fill="#efb039"/></g><g><path d="M11.35917,196.51024v-1.70535h122.76531l-0.00841,1.70535z" fill="#fbc354"/><path d="M11.50695,199.82051v-1.70535h122.61316v1.70535z" fill="#efb039"/></g><g><path d="M-18.56176,136.20575v-7.16969h2.28485v7.16969z" fill="#e68616"/><path d="M-18.62502,131.21972v-2.28104h2.34621v2.28104z" fill="url(#color-19)"/><path d="M-16.27877,134.21766v2.02035h-2.34621v-2.02035z" data-paper-data="{&quot;index&quot;:null}" fill="url(#color-20)"/></g><g><path d="M-18.56176,144.92145v-7.16969h2.28485v7.16969z" fill="#b1232f"/><path d="M-18.62502,139.93542v-2.28104h2.34621v2.28104z" fill="url(#color-21)"/><path d="M-16.27877,142.93335v2.02035h-2.34621v-2.02035z" data-paper-data="{&quot;index&quot;:null}" fill="url(#color-22)"/></g><g><path d="M-18.56176,153.96604v-7.16969h2.28485v7.16969z" fill="#e4e3df"/><path d="M-18.62502,148.98001v-2.28104h2.34621v2.28104z" fill="url(#color-23)"/><path d="M-16.27877,151.97795v2.02035h-2.34621v-2.02035z" data-paper-data="{&quot;index&quot;:null}" fill="url(#color-24)"/></g><g data-paper-data="{&quot;index&quot;:null}"><path d="M-16.27688,222.01025v7.16969h-2.28485v-7.16969z" fill="#e68616"/><path d="M-16.27879,226.99629v2.28104h-2.34621v-2.28104z" fill="url(#color-25)"/><path d="M-18.62498,223.9984v-2.02035h2.34621v2.02035z" data-paper-data="{&quot;index&quot;:null}" fill="url(#color-26)"/></g><g data-paper-data="{&quot;index&quot;:null}"><path d="M-16.27688,213.29456v7.16969h-2.28485v-7.16969z" fill="#b1232f"/><path d="M-16.27879,218.28063v2.28104h-2.34621v-2.28104z" fill="url(#color-27)"/><path d="M-18.62498,215.28271v-2.02035h2.34621v2.02035z" data-paper-data="{&quot;index&quot;:null}" fill="url(#color-28)"/></g><g data-paper-data="{&quot;index&quot;:null}"><path d="M-16.27688,204.24997v7.16969h-2.28485v-7.16969z" fill="#e4e3df"/><path d="M-16.27879,209.23605v2.28104h-2.34621v-2.28104z" fill="url(#color-29)"/><path d="M-18.62498,206.23813v-2.02035h2.34621v2.02035z" data-paper-data="{&quot;index&quot;:null}" fill="url(#color-30)"/></g><path d="M629.07066,129.67575c5.14521,7.23516 5.51158,21.00227 5.51158,21.00227l-2.95571,-0.0307l-78.81924,-19.56805c0,0 -0.21185,-8.40849 -0.19407,-10.82402c0.01646,-2.2376 1.40355,-2.8223 2.64562,-2.89709c3.10461,-0.18693 53.61275,-0.29969 53.61275,-0.29969c0,0 11.03256,-0.27259 20.19909,12.61729z" data-paper-data="{&quot;index&quot;:null}" fill="url(#color-31)"/><path d="M613.16018,122.66735c-0.25285,-1.09187 -0.18048,-2.94276 0.10533,-3.35106c0.33676,-0.48109 9.39453,2.09389 14.67771,10.97209c3.91331,6.57616 5.01991,19.22175 3.90307,19.26869c-1.36371,0.05731 -5.06792,-9.57638 -8.42997,-14.41443c-2.73732,-3.93909 -10.01247,-11.42317 -10.25612,-12.47526z" data-paper-data="{&quot;index&quot;:null}" fill="url(#color-32)"/><path d="M619.1306,122.17014c0,0 7.82732,7.3862 9.41659,10.99971c2.00099,4.54964 2.70526,10.87841 2.22329,10.88325c-0.946,0.00948 -2.22046,-5.81439 -4.80907,-10.30258c-2.78949,-4.83647 -11.88143,-12.09145 -11.88143,-12.09145z" data-paper-data="{&quot;index&quot;:null}" fill="url(#color-33)"/><path d="M626.18021,129.35125v1.54684h-6.07682v-1.54684z" data-paper-data="{&quot;index&quot;:null}" fill="url(#color-34)"/><path d="M623.30752,127.03103v1.54683h-4.86146v-1.54683z" data-paper-data="{&quot;index&quot;:null}" fill="url(#color-35)"/><path d="M620.65581,124.15835v1.98879h-4.75098v-1.98879z" data-paper-data="{&quot;index&quot;:null}" fill="url(#color-36)"/><path d="M619.97768,126.22135c0,0 8.15876,8.71205 9.08511,14.7563c2.00099,4.54962 0.33429,1.31229 -2.25432,-3.1759c-2.78949,-4.83645 -11.88141,-12.09145 -11.88141,-12.09145z" data-paper-data="{&quot;index&quot;:null}" fill="url(#color-37)"/><path d="M625.79892,130.42582v1.54683h-4.94995l-1.12687,-1.54683z" data-paper-data="{&quot;index&quot;:null}" fill="url(#color-38)"/><path d="M623.55018,128.9375v1.54683h-3.73459l-1.35226,-1.43414z" data-paper-data="{&quot;index&quot;:null}" fill="url(#color-39)"/><path d="M621.52239,127.00069v1.98879l-3.17334,0.11269l-1.69032,-2.10145z" data-paper-data="{&quot;index&quot;:null}" fill="url(#color-40)"/><path d="M574.41919,156.23231v-0.50883l57.67723,9.2936v1.0476z" fill="#d39a2f"/><path d="M631.72096,193.43969v1.04758l-57.67723,9.2936v-0.50883z" data-paper-data="{&quot;index&quot;:null}" fill="#d39a2f"/><path d="M634.43022,208.58852v-58.809h1.64995v58.809z" fill="#8b8b8e"/><path d="M591.85633,224.39007c9.39156,-1.45073 17.43994,0.18913 17.9765,3.66272c0.53658,3.47359 -6.64182,7.46555 -16.0334,8.91628c-9.39156,1.45073 -17.43994,-0.18913 -17.9765,-3.66272c-0.53658,-3.47359 6.64182,-7.46555 16.0334,-8.91628z" fill="url(#color-41)"/><path d="M575.82292,126.8799c0.53656,-3.47359 8.58492,-5.11346 17.9765,-3.66272c9.39158,1.45073 16.56997,5.44267 16.0334,8.91628c-0.53656,3.47361 -8.58492,5.11346 -17.9765,3.66272c-9.39158,-1.45073 -16.56997,-5.44267 -16.0334,-8.91628z" data-paper-data="{&quot;index&quot;:null}" fill="url(#color-42)"/><path d="M632.31031,199.87343l0.00172,8.81851l-79.55971,19.41235l-0.00172,-7.88349z" data-paper-data="{&quot;index&quot;:null}" fill="url(#color-43)"/><path d="M632.07319,208.54927v-58.809h2.59278v58.809z" fill="url(#color-44)"/><path d="M552.7506,139.03159l0.00172,-7.88349l79.55971,19.41235l-0.00172,8.81853z" data-paper-data="{&quot;index&quot;:null}" fill="url(#color-45)"/><path d="M574.50263,155.77341v-0.50883l57.67723,8.79298v1.0476z" fill="#e7ac35"/><path d="M632.17986,194.39223v1.0476l-57.67723,8.79298v-0.50883z" data-paper-data="{&quot;index&quot;:null}" fill="#e7ac35"/><path d="M593.77775,150.229c12.22269,2.80337 21.85841,6.26495 21.52201,7.73168c-0.3364,1.46672 -10.51755,0.38317 -22.74022,-2.42021c-12.22269,-2.80337 -21.85841,-6.26495 -21.52201,-7.73168c0.3364,-1.46672 10.51755,-0.38317 22.74022,2.42021z" fill="url(#color-46)"/><path d="M571.98898,212.28152c-0.3364,-1.46672 9.29934,-4.92832 21.52201,-7.73168c12.22267,-2.80335 22.40382,-3.88693 22.74022,-2.42021c0.3364,1.46672 -9.29932,4.92832 -21.52199,7.73168c-12.22267,2.80335 -22.40384,3.88693 -22.74024,2.42021z" data-paper-data="{&quot;index&quot;:null}" fill="url(#color-47)"/><path d="M-122.18803,361.63479v-360.53868h917.05823v360.53869h-258.97871z" fill="none"/></g></g></svg>