<svg version="1.1" xmlns="http://www.w3.org/2000/svg" xmlns:xlink="http://www.w3.org/1999/xlink" width="877.97602" height="657.26933" viewBox="0,0,877.97602,657.26933"><g transform="translate(198.5,144)"><g data-paper-data="{&quot;isPaintingLayer&quot;:true}" fill-rule="nonzero" stroke-linejoin="miter" stroke-miterlimit="10" stroke-dasharray="" stroke-dashoffset="0" style="mix-blend-mode: normal"><path d="M-198.5,513.26933v-657.26933h877.97602v657.26933z" fill="none" stroke="none" stroke-width="0" stroke-linecap="butt"/><path d="" data-paper-data="{&quot;index&quot;:null}" fill="#9a9a9a" stroke="none" stroke-width="0" stroke-linecap="butt"/><path d="" data-paper-data="{&quot;index&quot;:null}" fill="none" stroke="#909090" stroke-width="7.5" stroke-linecap="round"/><path d="" data-paper-data="{&quot;index&quot;:null}" fill="none" stroke="#bcbcbc" stroke-width="30.5" stroke-linecap="round"/><path d="" data-paper-data="{&quot;index&quot;:null}" fill="none" stroke="#909090" stroke-width="7.5" stroke-linecap="round"/><path d="" data-paper-data="{&quot;index&quot;:null}" fill="none" stroke="#bcbcbc" stroke-width="30.5" stroke-linecap="round"/><path d="" fill="none" stroke="#909090" stroke-width="7.5" stroke-linecap="round"/><path d="" fill="none" stroke="#bcbcbc" stroke-width="30.5" stroke-linecap="round"/><path d="M-198.5,513.26933v-657.26933h877.97602v657.26933z" fill="none" stroke="none" stroke-width="0" stroke-linecap="butt"/><path d="" data-paper-data="{&quot;index&quot;:null}" fill="none" stroke="#909090" stroke-width="7.5" stroke-linecap="round"/><path d="" data-paper-data="{&quot;index&quot;:null}" fill="none" stroke="#bcbcbc" stroke-width="30.5" stroke-linecap="round"/><path d="" data-paper-data="{&quot;index&quot;:null}" fill="none" stroke="#909090" stroke-width="7.5" stroke-linecap="round"/><path d="" data-paper-data="{&quot;index&quot;:null}" fill="none" stroke="#bcbcbc" stroke-width="30.5" stroke-linecap="round"/><path d="M39.12273,355.08736v-350.17472h401.62333v350.17473z" fill="#9a9a9a" stroke="none" stroke-width="0" stroke-linecap="butt"/><path d="M41.59569,31.48126h396.43544" fill="none" stroke="#909090" stroke-width="7.5" stroke-linecap="round"/><path d="M440.87728,328.8146h-399.1662" fill="none" stroke="#909090" stroke-width="7.5" stroke-linecap="round"/><path d="M439.44538,347.05635h-396.45769" fill="none" stroke="#bcbcbc" stroke-width="30.5" stroke-linecap="round"/><path d="M438.47415,12.46925h-395.07797" fill="none" stroke="#bcbcbc" stroke-width="30.5" stroke-linecap="round"/><path d="M383.02754,325.42426v-290h42.5781v290z" fill="#ffffff" stroke="none" stroke-width="NaN" stroke-linecap="butt"/><path d="M404.64923,35.26982h21.512v24.19143h-21.512z" fill="#383838" stroke="none" stroke-width="0" stroke-linecap="butt"/><path d="M382.88302,59.53194h21.512v24.19143h-21.512z" fill="#383838" stroke="none" stroke-width="0" stroke-linecap="butt"/><path d="M404.54746,83.61256h21.51203v24.19143h-21.51203z" fill="#383838" stroke="none" stroke-width="0" stroke-linecap="butt"/><path d="M382.78126,107.87467h21.512v24.19143h-21.512z" fill="#383838" stroke="none" stroke-width="0" stroke-linecap="butt"/><path d="M404.54746,131.98628h21.51203v24.19143h-21.51203z" fill="#383838" stroke="none" stroke-width="0" stroke-linecap="butt"/><path d="M382.78126,156.24839h21.512v24.19143h-21.512z" fill="#383838" stroke="none" stroke-width="0" stroke-linecap="butt"/><g fill="#383838" stroke="none" stroke-width="0" stroke-linecap="butt"><path d="M404.38595,180.20037h21.51201v24.19143h-21.51201z"/><path d="M382.61974,204.46249h21.512v24.19143h-21.512z"/><path d="M404.28418,228.5431h21.51203v24.19143h-21.51203z"/><path d="M382.51798,252.80522h21.51201v24.19143h-21.51201z"/><path d="M404.28418,276.91683h21.51203v24.19143h-21.51203z"/><path d="M382.51798,301.17894h21.51201v24.19143h-21.51201z"/></g><path d="M355.96911,141.64336v-69.23076h9.80769v69.23076z" fill="#ffffff" stroke="none" stroke-width="0" stroke-linecap="butt"/><path d="M365.73224,82.17573h-27.15759v-9.80769h27.15759z" fill="#ffffff" stroke="none" stroke-width="0" stroke-linecap="butt"/><path d="M365.24444,141.68792h-27.15759v-9.80769h27.15759z" fill="#ffffff" stroke="none" stroke-width="0" stroke-linecap="butt"/><path d="M249.96911,141.64336v-69.23076h9.80769v69.23076z" fill="#ffffff" stroke="none" stroke-width="0" stroke-linecap="butt"/><path d="M259.73224,82.17573h-27.15759v-9.80769h27.15759z" fill="#ffffff" stroke="none" stroke-width="0" stroke-linecap="butt"/><path d="M259.24444,141.68792h-27.15759v-9.80769h27.15759z" fill="#ffffff" stroke="none" stroke-width="0" stroke-linecap="butt"/><path d="M133.96911,141.64336v-69.23076h9.80769v69.23076z" fill="#ffffff" stroke="none" stroke-width="0" stroke-linecap="butt"/><path d="M143.73224,82.17573h-27.15759v-9.80769h27.15759z" fill="#ffffff" stroke="none" stroke-width="0" stroke-linecap="butt"/><path d="M143.24444,141.68792h-27.15759v-9.80769h27.15759z" fill="#ffffff" stroke="none" stroke-width="0" stroke-linecap="butt"/><path d="M328.96911,287.64336v-69.23076h9.80769v69.23076z" fill="#ffffff" stroke="none" stroke-width="0" stroke-linecap="butt"/><path d="M338.73224,228.17573h-27.15759v-9.80769h27.15759z" fill="#ffffff" stroke="none" stroke-width="0" stroke-linecap="butt"/><path d="M338.24444,287.68792h-27.15759v-9.80769h27.15759z" fill="#ffffff" stroke="none" stroke-width="0" stroke-linecap="butt"/><path d="M222.96911,287.64336v-69.23076h9.80769v69.23076z" fill="#ffffff" stroke="none" stroke-width="0" stroke-linecap="butt"/><path d="M232.73224,228.17573h-27.15759v-9.80769h27.15759z" fill="#ffffff" stroke="none" stroke-width="0" stroke-linecap="butt"/><path d="M232.24444,287.68792h-27.15759v-9.80769h27.15759z" fill="#ffffff" stroke="none" stroke-width="0" stroke-linecap="butt"/><path d="M106.96911,287.64336v-69.23076h9.80769v69.23076z" fill="#ffffff" stroke="none" stroke-width="0" stroke-linecap="butt"/><path d="M116.73224,228.17573h-27.15759v-9.80769h27.15759z" fill="#ffffff" stroke="none" stroke-width="0" stroke-linecap="butt"/><path d="M116.24444,287.68792h-27.15759v-9.80769h27.15759z" fill="#ffffff" stroke="none" stroke-width="0" stroke-linecap="butt"/></g></g></svg>