<svg version="1.1" xmlns="http://www.w3.org/2000/svg" xmlns:xlink="http://www.w3.org/1999/xlink" width="484.97563" height="360.53869" viewBox="0,0,484.97563,360.53869"><defs><linearGradient x1="226.75073" y1="177.62633" x2="226.75073" y2="163.46008" gradientUnits="userSpaceOnUse" id="color-1"><stop offset="0" stop-color="#f56262"/><stop offset="1" stop-color="#f56262" stop-opacity="0"/></linearGradient><linearGradient x1="225.79146" y1="183.06276" x2="225.79146" y2="197.22901" gradientUnits="userSpaceOnUse" id="color-2"><stop offset="0" stop-color="#f56262"/><stop offset="1" stop-color="#f56262" stop-opacity="0"/></linearGradient><linearGradient x1="227.84201" y1="210.89449" x2="227.84201" y2="183.00468" gradientUnits="userSpaceOnUse" id="color-3"><stop offset="0" stop-color="#bc1c1c"/><stop offset="1" stop-color="#bc1c1c" stop-opacity="0"/></linearGradient><radialGradient cx="327.40445" cy="179.02965" r="218.17463" gradientUnits="userSpaceOnUse" id="color-4"><stop offset="0" stop-color="#fcaeae"/><stop offset="1" stop-color="#fcaeae" stop-opacity="0"/></radialGradient><radialGradient cx="239.36229" cy="176.10852" r="137.83536" gradientUnits="userSpaceOnUse" id="color-5"><stop offset="0" stop-color="#fcaeae"/><stop offset="1" stop-color="#fcaeae" stop-opacity="0"/></radialGradient><linearGradient x1="227.49046" y1="150.63423" x2="227.49046" y2="178.52403" gradientUnits="userSpaceOnUse" id="color-6"><stop offset="0" stop-color="#bc1c1c"/><stop offset="1" stop-color="#bc1c1c" stop-opacity="0"/></linearGradient><radialGradient cx="201.46529" cy="180.92559" r="26.09459" gradientUnits="userSpaceOnUse" id="color-7"><stop offset="0" stop-color="#ff2626"/><stop offset="1" stop-color="#550c0c"/></radialGradient><linearGradient x1="316.09127" y1="180.46496" x2="313.17707" y2="180.46496" gradientUnits="userSpaceOnUse" id="color-8"><stop offset="0" stop-color="#7c1313" stop-opacity="0"/><stop offset="1" stop-color="#7c1313"/></linearGradient><linearGradient x1="282.27266" y1="171.47108" x2="282.27266" y2="174.38529" gradientUnits="userSpaceOnUse" id="color-9"><stop offset="0" stop-color="#d32020" stop-opacity="0"/><stop offset="1" stop-color="#d32020"/></linearGradient><linearGradient x1="156.8427" y1="209.31177" x2="169.60127" y2="209.31177" gradientUnits="userSpaceOnUse" id="color-10"><stop offset="0" stop-color="#c7c7c7"/><stop offset="1" stop-color="#d4d4d4"/></linearGradient><linearGradient x1="154.76104" y1="214.11303" x2="178.26368" y2="214.11303" gradientUnits="userSpaceOnUse" id="color-11"><stop offset="0" stop-color="#7c7c7c"/><stop offset="1" stop-color="#9e9e9e"/></linearGradient><linearGradient x1="150.68507" y1="216.47458" x2="182.47156" y2="216.47458" gradientUnits="userSpaceOnUse" id="color-12"><stop offset="0" stop-color="#909090"/><stop offset="1" stop-color="#bababa"/></linearGradient><linearGradient x1="250.5644" y1="180.57702" x2="314.49132" y2="180.57702" gradientUnits="userSpaceOnUse" id="color-13"><stop offset="0" stop-color="#f24646"/><stop offset="1" stop-color="#de4040"/></linearGradient><linearGradient x1="282.47922" y1="190.02637" x2="282.47922" y2="187.11217" gradientUnits="userSpaceOnUse" id="color-14"><stop offset="0" stop-color="#d32020" stop-opacity="0"/><stop offset="1" stop-color="#d32020"/></linearGradient><radialGradient cx="235.27937" cy="164.08741" r="4.36415" gradientUnits="userSpaceOnUse" id="color-15"><stop offset="0" stop-color="#b91c1c"/><stop offset="1" stop-color="#b91c1c" stop-opacity="0"/></radialGradient><radialGradient cx="239.486" cy="164.68042" r="5.14247" gradientUnits="userSpaceOnUse" id="color-16"><stop offset="0" stop-color="#b91c1c"/><stop offset="1" stop-color="#b91c1c" stop-opacity="0"/></radialGradient><radialGradient cx="243.60924" cy="165.33549" r="5.33706" gradientUnits="userSpaceOnUse" id="color-17"><stop offset="0" stop-color="#b91c1c"/><stop offset="1" stop-color="#b91c1c" stop-opacity="0"/></radialGradient><linearGradient x1="248.0174" y1="165.46687" x2="246.30426" y2="165.46687" gradientUnits="userSpaceOnUse" id="color-18"><stop offset="0" stop-color="#7c1313" stop-opacity="0"/><stop offset="1" stop-color="#7c1313"/></linearGradient><linearGradient x1="232.60784" y1="165.53723" x2="247.07686" y2="165.53723" gradientUnits="userSpaceOnUse" id="color-19"><stop offset="0" stop-color="#a41919"/><stop offset="1" stop-color="#f22424"/></linearGradient><radialGradient cx="235.5392" cy="197.30096" r="4.36416" gradientUnits="userSpaceOnUse" id="color-20"><stop offset="0" stop-color="#b91c1c"/><stop offset="1" stop-color="#b91c1c" stop-opacity="0"/></radialGradient><radialGradient cx="239.74584" cy="196.70796" r="5.14247" gradientUnits="userSpaceOnUse" id="color-21"><stop offset="0" stop-color="#b91c1c"/><stop offset="1" stop-color="#b91c1c" stop-opacity="0"/></radialGradient><radialGradient cx="243.86908" cy="196.14275" r="5.33705" gradientUnits="userSpaceOnUse" id="color-22"><stop offset="0" stop-color="#b91c1c"/><stop offset="1" stop-color="#b91c1c" stop-opacity="0"/></radialGradient><linearGradient x1="248.27723" y1="195.92151" x2="246.5641" y2="195.92151" gradientUnits="userSpaceOnUse" id="color-23"><stop offset="0" stop-color="#7c1313" stop-opacity="0"/><stop offset="1" stop-color="#7c1313"/></linearGradient><linearGradient x1="232.79296" y1="195.85113" x2="247.26199" y2="195.85113" gradientUnits="userSpaceOnUse" id="color-24"><stop offset="0" stop-color="#a41919"/><stop offset="1" stop-color="#f22424"/></linearGradient><linearGradient x1="214.78516" y1="176.80685" x2="216.48603" y2="175.92366" gradientUnits="userSpaceOnUse" id="color-25"><stop offset="0" stop-color="#939393"/><stop offset="1" stop-color="#ebebeb"/></linearGradient><linearGradient x1="221.92695" y1="179.22369" x2="221.92695" y2="181.92456" gradientUnits="userSpaceOnUse" id="color-26"><stop offset="0" stop-color="#7b7b7b"/><stop offset="1" stop-color="#bdbdbd"/></linearGradient><linearGradient x1="216.94635" y1="184.34946" x2="215.38665" y2="183.47777" gradientUnits="userSpaceOnUse" id="color-27"><stop offset="0" stop-color="#939393"/><stop offset="1" stop-color="#ebebeb"/></linearGradient><linearGradient x1="212.39373" y1="180.68943" x2="220.87415" y2="180.68943" gradientUnits="userSpaceOnUse" id="color-28"><stop offset="0" stop-color="#7e4122"/><stop offset="1" stop-color="#bb6133"/></linearGradient><linearGradient x1="227.66715" y1="179.4437" x2="236.39912" y2="179.4437" gradientUnits="userSpaceOnUse" id="color-29"><stop offset="0" stop-color="#dff8ff"/><stop offset="1" stop-color="#dff8ff" stop-opacity="0"/></linearGradient><linearGradient x1="223.39321" y1="159.12116" x2="228.24902" y2="159.12116" gradientUnits="userSpaceOnUse" id="color-30"><stop offset="0" stop-color="#d32020"/><stop offset="1" stop-color="#a41919"/></linearGradient><linearGradient x1="225.24578" y1="179.39967" x2="233.97774" y2="179.39967" gradientUnits="userSpaceOnUse" id="color-31"><stop offset="0" stop-color="#dff8ff"/><stop offset="1" stop-color="#dff8ff" stop-opacity="0"/></linearGradient><linearGradient x1="224.92467" y1="159.12507" x2="223.4833" y2="159.12507" gradientUnits="userSpaceOnUse" id="color-32"><stop offset="0" stop-color="#96a8ad"/><stop offset="1" stop-color="#96a8ad" stop-opacity="0"/></linearGradient><linearGradient x1="223.21415" y1="202.3884" x2="228.06996" y2="202.3884" gradientUnits="userSpaceOnUse" id="color-33"><stop offset="0" stop-color="#d32020"/><stop offset="1" stop-color="#a41919"/></linearGradient><linearGradient x1="224.74559" y1="202.3923" x2="223.30423" y2="202.3923" gradientUnits="userSpaceOnUse" id="color-34"><stop offset="0" stop-color="#96a8ad"/><stop offset="1" stop-color="#96a8ad" stop-opacity="0"/></linearGradient><linearGradient x1="156.8427" y1="151.46309" x2="169.60127" y2="151.46309" gradientUnits="userSpaceOnUse" id="color-35"><stop offset="0" stop-color="#c7c7c7"/><stop offset="1" stop-color="#d4d4d4"/></linearGradient><radialGradient cx="198.50606" cy="178.2835" r="12.17318" gradientUnits="userSpaceOnUse" id="color-36"><stop offset="0" stop-color="#ff1018"/><stop offset="1" stop-color="#ce1f1f"/></radialGradient><linearGradient x1="154.76103" y1="146.66184" x2="178.26367" y2="146.66184" gradientUnits="userSpaceOnUse" id="color-37"><stop offset="0" stop-color="#7c7c7c"/><stop offset="1" stop-color="#9e9e9e"/></linearGradient><linearGradient x1="150.68507" y1="144.30028" x2="182.47155" y2="144.30028" gradientUnits="userSpaceOnUse" id="color-38"><stop offset="0" stop-color="#909090"/><stop offset="1" stop-color="#bababa"/></linearGradient><linearGradient x1="321.06788" y1="148.34019" x2="323.74645" y2="148.49838" gradientUnits="userSpaceOnUse" id="color-39"><stop offset="0" stop-color="#c7c7c7"/><stop offset="1" stop-color="#d4d4d4"/></linearGradient><linearGradient x1="314.02807" y1="142.82084" x2="334.79224" y2="142.82084" gradientUnits="userSpaceOnUse" id="color-40"><stop offset="0" stop-color="#7c7c7c"/><stop offset="1" stop-color="#9e9e9e"/></linearGradient><linearGradient x1="310.42702" y1="141.01993" x2="338.50983" y2="141.01993" gradientUnits="userSpaceOnUse" id="color-41"><stop offset="0" stop-color="#909090"/><stop offset="1" stop-color="#bababa"/></linearGradient><linearGradient x1="322.382" y1="145.09702" x2="341.71133" y2="145.09702" gradientUnits="userSpaceOnUse" id="color-42"><stop offset="0" stop-color="#c7c7c7"/><stop offset="1" stop-color="#d4d4d4"/></linearGradient><linearGradient x1="328.72761" y1="148.46362" x2="325.89937" y2="148.77618" gradientUnits="userSpaceOnUse" id="color-43"><stop offset="0" stop-color="#c7c7c7"/><stop offset="1" stop-color="#d4d4d4"/></linearGradient><linearGradient x1="339.11588" y1="150.35624" x2="340.89172" y2="150.35624" gradientUnits="userSpaceOnUse" id="color-44"><stop offset="0" stop-color="#c7c7c7"/><stop offset="1" stop-color="#d4d4d4"/></linearGradient><linearGradient x1="321.06788" y1="213.06676" x2="323.74645" y2="212.90857" gradientUnits="userSpaceOnUse" id="color-45"><stop offset="0" stop-color="#c7c7c7"/><stop offset="1" stop-color="#d4d4d4"/></linearGradient><linearGradient x1="314.02807" y1="218.5861" x2="334.79224" y2="218.5861" gradientUnits="userSpaceOnUse" id="color-46"><stop offset="0" stop-color="#7c7c7c"/><stop offset="1" stop-color="#9e9e9e"/></linearGradient><linearGradient x1="310.42702" y1="220.38702" x2="338.50983" y2="220.38702" gradientUnits="userSpaceOnUse" id="color-47"><stop offset="0" stop-color="#909090"/><stop offset="1" stop-color="#bababa"/></linearGradient><linearGradient x1="322.382" y1="216.30991" x2="341.71133" y2="216.30991" gradientUnits="userSpaceOnUse" id="color-48"><stop offset="0" stop-color="#c7c7c7"/><stop offset="1" stop-color="#d4d4d4"/></linearGradient><linearGradient x1="328.72761" y1="212.94332" x2="325.89937" y2="212.63076" gradientUnits="userSpaceOnUse" id="color-49"><stop offset="0" stop-color="#c7c7c7"/><stop offset="1" stop-color="#d4d4d4"/></linearGradient><linearGradient x1="339.11588" y1="211.0507" x2="340.89172" y2="211.0507" gradientUnits="userSpaceOnUse" id="color-50"><stop offset="0" stop-color="#c7c7c7"/><stop offset="1" stop-color="#d4d4d4"/></linearGradient><linearGradient x1="356.48733" y1="181.37534" x2="357.87471" y2="181.37534" gradientUnits="userSpaceOnUse" id="color-51"><stop offset="0" stop-color="#c7c7c7"/><stop offset="1" stop-color="#d4d4d4"/></linearGradient><linearGradient x1="356.20331" y1="181.75058" x2="356.58683" y2="181.75058" gradientUnits="userSpaceOnUse" id="color-52"><stop offset="0" stop-color="#c7c7c7"/><stop offset="1" stop-color="#d4d4d4"/></linearGradient><linearGradient x1="356.92773" y1="181.70796" x2="357.31124" y2="181.70796" gradientUnits="userSpaceOnUse" id="color-53"><stop offset="0" stop-color="#c7c7c7"/><stop offset="1" stop-color="#d4d4d4"/></linearGradient><linearGradient x1="357.77997" y1="182.24062" x2="358.16349" y2="182.24062" gradientUnits="userSpaceOnUse" id="color-54"><stop offset="0" stop-color="#c7c7c7"/><stop offset="1" stop-color="#d4d4d4"/></linearGradient><linearGradient x1="358.5683" y1="182.26192" x2="358.95181" y2="182.26192" gradientUnits="userSpaceOnUse" id="color-55"><stop offset="0" stop-color="#c7c7c7"/><stop offset="1" stop-color="#d4d4d4"/></linearGradient><radialGradient cx="279.70288" cy="175.16065" r="28.84602" gradientUnits="userSpaceOnUse" id="color-56"><stop offset="0" stop-color="#fc6969"/><stop offset="1" stop-color="#fc6969" stop-opacity="0"/></radialGradient><radialGradient cx="280.81847" cy="186.31657" r="28.84602" gradientUnits="userSpaceOnUse" id="color-57"><stop offset="0" stop-color="#fc6969"/><stop offset="1" stop-color="#fc6969" stop-opacity="0"/></radialGradient><linearGradient x1="242.3502" y1="180.7049" x2="251.41438" y2="180.7049" gradientUnits="userSpaceOnUse" id="color-58"><stop offset="0" stop-color="#f22424" stop-opacity="0"/><stop offset="1" stop-color="#f22424"/></linearGradient><linearGradient x1="149.55116" y1="191.43857" x2="149.55116" y2="198.98158" gradientUnits="userSpaceOnUse" id="color-59"><stop offset="0" stop-color="#898989" stop-opacity="0"/><stop offset="1" stop-color="#898989"/></linearGradient><linearGradient x1="164.90795" y1="192.59904" x2="164.90795" y2="201.14779" gradientUnits="userSpaceOnUse" id="color-60"><stop offset="0" stop-color="#898989" stop-opacity="0"/><stop offset="1" stop-color="#898989"/></linearGradient><linearGradient x1="163.2274" y1="164.78309" x2="161.39869" y2="157.46511" gradientUnits="userSpaceOnUse" id="color-61"><stop offset="0" stop-color="#898989" stop-opacity="0"/><stop offset="1" stop-color="#898989"/></linearGradient><linearGradient x1="148.0474" y1="167.38031" x2="145.97487" y2="159.0866" gradientUnits="userSpaceOnUse" id="color-62"><stop offset="0" stop-color="#898989" stop-opacity="0"/><stop offset="1" stop-color="#898989"/></linearGradient></defs><g transform="translate(2.63138,-1.09611)"><g data-paper-data="{&quot;isPaintingLayer&quot;:true}" fill-rule="nonzero" stroke-linecap="butt" stroke-linejoin="miter" stroke-miterlimit="10" stroke-dasharray="" stroke-dashoffset="0" style="mix-blend-mode: normal"><path d="M208.22451,149.80882l2.17323,-0.90249l85.17858,1.30394c0,0 2.0695,1.01845 2.6487,1.66147c0.4937,0.5481 0.61114,1.95757 0.61114,1.95757l-137.69012,4.94192c0,0 -35.78294,-0.0789 -36.0756,-0.09686c-0.22916,-0.01406 -0.63696,-0.63705 -0.28751,-0.92153c1.22313,-0.9957 5.71906,-3.27776 5.71906,-3.27776l43.01813,0.37029c0,0 37.07487,-2.5014 36.7389,-2.51291c-0.30148,-0.01033 -9.95667,0.01943 -21.62376,0.0469c-17.65468,0.04157 -39.91619,0.07788 -41.34587,-0.03796c-3.26271,0.44392 3.85613,-3.61347 3.85613,-3.61347z" fill="#303030" stroke="none" stroke-width="0"/><path d="M151.14553,213.03679c0,0 -7.11884,-4.05739 -3.85613,-3.61347c1.42968,-0.11584 23.69119,-0.07952 41.34588,-0.03796c11.66709,0.02747 21.32228,0.05723 21.62376,0.0469c0.33597,-0.01152 -36.7389,-2.51291 -36.7389,-2.51291l-43.01813,0.3703c0,0 -4.49594,-2.28206 -5.71906,-3.27776c-0.34945,-0.28447 0.05834,-0.90747 0.28751,-0.92153c0.29266,-0.01796 36.0756,-0.09685 36.0756,-0.09685l137.69013,4.94191c0,0 -0.11745,1.40947 -0.61115,1.95757c-0.5792,0.64302 -2.6487,1.66146 -2.6487,1.66146l-85.17858,1.30394l-2.17323,-0.9025z" data-paper-data="{&quot;index&quot;:null}" fill="#303030" stroke="none" stroke-width="0"/><path d="M94.18102,180.78814c0.39426,-7.36655 28.63201,-18.72899 59.36183,-24.63743c21.4842,-4.13078 45.59483,-4.28796 56.276,-4.10692c8.24316,0.13971 83.40513,0.34383 110.61443,1.77902c23.47871,1.23843 29.75824,3.94209 29.75824,3.94209c0,0 8.23478,5.06278 9.12894,15.55524c3.17608,37.26891 -13.86931,33.39695 -22.74303,34.2507c-21.64443,2.08244 -125.706,1.75037 -125.706,1.75037c0,0 -16.74728,-0.25231 -24.65262,-0.75477c-3.40297,-0.21629 -23.29093,-1.07041 -43.21709,-5.89299c-24.3366,-5.89 -49.1172,-16.34511 -48.82069,-21.88531z" fill="#f42525" stroke="none" stroke-width="0"/><path d="M95.90643,183.75502c0,0 -1.64866,-1.87515 -1.64866,-2.96775c0,-1.99096 1.64866,-3.82455 1.64866,-3.82455l260.10942,0.20609v6.58622z" fill="#f56262" stroke="none" stroke-width="0"/><path d="M107.75208,169.70651c4.60831,-2.2804 17.14186,-6.24643 17.14186,-6.24643c0,0 8.93859,-3.98425 15.93703,-3.98425c28.67733,0 216.40416,3.98425 216.40416,3.98425v14.16625l-261.85419,-0.22135c0,0 7.45663,-5.26654 12.37115,-7.69847z" data-paper-data="{&quot;index&quot;:null}" fill="url(#color-1)" stroke="none" stroke-width="NaN"/><path d="M95.03992,183.28411l261.23595,-0.22135v14.16625c0,0 -187.72682,3.98425 -216.40415,3.98425c-6.99844,0 -15.93703,-3.98425 -15.93703,-3.98425c0,0 -12.32748,-4.79036 -16.93578,-7.07076c-4.91452,-2.43193 -11.95898,-6.87414 -11.95898,-6.87414z" fill="url(#color-2)" stroke="none" stroke-width="NaN"/><path d="M256.44054,200.38104v6.90776h-1.51107v-6.90776z" data-paper-data="{&quot;index&quot;:null}" fill="#a41919" stroke="none" stroke-width="0"/><path d="M260.33892,200.3437v6.90776h-1.51108v-6.90776z" data-paper-data="{&quot;index&quot;:null}" fill="#a41919" stroke="none" stroke-width="0"/><path d="M264.92833,200.30483v6.90776h-1.51107v-6.90776z" data-paper-data="{&quot;index&quot;:null}" fill="#a41919" stroke="none" stroke-width="0"/><path d="M268.82671,200.35303v6.90776h-1.51107v-6.90776z" data-paper-data="{&quot;index&quot;:null}" fill="#a41919" stroke="none" stroke-width="0"/><path d="M273.8396,200.27397v6.90776h-1.51107v-6.90776z" data-paper-data="{&quot;index&quot;:null}" fill="#a41919" stroke="none" stroke-width="0"/><path d="M277.73798,200.23663v6.90776h-1.51108v-6.90776z" data-paper-data="{&quot;index&quot;:null}" fill="#a41919" stroke="none" stroke-width="0"/><path d="M282.32739,200.05007v6.90775h-1.51107v-6.90775z" data-paper-data="{&quot;index&quot;:null}" fill="#a41919" stroke="none" stroke-width="0"/><path d="M286.22577,199.92719v6.90776h-1.51107v-6.90776z" data-paper-data="{&quot;index&quot;:null}" fill="#a41919" stroke="none" stroke-width="0"/><path d="M290.88023,199.91456v6.90776h-1.51108v-6.90776z" data-paper-data="{&quot;index&quot;:null}" fill="#a41919" stroke="none" stroke-width="0"/><path d="M294.77859,199.87722v6.90775h-1.51107v-6.90775z" data-paper-data="{&quot;index&quot;:null}" fill="#a41919" stroke="none" stroke-width="0"/><path d="M299.36803,199.9161v6.90775h-1.51107v-6.90775z" data-paper-data="{&quot;index&quot;:null}" fill="#a41919" stroke="none" stroke-width="0"/><path d="M303.26639,199.73106v6.90775h-1.51106v-6.90775z" data-paper-data="{&quot;index&quot;:null}" fill="#a41919" stroke="none" stroke-width="0"/><path d="M308.27929,199.65201v6.90776h-1.51107v-6.90776z" data-paper-data="{&quot;index&quot;:null}" fill="#a41919" stroke="none" stroke-width="0"/><path d="M312.17766,199.38143v6.90776h-1.51107v-6.90776z" data-paper-data="{&quot;index&quot;:null}" fill="#a41919" stroke="none" stroke-width="0"/><path d="M359.22288,183.00468c0,0 1.61652,20.00058 -11.09869,22.99345c-22.16398,5.21689 -95.10812,3.10344 -105.22257,3.10344c-15.6208,0 -44.63226,1.4867 -68.35371,-0.66883c-6.10679,-0.55492 -28.20738,-3.53734 -45.26804,-9.36429c-10.69787,-3.65378 -20.27731,-7.36645 -26.459,-10.74129c-5.26296,-2.87327 -7.95344,-5.7209 -7.95344,-5.7209z" data-paper-data="{&quot;index&quot;:null}" fill="url(#color-3)" stroke="none" stroke-width="0"/><path d="M254.92948,161.19498v-6.90776h1.51107v6.90776z" fill="#a41919" stroke="none" stroke-width="0"/><path d="M258.82783,161.23232v-6.90775h1.51108v6.90775z" fill="#a41919" stroke="none" stroke-width="0"/><path d="M263.41727,161.27119v-6.90775h1.51107v6.90775z" fill="#a41919" stroke="none" stroke-width="0"/><path d="M267.31564,161.22299v-6.90776h1.51107v6.90776z" fill="#a41919" stroke="none" stroke-width="0"/><path d="M272.32853,161.30205v-6.90775h1.51107v6.90775z" fill="#a41919" stroke="none" stroke-width="0"/><path d="M276.2269,161.33939v-6.90775h1.51108v6.90775z" fill="#a41919" stroke="none" stroke-width="0"/><path d="M280.81633,161.52595v-6.90775h1.51106v6.90775z" fill="#a41919" stroke="none" stroke-width="0"/><path d="M284.7147,161.64883v-6.90775h1.51107v6.90775z" fill="#a41919" stroke="none" stroke-width="0"/><path d="M289.36915,161.66146v-6.90775h1.51107v6.90775z" fill="#a41919" stroke="none" stroke-width="0"/><path d="M293.26752,161.6988v-6.90775h1.51108v6.90775z" fill="#a41919" stroke="none" stroke-width="0"/><path d="M297.85696,161.65992v-6.90776h1.51107v6.90776z" fill="#a41919" stroke="none" stroke-width="0"/><path d="M301.75532,161.84496v-6.90775h1.51106v6.90775z" fill="#a41919" stroke="none" stroke-width="0"/><path d="M306.76822,161.92401v-6.90775h1.51107v6.90775z" fill="#a41919" stroke="none" stroke-width="0"/><path d="M310.66658,162.19459v-6.90775h1.51108v6.90775z" fill="#a41919" stroke="none" stroke-width="0"/><path d="M323.28813,205.91572v-50.4293h0.98658v50.42931z" fill="#8d1515" stroke="none" stroke-width="0"/><path d="M324.33852,156.01619c0,0 -69.89164,-1.74884 -73.68094,-1.84365c-0.31676,-0.00792 -0.51485,-0.01289 -0.51485,-0.01289l0.01792,-0.83466l74.19578,1.85653z" fill="#8d1515" stroke="none" stroke-width="0"/><path d="M324.35643,205.99294l-74.19578,1.85653l-0.01792,-1.0054l74.19578,-1.85654z" data-paper-data="{&quot;index&quot;:null}" fill="#8d1515" stroke="none" stroke-width="0"/><path d="M208.23464,181.47115c-59.61211,-0.5202 -99.00482,-1.4194 -99.00482,-2.4415c0,-1.03577 40.45387,-1.94533 101.40832,-2.46218c19.32145,-0.16384 17.19078,5.07466 -2.4035,4.90367z" fill="url(#color-4)" stroke="none" stroke-width="0"/><path d="M220.45812,177.93245c-5.27988,-0.00967 -10.46446,-0.02334 -15.53611,-0.04077c-59.45874,-0.2043 -103.39508,-0.9252 -103.39508,-1.78317c0,-0.86178 44.32776,-1.58529 104.1888,-1.78587c4.43455,-0.01486 8.95436,-0.02685 13.54771,-0.03581c6.56096,-0.0128 7.37492,3.65694 1.19467,3.64562z" fill="url(#color-5)" stroke="none" stroke-width="0"/><path d="M95.36083,177.6997c0,0 9.13852,-8.99168 38.61087,-16.68993c6.61713,-1.72841 13.94607,-3.75023 20.59286,-5.06447c8.85016,-1.74991 16.49096,-2.56391 19.63182,-2.84931c23.72144,-2.15553 52.73289,-0.66883 68.3537,-0.66883c10.11445,0 81.86332,-1.11739 104.02729,4.0995c12.7152,2.99287 12.29397,21.99738 12.29397,21.99738c0,0 -180.05903,-3.02803 -224.49382,-3.02803c-18.68812,0 -39.01669,2.2037 -39.01669,2.2037z" fill="url(#color-6)" stroke="none" stroke-width="0"/><path d="M176.97668,180.57775c0,-11.13639 3.78027,-26.67508 23.17672,-25.70332c11.12245,0.55724 25.80049,15.14998 25.80049,26.28637c0,11.13639 -14.97591,25.12882 -26.09202,25.80049c-19.29926,1.16612 -22.88518,-15.24716 -22.88518,-26.38355z" fill="url(#color-7)" stroke="none" stroke-width="0"/><text transform="translate(346.36515,197.90701) rotate(-90) scale(0.58279,0.53736)" font-size="40" xml:space="preserve" fill="#f7f7f7" fill-rule="nonzero" stroke="#f7f7f7" stroke-width="3" stroke-linecap="butt" stroke-linejoin="miter" stroke-miterlimit="10" stroke-dasharray="" stroke-dashoffset="0" font-family="Sans Serif" font-weight="normal" text-anchor="start" style="mix-blend-mode: normal"><tspan x="0" dy="0">12</tspan></text><path d="M309.18352,174.31275h6.90774v12.30443h-6.90774c0,0 0,-0.31651 0,-0.68299c0,-1.51174 0,-11.62144 0,-11.62144z" data-paper-data="{&quot;index&quot;:null}" fill="url(#color-8)" stroke="none" stroke-width="0"/><path d="M250.21636,174.38529l4.78385,-2.91421h56.84625l2.48247,2.91421z" fill="url(#color-9)" stroke="none" stroke-width="0"/><path d="M169.60127,204.98057v8.6624h-12.75857v-8.6624z" data-paper-data="{&quot;index&quot;:null}" fill="url(#color-10)" stroke="none" stroke-width="0"/><path d="M178.26368,213.24007v1.74591h-23.50263v-1.74591z" data-paper-data="{&quot;index&quot;:null}" fill="url(#color-11)" stroke="none" stroke-width="0"/><path d="M182.47155,214.43868l-2.75833,4.07182l-26.92657,-0.13134l-2.10158,-3.67778z" data-paper-data="{&quot;index&quot;:null}" fill="url(#color-12)" stroke="none" stroke-width="0"/><path d="M193.98707,228.65324c0,0 -3.54669,1.89292 -4.2745,2.23132c-0.27678,0.12869 -45.76294,0.30128 -46.22793,0.15831c-0.64265,-0.05838 -4.51198,-2.23132 -4.51198,-2.23132z" data-paper-data="{&quot;index&quot;:null}" fill="#2e2e2e" stroke="none" stroke-width="0"/><path d="M193.76261,220.05821v8.96458h-54.88838v-8.96458z" data-paper-data="{&quot;index&quot;:null}" fill="#343434" stroke="none" stroke-width="0"/><path d="M138.97266,220.09386c0,0 3.86932,-1.99972 4.51198,-2.0581c0.46499,-0.14297 45.95116,0.02963 46.22794,0.15832c0.72782,0.3384 4.2745,2.0581 4.2745,2.0581z" data-paper-data="{&quot;index&quot;:null}" fill="#2e2e2e" stroke="none" stroke-width="0"/><path d="M250.5644,187.08969v-13.02534h63.92692c0,0 -1.92336,1.51945 -2.69834,3.01927c-0.53967,1.04444 -0.24937,6.37658 0.19009,7.24855c0.62663,1.24339 2.50825,2.75752 2.50825,2.75752z" fill="url(#color-13)" stroke="none" stroke-width="0"/><path d="M314.53552,187.11217l-2.47319,2.91421h-57.56015l-4.07924,-2.91421z" data-paper-data="{&quot;index&quot;:null}" fill="url(#color-14)" stroke="none" stroke-width="0"/><path d="M230.91521,164.08741c0,-2.41025 1.9539,-4.36415 4.36415,-4.36415c2.41025,0 4.36414,1.9539 4.36414,4.36415c0,2.41025 -1.95389,4.36415 -4.36414,4.36415c-2.41025,0 -4.36415,-1.9539 -4.36415,-4.36415z" fill="url(#color-15)" stroke="none" stroke-width="0"/><path d="M234.34353,164.68042c0,-2.8401 2.30237,-5.14247 5.14247,-5.14247c2.8401,0 5.14248,2.30237 5.14248,5.14247c0,2.8401 -2.30237,5.14247 -5.14248,5.14247c-2.8401,0 -5.14247,-2.30237 -5.14247,-5.14247z" fill="url(#color-16)" stroke="none" stroke-width="0"/><path d="M238.27219,165.33549c0,-2.94757 2.38949,-5.33705 5.33706,-5.33705c2.94757,0 5.33705,2.38948 5.33705,5.33705c0,2.94757 -2.38948,5.33706 -5.33705,5.33706c-2.94757,0 -5.33706,-2.38949 -5.33706,-5.33706z" fill="url(#color-17)" stroke="none" stroke-width="0"/><path d="M243.95663,161.60349h4.06077v7.72678h-4.06077c0,0 0,-0.19876 0,-0.4289c0,-0.94932 0,-7.29788 0,-7.29788z" data-paper-data="{&quot;index&quot;:null}" fill="url(#color-18)" stroke="none" stroke-width="0"/><path d="M233.4025,165.90216c0,0 -1.14563,-0.86047 -0.966,-2.08566c0.22015,-1.50149 1.52194,-2.14663 1.52194,-2.14663l13.11842,-0.22237c0,0 -1.13066,0.95416 -1.58624,1.89601c-0.31724,0.65587 -0.14658,4.00428 0.11175,4.55185c0.36836,0.78081 1.47448,1.73163 1.47448,1.73163c0,0 -5.35335,-0.81142 -7.71587,-1.45496c-2.18109,-0.59411 -5.95849,-2.26986 -5.95849,-2.26986z" fill="url(#color-19)" stroke="none" stroke-width="0"/><g data-paper-data="{&quot;index&quot;:null}" stroke="none" stroke-width="0"><path d="M235.5392,192.93681c2.41025,0 4.36416,1.9539 4.36416,4.36415c0,2.41025 -1.95391,4.36415 -4.36416,4.36415c-2.41025,0 -4.36415,-1.9539 -4.36415,-4.36415c0,-2.41025 1.9539,-4.36415 4.36415,-4.36415z" fill="url(#color-20)"/><path d="M239.74584,191.56549c2.8401,0 5.14247,2.30237 5.14247,5.14248c0,2.8401 -2.30236,5.14247 -5.14247,5.14247c-2.8401,0 -5.14248,-2.30237 -5.14248,-5.14247c0,-2.8401 2.30237,-5.14248 5.14248,-5.14248z" fill="url(#color-21)"/><path d="M243.86908,190.8057c2.94757,0 5.33705,2.38948 5.33705,5.33705c0,2.94757 -2.38948,5.33705 -5.33705,5.33705c-2.94757,0 -5.33705,-2.38948 -5.33705,-5.33705c0,-2.94757 2.38948,-5.33705 5.33705,-5.33705z" fill="url(#color-22)"/><path d="M244.21647,192.48702c0,-0.23014 0,-0.4289 0,-0.4289h4.06077v7.72677h-4.06077c0,0 0,-6.34855 0,-7.29787z" data-paper-data="{&quot;index&quot;:null}" fill="url(#color-23)"/><path d="M239.54613,193.21635c2.36251,-0.64353 7.71587,-1.45496 7.71587,-1.45496c0,0 -1.10613,0.95082 -1.47448,1.73163c-0.25833,0.54756 -0.42899,3.89598 -0.11175,4.55185c0.45557,0.94184 1.58624,1.89601 1.58624,1.89601l-13.11842,-0.22237c0,0 -1.21399,0.16123 -1.44723,-2.07192c-0.16694,-1.59833 0.89129,-2.16036 0.89129,-2.16036c0,0 3.7774,-1.67575 5.9585,-2.26987z" fill="url(#color-24)"/></g><path d="M216.16514,179.46446l-2.75997,-5.31524l0.55157,-1.6877l3.90928,6.11975z" fill="url(#color-25)" stroke="none" stroke-width="0"/><path d="M218.19171,181.92456v-2.70087h7.47048v2.70087z" fill="url(#color-26)" stroke="none" stroke-width="0"/><path d="M218.30836,181.91241l-4.16067,6.94286c0,0 -0.96761,-1.38756 -0.82918,-1.60592c0.52059,-0.82117 2.91296,-6.55342 2.91296,-6.55342z" fill="url(#color-27)" stroke="none" stroke-width="0"/><path d="M218.90036,185.71349c0.24941,-2.53937 0.07701,-5.52113 0.14963,-7.63437c0.11482,-3.34101 -0.61517,-6.48111 -1.28902,-8.09545c-0.32478,-0.77805 -0.85709,-1.11345 -0.85709,-1.11345c0,0 -0.2428,-1.66027 -0.02667,-2.21586c0.103,-0.26476 0.62113,0.20991 0.73874,0.3222c0.95588,0.91257 2.54654,4.41475 2.71721,6.55535c0.18427,2.7501 0.83915,8.47062 0.38173,13.06396c-0.34279,3.44227 -1.52678,6.52466 -1.52678,6.52466c0,0 -1.04918,2.39299 -2.46347,1.57501c-2.80697,-1.62347 -4.30098,-6.87103 -4.3305,-13.80726c-0.0249,-5.84966 1.03359,-9.89444 2.34256,-12.11419c0.41299,-0.70036 0.68111,-1.31816 1.05445,-1.6691c0.5367,-0.50449 1.10694,-0.58008 1.08457,-0.59194c-0.02891,-0.01532 0.52732,1.16359 0.12649,2.25853c-0.06679,0.18244 -0.84593,0.41155 -0.95222,0.5793c-0.56486,0.89159 -0.91245,1.61604 -1.51334,3.32664c-0.75347,2.14497 -0.99471,5.64552 -0.95267,8.5485c0.06446,4.45208 1.58006,11.56098 3.50508,11.53275c1.18265,0.27724 1.63715,-5.27227 1.81128,-7.0453z" fill="url(#color-28)" stroke="none" stroke-width="0"/><path d="M215.72071,180.49152c0,-1.33098 0.70753,-2.40995 1.5803,-2.40995c0.87276,0 1.58029,1.07897 1.58029,2.40995c0,1.33098 -0.70753,2.40995 -1.58029,2.40995c-0.87276,0 -1.5803,-1.07897 -1.5803,-2.40995z" fill="#000000" stroke="none" stroke-width="0"/><path d="M229.22147,193.9461c-0.32579,-0.20844 0.69589,-2.1519 0.96543,-2.19969c0.65158,-0.11552 2.18337,-0.06967 2.42226,0.28213c0.46493,0.68469 0.76702,2.17324 0.76702,2.17324c0,0 -3.73619,0.0121 -4.15471,-0.25567z" fill="#7c1313" stroke="none" stroke-width="0"/><path d="M233.03801,166.99056c0,0 -0.30208,1.48854 -0.76702,2.17323c-0.23889,0.3518 -1.77069,0.39765 -2.42226,0.28213c-0.26953,-0.04779 -1.29122,-1.99124 -0.96543,-2.19968c0.41852,-0.26776 4.15471,-0.25567 4.15471,-0.25567z" data-paper-data="{&quot;index&quot;:null}" fill="#7c1313" stroke="none" stroke-width="0"/><path d="M228.32753,191.39825c0,0 -1.88161,-4.22778 -1.98112,-11.01937c-0.0922,-6.29262 2.1132,-10.90861 2.1132,-10.90861h2.16974c0,0 -2.37735,5.13659 -2.37735,10.77653c0,5.36689 2.31131,11.01937 2.31131,11.01937z" fill="url(#color-29)" stroke="none" stroke-width="0"/><path d="M223.39321,162.04294c0,0 0,-2.46002 0,-3.51113c0,-0.85671 0,-2.33245 0,-2.33245c0,0 0.21051,-0.07031 0.93382,-0.07031c0.48569,0 3.09984,0.98105 3.44199,2.47075c0.44307,1.92911 -0.79811,2.6453 -1.26126,2.8806c-1.34141,0.68152 -3.11455,0.56253 -3.11455,0.56253z" fill="url(#color-30)" stroke="none" stroke-width="0"/><path d="M230.13255,191.35422c0,0 -1.88161,-4.22778 -1.98112,-11.01937c-0.0922,-6.29262 2.11319,-10.9086 2.11319,-10.9086c0,0 0.73306,7.02113 0.70898,11.01991c-0.01837,3.05104 -0.84105,10.90806 -0.84105,10.90806z" fill="url(#color-31)" stroke="none" stroke-width="0"/><path d="M224.91369,159.06075c0,1.59342 -0.59051,2.88515 -1.31893,2.88515c-0.72842,0 -1.31893,-1.29172 -1.31893,-2.88515c0,-1.59342 0.5905,-2.88515 1.31893,-2.88515c0.72842,0 1.31893,1.29173 1.31893,2.88515z" fill="#dff8ff" stroke="none" stroke-width="0"/><path d="M223.41299,156.17203c0,0 1.52996,-0.12756 1.52996,3.04323c0,2.95792 -1.52996,2.72222 -1.52996,2.72222z" fill="url(#color-32)" stroke="none" stroke-width="0"/><path d="M223.21415,205.31018c0,0 0,-2.46002 0,-3.51113c0,-0.85671 0,-2.33245 0,-2.33245c0,0 0.21051,-0.07031 0.93382,-0.07031c0.48569,0 3.09984,0.98105 3.44199,2.47075c0.44307,1.92911 -0.79811,2.6453 -1.26126,2.8806c-1.34141,0.68152 -3.11455,0.56253 -3.11455,0.56253z" fill="url(#color-33)" stroke="none" stroke-width="0"/><path d="M224.73461,202.32799c0,1.59342 -0.59051,2.88515 -1.31893,2.88515c-0.72842,0 -1.31892,-1.29172 -1.31892,-2.88515c0,-1.59342 0.5905,-2.88515 1.31892,-2.88515c0.72842,0 1.31893,1.29173 1.31893,2.88515z" fill="#dff8ff" stroke="none" stroke-width="0"/><path d="M223.23393,199.43926c0,0 1.52996,-0.12755 1.52996,3.04324c0,2.95792 -1.52996,2.72222 -1.52996,2.72222z" fill="url(#color-34)" stroke="none" stroke-width="0"/><path d="M190.35703,197.67171c0,0 -10.3381,-2.68441 -11.06463,-17.13138c-0.74046,-14.72407 12.1224,-17.98649 12.1224,-17.98649z" fill="#5f5f5f" stroke="none" stroke-width="0"/><path d="M190.88593,197.88327c0,0 -6.56704,-2.89795 -6.83204,-18.30347c-0.17033,-9.90222 7.36093,-17.02596 7.36093,-17.02596c0,0 4.21888,-0.55719 8.03938,-0.58284c2.33047,-0.01564 4.51269,0.49859 5.49872,0.49197c1.05449,-0.00707 2.22578,1.03078 2.22932,2.20606c0.01096,3.6401 0.06846,22.72684 0.09048,30.04095c0.00535,1.77442 -0.96837,2.85595 -1.89538,2.85595c-1.1173,0 -3.47606,1.33218 -6.45423,1.40194c-3.71312,0.08698 -8.03718,-1.08461 -8.03718,-1.08461z" fill="#383838" stroke="none" stroke-width="0"/><path d="M183.61679,167.46443l0.6052,-0.67952l5.06256,-0.4539l-0.37825,0.83082z" fill="#383838" stroke="none" stroke-width="0"/><path d="M180.94381,171.14608l0.61548,-0.93658l6.26287,0.03012l-0.17664,0.97698z" fill="#383838" stroke="none" stroke-width="0"/><path d="M179.67995,176.39185v-1.13476h6.95985v1.13476z" fill="#383838" stroke="none" stroke-width="0"/><path d="M189.03238,193.23802l0.37825,0.83081l-5.06256,-0.4539l-0.60521,-0.67952z" data-paper-data="{&quot;index&quot;:null}" fill="#383838" stroke="none" stroke-width="0"/><path d="M187.77159,189.18325l0.17664,0.97698l-6.26286,0.03011l-0.61548,-0.93658z" data-paper-data="{&quot;index&quot;:null}" fill="#383838" stroke="none" stroke-width="0"/><path d="M186.76588,184.00799v1.13476h-6.95985v-1.13476z" data-paper-data="{&quot;index&quot;:null}" fill="#383838" stroke="none" stroke-width="0"/><path d="M179.07475,180.62827v-1.0591h9.83456v1.0591z" fill="#383838" stroke="none" stroke-width="0"/><path d="M156.8427,155.7943v-8.6624h12.75857v8.6624z" fill="url(#color-35)" stroke="none" stroke-width="0"/><path d="M209.61323,180.33509c0,6.02758 -5.45012,10.91388 -12.17318,10.91388c-6.72305,0 -12.17318,-4.88632 -12.17318,-10.91388c0,-6.02758 5.45012,-10.91387 12.17318,-10.91387c6.72305,0 12.17318,4.88631 12.17318,10.91387z" fill="url(#color-36)" stroke="#5d5d5d" stroke-width="0"/><path d="M209.66153,180.77155c0,1.6014 -0.72712,3.89914 -1.77755,5.42744c-1.10479,1.6074 -2.53565,2.40574 -2.53565,2.40574c0,0 1.83436,-5.14243 1.83436,-8.42809c0,-3.28568 -1.43774,-7.5357 -1.43774,-7.5357c0,0 1.88841,1.20199 2.76423,3.00749c0.7533,1.55291 1.15235,3.60387 1.15235,5.12314z" fill="#adcaff" stroke="#000000" stroke-width="0"/><path d="M154.76103,147.5348v-1.7459h23.50264v1.7459z" fill="url(#color-37)" stroke="none" stroke-width="0"/><path d="M159.06099,180.02966c0,-3.18485 2.58184,-5.76668 5.76668,-5.76668c3.18484,0 5.76668,2.58183 5.76668,5.76668c0,3.18485 -2.58184,5.76668 -5.76668,5.76668c-3.18484,0 -5.76668,-2.58184 -5.76668,-5.76668z" fill="#cecece" stroke="none" stroke-width="0"/><path d="M160.15941,180.02966c0,-2.57821 2.09005,-4.66827 4.66827,-4.66827c2.57821,0 4.66827,2.09006 4.66827,4.66827c0,2.57821 -2.09006,4.66827 -4.66827,4.66827c-2.57821,0 -4.66827,-2.09006 -4.66827,-4.66827z" fill="#b4b4b4" stroke="none" stroke-width="0"/><path d="M150.68507,146.07349l2.10159,-3.67778l26.92656,-0.13135l2.75834,4.07183z" fill="url(#color-38)" stroke="none" stroke-width="0"/><path d="M138.97265,131.79009c0,0 3.86932,-1.99972 4.51197,-2.0581c0.46499,-0.14297 45.95116,0.02962 46.22794,0.15831c0.72781,0.3384 4.2745,2.0581 4.2745,2.0581z" fill="#2e2e2e" stroke="none" stroke-width="0"/><path d="M138.87422,140.71665v-8.96458h54.88838v8.96458z" fill="#343434" stroke="none" stroke-width="0"/><path d="M193.98706,140.52269c0,0 -3.54668,1.7197 -4.2745,2.0581c-0.27678,0.12869 -45.76294,0.30128 -46.22793,0.15831c-0.64265,-0.05838 -4.51197,-2.0581 -4.51197,-2.0581z" data-paper-data="{&quot;index&quot;:null}" fill="#2e2e2e" stroke="none" stroke-width="0"/><path d="M323.1901,147.84893v-1.04239h3.47465v1.04239z" fill="#b0b0b0" stroke="none" stroke-width="0"/><path d="M322.84263,150.90662v-1.04239h4.65602v1.04239z" fill="#b0b0b0" stroke="none" stroke-width="0"/><path d="M320.71251,154.35738l0.71073,-12.03437l2.67857,0.15819l-0.71073,12.03439z" fill="url(#color-39)" stroke="none" stroke-width="0"/><path d="M314.02807,143.48656v-1.33142h20.76418v1.33142z" fill="url(#color-40)" stroke="none" stroke-width="0"/><path d="M310.42702,142.37217l1.85671,-2.80466l23.78916,-0.10017l2.43694,3.10517z" fill="url(#color-41)" stroke="none" stroke-width="0"/><path d="M322.382,146.18985v-2.18565h19.32933v2.18565z" fill="url(#color-42)" stroke="none" stroke-width="0"/><path d="M300.0793,131.47965c0,0 3.41847,-1.52498 3.98624,-1.5695c0.41082,-0.10903 40.59707,0.02258 40.84159,0.12072c0.64301,0.25807 3.77645,1.56951 3.77645,1.56951z" fill="#2e2e2e" stroke="none" stroke-width="0"/><path d="M299.99233,138.28704v-6.83638h48.49295v6.83638z" fill="#343434" stroke="none" stroke-width="0"/><path d="M348.68359,138.13913c0,0 -3.13344,1.31144 -3.77645,1.56951c-0.24453,0.09814 -40.43077,0.22977 -40.84159,0.12073c-0.56777,-0.04452 -3.98624,-1.56951 -3.98624,-1.56951z" data-paper-data="{&quot;index&quot;:null}" fill="#2e2e2e" stroke="none" stroke-width="0"/><path d="M326.60151,155.12959l-1.40427,-12.70681l2.82824,-0.31256l1.40427,12.70681z" data-paper-data="{&quot;index&quot;:null}" fill="url(#color-43)" stroke="none" stroke-width="0"/><path d="M339.11588,155.68376l1.09282,-10.51843h1.77584l-1.09282,10.51843z" fill="url(#color-44)" stroke="none" stroke-width="0"/><path d="M339.66229,145.16532c0,-0.82988 0.68804,-1.50263 1.53679,-1.50263c0.84874,0 1.53678,0.67275 1.53678,1.50263c0,0.82988 -0.68804,1.50263 -1.53678,1.50263c-0.84874,0 -1.53679,-0.67275 -1.53679,-1.50263z" fill="#dbdbdb" stroke="none" stroke-width="0"/><path d="M326.66474,213.558v1.04239h-3.47464v-1.04239z" data-paper-data="{&quot;index&quot;:null}" fill="#b0b0b0" stroke="none" stroke-width="0"/><path d="M327.49865,210.50032v1.04239h-4.65602v-1.04239z" data-paper-data="{&quot;index&quot;:null}" fill="#b0b0b0" stroke="none" stroke-width="0"/><path d="M323.39108,206.89137l0.71073,12.03438l-2.67857,0.15819l-0.71073,-12.03438z" data-paper-data="{&quot;index&quot;:null}" fill="url(#color-45)" stroke="none" stroke-width="0"/><path d="M334.79224,217.92037v1.33143h-20.76418v-1.33143z" data-paper-data="{&quot;index&quot;:null}" fill="url(#color-46)" stroke="none" stroke-width="0"/><path d="M338.50983,218.83443l-2.43694,3.10517l-23.78916,-0.10016l-1.85671,-2.80468z" data-paper-data="{&quot;index&quot;:null}" fill="url(#color-47)" stroke="none" stroke-width="0"/><path d="M341.71133,215.2171v2.18565h-19.32933v-2.18565z" data-paper-data="{&quot;index&quot;:null}" fill="url(#color-48)" stroke="none" stroke-width="0"/><path d="M348.68359,229.80656c0,0 -3.13344,1.31144 -3.77645,1.56951c-0.24453,0.09814 -40.43077,0.22976 -40.84159,0.12073c-0.56777,-0.04453 -3.98624,-1.56951 -3.98624,-1.56951z" data-paper-data="{&quot;index&quot;:null}" fill="#2e2e2e" stroke="none" stroke-width="0"/><path d="M348.48529,223.11989v6.83639h-48.49295v-6.83639z" data-paper-data="{&quot;index&quot;:null}" fill="#343434" stroke="none" stroke-width="0"/><path d="M300.0793,223.14708c0,0 3.41847,-1.52499 3.98624,-1.56951c0.41082,-0.10903 40.59707,0.0226 40.84159,0.12074c0.64301,0.25807 3.77645,1.5695 3.77645,1.5695z" data-paper-data="{&quot;index&quot;:null}" fill="#2e2e2e" stroke="none" stroke-width="0"/><path d="M329.42974,206.58991l-1.40427,12.70682l-2.82824,-0.31256l1.40427,-12.70682z" data-paper-data="{&quot;index&quot;:null}" fill="url(#color-49)" stroke="none" stroke-width="0"/><path d="M340.89172,205.72318l1.09282,10.51844h-1.77584l-1.09282,-10.51844z" data-paper-data="{&quot;index&quot;:null}" fill="url(#color-50)" stroke="none" stroke-width="0"/><path d="M341.19907,214.73899c0.84874,0 1.53679,0.67275 1.53679,1.50263c0,0.82988 -0.68805,1.50263 -1.53679,1.50263c-0.84874,0 -1.53679,-0.67275 -1.53679,-1.50263c0,-0.82988 0.68804,-1.50263 1.53679,-1.50263z" data-paper-data="{&quot;index&quot;:null}" fill="#dbdbdb" stroke="none" stroke-width="0"/><path d="M359.67118,181.80222c-0.0345,11.08896 -2.45458,15.36784 -2.45458,15.36784c0,0 -0.9605,-7.5877 -0.9605,-15.36784c0,-7.78015 0.9605,-15.47457 0.9605,-15.47457c0,0 2.48642,5.2402 2.45458,15.47457z" fill="#252525" stroke="none" stroke-width="0"/><path d="M356.38061,198.66417c0,0 -1.81426,-11.66864 -1.81426,-17.28883c0,-5.54905 1.70754,-16.86194 1.70754,-16.86194l1.38738,1.70754c0,0 -1.4941,9.69395 -1.4941,15.26112c0,5.60275 1.4941,15.58129 1.4941,15.58129z" fill="url(#color-51)" stroke="none" stroke-width="0"/><path d="M356.20331,193.99098c0,0 0.38351,-8.90814 0.38351,-13.1033c0,-3.95038 -0.38351,-11.3775 -0.38351,-11.3775h0.38351c0,0 0.38351,7.4792 0.38351,11.44142c0,4.18577 -0.38351,13.03939 -0.38351,13.03939z" fill="url(#color-52)" stroke="none" stroke-width="0"/><path d="M356.92773,193.94836c0,0 0.38352,-8.90814 0.38352,-13.10331c0,-3.95037 -0.38352,-11.3775 -0.38352,-11.3775h0.38352c0,0 0.38351,7.4792 0.38351,11.44142c0,4.18577 -0.38351,13.03938 -0.38351,13.03938z" fill="url(#color-53)" stroke="none" stroke-width="0"/><path d="M357.42668,196.60072c0,0 0.36206,-2.32326 0.37693,-2.68333c0.08354,-2.02188 0.35987,-8.97866 0.35987,-12.53967c0,-3.17479 -0.2477,-8.59513 -0.34497,-10.60115c-0.0178,-0.36707 -0.62735,-3.66151 -0.62735,-3.66151l0.26575,-0.64768c0,0 0.7167,3.73047 0.73367,4.07848c0.08744,1.79295 0.3564,7.57763 0.3564,10.89578c0,3.58569 -0.28143,10.5968 -0.36212,12.53334c-0.01351,0.32408 -0.31579,1.97807 -0.31579,1.97807z" fill="url(#color-54)" stroke="none" stroke-width="0"/><path d="M358.68373,192.20761c0,0 0.01441,-0.97061 0.02182,-1.17017c0.11007,-2.96478 0.24626,-7.13843 0.24626,-9.63842c0,-3.95037 -0.38352,-11.37751 -0.38352,-11.37751h0.38352c0,0 0.38351,7.4792 0.38351,11.44143c0,2.29489 -0.11527,5.99288 -0.21943,8.86564c-0.00652,0.17983 -0.0194,0.76476 -0.0194,0.76476z" fill="url(#color-55)" stroke="none" stroke-width="0"/><path d="M349.9183,182.52817v-2.65217h4.0313v2.65217z" fill="#dad357" stroke="none" stroke-width="0"/><path d="M350.36579,182.23376v-2.06336h3.1363v2.06336z" fill="#fff766" stroke="none" stroke-width="0"/><path d="M350.93896,181.67153l-0.05888,-0.64769c0,0 0.78507,-0.35328 1.11873,-0.41216c0.33366,-0.05888 0.88322,0.05888 0.88322,0.05888c0,0 0.05179,0.74805 -0.05692,0.93286c-0.07174,0.12195 -0.53189,0.06812 -0.53189,0.06812z" fill="#2d2d2d" stroke="none" stroke-width="0"/><path d="M137.76849,198.27145v-4.24409h1.68565v4.24409z" fill="#ca1f1f" stroke="none" stroke-width="0"/><path d="M137.68188,166.22417v-4.2441h1.68565v4.2441z" fill="#ca1f1f" stroke="none" stroke-width="0"/><path d="M308.5489,175.16065c0,0.44009 -12.91481,0.79685 -28.84602,0.79685c-15.93121,0 -28.84602,-0.35677 -28.84602,-0.79685c0,-0.44009 12.91481,-0.79685 28.84602,-0.79685c15.93122,0 28.84602,0.35676 28.84602,0.79685z" fill="url(#color-56)" stroke="none" stroke-width="0"/><path d="M309.66449,186.31657c0,0.44009 -12.91481,0.79685 -28.84602,0.79685c-15.93121,0 -28.84601,-0.35676 -28.84601,-0.79685c0,-0.44009 12.9148,-0.79685 28.84601,-0.79685c15.93122,0 28.84602,0.35676 28.84602,0.79685z" fill="url(#color-57)" stroke="none" stroke-width="0"/><path d="M242.3502,187.22912v-13.04844h9.06419v13.04844z" fill="url(#color-58)" stroke="none" stroke-width="0"/><g><text transform="translate(141.07169,197.80606) rotate(5.23293) scale(0.67705,0.34866) skewX(3.38457)" font-size="40" xml:space="preserve" fill="#f7f7f7" fill-rule="nonzero" stroke="#f7f7f7" stroke-width="3" stroke-linecap="butt" stroke-linejoin="miter" stroke-miterlimit="10" stroke-dasharray="" stroke-dashoffset="0" font-family="Sans Serif" font-weight="normal" text-anchor="start" style="mix-blend-mode: normal"><tspan x="0" dy="0">12</tspan></text><path d="M147.19155,198.98158v-7.54301h4.71921l0.2321,7.96851z" fill="url(#color-59)" stroke="none" stroke-width="0"/><path d="M156.74604,199.75523l-0.05911,-1.8605c0,0 6.30218,-2.73815 7.99405,-3.69192c1.19285,-0.67245 1.2714,-1.44905 1.2714,-1.44905l4.79658,-0.07736c0,0 0.51456,1.53867 -1.67989,2.88767c-1.17651,0.72324 -5.43762,2.45046 -5.43762,2.45046l8.04587,0.65759v2.47565z" fill="url(#color-60)" stroke="none" stroke-width="0"/></g><g data-paper-data="{&quot;index&quot;:null}"><text transform="translate(169.91018,156.54983) rotate(171.20201) scale(0.67705,0.34865) skewX(3.38444)" font-size="40" xml:space="preserve" fill="#f7f7f7" fill-rule="nonzero" stroke="#f7f7f7" stroke-width="3" stroke-linecap="butt" stroke-linejoin="miter" stroke-miterlimit="10" stroke-dasharray="" stroke-dashoffset="0" font-family="Sans Serif" font-weight="normal" text-anchor="start" style="mix-blend-mode: normal"><tspan x="0" dy="0">12</tspan></text><path d="M163.6879,156.89305l1.82871,7.31798l-4.57843,1.14411l-2.15704,-7.67452z" fill="url(#color-61)" stroke="none" stroke-width="0"/><path d="M154.2309,158.45885l0.5084,1.79066c0,0 -5.45033,4.18434 -6.8605,5.51982c-0.99423,0.94158 -0.88217,1.71407 -0.88217,1.71407l-4.63473,1.23792c0,0 -0.87223,-1.36801 0.9297,-3.20878c0.96607,-0.9869 4.68132,-3.69564 4.68132,-3.69564l-7.96527,1.31264l-0.6002,-2.4018z" fill="url(#color-62)" stroke="none" stroke-width="0"/></g><path d="M-2.63138,361.63479v-360.53868h484.97563v360.53869z" fill="none" stroke="none" stroke-width="0"/></g></g></svg>