<svg version="1.1" xmlns="http://www.w3.org/2000/svg" xmlns:xlink="http://www.w3.org/1999/xlink" width="157.52799" height="35.20515" viewBox="0,0,157.52799,35.20515"><g transform="translate(-161.18035,-66.06484)"><g data-paper-data="{&quot;isPaintingLayer&quot;:true}" fill-rule="nonzero" stroke-linejoin="miter" stroke-miterlimit="10" stroke-dasharray="" stroke-dashoffset="0" style="mix-blend-mode: normal"><path d="M161.49794,84.55816c0,-35.32158 -0.31759,17.15871 -0.31759,-2.20282c0,-8.1817 7.99801,-16.2905 15.44621,-16.2905c13.64824,0 96.55949,0 123.07497,0c0.49171,0 0.97659,0 1.4543,0c10.51084,0 17.55251,7.71262 17.55251,15.5884c0,14.95439 0,-34.94027 0,1.96878c0,10.80729 -8.98072,17.64797 -17.08445,17.64797c-14.32264,0 -97.69918,0 -123.27554,0c-10.11234,0 -16.85041,-6.44289 -16.85041,-16.71184z" fill-opacity="0.10196" fill="#ffffff" stroke="#000000" stroke-width="0" stroke-linecap="butt"/><g stroke="none" stroke-width="0" stroke-linecap="butt"><path d="M288.51067,90.70554v-14.17652h25.62995v14.17652z" fill="#002eb9"/><path d="M288.50018,77.38059v-0.81497h1.45368l11.36476,6.28252l0.031,0.76382l-1.41576,0.03374z" fill="#ffffff"/><path d="M293.83963,83.64569v-7.13102h2.15254v7.13102z" fill="#ffffff"/><path d="M294.14779,88.68403l0.0784,-0.92743l-1.12668,-0.18276l0.96427,-0.51531l-0.57179,-0.89081l1.12444,0.33229l0.37821,-0.95089l0.43118,0.91658l1.01644,-0.25233l-0.64567,0.83l0.9833,0.52463l-1.10489,0.13486l0.14289,1.00057l-0.84017,-0.72577z" fill="#ffffff"/><path d="M307.29896,89.16565l0.04314,-0.51031l-0.61996,-0.10057l0.53059,-0.28356l-0.31462,-0.49016l0.61872,0.18284l0.20811,-0.52323l0.23726,0.50435l0.55928,-0.13885l-0.35528,0.45671l0.54107,0.28867l-0.60796,0.0742l0.07862,0.55057l-0.4623,-0.39935z" fill="#ffffff"/><path d="M304.08966,83.58392l0.04314,-0.51031l-0.61995,-0.10057l0.53058,-0.28354l-0.31462,-0.49017l0.61872,0.18284l0.20812,-0.52323l0.23726,0.50436l0.55928,-0.13885l-0.35528,0.4567l0.54106,0.28868l-0.60796,0.07421l0.07862,0.55057l-0.4623,-0.39936z" fill="#ffffff"/><path d="M310.11042,82.59322l0.04314,-0.51031l-0.61995,-0.10057l0.53058,-0.28354l-0.31462,-0.49017l0.61872,0.18285l0.20812,-0.52323l0.23726,0.50435l0.55928,-0.13885l-0.35528,0.4567l0.54107,0.28868l-0.60796,0.07421l0.07862,0.55057l-0.46229,-0.39937z" fill="#ffffff"/><path d="M307.2194,79.74195l0.04314,-0.51031l-0.61995,-0.10057l0.53059,-0.28355l-0.31463,-0.49017l0.61872,0.18284l0.20812,-0.52323l0.23726,0.50436l0.55928,-0.13885l-0.35528,0.4567l0.54106,0.28867l-0.60797,0.07421l0.07862,0.55057l-0.46229,-0.39936z" fill="#ffffff"/><path d="M308.61533,84.70924l0.12365,-0.33108l-0.26743,-0.24877l0.37121,-0.00325l0.13295,-0.32666l0.13228,0.32574l0.39332,-0.00531l-0.26515,0.23627l0.11602,0.36192l-0.37894,-0.21035z" fill="#ffffff"/><path d="M288.51443,77.11678v-0.49032l12.8087,6.4689v0.53316z" fill="#e50027"/><path d="M288.50141,83.65062v-0.77113l11.4504,-6.31895l1.40977,0.02277l-0.00718,0.80917l-11.39524,6.25813z" fill="#ffffff"/><path d="M301.31552,76.56767l-11.85011,7.06866h-0.89346l11.77958,-7.04724z" fill="#e50027"/><path d="M288.47222,81.27718v-2.39399h12.85939v2.39399z" fill="#ffffff"/><path d="M288.50018,80.72154v-1.18082h12.83143v1.18082z" fill="#e50027"/><path d="M294.31486,83.64569v-7.10554h1.23003v7.10554z" fill="#e50027"/></g><text transform="translate(202.14218,89.80735) scale(0.43574,0.43574)" font-size="40" xml:space="preserve" fill="#ffffff" fill-rule="nonzero" stroke="#ffffff" stroke-width="3" stroke-linecap="butt" stroke-linejoin="miter" stroke-miterlimit="10" stroke-dasharray="" stroke-dashoffset="0" font-family="Sans Serif" font-weight="normal" text-anchor="start" style="mix-blend-mode: normal"><tspan x="0" dy="0">澳大利亚</tspan></text><g fill="none" stroke="#ffffff" stroke-width="1.5" stroke-linecap="round"><path d="M179.23541,90.73216c0,0 -3.23299,0.06099 -4.04291,-1.67866c-0.5453,-1.17127 0.8494,-2.62609 -0.30673,-3.80605c-0.59008,-0.60224 -1.83467,-0.74834 -2.29232,-0.0026c-1.60648,2.61774 -2.20612,6.60703 -4.65173,6.1694c-1.04082,-0.18625 -1.56413,-1.59875 -2.08479,-2.52715c-0.67733,-1.20777 -1.15539,-2.17683 -1.1383,-3.08037c0.07683,-4.06432 1.9999,-7.72441 3.39976,-8.22663c0.33198,-0.1191 2.59257,-1.51436 4.9341,-0.95375c0.78307,0.18748 2.49146,1.90012 5.48397,3.05939c1.56647,0.60683 4.84458,1.76236 7.82195,2.75277c2.37767,0.79093 4.42334,1.03375 4.42489,2.81756c0.00155,1.78101 -4.81354,2.94552 -7.21843,3.2043c-0.60466,0.06507 -1.18671,0.7081 -2.15408,1.44531c-0.80213,0.61129 -1.9765,0.8014 -1.94927,0.81157"/><path d="M163.88644,82.46912l2.7894,0.86988"/></g></g></g></svg>