<svg version="1.1" xmlns="http://www.w3.org/2000/svg" xmlns:xlink="http://www.w3.org/1999/xlink" width="653.55806" height="459.45837" viewBox="0,0,653.55806,459.45837"><defs><linearGradient x1="256.57288" y1="63.98461" x2="256.57288" y2="122.03474" gradientUnits="userSpaceOnUse" id="color-1"><stop offset="0" stop-color="#8adef2"/><stop offset="1" stop-color="#abe5f2"/></linearGradient><linearGradient x1="240.4593" y1="116.9602" x2="240.4593" y2="361.96899" gradientUnits="userSpaceOnUse" id="color-2"><stop offset="0" stop-color="#5de962"/><stop offset="1" stop-color="#47b24b"/></linearGradient><linearGradient x1="240.85532" y1="125.73609" x2="240.85532" y2="363.48136" gradientUnits="userSpaceOnUse" id="color-3"><stop offset="0" stop-color="#878787"/><stop offset="1" stop-color="#5c5c5c"/></linearGradient><linearGradient x1="151.29225" y1="200.50829" x2="151.29225" y2="322.24244" gradientUnits="userSpaceOnUse" id="color-4"><stop offset="0" stop-color="#6b6b6b"/><stop offset="1" stop-color="#5e5e5e"/></linearGradient><linearGradient x1="4111.2114" y1="342.07368" x2="-341.12464" y2="342.07368" gradientUnits="userSpaceOnUse" id="color-5"><stop offset="0" stop-color="#000000"/><stop offset="1" stop-color="#000000" stop-opacity="0"/></linearGradient><radialGradient cx="178.05294" cy="284.23375" r="64.84519" gradientUnits="userSpaceOnUse" id="color-6"><stop offset="0" stop-color="#000000"/><stop offset="1" stop-color="#000000" stop-opacity="0"/></radialGradient><radialGradient cx="293.38338" cy="290.32358" r="64.84519" gradientUnits="userSpaceOnUse" id="color-7"><stop offset="0" stop-color="#000000"/><stop offset="1" stop-color="#000000" stop-opacity="0"/></radialGradient><radialGradient cx="332.81679" cy="271.00158" r="64.84519" gradientUnits="userSpaceOnUse" id="color-8"><stop offset="0" stop-color="#000000"/><stop offset="1" stop-color="#000000" stop-opacity="0"/></radialGradient><radialGradient cx="243.98829" cy="292.72947" r="64.84519" gradientUnits="userSpaceOnUse" id="color-9"><stop offset="0" stop-color="#000000"/><stop offset="1" stop-color="#000000" stop-opacity="0"/></radialGradient><linearGradient x1="408.70123" y1="183.12371" x2="408.70123" y2="296.63079" gradientUnits="userSpaceOnUse" id="color-10"><stop offset="0" stop-color="#6a6a6a"/><stop offset="1" stop-color="#312d26"/></linearGradient><linearGradient x1="4125.41262" y1="338.5234" x2="-326.92341" y2="338.5234" gradientUnits="userSpaceOnUse" id="color-11"><stop offset="0" stop-color="#000000"/><stop offset="1" stop-color="#000000" stop-opacity="0"/></linearGradient><linearGradient x1="335.13975" y1="181.71922" x2="335.13975" y2="295.22623" gradientUnits="userSpaceOnUse" id="color-12"><stop offset="0" stop-color="#6a6a6a"/><stop offset="1" stop-color="#312d26"/></linearGradient><radialGradient cx="190.94682" cy="284.42179" r="64.84519" gradientUnits="userSpaceOnUse" id="color-13"><stop offset="0" stop-color="#000000"/><stop offset="1" stop-color="#000000" stop-opacity="0"/></radialGradient></defs><g transform="translate(100.46479,46.35736)"><g data-paper-data="{&quot;isPaintingLayer&quot;:true}" fill-rule="nonzero" stroke="none" stroke-width="0" stroke-linecap="butt" stroke-linejoin="miter" stroke-miterlimit="10" stroke-dasharray="" stroke-dashoffset="0" style="mix-blend-mode: normal"><path d="M-80.81331,129.34401l0.6379,-131.99788h563.89189l-0.38979,128.58724z" fill="#8adef2"/><path d="M-81.39511,122.03474v-58.05012h565.11155c0,0 0,13.19018 0,21.23651c0,10.59402 0,36.81358 0,36.81358l-565.22143,10.23195z" fill="url(#color-1)"/><path d="M-84.30935,124.92232l81.92794,-3.39749c0,0 29.90547,-0.82096 70.55705,-1.76654c55.20531,-1.28412 130.22849,-2.79813 177.08634,-2.79813c80.52243,0 238.03783,4.56467 238.03783,4.56467v240.44416h-568.36012z" fill="url(#color-2)"/><path d="M-2.08224,362.23092c0,0 -64.34899,-0.00108 -86.05579,-0.00144c-13.21188,-0.00022 -18.92879,-34.85345 -1.09238,-43.00959c35.08899,-16.04532 87.14818,-34.29149 87.14818,-34.29149c0,0 177.60142,-17.29674 261.15533,-57.81636c15.64021,-7.58474 25.95033,-15.93459 32.98884,-24.29716c14.01912,-16.65634 15.05903,-33.36307 19.38488,-44.17504c5.10486,-12.7591 16.56154,-15.99038 23.82976,-18.46579c30.20592,-10.28756 148.51646,-14.43796 148.51646,-14.43796l-0.04601,5.22801c0,0 -87.14351,9.56901 -92.02733,21.51469c-7.94705,19.43827 78.2527,55.59309 85.59563,96.23138c15.01912,57.90975 -2.34824,113.52077 -2.34824,113.52077z" fill="url(#color-3)"/><path d="M302.2061,200.50829l7.29832,1.24635c0,0 -12.56614,17.56377 -40.39318,36.77319c-18.32399,12.64934 -46.10284,26.27842 -64.46351,35.13392c-47.20611,22.76784 -206.50108,47.72553 -206.50108,47.72553c0,0 -61.80091,8.72932 -83.66223,11.81721c-14.09225,1.99052 -20.38161,-20.07247 -1.03906,-22.63144c44.78929,-5.9255 121.66561,-16.17415 139.0725,-18.99513c42.37607,-6.86756 96.28423,-16.85336 127.47161,-27.43338c55.41613,-18.79941 122.2167,-63.63622 122.2167,-63.63622z" fill="url(#color-4)"/><path d="M-3.21096,304.26842c0,0 -47.8296,5.53519 -82.25675,8.80707c-19.36892,1.84078 -16.44517,-22.30552 -0.00853,-23.34002c6.51269,-0.4099 12.87205,-0.82955 17.93412,-1.20234c20.60747,-1.51761 64.75494,-5.37313 64.75494,-5.37313c0,0 64.43322,-4.30084 160.08427,-25.0885c96.83528,-19.53269 135.99812,-57.44685 135.99812,-57.44685c0,0 10.34389,2.68726 7.23151,5.67097c-12.73066,12.20434 -51.93402,45.03096 -124.76774,62.99516c-51.08833,15.74917 -178.96995,34.97764 -178.96995,34.97764z" fill="#f71919"/><path d="M59.12114,294.29152c0,0 -5.77328,-6.52931 -9.03747,-10.00494c-3.26416,-3.47562 -8.1521,-6.14189 -8.1521,-6.14189l47.02222,-6.82737c0,0 5.18596,2.75305 8.34918,5.22791c3.16322,2.47487 10.18317,9.27153 10.18317,9.27153c0,0 -20.30346,4.54284 -27.90523,5.5939c-8.04694,1.11256 -20.4598,2.88089 -20.4598,2.88089z" fill="#ececec"/><path d="M143.52925,277.27459c0,0 -4.95104,-5.3794 -7.92127,-7.646c-2.85162,-2.17604 -9.55875,-5.69301 -9.55875,-5.69301c0,0 11.55583,-1.86201 17.50462,-2.97671c6.18566,-1.15908 18.92655,-3.84985 18.92655,-3.84985c0,0 6.86769,2.31366 9.70634,4.08186c3.17763,1.97934 8.45737,7.2323 8.45737,7.2323c0,0 -12.39998,3.91539 -20.05534,5.73899c-7.65533,1.82361 -17.05949,3.11242 -17.05949,3.11242z" fill="#ececec"/><path d="M210.30607,259.12271c0,0 -5.44768,-4.33547 -8.25706,-6.1006c-2.49353,-1.56667 -7.76489,-3.96591 -7.76489,-3.96591c0,0 8.6279,-2.71764 13.51648,-4.24789c5.08323,-1.59121 15.22355,-5.42311 15.22355,-5.42311c0,0 5.4889,1.36176 7.96533,2.54804c2.99068,1.4326 8.72884,5.4489 8.72884,5.4489c0,0 -10.03123,4.52764 -16.28339,6.82395c-6.25216,2.29631 -13.12883,4.91666 -13.12883,4.91666z" fill="#ececec"/><path d="M260.30944,236.018c0,0 -5.27523,-2.87638 -7.81158,-3.98412c-2.27481,-0.99347 -6.70748,-2.35693 -6.70748,-2.35693c0,0 6.71783,-3.08951 10.35552,-4.83256c3.78256,-1.81249 10.95454,-6.24027 10.95454,-6.24027c0,0 4.82272,0.40992 6.9231,1.13998c2.33603,0.81198 6.46145,3.51237 6.46145,3.51237c0,0 -6.48196,4.95772 -11.09612,7.45134c-0.51805,0.27994 -9.07946,5.31016 -9.07946,5.31016z" fill="#ececec"/><path d="M295.02795,211.51079c0,0 -4.16699,-1.94103 -6.36597,-2.37217c-1.81006,-0.35487 -5.88972,-0.03071 -5.88972,-0.03071c0,0 5.39876,-4.12912 7.38951,-5.88035c1.60729,-1.41391 3.65258,-3.83311 3.65258,-3.83311c0,0 3.55381,-0.5947 5.42787,-0.36611c1.87406,0.22859 5.07866,1.29524 5.07866,1.29524c0,0 -0.43826,2.8452 -3.56385,5.5515c-0.3509,0.30384 -5.72909,5.63572 -5.72909,5.63572z" fill="#ececec"/><path d="M454.81391,361.4399c0,0 29.24549,-66.62073 10.12061,-117.44833c-16.28831,-43.28896 -78.34613,-70.01811 -77.8739,-89.4058c0.42897,-17.61099 95.98522,-25.13508 95.98522,-25.13508v0.84087c0,0 -95.60965,8.84265 -93.5395,24.55463c3.4061,20.88276 64.75898,47.73655 81.648,87.81567c18.98707,45.05799 -1.20494,118.77804 -1.20494,118.77804z" fill="#ececec"/><path d="M295.16742,200.36316c0,0 6.65633,-6.9146 12.67443,-25.14659c4.65126,-11.53554 0.94388,-22.63412 19.88133,-32.47715c30.78072,-13.00705 156.2088,-16.85551 156.2088,-16.85551v0.5624c0,0 -117.61909,2.85262 -152.97499,16.26595c-21.54396,8.17334 -14.96147,20.40273 -20.31074,37.36723c-5.44161,17.25731 -9.00686,21.07844 -9.00686,21.07844z" fill="#ececec"/><path d="M447.41871,297.57277l-8.41456,16.88841c0,0 -73.22188,40.65484 -83.35712,42.44576c-14.02405,2.47806 -208.90725,0.01467 -208.90725,0.01467l-65.408,-36.38999l245.96105,-14.2595l52.63935,-23.51237z" fill="url(#color-5)"/><path d="M113.20775,284.23375c0,-35.81302 29.03217,-64.84519 64.84519,-64.84519c35.81302,0 64.84519,29.03217 64.84519,64.84519c0,35.81302 -29.03217,64.84519 -64.84519,64.84519c-35.81302,0 -64.84519,-29.03217 -64.84519,-64.84519z" fill="url(#color-6)"/><path d="M228.53819,290.32358c0,-35.81302 29.03217,-64.84519 64.84519,-64.84519c35.81302,0 64.84519,29.03217 64.84519,64.84519c0,35.81302 -29.03217,64.84519 -64.84519,64.84519c-35.81302,0 -64.84519,-29.03217 -64.84519,-64.84519z" fill="url(#color-7)"/><path d="M267.97161,271.00158c0,-35.81302 29.03217,-64.84519 64.84519,-64.84519c35.81302,0 64.84519,29.03217 64.84519,64.84519c0,35.81302 -29.03217,64.84519 -64.84519,64.84519c-35.81302,0 -64.84519,-29.03217 -64.84519,-64.84519z" fill="url(#color-8)"/><path d="M179.1431,292.72947c0,-35.81302 29.03217,-64.84519 64.84519,-64.84519c35.81302,0 64.84519,29.03217 64.84519,64.84519c0,35.81302 -29.03217,64.84519 -64.84519,64.84519c-35.81302,0 -64.84519,-29.03217 -64.84519,-64.84519z" fill="url(#color-9)"/><path d="M394.55637,286.04596c0,0 19.56196,-20.53358 21.71059,-29.80702c1.8523,-7.9946 1.06521,-25.77207 0.70465,-29.92487c-1.72963,-19.92159 -23.29135,-36.22025 -23.29135,-36.22025l5.52446,-1.12589c0,0 15.37156,11.69297 24.01863,28.34305c4.66238,8.9775 5.30894,36.8287 2.95304,43.75918c-3.12795,9.20161 -20.55815,35.56062 -20.55815,35.56062z" fill="url(#color-10)"/><path d="M461.6199,294.02252l-8.41456,16.88841c0,0 -73.22188,40.65484 -83.35712,42.44576c-14.02405,2.47806 -208.90725,0.01467 -208.90725,0.01467l-65.408,-36.38995l245.96105,-14.2595l52.63938,-23.51237z" fill="url(#color-11)"/><path d="M343.41014,224.90958c-1.72963,-19.92159 -23.29135,-36.22025 -23.29135,-36.22025l5.52446,-1.12589c0,0 15.37152,11.69297 24.0186,28.34305c4.66238,8.9775 -5.89119,13.15592 -6.25171,9.00309z" fill="url(#color-12)"/><path d="M126.10163,284.42179c0,-35.81302 29.03217,-64.84519 64.84519,-64.84519c35.81302,0 64.84519,29.03217 64.84519,64.84519c0,35.81302 -29.03217,64.84519 -64.84519,64.84519c-35.81302,0 -64.84519,-29.03217 -64.84519,-64.84519z" fill="url(#color-13)"/><path d="M-63.2339,413.10101v-459.45837h616.32717v459.45837z" fill="none"/><path d="M-67.02832,311.40391c0,0 -1.65279,-8.90927 -2.82437,-12.28548c-1.34232,-3.86823 -4.78721,-11.04979 -4.78721,-11.04979l51.19672,-3.18244c0,0 5.93359,5.30674 8.07174,8.58812c2.28799,3.51134 5.23714,11.8368 5.23714,11.8368c0,0 -23.96224,2.96606 -34.44394,4.08855c-7.33873,0.7859 -22.45007,2.00423 -22.45007,2.00423z" fill="#ececec"/><path d="M444.03613,294.65641c0,0 -132.82177,49.40727 -142.95701,51.19819c-14.02405,2.47806 -165.56188,-3.31959 -165.56188,-3.31959l-50.82061,-22.21935l225.53871,-30.09723l52.63938,-23.51237z" fill-opacity="0.41961" fill="#000000"/></g></g></svg>