<svg version="1.1" xmlns="http://www.w3.org/2000/svg" xmlns:xlink="http://www.w3.org/1999/xlink" width="139.8897" height="211.04907" viewBox="0,0,139.8897,211.04907"><defs><radialGradient cx="239.56713" cy="141.5848" r="61.9149" gradientUnits="userSpaceOnUse" id="color-1"><stop offset="0" stop-color="#ffffff" stop-opacity="0.48235"/><stop offset="1" stop-color="#ffffff" stop-opacity="0"/></radialGradient></defs><g transform="translate(-170.05515,-74.47546)"><g data-paper-data="{&quot;isPaintingLayer&quot;:true}" fill-rule="nonzero" stroke-linejoin="miter" stroke-miterlimit="10" stroke-dasharray="" stroke-dashoffset="0" style="mix-blend-mode: normal"><path d="M297.61429,74.47546c5.56197,0 12.33056,6.40747 12.33056,13.56429c0,22.63379 0,145.37344 0,184.91519c0,7.90338 -6.58623,12.56959 -12.04429,12.56959c-7.12678,0 -100.7484,0 -114.23421,0c-8.43615,0 -13.6112,-5.06004 -13.6112,-13.56638c0,-40.53104 0,-161.47163 0,-183.91836c0,-7.15683 5.20474,-13.56429 12.4661,-13.56429c0,0 107.53618,-0.00003 115.09303,-0.00003z" fill-opacity="0.47451" fill="#292929" stroke="none" stroke-width="0" stroke-linecap="butt"/><path d="M177.65224,141.5848c0,-34.19465 27.72024,-61.9149 61.9149,-61.9149c34.19466,0 61.9149,27.72025 61.9149,61.9149c0,34.19465 -27.72024,61.91489 -61.9149,61.91489c-34.19466,0 -61.91489,-27.72024 -61.91489,-61.91489z" fill="url(#color-1)" stroke="none" stroke-width="NaN" stroke-linecap="butt"/><text transform="translate(210.3539,209.24971) scale(0.3706,0.3706)" font-size="40" xml:space="preserve" fill="#ebebeb" fill-rule="nonzero" stroke="#ebebeb" stroke-width="3" stroke-linecap="butt" stroke-linejoin="miter" stroke-miterlimit="10" stroke-dasharray="" stroke-dashoffset="0" font-family="Sans Serif" font-weight="normal" text-anchor="start" style="mix-blend-mode: normal"><tspan x="0" dy="0">三菱蓝瑟</tspan></text><path d="M239.96459,221.54737h59.44444" fill="none" stroke-opacity="0.72549" stroke="#262626" stroke-width="6" stroke-linecap="round"/><path d="M299.40903,238.95478h-59.44444" fill="none" stroke-opacity="0.72549" stroke="#262626" stroke-width="6" stroke-linecap="round"/><text transform="translate(175.43035,223.88185) scale(0.20104,0.20104)" font-size="40" xml:space="preserve" fill="#bdbdbd" fill-rule="nonzero" stroke="#bdbdbd" stroke-width="2" stroke-linecap="butt" stroke-linejoin="miter" stroke-miterlimit="10" stroke-dasharray="" stroke-dashoffset="0" font-family="Sans Serif" font-weight="normal" text-anchor="start" style="mix-blend-mode: normal"><tspan x="0" dy="0">ACCELERATION</tspan></text><text transform="translate(174.59702,242.69925) scale(0.20104,0.20104)" font-size="40" xml:space="preserve" fill="#bdbdbd" fill-rule="nonzero" stroke="#bdbdbd" stroke-width="2" stroke-linecap="butt" stroke-linejoin="miter" stroke-miterlimit="10" stroke-dasharray="" stroke-dashoffset="0" font-family="Sans Serif" font-weight="normal" text-anchor="start" style="mix-blend-mode: normal"><tspan x="0" dy="0">GRIP</tspan></text><text transform="translate(175.43035,259.28507) scale(0.20104,0.20104)" font-size="40" xml:space="preserve" fill="#bdbdbd" fill-rule="nonzero" stroke="#bdbdbd" stroke-width="2" stroke-linecap="butt" stroke-linejoin="miter" stroke-miterlimit="10" stroke-dasharray="" stroke-dashoffset="0" font-family="Sans Serif" font-weight="normal" text-anchor="start" style="mix-blend-mode: normal"><tspan x="0" dy="0">TOP SPEED</tspan></text><path d="M299.40903,256.17699h-59.44444" fill="none" stroke-opacity="0.72549" stroke="#262626" stroke-width="6" stroke-linecap="round"/><path d="M240.24761,221.54737h7.96296" fill="none" stroke="#bdbdbd" stroke-width="6" stroke-linecap="round"/><path d="M263.19535,238.95478h-22.94774" fill="none" stroke="#bdbdbd" stroke-width="6" stroke-linecap="round"/><path d="M255.61798,256.17699h-15.37037" fill="none" stroke="#bdbdbd" stroke-width="6" stroke-linecap="round"/></g></g></svg>