<svg version="1.1" xmlns="http://www.w3.org/2000/svg" xmlns:xlink="http://www.w3.org/1999/xlink" width="278.70092" height="168.81313" viewBox="0,0,278.70092,168.81313"><defs><radialGradient cx="193.27216" cy="187.46766" r="29.07697" gradientUnits="userSpaceOnUse" id="color-1"><stop offset="0" stop-color="#ffffff"/><stop offset="1" stop-color="#ffffff" stop-opacity="0"/></radialGradient><radialGradient cx="235.4954" cy="170.35014" r="46.95525" gradientUnits="userSpaceOnUse" id="color-2"><stop offset="0" stop-color="#ffffff"/><stop offset="1" stop-color="#ffffff" stop-opacity="0"/></radialGradient><radialGradient cx="236.01591" cy="189.64989" r="46.95525" gradientUnits="userSpaceOnUse" id="color-3"><stop offset="0" stop-color="#ffffff"/><stop offset="1" stop-color="#ffffff" stop-opacity="0"/></radialGradient><radialGradient cx="262.34287" cy="193.71406" r="29.07697" gradientUnits="userSpaceOnUse" id="color-4"><stop offset="0" stop-color="#ffffff"/><stop offset="1" stop-color="#ffffff" stop-opacity="0"/></radialGradient><radialGradient cx="271.03177" cy="166.12578" r="29.07697" gradientUnits="userSpaceOnUse" id="color-5"><stop offset="0" stop-color="#ffffff"/><stop offset="1" stop-color="#ffffff" stop-opacity="0"/></radialGradient><radialGradient cx="286.72784" cy="192.8732" r="29.07697" gradientUnits="userSpaceOnUse" id="color-6"><stop offset="0" stop-color="#ffffff"/><stop offset="1" stop-color="#ffffff" stop-opacity="0"/></radialGradient></defs><g transform="translate(-103.98664,-92.9931)"><g data-paper-data="{&quot;isPaintingLayer&quot;:true}" fill-rule="nonzero" stroke="none" stroke-width="0" stroke-linecap="butt" stroke-linejoin="miter" stroke-miterlimit="10" stroke-dasharray="" stroke-dashoffset="0" style="mix-blend-mode: normal"><path d="M164.19519,187.46766c0,-16.05876 13.01821,-29.07697 29.07697,-29.07697c16.05879,0 29.07697,13.01821 29.07697,29.07697c0,16.05876 -13.01817,29.07697 -29.07697,29.07697c-16.05876,0 -29.07697,-13.01821 -29.07697,-29.07697z" fill="url(#color-1)"/><path d="M188.54012,170.35014c0,-25.93269 21.02258,-46.95528 46.95528,-46.95528c25.93269,0 46.95525,21.02258 46.95525,46.95528c0,25.93269 -21.02255,46.95525 -46.95525,46.95525c-25.93269,0 -46.95528,-21.02255 -46.95528,-46.95525z" fill="url(#color-2)"/><path d="M189.06063,189.64989c0,-25.93269 21.02258,-46.95528 46.95528,-46.95528c25.93269,0 46.95525,21.02258 46.95525,46.95528c0,25.93269 -21.02255,46.95525 -46.95525,46.95525c-25.93269,0 -46.95528,-21.02255 -46.95528,-46.95525z" fill="url(#color-3)"/><path d="M233.2659,193.71406c0,-16.05876 13.01821,-29.07697 29.07697,-29.07697c16.05876,0 29.07697,13.01821 29.07697,29.07697c0,16.05876 -13.01821,29.07697 -29.07697,29.07697c-16.05879,0 -29.07697,-13.01821 -29.07697,-29.07697z" fill="url(#color-4)"/><path d="M241.9548,166.12578c0,-16.05876 13.01821,-29.07697 29.07697,-29.07697c16.05876,0 29.07697,13.01821 29.07697,29.07697c0,16.05876 -13.01821,29.07697 -29.07697,29.07697c-16.05879,0 -29.07697,-13.01821 -29.07697,-29.07697z" fill="url(#color-5)"/><path d="M257.65087,192.8732c0,-16.05876 13.01821,-29.07697 29.07697,-29.07697c16.05879,0 29.07697,13.01821 29.07697,29.07697c0,16.05876 -13.01821,29.07697 -29.07697,29.07697c-16.05876,0 -29.07697,-13.01821 -29.07697,-29.07697z" fill="url(#color-6)"/><path d="M103.98664,261.80623v-168.81313h278.70092v168.81313z" fill="none"/></g></g></svg>