<svg version="1.1" xmlns="http://www.w3.org/2000/svg" xmlns:xlink="http://www.w3.org/1999/xlink" width="320.95283" height="320.95283" viewBox="0,0,320.95283,320.95283"><defs><radialGradient cx="228.88928" cy="180.96851" r="40.68799" gradientUnits="userSpaceOnUse" id="color-1"><stop offset="0" stop-color="#a4f157"/><stop offset="1" stop-color="#6c9f39"/></radialGradient><radialGradient cx="228.49623" cy="180.58159" r="22.86715" gradientUnits="userSpaceOnUse" id="color-2"><stop offset="0" stop-color="#58812f"/><stop offset="1" stop-color="#58812f" stop-opacity="0"/></radialGradient><radialGradient cx="228.75175" cy="180" r="10.07911" gradientUnits="userSpaceOnUse" id="color-3"><stop offset="0" stop-color="#b4a753"/><stop offset="1" stop-color="#eddc6c"/></radialGradient><radialGradient cx="298.97856" cy="165.34351" r="23.54513" gradientUnits="userSpaceOnUse" id="color-4"><stop offset="0" stop-color="#93f234"/><stop offset="1" stop-color="#77af3f"/></radialGradient><radialGradient cx="298.75111" cy="165.11961" r="13.23266" gradientUnits="userSpaceOnUse" id="color-5"><stop offset="0" stop-color="#58812f"/><stop offset="1" stop-color="#58812f" stop-opacity="0"/></radialGradient><radialGradient cx="298.89898" cy="164.78306" r="5.83253" gradientUnits="userSpaceOnUse" id="color-6"><stop offset="0" stop-color="#b4a753"/><stop offset="1" stop-color="#eddc6c"/></radialGradient></defs><g transform="translate(-79.52358,-19.52359)"><g data-paper-data="{&quot;isPaintingLayer&quot;:true}" fill-rule="nonzero" stroke-width="0" stroke-linecap="butt" stroke-linejoin="miter" stroke-miterlimit="10" stroke-dasharray="" stroke-dashoffset="0" style="mix-blend-mode: normal"><path d="M234.78507,221.63409c-4.4919,0.44256 -11.23563,-5.95317 -11.23563,-5.95317c0,0 -8.37325,4.27557 -11.4181,1.50335c-4.34645,-2.67273 -3.93485,-8.74883 -3.93485,-8.74883c0,0 -9.63178,-1.82407 -10.78309,-3.29562c-3.08151,-3.93862 -0.23357,-10.44911 -0.23357,-10.44911c0,0 -8.34364,-3.00929 -8.93546,-7.56351c-0.5677,-4.36861 4.66356,-10.45557 4.66356,-10.45557c0,0 -5.06765,-7.15367 -3.99039,-9.96585c1.14105,-2.97857 10.18093,-7.58264 10.18093,-7.58264c0,0 0.20044,-8.32721 3.74652,-10.52891c2.93363,-1.82142 10.09469,-2.07008 10.09469,-2.07008c0,0 4.45936,-5.61861 8.2767,-6.16023c5.06859,-0.71917 11.35755,3.47442 11.35755,3.47442c0,0 7.1224,-5.3082 12.30512,-2.18755c2.59619,1.17512 4.90868,7.46953 4.90868,7.46953c0,0 8.58443,0.5274 10.64165,5.75603c1.33792,3.40043 0.32549,9.16066 0.32549,9.16066c0,0 7.37305,2.3759 8.51833,6.36098c1.55536,4.92091 -3.36249,10.85454 -3.36249,10.85454c0,0 4.52811,7.44386 3.03085,11.85629c-1.40063,4.12765 -6.85973,8.49255 -6.85973,8.49255c0,0 0.82068,8.07213 -4.7756,12.06718c-3.52262,2.51472 -11.54165,0.84768 -11.54165,0.84768c0,0 -5.77999,6.60553 -10.97953,7.11784z" data-paper-data="{&quot;index&quot;:null}" fill="url(#color-1)" stroke="#49ac26"/><path d="M205.62908,180.58159c0,-12.62918 10.23797,-22.86715 22.86715,-22.86715c12.62918,0 22.86715,10.23798 22.86715,22.86715c0,12.62918 -10.23798,22.86715 -22.86715,22.86715c-12.62918,0 -22.86715,-10.23797 -22.86715,-22.86715z" fill="url(#color-2)" stroke="none"/><path d="M198.62433,159.28483l0.42367,-0.82845l23.79522,15.60893l-1.24934,1.89529z" fill="#eddc6c" stroke="none"/><path d="M212.43549,146.41404l0.64267,-0.03926l12.72646,25.61755l-2.68892,2.07113z" fill="#eddc6c" stroke="none"/><path d="M232.30837,143.2918l1.15556,0.12322l-3.11505,29.65195l-1.65781,-0.22943z" fill="#eddc6c" stroke="none"/><path d="M249.50594,148.19833l0.89019,0.89216l-16.82995,26.03705l-1.11974,-1.25448z" fill="#eddc6c" stroke="none"/><path d="M260.54172,162.98236l0.69435,1.25956l-25.02351,13.81201l-1.09352,-1.98927z" fill="#eddc6c" stroke="none"/><path d="M265.97401,181.37441l0.26484,1.04823l-31.20324,-1.6414l0.57416,-1.58046z" fill="#eddc6c" stroke="none"/><path d="M262.52516,201.05843l-0.33742,0.96553l-25.88534,-16.45295l0.36982,-2.101z" fill="#eddc6c" stroke="none"/><path d="M246.31258,214.56684l-1.09431,0.33249l-13.52784,-28.58714l1.34398,-0.21702z" fill="#eddc6c" stroke="none"/><path d="M224.4895,215.89478l-1.36897,-0.11488l3.10871,-29.85365l1.90068,0.07217z" fill="#eddc6c" stroke="none"/><path d="M208.39766,208.63194l-0.80995,-0.54367l17.42231,-24.39874l2.02284,1.04512z" fill="#eddc6c" stroke="none"/><path d="M197.19083,195.33809l-0.49593,-1.04868l26.69839,-15.81328l1.30361,2.35356z" fill="#eddc6c" stroke="none"/><path d="M192.42171,177.77728l0.6151,-1.21698l27.55906,-1.02063l-0.37157,2.45846z" fill="#eddc6c" stroke="none"/><path d="M224.68022,207.10052l4.73599,-0.34383l-1.69844,-5.22002l2.51429,4.6952l2.63085,-2.46109l-1.13658,2.94662l4.28417,0.76081l-5.12966,0.58409l0.86193,4.66562l-1.77357,-4.18599l-2.00311,2.10267l1.27731,-2.82146z" fill="#eddc6c" stroke="none"/><path d="M198.27882,194.14982l6.7657,-0.49118l-2.42634,-7.45719l3.59185,6.70743l3.75835,-3.51586l-1.62367,4.20943l6.12023,1.08689l-7.32809,0.8344l1.23133,6.66518l-2.53369,-5.98001l-2.86161,3.00383l1.82474,-4.03067z" fill="#eddc6c" stroke="none"/><path d="M243.16838,190.69678l6.76572,-0.4912l-2.42634,-7.45719l3.59185,6.70743l3.75835,-3.51584l-1.62367,4.20943l6.12023,1.08689l-7.32809,0.8344l1.23133,6.66518l-2.53367,-5.98001l-2.86161,3.00382l1.82474,-4.03065z" fill="#eddc6c" stroke="none"/><path d="M228.96055,187.74909l4.73599,-0.34383l-1.69844,-5.22002l2.51429,4.69522l2.63085,-2.46109l-1.13656,2.94662l4.28417,0.76083l-5.12966,0.58407l0.86193,4.66562l-1.77357,-4.18601l-2.00311,2.10267l1.27731,-2.82146z" fill="#eddc6c" stroke="none"/><path d="M204.28568,176.13105l4.73599,-0.34383l-1.69844,-5.22002l2.51428,4.6952l2.63085,-2.46109l-1.13656,2.94662l4.28417,0.76081l-5.12966,0.58409l0.86193,4.66562l-1.77357,-4.18601l-2.00311,2.10267l1.27731,-2.82146z" fill="#eddc6c" stroke="none"/><path d="M207.91745,157.86915l6.79623,-0.49341l-2.43728,-7.49084l3.60805,6.73771l3.77533,-3.5317l-1.631,4.22842l6.14785,1.09179l-7.36117,0.83818l1.23689,6.69526l-2.5451,-6.00699l-2.87453,3.01737l1.83299,-4.04884z" fill="#eddc6c" stroke="none"/><path d="M233.74334,157.26316l5.97428,-0.43374l-2.14251,-6.58485l3.17168,5.92281l3.31871,-3.10457l-1.43372,3.71702l5.4043,0.95974l-6.47087,0.7368l1.08729,5.8855l-2.2373,-5.28047l-2.52685,2.65243l1.61129,-3.55916z" fill="#eddc6c" stroke="none"/><path d="M251.26034,170.57178l5.97426,-0.43372l-2.14251,-6.58485l3.17168,5.92281l3.31871,-3.10457l-1.43374,3.71702l5.40432,0.95974l-6.47087,0.7368l1.08729,5.8855l-2.2373,-5.28047l-2.52685,2.65243l1.61129,-3.55916z" fill="#eddc6c" stroke="none"/><path d="M230.21223,189.03267c-1.11273,0.09831 -2.78324,-1.32232 -2.78324,-1.32232c0,0 -2.0742,0.94969 -2.82846,0.33392c-1.07669,-0.59367 -0.97473,-1.9433 -0.97473,-1.9433c0,0 -2.38595,-0.40516 -2.67115,-0.73203c-0.76333,-0.87484 -0.05785,-2.32096 -0.05785,-2.32096c0,0 -2.06687,-0.66842 -2.21346,-1.68c-0.14063,-0.97035 1.15525,-2.3224 1.15525,-2.3224c0,0 -1.25534,-1.58897 -0.98849,-2.21361c0.28265,-0.6616 2.52199,-1.68426 2.52199,-1.68426c0,0 0.04965,-1.84965 0.92807,-2.33868c0.72672,-0.40457 2.50061,-0.4598 2.50061,-0.4598c0,0 1.10466,-1.24801 2.05028,-1.36831c1.25556,-0.15974 2.81347,0.77175 2.81347,0.77175c0,0 1.76435,-1.17906 3.0482,-0.48591c0.64311,0.26103 1.21597,1.65914 1.21597,1.65914c0,0 2.12652,0.11715 2.63612,1.27853c0.33144,0.7553 0.08063,2.03477 0.08063,2.03477c0,0 1.82643,0.52774 2.11013,1.41291c0.38529,1.09302 -0.83295,2.41102 -0.83295,2.41102c0,0 1.12168,1.65343 0.75079,2.63352c-0.34696,0.91683 -1.69928,1.88636 -1.69928,1.88636c0,0 0.2033,1.79299 -1.18298,2.68037c-0.87262,0.55856 -2.85906,0.18829 -2.85906,0.18829c0,0 -1.43181,1.46724 -2.71982,1.58103z" data-paper-data="{&quot;index&quot;:null}" fill="url(#color-3)" stroke="#49ac26"/><path d="M302.3903,188.87567c-2.59935,0.2561 -6.50178,-3.44495 -6.50178,-3.44495c0,0 -4.84539,2.47416 -6.60737,0.86995c-2.51518,-1.54665 -2.277,-5.06273 -2.277,-5.06273c0,0 -5.57368,-1.05554 -6.23991,-1.90709c-1.78319,-2.27918 -0.13516,-6.04664 -0.13516,-6.04664c0,0 -4.82826,-1.7414 -5.17073,-4.37681c-0.32851,-2.52801 2.69869,-6.05038 2.69869,-6.05038c0,0 -2.93252,-4.13965 -2.30914,-5.76699c0.6603,-1.72362 5.89145,-4.38789 5.89145,-4.38789c0,0 0.11599,-4.81875 2.16802,-6.09282c1.69762,-1.05401 5.84154,-1.19791 5.84154,-1.19791c0,0 2.58052,-3.25135 4.78952,-3.56477c2.93306,-0.41617 6.57234,2.01056 6.57234,2.01056c0,0 4.12156,-3.07173 7.12066,-1.26588c1.50235,0.68001 2.84053,4.32243 2.84053,4.32243c0,0 4.9676,0.30519 6.15806,3.33087c0.77422,1.96775 0.18836,5.30105 0.18836,5.30105c0,0 4.2666,1.37488 4.92934,3.68094c0.90005,2.84761 -1.94579,6.28126 -1.94579,6.28126c0,0 2.62031,4.30757 1.75388,6.86094c-0.81051,2.38857 -3.96956,4.91443 -3.96956,4.91443c0,0 0.4749,4.67114 -2.76353,6.98298c-2.03845,1.45521 -6.67886,0.49053 -6.67886,0.49053c0,0 -3.34474,3.82246 -6.35358,4.11892z" data-paper-data="{&quot;index&quot;:null}" fill="url(#color-4)" stroke="#49ac26"/><path d="M285.51845,165.11961c0,-7.3082 5.92446,-13.23265 13.23266,-13.23265c7.3082,0 13.23266,5.92446 13.23266,13.23265c0,7.3082 -5.92446,13.23265 -13.23266,13.23265c-7.3082,0 -13.23266,-5.92445 -13.23266,-13.23265z" fill="url(#color-5)" stroke="none"/><path d="M281.46498,152.7957l0.24517,-0.4794l13.7697,9.0325l-0.72296,1.09675z" fill="#eddc6c" stroke="none"/><path d="M289.45716,145.34769l0.37189,-0.02272l7.36449,14.82424l-1.55601,1.19851z" fill="#eddc6c" stroke="none"/><path d="M300.9571,143.54093l0.6687,0.0713l-1.80261,17.15885l-0.95933,-0.13277z" fill="#eddc6c" stroke="none"/><path d="M310.90891,146.38022l0.51513,0.51627l-9.73908,15.06699l-0.64796,-0.72593z" fill="#eddc6c" stroke="none"/><path d="M317.29504,154.93537l0.40181,0.72887l-14.48049,7.99267l-0.63279,-1.15114z" fill="#eddc6c" stroke="none"/><path d="M320.43857,165.5784l0.15326,0.60658l-18.05654,-0.94984l0.33225,-0.91457z" fill="#eddc6c" stroke="none"/><path d="M318.44281,176.96905l-0.19526,0.55872l-14.97921,-9.52092l0.21401,-1.21579z" fill="#eddc6c" stroke="none"/><path d="M309.06099,184.78603l-0.63325,0.1924l-7.82822,-16.54267l0.77772,-0.12559z" fill="#eddc6c" stroke="none"/><path d="M296.43252,185.55448l-0.79219,-0.06648l1.79894,-17.27556l1.09987,0.04176z" fill="#eddc6c" stroke="none"/><path d="M287.12057,181.35165l-0.4687,-0.31461l10.08186,-14.11894l1.17057,0.60478z" fill="#eddc6c" stroke="none"/><path d="M280.63545,173.65883l-0.28698,-0.60684l15.4497,-9.15076l0.75437,1.36194z" fill="#eddc6c" stroke="none"/><path d="M277.87568,163.49683l0.35594,-0.70424l15.94774,-0.59061l-0.21501,1.42265z" fill="#eddc6c" stroke="none"/><path d="M296.54288,180.46546l2.7406,-0.19896l-0.98284,-3.0207l1.45495,2.71699l1.52241,-1.42417l-0.65771,1.70514l2.47914,0.44026l-2.96841,0.338l0.49878,2.69987l-1.02632,-2.42233l-1.15915,1.21676l0.73915,-1.6327z" fill="#eddc6c" stroke="none"/><path d="M281.26505,172.97121l3.91514,-0.28423l-1.40406,-4.31529l2.07851,3.88143l2.17486,-2.03454l-0.93957,2.43589l3.54163,0.62896l-4.24059,0.48284l0.71254,3.85698l-1.46618,-3.46049l-1.65594,1.73825l1.05593,-2.33245z" fill="#eddc6c" stroke="none"/><path d="M307.24152,170.97302l3.91516,-0.28425l-1.40407,-4.31529l2.07851,3.88143l2.17487,-2.03453l-0.93958,2.4359l3.54163,0.62895l-4.24058,0.48284l0.71254,3.85698l-1.46618,-3.46049l-1.65594,1.73824l1.05593,-2.33244z" fill="#eddc6c" stroke="none"/><path d="M299.0198,169.26727l2.7406,-0.19897l-0.98284,-3.0207l1.45495,2.71701l1.52241,-1.42418l-0.6577,1.70514l2.47914,0.44028l-2.96841,0.33798l0.49878,2.69988l-1.02632,-2.42234l-1.15915,1.21676l0.73914,-1.63271z" fill="#eddc6c" stroke="none"/><path d="M284.74107,162.54419l2.7406,-0.19896l-0.98284,-3.02069l1.45495,2.71699l1.52241,-1.42417l-0.6577,1.70513l2.47915,0.44026l-2.96841,0.338l0.49878,2.69988l-1.02632,-2.42234l-1.15915,1.21676l0.73915,-1.63271z" fill="#eddc6c" stroke="none"/><path d="M286.84268,151.97648l3.93281,-0.28552l-1.41039,-4.33477l2.08789,3.89895l2.18469,-2.04371l-0.94382,2.44688l3.55761,0.63179l-4.25973,0.48503l0.71576,3.87438l-1.47278,-3.47609l-1.66342,1.74608l1.0607,-2.34296z" fill="#eddc6c" stroke="none"/><path d="M301.78748,151.62581l3.45717,-0.251l-1.23982,-3.81049l1.83537,3.42739l1.92046,-1.79654l-0.82966,2.15095l3.12734,0.55538l-3.74453,0.42637l0.62918,3.40579l-1.29467,-3.05568l-1.46222,1.5349l0.93241,-2.0596z" fill="#eddc6c" stroke="none"/><path d="M311.92414,159.32718l3.45716,-0.25099l-1.23982,-3.81049l1.83537,3.42738l1.92046,-1.79654l-0.82966,2.15095l3.12734,0.55538l-3.74453,0.42637l0.62919,3.40579l-1.29467,-3.05568l-1.46223,1.5349l0.93241,-2.0596z" fill="#eddc6c" stroke="none"/><path d="M299.74412,170.01004c-0.64391,0.05689 -1.61059,-0.7652 -1.61059,-0.7652c0,0 -1.20029,0.54956 -1.63676,0.19323c-0.62306,-0.34354 -0.56405,-1.12454 -0.56405,-1.12454c0,0 -1.38069,-0.23445 -1.54573,-0.42361c-0.44172,-0.50625 -0.03348,-1.34309 -0.03348,-1.34309c0,0 -1.19604,-0.3868 -1.28087,-0.97217c-0.08138,-0.56151 0.66852,-1.34392 0.66852,-1.34392c0,0 -0.72644,-0.91949 -0.57202,-1.28096c0.16357,-0.38285 1.45941,-0.97464 1.45941,-0.97464c0,0 0.02873,-1.07035 0.53706,-1.35334c0.42053,-0.23412 1.44704,-0.26608 1.44704,-0.26608c0,0 0.63924,-0.72219 1.18644,-0.7918c0.72656,-0.09244 1.62808,0.44659 1.62808,0.44659c0,0 1.02099,-0.68229 1.76392,-0.28118c0.37215,0.15105 0.70365,0.9601 0.70365,0.9601c0,0 1.23056,0.0678 1.52546,0.73986c0.1918,0.43707 0.04666,1.17747 0.04666,1.17747c0,0 1.05691,0.30539 1.22108,0.81761c0.22296,0.63251 -0.48201,1.3952 -0.48201,1.3952c0,0 0.64909,0.95679 0.43446,1.52395c-0.20078,0.53054 -0.98333,1.09159 -0.98333,1.09159c0,0 0.11764,1.03756 -0.68456,1.55107c-0.50497,0.32323 -1.65447,0.10896 -1.65447,0.10896c0,0 -0.82855,0.84905 -1.57389,0.9149z" data-paper-data="{&quot;index&quot;:null}" fill="url(#color-6)" stroke="#49ac26"/><path d="M79.52359,340.47643v-320.95283h320.95283v320.95283z" fill="none" stroke="none"/></g></g></svg>