<svg version="1.1" xmlns="http://www.w3.org/2000/svg" xmlns:xlink="http://www.w3.org/1999/xlink" width="484.97563" height="360.53869" viewBox="0,0,484.97563,360.53869"><defs><radialGradient cx="239.93028" cy="155.24259" r="122.5535" gradientUnits="userSpaceOnUse" id="color-1"><stop offset="0" stop-color="#e62323"/><stop offset="1" stop-color="#ff2626"/></radialGradient><radialGradient cx="235.89098" cy="201.13472" r="122.55348" gradientUnits="userSpaceOnUse" id="color-2"><stop offset="0" stop-color="#e62323"/><stop offset="1" stop-color="#ff2626"/></radialGradient><linearGradient x1="237.56947" y1="140.30514" x2="237.56947" y2="126.58771" gradientUnits="userSpaceOnUse" id="color-3"><stop offset="0" stop-color="#8b1515" stop-opacity="0"/><stop offset="1" stop-color="#8b1515"/></linearGradient><radialGradient cx="149.1282" cy="214.12062" r="20.83108" gradientUnits="userSpaceOnUse" id="color-4"><stop offset="0" stop-color="#fa4a4a"/><stop offset="1" stop-color="#fa4a4a" stop-opacity="0"/></radialGradient><radialGradient cx="242.34089" cy="177.48506" r="121.01695" gradientUnits="userSpaceOnUse" id="color-5"><stop offset="0" stop-color="#e62323"/><stop offset="1" stop-color="#ff2626"/></radialGradient><linearGradient x1="362.79781" y1="181.88817" x2="351.52725" y2="181.88817" gradientUnits="userSpaceOnUse" id="color-6"><stop offset="0" stop-color="#b01a1a"/><stop offset="1" stop-color="#b01a1a" stop-opacity="0"/></linearGradient><linearGradient x1="275.54406" y1="179.18532" x2="308.64627" y2="179.18532" gradientUnits="userSpaceOnUse" id="color-7"><stop offset="0" stop-color="#b01a1a"/><stop offset="1" stop-color="#b01a1a" stop-opacity="0"/></linearGradient><linearGradient x1="237.56947" y1="219.89613" x2="237.56947" y2="233.61357" gradientUnits="userSpaceOnUse" id="color-8"><stop offset="0" stop-color="#8b1515" stop-opacity="0"/><stop offset="1" stop-color="#8b1515"/></linearGradient><linearGradient x1="117.59097" y1="179.8134" x2="128.4174" y2="179.8134" gradientUnits="userSpaceOnUse" id="color-9"><stop offset="0" stop-color="#b01a1a"/><stop offset="1" stop-color="#b01a1a" stop-opacity="0"/></linearGradient><radialGradient cx="263.3386" cy="182.15013" r="43.97612" gradientUnits="userSpaceOnUse" id="color-10"><stop offset="0" stop-color="#3d3d3d"/><stop offset="1" stop-color="#1b1b1b"/></radialGradient><radialGradient cx="248.20195" cy="137.75693" r="88.56097" gradientUnits="userSpaceOnUse" id="color-11"><stop offset="0" stop-color="#fa4a4a"/><stop offset="1" stop-color="#fa4a4a" stop-opacity="0"/></radialGradient><radialGradient cx="232.64693" cy="143.44198" r="34.58538" gradientUnits="userSpaceOnUse" id="color-12"><stop offset="0" stop-color="#3d3d3d"/><stop offset="1" stop-color="#1b1b1b"/></radialGradient><radialGradient cx="263.3386" cy="177.84989" r="43.97612" gradientUnits="userSpaceOnUse" id="color-13"><stop offset="0" stop-color="#3d3d3d"/><stop offset="1" stop-color="#1b1b1b"/></radialGradient><radialGradient cx="248.20195" cy="222.30959" r="88.56097" gradientUnits="userSpaceOnUse" id="color-14"><stop offset="0" stop-color="#fa4a4a"/><stop offset="1" stop-color="#fa4a4a" stop-opacity="0"/></radialGradient><radialGradient cx="232.64693" cy="216.55805" r="34.58538" gradientUnits="userSpaceOnUse" id="color-15"><stop offset="0" stop-color="#3d3d3d"/><stop offset="1" stop-color="#1b1b1b"/></radialGradient><radialGradient cx="171.82441" cy="178.3376" r="33.21982" gradientUnits="userSpaceOnUse" id="color-16"><stop offset="0" stop-color="#3d3d3d"/><stop offset="1" stop-color="#1b1b1b"/></radialGradient><radialGradient cx="150.49325" cy="146.21186" r="20.83108" gradientUnits="userSpaceOnUse" id="color-17"><stop offset="0" stop-color="#fa4a4a"/><stop offset="1" stop-color="#fa4a4a" stop-opacity="0"/></radialGradient><linearGradient x1="133.82777" y1="179.9996" x2="149.08517" y2="179.9996" gradientUnits="userSpaceOnUse" id="color-18"><stop offset="0" stop-color="#640f0f"/><stop offset="1" stop-color="#640f0f" stop-opacity="0"/></linearGradient><linearGradient x1="149.94632" y1="179.95984" x2="124.64453" y2="179.95984" gradientUnits="userSpaceOnUse" id="color-19"><stop offset="0" stop-color="#c11313"/><stop offset="1" stop-color="#f62525"/></linearGradient><radialGradient cx="222.20007" cy="154.55037" r="20.83107" gradientUnits="userSpaceOnUse" id="color-20"><stop offset="0" stop-color="#fa4a4a"/><stop offset="1" stop-color="#fa4a4a" stop-opacity="0"/></radialGradient><radialGradient cx="221.63631" cy="204.87726" r="20.83107" gradientUnits="userSpaceOnUse" id="color-21"><stop offset="0" stop-color="#fa4a4a"/><stop offset="1" stop-color="#fa4a4a" stop-opacity="0"/></radialGradient><linearGradient x1="336.59212" y1="214.9756" x2="325.71841" y2="214.9756" gradientUnits="userSpaceOnUse" id="color-22"><stop offset="0" stop-color="#cb1e1e"/><stop offset="1" stop-color="#cb1e1e" stop-opacity="0"/></linearGradient><linearGradient x1="336.30407" y1="144.94698" x2="325.43035" y2="144.94698" gradientUnits="userSpaceOnUse" id="color-23"><stop offset="0" stop-color="#cb1e1e"/><stop offset="1" stop-color="#cb1e1e" stop-opacity="0"/></linearGradient><linearGradient x1="343.60244" y1="214.79491" x2="333.27651" y2="214.79491" gradientUnits="userSpaceOnUse" id="color-24"><stop offset="0" stop-color="#e62323"/><stop offset="1" stop-color="#b81c1c"/></linearGradient><linearGradient x1="343.55115" y1="145.24514" x2="333.22522" y2="145.24514" gradientUnits="userSpaceOnUse" id="color-25"><stop offset="0" stop-color="#e62323"/><stop offset="1" stop-color="#b81c1c"/></linearGradient></defs><g transform="translate(2.63138,-1.09611)"><g data-paper-data="{&quot;isPaintingLayer&quot;:true}" fill-rule="nonzero" stroke-linejoin="miter" stroke-miterlimit="10" stroke-dasharray="" stroke-dashoffset="0" style="mix-blend-mode: normal"><path d="M117.37678,183.1414c0,0 0.84598,-19.37527 2.60115,-27.47676c1.54421,-7.1277 6.16862,-18.58591 6.16862,-18.58591c0,0 23.87945,-10.10503 57.22519,-9.72444c12.94734,0.14777 12.85478,2.57023 46.56762,2.26871c13.764,-0.1231 31.22858,-1.16025 43.24552,-1.22716c17.17827,-0.09565 31.25244,-0.4401 38.44363,-0.68189c11.61002,-0.39036 22.86569,1.50221 22.86569,1.50221c0,0 9.6583,-0.02346 16.4224,7.64856c3.49493,3.96403 6.17774,9.71131 8.32368,16.71379c4.27857,13.96155 3.09266,29.56287 3.09266,29.56287z" data-paper-data="{&quot;index&quot;:null}" fill="url(#color-1)" stroke="#000000" stroke-width="0" stroke-linecap="butt"/><path d="M362.33291,177.07365c0,0 1.18591,15.60131 -3.09266,29.56287c-2.14593,7.00247 -4.82875,12.74976 -8.32367,16.71379c-6.7641,7.67203 -16.4224,7.64856 -16.4224,7.64856c0,0 -11.25566,1.89257 -22.86568,1.50221c-7.19119,-0.2418 -21.26535,-0.58625 -38.44362,-0.68189c-12.01693,-0.06691 -29.4815,-1.10406 -43.24551,-1.22716c-33.71283,-0.30152 -33.62027,2.12095 -46.56762,2.26872c-33.34574,0.38059 -57.22519,-9.72444 -57.22519,-9.72444c0,0 -4.62442,-11.45822 -6.16862,-18.58591c-1.75517,-8.10149 -2.60115,-27.47676 -2.60115,-27.47676z" data-paper-data="{&quot;index&quot;:null}" fill="url(#color-2)" stroke="#000000" stroke-width="0" stroke-linecap="butt"/><path d="M318.64856,127.48084c0,0 17.95541,0.87686 23.53408,2.92203c6.04435,2.21589 11.44711,9.90227 11.44711,9.90227l-230.18544,3.27483l2.23284,-6.27463c0,0 12.43987,-5.36197 31.02973,-8.45256c8.69714,-1.44591 19.90313,-2.27839 29.6919,-2.04398c5.6481,0.13526 9.922,1.15618 15.05007,1.69572c5.00752,0.52685 10.88487,0.57393 15.10757,0.59306c12.84644,0.0582 29.76237,-0.46244 47.04109,-0.75991c27.88926,-0.48015 55.05105,-0.85683 55.05105,-0.85683z" data-paper-data="{&quot;index&quot;:null}" fill="url(#color-3)" stroke="none" stroke-width="0" stroke-linecap="butt"/><path d="M149.46902,211.67001c11.39501,1.58477 20.4799,3.96665 20.29167,5.32008c-0.18823,1.35343 -9.5783,1.1659 -20.97331,-0.41887c-11.39501,-1.58477 -20.4799,-3.96665 -20.29167,-5.32008c0.18823,-1.35343 9.5783,-1.1659 20.97331,0.41887z" data-paper-data="{&quot;index&quot;:null}" fill="url(#color-4)" stroke="none" stroke-width="0" stroke-linecap="butt"/><path d="M118.70941,191.56927v-27.58475h242.0339v27.58475z" data-paper-data="{&quot;index&quot;:null}" fill="url(#color-5)" stroke="#000000" stroke-width="0" stroke-linecap="butt"/><path d="M342.13714,229.54212l-0.3191,-98.8875c0,0 10.49243,3.89304 15.91242,17.14396c4.96787,12.14557 4.90334,33.60223 4.89109,36.48594c-0.01071,2.52281 -2.2761,21.07134 -7.10209,31.18243c-5.38094,11.27378 -13.38233,14.07518 -13.38233,14.07518z" data-paper-data="{&quot;index&quot;:null}" fill="url(#color-6)" stroke="none" stroke-width="0" stroke-linecap="butt"/><path d="M276.54717,220.51293l-1.0031,-80.4484l44.93875,1.0031l-3.20991,78.44219z" data-paper-data="{&quot;index&quot;:null}" fill="url(#color-7)" stroke="none" stroke-width="0" stroke-linecap="butt"/><path d="M318.64855,232.72042c0,0 -27.16178,-0.37668 -55.05105,-0.85683c-17.27872,-0.29748 -34.19464,-0.81811 -47.04108,-0.75991c-4.2227,0.01914 -10.10005,0.06621 -15.10758,0.59306c-5.12807,0.53953 -9.40196,1.56047 -15.05006,1.69572c-9.78877,0.23441 -20.99476,-0.59807 -29.69191,-2.04398c-18.58986,-3.09059 -31.02972,-8.45256 -31.02972,-8.45256l-2.23284,-6.27463l230.18544,3.27484c0,0 -5.40275,7.68638 -11.44711,9.90227c-5.57866,2.04517 -23.53408,2.92203 -23.53408,2.92203z" data-paper-data="{&quot;index&quot;:null}" fill="url(#color-8)" stroke="none" stroke-width="0" stroke-linecap="butt"/><path d="M126.58042,137.10222c0,0 8.9929,-3.5048 11.56686,-4.07319c2.51997,-0.55646 7.71529,3.29061 7.71529,3.29061l-1.7543,91.78868c0,0 -6.5158,-1.52597 -8.58036,-1.94468c-1.00189,1.28012 -9.29323,-3.67801 -9.29323,-3.67801c0,0 -3.54147,-5.88149 -5.2274,-14.7039c-2.60996,-13.65775 -3.67017,-33.39779 -2.69945,-41.79649c1.36035,-11.76984 8.27259,-28.883 8.27259,-28.883z" data-paper-data="{&quot;index&quot;:null}" fill="url(#color-9)" stroke="none" stroke-width="0" stroke-linecap="butt"/><path d="M136.12438,139.00421c0,0 5.96293,-3.71944 40.89172,-5.79904c15.93731,-0.94888 34.84323,-0.36147 66.78239,-0.64088c121.8041,-1.06557 104.1081,4.20409 104.1081,4.20409" data-paper-data="{&quot;index&quot;:null}" fill="none" stroke="#b41b1b" stroke-width="0.5" stroke-linecap="round"/><path d="M244.78617,210.09332c0,0 3.66468,-22.77998 3.66468,-33.44018c0,-9.51865 -3.66468,-27.48508 -3.66468,-27.48508l28.85933,-9.61978c0,0 17.56119,1.71495 16.72655,39.39661c-0.86072,38.8591 -17.18463,41.68437 -17.18463,41.68437z" data-paper-data="{&quot;index&quot;:null}" fill="url(#color-10)" stroke="#000000" stroke-width="1" stroke-linecap="butt"/><path d="M342.35049,131.27817l2.34048,7.02142" data-paper-data="{&quot;index&quot;:null}" fill="none" stroke="#000000" stroke-width="0.5" stroke-linecap="round"/><path d="M333.3158,141.00014l-54.91111,-1.08022l-9.73356,-1.70486l6.15223,-7.04943v-2.94795" data-paper-data="{&quot;index&quot;:null}" fill="none" stroke="#9a1717" stroke-width="0.5" stroke-linecap="round"/><path d="M349.03886,153.10674c0,0 2.77708,9.35168 3.35428,13.96922c0.55001,4.40006 0.70836,15.4349 0.70836,15.4349" data-paper-data="{&quot;index&quot;:null}" fill="none" stroke="#000000" stroke-width="0.5" stroke-linecap="round"/><path d="M360.00997,155.82162c0,0 -6.99199,-12.4403 -8.33896,-15.31689c-0.67845,-1.44888 0.13599,-2.75528 0.13599,-2.75528" data-paper-data="{&quot;index&quot;:null}" fill="none" stroke="#9a1717" stroke-width="0.5" stroke-linecap="round"/><path d="M134.0706,144.88095c0,0 -3.74297,3.28006 -4.51714,5.23052c-1.35317,3.40921 -0.46476,-7.53348 1.31205,-10.74235c1.37409,-2.48155 6.40939,-4.2292 6.40939,-4.2292l-3.20429,9.74103z" data-paper-data="{&quot;index&quot;:null}" fill="#af0000" stroke="#000000" stroke-width="0" stroke-linecap="butt"/><path d="M157.29411,152.29265c0,0 5.27448,-6.40897 20.99875,-11.235c10.41696,-3.19713 33.73232,-3.88806 33.73232,-3.88806" data-paper-data="{&quot;index&quot;:null}" fill="none" stroke="#9a1717" stroke-width="0.5" stroke-linecap="round"/><path d="M159.64106,137.88712c-0.05158,-0.96162 39.55664,-1.79946 88.46745,-1.87136c48.91081,-0.0719 88.60271,0.64936 88.65429,1.61098c0.05158,0.96162 -39.55664,1.79946 -88.46745,1.87136c-48.91081,0.0719 -88.6027,-0.64936 -88.65428,-1.61098z" data-paper-data="{&quot;index&quot;:null}" fill="url(#color-11)" stroke="none" stroke-width="0" stroke-linecap="butt"/><path d="M236.99872,148.70995c0,0 -21.56274,0.87299 -27.66211,-0.70755c-6.02675,-1.56172 -8.71887,-8.71993 -8.71887,-8.71993c0,0 7.49645,-2.43065 18.97468,-2.46914c18.84248,-0.06319 47.18848,1.34064 47.18848,1.34064l-29.78217,10.55599z" data-paper-data="{&quot;index&quot;:null}" fill="url(#color-12)" stroke="#000000" stroke-width="1" stroke-linecap="butt"/><path d="M238.16883,173.93978h-27.82135" data-paper-data="{&quot;index&quot;:null}" fill="none" stroke="#9a1717" stroke-width="0.5" stroke-linecap="round"/><path d="M134.40484,144.70786c0,0 30.98421,-5.83237 51.29585,-2.89802c8.15248,1.17777 14.14053,10.68451 14.14053,10.68451c0,0 24.25614,0.00759 32.30685,-0.49079c6.31621,-0.39101 12.06889,-2.25627 12.06889,-2.25627" data-paper-data="{&quot;index&quot;:null}" fill="none" stroke="#9a1717" stroke-width="0.5" stroke-linecap="round"/><path d="M200.06568,179.98787l-0.3024,-27.82135" data-paper-data="{&quot;index&quot;:null}" fill="none" stroke="#9a1717" stroke-width="0.5" stroke-linecap="round"/><path d="M279.18108,140.2727c0,0 12.76917,4.07354 14.08843,39.15198c1.12719,29.97154 -14.38504,39.44971 -14.38504,39.44971" data-paper-data="{&quot;index&quot;:null}" fill="none" stroke="#000000" stroke-width="0.5" stroke-linecap="round"/><path d="M347.90659,223.23167c0,0 17.69599,5.26965 -104.1081,4.20409c-31.93915,-0.2794 -50.84508,0.308 -66.78239,-0.64088c-34.92879,-2.0796 -40.89172,-5.79904 -40.89172,-5.79904" data-paper-data="{&quot;index&quot;:null}" fill="none" stroke="#b41b1b" stroke-width="0.5" stroke-linecap="round"/><path d="M273.18742,139.37079c0,0 16.3239,2.82528 17.18463,41.68437c0.83465,37.68167 -16.72655,39.39661 -16.72655,39.39661l-28.85933,-9.61978c0,0 3.66468,-17.96643 3.66468,-27.48508c0,-10.6602 -3.66468,-33.44018 -3.66468,-33.44018z" data-paper-data="{&quot;index&quot;:null}" fill="url(#color-13)" stroke="#000000" stroke-width="1" stroke-linecap="butt"/><path d="M342.35049,228.72186l2.34048,-7.02142" data-paper-data="{&quot;index&quot;:null}" fill="none" stroke="#000000" stroke-width="0.5" stroke-linecap="round"/><path d="M274.82336,231.78234v-2.94795l-6.15223,-7.04943l9.73356,-1.70486l54.91111,-1.08022" data-paper-data="{&quot;index&quot;:null}" fill="none" stroke="#9a1717" stroke-width="0.5" stroke-linecap="round"/><path d="M353.10151,177.4892c0,0 -0.15836,11.03484 -0.70836,15.4349c-0.5772,4.61753 -3.35428,13.96921 -3.35428,13.96921" data-paper-data="{&quot;index&quot;:null}" fill="none" stroke="#000000" stroke-width="0.5" stroke-linecap="round"/><path d="M248.10852,220.56842c48.91081,-0.0719 88.60271,0.64936 88.65429,1.61098c0.05158,0.96162 -39.55664,1.79946 -88.46745,1.87136c-48.91081,0.0719 -88.6027,-0.64936 -88.65428,-1.61098c-0.05159,-0.96162 39.55663,-1.79946 88.46744,-1.87136z" data-paper-data="{&quot;index&quot;:null}" fill="url(#color-14)" stroke="none" stroke-width="0" stroke-linecap="butt"/><path d="M351.80699,222.25057c0,0 -0.81443,-1.3064 -0.13599,-2.75528c1.34697,-2.87659 8.33896,-15.31689 8.33896,-15.31689" data-paper-data="{&quot;index&quot;:null}" fill="none" stroke="#9a1717" stroke-width="0.5" stroke-linecap="round"/><path d="M129.55348,209.88858c0.77417,1.95046 4.51714,5.23052 4.51714,5.23052l3.20429,9.74103c0,0 -5.03531,-1.74766 -6.40939,-4.22921c-1.77682,-3.20888 -2.66522,-14.15157 -1.31205,-10.74235z" data-paper-data="{&quot;index&quot;:null}" fill="#af0000" stroke="#000000" stroke-width="0" stroke-linecap="butt"/><path d="M212.02517,222.83045c0,0 -23.31536,-0.69093 -33.73232,-3.88806c-15.72427,-4.82603 -20.99875,-11.235 -20.99875,-11.235" data-paper-data="{&quot;index&quot;:null}" fill="none" stroke="#9a1717" stroke-width="0.5" stroke-linecap="round"/><path d="M209.33663,211.99761c6.09937,-1.58054 27.66211,-0.70755 27.66211,-0.70755l29.78217,10.55599c0,0 -28.34601,1.40384 -47.18848,1.34064c-11.47822,-0.0385 -18.97468,-2.46914 -18.97468,-2.46914c0,0 2.69212,-7.15821 8.71887,-8.71993z" data-paper-data="{&quot;index&quot;:null}" fill="url(#color-15)" stroke="#000000" stroke-width="1" stroke-linecap="butt"/><path d="M210.34748,186.06028h27.82135" data-paper-data="{&quot;index&quot;:null}" fill="none" stroke="#9a1717" stroke-width="0.5" stroke-linecap="round"/><path d="M244.21694,210.25275c0,0 -5.75269,-1.86527 -12.06889,-2.25627c-8.0507,-0.49838 -32.30685,-0.49079 -32.30685,-0.49079c0,0 -5.98805,9.50675 -14.14053,10.68451c-20.31164,2.93435 -51.29585,-2.89802 -51.29585,-2.89802" data-paper-data="{&quot;index&quot;:null}" fill="none" stroke="#9a1717" stroke-width="0.5" stroke-linecap="round"/><path d="M199.76328,207.8335l0.3024,-27.82135" data-paper-data="{&quot;index&quot;:null}" fill="none" stroke="#9a1717" stroke-width="0.5" stroke-linecap="round"/><path d="M195.33362,204.9607c0,0 -6.76272,19.75188 -37.06935,0.7798c-3.8003,-2.379 -10.92244,-16.03551 -10.01759,-28.23205c1.18965,-16.03532 9.8392,-24.23257 9.8392,-24.23257c0,0 15.91175,-8.23451 22.51851,-7.92731c7.19351,0.3345 15.59546,8.21606 15.59546,8.21606l-0.86623,51.39609z" data-paper-data="{&quot;index&quot;:null}" fill="#000000" stroke="#000000" stroke-width="0" stroke-linecap="butt"/><path d="M159.1108,155.77506c28.46353,-17.81828 34.81496,0.73237 34.81496,0.73237l0.81355,48.27042c0,0 -7.89097,7.40225 -14.64701,7.7164c-6.20497,0.28852 -21.14904,-7.44521 -21.14904,-7.44521c0,0 -8.12353,-7.69872 -9.24083,-22.75886c-0.84982,-11.4548 5.8392,-24.28079 9.40837,-26.51511z" data-paper-data="{&quot;index&quot;:null}" fill="url(#color-16)" stroke="#000000" stroke-width="0" stroke-linecap="butt"/><path d="M278.88447,141.12567c0,0 15.51223,9.47817 14.38504,39.44971c-1.31926,35.07844 -14.08843,39.15198 -14.08843,39.15198" data-paper-data="{&quot;index&quot;:null}" fill="none" stroke="#000000" stroke-width="0.5" stroke-linecap="round"/><path d="M339.694,138.34089c0,0 0.53541,5.29027 0.53541,7.81049c0,2.29343 -0.53541,6.57073 -0.53541,6.57073c0,0 -1.14764,0 -1.87393,0c-1.00862,0 -2.67704,-0.86994 -2.67704,-0.86994c0,0 -0.93696,-0.47278 -0.93696,-1.60959c0,-2.50357 0,-12.02567 0,-12.02567z" data-paper-data="{&quot;index&quot;:null}" fill="#000000" stroke="none" stroke-width="0" stroke-linecap="butt"/><path d="M129.86076,149.08134c-0.18823,-1.35343 8.89666,-3.73531 20.29167,-5.32008c11.39501,-1.58477 20.78508,-1.7723 20.97331,-0.41887c0.18823,1.35344 -8.89666,3.73531 -20.29167,5.32008c-11.39501,1.58477 -20.78508,1.7723 -20.97331,0.41887z" data-paper-data="{&quot;index&quot;:null}" fill="url(#color-17)" stroke="none" stroke-width="0" stroke-linecap="butt"/><path d="M133.82776,145.24066c0,0 7.04066,-1.76874 10.66807,-2.33713c3.55133,-0.55646 10.87295,-1.03819 10.87295,-1.03819l-3.41741,76.57539c0,0 -5.52814,-0.48872 -8.43767,-0.90743c-3.11732,-0.44862 -9.68593,-2.46789 -9.68593,-2.46789v-69.82475z" data-paper-data="{&quot;index&quot;:null}" fill="url(#color-18)" stroke="none" stroke-width="0" stroke-linecap="butt"/><path d="M149.26589,205.28334c0,0 2.46771,2.57921 -1.99585,2.24345c-0.46616,-0.03507 -2.01629,-0.09794 -3.42651,-0.15124c-1.36112,-0.05145 -2.5919,-0.09398 -2.5919,-0.09398l-4.03133,-4.54096c0,0 0.5548,4.8623 2.8743,7.80338c2.3195,2.94107 7.30937,5.10929 7.30937,5.10929l-1.04814,1.53231l-11.94063,-2.07212c0,0 -5.92834,-3.83447 -7.73778,-10.16033c-1.80944,-6.32586 -2.01449,-16.0201 -2.01449,-16.0201c0,0 -0.17238,-18.97199 0.53753,-25.31384c0.33456,-2.98879 1.62957,-9.01263 3.38329,-12.61817c2.02889,-4.17127 6.02954,-6.55563 6.02954,-6.55563l11.88077,-1.7113l1.02247,1.5685c0,0 -7.49384,2.50404 -8.41276,5.64203c-0.28375,0.96897 -1.06752,1.75228 -1.48323,3.38778c-0.31501,1.23934 -0.31631,3.53109 -0.31631,3.53109l3.61346,-4.11436l7.91832,-0.50258c0,0 1.29787,0.55473 0.84909,1.62108c-0.20409,0.48494 -7.99708,6.00451 -11.56106,13.38011c-1.52732,3.16077 -3.71959,16.56065 -0.91182,24.65007c0.25263,0.72783 0.53361,1.42114 0.83738,2.08105c3.81275,8.28277 11.21629,11.30446 11.21629,11.30446z" data-paper-data="{&quot;index&quot;:null}" fill="url(#color-19)" stroke="#9a1717" stroke-width="0.5" stroke-linecap="butt"/><path d="M222.20006,152.07617c11.50468,0 20.83107,1.10773 20.83107,2.47419c0,1.36645 -9.32639,2.47419 -20.83107,2.47419c-11.50468,0 -20.83107,-1.10773 -20.83107,-2.47419c0,-1.36646 9.32639,-2.47419 20.83107,-2.47419z" data-paper-data="{&quot;index&quot;:null}" fill="url(#color-20)" stroke="none" stroke-width="0" stroke-linecap="butt"/><path d="M221.63631,202.40307c11.50469,0 20.83108,1.10773 20.83108,2.47419c0,1.36645 -9.3264,2.47419 -20.83108,2.47419c-11.50468,0 -20.83107,-1.10773 -20.83107,-2.47419c0,-1.36646 9.32639,-2.47419 20.83107,-2.47419z" data-paper-data="{&quot;index&quot;:null}" fill="url(#color-21)" stroke="none" stroke-width="0" stroke-linecap="butt"/><path d="M258.4093,225.1113c1.8662,-3.49042 5.19086,-0.44749 5.19086,-0.44749l-4.65388,8.23378c0,0 -1.85584,0.46396 -2.96921,0.7423c-1.43123,0.35781 -4.90658,1.22665 -4.90658,1.22665l4.83287,-10.20273c0,0 2.04116,1.31677 2.50593,0.44749z" data-paper-data="{&quot;index&quot;:null}" fill="#a91919" stroke="#000000" stroke-width="0" stroke-linecap="butt"/><path d="M260.37825,226.27476l-4.0274,-1.61096" data-paper-data="{&quot;index&quot;:null}" fill="none" stroke="#000000" stroke-width="0.5" stroke-linecap="round"/><path d="M253.03944,233.43459l3.7589,-7.96529" data-paper-data="{&quot;index&quot;:null}" fill="none" stroke="#000000" stroke-width="0.5" stroke-linecap="round"/><path d="M263.60015,135.33621c0,0 -3.32466,3.04292 -5.19086,-0.44749c-0.46477,-0.86927 -2.50593,0.44749 -2.50593,0.44749l-4.83287,-10.20273c0,0 3.47535,0.86884 4.90658,1.22665c1.11337,0.27834 2.96921,0.7423 2.96921,0.7423l4.65388,8.23378z" data-paper-data="{&quot;index&quot;:null}" fill="#a91919" stroke="#000000" stroke-width="0" stroke-linecap="butt"/><path d="M325.71841,222.76842v-15.58565h10.87371v15.58565z" data-paper-data="{&quot;index&quot;:null}" fill="url(#color-22)" stroke="none" stroke-width="0" stroke-linecap="butt"/><path d="M256.35085,135.33621l4.0274,-1.61096" data-paper-data="{&quot;index&quot;:null}" fill="none" stroke="#000000" stroke-width="0.5" stroke-linecap="round"/><path d="M253.03944,126.56546l3.7589,7.96529" data-paper-data="{&quot;index&quot;:null}" fill="none" stroke="#000000" stroke-width="0.5" stroke-linecap="round"/><path d="M325.43036,152.73982v-15.58566h10.87371v15.58566z" data-paper-data="{&quot;index&quot;:null}" fill="url(#color-23)" stroke="none" stroke-width="0" stroke-linecap="butt"/><g data-paper-data="{&quot;index&quot;:null}" stroke-linecap="butt"><path d="M343.71144,221.11467c-0.90221,0.30124 -2.66628,1.33531 -3.60935,1.50463c-3.36631,0.60439 -5.7596,-0.3219 -5.7596,-0.3219c0,0 0.32151,-10.29655 0.49047,-12.40854c0.06357,-0.79462 2.15127,-2.32828 3.1361,-2.38482c1.7387,-0.09984 6.36698,-0.07424 10.12543,-0.11807c1.75894,-0.02051 2.338,0.61921 2.338,0.61921c0,0 0.47339,0.87381 0.06779,2.78153c-0.53392,2.51124 -1.23152,6.0318 -2.66812,7.26317c0,0 -2.41232,2.49436 -4.12073,3.06479z" data-paper-data="{&quot;index&quot;:null}" fill="#2c2c2c" stroke="#444444" stroke-width="0.5"/><path d="M343.91177,210.85685c0,-1.65916 0.37362,-3.00418 0.8345,-3.00418c0.46088,0 0.8345,1.34502 0.8345,3.00418c0,1.65916 -0.37362,3.00418 -0.8345,3.00418c-0.46088,0 -0.8345,-1.34502 -0.8345,-3.00418z" data-paper-data="{&quot;index&quot;:null}" fill="#ffffff" stroke="#000000" stroke-width="0.75"/><path d="M343.40756,216.89133c0,-2.07974 0.56199,-3.7657 1.25523,-3.7657c0.69324,0 1.25523,1.68597 1.25523,3.7657c0,2.07974 -0.56199,3.7657 -1.25523,3.7657c-0.69324,0 -1.25523,-1.68596 -1.25523,-3.7657z" data-paper-data="{&quot;index&quot;:null}" fill="#ffffff" stroke="#000000" stroke-width="0.75"/><path d="M334.22842,214.43278c0.04672,-3.05519 0.39798,-4.85751 1.00947,-5.91495c0.73636,-1.27337 1.85005,-1.46655 3.26362,-1.46655c2.58743,0 6.33102,-0.85314 6.00976,3.68609c-0.51483,7.27439 -3.01047,11.97708 -8.37799,11.97708c-2.58743,0 -1.97478,-3.70946 -1.90487,-8.28167z" data-paper-data="{&quot;index&quot;:null}" fill="#ba1c1c" stroke="#000000" stroke-width="0"/><path d="M333.38898,214.611c0.04672,-3.05519 0.30879,-4.96965 0.92027,-6.02709c0.73635,-1.27337 1.93924,-1.35441 3.35281,-1.35441c2.58743,0 6.33102,-0.85314 6.00976,3.68609c-0.51482,7.27439 -3.01046,11.97708 -8.37798,11.97708c-2.58743,0 -1.97478,-3.70946 -1.90487,-8.28167z" data-paper-data="{&quot;index&quot;:null}" fill="url(#color-24)" stroke="#000000" stroke-width="0"/></g><g data-paper-data="{&quot;index&quot;:null}" stroke-linecap="butt"><path d="M343.66014,138.92537c1.70841,0.57043 4.12073,3.06479 4.12073,3.06479c1.4366,1.23137 2.1342,4.75193 2.66812,7.26317c0.4056,1.90772 -0.06779,2.78153 -0.06779,2.78153c0,0 -0.57906,0.63972 -2.338,0.61921c-3.75845,-0.04383 -8.38673,-0.01823 -10.12543,-0.11807c-0.98483,-0.05654 -3.07253,-1.5902 -3.1361,-2.38482c-0.16896,-2.11199 -0.49047,-12.40854 -0.49047,-12.40854c0,0 2.39329,-0.92629 5.7596,-0.3219c0.94307,0.16932 2.70714,1.20339 3.60935,1.50463z" data-paper-data="{&quot;index&quot;:null}" fill="#2c2c2c" stroke="#444444" stroke-width="0.5"/><path d="M344.6115,139.38302c0.69324,0 1.25523,1.68596 1.25523,3.7657c0,2.07973 -0.56199,3.7657 -1.25523,3.7657c-0.69324,0 -1.25523,-1.68596 -1.25523,-3.7657c0,-2.07974 0.56199,-3.7657 1.25523,-3.7657z" fill="#ffffff" stroke="#000000" stroke-width="0.75"/><path d="M344.69498,146.17902c0.46088,0 0.8345,1.34502 0.8345,3.00418c0,1.65916 -0.37362,3.00418 -0.8345,3.00418c-0.46088,0 -0.8345,-1.34502 -0.8345,-3.00418c0,-1.65916 0.37362,-3.00418 0.8345,-3.00418z" fill="#ffffff" stroke="#000000" stroke-width="0.75"/><path d="M334.17712,145.60726c-0.0699,-4.57221 -0.68255,-8.28167 1.90487,-8.28167c5.36752,0 7.86315,4.70269 8.37798,11.97708c0.32126,4.53923 -3.42233,3.68609 -6.00975,3.68609c-1.41357,0 -2.52726,-0.19318 -3.26362,-1.46655c-0.61149,-1.05744 -0.96275,-2.85976 -1.00947,-5.91495z" fill="#ba1c1c" stroke="#000000" stroke-width="0"/><path d="M333.33768,145.42904c-0.0699,-4.57221 -0.68255,-8.28167 1.90487,-8.28167c5.36752,0 7.86315,4.70269 8.37798,11.97708c0.32125,4.53923 -3.42234,3.68609 -6.00976,3.68609c-1.41357,0 -2.61645,-0.08104 -3.35281,-1.35441c-0.61148,-1.05744 -0.87355,-2.9719 -0.92027,-6.02709z" fill="url(#color-25)" stroke="#000000" stroke-width="0"/></g><path d="M-2.63138,361.63479v-360.53868h484.97563v360.53869z" fill="none" stroke="none" stroke-width="0" stroke-linecap="butt"/></g></g></svg>