<svg version="1.1" xmlns="http://www.w3.org/2000/svg" xmlns:xlink="http://www.w3.org/1999/xlink" width="201.85705" height="77.57139" viewBox="0,0,201.85705,77.57139"><defs><linearGradient x1="9466.52879" y1="179.86087" x2="-2422.86522" y2="179.86087" gradientUnits="userSpaceOnUse" id="color-1"><stop offset="0" stop-color="#000000"/><stop offset="1" stop-color="#000000" stop-opacity="0"/></linearGradient></defs><g transform="translate(-135.15236,-142.35973)"><g data-paper-data="{&quot;isPaintingLayer&quot;:true}" fill-rule="nonzero" stroke-linecap="butt" stroke-linejoin="miter" stroke-miterlimit="10" stroke-dasharray="" stroke-dashoffset="0" style="mix-blend-mode: normal"><path d="M305.89996,185.03291c0,3.19972 -2.28034,5.83447 -6.20594,5.83447c-22.27598,0 -107.38736,0 -119.57812,0c-3.26647,0 -6.01586,-3.48864 -6.01586,-5.94477c0,-2.10494 0,-6.36239 0,-9.92647c0,-3.21361 2.63719,-5.86351 5.79527,-5.86351c12.04423,0 97.71648,0 119.909,0c3.85815,0 6.09564,3.50883 6.09564,5.9738c0,2.10846 0,6.36704 0,9.92647z" fill="url(#color-1)" stroke="none" stroke-width="0"/><text transform="translate(178.80055,184.26705) scale(0.37467,0.37467)" font-size="40" xml:space="preserve" fill="#ffffff" fill-rule="nonzero" stroke="#ffffff" stroke-width="2" stroke-linecap="butt" stroke-linejoin="miter" stroke-miterlimit="10" stroke-dasharray="" stroke-dashoffset="0" font-family="Sans Serif" font-weight="normal" text-anchor="start" style="mix-blend-mode: normal"><tspan x="0" dy="0">按下空格键</tspan></text><text transform="translate(264.47546,183.31879) scale(0.3086,0.3086)" font-size="40" xml:space="preserve" fill="#ffffff" fill-rule="nonzero" stroke="none" stroke-width="1" stroke-linecap="butt" stroke-linejoin="miter" stroke-miterlimit="10" stroke-dasharray="" stroke-dashoffset="0" font-family="Sans Serif" font-weight="normal" text-anchor="start" style="mix-blend-mode: normal"><tspan x="0" dy="0">以开始</tspan></text><path d="M135.15236,219.93112v-77.57139h201.85705v77.57139z" fill="none" stroke="none" stroke-width="0"/></g></g></svg>