<svg version="1.1" xmlns="http://www.w3.org/2000/svg" xmlns:xlink="http://www.w3.org/1999/xlink" width="151.76753" height="151.76753" viewBox="0,0,151.76753,151.76753"><defs><radialGradient cx="240" cy="180" r="53.82219" gradientUnits="userSpaceOnUse" id="color-1"><stop offset="0" stop-color="#000000"/><stop offset="1" stop-color="#000000" stop-opacity="0"/></radialGradient><radialGradient cx="338.12798" cy="167.85961" r="13.82455" gradientUnits="userSpaceOnUse" id="color-2"><stop offset="0" stop-color="#f07070"/><stop offset="1" stop-color="#cf5555"/></radialGradient><radialGradient cx="338.12798" cy="167.85961" r="11.92469" gradientUnits="userSpaceOnUse" id="color-3"><stop offset="0" stop-color="#ff9d9d"/><stop offset="1" stop-color="#ff9d9d" stop-opacity="0"/></radialGradient><radialGradient cx="338.12798" cy="167.85961" r="11.92469" gradientUnits="userSpaceOnUse" id="color-4"><stop offset="0" stop-color="#ff9d9d"/><stop offset="1" stop-color="#ff9d9d" stop-opacity="0"/></radialGradient><radialGradient cx="282.13847" cy="167.43697" r="13.58909" gradientUnits="userSpaceOnUse" id="color-5"><stop offset="0" stop-color="#f7f7f7"/><stop offset="1" stop-color="#cecece"/></radialGradient><radialGradient cx="282.13847" cy="167.43697" r="11.72159" gradientUnits="userSpaceOnUse" id="color-6"><stop offset="0" stop-color="#f7f7f7"/><stop offset="1" stop-color="#f7f7f7" stop-opacity="0"/></radialGradient><radialGradient cx="310.23694" cy="167.68679" r="13.82455" gradientUnits="userSpaceOnUse" id="color-7"><stop offset="0" stop-color="#f07070"/><stop offset="1" stop-color="#cf5555"/></radialGradient><radialGradient cx="310.23694" cy="167.68679" r="11.92468" gradientUnits="userSpaceOnUse" id="color-8"><stop offset="0" stop-color="#ff9d9d"/><stop offset="1" stop-color="#ff9d9d" stop-opacity="0"/></radialGradient><radialGradient cx="310.23694" cy="167.68679" r="11.92468" gradientUnits="userSpaceOnUse" id="color-9"><stop offset="0" stop-color="#ff9d9d"/><stop offset="1" stop-color="#ff9d9d" stop-opacity="0"/></radialGradient><radialGradient cx="309.92589" cy="191.53417" r="13.82455" gradientUnits="userSpaceOnUse" id="color-10"><stop offset="0" stop-color="#f07070"/><stop offset="1" stop-color="#cf5555"/></radialGradient><radialGradient cx="309.92589" cy="191.53417" r="11.92469" gradientUnits="userSpaceOnUse" id="color-11"><stop offset="0" stop-color="#ff9d9d"/><stop offset="1" stop-color="#ff9d9d" stop-opacity="0"/></radialGradient><radialGradient cx="309.92589" cy="191.53417" r="11.92469" gradientUnits="userSpaceOnUse" id="color-12"><stop offset="0" stop-color="#ff9d9d"/><stop offset="1" stop-color="#ff9d9d" stop-opacity="0"/></radialGradient><radialGradient cx="282.00021" cy="191.21527" r="13.58909" gradientUnits="userSpaceOnUse" id="color-13"><stop offset="0" stop-color="#f7f7f7"/><stop offset="1" stop-color="#cecece"/></radialGradient><radialGradient cx="282.00021" cy="191.21527" r="11.72159" gradientUnits="userSpaceOnUse" id="color-14"><stop offset="0" stop-color="#f7f7f7"/><stop offset="1" stop-color="#f7f7f7" stop-opacity="0"/></radialGradient><radialGradient cx="254.62759" cy="167.43697" r="13.5891" gradientUnits="userSpaceOnUse" id="color-15"><stop offset="0" stop-color="#f7f7f7"/><stop offset="1" stop-color="#cecece"/></radialGradient><radialGradient cx="254.62759" cy="167.43697" r="11.72159" gradientUnits="userSpaceOnUse" id="color-16"><stop offset="0" stop-color="#f7f7f7"/><stop offset="1" stop-color="#f7f7f7" stop-opacity="0"/></radialGradient><radialGradient cx="254.48935" cy="191.21527" r="13.58909" gradientUnits="userSpaceOnUse" id="color-17"><stop offset="0" stop-color="#f7f7f7"/><stop offset="1" stop-color="#cecece"/></radialGradient><radialGradient cx="254.48935" cy="191.21527" r="11.72159" gradientUnits="userSpaceOnUse" id="color-18"><stop offset="0" stop-color="#f7f7f7"/><stop offset="1" stop-color="#f7f7f7" stop-opacity="0"/></radialGradient><radialGradient cx="224.90488" cy="167.85961" r="13.82455" gradientUnits="userSpaceOnUse" id="color-19"><stop offset="0" stop-color="#f07070"/><stop offset="1" stop-color="#cf5555"/></radialGradient><radialGradient cx="224.90488" cy="167.85961" r="11.92468" gradientUnits="userSpaceOnUse" id="color-20"><stop offset="0" stop-color="#ff9d9d"/><stop offset="1" stop-color="#ff9d9d" stop-opacity="0"/></radialGradient><radialGradient cx="224.90488" cy="167.85961" r="11.92468" gradientUnits="userSpaceOnUse" id="color-21"><stop offset="0" stop-color="#ff9d9d"/><stop offset="1" stop-color="#ff9d9d" stop-opacity="0"/></radialGradient><radialGradient cx="168.91536" cy="167.43697" r="13.5891" gradientUnits="userSpaceOnUse" id="color-22"><stop offset="0" stop-color="#f7f7f7"/><stop offset="1" stop-color="#cecece"/></radialGradient><radialGradient cx="168.91536" cy="167.43697" r="11.72159" gradientUnits="userSpaceOnUse" id="color-23"><stop offset="0" stop-color="#f7f7f7"/><stop offset="1" stop-color="#f7f7f7" stop-opacity="0"/></radialGradient><radialGradient cx="197.01384" cy="167.68679" r="13.82456" gradientUnits="userSpaceOnUse" id="color-24"><stop offset="0" stop-color="#f07070"/><stop offset="1" stop-color="#cf5555"/></radialGradient><radialGradient cx="197.01384" cy="167.68679" r="11.92469" gradientUnits="userSpaceOnUse" id="color-25"><stop offset="0" stop-color="#ff9d9d"/><stop offset="1" stop-color="#ff9d9d" stop-opacity="0"/></radialGradient><radialGradient cx="197.01384" cy="167.68679" r="11.92469" gradientUnits="userSpaceOnUse" id="color-26"><stop offset="0" stop-color="#ff9d9d"/><stop offset="1" stop-color="#ff9d9d" stop-opacity="0"/></radialGradient><radialGradient cx="196.70279" cy="191.53417" r="13.82455" gradientUnits="userSpaceOnUse" id="color-27"><stop offset="0" stop-color="#f07070"/><stop offset="1" stop-color="#cf5555"/></radialGradient><radialGradient cx="196.70279" cy="191.53417" r="11.92468" gradientUnits="userSpaceOnUse" id="color-28"><stop offset="0" stop-color="#ff9d9d"/><stop offset="1" stop-color="#ff9d9d" stop-opacity="0"/></radialGradient><radialGradient cx="196.70279" cy="191.53417" r="11.92468" gradientUnits="userSpaceOnUse" id="color-29"><stop offset="0" stop-color="#ff9d9d"/><stop offset="1" stop-color="#ff9d9d" stop-opacity="0"/></radialGradient><radialGradient cx="168.77711" cy="191.21527" r="13.58909" gradientUnits="userSpaceOnUse" id="color-30"><stop offset="0" stop-color="#f7f7f7"/><stop offset="1" stop-color="#cecece"/></radialGradient><radialGradient cx="168.77711" cy="191.21527" r="11.72159" gradientUnits="userSpaceOnUse" id="color-31"><stop offset="0" stop-color="#f7f7f7"/><stop offset="1" stop-color="#f7f7f7" stop-opacity="0"/></radialGradient><radialGradient cx="141.4045" cy="167.43697" r="13.5891" gradientUnits="userSpaceOnUse" id="color-32"><stop offset="0" stop-color="#f7f7f7"/><stop offset="1" stop-color="#cecece"/></radialGradient><radialGradient cx="141.4045" cy="167.43697" r="11.72159" gradientUnits="userSpaceOnUse" id="color-33"><stop offset="0" stop-color="#f7f7f7"/><stop offset="1" stop-color="#f7f7f7" stop-opacity="0"/></radialGradient><radialGradient cx="141.26625" cy="191.21527" r="13.5891" gradientUnits="userSpaceOnUse" id="color-34"><stop offset="0" stop-color="#f7f7f7"/><stop offset="1" stop-color="#cecece"/></radialGradient><radialGradient cx="141.26625" cy="191.21527" r="11.72159" gradientUnits="userSpaceOnUse" id="color-35"><stop offset="0" stop-color="#f7f7f7"/><stop offset="1" stop-color="#f7f7f7" stop-opacity="0"/></radialGradient><radialGradient cx="338.49835" cy="191.56332" r="13.82455" gradientUnits="userSpaceOnUse" id="color-36"><stop offset="0" stop-color="#f07070"/><stop offset="1" stop-color="#cf5555"/></radialGradient><radialGradient cx="338.49835" cy="191.56332" r="11.92469" gradientUnits="userSpaceOnUse" id="color-37"><stop offset="0" stop-color="#ff9d9d"/><stop offset="1" stop-color="#ff9d9d" stop-opacity="0"/></radialGradient><radialGradient cx="338.49835" cy="191.56332" r="11.92469" gradientUnits="userSpaceOnUse" id="color-38"><stop offset="0" stop-color="#ff9d9d"/><stop offset="1" stop-color="#ff9d9d" stop-opacity="0"/></radialGradient><radialGradient cx="224.79849" cy="192.32771" r="13.82455" gradientUnits="userSpaceOnUse" id="color-39"><stop offset="0" stop-color="#f07070"/><stop offset="1" stop-color="#cf5555"/></radialGradient><radialGradient cx="224.79849" cy="192.32771" r="11.92468" gradientUnits="userSpaceOnUse" id="color-40"><stop offset="0" stop-color="#ff9d9d"/><stop offset="1" stop-color="#ff9d9d" stop-opacity="0"/></radialGradient><radialGradient cx="224.79849" cy="192.32771" r="11.92468" gradientUnits="userSpaceOnUse" id="color-41"><stop offset="0" stop-color="#ff9d9d"/><stop offset="1" stop-color="#ff9d9d" stop-opacity="0"/></radialGradient><radialGradient cx="240" cy="180" r="36.98112" gradientUnits="userSpaceOnUse" id="color-42"><stop offset="0" stop-color="#bbe0e4"/><stop offset="1" stop-color="#99dbe1"/></radialGradient><linearGradient x1="222.45358" y1="147.98147" x2="218.0049" y2="138.43814" gradientUnits="userSpaceOnUse" id="color-43"><stop offset="0" stop-color="#9de0e6"/><stop offset="1" stop-color="#83b5b8"/></linearGradient><linearGradient x1="258.15987" y1="149.0348" x2="263.48187" y2="139.94955" gradientUnits="userSpaceOnUse" id="color-44"><stop offset="0" stop-color="#9de0e6"/><stop offset="1" stop-color="#83b5b8"/></linearGradient><linearGradient x1="275.97802" y1="181.59889" x2="286.50436" y2="181.34989" gradientUnits="userSpaceOnUse" id="color-45"><stop offset="0" stop-color="#9de0e6"/><stop offset="1" stop-color="#83b5b8"/></linearGradient><linearGradient x1="204.02566" y1="179.08044" x2="193.49935" y2="179.32941" gradientUnits="userSpaceOnUse" id="color-46"><stop offset="0" stop-color="#9de0e6"/><stop offset="1" stop-color="#83b5b8"/></linearGradient><linearGradient x1="220.8168" y1="210.6099" x2="215.03739" y2="219.41124" gradientUnits="userSpaceOnUse" id="color-47"><stop offset="0" stop-color="#9de0e6"/><stop offset="1" stop-color="#83b5b8"/></linearGradient><linearGradient x1="257.90603" y1="212.12438" x2="262.35474" y2="221.66768" gradientUnits="userSpaceOnUse" id="color-48"><stop offset="0" stop-color="#9de0e6"/><stop offset="1" stop-color="#83b5b8"/></linearGradient><radialGradient cx="266.33935" cy="177.07881" r="6.19916" gradientUnits="userSpaceOnUse" id="color-49"><stop offset="0" stop-color="#c9faff"/><stop offset="1" stop-color="#c9faff" stop-opacity="0"/></radialGradient><radialGradient cx="264.82845" cy="185.16661" r="6.19916" gradientUnits="userSpaceOnUse" id="color-50"><stop offset="0" stop-color="#c9faff"/><stop offset="1" stop-color="#c9faff" stop-opacity="0"/></radialGradient><radialGradient cx="256.78509" cy="178.4564" r="6.19916" gradientUnits="userSpaceOnUse" id="color-51"><stop offset="0" stop-color="#c9faff"/><stop offset="1" stop-color="#c9faff" stop-opacity="0"/></radialGradient><radialGradient cx="227.36685" cy="191.99533" r="6.19916" gradientUnits="userSpaceOnUse" id="color-52"><stop offset="0" stop-color="#c9faff"/><stop offset="1" stop-color="#c9faff" stop-opacity="0"/></radialGradient><radialGradient cx="225.85594" cy="202.55683" r="6.19916" gradientUnits="userSpaceOnUse" id="color-53"><stop offset="0" stop-color="#c9faff"/><stop offset="1" stop-color="#c9faff" stop-opacity="0"/></radialGradient><radialGradient cx="217.81259" cy="193.79426" r="6.19916" gradientUnits="userSpaceOnUse" id="color-54"><stop offset="0" stop-color="#c9faff"/><stop offset="1" stop-color="#c9faff" stop-opacity="0"/></radialGradient><radialGradient cx="215.72398" cy="169.15397" r="6.19916" gradientUnits="userSpaceOnUse" id="color-55"><stop offset="0" stop-color="#c9faff"/><stop offset="1" stop-color="#c9faff" stop-opacity="0"/></radialGradient></defs><g transform="translate(-164.11623,-104.11623)"><g data-paper-data="{&quot;isPaintingLayer&quot;:true}" fill-rule="nonzero" stroke-width="0" stroke-linecap="butt" stroke-linejoin="miter" stroke-miterlimit="10" stroke-dasharray="" stroke-dashoffset="0" style="mix-blend-mode: normal"><path d="M186.17782,180c0,-29.72517 24.09701,-53.82219 53.82219,-53.82219c29.72517,0 53.82219,24.09701 53.82219,53.82219c0,29.72517 -24.09701,53.82219 -53.82219,53.82219c-29.72517,0 -53.82219,-24.09701 -53.82219,-53.82219z" fill="url(#color-1)" stroke="none"/><g><g><path d="" fill="url(#color-2)" stroke="#bfbfbf"/><path d="" fill="url(#color-3)" stroke="none"/><path d="" fill="#a3a3a3" stroke="none"/><path d="" fill="url(#color-4)" stroke="none"/><path d="" fill="#323232" stroke="none"/></g><g><path d="" fill="url(#color-5)" stroke="#bfbfbf"/><path d="" fill="url(#color-6)" stroke="none"/><path d="" fill="#a3a3a3" stroke="none"/><path d="" fill="#323232" stroke="none"/></g><g><path d="" fill="url(#color-7)" stroke="#bfbfbf"/><path d="" fill="url(#color-8)" stroke="none"/><path d="" fill="#a3a3a3" stroke="none"/><path d="" fill="url(#color-9)" stroke="none"/><path d="" fill="#323232" stroke="none"/></g><g><path d="" fill="url(#color-10)" stroke="#bfbfbf"/><path d="" fill="url(#color-11)" stroke="none"/><path d="" fill="#a3a3a3" stroke="none"/><path d="" fill="url(#color-12)" stroke="none"/><path d="" fill="#323232" stroke="none"/></g><g><path d="" fill="url(#color-13)" stroke="#bfbfbf"/><path d="" fill="url(#color-14)" stroke="none"/><path d="" fill="#a3a3a3" stroke="none"/><path d="" fill="#323232" stroke="none"/></g><g><path d="" fill="url(#color-15)" stroke="#bfbfbf"/><path d="" fill="url(#color-16)" stroke="none"/><path d="" fill="#a3a3a3" stroke="none"/><path d="" fill="#323232" stroke="none"/></g><g><path d="" fill="url(#color-17)" stroke="#bfbfbf"/><path d="" fill="url(#color-18)" stroke="none"/><path d="" fill="#a3a3a3" stroke="none"/><path d="" fill="#323232" stroke="none"/></g><g><path d="" fill="url(#color-19)" stroke="#bfbfbf"/><path d="" fill="url(#color-20)" stroke="none"/><path d="" fill="#a3a3a3" stroke="none"/><path d="" fill="url(#color-21)" stroke="none"/><path d="" fill="#323232" stroke="none"/></g><g><path d="" fill="url(#color-22)" stroke="#bfbfbf"/><path d="" fill="url(#color-23)" stroke="none"/><path d="" fill="#a3a3a3" stroke="none"/><path d="" fill="#323232" stroke="none"/></g><g><path d="" fill="url(#color-24)" stroke="#bfbfbf"/><path d="" fill="url(#color-25)" stroke="none"/><path d="" fill="#a3a3a3" stroke="none"/><path d="" fill="url(#color-26)" stroke="none"/><path d="" fill="#323232" stroke="none"/></g><g><path d="" fill="url(#color-27)" stroke="#bfbfbf"/><path d="" fill="url(#color-28)" stroke="none"/><path d="" fill="#a3a3a3" stroke="none"/><path d="" fill="url(#color-29)" stroke="none"/><path d="" fill="#323232" stroke="none"/></g><g><path d="" fill="url(#color-30)" stroke="#bfbfbf"/><path d="" fill="url(#color-31)" stroke="none"/><path d="" fill="#a3a3a3" stroke="none"/><path d="" fill="#323232" stroke="none"/></g><g><path d="" fill="url(#color-32)" stroke="#bfbfbf"/><path d="" fill="url(#color-33)" stroke="none"/><path d="" fill="#a3a3a3" stroke="none"/><path d="" fill="#323232" stroke="none"/></g><g><path d="" fill="url(#color-34)" stroke="#bfbfbf"/><path d="" fill="url(#color-35)" stroke="none"/><path d="" fill="#a3a3a3" stroke="none"/><path d="" fill="#323232" stroke="none"/></g><g><path d="" fill="url(#color-36)" stroke="#bfbfbf"/><path d="" fill="url(#color-37)" stroke="none"/><path d="" fill="#a3a3a3" stroke="none"/><path d="" fill="url(#color-38)" stroke="none"/><path d="" fill="#323232" stroke="none"/></g><g><path d="" fill="url(#color-39)" stroke="#bfbfbf"/><path d="" fill="url(#color-40)" stroke="none"/><path d="" fill="#a3a3a3" stroke="none"/><path d="" fill="url(#color-41)" stroke="none"/><path d="" fill="#323232" stroke="none"/></g></g><path d="M194.41071,180c0,-25.17827 20.41101,-45.58929 45.58929,-45.58929c25.17827,0 45.58929,20.41101 45.58929,45.58929c0,25.17827 -20.41101,45.58929 -45.58929,45.58929c-25.17827,0 -45.58929,-20.41101 -45.58929,-45.58929z" fill="#f4e28e" stroke="none"/><path d="M198.71479,180c0,-22.80119 18.48401,-41.28521 41.28521,-41.28521c22.80119,0 41.28521,18.48401 41.28521,41.28521c0,22.80119 -18.48401,41.28521 -41.28521,41.28521c-22.80119,0 -41.28521,-18.48401 -41.28521,-41.28521z" fill="#a59962" stroke="none"/><path d="M203.01887,180c0,-20.42411 16.55701,-36.98112 36.98112,-36.98112c20.42411,0 36.98112,16.55701 36.98112,36.98112c0,20.42411 -16.55701,36.98112 -36.98112,36.98112c-20.42411,0 -36.98112,-16.55701 -36.98112,-36.98112z" fill="url(#color-42)" stroke="none"/><path d="M216.2614,139.25089l3.48699,-1.62548l4.44868,9.5433l-3.48699,1.62548z" data-paper-data="{&quot;index&quot;:null}" fill="url(#color-43)" stroke="none"/><path d="M261.82208,138.97728l3.31961,1.94459l-5.32199,9.08525l-3.31961,-1.94459z" data-paper-data="{&quot;index&quot;:null}" fill="url(#color-44)" stroke="none"/><path d="M276.02351,183.52196l-0.09098,-3.84617l10.52633,-0.24898l0.09098,3.84617z" data-paper-data="{&quot;index&quot;:null}" fill="url(#color-45)" stroke="none"/><path d="M203.98017,177.15735l0.09098,3.84617l-10.52631,0.24899l-0.09098,-3.84617z" data-paper-data="{&quot;index&quot;:null}" fill="url(#color-46)" stroke="none"/><path d="M219.20885,209.55403l3.21588,2.1117l-5.77941,8.80135l-3.21588,-2.1117z" data-paper-data="{&quot;index&quot;:null}" fill="url(#color-47)" stroke="none"/><path d="M264.09822,220.85494l-3.48699,1.62548l-4.44868,-9.5433l3.48699,-1.62548z" data-paper-data="{&quot;index&quot;:null}" fill="url(#color-48)" stroke="none"/><path d="M272.53852,177.07881c0,3.4237 -2.77546,6.19916 -6.19916,6.19916c-3.4237,0 -6.19916,-2.77546 -6.19916,-6.19916c0,-3.4237 2.77546,-6.19916 6.19916,-6.19916c3.4237,0 6.19916,2.77546 6.19916,6.19916z" data-paper-data="{&quot;index&quot;:null}" fill="url(#color-49)" stroke="none"/><path d="M271.02761,185.16661c0,3.4237 -2.77546,6.19916 -6.19916,6.19916c-3.4237,0 -6.19916,-2.77546 -6.19916,-6.19916c0,-3.4237 2.77546,-6.19916 6.19916,-6.19916c3.4237,0 6.19916,2.77546 6.19916,6.19916z" data-paper-data="{&quot;index&quot;:null}" fill="url(#color-50)" stroke="none"/><path d="M262.98425,178.4564c0,3.4237 -2.77546,6.19916 -6.19916,6.19916c-3.4237,0 -6.19916,-2.77546 -6.19916,-6.19916c0,-3.4237 2.77546,-6.19916 6.19916,-6.19916c3.4237,0 6.19916,2.77546 6.19916,6.19916z" data-paper-data="{&quot;index&quot;:null}" fill="url(#color-51)" stroke="none"/><path d="M233.56601,191.99533c0,4.47086 -2.77546,8.09522 -6.19916,8.09522c-3.4237,0 -6.19916,-3.62436 -6.19916,-8.09522c0,-4.47086 2.77546,-8.09522 6.19916,-8.09522c3.4237,0 6.19916,3.62435 6.19916,8.09522z" data-paper-data="{&quot;index&quot;:null}" fill="url(#color-52)" stroke="none"/><path d="M232.05511,202.55683c0,4.47086 -2.77546,8.09522 -6.19916,8.09522c-3.4237,0 -6.19916,-3.62436 -6.19916,-8.09522c0,-4.47086 2.77546,-8.09522 6.19916,-8.09522c3.4237,0 6.19916,3.62435 6.19916,8.09522z" data-paper-data="{&quot;index&quot;:null}" fill="url(#color-53)" stroke="none"/><path d="M224.01175,193.79426c0,4.47086 -2.77546,8.09522 -6.19916,8.09522c-3.4237,0 -6.19916,-3.62435 -6.19916,-8.09522c0,-4.47086 2.77546,-8.09522 6.19916,-8.09522c3.4237,0 6.19916,3.62436 6.19916,8.09522z" data-paper-data="{&quot;index&quot;:null}" fill="url(#color-54)" stroke="none"/><path d="M221.92314,169.15397c0,4.47086 -2.77546,8.09522 -6.19916,8.09522c-3.4237,0 -6.19916,-3.62436 -6.19916,-8.09522c0,-4.47086 2.77546,-8.09522 6.19916,-8.09522c3.4237,0 6.19916,3.62436 6.19916,8.09522z" data-paper-data="{&quot;index&quot;:null}" fill="url(#color-55)" stroke="none"/><path d="M164.11623,255.88377v-151.76753h151.76753v151.76753z" fill="none" stroke="none"/></g></g></svg>