<svg version="1.1" xmlns="http://www.w3.org/2000/svg" xmlns:xlink="http://www.w3.org/1999/xlink" width="102.70252" height="240.51578" viewBox="0,0,102.70252,240.51578"><defs><linearGradient x1="6234.80479" y1="-2002.8529" x2="6234.80479" y2="1192.94981" gradientUnits="userSpaceOnUse" id="color-1"><stop offset="0" stop-color="#000000"/><stop offset="1" stop-color="#000000" stop-opacity="0"/></linearGradient><linearGradient x1="6201.02625" y1="-1811.71525" x2="6201.02625" y2="1384.08746" gradientUnits="userSpaceOnUse" id="color-2"><stop offset="0" stop-color="#000000"/><stop offset="1" stop-color="#000000" stop-opacity="0"/></linearGradient></defs><g transform="translate(-171.76784,-155.28052)"><g data-paper-data="{&quot;isPaintingLayer&quot;:true}" fill-rule="nonzero" stroke-linecap="butt" stroke-linejoin="miter" stroke-miterlimit="10" stroke-dasharray="" stroke-dashoffset="0" style="mix-blend-mode: normal"><path d="M205.41007,155.28052c0,0 32.78023,0 52.56782,0c10.53576,0 16.49246,7.18927 16.49246,15.30186c0,3.59474 -0.11695,33.86424 -0.11695,33.86424l-68.39778,0.27286z" fill="url(#color-1)" stroke="none" stroke-width="0"/><path d="M183.66959,358.44454c5.50844,0 68.35726,0 78.02381,0c6.97949,0 12.42705,5.40063 12.47738,12.17154c0.06317,8.49705 0.14238,8.55431 0.17842,13.40194c0.03661,4.92559 -5.3539,11.59483 -12.36979,11.63157c-9.74311,0.05102 -72.6923,0.11795 -78.1659,0.14661c-5.04949,0.02644 -11.69669,-5.24185 -11.77259,-11.92088c-0.09598,-8.44599 -0.21695,-8.49492 -0.27272,-13.40235c-0.05774,-5.08114 6.71342,-12.02842 11.90138,-12.02842z" fill="url(#color-2)" stroke="none" stroke-width="0"/><text transform="translate(179.57593,381.81686) scale(0.40463,0.40463)" font-size="40" xml:space="preserve" fill="#f1f1f1" fill-rule="nonzero" stroke="#f1f1f1" stroke-width="2" stroke-linecap="butt" stroke-linejoin="miter" stroke-miterlimit="10" stroke-dasharray="" stroke-dashoffset="0" font-family="Sans Serif" font-weight="normal" text-anchor="start" style="mix-blend-mode: normal"><tspan x="0" dy="0">HIDE CODE</tspan></text><text transform="translate(222.504,185.2488) scale(0.4374,0.4374)" font-size="40" xml:space="preserve" fill="#f1f1f1" fill-rule="nonzero" stroke="#f1f1f1" stroke-width="2" stroke-linecap="butt" stroke-linejoin="miter" stroke-miterlimit="10" stroke-dasharray="" stroke-dashoffset="0" font-family="Sans Serif" font-weight="normal" text-anchor="start" style="mix-blend-mode: normal"><tspan x="0" dy="0">保存</tspan></text></g></g></svg>