<svg version="1.1" xmlns="http://www.w3.org/2000/svg" xmlns:xlink="http://www.w3.org/1999/xlink" width="877.97602" height="657.26933" viewBox="0,0,877.97602,657.26933"><g transform="translate(198.5,144)"><g data-paper-data="{&quot;isPaintingLayer&quot;:true}" fill-rule="nonzero" stroke-linejoin="miter" stroke-miterlimit="10" stroke-dasharray="" stroke-dashoffset="0" style="mix-blend-mode: normal"><path d="M-198.5,513.26933v-657.26933h877.97602v657.26933z" fill="none" stroke="none" stroke-width="0" stroke-linecap="butt"/><g fill="#ffa000" stroke="none" stroke-width="0" stroke-linecap="butt"><path d="M22.92387,13.07884c0,-8.39179 6.80291,-15.1947 15.19469,-15.1947c8.3918,0 15.19471,6.8029 15.19471,15.1947c0,8.3918 -6.80291,15.1947 -15.1947,15.1947c-8.3918,0 -15.19469,-6.8029 -15.19469,-15.1947z"/><path d="M23.2588,347.31808c0,-8.3918 6.80291,-15.1947 15.19469,-15.1947c8.3918,0 15.19471,6.80291 15.19471,15.1947c0,8.3918 -6.80291,15.1947 -15.1947,15.1947c-8.3918,0 -15.19469,-6.80291 -15.19469,-15.1947z"/></g><path d="M37.83807,23.32955c0,0 70.30894,-21.6601 109.17887,-33.14978c33.63773,-9.94307 54.12131,-63.82159 54.12131,-63.82159c0,0 253.90009,150.3196 277.60642,158.49871c2.78059,0.95936 -17.51881,44.3724 -15.50874,90.70785c2.02432,46.66396 26.34828,96.24922 26.34828,96.24922c0,0 -273.18042,153.61317 -288.79401,162.45526c-1.41524,0.80146 -49.30318,-44.71321 -76.30371,-58.00852c-26.57856,-13.08753 -86.33483,-25.06689 -86.33483,-25.06689z" fill="#9a9a9a" stroke="none" stroke-width="0" stroke-linecap="butt"/><path d="M214.64907,-74.28296c0,0 -27.45309,52.08939 -70.43111,78.44628c-39.37351,24.14638 -106.07482,27.70781 -106.07482,27.70781" fill="none" stroke="#909090" stroke-width="7.5" stroke-linecap="round"/><path d="M472.23327,283.27496c0,0 -32.89773,-49.62291 -33.7438,-100.03204c-0.77511,-46.18139 31.56947,-105.92969 31.56947,-105.92969" fill="none" stroke="#909090" stroke-width="7.5" stroke-linecap="round"/><path d="M37.887,329.09752c0,0 51.99659,2.83144 97.81075,29.17758c43.12684,24.80075 76.70724,73.07363 76.70724,73.07363" fill="none" stroke="#909090" stroke-width="7.5" stroke-linecap="round"/><path d="M197.35536,-81.38595c0,0 -31.38043,52.87225 -63.2814,71.80568c-31.90097,18.93344 -95.83387,22.63029 -95.83387,22.63029" fill="none" stroke="#bcbcbc" stroke-width="30.5" stroke-linecap="round"/><path d="M38.68182,347.27273c0,0 47.94373,4.58567 79.20135,22.36241c44.51158,25.31449 78.7946,69.01666 78.7946,69.01666" fill="none" stroke="#bcbcbc" stroke-width="30.5" stroke-linecap="round"/><path d="M487.60128,273.71126c0,0 -31.22764,-54.58095 -31.53321,-93.72924c-0.30557,-39.14829 30.07775,-92.74101 30.07775,-92.74101" fill="none" stroke="#bcbcbc" stroke-width="30.5" stroke-linecap="round"/></g></g></svg>