<svg version="1.1" xmlns="http://www.w3.org/2000/svg" xmlns:xlink="http://www.w3.org/1999/xlink" width="641.08716" height="397.17382" viewBox="0,0,641.08716,397.17382"><defs><linearGradient x1="-76.66141" y1="174.40732" x2="553.99062" y2="174.40732" gradientUnits="userSpaceOnUse" id="color-1"><stop offset="0" stop-color="#000000" stop-opacity="0"/><stop offset="1" stop-color="#000000" stop-opacity="0"/></linearGradient><linearGradient x1="245.20558" y1="269.67453" x2="245.20558" y2="321.04133" gradientUnits="userSpaceOnUse" id="color-2"><stop offset="0" stop-color="#494949"/><stop offset="1" stop-color="#494949" stop-opacity="0"/></linearGradient><linearGradient x1="-116.32328" y1="150.00659" x2="189.98932" y2="150.00659" gradientUnits="userSpaceOnUse" id="color-3"><stop offset="0" stop-color="#fff38b"/><stop offset="1" stop-color="#fff38b" stop-opacity="0"/></linearGradient><linearGradient x1="-20.98583" y1="276.7899" x2="144.7558" y2="348.56795" gradientUnits="userSpaceOnUse" id="color-4"><stop offset="0" stop-color="#fff38b"/><stop offset="1" stop-color="#fff38b" stop-opacity="0"/></linearGradient><linearGradient x1="-18.76633" y1="23.02763" x2="78.09914" y2="1.47808" gradientUnits="userSpaceOnUse" id="color-5"><stop offset="0" stop-color="#c7be6e"/><stop offset="1" stop-color="#c7be6e" stop-opacity="0"/></linearGradient><linearGradient x1="317.49548" y1="163.96474" x2="317.49548" y2="175.68639" gradientUnits="userSpaceOnUse" id="color-6"><stop offset="0" stop-color="#ffffff"/><stop offset="1" stop-color="#c0c0c0"/></linearGradient><linearGradient x1="333.83833" y1="173.30983" x2="333.83833" y2="181.3678" gradientUnits="userSpaceOnUse" id="color-7"><stop offset="0" stop-color="#ffffff"/><stop offset="1" stop-color="#c0c0c0"/></linearGradient><linearGradient x1="349.43165" y1="179.09489" x2="349.43165" y2="185.47369" gradientUnits="userSpaceOnUse" id="color-8"><stop offset="0" stop-color="#ffffff"/><stop offset="1" stop-color="#c0c0c0"/></linearGradient><linearGradient x1="3774.21946" y1="312.25152" x2="-259.00121" y2="312.25152" gradientUnits="userSpaceOnUse" id="color-9"><stop offset="0" stop-color="#282828"/><stop offset="1" stop-color="#282828" stop-opacity="0"/></linearGradient></defs><g transform="translate(76.66141,24.17959)"><g data-paper-data="{&quot;isPaintingLayer&quot;:true}" fill-rule="nonzero" stroke="none" stroke-width="0" stroke-linecap="butt" stroke-linejoin="miter" stroke-miterlimit="10" stroke-dasharray="" stroke-dashoffset="0" style="mix-blend-mode: normal"><path d="M-76.66141,372.99423v-397.17382h630.65203v397.17382z" fill="url(#color-1)"/><path d="M41.28708,209.96218c0,-51.64292 0,-212.11441 0,-212.11441h521.18727l-1.2787,283.03585h-519.90857c0,0 0,-41.41181 0,-70.92144z" fill="#818181"/><path d="M562.94432,-2.30274v25.24119h-521.72768l-44.83077,-19.46795l-0.17504,-5.77324z" data-paper-data="{&quot;index&quot;:null}" fill="#5f5f5f"/><path d="M-19.14209,362.56527l57.12782,-82.2729h526.44003v82.2729z" fill="#b8b8b8"/><path d="M11.44668,320.9995l26.28678,-40.57056l526.25325,-0.21764v40.83004z" fill="url(#color-2)"/><path d="M97.42994,210.76852v-162.26841h278.54356v162.26841z" fill="#c2c2c2"/><path d="M41.52546,280.42975l-0.5716,-258.1485l149.03546,0.91545v257.16755z" fill="url(#color-3)"/><path d="M-17.93765,361.9958l59.29155,-81.62048l183.78439,0.24616l-90.99336,81.74186z" fill="url(#color-4)"/><path d="M71.89777,-2.66367l53.52304,25.22751l-82.89035,-0.29192l-46.46044,-18.5971l-0.32915,-6.24503z" data-paper-data="{&quot;index&quot;:null}" fill="url(#color-5)"/><path d="M94.31266,288.52124v-60.70788h281.94828v60.70788z" fill="#323232"/><path d="M378.41179,224.89476v3.69697h-285.72166v-3.69697z" fill="#d6d6d6"/><path d="M92.5144,225.52681l3.57473,-5.95789l276.37549,0.86547l4.83741,5.09245z" fill="#f6f6f6"/><path d="M102.73515,282.24661v-44.7459h61.04629v44.7459z" fill="#6c6c6c"/><path d="M171.51824,282.35708v-44.7459h61.04629v44.7459z" fill="#6c6c6c"/><path d="M239.28195,282.45311v-44.7459h61.04629v44.7459z" fill="#6c6c6c"/><path d="M307.07067,282.56361v-44.7459h61.04629v44.7459z" fill="#6c6c6c"/><path d="M102.5146,244.78045v-2.61554h61.13805v2.61554z" fill="#bbbbbb"/><path d="M102.5146,252.62705v-2.61551h61.13805v2.61551z" fill="#bbbbbb"/><path d="M171.8262,244.78045v-2.61551h61.13805v2.61551z" fill="#bbbbbb"/><path d="M171.8262,252.62705v-2.61554h61.13805v2.61554z" fill="#bbbbbb"/><path d="M239.50303,244.78045v-2.61551h61.13805v2.61551z" fill="#bbbbbb"/><path d="M239.50303,252.62705v-2.61554h61.13805v2.61554z" fill="#bbbbbb"/><path d="M307.17987,244.78045v-2.61551h61.13805v2.61551z" fill="#bbbbbb"/><path d="M307.17987,252.62705v-2.61554h61.13805v2.61554z" fill="#bbbbbb"/><path d="M97.33214,70.57922v-1.29894h278.83688v1.29894z" fill="#323232"/><path d="M97.76514,106.94925v-1.29894h278.83688v1.29894z" fill="#323232"/><path d="M96.4662,147.64904v-1.29894h278.83685v1.29894z" fill="#323232"/><path d="M96.89918,188.34883v-1.29894h278.83688v1.29894z" fill="#323232"/><path d="M414.40966,277.41189c0,0 0.89661,-122.23566 0.89661,-146.34276c0,-2.58703 3.97312,-13.92066 9.05448,-12.75235c6.13251,1.41 13.5721,13.07506 13.5721,13.07506l-11.3717,156.74425z" fill="#f10000"/><path d="M435.77644,133.98521l-14.79642,-14.14385c0,0 1.8146,-4.20711 10.37797,-4.29471c0.72433,-0.0074 0.44911,-0.16924 0.44911,-0.16924l61.7535,-0.17456c0,0 14.64634,4.34209 14.64634,15.20064c0,1.73895 -27.86378,-5.22042 -27.86378,-5.22042z" fill="#cc0000"/><path d="M426.33714,288.00373c0,0 0,-125.56782 0,-152.09802c0,-10.00002 6.59735,-13.92877 14.1394,-13.92877c9.79474,0 52.87479,0 52.87479,0c0,0 7.28657,-1.09329 11.07543,2.16863c4.28895,3.69246 3.92814,10.90188 3.92814,10.90188l1.01205,153.57377l-29.23306,-0.61745z" fill="#da0000"/><path d="M434.21698,189.93607v-3.97194h26.61197v3.97194z" fill="#919191"/><path d="M434.41,188.10244v-3.97194h26.61194v3.97194z" fill="#b8b8b8"/><path d="M314.37147,173.66631l5.5016,0.33543c0,0 -1.03929,17.04539 -1.28587,21.08954c-0.09955,1.63296 -0.9185,3.10819 -2.94649,3.04155c-2.63358,-0.08657 -2.66309,-1.60631 -2.56908,-3.14776c0.24222,-3.9729 1.29984,-21.31876 1.29984,-21.31876z" fill="#da0000"/><path d="M315.8978,169.38775l3.13418,0.72738c0,0 2.43032,-5.21567 3.02082,-4.5485c1.03227,1.16633 1.6196,2.72647 1.51733,4.40393c-0.20458,3.35497 -3.09012,5.90887 -6.44509,5.70432c-3.35497,-0.20455 -5.90887,-3.09012 -5.70429,-6.44509c0.14614,-2.39668 1.66042,-4.38455 3.73663,-5.25005c0.83016,-0.34607 0.74042,5.40798 0.74042,5.40798z" fill="url(#color-6)"/><path d="M331.69077,179.97914l3.78206,0.23059c0,0 -0.71447,11.7178 -0.88396,14.4979c-0.06844,1.12259 -0.63142,2.1367 -2.02552,2.09088c-1.81044,-0.0595 -1.83075,-1.10427 -1.76612,-2.16394c0.16655,-2.73114 0.89357,-14.65547 0.89357,-14.65547z" fill="#da0000"/><path d="M332.74008,177.03785l2.15458,0.50002c0,0 1.67071,-3.58547 2.07666,-3.12681c0.70963,0.80181 1.1134,1.87429 1.04307,3.02748c-0.14062,2.30635 -2.12427,4.06203 -4.43062,3.92138c-2.30635,-0.14062 -4.06203,-2.12427 -3.92141,-4.43062c0.10048,-1.64761 1.14143,-3.01416 2.56873,-3.60914c0.57067,-0.2379 0.50899,3.71773 0.50899,3.71773z" fill="url(#color-7)"/><path d="M347.73157,184.37439l2.99394,0.18253c0,0 -0.56557,9.27595 -0.69976,11.47673c-0.05418,0.88867 -0.49983,1.69147 -1.60346,1.65517c-1.43316,-0.0471 -1.44921,-0.87415 -1.39808,-1.713c0.13181,-2.16201 0.70735,-11.60146 0.70735,-11.60146z" fill="#da0000"/><path d="M348.56221,182.04603l1.7056,0.39583c0,0 1.32256,-2.83832 1.64389,-2.47524c0.56173,0.63469 0.8814,1.48369 0.82574,2.39658c-0.11131,1.82575 -1.68163,3.21556 -3.50735,3.10422c-1.82572,-0.11131 -3.21556,-1.68163 -3.10425,-3.50735c0.07952,-1.30423 0.90357,-2.38601 2.03344,-2.857c0.45177,-0.1883 0.40294,2.94296 0.40294,2.94296z" fill="url(#color-8)"/><path d="M393.47973,319.08107c-12.70393,1.21502 -32.21893,2.27966 -49.57171,-6.72593c-17.35278,-9.00559 2.58753,-17.65749 2.58753,-17.65749h39.49227c0,0 26.98156,-0.32957 27.62054,11.52207c0.69176,12.83048 -13.52822,12.23008 -20.12863,12.86135z" fill="url(#color-9)"/><path d="M322.2742,272.64462c0,-19.21714 18.41886,-36.45936 41.1397,-36.45936c3.09144,0 13.06657,4.28193 8.07975,13.20126c-2.27909,4.07632 -15.00321,2.30651 -19.50153,6.97219c-0.27096,0.17407 -1.28433,0.73846 -1.5594,0.95259c-4.25165,3.30941 -8.02067,10.88126 -5.55607,18.79543c2.62407,8.42621 15.38423,13.23375 22.77759,10.35852c7.39336,-2.87523 16.39292,-12.96615 12.2992,-22.57346c-1.09895,-3.72923 -3.53145,-7.16507 -7.05543,-9.02132c-6.63426,-3.4946 -7.83987,-0.95454 -11.10022,-2.13443c-5.84754,-2.1162 -9.82947,-5.55396 -7.8614,-6.54185c1.85866,-0.93301 1.08921,-10.91698 10.16179,-10.50033c4.61043,0.21172 14.97376,1.39529 23.04182,6.33481c13.49978,8.26495 15.92001,26.72187 15.92001,28.47915c0,19.21714 -16.9253,36.93259 -39.64611,36.93259c-22.72084,0 -41.1397,-15.57859 -41.1397,-34.79573z" fill="#393939"/><path d="M326.58914,276.98518c0,-19.21714 14.9406,-36.67676 40.92231,-36.89415c3.09133,-0.02587 13.28396,4.71671 8.29714,13.63604c-2.27909,4.07632 -15.00321,2.30651 -19.5015,6.97219c-0.27096,0.17407 -1.28433,0.73846 -1.5594,0.95259c-4.25165,3.30941 -8.02067,10.88126 -5.55607,18.79543c2.62407,8.42621 15.38426,13.23375 22.77759,10.35852c7.39336,-2.87523 16.39292,-12.96612 12.29917,-22.57346c-1.09895,-3.72923 -3.53145,-7.1651 -7.05539,-9.02135c-6.63426,-3.4946 -8.49204,-1.38932 -11.75242,-2.56921c-5.84754,-2.1162 -9.1773,-5.11918 -7.20923,-6.10707c1.85866,-0.93301 1.08921,-10.91698 10.16179,-10.50033c4.61043,0.21172 14.97376,1.39529 23.04182,6.33481c13.49978,8.26495 15.92001,26.72187 15.92001,28.47915c0,19.21714 -16.9253,36.93259 -39.64611,36.93259c-22.72084,0 -41.1397,-15.57859 -41.1397,-34.79573z" fill="#1e1e1e"/></g></g></svg>