<svg version="1.1" xmlns="http://www.w3.org/2000/svg" xmlns:xlink="http://www.w3.org/1999/xlink" width="196.59493" height="139.49367" viewBox="0,0,196.59493,139.49367"><defs><linearGradient x1="237.94537" y1="149.5073" x2="237.94537" y2="133.21139" gradientUnits="userSpaceOnUse" id="color-1"><stop offset="0" stop-color="#d0b78c"/><stop offset="1" stop-color="#edd29f"/></linearGradient><linearGradient x1="267.978" y1="143.90966" x2="267.978" y2="137.57236" gradientUnits="userSpaceOnUse" id="color-2"><stop offset="0" stop-color="#8eb3cc"/><stop offset="1" stop-color="#77acd1"/></linearGradient><linearGradient x1="281.94026" y1="143.90966" x2="281.94026" y2="137.57235" gradientUnits="userSpaceOnUse" id="color-3"><stop offset="0" stop-color="#8eb3cc"/><stop offset="1" stop-color="#77acd1"/></linearGradient><linearGradient x1="198.81913" y1="144.09658" x2="198.81913" y2="137.75927" gradientUnits="userSpaceOnUse" id="color-4"><stop offset="0" stop-color="#8eb3cc"/><stop offset="1" stop-color="#77acd1"/></linearGradient><linearGradient x1="375.11596" y1="-564.25207" x2="375.11596" y2="3001.53664" gradientUnits="userSpaceOnUse" id="color-5"><stop offset="0" stop-color="#000000" stop-opacity="0"/><stop offset="1" stop-color="#000000"/></linearGradient><linearGradient x1="238.22049" y1="204.85633" x2="238.22049" y2="221.15224" gradientUnits="userSpaceOnUse" id="color-6"><stop offset="0" stop-color="#d0b78c"/><stop offset="1" stop-color="#edd29f"/></linearGradient><linearGradient x1="268.25312" y1="209.86572" x2="268.25312" y2="216.20303" gradientUnits="userSpaceOnUse" id="color-7"><stop offset="0" stop-color="#8eb3cc"/><stop offset="1" stop-color="#77acd1"/></linearGradient><linearGradient x1="282.21538" y1="209.86573" x2="282.21538" y2="216.20304" gradientUnits="userSpaceOnUse" id="color-8"><stop offset="0" stop-color="#8eb3cc"/><stop offset="1" stop-color="#77acd1"/></linearGradient><linearGradient x1="199.09425" y1="209.67881" x2="199.09425" y2="216.01612" gradientUnits="userSpaceOnUse" id="color-9"><stop offset="0" stop-color="#8eb3cc"/><stop offset="1" stop-color="#77acd1"/></linearGradient></defs><g transform="translate(-142.3038,-110.84177)"><g data-paper-data="{&quot;isPaintingLayer&quot;:true}" fill-rule="nonzero" stroke="none" stroke-width="0" stroke-linecap="butt" stroke-linejoin="miter" stroke-miterlimit="10" stroke-dasharray="" stroke-dashoffset="0" style="mix-blend-mode: normal"><path d="M302.87035,133.21139l6.7253,15.26126l-143.30056,1.03466l7.24263,-16.29592z" fill="url(#color-1)"/><g><path d="M216.27745,133.22698l0.3321,11.56826l-3.65313,-0.05535l0.3321,-11.51291z" fill="#734e10"/><path d="M219.35525,133.26388l0.26168,11.56826l-3.65313,-0.05535l0.19125,-11.51291z" fill="#7d5511"/><path d="M222.28883,133.24881l0.26168,11.63869l-3.65313,-0.05535l0.26167,-11.58334z" fill="#855b13"/><path d="M225.22579,133.21528l0.3321,11.70911l-3.65313,-0.05535l0.3321,-11.65376z" fill="#7b5411"/><path d="M228.06712,133.17163l0.3321,11.56826l-3.65313,-0.05535l0.3321,-11.44249z" fill="#745010"/><path d="M227.4398,133.24542l0.94096,8.63468c0,0 -0.149,0.72805 -0.34321,1.00965c-0.17213,0.24959 -1.04055,0.70623 -1.04055,0.70623c0,0 0.74865,-1.02226 0.72436,-1.6607c-0.06271,-1.64832 -0.94576,-8.68985 -0.94576,-8.68985z" data-paper-data="{&quot;index&quot;:null}" fill="#61420e"/><path d="M214.04498,133.24544c0,0 -0.88306,7.04153 -0.94577,8.68985c-0.02429,0.63844 0.72436,1.6607 0.72436,1.6607c0,0 -0.86842,-0.45663 -1.04055,-0.70622c-0.1942,-0.2816 -0.34321,-1.00965 -0.34321,-1.00965l0.94096,-8.63469z" fill="#61420e"/><path d="M220.61158,144.61195c8.35304,-0.11636 7.7073,-2.94332 7.7073,-2.94332h2.56813c0,0 -0.04314,5.25825 -10.41417,5.25459c-11.27924,-0.00397 -10.55387,-5.18483 -10.55387,-5.18483h2.63773c0,0 -0.36454,2.99085 8.05488,2.87356z" fill="#8c6013"/><path d="M213.53416,133.21793l-1.01225,8.66197h-2.60293l1.01225,-8.66197z" fill="#8c6013"/><path d="M229.92296,133.18272l1.01225,8.66197h-2.60292l-1.01225,-8.66197z" data-paper-data="{&quot;index&quot;:null}" fill="#8c6013"/></g><path d="M189.06389,133.09429l-3.59278,15.27577h-3.24742l3.59278,-15.27577z" fill="#573b0c"/><g><path d="M271.80986,137.57236v6.33731h-7.66372v-6.33731z" fill="url(#color-2)"/><g><path d="M264.73477,137.1257l-0.50355,6.67136h-1.77124l1.17336,-6.67136z" fill="#7b5411"/><path d="M272.35477,137.10624v0.56653h-8.4997v-0.56653z" fill="#7b5411"/><path d="M272.33953,137.22537l1.087,6.67136h-1.92035l-0.26808,-6.67136z" fill="#7b5411"/><path d="M273.40858,143.76193l0.26517,1.38668h-11.46515l0.24758,-1.38668z" fill="#7b5411"/><path d="M271.29391,137.62749l-0.0353,0.39774h-6.73633v-0.39774z" fill="#8c6013"/><path d="M273.67569,145.08648v0.62976h-11.4594v-0.62976z" fill="#8c6013"/></g></g><g><path d="M285.77213,137.57235v6.33731h-7.66373v-6.33731z" fill="url(#color-3)"/><g><path d="M278.69704,137.1257l-0.50355,6.67136h-1.77124l1.17336,-6.67136z" fill="#7b5411"/><path d="M286.31705,137.10624v0.56653h-8.49971v-0.56653z" fill="#7b5411"/><path d="M286.3018,137.22536l1.08701,6.67136h-1.92036l-0.26808,-6.67136z" fill="#7b5411"/><path d="M287.37084,143.76193l0.26517,1.38667h-11.46515l0.24759,-1.38667z" fill="#7b5411"/><path d="M285.25618,137.62749l-0.0353,0.39775h-6.73633v-0.39775z" fill="#8c6013"/><path d="M287.63795,145.08648v0.62976h-11.4594v-0.62976z" fill="#8c6013"/></g></g><path d="M291.00793,133.19738l5.09278,16.02577h-3.40206l-5.09278,-16.02577z" data-paper-data="{&quot;index&quot;:null}" fill="#573b0c"/><g><path d="M202.65099,137.75927v6.33731h-7.66372v-6.33731z" fill="url(#color-4)"/><g><path d="M195.5759,137.31261l-0.50355,6.67136h-1.77124l1.17336,-6.67136z" fill="#7b5411"/><path d="M203.1959,137.29315v0.56653h-8.4997v-0.56653z" fill="#7b5411"/><path d="M203.18066,137.41228l1.087,6.67136h-1.92035l-0.26808,-6.67136z" fill="#7b5411"/><path d="M204.24971,143.94884l0.26517,1.38668h-11.46515l0.24758,-1.38668z" fill="#7b5411"/><path d="M202.13504,137.8144l-0.0353,0.39774h-6.73633v-0.39774z" fill="#8c6013"/><path d="M204.51682,145.27339v0.62976h-11.4594v-0.62976z" fill="#8c6013"/></g></g><path d="M225.84687,138.08021v2.1831h-3.38028v-2.1831z" fill="#838e92"/><path d="M224.15673,135.8267c1.01122,0 1.83098,0.81976 1.83098,1.83098c0,1.01122 -0.81976,1.83098 -1.83098,1.83098c-1.01122,0 -1.83098,-0.81976 -1.83098,-1.83098c0,-1.01122 0.81976,-1.83098 1.83098,-1.83098z" fill="#98a5a9"/><path d="M224.1615,136.39485c0.66158,0 1.19791,0.53632 1.19791,1.19791c0,0.66158 -0.53632,1.19791 -1.19791,1.19791c-0.66159,0 -1.19792,-0.53632 -1.19792,-1.19791c0,-0.66158 0.53633,-1.19791 1.19792,-1.19791z" fill="#7b5411"/><path d="M179.43927,139.59803l-0.65625,3h-6.84375l1.3125,-3z" fill="#d7bd90"/><path d="M184.15355,134.74089l-0.65625,3h-6.84375l1.3125,-3z" fill="#d7bd90"/><path d="M255.43926,140.16946l0.44375,3h-5.94375l-0.6875,-3z" fill="#d7bd90"/><path d="M260.15355,135.31231l-0.65625,3h-6.84375l0.5125,-3z" fill="#d7bd90"/><path d="M247.12676,135.0266l0.3125,3h-6.84375l-0.45625,-3z" data-paper-data="{&quot;index&quot;:null}" fill="#d7bd90"/><path d="M240.85534,139.74089l0.6125,3h-6.64375l-0.55625,-3z" data-paper-data="{&quot;index&quot;:null}" fill="#d7bd90"/><path d="M303.55534,139.59803l1.3125,3h-6.84375l-0.65625,-3z" data-paper-data="{&quot;index&quot;:null}" fill="#d7bd90"/><path d="M298.84106,134.74089l1.3125,3h-6.84375l-0.65625,-3z" data-paper-data="{&quot;index&quot;:null}" fill="#d7bd90"/><path d="M305.04119,185.25922c0,0 11.563,21.99805 13.11172,36.87771c0.4995,4.79907 -1.80837,9.0171 -2.76492,9.0152c-0.84673,-0.00168 -108.58684,-0.44236 -132.48759,-0.26793c-3.09987,0.02262 -11.43279,-12.32164 -10.89345,-17.37124c0.79621,-7.4545 133.03424,-28.25374 133.03424,-28.25374z" fill="url(#color-5)"/><path d="M173.81284,221.15224l-7.24263,-16.29592l143.30056,1.03466l-6.7253,15.26126z" fill="url(#color-6)"/><path d="M222.74171,216.28342v-2.1831h3.38028v2.1831z" fill="#838e92"/><path d="M222.60087,216.70595c0,-1.01122 0.81976,-1.83098 1.83098,-1.83098c1.01122,0 1.83098,0.81976 1.83098,1.83098c0,1.01122 -0.81976,1.83098 -1.83098,1.83098c-1.01122,0 -1.83098,-0.81976 -1.83098,-1.83098z" fill="#98a5a9"/><path d="M223.2387,216.77087c0,-0.66159 0.53633,-1.19791 1.19792,-1.19791c0.66159,0 1.19791,0.53633 1.19791,1.19791c0,0.66159 -0.53633,1.19791 -1.19791,1.19791c-0.66159,0 -1.19792,-0.53633 -1.19792,-1.19791z" fill="#7b5411"/><path d="M173.52689,214.7656l-1.3125,-3h6.84375l0.65625,3z" fill="#d7bd90"/><path d="M178.24117,219.62274l-1.3125,-3h6.84375l0.65625,3z" fill="#d7bd90"/><path d="M249.52688,214.19417l0.6875,-3h5.94375l-0.44375,3z" fill="#d7bd90"/><path d="M253.44117,219.05132l-0.5125,-3h6.84375l0.65625,3z" fill="#d7bd90"/><path d="M240.41438,219.33703l0.45625,-3h6.84375l-0.3125,3z" data-paper-data="{&quot;index&quot;:null}" fill="#d7bd90"/><path d="M234.54296,214.62274l0.55625,-3h6.64375l-0.6125,3z" data-paper-data="{&quot;index&quot;:null}" fill="#d7bd90"/><path d="M297.64296,214.7656l0.65625,-3h6.84375l-1.3125,3z" data-paper-data="{&quot;index&quot;:null}" fill="#d7bd90"/><path d="M292.92868,219.62274l0.65625,-3h6.84375l-1.3125,3z" data-paper-data="{&quot;index&quot;:null}" fill="#d7bd90"/><g><path d="M213.56364,221.13665l-0.3321,-11.51291l3.65313,-0.05535l-0.3321,11.56826z" fill="#734e10"/><path d="M216.43017,221.09975l-0.19125,-11.51291l3.65313,-0.05535l-0.26168,11.56826z" fill="#7d5511"/><path d="M219.43417,221.11482l-0.26167,-11.58334l3.65313,-0.05535l-0.26168,11.63869z" fill="#855b13"/><path d="M222.51198,221.14835l-0.3321,-11.65376l3.65313,-0.05535l-0.3321,11.70911z" fill="#7b5411"/><path d="M225.35331,221.12158l-0.3321,-11.44249l3.65313,-0.05535l-0.3321,11.56826z" fill="#745010"/><path d="M227.05072,221.1182c0,0 0.88305,-7.04153 0.94576,-8.68985c0.02429,-0.63844 -0.72436,-1.6607 -0.72436,-1.6607c0,0 0.86842,0.45664 1.04055,0.70623c0.19421,0.2816 0.34321,1.00965 0.34321,1.00965l-0.94096,8.63468z" data-paper-data="{&quot;index&quot;:null}" fill="#61420e"/><path d="M213.65589,221.1182l-0.94096,-8.63469c0,0 0.14901,-0.72805 0.34321,-1.00965c0.17213,-0.24959 1.04055,-0.70622 1.04055,-0.70622c0,0 -0.74865,1.02226 -0.72436,1.6607c0.06271,1.64832 0.94577,8.68985 0.94577,8.68985z" fill="#61420e"/><path d="M212.83182,212.62524h-2.63773c0,0 -0.72537,-5.18086 10.55387,-5.18483c10.37103,-0.00366 10.41417,5.25459 10.41417,5.25459h-2.56813c0,0 0.64574,-2.82696 -7.7073,-2.94332c-8.41942,-0.11729 -8.05488,2.87356 -8.05488,2.87356z" fill="#8c6013"/><path d="M211.20635,221.1457l-1.01225,-8.66197h2.60293l1.01225,8.66197z" fill="#8c6013"/><path d="M227.59516,221.18091l1.01225,-8.66197h2.60292l-1.01225,8.66197z" data-paper-data="{&quot;index&quot;:null}" fill="#8c6013"/></g><g><path d="M264.42126,216.20303v-6.33731h7.66372v6.33731z" fill="url(#color-7)"/><g><path d="M263.90846,216.64969l-1.17336,-6.67136h1.77124l0.50355,6.67136z" fill="#7b5411"/><path d="M264.13019,216.66915v-0.56653h8.4997v0.56653z" fill="#7b5411"/><path d="M271.51322,216.55002l0.26808,-6.67136h1.92035l-1.087,6.67136z" fill="#7b5411"/><path d="M262.7313,210.01346l-0.24758,-1.38668h11.46515l-0.26517,1.38668z" fill="#7b5411"/><path d="M264.7974,216.1479v-0.39774h6.73633l0.0353,0.39774z" fill="#8c6013"/><path d="M262.49141,208.68891v-0.62976h11.4594v0.62976z" fill="#8c6013"/></g></g><g><path d="M278.38352,216.20304v-6.33731h7.66373v6.33731z" fill="url(#color-8)"/><g><path d="M277.87073,216.64969l-1.17336,-6.67136h1.77124l0.50355,6.67136z" fill="#7b5411"/><path d="M278.09246,216.66915v-0.56653h8.49971v0.56653z" fill="#7b5411"/><path d="M285.47549,216.55003l0.26808,-6.67136h1.92036l-1.08701,6.67136z" fill="#7b5411"/><path d="M276.69357,210.01346l-0.24759,-1.38667h11.46515l-0.26517,1.38667z" fill="#7b5411"/><path d="M278.75967,216.1479v-0.39775h6.73633l0.0353,0.39775z" fill="#8c6013"/><path d="M276.45367,208.68891v-0.62976h11.4594v0.62976z" fill="#8c6013"/></g></g><g><path d="M195.26239,216.01612v-6.33731h7.66372v6.33731z" fill="url(#color-9)"/><g><path d="M194.74959,216.46278l-1.17336,-6.67136h1.77124l0.50355,6.67136z" fill="#7b5411"/><path d="M194.97132,216.48224v-0.56653h8.4997v0.56653z" fill="#7b5411"/><path d="M202.35435,216.36311l0.26808,-6.67136h1.92035l-1.087,6.67136z" fill="#7b5411"/><path d="M193.57243,209.82655l-0.24758,-1.38668h11.46515l-0.26517,1.38668z" fill="#7b5411"/><path d="M195.63853,215.96099v-0.39774h6.73633l0.0353,0.39774z" fill="#8c6013"/><path d="M193.33254,208.502v-0.62976h11.4594v0.62976z" fill="#8c6013"/></g></g><path d="M142.3038,250.33544v-139.49367h196.59493v139.49367z" fill="none"/><path d="M166.3009,206.04545v-58h143.5v58z" fill="#d1b88c"/><path d="M186.09159,221.26934l-5.09278,-17.02577h3.24742l5.09278,17.02577z" fill="#573b0c"/><path d="M287.88099,221.16625l5.59278,-17.52577h3.40206l-5.59278,17.52577z" data-paper-data="{&quot;index&quot;:null}" fill="#573b0c"/></g></g></svg>