<svg version="1.1" xmlns="http://www.w3.org/2000/svg" xmlns:xlink="http://www.w3.org/1999/xlink" width="238.421" height="341.84203" viewBox="0,0,238.421,341.84203"><g transform="translate(-120.7895,-9.079)"><g data-paper-data="{&quot;isPaintingLayer&quot;:true}" fill-rule="nonzero" stroke-linecap="butt" stroke-linejoin="miter" stroke-miterlimit="10" stroke-dasharray="" stroke-dashoffset="0" style="mix-blend-mode: normal"><path d="M120.7895,350.92103v-341.84203h238.421v341.84203z" fill="none" stroke="none" stroke-width="0"/><path d="M168.21294,275.07972v-190.15934h143.57412v190.15934z" fill-opacity="0.39608" fill="#33404f" stroke-opacity="0.24314" stroke="#ffffff" stroke-width="4.5"/><text transform="translate(185.9548,200.9867) scale(0.67532,0.67532)" font-size="40" xml:space="preserve" fill="#ffffff" fill-rule="nonzero" stroke="#ffffff" stroke-width="3" stroke-linecap="butt" stroke-linejoin="miter" stroke-miterlimit="10" stroke-dasharray="" stroke-dashoffset="0" font-family="Sans Serif" font-weight="normal" text-anchor="start" style="mix-blend-mode: normal"><tspan x="0" dy="0">我的车库</tspan></text><path d="M222.31787,155.44357v-8.64922c0,0 15.72685,-4.66783 16.06284,-4.66783c6.2007,0 18.25946,4.66783 18.25946,4.66783v8.64922z" fill="#e8e8e8" stroke="none" stroke-width="0"/><path d="M217.60651,172.39067v-23.70632h5.16506v23.70632z" fill="#ffffff" stroke="none" stroke-width="0"/><path d="M254.29171,172.39067v-23.70632h5.16506v23.70632z" fill="#ffffff" stroke="none" stroke-width="0"/><path d="M265.23321,154.95213l-27.40225,-12.7062l1.01637,-4.99442l28.46175,12.97107z" fill="#ffffff" stroke="none" stroke-width="0"/><path d="M210.68127,150.22258l28.19687,-13.10351l1.28124,5.12686l-27.40225,12.7062z" data-paper-data="{&quot;index&quot;:null}" fill="#ffffff" stroke="none" stroke-width="0"/></g></g></svg>