<svg version="1.1" xmlns="http://www.w3.org/2000/svg" xmlns:xlink="http://www.w3.org/1999/xlink" width="482.29271" height="409.30376" viewBox="0,0,482.29271,409.30376"><defs><linearGradient x1="-2097.92205" y1="4397.77232" x2="1665.89274" y2="3856.78723" gradientUnits="userSpaceOnUse" id="color-1"><stop offset="0" stop-color="#6b6b6b"/><stop offset="1" stop-color="#6b6b6b" stop-opacity="0"/></linearGradient><linearGradient x1="212.24966" y1="179.71609" x2="267.78285" y2="179.71609" gradientUnits="userSpaceOnUse" id="color-2"><stop offset="0" stop-color="#78d522"/><stop offset="1" stop-color="#6fc920"/></linearGradient></defs><g transform="translate(1.14633,24.6518)"><g data-paper-data="{&quot;isPaintingLayer&quot;:true}" fill-rule="nonzero" stroke-width="0" stroke-linecap="butt" stroke-linejoin="miter" stroke-miterlimit="10" stroke-dasharray="" stroke-dashoffset="0" style="mix-blend-mode: normal"><path d="M-1.14633,384.65195v-409.30375h482.29271v409.30375z" fill="none" stroke="none"/><path d="M-1.14633,384.65196v-409.30375h482.29271v409.30375z" fill="none" stroke="none"/><path d="M288.58129,197.66958c3.27023,5.04623 -2.20928,8.42784 -2.20928,8.42784c0,0 1.89293,6.77887 -0.13857,9.39086c-1.79777,2.31147 -6.36061,3.66206 -6.36061,3.66206c0,0 -0.16947,4.88159 -4.62091,6.46063c-3.50497,1.24331 -13.28174,-3.11874 -13.28174,-3.11874c0,0 -3.66066,1.5055 -9.41136,0.89909c-6.0629,-0.63936 -13.29069,-8.51695 -13.29069,-8.51695c0,0 -2.92927,0.82923 -12.06979,-5.38819c-3.17273,-2.15812 -4.70727,-10.50747 -4.70727,-10.50747l26.88001,-28.57964c0,0 3.62392,-3.13519 9.3485,-1.16371c2.40154,0.82705 10.07367,6.40629 10.07367,6.40629c0,0 8.49855,3.43312 9.6287,4.69712c5.35818,5.99267 3.70748,10.84151 3.70748,10.84151c0,0 3.18161,1.44312 6.45184,6.48932z" fill="url(#color-1)" stroke="none"/><path d="M241.96077,210.03985c-3.40798,0.33578 -5.04263,-2.3226 -8.73506,-2.83153c-3.84333,-0.52974 -7.19528,4.92897 -9.50543,2.82568c-3.29763,-2.02776 -2.56409,-8.74408 -2.56409,-8.74408c0,0 -6.36977,-2.56639 -7.1279,-3.7642c-0.87745,-1.38629 1.61321,-4.87345 1.61321,-4.87345c0,0 -5.50268,-4.17094 -6.56864,-7.21284c-0.43235,-1.23371 3.74887,-5.51026 3.74887,-5.51026c0,0 -3.00227,-6.27001 -2.18494,-8.4036c0.8657,-2.25983 6.77636,-5.75293 6.77636,-5.75293c0,0 0.25739,-8.21355 2.94778,-9.88397c2.22572,-1.38192 9.58172,-1.23505 9.58172,-1.23505c0,0 2.81253,-5.27438 5.70873,-5.68532c3.84555,-0.54564 7.47541,3.18217 7.47541,3.18217c0,0 6.20721,-3.22128 10.13934,-0.85365c2.18036,1.31284 3.02599,6.57081 3.02599,6.57081c0,0 5.77573,-0.12645 7.33654,3.84047c1.01509,2.5799 -0.80625,7.68738 -0.80625,7.68738c0,0 5.38327,0.32815 6.7788,2.50906c1.91726,2.99623 -0.44475,4.79611 -0.44475,8.02464c0,2.91332 2.40869,8.05814 1.70609,10.65693c-0.69211,2.56011 -2.60164,4.19395 -4.87293,5.59083c-1.82029,1.11952 -4.8446,0.33785 -6.68913,1.50782c0,0 1.58605,4.63299 -1.12204,6.94446c-4.04349,3.39034 -5.91155,-0.97577 -10.52056,0.1157c-2.20363,0.52184 -1.75226,4.90627 -5.69714,5.29494z" data-paper-data="{&quot;index&quot;:null}" fill="#6ec219" stroke="#49ac26"/><path d="M241.75939,206.89916c-3.05502,0.30098 -4.52034,-2.08204 -7.83035,-2.53826c-3.44527,-0.47487 -6.45004,4.41846 -8.52093,2.533c-2.95609,-1.81774 -2.29851,-7.83841 -2.29851,-7.83841c0,0 -5.71001,-2.3006 -6.38961,-3.37433c-0.78656,-1.2427 1.44611,-4.36868 1.44611,-4.36868c0,0 -4.93273,-3.73894 -5.88832,-6.4658c-0.38756,-1.10594 3.36059,-4.93955 3.36059,-4.93955c0,0 -2.69132,-5.62061 -1.95864,-7.53321c0.77603,-2.02578 6.07453,-5.15709 6.07453,-5.15709c0,0 0.23073,-7.36284 2.64247,-8.86027c1.99519,-1.2388 8.58931,-1.10713 8.58931,-1.10713c0,0 2.52122,-4.7281 5.11747,-5.09648c3.44724,-0.48912 6.70116,2.85259 6.70116,2.85259c0,0 5.5643,-2.88765 9.08917,-0.76524c1.95452,1.17688 2.71259,5.89025 2.71259,5.89025c0,0 5.17751,-0.11335 6.57667,3.44269c0.90995,2.31268 -0.72275,6.89116 -0.72275,6.89116c0,0 4.82571,0.29417 6.07669,2.24918c1.71867,2.68591 -0.39868,4.29936 -0.39868,7.19352c0,2.61158 2.15921,7.22354 1.5294,9.55316c-0.62043,2.29495 -2.33217,3.75956 -4.36823,5.01177c-1.63175,1.00357 -4.34283,0.30288 -5.99633,1.35165c0,0 1.42176,4.15314 -1.00583,6.2252c-3.62469,3.03917 -5.29927,-0.8747 -9.43091,0.10374c-1.97538,0.46779 -1.57078,4.39813 -5.10706,4.74653z" data-paper-data="{&quot;index&quot;:null}" fill="url(#color-2)" stroke="#49ac26"/></g></g></svg>