<svg version="1.1" xmlns="http://www.w3.org/2000/svg" xmlns:xlink="http://www.w3.org/1999/xlink" width="113.21476" height="113.21476" viewBox="0,0,113.21476,113.21476"><defs><radialGradient cx="338.12798" cy="167.85961" r="13.82455" gradientUnits="userSpaceOnUse" id="color-1"><stop offset="0" stop-color="#f07070"/><stop offset="1" stop-color="#cf5555"/></radialGradient><radialGradient cx="338.12798" cy="167.85961" r="11.92469" gradientUnits="userSpaceOnUse" id="color-2"><stop offset="0" stop-color="#ff9d9d"/><stop offset="1" stop-color="#ff9d9d" stop-opacity="0"/></radialGradient><radialGradient cx="338.12798" cy="167.85961" r="11.92469" gradientUnits="userSpaceOnUse" id="color-3"><stop offset="0" stop-color="#ff9d9d"/><stop offset="1" stop-color="#ff9d9d" stop-opacity="0"/></radialGradient><radialGradient cx="282.13847" cy="167.43697" r="13.58909" gradientUnits="userSpaceOnUse" id="color-4"><stop offset="0" stop-color="#f7f7f7"/><stop offset="1" stop-color="#cecece"/></radialGradient><radialGradient cx="282.13847" cy="167.43697" r="11.72159" gradientUnits="userSpaceOnUse" id="color-5"><stop offset="0" stop-color="#f7f7f7"/><stop offset="1" stop-color="#f7f7f7" stop-opacity="0"/></radialGradient><radialGradient cx="310.23694" cy="167.68679" r="13.82455" gradientUnits="userSpaceOnUse" id="color-6"><stop offset="0" stop-color="#f07070"/><stop offset="1" stop-color="#cf5555"/></radialGradient><radialGradient cx="310.23694" cy="167.68679" r="11.92468" gradientUnits="userSpaceOnUse" id="color-7"><stop offset="0" stop-color="#ff9d9d"/><stop offset="1" stop-color="#ff9d9d" stop-opacity="0"/></radialGradient><radialGradient cx="310.23694" cy="167.68679" r="11.92468" gradientUnits="userSpaceOnUse" id="color-8"><stop offset="0" stop-color="#ff9d9d"/><stop offset="1" stop-color="#ff9d9d" stop-opacity="0"/></radialGradient><radialGradient cx="309.92589" cy="191.53417" r="13.82455" gradientUnits="userSpaceOnUse" id="color-9"><stop offset="0" stop-color="#f07070"/><stop offset="1" stop-color="#cf5555"/></radialGradient><radialGradient cx="309.92589" cy="191.53417" r="11.92469" gradientUnits="userSpaceOnUse" id="color-10"><stop offset="0" stop-color="#ff9d9d"/><stop offset="1" stop-color="#ff9d9d" stop-opacity="0"/></radialGradient><radialGradient cx="309.92589" cy="191.53417" r="11.92469" gradientUnits="userSpaceOnUse" id="color-11"><stop offset="0" stop-color="#ff9d9d"/><stop offset="1" stop-color="#ff9d9d" stop-opacity="0"/></radialGradient><radialGradient cx="282.00021" cy="191.21527" r="13.58909" gradientUnits="userSpaceOnUse" id="color-12"><stop offset="0" stop-color="#f7f7f7"/><stop offset="1" stop-color="#cecece"/></radialGradient><radialGradient cx="282.00021" cy="191.21527" r="11.72159" gradientUnits="userSpaceOnUse" id="color-13"><stop offset="0" stop-color="#f7f7f7"/><stop offset="1" stop-color="#f7f7f7" stop-opacity="0"/></radialGradient><radialGradient cx="254.62759" cy="167.43697" r="13.5891" gradientUnits="userSpaceOnUse" id="color-14"><stop offset="0" stop-color="#f7f7f7"/><stop offset="1" stop-color="#cecece"/></radialGradient><radialGradient cx="254.62759" cy="167.43697" r="11.72159" gradientUnits="userSpaceOnUse" id="color-15"><stop offset="0" stop-color="#f7f7f7"/><stop offset="1" stop-color="#f7f7f7" stop-opacity="0"/></radialGradient><radialGradient cx="254.48935" cy="191.21527" r="13.58909" gradientUnits="userSpaceOnUse" id="color-16"><stop offset="0" stop-color="#f7f7f7"/><stop offset="1" stop-color="#cecece"/></radialGradient><radialGradient cx="254.48935" cy="191.21527" r="11.72159" gradientUnits="userSpaceOnUse" id="color-17"><stop offset="0" stop-color="#f7f7f7"/><stop offset="1" stop-color="#f7f7f7" stop-opacity="0"/></radialGradient><radialGradient cx="224.90488" cy="167.85961" r="13.82455" gradientUnits="userSpaceOnUse" id="color-18"><stop offset="0" stop-color="#f07070"/><stop offset="1" stop-color="#cf5555"/></radialGradient><radialGradient cx="224.90488" cy="167.85961" r="11.92468" gradientUnits="userSpaceOnUse" id="color-19"><stop offset="0" stop-color="#ff9d9d"/><stop offset="1" stop-color="#ff9d9d" stop-opacity="0"/></radialGradient><radialGradient cx="224.90488" cy="167.85961" r="11.92468" gradientUnits="userSpaceOnUse" id="color-20"><stop offset="0" stop-color="#ff9d9d"/><stop offset="1" stop-color="#ff9d9d" stop-opacity="0"/></radialGradient><radialGradient cx="168.91536" cy="167.43697" r="13.5891" gradientUnits="userSpaceOnUse" id="color-21"><stop offset="0" stop-color="#f7f7f7"/><stop offset="1" stop-color="#cecece"/></radialGradient><radialGradient cx="168.91536" cy="167.43697" r="11.72159" gradientUnits="userSpaceOnUse" id="color-22"><stop offset="0" stop-color="#f7f7f7"/><stop offset="1" stop-color="#f7f7f7" stop-opacity="0"/></radialGradient><radialGradient cx="197.01384" cy="167.68679" r="13.82456" gradientUnits="userSpaceOnUse" id="color-23"><stop offset="0" stop-color="#f07070"/><stop offset="1" stop-color="#cf5555"/></radialGradient><radialGradient cx="197.01384" cy="167.68679" r="11.92469" gradientUnits="userSpaceOnUse" id="color-24"><stop offset="0" stop-color="#ff9d9d"/><stop offset="1" stop-color="#ff9d9d" stop-opacity="0"/></radialGradient><radialGradient cx="197.01384" cy="167.68679" r="11.92469" gradientUnits="userSpaceOnUse" id="color-25"><stop offset="0" stop-color="#ff9d9d"/><stop offset="1" stop-color="#ff9d9d" stop-opacity="0"/></radialGradient><radialGradient cx="196.70279" cy="191.53417" r="13.82455" gradientUnits="userSpaceOnUse" id="color-26"><stop offset="0" stop-color="#f07070"/><stop offset="1" stop-color="#cf5555"/></radialGradient><radialGradient cx="196.70279" cy="191.53417" r="11.92468" gradientUnits="userSpaceOnUse" id="color-27"><stop offset="0" stop-color="#ff9d9d"/><stop offset="1" stop-color="#ff9d9d" stop-opacity="0"/></radialGradient><radialGradient cx="196.70279" cy="191.53417" r="11.92468" gradientUnits="userSpaceOnUse" id="color-28"><stop offset="0" stop-color="#ff9d9d"/><stop offset="1" stop-color="#ff9d9d" stop-opacity="0"/></radialGradient><radialGradient cx="168.77711" cy="191.21527" r="13.58909" gradientUnits="userSpaceOnUse" id="color-29"><stop offset="0" stop-color="#f7f7f7"/><stop offset="1" stop-color="#cecece"/></radialGradient><radialGradient cx="168.77711" cy="191.21527" r="11.72159" gradientUnits="userSpaceOnUse" id="color-30"><stop offset="0" stop-color="#f7f7f7"/><stop offset="1" stop-color="#f7f7f7" stop-opacity="0"/></radialGradient><radialGradient cx="141.4045" cy="167.43697" r="13.5891" gradientUnits="userSpaceOnUse" id="color-31"><stop offset="0" stop-color="#f7f7f7"/><stop offset="1" stop-color="#cecece"/></radialGradient><radialGradient cx="141.4045" cy="167.43697" r="11.72159" gradientUnits="userSpaceOnUse" id="color-32"><stop offset="0" stop-color="#f7f7f7"/><stop offset="1" stop-color="#f7f7f7" stop-opacity="0"/></radialGradient><radialGradient cx="141.26625" cy="191.21527" r="13.5891" gradientUnits="userSpaceOnUse" id="color-33"><stop offset="0" stop-color="#f7f7f7"/><stop offset="1" stop-color="#cecece"/></radialGradient><radialGradient cx="141.26625" cy="191.21527" r="11.72159" gradientUnits="userSpaceOnUse" id="color-34"><stop offset="0" stop-color="#f7f7f7"/><stop offset="1" stop-color="#f7f7f7" stop-opacity="0"/></radialGradient><radialGradient cx="338.49835" cy="191.56332" r="13.82455" gradientUnits="userSpaceOnUse" id="color-35"><stop offset="0" stop-color="#f07070"/><stop offset="1" stop-color="#cf5555"/></radialGradient><radialGradient cx="338.49835" cy="191.56332" r="11.92469" gradientUnits="userSpaceOnUse" id="color-36"><stop offset="0" stop-color="#ff9d9d"/><stop offset="1" stop-color="#ff9d9d" stop-opacity="0"/></radialGradient><radialGradient cx="338.49835" cy="191.56332" r="11.92469" gradientUnits="userSpaceOnUse" id="color-37"><stop offset="0" stop-color="#ff9d9d"/><stop offset="1" stop-color="#ff9d9d" stop-opacity="0"/></radialGradient><radialGradient cx="224.79849" cy="192.32771" r="13.82455" gradientUnits="userSpaceOnUse" id="color-38"><stop offset="0" stop-color="#f07070"/><stop offset="1" stop-color="#cf5555"/></radialGradient><radialGradient cx="224.79849" cy="192.32771" r="11.92468" gradientUnits="userSpaceOnUse" id="color-39"><stop offset="0" stop-color="#ff9d9d"/><stop offset="1" stop-color="#ff9d9d" stop-opacity="0"/></radialGradient><radialGradient cx="224.79849" cy="192.32771" r="11.92468" gradientUnits="userSpaceOnUse" id="color-40"><stop offset="0" stop-color="#ff9d9d"/><stop offset="1" stop-color="#ff9d9d" stop-opacity="0"/></radialGradient><radialGradient cx="240" cy="180" r="31.67933" gradientUnits="userSpaceOnUse" id="color-41"><stop offset="0" stop-color="#000000"/><stop offset="1" stop-color="#000000" stop-opacity="0"/></radialGradient><radialGradient cx="240" cy="180" r="19.93082" gradientUnits="userSpaceOnUse" id="color-42"><stop offset="0" stop-color="#c5edf1"/><stop offset="1" stop-color="#9ce0e6"/></radialGradient><linearGradient x1="222.88171" y1="170.47023" x2="218.13863" y2="167.36868" gradientUnits="userSpaceOnUse" id="color-43"><stop offset="0" stop-color="#9de0e6"/><stop offset="1" stop-color="#83b5b8"/></linearGradient><radialGradient cx="244.28006" cy="188.37975" r="8.6641" gradientUnits="userSpaceOnUse" id="color-44"><stop offset="0" stop-color="#d4fbff"/><stop offset="1" stop-color="#d4fbff" stop-opacity="0"/></radialGradient><linearGradient x1="239.50936" y1="160.81744" x2="239.36448" y2="155.15217" gradientUnits="userSpaceOnUse" id="color-45"><stop offset="0" stop-color="#9de0e6"/><stop offset="1" stop-color="#83b5b8"/></linearGradient><linearGradient x1="256.90033" y1="170.65187" x2="261.64341" y2="167.55032" gradientUnits="userSpaceOnUse" id="color-46"><stop offset="0" stop-color="#9de0e6"/><stop offset="1" stop-color="#83b5b8"/></linearGradient><linearGradient x1="223.28131" y1="189.92234" x2="218.53824" y2="193.02387" gradientUnits="userSpaceOnUse" id="color-47"><stop offset="0" stop-color="#9de0e6"/><stop offset="1" stop-color="#83b5b8"/></linearGradient><linearGradient x1="239.90897" y1="199.57512" x2="239.76409" y2="205.24039" gradientUnits="userSpaceOnUse" id="color-48"><stop offset="0" stop-color="#9de0e6"/><stop offset="1" stop-color="#83b5b8"/></linearGradient><linearGradient x1="257.29993" y1="189.7407" x2="262.04302" y2="192.84223" gradientUnits="userSpaceOnUse" id="color-49"><stop offset="0" stop-color="#9de0e6"/><stop offset="1" stop-color="#83b5b8"/></linearGradient><radialGradient cx="240" cy="180" r="10.72268" gradientUnits="userSpaceOnUse" id="color-50"><stop offset="0" stop-color="#000000"/><stop offset="1" stop-color="#000000" stop-opacity="0"/></radialGradient><radialGradient cx="227.47837" cy="174.06625" r="6.19916" gradientUnits="userSpaceOnUse" id="color-51"><stop offset="0" stop-color="#c9faff"/><stop offset="1" stop-color="#c9faff" stop-opacity="0"/></radialGradient><radialGradient cx="232.78883" cy="192.35572" r="5.86125" gradientUnits="userSpaceOnUse" id="color-52"><stop offset="0" stop-color="#d4fbff"/><stop offset="1" stop-color="#d4fbff" stop-opacity="0"/></radialGradient><radialGradient cx="252.51111" cy="171.82941" r="4.43453" gradientUnits="userSpaceOnUse" id="color-53"><stop offset="0" stop-color="#d4fbff"/><stop offset="1" stop-color="#d4fbff" stop-opacity="0"/></radialGradient></defs><g transform="translate(-183.39262,-123.39262)"><g data-paper-data="{&quot;isPaintingLayer&quot;:true}" stroke-miterlimit="10" stroke-dasharray="" stroke-dashoffset="0" style="mix-blend-mode: normal"><g fill-rule="nonzero" stroke-width="0" stroke-linecap="butt" stroke-linejoin="miter"><g><path d="" fill="url(#color-1)" stroke="#bfbfbf"/><path d="" fill="url(#color-2)" stroke="none"/><path d="" fill="#a3a3a3" stroke="none"/><path d="" fill="url(#color-3)" stroke="none"/><path d="" fill="#323232" stroke="none"/></g><g><path d="" fill="url(#color-4)" stroke="#bfbfbf"/><path d="" fill="url(#color-5)" stroke="none"/><path d="" fill="#a3a3a3" stroke="none"/><path d="" fill="#323232" stroke="none"/></g><g><path d="" fill="url(#color-6)" stroke="#bfbfbf"/><path d="" fill="url(#color-7)" stroke="none"/><path d="" fill="#a3a3a3" stroke="none"/><path d="" fill="url(#color-8)" stroke="none"/><path d="" fill="#323232" stroke="none"/></g><g><path d="" fill="url(#color-9)" stroke="#bfbfbf"/><path d="" fill="url(#color-10)" stroke="none"/><path d="" fill="#a3a3a3" stroke="none"/><path d="" fill="url(#color-11)" stroke="none"/><path d="" fill="#323232" stroke="none"/></g><g><path d="" fill="url(#color-12)" stroke="#bfbfbf"/><path d="" fill="url(#color-13)" stroke="none"/><path d="" fill="#a3a3a3" stroke="none"/><path d="" fill="#323232" stroke="none"/></g><g><path d="" fill="url(#color-14)" stroke="#bfbfbf"/><path d="" fill="url(#color-15)" stroke="none"/><path d="" fill="#a3a3a3" stroke="none"/><path d="" fill="#323232" stroke="none"/></g><g><path d="" fill="url(#color-16)" stroke="#bfbfbf"/><path d="" fill="url(#color-17)" stroke="none"/><path d="" fill="#a3a3a3" stroke="none"/><path d="" fill="#323232" stroke="none"/></g><g><path d="" fill="url(#color-18)" stroke="#bfbfbf"/><path d="" fill="url(#color-19)" stroke="none"/><path d="" fill="#a3a3a3" stroke="none"/><path d="" fill="url(#color-20)" stroke="none"/><path d="" fill="#323232" stroke="none"/></g><g><path d="" fill="url(#color-21)" stroke="#bfbfbf"/><path d="" fill="url(#color-22)" stroke="none"/><path d="" fill="#a3a3a3" stroke="none"/><path d="" fill="#323232" stroke="none"/></g><g><path d="" fill="url(#color-23)" stroke="#bfbfbf"/><path d="" fill="url(#color-24)" stroke="none"/><path d="" fill="#a3a3a3" stroke="none"/><path d="" fill="url(#color-25)" stroke="none"/><path d="" fill="#323232" stroke="none"/></g><g><path d="" fill="url(#color-26)" stroke="#bfbfbf"/><path d="" fill="url(#color-27)" stroke="none"/><path d="" fill="#a3a3a3" stroke="none"/><path d="" fill="url(#color-28)" stroke="none"/><path d="" fill="#323232" stroke="none"/></g><g><path d="" fill="url(#color-29)" stroke="#bfbfbf"/><path d="" fill="url(#color-30)" stroke="none"/><path d="" fill="#a3a3a3" stroke="none"/><path d="" fill="#323232" stroke="none"/></g><g><path d="" fill="url(#color-31)" stroke="#bfbfbf"/><path d="" fill="url(#color-32)" stroke="none"/><path d="" fill="#a3a3a3" stroke="none"/><path d="" fill="#323232" stroke="none"/></g><g><path d="" fill="url(#color-33)" stroke="#bfbfbf"/><path d="" fill="url(#color-34)" stroke="none"/><path d="" fill="#a3a3a3" stroke="none"/><path d="" fill="#323232" stroke="none"/></g><g><path d="" fill="url(#color-35)" stroke="#bfbfbf"/><path d="" fill="url(#color-36)" stroke="none"/><path d="" fill="#a3a3a3" stroke="none"/><path d="" fill="url(#color-37)" stroke="none"/><path d="" fill="#323232" stroke="none"/></g><g><path d="" fill="url(#color-38)" stroke="#bfbfbf"/><path d="" fill="url(#color-39)" stroke="none"/><path d="" fill="#a3a3a3" stroke="none"/><path d="" fill="url(#color-40)" stroke="none"/><path d="" fill="#323232" stroke="none"/></g></g><path d="M215.42985,180c0,-13.56971 11.00043,-24.57015 24.57015,-24.57015c13.56972,0 24.57015,11.00043 24.57015,24.57015c0,13.56971 -11.00042,24.57015 -24.57015,24.57015c-13.56971,0 -24.57015,-11.00043 -24.57015,-24.57015z" fill="#f4e28e" fill-rule="nonzero" stroke="none" stroke-width="0" stroke-linecap="butt" stroke-linejoin="miter"/><path d="M217.74951,180c0,-12.28861 9.96188,-22.25049 22.25049,-22.25049c12.28861,0 22.25049,9.96188 22.25049,22.25049c0,12.28861 -9.96188,22.25049 -22.25049,22.25049c-12.28861,0 -22.25049,-9.96188 -22.25049,-22.25049z" fill="#a59962" fill-rule="nonzero" stroke="none" stroke-width="0" stroke-linecap="butt" stroke-linejoin="miter"/><path d="M208.32067,180c0,-17.49601 14.18332,-31.67933 31.67933,-31.67933c17.49601,0 31.67933,14.18332 31.67933,31.67933c0,17.49601 -14.18332,31.67933 -31.67933,31.67933c-17.49601,0 -31.67933,-14.18332 -31.67933,-31.67933z" fill="url(#color-41)" fill-rule="nonzero" stroke="none" stroke-width="0" stroke-linecap="butt" stroke-linejoin="miter"/><path d="M220.06918,180c0,-11.00749 8.92332,-19.93082 19.93082,-19.93082c11.00749,0 19.93082,8.92332 19.93082,19.93082c0,11.00749 -8.92332,19.93082 -19.93082,19.93082c-11.00749,0 -19.93082,-8.92332 -19.93082,-19.93082z" fill="url(#color-42)" fill-rule="nonzero" stroke="none" stroke-width="0" stroke-linecap="butt" stroke-linejoin="miter"/><path d="M217.572,168.23521l1.13326,-1.73305l4.74307,3.10154l-1.13326,1.73305z" data-paper-data="{&quot;index&quot;:null}" fill="url(#color-43)" fill-rule="nonzero" stroke="none" stroke-width="0" stroke-linecap="butt" stroke-linejoin="miter"/><path d="M250.50848,182.35702c4.34362,4.49196 5.07627,10.8299 1.63641,14.15617c-3.43986,3.32626 -9.74963,2.38126 -14.09325,-2.1107c-4.34362,-4.49196 -5.07627,-10.82989 -1.63641,-14.15616c3.43986,-3.32626 9.74963,-2.38127 14.09325,2.1107z" data-paper-data="{&quot;index&quot;:null}" fill="url(#color-44)" fill-rule="nonzero" stroke="none" stroke-width="0" stroke-linecap="butt" stroke-linejoin="miter"/><path d="M238.32949,155.17864l2.07001,-0.05293l0.14488,5.66527l-2.07001,0.05293z" data-paper-data="{&quot;index&quot;:null}" fill="url(#color-45)" fill-rule="nonzero" stroke="none" stroke-width="0" stroke-linecap="butt" stroke-linejoin="miter"/><path d="M257.46696,171.51839l-1.13326,-1.73305l4.74308,-3.10154l1.13326,1.73305z" data-paper-data="{&quot;index&quot;:null}" fill="url(#color-46)" fill-rule="nonzero" stroke="none" stroke-width="0" stroke-linecap="butt" stroke-linejoin="miter"/><path d="M222.71468,189.05581l1.13326,1.73305l-4.74307,3.10154l-1.13326,-1.73305z" data-paper-data="{&quot;index&quot;:null}" fill="url(#color-47)" fill-rule="nonzero" stroke="none" stroke-width="0" stroke-linecap="butt" stroke-linejoin="miter"/><path d="M238.87396,199.54865l2.07,0.05293l-0.14488,5.66527l-2.07,-0.05293z" data-paper-data="{&quot;index&quot;:null}" fill="url(#color-48)" fill-rule="nonzero" stroke="none" stroke-width="0" stroke-linecap="butt" stroke-linejoin="miter"/><path d="M262.60964,191.97571l-1.13326,1.73305l-4.74307,-3.10154l1.13326,-1.73305z" data-paper-data="{&quot;index&quot;:null}" fill="url(#color-49)" fill-rule="nonzero" stroke="none" stroke-width="0" stroke-linecap="butt" stroke-linejoin="miter"/><path d="M251.34718,180.41106c-1.32831,1.07395 -3.36316,1.10222 -3.36316,1.10222" fill="none" fill-rule="evenodd" stroke="#001026" stroke-width="0" stroke-linecap="round" stroke-linejoin="round"/><path d="M250.97977,183.5764c-1.7805,0.14131 -2.88272,-0.39567 -2.88272,-0.39567" fill="none" fill-rule="evenodd" stroke="#001026" stroke-width="0" stroke-linecap="round" stroke-linejoin="round"/><path d="M228.65284,180.32627c0,0 2.43053,0.79134 3.4197,1.66745" fill="none" fill-rule="evenodd" stroke="#001026" stroke-width="0" stroke-linecap="round" stroke-linejoin="round"/><path d="M232.15731,182.98289c-1.21526,0.48045 -3.30665,0.16957 -3.30665,0.16957" fill="none" fill-rule="evenodd" stroke="#001026" stroke-width="0" stroke-linecap="round" stroke-linejoin="round"/><g><path d="M229.27733,180c0,-5.92197 4.80071,-10.72268 10.72268,-10.72268c5.92197,0 10.72268,4.80071 10.72268,10.72268c0,5.92197 -4.80071,10.72268 -10.72268,10.72268c-5.92197,0 -10.72268,-4.80071 -10.72268,-10.72268z" fill="url(#color-50)" fill-rule="nonzero" stroke="none" stroke-width="0" stroke-linecap="butt" stroke-linejoin="miter"/><path d="M243.07826,171.04846c0.08479,-0.05652 0.2261,-0.02826 0.25436,0.08479l0.73481,3.02402c0,0 1.80877,1.32831 2.34574,2.26096c0.90438,1.55441 0.93264,2.82619 0.93264,2.82619c0,0 2.0066,0.5935 2.34574,2.20443c0.33914,1.61093 -0.90438,4.66322 -6.21763,5.70891c-5.31324,1.04569 -9.5808,-0.39567 -11.58741,-3.61753c-2.0066,-3.22186 1.15874,-7.06548 0.98917,-6.83938l-0.5935,-5.05889c-0.02826,-0.11305 0.11304,-0.19783 0.2261,-0.1413l3.4197,2.23269c0,0 1.27179,-0.48045 2.60011,-0.53698c0.79134,-0.05652 1.46963,0 2.11964,0.11305z" fill="#dece8c" fill-rule="evenodd" stroke="#ab9f67" stroke-width="1.5" stroke-linecap="butt" stroke-linejoin="miter"/><path d="M247.26102,179.35747c0,0 1.95007,0.50871 2.28921,2.11964c0.33914,1.61093 -1.01743,4.52191 -6.27415,5.53934c-6.83938,1.4131 -10.08951,-2.65662 -8.19596,-5.65239c1.89355,-3.02403 5.14368,-0.45219 7.51767,-0.62176c2.03486,-0.14131 2.26096,-1.92181 4.66322,-1.38484z" fill="#f4e28e" fill-rule="evenodd" stroke="none" stroke-width="0" stroke-linecap="butt" stroke-linejoin="miter"/><path d="M238.35851,182.3815c0,-0.11305 0.11304,-0.19784 0.2261,-0.16957c0.53698,0.19783 2.06312,0.65003 3.75884,0.76308c1.52614,0.08479 2.43053,0.00001 2.85446,-0.08479c0.14131,-0.02826 0.25436,0.11304 0.19784,0.25436c-0.25436,0.76308 -1.32831,2.88272 -4.29581,2.71315c-2.57184,-0.28261 -2.8262,-2.09138 -2.74141,-3.47622z" fill="#ffeea2" fill-rule="evenodd" stroke="#001026" stroke-width="0" stroke-linecap="round" stroke-linejoin="round"/><path d="M242.48476,180.0075c0.5935,0 1.21526,0.05652 1.24353,0.25436c0.02826,0.39567 -0.39567,1.187 -0.84785,1.21526c-0.50871,0.05652 -1.69572,-0.65003 -1.69572,-1.10222c-0.02826,-0.33914 0.73481,-0.36741 1.30005,-0.36741z" fill="#b3a668" fill-rule="evenodd" stroke="#001026" stroke-width="0" stroke-linecap="round" stroke-linejoin="round"/><path d="M245.81967,176.70085c0.81959,1.27179 0.84786,2.71315 0.05652,3.22186c-0.79134,0.50871 -2.09138,-0.08479 -2.93924,-1.35657c-0.81959,-1.27179 -0.84786,-2.71315 -0.05652,-3.22186c0.79134,-0.53698 2.11964,0.08479 2.93924,1.35657z" fill="#ffeb94" fill-rule="evenodd" stroke="#001026" stroke-width="0" stroke-linecap="round" stroke-linejoin="round"/><path d="M245.70662,178.31178c0,0.31088 -0.2261,0.56525 -0.50871,0.56525c-0.28261,0 -0.50871,-0.25436 -0.50871,-0.56525c0,-0.31088 0.2261,-0.56524 0.50871,-0.56524c0.28261,0 0.50871,0.25436 0.50871,0.56524" fill="#b3a668" fill-rule="evenodd" stroke="none" stroke-width="0" stroke-linecap="butt" stroke-linejoin="miter"/><path d="M238.8107,177.49218c0.84785,1.24353 0.79134,2.76967 0.02826,3.30665c-0.93264,0.53698 -2.17617,0.14131 -3.02402,-1.10222c-0.87612,-1.24353 -0.93264,-2.85446 -0.05652,-3.47622c0.87612,-0.65003 2.20443,0.02826 3.05229,1.27179z" fill="#ffeb94" fill-rule="evenodd" stroke="#001026" stroke-width="0" stroke-linecap="round" stroke-linejoin="round"/><path d="M238.64113,179.13138c0,0.31088 -0.2261,0.56524 -0.50871,0.56524c-0.28261,0 -0.50871,-0.25436 -0.50871,-0.56524c0,-0.31088 0.2261,-0.56525 0.50871,-0.56525c0.28261,0.02826 0.50871,0.25436 0.50871,0.56525" fill="#b3a668" fill-rule="evenodd" stroke="none" stroke-width="0" stroke-linecap="butt" stroke-linejoin="miter"/></g><path d="M233.67753,174.06625c0,4.47086 -2.77546,8.09522 -6.19916,8.09522c-3.4237,0 -6.19916,-3.62436 -6.19916,-8.09522c0,-4.47086 2.77546,-8.09522 6.19916,-8.09522c3.4237,0 6.19916,3.62436 6.19916,8.09522z" data-paper-data="{&quot;index&quot;:null}" fill="url(#color-51)" fill-rule="nonzero" stroke="none" stroke-width="0" stroke-linecap="butt" stroke-linejoin="miter"/><path d="M237.00235,188.28135c2.93845,3.03881 3.43409,7.32642 1.10703,9.57663c-2.32706,2.25021 -6.59562,1.61092 -9.53407,-1.42789c-2.93845,-3.03881 -3.43409,-7.32642 -1.10703,-9.57663c2.32706,-2.25021 6.59562,-1.61092 9.53407,1.42789z" data-paper-data="{&quot;index&quot;:null}" fill="url(#color-52)" fill-rule="nonzero" stroke="none" stroke-width="0" stroke-linecap="butt" stroke-linejoin="miter"/><path d="M255.699,168.7468c2.22319,2.29912 2.59818,5.54305 0.83756,7.24553c-1.76062,1.70248 -4.99014,1.2188 -7.21333,-1.08032c-2.22319,-2.29912 -2.59818,-5.54305 -0.83756,-7.24553c1.76062,-1.70248 4.99014,-1.2188 7.21333,1.08032z" data-paper-data="{&quot;index&quot;:null}" fill="url(#color-53)" fill-rule="nonzero" stroke="none" stroke-width="0" stroke-linecap="butt" stroke-linejoin="miter"/><path d="M183.39262,236.60738v-113.21476h113.21476v113.21476z" fill="none" fill-rule="nonzero" stroke="none" stroke-width="0" stroke-linecap="butt" stroke-linejoin="miter"/></g></g></svg>