<svg version="1.1" xmlns="http://www.w3.org/2000/svg" xmlns:xlink="http://www.w3.org/1999/xlink" width="321.95283" height="321.95283" viewBox="0,0,321.95283,321.95283"><defs><radialGradient cx="240" cy="180" r="104.69079" gradientUnits="userSpaceOnUse" id="color-1"><stop offset="0" stop-color="#3f9421"/><stop offset="1" stop-color="#3f9421" stop-opacity="0"/></radialGradient><radialGradient cx="253.93635" cy="198.11459" r="101.61094" gradientUnits="userSpaceOnUse" id="color-2"><stop offset="0" stop-color="#252525"/><stop offset="1" stop-color="#252525" stop-opacity="0"/></radialGradient><radialGradient cx="240" cy="180" r="80.03979" gradientUnits="userSpaceOnUse" id="color-3"><stop offset="0" stop-color="#5ab03b"/><stop offset="1" stop-color="#afd5a1"/></radialGradient><radialGradient cx="184.51052" cy="224.93214" r="6.2104" gradientUnits="userSpaceOnUse" id="color-4"><stop offset="0" stop-color="#ff5151"/><stop offset="1" stop-color="#f4232d"/></radialGradient><radialGradient cx="233.62816" cy="124.34392" r="6.2104" gradientUnits="userSpaceOnUse" id="color-5"><stop offset="0" stop-color="#ff5151"/><stop offset="1" stop-color="#f4232d"/></radialGradient><radialGradient cx="240.00003" cy="180.00001" r="68.24897" gradientUnits="userSpaceOnUse" id="color-6"><stop offset="0" stop-color="#3f9421"/><stop offset="1" stop-color="#3f9421" stop-opacity="0"/></radialGradient><linearGradient x1="270.24279" y1="147.71028" x2="291.35544" y2="137.58136" gradientUnits="userSpaceOnUse" id="color-7"><stop offset="0" stop-color="#ffffff"/><stop offset="1" stop-color="#dde7dd"/></linearGradient><linearGradient x1="152.64075" y1="182.75093" x2="179.95374" y2="182.75093" gradientUnits="userSpaceOnUse" id="color-8"><stop offset="0" stop-color="#ffffff"/><stop offset="1" stop-color="#dde7dd"/></linearGradient><linearGradient x1="255.64688" y1="255.6976" x2="252.82798" y2="232.45125" gradientUnits="userSpaceOnUse" id="color-9"><stop offset="0" stop-color="#ffffff"/><stop offset="1" stop-color="#dde7dd"/></linearGradient><radialGradient cx="185.51697" cy="141.70546" r="6.96242" gradientUnits="userSpaceOnUse" id="color-10"><stop offset="0" stop-color="#f9ed0e"/><stop offset="1" stop-color="#e5d600"/></radialGradient><radialGradient cx="306.81709" cy="184.31575" r="5.83608" gradientUnits="userSpaceOnUse" id="color-11"><stop offset="0" stop-color="#0ee125"/><stop offset="1" stop-color="#22cd1f"/></radialGradient><radialGradient cx="281.19878" cy="248.29635" r="6.96241" gradientUnits="userSpaceOnUse" id="color-12"><stop offset="0" stop-color="#f9ed0e"/><stop offset="1" stop-color="#e5d600"/></radialGradient></defs><g transform="translate(-79.02358,-19.02358)"><g data-paper-data="{&quot;isPaintingLayer&quot;:true}" fill-rule="nonzero" stroke-linecap="butt" stroke-linejoin="miter" stroke-miterlimit="10" stroke-dasharray="" stroke-dashoffset="0" style="mix-blend-mode: normal"><path d="M135.30921,180c0,-57.81912 46.87167,-104.69079 104.69079,-104.69079c57.81912,0 104.69079,46.87167 104.69079,104.69079c0,57.81912 -46.87167,104.69079 -104.69079,104.69079c-57.81912,0 -104.69079,-46.87167 -104.69079,-104.69079z" fill="url(#color-1)" stroke="none" stroke-width="0"/><path d="M152.32542,198.11459c0,-56.11815 45.49277,-101.61094 101.61094,-101.61094c56.11815,0 101.61094,45.49277 101.61094,101.61094c0,56.11815 -45.49277,101.61095 -101.61094,101.61095c-56.11815,0 -101.61094,-45.4928 -101.61094,-101.61095z" fill="url(#color-2)" stroke="none" stroke-width="0"/><path d="M160.27432,179.68592c0,-13.69545 11.81224,-19.70027 17.44666,-29.01421c6.16147,-10.18518 6.65642,-23.34403 18.52238,-30.6819c12.16922,-7.52539 28.39738,-20.0296 43.75668,-20.0296c2.40489,0 1.64613,3.87303 3.99682,4.08155c14.31419,1.26966 37.97359,6.48392 49.61004,13.70882c7.41043,4.60102 5.28534,16.47469 9.18994,22.94236c7.39242,12.245 16.92888,21.33667 16.92888,38.99298c0,15.6577 -8.90805,30.2612 -16.70526,42.58024c-4.54317,7.17785 -4.72467,24.25213 -10.63749,29.63552c-12.47637,11.35921 -33.13258,7.50999 -52.38296,7.50999c-21.76637,0 -38.21979,-15.19681 -55.25465,-26.00198c-17.85529,-11.32559 -24.47108,-31.45882 -24.47108,-53.72374z" fill="url(#color-3)" stroke="#daf5d1" stroke-width="0.5"/><path d="M178.30012,224.93214c0,-3.42991 2.78049,-6.21041 6.21041,-6.21041c3.42991,0 6.2104,2.78049 6.2104,6.21041c0,3.42991 -2.78049,6.21041 -6.2104,6.21041c-3.42991,0 -6.21041,-2.7805 -6.21041,-6.21041z" fill="url(#color-4)" stroke="none" stroke-width="NaN"/><path d="M79.02358,340.97641v-321.95283h321.95283v321.95283z" fill="none" stroke="none" stroke-width="0"/><path d="M227.41776,124.34392c0,-3.42991 2.78049,-6.2104 6.21041,-6.2104c3.42991,0 6.2104,2.78049 6.2104,6.2104c0,3.42991 -2.78049,6.21041 -6.2104,6.21041c-3.42991,0 -6.21041,-2.7805 -6.21041,-6.21041z" fill="url(#color-5)" stroke="none" stroke-width="NaN"/><path d="M171.75105,180.00001c0,-37.69287 30.5561,-68.24897 68.24897,-68.24897c37.69287,0 68.24897,30.5561 68.24897,68.24897c0,37.69287 -30.5561,68.24897 -68.24897,68.24897c-37.69287,0 -68.24897,-30.5561 -68.24897,-68.24897z" fill="url(#color-6)" stroke="none" stroke-width="0"/><path d="M270.61432,157.52697c-2.87385,-3.35149 -2.28597,-8.17589 -4.19276,-11.76958c-1.07369,-2.02357 0.82257,-7.95291 0.42192,-12.06048c-0.7559,-7.74993 10.50492,-6.93627 13.02009,-2.17303c3.77279,7.14495 7.94624,15.35682 9.63604,16.67159c2.62489,2.04233 5.04603,10.20808 7.09943,15.65446c1.89117,5.0161 -10.82801,8.28977 -12.90539,8.75457c-3.1807,0.71166 -10.80856,-12.42933 -13.07933,-15.07752z" data-paper-data="{&quot;index&quot;:null}" fill="url(#color-7)" stroke="none" stroke-width="0"/><path d="M171.21426,218.33033c0,0 -14.23717,-8.18388 -17.52318,-20.4622c-3.49533,-13.06044 2.74254,-30.26364 4.0653,-30.26364c0.15584,0 20.65548,-22.72195 21.63498,-20.24409c1.57694,3.98924 -0.26188,12.74895 -4.2718,20.54298c-2.81943,5.4801 -8.2825,9.74997 -7.58617,14.72192c0.59392,4.24073 3.25746,6.62613 5.11362,10.35144c3.32333,6.66989 2.54838,12.74701 6.09384,17.13168c3.4818,4.30594 -7.52659,8.22191 -7.52659,8.22191z" fill="url(#color-8)" stroke="none" stroke-width="0"/><path d="M276.51058,244.28867c-2.50093,1.85004 -6.58361,3.65286 -9.8204,4.95383c-4.09641,1.64649 -8.02975,0.4474 -12.04524,1.10025c-2.26109,0.36762 -10.20774,2.37695 -14.22667,1.4384c-7.58269,-1.77079 -11.42509,-7.45157 -8.70629,-8.17431c1.4192,-0.37726 6.97541,1.18909 12.29382,0.3353c7.97772,-1.2807 16.49211,-5.14889 18.27957,-6.32746c2.77659,-1.83077 13.57936,-8.2689 19.39663,-8.46613c5.35768,-0.18165 6.45085,4.56801 6.22449,6.6847c-0.34656,3.24087 -11.20704,8.3157 -11.39592,8.45541z" fill="url(#color-9)" stroke="none" stroke-width="0"/><path d="M178.55456,141.70546c0,-3.84524 3.11718,-6.96241 6.96241,-6.96241c3.84524,0 6.96242,3.11718 6.96242,6.96241c0,3.84524 -3.11718,6.96241 -6.96242,6.96241c-3.84524,0 -6.96241,-3.11718 -6.96241,-6.96241z" fill="url(#color-10)" stroke="none" stroke-width="NaN"/><path d="M300.98102,184.31575c0,-3.22318 2.61289,-5.83607 5.83607,-5.83607c3.22318,0 5.83608,2.61289 5.83608,5.83607c0,3.22318 -2.6129,5.83607 -5.83608,5.83607c-3.22318,0 -5.83607,-2.61289 -5.83607,-5.83607z" fill="url(#color-11)" stroke="none" stroke-width="NaN"/><path d="M274.23636,248.29635c0,-3.84524 3.11718,-6.96241 6.96242,-6.96241c3.84524,0 6.96241,3.11718 6.96241,6.96241c0,3.84524 -3.11718,6.96241 -6.96241,6.96241c-3.84524,0 -6.96242,-3.11718 -6.96242,-6.96241z" fill="url(#color-12)" stroke="none" stroke-width="NaN"/></g></g></svg>