<svg version="1.1" xmlns="http://www.w3.org/2000/svg" xmlns:xlink="http://www.w3.org/1999/xlink" width="77.61389" height="49.00095" viewBox="0,0,77.61389,49.00095"><g transform="translate(-200.76235,-155.90114)"><g data-paper-data="{&quot;isPaintingLayer&quot;:true}" fill-rule="nonzero" stroke-linecap="butt" stroke-linejoin="miter" stroke-miterlimit="10" stroke-dasharray="" stroke-dashoffset="0" style="mix-blend-mode: normal"><path d="M208.10071,177.75302c5.34904,-2.98917 20.20489,-13.57457 29.42521,-18.7271c3.79152,-2.11879 8.07983,0.83367 8.07983,5.32108c0,3.47857 30.82448,3.44975 30.82448,7.87208c0,3.27313 3.03653,14.38045 -2.66769,18.24816c-8.95141,6.06946 -28.30219,0.36908 -28.30219,2.68478c0,3.71706 -2.6619,10.91062 -6.77738,8.70157c-9.38598,-5.03806 -25.57636,-13.72849 -30.78813,-16.52598c-3.18556,-1.70989 -3.05869,-5.75027 0.20587,-7.57458z" fill-opacity="0.03922" fill="#000000" stroke="none" stroke-width="0"/><g fill="none" stroke="#ffffff" stroke-width="4"><path d="M205.39818,176.53249c0.33513,-0.19003 0.71254,-0.40405 1.12803,-0.63965c6.51189,-3.6926 22.37793,-12.68951 31.43167,-17.82348c3.96056,-2.24586 6.6175,-0.5034 6.6175,4.25313c0,1.62969 0.1121,5.57409 0.1121,5.57409l-0.01604,-5.66971c0,0 0.00646,-3.30069 -2.19028,-4.60656c-1.56698,-0.9315 -5.25799,0.73645 -5.25799,0.73645c0,0 -8.46575,5.19246 -17.51555,10.1976c-7.97024,4.40806 -17.00222,7.65596 -16.85275,12.01708c0.14184,4.13862 9.64611,8.18043 18.30847,12.68243c8.61917,4.47955 16.51654,8.75561 16.51654,8.75561c0,0 3.09962,1.33762 4.35922,0.73351c2.69082,-1.29055 2.51536,-5.40715 2.51536,-5.40715l0.24512,-5.70019c0,0 -0.22421,4.72355 -0.22421,5.84288c0,3.93999 -2.93246,6.94139 -7.23143,4.59986c-9.80445,-5.3402 -26.71667,-14.55179 -32.1608,-17.51706c-3.32758,-1.81244 -3.19506,-6.09512 0.21504,-8.02884z"/><path d="M242.67715,192.13786c0,0 22.03798,0 27.91776,0c3.02804,0 5.78133,-2.34855 5.78133,-6.006c0,-4.17594 0,-10.20431 0,-12.0907c0,-3.55991 -2.56998,-6.19201 -5.59802,-6.19201c-5.87979,0 -27.95568,0 -27.95568,0l27.92947,-0.11336c0,0 3.51389,0.06026 4.9388,3.95039c1.39971,3.82133 0.57211,11.44349 0.69975,14.99071c0.16383,4.55262 -5.71651,5.36972 -5.71651,5.52849c0,0.01867 -27.99691,-0.06751 -27.99691,-0.06751z"/></g><text transform="translate(222.016,185.3952) scale(0.4496,0.4496)" font-size="40" xml:space="preserve" fill="#ffffff" fill-rule="nonzero" stroke="#ffffff" stroke-width="1" stroke-linecap="butt" stroke-linejoin="miter" stroke-miterlimit="10" stroke-dasharray="" stroke-dashoffset="0" font-family="Sans Serif" font-weight="normal" text-anchor="start" style="mix-blend-mode: normal"><tspan x="0" dy="0">返回</tspan></text></g></g></svg>