<svg version="1.1" xmlns="http://www.w3.org/2000/svg" xmlns:xlink="http://www.w3.org/1999/xlink" width="465.03239" height="222.96073" viewBox="0,0,465.03239,222.96073"><defs><linearGradient x1="146.06599" y1="234.75427" x2="146.06599" y2="223.85098" gradientUnits="userSpaceOnUse" id="color-1"><stop offset="0" stop-color="#5e4706"/><stop offset="1" stop-color="#fccc56"/></linearGradient><linearGradient x1="306.85965" y1="297.44624" x2="317.79375" y2="297.44624" gradientUnits="userSpaceOnUse" id="color-2"><stop offset="0" stop-color="#171614"/><stop offset="1" stop-color="#785b09"/></linearGradient><linearGradient x1="293.89743" y1="260.60177" x2="293.89743" y2="290.93665" gradientUnits="userSpaceOnUse" id="color-3"><stop offset="0" stop-color="#ffef60"/><stop offset="1" stop-color="#ffd900"/></linearGradient><linearGradient x1="291.33941" y1="261.80557" x2="291.33941" y2="245.24026" gradientUnits="userSpaceOnUse" id="color-4"><stop offset="0" stop-color="#ffe600"/><stop offset="1" stop-color="#f5c314"/></linearGradient><linearGradient x1="315.42823" y1="248.39564" x2="370.9524" y2="248.39564" gradientUnits="userSpaceOnUse" id="color-5"><stop offset="0" stop-color="#fccb2b"/><stop offset="1" stop-color="#e3b72f"/></linearGradient><linearGradient x1="321.46475" y1="276.01573" x2="370.37984" y2="276.01573" gradientUnits="userSpaceOnUse" id="color-6"><stop offset="0" stop-color="#e4b700"/><stop offset="1" stop-color="#e3b730"/></linearGradient><linearGradient x1="373.23686" y1="283.88401" x2="329.87631" y2="314.24762" gradientUnits="userSpaceOnUse" id="color-7"><stop offset="0" stop-color="#94700f"/><stop offset="1" stop-color="#ffc71f"/></linearGradient><linearGradient x1="352.33273" y1="239.30443" x2="358.00482" y2="239.30443" gradientUnits="userSpaceOnUse" id="color-8"><stop offset="0" stop-color="#785b09"/><stop offset="1" stop-color="#fee589"/></linearGradient><linearGradient x1="356.94772" y1="219.98759" x2="406.91924" y2="219.98759" gradientUnits="userSpaceOnUse" id="color-9"><stop offset="0" stop-color="#ffc400"/><stop offset="1" stop-color="#cc9600"/></linearGradient><linearGradient x1="365.37106" y1="262.2149" x2="392.81879" y2="262.2149" gradientUnits="userSpaceOnUse" id="color-10"><stop offset="0" stop-color="#e9bc39"/><stop offset="1" stop-color="#f7ca00"/></linearGradient><linearGradient x1="388.89351" y1="217.57897" x2="388.89351" y2="251.66855" gradientUnits="userSpaceOnUse" id="color-11"><stop offset="0" stop-color="#ffd100"/><stop offset="1" stop-color="#f0c11a"/></linearGradient><linearGradient x1="224.7189" y1="190.30514" x2="224.7189" y2="203.5427" gradientUnits="userSpaceOnUse" id="color-12"><stop offset="0" stop-color="#785b09"/><stop offset="1" stop-color="#ffe449"/></linearGradient><linearGradient x1="225.99615" y1="251.20461" x2="157.07862" y2="161.66825" gradientUnits="userSpaceOnUse" id="color-13"><stop offset="0" stop-color="#3c3c3c"/><stop offset="1" stop-color="#aeadac"/></linearGradient><linearGradient x1="307.89475" y1="265.83155" x2="307.89475" y2="329.17494" gradientUnits="userSpaceOnUse" id="color-14"><stop offset="0" stop-color="#4a4948"/><stop offset="1" stop-color="#ecebea"/></linearGradient><linearGradient x1="403.4609" y1="244.16242" x2="403.4609" y2="293.13059" gradientUnits="userSpaceOnUse" id="color-15"><stop offset="0" stop-color="#4a4948"/><stop offset="1" stop-color="#dedcdb"/></linearGradient><radialGradient cx="235.05126" cy="278.97085" r="3.93702" gradientUnits="userSpaceOnUse" id="color-16"><stop offset="0" stop-color="#c8c7c6"/><stop offset="1" stop-color="#4a4948"/></radialGradient><radialGradient cx="255.47815" cy="273.49325" r="3.93705" gradientUnits="userSpaceOnUse" id="color-17"><stop offset="0" stop-color="#c8c7c6"/><stop offset="1" stop-color="#4a4948"/></radialGradient><radialGradient cx="105.16677" cy="266.61314" r="3.13089" gradientUnits="userSpaceOnUse" id="color-18"><stop offset="0" stop-color="#c8c7c6"/><stop offset="1" stop-color="#4a4948"/></radialGradient><radialGradient cx="109.811" cy="272.96781" r="3.06976" gradientUnits="userSpaceOnUse" id="color-19"><stop offset="0" stop-color="#c8c7c6"/><stop offset="1" stop-color="#4a4948"/></radialGradient><linearGradient x1="363.02593" y1="217.53988" x2="363.02593" y2="232.34601" gradientUnits="userSpaceOnUse" id="color-20"><stop offset="0" stop-color="#3d2e04"/><stop offset="1" stop-color="#fccc56"/></linearGradient><linearGradient x1="341.27217" y1="228.45655" x2="341.27217" y2="237.81548" gradientUnits="userSpaceOnUse" id="color-21"><stop offset="0" stop-color="#e0ac16"/><stop offset="1" stop-color="#fece39"/></linearGradient></defs><g transform="translate(-17.19124,-142.363)"><g data-paper-data="{&quot;isPaintingLayer&quot;:true}" fill-rule="nonzero" stroke-linejoin="miter" stroke-miterlimit="10" stroke-dasharray="" stroke-dashoffset="0" style="mix-blend-mode: normal"><path d="M275.83198,328.81899c0,-1.79178 10.3444,-4.13779 10.3444,-4.13779c0,0 9.9125,-44.57559 17.40892,-64.16886c2.26909,-5.93068 6.50934,-7.37989 7.41763,-7.37989c0.66056,0 15.78438,6.65307 15.59459,13.06796c-0.25402,8.5863 -19.21511,68.30803 -19.21511,68.30803c0,0 -5.56265,0.9775 -12.05752,1.07486c-3.85212,0.05777 -8.14388,-0.41762 -11.49256,-0.98018c-6.28388,-1.05569 -8.00032,-5.22123 -8.00032,-5.78408z" fill="#050505" stroke="none" stroke-width="0" stroke-linecap="butt"/><path d="M331.00212,293.82043c0,22.51756 -12.01055,41.72244 -28.10228,41.72244c-0.13842,0 -7.93373,-1.75851 -13.22973,-6.58474c-8.46542,-7.71454 -15.90702,-21.39049 -15.90702,-34.10323c0,-21.13832 16.4931,-36.03301 32.58486,-36.03301c16.09177,0 24.65417,16.44635 24.65417,34.99854z" fill="#171614" stroke="none" stroke-width="0" stroke-linecap="butt"/><path d="M152.19905,223.85098l-13.17481,7.95031c0,0 -2.72582,-0.1758 -2.72582,-1.81721c0,-0.70823 2.11444,-4.21418 4.80118,-5.20823c4.68107,-1.73187 11.09945,-0.9249 11.09945,-0.9249z" data-paper-data="{&quot;index&quot;:null}" fill="url(#color-1)" stroke="none" stroke-width="0" stroke-linecap="butt"/><path d="M86.9246,286.91668c0,0 0.43964,-15.32823 11.61951,-28.97533c11.42083,-13.94119 37.89962,-24.24246 37.89962,-24.24246l27.49793,7.27202l71.96946,2.05507l65.45746,-2.73205c0,0 -13.84128,14.71275 -21.73842,21.70008c-10.91508,9.65755 -37.01869,34.5421 -37.01869,34.5421c0,0 -32.8032,5.82658 -56.03902,7.37405c-21.83712,1.4543 -56.61615,-3.35948 -67.92095,-4.00626c-11.17329,-0.63925 -31.72684,-12.98718 -31.72684,-12.98718z" fill="#ffd900" stroke="none" stroke-width="0" stroke-linecap="butt"/><path d="M293.87469,296.37387c0,-5.08793 3.36976,-9.21248 7.52656,-9.21248c4.15679,0 7.52656,4.12455 7.52656,9.21248c0,5.08793 -3.36973,9.21251 -7.52653,9.21251c-4.15679,0 -7.52656,-4.12458 -7.52656,-9.21251z" fill="#787876" stroke="none" stroke-width="0" stroke-linecap="butt"/><path d="M138.92917,278.7546c0,0 -10.68147,3.09376 -16.8979,8.52751c-5.39049,4.71181 -6.42975,11.99296 -6.4794,10.56592c-0.04601,-1.32176 -26.89255,-10.06498 -26.89255,-10.06498c0,0 0.3681,-12.51128 3.28784,-17.69254c4.38724,-7.78541 10.3322,-16.71656 20.32739,-24.18065c9.99519,-7.46409 22.49979,-9.49922 22.49979,-9.49922l30.46467,4.7484l70.33556,2.42783c0,0 58.87648,-3.17872 56.78646,-2.51251c-3.99949,1.27495 -46.63872,19.62343 -46.63872,19.62343z" fill="#ffde25" stroke="none" stroke-width="0" stroke-linecap="butt"/><path d="M115.77341,274.89351c0,0 2.26954,-14.06363 4.20392,-20.5046c2.45071,-8.16008 11.77243,-18.52625 11.77243,-18.52625l0.80895,0.20222c0,0 -9.36508,9.52916 -11.8981,18.14649c-1.81012,6.15802 -3.87602,20.6821 -3.87602,20.6821z" fill="#b2880c" stroke="none" stroke-width="0" stroke-linecap="butt"/><path d="M376.23371,300.21191c0,0 -4.03285,-1.45346 -4.03285,-2.17154c0,-1.86038 0.61886,-38.00264 0.61886,-38.00264l25.1294,-26.05788c0,0 4.8826,-1.53443 6.47247,0.22281c0.83278,0.92043 5.16081,10.63492 5.16081,10.63492l-8.06573,55.06411c0,0 -2.53037,1.43848 -5.11202,1.47014c-4.60672,0.05652 -20.17095,-1.15992 -20.17095,-1.15992z" fill="#050505" stroke="none" stroke-width="0" stroke-linecap="butt"/><path d="M116.01606,274.22337c0,0 9.6794,3.15052 14.52442,4.44252c4.7384,1.26357 14.23298,3.22614 14.23298,3.22614v0.87145c0,0 -9.30115,-1.85287 -13.79185,-3.0504c-5.03313,-1.34217 -15.15853,-4.71472 -15.15853,-4.71472z" fill="#b2880c" stroke="none" stroke-width="0" stroke-linecap="butt"/><path d="M134.85593,234.42713c0,0 9.22542,-6.34015 16.0718,-10.11524c10.63667,-5.86505 41.5508,-21.65796 41.5508,-21.65796l0.26927,0.8078c0,0 -31.1176,16.8418 -40.59915,22.61964c-5.56709,3.39245 -11.09961,8.88429 -11.09961,8.88429z" fill="#ffe449" stroke="none" stroke-width="0" stroke-linecap="butt"/><path d="M306.85965,316.604c0,0 2.33248,-12.02228 2.96518,-18.12311c0.66599,-6.42227 0.93605,-19.49563 0.93605,-19.49563l1.11461,-0.69663c0,0 5.63758,11.23464 5.91573,15.6096c0.15248,2.39792 -6.61236,20.75517 -6.61236,20.75517z" fill="url(#color-2)" stroke="none" stroke-width="0" stroke-linecap="butt"/><path d="M311.73618,314.65342c0,0 2.60715,-12.95389 2.66649,-18.11569c0.07589,-6.60188 -2.24851,-18.24906 -2.24851,-18.24906c0,0 8.29879,6.54229 7.7031,16.7199c-0.74999,12.81422 -8.1211,19.64488 -8.1211,19.64488z" fill="#cc9c13" stroke="none" stroke-width="0" stroke-linecap="butt"/><path d="M144.71256,282.73751l-0.65756,-0.98944l8.2128,-2.29613l0.08219,1.22002z" fill="#b2880c" stroke="none" stroke-width="0" stroke-linecap="butt"/><path d="M152.26782,280.67196v-1.22002h14.11728v1.22002z" fill="#b2880c" stroke="none" stroke-width="0" stroke-linecap="butt"/><path d="M166.02901,280.6624l0.27168,-1.21996l5.17758,3.2632l-0.53426,1.08067z" fill="#b2880c" stroke="none" stroke-width="0" stroke-linecap="butt"/><path d="M170.89564,283.80136v-1.03231c0,0 13.96365,-0.53447 21.09876,-1.03897c7.45115,-0.52684 22.70106,-2.05797 22.70106,-2.05797l0.04587,0.98646c0,0 -15.14829,1.57701 -22.59945,2.10384c-7.1351,0.5045 -21.24622,1.03897 -21.24622,1.03897z" fill="#b2880c" stroke="none" stroke-width="0" stroke-linecap="butt"/><path d="M214.68367,279.67208c0,0 20.98526,-12.34349 32.79674,-18.49385c12.99792,-6.76813 42.13182,-20.43929 42.13182,-20.43929v0.88483c0,0 -30.42422,13.95298 -43.46138,20.74156c-11.75243,6.11958 -31.46719,18.32923 -31.46719,18.32923z" fill="#b2880c" stroke="none" stroke-width="0" stroke-linecap="butt"/><path d="M317.95338,245.42704l-15.031,-6.23928c0,0 5.83511,-17.20177 9.472,-24.77578c0.64544,-1.34419 1.22165,-2.38511 1.68375,-2.97285c4.35413,-5.53804 11.00761,-6.7789 12.90401,-7.1144c2.87022,-0.50782 9.83092,0.40516 9.83092,0.40516l13.75478,22.12112c0,0 -16.36605,9.97513 -22.38527,13.40346c-4.06892,2.3175 -10.22918,5.1726 -10.22918,5.1726z" fill="#595959" stroke="none" stroke-width="0" stroke-linecap="butt"/><path d="M87.0724,305.67411l0.17181,-17.69423l30.40662,12.02521l70.22542,3.74227l52.94932,-6.92441c0,0 7.89018,4.79796 11.4769,8.00639c4.08618,3.65523 11.73764,12.75984 11.73764,12.75984l-161.33487,-11.39967z" fill="#5e4706" stroke="none" stroke-width="0" stroke-linecap="butt"/><path d="M88.6185,315.12253l-0.34359,-25.08119c0,0 15.4044,7.02659 20.82633,9.49973c3.4739,1.5846 8.54956,3.8998 8.54956,3.8998l68.20016,4.8101l55.11223,-8.45708c0,0 4.73028,2.71064 7.96271,5.25057c4.12308,3.23972 14.41703,12.77613 14.41703,12.77613l-9.12042,9.16669l-42.27213,0.95628c0,0 -33.74296,-1.21948 -36.41306,-1.32917c-11.71172,-0.48105 -51.40677,-4.53313 -52.2685,-4.61809c-5.91927,-0.58358 -20.86205,-2.49362 -20.86205,-2.49362z" fill="#050505" stroke="none" stroke-width="0" stroke-linecap="butt"/><path d="M82.7776,316.49681c0,0 0.65567,-2.83507 1.2899,-4.30732c0.88439,-2.05309 3.86379,-7.03075 3.86379,-7.03075l0.51537,9.27659l14.94563,4.98188c0,0 -2.39243,2.12811 -6.43467,2.62255c-2.41074,0.29489 -5.20197,0.37529 -6.87296,-0.11946c-2.81765,-0.83425 -5.30054,-2.52663 -6.46879,-3.02733c-1.57284,-0.67407 -0.83822,-2.39617 -0.83822,-2.39617z" fill="#b2880c" stroke="none" stroke-width="0" stroke-linecap="butt"/><path d="M99.44222,323.15449c0,0 -1.88019,0.11791 -2.76663,0.0115c-0.82016,-0.09845 -2.36853,-0.6279 -2.36853,-0.6279l29.18347,-11.49646l2.7301,-0.07078z" fill="#ffdd1c" stroke="none" stroke-width="0" stroke-linecap="butt"/><path d="M240.20475,295.99244l37.15078,-32.63939l26.02385,-2.73921l-14.47052,31.40805z" fill="url(#color-3)" stroke="none" stroke-width="0" stroke-linecap="butt"/><path d="M108.546,322.1658l-8.93299,0.85892l26.62725,-11.8534c0,0 1.82511,0.06026 1.32805,1.2898c-1.11822,2.76618 -8.37139,6.26889 -8.37139,6.26889c0,0 2.91278,1.22012 13.26344,2.44729c13.17366,1.56188 33.95493,1.51724 47.70428,3.03458c10.21691,1.12752 18.09188,4.55604 17.51264,4.74034c-0.98696,0.31403 -28.99689,0.61049 -52.40248,-1.19158c-19.06423,-1.46781 -36.72881,-5.59489 -36.72881,-5.59489z" fill="#785b09" stroke="none" stroke-width="0" stroke-linecap="butt"/><path d="M181.03593,316.51036c-0.21555,-0.98705 0.23396,-1.90323 0.23396,-1.90323c0,0 28.42941,12.98545 31.03557,13.17385c0.42695,0.03087 41.9261,-0.63327 41.9261,-0.63327l-0.42845,4.37047c0,0 -42.73079,2.03046 -48.5096,1.85899c-0.87911,-0.02607 -23.72073,-14.4086 -24.25757,-16.86681z" fill="#b2880c" stroke="none" stroke-width="0" stroke-linecap="butt"/><path d="M252.90583,328.0639l10.99448,-11.16627l-23.16808,-19.79311c0,0 -54.52015,7.65053 -51.93514,6.33169c4.01352,-2.04766 49.74711,-4.65152 75.24717,-12.92244c26.64434,-8.64209 37.18018,-25.23683 37.18018,-25.23683c0,0 -3.49873,7.16032 -5.62694,14.07932c-1.71452,5.57405 -2.576,12.89097 -3.16527,18.28746c-1.51318,13.85773 -1.90467,29.73302 -1.90467,29.73302c0,0 -31.88021,4.72414 -36.23131,4.5586c-1.25319,-0.04767 -1.39042,-3.87144 -1.39042,-3.87144z" fill="#ffcc00" stroke="none" stroke-width="0" stroke-linecap="butt"/><path d="M180.75453,316.32507l26.45547,13.5713l45.81507,-0.69964l0.37053,1.15349l-47.21633,1.60764z" fill="#eccd1a" stroke="none" stroke-width="0" stroke-linecap="butt"/><path d="M320.37138,256.54168c0,0 -5.97922,-2.20499 -9.11851,-1.66199c-2.75656,0.4768 -7.35711,5.42809 -7.35711,5.42809l-25.11279,2.1786l22.73908,-23.72745c0,0 13.66905,4.60969 18.31453,7.62504c0.36305,0.23565 -0.35752,2.33712 -0.1019,2.54283c2.21295,1.78066 0.63669,7.61491 0.63669,7.61491z" data-paper-data="{&quot;index&quot;:null}" fill="url(#color-4)" stroke="none" stroke-width="0" stroke-linecap="butt"/><path d="M303.47355,260.52064l-25.18474,2.32897" fill="none" stroke="#d8af48" stroke-width="0.25" stroke-linecap="round"/><path d="M315.42823,255.52339l4.08487,-10.07597l30.90882,-18.10958c0,0 15.60938,5.65822 19.29608,9.29472c2.26516,2.23436 0.71973,10.44876 0.71973,10.44876c0,0 -33.13886,23.56723 -41.97756,22.32466c-3.98578,-0.56032 -13.03195,-13.88262 -13.03195,-13.88262z" fill="url(#color-5)" stroke="none" stroke-width="0" stroke-linecap="butt"/><path d="M330.24397,305.76716c0,0 0.35113,-20.95651 -1.12183,-26.0175c-1.93803,-6.65888 -7.6574,-15.64811 -7.6574,-15.64811l48.60988,-17.83725c0,0 0.57758,4.50207 0.14366,9.35342c-0.16903,1.88981 -1.2197,4.5608 -1.42762,5.94915c-0.65439,4.36979 -3.08015,16.03055 -3.08015,16.03055z" fill="url(#color-6)" stroke="none" stroke-width="0" stroke-linecap="butt"/><path d="M330.14484,305.1821c0,0 27.71706,-23.4121 32.65404,-27.58229c1.448,-1.22312 2.95214,-4.08965 2.95214,-4.08965l2.35827,1.45503l-4.5362,13.21861l10.29587,1.49149l-6.50583,5.99947l-38.50992,15.7139z" fill="url(#color-7)" stroke="none" stroke-width="0" stroke-linecap="butt"/><path d="M356.73074,289.01924l-25.59847,15.65865" fill="none" stroke="#93700e" stroke-width="0.25" stroke-linecap="round"/><path d="M354.00753,295.01038l-24.10068,14.56935" fill="none" stroke="#ffdb65" stroke-width="0.25" stroke-linecap="round"/><path d="M358.0924,288.65613l6.67195,-12.79923" fill="none" stroke="#cc9c13" stroke-width="0.25" stroke-linecap="round"/><path d="M330.0698,242.92034l-1.41803,-5.53028l23.68095,-0.99261l0.28358,5.81386z" fill="#785b09" stroke="none" stroke-width="0" stroke-linecap="butt"/><path d="M369.25768,235.73451l-18.24573,-8.30588" fill="none" stroke="#cc9c13" stroke-width="0.25" stroke-linecap="round"/><path d="M326.66652,246.04l0.99261,-8.2245l1.13835,-0.32451l5.10096,5.14576l-0.56719,9.50075z" fill="#5e4706" stroke="none" stroke-width="0" stroke-linecap="butt"/><path d="M325.39029,249.15963c-2.4092,-2.13668 -0.28358,-2.2688 -0.28358,-2.2688l1.597,-1.06006l6.48573,6.02312c0,0 -0.9427,3.38664 -7.79911,-2.69425z" fill="#cc9c13" stroke="none" stroke-width="0" stroke-linecap="butt"/><path d="M352.33273,242.21134v-5.81386l5.24667,-2.41064c0,0 -1.17241,2.56743 -2.03063,3.97399c-0.8431,1.38176 -3.21604,4.25051 -3.21604,4.25051z" fill="url(#color-8)" stroke="none" stroke-width="0" stroke-linecap="butt"/><path d="M362.90234,288.08083l5.14576,-12.93791l12.93791,6.61597c0,0 0.02917,1.24938 -0.77412,1.78056c-1.61754,1.06968 -5.84185,6.30561 -5.84185,6.30561z" fill="#050505" stroke="none" stroke-width="0" stroke-linecap="butt"/><path d="M366.57789,274.84891l4.41066,-1.78044l18.06127,4.46535c0,0 -16.61963,15.48534 -16.78358,16.36458c-0.07889,0.42315 -7.13271,3.86526 -7.13271,3.86526l15.85248,-15.56365z" fill="#fff17c" stroke="none" stroke-width="0" stroke-linecap="butt"/><path d="M327.7641,314.38964l1.04028,-3.06708l42.37064,-17.33745l16.82751,-16.2362l1.22925,-0.02582l-1.33582,14.02523z" fill="#f0c131" stroke="none" stroke-width="0" stroke-linecap="butt"/><path d="M389.35432,223.73208l-33.35972,-17.7011l33.63205,10.75682c0,0 7.67846,1.19072 10.0073,3.46454c3.17118,3.09625 7.28531,13.69186 7.28531,13.69186z" fill="url(#color-9)" stroke="none" stroke-width="0" stroke-linecap="butt"/><path d="M389.17449,278.26662c0,0 -14.03302,-3.87999 -17.1889,-4.77473c-1.57019,-0.44517 -6.61453,2.06772 -6.61453,2.06772c0,0 3.71993,-14.90699 4.62758,-20.05886c0.63605,-3.61024 -0.27278,-9.33757 -0.27278,-9.33757c0,0 8.34963,2.12767 11.872,3.00349c3.625,0.90132 11.22093,1.93547 11.22093,1.93547z" data-paper-data="{&quot;index&quot;:null}" fill="url(#color-10)" stroke="none" stroke-width="0" stroke-linecap="butt"/><path d="M369.66618,238.00387l0.54467,16.47559l-5.03111,20.9897" fill="none" stroke="#fccc56" stroke-width="0.25" stroke-linecap="round"/><path d="M369.85997,236.23123l11.27304,-17.93662l6.02123,-0.71564c0,0 2.4532,2.59363 4.75507,4.27741c2.09063,1.52929 8.48351,5.40656 8.48351,5.40656c0,0 4.58998,4.68021 5.96567,6.80331c1.04147,1.60719 1.56856,4.82396 1.56856,4.82396c0,0 -4.83723,-6.69783 -7.45134,-4.18411c-4.48753,4.31518 -7.85887,16.96245 -7.85887,16.96245l-22.45253,-4.94976z" fill="url(#color-11)" stroke="none" stroke-width="0" stroke-linecap="butt"/><path d="M301.95637,238.948c-0.3456,1.00392 -3.60647,2.03238 -3.60647,2.03238l14.88009,-35.66923c0,0 2.54088,-0.46197 3.76984,-0.68542c0.52744,-0.09592 5.46915,-2.01999 8.11631,-2.43096c3.25534,-0.50543 6.88255,1.14966 6.88255,1.14966c0,0 -12.60774,1.89182 -14.07846,3.71786c-2.41965,3.00419 -5.94777,7.59938 -7.6822,10.88881c-2.76854,5.25069 -6.82628,16.76936 -8.2817,20.99689z" fill="#ffe244" stroke="none" stroke-width="0" stroke-linecap="butt"/><path d="M367.75403,234.76103l9.40937,-15.14322c0,0 -23.76189,-14.08383 -23.08382,-14.26637c0.58112,-0.15647 27.32574,12.7853 27.32574,12.7853l-11.49361,18.71058z" fill="#fff498" stroke="none" stroke-width="0" stroke-linecap="butt"/><path d="M348.29614,228.58477c0,0 -2.63888,-7.43738 -4.22383,-10.6276c-0.53498,-1.07681 -2.73844,-5.66033 -4.66944,-8.82726c-1.39416,-2.28647 -2.62437,-3.67948 -2.62437,-3.67948c0,0 -4.09059,-0.48942 -6.62913,-0.3195c-3.42626,0.22936 -12.22865,2.02941 -12.22865,2.02941c0,0 7.65715,-5.77868 19.3682,-3.92753c2.82373,0.24945 7.07548,0.72744 11.21853,2.04788c6.51599,2.0767 12.88634,4.99137 12.88634,4.99137l16.10062,9.2398l-2.60939,3.95712c0,0 -0.8586,-2.23279 -3.42076,-3.37516c-3.57618,-1.59447 -15.0172,-4.68056 -15.0172,-4.68056l-4.96133,11.55161z" fill="#050505" stroke="none" stroke-width="0" stroke-linecap="butt"/><path d="M328.29562,240.90497c0,0 -5.82118,4.37008 -10.03341,5.00638c-1.75379,0.26495 -5.17417,-1.82754 -5.17417,-1.82754l-11.19061,-5.26181c0,0 1.88697,-6.10211 4.34078,-12.20913c1.79044,-4.456 4.0941,-8.91465 5.14257,-11.00733c1.88594,-3.76432 4.55674,-7.21764 5.30767,-8.65727c1.10917,-2.12645 9.08259,-3.15869 14.92399,-3.43405c3.52202,-0.16603 6.26899,0.11257 6.26899,0.11257l2.79586,2.13016c0,0 -3.90807,-0.7738 -8.78664,-0.65203c-4.57077,0.1141 -6.23624,-0.13471 -10.72486,1.99717c-4.48862,2.13188 -4.72574,3.31414 -6.42345,6.14745c-2.04031,3.40501 -3.82097,7.26247 -4.83847,8.54658c-0.14861,0.18759 9.91812,22.64738 9.91812,22.64738l-2.27788,1.09553l-9.35892,-19.60539c0,0 -1.20637,2.85565 -1.24328,2.93805c-0.48092,1.07361 -3.85602,9.9757 -3.85602,9.9757l14.55887,5.91851c0,0 8.47562,-3.99719 10.05942,-4.5971c0.83825,-0.31751 0.59151,0.73616 0.59151,0.73616z" fill="#171614" stroke="none" stroke-width="0" stroke-linecap="butt"/><path d="M347.18115,229.27249c0,0 -4.61656,-9.6687 -7.17143,-13.67365c-2.35485,-3.69137 -8.34889,-10.60395 -8.34889,-10.60395h1.59764c0,0 5.46717,6.29529 7.7214,9.82897c2.61737,4.10289 7.67574,13.70934 7.67574,13.70934z" fill="#171614" stroke="none" stroke-width="0" stroke-linecap="butt"/><path d="M294.18969,240.54665l15.10392,-34.79781l5.24951,-2.18854l-15.97735,36.98335z" fill="#ffe449" stroke="none" stroke-width="0" stroke-linecap="butt"/><path d="M188.54386,204.22737c0,0 23.26435,-7.0203 36.51738,-7.98818c13.25303,-0.96788 62.20282,-1.29974 83.33478,-0.03758c23.24752,1.38851 46.53015,9.16691 46.53015,9.16691l9.91103,6.66067c0,0 -12.82956,-6.12578 -20.05007,-7.67773c-8.93903,-1.92135 -15.98345,-1.39285 -18.17509,-1.3384c-4.88148,0.12132 -17.74631,4.13749 -17.74631,4.13749c0,0 -25.09125,-3.73058 -41.80619,-3.98323c-18.39946,-0.27812 -35.19179,0.17098 -44.2793,0.10864c-12.98763,-0.08908 -34.23637,0.95139 -34.23637,0.95139z" fill="url(#color-12)" stroke="none" stroke-width="0" stroke-linecap="butt"/><path d="M308.51608,207.58419c0,0 -5.76165,9.72573 -9.20676,20.63755c-0.18536,0.5871 -61.69522,14.37249 -61.69522,14.37249l-74.75634,-1.9387l-22.06862,-6.56353c0,0 27.36197,-19.01442 35.92105,-24.20418c4.29563,-2.60463 13.08457,-4.95916 13.08457,-4.95916c0,0 7.03094,-0.72015 16.20108,-1.22797c13.55185,-0.75047 32.85132,-1.30623 49.79252,-0.57825c9.88761,0.42488 23.73521,0.93129 34.75832,1.97461c10.19202,0.96465 17.96944,2.48714 17.96944,2.48714z" fill="url(#color-13)" stroke="#000000" stroke-width="0" stroke-linecap="butt"/><path d="M235.28087,242.51023c0,0 33.41039,-13.30834 44.76783,-16.85276c11.20425,-3.49662 22.94649,-5.19468 22.94649,-5.19468l-9.0954,20.67085z" fill="#050505" stroke="none" stroke-width="0" stroke-linecap="butt"/><path d="M175.59576,210.449l14.31057,-6.1331l18.8536,-1.13576l53.60786,0.22715c0,0 20.23904,0.8053 28.62803,1.50782c6.48746,0.54329 17.26594,2.35376 17.26594,2.35376l-14.54702,33.61847l-56.56084,1.81721l-74.27871,-2.04437l-22.63096,-6.27602z" fill="none" stroke="#312d26" stroke-width="0.25" stroke-linecap="round"/><path d="M291.15569,321.34738c0,0 7.23595,2.97352 12.63902,2.87279c0.94142,-0.01754 7.04263,-2.96924 9.47785,-5.5214c4.81943,-5.05086 6.87133,-11.69811 7.30046,-13.07138c1.19171,-3.81372 2.18905,-20.5546 -1.57306,-26.62313c-1.4851,-2.39559 -4.93628,-6.25168 -6.95553,-7.61714c-6.65514,-4.50041 -12.95507,-2.01686 -12.95507,-2.01686l1.09815,-3.29787c0,0 6.58277,-0.72255 8.79102,-0.72255c1.92851,0 5.9008,1.32466 5.9008,1.32466c0,0 5.77155,3.07152 9.81948,11.38702c1.4449,2.96825 3.99901,11.81154 3.48147,20.44849c-0.52834,8.81767 -4.16654,17.43049 -6.41479,20.36151c-2.00228,2.61031 -6.72173,6.23899 -11.71802,8.17772c-1.97963,0.76818 -6.5303,1.78903 -10.25855,0.77824c-4.96957,-1.34732 -9.0391,-4.99478 -9.0391,-4.99478z" fill="url(#color-14)" stroke="none" stroke-width="0" stroke-linecap="butt"/><path d="M301.03051,265.7111c0,0 28.39874,-7.68159 27.30046,33.11068c-0.27582,10.24414 -5.73283,21.08956 -12.31084,25.39148c-15.841,10.35974 -24.74402,-1.30039 -24.74402,-1.30039" fill="none" stroke="#c8c7c6" stroke-width="0.25" stroke-linecap="round"/><path d="M315.72238,271.65209c0,0 12.04863,12.92465 8.8339,29.178c-4.56876,23.09913 -19.31085,24.7723 -19.31085,24.7723" fill="none" stroke="#171614" stroke-width="0.25" stroke-linecap="round"/><path d="M295.25014,296.47965c0,-5.08793 3.36976,-9.21251 7.52656,-9.21251c4.15679,0 7.52656,4.12458 7.52656,9.21251c0,5.08793 -3.36973,9.21248 -7.52653,9.21248c-4.15679,0 -7.52656,-4.12455 -7.52656,-9.21248z" fill="#aeaeab" stroke="none" stroke-width="0" stroke-linecap="butt"/><path d="M300.39905,290.29366l0.12548,-5.89703c0,0 0.21974,-16.85812 0.75351,-17.19685c0.60793,-0.38577 2.70064,15.0049 2.70064,15.0049l-0.06646,6.0815z" fill="#4a4948" stroke="none" stroke-width="0" stroke-linecap="butt"/><path d="M300.18757,296.85713c0,-1.82006 1.18615,-3.29551 2.64933,-3.29551c1.46321,0 2.64933,1.47545 2.64933,3.29551c0,1.82006 -1.18615,3.2955 -2.64933,3.2955c-1.46321,0 -2.64933,-1.47544 -2.64933,-3.2955z" fill="#171614" stroke="none" stroke-width="0" stroke-linecap="butt"/><path d="M305.16686,291.29733l-1.25469,-6.90076h4.76782l0.87825,2.25845c0,0 -0.68321,3.68689 -1.48932,4.53906c-0.58707,0.62062 -2.90211,0.10327 -2.90211,0.10327z" fill="#312d26" stroke="none" stroke-width="0" stroke-linecap="butt"/><path d="M296.29384,295.31164c0,-1.12173 0.73101,-2.03107 1.63282,-2.03107c0.90177,0 1.63282,0.90934 1.63282,2.03107c0,1.12173 -0.73105,2.03107 -1.63282,2.03107c-0.9018,0 -1.63282,-0.90934 -1.63282,-2.03107z" fill="#171614" stroke="none" stroke-width="0" stroke-linecap="butt"/><path d="M301.31156,289.97276c0,-1.12173 0.73105,-2.03107 1.63282,-2.03107c0.9018,0 1.63282,0.90934 1.63282,2.03107c0,1.12173 -0.73101,2.03107 -1.63282,2.03107c-0.90177,0 -1.63282,-0.90934 -1.63282,-2.03107z" fill="#171614" stroke="none" stroke-width="0" stroke-linecap="butt"/><path d="M305.72713,293.78623c0,-1.12173 0.73105,-2.03107 1.63282,-2.03107c0.90177,0 1.63282,0.90934 1.63282,2.03107c0,1.12173 -0.73105,2.03107 -1.63282,2.03107c-0.90177,0 -1.63282,-0.90934 -1.63282,-2.03107z" fill="#171614" stroke="none" stroke-width="0" stroke-linecap="butt"/><path d="M303.88061,301.21245c0,-1.12173 0.73101,-2.03105 1.63282,-2.03105c0.90177,0 1.63282,0.90931 1.63282,2.03105c0,1.12173 -0.73105,2.03107 -1.63282,2.03107c-0.9018,0 -1.63282,-0.90934 -1.63282,-2.03107z" fill="#171614" stroke="none" stroke-width="0" stroke-linecap="butt"/><path d="M308.24521,280.79931v-13.94761l1.39477,-0.63397l0.76079,13.56722c0,0 1.10959,2.36993 0.7468,3.2471c-0.40778,0.98593 -2.05999,3.77528 -2.05999,3.77528c0,0 -3.18045,-1.63339 -3.31797,-1.56869c-0.35873,0.16881 2.4756,-4.43929 2.4756,-4.43929z" fill="#4a4948" stroke="none" stroke-width="0" stroke-linecap="butt"/><path d="M298.42134,302.61735c0,-1.12173 0.73101,-2.03107 1.63282,-2.03107c0.90177,0 1.63282,0.90934 1.63282,2.03107c0,1.12173 -0.73105,2.03107 -1.63282,2.03107c-0.9018,0 -1.63282,-0.90934 -1.63282,-2.03107z" fill="#171614" stroke="none" stroke-width="0" stroke-linecap="butt"/><path d="M298.65092,318.79598l2.40914,-12.04566l2.40911,-3.95562l-0.12679,11.05625z" fill="#312d26" stroke="none" stroke-width="0" stroke-linecap="butt"/><path d="M307.23089,292.71816l1.56121,-5.51187l3.00346,-2.34951l12.42606,-4.56467l1.26798,1.90195z" fill="#4a4948" stroke="none" stroke-width="0" stroke-linecap="butt"/><path d="M301.87352,283.61429v-17.46158h1.44509v17.46158z" fill="#aeaeab" stroke="none" stroke-width="0" stroke-linecap="butt"/><path d="M309.89358,297.53648l0.213,-2.29019l6.76081,0.13466l8.55898,-5.40832l-6.53024,8.32464z" fill="#4a4948" stroke="none" stroke-width="0" stroke-linecap="butt"/><path d="M310.54411,282.65085l-0.96341,-17.34115h1.68595l0.48172,17.34115z" fill="#aeaeab" stroke="none" stroke-width="0" stroke-linecap="butt"/><path d="M307.5236,301.83961l0.5948,-2.1477l9.12937,5.57907l4.56467,12.42606z" fill="#312d26" stroke="none" stroke-width="0" stroke-linecap="butt"/><path d="M313.57068,322.51535c0,0 -7.05864,-10.03855 -8.80748,-13.09905c-0.95788,-1.6763 -0.06828,-4.90602 -0.06828,-4.90602l2.02874,3.5503l8.87576,15.59596z" fill="#312d26" stroke="none" stroke-width="0" stroke-linecap="butt"/><path d="M307.77432,291.08056l1.80638,-3.13105c0,0 1.79344,-1.35543 3.30688,-2.04635c2.96914,-1.3555 13.31176,-5.54041 13.31176,-5.54041v0.84298z" fill="#aeaeab" stroke="none" stroke-width="0" stroke-linecap="butt"/><path d="M308.87925,313.00561l-5.07189,-8.74894l1.81434,-0.32554l4.39867,6.53855z" fill="#585857" stroke="none" stroke-width="0" stroke-linecap="butt"/><path d="M309.46029,297.58358l0.36129,-0.84298l7.58676,-0.72255l8.41452,-6.09028l2.16074,0.89487l-8.28719,7.0018z" fill="#9a9997" stroke="none" stroke-width="0" stroke-linecap="butt"/><path d="M308.01518,299.59065l0.60212,-0.84298l9.03185,6.02123l4.69657,12.1629l-1.26156,0.08694l-4.70529,-11.33066z" fill="#aeaeab" stroke="none" stroke-width="0" stroke-linecap="butt"/><path d="M291.8687,316.77932c0,0 -0.85614,-1.9919 -0.60451,-3.87926c0.32448,-2.43371 2.89897,-6.82833 2.89897,-6.82833l2.03954,-5.60869l2.83756,4.09174z" fill="#312d26" stroke="none" stroke-width="0" stroke-linecap="butt"/><path d="M315.48152,323.87631l-6.98825,-11.86113c0,0 0.31694,-1.71493 0.01281,-2.54928c-0.54716,-1.50111 -3.26068,-5.45966 -3.26068,-5.45966l1.08384,-0.48172l4.03163,7.73156l-0.05764,2.50455l5.92688,8.93088z" fill="#aeaeab" stroke="none" stroke-width="0" stroke-linecap="butt"/><path d="M299.48778,289.0091l-1.88483,0.53852l-3.76972,-1.88483l0.22632,-0.85521z" fill="#585857" stroke="none" stroke-width="0" stroke-linecap="butt"/><path d="M295.37057,324.83968l6.48391,-10.91454l1.39512,0.29214l0.06902,-11.2949l1.20423,1.44509l0.16523,10.01273l-7.75198,11.90456z" fill="#aeaeab" stroke="none" stroke-width="0" stroke-linecap="butt"/><path d="M291.27612,317.61422l5.17826,-11.44036c0,0 2.07482,-1.7679 2.37453,-1.81072c0.15603,-0.0223 -0.26121,2.61714 -0.26121,2.61714l-1.59569,1.02891l-5.57546,12.25431z" fill="#9a9997" stroke="none" stroke-width="0" stroke-linecap="butt"/><path d="M292.63354,300.08065v-2.29449l6.11859,0.50986l-2.80436,1.91208z" fill="#9a9997" stroke="none" stroke-width="0" stroke-linecap="butt"/><path d="M294.03569,287.3336v-1.65713l4.46149,0.5099l0.96248,2.81727l-2.22295,-0.91394z" fill="#9a9997" stroke="none" stroke-width="0" stroke-linecap="butt"/><path d="M410.35796,268.02657c0,17.60416 -3.61574,31.87513 -8.84128,31.87513c-5.22555,0 -9.46174,-14.27098 -9.46174,-31.87513c0,-17.60416 4.23616,-31.87516 9.46174,-31.87516c5.22555,0 8.84128,14.27101 8.84128,31.87516z" fill="#312d26" stroke="none" stroke-width="0" stroke-linecap="butt"/><path d="M398.39525,291.05235c0,0 8.0547,-2.83564 8.54505,-22.06277c0.49734,-19.50173 -6.20704,-24.04783 -6.20704,-24.04783l2.85756,-1.29891c0,0 6.38859,8.58585 5.66458,23.00656c0.30435,6.93975 -1.06645,19.4809 -5.59489,25.86952c-1.35348,1.90946 -4.35602,0.87144 -4.35602,0.87144z" fill="url(#color-15)" stroke="none" stroke-width="0" stroke-linecap="butt"/><path d="M403.85191,250.0858c0,0 4.4204,8.55422 3.53339,19.31005c-1.44231,17.49021 -7.48048,21.17593 -7.48048,21.17593" fill="none" stroke="#171614" stroke-width="0.25" stroke-linecap="round"/><path d="M400.5626,271.38266c0,3.01618 -1.07566,5.46125 -2.40256,5.46125c-1.3269,0 -2.40256,-2.44509 -2.40256,-5.46125c0,-2.07098 0.78524,-3.78004 1.53261,-4.7059c0.34113,-0.42257 0.45414,-0.75539 0.86998,-0.75539c0.42021,0 1.55686,0.24521 1.90052,0.67612c0.74146,0.92979 0.50207,2.72416 0.50207,4.78517z" fill="#828180" stroke="none" stroke-width="0" stroke-linecap="butt"/><path d="M401.92228,271.57518c0,2.84162 -1.01341,5.14519 -2.2635,5.14519c-1.25009,0 -2.2635,-2.30357 -2.2635,-5.14519c0,-2.84162 1.01341,-5.14519 2.2635,-5.14519c1.25009,0 2.2635,2.30357 2.2635,5.14519z" fill="#9a9997" stroke="none" stroke-width="0" stroke-linecap="butt"/><path d="M400.62293,261.60946l0.31464,-16.88528l2.20244,-1.36342c0,0 0.39653,8.66922 0.3195,11.53947c-0.04585,1.70819 -0.739,4.0873 -0.739,4.0873z" fill="#464544" stroke="none" stroke-width="0" stroke-linecap="butt"/><path d="M395.82433,282.87156l1.74229,-6.83398l1.89304,-0.62804l2.00372,2.32959c0,0 0.19932,2.72943 -0.18239,4.12851c-0.62183,2.27922 -3.19393,8.24674 -3.19393,8.24674l-1.78443,-5.04246z" fill="#585857" stroke="none" stroke-width="0" stroke-linecap="butt"/><path d="M397.49386,258.24118l1.77152,-12.00687l1.37783,-1.27942c0,0 0.55134,-0.97552 0.88573,-1.08962c0.43654,-0.149 -0.69916,1.43864 -0.69916,1.43864c0,0 0.62458,9.95001 0.45414,13.0561c-0.01802,0.32847 -0.8763,4.00821 -0.8763,4.00821z" fill="#4a4948" stroke="none" stroke-width="0" stroke-linecap="butt"/><path d="M400.76103,257.38275l-0.31464,-12.82154h1.181v13.97519z" fill="#868686" stroke="none" stroke-width="0" stroke-linecap="butt"/><path d="M402.31629,259.22533l0.75738,-3.45118l0.02994,-11.90187h0.88576l0.19683,7.08603l-0.05448,5.39745l-0.73284,2.37751z" fill="#9a9997" stroke="none" stroke-width="0" stroke-linecap="butt"/><path d="M400.15115,268.4765l0.29524,-0.88576l3.93725,-1.67221l3.73927,-3.15025l0.49207,1.47625c0,0 -1.37889,3.54963 -2.60951,4.08803c-1.37729,0.60256 -5.85434,0.14392 -5.85434,0.14392z" fill="#797979" stroke="none" stroke-width="0" stroke-linecap="butt"/><path d="M400.68022,265.9303l0.35666,-3.9493l2.74576,-2.76943l1.54332,-0.32673l2.87459,-3.86963l0.41446,0.66711l-3.06561,3.72775l-0.12599,1.11291l-3.8944,3.42632z" fill="#c8c7c6" stroke="none" stroke-width="0" stroke-linecap="butt"/><path d="M400.44639,269.26383l-0.39366,-0.98418l5.89911,-0.67666l3.15268,-4.6102l0.101,1.15337l-2.85411,5.11767z" fill="#c8c7c6" stroke="none" stroke-width="0" stroke-linecap="butt"/><path d="M407.04031,283.764l-5.78577,-11.05398l0.06854,-1.04773c0,0 3.48805,2.99329 4.60918,4.3856c0.80981,1.00574 1.10806,7.7161 1.10806,7.7161z" fill="#4a4948" stroke="none" stroke-width="0" stroke-linecap="butt"/><path d="M401.07391,271.55753l0.14446,-0.95351l5.62515,4.3024c0,0 0.2244,6.79791 0.04294,7.04535c-0.17938,0.2446 -1.12553,-5.5691 -1.12553,-5.5691z" fill="#aeaeab" stroke="none" stroke-width="0" stroke-linecap="butt"/><path d="M402.90365,280.09722l-3.82669,-7.55768l0.38267,-0.574l4.83723,7.66856l0.90279,8.49912l-0.58665,0.19494z" fill="#9a9997" stroke="none" stroke-width="0" stroke-linecap="butt"/><path d="M402.23398,285.16751l0.38267,-5.07036l2.20036,8.32301l-1.95551,-0.71216z" fill="#4a4948" stroke="none" stroke-width="0" stroke-linecap="butt"/><path d="M397.45066,289.85519l3.42626,-8.69309l0.1134,-4.41328l1.16806,5.58648l-3.17706,10.00724z" fill="#c8c7c6" stroke="none" stroke-width="0" stroke-linecap="butt"/><path d="M394.86534,279.75568l2.64332,-1.7442l1.951,-2.69761l0.38267,0.86103l-1.85335,3.20655l-2.5697,2.9068z" fill="#9a9997" stroke="none" stroke-width="0" stroke-linecap="butt"/><path d="M395.91198,260.83673l-0.18539,-1.20516l4.17178,1.29789l-0.1372,5.20344z" fill="#4a4948" stroke="none" stroke-width="0" stroke-linecap="butt"/><path d="M394.50785,272.34934l0.08305,-1.07984l3.15651,-0.16612l0.41532,1.07987z" fill="#585857" stroke="none" stroke-width="0" stroke-linecap="butt"/><path d="M394.67397,273.26304l-0.16612,-1.16296h2.32584l1.07987,-0.74759l0.4984,1.24599l-1.4952,0.66456z" fill="#aeaeab" stroke="none" stroke-width="0" stroke-linecap="butt"/><path d="M395.91198,259.44606v-0.83435l2.10501,0.05135l2.04753,3.14146l-0.10062,4.06988l-0.32438,1.5029c0,0 -0.18299,-4.16871 -0.37148,-4.35573c-0.60062,-0.59589 -3.35603,-3.57554 -3.35603,-3.57554z" fill="#9a9997" stroke="none" stroke-width="0" stroke-linecap="butt"/><path d="M401.30819,293.89716c0,0 -0.84774,0.35701 -1.77274,-0.29352c-1.00239,-0.70494 -2.11268,-2.49012 -2.79775,-4.40801c-1.64905,-4.61656 -2.81417,-12.09422 -2.802,-17.92915c0.01751,-8.39519 0.99689,-16.96385 3.11638,-22.10121c2.04874,-4.9659 4.91656,-5.94758 5.27006,-5.90016c0.17328,0.02323 0.864,0.14938 1.15007,0.30777c0.57806,0.32004 0.79553,0.77169 0.79553,0.77169c0,0 -0.58982,-0.29008 -0.87531,-0.35918c-0.33659,-0.08148 -1.01626,-0.09864 -1.01626,-0.09864c0,0 -2.62044,0.883 -4.74606,6.95983c-1.78114,5.09195 -2.49682,15.81972 -2.72857,19.60267c-0.2894,4.7236 0.92011,12.91759 2.50701,17.86153c0.99983,3.11501 2.23062,4.5041 2.23062,4.5041z" fill="#878787" stroke="none" stroke-width="0" stroke-linecap="butt"/><path d="M103.7383,279.59605c-1.73091,-1.21165 -6.64501,-5.15542 -6.64501,-5.15542c0,0 0.59138,-5.59076 1.48992,-7.9812c1.1218,-2.98442 4.52292,-8.74001 4.52292,-8.74001c0,0 3.45136,5.94107 5.40223,8.79979c1.99347,2.92112 6.63156,8.74178 6.63156,8.74178c0,0 -4.7353,3.09913 -6.33041,4.15535c-1.13867,0.75399 -3.92811,0.97993 -5.07125,0.17973z" fill="#4a4948" stroke="none" stroke-width="0" stroke-linecap="butt"/><path d="M398.40739,267.55683l-0.61666,0.97894l-3.06452,-0.7745l0.12775,-1.0755z" data-paper-data="{&quot;index&quot;:null}" fill="#585857" stroke="none" stroke-width="0" stroke-linecap="butt"/><path d="M397.3942,266.25604l1.33812,0.94161l-0.73034,1.12582l-0.91458,-0.94264l-2.28178,-0.4506l0.38826,-1.10873z" data-paper-data="{&quot;index&quot;:null}" fill="#aeaeab" stroke="none" stroke-width="0" stroke-linecap="butt"/><path d="M224.8169,287.11987c-1.4642,-0.49345 -6.50465,-6.84699 -6.50465,-6.84699l53.6349,-15.17755l-0.03422,1.43746l-19.02327,15.79419c0,0 -26.0034,5.49024 -28.07276,4.79291z" fill="#4a4948" stroke="none" stroke-width="0" stroke-linecap="butt"/><path d="M210.85928,275.87775c0,0 5.45676,-11.45445 8.47482,-16.02024c3.20182,-4.84384 10.69681,-14.01532 10.69681,-14.01532l1.59764,1.27811z" fill="#f4bc1d" stroke="none" stroke-width="0" stroke-linecap="butt"/><path d="M127.32147,268.41526c0,0 10.00979,-9.52491 14.2919,-12.9335c4.54288,-3.61615 16.90327,-11.61775 16.90327,-11.61775l0.96427,0.75095z" fill="#f4bc1d" stroke="none" stroke-width="0" stroke-linecap="butt"/><path d="M232.08234,278.38991c0,-1.68804 1.7844,-2.29509 3.43081,-2.67015c0.47434,-0.10806 0.88458,-0.45611 1.37091,-0.45611c2.17438,0 3.07232,0.95191 3.07232,3.12626c0,2.17438 -1.76267,3.93705 -3.93705,3.93705c-2.17435,0 -3.93702,-1.76267 -3.93702,-3.93705z" fill="url(#color-16)" stroke="none" stroke-width="0" stroke-linecap="butt"/><path d="M252.50926,272.91237c0,-2.17438 2.33325,-3.25231 4.50763,-3.25231c2.17435,0 3.36644,1.07796 3.36644,3.25231c0,2.17438 -1.76267,3.93705 -3.93702,3.93705c-2.17438,0 -3.93702,-1.76267 -3.93702,-3.93705z" fill="url(#color-17)" stroke="none" stroke-width="0" stroke-linecap="butt"/><path d="M227.97415,285.06579l-0.57058,-7.18937l2.73879,-0.68471l0.91295,7.09912l-2.86312,2.22801l-2.16933,0.07918z" fill="#f6f7f8" stroke="none" stroke-width="0" stroke-linecap="butt"/><path d="M228.05799,286.53154l1.5744,-2.5412l3.81938,0.5469v1.4835z" fill="#f6f7f8" stroke="none" stroke-width="0" stroke-linecap="butt"/><path d="M233.45174,285.97873l-0.79882,-1.4835l13.69401,-11.4117l2.62469,-0.1141c0,0 -4.06784,4.32911 -6.37147,6.41163c-2.44301,2.20848 -9.14841,6.59767 -9.14841,6.59767z" fill="#f6f7f8" stroke="none" stroke-width="0" stroke-linecap="butt"/><path d="M245.89048,281.18583l-0.22824,-5.81993l2.51056,-2.39645l0.79882,8.21638z" fill="#f6f7f8" stroke="none" stroke-width="0" stroke-linecap="butt"/><path d="M242.69521,283.8105c0,0 -0.63509,-0.18692 -0.15462,-0.61595c0.56943,-0.50843 3.34989,-2.23698 3.34989,-2.23698l4.90701,-0.45648v1.71177z" fill="#f6f7f8" stroke="none" stroke-width="0" stroke-linecap="butt"/><path d="M252.96571,281.73833l-3.09622,0.66848l0.928,-1.92377l16.20459,-12.76294l2.16822,-0.1141z" fill="#f6f7f8" stroke="none" stroke-width="0" stroke-linecap="butt"/><path d="M218.35826,280.33304l53.43675,-15.11737l0.1141,1.3632l-2.73883,2.28232l-16.09046,13.23753c0,0 -8.78163,2.15802 -13.34975,2.9501c-4.84879,0.84071 -14.99324,2.16704 -14.99324,2.16704z" fill="none" stroke="#312d26" stroke-width="0.25" stroke-linecap="round"/><path d="M154.0959,290.97704c0,0 -0.71539,-2.53228 -0.71539,-3.57682c0,-0.94935 1.14458,-2.86143 1.14458,-2.86143h5.86594c0,0 -1.15963,2.80008 -2.23525,3.90194c-0.79041,0.80971 -4.05991,2.53631 -4.05991,2.53631z" fill="#050505" stroke="#312d26" stroke-width="0" stroke-linecap="butt"/><path d="M100.68096,275.85992l-2.17681,-2.53963l4.57866,-13.90625l1.12467,1.20685l-3.33094,12.23508l1.38116,1.0499z" fill="#f6f7f8" stroke="none" stroke-width="0" stroke-linecap="butt"/><path d="M101.42687,276.80188l-1.55955,-1.89914l2.89076,-2.28372l5.79494,-4.03684l0.75734,0.97373z" fill="#f6f7f8" stroke="none" stroke-width="0" stroke-linecap="butt"/><path d="M97.13832,274.3853c0,0 0.45234,-5.10091 1.39019,-7.67499c1.06891,-2.93383 4.58268,-8.99038 4.58268,-8.99038c0,0 3.42964,5.65135 5.30384,8.44319c1.95832,2.91714 6.20483,8.70027 6.20483,8.70027c0,0 -6.42166,4.6844 -7.36376,5.16755c-0.94213,0.48316 -2.71298,0 -2.71298,0l-7.4543,-5.60462" fill="none" stroke="#312d26" stroke-width="0.25" stroke-linecap="round"/><path d="M102.80579,266.15121c0,-1.72915 1.70893,-2.58639 3.43808,-2.58639c0.94007,0 0.83238,0.58755 1.12571,1.17572c0.24622,0.4937 0.96512,0.91472 0.96512,1.70378c0,1.72915 -0.66887,2.83775 -2.39802,2.83775c-1.72912,0 -3.13089,-1.40174 -3.13089,-3.1309z" fill="url(#color-18)" stroke="none" stroke-width="0" stroke-linecap="butt"/><path d="M107.49609,272.51491c0,-1.69538 1.67557,-2.53587 3.37095,-2.53587c0.73713,0 0.67622,0.75779 0.98749,1.13817c0.40466,0.49448 1.06253,0.72689 1.06253,1.68514c0,1.69538 -0.65583,2.78231 -2.35121,2.78231c-1.69538,0 -3.06976,-1.37437 -3.06976,-3.06975z" fill="url(#color-19)" stroke="none" stroke-width="0" stroke-linecap="butt"/><path d="M106.25006,279.71089l-0.63998,-7.15156l2.59664,-2.27203l-0.21638,8.41893z" fill="#f6f7f8" stroke="none" stroke-width="0" stroke-linecap="butt"/><path d="M107.83625,278.8712l-0.92784,-1.6596l6.92428,-2.813l0.32458,0.64916z" fill="#f6f7f8" stroke="none" stroke-width="0" stroke-linecap="butt"/><path d="M158.08274,286.75248c0,0.55307 -0.72127,1.00143 -1.61102,1.00143c-0.88972,0 -2.39476,0.59662 -2.39476,0.04355c0,-0.55307 1.50504,-2.04644 2.39476,-2.04644c0.88976,0 1.61102,0.44839 1.61102,1.00146z" fill="#d8a93a" stroke="none" stroke-width="0" stroke-linecap="butt"/><path d="M351.34894,227.3089l5.03712,-12.66915c0,0 10.34833,2.87731 13.68177,4.36193c2.43323,1.08374 5.15733,4.0333 5.15733,4.0333l-7.23844,11.97028z" fill="url(#color-20)" stroke="none" stroke-width="0" stroke-linecap="butt"/><path d="M328.65175,237.39006c0,0 -0.3965,-1.22248 -0.04103,-2.63418c0.32726,-1.29968 1.37831,-2.75969 2.02973,-3.57397c0.94609,-1.18263 4.9596,-2.58357 4.9596,-2.58357l18.29245,0.709c0,0 3.57177,2.2711 3.61612,4.54118c0.01569,0.80272 -1.5166,2.10111 -6.25299,2.71093c-8.6535,1.11416 -22.60389,0.83058 -22.60389,0.83058z" fill="url(#color-21)" stroke="none" stroke-width="0" stroke-linecap="butt"/><path d="M17.19124,365.32373v-222.96073h465.03239v222.96073z" fill="none" stroke="none" stroke-width="0" stroke-linecap="butt"/></g></g></svg>