<svg version="1.1" xmlns="http://www.w3.org/2000/svg" xmlns:xlink="http://www.w3.org/1999/xlink" width="472.87786" height="360.53869" viewBox="0,0,472.87786,360.53869"><defs><radialGradient cx="240" cy="180.15973" r="121.49065" gradientUnits="userSpaceOnUse" id="color-1"><stop offset="0" stop-color="#ee0000"/><stop offset="1" stop-color="#c90000"/></radialGradient><linearGradient x1="240.22892" y1="230.63609" x2="240.22892" y2="220.38593" gradientUnits="userSpaceOnUse" id="color-2"><stop offset="0" stop-color="#9c0000"/><stop offset="1" stop-color="#9c0000" stop-opacity="0"/></linearGradient><linearGradient x1="240.53093" y1="129.3793" x2="240.53093" y2="139.62946" gradientUnits="userSpaceOnUse" id="color-3"><stop offset="0" stop-color="#9c0000"/><stop offset="1" stop-color="#9c0000" stop-opacity="0"/></linearGradient><linearGradient x1="189.94006" y1="179.88128" x2="145.89818" y2="179.88128" gradientUnits="userSpaceOnUse" id="color-4"><stop offset="0" stop-color="#7a7a7a"/><stop offset="1" stop-color="#2f2f2f"/></linearGradient><linearGradient x1="233.27351" y1="210.92738" x2="233.27351" y2="220.73013" gradientUnits="userSpaceOnUse" id="color-5"><stop offset="0" stop-color="#7a7a7a"/><stop offset="1" stop-color="#2f2f2f"/></linearGradient><linearGradient x1="197.99055" y1="212.66563" x2="197.99055" y2="219.89593" gradientUnits="userSpaceOnUse" id="color-6"><stop offset="0" stop-color="#7a7a7a"/><stop offset="1" stop-color="#2f2f2f"/></linearGradient><linearGradient x1="233.12456" y1="139.41932" x2="233.12456" y2="149.22207" gradientUnits="userSpaceOnUse" id="color-7"><stop offset="0" stop-color="#2f2f2f"/><stop offset="1" stop-color="#7a7a7a"/></linearGradient><linearGradient x1="197.99055" y1="140.08493" x2="197.99055" y2="147.31523" gradientUnits="userSpaceOnUse" id="color-8"><stop offset="0" stop-color="#2f2f2f"/><stop offset="1" stop-color="#7a7a7a"/></linearGradient><linearGradient x1="356.30383" y1="151.07128" x2="340.33674" y2="151.07128" gradientUnits="userSpaceOnUse" id="color-9"><stop offset="0" stop-color="#d2d2d2"/><stop offset="1" stop-color="#8b8b8b"/></linearGradient><linearGradient x1="356.42305" y1="208.63529" x2="340.45595" y2="208.63529" gradientUnits="userSpaceOnUse" id="color-10"><stop offset="0" stop-color="#d2d2d2"/><stop offset="1" stop-color="#8b8b8b"/></linearGradient><linearGradient x1="280.322" y1="180.05277" x2="242.16128" y2="180.05277" gradientUnits="userSpaceOnUse" id="color-11"><stop offset="0" stop-color="#2f2f2f"/><stop offset="1" stop-color="#7a7a7a"/></linearGradient><linearGradient x1="345.53629" y1="148.95961" x2="341.50551" y2="148.95961" gradientUnits="userSpaceOnUse" id="color-12"><stop offset="0" stop-color="#d2d2d2"/><stop offset="1" stop-color="#8b8b8b"/></linearGradient><linearGradient x1="346.13293" y1="154.75242" x2="343.75385" y2="154.75242" gradientUnits="userSpaceOnUse" id="color-13"><stop offset="0" stop-color="#d2d2d2"/><stop offset="1" stop-color="#8b8b8b"/></linearGradient><linearGradient x1="345.76353" y1="210.60246" x2="341.80955" y2="210.60246" gradientUnits="userSpaceOnUse" id="color-14"><stop offset="0" stop-color="#d2d2d2"/><stop offset="1" stop-color="#8b8b8b"/></linearGradient><linearGradient x1="346.06188" y1="204.73942" x2="343.58717" y2="204.73942" gradientUnits="userSpaceOnUse" id="color-15"><stop offset="0" stop-color="#8b8b8b"/><stop offset="1" stop-color="#d2d2d2"/></linearGradient><linearGradient x1="341.80986" y1="144.02607" x2="340.56666" y2="144.02607" gradientUnits="userSpaceOnUse" id="color-16"><stop offset="0" stop-color="#d2d2d2"/><stop offset="1" stop-color="#8b8b8b"/></linearGradient><linearGradient x1="341.79038" y1="215.68121" x2="340.41283" y2="215.68121" gradientUnits="userSpaceOnUse" id="color-17"><stop offset="0" stop-color="#d2d2d2"/><stop offset="1" stop-color="#8b8b8b"/></linearGradient><linearGradient x1="327.25322" y1="180.40104" x2="273.58304" y2="180.40104" gradientUnits="userSpaceOnUse" id="color-18"><stop offset="0" stop-color="#ff3838" stop-opacity="0"/><stop offset="1" stop-color="#ff3838"/></linearGradient><linearGradient x1="333.06016" y1="146.61522" x2="273.05513" y2="146.61522" gradientUnits="userSpaceOnUse" id="color-19"><stop offset="0" stop-color="#db3131" stop-opacity="0"/><stop offset="1" stop-color="#db3131"/></linearGradient><linearGradient x1="333.8671" y1="213.32869" x2="273.86207" y2="213.32869" gradientUnits="userSpaceOnUse" id="color-20"><stop offset="0" stop-color="#db3131" stop-opacity="0"/><stop offset="1" stop-color="#db3131"/></linearGradient></defs><g transform="translate(-4.42566,-1.09609)"><g data-paper-data="{&quot;isPaintingLayer&quot;:true}" stroke-linejoin="miter" stroke-miterlimit="10" stroke-dasharray="" stroke-dashoffset="0" style="mix-blend-mode: normal"><path d="M188.26636,152.41373c2.0902,0.5339 3.5229,3.9836 3.5229,3.9836l0.2381,48.4286c0,0 -1.6286,3.3748 -4.9437,4.535c-14.3065,5.007 -29.342,3.7507 -29.342,3.7507c0,0 -14.3595,-1.0846 -14.3867,-32.6364c-0.0249,-28.7868 15.0057,-32.2843 15.0057,-32.2843c0,0 6.7498,-1.6919 29.9057,4.2228z" data-paper-data="{&quot;index&quot;:null}" fill="none" fill-rule="nonzero" stroke="#000000" stroke-width="0.5" stroke-linecap="round"/><path d="M323.46966,229.05873c-13.8449,2.1835 -58.4755,1.0802 -64.8756,0.6183c-35.2711,-2.5456 -71.4728,0.3987 -71.4728,0.3987c-11.9867,0.9457 -30.4122,0.0513 -33.1179,-0.6307c-9.099,-2.2934 -28.1012,-10.7542 -28.1012,-10.7542c-11.2815,-6.392 -7.2675,-62.4574 -3.4815,-71.506c2.2349,-4.7078 6.059,-6.2721 6.5948,-6.5786c3.5164,-2.0115 15.66895,-6.71322 21.67435,-8.93447c1.84685,-0.6831 5.07037,-1.10732 5.07037,-1.10732c0,0 4.48208,-0.68521 5.87638,-0.71221c5.5357,0.0057 24.5,-0.0829 30.0332,0.0826c11.5585,0.3458 6.9546,1.0752 37.3345,1.3973c15.6794,0.1662 32.2547,-1.629 42.7529,-1.443c15.4989,0.2747 20.2726,0.064 35.7732,0.2196c18.6385,0.1872 22.311,2.2452 24.9437,2.7136c12.7236,2.2639 24.6096,15.8936 27.0212,22.1866c0.7325,1.9115 4.8492,41.7763 -1.46,54.0184c-6.7423,13.0825 -20.7208,17.8479 -34.5656,20.0314z" data-paper-data="{&quot;index&quot;:null}" fill="url(#color-1)" fill-rule="nonzero" stroke="#5f0000" stroke-width="0.5" stroke-linecap="butt"/><path d="M346.78781,220.38593c0.91978,0 -12.67668,10.03661 -37.37035,10.25016c-27.40123,0.23696 -100.76943,-0.43911 -143.07505,0c-20.57383,0.21354 -34.16718,-10.25016 -34.16718,-10.25016c0,0 172.83256,0 208.63332,0c3.05536,0 5.11265,0 5.97925,0z" data-paper-data="{&quot;index&quot;:null}" fill="url(#color-2)" fill-rule="nonzero" stroke="none" stroke-width="0" stroke-linecap="butt"/><path d="M157.87406,147.34292c0,0 7.7089,-1.4624 30.5779,4.379c2.0643,0.5273 3.6878,4.1428 3.6878,4.1428l0.0266,48.6626c0,0 -1.6084,3.333 -4.8825,4.4789c-14.1292,4.9449 -28.9783,3.9127 -28.9783,3.9127c0,0 -14.8072,-3.1568 -14.8341,-34.3175c0.8096,-27.1787 14.4026,-31.2585 14.4026,-31.2585z" data-paper-data="{&quot;index&quot;:null}" fill="#414141" fill-rule="nonzero" stroke="#000000" stroke-width="0.5" stroke-linecap="round"/><path d="M347.08981,139.62946c-0.8666,0 -2.92389,0 -5.97925,0c-35.80076,0 -208.63332,0 -208.63332,0c0,0 13.59334,-10.46371 34.16717,-10.25016c42.30562,0.43911 115.67381,-0.23696 143.07505,0c24.69367,0.21355 38.29013,10.25016 37.37035,10.25016z" data-paper-data="{&quot;index&quot;:null}" fill="url(#color-3)" fill-rule="nonzero" stroke="none" stroke-width="0" stroke-linecap="butt"/><path d="M275.98786,230.62543c0,0 -0.6002,-1.7346 -1.2514,-2.7113c-1.0659,-1.5989 -1.7268,-2.039 -2.8954,-3.5644c-0.812,-1.0598 -1.9016,-2.9012 -1.9016,-2.9012c0,0 -15.9872,-5.2008 -25.3824,-9.74c-1.9324,-0.9336 -2.8574,-2.6805 -2.8574,-2.6805c0,0 0.3499,-21.2584 0.4044,-24.5351c0.082,-4.9179 -0.2375,-32.8651 -0.2375,-32.8651c0,0 -0.3942,-1.3018 2.3616,-3.0728c3.9672,-2.5495 25.3755,-9.5245 25.3755,-9.5245c0,0 1.2447,-1.9111 2.0673,-2.9491c1.0901,-1.3754 1.9845,-1.7311 2.987,-3.1717c0.7135,-1.0253 1.4112,-2.7664 1.4112,-2.7664" data-paper-data="{&quot;index&quot;:null}" fill="none" fill-rule="nonzero" stroke="#980000" stroke-width="0.5" stroke-linecap="round"/><path d="M290.94676,166.27153c-0.6911,0 -1.2514,-0.5603 -1.2514,-1.2514c0,-0.6912 0.5603,-1.2514 1.2514,-1.2514c0.6911,0 1.2514,0.5602 1.2514,1.2514c0,0.6911 -0.5602,1.2514 -1.2514,1.2514z" data-paper-data="{&quot;index&quot;:null}" fill="#000000" fill-rule="nonzero" stroke="none" stroke-width="0.5" stroke-linecap="butt"/><path d="M291.22486,196.86103c-0.6911,0 -1.2514,-0.5602 -1.2514,-1.2514c0,-0.6911 0.5603,-1.2514 1.2514,-1.2514c0.6911,0 1.2514,0.5603 1.2514,1.2514c0,0.6911 -0.5603,1.2514 -1.2514,1.2514z" data-paper-data="{&quot;index&quot;:null}" fill="#000000" fill-rule="nonzero" stroke="none" stroke-width="0.5" stroke-linecap="butt"/><path d="M202.27177,229.02642c0,0 -0.2314,-1.342 -0.0532,-1.6952c0.0673,-0.1333 1.245,-1.2813 2.0654,-2.0612c1.2396,-1.1784 1.8495,-4.068 1.8495,-4.068" data-paper-data="{&quot;index&quot;:null}" fill="none" fill-rule="nonzero" stroke="#000000" stroke-width="0.5" stroke-linecap="round"/><path d="M206.09546,138.81253c0,0 -0.6098,-2.8896 -1.8494,-4.068c-0.8204,-0.7798 -1.9981,-1.9279 -2.0654,-2.0612c-0.1783,-0.3532 0.0532,-1.6952 0.0532,-1.6952" data-paper-data="{&quot;index&quot;:null}" fill="none" fill-rule="nonzero" stroke="#000000" stroke-width="0.5" stroke-linecap="round"/><path d="M148.4558,133.02226c2.1961,-0.6958 4.191,-1.5492 4.7274,-0.4866c0.4693,0.9295 0.0947,1.9862 -3.9106,3.0763c-2.2419,0.6102 -4.432,0.8948 -4.432,-0.2955c0,-1.1902 1.3114,-1.5642 3.6152,-2.2942z" data-paper-data="{&quot;index&quot;:null}" fill="none" fill-rule="nonzero" stroke="#980000" stroke-width="0.5" stroke-linecap="butt"/><path d="M135.35716,222.28283c0,0 -0.1587,-2.7299 -0.6796,-3.5098c-0.7221,-1.081 -2.0716,-0.5524 -2.5544,-1.7595c-0.1969,-0.2003 -0.1031,-3.0733 -0.1031,-3.0733" data-paper-data="{&quot;index&quot;:null}" fill="none" fill-rule="nonzero" stroke="#980000" stroke-width="0.5" stroke-linecap="round"/><path d="M127.39906,203.44263c-3.9259,-14.1417 -2.1353,-23.4436 -1.7943,-38.3513c0.3423,-14.9647 10.1843,-19.3322 12.5382,-19.9081c0.6399,-0.1566 19.0402,-2.8147 14.2748,0.5353c-1.8731,1.3167 -14.2043,3.9865 -14.5584,9.4303c-0.8269,8.4228 -1.4994,16.6525 -1.234,20.1478c0.0542,7.7127 -0.1274,25.428 2.011,30.4482c2.3301,5.4702 9.7608,6.9606 13.6493,8.3321c6.0453,2.1323 -11.1267,1.9453 -15.9132,-0.4287c-6.4692,-3.2086 -7.6647,-5.4916 -8.9734,-10.2056z" data-paper-data="{&quot;index&quot;:null}" fill="none" fill-rule="nonzero" stroke="#980000" stroke-width="0.5" stroke-linecap="round"/><path d="M129.32886,151.81093l2.8998,-5.7934c0,0 16.4156,-2.7605 27.323,-2.3915c10.7438,0.3635 28.1553,4.2685 28.1553,4.2685c0,0 8.6228,1.254 9.1625,5.4648c0.6952,5.4234 0.5405,33.7236 0.3936,52.935c-0.0348,4.5574 -9.3475,5.8383 -9.3475,5.8383c0,0 -18.6815,4.0855 -32.107,4.431c-8.714,0.2242 -24.6227,-2.971 -24.6227,-2.971l-3.74228,-9.7794" data-paper-data="{&quot;index&quot;:null}" fill="none" fill-rule="nonzero" stroke="#980000" stroke-width="0.5" stroke-linecap="round"/><path d="M131.88726,217.34673c0,0 -1.6631,0.3152 -2.2819,0.0438c-1.8565,-0.8143 -4.6118,-3.1033 -5.7419,-6.3837c-1.7598,-5.1084 -4.108,-13.5621 -4.1763,-25.7027c-0.0333,-5.9247 0.5014,-22.7628 2.7371,-33.029c0.7452,-3.422 4.0433,-8.1729 5.4347,-9.2016c0.9731,-0.7193 4.1952,-0.4765 4.1952,-0.4765" data-paper-data="{&quot;index&quot;:null}" fill="none" fill-rule="nonzero" stroke="#980000" stroke-width="0.5" stroke-linecap="round"/><path d="M132.18696,146.08703c0,0 -0.2607,-2.2056 -0.1472,-2.9065c0.4828,-1.2071 1.9157,-0.8453 2.6378,-1.9264c0.5209,-0.7798 0.6796,-3.5097 0.6796,-3.5097" data-paper-data="{&quot;index&quot;:null}" fill="none" fill-rule="nonzero" stroke="#980000" stroke-width="0.5" stroke-linecap="round"/><path d="M124.31136,189.94433c1.0111,0.2787 0.9265,10.8281 3.0059,17.8109c0.6133,2.0596 2.0048,5.5422 3.2081,8.1084c0.5066,1.0805 -2.8179,-1.2148 -3.4992,-2.728c-1.2071,-2.6811 -3.2613,-11.6233 -3.6912,-17.3887c-0.268,-3.5944 -0.0348,-6.0813 0.9764,-5.8026z" data-paper-data="{&quot;index&quot;:null}" fill="#414141" fill-rule="nonzero" stroke="#000000" stroke-width="0.5" stroke-linecap="round"/><path d="M123.33506,163.80933c0.4298,-5.7654 2.484,-14.7077 3.6911,-17.3888c0.6813,-1.5131 4.0058,-3.8085 3.4992,-2.728c-1.2033,2.5663 -2.5948,6.0489 -3.2081,8.1085c-2.0794,6.9827 -1.9948,17.5322 -3.0059,17.8109c-1.0112,0.2787 -1.2444,-2.2082 -0.9763,-5.8026z" data-paper-data="{&quot;index&quot;:null}" fill="#414141" fill-rule="nonzero" stroke="#000000" stroke-width="0.5" stroke-linecap="round"/><path d="M209.82034,210.57975c0.24971,-0.0313 7.40127,-0.74294 14.50436,-0.69018c5.10656,0.03793 10.2424,0.79694 12.51647,0.96299c4.46267,0.32584 9.33599,2.56885 14.13145,4.55801c8.17422,3.39067 15.47933,7.1152 15.47933,7.1152c0,0 -59.68675,-1.04443 -73.67443,-2.06575c-1.43258,-0.1046 -2.42508,-0.75227 -3.08103,-1.42615c-0.78301,-0.80441 -0.5242,-1.42127 -0.5242,-1.42127c0,0 -0.06625,-0.56743 0.91151,-1.10495c2.78376,-1.53035 9.47245,-4.64126 19.73654,-5.92789z" data-paper-data="{&quot;index&quot;:null}" fill="#414141" fill-rule="nonzero" stroke="#000000" stroke-width="0.5" stroke-linecap="round"/><path d="M145.93716,178.58583c0.7926,-24.8169 10.6471,-28.1826 13.2446,-28.6368c0.802,-0.1402 7.7811,-0.7792 27.3665,3.7206c1.885,0.4815 3.0895,4.1539 3.0895,4.1539l0.3023,44.4369c0,0 -1.1906,3.5071 -4.1803,4.5535c-12.6242,3.5886 -23.6788,2.9927 -26.7401,3.1094c-3.8425,0.1465 -13.8219,-8.1874 -13.0825,-31.3375z" data-paper-data="{&quot;index&quot;:null}" fill="url(#color-4)" fill-rule="nonzero" stroke="#000000" stroke-width="0.5" stroke-linecap="round"/><path d="M259.38386,220.73013l-52.2207,-0.3774l0.0794,-7.9652c0,0 14.5378,-2.5238 25.8561,-0.9353c10.451,1.4667 26.2852,9.2779 26.2852,9.2779z" data-paper-data="{&quot;index&quot;:null}" fill="url(#color-5)" fill-rule="nonzero" stroke="#000000" stroke-width="0.5" stroke-linecap="round"/><path d="M262.85996,222.12063l-5.9788,-2.6418" data-paper-data="{&quot;index&quot;:null}" fill="none" fill-rule="nonzero" stroke="#000000" stroke-width="0.5" stroke-linecap="round"/><path d="M270.04378,138.97806c0,0 5.02636,0.24358 10.3607,8.846c1.40435,2.26472 3.57869,6.0183 4.73672,10.93486c1.62005,6.87817 1.9887,17.10412 1.97683,20.80624c-0.01176,3.66738 -0.31067,11.16495 -1.5211,17.70311c-1.04501,5.64461 -2.85746,10.31002 -4.70275,14.32331c-3.48146,7.57179 -11.10731,10.10959 -11.10731,10.10959c0,0 -22.22391,-8.73083 -26.32515,-10.34203c-1.25067,-0.49133 -1.93429,-2.24627 -1.93429,-2.24627c0,0 -0.49073,-0.53064 -0.46483,-2.56842c0.08303,-6.53194 0.53063,-41.74313 0.67606,-53.18361c0.02873,-2.26036 0.55948,-3.3359 0.55948,-3.3359c0,0 1.05373,-1.3158 2.93111,-2.03919c2.03177,-0.78289 6.14505,-2.92169 10.9844,-4.7864c6.18075,-2.38158 13.57322,-4.22129 13.57322,-4.22129" data-paper-data="{&quot;index&quot;:null}" fill="#414141" fill-rule="nonzero" stroke="#000000" stroke-width="0.5" stroke-linecap="round"/><path d="M205.71316,212.66563v7.2303c0,0 -15.0905,-0.36 -15.4339,-1.9466c-0.4958,-2.2913 15.4339,-5.2837 15.4339,-5.2837z" data-paper-data="{&quot;index&quot;:null}" fill="url(#color-6)" fill-rule="nonzero" stroke="#000000" stroke-width="0.5" stroke-linecap="round"/><path d="M209.30171,149.38266c-10.26409,-1.28663 -16.95278,-4.39754 -19.73654,-5.92789c-0.97776,-0.53752 -0.91151,-1.10495 -0.91151,-1.10495c0,0 -0.25881,-0.61686 0.5242,-1.42127c0.65595,-0.67388 1.64845,-1.32155 3.08103,-1.42615c13.98768,-1.02132 73.67443,-2.06575 73.67443,-2.06575c0,0 -7.30511,3.72453 -15.47933,7.1152c-4.79546,1.98916 -9.66878,4.23217 -14.13145,4.55801c-2.27407,0.16605 -7.40991,0.92506 -12.51647,0.96299c-7.10309,0.05276 -14.25465,-0.65888 -14.50436,-0.69018z" data-paper-data="{&quot;index&quot;:null}" fill="#414141" fill-rule="nonzero" stroke="#000000" stroke-width="0.5" stroke-linecap="round"/><path d="M232.94966,148.69722c-11.3183,1.5885 -25.856,-0.9353 -25.856,-0.9353l-0.0795,-7.9652l52.2208,-0.3774c0,0 -15.8342,7.8112 -26.2853,9.2779z" data-paper-data="{&quot;index&quot;:null}" fill="url(#color-7)" fill-rule="nonzero" stroke="#000000" stroke-width="0.5" stroke-linecap="round"/><path d="M190.27926,142.03153c0.3434,-1.5866 15.4339,-1.9466 15.4339,-1.9466v7.2303c0,0 -15.9297,-2.9924 -15.4339,-5.2837z" data-paper-data="{&quot;index&quot;:null}" fill="url(#color-8)" fill-rule="nonzero" stroke="#000000" stroke-width="0.5" stroke-linecap="round"/><path d="M261.64586,224.29893c0.129,0.352 -1.6738,2.8914 -3.0248,4.5641c-1.5792,1.9553 -4.1657,4.4142 -4.1657,4.4142c0,0 -2.9426,0.6267 -2.7147,-0.3708c0.2279,-0.9976 2.8082,-6.9425 4.8217,-8.7882c1.8935,-1.7357 4.2909,-1.9822 5.0835,0.1807z" data-paper-data="{&quot;index&quot;:null}" fill="#cb0000" fill-rule="nonzero" stroke="#980000" stroke-width="0.5" stroke-linecap="round"/><path d="M256.37696,135.88172c-2.0135,-1.8457 -4.5938,-7.7906 -4.8217,-8.7882c-0.2279,-0.9975 2.7147,-0.3707 2.7147,-0.3707c0,0 2.5865,2.4589 4.1657,4.4141c1.351,1.6727 3.1538,4.2121 3.0248,4.5641c-0.7926,2.1629 -3.19,1.9164 -5.0835,0.1807z" data-paper-data="{&quot;index&quot;:null}" fill="#cb0000" fill-rule="nonzero" stroke="#980000" stroke-width="0.5" stroke-linecap="round"/><path d="M354.39176,151.04633c2.4839,4.4948 1.8359,11.5173 1.8359,11.5173c0,0 -7.044,-0.3636 -9.2662,-3.0689c-2.2222,-2.7052 -4.0906,-9.5249 -6.4953,-16.1191c-0.7315,-2.0059 1.8089,-4.4524 3.337,-3.635c1.5281,0.8174 7.4679,5.2104 10.5886,11.3057z" data-paper-data="{&quot;index&quot;:null}" fill="url(#color-9)" fill-rule="nonzero" stroke="#000000" stroke-width="0.75" stroke-linecap="round"/><path d="M340.58538,216.33093c2.4047,-6.5942 4.2731,-13.4138 6.4953,-16.1191c2.2221,-2.7053 9.2662,-3.0689 9.2662,-3.0689c0,0 0.648,7.0226 -1.836,11.5173c-2.6439,4.7843 -9.0604,10.4883 -10.5885,11.3057c-1.5281,0.8174 -4.0686,-1.629 -3.337,-3.635z" data-paper-data="{&quot;index&quot;:null}" fill="url(#color-10)" fill-rule="nonzero" stroke="#000000" stroke-width="0.75" stroke-linecap="round"/><path d="M343.38607,139.48242c0,0 -9.4804,-4.7138 -11.5533,-5.3758c-1.8827,-0.6013 -3.4634,-2.1325 -3.4634,-2.1325" data-paper-data="{&quot;index&quot;:null}" fill="none" fill-rule="nonzero" stroke="#980000" stroke-width="0.5" stroke-linecap="round"/><path d="M328.96526,228.15243c0,0 1.5807,-1.5312 3.4634,-2.1325c2.0729,-0.662 12.7451,-6.6868 12.7451,-6.6868" data-paper-data="{&quot;index&quot;:null}" fill="none" fill-rule="nonzero" stroke="#980000" stroke-width="0.5" stroke-linecap="round"/><path d="M356.37668,197.16563c0,0 2.8661,-1.0277 2.5028,1.4302c-0.6442,4.3581 0.5907,6.5934 -5.1716,14.1555c-2.8333,3.7182 -6.0313,7.74672 -6.0313,7.74672" data-paper-data="{&quot;index&quot;:null}" fill="none" fill-rule="nonzero" stroke="#980000" stroke-width="0.5" stroke-linecap="round"/><path d="M346.88938,139.86523c0,0 3.76027,3.5787 6.59357,7.2968c5.7623,7.5621 4.75231,9.7975 5.39651,14.1556c0.3633,2.4578 -2.5028,1.4301 -2.5028,1.4301" data-paper-data="{&quot;index&quot;:null}" fill="none" fill-rule="nonzero" stroke="#980000" stroke-width="0.5" stroke-linecap="round"/><path d="M219.70086,227.19103c0.2077,0.5391 -0.8588,1.067 -1.622,1.1803c-2.2898,0.3401 -9.9464,0.3956 -9.9464,0.3956c0,0 -1.9601,-1.4727 -1.2236,-1.6686c0.7366,-0.1958 10.2336,-0.6303 10.2336,-0.6303c0,0 2.1723,-0.2791 2.5584,0.723z" data-paper-data="{&quot;index&quot;:null}" fill="#df0000" fill-rule="nonzero" stroke="#000000" stroke-width="0.5" stroke-linecap="round"/><path d="M217.97676,226.43093c0,0 -1.5721,1.0697 -2.5028,1.2236c-0.9307,0.1539 -5.1724,0.1112 -5.1724,0.1112v-1.0011" data-paper-data="{&quot;index&quot;:null}" fill="none" fill-rule="nonzero" stroke="#000000" stroke-width="0.5" stroke-linecap="round"/><path d="M210.30156,228.43322l0.0105,-0.6118" data-paper-data="{&quot;index&quot;:null}" fill="none" fill-rule="nonzero" stroke="#000000" stroke-width="0.5" stroke-linecap="round"/><path d="M207.37238,132.99513c-0.7366,-0.1958 1.2236,-1.6685 1.2236,-1.6685c0,0 7.6565,0.0554 9.9463,0.3955c0.7633,0.1133 1.8298,0.6412 1.6221,1.1803c-0.3861,1.0021 -2.5584,0.723 -2.5584,0.723c0,0 -9.497,-0.4345 -10.2336,-0.6303z" data-paper-data="{&quot;index&quot;:null}" fill="#df0000" fill-rule="nonzero" stroke="#000000" stroke-width="0.5" stroke-linecap="round"/><path d="M210.57969,133.05472v-1.0011c0,0 4.2417,-0.0426 5.1724,0.1113c0.9307,0.1539 2.5028,1.2236 2.5028,1.2236" data-paper-data="{&quot;index&quot;:null}" fill="none" fill-rule="nonzero" stroke="#000000" stroke-width="0.5" stroke-linecap="round"/><path d="M210.61056,132.15333l0.0105,-0.6118" data-paper-data="{&quot;index&quot;:null}" fill="none" fill-rule="nonzero" stroke="#000000" stroke-width="0.5" stroke-linecap="round"/><path d="M280.30996,178.06702c0.4154,35.6949 -10.0475,42.169 -11.0837,41.862c-11.8141,-3.4998 -24.5081,-8.0682 -26.1005,-10.3687c-2.3168,-3.3471 0.2682,-16.40453 0.2682,-29.99753c0,-9.0349 -0.8998,-27.06467 -0.6257,-27.98357c1.3446,-4.5085 25.5843,-10.8277 27.2624,-11.4115c0.3635,-0.1264 9.9344,8.2608 10.2793,37.8993z" data-paper-data="{&quot;index&quot;:null}" fill="url(#color-11)" fill-rule="nonzero" stroke="#000000" stroke-width="0.5" stroke-linecap="round"/><path d="M259.23634,139.33627l4.70107,-1.83955" data-paper-data="{&quot;index&quot;:null}" fill="none" fill-rule="nonzero" stroke="#000000" stroke-width="0.5" stroke-linecap="round"/><path d="M341.50551,146.09809c0,0 1.30896,0 2.04394,0c0.60011,0 1.43076,0.61318 1.43076,0.61318c0,0 0.57905,0.34251 0.55538,1.0053c-0.01944,0.54417 -0.0578,1.61821 -0.0904,2.53113c-0.03064,0.85784 -0.19905,0.91408 -0.19905,0.91408c0,0 -0.46241,0.3412 -0.65714,0.45944c-0.2693,0.16353 -1.03955,0.1999 -1.03955,0.1999z" data-paper-data="{&quot;index&quot;:null}" fill="url(#color-12)" fill-rule="nonzero" stroke="#000000" stroke-width="0.5" stroke-linecap="round"/><path d="M343.75384,152.22992c0,0 2.38458,-0.02656 2.37908,0.07058c-0.05242,0.92626 -0.21206,4.97773 -0.21206,4.97773z" data-paper-data="{&quot;index&quot;:null}" fill="url(#color-13)" fill-rule="nonzero" stroke="#000000" stroke-width="0.5" stroke-linecap="round"/><path d="M343.8535,207.74093c0,0 0.57614,0.11666 0.82799,0.16766c0.21133,0.04279 0.73684,0.19497 0.73684,0.19497c0,0 0.29133,0.10255 0.31383,0.73242c0.0351,0.98271 0.00759,2.36629 0.03056,3.00951c0.02366,0.66279 -0.47847,1.0053 -0.47847,1.0053c0,0 -0.83065,0.61318 -1.43076,0.61318c-0.73498,0 -2.04394,0.00001 -2.04394,0.00001z" data-paper-data="{&quot;index&quot;:null}" fill="url(#color-14)" fill-rule="nonzero" stroke="#000000" stroke-width="0.5" stroke-linecap="round"/><path d="M345.98496,202.1768l0.07692,4.92744l-2.47471,0.1978z" data-paper-data="{&quot;index&quot;:null}" fill="url(#color-15)" fill-rule="nonzero" stroke="#000000" stroke-width="0.5" stroke-linecap="round"/><path d="M340.93969,144.15097c-0.22183,-0.5721 -0.37303,-1.82168 -0.37303,-1.82168c0,0 0.52279,-0.02752 0.74952,-0.03945c0.18833,-0.00991 0.36331,0.20355 0.36331,0.20355c0,0 0.14112,0.03658 0.12972,0.2759c-0.0277,0.58169 -0.14254,2.99333 -0.14254,2.99333c0,0 -0.5294,-1.10213 -0.72697,-1.61165z" data-paper-data="{&quot;index&quot;:null}" fill="url(#color-16)" fill-rule="nonzero" stroke="#000000" stroke-width="0.5" stroke-linecap="round"/><path d="M341.31052,217.36011c-0.22615,-0.01191 -0.82625,0.11469 -0.82625,0.11469c0,0 0.23362,-1.40343 0.45545,-1.97553c0.19757,-0.50952 0.72697,-1.61165 0.72697,-1.61165c0,0 0.08838,1.85614 0.11913,2.50182c0.01942,0.40784 -0.02939,0.61356 -0.02939,0.61356c0,0 -0.2563,0.36708 -0.4459,0.3571z" data-paper-data="{&quot;index&quot;:null}" fill="url(#color-17)" fill-rule="nonzero" stroke="#000000" stroke-width="0.5" stroke-linecap="round"/><path d="M126.99887,210.22519c0.44438,-0.24059 1.13751,0.4119 1.54817,1.45736c0.41066,1.04546 0.38332,2.08801 -0.06105,2.3286c-0.44438,0.24059 -1.13751,-0.4119 -1.54817,-1.45736c-0.41066,-1.04546 -0.38332,-2.08801 0.06105,-2.3286z" data-paper-data="{&quot;index&quot;:null}" fill="#e27200" fill-rule="nonzero" stroke="#000000" stroke-width="0.5" stroke-linecap="butt"/><path d="M126.89898,210.25105c-0.32678,0.01751 -0.85307,-1.17557 -1.17552,-2.66482c-0.32243,-1.48924 -0.31892,-2.7107 0.00787,-2.72821c0.32678,-0.01751 0.85307,1.17557 1.17552,2.66482c0.32243,1.48924 0.31892,2.7107 -0.00787,2.72821z" data-paper-data="{&quot;index&quot;:null}" fill="#d60b04" fill-rule="nonzero" stroke="#000000" stroke-width="0.5" stroke-linecap="butt"/><path d="M125.44759,204.55635c-0.32722,-0.00403 -0.77388,-1.22916 -0.99765,-2.73639c-0.22376,-1.50724 -0.13989,-2.72582 0.18734,-2.72179c0.32722,0.00403 0.77388,1.22916 0.99765,2.73639c0.22376,1.50724 0.13989,2.72582 -0.18734,2.72179z" data-paper-data="{&quot;index&quot;:null}" fill="#d60b04" fill-rule="nonzero" stroke="#000000" stroke-width="0.5" stroke-linecap="butt"/><path d="M124.15746,194.15455c0.37506,-0.03365 0.77005,0.95252 0.88224,2.20269c0.1122,1.25016 -0.10089,2.29091 -0.47594,2.32457c-0.37506,0.03365 -0.77005,-0.95252 -0.88224,-2.20269c-0.1122,-1.25016 0.10089,-2.29091 0.47594,-2.32457z" data-paper-data="{&quot;index&quot;:null}" fill="#ffffff" fill-rule="nonzero" stroke="#000000" stroke-width="0.5" stroke-linecap="butt"/><path d="M127.19887,149.21114c-0.44437,-0.24058 -0.47171,-1.28314 -0.06105,-2.3286c0.41066,-1.04546 1.10379,-1.69794 1.54817,-1.45735c0.44437,0.24059 0.47171,1.28314 0.06105,2.3286c-0.41066,1.04546 -1.10379,1.69795 -1.54817,1.45736z" data-paper-data="{&quot;index&quot;:null}" fill="#e27200" fill-rule="nonzero" stroke="#000000" stroke-width="0.5" stroke-linecap="butt"/><path d="M126.80684,151.88623c-0.32245,1.48925 -0.84875,2.68233 -1.17552,2.66482c-0.32678,-0.01751 -0.33029,-1.23897 -0.00786,-2.72821c0.32245,-1.48925 0.84875,-2.68233 1.17552,-2.66482c0.32678,0.01751 0.33029,1.23897 0.00786,2.72821z" data-paper-data="{&quot;index&quot;:null}" fill="#d60b04" fill-rule="nonzero" stroke="#000000" stroke-width="0.5" stroke-linecap="butt"/><path d="M125.63492,157.61996c-0.22376,1.50723 -0.67042,2.73235 -0.99764,2.73638c-0.32723,0.00403 -0.41109,-1.21455 -0.18734,-2.72178c0.22376,-1.50723 0.67042,-2.73235 0.99764,-2.73638c0.32723,-0.00403 0.41109,1.21455 0.18734,2.72178z" data-paper-data="{&quot;index&quot;:null}" fill="#d60b04" fill-rule="nonzero" stroke="#000000" stroke-width="0.5" stroke-linecap="butt"/><path d="M124.15747,165.3818c-0.37505,-0.03366 -0.58813,-1.07441 -0.47594,-2.32458c0.11219,-1.25016 0.50718,-2.23634 0.88223,-2.20268c0.37505,0.03366 0.58813,1.0744 0.47594,2.32457c-0.1122,1.25017 -0.50719,2.23635 -0.88224,2.20269z" data-paper-data="{&quot;index&quot;:null}" fill="#ffffff" fill-rule="nonzero" stroke="#000000" stroke-width="0.5" stroke-linecap="butt"/><path d="M354.3859,179.81969c0.42861,0 0.78936,0.12295 0.89361,0.28834c-0.03737,-0.71393 -0.45663,-1.27561 -0.96831,-1.27561c-0.17389,0 -0.33709,0.06483 -0.4796,0.17909c0.23498,0.00927 0.43484,0.34466 0.50768,0.80874c0,0 0.03089,-0.00055 0.04662,-0.00055zM355.3853,180.20928c0,0.87892 -0.46422,1.59145 -1.03676,1.59145c-0.57254,0 -1.03675,-0.71251 -1.03675,-1.59145c0,-0.87896 0.46421,-1.59145 1.03675,-1.59145c0.57253,0 1.03676,0.71248 1.03676,1.59145zM353.46141,180.20928c0,-0.16964 0.2574,-0.314 0.61625,-0.36757c-0.05166,-0.33024 -0.17019,-0.56133 -0.30812,-0.56133c-0.18512,0 -0.33503,0.41589 -0.33503,0.9289c0,0.51297 0.1499,0.9289 0.33503,0.9289c0.13793,0 0.25647,-0.23113 0.30812,-0.56133c-0.35887,-0.05356 -0.61625,-0.19789 -0.61625,-0.36757zM355.27949,180.31053c-0.10425,0.16532 -0.46499,0.28836 -0.89361,0.28836c-0.01573,0 -0.04662,-0.00058 -0.04662,-0.00058c-0.07284,0.46413 -0.2727,0.79943 -0.50767,0.80871c0.14252,0.11426 0.30572,0.17916 0.4796,0.17916c0.51169,0 0.93096,-0.56175 0.96831,-1.27565zM354.09521,179.98868c-0.23016,0.03528 -0.39264,0.12073 -0.39264,0.2206c0,0.09987 0.16248,0.18533 0.39264,0.22057c0.01244,-0.14523 0.01224,-0.29211 0,-0.44117zM354.35802,180.44714c0.33331,-0.0059 0.59915,-0.11011 0.59915,-0.23785c0,-0.1278 -0.26585,-0.23198 -0.59915,-0.23781c0.01417,0.153 0.01419,0.31239 0,0.47566z" data-paper-data="{&quot;index&quot;:null}" fill="#1a1a1a" fill-rule="evenodd" stroke="#1a1a1a" stroke-width="0.1" stroke-linecap="butt"/><path d="M123.61527,180.5309c-0.25102,0.00979 -0.4635,-0.14926 -0.52618,-0.37191c0.0289,0.97051 0.27996,1.72516 0.57963,1.71348c0.10184,-0.00397 0.19678,-0.0959 0.27912,-0.25461c-0.13771,-0.00725 -0.25805,-0.459 -0.30527,-1.08877c0,0 -0.01808,0.00146 -0.02729,0.00182zM123.64897,182.16533c-0.3353,0.01307 -0.61419,-0.94574 -0.62282,-2.14165c-0.00863,-1.19586 0.25624,-2.17592 0.59155,-2.18899c0.33531,-0.01307 0.61418,0.94577 0.62281,2.14165c0.00864,1.19591 -0.25623,2.17591 -0.59154,2.18898zM124.15288,179.97975c0.00166,0.23081 -0.14767,0.43311 -0.3573,0.51418c0.0335,0.44814 0.10519,0.75985 0.18597,0.7567c0.10842,-0.00423 0.19213,-0.57351 0.18709,-1.2715c-0.00504,-0.69794 -0.09692,-1.26043 -0.20534,-1.2562c-0.08079,0.00315 -0.14793,0.32032 -0.17494,0.77077c0.21069,0.06469 0.36285,0.25519 0.36452,0.48605zM123.08713,179.88349c0.05943,-0.22731 0.26949,-0.40295 0.52051,-0.41273c0.00921,-0.00036 0.02731,-0.00028 0.02731,-0.00028c0.03809,-0.63316 0.15185,-1.09393 0.28937,-1.11192c-0.08459,-0.15221 -0.18081,-0.23679 -0.28264,-0.23282c-0.29967,0.01169 -0.5397,0.78558 -0.55456,1.75775zM123.77954,179.69411c-0.00586,0.19788 -0.0043,0.39772 0.00433,0.60025c0.13445,-0.05326 0.22876,-0.17323 0.22778,-0.30911c-0.00098,-0.13588 -0.09698,-0.24845 -0.23212,-0.29114zM123.63011,180.32377c-0.0098,-0.20783 -0.01137,-0.4247 -0.00467,-0.64717c-0.19514,0.01564 -0.34981,0.16349 -0.34855,0.33729c0.00126,0.17387 0.15798,0.30955 0.35323,0.30988z" data-paper-data="{&quot;index&quot;:null}" fill="#191919" fill-rule="evenodd" stroke="#000000" stroke-width="0.1" stroke-linecap="butt"/><path d="M273.58303,219.72985c0,0 13.52848,-6.93701 13.90146,-40.64857c0.32984,-29.8121 -13.90146,-38.00905 -13.90146,-38.00905h53.67019v78.65762z" data-paper-data="{&quot;index&quot;:null}" fill="url(#color-18)" fill-rule="nonzero" stroke="none" stroke-width="0" stroke-linecap="butt"/><path d="M333.58807,156.73338c0,0 -16.62894,-2.90925 -24.59903,-3.49101c-8.09955,-0.59121 -23.61615,-0.02835 -23.61615,-0.02835c0,0 -1.35881,-3.27204 -3.49845,-5.88813c-3.08168,-3.7679 -8.8193,-7.30946 -8.8193,-7.30946c0,0 8.72084,-1.83725 15.3092,-2.28758c23.16998,-1.58371 44.16792,5.63097 44.16792,5.63097l1.05581,13.37355z" data-paper-data="{&quot;index&quot;:null}" fill="url(#color-19)" fill-rule="nonzero" stroke="#000000" stroke-width="0" stroke-linecap="butt"/><path d="M343.67206,159.78283c0,0 -17.5032,-3.0861 -28.5262,-4.2821c-10.8498,-1.1773 -30.0389,-2.7257 -30.0389,-2.7257c0,0 20.1925,0.3034 31.257,1.6129c11.0645,1.3094 27.3081,5.3949 27.3081,5.3949z" data-paper-data="{&quot;index&quot;:null}" fill="none" fill-rule="nonzero" stroke="#980000" stroke-width="0.5" stroke-linecap="round"/><path d="M334.395,203.21054l-1.0558,13.37356c0,0 -20.99793,7.21469 -44.16792,5.63098c-6.58836,-0.45033 -15.3092,-2.28759 -15.3092,-2.28759c0,0 5.73761,-3.54156 8.81929,-7.30946c2.13964,-2.61609 3.49845,-5.88813 3.49845,-5.88813c0,0 15.5166,0.56286 23.61615,-0.02835c7.97009,-0.58176 24.59903,-3.49101 24.59903,-3.49101z" data-paper-data="{&quot;index&quot;:null}" fill="url(#color-20)" fill-rule="nonzero" stroke="#000000" stroke-width="0" stroke-linecap="butt"/><path d="M316.98966,205.51412c-11.0645,1.3095 -31.257,1.613 -31.257,1.613c0,0 19.1891,-1.5485 30.0389,-2.7257c11.023,-1.1961 28.5262,-4.2821 28.5262,-4.2821c0,0 -16.2436,4.0854 -27.3081,5.3948z" data-paper-data="{&quot;index&quot;:null}" fill="none" fill-rule="nonzero" stroke="#980000" stroke-width="0.5" stroke-linecap="round"/><path d="M285.19983,152.79872c0,0 -2.3158,-4.41966 -4.78507,-7.08442c-2.46927,-2.66476 -6.98741,-5.62008 -6.98741,-5.62008c0,0 3.2266,-3.6096 30.5421,-2.1027c16.3454,0.9018 37.1998,7.6088 37.1998,7.6088c0,0 2.9094,9.5298 5.092,12.9595c1.9198,3.0168 5.2529,3.392 5.2529,3.392c0,0 1.0259,4.1047 0.9943,16.8492c-0.0232,9.3226 -0.85923,19.15917 -0.85923,19.15917c0,0 -2.82822,0.49997 -4.64799,2.25777c-1.56526,1.51196 -6.27687,15.27497 -6.27687,15.27497c0,0 -30.1975,6.2275 -44.7197,7.1877c-11.7413,0.7763 -22.5774,-2.7384 -22.5774,-2.7384c0,0 4.81378,-2.98654 6.90082,-5.17119c2.08704,-2.18465 5.82571,-7.64138 5.82571,-7.64138" data-paper-data="{&quot;index&quot;:null}" fill="none" fill-rule="nonzero" stroke="#980000" stroke-width="0.5" stroke-linecap="round"/><path d="M4.42566,361.63478v-360.53868h472.87786v360.53869z" fill="none" fill-rule="nonzero" stroke="none" stroke-width="0" stroke-linecap="butt"/></g></g></svg>