<svg version="1.1" xmlns="http://www.w3.org/2000/svg" xmlns:xlink="http://www.w3.org/1999/xlink" width="36.16269" height="36.16269" viewBox="0,0,36.16269,36.16269"><defs><radialGradient cx="239.99998" cy="180.00001" r="18.08134" gradientUnits="userSpaceOnUse" id="color-1"><stop offset="0" stop-color="#ffd92d"/><stop offset="1" stop-color="#ffd117"/></radialGradient></defs><g transform="translate(-221.91865,-161.91865)"><g data-paper-data="{&quot;isPaintingLayer&quot;:true}" fill-rule="nonzero" stroke-linejoin="miter" stroke-miterlimit="10" stroke-dasharray="" stroke-dashoffset="0" style="mix-blend-mode: normal"><path d="" fill="none" stroke="#000000" stroke-width="5.5" stroke-linecap="round"/><path d="" fill="none" stroke="#000000" stroke-width="5.5" stroke-linecap="round"/><path d="" data-paper-data="{&quot;index&quot;:null}" fill="none" stroke="#9f8200" stroke-width="2.5" stroke-linecap="round"/><path d="M221.91866,180.00001c0,-9.98606 8.09529,-18.08135 18.08134,-18.08135c9.98605,0 18.08135,8.09529 18.08135,18.08135c0,9.98606 -8.09529,18.08134 -18.08135,18.08134c-9.98605,0 -18.08134,-8.09529 -18.08134,-18.08134z" fill="url(#color-1)" stroke="#f1f1f1" stroke-width="0" stroke-linecap="butt"/><path d="M235.39774,181.55158v-7.38772" fill="none" stroke="#9f8200" stroke-width="4" stroke-linecap="round"/><path d="M244.23227,174.21302c0,0 0,3.47066 0,4.82677c0,0.98779 0,2.56095 0,2.56095" fill="none" stroke="#9f8200" stroke-width="4" stroke-linecap="round"/><path d="M235.0948,189.11749c0,0 1.24017,-1.97324 5.1127,-1.93418c0.50793,0.00513 0.97361,0.04114 1.39933,0.09979c2.79622,0.38523 3.86861,1.74712 3.86861,1.74712" fill="none" stroke="#9f8200" stroke-width="2.5" stroke-linecap="round"/><path d="M237.88969,171.24337l-5.93707,-2.08898" fill="none" stroke="#9f8200" stroke-width="2.5" stroke-linecap="round"/><path d="M247.83632,169.0717l-5.93707,2.08896" data-paper-data="{&quot;index&quot;:null}" fill="none" stroke="#9f8200" stroke-width="2.5" stroke-linecap="round"/></g></g></svg>