<svg version="1.1" xmlns="http://www.w3.org/2000/svg" xmlns:xlink="http://www.w3.org/1999/xlink" width="472.87786" height="360.53869" viewBox="0,0,472.87786,360.53869"><defs><linearGradient x1="151.49074" y1="167.10695" x2="184.91002" y2="167.10695" gradientUnits="userSpaceOnUse" id="color-1"><stop offset="0" stop-color="#8a8a8a"/><stop offset="1" stop-color="#b5b5b5"/></linearGradient><linearGradient x1="156.22358" y1="174.5674" x2="183.98025" y2="174.5674" gradientUnits="userSpaceOnUse" id="color-2"><stop offset="0" stop-color="#8a8a8a"/><stop offset="1" stop-color="#b5b5b5"/></linearGradient><linearGradient x1="152.11278" y1="195.79575" x2="185.53204" y2="195.79575" gradientUnits="userSpaceOnUse" id="color-3"><stop offset="0" stop-color="#8a8a8a"/><stop offset="1" stop-color="#b5b5b5"/></linearGradient><linearGradient x1="156.84561" y1="188.52152" x2="184.60228" y2="188.52152" gradientUnits="userSpaceOnUse" id="color-4"><stop offset="0" stop-color="#8a8a8a"/><stop offset="1" stop-color="#b5b5b5"/></linearGradient><linearGradient x1="238.19516" y1="158.24553" x2="238.19516" y2="133.20983" gradientUnits="userSpaceOnUse" id="color-5"><stop offset="0" stop-color="#2e4fff"/><stop offset="1" stop-color="#2b1cd6"/></linearGradient><linearGradient x1="238.01929" y1="153.92429" x2="238.01929" y2="134.71452" gradientUnits="userSpaceOnUse" id="color-6"><stop offset="0" stop-color="#2d45f7"/><stop offset="1" stop-color="#2b1dd7"/></linearGradient><linearGradient x1="242.30095" y1="152.65145" x2="242.30095" y2="133.21015" gradientUnits="userSpaceOnUse" id="color-7"><stop offset="0" stop-color="#ffffff"/><stop offset="1" stop-color="#ababab"/></linearGradient><linearGradient x1="252.19522" y1="151.1471" x2="252.19522" y2="135.40896" gradientUnits="userSpaceOnUse" id="color-8"><stop offset="0" stop-color="#ffffff"/><stop offset="1" stop-color="#ababab"/></linearGradient><linearGradient x1="229.05081" y1="157.62748" x2="229.05081" y2="141.88934" gradientUnits="userSpaceOnUse" id="color-9"><stop offset="0" stop-color="#a0a0a0"/><stop offset="1" stop-color="#ffffff"/></linearGradient><linearGradient x1="215.80068" y1="149.75841" x2="242.30095" y2="149.75841" gradientUnits="userSpaceOnUse" id="color-10"><stop offset="0" stop-color="#ffffff"/><stop offset="1" stop-color="#a0a0a0"/></linearGradient><linearGradient x1="288.78731" y1="179.57976" x2="334.62128" y2="179.57976" gradientUnits="userSpaceOnUse" id="color-11"><stop offset="0" stop-color="#2b1dd7"/><stop offset="1" stop-color="#2538c4"/></linearGradient><radialGradient cx="196.50869" cy="181.73708" r="14.55777" gradientUnits="userSpaceOnUse" id="color-12"><stop offset="0" stop-color="#a9a9a9"/><stop offset="1" stop-color="#d4d4d4"/></radialGradient><linearGradient x1="238.19518" y1="202.91725" x2="238.19518" y2="227.95296" gradientUnits="userSpaceOnUse" id="color-13"><stop offset="0" stop-color="#2e4fff"/><stop offset="1" stop-color="#2b1cd6"/></linearGradient><linearGradient x1="238.01931" y1="207.2385" x2="238.01931" y2="226.44827" gradientUnits="userSpaceOnUse" id="color-14"><stop offset="0" stop-color="#2d45f7"/><stop offset="1" stop-color="#2b1dd7"/></linearGradient><linearGradient x1="242.30097" y1="208.51132" x2="242.30097" y2="227.95264" gradientUnits="userSpaceOnUse" id="color-15"><stop offset="0" stop-color="#ffffff"/><stop offset="1" stop-color="#ababab"/></linearGradient><linearGradient x1="252.19524" y1="210.01569" x2="252.19524" y2="225.75383" gradientUnits="userSpaceOnUse" id="color-16"><stop offset="0" stop-color="#ffffff"/><stop offset="1" stop-color="#ababab"/></linearGradient><linearGradient x1="229.05083" y1="203.53531" x2="229.05083" y2="219.27345" gradientUnits="userSpaceOnUse" id="color-17"><stop offset="0" stop-color="#a0a0a0"/><stop offset="1" stop-color="#ffffff"/></linearGradient><linearGradient x1="215.80069" y1="211.40438" x2="242.30097" y2="211.40438" gradientUnits="userSpaceOnUse" id="color-18"><stop offset="0" stop-color="#ffffff"/><stop offset="1" stop-color="#a0a0a0"/></linearGradient><linearGradient x1="267.13831" y1="168.47802" x2="304.90984" y2="168.47802" gradientUnits="userSpaceOnUse" id="color-19"><stop offset="0" stop-color="#ffffff"/><stop offset="1" stop-color="#cecece"/></linearGradient><linearGradient x1="267.20398" y1="187.62602" x2="304.97555" y2="187.62602" gradientUnits="userSpaceOnUse" id="color-20"><stop offset="0" stop-color="#ffffff"/><stop offset="1" stop-color="#cecece"/></linearGradient><linearGradient x1="194.95961" y1="129.07489" x2="194.95961" y2="157.49258" gradientUnits="userSpaceOnUse" id="color-21"><stop offset="0" stop-color="#1e1e1e"/><stop offset="1" stop-color="#4b4b4b"/></linearGradient><linearGradient x1="196.97092" y1="204.40012" x2="196.97092" y2="232.81778" gradientUnits="userSpaceOnUse" id="color-22"><stop offset="0" stop-color="#4b4b4b"/><stop offset="1" stop-color="#1e1e1e"/></linearGradient><linearGradient x1="275.76285" y1="200.95288" x2="275.76285" y2="222.94191" gradientUnits="userSpaceOnUse" id="color-23"><stop offset="0" stop-color="#4b4b4b"/><stop offset="1" stop-color="#1e1e1e"/></linearGradient><linearGradient x1="274.23696" y1="134.39303" x2="274.23696" y2="156.38207" gradientUnits="userSpaceOnUse" id="color-24"><stop offset="0" stop-color="#1e1e1e"/><stop offset="1" stop-color="#4b4b4b"/></linearGradient><radialGradient cx="238.09505" cy="180.57606" r="15.1977" gradientUnits="userSpaceOnUse" id="color-25"><stop offset="0" stop-color="#db0007"/><stop offset="1" stop-color="#a63c3c"/></radialGradient><linearGradient x1="305.6884" y1="177.33249" x2="334.90429" y2="177.33249" gradientUnits="userSpaceOnUse" id="color-26"><stop offset="0" stop-color="#ffffff"/><stop offset="1" stop-color="#dddddd"/></linearGradient></defs><g transform="translate(-4.42566,-1.09609)"><g data-paper-data="{&quot;isPaintingLayer&quot;:true}" fill-rule="nonzero" stroke-linejoin="miter" stroke-miterlimit="10" stroke-dasharray="" stroke-dashoffset="0" style="mix-blend-mode: normal"><path d="M184.91002,168.70767l-1.44805,6.87039l-31.97123,-4.34668l2.6547,-12.59557z" fill="url(#color-1)" stroke="#8a8a8a" stroke-width="1" stroke-linecap="round"/><path d="M153.44755,158.65614l-2.79977,12.7885l-5.31209,-3.48596l1.91183,-9.14112z" fill="#8a8a8a" stroke="#8a8a8a" stroke-width="1" stroke-linecap="round"/><path d="M158.90203,171.41485l2.01479,-9.40596" fill="none" stroke="#ffffff" stroke-width="1.5" stroke-linecap="round"/><path d="M149.7457,170.99146l-4.64999,-2.88628l2.16255,-9.65783l6.33992,0.00411l31.32911,10.19636l-0.82634,4.04573l-1.03606,3.58511l-32.84447,-4.81711l3.17281,-12.33819" fill="none" stroke="#777777" stroke-width="1" stroke-linecap="round"/><path d="M183.98025,172.7335l-0.14652,6.01346l-27.61014,1.33272l0.26865,-11.02461z" fill="url(#color-2)" stroke="#8a8a8a" stroke-width="1" stroke-linecap="round"/><path d="M155.87844,169.02421l-0.36066,11.20992l-5.01938,-2.10665l0.18264,-7.99863z" fill="#8a8a8a" stroke="#8a8a8a" stroke-width="1" stroke-linecap="round"/><path d="M162.69401,170.68165l-0.22792,8.23795" fill="none" stroke="#ffffff" stroke-width="1.5" stroke-linecap="round"/><path d="M149.64068,177.98065l0.89288,-7.98547l6.72388,-1.29995l26.32129,4.35396l-0.34752,5.68686l-27.99742,1.86414z" fill="none" stroke="#777777" stroke-width="1" stroke-linecap="round"/><path d="M155.68551,180.57373l1.3725,-11.41362" fill="none" stroke="#777777" stroke-width="0.5" stroke-linecap="round"/><path d="M154.76746,204.26678l-2.65469,-12.59543l31.97124,-4.34667l1.44805,6.87022z" fill="url(#color-3)" stroke="#8a8a8a" stroke-width="1" stroke-linecap="round"/><path d="M147.86954,204.27138l-1.91183,-9.14112l5.31209,-3.48595l2.79977,12.78849z" fill="#8a8a8a" stroke="#8a8a8a" stroke-width="1" stroke-linecap="round"/><path d="M159.52408,191.67407l2.01478,9.40597" fill="none" stroke="#ffffff" stroke-width="1.5" stroke-linecap="round"/><path d="M154.01526,203.96552l-3.1728,-12.3382l32.84445,-4.8171l1.03606,3.5851l0.82635,4.04573l-31.32911,10.19637l-6.33991,0.00411l-2.16257,-9.65783l4.65001,-2.88628" fill="none" stroke="#777777" stroke-width="1" stroke-linecap="round"/><path d="M157.11426,194.03383l-0.26863,-11.02461l27.61014,1.33275l0.14652,6.01347z" fill="url(#color-4)" stroke="#8a8a8a" stroke-width="1" stroke-linecap="round"/><path d="M151.30305,192.96007l-0.18263,-7.99864l5.01939,-2.10649l0.36065,11.20976z" fill="#8a8a8a" stroke="#8a8a8a" stroke-width="1" stroke-linecap="round"/><path d="M163.31605,192.40727l-0.22795,-8.23795" fill="none" stroke="#ffffff" stroke-width="1.5" stroke-linecap="round"/><path d="M155.8558,182.4889l27.99742,1.86398l0.34752,5.68702l-26.32113,4.35382l-6.72402,-1.29979l-0.89287,-7.98549z" fill="none" stroke="#777777" stroke-width="1" stroke-linecap="round"/><path d="M156.30756,182.5152l1.37249,11.41361" fill="none" stroke="#777777" stroke-width="0.5" stroke-linecap="round"/><g data-paper-data="{&quot;index&quot;:null}"><path d="M218.38671,157.2619c0,0 -6.37428,-16.511 0.98363,-20.65631c7.35791,-4.14531 17.74902,-5.55924 32.45991,1.96727c14.71089,7.52651 6.39362,19.67267 6.39362,19.67267z" fill="url(#color-5)" stroke="none" stroke-width="0" stroke-linecap="butt"/><path d="M259.89068,153.11437l-0.23155,0.80993l-5.20736,-1.27282l-14.34944,-3.12441l-10.41491,-2.77739l-8.67919,-3.24028l-4.86033,-2.19862l0.81012,-2.08294l0.80993,-1.27302l1.38869,-1.04147l1.27302,-0.69445l1.62005,-0.80992l1.85159,-0.69445l1.50437,2.66171l3.12441,2.66152l0.9258,0.69445l7.52184,3.70298l10.06789,4.74466z" fill="url(#color-6)" stroke="#3500ff" stroke-width="0" stroke-linecap="round"/><path d="M224.24832,134.36749l3.12461,-0.81012l3.12441,-0.34722l1.50437,2.19881l4.74465,2.89306l6.71173,5.20736l8.56352,4.74465l8.33196,3.35596v1.04147l-13.42364,-4.05021l-17.47405,-8.56351l-3.58732,-2.77719z" fill="url(#color-7)" stroke="#ffffff" stroke-width="0" stroke-linecap="round"/><path d="M244.84679,135.40896l4.39743,2.19861l1.04147,2.54585l3.00874,4.16608l3.70318,3.70298l3.35595,2.3145v0.81012l-5.20755,-2.31449l-5.32322,-4.28176l-3.93454,-4.05021l-1.85139,-5.09168z" fill="url(#color-8)" stroke="#ffffff" stroke-width="0" stroke-linecap="round"/><path d="M242.30095,157.62748l-14.1181,-0.23136l-9.72046,-0.11586l-1.96727,-5.78594l-0.4629,-3.93453l-0.23154,-3.35596l0.11567,-2.31448l4.74465,1.96726l6.01748,2.31449l4.0504,1.15714l5.67026,3.93454z" fill="url(#color-9)" stroke="url(#color-10)" stroke-width="0.5" stroke-linecap="round"/></g><g data-paper-data="{&quot;index&quot;:null}" fill="none" stroke="#666666" stroke-width="1.5" stroke-linecap="round"><path d="M268.347,192.5979l4.91817,9.18064"/><path d="M281.3709,191.66122l-5.15483,10.77301"/><path d="M274.90443,201.5862v-8.82304"/></g><g data-paper-data="{&quot;index&quot;:null}" fill="none" stroke="#666666" stroke-width="1.5" stroke-linecap="round"><path d="M190.63994,195.5488l4.91816,9.18064"/><path d="M203.42718,196.86038l-4.91818,8.52475"/><path d="M197.19743,202.76218v-4.91817"/></g><g fill="none" stroke="#666666" stroke-width="1.5" stroke-linecap="round"><path d="M189.65631,167.02342l4.91816,-9.18065"/><path d="M202.44354,165.71185l-4.91816,-8.52476"/><path d="M196.21379,164.72841v-8.70471"/></g><g fill="none" stroke="#666666" stroke-width="1.5" stroke-linecap="round"><path d="M267.69131,166.69566l5.62813,-10.36395"/><path d="M280.47855,165.38409l-4.91818,-8.52475"/><path d="M274.2488,164.40047v-8.82304"/></g><path d="M334.61792,179.08037c0.2923,25.12342 -18.40614,45.71028 -41.76412,45.98204c-6.05869,0.07048 -1.52501,-16.07027 -3.36924,-23.28135c-0.51489,-2.0132 12.33153,-3.68355 15.71546,-10.8268c3.38394,-7.14325 0.13269,-18.89584 0.12032,-22.60142c-0.02864,-8.57393 -16.06975,-11.14089 -15.49248,-12.25124c2.66559,-5.12731 -3.83879,-21.95159 0.49211,-22.00197c23.35798,-0.27176 44.00568,19.85732 44.29798,44.98076z" fill="url(#color-11)" stroke="none" stroke-width="0" stroke-linecap="butt"/><path d="M184.76849,196.29487c0,0 -1.32126,-1.31307 -1.48474,-3.36115c-0.50734,-6.35516 -0.33498,-19.78731 -0.33498,-23.02482c0,-1.37688 1.81973,-2.72959 1.81973,-2.72959h23.50292c0,0 1.51643,1.95928 1.51643,3.33615c0,3.39344 0.56354,17.60587 0.16848,23.35262c-0.10332,1.50287 -1.68492,2.42678 -1.68492,2.42678z" fill="url(#color-12)" stroke="none" stroke-width="NaN" stroke-linecap="butt"/><path d="M192.37259,174.30656c0,1.42376 -1.35787,2.57794 -3.03287,2.57794c-1.67501,0 -3.03288,-1.15417 -3.03288,-2.57794c0,-1.42375 1.35787,-2.57795 3.03288,-2.57795c1.67501,0 3.03287,1.15418 3.03287,2.57795z" fill="#ffffff" stroke="#c9c9c9" stroke-width="0.5" stroke-linecap="butt"/><path d="M205.71723,174.30656c0,1.42376 -1.35787,2.57794 -3.03288,2.57794c-1.67501,0 -3.03287,-1.15417 -3.03287,-2.57794c0,-1.42375 1.35787,-2.57795 3.03287,-2.57795c1.67501,0 3.03288,1.15418 3.03288,2.57795z" fill="#ffffff" stroke="#c9c9c9" stroke-width="0.5" stroke-linecap="butt"/><path d="M192.37259,190.07747c0,1.42376 -1.35787,2.57795 -3.03287,2.57795c-1.67501,0 -3.03288,-1.15418 -3.03288,-2.57795c0,-1.42375 1.35787,-2.57794 3.03288,-2.57794c1.67501,0 3.03287,1.15418 3.03287,2.57794z" fill="#ffffff" stroke="#c9c9c9" stroke-width="0.5" stroke-linecap="butt"/><path d="M206.3238,189.7742c0,1.42376 -1.35787,2.57794 -3.03287,2.57794c-1.67501,0 -3.03288,-1.15417 -3.03288,-2.57794c0,-1.42375 1.35787,-2.57795 3.03288,-2.57795c1.67501,0 3.03287,1.15418 3.03287,2.57795z" fill="#ffffff" stroke="#c9c9c9" stroke-width="0.5" stroke-linecap="butt"/><path d="M196.31531,181.1305l-0.30335,-13.64792l0.60671,14.86113" fill="none" stroke="#d2d2d2" stroke-width="0.5" stroke-linecap="round"/><path d="M196.31531,167.48258v28.81221l-0.60651,-12.13135" fill="none" stroke="#c9c9c9" stroke-width="1.5" stroke-linecap="round"/><path d="M184.61528,182.33502l24.43808,0.00869" fill="none" stroke="#c9c9c9" stroke-width="1.5" stroke-linecap="round"/><path d="M277.31714,175.18384h28.26334l0.24591,4.91541h-28.26353z" fill="#1d00ff" stroke="#1d00ff" stroke-width="0.5" stroke-linecap="round"/><path d="M277.56286,180.99869l-0.31811,3.18049h-10.49577l0.3181,-13.67624l9.85956,0.31791v3.81669z" fill="#1d00ff" stroke="#1d00ff" stroke-width="0.5" stroke-linecap="round"/><path d="M277.34112,180.28855h29.46831l-0.24571,3.25144l-29.2226,-0.98304z" fill="#ffffff" stroke="#ffffff" stroke-width="0" stroke-linecap="round"/><path d="M277.26623,173.22327l28.81138,-0.98305l0.24591,2.70342h-29.05729z" data-paper-data="{&quot;index&quot;:null}" fill="#ffffff" stroke="#ffffff" stroke-width="0" stroke-linecap="round"/><g><path d="M258.22389,202.91725c0,0 8.31727,12.14617 -6.39362,19.67268c-14.71089,7.52651 -25.102,6.11257 -32.45992,1.96726c-7.35791,-4.14531 -0.98363,-20.65631 -0.98363,-20.65631z" fill="url(#color-13)" stroke="none" stroke-width="0" stroke-linecap="butt"/><path d="M247.04562,211.98295l-10.06789,4.74466l-7.52184,3.70299l-0.9258,0.69445l-3.12441,2.66151l-1.50437,2.66172l-1.85159,-0.69445l-1.62005,-0.80992l-1.27302,-0.69445l-1.38869,-1.04147l-0.80993,-1.27302l-0.81011,-2.08294l4.86032,-2.19862l8.67919,-3.24028l10.41491,-2.77739l14.34945,-3.12441l5.20736,-1.27282l0.23154,0.80992z" fill="url(#color-14)" stroke="#3500ff" stroke-width="0" stroke-linecap="round"/><path d="M225.86858,223.90223l3.58732,-2.77719l17.47405,-8.56351l13.42365,-4.05022v1.04147l-8.33197,3.35596l-8.56351,4.74465l-6.71173,5.20736l-4.74465,2.89306l-1.50437,2.19881l-3.12441,-0.34723l-3.12461,-0.81012z" fill="url(#color-15)" stroke="#ffffff" stroke-width="0" stroke-linecap="round"/><path d="M244.03689,225.75383l1.85139,-5.09168l3.93454,-4.05021l5.32323,-4.28176l5.20755,-2.31449v0.81012l-3.35596,2.31449l-3.70319,3.70299l-3.00874,4.16608l-1.04147,2.54584l-4.39744,2.19862z" fill="url(#color-16)" stroke="#ffffff" stroke-width="0" stroke-linecap="round"/><path d="M236.39916,209.90001l-5.67025,3.93453l-4.05041,1.15715l-6.01748,2.31449l-4.74465,1.96727l-0.11568,-2.31449l0.23155,-3.35596l0.4629,-3.93453l1.96726,-5.78593l9.72047,-0.11587l14.11809,-0.23135z" fill="url(#color-17)" stroke="url(#color-18)" stroke-width="0.5" stroke-linecap="round"/></g><path d="M304.90984,173.00273l-27.14829,0.7869v-2.75417h-9.83633l-0.78691,-6.68871l8.26252,-1.18036l10.2298,3.14763l10.62324,2.75418z" fill="url(#color-19)" stroke="#ffffff" stroke-width="0.5" stroke-linecap="round"/><path d="M296.31937,187.03584l-10.62305,2.75418l-10.22978,3.14762l-8.26253,-1.18036l0.78691,-6.6887h9.83633v-2.75418l27.14829,0.78691z" data-paper-data="{&quot;index&quot;:null}" fill="url(#color-20)" stroke="#ffffff" stroke-width="0.5" stroke-linecap="round"/><path d="M257.527,180.79429h-46.88647l-0.65589,-11.8036l-1.31138,-2.29521l-25.24673,-0.32774v-3.27884c0,0 8.47563,0 12.62804,0c4.04153,0 11.9628,0 11.9628,0l9.18064,-6.22975h41.31262l8.08844,7.84936l0.15083,15.98458z" fill="#373737" stroke="#5d5d5d" stroke-width="2" stroke-linecap="round"/><path d="M267.31912,199.40974l-8.48052,6.95903h-41.31261l-9.18064,-6.22955h-24.59084v-3.27884l25.24673,-0.32795l1.31138,-2.29501l0.30924,-11.80361h47.23313l9.05921,-0.2248z" data-paper-data="{&quot;index&quot;:null}" fill="#373737" stroke="#5d5d5d" stroke-width="2" stroke-linecap="round"/><path d="M253.26474,194.23722c0,0 -3.0337,2.0682 -5.62554,2.05117c-4.05436,-0.02662 -16.34236,-2.19547 -16.34236,-2.19547l-7.18443,4.58521l-0.17631,-34.40346l7.41843,4.7108c0,0 12.30949,-1.89764 16.29352,-1.77563c2.56811,0.07863 5.28874,2.43653 5.28874,2.43653z" fill="#777777" stroke="#777777" stroke-width="1" stroke-linecap="round"/><path d="M229.15636,192.671v-21.78162" fill="none" stroke="#727272" stroke-width="0.5" stroke-linecap="round"/><path d="M238.1823,189.97494l-0.1495,-17.37766" fill="none" stroke="#727272" stroke-width="1" stroke-linecap="round"/><path d="M243.22102,170.06613l0.20737,21.54813" fill="none" stroke="#727272" stroke-width="1" stroke-linecap="round"/><path d="M248.67432,170.95795l0.32794,20.32836" fill="none" stroke="#727272" stroke-width="1" stroke-linecap="round"/><path d="M211.28854,144.52518c0,5.07465 1.30817,7.93365 -2.4776,10.80567c-2.68676,2.03824 -10.73639,2.14776 -14.3881,2.14776c-3.85187,0 -10.19536,0.30525 -12.94973,-1.93907c-3.53628,-2.8814 -2.97895,-6.68832 -2.97895,-11.56555c0,-4.6328 -0.77757,-9.56314 2.45703,-12.43846c2.82301,-2.50942 9.37193,-2.42973 13.47165,-2.42973c4.06333,0 11.43996,-0.44316 14.25395,2.02668c2.89157,2.53795 2.61175,12.84193 2.61175,13.39272z" fill="url(#color-21)" stroke="none" stroke-width="0" stroke-linecap="butt"/><g fill="#1700ff" stroke="#000000" stroke-width="0.5" stroke-linecap="butt"><path d="M272.46112,173.32491c1.33925,0 2.42491,2.30375 2.42491,5.14554c0,2.84181 -1.08566,5.14555 -2.42491,5.14555c-1.33925,0 -2.42494,-2.30373 -2.42494,-5.14555c0,-2.84181 1.08569,-5.14554 2.42494,-5.14554z"/><path d="M271.86968,183.85259c-1.92719,0 -3.4895,-1.56231 -3.4895,-3.48952c0,-1.92721 1.56231,-3.48952 3.4895,-3.48952c1.92719,0 1.92719,6.97902 0,6.97902z"/></g><path d="M213.29985,219.85041c0,5.07465 1.30818,7.93365 -2.4776,10.80567c-2.68676,2.03824 -10.73639,2.14776 -14.3881,2.14776c-3.85187,0 -10.19537,0.30524 -12.94974,-1.93908c-3.53628,-2.8814 -2.97895,-6.68831 -2.97895,-11.56554c0,-4.6328 -0.77757,-9.56313 2.45704,-12.43845c2.82301,-2.50942 9.37193,-2.42973 13.47165,-2.42973c4.06333,0 11.43995,-0.44316 14.25395,2.02668c2.89157,2.53795 2.61174,12.84193 2.61174,13.39272z" fill="url(#color-22)" stroke="none" stroke-width="0" stroke-linecap="butt"/><path d="M288.39785,212.90802c0,3.92665 1.01224,6.13891 -1.91712,8.36122c-2.07897,1.57716 -8.30761,1.66189 -11.13322,1.66189c-2.98049,0 -7.88897,0.23617 -10.02025,-1.50044c-2.73631,-2.22957 -2.30507,-5.17528 -2.30507,-8.94919c0,-3.58476 -0.60168,-7.39976 1.90121,-9.62462c2.18437,-1.94173 7.25181,-1.88007 10.42409,-1.88007c3.14412,0 8.852,-0.34293 11.02943,1.5682c2.23745,1.96381 2.02092,9.93683 2.02092,10.36304z" fill="url(#color-23)" stroke="none" stroke-width="0" stroke-linecap="butt"/><path d="M286.87196,146.34819c0,3.92665 1.01223,6.13891 -1.91712,8.36122c-2.07897,1.57716 -8.30761,1.66189 -11.13322,1.66189c-2.98049,0 -7.88897,0.23616 -10.02025,-1.50044c-2.73631,-2.22957 -2.30508,-5.17529 -2.30508,-8.9492c0,-3.58476 -0.60167,-7.39976 1.90121,-9.62462c2.18439,-1.94173 7.25182,-1.8801 10.4241,-1.8801c3.14412,0 8.85199,-0.34292 11.02943,1.56821c2.23745,1.96381 2.02092,9.93683 2.02092,10.36302z" fill="url(#color-24)" stroke="none" stroke-width="0" stroke-linecap="butt"/><path d="M218.78455,200.35326v-37.77092h4.33558v37.77092z" fill="#888888" stroke="#666666" stroke-width="0" stroke-linecap="butt"/><path d="M231.34282,195.02454v-26.91058h0.4485v26.91058z" fill="#6e6e6e" stroke="none" stroke-width="0" stroke-linecap="butt"/><path d="M226.74844,169.28957v24.292" fill="none" stroke="#727272" stroke-width="0.5" stroke-linecap="round"/><path d="M224.40385,195.51488v-28.38299" fill="none" stroke="#727272" stroke-width="0.5" stroke-linecap="round"/><path d="M259.99064,188.54414v-22.82029" fill="none" stroke="#2e2e2e" stroke-width="1.5" stroke-linecap="round"/><path d="M253.29274,180.57606c0,7.52517 -6.80425,13.62551 -15.1977,13.62551c-8.39345,0 -15.19769,-6.10036 -15.19769,-13.62551c0,-7.52517 6.80424,-13.62551 15.19769,-13.62551c8.39345,0 15.1977,6.10036 15.1977,13.62551z" fill="url(#color-25)" stroke="#5d5d5d" stroke-width="0" stroke-linecap="butt"/><path d="M253.07148,181.12095c0,1.99927 -0.90777,4.86791 -2.21919,6.77592c-1.37929,2.00677 -3.16565,3.00347 -3.16565,3.00347c0,0 2.29012,-6.4201 2.29012,-10.52211c0,-4.10202 -1.79496,-9.40801 -1.79496,-9.40801c0,0 2.35759,1.50064 3.45102,3.75474c0.94045,1.93875 1.43866,4.49927 1.43866,6.39601z" fill="#adcaff" stroke="#c7c7c7" stroke-width="0.5" stroke-linecap="butt"/><path d="M289.99449,156.94972v-8.96016c0,0 14.48582,2.552 22.02915,13.07446c4.31912,6.02488 4.36165,20.76968 3.17521,23.66969c-0.51249,1.25269 -2.08076,10.29377 -7.05887,14.77819c-7.08724,6.3844 -18.19039,8.5195 -18.19039,8.5195l-0.58169,-7.22085c0,0 12.32601,-3.62969 16.70161,-12.19699c0.97278,-1.90465 1.40733,-10.42486 -0.3796,-16.94761c-0.15663,-0.57174 -0.33394,-3.77428 -0.5337,-4.27289c-3.66947,-9.15904 -15.16171,-10.44338 -15.16171,-10.44338z" fill="#273acc" stroke="none" stroke-width="0" stroke-linecap="butt"/><path d="M333.4937,168.8217c0,0 1.4243,4.69348 1.41049,9.07094c-0.01263,4.00823 -0.6565,7.74643 -0.6565,7.74643l-28.35312,-0.50186c0,0 0.13739,-5.26066 0.09217,-8.01247c-0.04066,-2.47423 -0.61164,-7.04832 -0.61164,-7.04832z" fill="url(#color-26)" stroke="#ffffff" stroke-width="0" stroke-linecap="round"/><path d="M4.42566,361.63478v-360.53868h472.87786v360.53869z" fill="none" stroke="none" stroke-width="0" stroke-linecap="butt"/></g></g></svg>