<svg version="1.1" xmlns="http://www.w3.org/2000/svg" xmlns:xlink="http://www.w3.org/1999/xlink" width="84.3343" height="127.26972" viewBox="0,0,84.3343,127.26972"><defs><radialGradient cx="240" cy="180" r="0" gradientUnits="userSpaceOnUse" id="color-1"><stop offset="0" stop-color="#f07070"/><stop offset="1" stop-color="#cf5555"/></radialGradient><radialGradient cx="240" cy="180" r="0" gradientUnits="userSpaceOnUse" id="color-2"><stop offset="0" stop-color="#ff9d9d"/><stop offset="1" stop-color="#ff9d9d" stop-opacity="0"/></radialGradient><radialGradient cx="240" cy="180" r="0" gradientUnits="userSpaceOnUse" id="color-3"><stop offset="0" stop-color="#ff9d9d"/><stop offset="1" stop-color="#ff9d9d" stop-opacity="0"/></radialGradient><radialGradient cx="240" cy="180" r="0" gradientUnits="userSpaceOnUse" id="color-4"><stop offset="0" stop-color="#f7f7f7"/><stop offset="1" stop-color="#cecece"/></radialGradient><radialGradient cx="240" cy="180" r="0" gradientUnits="userSpaceOnUse" id="color-5"><stop offset="0" stop-color="#f7f7f7"/><stop offset="1" stop-color="#f7f7f7" stop-opacity="0"/></radialGradient><radialGradient cx="240" cy="180" r="0" gradientUnits="userSpaceOnUse" id="color-6"><stop offset="0" stop-color="#f07070"/><stop offset="1" stop-color="#cf5555"/></radialGradient><radialGradient cx="240" cy="180" r="0" gradientUnits="userSpaceOnUse" id="color-7"><stop offset="0" stop-color="#ff9d9d"/><stop offset="1" stop-color="#ff9d9d" stop-opacity="0"/></radialGradient><radialGradient cx="240" cy="180" r="0" gradientUnits="userSpaceOnUse" id="color-8"><stop offset="0" stop-color="#ff9d9d"/><stop offset="1" stop-color="#ff9d9d" stop-opacity="0"/></radialGradient><radialGradient cx="240" cy="180" r="0" gradientUnits="userSpaceOnUse" id="color-9"><stop offset="0" stop-color="#f07070"/><stop offset="1" stop-color="#cf5555"/></radialGradient><radialGradient cx="240" cy="180" r="0" gradientUnits="userSpaceOnUse" id="color-10"><stop offset="0" stop-color="#ff9d9d"/><stop offset="1" stop-color="#ff9d9d" stop-opacity="0"/></radialGradient><radialGradient cx="240" cy="180" r="0" gradientUnits="userSpaceOnUse" id="color-11"><stop offset="0" stop-color="#ff9d9d"/><stop offset="1" stop-color="#ff9d9d" stop-opacity="0"/></radialGradient><radialGradient cx="240" cy="180" r="0" gradientUnits="userSpaceOnUse" id="color-12"><stop offset="0" stop-color="#f7f7f7"/><stop offset="1" stop-color="#cecece"/></radialGradient><radialGradient cx="240" cy="180" r="0" gradientUnits="userSpaceOnUse" id="color-13"><stop offset="0" stop-color="#f7f7f7"/><stop offset="1" stop-color="#f7f7f7" stop-opacity="0"/></radialGradient><radialGradient cx="240" cy="180" r="0" gradientUnits="userSpaceOnUse" id="color-14"><stop offset="0" stop-color="#f7f7f7"/><stop offset="1" stop-color="#cecece"/></radialGradient><radialGradient cx="240" cy="180" r="0" gradientUnits="userSpaceOnUse" id="color-15"><stop offset="0" stop-color="#f7f7f7"/><stop offset="1" stop-color="#f7f7f7" stop-opacity="0"/></radialGradient><radialGradient cx="240" cy="180" r="0" gradientUnits="userSpaceOnUse" id="color-16"><stop offset="0" stop-color="#f7f7f7"/><stop offset="1" stop-color="#cecece"/></radialGradient><radialGradient cx="240" cy="180" r="0" gradientUnits="userSpaceOnUse" id="color-17"><stop offset="0" stop-color="#f7f7f7"/><stop offset="1" stop-color="#f7f7f7" stop-opacity="0"/></radialGradient><radialGradient cx="240" cy="180" r="0" gradientUnits="userSpaceOnUse" id="color-18"><stop offset="0" stop-color="#f07070"/><stop offset="1" stop-color="#cf5555"/></radialGradient><radialGradient cx="240" cy="180" r="0" gradientUnits="userSpaceOnUse" id="color-19"><stop offset="0" stop-color="#ff9d9d"/><stop offset="1" stop-color="#ff9d9d" stop-opacity="0"/></radialGradient><radialGradient cx="240" cy="180" r="0" gradientUnits="userSpaceOnUse" id="color-20"><stop offset="0" stop-color="#ff9d9d"/><stop offset="1" stop-color="#ff9d9d" stop-opacity="0"/></radialGradient><radialGradient cx="240" cy="180" r="0" gradientUnits="userSpaceOnUse" id="color-21"><stop offset="0" stop-color="#f7f7f7"/><stop offset="1" stop-color="#cecece"/></radialGradient><radialGradient cx="240" cy="180" r="0" gradientUnits="userSpaceOnUse" id="color-22"><stop offset="0" stop-color="#f7f7f7"/><stop offset="1" stop-color="#f7f7f7" stop-opacity="0"/></radialGradient><radialGradient cx="240" cy="180" r="0" gradientUnits="userSpaceOnUse" id="color-23"><stop offset="0" stop-color="#f07070"/><stop offset="1" stop-color="#cf5555"/></radialGradient><radialGradient cx="240" cy="180" r="0" gradientUnits="userSpaceOnUse" id="color-24"><stop offset="0" stop-color="#ff9d9d"/><stop offset="1" stop-color="#ff9d9d" stop-opacity="0"/></radialGradient><radialGradient cx="240" cy="180" r="0" gradientUnits="userSpaceOnUse" id="color-25"><stop offset="0" stop-color="#ff9d9d"/><stop offset="1" stop-color="#ff9d9d" stop-opacity="0"/></radialGradient><radialGradient cx="240" cy="180" r="0" gradientUnits="userSpaceOnUse" id="color-26"><stop offset="0" stop-color="#f07070"/><stop offset="1" stop-color="#cf5555"/></radialGradient><radialGradient cx="240" cy="180" r="0" gradientUnits="userSpaceOnUse" id="color-27"><stop offset="0" stop-color="#ff9d9d"/><stop offset="1" stop-color="#ff9d9d" stop-opacity="0"/></radialGradient><radialGradient cx="240" cy="180" r="0" gradientUnits="userSpaceOnUse" id="color-28"><stop offset="0" stop-color="#ff9d9d"/><stop offset="1" stop-color="#ff9d9d" stop-opacity="0"/></radialGradient><radialGradient cx="240" cy="180" r="0" gradientUnits="userSpaceOnUse" id="color-29"><stop offset="0" stop-color="#f7f7f7"/><stop offset="1" stop-color="#cecece"/></radialGradient><radialGradient cx="240" cy="180" r="0" gradientUnits="userSpaceOnUse" id="color-30"><stop offset="0" stop-color="#f7f7f7"/><stop offset="1" stop-color="#f7f7f7" stop-opacity="0"/></radialGradient><radialGradient cx="240" cy="180" r="0" gradientUnits="userSpaceOnUse" id="color-31"><stop offset="0" stop-color="#f7f7f7"/><stop offset="1" stop-color="#cecece"/></radialGradient><radialGradient cx="240" cy="180" r="0" gradientUnits="userSpaceOnUse" id="color-32"><stop offset="0" stop-color="#f7f7f7"/><stop offset="1" stop-color="#f7f7f7" stop-opacity="0"/></radialGradient><radialGradient cx="240" cy="180" r="0" gradientUnits="userSpaceOnUse" id="color-33"><stop offset="0" stop-color="#f7f7f7"/><stop offset="1" stop-color="#cecece"/></radialGradient><radialGradient cx="240" cy="180" r="0" gradientUnits="userSpaceOnUse" id="color-34"><stop offset="0" stop-color="#f7f7f7"/><stop offset="1" stop-color="#f7f7f7" stop-opacity="0"/></radialGradient><radialGradient cx="240" cy="180" r="0" gradientUnits="userSpaceOnUse" id="color-35"><stop offset="0" stop-color="#f07070"/><stop offset="1" stop-color="#cf5555"/></radialGradient><radialGradient cx="240" cy="180" r="0" gradientUnits="userSpaceOnUse" id="color-36"><stop offset="0" stop-color="#ff9d9d"/><stop offset="1" stop-color="#ff9d9d" stop-opacity="0"/></radialGradient><radialGradient cx="240" cy="180" r="0" gradientUnits="userSpaceOnUse" id="color-37"><stop offset="0" stop-color="#ff9d9d"/><stop offset="1" stop-color="#ff9d9d" stop-opacity="0"/></radialGradient><radialGradient cx="240" cy="180" r="0" gradientUnits="userSpaceOnUse" id="color-38"><stop offset="0" stop-color="#f07070"/><stop offset="1" stop-color="#cf5555"/></radialGradient><radialGradient cx="240" cy="180" r="0" gradientUnits="userSpaceOnUse" id="color-39"><stop offset="0" stop-color="#ff9d9d"/><stop offset="1" stop-color="#ff9d9d" stop-opacity="0"/></radialGradient><radialGradient cx="240" cy="180" r="0" gradientUnits="userSpaceOnUse" id="color-40"><stop offset="0" stop-color="#ff9d9d"/><stop offset="1" stop-color="#ff9d9d" stop-opacity="0"/></radialGradient><linearGradient x1="240" y1="180" x2="240" y2="180" gradientUnits="userSpaceOnUse" id="color-41"><stop offset="0" stop-color="#ff0000"/><stop offset="1" stop-color="#d50004"/></linearGradient><linearGradient x1="240" y1="180" x2="240" y2="180" gradientUnits="userSpaceOnUse" id="color-42"><stop offset="0" stop-color="#ff0000"/><stop offset="1" stop-color="#d50004"/></linearGradient><linearGradient x1="240" y1="180" x2="240" y2="180" gradientUnits="userSpaceOnUse" id="color-43"><stop offset="0" stop-color="#ff0000"/><stop offset="1" stop-color="#d50004"/></linearGradient><linearGradient x1="240" y1="180" x2="240" y2="180" gradientUnits="userSpaceOnUse" id="color-44"><stop offset="0" stop-color="#ff0000"/><stop offset="1" stop-color="#d50004"/></linearGradient><linearGradient x1="208.88511" y1="134.0256" x2="208.88511" y2="169.38711" gradientUnits="userSpaceOnUse" id="color-45"><stop offset="0" stop-color="#959595"/><stop offset="1" stop-color="#000000"/></linearGradient><linearGradient x1="208.767" y1="170.20313" x2="208.767" y2="205.56464" gradientUnits="userSpaceOnUse" id="color-46"><stop offset="0" stop-color="#959595"/><stop offset="1" stop-color="#000000"/></linearGradient><linearGradient x1="210.27737" y1="206.84596" x2="210.27737" y2="242.20745" gradientUnits="userSpaceOnUse" id="color-47"><stop offset="0" stop-color="#959595"/><stop offset="1" stop-color="#000000"/></linearGradient><linearGradient x1="271.11489" y1="132.27434" x2="271.11489" y2="167.63583" gradientUnits="userSpaceOnUse" id="color-48"><stop offset="0" stop-color="#959595"/><stop offset="1" stop-color="#000000"/></linearGradient><linearGradient x1="271.233" y1="168.45187" x2="271.233" y2="203.81336" gradientUnits="userSpaceOnUse" id="color-49"><stop offset="0" stop-color="#959595"/><stop offset="1" stop-color="#000000"/></linearGradient><linearGradient x1="269.72263" y1="205.09469" x2="269.72263" y2="240.45617" gradientUnits="userSpaceOnUse" id="color-50"><stop offset="0" stop-color="#959595"/><stop offset="1" stop-color="#000000"/></linearGradient><linearGradient x1="240.17206" y1="117.11515" x2="240.17206" y2="242.88488" gradientUnits="userSpaceOnUse" id="color-51"><stop offset="0" stop-color="#7b7b7b"/><stop offset="1" stop-color="#545454"/></linearGradient><radialGradient cx="240.03595" cy="143.63707" r="15.31801" gradientUnits="userSpaceOnUse" id="color-52"><stop offset="0" stop-color="#ff0000"/><stop offset="1" stop-color="#c40010"/></radialGradient><linearGradient x1="240.03595" y1="125.48008" x2="240.03595" y2="136.5659" gradientUnits="userSpaceOnUse" id="color-53"><stop offset="0" stop-color="#2f2f2f"/><stop offset="1" stop-color="#2f2f2f" stop-opacity="0"/></linearGradient><linearGradient x1="227.67193" y1="130.03931" x2="252.59128" y2="130.03931" gradientUnits="userSpaceOnUse" id="color-54"><stop offset="0" stop-color="#2f2f2f"/><stop offset="1" stop-color="#545454"/></linearGradient><radialGradient cx="240.47461" cy="181.17869" r="15.318" gradientUnits="userSpaceOnUse" id="color-55"><stop offset="0" stop-color="#ffc500"/><stop offset="1" stop-color="#ff9900"/></radialGradient><linearGradient x1="240.47461" y1="163.02168" x2="240.47461" y2="174.1075" gradientUnits="userSpaceOnUse" id="color-56"><stop offset="0" stop-color="#2f2f2f"/><stop offset="1" stop-color="#2f2f2f" stop-opacity="0"/></linearGradient><linearGradient x1="228.11059" y1="167.58092" x2="253.02994" y2="167.58092" gradientUnits="userSpaceOnUse" id="color-57"><stop offset="0" stop-color="#2f2f2f"/><stop offset="1" stop-color="#545454"/></linearGradient><radialGradient cx="240.44754" cy="219.18602" r="15.318" gradientUnits="userSpaceOnUse" id="color-58"><stop offset="0" stop-color="#29ff00"/><stop offset="1" stop-color="#00ac29"/></radialGradient><linearGradient x1="240.44754" y1="201.02901" x2="240.44754" y2="212.11483" gradientUnits="userSpaceOnUse" id="color-59"><stop offset="0" stop-color="#2f2f2f"/><stop offset="1" stop-color="#2f2f2f" stop-opacity="0"/></linearGradient><linearGradient x1="228.08352" y1="205.58826" x2="253.00287" y2="205.58826" gradientUnits="userSpaceOnUse" id="color-60"><stop offset="0" stop-color="#2f2f2f"/><stop offset="1" stop-color="#545454"/></linearGradient></defs><g transform="translate(-197.83285,-116.36514)"><g data-paper-data="{&quot;isPaintingLayer&quot;:true}" fill-rule="nonzero" stroke-linejoin="miter" stroke-miterlimit="10" stroke-dasharray="" stroke-dashoffset="0" style="mix-blend-mode: normal"><path d="" fill="#c70003" stroke="none" stroke-width="0" stroke-linecap="butt"/><path d="" fill="#f6f1e8" stroke="none" stroke-width="0" stroke-linecap="butt"/><path d="" fill="#f6f1e8" stroke="none" stroke-width="0" stroke-linecap="butt"/><g stroke-width="0" stroke-linecap="butt"><path d="" fill="url(#color-1)" stroke="#bfbfbf"/><path d="" fill="url(#color-2)" stroke="none"/><path d="" fill="#a3a3a3" stroke="none"/><path d="" fill="url(#color-3)" stroke="none"/><path d="" fill="#323232" stroke="none"/></g><g stroke-width="0" stroke-linecap="butt"><path d="" fill="url(#color-4)" stroke="#bfbfbf"/><path d="" fill="url(#color-5)" stroke="none"/><path d="" fill="#a3a3a3" stroke="none"/><path d="" fill="#323232" stroke="none"/></g><g stroke-width="0" stroke-linecap="butt"><path d="" fill="url(#color-6)" stroke="#bfbfbf"/><path d="" fill="url(#color-7)" stroke="none"/><path d="" fill="#a3a3a3" stroke="none"/><path d="" fill="url(#color-8)" stroke="none"/><path d="" fill="#323232" stroke="none"/></g><g stroke-width="0" stroke-linecap="butt"><path d="" fill="url(#color-9)" stroke="#bfbfbf"/><path d="" fill="url(#color-10)" stroke="none"/><path d="" fill="#a3a3a3" stroke="none"/><path d="" fill="url(#color-11)" stroke="none"/><path d="" fill="#323232" stroke="none"/></g><g stroke-width="0" stroke-linecap="butt"><path d="" fill="url(#color-12)" stroke="#bfbfbf"/><path d="" fill="url(#color-13)" stroke="none"/><path d="" fill="#a3a3a3" stroke="none"/><path d="" fill="#323232" stroke="none"/></g><g stroke-width="0" stroke-linecap="butt"><path d="" fill="url(#color-14)" stroke="#bfbfbf"/><path d="" fill="url(#color-15)" stroke="none"/><path d="" fill="#a3a3a3" stroke="none"/><path d="" fill="#323232" stroke="none"/></g><g stroke-width="0" stroke-linecap="butt"><path d="" fill="url(#color-16)" stroke="#bfbfbf"/><path d="" fill="url(#color-17)" stroke="none"/><path d="" fill="#a3a3a3" stroke="none"/><path d="" fill="#323232" stroke="none"/></g><g stroke-width="0" stroke-linecap="butt"><path d="" fill="url(#color-18)" stroke="#bfbfbf"/><path d="" fill="url(#color-19)" stroke="none"/><path d="" fill="#a3a3a3" stroke="none"/><path d="" fill="url(#color-20)" stroke="none"/><path d="" fill="#323232" stroke="none"/></g><g stroke-width="0" stroke-linecap="butt"><path d="" fill="url(#color-21)" stroke="#bfbfbf"/><path d="" fill="url(#color-22)" stroke="none"/><path d="" fill="#a3a3a3" stroke="none"/><path d="" fill="#323232" stroke="none"/></g><g stroke-width="0" stroke-linecap="butt"><path d="" fill="url(#color-23)" stroke="#bfbfbf"/><path d="" fill="url(#color-24)" stroke="none"/><path d="" fill="#a3a3a3" stroke="none"/><path d="" fill="url(#color-25)" stroke="none"/><path d="" fill="#323232" stroke="none"/></g><g stroke-width="0" stroke-linecap="butt"><path d="" fill="url(#color-26)" stroke="#bfbfbf"/><path d="" fill="url(#color-27)" stroke="none"/><path d="" fill="#a3a3a3" stroke="none"/><path d="" fill="url(#color-28)" stroke="none"/><path d="" fill="#323232" stroke="none"/></g><g stroke-width="0" stroke-linecap="butt"><path d="" fill="url(#color-29)" stroke="#bfbfbf"/><path d="" fill="url(#color-30)" stroke="none"/><path d="" fill="#a3a3a3" stroke="none"/><path d="" fill="#323232" stroke="none"/></g><g stroke-width="0" stroke-linecap="butt"><path d="" fill="url(#color-31)" stroke="#bfbfbf"/><path d="" fill="url(#color-32)" stroke="none"/><path d="" fill="#a3a3a3" stroke="none"/><path d="" fill="#323232" stroke="none"/></g><g stroke-width="0" stroke-linecap="butt"><path d="" fill="url(#color-33)" stroke="#bfbfbf"/><path d="" fill="url(#color-34)" stroke="none"/><path d="" fill="#a3a3a3" stroke="none"/><path d="" fill="#323232" stroke="none"/></g><g stroke-width="0" stroke-linecap="butt"><path d="" fill="url(#color-35)" stroke="#bfbfbf"/><path d="" fill="url(#color-36)" stroke="none"/><path d="" fill="#a3a3a3" stroke="none"/><path d="" fill="url(#color-37)" stroke="none"/><path d="" fill="#323232" stroke="none"/></g><g stroke-width="0" stroke-linecap="butt"><path d="" fill="url(#color-38)" stroke="#bfbfbf"/><path d="" fill="url(#color-39)" stroke="none"/><path d="" fill="#a3a3a3" stroke="none"/><path d="" fill="url(#color-40)" stroke="none"/><path d="" fill="#323232" stroke="none"/></g><path d="" fill="#c70003" stroke="none" stroke-width="0" stroke-linecap="butt"/><path d="" fill="#c70003" stroke="none" stroke-width="0" stroke-linecap="butt"/><path d="" fill="url(#color-41)" stroke="none" stroke-width="0" stroke-linecap="butt"/><path d="" fill="url(#color-42)" stroke="none" stroke-width="0" stroke-linecap="butt"/><path d="" fill="#c70003" stroke="none" stroke-width="0" stroke-linecap="butt"/><path d="" fill="#c0c0c0" stroke="none" stroke-width="0" stroke-linecap="butt"/><path d="" fill="#c0c0c0" stroke="none" stroke-width="0" stroke-linecap="butt"/><path d="" fill="#afafaf" stroke="none" stroke-width="0" stroke-linecap="butt"/><path d="" fill="#afafaf" stroke="none" stroke-width="0" stroke-linecap="butt"/><path d="" fill="#ff8c00" stroke="none" stroke-width="0" stroke-linecap="butt"/><path d="" fill="none" stroke="#c70003" stroke-width="1.5" stroke-linecap="round"/><path d="" fill="#ff8c00" stroke="none" stroke-width="0" stroke-linecap="butt"/><path d="" fill="none" stroke="#c70003" stroke-width="1.5" stroke-linecap="round"/><path d="" fill="#c70003" stroke="none" stroke-width="0" stroke-linecap="butt"/><path d="" fill="#c70003" stroke="none" stroke-width="0" stroke-linecap="butt"/><path d="" fill="#c70003" stroke="none" stroke-width="0" stroke-linecap="butt"/><path d="" fill="#323232" stroke="none" stroke-width="0" stroke-linecap="butt"/><path d="" fill="#c70003" stroke="none" stroke-width="0" stroke-linecap="butt"/><path d="" fill="#323232" stroke="none" stroke-width="0" stroke-linecap="butt"/><path d="" fill="#c70003" stroke="none" stroke-width="0" stroke-linecap="butt"/><path d="" fill="#c70003" stroke="none" stroke-width="0" stroke-linecap="butt"/><path d="" fill="#f6f1e8" stroke="none" stroke-width="0" stroke-linecap="butt"/><path d="" fill="#f6f1e8" stroke="none" stroke-width="0" stroke-linecap="butt"/><path d="" fill="#c70003" stroke="none" stroke-width="0" stroke-linecap="butt"/><path d="" fill="#c70003" stroke="none" stroke-width="0" stroke-linecap="butt"/><path d="" fill="url(#color-43)" stroke="none" stroke-width="0" stroke-linecap="butt"/><path d="" fill="url(#color-44)" stroke="none" stroke-width="0" stroke-linecap="butt"/><path d="" fill="#c70003" stroke="none" stroke-width="0" stroke-linecap="butt"/><path d="" fill="#c0c0c0" stroke="none" stroke-width="0" stroke-linecap="butt"/><path d="" fill="#c0c0c0" stroke="none" stroke-width="0" stroke-linecap="butt"/><path d="" fill="#afafaf" stroke="none" stroke-width="0" stroke-linecap="butt"/><path d="" fill="#afafaf" stroke="none" stroke-width="0" stroke-linecap="butt"/><path d="" fill="#ff8c00" stroke="none" stroke-width="0" stroke-linecap="butt"/><path d="" fill="none" stroke="#c70003" stroke-width="1.5" stroke-linecap="round"/><path d="" fill="none" stroke="#c70003" stroke-width="1.5" stroke-linecap="round"/><path d="" fill="none" stroke="#c70003" stroke-width="1.5" stroke-linecap="round"/><path d="" fill="none" stroke="#c70003" stroke-width="1.5" stroke-linecap="round"/><path d="" fill="none" stroke="#c70003" stroke-width="1.5" stroke-linecap="round"/><path d="" fill="none" stroke="#c70003" stroke-width="1.5" stroke-linecap="round"/><path d="" fill="#ff8c00" stroke="none" stroke-width="0" stroke-linecap="butt"/><path d="" fill="none" stroke="#c70003" stroke-width="1.5" stroke-linecap="round"/><path d="" fill="none" stroke="#c70003" stroke-width="1.5" stroke-linecap="round"/><path d="" fill="none" stroke="#c70003" stroke-width="1.5" stroke-linecap="round"/><path d="" fill="none" stroke="#c70003" stroke-width="1.5" stroke-linecap="round"/><path d="" fill="none" stroke="#c70003" stroke-width="1.5" stroke-linecap="round"/><path d="" fill="none" stroke="#c70003" stroke-width="1.5" stroke-linecap="round"/><path d="" fill="#c70003" stroke="none" stroke-width="0" stroke-linecap="butt"/><path d="" fill="#c70003" stroke="none" stroke-width="0" stroke-linecap="butt"/><path d="" fill="#c70003" stroke="none" stroke-width="0" stroke-linecap="butt"/><path d="" fill="#c70003" stroke="none" stroke-width="0" stroke-linecap="butt"/><path d="" fill="#c70003" stroke="none" stroke-width="0" stroke-linecap="butt"/><path d="" fill="#323232" stroke="none" stroke-width="0" stroke-linecap="butt"/><path d="" fill="#c70003" stroke="none" stroke-width="0" stroke-linecap="butt"/><path d="" fill="#323232" stroke="none" stroke-width="0" stroke-linecap="butt"/><path d="" fill="#c70003" stroke="none" stroke-width="0" stroke-linecap="butt"/><path d="M209.23817,148.9776c-1.65429,-1.93 -3.78851,-2.9347 -5.96925,-3.45678c-2.168,-0.51904 -4.52512,-2.59243 -4.62503,-5.46197c-0.08777,-2.52078 -0.69293,-13.94306 -0.69293,-13.94306l21.86829,4.42019l-0.23264,32.5698c0,0 -6.70281,-9.87494 -10.34844,-14.12817z" data-paper-data="{&quot;index&quot;:null}" fill="url(#color-45)" stroke="none" stroke-width="0" stroke-linecap="butt"/><path d="M209.12006,185.15514c-1.65429,-1.93 -3.78851,-2.9347 -5.96925,-3.45678c-2.168,-0.51904 -4.52512,-2.59242 -4.62503,-5.46197c-0.08777,-2.52078 -0.69293,-13.94306 -0.69293,-13.94306l21.86829,4.42019l-0.23264,32.5698c0,0 -6.70281,-9.87494 -10.34844,-14.12817z" data-paper-data="{&quot;index&quot;:null}" fill="url(#color-46)" stroke="none" stroke-width="0" stroke-linecap="butt"/><path d="M210.63044,221.79796c-1.65428,-1.93 -3.78851,-2.9347 -5.96925,-3.45678c-2.168,-0.51904 -4.52512,-2.59243 -4.62503,-5.46197c-0.08777,-2.52078 -0.69293,-13.94305 -0.69293,-13.94305l21.86829,4.42019l-0.23265,32.5698c0,0 -6.7028,-9.87494 -10.34843,-14.12817z" data-paper-data="{&quot;index&quot;:null}" fill="url(#color-47)" stroke="none" stroke-width="0" stroke-linecap="butt"/><path d="M260.41339,161.35452l-0.23264,-32.56979l21.86829,-4.42019c0,0 -0.60516,11.42227 -0.69293,13.94305c-0.09991,2.86954 -2.45703,4.94294 -4.62503,5.46197c-2.18074,0.52209 -4.31496,1.52678 -5.96925,3.45678c-3.64563,4.25323 -10.34844,14.12817 -10.34844,14.12817z" fill="url(#color-48)" stroke="none" stroke-width="0" stroke-linecap="butt"/><path d="M260.5315,197.53205l-0.23264,-32.56979l21.86829,-4.42019c0,0 -0.60516,11.42227 -0.69293,13.94306c-0.09991,2.86954 -2.45703,4.94294 -4.62503,5.46197c-2.18074,0.52209 -4.31497,1.52678 -5.96925,3.45678c-3.64563,4.25323 -10.34844,14.12817 -10.34844,14.12817z" fill="url(#color-49)" stroke="none" stroke-width="0" stroke-linecap="butt"/><path d="M259.02112,234.17485l-0.23264,-32.5698l21.86829,-4.42019c0,0 -0.60516,11.42227 -0.69293,13.94305c-0.09991,2.86954 -2.45703,4.94294 -4.62503,5.46197c-2.18074,0.52209 -4.31497,1.52678 -5.96925,3.45678c-3.64563,4.25323 -10.34843,14.12817 -10.34843,14.12817z" fill="url(#color-50)" stroke="none" stroke-width="0" stroke-linecap="butt"/><path d="M213.38424,230.23357c0,-26.3038 0,-85.66653 0,-100.31181c0,-6.38716 6.07029,-12.80662 10.896,-12.80662c5.86876,0 20.64028,0 31.15745,0c6.59839,0 11.52218,7.07541 11.52218,13.94652c0,14.98064 0,73.18601 0,99.1719c0,7.76358 -7.49427,12.6513 -13.04206,12.6513c-5.97985,0 -19.79996,0 -29.63758,0c-6.25231,0 -10.896,-4.88451 -10.896,-12.6513z" fill="url(#color-51)" stroke="#a2a2a2" stroke-width="1.5" stroke-linecap="butt"/><g stroke-width="0" stroke-linecap="butt"><path d="M223.92616,142.22553c0,-8.96174 7.17534,-16.22666 16.02657,-16.22666c8.85123,0 16.02657,7.26493 16.02657,16.22666c0,8.96174 -7.17534,16.22667 -16.02657,16.22667c-8.85123,0 -16.02657,-7.26493 -16.02657,-16.22667z" fill="#3b3b3b" stroke="none"/><path d="M224.71795,142.29857c0,-4.13092 1.5951,-7.88463 4.19572,-10.66417c2.7918,-2.98388 19.67541,-2.87735 22.47814,0.25528c2.46222,2.75204 3.96215,6.40311 3.96215,10.40888c0,8.56553 -6.85811,15.50926 -15.31801,15.50926c-8.4599,0 -15.31801,-6.94374 -15.31801,-15.50926z" fill="url(#color-52)" stroke="#959595"/><path d="M226.41176,136.5659c0,0 0,-1.43046 0,-2.51951c0,-0.97636 6.81466,-5.03779 13.43377,-5.0968c6.99471,-0.06235 13.81461,3.93318 13.81461,4.97082c0,1.13065 0,2.64548 0,2.64548z" fill="url(#color-53)" stroke="none"/><path d="M227.67193,133.31989c0,0 0.29434,-0.64467 0.98982,-1.52987c1.53311,-1.95131 5.01548,-5.07138 11.59105,-5.0309c8.16486,0.05026 12.33848,6.56077 12.33848,6.56077c0,0 -5.8405,-3.94907 -12.21989,-3.87968c-7.03715,0.07654 -12.69947,3.87968 -12.69947,3.87968z" fill="url(#color-54)" stroke="none"/><path d="M224.36482,179.76715c0,-8.96174 7.17534,-16.22666 16.02657,-16.22666c8.85123,0 16.02657,7.26493 16.02657,16.22666c0,8.96174 -7.17535,16.22667 -16.02657,16.22667c-8.85122,0 -16.02657,-7.26493 -16.02657,-16.22667z" fill="#3b3b3b" stroke="none"/><path d="M225.15661,179.84017c0,-4.13092 1.5951,-7.88463 4.19571,-10.66417c2.7918,-2.98388 19.67541,-2.87735 22.47815,0.25528c2.46222,2.75204 3.96214,6.40311 3.96214,10.40888c0,8.56553 -6.8581,15.50925 -15.318,15.50925c-8.4599,0 -15.318,-6.94373 -15.318,-15.50925z" fill="url(#color-55)" stroke="#959595"/><path d="M226.85042,174.1075c0,0 0,-1.43046 0,-2.51951c0,-0.97636 6.81466,-5.03779 13.43376,-5.0968c6.99471,-0.06235 13.81461,3.93318 13.81461,4.97082c0,1.13065 0,2.64548 0,2.64548z" fill="url(#color-56)" stroke="none"/><path d="M228.11059,170.86151c0,0 0.29434,-0.64468 0.98982,-1.52988c1.53311,-1.95131 5.01548,-5.07137 11.59105,-5.03089c8.16486,0.05026 12.33848,6.56077 12.33848,6.56077c0,0 -5.8405,-3.94907 -12.21989,-3.87968c-7.03715,0.07654 -12.69946,3.87968 -12.69946,3.87968z" fill="url(#color-57)" stroke="none"/><path d="M224.33775,217.77448c0,-8.96174 7.17534,-16.22667 16.02656,-16.22667c8.85123,0 16.02658,7.26493 16.02658,16.22667c0,8.96174 -7.17535,16.22666 -16.02658,16.22666c-8.85122,0 -16.02656,-7.26493 -16.02656,-16.22666z" fill="#3b3b3b" stroke="none"/><path d="M225.12953,217.84749c0,-4.13092 1.59511,-7.88463 4.19572,-10.66417c2.7918,-2.98388 19.67541,-2.87735 22.47815,0.25528c2.46222,2.75204 3.96214,6.40311 3.96214,10.40888c0,8.56553 -6.8581,15.50926 -15.318,15.50926c-8.4599,0 -15.31801,-6.94374 -15.31801,-15.50926z" fill="url(#color-58)" stroke="#959595"/><path d="M226.82335,212.11483c0,0 0,-1.43046 0,-2.51951c0,-0.97636 6.81466,-5.03779 13.43376,-5.0968c6.99471,-0.06235 13.81461,3.93318 13.81461,4.97082c0,1.13065 0,2.64548 0,2.64548z" fill="url(#color-59)" stroke="none"/><path d="M228.08352,208.86884c0,0 0.29434,-0.64468 0.98982,-1.52988c1.53311,-1.95131 5.01548,-5.07138 11.59105,-5.0309c8.16486,0.05026 12.33848,6.56078 12.33848,6.56078c0,0 -5.8405,-3.94908 -12.21989,-3.87969c-7.03715,0.07654 -12.69946,3.87969 -12.69946,3.87969z" fill="url(#color-60)" stroke="none"/></g></g></g></svg>