<svg version="1.1" xmlns="http://www.w3.org/2000/svg" xmlns:xlink="http://www.w3.org/1999/xlink" width="491.83499" height="365.25863" viewBox="0,0,491.83499,365.25863"><g transform="translate(6.48959,2.05521)"><g data-paper-data="{&quot;isPaintingLayer&quot;:true}" fill-rule="nonzero" stroke-linejoin="miter" stroke-miterlimit="10" stroke-dasharray="" stroke-dashoffset="0" style="mix-blend-mode: normal"><path d="M-6.48959,363.20342v-365.25863h490.39507v365.25863z" fill-opacity="0.57255" fill="#33404f" stroke="none" stroke-width="0" stroke-linecap="butt"/><path d="" fill="none" stroke="#ffffff" stroke-width="3.5" stroke-linecap="round"/><path d="M483.77735,74.82376h-488.46417v-76.59108h488.46418z" fill-opacity="0.68627" fill="#dcdcdc" stroke="none" stroke-width="0" stroke-linecap="butt"/><text transform="translate(174.92865,43.11718) scale(0.79983,0.79983)" font-size="40" xml:space="preserve" fill="#ffffff" fill-rule="nonzero" stroke="#ffffff" stroke-width="2" stroke-linecap="butt" stroke-linejoin="miter" stroke-miterlimit="10" stroke-dasharray="" stroke-dashoffset="0" font-family="Sans Serif" font-weight="normal" text-anchor="start" style="mix-blend-mode: normal"><tspan x="0" dy="0">精选赛道</tspan></text><text transform="translate(170.11804,56.57127) scale(0.27863,0.27863)" font-size="40" xml:space="preserve" fill="#ffffff" fill-rule="nonzero" stroke="#ffffff" stroke-width="2" stroke-linecap="butt" stroke-linejoin="miter" stroke-miterlimit="10" stroke-dasharray="" stroke-dashoffset="0" font-family="Sans Serif" font-weight="normal" text-anchor="start" style="mix-blend-mode: normal"><tspan x="0" dy="0">由社区制作，或指定创作者</tspan></text><text transform="translate(71.67892,90.19655) scale(0.22216,0.22216)" font-size="40" xml:space="preserve" fill="#c5d1d9" fill-rule="nonzero" stroke="#c5d1d9" stroke-width="3" stroke-linecap="butt" stroke-linejoin="miter" stroke-miterlimit="10" stroke-dasharray="" stroke-dashoffset="0" font-family="Sans Serif" font-weight="normal" text-anchor="start" style="mix-blend-mode: normal"><tspan x="0" dy="0">将您的赛道代码粘贴到论坛讨论中（描述中的链接），以便有机会在此处显示您的赛道</tspan></text><path d="M424.99795,17.8558c3.71112,0.11755 14.19893,0.44976 14.19893,0.44976c0,0 3.28199,-10.67512 4.37493,-14.2301c0.65502,-2.13053 2.55517,-2.04149 3.24948,0.12489c1.13579,3.54383 4.49057,14.01144 4.49057,14.01144c0,0 10.17671,-0.25457 13.86369,-0.38064c2.25608,-0.07713 3.35981,2.08082 1.53776,3.44108c-3.01087,2.24775 -11.74433,8.47309 -11.74433,8.47309c0,0 3.13417,9.48396 4.30596,13.02975c0.80821,2.44568 -1.02999,3.94212 -3.0552,2.45752c-2.978,-2.18306 -11.03551,-8.08971 -11.03551,-8.08971c0,0 -7.70882,5.92905 -10.57379,8.13253c-1.96168,1.50878 -3.99247,0.5968 -3.32402,-1.63135c1.06295,-3.54312 4.12979,-13.76578 4.12979,-13.76578c0,0 -8.56964,-6.41008 -11.58224,-8.6635c-1.92742,-1.44168 -1.22919,-3.43483 1.16399,-3.35903z" fill="#ffe25f" stroke="#ffffff" stroke-width="0" stroke-linecap="butt"/><path d="M391.25134,14.91927c1.98998,0.06303 7.61377,0.24117 7.61377,0.24117c0,0 1.75987,-5.72423 2.34593,-7.63049c0.35124,-1.14244 1.37013,-1.09469 1.74244,0.06697c0.60904,1.90028 2.40794,7.51323 2.40794,7.51323c0,0 5.45697,-0.13651 7.43401,-0.20411c1.20976,-0.04136 1.8016,1.11578 0.82458,1.84518c-1.6145,1.20529 -6.29756,4.54345 -6.29756,4.54345c0,0 1.68061,5.08551 2.30895,6.98683c0.43338,1.31143 -0.55231,2.11385 -1.63826,1.31778c-1.59687,-1.1706 -5.91748,-4.33788 -5.91748,-4.33788c0,0 -4.13364,3.17928 -5.66989,4.36084c-1.0519,0.80904 -2.14085,0.32002 -1.78241,-0.87477c0.56998,-1.8999 2.21449,-7.38151 2.21449,-7.38151c0,0 -4.59523,-3.43722 -6.21065,-4.64556c-1.03352,-0.77306 -0.65912,-1.84183 0.62416,-1.80118z" fill="#ffe25f" stroke="#ffffff" stroke-width="0" stroke-linecap="butt"/><path d="M429.50665,55.26124c1.98998,0.06303 7.61377,0.24117 7.61377,0.24117c0,0 1.75988,-5.72423 2.34593,-7.63049c0.35123,-1.14243 1.37014,-1.09469 1.74244,0.06697c0.60904,1.90028 2.40794,7.51323 2.40794,7.51323c0,0 5.45697,-0.1365 7.43401,-0.2041c1.20976,-0.04136 1.8016,1.11578 0.82458,1.84518c-1.61449,1.20529 -6.29756,4.54346 -6.29756,4.54346c0,0 1.68061,5.08551 2.30895,6.98683c0.43338,1.31143 -0.5523,2.11385 -1.63826,1.31778c-1.59687,-1.17061 -5.91747,-4.33788 -5.91747,-4.33788c0,0 -4.13364,3.17928 -5.66989,4.36084c-1.0519,0.80904 -2.14085,0.32002 -1.78241,-0.87477c0.56998,-1.8999 2.21449,-7.38151 2.21449,-7.38151c0,0 -4.59523,-3.43722 -6.21064,-4.64556c-1.03352,-0.77307 -0.65912,-1.84183 0.62415,-1.80118z" fill="#ffe25f" stroke="#ffffff" stroke-width="0" stroke-linecap="butt"/><path d="M467.86551,45.30502c2.31343,0.07327 8.85132,0.28037 8.85132,0.28037c0,0 2.04593,-6.65465 2.72724,-8.87076c0.40832,-1.32812 1.59284,-1.27262 2.02566,0.07786c0.70803,2.20915 2.79933,8.73444 2.79933,8.73444c0,0 1.90689,16.73468 0.64441,15.80921c-1.85643,-1.36088 -4.46422,-4.00794 -4.46422,-4.00794c0,0 -4.80553,3.69604 -6.59148,5.06966c-1.22288,0.94054 -2.48883,0.37204 -2.07213,-1.01696c0.66263,-2.20871 2.57444,-8.58131 2.57444,-8.58131c0,0 -5.34215,-3.99591 -7.22013,-5.40066c-1.20151,-0.89873 -0.76625,-2.1412 0.7256,-2.09395z" fill="#ffe25f" stroke="#ffffff" stroke-width="0" stroke-linecap="butt"/></g></g></svg>