<svg version="1.1" xmlns="http://www.w3.org/2000/svg" xmlns:xlink="http://www.w3.org/1999/xlink" width="206.74324" height="221.19304" viewBox="0,0,206.74324,221.19304"><g transform="translate(-136.90626,-67.6695)"><g data-paper-data="{&quot;isPaintingLayer&quot;:true}" fill="none" fill-rule="nonzero" stroke-linecap="butt" stroke-linejoin="miter" stroke-miterlimit="10" stroke-dasharray="" stroke-dashoffset="0" style="mix-blend-mode: normal"><path d="M228.61936,208.3421c2.09327,0.06631 8.00896,0.25369 8.00896,0.25369c0,0 1.85121,-6.02135 2.46769,-8.02655c0.36946,-1.20174 1.44125,-1.15149 1.83289,0.07044c0.64065,1.9989 2.53294,7.90322 2.53294,7.90322c0,0 5.74022,-0.14358 7.81987,-0.21469c1.27256,-0.04351 1.89511,1.1737 0.86737,1.94095c-1.6983,1.26785 -6.62444,4.77928 -6.62444,4.77928c0,0 1.76784,5.34948 2.42878,7.34949c0.45589,1.3795 -0.58097,2.22358 -1.7233,1.38617c-1.67975,-1.23136 -6.22463,-4.56303 -6.22463,-4.56303c0,0 -4.34819,3.34429 -5.96419,4.58719c-1.10649,0.85103 -2.25198,0.33663 -1.87492,-0.92017c0.59956,-1.99851 2.32943,-7.76464 2.32943,-7.76464c0,0 -4.83373,-3.61563 -6.53302,-4.88669c-1.08716,-0.81319 -0.69333,-1.93743 0.65656,-1.89467z" stroke="#717171" stroke-width="2"/><path d="M136.90626,288.86254v-221.19303h206.74324v221.19304z" stroke="none" stroke-width="0"/></g></g></svg>