<svg version="1.1" xmlns="http://www.w3.org/2000/svg" xmlns:xlink="http://www.w3.org/1999/xlink" width="472.87786" height="360.53869" viewBox="0,0,472.87786,360.53869"><defs><radialGradient cx="240.6507" cy="179.99999" r="122.45324" gradientUnits="userSpaceOnUse" id="color-1"><stop offset="0" stop-color="#a21212"/><stop offset="1" stop-color="#7a1014"/></radialGradient><radialGradient cx="240.6507" cy="179.99999" r="122.45324" gradientUnits="userSpaceOnUse" id="color-2"><stop offset="0" stop-color="#a21212"/><stop offset="1" stop-color="#7a1014"/></radialGradient><linearGradient x1="146.45022" y1="140.90944" x2="146.45022" y2="219.09057" gradientUnits="userSpaceOnUse" id="color-3"><stop offset="0" stop-color="#7d0f12"/><stop offset="1" stop-color="#8b0d10"/></linearGradient><linearGradient x1="146.45022" y1="140.90944" x2="146.45022" y2="219.09057" gradientUnits="userSpaceOnUse" id="color-4"><stop offset="0" stop-color="#7d0f12"/><stop offset="1" stop-color="#8b0d10"/></linearGradient><linearGradient x1="239.80421" y1="130.08937" x2="239.80421" y2="143.47533" gradientUnits="userSpaceOnUse" id="color-5"><stop offset="0" stop-color="#4b0e13"/><stop offset="1" stop-color="#590d10"/></linearGradient><linearGradient x1="239.80421" y1="130.08937" x2="239.80421" y2="143.47533" gradientUnits="userSpaceOnUse" id="color-6"><stop offset="0" stop-color="#4b0e13"/><stop offset="1" stop-color="#590d10"/></linearGradient><linearGradient x1="239.80421" y1="216.52468" x2="239.80421" y2="229.91065" gradientUnits="userSpaceOnUse" id="color-7"><stop offset="0" stop-color="#9b1111"/><stop offset="1" stop-color="#a21011"/></linearGradient><linearGradient x1="239.80421" y1="216.52468" x2="239.80421" y2="229.91065" gradientUnits="userSpaceOnUse" id="color-8"><stop offset="0" stop-color="#9b1111"/><stop offset="1" stop-color="#a21011"/></linearGradient><linearGradient x1="327.59026" y1="141.37482" x2="327.59026" y2="160.77363" gradientUnits="userSpaceOnUse" id="color-9"><stop offset="0" stop-color="#520b11"/><stop offset="1" stop-color="#520b11" stop-opacity="0"/></linearGradient><linearGradient x1="327.59026" y1="141.37482" x2="327.59026" y2="160.77363" gradientUnits="userSpaceOnUse" id="color-10"><stop offset="0" stop-color="#520b11"/><stop offset="1" stop-color="#520b11" stop-opacity="0"/></linearGradient><linearGradient x1="327.59026" y1="199.22639" x2="327.59026" y2="218.62517" gradientUnits="userSpaceOnUse" id="color-11"><stop offset="0" stop-color="#7f0e10" stop-opacity="0"/><stop offset="1" stop-color="#7f0e10"/></linearGradient><linearGradient x1="327.59026" y1="199.22639" x2="327.59026" y2="218.62517" gradientUnits="userSpaceOnUse" id="color-12"><stop offset="0" stop-color="#7f0e10" stop-opacity="0"/><stop offset="1" stop-color="#7f0e10"/></linearGradient><linearGradient x1="348.89787" y1="138.10319" x2="348.89787" y2="156.72989" gradientUnits="userSpaceOnUse" id="color-13"><stop offset="0" stop-color="#040000"/><stop offset="1" stop-color="#2d292a"/></linearGradient><linearGradient x1="348.89787" y1="138.10319" x2="348.89787" y2="156.72989" gradientUnits="userSpaceOnUse" id="color-14"><stop offset="0" stop-color="#040000"/><stop offset="1" stop-color="#2d292a"/></linearGradient><linearGradient x1="348.89787" y1="203.27012" x2="348.89787" y2="221.89682" gradientUnits="userSpaceOnUse" id="color-15"><stop offset="0" stop-color="#372928"/><stop offset="1" stop-color="#010002"/></linearGradient><linearGradient x1="348.89787" y1="203.27012" x2="348.89787" y2="221.89682" gradientUnits="userSpaceOnUse" id="color-16"><stop offset="0" stop-color="#372928"/><stop offset="1" stop-color="#010002"/></linearGradient><linearGradient x1="222.98625" y1="136.39921" x2="222.98625" y2="144.6537" gradientUnits="userSpaceOnUse" id="color-17"><stop offset="0" stop-color="#415053"/><stop offset="1" stop-color="#75797a"/></linearGradient><linearGradient x1="222.98625" y1="136.39921" x2="222.98625" y2="144.6537" gradientUnits="userSpaceOnUse" id="color-18"><stop offset="0" stop-color="#415053"/><stop offset="1" stop-color="#75797a"/></linearGradient><linearGradient x1="231.02161" y1="137.34757" x2="231.02161" y2="143.69787" gradientUnits="userSpaceOnUse" id="color-19"><stop offset="0" stop-color="#212d39"/><stop offset="1" stop-color="#000000"/></linearGradient><linearGradient x1="231.02161" y1="137.34757" x2="231.02161" y2="143.69787" gradientUnits="userSpaceOnUse" id="color-20"><stop offset="0" stop-color="#212d39"/><stop offset="1" stop-color="#000000"/></linearGradient><linearGradient x1="227.90934" y1="137.44722" x2="227.90934" y2="143.49765" gradientUnits="userSpaceOnUse" id="color-21"><stop offset="0" stop-color="#1e1e20"/><stop offset="1" stop-color="#010101"/></linearGradient><linearGradient x1="227.90934" y1="137.44722" x2="227.90934" y2="143.49765" gradientUnits="userSpaceOnUse" id="color-22"><stop offset="0" stop-color="#1e1e20"/><stop offset="1" stop-color="#010101"/></linearGradient><linearGradient x1="166.342" y1="141.74447" x2="189.33797" y2="141.74447" gradientUnits="userSpaceOnUse" id="color-23"><stop offset="0" stop-color="#51514f"/><stop offset="1" stop-color="#070709"/></linearGradient><linearGradient x1="166.342" y1="141.74447" x2="189.33797" y2="141.74447" gradientUnits="userSpaceOnUse" id="color-24"><stop offset="0" stop-color="#51514f"/><stop offset="1" stop-color="#070709"/></linearGradient><linearGradient x1="222.98625" y1="215.3463" x2="222.98625" y2="223.60079" gradientUnits="userSpaceOnUse" id="color-25"><stop offset="0" stop-color="#828685"/><stop offset="1" stop-color="#475151"/></linearGradient><linearGradient x1="222.98625" y1="215.3463" x2="222.98625" y2="223.60079" gradientUnits="userSpaceOnUse" id="color-26"><stop offset="0" stop-color="#828685"/><stop offset="1" stop-color="#475151"/></linearGradient><linearGradient x1="231.02161" y1="216.30213" x2="231.02161" y2="222.65245" gradientUnits="userSpaceOnUse" id="color-27"><stop offset="0" stop-color="#020605"/><stop offset="1" stop-color="#2a323d"/></linearGradient><linearGradient x1="231.02161" y1="216.30213" x2="231.02161" y2="222.65245" gradientUnits="userSpaceOnUse" id="color-28"><stop offset="0" stop-color="#020605"/><stop offset="1" stop-color="#2a323d"/></linearGradient><linearGradient x1="227.90934" y1="216.50238" x2="227.90934" y2="222.55279" gradientUnits="userSpaceOnUse" id="color-29"><stop offset="0" stop-color="#010101"/><stop offset="1" stop-color="#222423"/></linearGradient><linearGradient x1="227.90934" y1="216.50238" x2="227.90934" y2="222.55279" gradientUnits="userSpaceOnUse" id="color-30"><stop offset="0" stop-color="#010101"/><stop offset="1" stop-color="#222423"/></linearGradient><linearGradient x1="166.342" y1="218.25553" x2="189.33797" y2="218.25553" gradientUnits="userSpaceOnUse" id="color-31"><stop offset="0" stop-color="#424244"/><stop offset="1" stop-color="#070705"/></linearGradient><linearGradient x1="166.342" y1="218.25553" x2="189.33797" y2="218.25553" gradientUnits="userSpaceOnUse" id="color-32"><stop offset="0" stop-color="#424244"/><stop offset="1" stop-color="#070705"/></linearGradient><linearGradient x1="279.06347" y1="133.27507" x2="279.06347" y2="139.39204" gradientUnits="userSpaceOnUse" id="color-33"><stop offset="0" stop-color="#98999b"/><stop offset="1" stop-color="#201a1a"/></linearGradient><linearGradient x1="279.06347" y1="133.27507" x2="279.06347" y2="139.39204" gradientUnits="userSpaceOnUse" id="color-34"><stop offset="0" stop-color="#98999b"/><stop offset="1" stop-color="#201a1a"/></linearGradient><linearGradient x1="266.41563" y1="128.56307" x2="279.38904" y2="128.56307" gradientUnits="userSpaceOnUse" id="color-35"><stop offset="0" stop-color="#a01916"/><stop offset="1" stop-color="#5a0d13"/></linearGradient><linearGradient x1="266.41563" y1="128.56307" x2="279.38904" y2="128.56307" gradientUnits="userSpaceOnUse" id="color-36"><stop offset="0" stop-color="#a01916"/><stop offset="1" stop-color="#5a0d13"/></linearGradient><linearGradient x1="279.06347" y1="220.60797" x2="279.06347" y2="226.72495" gradientUnits="userSpaceOnUse" id="color-37"><stop offset="0" stop-color="#11191c"/><stop offset="1" stop-color="#a19b9b"/></linearGradient><linearGradient x1="279.06347" y1="220.60797" x2="279.06347" y2="226.72495" gradientUnits="userSpaceOnUse" id="color-38"><stop offset="0" stop-color="#11191c"/><stop offset="1" stop-color="#a19b9b"/></linearGradient><linearGradient x1="266.41563" y1="231.43693" x2="279.38904" y2="231.43693" gradientUnits="userSpaceOnUse" id="color-39"><stop offset="0" stop-color="#a51411"/><stop offset="1" stop-color="#560f13"/></linearGradient><linearGradient x1="266.41563" y1="231.43693" x2="279.38904" y2="231.43693" gradientUnits="userSpaceOnUse" id="color-40"><stop offset="0" stop-color="#a51411"/><stop offset="1" stop-color="#560f13"/></linearGradient><linearGradient x1="116.89056" y1="179.99999" x2="134.00904" y2="179.99999" gradientUnits="userSpaceOnUse" id="color-41"><stop offset="0" stop-color="#3f3f41"/><stop offset="1" stop-color="#1d2123"/></linearGradient><linearGradient x1="116.89056" y1="179.99999" x2="134.00904" y2="179.99999" gradientUnits="userSpaceOnUse" id="color-42"><stop offset="0" stop-color="#3f3f41"/><stop offset="1" stop-color="#1d2123"/></linearGradient><linearGradient x1="152.14943" y1="149.44868" x2="152.14943" y2="210.55131" gradientUnits="userSpaceOnUse" id="color-43"><stop offset="0" stop-color="#060606"/><stop offset="1" stop-color="#2d3535"/></linearGradient><linearGradient x1="152.14943" y1="149.44868" x2="152.14943" y2="210.55131" gradientUnits="userSpaceOnUse" id="color-44"><stop offset="0" stop-color="#060606"/><stop offset="1" stop-color="#2d3535"/></linearGradient><linearGradient x1="148.33935" y1="151.76526" x2="148.33935" y2="208.23475" gradientUnits="userSpaceOnUse" id="color-45"><stop offset="0" stop-color="#0b0e13"/><stop offset="1" stop-color="#293744"/></linearGradient><linearGradient x1="148.33935" y1="151.76526" x2="148.33935" y2="208.23475" gradientUnits="userSpaceOnUse" id="color-46"><stop offset="0" stop-color="#0b0e13"/><stop offset="1" stop-color="#293744"/></linearGradient><linearGradient x1="217.89407" y1="144.23205" x2="217.89407" y2="215.76794" gradientUnits="userSpaceOnUse" id="color-47"><stop offset="0" stop-color="#010101"/><stop offset="1" stop-color="#212526"/></linearGradient><linearGradient x1="217.89407" y1="144.23205" x2="217.89407" y2="215.76794" gradientUnits="userSpaceOnUse" id="color-48"><stop offset="0" stop-color="#010101"/><stop offset="1" stop-color="#212526"/></linearGradient><linearGradient x1="213.39522" y1="151.60922" x2="213.39522" y2="208.39079" gradientUnits="userSpaceOnUse" id="color-49"><stop offset="0" stop-color="#010101"/><stop offset="1" stop-color="#313131"/></linearGradient><linearGradient x1="213.39522" y1="151.60922" x2="213.39522" y2="208.39079" gradientUnits="userSpaceOnUse" id="color-50"><stop offset="0" stop-color="#010101"/><stop offset="1" stop-color="#313131"/></linearGradient><linearGradient x1="193.84966" y1="154.24012" x2="193.84966" y2="205.75991" gradientUnits="userSpaceOnUse" id="color-51"><stop offset="0" stop-color="#0b0e13"/><stop offset="1" stop-color="#293744"/></linearGradient><linearGradient x1="193.84966" y1="154.24012" x2="193.84966" y2="205.75991" gradientUnits="userSpaceOnUse" id="color-52"><stop offset="0" stop-color="#0b0e13"/><stop offset="1" stop-color="#293744"/></linearGradient><linearGradient x1="230.8087" y1="154.2401" x2="230.8087" y2="205.75992" gradientUnits="userSpaceOnUse" id="color-53"><stop offset="0" stop-color="#0b0e13"/><stop offset="1" stop-color="#293744"/></linearGradient><linearGradient x1="230.8087" y1="154.2401" x2="230.8087" y2="205.75992" gradientUnits="userSpaceOnUse" id="color-54"><stop offset="0" stop-color="#0b0e13"/><stop offset="1" stop-color="#293744"/></linearGradient><linearGradient x1="280.19952" y1="141.30145" x2="280.19952" y2="218.69856" gradientUnits="userSpaceOnUse" id="color-55"><stop offset="0" stop-color="#070707"/><stop offset="1" stop-color="#2e302f"/></linearGradient><linearGradient x1="280.19952" y1="141.30145" x2="280.19952" y2="218.69856" gradientUnits="userSpaceOnUse" id="color-56"><stop offset="0" stop-color="#070707"/><stop offset="1" stop-color="#2e302f"/></linearGradient><linearGradient x1="279.4826" y1="142.856" x2="279.4826" y2="217.14403" gradientUnits="userSpaceOnUse" id="color-57"><stop offset="0" stop-color="#0b0e13"/><stop offset="1" stop-color="#293744"/></linearGradient><linearGradient x1="279.4826" y1="142.856" x2="279.4826" y2="217.14403" gradientUnits="userSpaceOnUse" id="color-58"><stop offset="0" stop-color="#0b0e13"/><stop offset="1" stop-color="#293744"/></linearGradient><linearGradient x1="218.46764" y1="184.42572" x2="218.46764" y2="141.30145" gradientUnits="userSpaceOnUse" id="color-59"><stop offset="0" stop-color="#1b191a" stop-opacity="0"/><stop offset="1" stop-color="#1b191a"/></linearGradient><linearGradient x1="218.46764" y1="184.42572" x2="218.46764" y2="141.30145" gradientUnits="userSpaceOnUse" id="color-60"><stop offset="0" stop-color="#1b191a" stop-opacity="0"/><stop offset="1" stop-color="#1b191a"/></linearGradient></defs><g transform="translate(-4.42566,-1.09609)"><g data-paper-data="{&quot;isPaintingLayer&quot;:true}" fill-rule="nonzero" stroke-linejoin="miter" stroke-miterlimit="10" stroke-dasharray="" stroke-dashoffset="0" style="mix-blend-mode: normal"><path d="M363.09798,180.08967c0,0 0.07394,4.89543 -0.29904,9.5801c-0.26521,3.33103 -0.89015,6.55548 -1.32628,7.83767c-1.37879,4.05349 -3.77747,8.78489 -5.27617,11.40112c-0.4067,0.70996 -1.35122,2.12474 -2.24749,3.63993c-1.17935,1.99376 -2.37408,4.16137 -3.13602,5.12587c-1.90291,2.40875 -4.71719,5.18647 -6.84707,6.49125c-3.52067,2.15679 -8.10615,3.3961 -11.11564,3.85924c-8.04854,1.23861 -17.64131,1.49867 -24.03481,1.15961c-1.91007,-0.10129 -4.60767,-0.60698 -7.83155,-0.84734c-4.54369,-0.33876 -9.93259,-0.41741 -13.89304,-0.41741c-15.48059,0 -77.06513,0.16048 -90.51831,0.19603c-0.65882,0.00176 -1.49938,0.04502 -2.51511,0.20011c-1.56796,0.23942 -3.55334,0.65172 -5.93195,0.86246c-2.17784,0.19295 -9.80513,0.66059 -16.31076,0.72699c-4.72414,0.04823 -8.7609,-0.24303 -10.15541,-0.38415c-7.00472,-0.70885 -18.90187,-4.03396 -25.39349,-6.06876c-1.4858,-0.46572 -2.61829,-0.87789 -3.37164,-1.17011c-0.3626,-0.14065 -0.68379,-0.24448 -0.95355,-0.43458c-0.26945,-0.18988 -0.48759,-0.46599 -0.64445,-0.68082c-0.55339,-0.75798 -1.50599,-2.12435 -2.54543,-3.88823c-0.42532,-0.72176 -0.80213,-1.51005 -1.24676,-2.35046c-0.99111,-1.87336 -3.38022,-6.99755 -5.0339,-12.07782c-1.4971,-4.59924 -2.2938,-9.16246 -2.69268,-11.24499c-1.1528,-6.01854 -1.57995,-11.58336 -1.57995,-11.58336v-0.04406c0,0 0.42715,-5.56481 1.57995,-11.58335c0.39889,-2.08253 1.19558,-6.64575 2.69268,-11.24499c1.65368,-5.08027 4.04279,-10.20446 5.0339,-12.07782c0.44463,-0.84041 0.82145,-1.62871 1.24676,-2.35046c1.03945,-1.76388 1.99204,-3.13023 2.54543,-3.88823c0.15686,-0.21483 0.37501,-0.49094 0.64445,-0.68082c0.26976,-0.1901 0.59095,-0.29394 0.95355,-0.43458c0.75335,-0.29221 1.88584,-0.70438 3.37164,-1.1701c6.49161,-2.03481 18.38878,-5.35991 25.39349,-6.06876c1.39452,-0.14112 5.43127,-0.43238 10.15541,-0.38415c6.50563,0.06641 14.13291,0.53405 16.31076,0.727c2.3786,0.21072 4.36399,0.62304 5.93195,0.86245c1.01573,0.15509 1.85629,0.19835 2.51511,0.20011c13.45318,0.03555 75.03772,0.19604 90.51831,0.19604c3.96046,0 9.34935,-0.07864 13.89304,-0.41741c3.22387,-0.24036 5.92148,-0.74605 7.83155,-0.84734c6.39351,-0.33905 15.98628,-0.079 24.03481,1.15961c3.0095,0.46314 7.59497,1.70246 11.11564,3.85925c2.12989,1.30478 4.94416,4.08249 6.84707,6.49125c0.76195,0.96449 1.95667,3.1321 3.13602,5.12587c0.89626,1.51519 1.84079,2.92997 2.24749,3.63993c1.49869,2.61622 3.89738,7.34762 5.27617,11.40111c0.43614,1.28219 1.06108,4.50666 1.32628,7.83768c0.37297,4.68466 0.29904,9.58009 0.29904,9.58009z" fill="url(#color-1)" stroke="url(#color-2)" stroke-width="0.75" stroke-linecap="round"/><path d="M173.51417,180.6282v29.56933c0,0 -0.12098,0.68268 -0.42408,1.43052c-0.22617,0.55801 -0.59569,1.15231 -0.86586,1.52635c-0.5954,0.82432 -1.34177,1.68911 -1.68885,2.08222c-0.12152,0.13764 -0.08782,0.35733 0.02538,0.5063c0.31545,0.41514 1.82085,2.39627 2.36573,3.11333c0.12331,0.16228 0.06355,0.25008 -0.18485,0.23192c-1.39159,-0.10172 -6.3776,-0.46749 -11.55707,-0.86381c-3.55829,-0.27227 -7.20788,-0.58737 -9.84605,-0.76645c-7.19299,-0.48825 -20.90997,-1.26649 -22.98153,-1.38355c-0.17299,-0.00977 -0.31,-0.10061 -0.39104,-0.256c-0.23324,-0.44723 -0.76311,-1.47204 -1.36521,-2.69462c-0.26871,-0.54564 -0.82133,-1.76692 -1.33405,-2.93142c-0.28001,-0.63599 -0.72182,-1.6409 -1.08412,-2.57408c-0.31592,-0.81372 -0.56106,-1.57289 -0.71864,-1.98537c-0.39401,-1.03139 -0.85383,-2.17208 -0.94548,-2.68514c-0.39851,-2.23095 -0.11696,-4.34945 -0.49404,-5.88591c-0.57245,-2.33252 -1.30218,-5.48773 -1.75206,-8.52568c-0.11162,-0.75369 -0.32861,-2.3335 -0.48879,-3.87015c-0.20516,-1.96821 -0.34466,-3.86562 -0.34466,-3.86562c0,0 -0.05262,-0.55013 -0.05262,-0.82014c0,-0.26344 0.05261,-0.78069 0.05261,-0.78069c0,0 0.1395,-1.89741 0.34466,-3.86562c0.16017,-1.53665 0.37717,-3.11645 0.48879,-3.87015c0.44988,-3.03795 1.17961,-6.19316 1.75206,-8.52568c0.37708,-1.53645 0.09553,-3.65496 0.49404,-5.88591c0.09165,-0.51307 0.55147,-1.65375 0.94548,-2.68514c0.15758,-0.41248 0.40273,-1.17165 0.71864,-1.98537c0.3623,-0.93319 0.80411,-1.9381 1.08412,-2.57407c0.51272,-1.1645 1.06534,-2.38579 1.33405,-2.93143c0.6021,-1.22259 1.13197,-2.24739 1.36521,-2.69461c0.08104,-0.15539 0.21805,-0.24622 0.39103,-0.25599c2.07156,-0.11706 15.78855,-0.89532 22.98154,-1.38356c2.63817,-0.17908 6.28776,-0.49418 9.84605,-0.76645c5.17947,-0.39632 10.16547,-0.76209 11.55706,-0.8638c0.2484,-0.01815 0.30816,0.06964 0.18485,0.23192c-0.54488,0.71706 -2.05027,2.69819 -2.36573,3.11333c-0.11319,0.14898 -0.14691,0.36866 -0.02538,0.5063c0.34707,0.3931 1.09345,1.25791 1.68885,2.08222c0.27017,0.37404 0.63969,0.96834 0.86586,1.52635c0.3031,0.74784 0.42408,1.43052 0.42408,1.43052v29.56933z" fill="url(#color-3)" stroke="url(#color-4)" stroke-width="0.75" stroke-linecap="round"/><path d="M128.51056,143.14389c0.07883,-0.14324 0.15863,-0.28412 0.24021,-0.42255c1.03945,-1.76388 1.99204,-3.13025 2.54543,-3.88823c0.15686,-0.21483 0.375,-0.49095 0.64445,-0.68082c0.26976,-0.1901 0.59095,-0.29393 0.95355,-0.43458c0.75335,-0.29221 1.88584,-0.70438 3.37164,-1.17011c6.49161,-2.03481 18.38877,-5.35991 25.39349,-6.06876c1.39452,-0.14112 5.43127,-0.43238 10.15541,-0.38415c6.50563,0.06641 14.13291,0.53404 16.31076,0.72699c2.3786,0.21073 4.36399,0.62304 5.93195,0.86246c1.01573,0.15509 1.85629,0.19835 2.51511,0.20011c13.45318,0.03555 75.03772,0.19603 90.51831,0.19603c3.96046,0 9.34935,-0.07864 13.89304,-0.41741c3.22388,-0.24036 5.92148,-0.74605 7.83155,-0.84734c6.39351,-0.33906 15.98628,-0.079 24.03481,1.15961c3.00949,0.46314 7.59497,1.70246 11.11564,3.85924c2.12989,1.30478 4.94416,4.0825 6.84707,6.49125c0.12197,0.1544 0.25503,0.33963 0.39736,0.55004c0.07523,0.11122 -0.04149,0.19499 -0.16356,0.15248c-1.16815,-0.40678 -6.10393,-2.05611 -13.38673,-3.53238c-4.79098,-0.97116 -10.74256,-1.66455 -16.93937,-2.39247c-11.16939,-1.31205 -24.30158,-2.25727 -34.88847,-2.21833c-8.25687,0.03036 -33.74331,-0.65658 -58.20552,-0.75508c-21.48692,-0.08652 -42.2721,0.399 -48.6849,0.60799c-7.45986,0.24312 -13.46839,0.57975 -15.78344,0.76737c-9.31835,0.75521 -19.01219,1.70231 -23.68161,2.44174c-3.67935,0.58265 -6.23361,1.53978 -6.7523,1.8474c-2.13175,1.2643 -3.76285,3.02915 -4.30706,3.65583c-0.05668,0.06528 -0.08446,0.01641 0.09319,-0.30635z" fill="url(#color-5)" stroke="url(#color-6)" stroke-width="0.75" stroke-linecap="round"/><path d="M128.51056,216.85611c-0.17765,-0.32277 -0.14988,-0.37163 -0.09319,-0.30635c0.54422,0.62669 2.17531,2.39154 4.30706,3.65583c0.51869,0.30762 3.07296,1.26475 6.7523,1.8474c4.66942,0.73943 14.36325,1.68653 23.68161,2.44174c2.31505,0.18762 8.32358,0.52425 15.78345,0.76737c6.4128,0.20899 27.19798,0.69451 48.6849,0.60799c24.4622,-0.0985 49.94867,-0.78544 58.20553,-0.75508c10.58688,0.03894 23.71908,-0.90629 34.88847,-2.21833c6.19681,-0.72793 12.14839,-1.42131 16.93937,-2.39247c7.2828,-1.47627 12.21858,-3.1256 13.38673,-3.53238c0.12207,-0.04251 0.23879,0.04126 0.16357,0.15248c-0.14233,0.21042 -0.27538,0.39564 -0.39736,0.55004c-1.90291,2.40876 -4.71719,5.18648 -6.84707,6.49125c-3.52067,2.15679 -8.10614,3.3961 -11.11564,3.85924c-8.04854,1.23861 -17.64131,1.49866 -24.03482,1.15961c-1.91007,-0.10129 -4.60768,-0.60698 -7.83155,-0.84734c-4.54369,-0.33876 -9.93258,-0.41741 -13.89303,-0.41741c-15.48059,0 -77.06513,0.16048 -90.51831,0.19603c-0.65882,0.00176 -1.49938,0.04502 -2.51511,0.20011c-1.56796,0.23942 -3.55335,0.65174 -5.93195,0.86246c-2.17784,0.19295 -9.80513,0.66059 -16.31075,0.72699c-4.72414,0.04823 -8.76089,-0.24303 -10.15541,-0.38415c-7.00471,-0.70885 -18.90188,-4.03395 -25.39349,-6.06876c-1.4858,-0.46572 -2.61828,-0.87789 -3.37163,-1.17011c-0.3626,-0.14065 -0.6838,-0.24448 -0.95355,-0.43458c-0.26944,-0.18989 -0.48759,-0.46599 -0.64445,-0.68082c-0.55339,-0.75799 -1.50599,-2.12434 -2.54544,-3.88823c-0.08158,-0.13843 -0.16137,-0.27931 -0.2402,-0.42255z" fill="url(#color-7)" stroke="url(#color-8)" stroke-width="0.75" stroke-linecap="round"/><path d="M363.1094,180.75737c0,0 0.00605,3.09151 -0.12923,6.11905c-0.07247,1.62174 -0.21618,3.22511 -0.35448,4.32515c-0.07477,0.59473 -0.21904,1.93391 -0.46091,3.24658c-0.27362,1.48487 -0.64809,2.93578 -0.74266,3.23683c-0.16798,0.53474 -0.3316,0.96641 -0.44552,1.24804c-0.09461,0.2339 -0.32576,0.43195 -0.44513,0.47868c-0.85872,0.33616 -2.85598,1.11048 -5.28951,2.16469c-3.0426,1.31807 -6.91614,3.08707 -10.74268,4.69181c-3.83255,1.60725 -12.20583,5.20918 -20.13793,7.58935c-6.60693,1.98254 -12.96051,2.88014 -15.63838,3.27956c-6.10068,0.90996 -12.06105,1.33916 -13.97607,1.46474c-0.13491,0.00886 -0.34312,-0.10489 -0.34312,-0.30372c0,-2.15001 0,-38.10041 0,-38.10041v-0.3954c0,0 0,-35.95041 0,-38.10041c0,-0.19882 0.20822,-0.31257 0.34312,-0.30372c1.91503,0.12558 7.8754,0.55478 13.97607,1.46474c2.67788,0.39942 9.03145,1.29702 15.63838,3.27956c7.9321,2.38017 16.30538,5.9821 20.13793,7.58935c3.82654,1.60474 7.70008,3.37373 10.74268,4.69181c2.43354,1.05422 4.43079,1.82853 5.28951,2.16469c0.11938,0.04673 0.35053,0.24478 0.44513,0.47868c0.11392,0.28163 0.27754,0.7133 0.44552,1.24804c0.09457,0.30105 0.46904,1.75197 0.74266,3.23683c0.24189,1.31266 0.38615,2.65185 0.46092,3.24658c0.13829,1.10003 0.28201,2.70341 0.35448,4.32515c0.13528,3.02755 0.12923,6.11905 0.12923,6.11905z" fill="#a71112" stroke="#a71112" stroke-width="0.75" stroke-linecap="round"/><path d="M296.03157,160.25735c-0.26781,-2.94588 -1.59444,-17.53868 -1.69736,-18.67086c-0.01251,-0.13764 0.0851,-0.22303 0.28479,-0.21042c1.41906,0.08958 7.57349,0.51276 14.10395,1.48683c2.67788,0.39942 9.03145,1.29702 15.63838,3.27955c7.9321,2.38017 16.30538,5.98211 20.13793,7.58936c3.82654,1.60474 7.70008,3.37373 10.74268,4.6918c2.77184,1.20077 4.93463,2.0384 5.53669,2.27906c0.1169,0.04673 0.0991,0.07095 -0.16621,0.07095c-3.04127,0 -57.101,0 -63.84511,0c-0.4495,0 -0.70555,-0.1841 -0.73574,-0.51627z" fill="url(#color-9)" stroke="url(#color-10)" stroke-width="0.75" stroke-linecap="round"/><path d="M296.76731,199.22639c6.74411,0 60.80383,0 63.84512,0c0.26531,0 0.28311,0.02423 0.16621,0.07095c-0.60206,0.24066 -2.76485,1.07827 -5.53669,2.27905c-3.0426,1.31807 -6.91613,3.08707 -10.74267,4.69181c-3.83255,1.60725 -12.20584,5.20918 -20.13794,7.58935c-6.60693,1.98254 -12.96051,2.88014 -15.63838,3.27956c-6.53046,0.97406 -12.68488,1.39723 -14.10394,1.48683c-0.19969,0.01261 -0.2973,-0.07278 -0.28479,-0.21042c0.10292,-1.13218 1.42955,-15.72499 1.69736,-18.67086c0.0302,-0.33218 0.28625,-0.51627 0.73574,-0.51627z" fill="url(#color-11)" stroke="url(#color-12)" stroke-width="0.75" stroke-linecap="round"/><path d="M286.69608,132.09115c0,0 0.07973,1.00074 0.01483,1.98684c-0.02075,0.31539 -0.10842,1.07362 -0.47343,1.71548c-0.3624,0.63727 -1.00091,1.15845 -1.37185,1.39104c-0.83007,0.5205 -1.76864,0.63678 -1.76864,0.63678" fill="none" stroke="#690f11" stroke-width="0.75" stroke-linecap="round"/><path d="M170.34127,144.54591c0,0 1.07907,1.18673 1.88295,2.29968c0.27017,0.37404 0.63969,0.96835 0.86586,1.52635c0.3031,0.74785 0.42408,1.43052 0.42408,1.43052" fill="none" stroke="#690f11" stroke-width="0.75" stroke-linecap="round"/><path d="M127.90989,144.40381h36.6539" fill="none" stroke="#690f11" stroke-width="0.75" stroke-linecap="round"/><path d="M294.32047,141.32564c0,0 4.86684,-1.566 10.21791,-2.3603c1.12736,-0.16735 4.9817,-0.50627 8.92428,-0.27838c1.99084,0.11508 7.33965,0.75774 12.68212,1.54424c7.52335,1.10755 15.31343,2.45381 16.13026,2.60798c3.14438,0.59345 5.13202,1.13842 5.13202,1.13842" fill="none" stroke="#690f11" stroke-width="0.75" stroke-linecap="round"/><path d="M236.11707,133.15044c0.07615,-0.10851 0.38686,-0.34897 0.57058,-0.34897c0.89305,0 7.90274,0 9.51865,0c0.2123,0 0.16853,0.23225 0.09321,0.33958c-0.0679,0.09678 -0.32857,0.27605 -0.56677,0.27605c-1.66678,0 -8.39314,0 -9.37658,0c-0.23501,0 -0.30564,-0.1718 -0.23909,-0.26666z" fill="#677372" stroke="#677372" stroke-width="0.75" stroke-linecap="butt"/><path d="M183.1807,131.2511c1.60642,0.16443 8.62814,0.88313 9.49351,0.9717c0.17178,0.01758 0.17919,0.17383 0.10719,0.25696c-0.08865,0.10234 -0.4216,0.32971 -0.64332,0.30702c-1.63255,-0.1671 -8.51389,-0.87144 -9.42652,-0.96485c-0.19611,-0.02007 -0.17733,-0.23491 -0.09367,-0.33149c0.08036,-0.09276 0.35365,-0.26074 0.56281,-0.23934z" fill="#677372" stroke="#677372" stroke-width="0.75" stroke-linecap="butt"/><path d="M283.09699,222.17874c0,0 0.93857,0.11628 1.76864,0.63678c0.37094,0.2326 1.00946,0.75378 1.37185,1.39105c0.36502,0.64185 0.45268,1.40008 0.47343,1.71547c0.0649,0.9861 -0.01483,1.98684 -0.01483,1.98684" fill="none" stroke="#690f11" stroke-width="0.75" stroke-linecap="round"/><path d="M173.51416,210.19756c0,0 -0.12098,0.68268 -0.42408,1.43052c-0.22617,0.55801 -0.59569,1.15231 -0.86586,1.52635c-0.80388,1.11294 -1.88295,2.29968 -1.88295,2.29968" fill="none" stroke="#690f11" stroke-width="0.75" stroke-linecap="round"/><path d="M127.90989,215.59619h36.6539" fill="none" stroke="#690f11" stroke-width="0.75" stroke-linecap="round"/><path d="M347.40706,216.02242c0,0 -1.98764,0.54496 -5.13202,1.13841c-0.81682,0.15417 -8.60691,1.50043 -16.13026,2.60798c-5.34247,0.7865 -10.69128,1.42916 -12.68212,1.54424c-3.94259,0.22789 -7.79692,-0.11103 -8.92428,-0.27838c-5.35106,-0.7943 -10.21791,-2.36029 -10.21791,-2.36029" fill="none" stroke="#690f11" stroke-width="0.75" stroke-linecap="round"/><path d="M236.11707,226.84956c-0.06655,-0.09485 0.00409,-0.26666 0.23909,-0.26666c0.98344,0 7.7098,0 9.37658,0c0.2382,0 0.49887,0.17927 0.56677,0.27605c0.07531,0.10734 0.11909,0.33958 -0.09321,0.33958c-1.61592,0 -8.6256,0 -9.51865,0c-0.18373,0 -0.49443,-0.24045 -0.57058,-0.34897z" fill="#6e7676" stroke="#6e7676" stroke-width="0.75" stroke-linecap="butt"/><path d="M182.61789,228.50958c-0.08366,-0.09658 -0.10244,-0.31142 0.09367,-0.33149c0.91263,-0.09342 7.79396,-0.79775 9.42652,-0.96485c0.22172,-0.02269 0.55467,0.20468 0.64332,0.30702c0.072,0.08312 0.06459,0.23937 -0.10719,0.25696c-0.86537,0.08858 -7.88709,0.80728 -9.49351,0.97171c-0.20917,0.0214 -0.48246,-0.14658 -0.56281,-0.23934z" fill="#6e7676" stroke="#6e7676" stroke-width="0.75" stroke-linecap="butt"/><path d="M357.12352,156.65103c-0.07689,-0.0611 -0.51872,-0.33904 -0.9595,-0.79314c-0.74933,-0.77195 -1.69452,-1.95352 -2.28206,-2.72257c-1.35237,-1.77015 -2.64645,-3.99077 -3.03971,-4.61614c-1.08999,-1.73329 -2.21329,-3.37743 -3.31593,-4.44664c-2.87531,-2.78819 -9.19867,-6.4792 -10.68642,-7.33137c-0.20473,-0.11728 -0.16978,-0.17489 0.09501,-0.14953c0.82599,0.07912 2.78723,0.34765 4.92863,1.21751c2.78344,1.13066 5.86799,3.24437 7.56734,4.88378c0.19716,0.1902 0.83038,1.0908 1.42413,2.16402c0.67509,1.22024 1.4799,2.77039 2.25384,4.20025c0.69302,1.28034 1.37171,2.46423 1.74001,3.22848c0.1454,0.30169 0.97547,1.58796 1.61733,2.66864c0.26745,0.45031 0.70665,1.13715 0.8721,1.45584c0.17879,0.34439 0.05677,0.45663 -0.21474,0.24087z" fill="#fdfcff" stroke="#fdfcff" stroke-width="0.75" stroke-linecap="round"/><path d="M357.12353,203.34897c0.27152,-0.21576 0.39352,-0.10351 0.21474,0.24088c-0.16546,0.31869 -0.60466,1.00553 -0.87211,1.45584c-0.64186,1.08067 -1.47193,2.36694 -1.61733,2.66863c-0.3683,0.76425 -1.04699,1.94815 -1.74,3.22849c-0.77395,1.42987 -1.57875,2.98001 -2.25385,4.20025c-0.59375,1.07322 -1.22697,1.97382 -1.42413,2.16403c-1.69935,1.63941 -4.78389,3.75311 -7.56733,4.88377c-2.14139,0.86987 -4.10263,1.13841 -4.92862,1.21752c-0.26479,0.02536 -0.29974,-0.03225 -0.09501,-0.14953c1.48775,-0.85217 7.81111,-4.54318 10.68642,-7.33138c1.10262,-1.06921 2.22594,-2.71334 3.31593,-4.44664c0.39327,-0.62537 1.68735,-2.84599 3.03971,-4.61614c0.58754,-0.76905 1.53274,-1.95062 2.28206,-2.72257c0.44079,-0.4541 0.88262,-0.73204 0.9595,-0.79314z" fill="#fdfcff" stroke="#fdfcff" stroke-width="0.75" stroke-linecap="round"/><path d="M357.27944,156.61629c-0.62454,-0.84499 -2.33296,-3.17671 -3.81953,-5.39001c-1.33015,-1.9804 -2.37998,-3.86602 -2.78933,-4.50693c-0.59355,-0.92935 -1.57925,-2.34847 -2.82963,-3.54281c-0.47292,-0.45173 -1.3411,-1.25076 -2.46017,-2.01769c-1.71274,-1.17381 -3.8012,-2.34304 -4.30001,-2.62994c-0.25733,-0.14801 -0.46632,-0.26537 -0.61772,-0.34934c-0.18158,-0.10072 -0.1041,-0.10196 0.20366,-0.00298c1.18523,0.38116 4.32111,1.46708 6.85345,3.03276c0.46806,0.28939 1.80536,1.15159 2.78352,2.51794c1.11428,1.55648 1.88782,3.68888 2.59119,4.99165c1.45456,2.69409 3.34906,5.7487 4.23032,7.2789c0.069,0.11981 0.1261,0.22742 0.17334,0.32331c0.21225,0.43079 0.13724,0.50668 -0.01911,0.29513z" fill="url(#color-13)" stroke="url(#color-14)" stroke-width="0.75" stroke-linecap="round"/><path d="M357.29854,203.67886c-0.04724,0.09589 -0.10434,0.2035 -0.17334,0.32331c-0.88126,1.5302 -2.77575,4.58481 -4.23031,7.2789c-0.70338,1.30277 -1.47692,3.43517 -2.5912,4.99165c-0.97816,1.36635 -2.31545,2.22856 -2.78351,2.51794c-2.53234,1.56568 -5.66822,2.6516 -6.85345,3.03276c-0.30776,0.09897 -0.38525,0.09773 -0.20367,-0.00298c0.15139,-0.08399 0.36039,-0.20134 0.61772,-0.34934c0.4988,-0.2869 2.58727,-1.45613 4.30001,-2.62994c1.11906,-0.76693 1.98725,-1.56596 2.46017,-2.01769c1.25038,-1.19434 2.23607,-2.61346 2.82962,-3.54281c0.40934,-0.64092 1.45918,-2.52652 2.78933,-4.50693c1.48658,-2.21329 3.195,-4.54502 3.81953,-5.39001c0.15634,-0.21154 0.23136,-0.13566 0.01911,0.29513z" fill="url(#color-15)" stroke="url(#color-16)" stroke-width="0.75" stroke-linecap="round"/><path d="M176.16612,144.59294c-7.20887,-0.06028 -12.29077,-0.1808 -13.49432,-0.19887c-0.18061,-0.00272 -0.15048,-0.06537 0.06959,-0.16868c0.17702,-0.08309 1.09257,-0.60036 2.45211,-1.13277c1.23927,-0.48531 2.87148,-0.97519 4.17419,-1.31874c3.31791,-0.87498 7.55241,-1.6721 10.17685,-2.10546c4.53322,-0.74854 9.23489,-1.11852 10.91703,-1.25848c13.83139,-1.15076 30.57535,-1.75046 39.8332,-1.9001c7.96401,-0.12873 20.50984,-0.19397 31.05929,0.08342c10.88387,0.28617 19.59181,0.60701 21.92582,0.75958c0.27514,0.01799 0.07879,0.38943 -0.05951,0.4151c-0.51517,0.09563 -1.2683,0.28408 -2.20756,0.45826c-3.3252,0.6166 -9.03069,1.60042 -14.72269,2.49701c-1.89889,0.29911 -5.15992,0.78089 -9.00664,1.22905c-2.8264,0.32928 -5.969,0.66599 -9.1198,0.96189c-1.7885,0.16797 -5.96133,0.55531 -10.28309,0.82771c-4.73326,0.29834 -9.64516,0.47769 -11.79899,0.53714c-5.0159,0.13845 -10.26517,0.24018 -12.83589,0.2672c-13.35014,0.14031 -27.20876,0.12928 -37.0796,0.04674z" fill="url(#color-17)" stroke="url(#color-18)" stroke-width="0.75" stroke-linecap="round"/><path d="M184.97817,140.13253c-0.12531,-0.14321 -0.10807,-0.28724 0.14368,-0.30991c1.93544,-0.17427 10.92087,-0.96072 20.96911,-1.47247c10.81904,-0.55103 22.81781,-0.79599 30.6424,-0.94623c8.28304,-0.15904 20.42504,0.04522 28.98625,0.28104c5.11948,0.14102 9.90591,0.24254 11.26463,0.27059c0.24874,0.00513 0.20005,0.04167 -0.134,0.10233c-1.69907,0.30856 -7.3176,1.31032 -12.77194,2.07469c-3.52215,0.49359 -11.29622,1.5332 -19.53949,2.20727c-9.12309,0.74601 -18.75699,1.06085 -22.43535,1.14218c-14.92228,0.32993 -31.40754,0.18953 -33.76451,0.16696c-0.18825,-0.0018 -0.36975,-0.09814 -0.50933,-0.25766c-0.6438,-0.73577 -2.85145,-3.25879 -2.85145,-3.25879z" fill="url(#color-19)" stroke="url(#color-20)" stroke-width="0.75" stroke-linecap="round"/><path d="M231.5258,131.99644c0,0 -0.4639,1.57415 -0.74355,2.43516c-0.31579,0.97233 -1.10335,3.10555 -1.10335,3.10555" fill="none" stroke="#690f11" stroke-width="0.75" stroke-linecap="round"/><path d="M180.90176,140.37854c0,0 -0.99661,-0.98287 -1.92875,-2.00486c-0.6306,-0.69138 -1.20602,-1.40069 -1.52177,-1.83573c-0.26077,-0.35928 -0.79293,-1.28513 -0.71916,-1.92067c0.08723,-0.7515 0.83307,-1.25761 1.175,-1.5148c0.98761,-0.74289 4.22595,-2.62143 4.22595,-2.62143" fill="none" stroke="#690f11" stroke-width="0.75" stroke-linecap="round"/><path d="M220.14283,143.15649c0.39045,-0.61864 2.5751,-4.08002 3.237,-5.12876c0.12013,-0.19032 0.33074,-0.30602 0.5733,-0.31422c1.08706,-0.03673 4.22091,-0.14098 5.91401,-0.18021c1.61419,-0.0374 4.46946,-0.07318 5.54363,-0.08596c0.26743,-0.00319 0.35606,0.05511 0.23336,0.16279c-0.99536,0.87362 -5.56352,4.8831 -6.16379,5.40994c-0.12761,0.11201 -0.36614,0.20859 -0.60518,0.22259c-0.61161,0.03583 -1.88154,0.10587 -3.17476,0.15062c-1.496,0.05177 -3.02317,0.0551 -3.59846,0.0671c-0.7766,0.01621 -1.46033,0.02971 -1.84618,0.03722c-0.21044,0.0041 -0.11294,-0.34112 -0.11294,-0.34112z" fill="url(#color-21)" stroke="url(#color-22)" stroke-width="0.75" stroke-linecap="round"/><path d="M188.95004,143.65736c-0.80122,0.01421 -2.38466,0.03685 -4.35453,0.03728c-6.22015,0.00135 -16.76686,-0.09169 -18.23189,-0.09465c-0.35258,-0.00072 3.68619,-1.05792 6.45134,-1.6781c3.9374,-0.88308 8.35209,-1.62244 9.48006,-1.77049c1.36638,-0.17933 2.52631,-0.2979 3.09993,-0.35296c0.24632,-0.02364 0.47126,0.05445 0.61768,0.20644c0.71842,0.7457 2.87387,2.98301 3.27312,3.39741c0.12439,0.12912 0.03194,0.24855 -0.33571,0.25507z" fill="url(#color-23)" stroke="url(#color-24)" stroke-width="0.75" stroke-linecap="round"/><path d="M213.24571,215.45381c2.57072,0.02703 7.81998,0.12875 12.83588,0.2672c2.15384,0.05945 7.06573,0.2388 11.79899,0.53714c4.32176,0.27239 8.4946,0.65974 10.2831,0.82771c3.1508,0.29591 6.2934,0.63261 9.1198,0.96189c3.84672,0.44816 7.10775,0.92994 9.00664,1.22905c5.692,0.89659 11.39749,1.88041 14.72269,2.49701c0.93927,0.17416 1.69238,0.36262 2.20755,0.45825c0.13829,0.02567 0.33465,0.39712 0.05951,0.41511c-2.33401,0.15257 -11.04194,0.47341 -21.92582,0.75958c-10.54945,0.27739 -23.09527,0.21213 -31.05928,0.08341c-9.25785,-0.14964 -26.00181,-0.74934 -39.8332,-1.90009c-1.68215,-0.13996 -6.38383,-0.50995 -10.91704,-1.25848c-2.62444,-0.43336 -6.85894,-1.23048 -10.17685,-2.10546c-1.30271,-0.34355 -2.93492,-0.83343 -4.17418,-1.31874c-1.35954,-0.53241 -2.27509,-1.04967 -2.45211,-1.13277c-0.22007,-0.10331 -0.2502,-0.16595 -0.06958,-0.16868c1.20355,-0.01807 6.28545,-0.13859 13.49432,-0.19887c9.87084,-0.08254 23.72946,-0.09357 37.0796,0.04674z" fill="url(#color-25)" stroke="url(#color-26)" stroke-width="0.75" stroke-linecap="round"/><path d="M187.82963,216.60869c0.13958,-0.15951 0.32108,-0.25586 0.50933,-0.25766c2.35698,-0.02257 18.84223,-0.16297 33.76451,0.16695c3.67836,0.08132 13.31226,0.39616 22.43535,1.14218c8.24327,0.67407 16.01734,1.71368 19.53949,2.20727c5.45434,0.76437 11.07288,1.76613 12.77194,2.07469c0.33405,0.06067 0.38273,0.09721 0.134,0.10234c-1.35872,0.02804 -6.14516,0.12957 -11.26463,0.27059c-8.56122,0.23582 -20.70323,0.44007 -28.98625,0.28103c-7.82459,-0.15024 -19.82335,-0.3952 -30.6424,-0.94623c-10.04825,-0.51175 -19.03367,-1.2982 -20.96911,-1.47248c-0.25176,-0.02266 -0.269,-0.16669 -0.14368,-0.30991c0,0 2.20765,-2.52301 2.85145,-3.25878z" fill="url(#color-27)" stroke="url(#color-28)" stroke-width="0.75" stroke-linecap="round"/><path d="M229.67891,222.46288c0,0 0.78755,2.13322 1.10335,3.10555c0.27964,0.86101 0.74355,2.43516 0.74355,2.43516" fill="none" stroke="#690f11" stroke-width="0.75" stroke-linecap="round"/><path d="M182.13304,229.51898c0,0 -3.23835,-1.87854 -4.22595,-2.62143c-0.34193,-0.25719 -1.08777,-0.7633 -1.175,-1.5148c-0.07377,-0.63554 0.45839,-1.56139 0.71917,-1.92067c0.31574,-0.43503 0.89117,-1.14435 1.52177,-1.83573c0.93214,-1.022 1.92875,-2.00486 1.92875,-2.00486" fill="none" stroke="#690f11" stroke-width="0.75" stroke-linecap="round"/><path d="M220.25577,216.50239c0.38585,0.00751 1.06958,0.02102 1.84618,0.03722c0.57529,0.012 2.10246,0.01533 3.59846,0.0671c1.29322,0.04476 2.56316,0.11479 3.17476,0.15062c0.23904,0.014 0.47756,0.11058 0.60518,0.22259c0.60028,0.52685 5.16844,4.53633 6.16379,5.40994c0.12269,0.10768 0.03406,0.16597 -0.23336,0.16279c-1.07417,-0.01278 -3.92944,-0.04857 -5.54363,-0.08596c-1.69311,-0.03923 -4.82695,-0.14348 -5.91401,-0.18021c-0.24256,-0.0082 -0.45318,-0.12391 -0.5733,-0.31422c-0.66191,-1.04875 -2.84655,-4.51013 -3.237,-5.12876c0,0 -0.0975,-0.34522 0.11294,-0.34112z" fill="url(#color-29)" stroke="url(#color-30)" stroke-width="0.75" stroke-linecap="round"/><path d="M188.95004,216.34265c0.36765,0.00652 0.4601,0.12593 0.33571,0.25507c-0.39925,0.4144 -2.55469,2.65171 -3.27312,3.39741c-0.14642,0.15198 -0.37136,0.23008 -0.61768,0.20644c-0.57362,-0.05506 -1.73355,-0.17363 -3.09993,-0.35296c-1.12797,-0.14804 -5.54267,-0.88741 -9.48006,-1.77049c-2.76515,-0.62018 -6.80391,-1.67739 -6.45134,-1.67811c1.46503,-0.00296 12.01174,-0.09599 18.23189,-0.09464c1.96988,0.00043 3.55331,0.02306 4.35453,0.03728z" fill="url(#color-31)" stroke="url(#color-32)" stroke-width="0.75" stroke-linecap="round"/><path d="M274.19547,139.10011c0.06468,-0.4459 0.17832,-1.25562 0.24506,-1.88337c0.05035,-0.47352 0.03937,-0.94509 0.03378,-1.28578c-0.01094,-0.66735 -0.2775,-1.76195 -0.4235,-2.31431c-0.0555,-0.20998 0.03725,-0.34159 0.19055,-0.34159c0.54235,0 3.73685,0 4.783,0c0.20835,0 0.44533,0.09948 0.57969,0.21687c0.49827,0.43538 3.55442,3.1058 4.40817,3.8518c0.14049,0.12276 0.09436,0.22973 -0.12296,0.28614c-0.27994,0.07267 -0.7098,0.17866 -1.21123,0.28333c-1.12064,0.23391 -2.59876,0.48875 -3.55988,0.6607c-1.95253,0.34933 -3.99995,0.69472 -4.71058,0.81386c-0.16769,0.02812 -0.24162,-0.08409 -0.2121,-0.28764z" fill="url(#color-33)" stroke="url(#color-34)" stroke-width="0.75" stroke-linecap="round"/><path d="M271.40465,133.71961c-0.301,-0.01145 -0.53251,-0.12198 -0.62401,-0.29898c-0.341,-0.65961 -1.19966,-2.33796 -1.69822,-3.46737c-0.70331,-1.59321 -2.15903,-5.18492 -2.63938,-6.37434c-0.09989,-0.24733 0.08871,-0.39079 0.31596,-0.39079c0.33497,0 1.94563,-0.00423 3.23648,0.38685c0.28202,0.08544 1.19466,0.46336 1.98935,1.21151c1.90765,1.796 4.48865,5.04896 5.81632,6.62015c0.77011,0.91135 1.3088,1.65901 1.56812,2.03394c0.06991,0.10109 -0.04833,0.30861 -0.31044,0.41979c-0.17237,0.0731 -0.43383,0.07767 -0.65013,0.07767c-1.1601,0 -5.54185,-0.16284 -7.00404,-0.21844z" fill="url(#color-35)" stroke="url(#color-36)" stroke-width="0.75" stroke-linecap="round"/><path d="M271.63673,132.28058c0,0 -0.73636,-1.17238 -1.47934,-2.45601c-0.71413,-1.23379 -1.43075,-2.57033 -1.68064,-3.06738c-0.61174,-1.21675 -1.19682,-2.4325 -1.19682,-2.4325" fill="none" stroke="#35363b" stroke-width="1" stroke-linecap="round"/><path d="M274.19547,220.89988c-0.02952,-0.20354 0.04441,-0.31576 0.2121,-0.28764c0.71063,0.11915 2.75806,0.46453 4.71058,0.81386c0.96112,0.17195 2.43924,0.42678 3.55988,0.6607c0.50143,0.10467 0.93129,0.21067 1.21123,0.28333c0.21731,0.05641 0.26346,0.16338 0.12296,0.28614c-0.85375,0.74599 -3.9099,3.41641 -4.40817,3.8518c-0.13435,0.11739 -0.37132,0.21687 -0.57969,0.21687c-1.04615,0 -4.24065,0 -4.783,0c-0.1533,0 -0.24606,-0.13162 -0.19055,-0.34159c0.14601,-0.55236 0.41256,-1.64696 0.4235,-2.31431c0.00559,-0.34069 0.01657,-0.81227 -0.03378,-1.28578c-0.06675,-0.62775 -0.18038,-1.43747 -0.24506,-1.88337z" fill="url(#color-37)" stroke="url(#color-38)" stroke-width="0.75" stroke-linecap="round"/><path d="M271.40464,226.2804c1.4622,-0.0556 5.84395,-0.21844 7.00405,-0.21844c0.2163,0 0.47776,0.00457 0.65013,0.07767c0.26211,0.11118 0.38036,0.3187 0.31043,0.41979c-0.25932,0.37493 -0.798,1.12259 -1.56811,2.03394c-1.32767,1.57119 -3.90867,4.82416 -5.81632,6.62015c-0.79467,0.74815 -1.70734,1.12607 -1.98935,1.21151c-1.29084,0.39108 -2.9015,0.38685 -3.23647,0.38685c-0.22726,0 -0.41586,-0.14346 -0.31597,-0.39079c0.48035,-1.18941 1.93607,-4.78113 2.63938,-6.37434c0.49856,-1.1294 1.35721,-2.80776 1.69822,-3.46737c0.0915,-0.177 0.32301,-0.28753 0.62401,-0.29898z" fill="url(#color-39)" stroke="url(#color-40)" stroke-width="0.75" stroke-linecap="round"/><path d="M267.27993,235.67533c0,0 0.58507,-1.21575 1.19682,-2.4325c0.24989,-0.49705 0.96652,-1.83359 1.68064,-3.06738c0.74298,-1.28363 1.47933,-2.45601 1.47933,-2.45601" fill="none" stroke="#373133" stroke-width="1" stroke-linecap="round"/><path d="M119.38752,180.01589c0,0 0.2496,5.90206 1.52963,12.04537c0.47188,2.2647 1.97774,7.59983 3.98266,11.772c0.89809,1.86891 2.64762,4.57937 4.66589,6.77602c1.85512,2.01908 4.01078,3.59355 4.3318,3.91121c0.17366,0.17184 0.13465,0.46213 -0.04862,0.59942c-0.13679,0.10245 -0.38387,0.08974 -0.52131,0.04057c-0.94575,-0.33836 -3.07133,-1.25168 -5.13637,-3.1952c-1.15363,-1.08573 -3.81014,-4.25797 -5.73234,-7.99208c-2.11239,-4.10358 -3.53205,-8.82951 -3.98842,-10.89485c-1.40388,-6.35351 -1.57989,-12.89027 -1.57989,-12.89027v-0.37617c0,0 0.17601,-6.53677 1.57989,-12.89028c0.45636,-2.06535 1.87603,-6.79127 3.98842,-10.89485c1.9222,-3.7341 4.57872,-6.90634 5.73234,-7.99207c2.06504,-1.94352 4.19062,-2.85684 5.13637,-3.1952c0.13744,-0.04917 0.38452,-0.06189 0.52131,0.04057c0.18327,0.13729 0.22229,0.42757 0.04862,0.59942c-0.32103,0.31767 -2.47668,1.89214 -4.3318,3.91121c-2.01826,2.19665 -3.7678,4.90712 -4.66589,6.77603c-2.00492,4.17218 -3.51078,9.50729 -3.98266,11.77199c-1.28003,6.1433 -1.52963,12.04538 -1.52963,12.04538z" fill="url(#color-41)" stroke="url(#color-42)" stroke-width="0.75" stroke-linecap="round"/><path d="M173.68269,180.03427c0,0 0,28.22649 0,30.141c0,0.20162 -0.11551,0.37981 -0.33222,0.376c-0.41371,-0.00727 -3.22396,-0.04402 -6.42547,-0.14591c-3.65177,-0.1162 -7.8126,-0.30288 -9.50658,-0.37763c-5.12981,-0.22636 -10.07372,-0.57595 -12.4337,-0.92974c-4.41403,-0.66174 -7.1282,-2.74516 -7.91655,-3.53572c-1.62051,-1.62504 -4.20677,-7.18279 -5.35016,-12.99c-0.11562,-0.58725 -0.60091,-3.38421 -0.84066,-6.2828c-0.25484,-3.08101 -0.26117,-6.25517 -0.26117,-6.25517v-0.06856c0,0 0.00634,-3.17416 0.26117,-6.25517c0.23974,-2.8986 0.72503,-5.69555 0.84066,-6.2828c1.14338,-5.80722 3.72965,-11.36496 5.35016,-12.99c0.78835,-0.79056 3.50252,-2.87398 7.91655,-3.53572c2.35997,-0.3538 7.30389,-0.70339 12.4337,-0.92974c1.69397,-0.07476 5.85481,-0.26143 9.50658,-0.37763c3.2015,-0.10189 6.01174,-0.13863 6.42547,-0.14591c0.21671,-0.0038 0.33222,0.17438 0.33222,0.376c0,1.91451 0,30.141 0,30.141z" fill="url(#color-43)" stroke="url(#color-44)" stroke-width="0.75" stroke-linecap="round"/><path d="M163.59855,180.03427c0,0 -0.03725,4.92037 0.11969,10.64409c0.11498,4.19313 0.43744,8.81741 0.43744,12.25414c0,1.13583 0.17568,2.58612 -0.54369,3.50044c-0.39739,0.50509 -0.97919,1.0608 -1.61758,1.34554c-0.97403,0.43445 -2.00585,0.46 -2.13429,0.45589c-2.2324,-0.07134 -5.18443,-0.18327 -8.05612,-0.34554c-1.857,-0.10493 -3.6804,-0.23838 -5.25389,-0.38661c-0.1385,-0.01306 -1.47405,-0.21159 -2.74499,-0.66255c-0.99913,-0.35453 -1.95833,-0.95018 -2.26456,-1.15723c-1.11632,-0.75478 -2.21963,-1.8142 -3.21859,-3.06476c-1.3084,-1.63791 -3.24214,-5.43242 -4.35709,-9.12459c-0.54113,-1.79198 -0.97387,-5.10809 -1.21663,-8.00015c-0.24763,-2.94994 -0.24414,-5.45866 -0.24414,-5.45866v-0.06853c0,0 -0.00349,-2.50872 0.24414,-5.45866c0.24276,-2.89206 0.67548,-6.20817 1.21663,-8.00015c1.11496,-3.69217 3.04869,-7.48668 4.35709,-9.12459c0.99896,-1.25055 2.10226,-2.30998 3.21859,-3.06476c0.30623,-0.20705 1.26542,-0.8027 2.26456,-1.15723c1.27094,-0.45096 2.6065,-0.6495 2.74499,-0.66255c1.57349,-0.14822 3.3969,-0.28168 5.2539,-0.38661c2.87169,-0.16227 5.82371,-0.27422 8.05612,-0.34555c0.12844,-0.00411 1.16026,0.02146 2.13429,0.4559c0.63839,0.28474 1.22018,0.84045 1.61758,1.34554c0.71937,0.91432 0.54369,2.36462 0.54369,3.50044c0,3.43673 -0.32246,8.061 -0.43744,12.25413c-0.15694,5.72372 -0.11969,10.64409 -0.11969,10.64409z" fill="url(#color-45)" stroke="url(#color-46)" stroke-width="0.75" stroke-linecap="round"/><path d="M264.11923,180.60836c0,0 -0.01689,6.40843 -1.10564,12.85652c-0.96163,5.69514 -2.96767,11.42124 -3.54561,12.79018c-1.78179,4.22039 -4.03571,8.20109 -4.6558,9.27334c-0.10599,0.18328 -0.30875,0.26433 -0.57954,0.23292c-1.11472,-0.1293 -4.36945,-0.49853 -8.49289,-0.8917c-2.58575,-0.24656 -8.58318,-0.77207 -14.72003,-1.23505c-6.33589,-0.47799 -12.82039,-0.89279 -15.85239,-1.08963c-7.26382,-0.47158 -15.29077,-0.92243 -17.98852,-1.05113c-11.35224,-0.54155 -21.4834,-0.87022 -23.50551,-0.93417c-0.24146,-0.00765 -0.33288,-0.1403 -0.35494,-0.37662c-0.10571,-1.13223 -0.43632,-4.7326 -0.72034,-8.46135c-0.21284,-2.79426 -0.36713,-5.68084 -0.47893,-7.7002c-0.26684,-4.81991 -0.45019,-13.93931 -0.45019,-13.93931v-0.16433c0,0 0.18335,-9.11942 0.45019,-13.93931c0.1118,-2.01935 0.26609,-4.90593 0.47893,-7.7002c0.28402,-3.72876 0.61463,-7.32913 0.72034,-8.46135c0.02205,-0.23633 0.11348,-0.36898 0.35494,-0.37662c2.02211,-0.06394 12.15327,-0.39262 23.50551,-0.93417c2.69776,-0.12869 10.7247,-0.57955 17.98852,-1.05113c3.03199,-0.19684 9.51649,-0.61163 15.85239,-1.08963c6.13684,-0.46297 12.13429,-0.98849 14.72003,-1.23505c4.12343,-0.39318 7.37816,-0.76239 8.49289,-0.8917c0.2708,-0.03141 0.47355,0.04964 0.57954,0.23292c0.62009,1.07225 2.87402,5.05295 4.6558,9.27334c0.57794,1.36894 2.58399,7.09503 3.54561,12.79018c1.08875,6.44809 1.10564,12.85652 1.10564,12.85652z" fill="url(#color-47)" stroke="url(#color-48)" stroke-width="0.75" stroke-linecap="round"/><path d="M255.12152,180.13477c0,0 -0.03731,2.29382 -0.32039,5.02909c-0.27424,2.6499 -0.73621,5.71411 -1.07791,7.50835c-0.61102,3.20843 -1.61036,6.43907 -2.10668,8.02624c-1.01585,3.24858 -2.23328,6.2912 -2.65587,7.32216c-0.09807,0.23926 -0.27955,0.37018 -0.52166,0.37018c-5.54102,0 -71.78445,0 -74.92845,0c-0.2295,0 -0.38052,-0.14589 -0.40224,-0.40948c-0.14517,-1.76081 -0.71611,-8.77384 -0.92316,-12.63369c-0.04991,-0.93034 -0.20831,-3.83028 -0.31122,-6.78825c-0.13117,-3.77051 -0.20501,-7.63532 -0.20501,-7.63532v-1.8481c0,0 0.07384,-3.86481 0.20501,-7.63532c0.1029,-2.95798 0.26131,-5.85791 0.31122,-6.78826c0.20704,-3.85985 0.77798,-10.87288 0.92316,-12.63368c0.02173,-0.26359 0.17274,-0.40948 0.40224,-0.40948c3.14399,0 69.38743,0 74.92845,0c0.24211,0 0.42358,0.13091 0.52166,0.37018c0.42259,1.03096 1.64001,4.07357 2.65587,7.32216c0.49632,1.58717 1.49567,4.81782 2.10668,8.02624c0.3417,1.79423 0.80367,4.85846 1.07791,7.50835c0.28307,2.73528 0.32039,5.02908 0.32039,5.02908z" fill="url(#color-49)" stroke="url(#color-50)" stroke-width="0.75" stroke-linecap="round"/><path d="M209.60668,180.13479c0,0 0,17.12819 0,22.468c0,0.0768 0.03253,0.49374 -0.08124,0.96761c-0.10815,0.45053 -0.35359,0.95253 -0.69434,1.26261c-0.27286,0.24831 -0.69465,0.54426 -1.12959,0.68627c-0.75344,0.24599 -1.54634,0.24061 -1.67287,0.24061c-5.52147,0 -15.99686,0 -20.94207,0c-0.29197,0 -1.33672,-0.03793 -2.40075,-0.351c-0.83707,-0.2463 -1.68607,-0.703 -2.18983,-1.17268c-0.42942,-0.40036 -1.0473,-1.14538 -1.43482,-2.09784c-0.49579,-1.21866 -0.71499,-2.67641 -0.75722,-3.10899c-0.22002,-2.25376 -0.21562,-4.70258 -0.21562,-6.10835c0,-5.93926 0,-12.89148 0,-12.89148v-0.05908c0,0 0,-6.95223 0,-12.89149c0,-1.40577 -0.00441,-3.8546 0.21562,-6.10835c0.04224,-0.43258 0.26143,-1.89033 0.75722,-3.10899c0.38751,-0.95246 1.0054,-1.69748 1.43482,-2.09784c0.50376,-0.46967 1.35276,-0.92638 2.18983,-1.17267c1.06402,-0.31307 2.10879,-0.35099 2.40075,-0.35099c4.94522,0 15.42061,0 20.94207,0c0.12652,0 0.91943,-0.00539 1.67287,0.2406c0.43494,0.14201 0.85673,0.43796 1.12959,0.68627c0.34073,0.31008 0.58619,0.81208 0.69434,1.26261c0.11377,0.47388 0.08124,0.89082 0.08124,0.96761c0,5.33981 0,22.46801 0,22.46801z" fill="url(#color-51)" stroke="url(#color-52)" stroke-width="0.75" stroke-linecap="round"/><path d="M245.56121,180.02953c0,0 -0.00926,3.05463 -0.3187,7.02214c-0.19408,2.48848 -0.54005,5.33608 -0.97075,8.01433c-0.68025,4.23004 -2.05146,8.01188 -2.72333,9.37336c-0.03248,0.06581 -0.38883,0.68401 -1.0099,1.00233c-0.60168,0.30838 -1.46893,0.3182 -1.48426,0.3182c-4.63745,0 -14.46086,0 -19.63868,0c-0.11864,0 -0.86221,0.00538 -1.56875,-0.24061c-0.40787,-0.14201 -0.8034,-0.43796 -1.0593,-0.68627c-0.31952,-0.31008 -0.5497,-0.81208 -0.65112,-1.26261c-0.10668,-0.47387 -0.07619,-0.89082 -0.07619,-0.96761c0,-5.33981 0,-22.46801 0,-22.46801v-0.26957c0,0 0,-17.12819 0,-22.46801c0,-0.0768 -0.0305,-0.49373 0.07619,-0.96761c0.10143,-0.45053 0.3316,-0.95253 0.65112,-1.26261c0.2559,-0.24831 0.65143,-0.54427 1.0593,-0.68627c0.70655,-0.24599 1.45011,-0.2406 1.56875,-0.2406c5.17783,0 15.00124,0 19.63868,0c0.01533,0 0.88258,0.00981 1.48426,0.31819c0.62106,0.31832 0.97742,0.93652 1.0099,1.00233c0.67186,1.36148 2.04308,5.14331 2.72333,9.37336c0.4307,2.67826 0.77666,5.52586 0.97075,8.01433c0.30943,3.9675 0.3187,7.02214 0.3187,7.02214z" data-paper-data="{&quot;index&quot;:null}" fill="url(#color-53)" stroke="url(#color-54)" stroke-width="0.75" stroke-linecap="round"/><path d="M306.31909,180.13481c0,0 0.00961,5.17159 -0.42369,9.93024c-0.13342,1.46531 -0.3641,4.00371 -1.08428,6.85997c-1.03842,4.11834 -2.75385,8.78397 -3.79799,10.89169c-2.38651,4.81746 -5.41453,9.38987 -6.22228,10.58539c-0.13284,0.19663 -0.41086,0.30044 -0.78438,0.29635c-1.19786,-0.01313 -4.12666,-0.05328 -7.56883,-0.1588c-4.93399,-0.15125 -10.98561,-0.47925 -14.70646,-0.74916c-5.63299,-0.40861 -15.39138,-1.74723 -17.43705,-2.03212c-0.24818,-0.03456 -0.28002,-0.21204 -0.09913,-0.50103c0.69418,-1.10909 2.53795,-4.1413 4.13093,-7.5222c0.80785,-1.71455 2.30688,-5.50042 3.31631,-9.13242c0.93973,-3.38124 1.41305,-6.62913 1.6081,-7.94826c0.77493,-5.24106 0.8689,-10.46703 0.8689,-10.46703v-0.37482c0,0 -0.09397,-5.22598 -0.8689,-10.46704c-0.19504,-1.31913 -0.66836,-4.56702 -1.6081,-7.94826c-1.00943,-3.632 -2.50847,-7.41786 -3.31631,-9.13241c-1.59298,-3.38091 -3.43676,-6.41312 -4.13093,-7.52221c-0.18088,-0.28899 -0.14905,-0.46647 0.09913,-0.50104c2.04568,-0.28489 11.80407,-1.6235 17.43705,-2.03212c3.72084,-0.26991 9.77248,-0.5979 14.70646,-0.74916c3.44217,-0.10553 6.37097,-0.14567 7.56883,-0.1588c0.37352,-0.00409 0.65154,0.09972 0.78438,0.29635c0.80775,1.19552 3.83576,5.76793 6.22228,10.58539c1.04415,2.10772 2.75958,6.77336 3.79799,10.89169c0.72018,2.85627 0.95086,5.39466 1.08428,6.85997c0.4333,4.75864 0.42369,9.93023 0.42369,9.93023z" fill="url(#color-55)" stroke="url(#color-56)" stroke-width="0.75" stroke-linecap="round"/><path d="M300.63634,180.08219c0,0 0.05539,4.56523 -0.62932,9.55516c-0.20795,1.51543 -0.89001,5.07787 -1.92463,8.67293c-1.01594,3.53018 -2.37937,7.08994 -3.15562,8.97687c-1.39747,3.39694 -3.30096,6.6712 -3.81265,7.47158c-0.48149,0.75317 -1.05337,1.4086 -1.47123,1.84658c-0.34323,0.35976 -0.96396,0.56087 -1.63363,0.5368c-2.26092,-0.08125 -7.80765,-0.30084 -13.05666,-0.66676c-4.84994,-0.33811 -9.44571,-0.95729 -10.96048,-1.18518c-1.84672,-0.27784 -3.2906,-0.58033 -4.22696,-0.79949c-0.79434,-0.1859 -1.67514,-0.87167 -1.37843,-1.80591c0.54878,-1.72788 2.06188,-4.6839 3.16432,-7.80039c0.5408,-1.52881 1.79231,-5.42365 2.60493,-9.21182c0.7969,-3.71487 1.23084,-7.34496 1.3783,-8.70935c0.03935,-0.36407 0.2218,-0.61705 0.46938,-0.69625c0.56984,-0.18227 1.58504,-0.51795 2.07714,-0.74761c0.28007,-0.1307 0.62429,-0.30321 0.90792,-0.50311c0.31167,-0.21966 0.55022,-0.70016 0.55022,-0.93506c0,-0.68255 0,-3.999 0,-3.999v-0.16433c0,0 0,-3.31645 0,-3.99899c0,-0.23489 -0.23855,-0.7154 -0.55022,-0.93506c-0.28364,-0.1999 -0.62785,-0.37242 -0.90792,-0.50312c-0.4921,-0.22966 -1.5073,-0.56534 -2.07714,-0.7476c-0.24757,-0.07919 -0.43003,-0.33218 -0.46938,-0.69625c-0.14745,-1.3644 -0.5814,-4.99448 -1.3783,-8.70935c-0.81261,-3.78816 -2.06413,-7.68301 -2.60493,-9.21182c-1.10244,-3.11649 -2.61554,-6.07251 -3.16432,-7.80039c-0.29672,-0.93426 0.58409,-1.62001 1.37843,-1.80592c0.93636,-0.21915 2.38024,-0.52165 4.22696,-0.79948c1.51477,-0.22789 6.11053,-0.84706 10.96048,-1.18517c5.24901,-0.36593 10.79575,-0.58552 13.05666,-0.66677c0.66967,-0.02407 1.2904,0.17704 1.63363,0.5368c0.41787,0.43797 0.98973,1.0934 1.47123,1.84658c0.51168,0.80039 2.41518,4.07463 3.81265,7.47158c0.77625,1.88693 2.13968,5.44669 3.15562,8.97687c1.03462,3.59506 1.71668,7.1575 1.92463,8.67293c0.68471,4.98993 0.62932,9.55516 0.62932,9.55516z" fill="url(#color-57)" stroke="url(#color-58)" stroke-width="0.75" stroke-linecap="round"/><path d="M173.67329,149.44035c2.02211,-0.06394 12.15327,-0.39262 23.50551,-0.93417c2.69776,-0.12869 10.72469,-0.57954 17.98852,-1.05112c3.03199,-0.19684 9.5165,-0.61164 15.85239,-1.08964c6.13684,-0.46297 12.13428,-0.98849 14.72003,-1.23504c4.12343,-0.39318 7.37816,-0.76239 8.49288,-0.89169c0.2708,-0.03141 -0.18668,0.03752 0.0615,0.00296c2.04568,-0.28489 11.80407,-1.6235 17.43705,-2.03212c3.72084,-0.26991 9.77249,-0.5979 14.70647,-0.74916c3.44217,-0.10553 6.37097,-0.14567 7.56883,-0.1588c0.37352,-0.00409 0.65153,0.09971 0.78438,0.29634c0.80775,1.19552 3.83576,5.76793 6.22228,10.58539c1.04415,2.10772 2.75958,6.77335 3.79799,10.89169c0.72018,2.85627 0.95085,5.39467 1.08428,6.85998c0.4333,4.75864 0.42369,9.93023 0.42369,9.93023v0.26959c0,0 0.00313,1.68812 -0.07499,4.02287c-0.00871,0.26034 -0.05158,0.28991 -0.15708,0.25727c-3.04032,-0.94054 -18.82736,-5.68063 -37.21109,-8.56005c-17.99227,-2.81811 -38.43697,-3.36607 -52.33116,-3.51055c-13.29692,-0.13827 -35.40484,0.51086 -52.30673,2.90774c-17.6703,2.50583 -30.54749,6.44981 -33.26912,7.32162c-0.14519,0.0465 -0.29877,0.03869 -0.30344,-0.10274c-0.04728,-1.42991 -0.04928,-2.43667 -0.04928,-2.43667v-0.06856c0,0 0.00633,-3.17416 0.26117,-6.25517c0.23974,-2.8986 0.72504,-5.69555 0.84066,-6.2828c1.14338,-5.80722 3.72964,-11.36496 5.35015,-12.99c0.78835,-0.79056 3.50252,-2.87398 7.91655,-3.53572c2.35997,-0.3538 7.30389,-0.70338 12.4337,-0.92974c1.69397,-0.07476 5.85482,-0.26143 9.50659,-0.37763c3.2015,-0.10189 6.01174,-0.13863 6.42547,-0.1459c0.21671,-0.0038 0.08138,-0.00075 0.32283,-0.00839z" fill="url(#color-59)" stroke="url(#color-60)" stroke-width="0.75" stroke-linecap="round"/><path d="M4.42566,361.63478v-360.53868h472.87786v360.53869z" fill="none" stroke="none" stroke-width="0" stroke-linecap="butt"/></g></g></svg>