<svg version="1.1" xmlns="http://www.w3.org/2000/svg" xmlns:xlink="http://www.w3.org/1999/xlink" width="292.71415" height="170.57135" viewBox="0,0,292.71415,170.57135"><defs><linearGradient x1="239.85622" y1="197.02906" x2="239.85622" y2="184.23692" gradientUnits="userSpaceOnUse" id="color-1"><stop offset="0" stop-color="#8a8a8a"/><stop offset="1" stop-color="#c8c8c8"/></linearGradient><linearGradient x1="238.64101" y1="177.40711" x2="238.64101" y2="189.5733" gradientUnits="userSpaceOnUse" id="color-2"><stop offset="0" stop-color="#ff0000"/><stop offset="1" stop-color="#d00000"/></linearGradient><linearGradient x1="235.82445" y1="178.53802" x2="235.82445" y2="181.57616" gradientUnits="userSpaceOnUse" id="color-3"><stop offset="0" stop-color="#3e3e3e"/><stop offset="1" stop-color="#101010"/></linearGradient><linearGradient x1="243.93203" y1="178.2494" x2="243.93203" y2="181.35607" gradientUnits="userSpaceOnUse" id="color-4"><stop offset="0" stop-color="#3e3e3e"/><stop offset="1" stop-color="#000000"/></linearGradient><linearGradient x1="238.5992" y1="184.61392" x2="238.5992" y2="189.59947" gradientUnits="userSpaceOnUse" id="color-5"><stop offset="0" stop-color="#900000" stop-opacity="0"/><stop offset="1" stop-color="#900000"/></linearGradient><linearGradient x1="253.83711" y1="181.71764" x2="253.83711" y2="182.66027" gradientUnits="userSpaceOnUse" id="color-6"><stop offset="0" stop-color="#ffffff"/><stop offset="1" stop-color="#ffffff" stop-opacity="0"/></linearGradient><linearGradient x1="221.11323" y1="180.60701" x2="236.18881" y2="176.95233" gradientUnits="userSpaceOnUse" id="color-7"><stop offset="0" stop-color="#efefef"/><stop offset="1" stop-color="#efefef" stop-opacity="0"/></linearGradient></defs><g transform="translate(-90.15245,-91.35976)"><g data-paper-data="{&quot;isPaintingLayer&quot;:true}" fill-rule="nonzero" stroke-linejoin="miter" stroke-miterlimit="10" stroke-dasharray="" stroke-dashoffset="0" style="mix-blend-mode: normal"><path d="M202.26223,204.00962v-48.01924h75.47561v48.01924z" fill="#efefef" stroke="none" stroke-width="0" stroke-linecap="butt"/><path d="M90.15246,261.93111v-170.57135h292.71415v170.57135z" fill="none" stroke="none" stroke-width="0" stroke-linecap="butt"/><path d="M209.20935,197.14149v-34.13829h61.42629v34.13829z" fill="#d5d5d5" stroke="none" stroke-width="0" stroke-linecap="butt"/><path d="M270.55526,184.23692v12.79214h-61.39811v-12.79214z" data-paper-data="{&quot;index&quot;:null}" fill="url(#color-1)" stroke="none" stroke-width="0" stroke-linecap="butt"/><text transform="translate(226.59063,174.13379) scale(0.3145,0.3145)" font-size="40" xml:space="preserve" fill="#4d4d4d" fill-rule="nonzero" stroke="#4d4d4d" stroke-width="3" stroke-linecap="butt" stroke-linejoin="miter" stroke-miterlimit="10" stroke-dasharray="" stroke-dashoffset="0" font-family="Sans Serif" font-weight="normal" text-anchor="start" style="mix-blend-mode: normal"><tspan x="0" dy="0">车库</tspan></text><path d="M264.89315,188.82486c0,2.01447 -11.75333,3.64751 -26.2518,3.64751c-14.49847,0 -26.2518,-1.63304 -26.2518,-3.64751c0,-2.01447 11.75333,-3.64751 26.2518,-3.64751c14.49847,0 26.2518,1.63305 26.2518,3.64751z" fill="#6a6a6a" stroke="none" stroke-width="0" stroke-linecap="butt"/><path d="M257.69975,189.19055c0,-0.76706 0,-1.84236 0,-2.23363c0,-0.28539 0.42507,-0.62061 0.86271,-0.62061c1.1169,0 6.06175,0 7.97726,0c0.47327,0 0.76161,0.21958 0.76161,0.54083c0,0.69243 0,1.85719 0,2.31341c0,0.36119 -0.32094,0.83478 -0.84139,0.83478c-1.96946,0 -6.79576,0 -7.89748,0c-0.43764,0 -0.86271,-0.35779 -0.86271,-0.83478z" fill="#1e1e1e" stroke="none" stroke-width="0" stroke-linecap="butt"/><g stroke-width="0" stroke-linecap="butt"><path d="M258.95714,180.21124c0,-2.20441 1.78703,-3.99143 3.99144,-3.99143c2.20441,0 3.99143,1.78703 3.99143,3.99143c0,2.20441 -1.78702,3.99143 -3.99143,3.99143c-2.20441,0 -3.99144,-1.78702 -3.99144,-3.99143z" fill="#1e1e1e" stroke="none"/><path d="M259.83759,180.27285c0,-1.73847 1.4093,-3.14777 3.14777,-3.14777c1.73847,0 3.14777,1.4093 3.14777,3.14777c0,1.73847 -1.4093,3.14777 -3.14777,3.14777c-1.73847,0 -3.14777,-1.4093 -3.14777,-3.14777z" fill="#d8d8d8" stroke="none"/><path d="M260.27142,180.23521c0,-1.49179 1.20934,-2.70113 2.70113,-2.70113c1.4918,0 2.70113,1.20934 2.70113,2.70113c0,1.49179 -1.20934,2.70113 -2.70113,2.70113c-1.4918,0 -2.70113,-1.20934 -2.70113,-2.70113z" fill="#404040" stroke="none"/><path d="M262.36717,179.8383l0.19851,-2.33248l0.79403,0.02482l0.12407,2.28284z" fill="#d3d3d3" stroke="#000000"/><path d="M263.36325,179.49609l2.2621,-0.60224l0.24526,0.75561l-2.10628,0.88901z" fill="#d3d3d3" stroke="#000000"/><path d="M262.15828,180.48486l-2.21025,-0.77106l0.22106,-0.76305l2.24223,0.44627z" fill="#d3d3d3" stroke="#000000"/><path d="M262.99958,181.11357l-1.57309,1.73354l-0.6161,-0.50152l1.28657,-1.88984z" fill="#d3d3d3" stroke="#000000"/><path d="M263.80105,180.49055l1.28628,1.95583l-0.63937,0.47149l-1.5091,-1.71736z" fill="#d3d3d3" stroke="#000000"/><path d="M261.72204,180.26012c0,-0.65779 0.53326,-1.19105 1.19106,-1.19105c0.6578,0 1.19103,0.53325 1.19103,1.19105c0,0.65779 -0.53324,1.19105 -1.19103,1.19105c-0.6578,0 -1.19106,-0.53325 -1.19106,-1.19105z" fill="#d3d3d3" stroke="none"/></g><path d="M257.97123,185.54877c0,-0.76706 0,-1.84236 0,-2.23363c0,-0.28539 0.42507,-0.62061 0.86271,-0.62061c1.1169,0 6.06175,0 7.97726,0c0.47327,0 0.76161,0.21959 0.76161,0.54084c0,0.69243 0,1.85719 0,2.3134c0,0.36119 -0.32094,0.83478 -0.84139,0.83478c-1.96946,0 -6.79576,0 -7.89748,0c-0.43764,0 -0.86271,-0.35779 -0.86271,-0.83478z" fill="#1e1e1e" stroke="none" stroke-width="0" stroke-linecap="butt"/><g><path d="M221.20134,189.19356l-0.98313,-5.92856h38.491l-0.77459,6.10732z" fill="#000000" stroke="none" stroke-width="0" stroke-linecap="butt"/><path d="M214.50211,184.53639c0,0 1.40114,-1.34988 1.64986,-1.95076c0.09252,-0.2235 -0.49863,-0.41288 -0.48588,-0.66141c0.01719,-0.33511 0.28356,-0.61193 0.28356,-0.61193l2.59439,-0.12759c0,0 12.41326,-4.18431 18.37345,-3.74528c5.50727,0.40121 10.1224,3.83034 10.1224,3.83034c0,0 9.94282,0.23521 12.74977,1.09064c0.68804,0.20968 2.77312,0.81037 2.90073,1.45555c0.03231,0.16332 -0.17847,0.50967 -0.2808,0.9384c-0.12775,0.53521 -0.15774,1.15129 -0.15774,1.15129c0,0 0.59602,-0.039 0.69835,0.14157c0.13135,0.23181 0.02468,1.13436 0.02468,1.13436l-0.80809,0.25518l0.04088,0.92785l0.65471,0.50362c0,0 -1.1822,0.2404 -1.95682,0.32155c-0.95144,0.09968 -3.33121,0.23244 -3.33121,0.23244c0,0 0.65241,-5.53815 -3.92411,-5.4686c-4.83107,0.07342 -4.18421,5.61969 -4.18421,5.61969h-19.57831c0,0 0.3874,-5.16365 -3.90102,-5.38797c-4.71229,-0.2465 -4.44206,5.13604 -4.44206,5.13604c0,0 -2.39595,-0.0028 -3.51525,-0.12833c-1.06613,-0.11956 -3.04879,-0.60783 -3.04879,-0.60783c0,0 -0.65176,-1.16639 -0.71275,-1.70002c-0.03322,-0.29065 0.48538,-0.63538 0.54404,-1.02696c0.08381,-0.5594 -0.30979,-1.32187 -0.30979,-1.32187z" fill="url(#color-2)" stroke="#000000" stroke-width="0" stroke-linecap="round"/><path d="M228.09769,181.06969c0,0 -1.4515,-0.72949 -0.84213,-1.04802c0.69115,-0.36128 4.6257,-1.00761 4.6257,-1.00761c0,0 3.08392,-0.79789 6.61378,-0.32771c3.52985,0.47018 6.04773,2.8898 6.04773,2.8898z" fill="url(#color-3)" stroke="none" stroke-width="0" stroke-linecap="butt"/><path d="M240.81879,178.66649l0.47667,-0.41709c0,0 1.78498,0.7222 2.70758,1.20022c0.98934,0.51262 3.04224,1.77895 3.04224,1.77895c0,0 -0.86847,0.16376 -1.2288,0.12009c-0.21017,-0.02548 -0.73746,-0.35842 -0.73746,-0.35842c0,0 -1.17215,-0.74641 -1.82463,-1.11926c-0.72924,-0.41672 -2.4356,-1.2045 -2.4356,-1.2045z" fill="url(#color-4)" stroke="none" stroke-width="0" stroke-linecap="butt"/><path d="M245.80518,181.92354l0.60794,1.37799l-0.24317,4.4582l-0.52688,1.09428l-11.02391,-0.24318c0,0 -1.17633,-1.21603 -1.6139,-2.11106c-0.4535,-0.92761 -1.06102,-3.36036 -1.06102,-3.36036l0.64846,-1.62116" fill="none" stroke="#9f0000" stroke-width="0.25" stroke-linecap="round"/><path d="M216.06291,182.52756l-0.3161,-0.55925c0,0 0.42246,-0.04104 0.80153,0.05223c0.2397,0.05899 0.44745,0.23004 0.56641,0.31382c0.26075,0.18363 0.35847,0.84973 0.35847,0.84973l-1.06988,1.02126l-1.55672,-0.11196z" fill="#3f403b" stroke="none" stroke-width="0" stroke-linecap="butt"/><path d="M256.79382,183.18845c0,0 4.02582,0.38283 4.17968,0.54268c0.16204,0.16836 -0.38201,1.00213 -0.38201,1.00213c0,0 -1.89611,-0.119 -2.60388,-0.31056c-0.65001,-0.17593 -1.29114,-0.92462 -1.29114,-0.92462z" fill="#ebebeb" stroke="none" stroke-width="0" stroke-linecap="butt"/><path d="M258.67481,184.0456c0,-0.30214 0.12247,-0.54709 0.27354,-0.54709c0.15107,0 0.27354,0.24495 0.27354,0.54709c0,0.30214 -0.12246,0.54708 -0.27354,0.54708c-0.15107,0 -0.27354,-0.24493 -0.27354,-0.54708z" fill="#ffffff" stroke="none" stroke-width="0" stroke-linecap="butt"/><path d="M224.85262,188.076c0,-0.43437 0.35213,-0.78649 0.7865,-0.78649c0.43437,0 0.78649,0.35212 0.78649,0.78649c0,0.43437 -0.35212,0.78649 -0.78649,0.78649c-0.43437,0 -0.7865,-0.35212 -0.7865,-0.78649z" fill="none" stroke="#bababa" stroke-width="1.5" stroke-linecap="butt"/><path d="M214.98395,188.56959c0,0 -0.70677,-0.88562 -0.57738,-1.76429c0.11504,-0.7812 0.42269,-0.50679 0.44496,-0.93807c0.02837,-0.54925 -0.25379,-1.25331 -0.25379,-1.25331c0,0 40.36574,-0.76128 46.6994,-0.59817c1.73555,0.0447 0.78853,1.82116 0.78853,1.82116c0,0 0.78169,0.00397 0.79346,0.2533c0.01219,0.25813 0.22494,0.58163 0.04426,0.97118c-0.12635,0.27242 -0.56467,0.12507 -0.75128,0.3744c-0.08696,0.11619 -0.01849,0.67124 -0.02107,0.75547c-0.01392,0.45567 0.5783,0.63581 0.5783,0.63581c0,0 -0.88219,0.23521 -1.5133,0.3062c-0.94685,0.1065 -3.61545,0.27071 -3.61545,0.27071l0.02724,-1.24499c0,0 -6.79492,-0.52487 -7.57379,-0.52916c-0.3345,-0.00185 -0.64342,1.89547 -0.64342,1.89547l-19.51441,0.04905l-0.00161,-0.44923c0,0 -9.05216,0.20172 -10.22291,0.17653c-2.09659,-0.0451 -4.68774,-0.73205 -4.68774,-0.73205z" fill="url(#color-5)" stroke="none" stroke-width="0" stroke-linecap="butt"/><g stroke-width="0" stroke-linecap="butt"><path d="M222.28409,188.04427c0,-1.87914 1.52335,-3.40249 3.40249,-3.40249c1.87914,0 3.40248,1.52335 3.40248,3.40249c0,1.87914 -1.52334,3.40249 -3.40248,3.40249c-1.87914,0 -3.40249,-1.52335 -3.40249,-3.40249z" fill="#1e1e1e" stroke="none"/><path d="M223.03463,188.09678c0,-1.48195 1.20136,-2.68331 2.68331,-2.68331c1.48195,0 2.68331,1.20136 2.68331,2.68331c0,1.48195 -1.20136,2.68332 -2.68331,2.68332c-1.48195,0 -2.68331,-1.20136 -2.68331,-2.68332z" fill="#d8d8d8" stroke="none"/><path d="M223.40443,188.06469c0,-1.27167 1.0309,-2.30258 2.30257,-2.30258c1.27167,0 2.30258,1.03091 2.30258,2.30258c0,1.27167 -1.0309,2.30257 -2.30258,2.30257c-1.27167,0 -2.30257,-1.0309 -2.30257,-2.30257z" fill="#404040" stroke="none"/><path d="M225.19097,187.72634l0.16922,-1.9883l0.67687,0.02115l0.10576,1.94601z" fill="#d3d3d3" stroke="#000000"/><path d="M226.04008,187.43464l1.92833,-0.51338l0.20907,0.64412l-1.79549,0.75784z" fill="#d3d3d3" stroke="#000000"/><path d="M225.01288,188.27751l-1.88414,-0.6573l0.18845,-0.65045l1.91138,0.38041z" fill="#d3d3d3" stroke="#000000"/><path d="M225.73006,188.81345l-1.34098,1.47776l-0.52519,-0.42753l1.09674,-1.61099z" fill="#d3d3d3" stroke="#000000"/><path d="M226.41327,188.28236l1.09649,1.66725l-0.54503,0.40192l-1.28643,-1.46397z" fill="#d3d3d3" stroke="#000000"/><path d="M224.64101,188.08593c0,-0.56073 0.45458,-1.0153 1.01531,-1.0153c0.56073,0 1.01531,0.45457 1.01531,1.0153c0,0.56073 -0.45457,1.01532 -1.01531,1.01532c-0.56073,0 -1.01531,-0.45458 -1.01531,-1.01532z" fill="#d3d3d3" stroke="none"/></g><g stroke-width="0" stroke-linecap="butt"><path d="M250.18118,187.82207c0,-1.87914 1.52335,-3.40249 3.40249,-3.40249c1.87914,0 3.40249,1.52335 3.40249,3.40249c0,1.87914 -1.52335,3.40249 -3.40249,3.40249c-1.87914,0 -3.40249,-1.52335 -3.40249,-3.40249z" fill="#1e1e1e" stroke="none"/><path d="M250.93172,187.87459c0,-1.48195 1.20136,-2.68332 2.68332,-2.68332c1.48195,0 2.68331,1.20137 2.68331,2.68332c0,1.48195 -1.20136,2.68331 -2.68331,2.68331c-1.48196,0 -2.68332,-1.20136 -2.68332,-2.68331z" fill="#d8d8d8" stroke="none"/><path d="M251.30152,187.8425c0,-1.27167 1.03091,-2.30258 2.30258,-2.30258c1.27168,0 2.30257,1.0309 2.30257,2.30258c0,1.27167 -1.03089,2.30257 -2.30257,2.30257c-1.27167,0 -2.30258,-1.0309 -2.30258,-2.30257z" fill="#404040" stroke="none"/><path d="M253.08806,187.50415l0.16922,-1.98831l0.67687,0.02115l0.10576,1.94601z" fill="#d3d3d3" stroke="#000000"/><path d="M253.93716,187.21244l1.92832,-0.51338l0.20908,0.64412l-1.79549,0.75784z" fill="#d3d3d3" stroke="#000000"/><path d="M252.90997,188.05531l-1.88413,-0.65729l0.18844,-0.65045l1.91138,0.38042z" fill="#d3d3d3" stroke="#000000"/><path d="M253.62714,188.59126l-1.34098,1.47776l-0.52518,-0.42753l1.09673,-1.61098z" fill="#d3d3d3" stroke="#000000"/><path d="M254.31034,188.06017l1.09649,1.66724l-0.54503,0.40193l-1.28644,-1.46397z" fill="#d3d3d3" stroke="#000000"/><path d="M252.5381,187.86374c0,-0.56073 0.45458,-1.01531 1.01531,-1.01531c0.56074,0 1.0153,0.45457 1.0153,1.01531c0,0.56073 -0.45457,1.0153 -1.0153,1.0153c-0.56073,0 -1.01531,-0.45457 -1.01531,-1.0153z" fill="#d3d3d3" stroke="none"/></g><path d="M259.30645,188.40541l0.75754,-1.20645h1.4309v0.56114c0,0 0.30742,0.35889 0.06237,0.61057c-0.21133,0.21705 -2.25082,0.03474 -2.25082,0.03474z" fill="#1b1b1b" stroke="none" stroke-width="0" stroke-linecap="butt"/><path d="M261.18627,187.83024c0,0.28666 -0.08165,0.51906 -0.18237,0.51906c-0.10072,0 -0.18237,-0.23239 -0.18237,-0.51906c0,-0.28666 0.08165,-0.51905 0.18237,-0.51905c0.10072,0 0.18237,0.23238 0.18237,0.51905z" fill="#e8e8e8" stroke="none" stroke-width="0" stroke-linecap="butt"/></g><path d="M209.9217,188.73545c0,0 6.64284,0 8.57506,0c0.4774,0 0.76825,0.2215 0.76825,0.54555c0,0.69847 0,1.87339 0,2.33358c0,0.36434 -0.32375,0.84207 -0.84873,0.84207c-1.98665,0 -7.27761,0 -8.38896,0c-0.2923,0 -0.10563,-3.7212 -0.10563,-3.7212z" fill="#1e1e1e" stroke="none" stroke-width="0" stroke-linecap="butt"/><path d="M209.85352,187.94104c0,-0.77375 0,-1.85843 0,-2.25312c0,-0.28788 0.42879,-0.62602 0.87024,-0.62602c1.12665,0 6.11464,0 8.04686,0c0.4774,0 0.76826,0.22151 0.76826,0.54556c0,0.69847 0,1.87339 0,2.33358c0,0.36434 -0.32375,0.84207 -0.84873,0.84207c-1.98665,0 -6.85505,0 -7.96639,0c-0.44145,0 -0.87024,-0.36092 -0.87024,-0.84207z" fill="#1e1e1e" stroke="none" stroke-width="0" stroke-linecap="butt"/><path d="M258.20916,182.47563c-0.02512,0.20659 -2.00292,0.24573 -4.41754,0.0874c-2.41463,-0.15833 -4.3517,-0.45416 -4.32659,-0.66075c0.02511,-0.20659 2.00292,-0.24572 4.41755,-0.08739c2.41462,0.15833 4.35169,0.45415 4.32658,0.66075z" fill="url(#color-6)" stroke="none" stroke-width="0" stroke-linecap="butt"/><path d="M236.18881,176.95233c0.04436,0.18299 -3.29446,1.14946 -7.45747,2.15868c-4.163,1.00922 -7.57375,1.679 -7.61811,1.49601c-0.04436,-0.18299 3.29446,-1.14946 7.45747,-2.15867c4.163,-1.00922 7.57375,-1.679 7.61811,-1.49601z" fill="url(#color-7)" stroke="none" stroke-width="0" stroke-linecap="butt"/></g></g></svg>