<svg version="1.1" xmlns="http://www.w3.org/2000/svg" xmlns:xlink="http://www.w3.org/1999/xlink" width="472.87786" height="360.53869" viewBox="0,0,472.87786,360.53869"><defs><linearGradient x1="230.32558" y1="137.92598" x2="230.32558" y2="150.32265" gradientUnits="userSpaceOnUse" id="color-1"><stop offset="0" stop-color="#0c0c0c"/><stop offset="1" stop-color="#252525"/></linearGradient><linearGradient x1="230.32558" y1="209.55172" x2="230.32558" y2="221.94839" gradientUnits="userSpaceOnUse" id="color-2"><stop offset="0" stop-color="#252525"/><stop offset="1" stop-color="#0c0c0c"/></linearGradient><linearGradient x1="223.42778" y1="150.31925" x2="223.42778" y2="180.07971" gradientUnits="userSpaceOnUse" id="color-3"><stop offset="0" stop-color="#112298"/><stop offset="1" stop-color="#070566"/></linearGradient><linearGradient x1="364.26386" y1="161.95191" x2="364.26386" y2="164.29187" gradientUnits="userSpaceOnUse" id="color-4"><stop offset="0" stop-color="#252525"/><stop offset="1" stop-color="#000000"/></linearGradient><linearGradient x1="364.26386" y1="195.58247" x2="364.26386" y2="197.92244" gradientUnits="userSpaceOnUse" id="color-5"><stop offset="0" stop-color="#000000"/><stop offset="1" stop-color="#252525"/></linearGradient><radialGradient cx="353.07035" cy="202.60354" r="3.03861" gradientUnits="userSpaceOnUse" id="color-6"><stop offset="0" stop-color="#ffffff"/><stop offset="1" stop-color="#989898"/></radialGradient><radialGradient cx="349.80996" cy="211.92804" r="7.41777" gradientUnits="userSpaceOnUse" id="color-7"><stop offset="0" stop-color="#ffffff"/><stop offset="1" stop-color="#989898"/></radialGradient><linearGradient x1="345.95714" y1="220.45992" x2="333.35586" y2="220.45992" gradientUnits="userSpaceOnUse" id="color-8"><stop offset="0" stop-color="#d16503"/><stop offset="1" stop-color="#813d00"/></linearGradient><linearGradient x1="353.44929" y1="208.91751" x2="349.54251" y2="208.91751" gradientUnits="userSpaceOnUse" id="color-9"><stop offset="0" stop-color="#ffffff"/><stop offset="1" stop-color="#989898"/></linearGradient><linearGradient x1="354.13873" y1="203.05735" x2="350.69157" y2="203.05735" gradientUnits="userSpaceOnUse" id="color-10"><stop offset="0" stop-color="#ffffff"/><stop offset="1" stop-color="#989898"/></linearGradient><linearGradient x1="354.77003" y1="211.92804" x2="344.84989" y2="211.92804" gradientUnits="userSpaceOnUse" id="color-11"><stop offset="0" stop-color="#ffffff"/><stop offset="1" stop-color="#ffffff" stop-opacity="0"/></linearGradient><linearGradient x1="355.39399" y1="202.60354" x2="350.7467" y2="202.60354" gradientUnits="userSpaceOnUse" id="color-12"><stop offset="0" stop-color="#ffffff"/><stop offset="1" stop-color="#ffffff" stop-opacity="0"/></linearGradient><linearGradient x1="223.42778" y1="179.79467" x2="223.42778" y2="209.55513" gradientUnits="userSpaceOnUse" id="color-13"><stop offset="0" stop-color="#8c0000"/><stop offset="1" stop-color="#cc0001"/></linearGradient><linearGradient x1="127.97496" y1="215.50851" x2="118.66763" y2="215.50851" gradientUnits="userSpaceOnUse" id="color-14"><stop offset="0" stop-color="#ff0000"/><stop offset="1" stop-color="#8c0000"/></linearGradient><linearGradient x1="267.70006" y1="220.40547" x2="267.70006" y2="231.44389" gradientUnits="userSpaceOnUse" id="color-15"><stop offset="0" stop-color="#252525"/><stop offset="1" stop-color="#0c0c0c"/></linearGradient><linearGradient x1="244.84298" y1="214.24361" x2="244.84298" y2="219.97449" gradientUnits="userSpaceOnUse" id="color-16"><stop offset="0" stop-color="#4c4c4c"/><stop offset="1" stop-color="#1a1a1a"/></linearGradient><linearGradient x1="211.97273" y1="210.44466" x2="211.97273" y2="220.19725" gradientUnits="userSpaceOnUse" id="color-17"><stop offset="0" stop-color="#4c4c4c"/><stop offset="1" stop-color="#1a1a1a"/></linearGradient><linearGradient x1="192.06539" y1="211.44438" x2="192.06539" y2="220.39833" gradientUnits="userSpaceOnUse" id="color-18"><stop offset="0" stop-color="#4c4c4c"/><stop offset="1" stop-color="#1a1a1a"/></linearGradient><linearGradient x1="289.97524" y1="179.93719" x2="287.56223" y2="179.93719" gradientUnits="userSpaceOnUse" id="color-19"><stop offset="0" stop-color="#000000"/><stop offset="1" stop-color="#000000" stop-opacity="0"/></linearGradient><radialGradient cx="141.5711" cy="206.88343" r="1.50813" gradientUnits="userSpaceOnUse" id="color-20"><stop offset="0" stop-color="#1a1a1a"/><stop offset="1" stop-color="#000000"/></radialGradient><linearGradient x1="141.26948" y1="206.93369" x2="138.95701" y2="206.93369" gradientUnits="userSpaceOnUse" id="color-21"><stop offset="0" stop-color="#000000"/><stop offset="1" stop-color="#1a1a1a"/></linearGradient><radialGradient cx="353.07035" cy="157.27084" r="3.03861" gradientUnits="userSpaceOnUse" id="color-22"><stop offset="0" stop-color="#ffffff"/><stop offset="1" stop-color="#989898"/></radialGradient><radialGradient cx="349.80996" cy="147.94631" r="7.41777" gradientUnits="userSpaceOnUse" id="color-23"><stop offset="0" stop-color="#ffffff"/><stop offset="1" stop-color="#989898"/></radialGradient><linearGradient x1="345.95714" y1="139.41445" x2="333.35586" y2="139.41445" gradientUnits="userSpaceOnUse" id="color-24"><stop offset="0" stop-color="#d16503"/><stop offset="1" stop-color="#813d00"/></linearGradient><linearGradient x1="353.44929" y1="150.95685" x2="349.54251" y2="150.95685" gradientUnits="userSpaceOnUse" id="color-25"><stop offset="0" stop-color="#ffffff"/><stop offset="1" stop-color="#989898"/></linearGradient><linearGradient x1="354.13873" y1="156.81701" x2="350.69157" y2="156.81701" gradientUnits="userSpaceOnUse" id="color-26"><stop offset="0" stop-color="#ffffff"/><stop offset="1" stop-color="#989898"/></linearGradient><linearGradient x1="354.77003" y1="147.94631" x2="344.84989" y2="147.94631" gradientUnits="userSpaceOnUse" id="color-27"><stop offset="0" stop-color="#ffffff"/><stop offset="1" stop-color="#ffffff" stop-opacity="0"/></linearGradient><linearGradient x1="355.39399" y1="157.27084" x2="350.7467" y2="157.27084" gradientUnits="userSpaceOnUse" id="color-28"><stop offset="0" stop-color="#ffffff"/><stop offset="1" stop-color="#ffffff" stop-opacity="0"/></linearGradient><linearGradient x1="123.91583" y1="179.93719" x2="116.5619" y2="179.93719" gradientUnits="userSpaceOnUse" id="color-29"><stop offset="0" stop-color="#191919"/><stop offset="1" stop-color="#0c0c0c"/></linearGradient><linearGradient x1="365.71166" y1="179.93719" x2="363.70082" y2="179.93719" gradientUnits="userSpaceOnUse" id="color-30"><stop offset="0" stop-color="#000000" stop-opacity="0"/><stop offset="1" stop-color="#000000"/></linearGradient><linearGradient x1="362.10108" y1="179.93719" x2="360.8052" y2="179.93719" gradientUnits="userSpaceOnUse" id="color-31"><stop offset="0" stop-color="#4c4c4c"/><stop offset="1" stop-color="#4c4c4c" stop-opacity="0"/></linearGradient><linearGradient x1="357.83298" y1="179.93718" x2="354.05614" y2="179.93718" gradientUnits="userSpaceOnUse" id="color-32"><stop offset="0" stop-color="#3f3f3f"/><stop offset="1" stop-color="#000000"/></linearGradient><linearGradient x1="178.23386" y1="179.93719" x2="156.99937" y2="179.93719" gradientUnits="userSpaceOnUse" id="color-33"><stop offset="0" stop-color="#4c4c4c"/><stop offset="1" stop-color="#1a1a1a"/></linearGradient><linearGradient x1="127.97496" y1="144.36585" x2="118.66763" y2="144.36585" gradientUnits="userSpaceOnUse" id="color-34"><stop offset="0" stop-color="#ff0000"/><stop offset="1" stop-color="#8c0000"/></linearGradient><linearGradient x1="267.70006" y1="128.43047" x2="267.70006" y2="139.46887" gradientUnits="userSpaceOnUse" id="color-35"><stop offset="0" stop-color="#0c0c0c"/><stop offset="1" stop-color="#252525"/></linearGradient><linearGradient x1="244.84298" y1="139.89986" x2="244.84298" y2="145.63076" gradientUnits="userSpaceOnUse" id="color-36"><stop offset="0" stop-color="#1a1a1a"/><stop offset="1" stop-color="#4c4c4c"/></linearGradient><linearGradient x1="211.97273" y1="139.67714" x2="211.97273" y2="149.42971" gradientUnits="userSpaceOnUse" id="color-37"><stop offset="0" stop-color="#1a1a1a"/><stop offset="1" stop-color="#4c4c4c"/></linearGradient><linearGradient x1="192.06539" y1="139.47606" x2="192.06539" y2="148.43" gradientUnits="userSpaceOnUse" id="color-38"><stop offset="0" stop-color="#1a1a1a"/><stop offset="1" stop-color="#4c4c4c"/></linearGradient><radialGradient cx="141.5711" cy="152.99092" r="1.50813" gradientUnits="userSpaceOnUse" id="color-39"><stop offset="0" stop-color="#1a1a1a"/><stop offset="1" stop-color="#000000"/></radialGradient><linearGradient x1="141.26948" y1="152.94064" x2="138.95701" y2="152.94064" gradientUnits="userSpaceOnUse" id="color-40"><stop offset="0" stop-color="#000000"/><stop offset="1" stop-color="#1a1a1a"/></linearGradient><linearGradient x1="282.7094" y1="179.93719" x2="253.91415" y2="179.93719" gradientUnits="userSpaceOnUse" id="color-41"><stop offset="0" stop-color="#1a1a1a"/><stop offset="1" stop-color="#4c4c4c"/></linearGradient><linearGradient x1="363.45951" y1="179.93719" x2="362.01171" y2="179.93719" gradientUnits="userSpaceOnUse" id="color-42"><stop offset="0" stop-color="#4c4c4c" stop-opacity="0"/><stop offset="1" stop-color="#4c4c4c"/></linearGradient><radialGradient cx="223.48524" cy="179.93718" r="7.3265" gradientUnits="userSpaceOnUse" id="color-43"><stop offset="0" stop-color="#ffffff"/><stop offset="1" stop-color="#b3b3b3"/></radialGradient><linearGradient x1="209.3814" y1="179.93859" x2="175.04371" y2="179.93859" gradientTransform="translate(-224.29295,258.09833) rotate(-89.35509) scale(1.42025,1.42025)" gradientUnits="userSpaceOnUse" id="color-44"><stop offset="0" stop-color="#252525"/><stop offset="1" stop-color="#0c0c0c"/></linearGradient><linearGradient x1="209.3814" y1="179.93859" x2="175.04371" y2="179.93859" gradientTransform="translate(-224.29295,258.09833) rotate(-89.35509) scale(1.42025,1.42025)" gradientUnits="userSpaceOnUse" id="color-45"><stop offset="0" stop-color="#262626"/><stop offset="1" stop-color="#0c0c0c"/></linearGradient><linearGradient x1="167.75046" y1="226.83436" x2="167.75046" y2="211.10504" gradientUnits="userSpaceOnUse" id="color-46"><stop offset="0" stop-color="#000000" stop-opacity="0.70196"/><stop offset="1" stop-color="#000000" stop-opacity="0"/></linearGradient><linearGradient x1="167.75045" y1="132.63672" x2="167.75045" y2="148.36604" gradientUnits="userSpaceOnUse" id="color-47"><stop offset="0" stop-color="#000000" stop-opacity="0.70196"/><stop offset="1" stop-color="#000000" stop-opacity="0"/></linearGradient></defs><g transform="translate(-4.42566,-1.09611)"><g data-paper-data="{&quot;isPaintingLayer&quot;:true}" fill-rule="nonzero" stroke-width="0" stroke-linejoin="miter" stroke-miterlimit="10" stroke-dasharray="" stroke-dashoffset="0" style="mix-blend-mode: normal"><path d="M4.42566,361.6348v-360.53868h472.87786v360.53869z" fill="none" stroke="none" stroke-linecap="butt"/><path d="M363.46749,177.495c0,0 1.55812,32.13871 -8.58865,39.64116c-11.73947,8.68008 -65.4816,8.5017 -72.22305,8.53681c-13.67458,0.07122 -62.11893,0.00181 -62.11893,0.00181c0,0 -24.08145,-0.03873 -30.53067,0.10938c-1.4705,0.03377 -2.65632,0.53481 -3.87079,0.69108c-1.01523,0.13063 -4.12626,0.08432 -4.12626,0.08432c0,0 -31.01297,-0.76597 -42.51418,-1.81489c-8.33176,-0.75986 -15.84758,-2.41586 -19.45996,-3.8959c-3.61238,-1.48004 -5.72007,-2.4123 -6.82225,-6.90913c-0.53189,-2.17011 -1.34718,-5.91882 -1.78037,-10.15709c-1.07123,-10.48064 -1.4516,-23.95495 -1.4516,-23.95495v0.21921c0,0 0.38038,-13.47431 1.4516,-23.95495c0.43319,-4.23826 1.24847,-7.98698 1.78037,-10.15709c1.10217,-4.49682 3.20986,-5.42909 6.82225,-6.90913c3.61238,-1.48004 11.1282,-3.13604 19.45996,-3.8959c11.50122,-1.04892 42.51418,-1.81489 42.51418,-1.81489c0,0 3.11103,-0.04632 4.12626,0.08432c1.21447,0.15628 2.40028,0.6573 3.87079,0.69108c6.44923,0.1481 30.53067,0.10938 30.53067,0.10938c0,0 48.44434,-0.06942 62.11893,0.00181c6.74145,0.0351 60.08142,-0.14328 71.82088,8.53681c10.14676,7.50245 8.9908,39.64116 8.9908,39.64116z" data-paper-data="{&quot;index&quot;:null}" fill="#ffffff" stroke="#000000" stroke-linecap="round"/><path d="M277.82271,138.91998c0,0 -2.67546,0.64475 -6.33203,1.86698c-7.94743,2.65646 -21.27837,7.29207 -27.12771,8.68472c-4.34641,1.03483 -14.76406,0.83406 -14.76406,0.83406c0,0 -13.97275,0.15822 -25.32145,-0.49295c-4.36023,-0.25018 -8.35944,-0.44844 -10.79826,-1.07461c-4.31573,-1.10809 -8.58438,-6.86426 -10.3034,-9.42624c-0.50631,-0.75459 -0.44112,-1.23287 0.07842,-1.23401c4.47059,-0.00977 64.40929,-0.14066 64.40929,-0.14066c0,0 22.08725,-0.06272 27.31393,0.10758c2.40182,0.07827 2.84526,0.87511 2.84526,0.87511z" data-paper-data="{&quot;index&quot;:null}" fill="url(#color-1)" stroke="#000000" stroke-linecap="round"/><path d="M277.82272,220.95436c0,0 -0.44344,0.79688 -2.84526,0.87513c-5.22668,0.17031 -27.31393,0.10758 -27.31393,0.10758c0,0 -59.93871,-0.13089 -64.40929,-0.14066c-0.51955,-0.00113 -0.58475,-0.4794 -0.07842,-1.23401c1.71902,-2.56198 5.98767,-8.31815 10.3034,-9.42624c2.43882,-0.62618 6.43804,-0.82444 10.79826,-1.07461c11.3487,-0.65116 25.32145,-0.49295 25.32145,-0.49295c0,0 10.41767,-0.20077 14.76406,0.83406c5.84934,1.39266 19.1803,6.02825 27.12771,8.68472c3.65656,1.22224 6.33205,1.86697 6.33205,1.86697z" data-paper-data="{&quot;index&quot;:null}" fill="url(#color-2)" stroke="#000000" stroke-linecap="round"/><path d="M180.25159,221.78561c0,0 -8.10461,-0.69559 -11.19878,-1.44495c-2.49614,-0.60454 -5.96042,-2.71078 -5.96042,-2.71078c0,0 10.91342,-5.40301 15.67591,-6.81653c5.01098,-1.48728 13.68238,-1.89711 13.68238,-1.89711c0,0 -3.59888,3.40451 -6.66921,6.46806c-1.82628,1.82224 -3.37891,3.52385 -4.11387,4.31662c-0.79888,0.86172 -1.41603,2.08471 -1.41603,2.08471z" data-paper-data="{&quot;index&quot;:null}" fill="#e5e5e5" stroke="#e5e5e5" stroke-linecap="round"/><path d="M180.2516,138.08876c0,0 0.61714,1.22299 1.41603,2.08471c0.73496,0.79276 2.28759,2.49437 4.11387,4.31662c3.07033,3.06356 6.66921,6.46806 6.66921,6.46806c0,0 -8.67141,-0.40984 -13.68238,-1.89711c-4.76248,-1.41352 -15.67591,-6.81653 -15.67591,-6.81653c0,0 3.46427,-2.10624 5.96042,-2.71078c3.09417,-0.74937 11.19878,-1.44495 11.19878,-1.44495z" data-paper-data="{&quot;index&quot;:null}" fill="#e5e5e5" stroke="#dadada" stroke-linecap="round"/><path d="M179.48354,208.55274c0,0 6.55051,-1.00703 15.45951,-1.41237c11.97122,-0.54467 29.38953,-0.68216 36.98413,-0.59702c8.6346,0.0968 19.30319,2.81372 19.30319,2.81372" data-paper-data="{&quot;index&quot;:null}" fill="none" stroke="#000000" stroke-linecap="round"/><path d="M251.23037,150.51728c0,0 -10.66859,2.71693 -19.30319,2.81372c-7.5946,0.08514 -25.01292,-0.05236 -36.98413,-0.59702c-8.909,-0.40533 -15.45951,-1.41237 -15.45951,-1.41237" data-paper-data="{&quot;index&quot;:null}" fill="none" stroke="#000000" stroke-linecap="round"/><path d="M217.23438,180.07971c0,0 0,-23.6915 0,-27.66919c0,-1.09355 0.64095,-2.09127 1.60867,-2.09127c2.4448,0 6.97521,0 8.52597,0c1.02041,0 2.25215,0.66271 2.25215,1.4478c0,3.42214 0,27.50831 0,27.50831z" data-paper-data="{&quot;index&quot;:null}" fill="url(#color-3)" stroke="#000000" stroke-linecap="round"/><path d="M181.9489,134.1276l101.3123,0.51086l-0.36804,1.66754c0,0 -26.69386,-0.47868 -52.76922,-0.6264c-1.46206,-0.00828 -2.93158,-0.0143 -4.40009,-0.01837c-15.82694,-0.04399 -31.53724,0.13664 -36.53887,0.1252c-3.79719,-0.00869 -8.77771,0.28498 -8.77771,0.28498c0,0 0.60317,-0.76051 0.87504,-1.10331c0.2373,-0.2992 0.66662,-0.8405 0.66662,-0.8405z" data-paper-data="{&quot;index&quot;:null}" fill="#dadada" stroke="#dadada" stroke-linecap="round"/><path d="M181.28228,224.90622c-0.27188,-0.34279 -0.87504,-1.10331 -0.87504,-1.10331c0,0 4.98054,0.29367 8.77771,0.28498c5.00164,-0.01144 20.71191,0.16919 36.53887,0.1252c1.46852,-0.00407 2.93803,-0.01011 4.40009,-0.01837c26.07537,-0.14772 52.76922,-0.6264 52.76922,-0.6264l0.36804,1.66754l-101.3123,0.51086c0,0 -0.42932,-0.54131 -0.66662,-0.8405z" data-paper-data="{&quot;index&quot;:null}" fill="#dadada" stroke="#dadada" stroke-linecap="round"/><path d="M154.7019,180.06751c0,0 0.1045,4.19811 0.56057,9.8047c0.42306,5.20083 1.14863,11.61361 2.3739,17.01159c0.97157,4.28026 3.09726,7.4643 4.4,9.57399c3.39765,5.50229 18.33033,5.17223 18.33033,5.17223c0,0 0.21109,1.9539 0.43183,2.81275c0.19815,0.77096 1.27899,2.1052 1.27899,2.1052c0,0 -53.46017,-0.00672 -64.71706,-7.25155c-1.20776,-0.77731 -3.35255,-3.01484 -4.20265,-6.68597c-2.64256,-11.41165 -2.53004,-32.49514 -2.53004,-32.49514v-0.35627c0,0 -0.11251,-21.08348 2.53004,-32.49514c0.85012,-3.67113 2.99488,-5.90867 4.20265,-6.68597c11.25689,-7.24483 64.71706,-7.25155 64.71706,-7.25155c0,0 -1.08085,1.33423 -1.27899,2.1052c-0.22074,0.85885 -0.43183,2.81275 -0.43183,2.81275c0,0 -14.93267,-0.33006 -18.33033,5.17223c-1.30274,2.10969 -3.42844,5.29374 -4.4,9.57399c-1.22528,5.39798 -1.95085,11.81077 -2.3739,17.01159c-0.45606,5.60658 -0.56057,9.8047 -0.56057,9.8047z" data-paper-data="{&quot;index&quot;:null}" fill="#282828" stroke="#191919" stroke-linecap="round"/><path d="M180.64044,136.09429c0,0 -17.27396,-0.02451 -25.95409,0.73921c-9.14427,0.80454 -27.85986,3.97191 -27.85986,3.97191l1.24482,-1.68528c0,0 15.63074,-3.34276 24.01415,-4.19377c9.2625,-0.94026 29.926,-1.5731 29.926,-1.5731c0,0 -0.7683,0.7942 -0.92318,1.19c-0.1846,0.47174 -0.44782,1.55104 -0.44782,1.55104z" data-paper-data="{&quot;index&quot;:null}" fill="#0c0c0c" stroke="#0c0c0c" stroke-linecap="round"/><path d="M180.64045,223.78003c0,0 0.26323,1.07929 0.44782,1.55104c0.15487,0.3958 0.92318,1.19 0.92318,1.19c0,0 -20.66351,-0.63285 -29.926,-1.5731c-8.3834,-0.85101 -24.01415,-4.19377 -24.01415,-4.19377l-1.24482,-1.68528c0,0 18.71558,3.16737 27.85986,3.97191c8.68014,0.7637 25.95409,0.73921 25.95409,0.73921z" data-paper-data="{&quot;index&quot;:null}" fill="#0c0c0c" stroke="#0c0c0c" stroke-linecap="round"/><path d="M281.05861,179.8748v-39.44631c0,0 0.21627,-0.86165 0.64553,-1.79022c0.32898,-0.71164 0.76548,-1.46257 0.9259,-1.89502c0.39887,-1.07522 0.74105,-2.64893 0.74105,-2.64893c0,0 54.916,0.21401 69.88836,8.12338c3.32193,1.75485 5.35182,6.20726 6.9414,11.30862c3.479,11.16489 3.69872,25.94629 3.69872,25.94629v0.9291c0,0 0.18245,14.7814 -3.29655,25.94629c-1.58959,5.10135 -3.61947,9.55376 -6.9414,11.30862c-14.97234,7.90936 -70.29053,8.12338 -70.29053,8.12338c0,0 -0.34217,-1.57371 -0.74105,-2.64893c-0.16043,-0.43244 -0.59693,-1.18337 -0.9259,-1.89502c-0.42926,-0.92855 -0.64553,-1.79022 -0.64553,-1.79022v-39.44631" data-paper-data="{&quot;index&quot;:null}" fill="#282828" stroke="#000000" stroke-linecap="round"/><path d="M289.81438,179.95226c0,0 -0.04444,9.31213 -1.09353,17.98215c-0.71148,5.87993 -2.31942,11.2039 -3.01288,14.13317c-1.03508,4.37231 -4.7413,7.29717 -4.7413,7.29717c0,0 3.03469,-11.20868 3.74413,-16.44607c1.00723,-7.43561 1.24275,-23.93164 1.24275,-23.93164v1.90027c0,0 -0.23553,-16.49604 -1.24275,-23.93164c-0.70945,-5.23738 -3.74413,-16.44607 -3.74413,-16.44607c0,0 3.70621,2.92486 4.7413,7.29717c0.69346,2.92927 2.30141,8.25324 3.01288,14.13317c1.04909,8.67003 1.09353,17.98215 1.09353,17.98215" data-paper-data="{&quot;index&quot;:null}" fill="#272727" stroke="#000000" stroke-linecap="round"/><path d="M363.46749,177.495c0,0 1.55812,32.13871 -8.58865,39.64116c-11.73947,8.68008 -65.4816,8.5017 -72.22305,8.53681c-13.67458,0.07122 -62.11893,0.00181 -62.11893,0.00181c0,0 -24.08145,-0.03873 -30.53067,0.10938c-1.4705,0.03377 -2.65632,0.53481 -3.87079,0.69108c-1.01523,0.13063 -4.12626,0.08432 -4.12626,0.08432c0,0 -31.01297,-0.76597 -42.51418,-1.81489c-8.33176,-0.75986 -15.84758,-2.41586 -19.45996,-3.8959c-3.61238,-1.48004 -5.72007,-2.4123 -6.82225,-6.90913c-0.53189,-2.17011 -1.34718,-5.91882 -1.78037,-10.15709c-1.07123,-10.48064 -1.4516,-23.95495 -1.4516,-23.95495v0.21921c0,0 0.38038,-13.47431 1.4516,-23.95495c0.43319,-4.23826 1.24847,-7.98698 1.78037,-10.15709c1.10217,-4.49682 3.20986,-5.42909 6.82225,-6.90913c3.61238,-1.48004 11.1282,-3.13604 19.45996,-3.8959c11.50122,-1.04892 42.51418,-1.81489 42.51418,-1.81489c0,0 3.11103,-0.04632 4.12626,0.08432c1.21447,0.15628 2.40028,0.6573 3.87079,0.69108c6.44923,0.1481 30.53067,0.10938 30.53067,0.10938c0,0 48.44434,-0.06942 62.11893,0.00181c6.74145,0.0351 60.08142,-0.14328 71.82088,8.53681c10.14676,7.50245 8.9908,39.64116 8.9908,39.64116z" data-paper-data="{&quot;index&quot;:null}" fill="none" stroke="#000000" stroke-linecap="round"/><path d="M358.23133,162.63726c0,-0.91381 11.26071,-0.91381 11.26071,0c0,0.91381 -2.5208,1.65461 -5.63036,1.65461c-3.10957,0 -5.63036,-0.74079 -5.63036,-1.65461z" data-paper-data="{&quot;index&quot;:null}" fill="url(#color-4)" stroke="#000000" stroke-linecap="butt"/><path d="M364.26386,195.58248c3.10957,0 5.63036,0.74079 5.63036,1.65461c0,0.91381 -11.26071,0.91381 -11.26071,0c0,-0.91381 2.5208,-1.65461 5.63036,-1.65461z" data-paper-data="{&quot;index&quot;:null}" fill="url(#color-5)" stroke="#000000" stroke-linecap="butt"/><path d="M340.12165,139.99809c0,0 -22.43648,-2.03904 -32.81819,-2.6879c-8.57471,-0.53592 -24.59134,-0.93161 -24.59134,-0.93161l0.67028,-2.01084c0,0 20.40719,0.03532 29.51773,0.54687c7.08965,0.39809 20.11654,2.26831 20.11654,2.26831z" data-paper-data="{&quot;index&quot;:null}" fill="#0c0c0c" stroke="#0c0c0c" stroke-linecap="round"/><path d="M363.70082,180.21968v16.2476h-2.89562v-16.2476v-0.56499l-0.40217,-16.2476h2.89562l0.40217,16.2476z" data-paper-data="{&quot;index&quot;:null}" fill="#252525" stroke="#000000" stroke-linecap="round"/><path d="M333.41884,222.69144c0,0 -13.42906,1.87022 -20.51871,2.26831c-9.11053,0.51156 -29.51773,0.54687 -29.51773,0.54687l-0.67028,-2.01084c0,0 16.01663,-0.39569 24.59134,-0.93161c10.38171,-0.64886 33.22035,-2.6879 33.22035,-2.6879z" data-paper-data="{&quot;index&quot;:null}" fill="#0c0c0c" stroke="#0c0c0c" stroke-linecap="round"/><path d="M353.48595,199.4827c0,0 -4.19733,1.47794 -9.91942,2.84191c-6.1225,1.45943 -13.94067,2.83835 -18.64678,3.72075c-5.13194,0.96223 -13.71858,2.49243 -19.40749,3.22516c-4.42881,0.57044 -6.72121,0.46746 -6.72121,0.46746c0,0 18.84491,-3.33781 27.79682,-5.26797c9.07691,-1.9571 26.29484,-6.39491 26.29484,-6.39491z" data-paper-data="{&quot;index&quot;:null}" fill="#0c0c0c" stroke="#0c0c0c" stroke-linecap="round"/><path d="M350.74671,205.64213c0,0 0.39878,-2.57635 1.11387,-3.4702c0.90707,-1.13386 3.5334,-2.60701 3.5334,-2.60701l-0.53623,4.64728l-4.11105,1.42993z" data-paper-data="{&quot;index&quot;:null}" fill="url(#color-6)" stroke="#000000" stroke-linecap="round"/><path d="M354.77003,204.51028c0,0 -1.20278,5.49163 -1.58904,7.13325c-0.20363,0.86546 -1.21512,3.74334 -2.13688,4.95288c-0.45296,0.59438 -1.08328,0.85228 -1.42281,1.0992c-1.44698,1.05234 -4.77143,1.65022 -4.77143,1.65022c0,0 3.15722,-2.69329 4.10903,-4.81764c0.56786,-1.26739 0.92569,-3.65529 1.30844,-5.64531c0.34922,-1.81569 0.48099,-3.12142 0.48099,-3.12142z" data-paper-data="{&quot;index&quot;:null}" fill="url(#color-7)" stroke="#000000" stroke-linecap="round"/><path d="M345.59966,219.34275c0,0 -2.34085,0.96185 -4.00515,1.48274c-2.12468,0.66497 -8.23863,1.91334 -8.23863,1.91334c0,0 0.40124,-0.92908 2.58559,-1.80282c0.65682,-0.26273 2.97249,-0.54408 4.70606,-1.0139c2.83463,-0.76821 5.30962,-1.74118 5.30962,-1.74118z" data-paper-data="{&quot;index&quot;:null}" fill="url(#color-8)" stroke="#000000" stroke-linecap="round"/><path d="M353.44929,205.06817l-1.72357,7.46883l-2.18321,0.22981l1.14906,-7.00923z" data-paper-data="{&quot;index&quot;:null}" fill="url(#color-9)" stroke="#000000" stroke-linecap="round"/><path d="M351.69921,202.40769c0.57889,-0.86832 2.43953,-1.93571 2.43953,-1.93571l-0.45962,3.33225l-2.98754,1.83848c0,0 0.43759,-2.37997 1.00762,-3.23502z" data-paper-data="{&quot;index&quot;:null}" fill="url(#color-10)" stroke="#000000" stroke-linecap="round"/><path d="M352.53005,212.76683l-3.33225,1.26395" data-paper-data="{&quot;index&quot;:null}" fill="none" stroke="#000000" stroke-linecap="round"/><path d="M354.77003,204.51028c0,0 -1.20278,5.49163 -1.58904,7.13325c-0.20363,0.86546 -1.21512,3.74334 -2.13688,4.95288c-0.45296,0.59438 -1.08328,0.85228 -1.42281,1.0992c-1.44698,1.05234 -4.77143,1.65022 -4.77143,1.65022c0,0 3.15722,-2.69329 4.10903,-4.81764c0.56786,-1.26739 0.92569,-3.65529 1.30844,-5.64531c0.34922,-1.81569 0.48099,-3.12142 0.48099,-3.12142z" data-paper-data="{&quot;index&quot;:null}" fill="url(#color-11)" stroke="#000000" stroke-linecap="round"/><path d="M350.74671,205.64213c0,0 0.39878,-2.57635 1.11387,-3.4702c0.90707,-1.13386 3.5334,-2.60701 3.5334,-2.60701l-0.53623,4.64728l-4.11105,1.42993z" data-paper-data="{&quot;index&quot;:null}" fill="url(#color-12)" stroke="#000000" stroke-linecap="round"/><path d="M352.23553,214.01104c0,0 -4.74864,1.44661 -9.29368,1.71827c-11.45122,0.68444 -60.33889,2.34938 -60.33889,2.34938" data-paper-data="{&quot;index&quot;:null}" fill="none" stroke="#000000" stroke-linecap="round"/><path d="M162.29173,216.7803c0,0 -17.73643,-0.9543 -24.81358,-1.59768c-4.75305,-0.4321 -13.52649,-1.88776 -13.52649,-1.88776" data-paper-data="{&quot;index&quot;:null}" fill="none" stroke="#000000" stroke-linecap="round"/><path d="M229.62117,180.59901c0,0 0,24.08617 0,27.50831c0,0.78508 -1.23174,1.4478 -2.25215,1.4478c-1.55076,0 -6.08119,0 -8.52597,0c-0.96772,0 -1.60867,-0.99773 -1.60867,-2.09127c0,-3.97767 0,-27.66919 0,-27.66919z" data-paper-data="{&quot;index&quot;:null}" fill="url(#color-13)" stroke="#000000" stroke-linecap="round"/><path d="M361.76574,198.10055c0,0 -2.07518,0.88105 -3.14278,1.12744c-1.1092,0.25596 -3.39245,0.3807 -3.39245,0.3807" data-paper-data="{&quot;index&quot;:null}" fill="none" stroke="#000000" stroke-linecap="round"/><path d="M179.19613,179.96351c0,0 0.03752,13.54399 0.30332,18.83049c0.19336,3.84566 1.14449,9.96477 1.14449,9.96477c0,0 -13.82117,5.52141 -16.93125,6.64522c-1.2147,0.43892 -2.21197,0.27206 -2.21197,0.27206c0,0 -3.38734,-5.07557 -4.35067,-10.39682c-1.22522,-6.76789 -2.40576,-13.20662 -2.40576,-23.75966c0,-10.55304 1.18054,-20.1565 2.40576,-26.9244c0.96332,-5.32124 4.35067,-10.39682 4.35067,-10.39682c0,0 0.99725,-0.16685 2.21197,0.27206c3.11008,1.12381 16.93125,6.64522 16.93125,6.64522c0,0 -0.95112,6.11912 -1.14449,9.96477c-0.2658,5.2865 -0.30332,18.83049 -0.30332,18.83049z" data-paper-data="{&quot;index&quot;:null}" fill="#1a1a1a" stroke="#000000" stroke-linecap="round"/><path d="M217.5154,193.77421h11.90418" data-paper-data="{&quot;index&quot;:null}" fill="none" stroke="#000000" stroke-linecap="round"/><path d="M217.51539,201.17413h11.74331" data-paper-data="{&quot;index&quot;:null}" fill="none" stroke="#000000" stroke-linecap="round"/><path d="M197.52144,226.85771c-0.77652,0.00548 -1.74825,-0.29511 -2.04974,-0.46021c-0.33785,-0.18501 -1.07464,-0.58848 -1.07464,-0.58848l88.7528,-0.16087c0,0 -1.09779,0.62342 -1.86167,0.62772c-5.74267,0.03226 -73.87678,0.51216 -83.76673,0.58187z" data-paper-data="{&quot;index&quot;:null}" fill="#ffffff" stroke="#000000" stroke-linecap="round"/><path d="M124.29796,214.24452c0,0 0.66863,2.30416 1.30524,3.43811c0.58464,1.04138 2.37173,3.11151 2.37173,3.11151c0,0 -4.03713,-0.25332 -5.57977,-2.02736c-0.56909,-0.65446 -1.85684,-1.93227 -2.52672,-3.41928c-1.12071,-2.48782 -1.20083,-5.12464 -1.20083,-5.12464z" data-paper-data="{&quot;index&quot;:null}" fill="url(#color-14)" stroke="#000000" stroke-linecap="round"/><path d="M264.80889,221.74604c0,0 -1.21905,-1.99898 -1.33947,-2.91411c-0.09866,-0.74974 0.66919,-2.18004 0.66919,-2.18004" data-paper-data="{&quot;index&quot;:null}" fill="none" stroke="#000000" stroke-linecap="round"/><path d="M271.77981,220.40547c0,0 0.07198,0.81778 -0.1858,1.69649c-0.11091,0.3781 -0.51697,0.58023 -0.62984,1.04231c-0.14229,0.58249 0.06914,1.26205 -0.18634,1.87012c-0.16631,0.39583 -1.10011,2.48628 -2.41241,3.97557c-1.16349,1.32039 -2.68902,2.0607 -3.28186,2.32707c-0.8703,0.39101 -1.66846,-0.17257 -1.42961,-0.99773c0.22551,-0.77907 0.48292,-1.60239 0.56516,-1.86525c0.61521,-1.96615 1.47902,-4.44957 2.00961,-5.53086c0.29064,-0.59228 0.98285,-0.95027 1.31978,-1.31892c0.70226,-0.76835 1.01393,-1.1988 1.01393,-1.1988z" data-paper-data="{&quot;index&quot;:null}" fill="url(#color-15)" stroke="#000000" stroke-linecap="round"/><path d="M267.82884,221.63334c0,0 1.56785,0.00189 2.06345,0.18545c0.53546,0.19831 1.03901,0.9636 1.03901,0.9636" data-paper-data="{&quot;index&quot;:null}" fill="none" stroke="#000000" stroke-linecap="round"/><path d="M268.97791,221.92058c0,0 -2.21432,5.06389 -3.02041,6.76092c-0.5381,1.13287 -1.74816,2.66131 -1.74816,2.66131" data-paper-data="{&quot;index&quot;:null}" fill="none" stroke="#000000" stroke-linecap="round"/><path d="M230.06863,216.47994c-0.43732,-0.8041 -1.06104,-2.23636 -1.06104,-2.23636c0,0 12.43557,0.1494 17.76671,1.11408c5.22359,0.94521 13.90405,4.61682 13.90405,4.61682h-28.55395c0,0 -1.48839,-2.45132 -2.05576,-3.49454z" data-paper-data="{&quot;index&quot;:null}" fill="url(#color-16)" stroke="#000000" stroke-linecap="round"/><path d="M224.40948,220.60641l-2.41302,-10.35583h4.12223l4.82601,10.45638z" data-paper-data="{&quot;index&quot;:null}" fill="#ffffff" stroke="#000000" stroke-linecap="round"/><path d="M228.43116,221.81289c0,0 -1.31386,-2.76414 -1.88382,-4.21182c-0.61455,-1.56098 -1.79777,-4.81873 -2.52423,-6.8337c-0.08087,-0.22431 -0.15609,-0.83538 -0.22421,-1.02484" data-paper-data="{&quot;index&quot;:null}" fill="none" stroke="#000000" stroke-linecap="round"/><path d="M200.66174,220.09671v-8.94825c0,0 7.45077,-0.34251 10.86,-0.46125c3.32497,-0.1158 9.34896,-0.24255 9.34896,-0.24255l2.41302,9.75258z" data-paper-data="{&quot;index&quot;:null}" fill="url(#color-17)" stroke="#000000" stroke-linecap="round"/><path d="M199.25415,211.45007v8.94825h-14.37752c0,0 5.46859,-6.36426 8.12285,-8.01619c1.71766,-1.06904 6.25466,-0.93205 6.25466,-0.93205z" data-paper-data="{&quot;index&quot;:null}" fill="url(#color-18)" stroke="#000000" stroke-linecap="round"/><path d="M228.47026,222.05908l0.57453,4.3664" data-paper-data="{&quot;index&quot;:null}" fill="none" stroke="#000000" stroke-linecap="round"/><path d="M230.76837,225.39131c0,0 0,-0.47653 0,-0.67986c0,-0.16544 0.39755,-0.45513 0.82139,-0.46058c0.95665,-0.01227 4.83689,-0.062 7.37187,-0.09451c0.76511,-0.0098 2.2631,1.23496 2.2631,1.23496z" data-paper-data="{&quot;index&quot;:null}" fill="#191919" stroke="#000000" stroke-linecap="butt"/><path d="M185.95533,225.62111c0,0 0,-0.44023 0,-0.64155c0,-0.17907 0.23944,-0.50749 0.52186,-0.50749c0.88336,0 5.59097,0 8.1104,0c0.95405,0 1.59432,1.14906 1.59432,1.14906z" data-paper-data="{&quot;index&quot;:null}" fill="#191919" stroke="#000000" stroke-linecap="butt"/><path d="M287.56223,180.083v-24.29097c0,0 1.1468,5.3353 1.46569,8.71551c0.44356,4.70171 0.94733,16.86241 0.94733,16.86241v-2.86548c0,0 -0.50377,12.16069 -0.94733,16.86241c-0.31889,3.38022 -1.46569,8.71551 -1.46569,8.71551v-24.29097z" data-paper-data="{&quot;index&quot;:null}" fill="url(#color-19)" stroke="none" stroke-linecap="round"/><path d="M141.5711,208.39156c-0.83292,0 -1.50813,-0.67522 -1.50813,-1.50813c0,-0.83292 0.67522,-1.50813 1.50813,-1.50813c0.83292,0 1.50813,0.67522 1.50813,1.50813c0,0.83292 -0.67522,1.50813 -1.50813,1.50813z" data-paper-data="{&quot;index&quot;:null}" fill="url(#color-20)" stroke="#000000" stroke-linecap="butt"/><path d="M139.49994,207.38614c-0.23293,0 -0.54293,-0.28033 -0.54293,-0.42659c0,-0.15486 0.4296,-0.4783 0.71528,-0.4783c0.42689,0 1.59717,0 1.59717,0v0.90488c0,0 -1.34902,0 -1.76954,0z" data-paper-data="{&quot;index&quot;:null}" fill="url(#color-21)" stroke="#000000" stroke-linecap="butt"/><path d="M352.48053,161.79928c0,0 -17.2179,-4.43781 -26.29484,-6.39491c-8.9519,-1.93015 -27.39464,-5.26797 -27.39464,-5.26797c0,0 2.29239,-0.10298 6.72121,0.46746c5.68892,0.73274 13.87338,2.26293 19.00533,3.22516c4.7061,0.88238 12.52428,2.26132 18.64678,3.72075c5.72208,1.36399 9.91942,2.84191 9.91942,2.84191z" data-paper-data="{&quot;index&quot;:null}" fill="#0c0c0c" stroke="#0c0c0c" stroke-linecap="round"/><path d="M343.24231,144.1333c0,0 2.71839,10.16512 3.37396,15.90798c0.68379,5.99003 1.04989,19.32196 1.04989,19.32196v1.14782c0,0 0.03608,13.33194 -0.64771,19.32196c-0.65558,5.74288 -3.37396,15.90798 -3.37396,15.90798" data-paper-data="{&quot;index&quot;:null}" fill="none" stroke="#000000" stroke-linecap="round"/><path d="M350.34455,154.23223l4.11105,1.42993l0.53623,4.64728c0,0 -2.62634,-1.47317 -3.5334,-2.60701c-0.71507,-0.89384 -1.11387,-3.4702 -1.11387,-3.4702z" data-paper-data="{&quot;index&quot;:null}" fill="url(#color-22)" stroke="#000000" stroke-linecap="round"/><path d="M350.3462,154.1129c0,0 -0.13179,-1.30573 -0.48099,-3.12142c-0.38275,-1.99002 -0.74058,-4.37791 -1.30844,-5.64531c-0.95181,-2.12437 -4.10903,-4.81764 -4.10903,-4.81764c0,0 3.32446,0.59788 4.77143,1.65022c0.33952,0.24693 0.96986,0.50482 1.42281,1.0992c0.92174,1.20955 1.93324,4.08742 2.13688,4.95288c0.38627,1.64161 1.58904,7.13325 1.58904,7.13325z" data-paper-data="{&quot;index&quot;:null}" fill="url(#color-23)" stroke="#000000" stroke-linecap="round"/><path d="M345.55497,141.69341c0,0 -2.475,-0.97298 -5.30962,-1.74118c-1.73359,-0.46982 -4.04923,-0.75117 -4.70606,-1.0139c-2.18436,-0.87375 -2.58559,-1.80282 -2.58559,-1.80282c0,0 6.11397,1.24837 8.23863,1.91334c1.6643,0.52088 4.00515,1.48274 4.00515,1.48274z" data-paper-data="{&quot;index&quot;:null}" fill="url(#color-24)" stroke="#000000" stroke-linecap="round"/><path d="M350.28939,154.11674l-1.14906,-7.00923l2.18321,0.22981l1.72357,7.46883z" data-paper-data="{&quot;index&quot;:null}" fill="url(#color-25)" stroke="#000000" stroke-linecap="round"/><path d="M350.28941,154.23164l2.98754,1.83848l0.45962,3.33225c0,0 -1.86065,-1.0674 -2.43953,-1.93571c-0.57004,-0.85506 -1.00762,-3.23502 -1.00762,-3.23502z" data-paper-data="{&quot;index&quot;:null}" fill="url(#color-26)" stroke="#000000" stroke-linecap="round"/><path d="M352.12788,147.10752l-3.33225,-1.26395" data-paper-data="{&quot;index&quot;:null}" fill="none" stroke="#000000" stroke-linecap="round"/><path d="M350.3462,154.1129c0,0 -0.13179,-1.30573 -0.48099,-3.12142c-0.38275,-1.99002 -0.74058,-4.37791 -1.30844,-5.64531c-0.95181,-2.12437 -4.10903,-4.81764 -4.10903,-4.81764c0,0 3.32446,0.59788 4.77143,1.65022c0.33952,0.24693 0.96986,0.50482 1.42281,1.0992c0.92174,1.20955 1.93324,4.08742 2.13688,4.95288c0.38627,1.64161 1.58904,7.13325 1.58904,7.13325z" data-paper-data="{&quot;index&quot;:null}" fill="url(#color-27)" stroke="#000000" stroke-linecap="round"/><path d="M350.34455,154.23223l4.11105,1.42993l0.53623,4.64728c0,0 -2.62634,-1.47317 -3.5334,-2.60701c-0.71507,-0.89384 -1.11387,-3.4702 -1.11387,-3.4702z" data-paper-data="{&quot;index&quot;:null}" fill="url(#color-28)" stroke="#000000" stroke-linecap="round"/><path d="M282.60296,141.79565c0,0 48.4855,1.66493 59.93672,2.34938c4.54504,0.27166 9.29368,1.71827 9.29368,1.71827" data-paper-data="{&quot;index&quot;:null}" fill="none" stroke="#000000" stroke-linecap="round"/><path d="M120.69849,180.20144c0,0 0.20406,16.27771 0.79724,22.46384c0.41032,4.27912 2.42012,11.0885 2.42012,11.0885l-5.28564,-3.79188c0,0 -0.74406,-2.20015 -0.89281,-4.33225c-0.16685,-2.39138 -0.67283,-8.0569 -0.91557,-13.55693c-0.26474,-5.99836 -0.2599,-11.75638 -0.2599,-11.75638v-0.75833c0,0 -0.00484,-5.758 0.2599,-11.75638c0.24274,-5.50003 0.74873,-11.16554 0.91557,-13.55693c0.14874,-2.1321 0.89281,-4.33225 0.89281,-4.33225l5.28564,-3.79188c0,0 -2.00978,6.80937 -2.42012,11.0885c-0.59319,6.18612 -0.79724,22.46384 -0.79724,22.46384z" data-paper-data="{&quot;index&quot;:null}" fill="url(#color-29)" stroke="none" stroke-linecap="round"/><path d="M123.95169,146.57952c0,0 8.77344,-1.45567 13.52649,-1.88776c7.07714,-0.64337 24.81358,-1.59768 24.81358,-1.59768" data-paper-data="{&quot;index&quot;:null}" fill="none" stroke="#000000" stroke-linecap="round"/><path d="M363.86168,180.53946l-0.40217,-16.97151h4.10211l0.40217,16.48889v-0.23934v16.48889h-4.10211v-16.97151z" data-paper-data="{&quot;index&quot;:null}" fill="#252525" stroke="#000000" stroke-linecap="round"/><path d="M363.70082,181.18294l-0.40217,-17.53454h2.01084l0.40217,15.76501v1.04759v15.76501h-2.01084v-17.53454" data-paper-data="{&quot;index&quot;:null}" fill="url(#color-30)" stroke="none" stroke-linecap="round"/><path d="M360.8052,181.66554l-0.40217,-18.25845h1.29587l0.40217,16.08673v0.88672v16.08673h-1.29587v-18.25845" data-paper-data="{&quot;index&quot;:null}" fill="url(#color-31)" stroke="none" stroke-linecap="round"/><path d="M358.23134,180.21968c0,0 0.1083,13.81877 -0.82887,17.26469c-0.33088,1.21661 -2.6849,2.36023 -3.91745,2.01307c-0.08666,-0.02441 -0.46575,-0.10064 -0.70503,-0.51528c-0.14533,-0.25183 -0.26797,-1.94261 -0.2835,-2.32944c-0.23317,-5.80664 -0.63533,-27.62444 -0.40217,-33.43107c0.01553,-0.38684 0.13819,-2.07761 0.2835,-2.32944c0.23929,-0.41464 0.61837,-0.49086 0.70503,-0.51528c1.23255,-0.34716 3.58658,0.79645 3.91745,2.01307c0.93716,3.44591 1.23105,17.26469 1.23105,17.26469z" data-paper-data="{&quot;index&quot;:null}" fill="#1b1b1b" stroke="#000000" stroke-linecap="round"/><path d="M357.83044,180.21436c0,0 0.07167,12.90309 -0.54852,16.12065c-0.21896,1.136 -1.77677,2.20381 -2.59242,1.87967c-0.09218,-0.03664 -0.44034,-0.00423 -0.51168,-1.63782c-0.22111,-5.06382 -0.07333,-16.4376 -0.07333,-16.4376v-0.40412c0,0 -0.54994,-11.37378 -0.32883,-16.4376c0.07134,-1.63361 0.41949,-1.60119 0.51168,-1.63782c0.81565,-0.32416 2.37348,0.74369 2.59242,1.87967c0.62018,3.21757 0.95068,16.12065 0.95068,16.12065z" data-paper-data="{&quot;index&quot;:null}" fill="url(#color-32)" stroke="#000000" stroke-linecap="round"/><path d="M354.82833,160.2657c0,0 2.28325,0.12473 3.39245,0.3807c1.06761,0.24638 3.14278,1.12744 3.14278,1.12744" data-paper-data="{&quot;index&quot;:null}" fill="none" stroke="#000000" stroke-linecap="round"/><path d="M176.62518,180.02846c0,0 0.05109,12.49851 0.34213,17.53336c0.2314,4.00321 1.26655,10.29668 1.26655,10.29668c0,0 -7.37271,2.40988 -10.29036,3.6182c-0.62215,0.25766 -1.35366,0.61403 -2.07986,0.99083c-0.50993,0.26459 -1.01722,0.53924 -1.48219,0.79689c-1.17094,0.64882 -2.532,0.07959 -3.14341,-1.56596c-1.00591,-2.70728 -2.42558,-6.86399 -2.89771,-9.91145c-0.96194,-6.2089 -1.34095,-21.5977 -1.34095,-21.5977v-0.50428c0,0 0.37901,-15.3888 1.34095,-21.5977c0.47214,-3.04746 1.89182,-7.20416 2.89771,-9.91145c0.61141,-1.64553 1.97248,-2.21476 3.14341,-1.56596c0.46497,0.25765 0.97227,0.53231 1.48219,0.79689c0.7262,0.37681 1.4577,0.73318 2.07986,0.99083c2.91764,1.20831 10.29036,3.6182 10.29036,3.6182c0,0 -1.03515,6.29347 -1.26655,10.29668c-0.29103,5.03485 -0.34213,17.53336 -0.34213,17.53336z" data-paper-data="{&quot;index&quot;:null}" fill="url(#color-33)" stroke="#000000" stroke-linecap="round"/><path d="M229.41959,166.10011h-11.90418" data-paper-data="{&quot;index&quot;:null}" fill="none" stroke="#000000" stroke-linecap="round"/><path d="M229.25871,158.7002h-11.74331" data-paper-data="{&quot;index&quot;:null}" fill="none" stroke="#000000" stroke-linecap="round"/><path d="M197.52146,133.01665c9.88995,0.06971 78.02406,0.5496 83.76673,0.58187c0.76388,0.00429 1.86167,0.62772 1.86167,0.62772l-88.7528,-0.16087c0,0 0.73679,-0.40349 1.07464,-0.58848c0.30148,-0.16509 1.27321,-0.46569 2.04974,-0.46021z" data-paper-data="{&quot;index&quot;:null}" fill="#ffffff" stroke="#000000" stroke-linecap="round"/><path d="M118.66763,149.6515c0,0 0.08011,-2.63684 1.20083,-5.12464c0.66988,-1.48701 1.95764,-2.76484 2.52672,-3.41928c1.54264,-1.77403 5.57977,-2.02736 5.57977,-2.02736c0,0 -1.7871,2.07012 -2.37173,3.11151c-0.63661,1.13393 -1.30524,3.43811 -1.30524,3.43811z" data-paper-data="{&quot;index&quot;:null}" fill="url(#color-34)" stroke="#000000" stroke-linecap="round"/><path d="M264.13861,143.22245c0,0 -0.76783,-1.4303 -0.66919,-2.18004c0.12041,-0.91513 1.33947,-2.91411 1.33947,-2.91411" data-paper-data="{&quot;index&quot;:null}" fill="none" stroke="#000000" stroke-linecap="round"/><path d="M268.56246,139.46887c0,0 -0.31166,-0.43043 -1.01393,-1.1988c-0.33693,-0.36866 -1.02915,-0.72663 -1.31978,-1.31892c-0.5306,-1.08131 -1.39441,-3.56472 -2.00961,-5.53086c-0.08225,-0.26287 -0.33967,-1.08619 -0.56516,-1.86525c-0.23885,-0.82516 0.55933,-1.38872 1.42961,-0.99773c0.59285,0.26637 2.11838,1.00666 3.28186,2.32707c1.3123,1.48929 2.2461,3.57974 2.41241,3.97557c0.25549,0.60807 0.04405,1.28764 0.18634,1.87012c0.11287,0.46208 0.51893,0.66421 0.62984,1.04231c0.25777,0.87871 0.1858,1.69649 0.1858,1.69649z" data-paper-data="{&quot;index&quot;:null}" fill="url(#color-35)" stroke="#000000" stroke-linecap="round"/><path d="M270.9313,137.09196c0,0 -0.50353,0.76527 -1.03901,0.9636c-0.4956,0.18356 -2.06345,0.18545 -2.06345,0.18545" data-paper-data="{&quot;index&quot;:null}" fill="none" stroke="#000000" stroke-linecap="round"/><path d="M264.20933,128.53152c0,0 1.21006,1.52844 1.74816,2.66131c0.80609,1.69704 3.02041,6.76092 3.02041,6.76092" data-paper-data="{&quot;index&quot;:null}" fill="none" stroke="#000000" stroke-linecap="round"/><path d="M232.12439,139.89986h28.55395c0,0 -8.68045,3.67162 -13.90405,4.61682c-5.33114,0.96468 -17.76671,1.11408 -17.76671,1.11408c0,0 0.62372,-1.43226 1.06104,-2.23636c0.56737,-1.04323 2.05576,-3.49454 2.05576,-3.49454z" data-paper-data="{&quot;index&quot;:null}" fill="url(#color-36)" stroke="#000000" stroke-linecap="round"/><path d="M230.94472,139.1674l-4.82601,10.45638h-4.12223l2.41302,-10.35583z" data-paper-data="{&quot;index&quot;:null}" fill="#ffffff" stroke="#000000" stroke-linecap="round"/><path d="M223.79892,150.13181c0.06813,-0.18945 0.14333,-0.80053 0.22421,-1.02484c0.72645,-2.01497 1.90966,-5.27273 2.52423,-6.8337c0.56996,-1.44769 1.88382,-4.21182 1.88382,-4.21182" data-paper-data="{&quot;index&quot;:null}" fill="none" stroke="#000000" stroke-linecap="round"/><path d="M223.2837,139.67714l-2.41302,9.75258c0,0 -6.02399,-0.12675 -9.34896,-0.24255c-3.40923,-0.11874 -10.86,-0.46125 -10.86,-0.46125v-8.94825z" data-paper-data="{&quot;index&quot;:null}" fill="url(#color-37)" stroke="#000000" stroke-linecap="round"/><path d="M192.99948,147.49226c-2.65425,-1.65195 -8.12285,-8.01619 -8.12285,-8.01619h14.37752v8.94825c0,0 -4.537,0.13699 -6.25466,-0.93205z" data-paper-data="{&quot;index&quot;:null}" fill="url(#color-38)" stroke="#000000" stroke-linecap="round"/><path d="M228.47026,137.81528l0.57453,-4.3664" data-paper-data="{&quot;index&quot;:null}" fill="none" stroke="#000000" stroke-linecap="round"/><path d="M241.22474,134.48304c0,0 -1.498,1.24475 -2.2631,1.23496c-2.53498,-0.0325 -6.41523,-0.08224 -7.37187,-0.09451c-0.42384,-0.00544 -0.82139,-0.29515 -0.82139,-0.46058c0,-0.20333 0,-0.67986 0,-0.67986z" data-paper-data="{&quot;index&quot;:null}" fill="#191919" stroke="#000000" stroke-linecap="butt"/><path d="M196.1819,134.25322c0,0 -0.64027,1.14906 -1.59432,1.14906c-2.51941,0 -7.22703,0 -8.1104,0c-0.28241,0 -0.52186,-0.32843 -0.52186,-0.50749c0,-0.20133 0,-0.64155 0,-0.64155z" data-paper-data="{&quot;index&quot;:null}" fill="#191919" stroke="#000000" stroke-linecap="butt"/><path d="M285.95355,180.27399c0,0 -0.09782,13.77547 -0.92057,20.4947c-0.61305,5.00656 -2.65512,13.74978 -3.51667,17.32527c-0.2403,0.99727 -2.46976,0.81488 -4.3924,0.09642c-4.95216,-1.85054 -26.56115,-8.96028 -26.56115,-8.96028c0,0 1.03747,-7.45001 1.26959,-11.74425c0.29078,-5.37936 0.33907,-18.0162 0.33907,-18.0162v0.93508c0,0 -0.0483,-12.63683 -0.33907,-18.0162c-0.23212,-4.29424 -1.26959,-11.74425 -1.26959,-11.74425c0,0 21.609,-7.10974 26.56115,-8.96028c1.92265,-0.71846 4.1521,-0.90085 4.3924,0.09642c0.86157,3.57549 2.90362,12.3187 3.51667,17.32527c0.82276,6.71926 0.92057,20.4947 0.92057,20.4947z" data-paper-data="{&quot;index&quot;:null}" fill="#1a1a1a" stroke="#000000" stroke-linecap="round"/><path d="M143.07923,152.99092c0,0.83292 -0.67522,1.50813 -1.50813,1.50813c-0.83292,0 -1.50813,-0.67522 -1.50813,-1.50813c0,-0.83292 0.67522,-1.50813 1.50813,-1.50813c0.83292,0 1.50813,0.67522 1.50813,1.50813z" data-paper-data="{&quot;index&quot;:null}" fill="url(#color-39)" stroke="#000000" stroke-linecap="butt"/><path d="M141.26948,152.48822v0.90488c0,0 -1.17029,0 -1.59717,0c-0.28568,0 -0.71528,-0.32342 -0.71528,-0.4783c0,-0.14626 0.31,-0.42659 0.54293,-0.42659c0.42052,0 1.76954,0 1.76954,0z" data-paper-data="{&quot;index&quot;:null}" fill="url(#color-40)" stroke="#000000" stroke-linecap="butt"/><path d="M254.87936,179.70462c0,0 -0.38007,-15.70703 -0.55709,-20.89926c-0.10387,-3.04696 -0.40811,-7.41341 -0.40811,-7.41341l23.48663,-7.56076c0,0 1.78428,1.39873 2.37596,5.31423c0.36842,2.43804 1.20498,7.24765 1.70905,12.35907c0.86906,8.81238 1.2236,10.89916 1.2236,18.20012c0,7.30096 -0.35454,9.85288 -1.2236,18.66527c-0.50408,5.11143 -1.34064,9.92104 -1.70905,12.35907c-0.59168,3.9155 -2.37596,5.31423 -2.37596,5.31423l-23.48663,-7.56076c0,0 0.30424,-4.36643 0.40811,-7.41341c0.17702,-5.19222 0.55709,-20.89926 0.55709,-20.89926z" data-paper-data="{&quot;index&quot;:null}" fill="url(#color-41)" stroke="#000000" stroke-linecap="round"/><path d="M363.45951,180.38055v16.08673h-1.4478v-18.25845v3.45669l-0.40217,-18.25845h1.4478l0.40217,16.08673z" data-paper-data="{&quot;index&quot;:null}" fill="url(#color-42)" stroke="none" stroke-linecap="round"/><path d="M363.70082,180.21967v16.2476h-2.89562v-16.2476v-0.56499l-0.40217,-16.2476h2.89562l0.40217,16.2476z" data-paper-data="{&quot;index&quot;:null}" fill="none" stroke="#000000" stroke-linecap="round"/><path d="M192.85286,152.5668c0,0 0.43857,-0.64373 -0.37904,-1.59174c-1.02048,-1.18326 -4.60316,-4.38621 -7.38462,-7.28315c-1.38228,-1.43968 -2.8327,-2.80378 -3.66861,-3.80687c-0.83303,-0.99964 -1.0539,-1.64072 -1.0539,-1.64072c0,0 0.21109,-1.9539 0.43183,-2.81275c0.19814,-0.77096 1.27898,-2.10519 1.27898,-2.10519" data-paper-data="{&quot;index&quot;:null}" fill="none" stroke="#000000" stroke-linecap="round"/><path d="M182.07751,226.54797c0,0 -1.08085,-1.33422 -1.27898,-2.10519c-0.22074,-0.85885 -0.43183,-2.81275 -0.43183,-2.81275c0,0 0.22087,-0.64108 1.0539,-1.64072c0.8359,-1.00308 2.28633,-2.36718 3.66861,-3.80687c2.78145,-2.89694 6.36411,-6.09988 7.38462,-7.28315c0.81759,-0.94801 0.37904,-1.59174 0.37904,-1.59174" data-paper-data="{&quot;index&quot;:null}" fill="none" stroke="#000000" stroke-linecap="round"/><path d="M217.39526,180.88405v-8.20423h12.17995v8.68684v-2.85891v8.68684h-12.17995v-8.20423z" data-paper-data="{&quot;index&quot;:null}" fill="url(#color-43)" stroke="#000000" stroke-linecap="round"/><text transform="translate(122.99024,163.92353) rotate(89.35509) scale(0.7041,0.7041)" font-size="40" xml:space="preserve" data-paper-data="{&quot;index&quot;:null}" fill="#ffffff" fill-rule="nonzero" stroke="#ffffff" stroke-width="0" stroke-linecap="butt" stroke-linejoin="miter" stroke-miterlimit="10" stroke-dasharray="" stroke-dashoffset="0" font-family="Sans Serif" font-weight="normal" text-anchor="start" style="mix-blend-mode: normal"><tspan x="0" dy="0">27</tspan></text><text transform="translate(183.49294,155.86915) rotate(89.35509) scale(0.7041,0.7041)" font-size="40" xml:space="preserve" data-paper-data="{&quot;index&quot;:null}" fill="url(#color-44)" fill-rule="nonzero" stroke="url(#color-45)" stroke-width="0" stroke-linecap="butt" stroke-linejoin="miter" stroke-miterlimit="10" stroke-dasharray="" stroke-dashoffset="0" font-family="Sans Serif" font-weight="normal" text-anchor="start" style="mix-blend-mode: normal"><tspan x="0" dy="0">457</tspan></text><path d="M280.89376,219.1332c0,0 0.21627,0.86165 0.64553,1.79022c0.32898,0.71164 0.76548,1.46257 0.9259,1.89502c0.39887,1.07522 0.74105,2.64893 0.74105,2.64893" data-paper-data="{&quot;index&quot;:null}" fill="none" stroke="#000000" stroke-linecap="round"/><path d="M283.20623,134.40699c0,0 -0.34217,1.57371 -0.74105,2.64893c-0.16043,0.43244 -0.59693,1.18337 -0.9259,1.89502c-0.42926,0.92855 -0.64553,1.79022 -0.64553,1.79022" data-paper-data="{&quot;index&quot;:null}" fill="none" stroke="#000000" stroke-linecap="round"/><path d="M222.41341,211.10504c0,0 125.83311,-5.06994 136.27774,-2.27395c3.19197,0.85448 -1.21002,9.60245 -14.32662,12.47669c-23.41331,5.13056 -63.19303,5.52659 -63.19303,5.52659c0,0 -47.67817,0.89125 -90.6223,0.00999c-29.7636,-0.61077 -57.12748,-2.57573 -65.28719,-4.20254c-14.17315,-2.8257 -12.1745,-11.53678 -12.1745,-11.53678z" fill="url(#color-46)" stroke="none" stroke-linecap="butt"/><path d="M113.08751,148.36604c0,0 -1.99865,-8.71108 12.1745,-11.53679c8.1597,-1.62679 35.52359,-3.59176 65.28719,-4.20254c42.94413,-0.88125 90.6223,0.00999 90.6223,0.00999c0,0 39.77972,0.39602 63.19303,5.52659c13.1166,2.87424 17.51858,11.62221 14.32662,12.47669c-10.44461,2.79598 -136.27774,-2.27395 -136.27774,-2.27395z" data-paper-data="{&quot;index&quot;:null}" fill="url(#color-47)" stroke="none" stroke-linecap="butt"/></g></g></svg>