<svg version="1.1" xmlns="http://www.w3.org/2000/svg" xmlns:xlink="http://www.w3.org/1999/xlink" width="55.42744" height="55.42744" viewBox="0,0,55.42744,55.42744"><defs><radialGradient cx="240.00001" cy="180" r="27.71372" gradientUnits="userSpaceOnUse" id="color-1"><stop offset="0" stop-color="#ffffff"/><stop offset="1" stop-color="#ffffff" stop-opacity="0"/></radialGradient><radialGradient cx="240" cy="180" r="15.21974" gradientUnits="userSpaceOnUse" id="color-2"><stop offset="0" stop-color="#32c4f5" stop-opacity="0.99216"/><stop offset="1" stop-color="#32c4f5" stop-opacity="0"/></radialGradient></defs><g transform="translate(-212.28628,-152.28628)"><g data-paper-data="{&quot;isPaintingLayer&quot;:true}" fill-rule="nonzero" stroke-linecap="butt" stroke-linejoin="miter" stroke-miterlimit="10" stroke-dasharray="" stroke-dashoffset="0" style="mix-blend-mode: normal"><path d="M212.28628,180c0,-15.30587 12.40785,-27.71372 27.71372,-27.71372c15.30587,0 27.71372,12.40785 27.71372,27.71372c0,15.30587 -12.40785,27.71372 -27.71372,27.71372c-15.30587,0 -27.71372,-12.40785 -27.71372,-27.71372z" fill="url(#color-1)" stroke="#000000" stroke-width="0"/><path d="M222.24782,180.25324c0,-9.94413 8.06131,-18.00543 18.00543,-18.00543c9.94413,0 18.00543,8.06131 18.00543,18.00543c0,9.94413 -8.06131,18.00543 -18.00543,18.00543c-9.94413,0 -18.00543,-8.06131 -18.00543,-18.00543z" fill-opacity="0.75686" fill="#4dd0ff" stroke-opacity="0.99608" stroke="#37beef" stroke-width="2.5"/><path d="M224.78026,180c0,-8.40564 6.81411,-15.21974 15.21974,-15.21974c8.40563,0 15.21974,6.8141 15.21974,15.21974c0,8.40563 -6.81411,15.21974 -15.21974,15.21974c-8.40563,0 -15.21974,-6.81411 -15.21974,-15.21974z" fill="url(#color-2)" stroke="#000000" stroke-width="0"/></g></g></svg>