<svg version="1.1" xmlns="http://www.w3.org/2000/svg" xmlns:xlink="http://www.w3.org/1999/xlink" width="472.87786" height="360.53869" viewBox="0,0,472.87786,360.53869"><defs><radialGradient cx="241.19134" cy="179.47439" r="123.14484" gradientUnits="userSpaceOnUse" id="color-1"><stop offset="0" stop-color="#d50020"/><stop offset="1" stop-color="#880014"/></radialGradient><linearGradient x1="340.37101" y1="162.46926" x2="361.89726" y2="162.46926" gradientUnits="userSpaceOnUse" id="color-2"><stop offset="0" stop-color="#000000"/><stop offset="1" stop-color="#0d0d0d"/></linearGradient><linearGradient x1="340.45452" y1="197.18857" x2="361.98079" y2="197.18857" gradientUnits="userSpaceOnUse" id="color-3"><stop offset="0" stop-color="#000000"/><stop offset="1" stop-color="#0d0d0d"/></linearGradient><linearGradient x1="240.27479" y1="148.88441" x2="240.27479" y2="138.14622" gradientUnits="userSpaceOnUse" id="color-4"><stop offset="0" stop-color="#666666"/><stop offset="1" stop-color="#000000"/></linearGradient><linearGradient x1="240.89001" y1="211.46705" x2="240.89001" y2="222.20522" gradientUnits="userSpaceOnUse" id="color-5"><stop offset="0" stop-color="#666666"/><stop offset="1" stop-color="#000000"/></linearGradient><linearGradient x1="283.34312" y1="179.30226" x2="304.59404" y2="179.30226" gradientUnits="userSpaceOnUse" id="color-6"><stop offset="0" stop-color="#4b4b4b"/><stop offset="1" stop-color="#000000"/></linearGradient><linearGradient x1="184.37074" y1="174.29978" x2="163.77054" y2="174.29978" gradientUnits="userSpaceOnUse" id="color-7"><stop offset="0" stop-color="#666666"/><stop offset="1" stop-color="#000000"/></linearGradient><linearGradient x1="193.38895" y1="174.78059" x2="212.48835" y2="174.78059" gradientUnits="userSpaceOnUse" id="color-8"><stop offset="0" stop-color="#2e2e2e"/><stop offset="1" stop-color="#666666"/></linearGradient><linearGradient x1="222.46618" y1="172.09838" x2="251.2115" y2="172.09838" gradientUnits="userSpaceOnUse" id="color-9"><stop offset="0" stop-color="#666666"/><stop offset="1" stop-color="#b2b2b2"/></linearGradient><linearGradient x1="120.10211" y1="180.05986" x2="148.52024" y2="180.05986" gradientUnits="userSpaceOnUse" id="color-10"><stop offset="0" stop-color="#2a0006"/><stop offset="1" stop-color="#2a0006" stop-opacity="0"/></linearGradient><linearGradient x1="115.64895" y1="128.46327" x2="149.42834" y2="128.46327" gradientUnits="userSpaceOnUse" id="color-11"><stop offset="0" stop-color="#0c0c0c"/><stop offset="1" stop-color="#272727"/></linearGradient></defs><g transform="translate(-4.42566,-1.09609)"><g data-paper-data="{&quot;isPaintingLayer&quot;:true}" fill-rule="nonzero" stroke-linejoin="miter" stroke-miterlimit="10" stroke-dasharray="" stroke-dashoffset="0" style="mix-blend-mode: normal"><path d="M226.57049,123.85607l-47.95156,-1.61714l0.08294,-1.28576c0,0 28.6289,1.54796 36.10127,2.01091c2.07514,0.12856 5.86377,0.33729 8.44863,0.58038c0.58557,0.05506 1.1792,-0.06331 1.69932,-0.01449c0.9262,0.08697 1.61939,0.32609 1.61939,0.32609z" data-paper-data="{&quot;index&quot;:null}" fill="#0c0c0c" stroke="#7e0013" stroke-width="0.5" stroke-linecap="butt"/><path d="M178.79194,238.86715l-0.10064,-1.56l54.73147,-1.69793c0,0 -8.74153,0.74116 -14.03547,1.06914c-9.56164,0.5924 -40.59537,2.18878 -40.59537,2.18878z" fill="#0c0c0c" stroke="#7e0013" stroke-width="0.5" stroke-linecap="butt"/><path d="M230.03263,124.50831c2.99524,-0.04659 7.09141,-0.03779 11.38997,0.19252c1.86762,0.10006 3.77345,0.50683 5.64379,0.52731c2.48472,0.0272 15.82228,-0.04154 16.7517,0.42864c0.66563,0.33674 1.51759,-0.09709 2.4165,-0.10261c1.45399,-0.00893 3.03084,0.2231 4.14079,0.07506c0.18961,-0.02531 9.34832,0.28959 14.86781,-0.06543c2.36772,-0.15229 6.03795,-1.20535 8.4208,-1.2716c11.0065,-0.32085 24.61054,-0.49166 35.97113,0.15509c1.5003,0.08542 4.89507,-0.02452 8.42806,0.41922c2.07288,0.26033 7.74201,0.64958 11.63005,3.26445c0.27611,0.18572 0.56158,-0.04889 0.84991,0.11737c1.22112,0.70414 2.49377,1.7026 3.32698,2.70262c2.01333,2.41638 3.54913,6.5544 4.01173,7.0911c1.75309,2.8328 1.85618,8.65376 3.15539,11.06215c1.13376,2.10169 0.08941,1.04388 1.07036,4.11133c0.20479,0.64334 -0.48356,0.82756 -1.23009,1.47279c-0.82853,0.71608 1.06304,4.21865 1.23248,4.90974c0.74316,3.03118 0.70521,5.71821 0.7521,8.28271c0.05389,2.9473 0.12034,5.78251 -0.0482,9.6231c-0.0319,0.72881 0.67685,1.95984 0.6685,2.91934c-0.01894,2.17618 -0.72727,4.45534 -0.79607,6.97844c-0.05094,1.86792 0.24469,4.77557 -0.09487,7.71366c-0.46002,3.98021 -1.56755,8.01631 -1.4378,9.59911c0.11829,1.44305 1.04513,2.41322 0.64097,3.23403c-0.92466,1.87801 -3.95375,15.83858 -5.52512,18.42181c-1.99259,3.27571 -5.77573,5.44282 -5.86065,5.53863c-2.65277,2.98024 -21.64999,3.46436 -21.96933,3.61749c-0.67142,0.32195 -4.23646,0.2435 -8.64369,0.21505c-6.02373,-0.03887 -13.62071,-0.11896 -17.55301,-0.19242c-5.72504,-0.10884 -3.49288,0.91907 -9.19387,0.34117c-2.39367,-0.24264 -5.12989,-1.45154 -7.51966,-1.57685c-2.45469,-0.12872 -8.14162,0.07526 -10.5458,-0.0363c-0.24589,-0.01141 -1.07874,-0.28183 -2.47431,-0.23886c-9.3678,0.28863 -40.82146,1.62227 -43.14265,1.57475c-5.15743,-0.10598 -10.40945,0.21211 -15.60308,0.35454c-4.43461,0.12161 -8.80696,0.01685 -13.25733,0.48968c-4.54447,0.48296 -16.79777,0.93138 -22.37793,0.87761c-1.37915,-0.03364 -3.11834,0.02643 -4.85364,0.02841c-11.9243,0.0136 -30.37289,0.4204 -31.73592,-0.36185c-0.4829,-0.27733 -2.13662,-0.46753 -4.16319,-0.95787c-3.04552,-0.73688 -7.02437,-1.96893 -9.86589,-3.73518c-1.47874,-0.91915 -2.71303,-2.07097 -3.34059,-3.33216c-0.71914,-1.44521 -1.35564,-2.95154 -1.6795,-3.91755c-0.11167,-0.33307 0.22482,-0.60192 0.04776,-0.78188c-1.36598,-1.38818 -2.71817,-7.29459 -3.12761,-12.10988c-0.20132,-2.36757 -0.28229,-4.34578 -0.38528,-5.5709c-0.04129,-0.49119 0.34035,-0.93961 0.17078,-1.12323c-2.4675,-2.67798 -1.5371,-7.53907 -2.2076,-10.25809c-0.35318,-1.43221 -0.10875,-11.77334 -0.28322,-14.99365c-0.3119,-5.75705 0.48264,-14.44597 0.51728,-20.02947c0.01258,-2.04238 1.46634,-3.84265 1.87657,-6.24591c0.33844,-1.98269 0.07963,-4.19529 0.27028,-6.39207c0.08328,-0.95955 0.47878,-1.91608 0.66734,-2.84911c0.53352,-2.64 1.12801,-5.37501 1.93447,-7.77951c0.82936,-2.47281 1.87346,-4.60548 2.61483,-6.61686c0.54898,-1.67451 4.60166,-4.31914 8.80546,-5.68161c3.16427,-1.02555 6.62333,-0.80181 7.5707,-1.80984c0.56293,-0.59854 4.06905,-0.46776 7.19142,-0.47113c9.85234,-0.01064 28.85476,0.31607 36.3472,0.45146c1.20784,0.02182 8.16378,-0.23397 11.41871,0.28328c2.15712,0.34058 9.86653,0.26178 11.65906,0.44174c3.6685,0.3661 22.45503,0.98642 22.45503,0.98642z" fill="url(#color-1)" stroke="#121212" stroke-width="0.5" stroke-linecap="round"/><path d="M260.49972,118.86671c1.0459,0.85181 2.3987,4.3614 2.3987,4.3614l-0.91264,9.80829l-2.33902,-0.46421c0,0 0.61604,-5.10703 0.61604,-6.71626c0,-0.43301 -2.45858,-2.3105 -3.5329,-4.20793c-1.16572,-2.05885 -1.57069,-4.13791 -1.57069,-4.13791c0,0 4.08473,0.33384 5.34051,1.35659z" data-paper-data="{&quot;index&quot;:null}" fill="#0c0c0c" stroke="#7e0013" stroke-width="0.5" stroke-linecap="butt"/><path d="M256.92583,238.11809c1.07432,-1.89743 3.337,-3.57899 3.337,-4.012c0,-1.60923 -0.79745,-6.71626 -0.79745,-6.71626l2.75262,-0.36263l0.65141,9.48178c0,0 -1.32379,3.73454 -2.36967,4.58635c-0.44161,0.35967 -1.24652,0.85989 -2.10459,1.07507c-1.58202,0.39674 -3.34476,0.34683 -3.34476,0.34683c0,0 0.70972,-2.34028 1.87544,-4.39913z" fill="#0c0c0c" stroke="#7e0013" stroke-width="0" stroke-linecap="butt"/><path d="M346.68535,126.46462c2.236,0.70177 6.48928,2.97663 6.48928,2.97663c0,0 1.54948,1.25274 2.75152,3.40935c1.38009,2.47604 2.48822,6.06385 3.3923,8.97601c1.27887,4.11946 3.0346,11.01799 3.0346,11.01799l-1.53932,1.32793c0,0 1.57048,6.87783 1.91178,9.43143c0.26959,2.01704 0.30624,5.33181 0.30624,5.33181l0.24093,12.22454l-1.72094,-0.14339c0,0 -0.77909,0.25481 -0.69269,-13.41531c0.01535,-2.42855 -0.85411,-4.72804 -1.46699,-7.68776c-0.46202,-2.23111 -0.56189,-5.01765 -1.24216,-7.50488c-1.4829,-5.42175 -3.31213,-11.46655 -5.78327,-16.10447c-0.59448,-1.11572 -1.29964,-2.34154 -1.94665,-3.328c-3.1459,-4.79645 -13.42748,-8.00712 -13.42748,-8.00712c0,0 7.53118,0.81679 9.69286,1.49523z" data-paper-data="{&quot;index&quot;:null}" fill="url(#color-2)" stroke="#121212" stroke-width="0.5" stroke-linecap="butt"/><path d="M336.6471,234.94005c0,0 10.71047,-3.46227 13.85638,-8.25873c0.64701,-0.98648 1.35218,-2.21229 1.94665,-3.32801c2.47116,-4.63793 4.30038,-10.68274 5.78328,-16.10447c0.68027,-2.48723 0.78015,-5.27378 1.24216,-7.50488c0.61289,-2.95972 1.48235,-5.25922 1.46699,-7.68777c-0.08641,-13.67012 0.69267,-13.41531 0.69267,-13.41531l1.72094,-0.14337l-0.24092,12.22455c0,0 -0.03664,3.31478 -0.30624,5.33181c-0.34132,2.5536 -1.91178,9.43143 -1.91178,9.43143l1.53932,1.32793c0,0 -1.75573,6.89854 -3.03461,11.01798c-0.90408,2.91217 -2.0122,6.49999 -3.39229,8.97602c-1.20205,2.15662 -2.75152,3.40934 -2.75152,3.40934c0,0 -4.25328,2.27487 -6.4893,2.97664c-2.16169,0.67844 -10.12175,1.74684 -10.12175,1.74684z" fill="url(#color-3)" stroke="#121212" stroke-width="0.5" stroke-linecap="butt"/><path d="M213.47772,218.78138l0.10316,-8.08755c0,0 9.63167,0.01499 20.5833,-0.25126c6.10571,-0.14844 12.91156,-0.16055 18.39805,-0.84942c6.12493,-0.76904 10.89401,-3.21419 12.44869,-4.19917c4.23858,-2.6854 6.84492,-6.79222 7.21488,-7.43554c0.92749,-1.61276 2.19404,-5.16415 2.19404,-5.16415c0,0 2.11885,-8.51296 2.11885,-11.75708c0,-2.35371 -1.02425,-9.22773 -2.65445,-14.45913c-0.56558,-1.81499 -3.35225,-7.6476 -8.10021,-10.86793c-1.7208,-1.16715 -6.23859,-3.86188 -12.28048,-4.72116c-7.37392,-1.04873 -16.73155,-1.09277 -24.53568,-1.19244c-8.66062,-0.11063 -15.40806,-0.21415 -15.40806,-0.21415l-0.03359,-7.55627c0,0 9.93432,-2.05121 19.00152,-3.18029c3.17154,-0.39493 6.29432,-0.33313 8.76987,-0.50459c9.98736,-0.6917 31.0381,-0.44438 31.0381,-0.44438c0,0 9.35997,2.10818 13.74328,3.93111c4.31774,1.79565 12.36283,6.92587 12.36283,6.92587c0,0 3.51945,2.25696 6.77009,6.43275c2.67739,3.43938 5.05573,8.25048 6.14939,13.56576c1.31274,6.38 1.09257,14.60697 0.33566,20.4331c-0.14959,1.1515 -0.87531,4.65986 -2.05444,7.89495c-1.31404,3.60526 -3.44221,6.98057 -4.8612,8.64277c-1.87103,2.19173 -11.85318,11.4337 -23.03955,14.19581c-2.16818,0.53536 -4.33186,1.44379 -6.68174,1.94905c-2.56169,0.55081 -5.3173,0.67721 -7.84763,0.70614c-3.65886,0.04183 -6.82718,-0.27801 -9.58016,-0.09656c-13.65684,0.90014 -44.15452,-3.69624 -44.15452,-3.69624z" fill="#272727" stroke="#121212" stroke-width="0.5" stroke-linecap="butt"/><path d="M218.39797,147.77612c0,0 0.76837,-3.58817 5.31119,-5.81877c4.8883,-2.40025 13.34217,-3.23659 16.57507,-3.4485c9.62132,-0.63066 22.38977,-0.57366 22.38977,-0.57366l-10.51954,10.9492z" data-paper-data="{&quot;index&quot;:null}" fill="url(#color-4)" stroke="#121212" stroke-width="0.5" stroke-linecap="round"/><path d="M252.7697,211.46705l10.28734,10.91291c0,0 -12.53625,0.09329 -22.15758,-0.53738c-3.2329,-0.2119 -11.68676,-1.04824 -16.57506,-3.44849c-4.54282,-2.2306 -5.81912,-5.96389 -5.81912,-5.96389z" data-paper-data="{&quot;index&quot;:null}" fill="url(#color-5)" stroke="#121212" stroke-width="0.5" stroke-linecap="round"/><path d="M278.67907,179.41068c0.02128,-2.25417 -0.40117,-13.22009 -5.15599,-20.1639c-4.94783,-7.22567 -14.77904,-10.39282 -14.77904,-10.39282c0,0 8.58313,-8.05131 10.72978,-8.72179c2.04573,-0.63897 16.73262,0.92594 26.63571,8.80002c4.27419,3.39846 8.15735,8.20567 10.3738,12.54834c2.44481,4.79007 3.00296,9.01494 3.01375,10.16057c0.00462,0.4899 1.08722,5.02818 0.79774,10.67483c-0.10901,2.12627 -0.10157,4.40389 -0.5384,6.52744c-0.46155,2.24373 -1.36852,4.30282 -1.48922,5.34378c-0.03958,0.34147 -1.46931,4.39592 -4.71754,8.85497c-2.79113,3.83157 -7.06698,7.90508 -11.32484,10.8313c-9.22302,6.33855 -20.90411,6.28836 -22.53974,5.67546c-1.55977,-0.58445 -10.72389,-8.69719 -10.72389,-8.69719c0,0 5.90212,-1.80245 10.51055,-5.78333c1.71184,-1.47873 3.02434,-3.50886 4.298,-5.40257c4.97156,-7.39192 4.88094,-17.24655 4.90932,-20.25512z" fill="url(#color-6)" stroke="#121212" stroke-width="0.5" stroke-linecap="butt"/><path d="M130.72127,199.45698v-39.80893h140.05506c0,0 1.48919,2.97886 2.74827,6.65035c1.44263,4.20673 2.68021,9.37128 2.68021,12.83158c0,3.44845 -0.47534,9.427 -1.8562,13.70567c-1.3325,4.1288 -3.68113,6.94786 -3.68113,6.94786z" fill="#1a1a1a" stroke="#121212" stroke-width="0.5" stroke-linecap="butt"/><path d="M142.3929,166.16958c3.08165,0.79424 5.78228,2.10616 7.27127,2.90277c2.94258,1.57428 3.58654,7.05718 3.58654,7.05718l-8.02809,-0.13061l-0.19744,-3.18754l-11.44914,-0.29738v-7.89599c0,0 4.59289,0.46294 8.81684,1.55157z" data-paper-data="{&quot;index&quot;:null}" fill="#0c0c0c" stroke="#121212" stroke-width="0.5" stroke-linecap="butt"/><path d="M133.44544,195.06814v-7.89598l11.44915,-0.29738l0.19744,-3.18754l8.02809,-0.13061c0,0 -0.64398,5.48288 -3.58655,7.05718c-1.48899,0.79661 -4.18961,2.10855 -7.27127,2.90278c-4.22395,1.08863 -8.81685,1.55157 -8.81685,1.55157z" fill="#0c0c0c" stroke="#121212" stroke-width="0.5" stroke-linecap="butt"/><path d="M184.37074,182.6412l-1.35081,0.67544l-2.87055,0.84424l-19.66709,4.73257c0,0 0.98863,-5.34425 1.09069,-8.18632c0.06293,-1.75222 -0.16951,-4.67932 -0.60694,-6.83855c-0.2966,-1.4641 -0.8474,-2.62849 -0.8474,-2.62849l20.36844,4.54563l2.53284,0.94556l1.35081,1.28328z" data-paper-data="{&quot;index&quot;:null}" fill="url(#color-7)" stroke="#121212" stroke-width="0.5" stroke-linecap="round"/><path d="M199.74198,188.26942c0,0 -5.12487,-0.38792 -8.2053,-2.46406c-2.05767,-1.38684 -2.88735,-4.54427 -2.89358,-5.62151c-0.00697,-1.2034 0.74733,-4.81332 2.82068,-6.45074c3.04155,-2.40206 8.1795,-2.5223 8.1795,-2.5223c0,0 40.47373,-2.07269 47.65557,-2.07269c4.00576,0 9.06394,1.48049 9.06394,1.48049c0,0 1.17337,1.07923 1.78257,2.85477c0.67092,1.95543 0.78364,4.69239 0.78364,6.31609c0,1.56086 -0.15104,4.23109 -0.79408,6.21129c-0.64006,1.97102 -1.77212,3.25566 -1.77212,3.25566c0,0 -5.63097,1.2831 -9.95224,1.2831c-7.24687,0 -46.66858,-2.2701 -46.66858,-2.2701z" fill="#272727" stroke="#121212" stroke-width="0.5" stroke-linecap="butt"/><path d="M196.97085,175.85355c0,0 1.76414,-0.70603 3.20346,-0.80555c2.7824,-0.19238 12.24167,-0.99122 12.24167,-0.99122l-0.01373,11.16291l-14.21152,-1.2878l-1.32754,-0.85352c0,0 -0.90688,-2.21277 -0.88932,-3.39106c0.01829,-1.22793 0.99699,-3.83377 0.99699,-3.83377z" fill="url(#color-8)" stroke="#121212" stroke-width="0.5" stroke-linecap="round"/><path d="M222.46618,172.09838l17.01117,-0.16136c2.76546,0.1204 6.5186,-0.56635 8.64349,-0.44462c1.88816,0.10816 5.77344,0.79371 6.56663,1.94907c0.38333,0.55838 0.96181,1.6742 1.22593,2.93607c0.37769,1.80444 0.36468,3.7815 0.36468,3.7815c0,0 0.10547,2.33297 -0.19481,3.40735c-0.28889,1.03363 -1.57402,2.92142 -1.57402,2.92142c0,0 -4.56377,0.87663 -7.10559,0.96175c-2.94316,0.09855 -9.52652,0.19839 -9.52652,0.19839l-15.41096,-0.11129z" fill="url(#color-9)" stroke="#121212" stroke-width="0.5" stroke-linecap="round"/><path d="M270.14506,159.49216l0.88213,1.98016l-39.12831,-0.88213c0,0 -16.60543,-0.46957 -16.54252,-0.48604c0.37031,-0.09694 5.65383,-0.47884 5.65383,-0.47884z" data-paper-data="{&quot;index&quot;:null}" fill="#ffffff" stroke="#7e0013" stroke-width="0.5" stroke-linecap="butt"/><path d="M218.74742,199.884l-3.60914,-0.70365l56.49959,-1.07805l-0.88214,1.98016z" fill="#ffffff" stroke="#7e0013" stroke-width="0.5" stroke-linecap="butt"/><path d="M319.50564,159.44116c5.26524,0.95605 16.86316,3.72683 16.86316,3.72683l-27.95386,-3.6571l-1.37142,-1.97427c0,0 8.07541,1.10798 12.46211,1.90451z" data-paper-data="{&quot;index&quot;:null}" fill="#ffffff" stroke="#7e0013" stroke-width="0.5" stroke-linecap="butt"/><path d="M308.20568,200.28466c0,0 4.19604,-12.91901 4.25674,-19.68198c0.027,-3.00816 -0.19985,-7.566 -1.0536,-11.66559c-1.04052,-4.99645 -3.32016,-9.39387 -3.32016,-9.39387c0,0 23.72067,2.44794 33.1122,4.5335c7.61763,1.69163 19.60893,7.12891 19.60893,7.12891c0,0 0.7238,6.2065 0.7238,9.21443c0,2.88598 -0.7238,8.48245 -0.7238,8.48245c0,0 -10.73393,4.67705 -17.74551,6.12248c-9.48959,1.95627 -34.85862,5.25966 -34.85862,5.25966z" fill="#1a1a1a" stroke="#121212" stroke-width="0.5" stroke-linecap="butt"/><path d="M307.17925,202.44311l1.37142,-1.97426l32.44363,-4.55505c0,0 -16.08769,3.66871 -21.35293,4.62477c-4.38668,0.79653 -12.46211,1.90452 -12.46211,1.90452z" fill="#ffffff" stroke="#7e0013" stroke-width="0.5" stroke-linecap="butt"/><path d="M329.29966,154.67809l1.14285,4.97136l-4.91421,0.22857l-4.0489,-7.11825z" data-paper-data="{&quot;index&quot;:null}" fill="#0c0c0c" stroke="#7e0013" stroke-width="0.5" stroke-linecap="butt"/><path d="M320.86713,207.85281l4.37543,-7.11826l5.24074,0.22857l-1.46936,4.97135z" fill="#0c0c0c" stroke="#7e0013" stroke-width="0.5" stroke-linecap="butt"/><path d="M136.2539,216.18346c0,0 18.67597,1.52436 24.40785,2.31838c3.28638,0.45526 6.12741,1.75298 6.12741,1.75298c0,0 -2.67958,3.0604 -4.12836,4.27481c-1.61028,1.3498 -5.3715,3.59651 -5.3715,3.59651c0,0 -5.48616,0.30966 -10.22147,-0.38528c-2.85422,-0.41888 -5.17639,-1.54836 -6.59333,-2.35281c-3.12199,-1.77249 -4.22061,-9.2046 -4.22061,-9.2046z" fill="#0c0c0c" stroke="#7e0013" stroke-width="0.5" stroke-linecap="butt"/><path d="M353.86704,208.76682c0,0 -1.39648,10.38714 -7.57212,15.66894c-6.17562,5.28178 -14.88228,4.90571 -14.88228,4.90571c0,0 2.84409,-8.12528 9.01971,-13.40706c6.17562,-5.28178 13.43469,-7.16759 13.43469,-7.16759z" fill="#e5e5e5" stroke="#7e0013" stroke-width="0.5" stroke-linecap="butt"/><path d="M337.02325,225.46225l4.38777,-6.87812c0,0 2.38353,-2.43056 3.96897,-3.32704c2.0626,-1.1663 7.51233,-3.39887 7.51233,-3.39887c0,0 -0.30432,1.66252 -1.28301,4.06592c-0.54578,1.3403 -1.92964,4.19819 -2.82309,5.2746c-0.95836,1.1546 -2.1389,1.55831 -3.21271,2.08728c-1.91966,0.94566 -3.67754,1.48505 -4.49063,1.69195c-1.60996,0.40968 -4.05964,0.4843 -4.05964,0.4843z" fill="#666666" stroke="#7e0013" stroke-width="0.5" stroke-linecap="butt"/><path d="M361.24408,179.86106c0,0 0.1049,7.78132 -1.13277,16.80432c-0.8123,5.92191 -2.54626,12.10402 -4.06373,17.93536c-1.42649,5.48174 -4.6492,10.01932 -6.17247,12.81109c-3.71453,6.80777 -19.03057,8.16365 -19.03057,8.16365l-37.02514,0.29059l-8.14274,-1.4476l-21.89491,-0.18094" fill="none" stroke="#121212" stroke-width="0.5" stroke-linecap="round"/><path d="M260.08266,230.9688c-0.07858,-0.62867 -0.52257,-1.69893 -0.52257,-1.69893v-2.09384l2.55915,-0.46529l0.85304,10.00395c0,0 -1.24023,3.7752 -2.58572,4.78172c-1.43991,1.07716 -5.40191,1.25101 -5.40191,1.25101c0,0 0.88759,-2.9626 1.63133,-4.37813c0.84578,-1.60974 3.64206,-4.30746 3.64206,-4.30746z" fill="none" stroke="#7e0013" stroke-width="0.5" stroke-linecap="round"/><path d="M258.94655,234.71602c0,0 -8.33115,-0.23256 -18.36904,0.60934c-5.42703,0.45516 -11.42632,0.90707 -15.91525,1.21909c-14.00023,0.97311 -45.99156,2.20183 -45.99156,2.20183l-0.10707,-1.26899l-36.34126,-0.1974c0,0 -12.56386,-2.19314 -16.3277,-5.99717c-3.9599,-4.00218 -6.57733,-19.12952 -6.57733,-19.12952l-0.29278,-6.93446" fill="none" stroke="#7e0013" stroke-width="0.5" stroke-linecap="round"/><path d="M130.91862,180.26914l-0.10857,25.46868l3.47423,4.23422l1.51921,21.67766l-11.65418,-0.44793l4.15299,-3.00656c0,0 -3.42867,-13.41772 -5.31623,-18.00317c-1.26583,-3.07509 -5.12635,-6.51166 -5.12635,-6.51166c0,0 -0.97409,-6.61302 -1.171,-10.31587c-0.21347,-4.0142 -0.06418,-12.91076 -0.06418,-12.91076" fill="none" stroke="#121212" stroke-width="0.5" stroke-linecap="round"/><path d="M125.59176,228.24718l-3.61899,-17.8537" fill="none" stroke="#7e0013" stroke-width="0.5" stroke-linecap="round"/><path d="M325.60152,235.48518l5.94118,-6.39356" fill="none" stroke="#7e0013" stroke-width="0.5" stroke-linecap="round"/><path d="M358.77561,180.06932c0,0 -0.27257,9.66336 -0.95437,14.21118c-0.68535,4.57158 -3.96142,14.77595 -3.96142,14.77595" fill="none" stroke="#121212" stroke-width="0.5" stroke-linecap="round"/><path d="M361.02694,188.71731c0,0 -13.69946,5.69524 -21.84878,7.82258c-5.25756,1.37246 -14.38314,3.24313 -21.58316,4.54891c-5.98264,1.08499 -10.63582,1.7426 -10.63582,1.7426c0,0 3.65169,-7.05879 4.47694,-11.00841c0.85969,-4.11439 0.94399,-12.35939 0.94399,-12.35939" fill="none" stroke="#121212" stroke-width="0.5" stroke-linecap="round"/><path d="M343.14155,195.38717l-34.86297,5.06659" fill="none" stroke="#7e0013" stroke-width="0.5" stroke-linecap="round"/><path d="M316.48164,179.1017c0,0 -0.05815,7.59308 -0.79921,11.10779c-0.65592,3.11092 -3.42294,9.15858 -3.42294,9.15858" fill="none" stroke="#121212" stroke-width="0.5" stroke-linecap="round"/><path d="M340.72891,184.65083c0,0 -4.37794,1.19135 -6.51907,1.53801c-2.07919,0.33663 -6.14739,0.51275 -6.14739,0.51275c0,0 -0.54314,-1.96992 -0.63932,-3.14339c-0.10423,-1.27152 -0.08448,-4.0946 -0.08448,-4.0946" fill="none" stroke="#121212" stroke-width="0.5" stroke-linecap="round"/><path d="M329.58608,183.63972l0.09048,-7.78083" fill="none" stroke="#121212" stroke-width="0.5" stroke-linecap="round"/><path d="M331.75746,185.81111l-0.09048,-6.78561" fill="none" stroke="#121212" stroke-width="0.5" stroke-linecap="round"/><path d="M330.67319,200.77361c0,0 -0.77224,5.8331 -3.74458,7.61994c-3.26161,1.96073 -15.14656,3.45418 -15.14656,3.45418l6.18848,-9.66271c0,0 4.36281,-1.09999 6.43872,-1.33064c2.15533,-0.23948 6.26394,-0.08076 6.26394,-0.08076z" fill="none" stroke="#7e0013" stroke-width="0.5" stroke-linecap="round"/><path d="M325.02755,200.77361l-4.77708,7.49131l-7.70846,3.2571" fill="none" stroke="#7e0013" stroke-width="0.5" stroke-linecap="round"/><path d="M328.86748,206.15067l-8.39987,1.89712" fill="none" stroke="#7e0013" stroke-width="0.5" stroke-linecap="round"/><g stroke="#7e0013" stroke-width="0.5"><path d="M299.05984,230.13733c0,0 0.21793,-1.30217 1.15771,-2.79276c0.96994,-1.53843 2.68523,-3.27756 4.1803,-3.99286c1.27955,-0.61218 5.64586,-2.14604 9.25296,-2.96859c4.69109,-1.06972 8.66105,-1.3742 8.66105,-1.3742c0,0 -0.3395,1.86547 -1.47619,3.91485c-1.43529,2.58773 -3.9265,5.57621 -6.21417,6.6707c-4.09942,1.9613 -15.56167,0.54286 -15.56167,0.54286z" fill="#0c0c0c" stroke-linecap="butt"/><path d="M302.22649,230.04686l1.44759,-5.97135" fill="none" stroke-linecap="round"/><path d="M305.93594,229.86589l0.90475,-7.32846" fill="none" stroke-linecap="round"/><path d="M310.00732,222.08507l-0.81427,8.05225" fill="none" stroke-linecap="round"/><path d="M313.26441,221.08984l-0.27142,8.68559" fill="none" stroke-linecap="round"/><path d="M316.61199,227.96593l-0.09048,-7.87131" fill="none" stroke-linecap="round"/><path d="M319.7786,224.34695v-4.7047" fill="none" stroke-linecap="round"/></g><path d="M363.29232,179.94926c0,0 -0.14037,8.23405 -0.36828,12.48643c-0.22442,4.18715 -1.97584,12.73652 -1.97584,12.73652l1.37889,1.37307c0,0 -3.44172,17.80651 -8.26486,22.88545c-1.58804,1.67225 -4.55994,3.21031 -7.78171,4.14189c-5.44876,1.57549 -14.91819,1.97545 -14.91819,1.97545" fill="none" stroke="#121212" stroke-width="0.5" stroke-linecap="round"/><path d="M310.49059,178.80043c0,0 0.14136,8.31062 -2.1166,15.23591c-1.0198,3.12776 -3.37826,7.6921 -6.52754,11.47312c-3.24035,3.89035 -7.27544,6.96558 -8.48405,7.81573c-2.68333,1.88751 -6.23398,3.61588 -9.45751,4.65631c-7.17442,2.31566 -14.67082,1.88804 -14.67082,1.88804l-10.22204,-8.07506v-1.32698c0,0 9.79574,-3.19572 12.81626,-7.83922c1.07323,-1.6499 3.46434,-4.29934 4.4224,-7.33917c2.1405,-6.79159 2.42454,-15.05026 2.42454,-15.05026" fill="none" stroke="#121212" stroke-width="0.5" stroke-linecap="round"/><path d="M312.23158,188.14382l3.69138,-1.01332" fill="none" stroke="#121212" stroke-width="0.5" stroke-linecap="round"/><path d="M307.02401,202.59321c0,0 -2.00006,3.32021 -5.53188,6.53315c-3.10595,2.82552 -7.64257,5.51341 -9.64314,6.5433c-1.79372,0.92339 -4.00238,2.12734 -5.70954,2.85395c-3.99339,1.6997 -10.7213,3.49155 -10.7213,3.49155" fill="none" stroke="#7e0013" stroke-width="0.5" stroke-linecap="round"/><path d="M309.67794,202.47258c0,0 -2.29726,3.75159 -5.67273,7.23511c-2.25224,2.32431 -5.11835,4.39543 -7.61035,5.64515c-3.08079,1.54499 -7.3652,3.85902 -12.60493,5.16633c-6.87496,1.7153 -14.5241,2.21976 -14.5241,2.21976c0,0 -22.53091,0.00336 -32.42776,-0.76036c-8.58326,-0.66235 -23.57563,-3.56127 -23.57563,-3.56127l0.22529,-7.75427l32.47225,-0.4935c0,0 8.75077,-0.09968 15.39823,-2.7929c5.80269,-2.35099 9.48589,-7.10111 11.06133,-9.99259c3.87628,-7.1143 3.84128,-17.1987 3.84128,-17.1987" fill="none" stroke="#121212" stroke-width="0.5" stroke-linecap="round"/><path d="M348.94926,221.40717c0,0 -4.69668,2.60603 -6.94955,3.348c-2.04363,0.67305 -5.45843,0.99479 -5.45843,0.99479c0,0 3.74313,-6.52223 6.53868,-8.84062c2.83907,-2.3545 9.82435,-5.2573 9.82435,-5.2573" fill="none" stroke="#7e0013" stroke-width="0.5" stroke-linecap="round"/><path d="M256.61954,212.22165l23.39186,22.01006" fill="none" stroke="#121212" stroke-width="0.5" stroke-linecap="round"/><path d="M204.86161,221.51947v-6.43663h6.35908v6.43663z" fill="none" stroke="#7e0013" stroke-width="0.5" stroke-linecap="butt"/><path d="M249.04141,222.39208c0,0 -18.11288,-0.36994 -29.04149,-2.28967c-11.63339,-2.04352 -25.89064,-5.29148 -35.17575,-7.1907c-17.81833,-3.64466 -51.40961,-12.91215 -51.40961,-12.91215" fill="none" stroke="#7e0013" stroke-width="0.5" stroke-linecap="round"/><path d="M217.13841,219.35389c0,0 -44.39987,-6.79666 -55.47734,-9.22492c-10.56718,-2.3164 -30.56424,-6.51771 -30.56424,-6.51771" fill="none" stroke="#7e0013" stroke-width="0.5" stroke-linecap="round"/><path d="M134.21821,209.4469l82.10592,9.90699" fill="none" stroke="#7e0013" stroke-width="0.5" stroke-linecap="round"/><path d="M270.42752,199.9249l-139.50282,-0.13395" fill="none" stroke="#7e0013" stroke-width="0.5" stroke-linecap="round"/><path d="M271.57495,198.01695l-83.32733,1.82243" fill="none" stroke="#7e0013" stroke-width="0.5" stroke-linecap="round"/><path d="M216.84621,210.36917v-60.64529" fill="none" stroke="#121212" stroke-width="0.5" stroke-linecap="round"/><path d="M259.0735,179.41676c0,0 0.05651,7.23306 -1.89615,9.14186c-2.06695,2.02051 -10.49242,2.26443 -10.49242,2.26443l-46.62534,-2.09362c0,0 -6.55773,-0.98417 -8.58853,-2.60332c-0.69587,-0.55481 -1.82156,-2.03362 -2.32196,-3.21303c-0.76122,-1.79417 -0.73393,-3.33453 -0.73393,-3.33453" fill="none" stroke="#121212" stroke-width="0.5" stroke-linecap="round"/><path d="M256.77275,179.36741c0,0 -0.12431,5.68721 -1.852,7.09952c-1.77848,1.45384 -8.67093,1.33553 -8.67093,1.33553l-24.13591,-0.08352l0.08352,-7.6834" fill="none" stroke="#121212" stroke-width="0.5" stroke-linecap="round"/><path d="M214.65079,179.39494l-0.07755,7.44478l-13.64878,-0.85305c0,0 -3.99328,-0.22039 -5.20909,-1.22477c-1.15973,-0.95805 -1.77041,-4.66903 -1.77041,-4.66903" fill="none" stroke="#121212" stroke-width="0.5" stroke-linecap="round"/><path d="M212.47937,179.31738l-0.15509,5.89379l-12.17534,-0.7755c0,0 -2.70365,-0.27041 -3.41872,-1.07994c-0.64844,-0.73408 -0.69142,-3.57306 -0.69142,-3.57306" fill="none" stroke="#121212" stroke-width="0.5" stroke-linecap="round"/><path d="M161.75737,225.05695l2.18183,-5.61641" fill="none" stroke="#7e0013" stroke-width="0.5" stroke-linecap="round"/><path d="M160.27497,219.16913l-4.34278,8.27846" fill="none" stroke="#7e0013" stroke-width="0.5" stroke-linecap="round"/><path d="M156.88216,218.8977l-5.15707,8.54987" fill="none" stroke="#7e0013" stroke-width="0.5" stroke-linecap="round"/><path d="M148.19658,227.5833l5.42848,-9.49987" fill="none" stroke="#7e0013" stroke-width="0.5" stroke-linecap="round"/><path d="M144.80377,226.76901l5.29278,-8.95701" fill="none" stroke="#7e0013" stroke-width="0.5" stroke-linecap="round"/><path d="M141.54667,225.68332l4.61422,-8.41416" fill="none" stroke="#7e0013" stroke-width="0.5" stroke-linecap="round"/><path d="M139.51099,223.91906l3.52852,-6.6499" fill="none" stroke="#7e0013" stroke-width="0.5" stroke-linecap="round"/><path d="M137.59013,220.68286l2.05657,-3.5494" fill="none" stroke="#7e0013" stroke-width="0.5" stroke-linecap="round"/><path d="M253.32567,234.6454l-74.91318,2.60568" fill="none" stroke="#7e0013" stroke-width="0.5" stroke-linecap="round"/><path d="M214.66634,235.49457c0,0 -1.41172,-2.85969 -1.62762,-4.89725c-0.32063,-3.02596 -0.10949,-11.49681 -0.10949,-11.49681" fill="none" stroke="#7e0013" stroke-width="0.5" stroke-linecap="round"/><path d="M186.29352,179.54315c0,0 -0.21557,4.26198 -2.17625,5.04626c-4.35825,1.74329 -28.05906,6.64031 -28.05906,6.64031" fill="none" stroke="#121212" stroke-width="0.5" stroke-linecap="round"/><path d="M158.10711,179.81439c0,0 -0.19039,10.08354 -3.41656,12.52556c-4.80994,3.64085 -23.61733,7.4151 -23.61733,7.4151" fill="none" stroke="#121212" stroke-width="0.5" stroke-linecap="round"/><path d="M133.10113,183.51975l20.19399,-0.10857c0,0 -1.20414,5.72109 -3.71697,7.23162c-1.33985,0.80542 -3.88393,2.06037 -6.5353,2.77062c-4.38955,1.17586 -9.72458,1.7233 -9.72458,1.7233v-8.2513l11.29126,-0.21714l0.10857,-2.06283h-13.46266" fill="none" stroke="#121212" stroke-width="0.5" stroke-linecap="round"/><path d="M184.50288,179.61508c0,0 0.16094,2.70284 -0.84278,3.59185c-1.24634,1.10389 -23.33868,5.58724 -23.33868,5.58724c0,0 0.83565,-3.34442 0.95329,-5.00817c0.11242,-1.59002 0.13242,-3.67742 0.13242,-3.67742" fill="none" stroke="#121212" stroke-width="0.5" stroke-linecap="round"/><path d="M263.78175,125.6537l21.89491,-0.18095l8.14273,-1.44759l37.02514,0.29059c0,0 15.31604,1.35588 19.03057,8.16365c1.52327,2.79177 4.74599,7.32935 6.17248,12.81109c1.51747,5.83135 3.25142,12.01344 4.06373,17.93536c1.23766,9.02301 1.13276,16.80432 1.13276,16.80432" data-paper-data="{&quot;index&quot;:null}" fill="none" stroke="#121212" stroke-width="0.5" stroke-linecap="round"/><path d="M260.25804,125.93817c0,0 -2.79626,-2.69772 -3.64206,-4.30746c-0.74375,-1.41553 -1.63134,-4.37812 -1.63134,-4.37812c0,0 3.962,0.17385 5.40191,1.251c1.34548,1.00652 2.58572,4.78172 2.58572,4.78172l-0.85304,10.00395l-2.55915,-0.46529v-2.09385c0,0 0.44398,-1.07027 0.52257,-1.69892z" data-paper-data="{&quot;index&quot;:null}" fill="none" stroke="#7e0013" stroke-width="0" stroke-linecap="round"/><path d="M119.02453,154.85142l0.29278,-7.13186c0,0 2.61743,-15.12735 6.57733,-19.12952c3.76385,-3.80403 16.3277,-5.99717 16.3277,-5.99717l36.34127,-0.19741l0.10707,-1.26899c0,0 31.99134,1.22872 45.99156,2.20183c4.48892,0.31202 10.48822,0.76392 15.91525,1.21908c10.03789,0.8419 18.36904,0.60934 18.36904,0.60934" data-paper-data="{&quot;index&quot;:null}" fill="none" stroke="#7e0013" stroke-width="0.5" stroke-linecap="round"/><path d="M353.85982,150.75547c0,0 3.27605,10.20437 3.96142,14.77595c0.6818,4.54781 0.95437,14.21118 0.95437,14.21118" data-paper-data="{&quot;index&quot;:null}" fill="none" stroke="#121212" stroke-width="0.5" stroke-linecap="round"/><path d="M325.75662,124.24418l5.94118,6.39357" data-paper-data="{&quot;index&quot;:null}" fill="none" stroke="#7e0013" stroke-width="0.5" stroke-linecap="round"/><path d="M327.33862,180.5493c0,0 -0.01975,-2.82308 0.08448,-4.0946c0.09618,-1.17347 0.63933,-3.14339 0.63933,-3.14339c0,0 4.0682,0.17613 6.14739,0.51275c2.14113,0.34666 6.51907,1.538 6.51907,1.538" data-paper-data="{&quot;index&quot;:null}" fill="none" stroke="#121212" stroke-width="0.5" stroke-linecap="round"/><path d="M331.66698,180.56358l0.09048,-6.78562" data-paper-data="{&quot;index&quot;:null}" fill="none" stroke="#121212" stroke-width="0.5" stroke-linecap="round"/><path d="M331.32312,124.29818c0,0 9.46944,0.39995 14.9182,1.97545c3.22177,0.93156 6.19366,2.46963 7.7817,4.14189c4.82315,5.07894 8.26487,22.88545 8.26487,22.88545l-1.37889,1.37306c0,0 1.75143,8.54937 1.97584,12.73652c0.2279,4.25239 0.43614,12.48644 0.43614,12.48644" data-paper-data="{&quot;index&quot;:null}" fill="none" stroke="#121212" stroke-width="0.5" stroke-linecap="round"/><path d="M312.38011,180.79172c0,0 -0.0843,-8.24501 -0.94399,-12.3594c-0.82525,-3.94961 -4.47694,-11.0084 -4.47694,-11.0084c0,0 4.65317,0.6576 10.63582,1.7426c7.20003,1.30577 16.3256,3.17645 21.58316,4.54891c8.14933,2.12734 21.84878,7.82257 21.84878,7.82257" data-paper-data="{&quot;index&quot;:null}" fill="none" stroke="#121212" stroke-width="0.5" stroke-linecap="round"/><path d="M312.25949,160.10198c0,0 2.76702,6.04764 3.42294,9.15858c0.74105,3.51471 0.79921,11.10779 0.79921,11.10779" data-paper-data="{&quot;index&quot;:null}" fill="none" stroke="#121212" stroke-width="0.5" stroke-linecap="round"/><path d="M316.03153,172.94403l-3.69138,-1.01331" data-paper-data="{&quot;index&quot;:null}" fill="none" stroke="#121212" stroke-width="0.5" stroke-linecap="round"/><path d="M324.40924,159.72251c-2.07592,-0.23066 -6.43872,-1.33063 -6.43872,-1.33063l-6.18848,-9.66271c0,0 11.88495,1.49344 15.14656,3.45418c2.97235,1.78684 3.74458,7.61994 3.74458,7.61994c0,0 -4.10862,0.15871 -6.26394,-0.08077z" data-paper-data="{&quot;index&quot;:null}" fill="none" stroke="#7e0013" stroke-width="0.5" stroke-linecap="round"/><path d="M313.14521,149.14263l7.70846,3.2571l4.77708,7.49131" data-paper-data="{&quot;index&quot;:null}" fill="none" stroke="#7e0013" stroke-width="0.5" stroke-linecap="round"/><path d="M320.10572,152.29116l8.68559,1.95426" data-paper-data="{&quot;index&quot;:null}" fill="none" stroke="#7e0013" stroke-width="0.5" stroke-linecap="round"/><path d="M278.67519,180.19136c0,0 -0.28405,-8.80153 -2.42454,-15.59311c-0.95806,-3.03983 -3.34914,-5.68927 -4.4224,-7.33917c-3.02052,-4.6435 -12.81626,-7.83922 -12.81626,-7.83922v-1.32697l10.22204,-8.07507c0,0 7.4964,-0.42762 14.67082,1.88804c3.22353,1.04043 6.77419,2.7688 9.45751,4.65631c1.2086,0.85015 5.24369,3.92539 8.48405,7.81573c3.14928,3.78102 5.50774,8.34536 6.52755,11.47312c2.25797,6.92529 2.1166,15.23591 2.1166,15.23591" data-paper-data="{&quot;index&quot;:null}" fill="none" stroke="#121212" stroke-width="0.5" stroke-linecap="round"/><path d="M255.89577,148.09967l23.39186,-22.01006" data-paper-data="{&quot;index&quot;:null}" fill="none" stroke="#121212" stroke-width="0.5" stroke-linecap="round"/><path d="M276.26083,180.21575c0,0 0.035,-10.0844 -3.84128,-17.1987c-1.57545,-2.89148 -5.25863,-7.64159 -11.06132,-9.99258c-6.64746,-2.69325 -15.39823,-2.79291 -15.39823,-2.79291l-32.47224,-0.4935l-0.22529,-7.75427c0,0 14.99238,-2.89893 23.57564,-3.56128c9.89684,-0.76372 32.42775,-0.76036 32.42775,-0.76036c0,0 7.64915,0.50445 14.5241,2.21977c5.23973,1.30731 9.52414,3.62134 12.60493,5.16632c2.492,1.24971 5.3581,3.32083 7.61034,5.64515c3.37547,3.48352 5.67273,7.23511 5.67273,7.23511" data-paper-data="{&quot;index&quot;:null}" fill="none" stroke="#121212" stroke-width="0.5" stroke-linecap="round"/><path d="M116.62456,181.0887c0,0 -0.04072,-10.63367 0.17275,-14.64787c0.19692,-3.70285 1.17099,-10.31587 1.17099,-10.31587c0,0 3.86053,-3.43657 5.12636,-6.51166c1.88757,-4.58545 5.31622,-18.00317 5.31622,-18.00317l-4.15298,-3.00656l11.65418,-0.44794l-1.51921,21.67766l-3.47424,4.23422v26.98866" data-paper-data="{&quot;index&quot;:null}" fill="none" stroke="#121212" stroke-width="0.5" stroke-linecap="round"/><path d="M121.8642,149.75118l3.61899,-17.8537" data-paper-data="{&quot;index&quot;:null}" fill="none" stroke="#7e0013" stroke-width="0.5" stroke-linecap="round"/><g data-paper-data="{&quot;index&quot;:null}" stroke="#7e0013" stroke-width="0.5"><path d="M299.38557,130.26036c0,0 11.46224,-1.41844 15.56167,0.54286c2.28767,1.0945 4.77888,4.08299 6.21417,6.6707c1.13669,2.04938 1.4762,3.91485 1.4762,3.91485c0,0 -3.96998,-0.30448 -8.66106,-1.3742c-3.6071,-0.82255 -7.97341,-2.35642 -9.25296,-2.9686c-1.49508,-0.71529 -3.21035,-2.45442 -4.1803,-3.99285c-0.93978,-1.49057 -1.15771,-2.79276 -1.15771,-2.79276z" fill="#0c0c0c" stroke-linecap="butt"/><path d="M302.5522,130.35085l1.44759,5.97134" fill="none" stroke-linecap="round"/><path d="M307.1664,137.86027l-0.90475,-7.32846" fill="none" stroke-linecap="round"/><path d="M309.51875,130.26036l0.81427,8.05225" fill="none" stroke-linecap="round"/><path d="M313.3187,130.62227l0.27142,8.68559" fill="none" stroke-linecap="round"/><path d="M316.93769,132.43176l-0.09048,7.87131" fill="none" stroke-linecap="round"/><path d="M320.1043,140.75546v-4.70469" fill="none" stroke-linecap="round"/></g><g data-paper-data="{&quot;index&quot;:null}" stroke="#7e0013" stroke-width="0.5"><path d="M140.4745,133.99565c1.41694,-0.80445 3.73911,-1.93393 6.59332,-2.3528c4.7353,-0.69493 10.22147,-0.38528 10.22147,-0.38528c0,0 3.76123,2.24671 5.37151,3.59651c1.44878,1.21441 4.12836,4.27481 4.12836,4.27481c0,0 -2.84103,1.29773 -6.12741,1.75298c-5.73189,0.79402 -24.40784,2.31838 -24.40784,2.31838c0,0 1.09862,-7.43211 4.22061,-9.2046z" fill="#0c0c0c" stroke-linecap="butt"/><path d="M163.9392,139.94317l-2.18183,-5.61641" fill="none" stroke-linecap="round"/><path d="M160.27497,140.2146l-4.34279,-8.27845" fill="none" stroke-linecap="round"/><path d="M156.88216,140.48602l-5.15707,-8.54987" fill="none" stroke-linecap="round"/><path d="M148.19658,131.80043l5.42848,9.49987" fill="none" stroke-linecap="round"/><path d="M150.09654,141.57172l-5.29278,-8.95701" fill="none" stroke-linecap="round"/><path d="M146.16089,142.11456l-4.61422,-8.41416" fill="none" stroke-linecap="round"/><path d="M139.51098,135.46467l3.52852,6.6499" fill="none" stroke-linecap="round"/><path d="M139.64671,142.25027l-2.05657,-3.54939" fill="none" stroke-linecap="round"/></g><path d="M131.04997,159.69378l138.83469,-0.05044" data-paper-data="{&quot;index&quot;:null}" fill="none" stroke="#7e0013" stroke-width="0.5" stroke-linecap="round"/><path d="M188.08057,159.68346l83.32733,1.82243" data-paper-data="{&quot;index&quot;:null}" fill="none" stroke="#7e0013" stroke-width="0.5" stroke-linecap="round"/><path d="M188.41515,180.19908c0,0 -0.0273,-1.54037 0.73393,-3.33454c0.5004,-1.17942 1.62609,-2.65823 2.32196,-3.21302c2.03081,-1.61915 8.58853,-2.60333 8.58853,-2.60333l46.62535,-2.09361c0,0 8.42548,0.24392 10.49242,2.26443c1.95266,1.9088 1.89615,9.14186 1.89615,9.14186" data-paper-data="{&quot;index&quot;:null}" fill="none" stroke="#121212" stroke-width="0.5" stroke-linecap="round"/><path d="M222.19743,179.90854l-0.08353,-8.22624l24.1359,-0.08352c0,0 6.89245,-0.1183 8.67093,1.33553c1.72769,1.41231 1.85199,6.60191 1.85199,6.60191" data-paper-data="{&quot;index&quot;:null}" fill="none" stroke="#121212" stroke-width="0.5" stroke-linecap="round"/><path d="M193.93407,179.96892c0,0 0.61067,-4.18302 1.7704,-5.14105c1.2158,-1.00437 5.20909,-1.22477 5.20909,-1.22477l13.64878,-0.85305l0.07755,7.44478" data-paper-data="{&quot;index&quot;:null}" fill="none" stroke="#121212" stroke-width="0.5" stroke-linecap="round"/><path d="M196.03882,179.64782c0,0 0.04297,-2.83898 0.69142,-3.57305c0.71508,-0.80952 3.41872,-1.07993 3.41872,-1.07993l12.17534,-0.7755l0.15509,5.89379" data-paper-data="{&quot;index&quot;:null}" fill="none" stroke="#121212" stroke-width="0.5" stroke-linecap="round"/><path d="M137.34594,192.12786l0.16703,-3.09006l5.26146,-0.16703c0,0 -0.68329,2.11382 -1.55597,2.6739c-0.98001,0.62896 -3.87253,0.58319 -3.87253,0.58319z" fill="#0c0c0c" stroke="#7e0013" stroke-width="0.5" stroke-linecap="butt"/><path d="M145.5031,189.79023l1.57426,-1.89997l1.89997,0.05428c0,0 -0.96542,1.42931 -1.51069,1.75278c-0.52124,0.30921 -1.96355,0.09292 -1.96355,0.09292z" fill="#0c0c0c" stroke="#7e0013" stroke-width="0.5" stroke-linecap="butt"/><path d="M131.50925,174.99209h13.46266l-0.10857,-2.06283l-11.29126,-0.21714v-8.25131c0,0 5.33503,0.54744 9.72458,1.7233c2.65137,0.71024 5.19545,1.96522 6.5353,2.77062c2.51283,1.51052 3.71697,7.23162 3.71697,7.23162l-20.19399,-0.10857" data-paper-data="{&quot;index&quot;:null}" fill="none" stroke="#121212" stroke-width="0.5" stroke-linecap="round"/><path d="M141.21847,167.64203c0.87267,0.56008 1.55597,2.6739 1.55597,2.6739l-5.26146,-0.16702l-0.16702,-3.09006c0,0 2.89251,-0.04577 3.87252,0.58319z" data-paper-data="{&quot;index&quot;:null}" fill="#0c0c0c" stroke="#121212" stroke-width="0.5" stroke-linecap="butt"/><path d="M147.46665,169.59986c0.54528,0.32346 1.51069,1.75277 1.51069,1.75277l-1.89997,0.05428l-1.57426,-1.89997c0,0 1.44231,-0.2163 1.96355,0.09292z" data-paper-data="{&quot;index&quot;:null}" fill="#0c0c0c" stroke="#121212" stroke-width="0.5" stroke-linecap="butt"/><path d="M131.07322,160.37052c0,0 18.80739,3.77424 23.61733,7.4151c3.22617,2.44202 3.41656,12.52556 3.41656,12.52556" data-paper-data="{&quot;index&quot;:null}" fill="none" stroke="#121212" stroke-width="0.5" stroke-linecap="round"/><path d="M156.1569,168.58746c0,0 23.7008,4.89701 28.05906,6.64031c1.96068,0.78428 2.04053,4.50341 2.04053,4.50341" data-paper-data="{&quot;index&quot;:null}" fill="none" stroke="#121212" stroke-width="0.5" stroke-linecap="round"/><path d="M161.40713,180.22578c0,0 -0.01999,-2.56239 -0.13242,-4.15241c-0.11763,-1.66374 -0.95329,-5.00817 -0.95329,-5.00817c0,0 22.09235,4.48335 23.33869,5.58724c1.00372,0.88901 0.84278,3.59185 0.84278,3.59185" data-paper-data="{&quot;index&quot;:null}" fill="none" stroke="#121212" stroke-width="0.5" stroke-linecap="round"/><path d="M131.67745,159.90412c0,0 33.59128,-9.2675 51.40961,-12.91216c9.28511,-1.89922 23.54237,-5.14717 35.17575,-7.19069c10.9286,-1.91972 29.0415,-2.28968 29.0415,-2.28968" data-paper-data="{&quot;index&quot;:null}" fill="none" stroke="#7e0013" stroke-width="0.5" stroke-linecap="round"/><path d="M131.09682,156.3834c0,0 19.99705,-4.20129 30.56423,-6.5177c11.07747,-2.42824 55.47734,-9.22492 55.47734,-9.22492" data-paper-data="{&quot;index&quot;:null}" fill="none" stroke="#7e0013" stroke-width="0.5" stroke-linecap="round"/><path d="M216.5654,140.68603l-82.10592,9.90699" data-paper-data="{&quot;index&quot;:null}" fill="none" stroke="#7e0013" stroke-width="0.5" stroke-linecap="round"/><path d="M213.11016,141.40072c0,0 -0.21114,-8.47084 0.10949,-11.49681c0.2159,-2.03756 1.62762,-4.89725 1.62762,-4.89725" data-paper-data="{&quot;index&quot;:null}" fill="none" stroke="#7e0013" stroke-width="0.5" stroke-linecap="round"/><path d="M253.32567,125.02607l-74.91318,-2.60567" data-paper-data="{&quot;index&quot;:null}" fill="none" stroke="#7e0013" stroke-width="0.5" stroke-linecap="round"/><path d="M341.16922,164.22763l-33.3249,-4.88564" data-paper-data="{&quot;index&quot;:null}" fill="none" stroke="#7e0013" stroke-width="0.5" stroke-linecap="round"/><path d="M340.43236,143.85438c-6.17562,-5.28178 -9.01971,-13.40706 -9.01971,-13.40706c0,0 8.70666,-0.37607 14.88228,4.90571c6.17562,5.28178 7.57212,15.66894 7.57212,15.66894c0,0 -7.25906,-1.8858 -13.43469,-7.16759z" fill="#e5e5e5" stroke="#7e0013" stroke-width="0.5" stroke-linecap="butt"/><path d="M341.03193,134.74285c1.2812,0.32602 5.0844,0.56641 7.78397,3.8188c0.90278,1.08766 2.30113,3.97548 2.85263,5.32981c0.98894,2.42856 1.29645,4.10847 1.29645,4.10847c0,0 -5.50678,-2.25594 -7.59097,-3.43445c-1.60202,-0.90586 -4.01052,-3.36188 -4.01052,-3.36188l-4.43368,-6.95012c0,0 2.47533,0.0754 4.10213,0.48936z" data-paper-data="{&quot;index&quot;:null}" fill="#666666" stroke="#7e0013" stroke-width="0.5" stroke-linecap="butt"/><path d="M352.90431,148.13677c0,0 -6.98527,-2.9028 -9.82435,-5.2573c-2.79554,-2.3184 -6.53868,-8.84062 -6.53868,-8.84062c0,0 3.4148,0.32174 5.45843,0.99479c2.25288,0.74197 6.94955,3.348 6.94955,3.348" fill="none" stroke="#7e0013" stroke-width="0.5" stroke-linecap="round"/><path d="M275.70012,138.41011c0,0 6.7279,1.79186 10.72129,3.49155c1.70717,0.72662 3.91584,1.93056 5.70955,2.85395c2.00058,1.02989 6.5372,3.71778 9.64314,6.5433c3.53182,3.21294 5.53188,6.53315 5.53188,6.53315" data-paper-data="{&quot;index&quot;:null}" fill="none" stroke="#7e0013" stroke-width="0.5" stroke-linecap="round"/><g stroke="#121212" stroke-width="0.5"><path d="M353.70436,180.81942c0,0 -0.85246,-0.81112 -0.86612,-1.13216c-0.0152,-0.35717 0.77905,-0.91407 0.77905,-0.91407l1.82855,0.8272l-0.13061,0.74013c0,0 -0.75411,0.42894 -1.04683,0.51596c-0.22779,0.06772 -0.56404,-0.03705 -0.56404,-0.03705z" fill="#494949" stroke-linecap="butt"/><path d="M353.66309,178.68281c0,0 0.69976,0.22433 1.03053,0.41595c0.36691,0.21255 1.07374,0.80309 1.07374,0.80309c0,0 -0.70685,0.59466 -1.06857,0.80609c-0.3201,0.18711 -0.99218,0.39843 -0.99218,0.39843c0,0 -0.43129,-0.29685 -0.61277,-0.49927c-0.19489,-0.21738 -0.5192,-0.7633 -0.5192,-0.7633c0,0 0.25317,-0.44999 0.42978,-0.63838c0.18574,-0.19811 0.65864,-0.5226 0.65864,-0.5226z" fill="none" stroke-linecap="round"/></g><path d="M126.69918,148.28807c0,0 3.65946,-9.28417 3.47653,-15.12312c-0.09354,-2.98571 -4.56476,-2.41424 -4.06098,-4.73907c0.42553,-1.96373 3.0061,-2.98724 3.71875,-3.60604c0.08598,-0.07467 4.29247,-2.71241 8.34092,-2.41063c5.53417,0.41252 11.36078,3.81845 11.36078,3.81845l-0.50746,107.18487c0,0 -7.06391,3.6666 -13.17015,2.94762c-0.45457,-0.05353 -7.67665,-2.38228 -7.80514,-4.62613c-0.1285,-2.24385 -1.35324,-83.44593 -1.35324,-83.44593z" fill="url(#color-10)" stroke="none" stroke-width="0" stroke-linecap="butt"/><path d="M135.74129,128.23486l-0.06512,5.1744l-1.23105,15.94913l-3.69165,4.92252l0.12054,16.64779l0.02411,12.1365l-0.14472,12.59481l-0.02214,9.90606l3.69042,4.68751l1.25444,21.35745l-11.09903,-0.41004l3.78703,-3.03814l-5.48901,-19.05168l-5.07885,-5.73065c0,0 -0.58235,-5.93727 -0.86633,-9.20306c-0.32871,-3.7803 -0.4124,-12.23423 -0.4124,-12.23423c0,0 0.2403,-11.05871 0.57295,-15.61756c0.26908,-3.68774 0.99309,-10.147 0.99309,-10.147c0,0 2.80341,-2.63175 4.72007,-5.2409c1.22013,-1.66095 5.57032,-19.54578 5.57032,-19.54578l-3.56068,-2.62596z" fill="url(#color-11)" stroke="#121212" stroke-width="0.5" stroke-linecap="round"/><path d="M4.42566,361.63478v-360.53868h472.87786v360.53869z" fill="none" stroke="none" stroke-width="0" stroke-linecap="butt"/></g></g></svg>