<svg version="1.1" xmlns="http://www.w3.org/2000/svg" xmlns:xlink="http://www.w3.org/1999/xlink" width="482.29271" height="409.30376" viewBox="0,0,482.29271,409.30376"><defs><radialGradient cx="78.60819" cy="88.92651" r="0.00125" gradientUnits="userSpaceOnUse" id="color-1"><stop offset="0" stop-color="#383838"/><stop offset="1" stop-color="#383838" stop-opacity="0"/></radialGradient></defs><g transform="translate(1.14633,24.65177)"><g data-paper-data="{&quot;isPaintingLayer&quot;:true}" fill-rule="nonzero" stroke="none" stroke-width="0" stroke-linecap="butt" stroke-linejoin="miter" stroke-miterlimit="10" stroke-dasharray="" stroke-dashoffset="0" style="mix-blend-mode: normal"><path d="M-1.14633,384.65198v-409.30375h482.29271v409.30375z" fill="none"/><path d="M-1.14633,384.65199v-409.30375h482.29271v409.30375z" fill="none"/><path d="M157.21637,177.853z" fill="url(#color-1)"/><g><path d="M226.38385,161.04896c-0.12188,-1.48883 1.16522,-1.80179 1.16522,-1.80179c0,0 -1.23935,-1.61625 -0.68652,-2.55659c0.40657,-0.69152 1.93901,-0.66236 1.93901,-0.66236c0,0 0.61837,-2.34487 1.72426,-2.25994c1.17956,0.09062 1.6711,1.50023 1.6711,1.50023c0,0 0.82802,-1.52171 1.74288,-1.07546c0.87964,0.42902 0.77494,1.16255 1.09406,2.3703c0.16401,0.62073 1.96304,-0.18697 2.15879,1.19021c0.19507,1.37227 -1.16093,1.73318 -1.16093,1.73318c0,0 0.87969,0.93876 0.82625,1.85156c-0.07315,1.24946 -2.269,1.19184 -2.269,1.19184c0,0 0.22259,1.669 -1.35823,1.99275c-0.10236,0.02095 -1.39,-0.59416 -1.47679,-0.60082c-0.03733,-0.00286 -0.58327,0.75364 -2.07067,0.41124c-0.66749,-0.15364 -1.16198,-2.02301 -1.16198,-2.02301c0,0 -2.02416,0.12276 -2.13748,-1.26131z" fill="#f7dcf5"/><path d="M228.60682,160.2487c-0.07065,-0.86304 0.67544,-1.04444 0.67544,-1.04444c0,0 -0.71844,-0.9369 -0.39797,-1.48198c0.23568,-0.40084 1.12399,-0.38398 1.12399,-0.38398c0,0 0.35845,-1.35926 0.99952,-1.31002c0.68377,0.05251 0.96868,0.86964 0.96868,0.86964c0,0 0.47996,-0.88209 1.01029,-0.62343c0.50989,0.2487 0.44923,0.67389 0.6342,1.37401c0.09507,0.35982 1.13793,-0.10839 1.2514,0.6899c0.11308,0.79547 -0.67296,1.00467 -0.67296,1.00467c0,0 0.50991,0.54417 0.47897,1.07332c-0.04239,0.72427 -1.31529,0.69087 -1.31529,0.69087c0,0 0.12903,0.96748 -0.78733,1.15515c-0.05932,0.01215 -0.80575,-0.3444 -0.85606,-0.34827c-0.02162,-0.00167 -0.33809,0.43684 -1.2003,0.23837c-0.38693,-0.08908 -0.67357,-1.17269 -0.67357,-1.17269c0,0 -1.17337,0.07117 -1.23904,-0.73113z" fill="#ffb6f4"/></g><g><path d="M216.72241,180.41015c-0.12741,-1.55636 1.21808,-1.88351 1.21808,-1.88351c0,0 -1.29561,-1.68955 -0.71766,-2.67254c0.42502,-0.72289 2.02698,-0.69241 2.02698,-0.69241c0,0 0.64644,-2.45125 1.80248,-2.36248c1.23308,0.09472 1.74691,1.56828 1.74691,1.56828c0,0 0.86559,-1.5907 1.82194,-1.12423c0.91954,0.44847 0.8101,1.21526 1.1437,2.47781c0.17147,0.64889 2.05208,-0.19545 2.25672,1.24419c0.20391,1.43451 -1.2136,1.81179 -1.2136,1.81179c0,0 0.91962,0.98138 0.86373,1.93556c-0.07648,1.30615 -2.37193,1.2459 -2.37193,1.2459c0,0 0.23268,1.74471 -1.41986,2.08314c-0.107,0.02189 -1.45304,-0.6211 -1.54376,-0.62807c-0.03901,-0.00298 -0.60971,0.78782 -2.16458,0.42988c-0.69779,-0.16061 -1.21471,-2.11478 -1.21471,-2.11478c0,0 -2.11598,0.12831 -2.23442,-1.31851z" fill="#f7dcf5"/><path d="M219.04621,179.57359c-0.07386,-0.90219 0.70611,-1.09183 0.70611,-1.09183c0,0 -0.75103,-0.9794 -0.41602,-1.54922c0.24636,-0.41903 1.17499,-0.4014 1.17499,-0.4014c0,0 0.37472,-1.4209 1.04486,-1.36944c0.71479,0.05491 1.01263,0.90908 1.01263,0.90908c0,0 0.50174,-0.9221 1.05613,-0.65171c0.53301,0.25997 0.4696,0.70446 0.66298,1.43635c0.09938,0.37615 1.18955,-0.11329 1.30817,0.72122c0.11821,0.83154 -0.70349,1.05024 -0.70349,1.05024c0,0 0.53305,0.56886 0.50067,1.122c-0.04431,0.75712 -1.37494,0.72223 -1.37494,0.72223c0,0 0.13486,1.01137 -0.82307,1.20755c-0.06203,0.0127 -0.84228,-0.36001 -0.89488,-0.36407c-0.02261,-0.00174 -0.35343,0.45666 -1.25474,0.24918c-0.40447,-0.09313 -0.70413,-1.22588 -0.70413,-1.22588c0,0 -1.22659,0.07439 -1.29524,-0.76428z" fill="#ffb6f4"/></g><g><path d="M230.87686,178.11336c-0.17718,-2.16416 1.69378,-2.61909 1.69378,-2.61909c0,0 -1.80157,-2.3494 -0.99792,-3.71628c0.59098,-1.0052 2.81857,-0.96284 2.81857,-0.96284c0,0 0.8989,-3.40856 2.50643,-3.28509c1.71466,0.13171 2.42913,2.18075 2.42913,2.18075c0,0 1.20361,-2.21195 2.5335,-1.56331c1.27864,0.62363 1.12646,1.68988 1.59034,3.4455c0.23842,0.9023 2.85351,-0.27178 3.13807,1.73011c0.28356,1.99473 -1.68755,2.51937 -1.68755,2.51937c0,0 1.27874,1.36463 1.20104,2.69146c-0.10632,1.81624 -3.29824,1.73246 -3.29824,1.73246c0,0 0.32353,2.42611 -1.97437,2.89669c-0.14879,0.03044 -2.02052,-0.86367 -2.14667,-0.87335c-0.05424,-0.00415 -0.84783,1.09548 -3.00993,0.59776c-0.97029,-0.22335 -1.68909,-2.94068 -1.68909,-2.94068c0,0 -2.94235,0.17844 -3.10705,-1.83344z" fill="#f7dcf5"/><path d="M234.10822,176.95011c-0.10271,-1.25454 0.98186,-1.51822 0.98186,-1.51822c0,0 -1.04433,-1.36188 -0.57848,-2.15424c0.34258,-0.58267 1.63384,-0.55816 1.63384,-0.55816c0,0 0.52105,-1.97582 1.4529,-1.90424c0.99394,0.07634 1.40809,1.26413 1.40809,1.26413c0,0 0.69767,-1.28222 1.46858,-0.90622c0.7412,0.36149 0.65299,0.97958 0.92187,1.99729c0.13818,0.52304 1.65412,-0.15755 1.81906,1.00288c0.16436,1.15628 -0.97822,1.4604 -0.97822,1.4604c0,0 0.74121,0.791 0.69621,1.56018c-0.06162,1.05283 -1.91188,1.00428 -1.91188,1.00428c0,0 0.18752,1.40635 -1.14451,1.67915c-0.08622,0.01766 -1.17123,-0.50062 -1.24438,-0.50624c-0.03144,-0.00243 -0.49146,0.63498 -1.74478,0.34647c-0.56247,-0.12948 -0.97911,-1.70463 -0.97911,-1.70463c0,0 -1.7056,0.10345 -1.80106,-1.06276z" fill="#ffb6f4"/></g><g><path d="M245.55124,167.35498c-0.11636,-1.42127 1.11237,-1.72005 1.11237,-1.72005c0,0 -1.18315,-1.54293 -0.65536,-2.44061c0.38812,-0.66015 1.85106,-0.63231 1.85106,-0.63231c0,0 0.59033,-2.23853 1.64603,-2.15744c1.12607,0.08651 1.5953,1.43218 1.5953,1.43218c0,0 0.79046,-1.45267 1.66384,-1.02668c0.83973,0.40958 0.73978,1.10981 1.04444,2.26279c0.15658,0.59257 1.87399,-0.17849 2.06087,1.13619c0.18623,1.31002 -1.10827,1.65456 -1.10827,1.65456c0,0 0.83979,0.89619 0.78877,1.76758c-0.06983,1.19279 -2.16609,1.13777 -2.16609,1.13777c0,0 0.21249,1.59329 -1.29663,1.90237c-0.0977,0.01999 -1.32695,-0.56719 -1.40979,-0.57355c-0.03562,-0.00272 -0.55681,0.71944 -1.97672,0.39257c-0.63722,-0.14667 -1.1093,-1.93125 -1.1093,-1.93125c0,0 -1.93234,0.11719 -2.04051,-1.20408z" fill="#f7dcf5"/><path d="M247.67338,166.59103c-0.06744,-0.82388 0.64482,-0.99707 0.64482,-0.99707c0,0 -0.68585,-0.8944 -0.37991,-1.41476c0.22498,-0.38267 1.07301,-0.36657 1.07301,-0.36657c0,0 0.34219,-1.29757 0.95416,-1.25059c0.65275,0.05014 0.92475,0.8302 0.92475,0.8302c0,0 0.45819,-0.84209 0.96447,-0.59516c0.48677,0.2374 0.42884,0.64333 0.60542,1.31169c0.09077,0.34351 1.08634,-0.10347 1.19464,0.65863c0.10794,0.75939 -0.64245,0.95909 -0.64245,0.95909c0,0 0.48679,0.51949 0.45723,1.02462c-0.04048,0.69141 -1.25559,0.65953 -1.25559,0.65953c0,0 0.12316,0.92358 -0.75163,1.10275c-0.05663,0.01161 -0.76917,-0.32876 -0.8172,-0.33245c-0.02064,-0.00159 -0.32278,0.41702 -1.14586,0.22753c-0.36939,-0.08504 -0.64303,-1.11949 -0.64303,-1.11949c0,0 -1.12014,0.06792 -1.18282,-0.69795z" fill="#ffb6f4"/></g><g><path d="M251.07399,189.64523c-0.10473,-1.27917 1.00115,-1.54809 1.00115,-1.54809c0,0 -1.06488,-1.38869 -0.58985,-2.19662c0.34933,-0.59415 1.66601,-0.5691 1.66601,-0.5691c0,0 0.53131,-2.01472 1.48148,-1.94175c1.01348,0.07787 1.43581,1.28899 1.43581,1.28899c0,0 0.71143,-1.30744 1.49748,-0.92404c0.75579,0.36861 0.66581,0.99886 0.94003,2.03656c0.14093,0.53332 1.68665,-0.16065 1.85484,1.02263c0.16758,1.17903 -0.99747,1.48914 -0.99747,1.48914c0,0 0.75584,0.8066 0.70991,1.59085c-0.06285,1.07353 -1.94953,1.02402 -1.94953,1.02402c0,0 0.19123,1.43401 -1.16701,1.71215c-0.08795,0.01801 -1.19429,-0.51049 -1.26886,-0.51621c-0.03206,-0.00247 -0.50112,0.64752 -1.7791,0.35334c-0.57351,-0.13201 -0.99839,-1.73817 -0.99839,-1.73817c0,0 -1.73917,0.10547 -1.8365,-1.0837z" fill="#f7dcf5"/><path d="M252.98395,188.95767c-0.06071,-0.74151 0.58036,-0.89738 0.58036,-0.89738c0,0 -0.61729,-0.80496 -0.34193,-1.27332c0.20249,-0.3444 0.96574,-0.32992 0.96574,-0.32992c0,0 0.30797,-1.16787 0.85878,-1.12557c0.58749,0.04513 0.83229,0.74718 0.83229,0.74718c0,0 0.41237,-0.75789 0.86803,-0.53563c0.43812,0.21367 0.38597,0.579 0.54492,1.18053c0.08168,0.30916 0.97772,-0.09313 1.07521,0.59277c0.09714,0.68346 -0.5782,0.8632 -0.5782,0.8632c0,0 0.43813,0.46754 0.41151,0.92217c-0.03641,0.6223 -1.13007,0.59361 -1.13007,0.59361c0,0 0.11085,0.83124 -0.67648,0.99251c-0.05097,0.01045 -0.6923,-0.29591 -0.73552,-0.29922c-0.01858,-0.00143 -0.29049,0.37532 -1.0313,0.20479c-0.33245,-0.07655 -0.57874,-1.00757 -0.57874,-1.00757c0,0 -1.00816,0.06115 -1.06458,-0.62817z" fill="#ffb6f4"/></g><g><path d="M229.99649,193.82152c-0.14651,-1.7897 1.40069,-2.16591 1.40069,-2.16591c0,0 -1.48987,-1.94291 -0.82525,-3.07328c0.48874,-0.83128 2.33088,-0.79623 2.33088,-0.79623c0,0 0.74337,-2.81877 2.07274,-2.71668c1.41796,0.10893 2.00882,1.80342 2.00882,1.80342c0,0 0.99537,-1.82921 2.09512,-1.2928c1.05741,0.51573 0.93154,1.39748 1.31517,2.84933c0.19716,0.74616 2.35977,-0.22476 2.59509,1.43075c0.23447,1.64957 -1.39555,2.08344 -1.39555,2.08344c0,0 1.05748,1.12852 0.99323,2.22575c-0.08792,1.50197 -2.72756,1.43269 -2.72756,1.43269c0,0 0.26756,2.00632 -1.63274,2.39548c-0.12305,0.0252 -1.67092,-0.71421 -1.77526,-0.72224c-0.04485,-0.00345 -0.70112,0.90592 -2.48912,0.49433c-0.8024,-0.1847 -1.39683,-2.43186 -1.39683,-2.43186c0,0 -2.43325,0.14759 -2.56943,-1.51619z" fill="#f7dcf5"/><path d="M232.66869,192.85955c-0.08493,-1.03746 0.81197,-1.25551 0.81197,-1.25551c0,0 -0.86363,-1.12624 -0.47839,-1.7815c0.2833,-0.48185 1.35115,-0.46159 1.35115,-0.46159c0,0 0.43089,-1.63396 1.20151,-1.57476c0.82195,0.06312 1.16445,1.0454 1.16445,1.0454c0,0 0.57695,-1.06036 1.21446,-0.74941c0.61295,0.29894 0.53998,0.81006 0.76239,1.65169c0.11428,0.43254 1.36793,-0.13031 1.50433,0.82935c0.13594,0.95622 -0.80898,1.20774 -0.80898,1.20774c0,0 0.61297,0.65414 0.57576,1.29021c-0.05097,0.87066 -1.58109,0.8305 -1.58109,0.8305c0,0 0.1551,1.16301 -0.94645,1.3886c-0.07131,0.01461 -0.96858,-0.414 -1.02907,-0.41864c-0.02599,-0.00198 -0.40642,0.52514 -1.44287,0.28654c-0.46512,-0.10708 -0.8097,-1.40967 -0.8097,-1.40967c0,0 -1.4105,0.08554 -1.48946,-0.87888z" fill="#ffb6f4"/></g></g></g></svg>