<svg version="1.1" xmlns="http://www.w3.org/2000/svg" xmlns:xlink="http://www.w3.org/1999/xlink" width="444.62876" height="168.77801" viewBox="0,0,444.62876,168.77801"><defs><linearGradient x1="617.48888" y1="-815.97388" x2="617.48888" y2="3782.21592" gradientUnits="userSpaceOnUse" id="color-1"><stop offset="0" stop-color="#000000" stop-opacity="0"/><stop offset="1" stop-color="#000000"/></linearGradient><linearGradient x1="239.63187" y1="146.72271" x2="239.63187" y2="183.70186" gradientUnits="userSpaceOnUse" id="color-2"><stop offset="0" stop-color="#565656"/><stop offset="1" stop-color="#565656" stop-opacity="0"/></linearGradient><linearGradient x1="239.56905" y1="142.46293" x2="239.56905" y2="126.11111" gradientUnits="userSpaceOnUse" id="color-3"><stop offset="0" stop-color="#a6aeae"/><stop offset="1" stop-color="#7e8888"/></linearGradient><linearGradient x1="44.34397" y1="108.62161" x2="82.56049" y2="108.62161" gradientUnits="userSpaceOnUse" id="color-4"><stop offset="0" stop-color="#bfc7c7"/><stop offset="1" stop-color="#999f9f"/></linearGradient><linearGradient x1="62.94505" y1="143.01345" x2="62.94505" y2="126.0369" gradientUnits="userSpaceOnUse" id="color-5"><stop offset="0" stop-color="#abb2b2"/><stop offset="1" stop-color="#7c8686"/></linearGradient><linearGradient x1="434.85335" y1="108.62161" x2="396.63683" y2="108.62161" gradientUnits="userSpaceOnUse" id="color-6"><stop offset="0" stop-color="#bfc7c7"/><stop offset="1" stop-color="#999f9f"/></linearGradient><linearGradient x1="416.25227" y1="143.01345" x2="416.25227" y2="126.0369" gradientUnits="userSpaceOnUse" id="color-7"><stop offset="0" stop-color="#abb2b2"/><stop offset="1" stop-color="#7c8686"/></linearGradient></defs><g transform="translate(-22.60703,-61.40426)"><g data-paper-data="{&quot;isPaintingLayer&quot;:true}" fill-rule="nonzero" stroke-width="0" stroke-linecap="butt" stroke-linejoin="miter" stroke-miterlimit="10" stroke-dasharray="" stroke-dashoffset="0" style="mix-blend-mode: normal"><path d="M49.01328,158.88182l375.41218,35.46206l7.71011,-45.34858c0,0 9.5011,29.91488 14.15563,49.10264c1.50121,6.18854 -5.43492,11.62782 -8.30975,11.62537c-2.54478,-0.00217 -315.52699,0.97731 -387.3587,1.20224c-9.31639,0.02917 -13.61878,-6.60265 -11.99782,-13.11426c2.39295,-9.6128 10.38835,-38.92948 10.38835,-38.92948z" fill="url(#color-1)" stroke="none"/><path d="M51.45215,195.56962l-9.98118,-54.11302h395.98371l-9.98119,54.11303z" data-paper-data="{&quot;index&quot;:null}" fill="#7c8181" stroke="#a9afaf"/><path d="M50.65356,159.86929v-5.27535h7.90909v5.27535z" fill="#bf0000" stroke="none"/><path d="M58.30356,159.86928v-5.27535h7.90909v5.27535z" fill="#bf8900" stroke="none"/><path d="M65.80356,159.86929v-5.27535h7.90909v5.27535z" fill="#0077bf" stroke="none"/><path d="M73.45356,159.86928v-5.27535h7.90909v5.27535z" fill="#bf0000" stroke="none"/><path d="M81.10356,159.86929v-5.27535h7.90909v5.27535z" fill="#bf6400" stroke="none"/><path d="M88.75356,159.86928v-5.27535h7.90909v5.27535z" fill="#bf009f" stroke="none"/><path d="M96.25356,159.86929v-5.27535h7.90909v5.27535z" fill="#bf0000" stroke="none"/><path d="M103.90356,159.86928v-5.27535h7.90909v5.27535z" fill="#00bf45" stroke="none"/><path d="M111.10356,159.86929v-5.27535h7.90909v5.27535z" fill="#bfae00" stroke="none"/><path d="M118.75356,159.86928v-5.27535h7.90909v5.27535z" fill="#bf1a00" stroke="none"/><path d="M126.25356,159.86929v-5.27535h7.90909v5.27535z" fill="#0052bf" stroke="none"/><path d="M133.90355,159.86928v-5.27535h7.90909v5.27535z" fill="#bf1a00" stroke="none"/><path d="M141.55356,159.86929v-5.27535h7.90909v5.27535z" fill="#bf7800" stroke="none"/><path d="M149.20356,159.86928v-5.27535h7.90909v5.27535z" fill="#bf0000" stroke="none"/><path d="M156.70356,159.86929v-5.27535h7.90909v5.27535z" fill="#00bf0d" stroke="none"/><path d="M164.35356,159.86928v-5.27535h7.90909v5.27535z" fill="#bf0000" stroke="none"/><path d="M285.98992,159.86929v-5.27535h7.90909v5.27535z" data-paper-data="{&quot;index&quot;:null}" fill="#bf0000" stroke="none"/><path d="M278.33993,159.86928v-5.27535h7.90909v5.27535z" data-paper-data="{&quot;index&quot;:null}" fill="#bf8900" stroke="none"/><path d="M270.83993,159.86929v-5.27535h7.90909v5.27535z" data-paper-data="{&quot;index&quot;:null}" fill="#0077bf" stroke="none"/><path d="M263.18992,159.86928v-5.27535h7.90909v5.27535z" data-paper-data="{&quot;index&quot;:null}" fill="#bf0000" stroke="none"/><path d="M255.53993,159.86929v-5.27535h7.90909v5.27535z" data-paper-data="{&quot;index&quot;:null}" fill="#bf6400" stroke="none"/><path d="M247.88993,159.86928v-5.27535h7.90909v5.27535z" data-paper-data="{&quot;index&quot;:null}" fill="#bf009f" stroke="none"/><path d="M240.38993,159.86929v-5.27535h7.90909v5.27535z" data-paper-data="{&quot;index&quot;:null}" fill="#bf0000" stroke="none"/><path d="M232.73993,159.86928v-5.27535h7.90909v5.27535z" data-paper-data="{&quot;index&quot;:null}" fill="#00bf45" stroke="none"/><path d="M225.53993,159.86929v-5.27535h7.90909v5.27535z" data-paper-data="{&quot;index&quot;:null}" fill="#bfae00" stroke="none"/><path d="M217.88993,159.86928v-5.27535h7.90909v5.27535z" data-paper-data="{&quot;index&quot;:null}" fill="#bf1a00" stroke="none"/><path d="M210.38993,159.86929v-5.27535h7.90909v5.27535z" data-paper-data="{&quot;index&quot;:null}" fill="#0052bf" stroke="none"/><path d="M202.73993,159.86928v-5.27535h7.90909v5.27535z" data-paper-data="{&quot;index&quot;:null}" fill="#bf1a00" stroke="none"/><path d="M47.55385,151.53104v-5.05465h7.5782v5.05465z" data-paper-data="{&quot;index&quot;:null}" fill="#bf0000" stroke="none"/><path d="M54.8838,151.53103v-5.05465h7.5782v5.05465z" data-paper-data="{&quot;index&quot;:null}" fill="#bf8900" stroke="none"/><path d="M62.07001,151.53104v-5.05465h7.57821v5.05465z" data-paper-data="{&quot;index&quot;:null}" fill="#0077bf" stroke="none"/><path d="M69.39996,151.53103v-5.05465h7.5782v5.05465z" data-paper-data="{&quot;index&quot;:null}" fill="#bf0000" stroke="none"/><path d="M76.72992,151.53104v-5.05465h7.5782v5.05465z" data-paper-data="{&quot;index&quot;:null}" fill="#bf6400" stroke="none"/><path d="M84.05987,151.53103v-5.05465h7.5782v5.05465z" data-paper-data="{&quot;index&quot;:null}" fill="#bf009f" stroke="none"/><path d="M91.24609,151.53104v-5.05465h7.5782v5.05465z" data-paper-data="{&quot;index&quot;:null}" fill="#bf0000" stroke="none"/><path d="M195.08993,159.86929v-5.27535h7.90909v5.27535z" data-paper-data="{&quot;index&quot;:null}" fill="#bf7800" stroke="none"/><path d="M187.43993,159.86928v-5.27535h7.90909v5.27535z" data-paper-data="{&quot;index&quot;:null}" fill="#bf0000" stroke="none"/><path d="M179.93992,159.86929v-5.27535h7.90909v5.27535z" data-paper-data="{&quot;index&quot;:null}" fill="#00bf0d" stroke="none"/><path d="M172.28993,159.86928v-5.27535h7.90909v5.27535z" data-paper-data="{&quot;index&quot;:null}" fill="#bf0000" stroke="none"/><path d="M293.38083,159.86929v-5.27535h7.90909v5.27535z" data-paper-data="{&quot;index&quot;:null}" fill="#bf0000" stroke="none"/><path d="M301.03083,159.86928v-5.27535h7.90909v5.27535z" data-paper-data="{&quot;index&quot;:null}" fill="#bf8900" stroke="none"/><path d="M308.53083,159.86929v-5.27535h7.90909v5.27535z" data-paper-data="{&quot;index&quot;:null}" fill="#0077bf" stroke="none"/><path d="M316.18082,159.86928v-5.27535h7.90909v5.27535z" data-paper-data="{&quot;index&quot;:null}" fill="#bf0000" stroke="none"/><path d="M323.83081,159.86929v-5.27535h7.90909v5.27535z" data-paper-data="{&quot;index&quot;:null}" fill="#bf6400" stroke="none"/><path d="M331.48083,159.86928v-5.27535h7.90909v5.27535z" data-paper-data="{&quot;index&quot;:null}" fill="#bf009f" stroke="none"/><path d="M338.98083,159.86929v-5.27535h7.90909v5.27535z" data-paper-data="{&quot;index&quot;:null}" fill="#bf0000" stroke="none"/><path d="M346.63083,159.86928v-5.27535h7.90909v5.27535z" data-paper-data="{&quot;index&quot;:null}" fill="#00bf45" stroke="none"/><path d="M353.83083,159.86929v-5.27535h7.90909v5.27535z" data-paper-data="{&quot;index&quot;:null}" fill="#bfae00" stroke="none"/><path d="M361.48083,159.86928v-5.27535h7.90909v5.27535z" data-paper-data="{&quot;index&quot;:null}" fill="#bf1a00" stroke="none"/><path d="M368.98083,159.86929v-5.27535h7.90909v5.27535z" data-paper-data="{&quot;index&quot;:null}" fill="#0052bf" stroke="none"/><path d="M376.63083,159.86928v-5.27535h7.90909v5.27535z" data-paper-data="{&quot;index&quot;:null}" fill="#bf1a00" stroke="none"/><path d="M384.28083,159.86929v-5.27535h7.90909v5.27535z" data-paper-data="{&quot;index&quot;:null}" fill="#bf7800" stroke="none"/><path d="M391.93083,159.86928v-5.27535h7.90909v5.27535z" data-paper-data="{&quot;index&quot;:null}" fill="#bf0000" stroke="none"/><path d="M399.43083,159.86929v-5.27535h7.90909v5.27535z" data-paper-data="{&quot;index&quot;:null}" fill="#00bf0d" stroke="none"/><path d="M407.08083,159.86928v-5.27535h7.90909v5.27535z" data-paper-data="{&quot;index&quot;:null}" fill="#bf0000" stroke="none"/><path d="M414.88984,167.29349v-5.21148h7.81332v5.21148z" data-paper-data="{&quot;index&quot;:null}" fill="#bf0000" stroke="none"/><path d="M407.33247,167.29347v-5.21148h7.81332v5.21148z" data-paper-data="{&quot;index&quot;:null}" fill="#bf8900" stroke="none"/><path d="M399.92329,167.29349v-5.21148h7.81331v5.21148z" data-paper-data="{&quot;index&quot;:null}" fill="#0077bf" stroke="none"/><path d="M392.36593,167.29347v-5.21148h7.81331v5.21148z" data-paper-data="{&quot;index&quot;:null}" fill="#bf0000" stroke="none"/><path d="M384.80856,167.29349v-5.21148h7.81332v5.21148z" data-paper-data="{&quot;index&quot;:null}" fill="#bf6400" stroke="none"/><path d="M377.25119,167.29347v-5.21148h7.81332v5.21148z" data-paper-data="{&quot;index&quot;:null}" fill="#bf009f" stroke="none"/><path d="M369.84201,167.29349v-5.21148h7.81332v5.21148z" data-paper-data="{&quot;index&quot;:null}" fill="#bf0000" stroke="none"/><path d="M362.28465,167.29347v-5.21148h7.81331v5.21148z" data-paper-data="{&quot;index&quot;:null}" fill="#00bf45" stroke="none"/><path d="M355.17183,167.29349v-5.21148h7.81331v5.21148z" data-paper-data="{&quot;index&quot;:null}" fill="#bfae00" stroke="none"/><path d="M347.61447,167.29347v-5.21148h7.81331v5.21148z" data-paper-data="{&quot;index&quot;:null}" fill="#bf1a00" stroke="none"/><path d="M340.20528,167.29349v-5.21148h7.81332v5.21148z" data-paper-data="{&quot;index&quot;:null}" fill="#0052bf" stroke="none"/><path d="M332.6479,167.29347v-5.21148h7.81332v5.21148z" data-paper-data="{&quot;index&quot;:null}" fill="#bf1a00" stroke="none"/><path d="M325.09054,167.29349v-5.21148h7.81331v5.21148z" data-paper-data="{&quot;index&quot;:null}" fill="#bf7800" stroke="none"/><path d="M317.53319,167.29347v-5.21148h7.81331v5.21148z" data-paper-data="{&quot;index&quot;:null}" fill="#bf0000" stroke="none"/><path d="M310.12399,167.29349v-5.21148h7.81332v5.21148z" data-paper-data="{&quot;index&quot;:null}" fill="#00bf0d" stroke="none"/><path d="M302.56663,167.29347v-5.21148h7.81332v5.21148z" data-paper-data="{&quot;index&quot;:null}" fill="#bf0000" stroke="none"/><path d="M182.40317,167.29349v-5.21148h7.81332v5.21148z" data-paper-data="{&quot;index&quot;:null}" fill="#bf0000" stroke="none"/><path d="M189.96053,167.29347v-5.21148h7.81332v5.21148z" data-paper-data="{&quot;index&quot;:null}" fill="#bf8900" stroke="none"/><path d="M197.36972,167.29349v-5.21148h7.81331v5.21148z" data-paper-data="{&quot;index&quot;:null}" fill="#0077bf" stroke="none"/><path d="M204.92708,167.29347v-5.21148h7.81332v5.21148z" data-paper-data="{&quot;index&quot;:null}" fill="#bf0000" stroke="none"/><path d="M212.48445,167.29349v-5.21148h7.81332v5.21148z" data-paper-data="{&quot;index&quot;:null}" fill="#bf6400" stroke="none"/><path d="M220.04181,167.29347v-5.21148h7.81332v5.21148z" data-paper-data="{&quot;index&quot;:null}" fill="#bf009f" stroke="none"/><path d="M227.45099,167.29349v-5.21148h7.81331v5.21148z" data-paper-data="{&quot;index&quot;:null}" fill="#bf0000" stroke="none"/><path d="M235.00836,167.29347v-5.21148h7.81331v5.21148z" data-paper-data="{&quot;index&quot;:null}" fill="#00bf45" stroke="none"/><path d="M242.12118,167.29349v-5.21148h7.81332v5.21148z" data-paper-data="{&quot;index&quot;:null}" fill="#bfae00" stroke="none"/><path d="M249.67854,167.29347v-5.21148h7.81332v5.21148z" data-paper-data="{&quot;index&quot;:null}" fill="#bf1a00" stroke="none"/><path d="M257.08772,167.29349v-5.21148h7.81332v5.21148z" data-paper-data="{&quot;index&quot;:null}" fill="#0052bf" stroke="none"/><path d="M264.64509,167.29347v-5.21148h7.81332v5.21148z" data-paper-data="{&quot;index&quot;:null}" fill="#bf1a00" stroke="none"/><path d="M272.20246,167.29349v-5.21148h7.81331v5.21148z" data-paper-data="{&quot;index&quot;:null}" fill="#bf7800" stroke="none"/><path d="M279.7598,167.29347v-5.21148h7.81331v5.21148z" data-paper-data="{&quot;index&quot;:null}" fill="#bf0000" stroke="none"/><path d="M287.169,167.29349v-5.21148h7.81332v5.21148z" data-paper-data="{&quot;index&quot;:null}" fill="#00bf0d" stroke="none"/><path d="M294.72637,167.29347v-5.21148h7.81332v5.21148z" data-paper-data="{&quot;index&quot;:null}" fill="#bf0000" stroke="none"/><path d="M175.10176,167.29349v-5.21148h7.81332v5.21148z" data-paper-data="{&quot;index&quot;:null}" fill="#bf0000" stroke="none"/><path d="M167.5444,167.29347v-5.21148h7.81332v5.21148z" data-paper-data="{&quot;index&quot;:null}" fill="#bf8900" stroke="none"/><path d="M160.1352,167.29349v-5.21148h7.81332v5.21148z" data-paper-data="{&quot;index&quot;:null}" fill="#0077bf" stroke="none"/><path d="M152.57785,167.29347v-5.21148h7.81331v5.21148z" data-paper-data="{&quot;index&quot;:null}" fill="#bf0000" stroke="none"/><path d="M145.02047,167.29349v-5.21148h7.81332v5.21148z" data-paper-data="{&quot;index&quot;:null}" fill="#bf6400" stroke="none"/><path d="M137.46312,167.29347v-5.21148h7.81332v5.21148z" data-paper-data="{&quot;index&quot;:null}" fill="#bf009f" stroke="none"/><path d="M130.05394,167.29349v-5.21148h7.81332v5.21148z" data-paper-data="{&quot;index&quot;:null}" fill="#bf0000" stroke="none"/><path d="M122.49657,167.29347v-5.21148h7.81332v5.21148z" data-paper-data="{&quot;index&quot;:null}" fill="#00bf45" stroke="none"/><path d="M115.38376,167.29349v-5.21148h7.81331v5.21148z" data-paper-data="{&quot;index&quot;:null}" fill="#bfae00" stroke="none"/><path d="M107.82639,167.29347v-5.21148h7.81332v5.21148z" data-paper-data="{&quot;index&quot;:null}" fill="#bf1a00" stroke="none"/><path d="M100.4172,167.29349v-5.21148h7.81332v5.21148z" data-paper-data="{&quot;index&quot;:null}" fill="#0052bf" stroke="none"/><path d="M92.85984,167.29347v-5.21148h7.81332v5.21148z" data-paper-data="{&quot;index&quot;:null}" fill="#bf1a00" stroke="none"/><path d="M85.30248,167.29349v-5.21148h7.81332v5.21148z" data-paper-data="{&quot;index&quot;:null}" fill="#bf7800" stroke="none"/><path d="M77.7451,167.29347v-5.21148h7.81331v5.21148z" data-paper-data="{&quot;index&quot;:null}" fill="#bf0000" stroke="none"/><path d="M70.33593,167.29349v-5.21148h7.81332v5.21148z" data-paper-data="{&quot;index&quot;:null}" fill="#00bf0d" stroke="none"/><path d="M62.77856,167.29347v-5.21148h7.81332v5.21148z" data-paper-data="{&quot;index&quot;:null}" fill="#bf0000" stroke="none"/><path d="M400.85684,175.19655v-5.17952h7.76544v5.17952z" data-paper-data="{&quot;index&quot;:null}" fill="#bf0000" stroke="none"/><path d="M393.34579,175.19654v-5.17952h7.76543v5.17952z" data-paper-data="{&quot;index&quot;:null}" fill="#bf8900" stroke="none"/><path d="M385.98202,175.19655v-5.17952h7.76543v5.17952z" data-paper-data="{&quot;index&quot;:null}" fill="#0077bf" stroke="none"/><path d="M378.47097,175.19654v-5.17952h7.76543v5.17952z" data-paper-data="{&quot;index&quot;:null}" fill="#bf0000" stroke="none"/><path d="M370.95992,175.19655v-5.17952h7.76543v5.17952z" data-paper-data="{&quot;index&quot;:null}" fill="#bf6400" stroke="none"/><path d="M363.44887,175.19654v-5.17952h7.76544v5.17952z" data-paper-data="{&quot;index&quot;:null}" fill="#bf009f" stroke="none"/><path d="M356.0851,175.19655v-5.17952h7.76543v5.17952z" data-paper-data="{&quot;index&quot;:null}" fill="#bf0000" stroke="none"/><path d="M348.57405,175.19654v-5.17952h7.76544v5.17952z" data-paper-data="{&quot;index&quot;:null}" fill="#00bf45" stroke="none"/><path d="M341.50483,175.19655v-5.17952h7.76543v5.17952z" data-paper-data="{&quot;index&quot;:null}" fill="#bfae00" stroke="none"/><path d="M333.99377,175.19654v-5.17952h7.76543v5.17952z" data-paper-data="{&quot;index&quot;:null}" fill="#bf1a00" stroke="none"/><path d="M326.62998,175.19655v-5.17952h7.76544v5.17952z" data-paper-data="{&quot;index&quot;:null}" fill="#0052bf" stroke="none"/><path d="M319.11895,175.19654v-5.17952h7.76543v5.17952z" data-paper-data="{&quot;index&quot;:null}" fill="#bf1a00" stroke="none"/><path d="M311.6079,175.19655v-5.17952h7.76543v5.17952z" data-paper-data="{&quot;index&quot;:null}" fill="#bf7800" stroke="none"/><path d="M304.09684,175.19654v-5.17952h7.76544v5.17952z" data-paper-data="{&quot;index&quot;:null}" fill="#bf0000" stroke="none"/><path d="M296.73308,175.19655v-5.17952h7.76543v5.17952z" data-paper-data="{&quot;index&quot;:null}" fill="#00bf0d" stroke="none"/><path d="M289.22202,175.19654v-5.17952h7.76543v5.17952z" data-paper-data="{&quot;index&quot;:null}" fill="#bf0000" stroke="none"/><path d="M169.79501,175.19655v-5.17952h7.76543v5.17952z" data-paper-data="{&quot;index&quot;:null}" fill="#bf0000" stroke="none"/><path d="M177.30606,175.19654v-5.17952h7.76544v5.17952z" data-paper-data="{&quot;index&quot;:null}" fill="#bf8900" stroke="none"/><path d="M184.66983,175.19655v-5.17952h7.76543v5.17952z" data-paper-data="{&quot;index&quot;:null}" fill="#0077bf" stroke="none"/><path d="M192.18089,175.19654v-5.17952h7.76543v5.17952z" data-paper-data="{&quot;index&quot;:null}" fill="#bf0000" stroke="none"/><path d="M199.69194,175.19655v-5.17952h7.76543v5.17952z" data-paper-data="{&quot;index&quot;:null}" fill="#bf6400" stroke="none"/><path d="M207.20299,175.19654v-5.17952h7.76543v5.17952z" data-paper-data="{&quot;index&quot;:null}" fill="#bf009f" stroke="none"/><path d="M214.56676,175.19655v-5.17952h7.76543v5.17952z" data-paper-data="{&quot;index&quot;:null}" fill="#bf0000" stroke="none"/><path d="M222.07781,175.19654v-5.17952h7.76543v5.17952z" data-paper-data="{&quot;index&quot;:null}" fill="#00bf45" stroke="none"/><path d="M229.14703,175.19655v-5.17952h7.76543v5.17952z" data-paper-data="{&quot;index&quot;:null}" fill="#bfae00" stroke="none"/><path d="M236.65808,175.19654v-5.17952h7.76543v5.17952z" data-paper-data="{&quot;index&quot;:null}" fill="#bf1a00" stroke="none"/><path d="M244.02185,175.19655v-5.17952h7.76543v5.17952z" data-paper-data="{&quot;index&quot;:null}" fill="#0052bf" stroke="none"/><path d="M251.5329,175.19654v-5.17952h7.76543v5.17952z" data-paper-data="{&quot;index&quot;:null}" fill="#bf1a00" stroke="none"/><path d="M259.04393,175.19655v-5.17952h7.76543v5.17952z" data-paper-data="{&quot;index&quot;:null}" fill="#bf7800" stroke="none"/><path d="M266.55499,175.19654v-5.17952h7.76543v5.17952z" data-paper-data="{&quot;index&quot;:null}" fill="#bf0000" stroke="none"/><path d="M273.91878,175.19655v-5.17952h7.76543v5.17952z" data-paper-data="{&quot;index&quot;:null}" fill="#00bf0d" stroke="none"/><path d="M281.42981,175.19654v-5.17952h7.76543v5.17952z" data-paper-data="{&quot;index&quot;:null}" fill="#bf0000" stroke="none"/><path d="M162.53837,175.19655v-5.17952h7.76543v5.17952z" data-paper-data="{&quot;index&quot;:null}" fill="#bf0000" stroke="none"/><path d="M155.02731,175.19654v-5.17952h7.76543v5.17952z" data-paper-data="{&quot;index&quot;:null}" fill="#bf8900" stroke="none"/><path d="M147.66354,175.19655v-5.17952h7.76543v5.17952z" data-paper-data="{&quot;index&quot;:null}" fill="#0077bf" stroke="none"/><path d="M140.15249,175.19654v-5.17952h7.76543v5.17952z" data-paper-data="{&quot;index&quot;:null}" fill="#bf0000" stroke="none"/><path d="M132.64144,175.19655v-5.17952h7.76543v5.17952z" data-paper-data="{&quot;index&quot;:null}" fill="#bf6400" stroke="none"/><path d="M125.1304,175.19654v-5.17952h7.76543v5.17952z" data-paper-data="{&quot;index&quot;:null}" fill="#bf009f" stroke="none"/><path d="M117.76662,175.19655v-5.17952h7.76543v5.17952z" data-paper-data="{&quot;index&quot;:null}" fill="#bf0000" stroke="none"/><path d="M110.25558,175.19654v-5.17952h7.76543v5.17952z" data-paper-data="{&quot;index&quot;:null}" fill="#00bf45" stroke="none"/><path d="M103.18635,175.19655v-5.17952h7.76543v5.17952z" data-paper-data="{&quot;index&quot;:null}" fill="#bfae00" stroke="none"/><path d="M95.6753,175.19654v-5.17952h7.76543v5.17952z" data-paper-data="{&quot;index&quot;:null}" fill="#bf1a00" stroke="none"/><path d="M88.31153,175.19655v-5.17952h7.76543v5.17952z" data-paper-data="{&quot;index&quot;:null}" fill="#0052bf" stroke="none"/><path d="M80.80048,175.19654v-5.17952h7.76543v5.17952z" data-paper-data="{&quot;index&quot;:null}" fill="#bf1a00" stroke="none"/><path d="M73.28943,175.19655v-5.17952h7.76543v5.17952z" data-paper-data="{&quot;index&quot;:null}" fill="#bf7800" stroke="none"/><path d="M65.77837,175.19654v-5.17952h7.76544v5.17952z" data-paper-data="{&quot;index&quot;:null}" fill="#bf0000" stroke="none"/><path d="M58.41461,175.19655v-5.17952h7.76543v5.17952z" data-paper-data="{&quot;index&quot;:null}" fill="#00bf0d" stroke="none"/><path d="M50.90356,175.19654v-5.17952h7.76544v5.17952z" data-paper-data="{&quot;index&quot;:null}" fill="#bf0000" stroke="none"/><path d="M53.15356,183.69959v-5.15047h7.72186v5.15047z" data-paper-data="{&quot;index&quot;:null}" fill="#bf0000" stroke="none"/><path d="M60.62246,183.69958v-5.15047h7.72185v5.15047z" data-paper-data="{&quot;index&quot;:null}" fill="#bf8900" stroke="none"/><path d="M67.94491,183.69959v-5.15047h7.72186v5.15047z" data-paper-data="{&quot;index&quot;:null}" fill="#0077bf" stroke="none"/><path d="M75.4138,183.69958v-5.15047h7.72186v5.15047z" data-paper-data="{&quot;index&quot;:null}" fill="#bf0000" stroke="none"/><path d="M82.88271,183.69959v-5.15047h7.72186v5.15047z" data-paper-data="{&quot;index&quot;:null}" fill="#bf6400" stroke="none"/><path d="M90.35161,183.69958v-5.15047h7.72186v5.15047z" data-paper-data="{&quot;index&quot;:null}" fill="#bf009f" stroke="none"/><path d="M97.67407,183.69959v-5.15047h7.72186v5.15047z" data-paper-data="{&quot;index&quot;:null}" fill="#bf0000" stroke="none"/><path d="M105.14297,183.69958v-5.15047h7.72185v5.15047z" data-paper-data="{&quot;index&quot;:null}" fill="#00bf45" stroke="none"/><path d="M112.17252,183.69959v-5.15047h7.72186v5.15047z" data-paper-data="{&quot;index&quot;:null}" fill="#bfae00" stroke="none"/><path d="M119.64142,183.69958v-5.15047h7.72186v5.15047z" data-paper-data="{&quot;index&quot;:null}" fill="#bf1a00" stroke="none"/><path d="M126.96387,183.69959v-5.15047h7.72186v5.15047z" data-paper-data="{&quot;index&quot;:null}" fill="#0052bf" stroke="none"/><path d="M134.43275,183.69958v-5.15047h7.72185v5.15047z" data-paper-data="{&quot;index&quot;:null}" fill="#bf1a00" stroke="none"/><path d="M141.90166,183.69959v-5.15047h7.72186v5.15047z" data-paper-data="{&quot;index&quot;:null}" fill="#bf7800" stroke="none"/><path d="M149.37057,183.69958v-5.15047h7.72185v5.15047z" data-paper-data="{&quot;index&quot;:null}" fill="#bf0000" stroke="none"/><path d="M156.69302,183.69959v-5.15047h7.72186v5.15047z" data-paper-data="{&quot;index&quot;:null}" fill="#00bf0d" stroke="none"/><path d="M164.1619,183.69958v-5.15047h7.72186v5.15047z" data-paper-data="{&quot;index&quot;:null}" fill="#bf0000" stroke="none"/><path d="M282.91875,183.69959v-5.15047h7.72186v5.15047z" data-paper-data="{&quot;index&quot;:null}" fill="#bf0000" stroke="none"/><path d="M275.44987,183.69958v-5.15047h7.72186v5.15047z" data-paper-data="{&quot;index&quot;:null}" fill="#bf8900" stroke="none"/><path d="M268.12742,183.69959v-5.15047h7.72185v5.15047z" data-paper-data="{&quot;index&quot;:null}" fill="#0077bf" stroke="none"/><path d="M260.65851,183.69958v-5.15047h7.72186v5.15047z" data-paper-data="{&quot;index&quot;:null}" fill="#bf0000" stroke="none"/><path d="M253.18962,183.69959v-5.15047h7.72186v5.15047z" data-paper-data="{&quot;index&quot;:null}" fill="#bf6400" stroke="none"/><path d="M245.72072,183.69958v-5.15047h7.72186v5.15047z" data-paper-data="{&quot;index&quot;:null}" fill="#bf009f" stroke="none"/><path d="M238.39826,183.69959v-5.15047h7.72186v5.15047z" data-paper-data="{&quot;index&quot;:null}" fill="#bf0000" stroke="none"/><path d="M230.92937,183.69958v-5.15047h7.72186v5.15047z" data-paper-data="{&quot;index&quot;:null}" fill="#00bf45" stroke="none"/><path d="M223.89982,183.69959v-5.15047h7.72186v5.15047z" data-paper-data="{&quot;index&quot;:null}" fill="#bfae00" stroke="none"/><path d="M216.43092,183.69958v-5.15047h7.72186v5.15047z" data-paper-data="{&quot;index&quot;:null}" fill="#bf1a00" stroke="none"/><path d="M209.10847,183.69959v-5.15047h7.72186v5.15047z" data-paper-data="{&quot;index&quot;:null}" fill="#0052bf" stroke="none"/><path d="M201.63956,183.69958v-5.15047h7.72186v5.15047z" data-paper-data="{&quot;index&quot;:null}" fill="#bf1a00" stroke="none"/><path d="M194.17066,183.69959v-5.15047h7.72186v5.15047z" data-paper-data="{&quot;index&quot;:null}" fill="#bf7800" stroke="none"/><path d="M186.70176,183.69958v-5.15047h7.72186v5.15047z" data-paper-data="{&quot;index&quot;:null}" fill="#bf0000" stroke="none"/><path d="M179.3793,183.69959v-5.15047h7.72186v5.15047z" data-paper-data="{&quot;index&quot;:null}" fill="#00bf0d" stroke="none"/><path d="M171.91041,183.69958v-5.15047h7.72185v5.15047z" data-paper-data="{&quot;index&quot;:null}" fill="#bf0000" stroke="none"/><path d="M290.13471,183.69959v-5.15047h7.72186v5.15047z" data-paper-data="{&quot;index&quot;:null}" fill="#bf0000" stroke="none"/><path d="M297.6036,183.69958v-5.15047h7.72186v5.15047z" data-paper-data="{&quot;index&quot;:null}" fill="#bf8900" stroke="none"/><path d="M304.92605,183.69959v-5.15047h7.72186v5.15047z" data-paper-data="{&quot;index&quot;:null}" fill="#0077bf" stroke="none"/><path d="M312.39493,183.69958v-5.15047h7.72186v5.15047z" data-paper-data="{&quot;index&quot;:null}" fill="#bf0000" stroke="none"/><path d="M319.86386,183.69959v-5.15047h7.72186v5.15047z" data-paper-data="{&quot;index&quot;:null}" fill="#bf6400" stroke="none"/><path d="M327.33275,183.69958v-5.15047h7.72186v5.15047z" data-paper-data="{&quot;index&quot;:null}" fill="#bf009f" stroke="none"/><path d="M334.6552,183.69959v-5.15047h7.72186v5.15047z" data-paper-data="{&quot;index&quot;:null}" fill="#bf0000" stroke="none"/><path d="M342.12411,183.69958v-5.15047h7.72186v5.15047z" data-paper-data="{&quot;index&quot;:null}" fill="#00bf45" stroke="none"/><path d="M349.15366,183.69959v-5.15047h7.72186v5.15047z" data-paper-data="{&quot;index&quot;:null}" fill="#bfae00" stroke="none"/><path d="M356.62256,183.69958v-5.15047h7.72186v5.15047z" data-paper-data="{&quot;index&quot;:null}" fill="#bf1a00" stroke="none"/><path d="M363.94501,183.69959v-5.15047h7.72186v5.15047z" data-paper-data="{&quot;index&quot;:null}" fill="#0052bf" stroke="none"/><path d="M371.41391,183.69958v-5.15047h7.72186v5.15047z" data-paper-data="{&quot;index&quot;:null}" fill="#bf1a00" stroke="none"/><path d="M378.8828,183.69959v-5.15047h7.72186v5.15047z" data-paper-data="{&quot;index&quot;:null}" fill="#bf7800" stroke="none"/><path d="M386.35171,183.69958v-5.15047h7.72186v5.15047z" data-paper-data="{&quot;index&quot;:null}" fill="#bf0000" stroke="none"/><path d="M393.67416,183.69959v-5.15047h7.72186v5.15047z" data-paper-data="{&quot;index&quot;:null}" fill="#00bf0d" stroke="none"/><path d="M401.14307,183.69958v-5.15047h7.72186v5.15047z" data-paper-data="{&quot;index&quot;:null}" fill="#bf0000" stroke="none"/><path d="M71.31683,191.34709v-5.05465h7.5782v5.05465z" data-paper-data="{&quot;index&quot;:null}" fill="#bf0000" stroke="none"/><path d="M78.64678,191.34708v-5.05465h7.5782v5.05465z" data-paper-data="{&quot;index&quot;:null}" fill="#bf8900" stroke="none"/><path d="M85.83299,191.34709v-5.05465h7.57821v5.05465z" data-paper-data="{&quot;index&quot;:null}" fill="#0077bf" stroke="none"/><path d="M93.16295,191.34708v-5.05465h7.5782v5.05465z" data-paper-data="{&quot;index&quot;:null}" fill="#bf0000" stroke="none"/><path d="M100.4929,191.34709v-5.05465h7.5782v5.05465z" data-paper-data="{&quot;index&quot;:null}" fill="#bf6400" stroke="none"/><path d="M107.82285,191.34708v-5.05465h7.5782v5.05465z" data-paper-data="{&quot;index&quot;:null}" fill="#bf009f" stroke="none"/><path d="M115.00907,191.34709v-5.05465h7.5782v5.05465z" data-paper-data="{&quot;index&quot;:null}" fill="#bf0000" stroke="none"/><path d="M122.33902,191.34708v-5.05465h7.5782v5.05465z" data-paper-data="{&quot;index&quot;:null}" fill="#00bf45" stroke="none"/><path d="M129.2378,191.34709v-5.05465h7.5782v5.05465z" data-paper-data="{&quot;index&quot;:null}" fill="#bfae00" stroke="none"/><path d="M136.56774,191.34708v-5.05465h7.5782v5.05465z" data-paper-data="{&quot;index&quot;:null}" fill="#bf1a00" stroke="none"/><path d="M143.75396,191.34709v-5.05465h7.5782v5.05465z" data-paper-data="{&quot;index&quot;:null}" fill="#0052bf" stroke="none"/><path d="M151.08391,191.34708v-5.05465h7.57819v5.05465z" data-paper-data="{&quot;index&quot;:null}" fill="#bf1a00" stroke="none"/><path d="M158.41386,191.34709v-5.05465h7.5782v5.05465z" data-paper-data="{&quot;index&quot;:null}" fill="#bf7800" stroke="none"/><path d="M165.74381,191.34708v-5.05465h7.5782v5.05465z" data-paper-data="{&quot;index&quot;:null}" fill="#bf0000" stroke="none"/><path d="M172.93003,191.34709v-5.05465h7.5782v5.05465z" data-paper-data="{&quot;index&quot;:null}" fill="#00bf0d" stroke="none"/><path d="M180.25999,191.34708v-5.05465h7.5782v5.05465z" data-paper-data="{&quot;index&quot;:null}" fill="#bf0000" stroke="none"/><path d="M296.80749,191.34709v-5.05465h7.57819v5.05465z" data-paper-data="{&quot;index&quot;:null}" fill="#bf0000" stroke="none"/><path d="M289.47754,191.34708v-5.05465h7.5782v5.05465z" data-paper-data="{&quot;index&quot;:null}" fill="#bf8900" stroke="none"/><path d="M282.29132,191.34709v-5.05465h7.5782v5.05465z" data-paper-data="{&quot;index&quot;:null}" fill="#0077bf" stroke="none"/><path d="M274.96137,191.34708v-5.05465h7.5782v5.05465z" data-paper-data="{&quot;index&quot;:null}" fill="#bf0000" stroke="none"/><path d="M267.6314,191.34709v-5.05465h7.57819v5.05465z" data-paper-data="{&quot;index&quot;:null}" fill="#bf6400" stroke="none"/><path d="M260.30145,191.34708v-5.05465h7.57819v5.05465z" data-paper-data="{&quot;index&quot;:null}" fill="#bf009f" stroke="none"/><path d="M253.11524,191.34709v-5.05465h7.5782v5.05465z" data-paper-data="{&quot;index&quot;:null}" fill="#bf0000" stroke="none"/><path d="M245.7853,191.34708v-5.05465h7.5782v5.05465z" data-paper-data="{&quot;index&quot;:null}" fill="#00bf45" stroke="none"/><path d="M238.88651,191.34709v-5.05465h7.5782v5.05465z" data-paper-data="{&quot;index&quot;:null}" fill="#bfae00" stroke="none"/><path d="M231.55656,191.34708v-5.05465h7.5782v5.05465z" data-paper-data="{&quot;index&quot;:null}" fill="#bf1a00" stroke="none"/><path d="M224.37035,191.34709v-5.05465h7.57819v5.05465z" data-paper-data="{&quot;index&quot;:null}" fill="#0052bf" stroke="none"/><path d="M217.0404,191.34708v-5.05465h7.5782v5.05465z" data-paper-data="{&quot;index&quot;:null}" fill="#bf1a00" stroke="none"/><path d="M209.71045,191.34709v-5.05465h7.5782v5.05465z" data-paper-data="{&quot;index&quot;:null}" fill="#bf7800" stroke="none"/><path d="M202.3805,191.34708v-5.05465h7.5782v5.05465z" data-paper-data="{&quot;index&quot;:null}" fill="#bf0000" stroke="none"/><path d="M195.19427,191.34709v-5.05465h7.5782v5.05465z" data-paper-data="{&quot;index&quot;:null}" fill="#00bf0d" stroke="none"/><path d="M187.86433,191.34708v-5.05465h7.5782v5.05465z" data-paper-data="{&quot;index&quot;:null}" fill="#bf0000" stroke="none"/><path d="M303.88917,191.34709v-5.05465h7.57819v5.05465z" data-paper-data="{&quot;index&quot;:null}" fill="#bf0000" stroke="none"/><path d="M311.21912,191.34708v-5.05465h7.5782v5.05465z" data-paper-data="{&quot;index&quot;:null}" fill="#bf8900" stroke="none"/><path d="M318.40533,191.34709v-5.05465h7.57819v5.05465z" data-paper-data="{&quot;index&quot;:null}" fill="#0077bf" stroke="none"/><path d="M325.73528,191.34708v-5.05465h7.57819v5.05465z" data-paper-data="{&quot;index&quot;:null}" fill="#bf0000" stroke="none"/><path d="M333.06523,191.34709v-5.05465h7.57821v5.05465z" data-paper-data="{&quot;index&quot;:null}" fill="#bf6400" stroke="none"/><path d="M340.3952,191.34708v-5.05465h7.57821v5.05465z" data-paper-data="{&quot;index&quot;:null}" fill="#bf009f" stroke="none"/><path d="M347.58142,191.34709v-5.05465h7.5782v5.05465z" data-paper-data="{&quot;index&quot;:null}" fill="#bf0000" stroke="none"/><path d="M354.91137,191.34708v-5.05465h7.5782v5.05465z" data-paper-data="{&quot;index&quot;:null}" fill="#00bf45" stroke="none"/><path d="M361.81015,191.34709v-5.05465h7.5782v5.05465z" data-paper-data="{&quot;index&quot;:null}" fill="#bfae00" stroke="none"/><path d="M369.1401,191.34708v-5.05465h7.5782v5.05465z" data-paper-data="{&quot;index&quot;:null}" fill="#bf1a00" stroke="none"/><path d="M376.32632,191.34709v-5.05465h7.5782v5.05465z" data-paper-data="{&quot;index&quot;:null}" fill="#0052bf" stroke="none"/><path d="M383.65626,191.34708v-5.05465h7.5782v5.05465z" data-paper-data="{&quot;index&quot;:null}" fill="#bf1a00" stroke="none"/><path d="M390.98622,191.34709v-5.05465h7.5782v5.05465z" data-paper-data="{&quot;index&quot;:null}" fill="#bf7800" stroke="none"/><path d="M398.31617,191.34708v-5.05465h7.5782v5.05465z" data-paper-data="{&quot;index&quot;:null}" fill="#bf0000" stroke="none"/><path d="M405.50239,191.34709v-5.05465h7.5782v5.05465z" data-paper-data="{&quot;index&quot;:null}" fill="#00bf0d" stroke="none"/><path d="M377.61497,152.32869v-5.05465h7.5782v5.05465z" data-paper-data="{&quot;index&quot;:null}" fill="#0052bf" stroke="none"/><path d="M384.94492,152.32868v-5.05465h7.5782v5.05465z" data-paper-data="{&quot;index&quot;:null}" fill="#bf1a00" stroke="none"/><path d="M392.27487,152.32869v-5.05465h7.5782v5.05465z" data-paper-data="{&quot;index&quot;:null}" fill="#bf7800" stroke="none"/><path d="M399.60482,152.32868v-5.05465h7.5782v5.05465z" data-paper-data="{&quot;index&quot;:null}" fill="#bf0000" stroke="none"/><path d="M406.79104,152.32869v-5.05465h7.5782v5.05465z" data-paper-data="{&quot;index&quot;:null}" fill="#00bf0d" stroke="none"/><path d="M414.12098,152.32868v-5.05465h7.5782v5.05465z" data-paper-data="{&quot;index&quot;:null}" fill="#bf0000" stroke="none"/><path d="M412.83234,191.34708v-5.05465h7.5782v5.05465z" data-paper-data="{&quot;index&quot;:null}" fill="#bf0000" stroke="none"/><path d="M43.52895,143.80298l391.32352,-1.45985l-6.17647,41.35872h-378.97058z" fill="url(#color-2)" stroke="none"/><path d="M51.47013,194.51114v-1.70673h374.99999v1.70673z" fill="#b9bfbf" stroke="none"/><path d="M42.68755,143.61493l1.28963,-0.3838l9.06575,49.85611l-1.28963,0.3838z" fill="#b9bfbf" stroke="none"/><path d="M426.62813,194.79851l-1.28963,-0.38379l8.97542,-50.81612l1.28964,0.38379z" data-paper-data="{&quot;index&quot;:null}" fill="#b9bfbf" stroke="none"/><path d="M401.19601,79.05565v49.07935h-325.07623v-49.07935z" data-paper-data="{&quot;index&quot;:null}" fill="#9ba1a1" stroke="none"/><path d="M399.8037,126.11111v16.35181h-320.4693v-16.35181z" data-paper-data="{&quot;index&quot;:null}" fill="url(#color-3)" stroke="none"/><path d="M78.8512,78.01721c0,0 0.17244,2.84533 0.34792,5.74111c0.54546,9.00093 3.36137,55.46767 3.36137,55.46767l-41.00003,3.06105l6.80415,-54.61818z" data-paper-data="{&quot;index&quot;:null}" fill="url(#color-4)" stroke="none"/><path d="M81.63264,126.0369l0.92784,16.23732l-40.95061,0.2464l0.95542,-5.41062z" data-paper-data="{&quot;index&quot;:null}" fill="url(#color-5)" stroke="none"/><g data-paper-data="{&quot;index&quot;:null}" stroke="none"><path d="M430.83271,87.66887l6.80415,54.61818l-41.00002,-3.06105c0,0 2.81592,-46.46674 3.36138,-55.46767c0.17548,-2.89578 0.34792,-5.74111 0.34792,-5.74111z" data-paper-data="{&quot;index&quot;:null}" fill="url(#color-6)"/><path d="M436.63203,137.11002l0.95542,5.41062l-40.95061,-0.2464l0.92784,-16.23732z" data-paper-data="{&quot;index&quot;:null}" fill="url(#color-7)"/></g><path d="M22.60703,230.18227v-168.77801h444.62876v168.77801z" fill="none" stroke="none"/></g></g></svg>