<svg version="1.1" xmlns="http://www.w3.org/2000/svg" xmlns:xlink="http://www.w3.org/1999/xlink" width="278.70092" height="168.81313" viewBox="0,0,278.70092,168.81313"><defs><radialGradient cx="193.27216" cy="172.53234" r="29.07697" gradientUnits="userSpaceOnUse" id="color-1"><stop offset="0" stop-color="#ffffff"/><stop offset="1" stop-color="#ffffff" stop-opacity="0"/></radialGradient><radialGradient cx="214.48277" cy="190.10666" r="46.95525" gradientUnits="userSpaceOnUse" id="color-2"><stop offset="0" stop-color="#ffffff"/><stop offset="1" stop-color="#ffffff" stop-opacity="0"/></radialGradient><radialGradient cx="236.01591" cy="170.35011" r="46.95525" gradientUnits="userSpaceOnUse" id="color-3"><stop offset="0" stop-color="#ffffff"/><stop offset="1" stop-color="#ffffff" stop-opacity="0"/></radialGradient><radialGradient cx="262.34287" cy="166.28594" r="29.07697" gradientUnits="userSpaceOnUse" id="color-4"><stop offset="0" stop-color="#ffffff"/><stop offset="1" stop-color="#ffffff" stop-opacity="0"/></radialGradient><radialGradient cx="271.03177" cy="193.87422" r="29.07697" gradientUnits="userSpaceOnUse" id="color-5"><stop offset="0" stop-color="#ffffff"/><stop offset="1" stop-color="#ffffff" stop-opacity="0"/></radialGradient><radialGradient cx="286.72784" cy="167.1268" r="29.07697" gradientUnits="userSpaceOnUse" id="color-6"><stop offset="0" stop-color="#ffffff"/><stop offset="1" stop-color="#ffffff" stop-opacity="0"/></radialGradient><radialGradient cx="173.14837" cy="189.00176" r="29.07697" gradientUnits="userSpaceOnUse" id="color-7"><stop offset="0" stop-color="#ffffff"/><stop offset="1" stop-color="#ffffff" stop-opacity="0"/></radialGradient></defs><g transform="translate(-103.98664,-92.9931)"><g data-paper-data="{&quot;isPaintingLayer&quot;:true}" fill-rule="nonzero" stroke="none" stroke-width="0" stroke-linecap="butt" stroke-linejoin="miter" stroke-miterlimit="10" stroke-dasharray="" stroke-dashoffset="0" style="mix-blend-mode: normal"><path d="M193.27216,143.45537c16.0588,0 29.07697,13.01821 29.07697,29.07697c0,16.05876 -13.01818,29.07697 -29.07697,29.07697c-16.05876,0 -29.07697,-13.01821 -29.07697,-29.07697c0,-16.05876 13.01821,-29.07697 29.07697,-29.07697z" data-paper-data="{&quot;index&quot;:null}" fill="url(#color-1)"/><path d="M214.48277,143.15141c25.9327,0 46.95525,21.02256 46.95525,46.95525c0,25.9327 -21.02256,46.95528 -46.95525,46.95528c-25.9327,0 -46.95528,-21.02259 -46.95528,-46.95528c0,-25.9327 21.02259,-46.95525 46.95528,-46.95525z" data-paper-data="{&quot;index&quot;:null}" fill="url(#color-2)"/><path d="M236.01591,123.39486c25.9327,0 46.95525,21.02256 46.95525,46.95525c0,25.9327 -21.02256,46.95528 -46.95525,46.95528c-25.9327,0 -46.95528,-21.02259 -46.95528,-46.95528c0,-25.9327 21.02259,-46.95525 46.95528,-46.95525z" data-paper-data="{&quot;index&quot;:null}" fill="url(#color-3)"/><path d="M262.34287,137.20897c16.05876,0 29.07697,13.01821 29.07697,29.07697c0,16.05876 -13.01821,29.07697 -29.07697,29.07697c-16.05876,0 -29.07697,-13.01821 -29.07697,-29.07697c0,-16.05876 13.01818,-29.07697 29.07697,-29.07697z" data-paper-data="{&quot;index&quot;:null}" fill="url(#color-4)"/><path d="M271.03177,164.79725c16.05876,0 29.07697,13.01821 29.07697,29.07697c0,16.05876 -13.01821,29.07697 -29.07697,29.07697c-16.05876,0 -29.07697,-13.01821 -29.07697,-29.07697c0,-16.05876 13.01818,-29.07697 29.07697,-29.07697z" data-paper-data="{&quot;index&quot;:null}" fill="url(#color-5)"/><path d="M286.72784,138.04983c16.05876,0 29.07697,13.01821 29.07697,29.07697c0,16.05876 -13.01818,29.07697 -29.07697,29.07697c-16.05876,0 -29.07697,-13.01821 -29.07697,-29.07697c0,-16.05876 13.01821,-29.07697 29.07697,-29.07697z" data-paper-data="{&quot;index&quot;:null}" fill="url(#color-6)"/><path d="M173.14837,159.92479c16.0588,0 29.07697,13.01821 29.07697,29.07697c0,16.05876 -13.01818,29.07697 -29.07697,29.07697c-16.05876,0 -29.07697,-13.01821 -29.07697,-29.07697c0,-16.05876 13.01821,-29.07697 29.07697,-29.07697z" data-paper-data="{&quot;index&quot;:null}" fill="url(#color-7)"/><path d="M103.98665,261.80623v-168.81313h278.70092v168.81313z" fill="none"/></g></g></svg>