<svg version="1.1" xmlns="http://www.w3.org/2000/svg" xmlns:xlink="http://www.w3.org/1999/xlink" width="57.33501" height="49.16619" viewBox="0,0,57.33501,49.16619"><defs><linearGradient x1="6324.44014" y1="-2002.71652" x2="6324.44014" y2="1193.08621" gradientUnits="userSpaceOnUse" id="color-1"><stop offset="0" stop-color="#000000"/><stop offset="1" stop-color="#000000" stop-opacity="0"/></linearGradient></defs><g transform="translate(-211.33249,-155.41691)"><g data-paper-data="{&quot;isPaintingLayer&quot;:true}" fill-rule="nonzero" stroke-linejoin="miter" stroke-miterlimit="10" stroke-dasharray="" stroke-dashoffset="0" style="mix-blend-mode: normal"><path d="M211.33249,189.63841c0,-8.11341 0,-17.38746 0,-21.90696c0,-5.20237 5.60589,-12.31455 13.00726,-12.31455c37.85701,0 -47.8093,0 27.83529,0c10.53576,0 16.49246,7.18927 16.49246,15.30186c0,7.20901 0,15.14712 0,19.41754c0,5.85462 -5.20935,14.44679 -14.50091,14.44679c-71.86173,0 9.45386,0 -29.32895,0c-7.66276,0 -13.50514,-6.90211 -13.50514,-14.94468z" fill="url(#color-1)" stroke="none" stroke-width="0" stroke-linecap="butt"/><path d="M249.02476,193.60692c0,0 -0.51566,-6.63864 -2.72521,-10.24635c-1.59937,-2.61142 -5.66422,-3.70105 -5.64129,-3.38791c0.10469,1.42986 0.21756,4.34987 -0.08073,4.5894c-0.19714,0.1583 -13.31291,-9.64984 -13.15726,-10.58627c0.11142,-0.67035 13.67809,-7.9379 13.67736,-7.56915c-0.00201,1.02029 -0.08952,4.71064 0.14463,5.07435c0.30289,0.47047 9.231,2.03736 10.74747,8.91666c2.31634,10.50785 -2.91923,13.16844 -2.91923,13.16844" fill="none" stroke="#f1f1f1" stroke-width="2.5" stroke-linecap="round"/></g></g></svg>