<svg version="1.1" xmlns="http://www.w3.org/2000/svg" xmlns:xlink="http://www.w3.org/1999/xlink" width="456.38709" height="149.20322" viewBox="0,0,456.38709,149.20322"><defs><linearGradient x1="240.40495" y1="181.5454" x2="240.40495" y2="65.98748" gradientUnits="userSpaceOnUse" id="color-1"><stop offset="0" stop-color="#cdd4d4"/><stop offset="1" stop-color="#ccd5d5"/></linearGradient><linearGradient x1="55.15743" y1="181.5454" x2="55.15743" y2="65.98748" gradientUnits="userSpaceOnUse" id="color-2"><stop offset="0" stop-color="#d5dbdb"/><stop offset="1" stop-color="#d6dfdf"/></linearGradient><linearGradient x1="79.90245" y1="181.5454" x2="79.90245" y2="65.98748" gradientUnits="userSpaceOnUse" id="color-3"><stop offset="0" stop-color="#d5dbdb"/><stop offset="1" stop-color="#d6dfdf"/></linearGradient><linearGradient x1="104.90743" y1="180.73161" x2="104.90743" y2="65.17369" gradientUnits="userSpaceOnUse" id="color-4"><stop offset="0" stop-color="#d5dbdb"/><stop offset="1" stop-color="#d6dfdf"/></linearGradient><linearGradient x1="129.65245" y1="181.5454" x2="129.65245" y2="65.98748" gradientUnits="userSpaceOnUse" id="color-5"><stop offset="0" stop-color="#d5dbdb"/><stop offset="1" stop-color="#d6dfdf"/></linearGradient><linearGradient x1="153.65744" y1="181.5454" x2="153.65744" y2="65.98748" gradientUnits="userSpaceOnUse" id="color-6"><stop offset="0" stop-color="#d5dbdb"/><stop offset="1" stop-color="#d6dfdf"/></linearGradient><linearGradient x1="178.65245" y1="181.5454" x2="178.65245" y2="65.98748" gradientUnits="userSpaceOnUse" id="color-7"><stop offset="0" stop-color="#d5dbdb"/><stop offset="1" stop-color="#d6dfdf"/></linearGradient><linearGradient x1="203.65744" y1="180.73161" x2="203.65744" y2="65.17369" gradientUnits="userSpaceOnUse" id="color-8"><stop offset="0" stop-color="#d5dbdb"/><stop offset="1" stop-color="#d6dfdf"/></linearGradient><linearGradient x1="227.90245" y1="181.5454" x2="227.90245" y2="65.98748" gradientUnits="userSpaceOnUse" id="color-9"><stop offset="0" stop-color="#d5dbdb"/><stop offset="1" stop-color="#d6dfdf"/></linearGradient><linearGradient x1="251.90744" y1="181.5454" x2="251.90744" y2="65.98748" gradientUnits="userSpaceOnUse" id="color-10"><stop offset="0" stop-color="#d5dbdb"/><stop offset="1" stop-color="#d6dfdf"/></linearGradient><linearGradient x1="275.90245" y1="181.5454" x2="275.90245" y2="65.98748" gradientUnits="userSpaceOnUse" id="color-11"><stop offset="0" stop-color="#d5dbdb"/><stop offset="1" stop-color="#d6dfdf"/></linearGradient><linearGradient x1="300.40744" y1="180.73161" x2="300.40744" y2="65.17369" gradientUnits="userSpaceOnUse" id="color-12"><stop offset="0" stop-color="#d5dbdb"/><stop offset="1" stop-color="#d6dfdf"/></linearGradient><linearGradient x1="324.90245" y1="181.5454" x2="324.90245" y2="65.98748" gradientUnits="userSpaceOnUse" id="color-13"><stop offset="0" stop-color="#d5dbdb"/><stop offset="1" stop-color="#d6dfdf"/></linearGradient><linearGradient x1="349.90744" y1="181.5454" x2="349.90744" y2="65.98748" gradientUnits="userSpaceOnUse" id="color-14"><stop offset="0" stop-color="#d5dbdb"/><stop offset="1" stop-color="#d6dfdf"/></linearGradient><linearGradient x1="374.65246" y1="181.5454" x2="374.65246" y2="65.98748" gradientUnits="userSpaceOnUse" id="color-15"><stop offset="0" stop-color="#d5dbdb"/><stop offset="1" stop-color="#d6dfdf"/></linearGradient><linearGradient x1="400.65744" y1="180.73161" x2="400.65744" y2="65.17369" gradientUnits="userSpaceOnUse" id="color-16"><stop offset="0" stop-color="#d5dbdb"/><stop offset="1" stop-color="#d6dfdf"/></linearGradient><linearGradient x1="424.90246" y1="181.5454" x2="424.90246" y2="65.98748" gradientUnits="userSpaceOnUse" id="color-17"><stop offset="0" stop-color="#d5dbdb"/><stop offset="1" stop-color="#d6dfdf"/></linearGradient></defs><g transform="translate(-11.78424,-47.82035)"><g data-paper-data="{&quot;isPaintingLayer&quot;:true}" fill-rule="nonzero" stroke-linecap="butt" stroke-linejoin="miter" stroke-miterlimit="10" stroke-dasharray="" stroke-dashoffset="0" style="mix-blend-mode: normal"><path d="M432.86361,65.98748l16.03318,115.55792h-416.98371l16.72352,-115.55792z" data-paper-data="{&quot;index&quot;:null}" fill="#cdd4d4" stroke="#b9bebe" stroke-width="7.5"/><path d="M433.55395,66.67781l15.34285,114.86759h-416.98371l16.03318,-115.55792z" data-paper-data="{&quot;index&quot;:null}" fill="url(#color-1)" stroke="#a9afaf" stroke-width="0"/><path d="M65.89126,65.98748l-8.5,115.55792h-12.96766l9.5,-115.55792z" data-paper-data="{&quot;index&quot;:null}" fill="url(#color-2)" stroke="none" stroke-width="0"/><path d="M89.88628,65.98748l-7,115.55792h-12.96766l8,-115.55792z" data-paper-data="{&quot;index&quot;:null}" fill="url(#color-3)" stroke="none" stroke-width="0"/><path d="M113.89126,65.17369l-5,115.55792h-12.96766l6,-115.55792z" data-paper-data="{&quot;index&quot;:null}" fill="url(#color-4)" stroke="none" stroke-width="0"/><path d="M137.88628,65.98748l-4.5,115.55792h-11.96766l4.5,-115.55792z" data-paper-data="{&quot;index&quot;:null}" fill="url(#color-5)" stroke="none" stroke-width="0"/><path d="M161.39127,65.98748l-3.5,115.55792h-11.96767l3.5,-115.55792z" data-paper-data="{&quot;index&quot;:null}" fill="url(#color-6)" stroke="none" stroke-width="0"/><path d="M185.38628,65.98748l-1.5,115.55792h-11.96766l1.5,-115.55792z" data-paper-data="{&quot;index&quot;:null}" fill="url(#color-7)" stroke="none" stroke-width="0"/><path d="M209.89127,65.17369l-0.5,115.55792h-11.96767l0.5,-115.55792z" data-paper-data="{&quot;index&quot;:null}" fill="url(#color-8)" stroke="none" stroke-width="0"/><path d="M233.88628,65.98748v115.55792h-11.96766v-115.55792z" data-paper-data="{&quot;index&quot;:null}" fill="url(#color-9)" stroke="none" stroke-width="0"/><path d="M257.89126,65.98748v115.55792h-11.96767v-115.55792z" data-paper-data="{&quot;index&quot;:null}" fill="url(#color-10)" stroke="none" stroke-width="0"/><path d="M281.88629,65.98748v115.55792h-11.96767v-115.55792z" data-paper-data="{&quot;index&quot;:null}" fill="url(#color-11)" stroke="none" stroke-width="0"/><path d="M305.89126,65.17369l1,115.55792h-11.96767l-1,-115.55792z" data-paper-data="{&quot;index&quot;:null}" fill="url(#color-12)" stroke="none" stroke-width="0"/><path d="M329.88629,65.98748l2,115.55792h-11.96767l-2,-115.55792z" data-paper-data="{&quot;index&quot;:null}" fill="url(#color-13)" stroke="none" stroke-width="0"/><path d="M353.39127,65.98748l5,115.55792h-12.46767l-4.5,-115.55792z" data-paper-data="{&quot;index&quot;:null}" fill="url(#color-14)" stroke="none" stroke-width="0"/><path d="M377.38629,65.98748l6.5,115.55792h-12.46767l-6,-115.55792z" data-paper-data="{&quot;index&quot;:null}" fill="url(#color-15)" stroke="none" stroke-width="0"/><path d="M401.89127,65.17369l9.5,115.55792h-12.96767l-8.5,-115.55792z" data-paper-data="{&quot;index&quot;:null}" fill="url(#color-16)" stroke="none" stroke-width="0"/><path d="M425.38629,65.98748l11,115.55792h-12.96767l-10,-115.55792z" data-paper-data="{&quot;index&quot;:null}" fill="url(#color-17)" stroke="none" stroke-width="0"/><path d="M11.78425,197.02358v-149.20322h456.38709v149.20322z" fill="none" stroke="none" stroke-width="0"/></g></g></svg>