<svg version="1.1" xmlns="http://www.w3.org/2000/svg" xmlns:xlink="http://www.w3.org/1999/xlink" width="472.87786" height="360.53869" viewBox="0,0,472.87786,360.53869"><defs><linearGradient x1="240.6931" y1="151.59298" x2="240.6931" y2="141.42645" gradientUnits="userSpaceOnUse" id="color-1"><stop offset="0" stop-color="#d1d2d4"/><stop offset="1" stop-color="#a4a4a6"/></linearGradient><linearGradient x1="242.83342" y1="205.99286" x2="242.83342" y2="216.15939" gradientUnits="userSpaceOnUse" id="color-2"><stop offset="0" stop-color="#d1d2d4"/><stop offset="1" stop-color="#a4a4a6"/></linearGradient><linearGradient x1="235.27226" y1="179.36958" x2="355.6311" y2="179.36958" gradientUnits="userSpaceOnUse" id="color-3"><stop offset="0" stop-color="#e62b27"/><stop offset="1" stop-color="#f04e4b"/></linearGradient><linearGradient x1="148.75566" y1="179.34273" x2="332.34974" y2="179.34273" gradientUnits="userSpaceOnUse" id="color-4"><stop offset="0" stop-color="#f82e2a"/><stop offset="1" stop-color="#d42824"/></linearGradient><linearGradient x1="131.40145" y1="218.21289" x2="166.16803" y2="218.21289" gradientUnits="userSpaceOnUse" id="color-5"><stop offset="0" stop-color="#58585b"/><stop offset="1" stop-color="#212121"/></linearGradient><linearGradient x1="131.41871" y1="141.78715" x2="166.1853" y2="141.78715" gradientUnits="userSpaceOnUse" id="color-6"><stop offset="0" stop-color="#58585b"/><stop offset="1" stop-color="#212121"/></linearGradient><linearGradient x1="284.77522" y1="142.51119" x2="319.5418" y2="142.51119" gradientUnits="userSpaceOnUse" id="color-7"><stop offset="0" stop-color="#58585b"/><stop offset="1" stop-color="#212121"/></linearGradient><linearGradient x1="284.5258" y1="216.22132" x2="319.29239" y2="216.22132" gradientUnits="userSpaceOnUse" id="color-8"><stop offset="0" stop-color="#58585b"/><stop offset="1" stop-color="#212121"/></linearGradient><linearGradient x1="148.11475" y1="204.53189" x2="242.45209" y2="204.53189" gradientUnits="userSpaceOnUse" id="color-9"><stop offset="0" stop-color="#f82e2a"/><stop offset="1" stop-color="#c82623"/></linearGradient><linearGradient x1="178.3835" y1="149.78375" x2="179.48559" y2="155.34108" gradientUnits="userSpaceOnUse" id="color-10"><stop offset="0" stop-color="#90201e"/><stop offset="1" stop-color="#90201e" stop-opacity="0"/></linearGradient><linearGradient x1="278.81353" y1="192.45283" x2="278.53054" y2="188.09438" gradientUnits="userSpaceOnUse" id="color-11"><stop offset="0" stop-color="#90201e"/><stop offset="1" stop-color="#90201e" stop-opacity="0"/></linearGradient><linearGradient x1="279.20696" y1="166.76984" x2="278.92399" y2="171.12829" gradientUnits="userSpaceOnUse" id="color-12"><stop offset="0" stop-color="#90201e"/><stop offset="1" stop-color="#90201e" stop-opacity="0"/></linearGradient><linearGradient x1="178.3835" y1="209.03666" x2="179.48559" y2="203.47934" gradientUnits="userSpaceOnUse" id="color-13"><stop offset="0" stop-color="#90201e"/><stop offset="1" stop-color="#90201e" stop-opacity="0"/></linearGradient></defs><g transform="translate(-4.42566,-1.09609)"><g data-paper-data="{&quot;isPaintingLayer&quot;:true}" fill-rule="nonzero" stroke-linejoin="miter" stroke-miterlimit="10" stroke-dasharray="" stroke-dashoffset="0" style="mix-blend-mode: normal"><path d="M167.89843,216.60946l0.25734,-10.01972h47.99397v6.61496c0,0 -1.67553,1.68754 -5.61103,2.17735c-5.13189,0.63871 -13.28438,1.06773 -20.54898,1.5917c-8.36355,0.60324 -15.71774,1.26902 -18.69842,1.47935c-2.73217,0.19279 -3.39287,-1.84365 -3.39287,-1.84365z" data-paper-data="{&quot;index&quot;:null}" fill="#404042" stroke="none" stroke-width="0" stroke-linecap="butt"/><path d="M171.2913,140.60931c2.98069,0.21033 10.33487,0.87611 18.69843,1.47935c7.2646,0.52398 15.4171,0.95299 20.54899,1.5917c3.9355,0.48981 5.61102,2.17735 5.61102,2.17735v6.61496h-47.99397l-0.25734,-10.01972c0,0 0.66071,-2.03644 3.39287,-1.84365z" data-paper-data="{&quot;index&quot;:null}" fill="#404042" stroke="none" stroke-width="0" stroke-linecap="butt"/><path d="M253.30037,159.79487c4.29068,1.96361 15.89664,6.30156 15.89664,6.30156l-8.14426,-0.34392c0,0 -5.82235,-2.34536 -9.03861,-4.10254c-2.85909,-1.56203 -11.02616,-7.20833 -11.02616,-7.20833l1.93734,-1.93909c0,0 6.52769,5.53159 10.37505,7.29232z" data-paper-data="{&quot;index&quot;:null}" fill="#343031" stroke="none" stroke-width="0" stroke-linecap="butt"/><path d="M252.86619,141.42645v10.16653h-24.34618v-10.16653z" data-paper-data="{&quot;index&quot;:null}" fill="url(#color-1)" stroke="none" stroke-width="0" stroke-linecap="butt"/><path d="M230.66034,216.15939v-10.16654h24.34617v10.16654z" fill="url(#color-2)" stroke="none" stroke-width="0" stroke-linecap="butt"/><path d="M243.78146,204.40822l-1.93733,-0.86893c0,0 6.4548,-4.3621 9.31389,-5.92413c3.21627,-1.75716 9.03861,-4.10254 9.03861,-4.10254l8.14426,-0.34392c0,0 -11.60597,4.33796 -15.89664,6.30156c-3.84736,1.76073 -8.66278,4.93796 -8.66278,4.93796z" fill="#343031" stroke="none" stroke-width="0" stroke-linecap="butt"/><path d="M232.772,146.48426c0,0 3.92454,1.79547 5.47519,2.46284c2.22581,0.95794 8.13115,2.88796 8.13115,2.88796c0,0 -4.50787,2.03753 -6.11175,3.33097c-1.55408,1.25329 -2.90818,4.77168 -2.90818,4.77168z" data-paper-data="{&quot;index&quot;:null}" fill="#c5161d" stroke="none" stroke-width="0" stroke-linecap="butt"/><path d="M239.49872,197.85204c0,0 1.35411,3.51839 2.90819,4.77168c1.60387,1.29344 6.11175,3.33097 6.11175,3.33097c0,0 -5.90535,1.93003 -8.13116,2.88797c-1.55065,0.66736 -5.47518,2.46284 -5.47518,2.46284z" fill="#c5161d" stroke="none" stroke-width="0" stroke-linecap="butt"/><path d="M239.95505,161.17629c0,0 -6.75977,1.74169 -12.2862,2.89476c-4.5596,0.95134 -9.61494,1.33118 -12.88036,1.50165c-7.46562,0.38977 -26.83455,-1.47042 -41.55884,-2.57715c-15.79002,-1.18683 -27.25517,-2.17592 -27.25517,-2.17592l-0.35677,-5.34807c0,0 19.98161,-2.76136 40.23478,-7.29694c7.35527,-1.64717 29.66217,-7.01473 41.27991,-3.38116c11.78097,3.68463 12.82265,16.38282 12.82265,16.38282z" data-paper-data="{&quot;index&quot;:null}" fill="#c82623" stroke="none" stroke-width="0" stroke-linecap="butt"/><path d="M283.65891,199.15187v-39.05454h24.96638v39.05454z" fill="#404042" stroke="none" stroke-width="0" stroke-linecap="butt"/><path d="M284.82707,170.21918l12.0998,-16.87073l2.73789,1.80035l-12.45646,15.4441z" data-paper-data="{&quot;index&quot;:null}" fill="#323033" stroke="none" stroke-width="0" stroke-linecap="butt"/><path d="M297.52392,206.07994l-12.45646,-15.44409l2.73789,-1.80036l8.88983,11.87747z" fill="#323033" stroke="none" stroke-width="0" stroke-linecap="butt"/><path d="M303.88898,189.23513v16.16004h-7.21192v-16.02648z" data-paper-data="{&quot;index&quot;:null}" fill="#4d4e50" stroke="none" stroke-width="0" stroke-linecap="butt"/><path d="M304.00277,189.29647v16.16004l-3.67511,-0.07636l-0.07602,-16.0142z" data-paper-data="{&quot;index&quot;:null}" fill="#404042" stroke="none" stroke-width="0" stroke-linecap="butt"/><path d="M296.76624,168.93746v-16.02648h7.21192v16.16004z" data-paper-data="{&quot;index&quot;:null}" fill="#4d4e50" stroke="none" stroke-width="0" stroke-linecap="butt"/><path d="M300.3408,168.9402l0.07603,-16.01419l3.67512,-0.07638v16.16004z" data-paper-data="{&quot;index&quot;:null}" fill="#404042" stroke="none" stroke-width="0" stroke-linecap="butt"/><path d="M235.27227,194.13532l3.47717,-33.52236c0,0 5.9953,2.78541 19.71454,4.51285c8.99286,1.13232 27.65197,2.28595 45.71333,3.79555c14.61829,1.22183 28.84501,2.50472 37.23819,3.10214c4.7485,0.338 7.79671,0.53652 7.79671,0.53652c0,0 2.41379,0.55432 4.02182,1.72462c1.60139,1.16546 2.39706,3.12308 2.39706,4.1594c0,0.8277 -0.1097,3.91717 -1.24628,5.11254c-1.87852,1.97569 -5.1726,2.91121 -5.1726,2.91121c0,0 -1.72478,-0.01897 -4.73917,0.25831c-2.31963,0.21337 -5.58124,0.31821 -9.22987,0.65232c-22.69533,2.07819 -67.08614,5.94817 -85.80205,7.41862c-0.2545,0.02 -6.53988,3.38132 -7.81787,3.32858c-0.63261,-0.0261 4.00081,-3.44681 3.2414,-3.48295c-4.15454,-0.19776 -9.59239,-0.50732 -9.59239,-0.50732z" fill="url(#color-3)" stroke="none" stroke-width="0" stroke-linecap="butt"/><path d="M148.75566,198.24276l0.17833,-37.80007c0,0 13.06174,0.00581 31.08621,0.90652c12.51368,0.62534 28.52773,0.42747 39.6207,2.79544c2.5797,0.55068 6.85307,-0.1291 10.97701,-1.49756c4.55687,-1.51213 8.93131,-2.63771 10.63671,-1.43458c0.20437,0.14417 3.61461,3.42865 3.60883,4.76288c-0.02179,5.04248 -5.35193,11.74056 -5.35193,12.65413c0,1.72825 11.14025,17.17866 1.94836,19.54286c0,0 -7.44663,-1.46664 -15.91523,-2.74612c-7.79669,-1.17797 -16.45962,-0.41379 -20.97528,0.01751c-13.91659,1.32921 -55.8137,2.79899 -55.8137,2.79899z" fill="url(#color-4)" stroke="none" stroke-width="0" stroke-linecap="butt"/><path d="M145.39805,150.70932v16.16004h-7.21192v-16.02648z" data-paper-data="{&quot;index&quot;:null}" fill="#4d4e50" stroke="none" stroke-width="0" stroke-linecap="butt"/><path d="M145.51184,150.77066v16.16004l-3.67511,-0.07637l-0.07603,-16.0142z" data-paper-data="{&quot;index&quot;:null}" fill="#404042" stroke="none" stroke-width="0" stroke-linecap="butt"/><path d="M131.40145,226.09258c0,-4.32581 0,-12.64088 0,-15.22515c0,-2.51972 2.55533,-3.2053 5.07505,-3.2053c4.33488,0 18.82531,0 25.77592,0c1.95291,0 3.91562,0.45106 3.91562,2.40397c0,2.23703 -0.06384,10.31826 -0.10324,15.0933c-0.01836,2.22475 -1.45398,3.60425 -3.67881,3.60425c-4.20345,0 -21.36829,0 -28.17989,0c-1.74017,0 -2.80464,-2.67108 -2.80464,-2.67108z" fill="url(#color-5)" stroke="none" stroke-width="0" stroke-linecap="butt"/><path d="M148.56232,185.36685l0.17798,-9.61071l9.52691,1.57869l-0.11745,6.48071z" fill="#f42e2f" stroke="none" stroke-width="0" stroke-linecap="butt"/><path d="M222.67425,179.1925c0,0 0.36853,8.66031 -0.52091,11.11514c-0.89415,2.46785 -5.04393,2.5774 -5.04393,2.5774l-68.42805,-10.97523l-0.00098,-2.2446z" data-paper-data="{&quot;index&quot;:null}" fill="#bf161d" stroke="none" stroke-width="0" stroke-linecap="butt"/><path d="M148.604,180.36082l0.09144,-1.80256l68.62801,-11.99919c0,0 4.14978,0.10956 5.04393,2.5774c0.88943,2.45482 0.52036,10.26951 0.52036,10.26951z" fill="#db363d" stroke="none" stroke-width="0" stroke-linecap="butt"/><path d="M222.16593,179.47032c0,1.62535 -2.27585,2.94294 -5.08327,2.94294c-2.80742,0 -5.08327,-1.31759 -5.08327,-2.94294c0,-1.62535 2.27585,-2.94295 5.08327,-2.94295c2.80742,0 5.08327,1.3176 5.08327,2.94295z" fill="#332e32" stroke="none" stroke-width="0" stroke-linecap="butt"/><path d="M222.60841,188.24254v-18.28651h6.22119c0,0 9.43422,0.2238 15.895,2.67137c4.11434,1.55866 6.16192,3.55519 6.16192,4.68094c0,1.75931 0.50517,2.88159 -0.19079,4.4974c-0.71101,1.65078 -2.94513,3.10439 -5.1376,3.96314c-6.51872,2.55326 -16.72853,2.47367 -16.72853,2.47367z" fill="#332e32" stroke="#ef2f2a" stroke-width="0" stroke-linecap="butt"/><path d="M150.23669,153.07867l-25.473,-0.14996" fill="none" stroke="#ef2f2a" stroke-width="1.5" stroke-linecap="round"/><path d="M124.3689,206.93983l25.04178,0.21403" fill="none" stroke="#ef2f2a" stroke-width="1.5" stroke-linecap="round"/><path d="M125.62748,206.29774v-52.65195h22.04035v52.83028c0,0 -10.33818,-0.17833 -14.38316,-0.17833c-2.95137,0 -7.65719,0 -7.65719,0z" fill="#332e32" stroke="#ef2f2a" stroke-width="0" stroke-linecap="butt"/><path d="M148.27229,154.18171l-0.30519,51.79157" fill="none" stroke="#871c18" stroke-width="1.5" stroke-linecap="round"/><path d="M328.53174,171.24798l4.98332,-7.40032v-16.24153h16.70107v25.4216c0,0 -7.12187,-0.88988 -10.18695,-0.88988c-0.91204,0 -2.99237,-0.17759 -5.1364,-0.38793c-3.11336,-0.30543 -6.36106,-0.50194 -6.36106,-0.50194z" fill="#404042" stroke="#ef2f2a" stroke-width="0" stroke-linecap="butt"/><path d="M334.72634,187.33831c2.14403,-0.21034 4.22437,-0.38793 5.13641,-0.38793c3.06508,0 10.18694,-0.88988 10.18694,-0.88988v25.42161h-16.70107v-16.24153l-4.98334,-7.40032c0,0 3.2477,-0.19651 6.36106,-0.50194z" data-paper-data="{&quot;index&quot;:null}" fill="#404042" stroke="#ef2f2a" stroke-width="0" stroke-linecap="butt"/><path d="M321.75988,146.50784c0,0 10.79788,-0.09975 16.03918,-0.14817c1.7464,-0.01612 1.85329,-4.31448 4.13517,-4.33557c0.42099,-0.00389 1.71159,-0.42172 2.96654,0.06046c1.00921,0.38776 1.97016,1.65978 2.62871,1.89888c1.69044,0.61374 2.36907,0.50879 3.23053,0.8949c2.65065,1.18805 1.86521,1.34437 1.86521,1.34437c0,0 0.56743,1.14651 -1.57819,1.41801c-3.26193,0.41275 -10.45767,0.01823 -17.02655,0.07892c-2.5897,0.02393 -7.87442,3.2431 -9.31883,2.81203c-4.62941,-1.38163 -2.94176,-4.02382 -2.94176,-4.02382z" fill="#ef2c34" stroke="none" stroke-width="0" stroke-linecap="butt"/><path d="M324.90229,208.65626c1.44441,-0.43108 6.72915,2.78809 9.31883,2.81202c6.56889,0.06068 13.76462,-0.33383 17.02654,0.07892c2.14564,0.2715 1.57821,1.41801 1.57821,1.41801c0,0 0.78545,0.15631 -1.86521,1.34437c-0.86146,0.38611 -1.54009,0.28117 -3.23053,0.89491c-0.65857,0.23909 -1.61951,1.51112 -2.62871,1.89888c-1.25493,0.48218 -2.54556,0.06435 -2.96654,0.06045c-2.28188,-0.02108 -2.38876,-4.31944 -4.13516,-4.33557c-5.2413,-0.04842 -16.03919,-0.14817 -16.03919,-0.14817c0,0 -1.68764,-2.64217 2.94177,-4.02381z" data-paper-data="{&quot;index&quot;:null}" fill="#ef2c34" stroke="none" stroke-width="0" stroke-linecap="butt"/><path d="M131.41871,149.66683c0,-4.32581 0,-12.64089 0,-15.22516c0,-2.51972 2.55532,-3.2053 5.07504,-3.2053c4.33488,0 18.82531,0 25.77593,0c1.95291,0 3.91562,0.45106 3.91562,2.40397c0,2.23703 -0.06384,10.31826 -0.10324,15.0933c-0.01836,2.22475 -1.45398,3.60426 -3.67881,3.60426c-4.20345,0 -21.36829,0 -28.17989,0c-1.74017,0 -2.80463,-2.67108 -2.80463,-2.67108z" fill="url(#color-6)" stroke="none" stroke-width="0" stroke-linecap="butt"/><path d="M284.77522,150.39086c0,-4.32581 0,-12.64088 0,-15.22515c0,-2.51972 2.5553,-3.2053 5.07504,-3.2053c4.33488,0 18.82531,0 25.77593,0c1.95292,0 3.91562,0.45107 3.91562,2.40398c0,2.23703 -0.06385,10.31826 -0.10324,15.0933c-0.01837,2.22475 -1.45398,3.60425 -3.67881,3.60425c-4.20346,0 -21.3683,0 -28.17989,0c-1.74017,0 -2.80464,-2.67109 -2.80464,-2.67109z" fill="url(#color-7)" stroke="none" stroke-width="0" stroke-linecap="butt"/><path d="M284.5258,224.10102c0,-4.32581 0,-12.64088 0,-15.22515c0,-2.51972 2.55532,-3.2053 5.07505,-3.2053c4.33488,0 18.82531,0 25.77592,0c1.95292,0 3.91562,0.45106 3.91562,2.40397c0,2.23703 -0.06384,10.31826 -0.10324,15.0933c-0.01837,2.22475 -1.45398,3.60425 -3.67882,3.60425c-4.20346,0 -21.36829,0 -28.17989,0c-1.74017,0 -2.80464,-2.67108 -2.80464,-2.67108z" fill="url(#color-8)" stroke="none" stroke-width="0" stroke-linecap="butt"/><path d="M229.62945,214.32944c-11.61774,3.63358 -33.92464,-1.73399 -41.27991,-3.38116c-20.25317,-4.53558 -40.23478,-7.29693 -40.23478,-7.29693l0.35677,-5.34806c0,0 11.46515,-0.98909 27.25517,-2.17592c14.72429,-1.10673 34.09322,-2.96693 41.55884,-2.57715c3.26541,0.17048 8.32076,0.55031 12.88036,1.50165c5.52643,1.15306 12.2862,2.89476 12.2862,2.89476c0,0 -1.04169,12.69821 -12.82265,16.38282z" data-paper-data="{&quot;index&quot;:null}" fill="url(#color-9)" stroke="none" stroke-width="0" stroke-linecap="butt"/><path d="M149.36534,161.12712l-0.15784,-6.02947l58.352,-11.09991c0,0 8.40516,-0.6956 11.7328,-0.58809c2.75311,0.08894 6.83811,1.18806 6.83811,1.18806c0,0 -66.09556,14.40925 -73.49515,16.02241c-1.31629,0.28697 -3.26992,0.50701 -3.26992,0.50701z" fill="url(#color-10)" stroke="none" stroke-width="0" stroke-linecap="butt"/><path d="M206.77977,149.36687c0.11835,0.804 -9.91424,4.44199 -23.72855,6.47552c-13.8143,2.03353 -26.17911,1.69255 -26.29747,0.88855c-0.11835,-0.804 12.05458,-1.76659 25.86888,-3.80013c2.71723,-0.39998 5.29556,-0.81162 7.68542,-1.20871c9.76013,-1.62174 16.37666,-3.00109 16.47173,-2.35523z" fill="#ff3f42" stroke="none" stroke-width="0" stroke-linecap="butt"/><path d="M190.30804,206.7459c-2.38986,-0.3971 -4.96819,-0.80873 -7.68542,-1.20872c-13.8143,-2.03353 -25.98723,-2.99611 -25.86888,-3.80011c0.11835,-0.804 12.48316,-1.14499 26.29747,0.88854c13.8143,2.03353 23.8469,5.67152 23.72856,6.47553c-0.09508,0.64586 -6.7116,-0.7335 -16.47173,-2.35523z" data-paper-data="{&quot;index&quot;:null}" fill="#ff3f42" stroke="none" stroke-width="0" stroke-linecap="butt"/><path d="M278.04182,190.36475c-0.04529,-0.58262 7.33131,-2.6981 17.34182,-3.47619c10.01051,-0.7781 18.86413,0.07583 18.90942,0.65846c0.04529,0.58262 -8.73492,0.67331 -18.74543,1.4514c-1.96904,0.15304 -3.839,0.32129 -5.57303,0.4884c-7.08177,0.68247 -11.8964,1.34596 -11.93277,0.87793z" data-paper-data="{&quot;index&quot;:null}" fill="#ff3f42" stroke="none" stroke-width="0" stroke-linecap="butt"/><path d="M347.5332,182.41516c0,0 7.15337,0.39189 7.19484,1.03068c0.05091,0.78404 -6.91186,3.32778 -6.91186,3.32778l-97.16606,7.34534c0,0 2.83021,-1.94329 6.13257,-3.3602c2.86149,-1.22776 6.07746,-1.94265 8.11385,-2.0966c24.64947,-1.86339 82.63666,-6.24698 82.63666,-6.24698z" data-paper-data="{&quot;index&quot;:null}" fill="url(#color-11)" stroke="none" stroke-width="0" stroke-linecap="butt"/><path d="M289.97461,169.41902c1.73404,0.16711 3.60399,0.33535 5.57303,0.4884c10.01051,0.7781 18.79072,0.86877 18.74543,1.4514c-0.04529,0.58262 -8.89891,1.43656 -18.90942,0.65846c-10.01051,-0.7781 -17.38711,-2.89358 -17.34182,-3.4762c0.03638,-0.46803 4.85102,0.19547 11.93277,0.87794z" data-paper-data="{&quot;index&quot;:null}" fill="#ff3f42" stroke="none" stroke-width="0" stroke-linecap="butt"/><path d="M225.33429,186.68543v-15.17226h5.1617c0,0 7.82755,0.18568 13.18803,2.21642c3.41366,1.29322 5.11252,2.94974 5.11252,3.88377c0,1.4597 0.41915,2.39085 -0.15829,3.73147c-0.58992,1.36964 -2.44357,2.57569 -4.26265,3.2882c-5.40857,2.11843 -13.87961,2.0524 -13.87961,2.0524z" fill="#332e32" stroke="#ef2f2a" stroke-width="0" stroke-linecap="butt"/><path d="M224.42566,186.68543v-15.17226h5.1617c0,0 7.82755,0.18568 13.18803,2.21642c3.41366,1.29322 5.11253,2.94974 5.11253,3.88377c0,1.4597 0.41914,2.39085 -0.15829,3.73147c-0.58992,1.36964 -2.44357,2.57569 -4.26265,3.2882c-5.40857,2.11843 -13.87961,2.0524 -13.87961,2.0524z" fill="#484046" stroke="#ef2f2a" stroke-width="0" stroke-linecap="butt"/><path d="M265.28998,170.56052c-2.03639,-0.15394 -5.25236,-0.86884 -8.11385,-2.0966c-3.30237,-1.41692 -6.13257,-3.83234 -6.13257,-3.83234l97.16606,7.81747c0,0 6.96277,2.54373 6.91186,3.32778c-0.04147,0.63879 -7.19485,1.03067 -7.19485,1.03067c0,0 -57.98719,-4.3836 -82.63665,-6.24698z" data-paper-data="{&quot;index&quot;:null}" fill="url(#color-12)" stroke="none" stroke-width="0" stroke-linecap="butt"/><path d="M152.63526,198.20033c7.3996,1.61316 73.49515,16.0224 73.49515,16.0224c0,0 -4.085,1.09911 -6.83811,1.18805c-3.32764,0.10751 -11.73281,-0.58809 -11.73281,-0.58809l-58.352,-11.09992l0.15784,-6.02946c0,0 1.95363,0.22004 3.26993,0.50701z" data-paper-data="{&quot;index&quot;:null}" fill="url(#color-13)" stroke="none" stroke-width="0" stroke-linecap="butt"/><path d="M4.42566,361.63478v-360.53868h472.87786v360.53869z" fill="none" stroke="none" stroke-width="0" stroke-linecap="butt"/></g></g></svg>