<svg version="1.1" xmlns="http://www.w3.org/2000/svg" xmlns:xlink="http://www.w3.org/1999/xlink" width="484.97563" height="360.53869" viewBox="0,0,484.97563,360.53869"><defs><radialGradient cx="239.44053" cy="180.1087" r="126.01881" gradientUnits="userSpaceOnUse" id="color-1"><stop offset="0" stop-color="#ffffff"/><stop offset="1" stop-color="#e6e6e6"/></radialGradient><linearGradient x1="186.55352" y1="231.462" x2="186.55352" y2="224.03009" gradientUnits="userSpaceOnUse" id="color-2"><stop offset="0" stop-color="#000000" stop-opacity="0.32941"/><stop offset="1" stop-color="#000000" stop-opacity="0"/></linearGradient><linearGradient x1="186.55352" y1="128.57534" x2="186.55352" y2="135.27989" gradientUnits="userSpaceOnUse" id="color-3"><stop offset="0" stop-color="#000000" stop-opacity="0.32941"/><stop offset="1" stop-color="#000000" stop-opacity="0"/></linearGradient><linearGradient x1="358.27131" y1="160.10197" x2="353.45546" y2="160.10197" gradientUnits="userSpaceOnUse" id="color-4"><stop offset="0" stop-color="#808080" stop-opacity="0"/><stop offset="1" stop-color="#808080"/></linearGradient><linearGradient x1="271.29702" y1="138.58486" x2="184.05927" y2="138.58486" gradientUnits="userSpaceOnUse" id="color-5"><stop offset="0" stop-color="#b4b4b4" stop-opacity="0"/><stop offset="1" stop-color="#b4b4b4"/></linearGradient><linearGradient x1="358.27131" y1="199.89808" x2="353.45546" y2="199.89808" gradientUnits="userSpaceOnUse" id="color-6"><stop offset="0" stop-color="#808080" stop-opacity="0"/><stop offset="1" stop-color="#808080"/></linearGradient><linearGradient x1="271.29702" y1="221.41515" x2="184.05927" y2="221.41515" gradientUnits="userSpaceOnUse" id="color-7"><stop offset="0" stop-color="#b4b4b4" stop-opacity="0"/><stop offset="1" stop-color="#b4b4b4"/></linearGradient><linearGradient x1="321.72919" y1="131.72701" x2="131.62524" y2="131.72701" gradientUnits="userSpaceOnUse" id="color-8"><stop offset="0" stop-color="#cbcbcb" stop-opacity="0"/><stop offset="1" stop-color="#cbcbcb"/></linearGradient><linearGradient x1="321.72919" y1="228.27302" x2="131.62524" y2="228.27302" gradientUnits="userSpaceOnUse" id="color-9"><stop offset="0" stop-color="#cbcbcb" stop-opacity="0"/><stop offset="1" stop-color="#cbcbcb"/></linearGradient><linearGradient x1="132.70881" y1="213.46424" x2="119.57478" y2="213.46424" gradientUnits="userSpaceOnUse" id="color-10"><stop offset="0" stop-color="#bfbfbf" stop-opacity="0"/><stop offset="1" stop-color="#bfbfbf"/></linearGradient><linearGradient x1="357.80898" y1="180.00001" x2="281.17914" y2="180.00001" gradientUnits="userSpaceOnUse" id="color-11"><stop offset="0" stop-color="#d9d9d9"/><stop offset="1" stop-color="#d9d9d9" stop-opacity="0"/></linearGradient><linearGradient x1="132.70881" y1="146.53577" x2="119.57478" y2="146.53577" gradientUnits="userSpaceOnUse" id="color-12"><stop offset="0" stop-color="#bfbfbf" stop-opacity="0"/><stop offset="1" stop-color="#bfbfbf"/></linearGradient><linearGradient x1="208.51587" y1="154.0385" x2="208.51587" y2="137.43135" gradientUnits="userSpaceOnUse" id="color-13"><stop offset="0" stop-color="#545454" stop-opacity="0"/><stop offset="1" stop-color="#545454"/></linearGradient><linearGradient x1="348.13737" y1="144.78756" x2="348.13737" y2="138.29838" gradientUnits="userSpaceOnUse" id="color-14"><stop offset="0" stop-color="#3f3f3f" stop-opacity="0"/><stop offset="1" stop-color="#3f3f3f"/></linearGradient><linearGradient x1="348.13737" y1="144.78756" x2="348.13737" y2="138.29838" gradientUnits="userSpaceOnUse" id="color-15"><stop offset="0" stop-color="#000000" stop-opacity="0"/><stop offset="1" stop-color="#000000"/></linearGradient><linearGradient x1="161.3479" y1="154.58531" x2="161.3479" y2="137.97054" gradientUnits="userSpaceOnUse" id="color-16"><stop offset="0" stop-color="#c2c2c2"/><stop offset="1" stop-color="#c2c2c2" stop-opacity="0"/></linearGradient><linearGradient x1="208.51587" y1="205.96149" x2="208.51587" y2="222.56865" gradientUnits="userSpaceOnUse" id="color-17"><stop offset="0" stop-color="#565656" stop-opacity="0"/><stop offset="1" stop-color="#565656"/></linearGradient><radialGradient cx="130.35628" cy="179.99997" r="25.58813" gradientUnits="userSpaceOnUse" id="color-18"><stop offset="0" stop-color="#d8d8d8" stop-opacity="0"/><stop offset="1" stop-color="#d8d8d8"/></radialGradient><linearGradient x1="161.3479" y1="205.41471" x2="161.3479" y2="222.02946" gradientUnits="userSpaceOnUse" id="color-19"><stop offset="0" stop-color="#c2c2c2"/><stop offset="1" stop-color="#c2c2c2" stop-opacity="0"/></linearGradient><linearGradient x1="308.08381" y1="229.20167" x2="308.08381" y2="216.89478" gradientUnits="userSpaceOnUse" id="color-20"><stop offset="0" stop-color="#bebebe"/><stop offset="1" stop-color="#bebebe" stop-opacity="0"/></linearGradient><linearGradient x1="308.08381" y1="130.79833" x2="308.08381" y2="143.10524" gradientUnits="userSpaceOnUse" id="color-21"><stop offset="0" stop-color="#cbcbcb"/><stop offset="1" stop-color="#cbcbcb" stop-opacity="0"/></linearGradient><linearGradient x1="195.25954" y1="220.67664" x2="183.83772" y2="220.67664" gradientUnits="userSpaceOnUse" id="color-22"><stop offset="0" stop-color="#4d4d4d" stop-opacity="0"/><stop offset="1" stop-color="#4d4d4d"/></linearGradient><linearGradient x1="195.25954" y1="139.32338" x2="183.83772" y2="139.32338" gradientUnits="userSpaceOnUse" id="color-23"><stop offset="0" stop-color="#4d4d4d" stop-opacity="0"/><stop offset="1" stop-color="#4d4d4d"/></linearGradient><linearGradient x1="348.13737" y1="215.21246" x2="348.13737" y2="221.70162" gradientUnits="userSpaceOnUse" id="color-24"><stop offset="0" stop-color="#3f3f3f" stop-opacity="0"/><stop offset="1" stop-color="#3f3f3f"/></linearGradient><linearGradient x1="348.13737" y1="215.21246" x2="348.13737" y2="221.70162" gradientUnits="userSpaceOnUse" id="color-25"><stop offset="0" stop-color="#000000" stop-opacity="0"/><stop offset="1" stop-color="#000000"/></linearGradient><linearGradient x1="248.44908" y1="224.22502" x2="248.44908" y2="230.0242" gradientUnits="userSpaceOnUse" id="color-26"><stop offset="0" stop-color="#0d0d0d"/><stop offset="1" stop-color="#333333"/></linearGradient><linearGradient x1="321.65695" y1="197.70149" x2="287.56072" y2="197.70149" gradientUnits="userSpaceOnUse" id="color-27"><stop offset="0" stop-color="#808080"/><stop offset="1" stop-color="#808080" stop-opacity="0"/></linearGradient><linearGradient x1="258.87212" y1="221.29296" x2="258.87212" y2="216.3808" gradientUnits="userSpaceOnUse" id="color-28"><stop offset="0" stop-color="#1b1b1b"/><stop offset="1" stop-color="#4c4c4c"/></linearGradient><linearGradient x1="225.42602" y1="221.14851" x2="225.42602" y2="210.90188" gradientUnits="userSpaceOnUse" id="color-29"><stop offset="0" stop-color="#1b1b1b"/><stop offset="1" stop-color="#4c4c4c"/></linearGradient><linearGradient x1="192.41333" y1="213.51464" x2="192.41333" y2="211.92539" gradientUnits="userSpaceOnUse" id="color-30"><stop offset="0" stop-color="#1b1b1b"/><stop offset="1" stop-color="#4c4c4c"/></linearGradient><linearGradient x1="118.68991" y1="179.99998" x2="115.64869" y2="179.99998" gradientUnits="userSpaceOnUse" id="color-31"><stop offset="0" stop-color="#4a4a4a"/><stop offset="1" stop-color="#4a4a4a" stop-opacity="0"/></linearGradient><linearGradient x1="363.59628" y1="146.47137" x2="347.49756" y2="146.47137" gradientUnits="userSpaceOnUse" id="color-32"><stop offset="0" stop-color="#b3b3b3" stop-opacity="0"/><stop offset="1" stop-color="#b3b3b3"/></linearGradient><linearGradient x1="248.44908" y1="135.77497" x2="248.44908" y2="129.97579" gradientUnits="userSpaceOnUse" id="color-33"><stop offset="0" stop-color="#0d0d0d"/><stop offset="1" stop-color="#333333"/></linearGradient><linearGradient x1="321.65696" y1="162.29844" x2="287.56072" y2="162.29844" gradientUnits="userSpaceOnUse" id="color-34"><stop offset="0" stop-color="#808080"/><stop offset="1" stop-color="#808080" stop-opacity="0"/></linearGradient><linearGradient x1="182.34249" y1="179.99998" x2="140.27832" y2="179.99998" gradientUnits="userSpaceOnUse" id="color-35"><stop offset="0" stop-color="#4c4c4c"/><stop offset="1" stop-color="#1b1b1b"/></linearGradient><linearGradient x1="286.77652" y1="179.99998" x2="240.45265" y2="179.99998" gradientUnits="userSpaceOnUse" id="color-36"><stop offset="0" stop-color="#1b1b1b"/><stop offset="1" stop-color="#4c4c4c"/></linearGradient><radialGradient cx="135.07265" cy="214.78947" r="13.75119" gradientUnits="userSpaceOnUse" id="color-37"><stop offset="0" stop-color="#1a1a1a"/><stop offset="1" stop-color="#0c0c0c"/></radialGradient><linearGradient x1="360.71316" y1="176.01151" x2="363.73486" y2="183.09909" gradientUnits="userSpaceOnUse" id="color-38"><stop offset="0" stop-color="#000032"/><stop offset="0.25" stop-color="#646464"/><stop offset="0.42382" stop-color="#000000"/><stop offset="1" stop-color="#787878"/></linearGradient><linearGradient x1="362.93496" y1="176.34113" x2="362.89409" y2="183.58879" gradientUnits="userSpaceOnUse" id="color-39"><stop offset="0" stop-color="#999999"/><stop offset="0.22053" stop-color="#3c3c3c" stop-opacity="0.87451"/><stop offset="0.51585" stop-color="#969696"/><stop offset="0.75278" stop-color="#828282"/><stop offset="1" stop-color="#5a5a5a"/></linearGradient><linearGradient x1="363.35251" y1="181.10576" x2="362.17946" y2="181.09029" gradientUnits="userSpaceOnUse" id="color-40"><stop offset="0" stop-color="#000000"/><stop offset="1" stop-color="#000000" stop-opacity="0"/></linearGradient><linearGradient x1="359.76344" y1="178.62985" x2="363.66404" y2="183.82078" gradientUnits="userSpaceOnUse" id="color-41"><stop offset="0" stop-color="#5a5a5a"/><stop offset="0.26876" stop-color="#505050"/><stop offset="0.63202" stop-color="#666666"/><stop offset="0.66745" stop-color="#666666"/><stop offset="1" stop-color="#666666"/></linearGradient><linearGradient x1="359.76344" y1="178.62985" x2="363.66404" y2="183.82078" gradientUnits="userSpaceOnUse" id="color-42"><stop offset="0" stop-color="#5a5a5a"/><stop offset="0.26876" stop-color="#505050"/><stop offset="0.63202" stop-color="#666666"/><stop offset="0.66745" stop-color="#666666"/><stop offset="1" stop-color="#666666"/></linearGradient><linearGradient x1="360.15013" y1="176.62719" x2="361.65881" y2="181.94411" gradientUnits="userSpaceOnUse" id="color-43"><stop offset="0" stop-color="#323232" stop-opacity="0"/><stop offset="0.39399" stop-color="#323232" stop-opacity="0.94902"/><stop offset="0.46685" stop-color="#323232" stop-opacity="0.90196"/><stop offset="0.70407" stop-color="#e1e1e1" stop-opacity="0.49804"/><stop offset="1" stop-color="#c8c8c8" stop-opacity="0"/></linearGradient><linearGradient x1="362.75258" y1="181.06411" x2="362.17946" y2="181.09029" gradientUnits="userSpaceOnUse" id="color-44"><stop offset="0" stop-color="#000000"/><stop offset="1" stop-color="#000000" stop-opacity="0"/></linearGradient><linearGradient x1="360.47878" y1="176.40256" x2="360.9842" y2="177.13055" gradientUnits="userSpaceOnUse" id="color-45"><stop offset="0" stop-color="#28170b"/><stop offset="1" stop-color="#28170b" stop-opacity="0"/></linearGradient><linearGradient x1="362.38002" y1="178.21939" x2="361.67446" y2="177.88204" gradientUnits="userSpaceOnUse" id="color-46"><stop offset="0" stop-color="#b3b3b3" stop-opacity="0"/><stop offset="0.12143" stop-color="#b3b3b3" stop-opacity="0.36863"/><stop offset="0.28582" stop-color="#b3b3b3" stop-opacity="0.87451"/><stop offset="0.38395" stop-color="#b3b3b3" stop-opacity="0.74902"/><stop offset="0.51694" stop-color="#b3b3b3" stop-opacity="0.49804"/><stop offset="1" stop-color="#b3b3b3" stop-opacity="0"/></linearGradient><linearGradient x1="359.79716" y1="182.05634" x2="361.9023" y2="183.12849" gradientUnits="userSpaceOnUse" id="color-47"><stop offset="0" stop-color="#000000"/><stop offset="0.55201" stop-color="#7d7d7d"/><stop offset="0.6933" stop-color="#969696"/><stop offset="0.85754" stop-color="#8a8a8a"/><stop offset="1" stop-color="#505050"/></linearGradient><linearGradient x1="361.98438" y1="179.26143" x2="362.53044" y2="182.77703" gradientUnits="userSpaceOnUse" id="color-48"><stop offset="0" stop-color="#323232"/><stop offset="0.10555" stop-color="#b4b4b6"/><stop offset="0.25321" stop-color="#b4b4b4"/><stop offset="1" stop-color="#aaaaaa"/></linearGradient><linearGradient x1="359.38926" y1="176.88404" x2="361.01793" y2="178.43393" gradientUnits="userSpaceOnUse" id="color-49"><stop offset="0" stop-color="#8282a9"/><stop offset="1" stop-color="#a9a9a9" stop-opacity="0"/></linearGradient><linearGradient x1="359.40414" y1="180.21724" x2="363.83272" y2="180.18253" gradientUnits="userSpaceOnUse" id="color-50"><stop offset="0" stop-color="#aaaaaa"/><stop offset="0.10181" stop-color="#bebebe"/><stop offset="0.21153" stop-color="#bebebe"/><stop offset="0.54921" stop-color="#b4b4b4"/><stop offset="0.67351" stop-color="#878787"/><stop offset="0.77872" stop-color="#969696"/><stop offset="1" stop-color="#aaaaaa"/></linearGradient><linearGradient x1="362.35964" y1="179.52976" x2="359.90358" y2="183.12254" gradientUnits="userSpaceOnUse" id="color-51"><stop offset="0" stop-color="#969696"/><stop offset="0.13262" stop-color="#c0bebe"/><stop offset="0.5" stop-color="#b4b4b4"/><stop offset="1" stop-color="#bebebe"/></linearGradient><radialGradient cx="344.17761" cy="212.54025" r="12.5842" gradientUnits="userSpaceOnUse" id="color-52"><stop offset="0" stop-color="#333333"/><stop offset="1" stop-color="#0c0c0c"/></radialGradient><linearGradient x1="338.07298" y1="217.35036" x2="338.07298" y2="214.17291" gradientUnits="userSpaceOnUse" id="color-53"><stop offset="0" stop-color="#ccccca"/><stop offset="1" stop-color="#a0a0aa"/></linearGradient><linearGradient x1="337.87597" y1="220.06757" x2="337.87597" y2="217.3409" gradientUnits="userSpaceOnUse" id="color-54"><stop offset="0" stop-color="#a0a0aa"/><stop offset="1" stop-color="#ccccca"/></linearGradient><linearGradient x1="350.09306" y1="207.88225" x2="346.9921" y2="207.88225" gradientUnits="userSpaceOnUse" id="color-55"><stop offset="0" stop-color="#dfe1e5"/><stop offset="1" stop-color="#93979a"/></linearGradient><linearGradient x1="348.54258" y1="206.45335" x2="348.54258" y2="209.31107" gradientUnits="userSpaceOnUse" id="color-56"><stop offset="0" stop-color="#ffffff"/><stop offset="1" stop-color="#555050"/></linearGradient><linearGradient x1="346.42762" y1="210.45323" x2="343.32666" y2="210.45323" gradientUnits="userSpaceOnUse" id="color-57"><stop offset="0" stop-color="#dfe1e5"/><stop offset="1" stop-color="#93979a"/></linearGradient><linearGradient x1="344.87714" y1="209.02436" x2="344.87714" y2="211.88207" gradientUnits="userSpaceOnUse" id="color-58"><stop offset="0" stop-color="#ffffff"/><stop offset="1" stop-color="#555050"/></linearGradient><linearGradient x1="343.1878" y1="212.62963" x2="340.08686" y2="212.62963" gradientUnits="userSpaceOnUse" id="color-59"><stop offset="0" stop-color="#dfe1e5"/><stop offset="1" stop-color="#93979a"/></linearGradient><linearGradient x1="341.63732" y1="211.23184" x2="341.63732" y2="214.02746" gradientUnits="userSpaceOnUse" id="color-60"><stop offset="0" stop-color="#ffffff"/><stop offset="1" stop-color="#555050"/></linearGradient><linearGradient x1="347.87748" y1="217.10251" x2="341.35466" y2="217.10251" gradientUnits="userSpaceOnUse" id="color-61"><stop offset="0" stop-color="#a0a09e"/><stop offset="1" stop-color="#e5e5dc"/></linearGradient><radialGradient cx="344.51197" cy="217.03135" r="2.70842" gradientUnits="userSpaceOnUse" id="color-62"><stop offset="0" stop-color="#ededed"/><stop offset="1" stop-color="#999999"/></radialGradient><radialGradient cx="344.17761" cy="147.45974" r="12.5842" gradientUnits="userSpaceOnUse" id="color-63"><stop offset="0" stop-color="#333333"/><stop offset="1" stop-color="#0c0c0c"/></radialGradient><linearGradient x1="338.07298" y1="142.6496" x2="338.07298" y2="145.82703" gradientUnits="userSpaceOnUse" id="color-64"><stop offset="0" stop-color="#ccccca"/><stop offset="1" stop-color="#a0a0aa"/></linearGradient><linearGradient x1="337.87597" y1="139.93245" x2="337.87597" y2="142.65907" gradientUnits="userSpaceOnUse" id="color-65"><stop offset="0" stop-color="#a0a0aa"/><stop offset="1" stop-color="#ccccca"/></linearGradient><linearGradient x1="350.09306" y1="152.11774" x2="346.9921" y2="152.11774" gradientUnits="userSpaceOnUse" id="color-66"><stop offset="0" stop-color="#dfe1e5"/><stop offset="1" stop-color="#93979a"/></linearGradient><linearGradient x1="348.54258" y1="153.54659" x2="348.54258" y2="150.68889" gradientUnits="userSpaceOnUse" id="color-67"><stop offset="0" stop-color="#ffffff"/><stop offset="1" stop-color="#555050"/></linearGradient><linearGradient x1="346.42762" y1="149.54679" x2="343.32666" y2="149.54679" gradientUnits="userSpaceOnUse" id="color-68"><stop offset="0" stop-color="#dfe1e5"/><stop offset="1" stop-color="#93979a"/></linearGradient><linearGradient x1="344.87714" y1="150.97562" x2="344.87714" y2="148.11788" gradientUnits="userSpaceOnUse" id="color-69"><stop offset="0" stop-color="#ffffff"/><stop offset="1" stop-color="#555050"/></linearGradient><linearGradient x1="343.1878" y1="147.37034" x2="340.08686" y2="147.37034" gradientUnits="userSpaceOnUse" id="color-70"><stop offset="0" stop-color="#dfe1e5"/><stop offset="1" stop-color="#93979a"/></linearGradient><linearGradient x1="341.63732" y1="148.76814" x2="341.63732" y2="145.97256" gradientUnits="userSpaceOnUse" id="color-71"><stop offset="0" stop-color="#ffffff"/><stop offset="1" stop-color="#555050"/></linearGradient><linearGradient x1="347.87748" y1="142.89743" x2="341.35466" y2="142.89743" gradientUnits="userSpaceOnUse" id="color-72"><stop offset="0" stop-color="#a0a09e"/><stop offset="1" stop-color="#e5e5dc"/></linearGradient><radialGradient cx="344.51197" cy="142.96862" r="2.70842" gradientUnits="userSpaceOnUse" id="color-73"><stop offset="0" stop-color="#ededed"/><stop offset="1" stop-color="#999999"/></radialGradient><linearGradient x1="363.59628" y1="213.52864" x2="347.49756" y2="213.52864" gradientUnits="userSpaceOnUse" id="color-74"><stop offset="0" stop-color="#b3b3b3" stop-opacity="0"/><stop offset="1" stop-color="#b3b3b3"/></linearGradient><radialGradient cx="134.72963" cy="215.01529" r="11.99973" gradientUnits="userSpaceOnUse" id="color-75"><stop offset="0" stop-color="#ff0000"/><stop offset="1" stop-color="#660007"/></radialGradient><radialGradient cx="135.07265" cy="145.21055" r="13.75119" gradientUnits="userSpaceOnUse" id="color-76"><stop offset="0" stop-color="#1a1a1a"/><stop offset="1" stop-color="#0c0c0c"/></radialGradient><radialGradient cx="134.72963" cy="144.98473" r="11.99973" gradientUnits="userSpaceOnUse" id="color-77"><stop offset="0" stop-color="#ff0000"/><stop offset="1" stop-color="#660007"/></radialGradient><linearGradient x1="359.79504" y1="180.00002" x2="355.0182" y2="180.00002" gradientUnits="userSpaceOnUse" id="color-78"><stop offset="0" stop-color="#000000" stop-opacity="0"/><stop offset="1" stop-color="#000000"/></linearGradient><linearGradient x1="252.39393" y1="231.48036" x2="241.45248" y2="231.48036" gradientUnits="userSpaceOnUse" id="color-79"><stop offset="0" stop-color="#e6e6e6"/><stop offset="1" stop-color="#ffffff"/></linearGradient><linearGradient x1="252.39393" y1="128.51968" x2="241.45248" y2="128.51968" gradientUnits="userSpaceOnUse" id="color-80"><stop offset="0" stop-color="#e6e6e6"/><stop offset="1" stop-color="#ffffff"/></linearGradient><linearGradient x1="344.06936" y1="229.24205" x2="336.18101" y2="229.24205" gradientUnits="userSpaceOnUse" id="color-81"><stop offset="0" stop-color="#ffc534"/><stop offset="1" stop-color="#a2540c"/></linearGradient><linearGradient x1="344.06936" y1="130.758" x2="336.18101" y2="130.758" gradientUnits="userSpaceOnUse" id="color-82"><stop offset="0" stop-color="#ffc534"/><stop offset="1" stop-color="#a2540c"/></linearGradient><linearGradient x1="292.93947" y1="180.00003" x2="289.761" y2="180.00003" gradientUnits="userSpaceOnUse" id="color-83"><stop offset="0" stop-color="#000000"/><stop offset="1" stop-color="#000000" stop-opacity="0"/></linearGradient><linearGradient x1="331.97674" y1="140.26829" x2="271.04933" y2="140.26829" gradientUnits="userSpaceOnUse" id="color-84"><stop offset="0" stop-color="#a8a8a8"/><stop offset="1" stop-color="#a8a8a8" stop-opacity="0"/></linearGradient><linearGradient x1="331.97674" y1="219.73173" x2="271.04933" y2="219.73173" gradientUnits="userSpaceOnUse" id="color-85"><stop offset="0" stop-color="#a8a8a8"/><stop offset="1" stop-color="#a8a8a8" stop-opacity="0"/></linearGradient><linearGradient x1="122.61989" y1="179.53951" x2="118.96237" y2="179.53951" gradientUnits="userSpaceOnUse" id="color-86"><stop offset="0" stop-color="#909090" stop-opacity="0"/><stop offset="1" stop-color="#909090"/></linearGradient><linearGradient x1="258.87212" y1="138.44654" x2="258.87212" y2="143.3587" gradientUnits="userSpaceOnUse" id="color-87"><stop offset="0" stop-color="#1b1b1b"/><stop offset="1" stop-color="#4c4c4c"/></linearGradient><linearGradient x1="225.42602" y1="138.59098" x2="225.42602" y2="148.83762" gradientUnits="userSpaceOnUse" id="color-88"><stop offset="0" stop-color="#1b1b1b"/><stop offset="1" stop-color="#4c4c4c"/></linearGradient><linearGradient x1="192.41333" y1="146.22486" x2="192.41333" y2="147.81411" gradientUnits="userSpaceOnUse" id="color-89"><stop offset="0" stop-color="#1b1b1b"/><stop offset="1" stop-color="#4c4c4c"/></linearGradient></defs><g transform="translate(2.63138,-1.09611)"><g data-paper-data="{&quot;isPaintingLayer&quot;:true}" fill-rule="nonzero" stroke-linejoin="miter" stroke-miterlimit="10" stroke-dasharray="" stroke-dashoffset="0" style="mix-blend-mode: normal"><path d="M366.68703,170.4646v19.07077h-2.31162v-19.07077z" data-paper-data="{&quot;index&quot;:null}" fill="#2c2c2c" stroke="#000000" stroke-width="0.5" stroke-linecap="butt"/><path d="M113.42172,180.338c0,-8.17713 0.59362,-10.85009 3.33757,-21.11384c2.19597,-8.21401 6.09786,-16.60772 8.34791,-20.2078c3.00966,-4.81546 8.95819,-6.66541 13.43562,-7.93458c1.385,-0.39258 2.61688,-0.76668 3.60381,-1.0768c1.53855,-0.48343 4.82808,-0.82856 7.68266,-0.84951c13.30046,-0.09762 112.90794,-0.82869 112.90794,-0.82869c0,0 29.18299,-0.60449 50.71452,-0.41974c7.17942,0.06161 13.50813,0.21095 17.62065,0.49973c7.02623,0.49337 14.82507,3.45265 18.70057,5.09977c1.54534,0.65679 3.62577,1.83273 4.87815,3.04229c0.73115,0.70616 1.49418,1.57652 2.07707,2.56212c2.63816,4.46084 4.6782,11.28259 6.03368,15.92684c2.23638,7.66239 2.69745,24.8668 2.69745,24.8668v0.40828c0,0 -0.46107,17.20442 -2.69745,24.8668c-1.3555,4.64425 -3.39552,11.46599 -6.03368,15.92684c-0.5829,0.98561 -1.34591,1.85595 -2.07707,2.56212c-1.2524,1.20956 -3.33283,2.3855 -4.87815,3.04229c-3.87549,1.64712 -11.67435,4.6064 -18.70057,5.09976c-4.11251,0.28877 -10.44123,0.43812 -17.62065,0.49973c-21.53153,0.18475 -50.71452,-0.41974 -50.71452,-0.41974c0,0 -108.19762,-0.79412 -112.90793,-0.82869c-2.85458,-0.02095 -6.14409,-0.36607 -7.68266,-0.84951c-0.98693,-0.31011 -2.21882,-0.68421 -3.60381,-1.0768c-4.47743,-1.26917 -10.42596,-3.1191 -13.43562,-7.93458c-2.25006,-3.60009 -6.15194,-11.99376 -8.34791,-20.2078c-2.74395,-10.26376 -3.33757,-12.47815 -3.33757,-20.65527z" data-paper-data="{&quot;index&quot;:null}" fill="url(#color-1)" stroke="#000000" stroke-width="0.5" stroke-linecap="round"/><path d="M355.86345,221.97364c0,0 -4.2717,3.95204 -9.38104,5.90298c-11.50964,4.39482 -26.83377,3.99669 -26.83377,3.99669l-172.63307,-0.82258c0,0 -9.50987,-2.42819 -12.71788,-3.45011c-3.86996,-1.23279 -7.27441,-3.91831 -7.27441,-3.91831z" data-paper-data="{&quot;index&quot;:null}" fill="url(#color-2)" stroke="none" stroke-width="0" stroke-linecap="butt"/><path d="M128.15472,135.80274c0,0 3.56608,-2.73013 7.43605,-3.84226c3.20801,-0.92191 11.42481,-2.69083 11.42481,-2.69083l172.63308,-1.06534c0,0 15.32411,-0.19754 26.83377,3.76716c5.10934,1.76 8.89614,5.48687 8.89614,5.48687z" data-paper-data="{&quot;index&quot;:null}" fill="url(#color-3)" stroke="none" stroke-width="0" stroke-linecap="butt"/><path d="M353.45546,158.66039c0,0 1.66703,0.40438 2.51295,0.89501c0.74707,0.4333 2.30292,1.89817 2.30292,1.89817l-0.07224,0.08991h-2.93769z" data-paper-data="{&quot;index&quot;:null}" fill="url(#color-4)" stroke="none" stroke-width="0.5" stroke-linecap="round"/><path d="M259.78026,138.79372c0,0 -34.11174,-0.85285 -46.45804,-0.05264c-5.10894,0.33114 -12.08985,1.36697 -16.41153,2.43967c-2.48056,0.61571 -4.00199,1.14229 -4.00199,1.14229l0.61916,0.06191c0,0 -1.62093,-0.45053 -3.42203,-1.47146c-2.20259,-1.24851 -4.736,-3.16595 -5.66598,-3.86973c-1.1572,-0.87572 0.58247,-1.63999 1.78221,-1.70822c3.57405,-0.20326 11.95269,-0.60073 22.0439,-0.54562c12.45521,0.06801 27.51934,0.93403 39.37833,1.15554c24.69239,0.46121 22.9097,1.11452 22.9097,1.11452l0.49536,0.37135l0.24767,0.37166c0,0 -1.44248,0.27548 -2.30042,0.54102c-0.87543,0.27095 -3.14837,0.69733 -3.14837,0.69733z" data-paper-data="{&quot;index&quot;:null}" fill="url(#color-5)" stroke="none" stroke-width="0.5" stroke-linecap="round"/><path d="M355.26139,198.45651h2.93768l0.07225,0.08991c0,0 -1.55584,1.46488 -2.30292,1.89817c-0.84591,0.49063 -2.51295,0.89501 -2.51295,0.89501z" data-paper-data="{&quot;index&quot;:null}" fill="url(#color-6)" stroke="none" stroke-width="0.5" stroke-linecap="round"/><path d="M265.84821,220.95865c0,0 2.27295,0.42638 3.14837,0.69733c0.85793,0.26556 2.30042,0.54101 2.30042,0.54101l-0.24767,0.37166l-0.49536,0.37135c0,0 1.7827,0.65331 -22.90969,1.11452c-11.859,0.2215 -26.92312,1.08752 -39.37833,1.15554c-10.09121,0.05511 -18.46985,-0.34235 -22.0439,-0.54562c-1.19974,-0.06823 -2.93942,-0.8325 -1.78221,-1.70823c0.92998,-0.70378 3.46339,-2.62122 5.66598,-3.86973c1.8011,-1.02093 3.42203,-1.47146 3.42203,-1.47146l-0.61916,0.06191c0,0 1.52143,0.52658 4.00199,1.14229c4.3217,1.0727 11.30261,2.10856 16.41153,2.43967c12.34631,0.80023 46.45805,-0.05264 46.45805,-0.05264z" data-paper-data="{&quot;index&quot;:null}" fill="url(#color-7)" stroke="none" stroke-width="0.5" stroke-linecap="round"/><path d="M294.04007,127.90409c16.9452,-0.08715 27.68912,0.00932 27.68912,0.00932c0,0 -13.39337,1.08945 -20.25243,1.85852c-5.34109,0.59889 -12.07238,1.75662 -17.06444,1.92462c-20.64061,0.69465 -84.69265,0.90543 -84.69265,0.90543c0,0 -22.34415,0.61976 -31.85834,1.13585c-7.50892,0.40733 -20.52437,1.46471 -20.52437,1.46471l-14.62815,0.38384l-1.08357,-1.95042c0,0 3.05317,-1.43313 7.59501,-2.69349c2.38842,-0.66278 5.18851,-1.48683 8.17279,-1.57666c14.09895,-0.42441 59.51238,-0.72251 100.55408,-1.0252c16.92524,-0.12482 33.22691,-0.37035 46.09297,-0.43651z" data-paper-data="{&quot;index&quot;:null}" fill="url(#color-8)" stroke="none" stroke-width="0.5" stroke-linecap="round"/><path d="M294.04007,232.09594c-12.86604,-0.06617 -29.16773,-0.31169 -46.09297,-0.43651c-41.04171,-0.30269 -86.45514,-0.60079 -100.55408,-1.0252c-2.98426,-0.08984 -5.78435,-0.91389 -8.17279,-1.57667c-4.54184,-1.26036 -7.59501,-2.69348 -7.59501,-2.69348l1.08357,-1.95043l14.62815,0.38384c0,0 13.01545,1.05738 20.52437,1.4647c9.51418,0.51609 31.85834,1.13585 31.85834,1.13585c0,0 64.05203,0.21078 84.69265,0.90543c4.99205,0.16803 11.72333,1.32575 17.06444,1.92463c6.85906,0.76907 20.25243,1.85852 20.25243,1.85852c0,0 -10.74392,0.09645 -27.68912,0.00932z" data-paper-data="{&quot;index&quot;:null}" fill="url(#color-9)" stroke="none" stroke-width="0.5" stroke-linecap="round"/><path d="M132.70881,224.41371l-1.08357,1.95042c0,0 -2.289,-0.96377 -4.13116,-2.4257c-0.3716,-0.2949 -1.82061,-1.67867 -3.16693,-4.10505c-1.91121,-3.44442 -3.81108,-8.20764 -3.81108,-8.20764c-0.25011,-0.5336 -0.82827,-3.18189 -0.91281,-5.51113c-0.02761,-0.76081 -0.11498,-2.72536 0.26545,-3.84186c0.44317,-1.30064 1.36638,-1.70838 1.36638,-1.70838" data-paper-data="{&quot;index&quot;:null}" fill="url(#color-10)" stroke="#000000" stroke-width="0" stroke-linecap="round"/><path d="M281.17914,146.73406c0,0 1.27416,-2.15624 3.4873,-1.96983c7.0439,0.59328 23.42623,1.75912 38.68671,4.49302c11.86952,2.12642 23.12883,5.61236 28.34606,7.86687c0.37277,0.16109 2.19992,1.93295 3.31899,4.35424c1.2085,2.61475 1.70651,5.92922 1.90443,7.16591c0.84129,5.25675 0.88635,11.20359 0.88635,11.20359v0.30426c0,0 -0.04506,5.94684 -0.88635,11.20359c-0.19792,1.23669 -0.69594,4.55116 -1.90443,7.16591c-1.1191,2.42129 -2.94623,4.19315 -3.31899,4.35423c-5.21724,2.25451 -16.47654,5.74047 -28.34606,7.86687c-15.26047,2.7339 -31.64279,3.89975 -38.68671,4.49302c-2.21314,0.1864 -3.4873,-1.96983 -3.4873,-1.96983" data-paper-data="{&quot;index&quot;:null}" fill="url(#color-11)" stroke="#a8a8a8" stroke-width="0.5" stroke-linecap="round"/><path d="M121.2351,159.43567c0,0 -0.92322,-0.40774 -1.36638,-1.70838c-0.38043,-1.11651 -0.29306,-3.08105 -0.26546,-3.84186c0.08453,-2.32923 0.6627,-4.97753 0.91281,-5.51113c0,0 1.89987,-4.76322 3.81108,-8.20765c1.34635,-2.42637 2.79534,-3.81016 3.16693,-4.10506c1.84214,-1.46191 4.13116,-2.42569 4.13116,-2.42569l1.08357,1.95042" data-paper-data="{&quot;index&quot;:null}" fill="url(#color-12)" stroke="#000000" stroke-width="0" stroke-linecap="round"/><path d="M142.82934,153.89182c0,0 14.49547,-4.84423 22.56618,-6.05484c1.92917,-0.28938 6.58509,-0.67914 6.58509,-0.67914l93.86761,-8.11662c0,0 2.27295,-0.42638 3.14836,-0.69733c0.85793,-0.26556 2.30042,-0.54102 2.30042,-0.54102l-0.24768,-0.37152c0,0 1.81905,1.2271 3.15305,2.17079l-0.30482,-0.05731c0,0 -7.36178,1.30406 -16.2201,3.91347c-7.41088,2.18304 -15.86916,5.62655 -21.94054,6.66619c-5.35053,0.91619 -12.65802,2.54549 -20.14982,3.14446c-13.04578,1.04301 -26.06328,0.72342 -26.06328,0.72342z" data-paper-data="{&quot;index&quot;:null}" fill="url(#color-13)" stroke="none" stroke-width="0.5" stroke-linecap="round"/><path d="M348.11732,144.78756l-2.1471,-6.48916c0,0 0.84932,0.26457 1.48549,1.0643c0.77933,0.97974 2.84878,4.38448 2.84878,4.38448" data-paper-data="{&quot;index&quot;:null}" fill="url(#color-14)" stroke="url(#color-15)" stroke-width="0.5" stroke-linecap="round"/><path d="M141.7891,154.41194l-18.72403,0.17337c0,0 1.40124,-5.12157 2.70112,-7.21102c1.329,-2.13623 5.18743,-5.46917 5.18743,-5.46917c0,0 12.69763,-2.31368 20.39005,-2.86754c9.83518,-0.70814 34.3084,-1.03331 34.3084,-1.03331l0.02792,-0.03373c1.20126,0.88218 2.8936,2.07443 4.42583,2.94296c1.8011,1.02093 3.42203,1.47145 3.42203,1.47145l-0.61916,-0.06191l3.0959,1.79564l3.62613,0.29957l-2.31161,2.60056l-25.33851,0.13905c0,0 -4.65593,0.38976 -6.58509,0.67914c-8.0707,1.2106 -22.56617,6.05484 -22.56617,6.05484z" data-paper-data="{&quot;index&quot;:null}" fill="url(#color-16)" stroke="none" stroke-width="0.5" stroke-linecap="round"/><path d="M189.52383,206.00763c0,0 13.01748,-0.3196 26.06328,0.72342c7.4918,0.59897 14.7993,2.22829 20.14982,3.14447c6.07139,1.03964 14.52967,4.48315 21.94053,6.66619c8.85832,2.60941 16.2201,3.91347 16.2201,3.91347l0.30483,-0.05731c-1.334,0.94367 -3.15306,2.17079 -3.15306,2.17079l0.24768,-0.37152c0,0 -1.44248,-0.27548 -2.30042,-0.54101c-0.87543,-0.27095 -3.14837,-0.69734 -3.14837,-0.69734l-93.8676,-8.11662c0,0 -4.65593,-0.38976 -6.58509,-0.67914c-8.0707,-1.2106 -22.56618,-6.05484 -22.56618,-6.05484z" data-paper-data="{&quot;index&quot;:null}" fill="url(#color-17)" stroke="none" stroke-width="0.5" stroke-linecap="round"/><path d="M122.29454,204.22409c0,0 -1.88274,-5.81533 -2.39646,-9.4407c-0.59733,-4.21542 -0.97464,-14.34962 -0.97464,-14.34962v-0.86785c0,0 0.37731,-10.1342 0.97464,-14.34962c0.51371,-3.62537 2.39646,-9.4407 2.39646,-9.4407l0.77054,-1.19043l18.72403,-0.17337v51.17627l-18.72403,-0.17337z" data-paper-data="{&quot;index&quot;:null}" fill="url(#color-18)" stroke="none" stroke-width="0.5" stroke-linecap="round"/><path d="M142.82934,206.10818c0,0 14.49547,4.84423 22.56618,6.05484c1.92917,0.28938 6.58509,0.67914 6.58509,0.67914l25.33851,0.13905l2.31161,2.60056l-3.62613,0.29957l-3.0959,1.79564l0.61916,-0.06191c0,0 -1.62093,0.45053 -3.42203,1.47145c-1.53223,0.86853 -3.22457,2.06077 -4.42583,2.94296l-0.02792,-0.03373c0,0 -24.47322,-0.32518 -34.3084,-1.03331c-7.69243,-0.55386 -20.39005,-2.86754 -20.39005,-2.86754c0,0 -3.85843,-3.33293 -5.18743,-5.46917c-1.29989,-2.08945 -2.70112,-7.21102 -2.70112,-7.21102l18.72403,0.17337z" data-paper-data="{&quot;index&quot;:null}" fill="url(#color-19)" stroke="none" stroke-width="0.5" stroke-linecap="round"/><path d="M271.04933,222.56865c0,0 16.2192,-0.90696 31.00865,-2.51613c9.21963,-1.00314 17.88364,-2.88486 21.71636,-3.13413c3.97096,-0.25828 8.2024,1.68751 8.2024,1.68751l12.75513,4.70584c0,0 0.66269,0.87678 0.2524,1.39102c-0.51076,0.64016 -3.08205,2.15566 -3.08205,2.15566c0,0 -8.98203,2.41426 -14.90592,2.30319c-2.89597,-0.0543 -7.50034,0.25938 -12.07595,-0.29502c-2.76758,-0.33533 -5.52463,-0.81343 -7.88675,-1.27925c-3.91165,-0.77139 -13.63582,-2.33662 -17.77136,-2.83293c-5.31391,-0.63771 -18.21289,-2.18574 -18.21289,-2.18574z" data-paper-data="{&quot;index&quot;:null}" fill="url(#color-20)" stroke="none" stroke-width="0.5" stroke-linecap="round"/><path d="M202.81559,141.51809c0,0 -0.22669,-1.18092 -0.8689,-2.97135c-0.79671,-2.22118 -2.03266,-5.24693 -1.90665,-6.54497c0.16384,-1.68752 4.01391,-3.23881 4.01391,-3.23881" data-paper-data="{&quot;index&quot;:null}" fill="none" stroke="#a8a8a8" stroke-width="0.5" stroke-linecap="round"/><path d="M271.04932,137.43135c0,0 12.89897,-1.54801 18.21288,-2.18574c4.13554,-0.49631 13.85971,-2.06154 17.77136,-2.83293c2.36212,-0.46581 5.11918,-0.94392 7.88675,-1.27925c4.57563,-0.55439 9.17999,-0.24072 12.07596,-0.29502c5.92389,-0.11106 14.90592,2.30319 14.90592,2.30319c0,0 2.5713,1.51549 3.08205,2.15566c0.41028,0.51424 -0.2524,1.39102 -0.2524,1.39102l-12.75513,4.70584c0,0 -4.23144,1.94578 -8.2024,1.68751c-3.83272,-0.24927 -12.49672,-2.13099 -21.71635,-3.13413c-14.78945,-1.60916 -31.00866,-2.51613 -31.00866,-2.51613z" data-paper-data="{&quot;index&quot;:null}" fill="url(#color-21)" stroke="none" stroke-width="0.5" stroke-linecap="round"/><path d="M343.57818,223.0309c0,0 0.97847,0.45961 1.57026,0.67203c0.76959,0.27627 2.26163,0.60854 2.26163,0.60854c0,0 -2.00905,0.07574 -2.84445,-0.05716c-0.3972,-0.06319 -1.52922,-0.46493 -1.52922,-0.46493z" data-paper-data="{&quot;index&quot;:null}" fill="#989898" stroke="#989898" stroke-width="0.5" stroke-linecap="round"/><path d="M204.05396,231.23703c0,0 -3.85008,-1.5513 -4.01391,-3.23881c-0.12601,-1.29805 1.10992,-4.32378 1.90665,-6.54496c0.64221,-1.79041 0.8689,-2.97135 0.8689,-2.97135" data-paper-data="{&quot;index&quot;:null}" fill="none" stroke="#a8a8a8" stroke-width="0.5" stroke-linecap="round"/><path d="M343.03637,136.21064c0,0 1.13202,-0.40175 1.52922,-0.46494c0.83539,-0.1329 2.84445,-0.05716 2.84445,-0.05716c0,0 -1.49204,0.33227 -2.26163,0.60854c-0.59177,0.21242 -1.57026,0.67203 -1.57026,0.67203z" data-paper-data="{&quot;index&quot;:null}" fill="#989898" stroke="#989898" stroke-width="0.5" stroke-linecap="round"/><path d="M205.06051,218.89261c0,0 -1.01819,-0.01659 -1.53511,-0.12658c-0.52753,-0.11223 -1.59891,-0.54023 -1.59891,-0.54023l-6.33469,-7.38652c0,0 1.50403,-0.11804 2.27128,-0.1619c0.78809,-0.04504 2.39639,-0.07273 2.39639,-0.07273z" data-paper-data="{&quot;index&quot;:null}" fill="#1a1a1a" stroke="#000000" stroke-width="0" stroke-linecap="round"/><path d="M185.60496,224.7075c-0.87443,0 -1.6208,-0.41435 -1.48387,-1.01039c0.07344,-0.31966 -0.05478,-0.62926 0.2103,-0.82606c0.86195,-0.63995 3.22121,-2.25866 5.5279,-3.59181c2.73711,-1.58191 5.40024,-2.85021 5.40024,-2.85021v8.49517c0,0 -7.69259,-0.21671 -9.65459,-0.21671z" data-paper-data="{&quot;index&quot;:null}" fill="url(#color-22)" stroke="none" stroke-width="0.5" stroke-linecap="butt"/><path d="M195.25954,135.07579v8.49517c0,0 -2.66315,-1.2683 -5.40024,-2.85021c-2.3067,-1.33316 -4.66595,-2.95186 -5.5279,-3.59181c-0.26506,-0.19681 -0.13686,-0.5064 -0.2103,-0.82606c-0.13693,-0.59604 0.60944,-1.01038 1.48387,-1.01038c1.962,0 9.65459,-0.21672 9.65459,-0.21672z" data-paper-data="{&quot;index&quot;:null}" fill="url(#color-23)" stroke="none" stroke-width="0.5" stroke-linecap="butt"/><path d="M185.18725,213.81373c-3.93974,-0.22887 -12.14565,-0.89259 -12.14565,-0.89259c0,0 2.04922,-0.88752 4.11849,-1.05554c2.22508,-0.18067 7.6975,-0.20507 12.07068,-0.36336c3.55381,-0.12863 6.34902,-0.4111 6.34902,-0.4111l0.67423,3.17847c0,0 -7.27467,-0.23557 -11.06677,-0.45585z" data-paper-data="{&quot;index&quot;:null}" fill="#1a1a1a" stroke="none" stroke-width="0.5" stroke-linecap="butt"/><path d="M355.26138,198.45633h2.93769c0,0 0.08486,1.2903 -0.35377,2.01403c-0.51288,0.84626 -2.53574,2.75368 -2.53574,2.75368" data-paper-data="{&quot;index&quot;:null}" fill="none" stroke="#000000" stroke-width="0.5" stroke-linecap="round"/><path d="M350.3045,216.25284c0,0 -2.06944,3.40475 -2.84878,4.38449c-0.63616,0.79973 -1.48549,1.0643 -1.48549,1.0643l2.14709,-6.48916" data-paper-data="{&quot;index&quot;:null}" fill="url(#color-24)" stroke="url(#color-25)" stroke-width="0.5" stroke-linecap="round"/><path d="M244.81466,229.80549c0,0 0.72821,-3.90332 1.3804,-4.85886c0.58237,-0.85324 4.34161,-1.03462 4.99189,-0.08086c0.30342,0.445 0.59725,1.60763 0.82435,2.72092c0.25939,1.2716 -0.22087,2.45662 -0.78641,2.43734c-1.29734,-0.04423 -6.41022,-0.21852 -6.41022,-0.21852z" data-paper-data="{&quot;index&quot;:null}" fill="url(#color-26)" stroke="#000000" stroke-width="0" stroke-linecap="round"/><path d="M321.65695,192.21142c0,0 -3.94402,7.79354 -8.12494,9.13994c-2.07378,0.66783 -25.97131,1.84021 -25.97131,1.84021" data-paper-data="{&quot;index&quot;:null}" fill="none" stroke="url(#color-27)" stroke-width="0.5" stroke-linecap="round"/><path d="M305.30489,194.16025c3.15337,-1.28106 14.17472,-0.90501 14.17472,-0.90501c0,0 -2.68331,5.44242 -5.63612,6.64199c-1.60024,0.65011 -4.82619,0.57832 -7.64618,0.63321c-2.80629,0.05463 -5.21056,0.23752 -5.21056,0.23752c0,0 1.31453,-5.38749 4.31816,-6.60772z" data-paper-data="{&quot;index&quot;:null}" fill="#191919" stroke="#000000" stroke-width="0.5" stroke-linecap="round"/><path d="M256.12233,221.21598l-5.28765,-4.98917l15.76689,4.92169z" data-paper-data="{&quot;index&quot;:null}" fill="url(#color-28)" stroke="#000000" stroke-width="0" stroke-linecap="round"/><path d="M252.15399,221.14842c0,0 -20.73368,-0.31164 -29.47252,-0.7328c-6.70414,-0.32308 -18.49337,-1.57881 -18.49337,-1.57881l-5.63455,-8.12785c0,0 23.05538,-0.79373 31.6571,0.00272c6.20451,0.57448 15.29746,4.47602 15.29746,4.47602z" data-paper-data="{&quot;index&quot;:null}" fill="url(#color-29)" stroke="#000000" stroke-width="0" stroke-linecap="round"/><path d="M202.59888,218.40347l-7.65721,-1.87819c0,0 1.64547,-1.07313 2.25836,-1.47284c0.42081,-0.27443 0.51752,-0.72642 -0.14215,-0.76514c-3.00494,-0.17642 -25.03965,-1.4702 -25.03965,-1.4702c0,0 2.78918,-0.7164 6.06461,-0.94143c4.64681,-0.31925 19.01645,-1.15798 19.01645,-1.15798z" data-paper-data="{&quot;index&quot;:null}" fill="#1a1a1a" stroke="#000000" stroke-width="0" stroke-linecap="round"/><path d="M251.37445,221.14851c0,0 -3.88677,-3.92932 -5.49264,-5.16662c-0.90025,-0.69364 -4.32057,-2.30325 -4.32057,-2.30325l9.20209,2.53808l5.95831,5.00959z" data-paper-data="{&quot;index&quot;:null}" fill="#1a1a1a" stroke="#000000" stroke-width="0" stroke-linecap="round"/><path d="M254.3378,221.15964l-6.29659,-5.50594" data-paper-data="{&quot;index&quot;:null}" fill="none" stroke="#000000" stroke-width="0" stroke-linecap="round"/><path d="M179.54298,213.00901l15.77193,-1.08357l1.20396,2.07082z" data-paper-data="{&quot;index&quot;:null}" fill="url(#color-30)" stroke="#000000" stroke-width="0" stroke-linecap="round"/><path d="M273.52605,231.73237c0,0 -1.61962,-3.44978 -2.13828,-4.98414c-0.4665,-1.38007 -0.83381,-3.80824 -0.83381,-3.80824c0,0 1.7827,0.65331 -22.90969,1.11452c-11.859,0.2215 -26.92312,1.08752 -39.37833,1.15554c-10.09121,0.05511 -18.46985,-0.34235 -22.0439,-0.54562c-1.19974,-0.06823 -2.93942,-0.8325 -1.78221,-1.70822c0.92998,-0.70378 3.46339,-2.62122 5.66598,-3.86973c1.8011,-1.02093 3.42203,-1.47146 3.42203,-1.47146" data-paper-data="{&quot;index&quot;:null}" fill="none" stroke="#000000" stroke-width="0" stroke-linecap="round"/><path d="M265.84821,220.95865c0,0 2.27295,0.42638 3.14837,0.69733c0.85793,0.26556 2.30042,0.54101 2.30042,0.54101" data-paper-data="{&quot;index&quot;:null}" fill="none" stroke="#000000" stroke-width="0.5" stroke-linecap="round"/><path d="M115.64869,162.51797c0,0 1.12857,0.05442 1.66187,0.43086c0.19868,0.14024 0.46071,0.41957 0.71569,0.72096c0.46016,0.54393 0.77966,1.92949 0.62363,3.01957c-0.25037,1.74919 -0.5998,4.32333 -0.72158,5.86585c-0.18702,2.36873 -0.16062,6.91455 -0.16062,6.91455v1.06048c0,0 -0.02638,4.54581 0.16062,6.91455c0.12177,1.54253 0.47121,4.11665 0.72158,5.86584c0.15603,1.09008 -0.1635,2.47564 -0.62363,3.01957c-0.25496,0.3014 -0.51701,0.58071 -0.71569,0.72096c-0.5333,0.37645 -1.66187,0.43086 -1.66187,0.43086" data-paper-data="{&quot;index&quot;:null}" fill="url(#color-31)" stroke="#000000" stroke-width="0" stroke-linecap="round"/><path d="M212.97016,223.36997c0,0.20655 0,0.62073 0,0.96317c0,0.30122 -0.18174,0.54521 -0.47277,0.54244c-1.00758,-0.00964 -3.32519,-0.0318 -3.94679,-0.03775c-0.29922,-0.00286 -0.63315,-0.21914 -0.65266,-0.49253c-0.02731,-0.38284 -0.01194,-0.88363 -0.01194,-1.08196c0,-0.36057 0.30307,-0.48845 0.7499,-0.48845c0.69592,0 2.7585,0 3.76669,0c0.34582,0 0.56759,0.35136 0.56759,0.59509z" data-paper-data="{&quot;index&quot;:null}" fill="none" stroke="#a8a8a8" stroke-width="0.5" stroke-linecap="butt"/><path d="M355.30955,156.77582c0,0 2.02286,1.90742 2.53574,2.75369c0.43863,0.72374 0.35377,2.01402 0.35377,2.01402h-2.93768" data-paper-data="{&quot;index&quot;:null}" fill="none" stroke="#000000" stroke-width="0.5" stroke-linecap="round"/><path d="M359.05902,144.70093c1.64198,4.0262 4.53725,13.78253 4.53725,13.78253c0,0 -4.46338,-9.00221 -7.25113,-13.16236c-1.5664,-2.33756 -5.0258,-5.88343 -7.0894,-8.28236c-1.30751,-1.51997 -1.7582,-2.5795 -1.7582,-2.5795c0,0 1.96389,1.56615 2.97849,1.83316c1.27728,0.33612 4.08018,0.02438 4.08018,0.02438c0,0 3.22215,5.24393 4.5028,8.38414z" data-paper-data="{&quot;index&quot;:null}" fill="url(#color-32)" stroke="#000000" stroke-width="0" stroke-linecap="round"/><path d="M251.22487,129.97601c0.56554,-0.01928 1.0458,1.16573 0.78641,2.43734c-0.22709,1.11327 -0.52093,2.27589 -0.82435,2.72091c-0.65028,0.95376 -4.40953,0.77239 -4.99189,-0.08086c-0.65219,-0.95555 -1.38039,-4.85887 -1.38039,-4.85887c0,0 5.11288,-0.1743 6.41022,-0.21852z" data-paper-data="{&quot;index&quot;:null}" fill="url(#color-33)" stroke="#000000" stroke-width="0" stroke-linecap="round"/><path d="M287.56072,156.80836c0,0 23.89751,1.17238 25.97131,1.84022c4.1809,1.3464 8.12494,9.13994 8.12494,9.13994" data-paper-data="{&quot;index&quot;:null}" fill="none" stroke="url(#color-34)" stroke-width="0.5" stroke-linecap="round"/><path d="M306.19729,159.46945c2.82,0.05489 6.04594,-0.01689 7.64618,0.63321c2.95281,1.19959 5.63612,6.64199 5.63612,6.64199c0,0 -11.02134,0.37606 -14.17471,-0.90502c-3.00363,-1.22022 -4.31817,-6.60772 -4.31817,-6.60772c0,0 2.40429,0.1829 5.21057,0.23754z" data-paper-data="{&quot;index&quot;:null}" fill="#191919" stroke="#000000" stroke-width="0.5" stroke-linecap="round"/><path d="M135.99564,179.44907c0,0 0.02722,-9.10314 1.07012,-13.4982c0.97521,-4.10986 4.99786,-12.07398 4.99786,-12.07398h47.24351c0,0 -0.59158,3.28339 -0.70956,6.05622c-0.21058,4.94879 -0.5907,19.8049 -0.5907,19.8049v0.52387c0,0 0.38012,14.85611 0.5907,19.80491c0.118,2.77283 0.70956,6.05621 0.70956,6.05621h-47.2435c0,0 -4.02264,-7.96412 -4.99786,-12.07399c-1.0429,-4.39506 -1.07012,-13.4982 -1.07012,-13.4982z" data-paper-data="{&quot;index&quot;:null}" fill="#1a1a1a" stroke="#000000" stroke-width="0" stroke-linecap="round"/><path d="M292.84449,180.21648c0,0 -0.19874,5.21046 -1.01604,10.37864c-0.65285,4.12834 -2.53303,8.37713 -3.62066,11.1955c-0.92615,2.39993 -2.428,5.43137 -4.32934,8.18908c-2.7931,4.05109 -6.01814,7.51146 -6.01814,7.51146c0,0 -4.88921,0.07646 -8.76766,-0.63085c-5.98663,-1.09179 -23.22843,-5.25464 -29.38512,-6.75314c-1.3924,-0.3389 -2.06178,-1.78977 -1.9187,-2.93442c0.36344,-2.90752 2.47604,-10.28988 3.04448,-14.94417c0.56841,-4.65428 0.56841,-19.80296 0,-24.45725c-0.56841,-4.65428 -2.68103,-12.03664 -3.04448,-14.94418c-0.14307,-1.14465 0.5263,-2.59552 1.9187,-2.93442c6.1567,-1.4985 23.3985,-5.66134 29.38512,-6.75314c3.87845,-0.70732 8.76766,-0.63085 8.76766,-0.63085c0,0 3.22504,3.46038 6.01814,7.51146c1.90134,2.75771 3.40321,5.78914 4.32934,8.18908c1.08763,2.81838 2.96782,7.06717 3.62066,11.1955c0.81727,5.16818 1.01604,10.37864 1.01604,10.37864z" data-paper-data="{&quot;index&quot;:null}" fill="#1a1a1a" stroke="#000000" stroke-width="0" stroke-linecap="round"/><path d="M193.52787,142.38494c0,0 -1.62093,-0.45053 -3.42203,-1.47145c-2.20259,-1.24851 -4.736,-3.16595 -5.66598,-3.86973c-1.1572,-0.87572 0.58247,-1.63999 1.78221,-1.70822c3.57405,-0.20326 11.95269,-0.60073 22.0439,-0.54562c12.45521,0.06801 27.51934,0.93403 39.37833,1.15554c24.6924,0.46121 22.90969,1.11452 22.90969,1.11452c0,0 0.36732,-2.42816 0.83381,-3.80824c0.51864,-1.53435 2.13827,-4.98414 2.13827,-4.98414" data-paper-data="{&quot;index&quot;:null}" fill="none" stroke="#000000" stroke-width="0" stroke-linecap="round"/><path d="M271.29702,137.8029c0,0 -1.44248,0.27548 -2.30042,0.54102c-0.87543,0.27095 -3.14837,0.69733 -3.14837,0.69733" data-paper-data="{&quot;index&quot;:null}" fill="none" stroke="#000000" stroke-width="0.5" stroke-linecap="round"/><path d="M141.7891,154.41179l-18.72403,0.17337" data-paper-data="{&quot;index&quot;:null}" fill="none" stroke="#a8a8a8" stroke-width="0.5" stroke-linecap="round"/><path d="M122.29454,204.22409c0,0 -1.88274,-5.81533 -2.39646,-9.4407c-0.59733,-4.21542 -0.97464,-14.34962 -0.97464,-14.34962v-0.86785c0,0 0.37731,-10.1342 0.97464,-14.34962c0.51371,-3.62537 2.39646,-9.4407 2.39646,-9.4407" data-paper-data="{&quot;index&quot;:null}" fill="none" stroke="#000000" stroke-width="0.5" stroke-linecap="round"/><path d="M141.84852,167.70934c0.82048,-3.36198 3.50707,-8.44139 3.50707,-8.44139c0,0 30.18667,0 33.80728,0c0.69296,0 1.76562,0.10662 2.26002,0.45085c0.40503,0.28201 0.78805,0.72351 0.84108,1.39653c0.27278,3.46213 -0.25288,18.5856 -0.25288,18.5856v0.59815c0,0 0.52566,15.12345 0.25288,18.58559c-0.05302,0.67301 -0.43605,1.11451 -0.84108,1.39653c-0.49442,0.34424 -1.56708,0.45085 -2.26002,0.45085c-3.62062,0 -33.80728,0 -33.80728,0c0,0 -2.68659,-5.07943 -3.50707,-8.44139c-0.86914,-3.56135 -1.57021,-7.49617 -1.57021,-12.36309c0,-4.86691 0.70106,-8.65686 1.57021,-12.21822z" data-paper-data="{&quot;index&quot;:null}" fill="url(#color-35)" stroke="#000000" stroke-width="0" stroke-linecap="round"/><path d="M212.97017,136.62984c0,0.24373 -0.22176,0.59509 -0.56759,0.59509c-1.0082,0 -3.07077,0 -3.76669,0c-0.44683,0 -0.7499,-0.12788 -0.7499,-0.48845c0,-0.19833 -0.01538,-0.69912 0.01194,-1.08197c0.01949,-0.27339 0.35345,-0.48965 0.65266,-0.49253c0.62161,-0.00595 2.93921,-0.02809 3.94679,-0.03775c0.29103,-0.00278 0.47277,0.2412 0.47277,0.54243c0,0.34242 0,0.75663 0,0.96318z" data-paper-data="{&quot;index&quot;:null}" fill="none" stroke="#a8a8a8" stroke-width="0.5" stroke-linecap="butt"/><path d="M286.77653,180.46413c0,0 -0.335,8.12835 -1.15578,11.85187c-0.8689,3.94187 -1.92569,7.00512 -3.92151,11.18164c-1.99583,4.17654 -5.96193,8.86157 -6.43168,9.4414c-0.88635,1.09405 -3.85594,1.78861 -6.69913,1.36006c-3.6843,-0.5553 -8.59233,-1.3486 -11.70906,-2.0643c-4.51951,-1.0378 -12.61075,-3.57288 -15.60946,-4.52696c-0.73121,-0.23263 -0.96544,-1.03599 -0.67792,-2.08657c0.66738,-2.43849 1.83759,-6.95582 2.24927,-10.06469c0.60748,-4.58751 0.86026,-15.34015 0.86026,-15.34015l-0.06965,1.38402l0.06965,-1.81705c0,0 -0.25279,-10.75265 -0.86026,-15.34015c-0.41168,-3.10886 -1.58189,-7.62619 -2.24927,-10.06469c-0.28752,-1.05056 -0.05329,-1.85392 0.67792,-2.08657c2.99871,-0.95407 11.08997,-3.48916 15.60946,-4.52696c3.11672,-0.71569 8.02475,-1.509 11.70906,-2.0643c2.8432,-0.42853 5.81278,0.26603 6.69913,1.36006c0.46975,0.57981 4.43585,5.26485 6.43168,9.4414c1.99583,4.17652 3.0526,7.23978 3.92151,11.18164c0.82078,3.72351 1.15578,11.85188 1.15578,11.85188z" data-paper-data="{&quot;index&quot;:null}" fill="url(#color-36)" stroke="#000000" stroke-width="0" stroke-linecap="round"/><path d="M126.85657,212.23997c2.44711,3.73323 5.46922,7.3711 7.66687,9.16178c2.72329,2.21897 9.24881,2.85381 12.56891,3.37638c1.82484,0.28722 1.73066,0.88622 1.73066,0.88622c0,0 -14.16696,0.57306 -18.69927,-2.35288c-4.50809,-2.9103 -8.02942,-14.20011 -8.77974,-18.37454c-0.17542,-0.97603 0.73037,-1.06774 0.73037,-1.06774c0,0 2.0474,4.19869 4.78217,8.37079z" data-paper-data="{&quot;index&quot;:null}" fill="url(#color-37)" stroke="#000000" stroke-width="0.5" stroke-linecap="round"/><g data-paper-data="{&quot;index&quot;:null}" stroke="none" stroke-width="0.5" stroke-linecap="butt"><path d="M361.5012,176.20842c0.9899,0 1.79236,1.70839 1.79236,3.81576c0,2.10737 -0.80247,3.81575 -1.79236,3.81575c-0.98991,0 -1.79236,-1.70837 -1.79236,-3.81575c0,-2.10738 0.80247,-3.81576 1.79236,-3.81576z" fill="#323232"/><g data-paper-data="{&quot;index&quot;:null}"><path d="M363.35718,179.43585" fill="url(#color-38)"/><path d="M363.17159,179.39611" fill="url(#color-39)"/><path d="M362.77074,177.64502" fill="url(#color-40)"/><path d="M362.77308,177.65547" fill="url(#color-41)"/><path d="M362.77308,177.65547" fill="url(#color-42)"/><path d="M361.42006,176.36024" fill="url(#color-43)"/><path d="M361.90203,176.4406" fill="url(#color-44)"/><path d="M361.88916,176.46047" fill="url(#color-45)"/><path d="M360.53917,179.74594" fill="url(#color-46)"/><path d="M362.10623,179.27896" fill="#505050"/><path d="M362.18395,183.10863" fill="url(#color-47)"/><path d="M362.19998,179.50384" fill="url(#color-48)"/><path d="M363.24182,179.50773" fill="url(#color-49)"/><path d="M363.24096,179.51556" fill="url(#color-50)"/><path d="M362.21911,179.70494" fill="url(#color-51)"/></g></g><path d="M356.76181,201.66017c0,0 -3.72875,5.49963 -6.47905,10.75096c-1.72082,3.28569 -2.58003,6.59381 -3.38289,8.02688c-0.39671,0.70813 -0.88182,1.35768 -1.30641,1.86854c-0.56484,0.67962 -1.21922,1.11377 -1.21922,1.11377c0,0 -3.73738,-1.17227 -5.64523,-1.91583c-2.28427,-0.89029 -7.13559,-3.06541 -7.13559,-3.06541c0,0 1.20865,-1.27227 3.20439,-2.30785c1.28512,-0.66683 2.70639,-0.99415 3.90622,-1.77666c4.73111,-3.0855 18.05778,-12.69443 18.05778,-12.69443z" data-paper-data="{&quot;index&quot;:null}" fill="url(#color-52)" stroke="#000000" stroke-width="0" stroke-linecap="round"/><path d="M345.04244,214.19279c0,0 0,2.69794 0,3.79378c0,0.8378 -2.53915,2.21748 -3.61237,2.21748c-2.1683,0 -6.67783,-0.16163 -6.67783,-0.16163l-3.02855,-1.71147c0,0 1.75175,-1.39477 2.79242,-1.96773c1.26738,-0.69781 4.41762,-2.06981 4.41762,-2.06981c0,0 3.94391,-0.16147 5.04271,-0.17959c0.57624,-0.00949 1.06601,0.07894 1.06601,0.07894z" data-paper-data="{&quot;index&quot;:null}" fill="#a0a0aa" stroke="none" stroke-width="0.5" stroke-linecap="butt"/><path d="M344.14095,214.17292v3.17741c0,0 -9.79439,0 -11.36208,0c-0.40914,0 1.43248,-0.80257 3.39045,-1.71875c1.29757,-0.60716 2.29162,-1.45867 3.16297,-1.45867c1.77104,0 4.80866,0 4.80866,0z" data-paper-data="{&quot;index&quot;:null}" fill="url(#color-53)" stroke="none" stroke-width="0.5" stroke-linecap="butt"/><path d="M342.02563,220.05724l-2.94244,0.09395" data-paper-data="{&quot;index&quot;:null}" fill="none" stroke="#000000" stroke-width="0.5" stroke-linecap="round"/><path d="M343.36868,217.34091v2.72664l-9.04579,-0.4849c0,0 -2.57005,-0.82132 -2.57005,-1.31185c0,-0.39955 0.89114,-0.9299 1.19783,-0.9299c1.31416,0 10.418,0 10.418,0z" data-paper-data="{&quot;index&quot;:null}" fill="url(#color-54)" stroke="none" stroke-width="0.5" stroke-linecap="butt"/><path d="M356.76181,201.66017c0,0 -3.72875,5.49963 -6.47905,10.75096c-1.72082,3.28569 -2.58003,6.59381 -3.38289,8.02688c-0.39671,0.70813 -0.88182,1.35768 -1.30641,1.86854c-0.56484,0.67962 -1.21922,1.11377 -1.21922,1.11377c0,0 -3.73738,-1.17227 -5.64523,-1.91583c-2.28427,-0.89029 -7.13559,-3.06541 -7.13559,-3.06541c0,0 1.20865,-1.27227 3.20439,-2.30785c1.28512,-0.66683 2.70639,-0.99415 3.90622,-1.77666c4.73111,-3.0855 18.05778,-12.69443 18.05778,-12.69443z" data-paper-data="{&quot;index&quot;:null}" fill="none" stroke="#000000" stroke-width="0.5" stroke-linecap="round"/><path d="M346.08005,209.31107l4.07381,-2.79692l-0.06081,2.79692z" data-paper-data="{&quot;index&quot;:null}" fill="url(#color-55)" stroke="url(#color-56)" stroke-width="0.5" stroke-linecap="butt"/><path d="M342.53622,211.82127l3.95221,-2.73614l-0.0608,2.79693z" data-paper-data="{&quot;index&quot;:null}" fill="url(#color-57)" stroke="url(#color-58)" stroke-width="0.5" stroke-linecap="butt"/><path d="M339.53962,213.96799l3.70898,-2.67665l-0.06081,2.73613z" data-paper-data="{&quot;index&quot;:null}" fill="url(#color-59)" stroke="url(#color-60)" stroke-width="0.5" stroke-linecap="butt"/><path d="M340.80947,214.07219c0,0 2.94161,-0.05629 3.66541,-0.01398" data-paper-data="{&quot;index&quot;:null}" fill="none" stroke="#5d5d5d" stroke-width="0.5" stroke-linecap="round"/><path d="M339.0159,214.23169c0,0 2.16202,-0.40839 2.69016,0.08568c0.41553,0.38872 -0.10777,3.48481 -0.10777,3.48481" data-paper-data="{&quot;index&quot;:null}" fill="none" stroke="#5d5d5d" stroke-width="0.5" stroke-linecap="round"/><path d="M342.02323,219.94898c-0.26936,-0.15903 -0.47784,-0.64562 -0.61448,-1.0687c-0.12165,-0.37672 -0.03333,-1.18849 0.21655,-1.81337c0.37602,-0.9403 0.97138,-2.19662 1.59483,-2.59062c0.80811,-0.51073 2.72929,-0.56172 3.84053,-0.54441c0.4977,0.00777 0.83732,0.29557 0.81587,0.68667c-0.01659,0.30244 -0.00917,1.09713 -0.245,1.85233c-0.28528,0.91361 -0.83542,1.79786 -1.03407,2.05082c-0.28393,0.36155 -1.02518,0.94129 -1.66522,1.33452c-0.40891,0.25122 -1.43037,0.39538 -1.73374,0.36238c-0.45537,-0.04952 -0.94547,-0.13396 -1.17523,-0.26963z" data-paper-data="{&quot;index&quot;:null}" fill="url(#color-61)" stroke="#5d5d5d" stroke-width="0.5" stroke-linecap="round"/><path d="M343.23965,219.30101c-0.26004,-0.0366 -0.49356,-0.09132 -0.63344,-0.17291c-0.19799,-0.1155 -0.35122,-0.46886 -0.45164,-0.77611c-0.08942,-0.27358 -0.02451,-0.86308 0.15915,-1.31689c0.27637,-0.68288 0.71398,-1.59521 1.17221,-1.88135c0.59398,-0.3709 2.00607,-0.40793 2.82284,-0.39538c0.36581,0.00563 0.61544,0.21465 0.59967,0.49867c-0.0122,0.21963 -0.00674,0.79674 -0.18007,1.3452c-0.20968,0.66348 -0.61405,1.30564 -0.76007,1.48933c-0.17877,0.22491 -0.6042,0.5661 -1.01821,0.83881c-0.37809,0.24904 -1.44734,0.40762 -1.71045,0.3706z" data-paper-data="{&quot;index&quot;:null}" fill="url(#color-62)" stroke="#5d5d5d" stroke-width="0" stroke-linecap="round"/><path d="M356.60018,201.66017c0,0 -3.72875,5.49963 -6.47905,10.75096c-1.72082,3.28569 -2.58003,6.59381 -3.38289,8.02688c-0.39671,0.70813 -0.88182,1.35768 -1.30641,1.86854c-0.56484,0.67962 -1.21922,1.11377 -1.21922,1.11377c0,0 -3.73738,-1.17227 -5.64523,-1.91583c-2.28427,-0.89029 -7.13559,-3.06541 -7.13559,-3.06541c0,0 1.20865,-1.27227 3.20439,-2.30785c1.28512,-0.66683 2.70639,-0.99415 3.90622,-1.77666c4.73111,-3.0855 18.05778,-12.69443 18.05778,-12.69443z" data-paper-data="{&quot;index&quot;:null}" fill="none" stroke="#202020" stroke-width="0.5" stroke-linecap="round"/><path d="M356.76181,158.33981c0,0 -13.32668,-9.60892 -18.05778,-12.69443c-1.19982,-0.78249 -2.6211,-1.10981 -3.90622,-1.77666c-1.99574,-1.03558 -3.20439,-2.30785 -3.20439,-2.30785c0,0 4.8513,-2.17513 7.13559,-3.0654c1.90785,-0.74357 5.64523,-1.91584 5.64523,-1.91584c0,0 0.65438,0.43416 1.21922,1.11377c0.4246,0.51085 0.90969,1.16042 1.30641,1.86854c0.80287,1.43309 1.66207,4.7412 3.38289,8.02688c2.75031,5.25133 6.47905,10.75096 6.47905,10.75096z" data-paper-data="{&quot;index&quot;:null}" fill="url(#color-63)" stroke="#000000" stroke-width="0.5" stroke-linecap="round"/><path d="M345.04244,145.80719c0,0 -0.48979,0.08843 -1.06601,0.07894c-1.09881,-0.01811 -5.04271,-0.17959 -5.04271,-0.17959c0,0 -3.15023,-1.37201 -4.41762,-2.06981c-1.04066,-0.57297 -2.79242,-1.96773 -2.79242,-1.96773l2.70528,-1.71147c0,0 4.83281,-0.16163 7.0011,-0.16163c1.07322,0 3.61237,1.37968 3.61237,2.21748c0,1.09584 0,3.79378 0,3.79378z" data-paper-data="{&quot;index&quot;:null}" fill="#a0a0aa" stroke="none" stroke-width="0.5" stroke-linecap="butt"/><path d="M344.14095,145.82703c0,0 -3.03762,0 -4.80866,0c-0.87135,0 -1.86539,-0.85151 -3.16297,-1.45867c-1.95797,-0.91619 -3.79958,-1.71875 -3.39045,-1.71875c1.5677,0 11.36208,0 11.36208,0v3.17741z" data-paper-data="{&quot;index&quot;:null}" fill="url(#color-64)" stroke="none" stroke-width="0.5" stroke-linecap="butt"/><path d="M342.02563,139.94277l-2.94244,-0.09395" data-paper-data="{&quot;index&quot;:null}" fill="none" stroke="#000000" stroke-width="0.5" stroke-linecap="round"/><path d="M343.36868,142.65909c0,0 -9.10383,0 -10.418,0c-0.30669,0 -1.19783,-0.53034 -1.19783,-0.9299c0,-0.49053 2.57004,-1.79675 2.57004,-1.79675h9.04579v2.72664z" data-paper-data="{&quot;index&quot;:null}" fill="url(#color-65)" stroke="none" stroke-width="0.5" stroke-linecap="butt"/><path d="M356.76181,158.33981c0,0 -13.32668,-9.60892 -18.05778,-12.69443c-1.19982,-0.78249 -2.6211,-1.10981 -3.90622,-1.77666c-1.99574,-1.03558 -3.20439,-2.30785 -3.20439,-2.30785c0,0 4.8513,-2.17513 7.13559,-3.0654c1.90785,-0.74357 5.64523,-1.91584 5.64523,-1.91584c0,0 0.65438,0.43416 1.21922,1.11377c0.4246,0.51085 0.90969,1.16042 1.30641,1.86854c0.80287,1.43309 1.66207,4.7412 3.38289,8.02688c2.75031,5.25133 6.47905,10.75096 6.47905,10.75096z" data-paper-data="{&quot;index&quot;:null}" fill="none" stroke="#000000" stroke-width="0.5" stroke-linecap="round"/><path d="M350.09306,150.68889l0.06081,2.79693l-4.07381,-2.79693z" data-paper-data="{&quot;index&quot;:null}" fill="url(#color-66)" stroke="url(#color-67)" stroke-width="0.5" stroke-linecap="butt"/><path d="M346.42762,148.11788l0.0608,2.79693l-3.95221,-2.73614z" data-paper-data="{&quot;index&quot;:null}" fill="url(#color-68)" stroke="url(#color-69)" stroke-width="0.5" stroke-linecap="butt"/><path d="M343.1878,145.97256l0.06081,2.73614l-3.70898,-2.67666z" data-paper-data="{&quot;index&quot;:null}" fill="url(#color-70)" stroke="url(#color-71)" stroke-width="0.5" stroke-linecap="butt"/><path d="M344.47487,145.94179c-0.72382,0.04229 -3.66541,-0.01398 -3.66541,-0.01398" data-paper-data="{&quot;index&quot;:null}" fill="none" stroke="#000000" stroke-width="0.5" stroke-linecap="round"/><path d="M341.59828,142.19786c0,0 0.5233,3.09608 0.10777,3.48481c-0.52814,0.49406 -2.69016,0.08568 -2.69016,0.08568" data-paper-data="{&quot;index&quot;:null}" fill="none" stroke="#737373" stroke-width="0.5" stroke-linecap="round"/><path d="M342.02323,140.05103c0.22976,-0.13565 0.71987,-0.22012 1.17523,-0.26964c0.30336,-0.03301 1.32483,0.11117 1.73374,0.36238c0.64004,0.3932 1.3813,0.97297 1.66522,1.33452c0.19865,0.25296 0.74881,1.1372 1.03407,2.05082c0.23583,0.7552 0.22841,1.5499 0.245,1.85233c0.02144,0.39111 -0.31816,0.67891 -0.81586,0.68667c-1.11124,0.01731 -3.03242,-0.03369 -3.84053,-0.54441c-0.62345,-0.39399 -1.21879,-1.65032 -1.59483,-2.59061c-0.24988,-0.6249 -0.3382,-1.43663 -0.21655,-1.81336c0.13663,-0.4231 0.34508,-0.90968 0.61447,-1.0687z" data-paper-data="{&quot;index&quot;:null}" fill="url(#color-72)" stroke="#737373" stroke-width="0.5" stroke-linecap="round"/><path d="M343.23965,140.69896c0.26308,-0.03702 1.33234,0.12156 1.71045,0.3706c0.41402,0.27271 0.83945,0.6139 1.01821,0.83881c0.14602,0.18369 0.5504,0.82585 0.76007,1.48933c0.17333,0.54844 0.16788,1.12555 0.18007,1.34519c0.01576,0.28403 -0.23386,0.49305 -0.59967,0.49867c-0.81678,0.01256 -2.22886,-0.02447 -2.82284,-0.39537c-0.45824,-0.28614 -0.89585,-1.19847 -1.17221,-1.88135c-0.18366,-0.4538 -0.24857,-1.0433 -0.15915,-1.31689c0.10042,-0.30724 0.25367,-0.66062 0.45164,-0.7761c0.13986,-0.0816 0.3734,-0.13631 0.63344,-0.17291z" data-paper-data="{&quot;index&quot;:null}" fill="url(#color-73)" stroke="#000000" stroke-width="0" stroke-linecap="round"/><path d="M356.76181,158.33981c0,0 -13.32668,-9.60892 -18.05778,-12.69443c-1.19982,-0.78249 -2.6211,-1.10981 -3.90622,-1.77666c-1.99574,-1.03558 -3.20439,-2.30785 -3.20439,-2.30785c0,0 4.8513,-2.17513 7.13559,-3.0654c1.90785,-0.74357 5.64523,-1.91584 5.64523,-1.91584c0,0 0.65438,0.43416 1.21922,1.11377c0.4246,0.51085 0.90969,1.16042 1.30641,1.86854c0.80287,1.43309 1.66207,4.7412 3.38289,8.02688c2.75031,5.25133 6.47905,10.75096 6.47905,10.75096z" data-paper-data="{&quot;index&quot;:null}" fill="none" stroke="#737373" stroke-width="0.5" stroke-linecap="round"/><path d="M271.04933,137.43135c0,0 2.7488,1.85428 3.96636,2.75696c1.1751,0.87119 3.09229,2.56799 3.09229,2.56799" data-paper-data="{&quot;index&quot;:null}" fill="none" stroke="#000000" stroke-width="0.5" stroke-linecap="round"/><path d="M278.108,217.2437c0,0 -1.9172,1.69681 -3.09229,2.56799c-1.21756,0.90268 -3.96637,2.75696 -3.96637,2.75696" data-paper-data="{&quot;index&quot;:null}" fill="none" stroke="#000000" stroke-width="0.5" stroke-linecap="round"/><path d="M141.7891,205.58808l-18.72403,-0.17337" data-paper-data="{&quot;index&quot;:null}" fill="none" stroke="#a8a8a8" stroke-width="0.5" stroke-linecap="round"/><path d="M237.86539,151.43254c0,0 -10.65661,1.95344 -17.34602,2.48859c-8.91568,0.71326 -31.41448,1.41224 -31.41448,1.41224" data-paper-data="{&quot;index&quot;:null}" fill="none" stroke="#a8a8a8" stroke-width="0.5" stroke-linecap="round"/><path d="M354.55623,223.68321c0,0 -2.8029,-0.31174 -4.08018,0.02438c-1.0146,0.267 -2.97848,1.83316 -2.97848,1.83316c0,0 0.45069,-1.05953 1.7582,-2.5795c2.0636,-2.39892 5.523,-5.94479 7.0894,-8.28236c2.78773,-4.16014 7.25113,-13.16236 7.25113,-13.16236c0,0 -2.89528,9.75632 -4.53725,13.78253c-1.28066,3.14023 -4.50281,8.38414 -4.50281,8.38414z" data-paper-data="{&quot;index&quot;:null}" fill="url(#color-74)" stroke="#000000" stroke-width="0" stroke-linecap="round"/><path d="M189.10489,204.66665c0,0 22.49879,0.699 31.41448,1.41225c6.68941,0.53516 17.34602,2.48859 17.34602,2.48859" data-paper-data="{&quot;index&quot;:null}" fill="none" stroke="#a8a8a8" stroke-width="0.5" stroke-linecap="round"/><path d="M146.72936,224.97171c0,0 -6.98078,-0.20386 -11.97583,-1.22037c-2.25769,-0.45945 -4.1097,-1.38053 -4.72812,-2.00782c-2.36065,-2.39454 -4.31499,-7.05531 -5.53265,-9.6358c-1.767,-3.74462 -1.76286,-7.04887 -1.76286,-7.04887c0,0 2.36588,4.54548 5.27988,8.84437c2.07344,3.05887 4.51,6.08068 6.18311,7.46396c3.0267,2.5024 12.53647,3.60452 12.53647,3.60452z" data-paper-data="{&quot;index&quot;:null}" fill="url(#color-75)" stroke="#000000" stroke-width="0.5" stroke-linecap="round"/><path d="M341.90222,133.14189c0,0 2.5713,1.5155 3.08205,2.15567c0.41028,0.51424 -0.2524,1.39102 -0.2524,1.39102" data-paper-data="{&quot;index&quot;:null}" fill="none" stroke="#000000" stroke-width="0.5" stroke-linecap="round"/><path d="M344.73189,223.31146c0,0 0.66269,0.87678 0.2524,1.39102c-0.51076,0.64016 -3.08205,2.15566 -3.08205,2.15566" data-paper-data="{&quot;index&quot;:null}" fill="none" stroke="#000000" stroke-width="0.5" stroke-linecap="round"/><g data-paper-data="{&quot;index&quot;:null}" stroke="#000000" stroke-width="0.5" stroke-linecap="round"><path d="M122.0744,156.13082c0,0 -0.90583,-0.0917 -0.73037,-1.06774c0.75031,-4.17443 4.27165,-15.46424 8.77975,-18.37455c4.5323,-2.92594 18.69928,-2.35287 18.69928,-2.35287c0,0 0.0942,0.59901 -1.73066,0.88622c-3.32011,0.52257 -9.84563,1.15741 -12.5689,3.37638c-2.19765,1.79067 -5.21978,5.42855 -7.66688,9.16178c-2.73479,4.1721 -4.78217,8.37078 -4.78217,8.37078z" data-paper-data="{&quot;index&quot;:null}" fill="url(#color-76)"/><path d="M146.72935,135.02829c0,0 -9.50977,1.10213 -12.53647,3.60452c-1.67311,1.38329 -4.10966,4.4051 -6.18311,7.46396c-2.91398,4.2989 -5.27988,8.84437 -5.27988,8.84437c0,0 -0.00415,-3.30424 1.76286,-7.04887c1.21767,-2.58049 3.172,-7.24124 5.53265,-9.6358c0.61842,-0.62729 2.47044,-1.54837 4.72812,-2.00781c4.99504,-1.01652 11.97583,-1.22038 11.97583,-1.22038z" data-paper-data="{&quot;index&quot;:null}" fill="url(#color-77)"/></g><path d="M357.80898,179.84786c0,0 -0.04506,-5.94684 -0.88635,-11.20359c-0.19792,-1.23669 -0.69594,-4.55116 -1.90443,-7.16591l0.24318,0.06513h2.93768c0,0 1.03658,5.91349 1.29939,8.92257c0.26905,3.08051 0.2966,9.35126 0.2966,9.35126v0.36536c0,0 -0.02756,6.27073 -0.2966,9.35126c-0.2628,3.00909 -1.29939,8.92256 -1.29939,8.92256h-2.93768l-0.24318,0.06513c1.2085,-2.61475 1.70651,-5.92922 1.90443,-7.16591c0.84129,-5.25675 0.88635,-11.20359 0.88635,-11.20359z" data-paper-data="{&quot;index&quot;:null}" fill="url(#color-78)" stroke="none" stroke-width="0.5" stroke-linecap="round"/><path d="M113.313,180.22928c0,-8.17713 0.59363,-10.85009 3.33758,-21.11384c2.19597,-8.21401 6.09785,-16.60772 8.34791,-20.2078c3.00966,-4.81546 8.95819,-6.66541 13.43562,-7.93458c1.385,-0.39258 2.61688,-0.76668 3.60382,-1.0768c1.53855,-0.48343 4.82807,-0.82856 7.68265,-0.84951c13.30046,-0.09762 112.90794,-0.82869 112.90794,-0.82869c0,0 29.18299,-0.60449 50.71452,-0.41974c7.17942,0.06161 13.50813,0.21095 17.62065,0.49974c7.02623,0.49337 14.82507,3.45264 18.70057,5.09976c1.54534,0.65679 3.62577,1.83273 4.87815,3.04229c0.73115,0.70616 1.49418,1.57652 2.07708,2.56212c2.63816,4.46084 4.6782,11.28259 6.03368,15.92684c2.23638,7.66239 2.69745,24.8668 2.69745,24.8668v0.40828c0,0 -0.46107,17.20441 -2.69745,24.8668c-1.3555,4.64425 -3.39552,11.46599 -6.03368,15.92684c-0.5829,0.98561 -1.34592,1.85595 -2.07708,2.56212c-1.2524,1.20956 -3.33283,2.3855 -4.87815,3.04229c-3.87549,1.64712 -11.67435,4.6064 -18.70057,5.09976c-4.11251,0.28877 -10.44123,0.43813 -17.62065,0.49974c-21.53153,0.18475 -50.71452,-0.41974 -50.71452,-0.41974c0,0 -108.19762,-0.79413 -112.90793,-0.82869c-2.85458,-0.02095 -6.14408,-0.36607 -7.68265,-0.84951c-0.98693,-0.31011 -2.21882,-0.6842 -3.60382,-1.0768c-4.47743,-1.26917 -10.42596,-3.11911 -13.43562,-7.93458c-2.25006,-3.60009 -6.15193,-11.99376 -8.34791,-20.2078c-2.74395,-10.26376 -3.33758,-12.47815 -3.33758,-20.65527z" data-paper-data="{&quot;index&quot;:null}" fill="none" stroke="#000000" stroke-width="0" stroke-linecap="round"/><g data-paper-data="{&quot;index&quot;:null}" stroke-linecap="round"><path d="M251.84178,231.73425c-0.35013,0.39264 -0.79739,0.83298 -1.35032,1.26853c-1.19563,0.9418 -2.71156,2.17876 -4.06676,2.8539c-0.39045,0.19451 -1.19862,0.8782 -2.23743,1.02605c-1.25601,0.17878 -2.7348,-0.1969 -2.7348,-0.1969c0,0 3.5354,-7.07083 4.48287,-8.96574c0.10151,-0.20301 0.59636,-1.38587 1.22749,-1.65112c0.67657,-0.28432 3.09308,1.05645 3.54651,1.40598c0.45129,0.34787 0.9691,1.04258 1.38186,1.6643c0.43559,0.65612 0.44158,1.82008 -0.24943,2.59498z" data-paper-data="{&quot;index&quot;:null}" fill="url(#color-79)" stroke="#000000" stroke-width="0"/><path d="M242.58973,236.6993c0,0 1.51395,-0.23403 2.60119,-0.93556c0.66338,-0.42805 2.65216,-1.76645 4.15371,-3.03715c1.05205,-0.89032 1.70955,-1.84088 1.76312,-2.22496c0.1339,-0.96011 -0.9206,-2.13672 -1.33907,-2.38766c-1.29405,-0.776 -3.27811,-1.18222 -3.27811,-1.18222c0,0 0.25858,-0.60959 1.13807,-0.5813c0.39964,0.01286 1.69326,0.36675 2.65096,1.05784c1.1226,0.81009 1.89943,2.01407 1.96621,2.63597c0.09653,0.89912 -0.7424,1.70793 -1.17699,2.08965c-1.67887,1.47473 -4.80133,3.37491 -5.94154,4.08134c-1.40222,0.86876 -2.53755,0.48405 -2.53755,0.48405z" fill="#a7a7a7" stroke="#a7a7a7" stroke-width="0.5"/></g><g data-paper-data="{&quot;index&quot;:null}" stroke-width="0" stroke-linecap="round"><path d="M252.09121,130.86075c-0.41276,0.62172 -0.93056,1.31643 -1.38186,1.6643c-0.45343,0.34951 -2.86995,1.6903 -3.54651,1.40598c-0.63114,-0.26524 -1.12597,-1.44809 -1.22749,-1.65112c-0.94746,-1.89493 -4.48287,-8.96574 -4.48287,-8.96574c0,0 1.47878,-0.37569 2.7348,-0.19691c1.03879,0.14788 1.84698,0.83152 2.23743,1.02605c1.35519,0.67516 2.87113,1.91212 4.06676,2.8539c0.55294,0.43555 1.00019,0.8759 1.35032,1.26853c0.69099,0.77492 0.68502,1.93886 0.24943,2.59498z" data-paper-data="{&quot;index&quot;:null}" fill="url(#color-80)" stroke="#000000"/><path d="M242.58973,123.3007c0,0 1.13534,-0.38471 2.53756,0.48406c1.14021,0.70645 4.26268,2.60662 5.94155,4.08134c0.43459,0.38173 1.27352,1.19055 1.17699,2.08965c-0.06678,0.62189 -0.84363,1.82588 -1.96621,2.63597c-0.95771,0.6911 -2.25131,1.04498 -2.65096,1.05784c-0.87948,0.0283 -1.13807,-0.5813 -1.13807,-0.5813c0,0 1.98406,-0.40622 3.27811,-1.18222c0.41849,-0.25095 1.47298,-1.42753 1.33907,-2.38766c-0.05357,-0.38408 -0.71106,-1.33463 -1.76311,-2.22495c-1.50155,-1.27071 -3.49035,-2.60912 -4.15372,-3.03715c-1.08724,-0.70154 -2.60119,-0.93556 -2.60119,-0.93556z" fill="#a7a7a7" stroke="#a7a7a7"/></g><path d="M344.06936,227.03157c0,0 -4.58534,3.37975 -6.00523,4.28475c-0.74692,0.47606 -1.88314,0.74301 -1.88314,0.74301l0.26005,-2.16714l5.89461,-3.46742z" data-paper-data="{&quot;index&quot;:null}" fill="url(#color-81)" stroke="#000000" stroke-width="0.5" stroke-linecap="round"/><path d="M342.33565,133.57524l-5.89461,-3.46742l-0.26006,-2.16714c0,0 1.13621,0.26694 1.88314,0.74301c1.41989,0.90498 6.00523,4.28475 6.00523,4.28475z" data-paper-data="{&quot;index&quot;:null}" fill="url(#color-82)" stroke="#000000" stroke-width="0.5" stroke-linecap="round"/><path d="M292.93947,180.57315c0,0 -0.65556,6.6403 -1.20948,9.76238c-0.50005,2.81846 -1.969,8.15258 -1.969,8.15258v-18.49287v0.00957v-18.49286c0,0 1.46893,5.33413 1.969,8.15258c0.55392,3.12208 1.20948,9.76239 1.20948,9.76239z" data-paper-data="{&quot;index&quot;:null}" fill="url(#color-83)" stroke="none" stroke-width="0.5" stroke-linecap="round"/><path d="M331.97674,141.39411c0,0 -4.23144,1.94578 -8.2024,1.68751c-3.83272,-0.24927 -12.49672,-2.13099 -21.71636,-3.13413c-14.78945,-1.60916 -31.00865,-2.51613 -31.00865,-2.51613" data-paper-data="{&quot;index&quot;:null}" fill="none" stroke="url(#color-84)" stroke-width="0.5" stroke-linecap="round"/><path d="M271.04933,222.56865c0,0 16.2192,-0.90696 31.00865,-2.51613c9.21963,-1.00314 17.88364,-2.88486 21.71636,-3.13413c3.97096,-0.25828 8.2024,1.68751 8.2024,1.68751" data-paper-data="{&quot;index&quot;:null}" fill="none" stroke="url(#color-85)" stroke-width="0.5" stroke-linecap="round"/><path d="M123.35713,205.15419c0,0 -2.61195,-3.22576 -3.04275,-8.44519c-0.42185,-5.11086 -0.97456,-11.93001 -0.99084,-16.01246c-0.01605,-4.0285 0.05295,-10.31153 0.77014,-15.63426c0.40991,-4.71595 3.18195,-10.65073 3.18195,-10.65073l2.80108,0.12169c0,0 -1.1035,12.26689 -0.68763,25.79712c0.55231,17.96884 0.73842,24.94553 0.73842,24.94553z" data-paper-data="{&quot;index&quot;:null}" fill="url(#color-86)" stroke="none" stroke-width="0" stroke-linecap="butt"/><path d="M200.25947,149.13485c0,0 -1.6083,-0.02769 -2.39639,-0.07273c-0.76725,-0.04386 -2.27128,-0.1619 -2.27128,-0.1619l6.33469,-7.38652c0,0 1.07137,-0.428 1.59891,-0.54023c0.51692,-0.10998 1.53511,-0.12658 1.53511,-0.12658z" data-paper-data="{&quot;index&quot;:null}" fill="#1a1a1a" stroke="#000000" stroke-width="0" stroke-linecap="round"/><path d="M266.60157,138.591l-15.76689,4.92169l5.28765,-4.98917z" data-paper-data="{&quot;index&quot;:null}" fill="url(#color-87)" stroke="#000000" stroke-width="0" stroke-linecap="round"/><path d="M245.50811,144.5518c0,0 -9.09295,3.90154 -15.29746,4.47601c-8.60172,0.79646 -31.65709,0.00272 -31.65709,0.00272l5.63455,-8.12785c0,0 11.78923,-1.25573 18.49337,-1.57881c8.73884,-0.42116 29.47252,-0.73279 29.47252,-0.73279z" data-paper-data="{&quot;index&quot;:null}" fill="url(#color-88)" stroke="#000000" stroke-width="0" stroke-linecap="round"/><path d="M197.09928,149.0218c0,0 -14.36964,-0.83873 -19.01645,-1.15798c-3.27543,-0.22503 -6.0646,-0.94143 -6.0646,-0.94143c0,0 22.03471,-1.29378 25.03965,-1.4702c0.65967,-0.03872 0.56296,-0.49071 0.14215,-0.76514c-0.61289,-0.39971 -2.25836,-1.47283 -2.25836,-1.47283l7.65721,-1.87819z" data-paper-data="{&quot;index&quot;:null}" fill="#1a1a1a" stroke="#000000" stroke-width="0" stroke-linecap="round"/><path d="M256.72165,138.51317l-5.95831,5.00959l-9.20209,2.53808c0,0 3.42032,-1.60961 4.32057,-2.30325c1.60586,-1.2373 5.49264,-5.16662 5.49264,-5.16662z" data-paper-data="{&quot;index&quot;:null}" fill="#1a1a1a" stroke="#000000" stroke-width="0" stroke-linecap="round"/><path d="M196.51887,145.74325l-1.20396,2.07082l-15.77193,-1.08357z" data-paper-data="{&quot;index&quot;:null}" fill="url(#color-89)" stroke="#000000" stroke-width="0" stroke-linecap="round"/><path d="M-2.63138,361.63479v-360.53868h484.97563v360.53869z" fill="none" stroke="none" stroke-width="0" stroke-linecap="butt"/></g></g></svg>