<svg version="1.1" xmlns="http://www.w3.org/2000/svg" xmlns:xlink="http://www.w3.org/1999/xlink" width="176.24999" height="124.01785" viewBox="0,0,176.24999,124.01785"><g transform="translate(-151.875,-117.99108)"><g data-paper-data="{&quot;isPaintingLayer&quot;:true}" fill-rule="nonzero" stroke-linecap="butt" stroke-linejoin="miter" stroke-miterlimit="10" stroke-dasharray="" stroke-dashoffset="0" style="mix-blend-mode: normal"><path d="M188.07389,189.30914c0,-7.90622 0,-14.25551 0,-18.69793c0,-3.2697 3.24532,-7.24873 6.87018,-7.24873c11.46379,0 70.5882,0 90.6157,0c4.00298,0 6.36637,3.87183 6.36637,7.08044c0,4.1896 0,10.26518 0,18.19305c0,4.95934 -2.56286,8.00158 -6.87124,8.00158c-20.52857,0 -78.74177,0 -90.11082,0c-3.62486,0 -6.87018,-3.0597 -6.87018,-7.32841z" fill-opacity="0.39608" fill="#33404f" stroke="none" stroke-width="0"/><text transform="translate(204.80578,184.53256) scale(0.27825,0.27825)" font-size="40" xml:space="preserve" fill="#ffffff" fill-rule="nonzero" stroke="#ffffff" stroke-width="2" stroke-linecap="butt" stroke-linejoin="miter" stroke-miterlimit="10" stroke-dasharray="" stroke-dashoffset="0" font-family="Sans Serif" font-weight="normal" text-anchor="start" style="mix-blend-mode: normal"><tspan x="0" dy="0">秘密汽车</tspan></text><text transform="translate(268.76392,184.36637) scale(0.27825,0.27825)" font-size="40" xml:space="preserve" fill="#e0e0e0" fill-rule="nonzero" stroke="#dfdfdf" stroke-width="2" stroke-linecap="butt" stroke-linejoin="miter" stroke-miterlimit="10" stroke-dasharray="" stroke-dashoffset="0" font-family="Sans Serif" font-weight="normal" text-anchor="start" style="mix-blend-mode: normal"><tspan x="0" dy="0">???</tspan></text><path d="M151.875,242.00893v-124.01785h176.24999v124.01785z" fill="none" stroke="none" stroke-width="NaN"/></g></g></svg>