<svg version="1.1" xmlns="http://www.w3.org/2000/svg" xmlns:xlink="http://www.w3.org/1999/xlink" width="52.9227" height="49.43896" viewBox="0,0,52.9227,49.43896"><defs><linearGradient x1="6242.93337" y1="-2002.8529" x2="6242.93337" y2="1192.94981" gradientUnits="userSpaceOnUse" id="color-1"><stop offset="0" stop-color="#000000"/><stop offset="1" stop-color="#000000" stop-opacity="0"/></linearGradient></defs><g transform="translate(-213.53865,-155.28052)"><g data-paper-data="{&quot;isPaintingLayer&quot;:true}" fill-rule="nonzero" stroke-linejoin="miter" stroke-miterlimit="10" stroke-dasharray="" stroke-dashoffset="0" style="mix-blend-mode: normal"><path d="M213.53865,155.28052h52.56782l0.35488,49.16619l-52.37715,0.27277z" fill="url(#color-1)" stroke="none" stroke-width="0" stroke-linecap="butt"/><path d="" fill="none" stroke="#cbfeff" stroke-width="2" stroke-linecap="round"/><path d="" fill="none" stroke="#cbfeff" stroke-width="2" stroke-linecap="round"/><path d="" data-paper-data="{&quot;index&quot;:null}" fill="none" stroke="#cbfeff" stroke-width="2" stroke-linecap="round"/><path d="" data-paper-data="{&quot;index&quot;:null}" fill="none" stroke="#cbfeff" stroke-width="2" stroke-linecap="round"/><path d="" data-paper-data="{&quot;index&quot;:null}" fill="none" stroke="#cbfeff" stroke-width="2" stroke-linecap="round"/><path d="" data-paper-data="{&quot;index&quot;:null}" fill="none" stroke="#cbfeff" stroke-width="2" stroke-linecap="round"/><path d="" data-paper-data="{&quot;index&quot;:null}" fill="none" stroke="#cbfeff" stroke-width="2" stroke-linecap="round"/><path d="" data-paper-data="{&quot;index&quot;:null}" fill="none" stroke="#cbfeff" stroke-width="2" stroke-linecap="round"/><path d="" data-paper-data="{&quot;index&quot;:null}" fill="none" stroke="#cbfeff" stroke-width="2" stroke-linecap="round"/><path d="" data-paper-data="{&quot;index&quot;:null}" fill="none" stroke="#cbfeff" stroke-width="2" stroke-linecap="round"/><path d="" data-paper-data="{&quot;index&quot;:null}" fill="none" stroke="#cbfeff" stroke-width="2" stroke-linecap="round"/><path d="M228.50079,175.74207c0,-4.21489 3.41684,-7.63173 7.63173,-7.63173c4.21489,0 7.63174,3.41684 7.63174,7.63173c0,4.21489 -3.41685,7.63173 -7.63174,7.63173c-4.21489,0 -7.63173,-3.41684 -7.63173,-7.63173z" fill="#b4b4b4" stroke="none" stroke-width="0" stroke-linecap="butt"/><path d="M222.93747,182.43105c0,-4.21489 3.41684,-7.63173 7.63173,-7.63173c4.21489,0 7.63173,3.41684 7.63173,7.63173c0,1.70778 12.85519,7.60683 12.85519,7.60683c0,0 -17.97982,0.02491 -20.48693,0.02491c-4.21489,0 -7.63173,-3.41684 -7.63173,-7.63173z" fill="#bbbbbb" stroke="none" stroke-width="0" stroke-linecap="butt"/><path d="M235.26745,177.66148c0,-4.21489 3.41684,-7.63173 7.63173,-7.63173c4.21489,0 7.63174,3.41684 7.63174,7.63173c0,4.21489 -3.41685,7.63173 -7.63174,7.63173c-4.21489,0 -7.63173,-3.41684 -7.63173,-7.63173z" fill="#adadad" stroke="none" stroke-width="0" stroke-linecap="butt"/><path d="M233.06557,182.30393c0,-4.21489 3.41684,-7.63173 7.63173,-7.63173c4.21489,0 7.63174,3.41684 7.63174,7.63173c0,4.21489 -3.41685,7.63173 -7.63174,7.63173c-4.21489,0 -7.63173,-3.41684 -7.63173,-7.63173z" fill="#b4b4b4" stroke="none" stroke-width="0" stroke-linecap="butt"/><path d="M242.19512,182.35054c0,-4.21489 3.41684,-7.63173 7.63173,-7.63173c4.21489,0 7.63174,3.41684 7.63174,7.63173c0,4.21489 -3.41685,7.63173 -7.63174,7.63173c-4.21489,0 -7.63173,-3.41684 -7.63173,-7.63173z" fill="#bdbdbd" stroke="none" stroke-width="0" stroke-linecap="butt"/></g></g></svg>