<svg version="1.1" xmlns="http://www.w3.org/2000/svg" xmlns:xlink="http://www.w3.org/1999/xlink" width="409.00863" height="246.3241" viewBox="0,0,409.00863,246.3241"><defs><radialGradient cx="116.89863" cy="146.64542" r="66.57984" gradientUnits="userSpaceOnUse" id="color-1"><stop offset="0" stop-color="#000000" stop-opacity="0.35686"/><stop offset="1" stop-color="#000000" stop-opacity="0"/></radialGradient><radialGradient cx="152.42202" cy="256.61915" r="59.98567" gradientUnits="userSpaceOnUse" id="color-2"><stop offset="0" stop-color="#000000" stop-opacity="0.24706"/><stop offset="1" stop-color="#000000" stop-opacity="0"/></radialGradient><radialGradient cx="254.52538" cy="222.58479" r="81.25718" gradientUnits="userSpaceOnUse" id="color-3"><stop offset="0" stop-color="#000000" stop-opacity="0.24706"/><stop offset="1" stop-color="#000000" stop-opacity="0"/></radialGradient><radialGradient cx="296.21745" cy="151.53789" r="81.25718" gradientUnits="userSpaceOnUse" id="color-4"><stop offset="0" stop-color="#000000" stop-opacity="0.24706"/><stop offset="1" stop-color="#000000" stop-opacity="0"/></radialGradient><radialGradient cx="371.09328" cy="159.19565" r="81.25718" gradientUnits="userSpaceOnUse" id="color-5"><stop offset="0" stop-color="#000000" stop-opacity="0.24706"/><stop offset="1" stop-color="#000000" stop-opacity="0"/></radialGradient><radialGradient cx="404.48956" cy="260.66078" r="44.8829" gradientUnits="userSpaceOnUse" id="color-6"><stop offset="0" stop-color="#000000" stop-opacity="0.24706"/><stop offset="1" stop-color="#000000" stop-opacity="0"/></radialGradient></defs><g transform="translate(-43.34173,-70.28071)"><g data-paper-data="{&quot;isPaintingLayer&quot;:true}" fill-rule="nonzero" stroke-linejoin="miter" stroke-miterlimit="10" stroke-dasharray="" stroke-dashoffset="0" style="mix-blend-mode: normal"><path d="M50.3188,146.64542c0,-36.77103 29.80881,-66.57984 66.57984,-66.57984c36.77103,0 66.57984,29.80881 66.57984,66.57984c0,36.77103 -29.80881,66.57984 -66.57984,66.57984c-36.77103,0 -66.57984,-29.80881 -66.57984,-66.57984z" fill="url(#color-1)" stroke="none" stroke-width="0" stroke-linecap="butt"/><path d="M92.43641,256.61915c0,-33.12917 26.8565,-59.98566 59.98567,-59.98566c33.12917,0 59.98567,26.85649 59.98567,59.98566c0,33.12917 -26.8565,59.98566 -59.98567,59.98566c-33.12917,0 -59.98567,-26.85649 -59.98567,-59.98566z" fill="url(#color-2)" stroke="none" stroke-width="0" stroke-linecap="butt"/><path d="M173.26818,222.58479c0,-44.8771 36.38008,-81.25718 81.25719,-81.25718c44.87711,0 81.25718,36.38008 81.25718,81.25718c0,44.87711 -36.38008,81.25718 -81.25718,81.25718c-44.8771,0 -81.25719,-36.38007 -81.25719,-81.25718z" fill="url(#color-3)" stroke="none" stroke-width="0" stroke-linecap="butt"/><path d="M214.96034,151.53789c0,-44.8771 36.38008,-81.25718 81.25719,-81.25718c44.8771,0 81.25718,36.38007 81.25718,81.25718c0,44.87711 -36.38008,81.25718 -81.25718,81.25718c-44.8771,0 -81.25719,-36.38008 -81.25719,-81.25718z" fill="url(#color-4)" stroke="none" stroke-width="0" stroke-linecap="butt"/><path d="M289.83601,159.19565c0,-44.8771 36.38008,-81.25718 81.25718,-81.25718c44.8771,0 81.25718,36.38007 81.25718,81.25718c0,44.87711 -36.38008,81.25718 -81.25718,81.25718c-44.8771,0 -81.25718,-36.38008 -81.25718,-81.25718z" fill="url(#color-5)" stroke="none" stroke-width="0" stroke-linecap="butt"/><path d="M359.60667,260.66078c0,-24.78814 20.09476,-44.88289 44.8829,-44.88289c24.78814,0 44.8829,20.09475 44.8829,44.88289c0,24.78814 -20.09476,44.88289 -44.8829,44.88289c-24.78814,0 -44.8829,-20.09475 -44.8829,-44.88289z" fill="url(#color-6)" stroke="none" stroke-width="0" stroke-linecap="butt"/><path d="M108.06051,177.76517v12.57204l10.35344,10.35344v3.69766h-8.13484l-27.8557,-27.85568v-20.70688l8.0116,-8.0116l-12.07902,-12.07902v-5.29998h-12.44878l-11.33948,11.33948l-8.75112,-8.75111l18.11852,-18.11853l11.09297,-0.2465h37.71611l7.39532,-6.16276h37.7161l12.07902,11.58598l-9.1209,10.59995l11.586,11.58598l-9.12089,11.09298h-13.31157l-23.17199,22.92548h-18.48828" fill-opacity="0.84706" fill="#babdbf" stroke="#ffffff" stroke-width="3.5" stroke-linecap="round"/><path d="M203.46008,102.57946l7.02555,7.02555v6.28601l-7.33369,7.33369h-11.52437l-6.80986,6.80986h-3.29709l-3.62062,-3.62062v-16.19266h-8.45839v-3.45114l4.93022,-5.66975h27.26798z" fill-opacity="0.62353" fill="#babdbf" stroke="#ffffff" stroke-width="3.5" stroke-linecap="round"/><path d="M152.67882,287.05149v12.07901l4.06742,4.06742v8.2581h-4.80696l-12.57204,-12.57203v-46.34398l-15.77668,-15.77668v-21.44641l9.12089,-9.12089l17.25576,0.1625l18.36503,17.463h8.2581l10.0453,10.04531v11.27785l-16.36214,16.36214v11.24704l-12.61825,12.61825h-4.97644" fill-opacity="0.79216" fill="#babdbf" stroke="#ffffff" stroke-width="3.5" stroke-linecap="round"/><path d="M218.71067,145.90956l31.09341,-30.84029h32.7859l8.87437,-8.87437h77.4043l6.65578,6.65578h35.74402l14.05111,14.05109l-14.29761,14.29761l-8.87438,-8.87437h-13.06505l-4.80695,4.80695v2.58837h12.69529l15.4069,15.4069l-39.44168,39.44168l8.87438,8.87438l-10.96972,10.96972v17.99527h-5.17672l-12.57204,-12.57204v-21.69293l-8.01159,-8.0116l-8.38136,8.38136v11.70924h-2.83486l-12.20228,-12.20228v-13.43481h-12.9418l-16.76272,16.76272l-17.99527,-17.99527l-3.08138,3.08139l21.44641,21.44641l5.17672,-5.17672h3.32789v17.13248l-16.02318,16.02318v13.06506l-9.73717,9.73717v9.73717l-13.20886,13.20886h-3.92362v-12.30498l-15.53015,-14.54414v-23.17198l-7.14881,-7.14881v-11.586h-3.45114l-7.88834,7.88834l-16.76272,-18.24176v-15.03715l18.15961,-18.15961h19.80301l7.18989,7.18989l4.39611,-4.3961h16.02318v-2.71161l-3.08139,-3.08139h-7.76508l-13.49644,-13.49646h-10.16856l-7.54938,7.54938z" fill-opacity="0.62353" fill="#babdbf" stroke="#ffffff" stroke-width="3.5" stroke-linecap="round"/><path d="M218.71067,145.90956l31.09341,-30.84029h32.7859l8.87437,-8.87437h77.4043l6.65578,6.65578h35.74402l14.05111,14.05109l-14.29761,14.29761l-8.87438,-8.87437h-13.06505l-4.80695,4.80695v2.58837h12.69529l15.4069,15.4069l-39.44168,39.44168l8.87438,8.87438l-10.96972,10.96972v17.99527h-5.17672l-12.57204,-12.57204v-21.69293l-8.01159,-8.0116l-8.38136,8.38136v11.70924h-2.83486l-12.20228,-12.20228v-13.43481h-12.9418l-16.76272,16.76272l-17.99527,-17.99527l-3.08138,3.08139l21.44641,21.44641l5.17672,-5.17672h3.32789v17.13248l-16.02318,16.02318v13.06506l-9.73717,9.73717v9.73717l-13.20886,13.20886h-3.92362v-12.30498l-15.53015,-14.54414v-23.17198l-7.14881,-7.14881v-11.586h-3.45114l-7.88834,7.88834l-16.76272,-18.24176v-15.03715l18.15961,-18.15961h19.80301l7.18989,7.18989l4.39611,-4.3961h16.02318v-2.71161l-3.08139,-3.08139h-7.76508l-13.49644,-13.49646h-10.16856l-7.54938,7.54938z" fill-opacity="0.62353" fill="#babdbf" stroke="#ffffff" stroke-width="3.5" stroke-linecap="round"/><path d="" fill="none" stroke="#ffffff" stroke-width="3.5" stroke-linecap="round"/><path d="M400.96774,274.98895h-11.78446l-5.1953,5.1953h-4.18158v-20.90792l13.0516,-13.0516h19.51405l6.33574,-6.33574h3.29458l11.65774,11.65775v15.71262l-20.27435,20.27434z" fill-opacity="0.62353" fill="#babdbf" stroke="#ffffff" stroke-width="3.5" stroke-linecap="round"/><path d="M414.65283,175.34231l-13.95102,14.27359h-7.90289l14.35423,-14.35423z" fill-opacity="0.62353" fill="#babdbf" stroke="#ffffff" stroke-width="3.5" stroke-linecap="round"/></g></g></svg>