<svg version="1.1" xmlns="http://www.w3.org/2000/svg" xmlns:xlink="http://www.w3.org/1999/xlink" width="320.95283" height="320.95283" viewBox="0,0,320.95283,320.95283"><defs><linearGradient x1="221.2322" y1="147.44332" x2="233.68742" y2="163.11737" gradientUnits="userSpaceOnUse" id="color-1"><stop offset="0" stop-color="#ffffff"/><stop offset="1" stop-color="#dde7dd"/></linearGradient><radialGradient cx="244.57318" cy="179.22453" r="34.69547" gradientUnits="userSpaceOnUse" id="color-2"><stop offset="0" stop-color="#5ab03b"/><stop offset="1" stop-color="#c3e4b7"/></radialGradient><radialGradient cx="259.88948" cy="201.35183" r="7.97511" gradientUnits="userSpaceOnUse" id="color-3"><stop offset="0" stop-color="#a0c7ff"/><stop offset="1" stop-color="#4487eb"/></radialGradient><radialGradient cx="225.53993" cy="161.84391" r="8.41629" gradientUnits="userSpaceOnUse" id="color-4"><stop offset="0" stop-color="#ff5151"/><stop offset="1" stop-color="#f4232d"/></radialGradient><radialGradient cx="242.78226" cy="179.87903" r="21.53685" gradientUnits="userSpaceOnUse" id="color-5"><stop offset="0" stop-color="#f9ed0e"/><stop offset="1" stop-color="#f9ed0e" stop-opacity="0"/></radialGradient><linearGradient x1="250.22383" y1="179.3918" x2="257.93652" y2="179.3918" gradientUnits="userSpaceOnUse" id="color-6"><stop offset="0" stop-color="#dbd10d"/><stop offset="1" stop-color="#dbd10d" stop-opacity="0"/></linearGradient><linearGradient x1="249.80492" y1="179.32375" x2="242.09222" y2="179.32375" gradientUnits="userSpaceOnUse" id="color-7"><stop offset="0" stop-color="#dbd10d"/><stop offset="1" stop-color="#dbd10d" stop-opacity="0"/></linearGradient><linearGradient x1="233.91596" y1="179.42582" x2="226.20327" y2="179.42582" gradientUnits="userSpaceOnUse" id="color-8"><stop offset="0" stop-color="#dbd10d"/><stop offset="1" stop-color="#dbd10d" stop-opacity="0"/></linearGradient><linearGradient x1="234.33487" y1="179.35778" x2="242.04756" y2="179.35778" gradientUnits="userSpaceOnUse" id="color-9"><stop offset="0" stop-color="#dbd10d"/><stop offset="1" stop-color="#dbd10d" stop-opacity="0"/></linearGradient></defs><g transform="translate(-79.52358,-19.52359)"><g data-paper-data="{&quot;isPaintingLayer&quot;:true}" fill-rule="nonzero" stroke-linecap="butt" stroke-linejoin="miter" stroke-miterlimit="10" stroke-dasharray="" stroke-dashoffset="0" style="mix-blend-mode: normal"><path d="M209.28418,174.32691c0,0 -1.79594,-11.90224 3.75171,-19.38711c5.90103,-7.96165 18.61798,-12.22691 19.22118,-11.46783c0.07107,0.08943 22.45866,1.4919 21.48337,3.18394c-1.57018,2.72412 -7.43564,5.66346 -13.73697,6.91652c-4.43056,0.88105 -9.37216,-0.30689 -11.90787,2.36001c-2.16278,2.27468 -2.31706,4.89098 -3.60845,7.65498c-2.31214,4.94874 -6.15299,7.2753 -7.05242,11.30941c-0.88327,3.96168 -8.15055,-0.56993 -8.15055,-0.56993z" fill="url(#color-1)" stroke="none" stroke-width="0"/><path d="M218.66485,156.9873c7.38424,-4.68382 14.51645,-11.27128 23.95167,-11.27128c8.34461,0 17.29862,-1.66856 22.70686,3.2554c2.56308,2.33357 2.64175,9.7349 4.61113,12.84636c3.37993,5.34004 7.24137,11.67033 7.24137,18.4576c0,7.65361 -4.13384,11.59465 -7.3383,16.90258c-1.69256,2.80358 -0.77138,7.95057 -3.98364,9.945c-5.04415,3.13184 -15.29996,5.3921 -21.50487,5.94247c-1.01898,0.09037 -0.69006,1.76926 -1.73254,1.76926c-6.65793,0 -13.69244,-5.42029 -18.96755,-8.68239c-5.14364,-3.1808 -5.35819,-8.88486 -8.02905,-13.29991c-2.44239,-4.03738 -7.56275,-6.64034 -7.56275,-12.57701c0,-9.65136 2.86778,-18.37867 10.60765,-23.28806z" data-paper-data="{&quot;index&quot;:null}" fill="url(#color-2)" stroke="#daf5d1" stroke-width="2"/><path d="M251.91436,201.35183c0,-4.40454 3.57058,-7.97512 7.97512,-7.97512c4.40454,0 7.97511,3.57058 7.97511,7.97512c0,4.40454 -3.57057,7.97511 -7.97511,7.97511c-4.40454,0 -7.97512,-3.57057 -7.97512,-7.97511z" fill="url(#color-3)" stroke="none" stroke-width="NaN"/><path d="M217.12364,161.84391c0,-4.64819 3.7681,-8.41628 8.41629,-8.41628c4.64819,0 8.41629,3.76809 8.41629,8.41628c0,4.64819 -3.7681,8.4163 -8.41629,8.4163c-4.64819,0 -8.41629,-3.76811 -8.41629,-8.4163z" fill="url(#color-4)" stroke="none" stroke-width="NaN"/><g stroke="none" stroke-width="0"><path d="M221.24541,179.87903c0,-11.89447 9.64238,-21.53685 21.53686,-21.53685c11.89448,0 21.53685,9.64237 21.53685,21.53685c0,11.89448 -9.64238,21.53686 -21.53685,21.53686c-11.89447,0 -21.53686,-9.64238 -21.53686,-21.53686z" fill="url(#color-5)"/><path d="M223.82935,182.18126v-5.26322l18.21742,-3.11345l19.55176,2.89106v5.93039l-19.32937,2.66868z" fill="#f9ed0e"/><path d="M250.01969,184.39977v-9.40353l7.91683,0.71449v7.36212z" fill="url(#color-6)"/><path d="M242.5005,185.25036v-11.34287l7.7127,1.02071v9.40352z" data-paper-data="{&quot;index&quot;:null}" fill="url(#color-7)"/><path d="M226.30534,182.49446v-6.0352l7.81476,-1.32691v8.7911z" data-paper-data="{&quot;index&quot;:null}" fill="url(#color-8)"/><path d="M233.92659,183.8554v-8.68903l7.71269,-1.22485v11.34286z" data-paper-data="{&quot;index&quot;:null}" fill="url(#color-9)"/></g><path d="M79.52359,340.47643v-320.95283h320.95283v320.95283z" fill="none" stroke="none" stroke-width="0"/></g></g></svg>