<svg version="1.1" xmlns="http://www.w3.org/2000/svg" xmlns:xlink="http://www.w3.org/1999/xlink" width="472.87786" height="360.53869" viewBox="0,0,472.87786,360.53869"><defs><linearGradient x1="115.33251" y1="128.91517" x2="115.33251" y2="180.25584" gradientUnits="userSpaceOnUse" id="color-1"><stop offset="0" stop-color="#a51110"/><stop offset="1" stop-color="#ff2b2b"/></linearGradient><linearGradient x1="151.8339" y1="135.56727" x2="151.8339" y2="147.16587" gradientUnits="userSpaceOnUse" id="color-2"><stop offset="0" stop-color="#bc302d"/><stop offset="1" stop-color="#9c4843"/></linearGradient><linearGradient x1="124.37262" y1="129.0857" x2="124.37262" y2="141.53711" gradientUnits="userSpaceOnUse" id="color-3"><stop offset="0" stop-color="#870e0e"/><stop offset="1" stop-color="#d81814"/></linearGradient><linearGradient x1="143.98779" y1="149.89495" x2="180.48918" y2="149.89495" gradientUnits="userSpaceOnUse" id="color-4"><stop offset="0" stop-color="#000000"/><stop offset="1" stop-color="#666666"/></linearGradient><linearGradient x1="255.87983" y1="137.78468" x2="297.83931" y2="137.78468" gradientUnits="userSpaceOnUse" id="color-5"><stop offset="0" stop-color="#666666"/><stop offset="1" stop-color="#000000"/></linearGradient><linearGradient x1="262.02026" y1="123.45701" x2="262.02026" y2="136.24954" gradientUnits="userSpaceOnUse" id="color-6"><stop offset="0" stop-color="#870e0e"/><stop offset="1" stop-color="#d81814"/></linearGradient><linearGradient x1="189.18809" y1="136.59068" x2="189.18809" y2="142.73111" gradientUnits="userSpaceOnUse" id="color-7"><stop offset="0" stop-color="#000000"/><stop offset="1" stop-color="#666666"/></linearGradient><linearGradient x1="115.40076" y1="231.08483" x2="115.40076" y2="179.74417" gradientUnits="userSpaceOnUse" id="color-8"><stop offset="0" stop-color="#a51110"/><stop offset="1" stop-color="#ff2b2b"/></linearGradient><linearGradient x1="151.90214" y1="224.43273" x2="151.90214" y2="212.8342" gradientUnits="userSpaceOnUse" id="color-9"><stop offset="0" stop-color="#bc302d"/><stop offset="1" stop-color="#9c4843"/></linearGradient><linearGradient x1="124.44081" y1="230.9143" x2="124.44081" y2="218.4629" gradientUnits="userSpaceOnUse" id="color-10"><stop offset="0" stop-color="#870e0e"/><stop offset="1" stop-color="#d81814"/></linearGradient><linearGradient x1="144.05604" y1="210.10512" x2="180.55737" y2="210.10512" gradientUnits="userSpaceOnUse" id="color-11"><stop offset="0" stop-color="#000000"/><stop offset="1" stop-color="#666666"/></linearGradient><linearGradient x1="255.94802" y1="222.21538" x2="297.90756" y2="222.21538" gradientUnits="userSpaceOnUse" id="color-12"><stop offset="0" stop-color="#666666"/><stop offset="1" stop-color="#000000"/></linearGradient><linearGradient x1="262.08845" y1="236.54299" x2="262.08845" y2="223.75046" gradientUnits="userSpaceOnUse" id="color-13"><stop offset="0" stop-color="#870e0e"/><stop offset="1" stop-color="#d81814"/></linearGradient><linearGradient x1="189.25634" y1="223.40933" x2="189.25634" y2="217.26889" gradientUnits="userSpaceOnUse" id="color-14"><stop offset="0" stop-color="#000000"/><stop offset="1" stop-color="#666666"/></linearGradient></defs><g transform="translate(-4.42566,-1.09609)"><g data-paper-data="{&quot;isPaintingLayer&quot;:true}" fill-rule="nonzero" stroke-linejoin="miter" stroke-miterlimit="10" stroke-dasharray="" stroke-dashoffset="0" style="mix-blend-mode: normal"><path d="M176.22502,128.91517l13.98647,1.0234l18.25069,2.38795l93.12962,-1.194l8.69891,-1.19394l10.06345,-0.68227l14.15707,1.19394l10.57518,2.89968l6.65211,4.09362l3.07022,4.77583l3.07021,9.38124l2.89962,10.74572l2.66083,9.61997l1.15991,8.01664l-249.26679,0.27289l3.07022,-18.9329l5.96989,-19.95637l5.79924,-5.96983l10.06346,-2.72908l15.35107,-2.72908l9.72232,-0.85287z" fill="url(#color-1)" stroke="none" stroke-width="1.1086" stroke-linecap="round"/><path d="M294.42796,164.22255l54.58148,2.21735l2.04681,13.81593h-56.62829z" fill="#262a26" stroke="none" stroke-width="1.1086" stroke-linecap="round"/><path d="M333.31729,166.4399l3.41135,0.17059l1.19394,13.81594h-5.11702z" fill="#040404" stroke="none" stroke-width="1.1086" stroke-linecap="round"/><path d="M339.45772,166.26936l3.58189,0.68227l3.07022,13.13367l-4.60536,0.17054z" fill="#040404" stroke="none" stroke-width="1.1086" stroke-linecap="round"/><path d="M288.11699,137.78468l33.26058,0.51167l13.30426,1.53513l8.52831,2.04675l3.92308,2.89968l2.55849,4.26416l3.41135,8.86951l2.72908,10.23399l2.04681,11.93972" fill="none" stroke="#9f1111" stroke-width="1.1086" stroke-linecap="round"/><path d="M342.18674,141.70771l1.02341,-6.65211" fill="none" stroke="#9f1111" stroke-width="1.1086" stroke-linecap="round"/><path d="M283.3411,131.64425l-4.26415,4.77589" fill="none" stroke="#9f1111" stroke-width="1.1086" stroke-linecap="round"/><path d="M122.66694,179.9147l1.0234,-8.01664l2.72908,-13.13367l2.72902,-9.38118l1.70567,-3.07021l2.72908,-1.19394l3.07021,-6.8227" fill="none" stroke="#9f1111" stroke-width="1.1086" stroke-linecap="round"/><path d="M149.44595,151.60062l-6.48157,0.17054l-2.89962,-1.19394l-7.6755,-4.43475" fill="none" stroke="#9f1111" stroke-width="1.1086" stroke-linecap="round"/><path d="M263.3848,205.15863h-1.87628z" fill="none" stroke="#040404" stroke-width="2.21719" stroke-linecap="round"/><path d="M256.5621,144.94846l-24.90279,3.24081l-52.53466,2.21734" fill="none" stroke="#9f1111" stroke-width="1.1086" stroke-linecap="round"/><path d="M208.97386,137.78468l-1.87621,-5.28763" fill="none" stroke="#9f1111" stroke-width="1.1086" stroke-linecap="round"/><path d="M295.96309,158.08212l44.68856,2.04681l13.13367,4.77589l-59.86904,-2.21734z" fill="#b42a27" stroke="none" stroke-width="1.1086" stroke-linecap="round"/><path d="M167.69664,141.70771l19.2741,-3.92302l18.25063,-2.21741l65.3272,0.51173l-19.78577,7.33437l-98.9289,3.75249z" fill="url(#color-2)" stroke="none" stroke-width="1.1086" stroke-linecap="round"/><path d="M130.85412,135.39674l15.00994,-3.58195l12.2808,-1.87621l20.97978,-0.68227l23.02658,2.72908l84.77183,-0.68227l20.97971,-1.19401l12.28086,-1.0234l14.83934,1.36454l10.91626,3.24081l2.72908,1.70568l-29.16695,-2.21741l-171.93161,2.38795l-23.19712,5.96983z" fill="url(#color-3)" stroke="none" stroke-width="1.1086" stroke-linecap="round"/><path d="M145.18179,166.26936l2.04681,-11.59859l1.19395,-3.75242l32.06663,-1.0234l-1.87627,30.01976l-34.62511,0.1706z" fill="url(#color-4)" stroke="none" stroke-width="1.1086" stroke-linecap="round"/><path d="M257.4149,160.12893l-1.53508,-15.69215l31.5549,-6.6521l4.09362,3.58189l2.72908,5.7993l2.55848,7.67551l1.02341,3.58189l-1.36454,3.41135l-1.53508,18.42123h-37.18365z" fill="url(#color-5)" stroke="none" stroke-width="1.1086" stroke-linecap="round"/><path d="M262.02026,123.96875l2.72908,-0.51174l12.11027,12.79253l-8.52837,-1.0234z" fill="url(#color-6)" stroke="none" stroke-width="1.1086" stroke-linecap="round"/><path d="M209.48559,137.10241l56.79883,-0.51173l11.25745,0.85287l-28.48475,5.28757l-34.28398,-0.51173l-25.24393,-0.68227l-0.34114,-2.38788z" fill="url(#color-7)" stroke="none" stroke-width="1.1086" stroke-linecap="butt"/><path d="M267.99009,134.20273l9.89285,2.38795l-11.08686,3.24081z" fill="#000000" stroke="none" stroke-width="1.1086" stroke-linecap="round"/><path d="M165.37695,230.9143l-9.72237,-0.85287l-15.35102,-2.72902l-10.06345,-2.72908l-5.7993,-5.9699l-5.96983,-19.95631l-3.07021,-18.93296l249.26673,0.27289l-1.15984,8.0167l-2.66083,9.61997l-2.89968,10.74572l-3.07015,9.38118l-3.07022,4.77589l-6.65216,4.09362l-10.57513,2.89962l-14.15707,1.19394l-10.06345,-0.68227l-8.69891,-1.19394l-93.12968,-1.19394l-18.25063,2.38789l-13.98654,1.0234z" fill="url(#color-8)" stroke="none" stroke-width="1.1086" stroke-linecap="round"/><path d="M294.49621,179.74417h56.62829l-2.04681,13.81593l-54.58148,2.21735z" fill="#262a26" stroke="none" stroke-width="1.1086" stroke-linecap="round"/><path d="M332.87381,179.57357h5.11703l-1.194,13.81594l-3.41135,0.17059z" fill="#040404" stroke="none" stroke-width="1.1086" stroke-linecap="round"/><path d="M341.57272,179.74417l4.60529,0.17054l-3.07021,13.13367l-3.58188,0.68227z" fill="#040404" stroke="none" stroke-width="1.1086" stroke-linecap="round"/><path d="M357.94714,179.9147l-2.04681,11.93972l-2.72902,10.23405l-3.41135,8.86945l-2.55854,4.26422l-3.92302,2.89961l-8.52837,2.04681l-13.30421,1.53508l-33.26057,0.51174" fill="none" stroke="#9f1111" stroke-width="1.1086" stroke-linecap="round"/><path d="M342.25499,218.2923l1.0234,6.65216" fill="none" stroke="#9f1111" stroke-width="1.1086" stroke-linecap="round"/><path d="M283.40936,228.35581l-4.26416,-4.77589" fill="none" stroke="#9f1111" stroke-width="1.1086" stroke-linecap="round"/><path d="M136.72167,221.70365l-3.07021,-6.82263l-2.72908,-1.19401l-1.70568,-3.07021l-2.72908,-9.38118l-2.72908,-13.13367l-1.0234,-8.01664" fill="none" stroke="#9f1111" stroke-width="1.1086" stroke-linecap="round"/><path d="M132.45745,213.85761l7.67557,-4.43475l2.89962,-1.19401l6.48156,0.1706" fill="none" stroke="#9f1111" stroke-width="1.1086" stroke-linecap="round"/><path d="M179.19289,209.59339l52.53461,2.21741l24.9028,3.24075" fill="none" stroke="#9f1111" stroke-width="1.1086" stroke-linecap="round"/><path d="M209.04211,222.21538l-1.87627,5.28757" fill="none" stroke="#9f1111" stroke-width="1.1086" stroke-linecap="round"/><path d="M293.98447,197.31259l59.86911,-2.21741l-13.13367,4.77589l-44.68862,2.04681z" fill="#b42a27" stroke="none" stroke-width="1.1086" stroke-linecap="round"/><path d="M151.90214,212.8342l98.92891,3.75242l19.78577,7.33443l-65.3272,0.51167l-18.25069,-2.21735l-19.2741,-3.92309z" fill="url(#color-9)" stroke="none" stroke-width="1.1086" stroke-linecap="round"/><path d="M124.44081,218.4629l23.19712,5.96983l171.93162,2.38795l29.16701,-2.21735l-2.72908,1.70567l-10.91632,3.24076l-14.83935,1.36454l-12.28079,-1.0234l-20.97978,-1.19401l-84.77184,-0.68221l-23.02652,2.72902l-20.97977,-0.68227l-12.28086,-1.87621l-15.00988,-3.58189z" fill="url(#color-10)" stroke="none" stroke-width="1.1086" stroke-linecap="round"/><path d="M144.05604,179.40303l34.65921,0.34114l1.84212,30.36095l-32.06657,-1.0234l-1.19401,-3.75249l-2.04681,-11.59859z" fill="url(#color-11)" stroke="none" stroke-width="1.1086" stroke-linecap="round"/><path d="M257.82429,179.74417h37.18359l1.53514,18.42123l1.36454,3.41135l-1.0234,3.58189l-2.55855,7.67557l-2.72902,5.79923l-4.09362,3.58195l-31.55496,-6.6521l1.53514,-15.69221z" fill="url(#color-12)" stroke="none" stroke-width="1.1086" stroke-linecap="round"/><path d="M268.39942,224.77387l8.52838,-1.0234l-12.11027,12.79253l-2.72908,-0.51167z" fill="url(#color-13)" stroke="none" stroke-width="1.1086" stroke-linecap="round"/><path d="M189.25634,220.85084l0.34113,-2.38795l25.24393,-0.68227l34.28398,-0.51173l28.48468,5.28762l-11.25739,0.85281l-56.79889,-0.51167z" fill="url(#color-14)" stroke="none" stroke-width="1.1086" stroke-linecap="butt"/><path d="M266.86434,220.16857l11.08686,3.24076l-9.89291,2.38795z" fill="#000000" stroke="none" stroke-width="1.1086" stroke-linecap="round"/><path d="M4.42566,361.63478v-360.53868h472.87786v360.53869z" fill="none" stroke="none" stroke-width="0" stroke-linecap="butt"/></g></g></svg>