<svg version="1.1" xmlns="http://www.w3.org/2000/svg" xmlns:xlink="http://www.w3.org/1999/xlink" width="35.55757" height="35.55757" viewBox="0,0,35.55757,35.55757"><defs><radialGradient cx="240.2116" cy="180.36455" r="17.77878" gradientUnits="userSpaceOnUse" id="color-1"><stop offset="0" stop-color="#ffd92d"/><stop offset="1" stop-color="#ffd117"/></radialGradient></defs><g transform="translate(-222.43281,-162.58577)"><g data-paper-data="{&quot;isPaintingLayer&quot;:true}" fill-rule="nonzero" stroke-linejoin="miter" stroke-miterlimit="10" stroke-dasharray="" stroke-dashoffset="0" style="mix-blend-mode: normal"><path d="" fill="none" stroke="#000000" stroke-width="5.5" stroke-linecap="round"/><path d="" fill="none" stroke="#000000" stroke-width="5.5" stroke-linecap="round"/><path d="" data-paper-data="{&quot;index&quot;:null}" fill="none" stroke="#9f8200" stroke-width="2.5" stroke-linecap="round"/><path d="M222.43281,180.36455c0,-9.81896 7.95983,-17.77878 17.77878,-17.77878c9.81896,0 17.77879,7.95983 17.77879,17.77878c0,9.81895 -7.95983,17.77879 -17.77879,17.77879c-9.81896,0 -17.77878,-7.95984 -17.77878,-17.77879z" fill="url(#color-1)" stroke="#f1f1f1" stroke-width="0" stroke-linecap="butt"/><path d="M235.68634,171.30702v7.26409" fill="none" stroke="#9f8200" stroke-width="4" stroke-linecap="round"/><path d="M244.37305,171.35534c0,0 0,3.41259 0,4.746c0,0.97126 0,2.51809 0,2.51809" fill="none" stroke="#9f8200" stroke-width="4" stroke-linecap="round"/><path d="M232.07562,186.38972l0.08512,-2.84811c0,0 5.10728,1.27528 7.73964,1.27528c2.74168,0 8.39582,-1.27528 8.39582,-1.27528l0.25535,2.76299c0,0 -4.23143,1.4388 -8.55359,1.45199c-4.49238,0.01371 -7.92234,-1.36687 -7.92234,-1.36687z" fill="#ffffff" stroke="none" stroke-width="NaN" stroke-linecap="butt"/><path d="M249.23291,183.74272c0,0 -5.29248,1.31101 -9.12264,1.33569c-4.01208,0.02587 -9.13576,-1.13936 -9.13576,-1.13936" fill="none" stroke="#9f8200" stroke-width="2.5" stroke-linecap="round"/><path d="M230.09103,184.82251" fill="none" stroke="#000000" stroke-width="5.5" stroke-linecap="round"/><path d="M249.13473,183.84088c0,0 0.32382,7.65774 -8.93692,7.60773c-8.76971,-0.04737 -9.20275,-7.09702 -9.20275,-7.09702" fill="none" stroke="#9f8200" stroke-width="2.5" stroke-linecap="round"/></g></g></svg>