<svg version="1.1" xmlns="http://www.w3.org/2000/svg" xmlns:xlink="http://www.w3.org/1999/xlink" width="79.2" height="79.2" viewBox="0,0,79.2,79.2"><defs><radialGradient cx="240" cy="180" r="8.61111" gradientUnits="userSpaceOnUse" id="color-1"><stop offset="0" stop-color="#af6600"/><stop offset="1" stop-color="#af6600" stop-opacity="0"/></radialGradient></defs><g transform="translate(-200.4,-140.4)"><g data-paper-data="{&quot;isPaintingLayer&quot;:true}" fill-rule="nonzero" stroke-linecap="butt" stroke-linejoin="miter" stroke-miterlimit="10" stroke-dasharray="" stroke-dashoffset="0" style="mix-blend-mode: normal"><path d="M231.38889,180c0,-4.67136 3.85533,-8.45825 8.61111,-8.45825c4.75579,0 8.61111,3.78689 8.61111,8.45825c0,4.67136 -3.85533,8.45825 -8.61111,8.45825c-4.75579,0 -8.61111,-3.78689 -8.61111,-8.45825z" fill="url(#color-1)" stroke="none" stroke-width="0"/><path d="M233.02519,180c0,-3.85208 3.12273,-6.97481 6.97481,-6.97481c3.85208,0 6.97481,3.12273 6.97481,6.97481c0,3.85208 -3.12273,6.97481 -6.97481,6.97481c-3.85208,0 -6.97481,-3.12273 -6.97481,-6.97481z" fill="#f7b400" stroke="#f79100" stroke-width="1"/><path d="M233.56172,180c0,-3.55577 2.88252,-6.43828 6.43828,-6.43828c3.55577,0 6.43828,2.88252 6.43828,6.43828c0,3.55577 -2.88252,6.43828 -6.43828,6.43828c-3.55577,0 -6.43828,-2.88252 -6.43828,-6.43828z" fill="#f7efd7" stroke="none" stroke-width="0"/><path d="M234.13401,180c0,-3.2397 2.6263,-5.866 5.866,-5.866c3.2397,0 5.866,2.6263 5.866,5.866c0,3.2397 -2.6263,5.866 -5.866,5.866c-3.2397,0 -5.866,-2.6263 -5.866,-5.866z" fill="#f7b400" stroke="none" stroke-width="0"/><path d="M235.07829,180c0,-2.71819 2.20353,-4.92171 4.92171,-4.92171c2.71819,0 4.92171,2.20353 4.92171,4.92171c0,2.71819 -2.20352,4.92171 -4.92171,4.92171c-2.71819,0 -4.92171,-2.20353 -4.92171,-4.92171z" fill="#f7efd7" stroke="none" stroke-width="0"/><path d="M200.4,219.6v-79.2h79.2v79.2z" fill="none" stroke="none" stroke-width="0"/></g></g></svg>