<svg version="1.1" xmlns="http://www.w3.org/2000/svg" xmlns:xlink="http://www.w3.org/1999/xlink" width="177" height="170" viewBox="0,0,177,170"><g transform="translate(-156.5,-96)"><g data-paper-data="{&quot;isPaintingLayer&quot;:true}" stroke-miterlimit="10" stroke-dasharray="" stroke-dashoffset="0" style="mix-blend-mode: normal"><path d="M229.16667,212.79698v-18.66667h24.66667v18.66667z" fill="#e2d07c" fill-rule="nonzero" stroke="none" stroke-width="0" stroke-linecap="butt" stroke-linejoin="miter"/><path d="M163.5,231.79698c0,0 1.35868,-5.22843 2.00079,-7.69937c0.59603,-2.29362 4.56166,-6.63396 8.0273,-6.63396c14.07979,0 108.16953,0 133.51685,0c4.0071,0 6.96238,3.94175 7.4884,6.13464c0.6081,2.5351 1.96666,8.19869 1.96666,8.19869z" fill="#f6e288" fill-rule="nonzero" stroke="none" stroke-width="0" stroke-linecap="butt" stroke-linejoin="miter"/><path d="M234.21242,159.46364v-12.21784h11.91507v12.21784z" fill="#e2d07c" fill-rule="nonzero" stroke="none" stroke-width="0" stroke-linecap="butt" stroke-linejoin="miter"/><g fill-rule="evenodd"><path d="M244.06222,128.24348c0.11492,-0.08093 0.30643,-0.04046 0.34473,0.1214l0.99589,4.3299c0,0 2.45142,1.90193 3.17917,3.23733c1.2257,2.22566 1.26401,4.04664 1.26401,4.04664c0,0 2.71954,0.8498 3.17917,3.15639c0.45964,2.30659 -1.2257,6.67696 -8.42674,8.17423c-7.20102,1.49726 -12.98484,-0.56653 -15.7044,-5.17971c-2.71954,-4.61318 1.57044,-10.11662 1.34062,-9.79288l-0.80437,-7.2435c-0.0383,-0.16187 0.15319,-0.28326 0.30642,-0.20232l4.63472,3.19685c0,0 1.72366,-0.68793 3.52392,-0.76887c1.0725,-0.08093 1.99179,0.00001 2.87274,0.16187z" fill="#dece8c" stroke="#ab9f67" stroke-width="1" stroke-linecap="butt" stroke-linejoin="miter"/><path d="M249.73111,140.14063c0,0 2.64292,0.7284 3.10256,3.03499c0.45964,2.30659 -1.37892,6.47464 -8.50334,7.93143c-9.2694,2.02333 -13.67429,-3.80385 -11.10797,-8.09331c2.56632,-4.32992 6.97122,-0.64746 10.18868,-0.89025c2.75784,-0.20234 3.06428,-2.75171 6.32006,-1.98287z" fill="#f4e28e" stroke="none" stroke-width="0" stroke-linecap="butt" stroke-linejoin="miter"/><path d="M237.66556,144.47055c0,-0.16186 0.1532,-0.28328 0.30643,-0.2428c0.72777,0.28326 2.79615,0.93074 5.09435,1.09261c2.06837,0.12141 3.29409,0.00001 3.86864,-0.12141c0.19152,-0.04046 0.34474,0.16186 0.26813,0.3642c-0.34473,1.0926 -1.80025,4.12759 -5.8221,3.88479c-3.48561,-0.40465 -3.83034,-2.99452 -3.71543,-4.97738z" fill="#ffeea2" stroke="#001026" stroke-width="0" stroke-linecap="round" stroke-linejoin="round"/><path d="M243.25785,141.07137c0.80437,0 1.64704,0.08093 1.68536,0.36421c0.0383,0.56653 -0.53625,1.69959 -1.14909,1.74005c-0.68945,0.08093 -2.29821,-0.93074 -2.29821,-1.57819c-0.0383,-0.4856 0.99589,-0.52607 1.76196,-0.52607z" fill="#b3a668" stroke="#001026" stroke-width="0" stroke-linecap="round" stroke-linejoin="round"/><path d="M247.77765,136.33678c1.11079,1.82099 1.1491,3.88479 0.0766,4.61318c-1.0725,0.72839 -2.83444,-0.1214 -3.98354,-1.94239c-1.11079,-1.82099 -1.14911,-3.88479 -0.0766,-4.61318c1.0725,-0.76887 2.87274,0.1214 3.98355,1.94239z" fill="#ffeb94" stroke="#001026" stroke-width="0" stroke-linecap="round" stroke-linejoin="round"/><path d="M247.62443,138.64337c0,0.44513 -0.30643,0.80934 -0.68945,0.80934c-0.38302,0 -0.68945,-0.3642 -0.68945,-0.80934c0,-0.44513 0.30643,-0.80933 0.68945,-0.80933c0.38302,0 0.68945,0.3642 0.68945,0.80933" fill="#b3a668" stroke="none" stroke-width="0" stroke-linecap="butt" stroke-linejoin="miter"/><path d="M238.27841,137.46984c1.14909,1.78053 1.0725,3.96571 0.0383,4.73458c-1.26401,0.76887 -2.94935,0.20233 -4.09844,-1.5782c-1.18741,-1.78053 -1.26401,-4.08713 -0.0766,-4.97738c1.18741,-0.93073 2.98766,0.04047 4.13676,1.821z" fill="#ffeb94" stroke="#001026" stroke-width="0" stroke-linecap="round" stroke-linejoin="round"/><path d="M238.04859,139.81691c0,0.44513 -0.30643,0.80933 -0.68945,0.80933c-0.38302,0 -0.68945,-0.3642 -0.68945,-0.80933c0,-0.44513 0.30643,-0.80935 0.68945,-0.80935c0.38302,0.04046 0.68945,0.3642 0.68945,0.80935" fill="#b3a668" stroke="none" stroke-width="0" stroke-linecap="butt" stroke-linejoin="miter"/></g><path d="M270.42878,178.29698c0,0 -0.06424,-22.11471 -0.43464,-24.00789c-0.3704,-1.89318 -3.07394,-1.03317 -2.62597,-1.03317c0.19607,0 -4.38383,0.14748 -3.5059,-0.62893c6.12975,-5.42101 9.73291,-0.23287 9.60901,1.31772c-0.13555,1.69634 0.21733,24.35228 0.21733,24.35228z" data-paper-data="{&quot;index&quot;:null}" fill="#9dd0d5" fill-rule="nonzero" stroke="none" stroke-width="0" stroke-linecap="butt" stroke-linejoin="miter"/><path d="M207.74641,178.63031c0,0 0.35287,-22.65595 0.21733,-24.35228c-0.1239,-1.55059 3.47926,-6.73872 9.60901,-1.31771c0.87793,0.77642 -3.70197,0.62893 -3.5059,0.62893c0.44798,0 -2.25557,-0.86001 -2.62596,1.03317c-0.3704,1.89318 -0.43464,24.00789 -0.43464,24.00789z" fill="#9dd0d5" fill-rule="nonzero" stroke="none" stroke-width="0" stroke-linecap="butt" stroke-linejoin="miter"/><path d="M233.26588,178.79698v-15.12963h14.7547v15.12963z" fill="#e2d07c" fill-rule="nonzero" stroke="none" stroke-width="0" stroke-linecap="butt" stroke-linejoin="miter"/><path d="M290.01088,210.13031c0,0 -0.09327,-27.75141 -0.63103,-30.5c-0.53776,-2.74859 -4.46286,-1.5 -3.81247,-1.5c0.28465,0 -6.3646,0.21412 -5.08999,-0.91311c8.89939,-7.87041 14.13059,-0.33809 13.9507,1.91311c-0.1968,2.4628 0.31552,31 0.31552,31z" data-paper-data="{&quot;index&quot;:null}" fill="#9dd0d5" fill-rule="nonzero" stroke="none" stroke-width="0" stroke-linecap="butt" stroke-linejoin="miter"/><path d="M188.5,209.96365c0,0 0.51231,-28.5372 0.31551,-31c-0.17989,-2.25119 5.05132,-9.78352 13.95071,-1.91311c1.2746,1.12723 -5.37464,0.91311 -5.08999,0.91311c0.65039,0 -3.27471,-1.24859 -3.81247,1.5c-0.53776,2.74859 -0.63103,30.5 -0.63103,30.5z" fill="#9dd0d5" fill-rule="nonzero" stroke="none" stroke-width="0" stroke-linecap="butt" stroke-linejoin="miter"/><path d="M195.44133,177.46365h90.8683c0,0 -8.17889,24.21092 -26.05329,24.62807c-0.25863,0.00604 -0.51281,0.0386 -0.76548,0.0386c-12.92565,0 -28.73222,0 -36.28422,0c-16.19651,0 -27.76531,-24.66667 -27.76531,-24.66667z" fill="#e8d580" fill-rule="nonzero" stroke="none" stroke-width="0" stroke-linecap="butt" stroke-linejoin="miter"/><path d="M218.00065,209.46365c0,0 0.29385,-28.5372 0.18098,-31c-0.10318,-2.25119 2.89739,-9.78351 8.002,-1.91311c0.7311,1.12723 -3.08285,0.91311 -2.91958,0.91311c0.37306,0 -1.87834,-1.24859 -2.1868,1.5c-0.30845,2.74859 -0.36196,30.5 -0.36196,30.5z" fill="#9dd0d5" fill-rule="nonzero" stroke="none" stroke-width="0" stroke-linecap="butt" stroke-linejoin="miter"/><path d="M264.7369,209.63031c0,0 -0.0535,-27.75141 -0.36195,-30.5c-0.30845,-2.74859 -2.55985,-1.5 -2.1868,-1.5c0.16328,0 -3.65068,0.21412 -2.91958,-0.91311c5.10461,-7.87041 8.10519,-0.33809 8.002,1.91311c-0.11288,2.4628 0.18098,31 0.18098,31z" data-paper-data="{&quot;index&quot;:null}" fill="#9dd0d5" fill-rule="nonzero" stroke="none" stroke-width="0" stroke-linecap="butt" stroke-linejoin="miter"/><path d="M211.53259,153.13494h57.42372c0,0 -5.1686,15.29996 -16.46423,15.56357c-0.16345,0.00381 -0.32407,0.02439 -0.48374,0.02439c-8.16829,0 -18.15716,0 -22.9296,0c-10.23529,0 -17.54614,-15.58797 -17.54614,-15.58797z" fill="#f0dc84" fill-rule="nonzero" stroke="none" stroke-width="0" stroke-linecap="butt" stroke-linejoin="miter"/><path d="M174.83334,221.46365c0,0 1.19588,-5.22843 1.76105,-7.69937c0.52461,-2.29362 4.01505,-6.63396 7.06543,-6.63396c12.39266,0 95.20804,0 117.5181,0c3.52695,0 6.12811,3.94175 6.59109,6.13464c0.53524,2.53509 1.73101,8.1987 1.73101,8.1987z" fill="#e8d580" fill-rule="nonzero" stroke="none" stroke-width="0" stroke-linecap="butt" stroke-linejoin="miter"/><path d="M156.5,266v-170h177v170z" fill="none" fill-rule="nonzero" stroke="none" stroke-width="none" stroke-linecap="butt" stroke-linejoin="miter"/></g></g></svg>