<svg version="1.1" xmlns="http://www.w3.org/2000/svg" xmlns:xlink="http://www.w3.org/1999/xlink" width="877.97602" height="657.26933" viewBox="0,0,877.97602,657.26933"><g transform="translate(198.5,144)"><g data-paper-data="{&quot;isPaintingLayer&quot;:true}" fill-rule="nonzero" stroke-linejoin="miter" stroke-miterlimit="10" stroke-dasharray="" stroke-dashoffset="0" style="mix-blend-mode: normal"><path d="M-198.5,513.26933v-657.26933h877.97602v657.26933z" fill="none" stroke="none" stroke-width="0" stroke-linecap="butt"/><path d="" data-paper-data="{&quot;index&quot;:null}" fill="#9a9a9a" stroke="none" stroke-width="0" stroke-linecap="butt"/><path d="" data-paper-data="{&quot;index&quot;:null}" fill="none" stroke="#909090" stroke-width="7.5" stroke-linecap="round"/><path d="" data-paper-data="{&quot;index&quot;:null}" fill="none" stroke="#bcbcbc" stroke-width="30.5" stroke-linecap="round"/><path d="" data-paper-data="{&quot;index&quot;:null}" fill="none" stroke="#909090" stroke-width="7.5" stroke-linecap="round"/><path d="" data-paper-data="{&quot;index&quot;:null}" fill="none" stroke="#bcbcbc" stroke-width="30.5" stroke-linecap="round"/><path d="" fill="none" stroke="#909090" stroke-width="7.5" stroke-linecap="round"/><path d="" fill="none" stroke="#bcbcbc" stroke-width="30.5" stroke-linecap="round"/><path d="M-198.5,513.26933v-657.26933h877.97602v657.26933z" fill="none" stroke="none" stroke-width="0" stroke-linecap="butt"/><path d="" data-paper-data="{&quot;index&quot;:null}" fill="none" stroke="#909090" stroke-width="7.5" stroke-linecap="round"/><path d="" data-paper-data="{&quot;index&quot;:null}" fill="none" stroke="#bcbcbc" stroke-width="30.5" stroke-linecap="round"/><path d="" data-paper-data="{&quot;index&quot;:null}" fill="none" stroke="#909090" stroke-width="7.5" stroke-linecap="round"/><path d="" data-paper-data="{&quot;index&quot;:null}" fill="none" stroke="#bcbcbc" stroke-width="30.5" stroke-linecap="round"/><path d="M-198.5,513.26933v-657.26933h877.97602v657.26933z" fill="none" stroke="none" stroke-width="0" stroke-linecap="butt"/><g fill="#ffa000" stroke="none" stroke-width="0" stroke-linecap="butt"><path d="M22.92387,13.07884c0,-8.39179 6.80291,-15.1947 15.19469,-15.1947c8.3918,0 15.19471,6.8029 15.19471,15.1947c0,8.3918 -6.80291,15.1947 -15.1947,15.1947c-8.3918,0 -15.19469,-6.8029 -15.19469,-15.1947z"/></g><path d="M37.83807,23.32955c0,0 179.76503,19.57183 252.56334,58.89705c73.91538,39.92866 162.1843,249.98535 162.1843,249.98535c0,0 -299.19243,77.20917 -314.80602,86.05126c-1.41524,0.80146 -2.31527,-2.02218 -2.31527,-2.02218c0,0 -20.9774,-29.68502 -47.97793,-42.98033c-26.57856,-13.08753 -49.33483,-22.06689 -49.33483,-22.06689z" fill="#9a9a9a" stroke="none" stroke-width="0" stroke-linecap="butt"/><path d="M38.14314,30.87113c0,0 125.40107,2.49817 242.29286,69.87862c116.8918,67.38045 146.84849,216.22031 156.97283,234.75824" fill="none" stroke="#909090" stroke-width="7.5" stroke-linecap="round"/><path d="M37.887,329.59752c0,0 30.17401,-5.00727 65.82688,18.43565c35.65287,23.44292 45.16524,65.20266 45.16524,65.20266" fill="none" stroke="#909090" stroke-width="7.5" stroke-linecap="round"/><path d="M38.24009,13.05002c0,0 110.46065,-6.36733 255.87889,73.57132c122.39722,77.45399 157.94989,239.48634 157.94989,239.48634" fill="none" stroke="#bcbcbc" stroke-width="30.5" stroke-linecap="round"/><path d="M38.68182,346.30499c0,0 26.72694,-0.7838 55.5652,16.50907c28.42035,17.04227 36.92925,54.83473 36.92925,54.83473" fill="none" stroke="#bcbcbc" stroke-width="30.5" stroke-linecap="round"/></g></g></svg>