<svg version="1.1" xmlns="http://www.w3.org/2000/svg" xmlns:xlink="http://www.w3.org/1999/xlink" width="292.71415" height="170.57135" viewBox="0,0,292.71415,170.57135"><defs><linearGradient x1="238.37135" y1="134.131" x2="238.37135" y2="206.88324" gradientUnits="userSpaceOnUse" id="color-1"><stop offset="0" stop-color="#67e5eb"/><stop offset="1" stop-color="#b5fff0"/></linearGradient><linearGradient x1="314.75522" y1="168.22608" x2="166.02618" y2="168.22608" gradientUnits="userSpaceOnUse" id="color-2"><stop offset="0" stop-color="#b0e9ff"/><stop offset="1" stop-color="#b0e9ff" stop-opacity="0"/></linearGradient></defs><g transform="translate(-90.15244,-91.35976)"><g data-paper-data="{&quot;isPaintingLayer&quot;:true}" fill-rule="nonzero" stroke-linejoin="miter" stroke-miterlimit="10" stroke-dasharray="" stroke-dashoffset="0" style="mix-blend-mode: normal"><path d="M161.09268,206.88324v-72.75221h154.55729v72.75221z" fill="url(#color-1)" stroke="none" stroke-width="0" stroke-linecap="butt"/><path d="M90.15245,261.93111v-170.57135h292.71415v170.57135z" fill="none" stroke="none" stroke-width="0" stroke-linecap="butt"/><path d="" fill="none" stroke="#ffffff" stroke-width="3.5" stroke-linecap="round"/><path d="M270.2091,162.73866l-3.59893,3.68215h-2.0387l3.70295,-3.70296z" fill-opacity="0.62353" fill="#babdbf" stroke="#ffffff" stroke-width="0" stroke-linecap="round"/><g fill-opacity="0.93333" fill="#3ddbff" stroke="#ffffff" stroke-width="0" stroke-linecap="round"><path d="M181.84539,162.79752v4.37711l3.60466,3.60465v1.28737h-2.83224l-9.69825,-9.69826v-7.20932l2.78932,-2.78933l-4.20544,-4.20544v-1.84525h-4.33419l-3.94795,3.94797l-3.04681,-3.0468l6.30816,-6.30816l3.86215,-0.08581h13.13128l2.57476,-2.14563h13.13127l4.20546,4.03378l-3.17556,3.69049l4.03379,4.03378l-3.17554,3.86214h-4.63457l-8.06757,7.98176h-6.43689"/><path d="M215.05978,136.62079l2.44602,2.44602v2.18855l-2.5533,2.5533h-4.01234l-2.37091,2.37092h-1.14793l-1.26056,-1.26056v-5.63765h-2.94487v-1.20156l1.71651,-1.97397h9.49365z"/><path d="M197.37974,200.84675v4.20543l1.41611,1.41611v2.87515h-1.67358l-4.3771,-4.37709v-16.13517l-5.49283,-5.49282v-7.4668l3.17553,-3.17554l6.00778,0.05658l6.39399,6.07994h2.87515l3.49737,3.49739v3.9265l-5.69665,5.69666v3.91578l-4.39318,4.39318h-1.73261"/><path d="M220.36943,151.70665l10.82552,-10.73737h11.41476l3.08971,-3.08972h26.94914l2.31729,2.31729h12.44467l4.89205,4.89203l-4.97787,4.97787l-3.08971,-3.08971h-4.54873l-1.6736,1.67358v0.90118h4.42001l5.36408,5.36407l-13.73205,13.73206l3.08972,3.08971l-3.81923,3.81922v6.26525h-1.80233l-4.37709,-4.37708v-7.55264l-2.78932,-2.78932l-2.91806,2.91807v4.0767h-0.98699l-4.24835,-4.24836v-4.67747h-4.50583l-5.83613,5.83612l-6.26525,-6.26524l-1.07281,1.0728l7.4668,7.46681l1.80233,-1.80232h1.15865v5.96486l-5.57865,5.57865v4.54873l-3.3901,3.3901v3.3901l-4.59882,4.59882h-1.36605v-4.28412l-5.40699,-5.0637v-8.06757l-2.48893,-2.48893v-4.0338h-1.20155l-2.74641,2.74641l-5.83612,-6.35108v-5.23534l6.32247,-6.32247h6.89462l2.50324,2.50324l1.53055,-1.53056h5.57865v-0.94407l-1.07283,-1.07282h-2.70348l-4.69894,-4.69894h-3.54029l-2.6284,2.6284z"/><path d="M283.82421,196.64704h-4.10289l-1.8088,1.80881h-1.45586v-7.27933l4.54406,-4.54405h6.79402l2.20586,-2.20586h1.14704l4.05878,4.05877v5.47051l-7.05874,7.05873z"/></g><path d="M166.02618,135.11134h148.72904v66.22947h-148.72904z" fill="url(#color-2)" stroke="none" stroke-width="0" stroke-linecap="butt"/><g><path d="M256.79447,156.16358c0,0 9.41832,-7.41663 22.24205,-7.32405c14.92732,0.26997 38.70149,11.78761 37.42404,41.72322c-0.68302,16.00593 -15.84068,31.16153 -30.92361,32.76086c-7.35103,0.98734 -13.94175,0.20412 -19.2643,-1.68668c-10.70406,-3.80252 -16.73969,-11.16342 -16.73969,-11.16342" fill="none" stroke="#c7f1ff" stroke-width="7.5" stroke-linecap="round"/><path d="M269.74044,158.38104c0,0 0.40441,-1.14083 10.22417,-1.06993c11.43057,0.20672 28.89314,7.99288 28.6574,31.94948c-0.0521,5.29469 -5.57355,21.84817 -22.41627,25.97513c-15.98751,3.91741 -27.16934,-7.09773 -27.16934,-7.09773" fill="none" stroke="#c7f1ff" stroke-width="6.5" stroke-linecap="round"/><path d="M274.43928,185.96267c0,-2.40655 1.95089,-4.35746 4.35745,-4.35746c2.40655,0 4.35745,1.9509 4.35745,4.35746c0,2.40655 -1.9509,4.35745 -4.35745,4.35745c-2.40655,0 -4.35745,-1.95089 -4.35745,-4.35745z" fill="#00a9ff" stroke="#c7f1ff" stroke-width="3.5" stroke-linecap="butt"/><path d="M277.12908,184.83295l-13.23376,-23.77771" fill="none" stroke="#c7f1ff" stroke-width="6.5" stroke-linecap="round"/><path d="M281.43273,184.18739l13.98689,-7.5314" fill="none" stroke="#c7f1ff" stroke-width="5.5" stroke-linecap="round"/><path d="M253.99691,161.59317h-2.04424" data-paper-data="{&quot;index&quot;:null}" fill="none" stroke="#c7f1ff" stroke-width="6" stroke-linecap="round"/><path d="M237.32024,161.37801h9.68322" data-paper-data="{&quot;index&quot;:null}" fill="none" stroke="#c7f1ff" stroke-width="6" stroke-linecap="round"/><path d="M233.23175,172.24473h26.68268" fill="none" stroke="#c7f1ff" stroke-width="6" stroke-linecap="round"/><path d="M248.07941,182.68113h-33.99891" fill="none" stroke="#c7f1ff" stroke-width="6" stroke-linecap="round"/><path d="M253.35135,183.11151h1.93665" fill="none" stroke="#c7f1ff" stroke-width="6" stroke-linecap="round"/><path d="M244.31369,192.90231h-22.16384" fill="none" stroke="#c7f1ff" stroke-width="6" stroke-linecap="round"/><path d="M249.37051,193.22508h11.2971" fill="none" stroke="#c7f1ff" stroke-width="6" stroke-linecap="round"/><path d="M234.9312,203.66147h16.37593" fill="none" stroke="#67daff" stroke-width="5" stroke-linecap="round"/><path d="M275.29998,147.42696v-9.89841h7.10104v9.89842z" fill="#00a9ff" stroke="#c7f1ff" stroke-width="2.5" stroke-linecap="butt"/><path d="M270.02799,141.34945c0,-1.74647 0,-4.36643 0,-5.31868c0,-0.689 0.74331,-1.51477 1.51859,-1.51477c2.00622,0 11.00593,0 14.67225,0c0.96601,0 1.56175,0.50063 1.56175,1.23967c0,1.69592 0,4.64728 0,5.68549c0,0.71078 -0.59574,1.57457 -1.56175,1.57457c-3.66631,0 -12.66603,0 -14.67225,0c-0.77528,0 -1.51859,-0.69924 -1.51859,-1.66627z" fill="#00a9ff" stroke="#c7f1ff" stroke-width="3.5" stroke-linecap="butt"/><path d="M298.06331,152.84477l3.70653,-5.21914l3.74415,2.65905l-3.70653,5.21913z" fill="#00a9ff" stroke="#c7f1ff" stroke-width="4" stroke-linecap="butt"/><path d="M297.4737,147.5805c0.65398,-0.92086 1.63504,-2.30227 1.99163,-2.80438c0.25799,-0.36328 0.95916,-0.52036 1.36793,-0.23005c1.05782,0.75125 5.80309,4.12125 7.73622,5.49414c0.50934,0.36173 0.63601,0.84879 0.35926,1.23846c-0.63504,0.89421 -1.74022,2.45037 -2.12898,2.99778c-0.26617,0.37477 -0.90373,0.60713 -1.41309,0.24541c-1.93313,-1.37288 -6.6784,-4.7429 -7.73622,-5.49413c-0.40879,-0.29031 -0.53887,-0.93734 -0.17676,-1.44722z" fill="#00a9ff" stroke="#c7f1ff" stroke-width="3.5" stroke-linecap="butt"/><path d="M256.79447,156.16358c0,0 9.41832,-7.41663 22.24205,-7.32405c14.92732,0.26997 38.70149,11.78761 37.42404,41.72322c-0.68302,16.00593 -15.84068,31.16153 -30.92361,32.76086c-7.35103,0.98734 -13.94175,0.20412 -19.2643,-1.68668c-10.70406,-3.80252 -16.73969,-11.16342 -16.73969,-11.16342" fill="none" stroke="#00a9ff" stroke-width="3" stroke-linecap="round"/><path d="M269.74044,158.38104c0,0 3.1977,-1.31184 10.22417,-1.06993c11.43057,0.20672 28.89314,7.99288 28.6574,31.94948c-0.0521,5.29469 -5.57355,21.84817 -22.41627,25.97513c-15.98751,3.91741 -27.16934,-7.09773 -27.16934,-7.09773" fill="none" stroke="#00a9ff" stroke-width="3" stroke-linecap="round"/><path d="M274.43928,185.96267c0,-2.40655 1.95089,-4.35746 4.35745,-4.35746c2.40655,0 4.35745,1.9509 4.35745,4.35746c0,2.40655 -1.9509,4.35745 -4.35745,4.35745c-2.40655,0 -4.35745,-1.95089 -4.35745,-4.35745z" fill="#00a9ff" stroke="none" stroke-width="0" stroke-linecap="butt"/><path d="M277.12908,184.83295l-13.23376,-23.77771" fill="none" stroke="#00a9ff" stroke-width="3" stroke-linecap="round"/><path d="M281.43273,184.18739l13.98689,-7.5314" fill="none" stroke="#00a9ff" stroke-width="2.5" stroke-linecap="round"/><path d="M253.99691,161.59317h-2.04424" data-paper-data="{&quot;index&quot;:null}" fill="none" stroke="#00a9ff" stroke-width="2.5" stroke-linecap="round"/><path d="M237.32024,161.37801h9.68322" data-paper-data="{&quot;index&quot;:null}" fill="none" stroke="#00a9ff" stroke-width="2.5" stroke-linecap="round"/><path d="M233.23175,172.24473h26.68268" fill="none" stroke="#00a9ff" stroke-width="2.5" stroke-linecap="round"/><path d="M248.07941,182.68113h-33.99891" fill="none" stroke="#00a9ff" stroke-width="2.5" stroke-linecap="round"/><path d="M253.35135,183.11151h1.93665" fill="none" stroke="#00a9ff" stroke-width="2.5" stroke-linecap="round"/><path d="M244.31369,192.90231h-22.16384" fill="none" stroke="#00a9ff" stroke-width="2.5" stroke-linecap="round"/><path d="M249.37051,193.22508h11.2971" fill="none" stroke="#00a9ff" stroke-width="2.5" stroke-linecap="round"/><path d="M234.9312,203.66147h16.37593" fill="none" stroke="#00a9ff" stroke-width="2.5" stroke-linecap="round"/><path d="M275.29998,147.42696v-9.89841h7.10104v9.89842z" fill="#00a9ff" stroke="none" stroke-width="0" stroke-linecap="butt"/><path d="M270.02799,141.34945c0,-1.74647 0,-4.36643 0,-5.31868c0,-0.689 0.74331,-1.51477 1.51859,-1.51477c2.00622,0 11.00593,0 14.67225,0c0.96601,0 1.56175,0.50063 1.56175,1.23967c0,1.69592 0,4.64728 0,5.68549c0,0.71078 -0.59574,1.57457 -1.56175,1.57457c-3.66631,0 -12.66603,0 -14.67225,0c-0.77528,0 -1.51859,-0.69924 -1.51859,-1.66627z" fill="#00a9ff" stroke="none" stroke-width="0" stroke-linecap="butt"/><path d="M298.06331,152.84477l3.70653,-5.21914l3.74415,2.65905l-3.70653,5.21913z" fill="#00a9ff" stroke="none" stroke-width="0" stroke-linecap="butt"/><path d="M297.55936,147.66616c0.65398,-0.92086 1.63504,-2.30227 1.99163,-2.80438c0.25799,-0.36328 0.95916,-0.52036 1.36793,-0.23005c1.05782,0.75125 5.80309,4.12125 7.73622,5.49414c0.50934,0.36173 0.63601,0.84879 0.35926,1.23846c-0.63504,0.89421 -1.74022,2.45037 -2.12898,2.99778c-0.26617,0.37477 -0.90373,0.60713 -1.41309,0.24541c-1.93313,-1.37288 -6.6784,-4.7429 -7.73622,-5.49413c-0.40879,-0.29031 -0.53887,-0.93734 -0.17676,-1.44722z" fill="#00a9ff" stroke="none" stroke-width="0" stroke-linecap="butt"/></g><path d="M159.08623,231.61375v-31.02144h161.81111v31.02144z" fill="#efefef" stroke="none" stroke-width="0" stroke-linecap="butt"/><path d="M159.1139,201.1866v-66.2h7v66.2z" fill="#efefef" stroke="none" stroke-width="0" stroke-linecap="butt"/><path d="M313.91382,201.38657v-66.2h7v66.2z" fill="#efefef" stroke="none" stroke-width="0" stroke-linecap="butt"/><path d="M320.91382,135.38646h-161.8v-7h161.8z" fill="#efefef" stroke="none" stroke-width="0" stroke-linecap="butt"/><text transform="translate(215.92788,220.69035) scale(0.40172,0.40172)" font-size="40" xml:space="preserve" fill="#4d4d4d" fill-rule="nonzero" stroke="#4d4d4d" stroke-width="3" stroke-linecap="butt" stroke-linejoin="miter" stroke-miterlimit="10" stroke-dasharray="" stroke-dashoffset="0" font-family="Sans Serif" font-weight="normal" text-anchor="start" style="mix-blend-mode: normal"><tspan x="0" dy="0">计时赛</tspan></text></g></g></svg>