<svg version="1.1" xmlns="http://www.w3.org/2000/svg" xmlns:xlink="http://www.w3.org/1999/xlink" width="147.18701" height="147.18701" viewBox="0,0,147.18701,147.18701"><defs><radialGradient cx="338.12795" cy="167.85952" r="13.82455" gradientUnits="userSpaceOnUse" id="color-1"><stop offset="0" stop-color="#f07070"/><stop offset="1" stop-color="#cf5555"/></radialGradient><radialGradient cx="338.12795" cy="167.85952" r="11.92469" gradientUnits="userSpaceOnUse" id="color-2"><stop offset="0" stop-color="#ff9d9d"/><stop offset="1" stop-color="#ff9d9d" stop-opacity="0"/></radialGradient><radialGradient cx="338.12795" cy="167.85952" r="11.92469" gradientUnits="userSpaceOnUse" id="color-3"><stop offset="0" stop-color="#ff9d9d"/><stop offset="1" stop-color="#ff9d9d" stop-opacity="0"/></radialGradient><radialGradient cx="282.13844" cy="167.43694" r="13.58909" gradientUnits="userSpaceOnUse" id="color-4"><stop offset="0" stop-color="#f7f7f7"/><stop offset="1" stop-color="#cecece"/></radialGradient><radialGradient cx="282.13844" cy="167.43694" r="11.72159" gradientUnits="userSpaceOnUse" id="color-5"><stop offset="0" stop-color="#f7f7f7"/><stop offset="1" stop-color="#f7f7f7" stop-opacity="0"/></radialGradient><radialGradient cx="310.23691" cy="167.68672" r="13.82455" gradientUnits="userSpaceOnUse" id="color-6"><stop offset="0" stop-color="#f07070"/><stop offset="1" stop-color="#cf5555"/></radialGradient><radialGradient cx="310.23691" cy="167.68672" r="11.92468" gradientUnits="userSpaceOnUse" id="color-7"><stop offset="0" stop-color="#ff9d9d"/><stop offset="1" stop-color="#ff9d9d" stop-opacity="0"/></radialGradient><radialGradient cx="310.23691" cy="167.68672" r="11.92468" gradientUnits="userSpaceOnUse" id="color-8"><stop offset="0" stop-color="#ff9d9d"/><stop offset="1" stop-color="#ff9d9d" stop-opacity="0"/></radialGradient><radialGradient cx="309.92586" cy="191.53407" r="13.82455" gradientUnits="userSpaceOnUse" id="color-9"><stop offset="0" stop-color="#f07070"/><stop offset="1" stop-color="#cf5555"/></radialGradient><radialGradient cx="309.92586" cy="191.53407" r="11.92469" gradientUnits="userSpaceOnUse" id="color-10"><stop offset="0" stop-color="#ff9d9d"/><stop offset="1" stop-color="#ff9d9d" stop-opacity="0"/></radialGradient><radialGradient cx="309.92586" cy="191.53407" r="11.92469" gradientUnits="userSpaceOnUse" id="color-11"><stop offset="0" stop-color="#ff9d9d"/><stop offset="1" stop-color="#ff9d9d" stop-opacity="0"/></radialGradient><radialGradient cx="282.00019" cy="191.21517" r="13.58909" gradientUnits="userSpaceOnUse" id="color-12"><stop offset="0" stop-color="#f7f7f7"/><stop offset="1" stop-color="#cecece"/></radialGradient><radialGradient cx="282.00019" cy="191.21517" r="11.72159" gradientUnits="userSpaceOnUse" id="color-13"><stop offset="0" stop-color="#f7f7f7"/><stop offset="1" stop-color="#f7f7f7" stop-opacity="0"/></radialGradient><radialGradient cx="254.62757" cy="167.43694" r="13.5891" gradientUnits="userSpaceOnUse" id="color-14"><stop offset="0" stop-color="#f7f7f7"/><stop offset="1" stop-color="#cecece"/></radialGradient><radialGradient cx="254.62757" cy="167.43694" r="11.72159" gradientUnits="userSpaceOnUse" id="color-15"><stop offset="0" stop-color="#f7f7f7"/><stop offset="1" stop-color="#f7f7f7" stop-opacity="0"/></radialGradient><radialGradient cx="254.48932" cy="191.21517" r="13.58909" gradientUnits="userSpaceOnUse" id="color-16"><stop offset="0" stop-color="#f7f7f7"/><stop offset="1" stop-color="#cecece"/></radialGradient><radialGradient cx="254.48932" cy="191.21517" r="11.72159" gradientUnits="userSpaceOnUse" id="color-17"><stop offset="0" stop-color="#f7f7f7"/><stop offset="1" stop-color="#f7f7f7" stop-opacity="0"/></radialGradient><radialGradient cx="224.90485" cy="167.85952" r="13.82455" gradientUnits="userSpaceOnUse" id="color-18"><stop offset="0" stop-color="#f07070"/><stop offset="1" stop-color="#cf5555"/></radialGradient><radialGradient cx="224.90485" cy="167.85952" r="11.92468" gradientUnits="userSpaceOnUse" id="color-19"><stop offset="0" stop-color="#ff9d9d"/><stop offset="1" stop-color="#ff9d9d" stop-opacity="0"/></radialGradient><radialGradient cx="224.90485" cy="167.85952" r="11.92468" gradientUnits="userSpaceOnUse" id="color-20"><stop offset="0" stop-color="#ff9d9d"/><stop offset="1" stop-color="#ff9d9d" stop-opacity="0"/></radialGradient><radialGradient cx="168.91533" cy="167.43694" r="13.5891" gradientUnits="userSpaceOnUse" id="color-21"><stop offset="0" stop-color="#f7f7f7"/><stop offset="1" stop-color="#cecece"/></radialGradient><radialGradient cx="168.91533" cy="167.43694" r="11.72159" gradientUnits="userSpaceOnUse" id="color-22"><stop offset="0" stop-color="#f7f7f7"/><stop offset="1" stop-color="#f7f7f7" stop-opacity="0"/></radialGradient><radialGradient cx="197.01381" cy="167.68672" r="13.82456" gradientUnits="userSpaceOnUse" id="color-23"><stop offset="0" stop-color="#f07070"/><stop offset="1" stop-color="#cf5555"/></radialGradient><radialGradient cx="197.01381" cy="167.68672" r="11.92469" gradientUnits="userSpaceOnUse" id="color-24"><stop offset="0" stop-color="#ff9d9d"/><stop offset="1" stop-color="#ff9d9d" stop-opacity="0"/></radialGradient><radialGradient cx="197.01381" cy="167.68672" r="11.92469" gradientUnits="userSpaceOnUse" id="color-25"><stop offset="0" stop-color="#ff9d9d"/><stop offset="1" stop-color="#ff9d9d" stop-opacity="0"/></radialGradient><radialGradient cx="196.70276" cy="191.53407" r="13.82455" gradientUnits="userSpaceOnUse" id="color-26"><stop offset="0" stop-color="#f07070"/><stop offset="1" stop-color="#cf5555"/></radialGradient><radialGradient cx="196.70276" cy="191.53407" r="11.92468" gradientUnits="userSpaceOnUse" id="color-27"><stop offset="0" stop-color="#ff9d9d"/><stop offset="1" stop-color="#ff9d9d" stop-opacity="0"/></radialGradient><radialGradient cx="196.70276" cy="191.53407" r="11.92468" gradientUnits="userSpaceOnUse" id="color-28"><stop offset="0" stop-color="#ff9d9d"/><stop offset="1" stop-color="#ff9d9d" stop-opacity="0"/></radialGradient><radialGradient cx="168.77709" cy="191.21517" r="13.58909" gradientUnits="userSpaceOnUse" id="color-29"><stop offset="0" stop-color="#f7f7f7"/><stop offset="1" stop-color="#cecece"/></radialGradient><radialGradient cx="168.77709" cy="191.21517" r="11.72159" gradientUnits="userSpaceOnUse" id="color-30"><stop offset="0" stop-color="#f7f7f7"/><stop offset="1" stop-color="#f7f7f7" stop-opacity="0"/></radialGradient><radialGradient cx="141.40447" cy="167.43694" r="13.5891" gradientUnits="userSpaceOnUse" id="color-31"><stop offset="0" stop-color="#f7f7f7"/><stop offset="1" stop-color="#cecece"/></radialGradient><radialGradient cx="141.40447" cy="167.43694" r="11.72159" gradientUnits="userSpaceOnUse" id="color-32"><stop offset="0" stop-color="#f7f7f7"/><stop offset="1" stop-color="#f7f7f7" stop-opacity="0"/></radialGradient><radialGradient cx="141.26622" cy="191.21517" r="13.5891" gradientUnits="userSpaceOnUse" id="color-33"><stop offset="0" stop-color="#f7f7f7"/><stop offset="1" stop-color="#cecece"/></radialGradient><radialGradient cx="141.26622" cy="191.21517" r="11.72159" gradientUnits="userSpaceOnUse" id="color-34"><stop offset="0" stop-color="#f7f7f7"/><stop offset="1" stop-color="#f7f7f7" stop-opacity="0"/></radialGradient><radialGradient cx="338.49832" cy="191.56323" r="13.82455" gradientUnits="userSpaceOnUse" id="color-35"><stop offset="0" stop-color="#f07070"/><stop offset="1" stop-color="#cf5555"/></radialGradient><radialGradient cx="338.49832" cy="191.56323" r="11.92469" gradientUnits="userSpaceOnUse" id="color-36"><stop offset="0" stop-color="#ff9d9d"/><stop offset="1" stop-color="#ff9d9d" stop-opacity="0"/></radialGradient><radialGradient cx="338.49832" cy="191.56323" r="11.92469" gradientUnits="userSpaceOnUse" id="color-37"><stop offset="0" stop-color="#ff9d9d"/><stop offset="1" stop-color="#ff9d9d" stop-opacity="0"/></radialGradient><radialGradient cx="224.79846" cy="192.32761" r="13.82455" gradientUnits="userSpaceOnUse" id="color-38"><stop offset="0" stop-color="#f07070"/><stop offset="1" stop-color="#cf5555"/></radialGradient><radialGradient cx="224.79846" cy="192.32761" r="11.92468" gradientUnits="userSpaceOnUse" id="color-39"><stop offset="0" stop-color="#ff9d9d"/><stop offset="1" stop-color="#ff9d9d" stop-opacity="0"/></radialGradient><radialGradient cx="224.79846" cy="192.32761" r="11.92468" gradientUnits="userSpaceOnUse" id="color-40"><stop offset="0" stop-color="#ff9d9d"/><stop offset="1" stop-color="#ff9d9d" stop-opacity="0"/></radialGradient><radialGradient cx="238.11109" cy="180.67995" r="16.88015" gradientUnits="userSpaceOnUse" id="color-41"><stop offset="0" stop-color="#1f1f1f"/><stop offset="1" stop-color="#1f1f1f" stop-opacity="0"/></radialGradient><radialGradient cx="238.06067" cy="180.35896" r="18.13126" gradientUnits="userSpaceOnUse" id="color-42"><stop offset="0" stop-color="#d6924f"/><stop offset="1" stop-color="#875d32"/></radialGradient></defs><g transform="translate(-166.4065,-106.4065)"><g data-paper-data="{&quot;isPaintingLayer&quot;:true}" fill-rule="nonzero" stroke-width="0" stroke-linecap="butt" stroke-linejoin="miter" stroke-miterlimit="10" stroke-dasharray="" stroke-dashoffset="0" style="mix-blend-mode: normal"><g><g><path d="" fill="url(#color-1)" stroke="#bfbfbf"/><path d="" fill="url(#color-2)" stroke="none"/><path d="" fill="#a3a3a3" stroke="none"/><path d="" fill="url(#color-3)" stroke="none"/><path d="" fill="#323232" stroke="none"/></g><g><path d="" fill="url(#color-4)" stroke="#bfbfbf"/><path d="" fill="url(#color-5)" stroke="none"/><path d="" fill="#a3a3a3" stroke="none"/><path d="" fill="#323232" stroke="none"/></g><g><path d="" fill="url(#color-6)" stroke="#bfbfbf"/><path d="" fill="url(#color-7)" stroke="none"/><path d="" fill="#a3a3a3" stroke="none"/><path d="" fill="url(#color-8)" stroke="none"/><path d="" fill="#323232" stroke="none"/></g><g><path d="" fill="url(#color-9)" stroke="#bfbfbf"/><path d="" fill="url(#color-10)" stroke="none"/><path d="" fill="#a3a3a3" stroke="none"/><path d="" fill="url(#color-11)" stroke="none"/><path d="" fill="#323232" stroke="none"/></g><g><path d="" fill="url(#color-12)" stroke="#bfbfbf"/><path d="" fill="url(#color-13)" stroke="none"/><path d="" fill="#a3a3a3" stroke="none"/><path d="" fill="#323232" stroke="none"/></g><g><path d="" fill="url(#color-14)" stroke="#bfbfbf"/><path d="" fill="url(#color-15)" stroke="none"/><path d="" fill="#a3a3a3" stroke="none"/><path d="" fill="#323232" stroke="none"/></g><g><path d="" fill="url(#color-16)" stroke="#bfbfbf"/><path d="" fill="url(#color-17)" stroke="none"/><path d="" fill="#a3a3a3" stroke="none"/><path d="" fill="#323232" stroke="none"/></g><g><path d="" fill="url(#color-18)" stroke="#bfbfbf"/><path d="" fill="url(#color-19)" stroke="none"/><path d="" fill="#a3a3a3" stroke="none"/><path d="" fill="url(#color-20)" stroke="none"/><path d="" fill="#323232" stroke="none"/></g><g><path d="" fill="url(#color-21)" stroke="#bfbfbf"/><path d="" fill="url(#color-22)" stroke="none"/><path d="" fill="#a3a3a3" stroke="none"/><path d="" fill="#323232" stroke="none"/></g><g><path d="" fill="url(#color-23)" stroke="#bfbfbf"/><path d="" fill="url(#color-24)" stroke="none"/><path d="" fill="#a3a3a3" stroke="none"/><path d="" fill="url(#color-25)" stroke="none"/><path d="" fill="#323232" stroke="none"/></g><g><path d="" fill="url(#color-26)" stroke="#bfbfbf"/><path d="" fill="url(#color-27)" stroke="none"/><path d="" fill="#a3a3a3" stroke="none"/><path d="" fill="url(#color-28)" stroke="none"/><path d="" fill="#323232" stroke="none"/></g><g><path d="" fill="url(#color-29)" stroke="#bfbfbf"/><path d="" fill="url(#color-30)" stroke="none"/><path d="" fill="#a3a3a3" stroke="none"/><path d="" fill="#323232" stroke="none"/></g><g><path d="" fill="url(#color-31)" stroke="#bfbfbf"/><path d="" fill="url(#color-32)" stroke="none"/><path d="" fill="#a3a3a3" stroke="none"/><path d="" fill="#323232" stroke="none"/></g><g><path d="" fill="url(#color-33)" stroke="#bfbfbf"/><path d="" fill="url(#color-34)" stroke="none"/><path d="" fill="#a3a3a3" stroke="none"/><path d="" fill="#323232" stroke="none"/></g><g><path d="" fill="url(#color-35)" stroke="#bfbfbf"/><path d="" fill="url(#color-36)" stroke="none"/><path d="" fill="#a3a3a3" stroke="none"/><path d="" fill="url(#color-37)" stroke="none"/><path d="" fill="#323232" stroke="none"/></g><g><path d="" fill="url(#color-38)" stroke="#bfbfbf"/><path d="" fill="url(#color-39)" stroke="none"/><path d="" fill="#a3a3a3" stroke="none"/><path d="" fill="url(#color-40)" stroke="none"/><path d="" fill="#323232" stroke="none"/></g></g><path d="M221.23093,180.67995c0,-9.32265 7.5575,-16.88016 16.88015,-16.88016c9.32265,0 16.88015,7.5575 16.88015,16.88016c0,9.32265 -7.5575,16.88015 -16.88015,16.88015c-9.32265,0 -16.88015,-7.5575 -16.88015,-16.88015z" fill="url(#color-41)" stroke="none"/><path d="M249.17729,179.4488c0,4.77346 7.51774,15.67605 6.92261,18.01727c-0.0078,0.03067 -0.01699,0.05987 -0.0276,0.08757c-0.73741,1.54314 -6.92022,-3.168 -11.67057,-5.17052c-3.35146,-1.41282 -10.60902,6.64523 -13.54621,5.87868c-1.62107,-0.48963 2.24692,-10.17281 -1.15312,-10.62051c-3.97388,-0.52326 -9.48417,2.07878 -9.73398,1.52112c-0.59057,-1.47693 5.42835,-5.26093 5.3419,-7.87558c-0.02814,-0.85099 0.14856,-1.79909 -0.00896,-2.56883c-1.54305,-7.54032 -8.3042,-10.95351 -6.46673,-12.34697c0.68973,-0.72752 10.15789,4.68727 18.53056,3.36305c9.42894,-1.49128 16.0152,-9.83859 18.82991,-7.63048c1.13676,0.81181 -0.45249,2.42723 -1.74668,5.19242c-2.13395,4.55942 -5.27112,10.48017 -5.27112,12.15278z" fill="#84582c" stroke="none"/><path d="M246.32986,179.2583c0,1.36456 1.8992,2.25377 3.55126,4.96812c2.78498,4.57576 5.85624,11.37247 5.14777,12.76233c-0.81739,1.60352 -9.37013,-5.33588 -11.47178,-4.47686c-0.09499,0.03882 -5.79461,1.57539 -5.8878,1.67321c-2.27902,2.3924 -5.96211,3.97879 -6.57037,3.93514c-1.3369,-0.4877 2.28784,-11.19236 -0.28884,-11.53164c-3.01155,-0.39654 -10.42414,2.91848 -10.6152,2.29654c-0.46453,-1.08405 6.11602,-5.70635 6.05049,-7.68782c-0.23023,-6.96238 -8.04042,-13.48461 -6.95993,-14.49113c0.8539,-0.62752 11.74763,5.7495 18.09274,4.74596c2.13666,-0.33794 3.71328,-1.83616 5.77806,-3.19667c4.84041,-3.18943 11.33583,-6.96592 12.56474,-6.04706c1.39166,0.81744 0.03095,1.63363 -0.89494,3.48214c-1.17981,2.35543 -2.29831,5.63205 -3.91635,8.10612c-1.89223,2.89331 -4.57985,4.65554 -4.57985,5.46163z" fill="url(#color-42)" stroke="none"/><path d="M225.94713,180.11322c0,-0.71113 0.66923,-1.20496 0.78088,-1.88449c0.24726,-1.50495 0.10857,-3.13765 0.77623,-4.43573c0.69405,-1.34941 2.07251,-2.13091 3.0512,-3.30307c1.031,-1.23481 2.73955,-1.40061 4.05404,-1.87505c1.42991,-0.5161 2.4869,-1.28537 4.12135,-1.28537c0.72553,0 1.33508,0.26416 2.02762,0.38028c1.40747,0.236 3.0005,1.00674 4.22054,1.64581c1.17684,0.61644 1.73722,1.50967 2.56319,2.44983c0.84777,0.96497 2.60055,1.71551 3.19009,2.88049c0.79879,1.57848 0.78228,3.44929 0.78228,5.42731c0,1.25049 -0.99444,2.45903 -1.32916,3.60127c-0.40088,1.368 -0.56272,3.04835 -1.2865,4.18427c-1.02482,1.6084 -3.03246,1.20949 -4.36639,2.56325c-1.07819,1.09422 -2.35838,1.63971 -3.79217,1.99534c-0.63818,0.15829 -1.33448,0.43959 -2.00949,0.43959c-1.30452,0 -2.35969,-0.50099 -3.54527,-0.86412c-1.0405,-0.31869 -2.5419,-0.34703 -3.46368,-0.88603c-0.78128,-0.45684 -1.33022,-1.17159 -2.0189,-1.73288c-1.09753,-0.8945 -1.49676,-2.13379 -2.07481,-3.27465c-0.44705,-0.88232 -1.3593,-1.78132 -1.65854,-2.72462c-0.32832,-1.03496 -0.02251,-2.12326 -0.02251,-3.3014z" fill="#906235" stroke="none"/><path d="M220.45694,169.14167c-0.21706,-0.21905 1.58584,-0.54774 1.58584,-0.54774c0,0 0.77453,0.25617 1.13564,0.30328c0.3599,0.04695 1.02741,-0.02112 1.02741,-0.02112l1.75712,0.96821l-0.09697,0.59746l-1.09267,-0.72781l-2.51713,-0.41471c0,0 -1.54066,0.10341 -1.79925,-0.15756z" fill="#8e5e2f" stroke="none"/><path d="M228.32208,172.14487c0.20184,0.23315 -1.61907,0.43991 -1.61907,0.43991c0,0 -0.75556,-0.30765 -1.11269,-0.37893c-0.35593,-0.07103 -1.02651,-0.04799 -1.02651,-0.04799l-1.68807,-1.08412l0.1369,-0.58959l1.04128,0.79961l2.48356,0.58297c0,0 1.54412,0.00039 1.78459,0.27814z" data-paper-data="{&quot;index&quot;:null}" fill="#8e5e2f" stroke="none"/><path d="M247.57827,170.2343c-0.28118,0.12664 0.0421,-1.67724 0.0421,-1.67724c0,0 0.51111,-0.63584 0.68165,-0.9576c0.16997,-0.32069 0.3399,-0.96979 0.3399,-0.96979l1.52208,-1.30697l0.52571,0.29999l-1.06428,0.76872l-1.26968,2.21265c0,0 -0.4425,1.47936 -0.77748,1.63022z" fill="#84582c" stroke="none"/><path d="M253.14489,163.91826c0.28906,-0.10745 -0.15475,1.67061 -0.15475,1.67061c0,0 -0.5527,0.60004 -0.74449,0.90962c-0.19115,0.30854 -0.40431,0.94475 -0.40431,0.94475l-1.60649,1.20171l-0.50436,-0.33465l1.11355,-0.69545l1.41554,-2.12231c0,0 0.54094,-1.44628 0.8853,-1.57428z" data-paper-data="{&quot;index&quot;:null}" fill="#84582c" stroke="none"/><path d="M253.23994,194.77579c0.04515,0.30506 -1.60217,-0.49793 -1.60217,-0.49793c0,0 -0.47233,-0.66515 -0.73539,-0.91698c-0.26218,-0.25099 -0.84033,-0.59149 -0.84033,-0.59149l-0.84231,-1.82082l0.432,-0.42397l0.44932,1.23359l1.7825,1.825c0,0 1.3026,0.82919 1.35639,1.19261z" fill="#8d5e2e" stroke="none"/><path d="M248.68149,187.69765c-0.02454,-0.30741 1.56508,0.6045 1.56508,0.6045c0,0 0.42656,0.69539 0.67209,0.96433c0.24472,0.26805 0.79867,0.64665 0.79867,0.64665l0.71802,1.87332l-0.45951,0.39397l-0.36539,-1.261l-1.6558,-1.94068c0,0 -1.24392,-0.91487 -1.27316,-1.28108z" data-paper-data="{&quot;index&quot;:null}" fill="#8d5e2e" stroke="none"/><path d="M231.45176,196.56711c-0.21816,0.0867 0.08929,-1.27404 0.08929,-1.27404c0,0 0.4104,-0.46608 0.55107,-0.70495c0.14021,-0.23808 0.29159,-0.72589 0.29159,-0.72589l1.20212,-0.94193l0.38954,0.24609l-0.8356,0.54825l-1.0411,1.63929c0,0 -0.38702,1.1099 -0.64691,1.21318z" fill="#936536" stroke="none"/><path d="M235.90064,191.95404c0.22349,-0.07184 -0.17472,1.26516 -0.17472,1.26516c0,0 -0.4408,0.43744 -0.59721,0.66631c-0.1559,0.22811 -0.33973,0.70464 -0.33973,0.70464l-1.26271,0.859l-0.37212,-0.27171l0.87056,-0.49084l1.14893,-1.56561c0,0 0.46075,-1.08137 0.72699,-1.16696z" data-paper-data="{&quot;index&quot;:null}" fill="#936536" stroke="none"/><path d="M222.92572,185.96352c-0.1793,-0.08469 0.838,-0.6794 0.838,-0.6794c0,0 0.52434,-0.01536 0.7529,-0.06622c0.22781,-0.0507 0.61623,-0.23848 0.61623,-0.23848l1.27455,0.19906l0.07267,0.38236l-0.82021,-0.19977l-1.61223,0.30239c0,0 -0.90832,0.40097 -1.12191,0.30007z" fill="#946637" stroke="none"/><path d="M228.33849,186.05044c0.1732,0.09655 -0.88177,0.62154 -0.88177,0.62154c0,0 -0.52418,-0.01992 -0.75566,0.01546c-0.2307,0.03527 -0.63087,0.19652 -0.63087,0.19652l-1.25829,-0.28428l-0.0468,-0.38638l0.80492,0.25445l1.62891,-0.19334c0,0 0.93321,-0.33901 1.13955,-0.22398z" data-paper-data="{&quot;index&quot;:null}" fill="#946637" stroke="none"/><path d="M166.4065,253.5935v-147.18701h147.18701v147.18701z" fill="none" stroke="none"/></g></g></svg>