<svg version="1.1" xmlns="http://www.w3.org/2000/svg" xmlns:xlink="http://www.w3.org/1999/xlink" width="35.55757" height="35.55757" viewBox="0,0,35.55757,35.55757"><defs><radialGradient cx="240.00001" cy="180.00001" r="17.77878" gradientUnits="userSpaceOnUse" id="color-1"><stop offset="0" stop-color="#ffd92d"/><stop offset="1" stop-color="#ffd117"/></radialGradient></defs><g transform="translate(-222.22121,-162.22121)"><g data-paper-data="{&quot;isPaintingLayer&quot;:true}" fill-rule="nonzero" stroke-linejoin="miter" stroke-miterlimit="10" stroke-dasharray="" stroke-dashoffset="0" style="mix-blend-mode: normal"><path d="" fill="none" stroke="#000000" stroke-width="5.5" stroke-linecap="round"/><path d="" fill="none" stroke="#000000" stroke-width="5.5" stroke-linecap="round"/><path d="" data-paper-data="{&quot;index&quot;:null}" fill="none" stroke="#9f8200" stroke-width="2.5" stroke-linecap="round"/><path d="M222.22122,180.00001c0,-9.81896 7.95983,-17.77879 17.77878,-17.77879c9.81896,0 17.77879,7.95983 17.77879,17.77879c0,9.81895 -7.95983,17.77878 -17.77879,17.77878c-9.81896,0 -17.77878,-7.95983 -17.77878,-17.77878z" fill="url(#color-1)" stroke="#f1f1f1" stroke-width="0" stroke-linecap="butt"/><path d="M232.3845,170.76682c0,0 3.20725,3.12083 3.27105,3.54482c0.05945,0.39513 -4.08154,2.77202 -4.08154,2.77202" fill="none" stroke="#9f8200" stroke-width="4" stroke-linecap="round"/><path d="M248.28871,177.09886c0,0 -4.28334,-2.60685 -4.22569,-2.98998c0.06186,-0.41113 3.4398,-3.13519 3.4398,-3.13519" data-paper-data="{&quot;index&quot;:null}" fill="none" stroke="#9f8200" stroke-width="4" stroke-linecap="round"/><path d="M231.76494,184.92503l0.08512,-3.67036c0,0 5.10728,1.64345 7.73964,1.64345c2.74169,0 8.39582,-1.64345 8.39582,-1.64345l0.25535,3.56067c0,0 -4.11679,1.26324 -8.43895,1.28023c-4.49238,0.01766 -8.03697,-1.17055 -8.03697,-1.17055z" fill="#ffffff" stroke="none" stroke-width="NaN" stroke-linecap="butt"/><path d="M248.9222,181.51385c0,0 -5.40712,0.50762 -9.23727,0.53942c-4.01207,0.03333 -9.02112,-0.28641 -9.02112,-0.28641" fill="none" stroke="#9f8200" stroke-width="2.5" stroke-linecap="round"/><path d="M248.82403,181.64037c0,0 0.32382,9.86853 -8.93691,9.80408c-8.76971,-0.06104 -9.20275,-9.14592 -9.20275,-9.14592" fill="none" stroke="#9f8200" stroke-width="2.5" stroke-linecap="round"/></g></g></svg>