<svg version="1.1" xmlns="http://www.w3.org/2000/svg" xmlns:xlink="http://www.w3.org/1999/xlink" width="877.97602" height="657.26933" viewBox="0,0,877.97602,657.26933"><g transform="translate(198.5,144)"><g data-paper-data="{&quot;isPaintingLayer&quot;:true}" fill-rule="nonzero" stroke-linejoin="miter" stroke-miterlimit="10" stroke-dasharray="" stroke-dashoffset="0" style="mix-blend-mode: normal"><path d="M-198.5,513.26933v-657.26933h877.97602v657.26933z" fill="none" stroke="none" stroke-width="0" stroke-linecap="butt"/><path d="M37.69314,18.97612c0,0 171.51538,7.65452 248.95218,18.25383c67.50831,9.24032 194.83581,38.73799 194.83581,38.73799l-80.27816,315.21704c0,0 -79.53031,-21.33777 -167.24162,-33.78843c-86.716,-12.30938 -196.99811,-10.55617 -196.99811,-10.55617z" data-paper-data="{&quot;index&quot;:null}" fill="#9a9a9a" stroke="none" stroke-width="0" stroke-linecap="butt"/><path d="M32.36242,31.08521c0,0 166.32279,1.41246 260.36057,19.87529c69.30733,9.14479 182.55765,38.69389 182.55765,38.69389" data-paper-data="{&quot;index&quot;:null}" fill="none" stroke="#909090" stroke-width="7.5" stroke-linecap="round"/><path d="M34.5247,328.27219c0,0 116.50625,0.24158 191.48513,13.33256c91.27165,11.09233 177.12012,35.83159 177.12012,35.83159" data-paper-data="{&quot;index&quot;:null}" fill="none" stroke="#909090" stroke-width="7.5" stroke-linecap="round"/><path d="M38.04009,347.02105c0,0 87.34757,-1.5869 186.31079,12.35689c95.87683,13.50892 171.46836,34.5032 171.46836,34.5032" data-paper-data="{&quot;index&quot;:null}" fill="none" stroke="#bcbcbc" stroke-width="30.5" stroke-linecap="round"/><path d="M37.67717,12.79169c0,0 124.97934,0.75174 223.93334,14.79721c126.61532,17.9717 216.44453,42.22242 216.44453,42.22242" data-paper-data="{&quot;index&quot;:null}" fill="none" stroke="#bcbcbc" stroke-width="30.5" stroke-linecap="round"/></g></g></svg>