<svg version="1.1" xmlns="http://www.w3.org/2000/svg" xmlns:xlink="http://www.w3.org/1999/xlink" width="49.06447" height="42.074" viewBox="0,0,49.06447,42.074"><defs><linearGradient x1="5446.76265" y1="-1687.86075" x2="5446.76265" y2="1046.949" gradientUnits="userSpaceOnUse" id="color-1"><stop offset="0" stop-color="#000000"/><stop offset="1" stop-color="#000000" stop-opacity="0"/></linearGradient></defs><g transform="translate(-215.46776,-158.963)"><g data-paper-data="{&quot;isPaintingLayer&quot;:true}" fill-rule="nonzero" stroke="none" stroke-linecap="butt" stroke-linejoin="miter" stroke-miterlimit="10" stroke-dasharray="" stroke-dashoffset="0" style="mix-blend-mode: normal"><path d="M215.46777,188.24807c0,-6.94306 0,-14.87932 0,-18.74689c0,-4.45193 4.79724,-10.53818 11.13097,-10.53818c32.39615,0 -40.91283,0 23.82007,0c9.01598,0 14.11343,6.15222 14.11343,13.09458c0,6.16911 0,12.96215 0,16.61657c0,5.01009 -4.45791,12.36285 -12.40916,12.36285c-61.49571,0 8.09015,0 -25.09826,0c-6.55741,0 -11.55703,-5.90649 -11.55703,-12.78892z" fill="url(#color-1)" stroke-width="0"/><path d="M225.06045,190.248c0,-3.13356 0,-14.07304 0,-14.07304h29.49438c0,0 0,10.37294 0,13.56741c0,1.74424 -1.57478,4.04495 -3.96067,4.04495c-6.36275,0 -18.49409,0 -21.91011,0c-1.75785,0 -3.6236,-1.96786 -3.6236,-3.53933z" fill="#e0bc72" stroke-width="0"/><path d="M226.03014,190.248c0,-3.1479 0,-16.1138 0,-16.1138h27.61278c0,0 0,12.33954 0,15.60818c0,1.49703 -1.36747,3.27401 -3.47012,3.27401c-6.08668,0 -18.33394,0 -21.40449,0c-1.37068,0 -2.73817,-1.46361 -2.73817,-2.76839z" fill="#ffd481" stroke-width="NaN"/><path d="M222.61779,175.9312c-0.34622,-0.48552 0.71143,-1.13652 1.42239,-1.54174c1.82678,-1.04118 9.99947,-5.69924 13.80617,-7.86889c1.19745,-0.68249 2.88529,-0.60208 4.28035,0.17933c3.74354,2.09688 10.89054,6.10015 12.75041,7.14192c0.86991,0.48726 1.65367,1.00373 1.58417,1.99558c-0.05005,0.7142 -0.43521,0.79954 -1.48391,0.80883c-6.12974,0.05429 -27.35743,0.2423 -30.75825,0.27242c-0.89987,0.00797 -1.61787,-0.46079 -1.60132,-0.98745z" fill="#d85d5d" stroke-width="0"/><path d="M241.90383,193.7774v-10.45093h6.98741v10.45093z" fill="#e26161" stroke-width="0"/><path d="M242.63416,193.83358v-9.69925h5.6391v9.69925z" fill="#ff6e6e" stroke-width="0"/><path d="M223.85648,176.28725c-0.74126,0.00212 -0.42197,-0.79735 -0.08784,-1.0072c0.2643,-0.16599 10.14578,-5.70736 14.26495,-8.01655c1.08846,-0.61019 2.7664,-0.43828 3.70069,0.08584c2.4955,1.39993 8.26151,4.71003 13.74151,7.70875c0.95679,0.52357 0.3505,0.87155 0.00539,0.88496c-0.34511,0.01342 -19.31005,0.30908 -31.6247,0.3442z" fill="#ff6e6e" stroke-width="0"/><path d="M228.26269,183.73296c0,-0.83206 0,-1.80636 0,-2.30769c0,-0.62703 0.53806,-1.54245 1.04377,-1.54245c0.89686,0 3.88057,0 5.76923,0c0.94368,0 1.61397,0.86485 1.61397,1.47033c0,0.5075 0,1.52142 0,2.37981c0,0.79636 -0.74453,1.45885 -1.7582,1.45885c-1.73857,0 -4.26885,0 -5.19231,0c-0.67377,0 -1.47646,-0.66463 -1.47646,-1.45885z" fill="#e26161" stroke-width="0"/><path d="M229.02113,183.30027c0,-0.34618 0,-0.96235 0,-1.51442c0,-0.61163 0.62056,-1.1446 1.15073,-1.1446c0.76724,0 2.95182,0 4.39904,0c0.79005,0 1.36035,0.40117 1.36035,0.92825c0,0.79996 0,1.88995 0,2.30769c0,0.32795 -0.49878,0.72473 -1.21612,0.72473c-1.56328,0 -4.16458,0 -4.90385,0c-0.60387,0 -0.79015,-0.7911 -0.79015,-1.30166z" fill="#9effde" stroke-width="0"/></g></g></svg>