<svg version="1.1" xmlns="http://www.w3.org/2000/svg" xmlns:xlink="http://www.w3.org/1999/xlink" width="484.04479" height="409.30376" viewBox="0,0,484.04479,409.30376"><g transform="translate(2.89841,24.65171)"><g data-paper-data="{&quot;isPaintingLayer&quot;:true}" fill-rule="nonzero" stroke="none" stroke-width="0" stroke-linecap="butt" stroke-linejoin="miter" stroke-miterlimit="10" stroke-dasharray="" stroke-dashoffset="0" style="mix-blend-mode: normal"><path d="M-1.14632,384.65205v-409.30375h482.29271v409.30375z" fill="none"/><path d="M-1.14632,384.65206v-409.30375h482.29271v409.30375z" fill="none"/><path d="M115.90733,80.25875l-13.79276,-26.58507l39.20323,-10.28173l33.65959,0.82561l-0.00967,24.82953z" fill="#d2d2d2"/><path d="M54.5644,111.58287l-21.95586,-20.37025l15.87223,-15.25472l49.5241,-18.23753l8.37078,23.37598l-31.62157,12.40843z" fill="#d2d2d2"/><path d="M25.24695,173.0327l-18.78748,-3.40669l3.24288,-55.04493l25.93408,-8.46417l13.21783,7.68832z" fill="#d2d2d2"/><path d="M5.39057,190.11129l17.9047,-6.63299l25.23344,49.02789l-18.01203,20.48867l-8.29964,-19.59031l-25.11544,-31.13074z" data-paper-data="{&quot;index&quot;:null}" fill="#d2d2d2"/><path d="M46.7231,256.21053l13.84684,-13.14686l42.49905,35.13247l-23.83261,11.18554l-35.34391,-18.72742z" data-paper-data="{&quot;index&quot;:null}" fill="#d2d2d2"/><g><path d="M315.2306,22.12687c0,0 -2.39123,-3.41097 -3.10335,-6.64849c-0.48813,-2.21916 0.55302,-4.56023 1.22064,-4.80295c0.65447,-0.23794 2.76771,1.48706 3.3538,3.52531c0.91998,3.19935 0.37222,7.35811 0.37222,7.35811z" fill="#cecece"/><path d="M316.28067,20.99028c0,0 1.2373,-3.97767 3.3639,-6.52054c1.45767,-1.74302 3.94677,-2.35039 4.54701,-1.97048c0.58842,0.37243 0.51536,3.09933 -0.73926,4.80929c-1.96931,2.68405 -5.59517,4.79314 -5.59517,4.79314z" fill="#cecece"/><path d="M317.15835,21.37105c0,0 4.14254,-0.4382 7.31949,0.50818c2.17764,0.6487 3.72066,2.69408 3.60936,3.39569c-0.1091,0.68778 -2.64221,1.70007 -4.70911,1.22475c-3.24432,-0.74608 -6.61638,-3.24096 -6.61638,-3.24096z" fill="#cecece"/><path d="M317.15365,21.11518c0,0 2.17576,3.55229 2.68635,6.82765c0.34999,2.24509 -0.83389,4.51731 -1.51524,4.71829c-0.66792,0.19703 -2.67048,-1.65532 -3.12944,-3.72591c-0.72042,-3.25011 0.08339,-7.36704 0.08339,-7.36704z" fill="#cecece"/><path d="M316.46324,22.53306c0,0 -1.47406,3.89613 -3.74962,6.30663c-1.55978,1.65229 -4.08087,2.109 -4.6572,1.6937c-0.56498,-0.40711 -0.3282,-3.12471 1.02689,-4.75619c2.12703,-2.56085 5.87306,-4.44828 5.87306,-4.44828z" fill="#cecece"/><path d="M315.77709,22.3757c0,0 -4.09309,0.7741 -7.33656,0.08954c-2.22323,-0.46922 -3.92767,-2.38217 -3.87388,-3.09051c0.05274,-0.69437 2.495,-1.90956 4.59374,-1.60414c3.29429,0.4794 6.85832,2.69142 6.85832,2.69142z" fill="#cecece"/><path d="M315.50723,21.40404c0,0 -0.75054,-3.65441 -0.18301,-6.56843c0.38902,-1.99742 2.07812,-3.5505 2.71316,-3.51226c0.62254,0.03749 1.74492,2.20744 1.50084,4.09108c-0.38313,2.95667 -2.31396,6.17913 -2.31396,6.17913z" fill="#eeeeee"/><path d="M316.77483,20.8439c0,0 2.433,-2.82815 5.08596,-4.16061c1.81845,-0.91334 4.08016,-0.52622 4.43816,-0.0003c0.35093,0.51555 -0.68002,2.7304 -2.31984,3.68887c-2.57396,1.50447 -6.30451,1.94667 -6.30451,1.94667z" fill="#eeeeee"/><path d="M317.3605,21.46932c0,0 3.5602,1.11484 5.83394,3.02369c1.55853,1.30843 2.09827,3.53865 1.757,4.07557c-0.33453,0.52634 -2.77658,0.45627 -4.30584,-0.67024c-2.40042,-1.76823 -4.28313,-5.01905 -4.28313,-5.01905z" fill="#eeeeee"/><path d="M317.44773,21.25736c0,0 0.52316,3.69382 -0.22344,6.56718c-0.51177,1.96954 -2.29365,3.41524 -2.92512,3.3378c-0.61902,-0.07591 -1.60511,-2.31111 -1.24504,-4.17606c0.5652,-2.92731 2.69158,-6.02424 2.69158,-6.02424z" fill="#eeeeee"/><path d="M316.37555,22.17669c0,0 -2.59855,2.67685 -5.32678,3.84749c-1.87007,0.80242 -4.10441,0.28008 -4.43015,-0.26638c-0.31932,-0.53571 0.84285,-2.68461 2.53731,-3.54281c2.6597,-1.34707 6.41008,-1.56432 6.41008,-1.56432z" fill="#eeeeee"/><path d="M315.86774,21.80311c0,0 -3.63917,-0.82123 -6.06079,-2.5386c-1.6599,-1.17717 -2.37944,-3.35603 -2.08302,-3.91895c0.29056,-0.55183 2.7302,-0.68085 4.34612,0.31738c2.53643,1.5669 4.67762,4.65361 4.67762,4.65361z" fill="#eeeeee"/><path d="M315.97935,21.46548c0,0 -1.19483,-2.38235 -1.34308,-4.49803c-0.10163,-1.45019 0.77607,-2.83467 1.22132,-2.92593c0.43647,-0.08946 1.61286,1.19979 1.7934,2.54464c0.28339,2.11095 -0.45184,4.692 -0.45184,4.692z" fill="#ffffff"/><path d="M316.75016,20.84419c0,0 1.15475,-2.402 2.73833,-3.81282c1.08546,-0.96703 2.71765,-1.11892 3.06208,-0.82238c0.33763,0.2907 0.03663,2.00983 -0.91722,2.97492c-1.49721,1.51485 -3.98922,2.51103 -3.98922,2.51103z" fill="#ffffff"/><path d="M317.27011,21.16719c0,0 2.66291,0.10966 4.58531,1.00547c1.31771,0.61404 2.10325,2.0528 1.96726,2.48648c-0.13331,0.42513 -1.83119,0.82917 -3.09501,0.33523c-1.98375,-0.77532 -3.88496,-2.66946 -3.88496,-2.66946z" fill="#ffffff"/><path d="M317.29103,21.00479c0,0 1.04526,2.45166 1.06242,4.57247c0.01177,1.45371 -0.94985,2.78127 -1.39988,2.84482c-0.44115,0.0623 -1.53557,-1.29722 -1.63263,-2.65066c-0.15233,-2.12442 0.74106,-4.65508 0.74106,-4.65508z" fill="#ffffff"/><path d="M316.72157,21.83772c0,0 -1.29699,2.3283 -2.96248,3.6414c-1.14162,0.90006 -2.77998,0.9536 -3.10596,0.63689c-0.31955,-0.31046 0.0842,-2.00841 1.09432,-2.91443c1.58554,-1.42214 4.13288,-2.26679 4.13288,-2.26679z" fill="#ffffff"/><path d="M316.30199,21.67403c0,0 -2.66302,0.10754 -4.65197,-0.62876c-1.36334,-0.5047 -2.26343,-1.87472 -2.1632,-2.31803c0.09825,-0.43457 1.75759,-0.97554 3.05743,-0.58615c2.04029,0.61121 4.08945,2.34426 4.08945,2.34426z" fill="#ffffff"/><path d="M313.57449,21.061c0,-1.57824 1.27943,-2.85767 2.85766,-2.85767c1.57824,0 2.85766,1.27942 2.85766,2.85767c0,1.57824 -1.27942,2.85766 -2.85766,2.85766c-1.57824,0 -2.85766,-1.27942 -2.85766,-2.85766z" fill="#faff00"/></g><g><path d="M325.73829,39.79888c0,0 -2.39123,-3.41097 -3.10335,-6.64849c-0.48813,-2.21916 0.55302,-4.56022 1.22064,-4.80295c0.65447,-0.23795 2.76771,1.48706 3.35381,3.5253c0.91998,3.19936 0.37222,7.3581 0.37222,7.3581z" fill="#cecece"/><path d="M326.78836,38.6623c0,0 1.23729,-3.97767 3.36388,-6.52054c1.45767,-1.74302 3.94679,-2.3504 4.54703,-1.97048c0.58842,0.37243 0.51535,3.09933 -0.73927,4.80929c-1.96931,2.68404 -5.59517,4.79315 -5.59517,4.79315z" fill="#cecece"/><path d="M327.66603,39.04307c0,0 4.14255,-0.43821 7.31949,0.50818c2.17764,0.6487 3.72066,2.69409 3.60936,3.39569c-0.1091,0.68778 -2.64221,1.70007 -4.70911,1.22475c-3.24432,-0.74607 -6.61638,-3.24097 -6.61638,-3.24097z" fill="#cecece"/><path d="M327.66132,38.78719c0,0 2.17576,3.55228 2.68635,6.82764c0.34999,2.24509 -0.83389,4.51731 -1.51524,4.71828c-0.66792,0.19703 -2.67047,-1.65532 -3.12944,-3.72591c-0.72042,-3.2501 0.0834,-7.36704 0.0834,-7.36704z" fill="#cecece"/><path d="M326.97092,40.20506c0,0 -1.47407,3.89613 -3.74962,6.30663c-1.55978,1.65229 -4.08087,2.10901 -4.6572,1.69371c-0.56498,-0.40711 -0.3282,-3.12472 1.02689,-4.75618c2.12703,-2.56085 5.87306,-4.44828 5.87306,-4.44828z" fill="#cecece"/><path d="M326.28479,40.04771c0,0 -4.0931,0.7741 -7.33657,0.08954c-2.22323,-0.46922 -3.92768,-2.38217 -3.87388,-3.09051c0.05274,-0.69436 2.49502,-1.90955 4.59375,-1.60414c3.29429,0.4794 6.85832,2.69141 6.85832,2.69141z" fill="#cecece"/><path d="M326.01493,39.07605c0,0 -0.75054,-3.6544 -0.18302,-6.56842c0.38902,-1.99742 2.07813,-3.5505 2.71317,-3.51226c0.62254,0.03748 1.74491,2.20744 1.50083,4.09108c-0.38313,2.95667 -2.31397,6.17914 -2.31397,6.17914z" fill="#eeeeee"/><path d="M327.28252,38.51592c0,0 2.433,-2.82815 5.08595,-4.16061c1.81845,-0.91334 4.08016,-0.52621 4.43815,-0.00029c0.35093,0.51555 -0.68002,2.7304 -2.31984,3.68887c-2.57396,1.50447 -6.30451,1.94667 -6.30451,1.94667z" fill="#eeeeee"/><path d="M327.86819,39.14133c0,0 3.5602,1.11484 5.83393,3.0237c1.55853,1.30844 2.09827,3.53865 1.757,4.07557c-0.33453,0.52634 -2.77658,0.45628 -4.30584,-0.67023c-2.40042,-1.76823 -4.28313,-5.01906 -4.28313,-5.01906z" fill="#eeeeee"/><path d="M327.95542,38.92936c0,0 0.52316,3.69382 -0.22345,6.56718c-0.51177,1.96954 -2.29365,3.41524 -2.92512,3.3378c-0.61902,-0.07591 -1.6051,-2.31111 -1.24504,-4.17605c0.5652,-2.92731 2.69158,-6.02425 2.69158,-6.02425z" fill="#eeeeee"/><path d="M326.88323,39.84871c0,0 -2.59856,2.67685 -5.32678,3.84749c-1.87007,0.80242 -4.10441,0.28008 -4.43015,-0.26638c-0.31932,-0.53571 0.84286,-2.68462 2.53731,-3.54282c2.6597,-1.34707 6.41008,-1.56431 6.41008,-1.56431z" fill="#eeeeee"/><path d="M326.37543,39.47512c0,0 -3.63917,-0.82124 -6.06079,-2.53861c-1.6599,-1.17717 -2.37944,-3.35602 -2.08303,-3.91895c0.29056,-0.55183 2.7302,-0.68085 4.34612,0.31739c2.53643,1.5669 4.67762,4.6536 4.67762,4.6536z" fill="#eeeeee"/><path d="M326.48703,39.13749c0,0 -1.19483,-2.38235 -1.34308,-4.49802c-0.10163,-1.45019 0.77607,-2.83467 1.22131,-2.92592c0.43647,-0.08946 1.61286,1.19978 1.7934,2.54463c0.28339,2.11095 -0.45184,4.692 -0.45184,4.692z" fill="#ffffff"/><path d="M327.25784,38.5162c0,0 1.15475,-2.40201 2.73834,-3.81282c1.08546,-0.96703 2.71765,-1.11892 3.06207,-0.82238c0.33763,0.2907 0.03664,2.00984 -0.91721,2.97492c-1.49721,1.51485 -3.98922,2.51104 -3.98922,2.51104z" fill="#ffffff"/><path d="M327.77778,38.83921c0,0 2.66291,0.10965 4.58531,1.00547c1.31771,0.61404 2.10325,2.0528 1.96726,2.48648c-0.13331,0.42513 -1.83119,0.82919 -3.09501,0.33524c-1.98375,-0.77532 -3.88497,-2.66947 -3.88497,-2.66947z" fill="#ffffff"/><path d="M327.79871,38.6768c0,0 1.04525,2.45167 1.06242,4.57247c0.01177,1.45371 -0.94985,2.78128 -1.39988,2.84482c-0.44115,0.06231 -1.53557,-1.29723 -1.63263,-2.65066c-0.15233,-2.12443 0.74105,-4.65508 0.74105,-4.65508z" fill="#ffffff"/><path d="M327.22926,39.50973c0,0 -1.29699,2.3283 -2.96249,3.64139c-1.14162,0.90006 -2.77998,0.9536 -3.10596,0.6369c-0.31955,-0.31046 0.08421,-2.0084 1.09433,-2.91442c1.58554,-1.42214 4.1329,-2.2668 4.1329,-2.2668z" fill="#ffffff"/><path d="M326.80968,39.34604c0,0 -2.66301,0.10754 -4.65196,-0.62875c-1.36334,-0.5047 -2.26342,-1.87472 -2.16319,-2.31802c0.09825,-0.43458 1.75758,-0.97553 3.05742,-0.58614c2.04029,0.61121 4.08945,2.34425 4.08945,2.34425z" fill="#ffffff"/><path d="M324.08218,38.73301c0,-1.57824 1.27943,-2.85766 2.85766,-2.85766c1.57824,0 2.85766,1.27942 2.85766,2.85766c0,1.57824 -1.27942,2.85766 -2.85766,2.85766c-1.57824,0 -2.85766,-1.27942 -2.85766,-2.85766z" fill="#faff00"/></g><g><path d="M370.95627,54.89724c0,0 -2.73102,-3.89568 -3.54434,-7.59327c-0.55749,-2.53451 0.6316,-5.20826 1.39409,-5.48547c0.74746,-0.27177 3.161,1.69838 3.8304,4.02628c1.05072,3.65399 0.42512,8.40371 0.42512,8.40371z" fill="#cecece"/><path d="M372.15557,53.59913c0,0 1.41312,-4.54292 3.8419,-7.44714c1.66482,-1.99071 4.50763,-2.68439 5.19317,-2.25049c0.67204,0.42536 0.58859,3.53978 -0.84431,5.49272c-2.24915,3.06545 -6.39028,5.47427 -6.39028,5.47427z" fill="#cecece"/><path d="M373.15797,54.03401c0,0 4.73122,-0.5005 8.35963,0.58039c2.4871,0.74088 4.24936,3.07693 4.12226,3.87823c-0.1246,0.78551 -3.01769,1.94166 -5.3783,1.39881c-3.70535,-0.85209 -7.55659,-3.70153 -7.55659,-3.70153z" fill="#cecece"/><path d="M373.15259,53.74177c0,0 2.48495,4.05707 3.06809,7.79789c0.39972,2.56414 -0.9524,5.15923 -1.73058,5.38877c-0.76283,0.22503 -3.04996,-1.89055 -3.57415,-4.25538c-0.82279,-3.71197 0.09525,-8.41392 0.09525,-8.41392z" fill="#cecece"/><path d="M372.36407,55.36114c0,0 -1.68354,4.44979 -4.28246,7.20283c-1.78144,1.88708 -4.66078,2.4087 -5.31902,1.93439c-0.64527,-0.46497 -0.37482,-3.56876 1.17283,-5.43206c2.4293,-2.92477 6.70766,-5.0804 6.70766,-5.0804z" fill="#cecece"/><path d="M371.58044,55.18144c0,0 -4.67474,0.88408 -8.37912,0.10226c-2.53917,-0.5359 -4.48582,-2.72068 -4.42438,-3.52968c0.06023,-0.79304 2.84956,-2.18092 5.24654,-1.83209c3.76243,0.54753 7.83291,3.07388 7.83291,3.07388z" fill="#cecece"/><path d="M371.27222,54.07169c0,0 -0.85719,-4.17372 -0.20902,-7.50183c0.4443,-2.28126 2.37342,-4.05504 3.09871,-4.01137c0.71099,0.04281 1.99288,2.52113 1.71412,4.67244c-0.43757,3.37682 -2.64279,7.05721 -2.64279,7.05721z" fill="#eeeeee"/><path d="M372.71994,53.43196c0,0 2.77875,-3.23005 5.80869,-4.75186c2.07688,-1.04313 4.65997,-0.60099 5.06884,-0.00033c0.4008,0.58881 -0.77665,3.11841 -2.64949,4.21308c-2.93973,1.71827 -7.20041,2.22329 -7.20041,2.22329z" fill="#eeeeee"/><path d="M373.38885,54.14623c0,0 4.06612,1.27327 6.66296,3.45338c1.78001,1.49436 2.39643,4.04152 2.00667,4.65473c-0.38208,0.60113 -3.17115,0.52112 -4.91772,-0.76548c-2.74153,-2.01951 -4.89179,-5.7323 -4.89179,-5.7323z" fill="#eeeeee"/><path d="M373.48847,53.90417c0,0 0.59751,4.21873 -0.2552,7.50041c-0.58449,2.24943 -2.61958,3.90056 -3.34079,3.81211c-0.707,-0.0867 -1.83319,-2.63951 -1.42196,-4.76948c0.64551,-3.34331 3.07406,-6.88032 3.07406,-6.88032z" fill="#eeeeee"/><path d="M372.26393,54.95414c0,0 -2.96783,3.05725 -6.08374,4.39424c-2.13582,0.91644 -4.68767,0.31989 -5.0597,-0.30425c-0.36469,-0.61183 0.96263,-3.06611 2.89788,-4.04626c3.03767,-1.53851 7.32098,-1.78661 7.32098,-1.78661z" fill="#eeeeee"/><path d="M371.68396,54.52747c0,0 -4.15632,-0.93795 -6.92205,-2.89935c-1.89579,-1.34446 -2.71757,-3.83293 -2.37905,-4.47584c0.33186,-0.63025 3.11818,-0.77761 4.96373,0.36248c2.89686,1.78956 5.34233,5.31491 5.34233,5.31491z" fill="#eeeeee"/><path d="M371.81142,54.14186c0,0 -1.36461,-2.72088 -1.53393,-5.13721c-0.11606,-1.65628 0.88635,-3.23748 1.39486,-3.34172c0.49849,-0.10217 1.84206,1.37029 2.04825,2.90625c0.32366,2.41093 -0.51605,5.35876 -0.51605,5.35876z" fill="#ffffff"/><path d="M372.69178,53.43227c0,0 1.31885,-2.74336 3.12745,-4.35465c1.23972,-1.10446 3.10384,-1.27793 3.49721,-0.93924c0.38562,0.33201 0.04185,2.29544 -1.04755,3.39767c-1.70997,1.73011 -4.5561,2.86786 -4.5561,2.86786z" fill="#ffffff"/><path d="M373.2856,53.80119c0,0 3.04134,0.12524 5.2369,1.14835c1.50495,0.7013 2.40215,2.34453 2.24682,2.83983c-0.15226,0.48553 -2.09141,0.947 -3.53483,0.38287c-2.26567,-0.88551 -4.43704,-3.04883 -4.43704,-3.04883z" fill="#ffffff"/><path d="M373.3095,53.61571c0,0 1.19377,2.80005 1.21338,5.22223c0.01344,1.66029 -1.08481,3.1765 -1.59879,3.24909c-0.50385,0.07115 -1.75379,-1.48155 -1.86464,-3.02732c-0.17397,-2.42632 0.84637,-5.3166 0.84637,-5.3166z" fill="#ffffff"/><path d="M372.65913,54.567c0,0 -1.4813,2.65917 -3.38348,4.15886c-1.30385,1.02797 -3.17502,1.0891 -3.54733,0.7274c-0.36497,-0.35458 0.09617,-2.29381 1.24983,-3.32857c1.81084,-1.62423 4.72019,-2.58892 4.72019,-2.58892z" fill="#ffffff"/><path d="M372.17992,54.38005c0,0 -3.04143,0.12282 -5.31302,-0.7181c-1.55707,-0.57641 -2.58507,-2.14113 -2.4706,-2.64743c0.11221,-0.49632 2.00736,-1.11416 3.49191,-0.66945c2.33022,0.69806 4.67058,2.67738 4.67058,2.67738z" fill="#ffffff"/><path d="M369.06482,53.67989c0,-1.80251 1.46124,-3.26374 3.26376,-3.26374c1.80252,0 3.26374,1.46123 3.26374,3.26375c0,1.80251 -1.46123,3.26375 -3.26374,3.26375c-1.80252,0 -3.26376,-1.46124 -3.26376,-3.26375z" fill="#faff00"/></g><g><path d="M389.22532,71.4946c0,0 -2.73103,-3.89568 -3.54434,-7.59327c-0.55749,-2.53453 0.6316,-5.20825 1.3941,-5.48547c0.74746,-0.27177 3.161,1.69839 3.83039,4.02628c1.05072,3.654 0.42513,8.40372 0.42513,8.40372z" fill="#cecece"/><path d="M390.42462,70.1965c0,0 1.41311,-4.54292 3.8419,-7.44714c1.66482,-1.99071 4.50764,-2.68439 5.19318,-2.25048c0.67204,0.42535 0.58859,3.53976 -0.84431,5.49271c-2.24915,3.06545 -6.39028,5.47427 -6.39028,5.47427z" fill="#cecece"/><path d="M391.42701,70.63137c0,0 4.73123,-0.50049 8.35963,0.58039c2.4871,0.74088 4.24937,3.07693 4.12227,3.87823c-0.1246,0.78551 -3.0177,1.94166 -5.37831,1.39879c-3.70535,-0.85209 -7.55659,-3.70152 -7.55659,-3.70152z" fill="#cecece"/><path d="M391.42163,70.33914c0,0 2.48494,4.05707 3.06809,7.79788c0.39972,2.56414 -0.9524,5.15923 -1.73057,5.38877c-0.76283,0.22503 -3.04996,-1.89055 -3.57416,-4.25538c-0.82279,-3.71197 0.09526,-8.41393 0.09526,-8.41393z" fill="#cecece"/><path d="M390.63311,71.9585c0,0 -1.68355,4.44978 -4.28246,7.20282c-1.78144,1.88708 -4.66078,2.4087 -5.31902,1.93439c-0.64527,-0.46497 -0.37483,-3.56876 1.17283,-5.43206c2.4293,-2.92477 6.70767,-5.0804 6.70767,-5.0804z" fill="#cecece"/><path d="M389.84949,71.7788c0,0 -4.67476,0.88408 -8.37912,0.10227c-2.53917,-0.5359 -4.48582,-2.72068 -4.42437,-3.52968c0.06023,-0.79304 2.84956,-2.18093 5.24654,-1.83209c3.76243,0.54753 7.83292,3.07387 7.83292,3.07387z" fill="#cecece"/><path d="M389.54126,70.66905c0,0 -0.85718,-4.17372 -0.20901,-7.50183c0.4443,-2.28126 2.37342,-4.05503 3.09871,-4.01136c0.71099,0.04281 1.99289,2.52113 1.71413,4.67244c-0.43757,3.37682 -2.6428,7.05722 -2.6428,7.05722z" fill="#eeeeee"/><path d="M390.98899,70.02932c0,0 2.77875,-3.23004 5.80869,-4.75185c2.07688,-1.04313 4.65997,-0.60099 5.06884,-0.00034c0.4008,0.58881 -0.77665,3.1184 -2.6495,4.21308c-2.93973,1.71827 -7.2004,2.22329 -7.2004,2.22329z" fill="#eeeeee"/><path d="M391.65789,70.7436c0,0 4.06612,1.27327 6.66296,3.45337c1.78001,1.49436 2.39644,4.04152 2.00667,4.65473c-0.38208,0.60113 -3.17115,0.52112 -4.91772,-0.76548c-2.74153,-2.0195 -4.89179,-5.73228 -4.89179,-5.73228z" fill="#eeeeee"/><path d="M391.75752,70.50153c0,0 0.5975,4.21873 -0.2552,7.50041c-0.58449,2.24943 -2.61958,3.90055 -3.34078,3.81211c-0.707,-0.0867 -1.83319,-2.63951 -1.42196,-4.76948c0.64551,-3.34331 3.07405,-6.88032 3.07405,-6.88032z" fill="#eeeeee"/><path d="M390.53298,71.55151c0,0 -2.96782,3.05724 -6.08374,4.39423c-2.13582,0.91644 -4.68767,0.31989 -5.0597,-0.30424c-0.36469,-0.61183 0.96263,-3.06611 2.89788,-4.04626c3.03767,-1.53851 7.32098,-1.78661 7.32098,-1.78661z" fill="#eeeeee"/><path d="M389.953,71.12483c0,0 -4.15631,-0.93793 -6.92204,-2.89935c-1.89579,-1.34445 -2.71757,-3.83293 -2.37904,-4.47586c0.33186,-0.63025 3.11818,-0.77761 4.96373,0.36248c2.89686,1.78955 5.34233,5.3149 5.34233,5.3149z" fill="#eeeeee"/><path d="M390.08046,70.73923c0,0 -1.36462,-2.72088 -1.53393,-5.13721c-0.11606,-1.65628 0.88636,-3.23748 1.39488,-3.34171c0.49849,-0.10217 1.84204,1.37029 2.04825,2.90624c0.32366,2.41093 -0.51605,5.35875 -0.51605,5.35875z" fill="#ffffff"/><path d="M390.96082,70.02964c0,0 1.31885,-2.74336 3.12746,-4.35465c1.23972,-1.10445 3.10384,-1.27793 3.49721,-0.93924c0.38562,0.33201 0.04184,2.29546 -1.04756,3.39767c-1.70997,1.73011 -4.55611,2.86786 -4.55611,2.86786z" fill="#ffffff"/><path d="M391.55464,70.39855c0,0 3.04134,0.12523 5.2369,1.14835c1.50495,0.7013 2.40213,2.34453 2.24682,2.83982c-0.15226,0.48553 -2.09141,0.94701 -3.53483,0.38287c-2.26567,-0.88551 -4.43703,-3.04882 -4.43703,-3.04882z" fill="#ffffff"/><path d="M391.57854,70.21308c0,0 1.19378,2.80005 1.21339,5.22223c0.01344,1.66029 -1.08482,3.17649 -1.5988,3.24908c-0.50385,0.07116 -1.75379,-1.48155 -1.86464,-3.02732c-0.17397,-2.42633 0.84636,-5.3166 0.84636,-5.3166z" fill="#ffffff"/><path d="M390.92817,71.16436c0,0 -1.4813,2.65916 -3.38348,4.15885c-1.30385,1.02797 -3.17503,1.08911 -3.54733,0.7274c-0.36497,-0.35458 0.09617,-2.29381 1.24983,-3.32857c1.81084,-1.62422 4.72019,-2.58892 4.72019,-2.58892z" fill="#ffffff"/><path d="M390.44897,70.97741c0,0 -3.04143,0.12282 -5.31302,-0.71811c-1.55707,-0.57641 -2.58506,-2.14112 -2.4706,-2.64742c0.11221,-0.49631 2.00735,-1.11416 3.4919,-0.66944c2.33022,0.69806 4.67058,2.67739 4.67058,2.67739z" fill="#ffffff"/><path d="M387.33386,70.27727c0,-1.80251 1.46123,-3.26376 3.26374,-3.26376c1.80252,0 3.26375,1.46124 3.26375,3.26376c0,1.80251 -1.46123,3.26376 -3.26375,3.26376c-1.80252,0 -3.26374,-1.46124 -3.26374,-3.26376z" fill="#faff00"/></g></g></g></svg>