<svg version="1.1" xmlns="http://www.w3.org/2000/svg" xmlns:xlink="http://www.w3.org/1999/xlink" width="877.97602" height="657.26933" viewBox="0,0,877.97602,657.26933"><g transform="translate(198.5,144)"><g data-paper-data="{&quot;isPaintingLayer&quot;:true}" fill-rule="nonzero" stroke-linejoin="miter" stroke-miterlimit="10" stroke-dasharray="" stroke-dashoffset="0" style="mix-blend-mode: normal"><g fill="#ffa000" stroke="none" stroke-width="0" stroke-linecap="butt"><path d="M22.92387,13.07884c0,-8.3918 6.8029,-15.1947 15.19469,-15.1947c8.3918,0 15.1947,6.80291 15.1947,15.1947c0,8.3918 -6.80291,15.1947 -15.1947,15.1947c-8.3918,0 -15.19469,-6.8029 -15.19469,-15.1947z"/><path d="M23.25879,347.31808c0,-8.39179 6.80291,-15.1947 15.19469,-15.1947c8.3918,0 15.19471,6.80291 15.19471,15.1947c0,8.3918 -6.80291,15.1947 -15.1947,15.1947c-8.3918,0 -15.19469,-6.80291 -15.19469,-15.1947z"/></g><path d="M679.47602,-144v657.26933h-877.97602v-657.26933z" data-paper-data="{&quot;index&quot;:null}" fill="none" stroke="none" stroke-width="0" stroke-linecap="butt"/><path d="M58.87901,352.5743l-19.43134,0.73993l-2.02627,-332.59449c0,0 156.73166,-4.19424 277.28625,31.9784c92.43603,27.73561 95.15583,328.94969 95.15583,328.94969l-328.15627,-0.20273z" data-paper-data="{&quot;index&quot;:null}" fill="#9a9a9a" stroke="none" stroke-width="0" stroke-linecap="butt"/><path d="M38.53423,30.53479c36.61051,-0.93886 220.90579,0.44692 289.57019,69.60996c62.57646,63.03089 59.95622,278.80685 59.95622,278.80685" data-paper-data="{&quot;index&quot;:null}" fill="none" stroke="#909090" stroke-width="7.5" stroke-linecap="round"/><path d="M38.14918,13.14435c0,0 209.02367,-8.37983 297.92608,69.67068c67.20724,61.21917 70.85771,248.24899 70.74656,294.99343" data-paper-data="{&quot;index&quot;:null}" fill="none" stroke="#bcbcbc" stroke-width="30.5" stroke-linecap="round"/><path d="M39.73841,329.30368c0,0 18.80395,-0.12775 22.10162,-0.0286c5.42164,0.16302 14.5293,0.77268 19.50027,3.73843c8.61321,5.13877 9.82638,16.59746 9.82638,18.48545c0,9.82537 0,32.06188 0,32.06188" data-paper-data="{&quot;index&quot;:null}" fill="none" stroke="#909090" stroke-width="7.5" stroke-linecap="round"/><path d="M38.55129,347.34861c0,0 33.63356,0.53355 33.89317,1.02173c0.36049,0.67786 0.11111,29.91273 0.11111,29.91273" data-paper-data="{&quot;index&quot;:null}" fill="none" stroke="#bcbcbc" stroke-width="30.5" stroke-linecap="round"/></g></g></svg>