<svg version="1.1" xmlns="http://www.w3.org/2000/svg" xmlns:xlink="http://www.w3.org/1999/xlink" width="509.00901" height="382.88288" viewBox="0,0,509.00901,382.88288"><defs><radialGradient cx="335.07195" cy="101.95252" r="26.58977" gradientUnits="userSpaceOnUse" id="color-1"><stop offset="0" stop-color="#b7b7b7"/><stop offset="1" stop-color="#a9a9a9"/></radialGradient><linearGradient x1="238.42619" y1="107.48211" x2="238.42619" y2="263.38428" gradientUnits="userSpaceOnUse" id="color-2"><stop offset="0" stop-color="#d0b78c"/><stop offset="1" stop-color="#edd29f"/></linearGradient><linearGradient x1="276.29551" y1="196.75978" x2="276.29551" y2="250.38372" gradientUnits="userSpaceOnUse" id="color-3"><stop offset="0" stop-color="#8eb3cc"/><stop offset="1" stop-color="#77acd1"/></linearGradient><linearGradient x1="333.95693" y1="195.79473" x2="333.95693" y2="249.41868" gradientUnits="userSpaceOnUse" id="color-4"><stop offset="0" stop-color="#8eb3cc"/><stop offset="1" stop-color="#77acd1"/></linearGradient></defs><g transform="translate(11.5015,9.18919)"><g data-paper-data="{&quot;isPaintingLayer&quot;:true}" fill-rule="nonzero" stroke="none" stroke-width="0" stroke-linecap="butt" stroke-linejoin="miter" stroke-miterlimit="10" stroke-dasharray="" stroke-dashoffset="0" style="mix-blend-mode: normal"><path d="M-11.5015,373.69369v-382.88288h509.00901v382.88288z" fill="none"/><path d="M308.4821,121.04709c0,-11.42827 0,-32.53661 0,-38.7195c0,-3.34475 4.425,-6.96482 8.29084,-6.96482c6.34134,0 26.05056,0 37.12831,0c4.6361,0 7.76041,3.12431 7.76041,7.76039c0,11.07775 0,30.78697 0,37.12831c0,3.86583 -3.71726,8.29082 -9.08643,8.29082c-11.78696,0 -31.53513,0 -37.3935,0c-3.23733,0 -6.6996,-2.99818 -6.6996,-7.49522z" fill="url(#color-1)"/><path d="M106.34418,284.6372l-11.49688,-145.2758c0,0 99.34985,-45.16167 147.19766,-45.37408c48.78541,-0.21657 143.31592,45.20547 143.31592,45.20547l-13.79171,145.44443z" fill="url(#color-2)"/><path d="M75.73331,153.01159v-17.06798l164.47578,-55.27658v17.06798z" fill="#b17300"/><path d="M239.79091,97.9214v-17.06798l164.47578,55.27658v17.06798z" data-paper-data="{&quot;index&quot;:null}" fill="#b17300"/><g><path d="M176.29654,283.97228c0,0 -19.891,-67.72894 23.94496,-67.22097c42.27759,0.4899 27.98847,66.85908 27.98847,66.85908z" fill="#734e10"/><path d="M175.84604,238.46267h-8.14564c0,0 -2.24004,-27.48125 32.5917,-27.50231c32.02707,-0.01942 32.16029,27.87233 32.16029,27.87233h-7.93071c0,0 1.99412,-18.97607 -23.80112,-19.59329c-26.00026,-0.62214 -24.87451,19.22326 -24.87451,19.22326z" fill="#8c6013"/><path d="M169.01692,283.65841l-1.3165,-45.94636h8.03818l1.3165,45.94636z" fill="#8c6013"/><path d="M224.69416,283.84518l-0.13106,-45.94636h8.03814l0.13106,45.94636z" data-paper-data="{&quot;index&quot;:null}" fill="#8c6013"/></g><g><path d="M256.81187,250.38372v-53.62395h38.96731v53.62395z" fill="url(#color-3)"/><path d="M253.79094,248.95136v-54.25337h5.99823v54.25337z" fill="#7b5411"/><path d="M294.56148,249.05237v-54.25337h5.99823v54.25337z" fill="#7b5411"/><path d="M300.64662,253.0936h-46.68183v-6.97109h46.68183z" fill="#7b5411"/><path d="M300.47278,197.72891h-46.68183v-6.97109h46.68183z" fill="#7b5411"/></g><g><path d="M314.47329,249.41868v-53.62395h38.96731v53.62395z" fill="url(#color-4)"/><path d="M311.45236,247.98631v-54.25334h5.99823v54.25334z" fill="#7b5411"/><path d="M352.2229,248.08735v-54.25334h5.99823v54.25334z" fill="#7b5411"/><path d="M358.30806,252.12856h-46.68183v-6.97109h46.68183z" fill="#7b5411"/><path d="M358.13418,196.76386h-46.68183v-6.97109h46.68183z" fill="#7b5411"/></g></g></g></svg>