<svg version="1.1" xmlns="http://www.w3.org/2000/svg" xmlns:xlink="http://www.w3.org/1999/xlink" width="457.56405" height="87.85272" viewBox="0,0,457.56405,87.85272"><g transform="translate(-12.82649,-264.24935)"><g data-paper-data="{&quot;isPaintingLayer&quot;:true}" fill-rule="nonzero" stroke-linecap="butt" stroke-linejoin="miter" stroke-miterlimit="10" stroke-dasharray="" stroke-dashoffset="0" style="mix-blend-mode: normal"><text transform="translate(49.80987,303.40471) scale(0.24,0.24)" font-size="40" xml:space="preserve" fill-opacity="0.54902" fill="#000000" fill-rule="nonzero" stroke="none" stroke-width="1" stroke-linecap="butt" stroke-linejoin="miter" stroke-miterlimit="10" stroke-dasharray="" stroke-dashoffset="0" font-family="Sans Serif" font-weight="normal" text-anchor="start" style="mix-blend-mode: normal"><tspan x="0" dy="0">speed</tspan></text><path d="M26.3747,348.89139c-7.9594,-8.90491 -12.79821,-20.65822 -12.79821,-33.54169c0,-27.80773 22.54262,-50.35035 50.35035,-50.35035c27.80773,0 50.35036,22.54262 50.35036,50.35035c0,11.49106 -3.8494,22.08302 -10.32903,30.55676c-0.73833,0.96555 -2.49234,2.98908 -2.49246,2.98922" fill="none" stroke-opacity="0.54902" stroke="#000000" stroke-width="1.5"/><path d="M115.03065,299.2231c3.93435,11.98999 3.62564,25.41916 -1.86253,37.87618c-2.36255,5.36251 -5.50583,10.13835 -9.23746,14.25279" fill="none" stroke="#ff0000" stroke-width="1.5"/><path d="" fill-opacity="0.48235" fill="#000000" stroke="none" stroke-width="0"/><text transform="translate(34.50659,341.66488) scale(0.18444,0.18444)" font-size="40" xml:space="preserve" fill-opacity="0.54902" fill="#000000" fill-rule="nonzero" stroke-opacity="0" stroke="#000000" stroke-width="0" stroke-linecap="butt" stroke-linejoin="miter" stroke-miterlimit="10" stroke-dasharray="" stroke-dashoffset="0" font-family="Sans Serif" font-weight="normal" text-anchor="start" style="mix-blend-mode: normal"><tspan x="0" dy="0">0</tspan></text><path d="" fill="#ff0000" stroke-opacity="0.47451" stroke="#000000" stroke-width="0.5"/><path d="M26.95181,348.39039l-1.65618,-1.89441l4.87634,-4.26315l1.65619,1.89441z" fill-opacity="0.54902" fill="#000000" stroke="none" stroke-width="0"/><path d="M16.9649,331.28103l-0.75339,-2.40087l6.17998,-1.93931l0.75339,2.40087z" fill-opacity="0.54902" fill="#000000" stroke="none" stroke-width="0"/><path d="M14.48679,311.08871l0.27326,-2.50141l6.43883,0.70336l-0.27325,2.50142z" fill-opacity="0.54902" fill="#000000" stroke="none" stroke-width="0"/><path d="M20.29871,291.6338l1.25735,-2.17963l5.61054,3.2365l-1.25735,2.17964z" fill-opacity="0.54902" fill="#000000" stroke="none" stroke-width="0"/><path d="M33.92546,275.87432l2.02835,-1.48913l3.83315,5.22112l-2.02835,1.48912z" fill-opacity="0.54902" fill="#000000" stroke="none" stroke-width="0"/><path d="M52.36595,267.11926l2.46284,-0.51592l1.32805,6.33951l-2.46284,0.51593z" fill-opacity="0.54902" fill="#000000" stroke="none" stroke-width="0"/><path d="M72.78249,266.48877l2.4624,0.51803l-1.33344,6.33839l-2.4624,-0.51803z" fill-opacity="0.54902" fill="#000000" stroke="none" stroke-width="0"/><path d="M91.91944,274.3592l2.06774,1.43395l-3.69106,5.3225l-2.06775,-1.43394z" fill-opacity="0.54902" fill="#000000" stroke="none" stroke-width="0"/><path d="M106.05672,289.15023l1.28672,2.16243l-5.56622,3.31212l-1.28673,-2.16242z" fill-opacity="0.54902" fill="#000000" stroke="none" stroke-width="0"/><path d="M113.01501,308.26209l0.31206,2.49686l-6.42712,0.80329l-0.31207,-2.49685z" fill-opacity="0.54902" fill="#000000" stroke="none" stroke-width="0"/><path d="M111.79203,328.3951l-0.74672,2.40296l-6.18536,-1.92207l0.74671,-2.40296z" fill-opacity="0.54902" fill="#000000" stroke="none" stroke-width="0"/><path d="M21.0708,340.3609l-0.89574,-1.51808l3.25965,-1.9153l0.89573,1.51808z" fill-opacity="0.40392" fill="#000000" stroke="none" stroke-width="0"/><path d="M14.6762,321.24095l-0.13551,-1.75742l3.77004,-0.28375l0.13551,1.75742z" fill-opacity="0.40392" fill="#000000" stroke="none" stroke-width="0"/><path d="M16.54927,300.71499l0.5745,-1.66638l3.57198,1.23881l-0.5745,1.66638z" fill-opacity="0.40392" fill="#000000" stroke="none" stroke-width="0"/><path d="M26.91119,282.27979l1.24074,-1.25198l2.68053,2.66618l-1.24073,1.25199z" fill-opacity="0.40392" fill="#000000" stroke="none" stroke-width="0"/><path d="M43.08438,270.37345l1.5797,-0.78196l1.67103,3.39137l-1.5797,0.78196z" fill-opacity="0.40392" fill="#000000" stroke="none" stroke-width="0"/><path d="M62.98458,265.75967l1.76232,-0.03307l0.064,3.78016l-1.76233,0.03307z" fill-opacity="0.40392" fill="#000000" stroke="none" stroke-width="0"/><path d="M83.5563,269.82312l1.61463,0.707l-1.52278,3.46046l-1.61463,-0.70699z" fill-opacity="0.40392" fill="#000000" stroke="none" stroke-width="0"/><path d="M99.59898,280.90204l1.23757,1.25512l-2.69696,2.64954l-1.23757,-1.25511z" fill-opacity="0.40392" fill="#000000" stroke="none" stroke-width="0"/><path d="M110.51773,298.42418l0.54268,1.67702l-3.59919,1.15741l-0.54268,-1.67703z" fill-opacity="0.40392" fill="#000000" stroke="none" stroke-width="0"/><path d="M113.3762,318.55686l-0.17673,1.75376l-3.76095,-0.38596l0.17674,-1.75376z" fill-opacity="0.40392" fill="#000000" stroke="none" stroke-width="0"/><path d="M107.81916,338.63289l-0.90541,1.51233l-3.24025,-1.94795l0.90541,-1.51233z" fill-opacity="0.40392" fill="#000000" stroke="none" stroke-width="0"/><path d="M95.97626,344.12724l1.65619,-1.89441l4.87634,4.26315l-1.65618,1.89441z" data-paper-data="{&quot;index&quot;:null}" fill-opacity="0.54902" fill="#000000" stroke="none" stroke-width="0"/><text transform="translate(24.95024,329.03891) scale(0.18444,0.18444)" font-size="40" xml:space="preserve" fill-opacity="0.54902" fill="#000000" fill-rule="nonzero" stroke-opacity="0" stroke="#000000" stroke-width="0" stroke-linecap="butt" stroke-linejoin="miter" stroke-miterlimit="10" stroke-dasharray="" stroke-dashoffset="0" font-family="Sans Serif" font-weight="normal" text-anchor="start" style="mix-blend-mode: normal"><tspan x="0" dy="0">20</tspan></text><text transform="translate(22.98105,313.74875) scale(0.18444,0.18444)" font-size="40" xml:space="preserve" fill-opacity="0.54902" fill="#000000" fill-rule="nonzero" stroke-opacity="0" stroke="#000000" stroke-width="0" stroke-linecap="butt" stroke-linejoin="miter" stroke-miterlimit="10" stroke-dasharray="" stroke-dashoffset="0" font-family="Sans Serif" font-weight="normal" text-anchor="start" style="mix-blend-mode: normal"><tspan x="0" dy="0">40</tspan></text><text transform="translate(28.01986,298.69025) scale(0.18444,0.18444)" font-size="40" xml:space="preserve" fill-opacity="0.54902" fill="#000000" fill-rule="nonzero" stroke-opacity="0" stroke="#000000" stroke-width="0" stroke-linecap="butt" stroke-linejoin="miter" stroke-miterlimit="10" stroke-dasharray="" stroke-dashoffset="0" font-family="Sans Serif" font-weight="normal" text-anchor="start" style="mix-blend-mode: normal"><tspan x="0" dy="0">60</tspan></text><text transform="translate(37.8658,286.81721) scale(0.18444,0.18444)" font-size="40" xml:space="preserve" fill-opacity="0.54902" fill="#000000" fill-rule="nonzero" stroke-opacity="0" stroke="#000000" stroke-width="0" stroke-linecap="butt" stroke-linejoin="miter" stroke-miterlimit="10" stroke-dasharray="" stroke-dashoffset="0" font-family="Sans Serif" font-weight="normal" text-anchor="start" style="mix-blend-mode: normal"><tspan x="0" dy="0">80</tspan></text><text transform="translate(49.68093,279.69338) scale(0.18444,0.18444)" font-size="40" xml:space="preserve" fill-opacity="0.54902" fill="#000000" fill-rule="nonzero" stroke-opacity="0" stroke="#000000" stroke-width="0" stroke-linecap="butt" stroke-linejoin="miter" stroke-miterlimit="10" stroke-dasharray="" stroke-dashoffset="0" font-family="Sans Serif" font-weight="normal" text-anchor="start" style="mix-blend-mode: normal"><tspan x="0" dy="0">100</tspan></text><text transform="translate(64.50776,279.98296) scale(0.18444,0.18444)" font-size="40" xml:space="preserve" fill-opacity="0.54902" fill="#000000" fill-rule="nonzero" stroke-opacity="0" stroke="#000000" stroke-width="0" stroke-linecap="butt" stroke-linejoin="miter" stroke-miterlimit="10" stroke-dasharray="" stroke-dashoffset="0" font-family="Sans Serif" font-weight="normal" text-anchor="start" style="mix-blend-mode: normal"><tspan x="0" dy="0">120</tspan></text><text transform="translate(78.23416,286.70137) scale(0.18444,0.18444)" font-size="40" xml:space="preserve" fill-opacity="0.54902" fill="#000000" fill-rule="nonzero" stroke-opacity="0" stroke="#000000" stroke-width="0" stroke-linecap="butt" stroke-linejoin="miter" stroke-miterlimit="10" stroke-dasharray="" stroke-dashoffset="0" font-family="Sans Serif" font-weight="normal" text-anchor="start" style="mix-blend-mode: normal"><tspan x="0" dy="0">140</tspan></text><text transform="translate(87.55884,297.5319) scale(0.18444,0.18444)" font-size="40" xml:space="preserve" fill-opacity="0.54902" fill="#000000" fill-rule="nonzero" stroke-opacity="0" stroke="#000000" stroke-width="0" stroke-linecap="butt" stroke-linejoin="miter" stroke-miterlimit="10" stroke-dasharray="" stroke-dashoffset="0" font-family="Sans Serif" font-weight="normal" text-anchor="start" style="mix-blend-mode: normal"><tspan x="0" dy="0">160</tspan></text><text transform="translate(92.71348,312.9379) scale(0.18444,0.18444)" font-size="40" xml:space="preserve" fill-opacity="0.54902" fill="#000000" fill-rule="nonzero" stroke-opacity="0" stroke="#000000" stroke-width="0" stroke-linecap="butt" stroke-linejoin="miter" stroke-miterlimit="10" stroke-dasharray="" stroke-dashoffset="0" font-family="Sans Serif" font-weight="normal" text-anchor="start" style="mix-blend-mode: normal"><tspan x="0" dy="0">180</tspan></text><text transform="translate(91.38138,327.9964) scale(0.18444,0.18444)" font-size="40" xml:space="preserve" fill-opacity="0.54902" fill="#000000" fill-rule="nonzero" stroke-opacity="0" stroke="#000000" stroke-width="0" stroke-linecap="butt" stroke-linejoin="miter" stroke-miterlimit="10" stroke-dasharray="" stroke-dashoffset="0" font-family="Sans Serif" font-weight="normal" text-anchor="start" style="mix-blend-mode: normal"><tspan x="0" dy="0">200</tspan></text><text transform="translate(84.48923,341.3753) scale(0.18444,0.18444)" font-size="40" xml:space="preserve" fill-opacity="0.54902" fill="#000000" fill-rule="nonzero" stroke-opacity="0" stroke="#000000" stroke-width="0" stroke-linecap="butt" stroke-linejoin="miter" stroke-miterlimit="10" stroke-dasharray="" stroke-dashoffset="0" font-family="Sans Serif" font-weight="normal" text-anchor="start" style="mix-blend-mode: normal"><tspan x="0" dy="0">220</tspan></text><path d="M378.33532,348.89139c-7.9594,-8.90491 -12.79821,-20.65822 -12.79821,-33.54169c0,-27.80773 22.54262,-50.35035 50.35035,-50.35035c27.80773,0 50.35036,22.54262 50.35036,50.35035c0,11.49106 -3.8494,22.08302 -10.32903,30.55676c-0.73833,0.96555 -2.49234,2.98908 -2.49246,2.98922" fill="none" stroke-opacity="0.54902" stroke="#000000" stroke-width="1.5"/><path d="M466.99127,299.2231c3.93435,11.98999 3.62564,25.41916 -1.86253,37.87618c-2.36255,5.36251 -5.50583,10.13835 -9.23746,14.25279" fill="none" stroke="#ff0000" stroke-width="1.5"/><path d="M378.91243,348.39039l-1.65618,-1.89441l4.87634,-4.26315l1.65619,1.89441z" fill-opacity="0.54902" fill="#000000" stroke="none" stroke-width="0"/><path d="M447.93688,344.12724l1.65619,-1.89441l4.87634,4.26315l-1.65618,1.89441z" data-paper-data="{&quot;index&quot;:null}" fill-opacity="0.54902" fill="#000000" stroke="none" stroke-width="0"/><path d="M417.49094,272.23712l-2.51628,0.01209l-0.03116,-6.47705l2.51628,-0.01209z" fill-opacity="0.54902" fill="#000000" stroke="none" stroke-width="0"/><path d="M373.93954,325.36424l0.69955,2.41711l-6.22177,1.80074l-0.69956,-2.4171z" fill-opacity="0.54902" fill="#000000" stroke="none" stroke-width="0"/><path d="M373.94275,305.40287l-0.48132,2.46984l-6.35753,-1.23892l0.48132,-2.46984z" fill-opacity="0.54902" fill="#000000" stroke="none" stroke-width="0"/><path d="M382.71112,287.6361l-1.51393,2.00992l-5.1737,-3.89692l1.51393,-2.00992z" fill-opacity="0.54902" fill="#000000" stroke="none" stroke-width="0"/><path d="M397.61198,276.30764l-2.2747,1.07586l-2.76938,-5.85523l2.27471,-1.07586z" fill-opacity="0.54902" fill="#000000" stroke="none" stroke-width="0"/><path d="M463.92028,327.16499l-0.69955,2.4171l-6.22177,-1.80074l0.69955,-2.41711z" data-paper-data="{&quot;index&quot;:null}" fill-opacity="0.54902" fill="#000000" stroke="none" stroke-width="0"/><path d="M464.05283,304.16395l0.48133,2.46984l-6.35753,1.23892l-0.48133,-2.46984z" data-paper-data="{&quot;index&quot;:null}" fill-opacity="0.54902" fill="#000000" stroke="none" stroke-width="0"/><path d="M454.10063,283.73918l1.51393,2.00992l-5.1737,3.89692l-1.51393,-2.00992z" data-paper-data="{&quot;index&quot;:null}" fill-opacity="0.54902" fill="#000000" stroke="none" stroke-width="0"/><path d="M436.79546,270.45241l2.2747,1.07586l-2.76938,5.85523l-2.2747,-1.07586z" data-paper-data="{&quot;index&quot;:null}" fill-opacity="0.54902" fill="#000000" stroke="none" stroke-width="0"/><path d="M372.36385,339.38001l-0.82458,-1.55788l3.34474,-1.7625l0.82456,1.55788z" fill-opacity="0.40392" fill="#000000" stroke="none" stroke-width="0"/><path d="M366.31058,317.84585l0.01763,-1.76255l3.78044,0.04474l-0.01764,1.76255z" fill-opacity="0.40392" fill="#000000" stroke="none" stroke-width="0"/><path d="M370.48403,295.40442l0.78609,-1.57765l3.38081,1.69227l-0.78608,1.57764z" fill-opacity="0.40392" fill="#000000" stroke="none" stroke-width="0"/><path d="M384.13904,277.27226l1.3703,-1.10868l2.37262,2.94354l-1.37031,1.10866z" fill-opacity="0.40392" fill="#000000" stroke="none" stroke-width="0"/><path d="M404.00815,267.26771l1.71066,-0.42491l0.90468,3.67087l-1.71066,0.42491z" fill-opacity="0.40392" fill="#000000" stroke="none" stroke-width="0"/><path d="M426.93302,266.97367l1.69934,0.46814l-1.01079,3.64308l-1.69933,-0.46814z" fill-opacity="0.40392" fill="#000000" stroke="none" stroke-width="0"/><path d="M456.00115,337.61751l0.82456,-1.55788l3.34474,1.7625l-0.82458,1.55788z" data-paper-data="{&quot;index&quot;:null}" fill-opacity="0.40392" fill="#000000" stroke="none" stroke-width="0"/><path d="M461.61871,317.89059l-0.01764,-1.76255l3.78044,-0.04474l0.01763,1.76255z" data-paper-data="{&quot;index&quot;:null}" fill-opacity="0.40392" fill="#000000" stroke="none" stroke-width="0"/><path d="M457.84488,297.09668l-0.78608,-1.57764l3.38081,-1.69227l0.78609,1.57765z" data-paper-data="{&quot;index&quot;:null}" fill-opacity="0.40392" fill="#000000" stroke="none" stroke-width="0"/><path d="M445.19807,280.21578l-1.37032,-1.10866l2.37262,-2.94353l1.3703,1.10868z" data-paper-data="{&quot;index&quot;:null}" fill-opacity="0.40392" fill="#000000" stroke="none" stroke-width="0"/><text transform="translate(385.89361,341.66488) scale(0.18444,0.18444)" font-size="40" xml:space="preserve" fill-opacity="0.54902" fill="#000000" fill-rule="nonzero" stroke-opacity="0" stroke="#000000" stroke-width="0" stroke-linecap="butt" stroke-linejoin="miter" stroke-miterlimit="10" stroke-dasharray="" stroke-dashoffset="0" font-family="Sans Serif" font-weight="normal" text-anchor="start" style="mix-blend-mode: normal"><tspan x="0" dy="0">1</tspan></text><text transform="translate(378.37011,327.30184) scale(0.18444,0.18444)" font-size="40" xml:space="preserve" fill-opacity="0.54902" fill="#000000" fill-rule="nonzero" stroke-opacity="0" stroke="#000000" stroke-width="0" stroke-linecap="butt" stroke-linejoin="miter" stroke-miterlimit="10" stroke-dasharray="" stroke-dashoffset="0" font-family="Sans Serif" font-weight="normal" text-anchor="start" style="mix-blend-mode: normal"><tspan x="0" dy="0">2</tspan></text><text transform="translate(378.71209,310.54496) scale(0.18444,0.18444)" font-size="40" xml:space="preserve" fill-opacity="0.54902" fill="#000000" fill-rule="nonzero" stroke-opacity="0" stroke="#000000" stroke-width="0" stroke-linecap="butt" stroke-linejoin="miter" stroke-miterlimit="10" stroke-dasharray="" stroke-dashoffset="0" font-family="Sans Serif" font-weight="normal" text-anchor="start" style="mix-blend-mode: normal"><tspan x="0" dy="0">3</tspan></text><text transform="translate(386.34958,294.928) scale(0.18444,0.18444)" font-size="40" xml:space="preserve" fill-opacity="0.54902" fill="#000000" fill-rule="nonzero" stroke-opacity="0" stroke="#000000" stroke-width="0" stroke-linecap="butt" stroke-linejoin="miter" stroke-miterlimit="10" stroke-dasharray="" stroke-dashoffset="0" font-family="Sans Serif" font-weight="normal" text-anchor="start" style="mix-blend-mode: normal"><tspan x="0" dy="0">4</tspan></text><text transform="translate(398.43277,285.69462) scale(0.18444,0.18444)" font-size="40" xml:space="preserve" fill-opacity="0.54902" fill="#000000" fill-rule="nonzero" stroke-opacity="0" stroke="#000000" stroke-width="0" stroke-linecap="butt" stroke-linejoin="miter" stroke-miterlimit="10" stroke-dasharray="" stroke-dashoffset="0" font-family="Sans Serif" font-weight="normal" text-anchor="start" style="mix-blend-mode: normal"><tspan x="0" dy="0">5</tspan></text><text transform="translate(414.3917,282.9588) scale(0.18444,0.18444)" font-size="40" xml:space="preserve" fill-opacity="0.54902" fill="#000000" fill-rule="nonzero" stroke-opacity="0" stroke="#000000" stroke-width="0" stroke-linecap="butt" stroke-linejoin="miter" stroke-miterlimit="10" stroke-dasharray="" stroke-dashoffset="0" font-family="Sans Serif" font-weight="normal" text-anchor="start" style="mix-blend-mode: normal"><tspan x="0" dy="0">6</tspan></text><text transform="translate(430.35064,285.58063) scale(0.18444,0.18444)" font-size="40" xml:space="preserve" fill-opacity="0.54902" fill="#000000" fill-rule="nonzero" stroke-opacity="0" stroke="#000000" stroke-width="0" stroke-linecap="butt" stroke-linejoin="miter" stroke-miterlimit="10" stroke-dasharray="" stroke-dashoffset="0" font-family="Sans Serif" font-weight="normal" text-anchor="start" style="mix-blend-mode: normal"><tspan x="0" dy="0">7</tspan></text><text transform="translate(442.43383,293.56009) scale(0.18444,0.18444)" font-size="40" xml:space="preserve" fill-opacity="0.54902" fill="#000000" fill-rule="nonzero" stroke-opacity="0" stroke="#000000" stroke-width="0" stroke-linecap="butt" stroke-linejoin="miter" stroke-miterlimit="10" stroke-dasharray="" stroke-dashoffset="0" font-family="Sans Serif" font-weight="normal" text-anchor="start" style="mix-blend-mode: normal"><tspan x="0" dy="0">8</tspan></text><text transform="translate(450.07133,309.74701) scale(0.18444,0.18444)" font-size="40" xml:space="preserve" fill-opacity="0.54902" fill="#000000" fill-rule="nonzero" stroke-opacity="0" stroke="#000000" stroke-width="0" stroke-linecap="butt" stroke-linejoin="miter" stroke-miterlimit="10" stroke-dasharray="" stroke-dashoffset="0" font-family="Sans Serif" font-weight="normal" text-anchor="start" style="mix-blend-mode: normal"><tspan x="0" dy="0">9</tspan></text><text transform="translate(447.22152,326.50389) scale(0.18444,0.18444)" font-size="40" xml:space="preserve" fill-opacity="0.54902" fill="#000000" fill-rule="nonzero" stroke-opacity="0" stroke="#000000" stroke-width="0" stroke-linecap="butt" stroke-linejoin="miter" stroke-miterlimit="10" stroke-dasharray="" stroke-dashoffset="0" font-family="Sans Serif" font-weight="normal" text-anchor="start" style="mix-blend-mode: normal"><tspan x="0" dy="0">10</tspan></text><text transform="translate(438.78608,340.06898) scale(0.18444,0.18444)" font-size="40" xml:space="preserve" fill-opacity="0.54902" fill="#000000" fill-rule="nonzero" stroke-opacity="0" stroke="#000000" stroke-width="0" stroke-linecap="butt" stroke-linejoin="miter" stroke-miterlimit="10" stroke-dasharray="" stroke-dashoffset="0" font-family="Sans Serif" font-weight="normal" text-anchor="start" style="mix-blend-mode: normal"><tspan x="0" dy="0">11</tspan></text></g></g></svg>