<svg version="1.1" xmlns="http://www.w3.org/2000/svg" xmlns:xlink="http://www.w3.org/1999/xlink" width="484.97563" height="360.53869" viewBox="0,0,484.97563,360.53869"><defs><linearGradient x1="226.22134" y1="124.47125" x2="226.22134" y2="121.13893" gradientUnits="userSpaceOnUse" id="color-1"><stop offset="0" stop-color="#0c0c0c"/><stop offset="1" stop-color="#4c4c4c"/></linearGradient><linearGradient x1="226.22134" y1="235.52873" x2="226.22134" y2="238.86106" gradientUnits="userSpaceOnUse" id="color-2"><stop offset="0" stop-color="#0c0c0c"/><stop offset="1" stop-color="#4c4c4c"/></linearGradient><linearGradient x1="354.29259" y1="196.2018" x2="354.29259" y2="239.14296" gradientUnits="userSpaceOnUse" id="color-3"><stop offset="0" stop-color="#4c4c4c"/><stop offset="1" stop-color="#0c0c0c"/></linearGradient><linearGradient x1="354.29259" y1="163.79817" x2="354.29259" y2="120.85702" gradientUnits="userSpaceOnUse" id="color-4"><stop offset="0" stop-color="#4c4c4c"/><stop offset="1" stop-color="#0c0c0c"/></linearGradient><radialGradient cx="241.33929" cy="180" r="131.8849" gradientUnits="userSpaceOnUse" id="color-5"><stop offset="0" stop-color="#ffffff"/><stop offset="1" stop-color="#d9d9d9"/></radialGradient><radialGradient cx="206.88125" cy="180.00412" r="81.94568" gradientUnits="userSpaceOnUse" id="color-6"><stop offset="0" stop-color="#4c4c4c"/><stop offset="1" stop-color="#0c0c0c"/></radialGradient><linearGradient x1="372.97125" y1="180" x2="311.50841" y2="180" gradientUnits="userSpaceOnUse" id="color-7"><stop offset="0" stop-color="#4c4c4c"/><stop offset="1" stop-color="#0c0c0c"/></linearGradient><linearGradient x1="355.55626" y1="137.36515" x2="328.46805" y2="137.36515" gradientUnits="userSpaceOnUse" id="color-8"><stop offset="0" stop-color="#4c4c4c"/><stop offset="1" stop-color="#0c0c0c"/></linearGradient><linearGradient x1="344.7107" y1="138.32615" x2="344.7107" y2="136.91372" gradientUnits="userSpaceOnUse" id="color-9"><stop offset="0" stop-color="#808080"/><stop offset="1" stop-color="#ffffff"/></linearGradient><linearGradient x1="345.0172" y1="140.68279" x2="345.0172" y2="138.53803" gradientUnits="userSpaceOnUse" id="color-10"><stop offset="0" stop-color="#ffffff"/><stop offset="1" stop-color="#808080"/></linearGradient><linearGradient x1="336.31759" y1="134.90606" x2="336.31759" y2="133.09008" gradientUnits="userSpaceOnUse" id="color-11"><stop offset="0" stop-color="#808080"/><stop offset="1" stop-color="#ffffff"/></linearGradient><linearGradient x1="336.22377" y1="136.41937" x2="336.22377" y2="134.6034" gradientUnits="userSpaceOnUse" id="color-12"><stop offset="0" stop-color="#ffffff"/><stop offset="1" stop-color="#808080"/></linearGradient><radialGradient cx="347.15744" cy="138.95415" r="1.90677" gradientUnits="userSpaceOnUse" id="color-13"><stop offset="0" stop-color="#ffffff"/><stop offset="1" stop-color="#1a1a1a"/></radialGradient><radialGradient cx="338.4559" cy="135.00374" r="1.6513" gradientUnits="userSpaceOnUse" id="color-14"><stop offset="0" stop-color="#ffffff"/><stop offset="1" stop-color="#1a1a1a"/></radialGradient><linearGradient x1="333.61331" y1="131.15772" x2="329.45171" y2="131.15772" gradientUnits="userSpaceOnUse" id="color-15"><stop offset="0" stop-color="#cccccc"/><stop offset="1" stop-color="#ffffff"/></linearGradient><linearGradient x1="353.42365" y1="142.56469" x2="350.56237" y2="142.56469" gradientUnits="userSpaceOnUse" id="color-16"><stop offset="0" stop-color="#cccccc"/><stop offset="1" stop-color="#ffffff"/></linearGradient><linearGradient x1="243.8862" y1="149.09267" x2="243.8862" y2="137.52973" gradientUnits="userSpaceOnUse" id="color-17"><stop offset="0" stop-color="#4c4c4c"/><stop offset="1" stop-color="#1a1a1a"/></linearGradient><linearGradient x1="309.51084" y1="135.34795" x2="291.53273" y2="135.34795" gradientUnits="userSpaceOnUse" id="color-18"><stop offset="0" stop-color="#000000"/><stop offset="1" stop-color="#000000" stop-opacity="0"/></linearGradient><linearGradient x1="311.98511" y1="135.4948" x2="291.4271" y2="135.4948" gradientUnits="userSpaceOnUse" id="color-19"><stop offset="0" stop-color="#4c4c4c"/><stop offset="1" stop-color="#0c0c0c"/></linearGradient><linearGradient x1="370.16427" y1="150.03408" x2="271.19386" y2="150.03408" gradientUnits="userSpaceOnUse" id="color-20"><stop offset="0" stop-color="#000000" stop-opacity="0"/><stop offset="1" stop-color="#000000"/></linearGradient><linearGradient x1="355.46009" y1="130.38776" x2="159.98378" y2="130.38776" gradientUnits="userSpaceOnUse" id="color-21"><stop offset="0" stop-color="#000000" stop-opacity="0"/><stop offset="1" stop-color="#000000"/></linearGradient><linearGradient x1="201.23228" y1="124.74528" x2="156.35186" y2="124.74528" gradientUnits="userSpaceOnUse" id="color-22"><stop offset="0" stop-color="#000000"/><stop offset="1" stop-color="#000000" stop-opacity="0"/></linearGradient><linearGradient x1="271.04554" y1="140.19072" x2="125.61654" y2="140.19072" gradientUnits="userSpaceOnUse" id="color-23"><stop offset="0" stop-color="#000000"/><stop offset="1" stop-color="#000000" stop-opacity="0"/></linearGradient><linearGradient x1="141.91795" y1="132.1768" x2="117.87403" y2="132.1768" gradientUnits="userSpaceOnUse" id="color-24"><stop offset="0" stop-color="#000000"/><stop offset="1" stop-color="#000000" stop-opacity="0"/></linearGradient><linearGradient x1="136.68228" y1="131.08603" x2="116.44719" y2="131.08603" gradientUnits="userSpaceOnUse" id="color-25"><stop offset="0" stop-color="#000000"/><stop offset="1" stop-color="#000000" stop-opacity="0"/></linearGradient><linearGradient x1="191.64177" y1="121.78567" x2="191.64177" y2="119.17946" gradientUnits="userSpaceOnUse" id="color-26"><stop offset="0" stop-color="#0c0c0c"/><stop offset="1" stop-color="#4c4c4c"/></linearGradient><linearGradient x1="162.66739" y1="144.12717" x2="162.66739" y2="140.8903" gradientUnits="userSpaceOnUse" id="color-27"><stop offset="0" stop-color="#4c4c4c"/><stop offset="1" stop-color="#0c0c0c"/></linearGradient><linearGradient x1="147.18127" y1="158.57463" x2="126.70108" y2="158.57463" gradientUnits="userSpaceOnUse" id="color-28"><stop offset="0" stop-color="#4c4c4c"/><stop offset="1" stop-color="#0c0c0c"/></linearGradient><linearGradient x1="267.14987" y1="127.50547" x2="263.68715" y2="127.50547" gradientUnits="userSpaceOnUse" id="color-29"><stop offset="0" stop-color="#0c0c0c"/><stop offset="1" stop-color="#4c4c4c"/></linearGradient><linearGradient x1="267.62133" y1="120.16483" x2="258.69479" y2="120.16483" gradientUnits="userSpaceOnUse" id="color-30"><stop offset="0" stop-color="#0c0c0c"/><stop offset="1" stop-color="#4c4c4c"/></linearGradient><linearGradient x1="355.78774" y1="222.63481" x2="328.69953" y2="222.63481" gradientUnits="userSpaceOnUse" id="color-31"><stop offset="0" stop-color="#4c4c4c"/><stop offset="1" stop-color="#0c0c0c"/></linearGradient><linearGradient x1="344.7107" y1="221.67384" x2="344.7107" y2="223.08627" gradientUnits="userSpaceOnUse" id="color-32"><stop offset="0" stop-color="#808080"/><stop offset="1" stop-color="#ffffff"/></linearGradient><linearGradient x1="345.0172" y1="219.31719" x2="345.0172" y2="221.46197" gradientUnits="userSpaceOnUse" id="color-33"><stop offset="0" stop-color="#ffffff"/><stop offset="1" stop-color="#808080"/></linearGradient><linearGradient x1="336.31759" y1="225.09392" x2="336.31759" y2="226.90989" gradientUnits="userSpaceOnUse" id="color-34"><stop offset="0" stop-color="#808080"/><stop offset="1" stop-color="#ffffff"/></linearGradient><linearGradient x1="336.22377" y1="223.58061" x2="336.22377" y2="225.39658" gradientUnits="userSpaceOnUse" id="color-35"><stop offset="0" stop-color="#ffffff"/><stop offset="1" stop-color="#808080"/></linearGradient><radialGradient cx="347.15744" cy="221.04583" r="1.90677" gradientUnits="userSpaceOnUse" id="color-36"><stop offset="0" stop-color="#ffffff"/><stop offset="1" stop-color="#1a1a1a"/></radialGradient><radialGradient cx="338.4559" cy="224.99623" r="1.6513" gradientUnits="userSpaceOnUse" id="color-37"><stop offset="0" stop-color="#ffffff"/><stop offset="1" stop-color="#1a1a1a"/></radialGradient><linearGradient x1="333.61331" y1="228.84227" x2="329.45171" y2="228.84227" gradientUnits="userSpaceOnUse" id="color-38"><stop offset="0" stop-color="#cccccc"/><stop offset="1" stop-color="#ffffff"/></linearGradient><linearGradient x1="353.42365" y1="217.43528" x2="350.56237" y2="217.43528" gradientUnits="userSpaceOnUse" id="color-39"><stop offset="0" stop-color="#cccccc"/><stop offset="1" stop-color="#ffffff"/></linearGradient><linearGradient x1="243.8862" y1="222.47024" x2="243.8862" y2="210.90732" gradientUnits="userSpaceOnUse" id="color-40"><stop offset="0" stop-color="#1a1a1a"/><stop offset="1" stop-color="#4c4c4c"/></linearGradient><linearGradient x1="315.78949" y1="180" x2="263.03857" y2="180" gradientUnits="userSpaceOnUse" id="color-41"><stop offset="0" stop-color="#1a1a1a"/><stop offset="1" stop-color="#4c4c4c"/></linearGradient><linearGradient x1="309.51084" y1="224.65204" x2="291.53273" y2="224.65204" gradientUnits="userSpaceOnUse" id="color-42"><stop offset="0" stop-color="#000000"/><stop offset="1" stop-color="#000000" stop-opacity="0"/></linearGradient><linearGradient x1="311.98511" y1="224.50519" x2="291.4271" y2="224.50519" gradientUnits="userSpaceOnUse" id="color-43"><stop offset="0" stop-color="#4c4c4c"/><stop offset="1" stop-color="#0c0c0c"/></linearGradient><linearGradient x1="370.16427" y1="209.96591" x2="271.19386" y2="209.96591" gradientUnits="userSpaceOnUse" id="color-44"><stop offset="0" stop-color="#000000" stop-opacity="0"/><stop offset="1" stop-color="#000000"/></linearGradient><linearGradient x1="355.46009" y1="229.61222" x2="159.98378" y2="229.61222" gradientUnits="userSpaceOnUse" id="color-45"><stop offset="0" stop-color="#000000" stop-opacity="0"/><stop offset="1" stop-color="#000000"/></linearGradient><linearGradient x1="201.23228" y1="235.25471" x2="156.35186" y2="235.25471" gradientUnits="userSpaceOnUse" id="color-46"><stop offset="0" stop-color="#000000"/><stop offset="1" stop-color="#000000" stop-opacity="0"/></linearGradient><linearGradient x1="271.04554" y1="219.80925" x2="125.61654" y2="219.80925" gradientUnits="userSpaceOnUse" id="color-47"><stop offset="0" stop-color="#000000"/><stop offset="1" stop-color="#000000" stop-opacity="0"/></linearGradient><linearGradient x1="141.91795" y1="227.82319" x2="117.87403" y2="227.82319" gradientUnits="userSpaceOnUse" id="color-48"><stop offset="0" stop-color="#000000"/><stop offset="1" stop-color="#000000" stop-opacity="0"/></linearGradient><linearGradient x1="136.68228" y1="228.91395" x2="116.44719" y2="228.91395" gradientUnits="userSpaceOnUse" id="color-49"><stop offset="0" stop-color="#000000"/><stop offset="1" stop-color="#000000" stop-opacity="0"/></linearGradient><linearGradient x1="191.64177" y1="238.21431" x2="191.64177" y2="240.82051" gradientUnits="userSpaceOnUse" id="color-50"><stop offset="0" stop-color="#0c0c0c"/><stop offset="1" stop-color="#4c4c4c"/></linearGradient><linearGradient x1="162.66739" y1="215.87282" x2="162.66739" y2="219.1097" gradientUnits="userSpaceOnUse" id="color-51"><stop offset="0" stop-color="#4c4c4c"/><stop offset="1" stop-color="#0c0c0c"/></linearGradient><linearGradient x1="147.18127" y1="201.42535" x2="126.70108" y2="201.42535" gradientUnits="userSpaceOnUse" id="color-52"><stop offset="0" stop-color="#4c4c4c"/><stop offset="1" stop-color="#0c0c0c"/></linearGradient><linearGradient x1="215.50063" y1="180" x2="197.73005" y2="180" gradientUnits="userSpaceOnUse" id="color-53"><stop offset="0" stop-color="#4c4c4c"/><stop offset="1" stop-color="#1a1a1a"/></linearGradient><linearGradient x1="258.85156" y1="180" x2="226.39644" y2="180" gradientUnits="userSpaceOnUse" id="color-54"><stop offset="0" stop-color="#1a1a1a"/><stop offset="1" stop-color="#4c4c4c"/></linearGradient><linearGradient x1="267.14987" y1="232.4945" x2="263.68715" y2="232.4945" gradientUnits="userSpaceOnUse" id="color-55"><stop offset="0" stop-color="#0c0c0c"/><stop offset="1" stop-color="#4c4c4c"/></linearGradient><linearGradient x1="267.62133" y1="239.83515" x2="258.69479" y2="239.83515" gradientUnits="userSpaceOnUse" id="color-56"><stop offset="0" stop-color="#0c0c0c"/><stop offset="1" stop-color="#4c4c4c"/></linearGradient><linearGradient x1="171.49705" y1="180" x2="143.3495" y2="180" gradientUnits="userSpaceOnUse" id="color-57"><stop offset="0" stop-color="#000000" stop-opacity="0"/><stop offset="1" stop-color="#000000"/></linearGradient><linearGradient x1="194.63771" y1="180" x2="191.38258" y2="180" gradientUnits="userSpaceOnUse" id="color-58"><stop offset="0" stop-color="#000000" stop-opacity="0"/><stop offset="1" stop-color="#000000"/></linearGradient><linearGradient x1="142.43697" y1="219.84842" x2="118.82936" y2="219.84842" gradientUnits="userSpaceOnUse" id="color-59"><stop offset="0" stop-color="#000000" stop-opacity="0"/><stop offset="1" stop-color="#000000"/></linearGradient><linearGradient x1="142.86178" y1="220.25374" x2="113.80625" y2="220.25374" gradientUnits="userSpaceOnUse" id="color-60"><stop offset="0" stop-color="#4c4c4c"/><stop offset="1" stop-color="#0c0c0c"/></linearGradient><linearGradient x1="142.86178" y1="139.74626" x2="113.80625" y2="139.74626" gradientUnits="userSpaceOnUse" id="color-61"><stop offset="0" stop-color="#4c4c4c"/><stop offset="1" stop-color="#0c0c0c"/></linearGradient><linearGradient x1="127.31179" y1="180" x2="106.77584" y2="180" gradientUnits="userSpaceOnUse" id="color-62"><stop offset="0" stop-color="#4c4c4c"/><stop offset="1" stop-color="#0c0c0c"/></linearGradient><linearGradient x1="188.09441" y1="179.95144" x2="183.09491" y2="179.95144" gradientUnits="userSpaceOnUse" id="color-63"><stop offset="0" stop-color="#ffffff"/><stop offset="1" stop-color="#999999"/></linearGradient><linearGradient x1="188.09441" y1="179.95144" x2="183.09491" y2="179.95144" gradientUnits="userSpaceOnUse" id="color-64"><stop offset="0" stop-color="#ffffff"/><stop offset="1" stop-color="#999999"/></linearGradient><linearGradient x1="231.46284" y1="145.323" x2="231.46284" y2="135.63691" gradientUnits="userSpaceOnUse" id="color-65"><stop offset="0" stop-color="#000000" stop-opacity="0"/><stop offset="1" stop-color="#000000" stop-opacity="0.22745"/></linearGradient><linearGradient x1="231.46284" y1="214.89131" x2="231.46284" y2="224.5774" gradientUnits="userSpaceOnUse" id="color-66"><stop offset="0" stop-color="#000000" stop-opacity="0"/><stop offset="1" stop-color="#000000" stop-opacity="0.22745"/></linearGradient><linearGradient x1="175.17158" y1="225.60296" x2="175.17158" y2="238.41202" gradientUnits="userSpaceOnUse" id="color-67"><stop offset="0" stop-color="#000000" stop-opacity="0"/><stop offset="1" stop-color="#000000" stop-opacity="0.43922"/></linearGradient><linearGradient x1="175.17158" y1="134.26129" x2="175.17158" y2="121.45224" gradientUnits="userSpaceOnUse" id="color-68"><stop offset="0" stop-color="#000000" stop-opacity="0"/><stop offset="1" stop-color="#000000" stop-opacity="0.4"/></linearGradient></defs><g transform="translate(2.63138,-1.09611)"><g data-paper-data="{&quot;isPaintingLayer&quot;:true}" stroke-linejoin="miter" stroke-miterlimit="10" stroke-dasharray="" stroke-dashoffset="0" style="mix-blend-mode: normal"><path d="M289.40198,124.35831c0,0 -24.45537,0.2317 -39.61263,0.03138c-10.7917,-0.14261 -38.2204,-0.67325 -59.4359,-1.36672c-15.18821,-0.49645 -27.31278,-1.2373 -27.31278,-1.2373c0,0 26.167,-0.91776 43.40789,-0.56674c4.88531,0.09946 14.21492,1.20498 21.46585,1.45471c6.72102,0.23149 13.89441,0.5344 20.88137,0.73491c21.15789,0.6072 40.60619,0.94974 40.60619,0.94974z" data-paper-data="{&quot;index&quot;:null}" fill="url(#color-1)" fill-rule="nonzero" stroke="#000000" stroke-width="0.5" stroke-linecap="round"/><path d="M248.79579,236.59142c-6.98696,0.20051 -14.16036,0.50344 -20.88137,0.73491c-7.25093,0.24973 -16.58054,1.35525 -21.46585,1.45471c-17.24089,0.35102 -43.40789,-0.56674 -43.40789,-0.56674c0,0 12.12457,-0.74086 27.31278,-1.2373c21.21549,-0.69345 48.64419,-1.22408 59.4359,-1.36672c15.15726,-0.2003 39.61263,0.03138 39.61263,0.03138c0,0 -19.4483,0.34254 -40.60619,0.94974z" data-paper-data="{&quot;index&quot;:null}" fill="url(#color-2)" fill-rule="nonzero" stroke="#000000" stroke-width="0.5" stroke-linecap="round"/><path d="M370.25506,196.2018c0,0 3.08992,9.9018 1.28767,14.09359c-1.29849,3.02011 -1.52146,4.61419 -5.04341,9.13462c-1.68128,2.15792 -4.70715,6.29846 -8.06972,10.03977c-1.43364,1.59513 -2.63132,3.11769 -4.29762,4.38308c-1.71746,1.30425 -3.58559,1.92485 -5.3514,2.666c-3.36201,1.41112 -6.35316,2.30589 -7.22754,2.49518c-3.03258,0.65653 -5.07503,-1.40807 -5.07503,-1.40807c0,0 9.97164,-6.3419 14.5073,-11.90175c6.19663,-7.59586 19.26975,-29.50241 19.26975,-29.50241z" data-paper-data="{&quot;index&quot;:null}" fill="url(#color-3)" fill-rule="nonzero" stroke="#000000" stroke-width="0.5" stroke-linecap="round"/><path d="M350.9853,134.29576c-4.53567,-5.55984 -14.5073,-11.90175 -14.5073,-11.90175c0,0 2.04246,-2.0646 5.07503,-1.40807c0.87438,0.1893 3.86551,1.08406 7.22754,2.49518c1.76581,0.74115 3.63394,1.36173 5.3514,2.666c1.6663,1.26539 2.86397,2.78795 4.29762,4.38308c3.36257,3.74131 6.38844,7.88184 8.06972,10.03977c3.52195,4.52041 3.7449,6.11451 5.04341,9.13462c1.80226,4.19178 -1.28767,14.09359 -1.28767,14.09359c0,0 -13.07312,-21.90655 -19.26975,-29.50241z" data-paper-data="{&quot;index&quot;:null}" fill="url(#color-4)" fill-rule="nonzero" stroke="#000000" stroke-width="0.5" stroke-linecap="round"/><path d="M373.22419,180.33025c0,0 -0.37385,7.46307 -1.39723,11.16298c-0.74326,2.68715 -0.87675,3.42308 -3.89935,9.56936c-3.0226,6.14628 -8.62586,15.28442 -8.62586,15.28442c0,0 -4.19685,6.44029 -8.47013,11.50488c-2.76927,3.28208 -5.92176,5.72308 -6.79595,6.35097c-1.95787,1.40624 -4.08609,2.20228 -4.54898,2.44056c-1.07662,0.55419 -3.12558,0.88992 -4.54922,0.88992c-4.40544,0 -27.38131,0 -34.04946,0c-1.15087,0 -3.65225,-0.34235 -4.82272,-0.56058c-0.88829,-0.1656 -2.54757,-0.47497 -3.88422,-0.72419c-1.13511,-0.21162 -3.52869,-0.37988 -5.36682,-0.37988c-3.34652,0 -19.62002,-0.68068 -38.89204,-0.6786c-11.03779,0.0012 -23.05918,0.53142 -34.19887,0.7683c-8.18016,0.17393 -16.00856,0.54578 -22.50715,0.93392c-7.27239,0.43437 -32.23042,2.2641 -48.01745,0.97422c-2.7625,-0.2257 -6.90987,-0.80487 -11.62975,-3.10638c-5.77911,-2.81801 -10.31509,-5.22626 -14.53521,-10.03408c-4.22012,-4.80785 -6.21737,-13.67566 -6.21737,-13.67566l-1.36198,-30.8715v-0.35782l1.36198,-30.8715c0,0 1.99725,-8.86781 6.21737,-13.67566c4.22013,-4.80784 8.7561,-7.21607 14.53521,-10.03408c4.71986,-2.30149 8.86725,-2.88066 11.62975,-3.10638c15.78703,-1.28987 40.74507,0.53985 48.01745,0.97422c6.49859,0.38814 14.32699,0.76 22.50715,0.93392c11.1397,0.23687 23.16109,0.76709 34.19887,0.7683c19.27203,0.00208 35.54553,-0.6786 38.89204,-0.6786c1.83813,0 4.23172,-0.16825 5.36682,-0.37988c1.33665,-0.2492 2.99595,-0.55858 3.88422,-0.72419c1.17047,-0.21823 3.67185,-0.56058 4.82272,-0.56058c6.66815,0 29.64402,0 34.04946,0c1.42364,0 3.4726,0.33574 4.54922,0.88992c0.46291,0.23827 2.59112,1.03432 4.54898,2.44056c0.87419,0.62789 4.02668,3.06889 6.79595,6.35097c4.27328,5.06459 8.47013,11.50488 8.47013,11.50488c0,0 5.60326,9.13814 8.62586,15.28442c3.0226,6.14628 3.15609,6.88222 3.89935,9.56936c1.02338,3.69991 1.39723,11.16298 1.39723,11.16298z" data-paper-data="{&quot;index&quot;:null}" fill="url(#color-5)" fill-rule="nonzero" stroke="#000000" stroke-width="0.5" stroke-linecap="round"/><path d="M299.09473,174.76662l-27.51952,28.55835l-127.34496,-0.90799l-7.26389,-22.01865v-0.79669l7.26389,-22.01865l127.34496,-0.90799z" data-paper-data="{&quot;index&quot;:null}" fill="#ab5a22" fill-rule="nonzero" stroke="none" stroke-width="0.5" stroke-linecap="round"/><path d="M372.71181,185.63978c0,0 -14.47352,4.11485 -28.66213,8.54873c-9.79188,3.05993 -19.58392,6.54356 -23.83584,7.82448c-4.39492,1.324 -9.50447,2.30536 -9.50447,2.30536l1.03769,-1.42684c0,0 28.08644,-8.80203 39.20556,-11.9485c8.47653,-2.39868 21.75918,-5.30322 21.75918,-5.30322z" data-paper-data="{&quot;index&quot;:null}" fill="#ab5a22" fill-rule="nonzero" stroke="none" stroke-width="0.5" stroke-linecap="round"/><path d="M350.95263,169.05698c-11.11912,-3.14647 -39.20556,-11.9485 -39.20556,-11.9485l-1.03769,-1.42684c0,0 5.10954,0.98136 9.50447,2.30536c4.25194,1.28092 14.04397,4.76455 23.83584,7.82448c14.1886,4.43389 28.66213,8.54873 28.66213,8.54873c0,0 -13.28266,-2.90454 -21.75918,-5.30322z" data-paper-data="{&quot;index&quot;:null}" fill="#ab5a22" fill-rule="nonzero" stroke="none" stroke-width="0.5" stroke-linecap="round"/><path d="M124.93557,158.49099h148.22863c0,0 2.45732,1.19282 3.53626,2.66268c2.6088,3.55401 12.12649,18.67497 12.12649,18.67497v0.3427c0,0 -10.53023,16.90334 -13.00305,20.2721c-0.90919,1.23861 -2.65971,1.06554 -2.65971,1.06554h-148.22863z" data-paper-data="{&quot;index&quot;:null}" fill="url(#color-6)" fill-rule="nonzero" stroke="none" stroke-width="0.5" stroke-linecap="round"/><path d="M311.50841,179.47604v-22.51803c0,0 30.54616,9.54698 41.86776,12.76258c7.76661,2.20591 19.51206,4.67074 19.51206,4.67074l0.08302,5.28706v0.6432l-0.08302,5.28706c0,0 -11.74543,2.46484 -19.51206,4.67074c-11.3216,3.21561 -41.86776,12.76258 -41.86776,12.76258v-22.51803z" data-paper-data="{&quot;index&quot;:null}" fill="url(#color-7)" fill-rule="nonzero" stroke="none" stroke-width="0.5" stroke-linecap="round"/><path d="M356.46427,148.45018c0,0 -1.37645,-1.79477 -2.85821,-2.9265c-1.50074,-1.14622 -10.36144,-5.03052 -13.79352,-6.74831c-3.56953,-1.78657 -7.19229,-4.10055 -7.99591,-4.66495c-3.82478,-2.68634 -4.33223,-6.01424 -4.33223,-6.01424c0,0 7.49756,1.09942 11.19586,2.28683c0.86146,0.2766 9.03932,3.3035 10.81248,4.63735c1.7525,1.31829 2.73279,3.09566 3.66735,4.5104c1.11609,1.68957 2.03789,2.95873 2.36632,3.63516c0.9467,1.94974 0.93787,5.28426 0.93787,5.28426z" data-paper-data="{&quot;index&quot;:null}" fill="#0c0c0c" fill-rule="nonzero" stroke="#000000" stroke-width="0.5" stroke-linecap="round"/><path d="M350.02116,142.31366c-3.19498,-1.40381 -7.21627,-3.17321 -9.85429,-4.78704c-2.1343,-1.30569 -6.83885,-3.2183 -9.34128,-5.28328c-2.03748,-1.68131 -2.35754,-3.46618 -2.35754,-3.46618c0,0 6.19335,1.23685 9.25372,2.21001c1.80314,0.57337 6.11002,2.05785 9.05865,3.46208c0.73083,0.34805 2.27411,1.12728 3.50005,2.45699c0.85707,0.92961 1.44461,2.11384 2.15236,3.18469c0.91092,1.37825 1.87193,2.61834 2.29207,3.40966c0.78501,1.4785 0.83136,2.45261 0.83136,2.45261c0,0 -3.1795,-2.60453 -5.53511,-3.63954z" data-paper-data="{&quot;index&quot;:null}" fill="url(#color-8)" fill-rule="nonzero" stroke="#000000" stroke-width="0.5" stroke-linecap="round"/><path d="M347.26083,138.32615l-5.14526,-0.15133l0.90799,-1.26109c0,0 3.14994,0 3.8312,0c0.24782,0 0.46776,0.54856 0.45001,0.7971c-0.01559,0.21837 -0.04395,0.61533 -0.04395,0.61533z" data-paper-data="{&quot;index&quot;:null}" fill="url(#color-9)" fill-rule="nonzero" stroke="#000000" stroke-width="0.5" stroke-linecap="round"/><path d="M346.57106,140.61518c-0.81208,-0.41914 -3.8779,-2.07716 -3.8779,-2.07716l4.53993,0.07566c0,0 0.07966,1.23459 0.10758,1.66746c0.01782,0.27607 -0.3977,0.52599 -0.7696,0.33403z" data-paper-data="{&quot;index&quot;:null}" fill="url(#color-10)" fill-rule="nonzero" stroke="#000000" stroke-width="0.5" stroke-linecap="round"/><path d="M333.9523,133.94966l0.64467,-0.85955c0,0 2.91098,0.0539 3.56742,0.06606c0.25027,0.00464 0.51852,0.42278 0.51852,0.66979c0,0.31595 0,1.08013 0,1.08013l-4.15203,-0.2407z" data-paper-data="{&quot;index&quot;:null}" fill="url(#color-11)" fill-rule="nonzero" stroke="#000000" stroke-width="0.5" stroke-linecap="round"/><path d="M337.92625,136.41937l-3.40494,-1.81597h3.32928z" data-paper-data="{&quot;index&quot;:null}" fill="url(#color-12)" fill-rule="nonzero" stroke="#000000" stroke-width="0.5" stroke-linecap="round"/><path d="M346.62777,140.74071v-2.92994l0.38084,-0.71041l0.67847,0.71041v3.07286z" data-paper-data="{&quot;index&quot;:null}" fill="url(#color-13)" fill-rule="nonzero" stroke="#000000" stroke-width="0.5" stroke-linecap="round"/><path d="M337.98855,136.50554l-0.06232,-2.96073l0.56081,-0.28445l0.49849,0.44657v3.24212z" data-paper-data="{&quot;index&quot;:null}" fill="url(#color-14)" fill-rule="nonzero" stroke="#000000" stroke-width="0.5" stroke-linecap="round"/><path d="M333.61331,130.2148c0,0 -0.1188,1.78209 -0.16071,2.41058c-0.02691,0.40366 -0.38681,0.79842 -0.82754,0.51289c-0.82245,-0.53285 -2.06346,-1.3777 -2.42098,-1.84331c-0.53507,-0.69683 -1.35771,-2.44214 -1.35771,-2.44214z" data-paper-data="{&quot;index&quot;:null}" fill="url(#color-15)" fill-rule="nonzero" stroke="#000000" stroke-width="0.5" stroke-linecap="round"/><path d="M317.01145,180.48981c0,0 0.26982,8.05087 -0.52586,11.73087c-0.70717,3.27068 -5.8298,12.82908 -9.06733,16.56771c-2.45894,2.83954 -6.36797,5.7805 -8.51728,7.33898c-4.45942,3.23352 -21.96842,8.77641 -26.40275,7.99941c-2.98961,-0.52384 -10.64673,-0.0802 -19.29837,-0.31018c-8.06875,-0.21448 -17.03208,-1.05921 -23.08823,-2.63201c-10.67596,-2.7726 -10.51405,-10.27725 -10.51405,-10.27725c0,0 30.8827,-0.6632 37.88628,-1.12774c1.36605,-0.09059 4.18405,-0.63613 6.8171,-1.74511c2.30089,-0.96909 4.66071,-2.44893 5.91163,-3.37655c2.84974,-2.11321 4.98899,-4.97915 6.37323,-7.3439c2.75881,-4.71297 3.84677,-10.30522 3.84677,-17.27823c0,-6.973 -1.08796,-12.63691 -3.84677,-17.34987c-1.38425,-2.36475 -3.52349,-5.23069 -6.37323,-7.3439c-1.25092,-0.92762 -3.61073,-2.40746 -5.91163,-3.37655c-2.63304,-1.10899 -5.45106,-1.65451 -6.8171,-1.74511c-7.00358,-0.46453 -37.88628,-1.12774 -37.88628,-1.12774c0,0 -0.1619,-7.50465 10.51405,-10.27725c6.05615,-1.57282 15.01948,-2.41754 23.08823,-2.63201c8.65163,-0.22998 16.30874,0.21367 19.29837,-0.31018c4.43434,-0.77699 21.94334,4.76589 26.40275,7.99941c2.14931,1.55848 6.05834,4.49944 8.51728,7.33898c3.23754,3.73864 8.36016,13.29703 9.06733,16.56771c0.79567,3.68001 0.52586,11.73087 0.52586,11.73087z" data-paper-data="{&quot;index&quot;:null}" fill="#191919" fill-rule="nonzero" stroke="#000000" stroke-width="0" stroke-linecap="round"/><path d="M350.56237,142.24561c0,0 0.60065,-1.93583 1.74031,-1.13497c0.48937,0.34387 0.79564,0.85496 0.98583,1.49894c0.25274,0.85577 0.07349,1.60334 0.07349,1.60334z" data-paper-data="{&quot;index&quot;:null}" fill="url(#color-16)" fill-rule="nonzero" stroke="#000000" stroke-width="0.5" stroke-linecap="round"/><path d="M266.81283,137.62934c0,0 -6.61671,5.82223 -8.79611,8.00163c-1.43656,1.43656 -2.89421,3.4617 -2.89421,3.4617c0,0 -7.56093,-0.48195 -12.26676,-0.6383c-6.24204,-0.20738 -21.8962,-0.49668 -21.8962,-0.49668c0,0 1.20214,-4.16398 5.02493,-6.32757c1.74218,-0.98602 11.85277,-2.87676 21.45835,-3.6215c9.94759,-0.77126 19.36998,-0.37926 19.36998,-0.37926z" data-paper-data="{&quot;index&quot;:null}" fill="url(#color-17)" fill-rule="nonzero" stroke="#000000" stroke-width="0" stroke-linecap="round"/><path d="M322.54044,122.76109c0,0 1.84424,1.63426 2.73929,2.58898c0.31062,0.33132 0.70498,0.95309 1.07038,1.44969c0.5707,0.7756 1.07075,1.40925 1.07075,1.40925" data-paper-data="{&quot;index&quot;:null}" fill="none" fill-rule="nonzero" stroke="#2b2b2b" stroke-width="0.5" stroke-linecap="round"/><path d="M143.09526,133.21873c0,0 21.21806,-2.6218 32.65322,-3.30076c12.65411,-0.75133 39.98561,-1.01217 39.98561,-1.01217" data-paper-data="{&quot;index&quot;:null}" fill="none" fill-rule="nonzero" stroke="#2b2b2b" stroke-width="0.5" stroke-linecap="round"/><path d="M113.80624,146.14779l-0.25943,1.16741" data-paper-data="{&quot;index&quot;:null}" fill="none" fill-rule="nonzero" stroke="#000000" stroke-width="0.5" stroke-linecap="round"/><path d="M299.70459,130.80802l3.26875,1.08958l3.08716,2.36076l3.45034,6.90069l-17.97811,-3.63195v-7.99027z" data-paper-data="{&quot;index&quot;:null}" fill="url(#color-18)" fill-rule="nonzero" stroke="none" stroke-width="0.5" stroke-linecap="round"/><path d="M309.48815,141.14779c0,0 -2.76984,-5.4688 -5.85009,-7.4448c-0.90145,-0.57828 -2.15208,-1.48303 -4.30996,-2.1158c-1.91219,-0.56073 -4.70741,-0.85913 -6.07934,-1.2487c-2.10756,-0.59843 -1.80681,-0.76751 -1.80681,-0.76751c0,0 8.58026,-0.53877 11.88846,1.38036c3.52567,2.04527 8.6547,10.53695 8.6547,10.53695z" data-paper-data="{&quot;index&quot;:null}" fill="url(#color-19)" fill-rule="nonzero" stroke="#000000" stroke-width="0.5" stroke-linecap="round"/><path d="M271.19386,135.34796c0,0 5.96544,-0.36971 15.06242,0.97647c6.95506,1.02922 16.0424,3.51412 23.89355,5.23373c7.77358,1.70263 25.42936,8.04474 27.44582,8.64412c2.94445,0.87523 14.37224,5.46959 22.66921,9.3174c5.98129,2.77389 9.89941,5.24701 9.89941,5.24701" data-paper-data="{&quot;index&quot;:null}" fill="none" fill-rule="nonzero" stroke="url(#color-20)" stroke-width="0.5" stroke-linecap="round"/><path d="M159.98378,122.08619c0,0 23.17744,1.25654 40.31526,2.1632c14.62751,0.77384 22.98867,1.18714 29.21532,1.50321c6.57314,0.33366 53.17717,0.74379 53.17717,0.74379c0,0 7.5952,-0.03111 16.72925,-0.19819c9.3644,-0.1713 20.35288,-0.46564 26.97826,0.62088c2.06788,0.33912 5.28755,0.70428 9.0336,1.76708c3.97714,1.12834 8.49812,2.97706 11.1049,4.07032c7.60935,3.19128 8.92254,5.93287 8.92254,5.93287" data-paper-data="{&quot;index&quot;:null}" fill="none" fill-rule="nonzero" stroke="url(#color-21)" stroke-width="0.5" stroke-linecap="round"/><path d="M316.1573,122.21588c0,0 -10.70745,1.74145 -17.11202,2.21151c-3.23807,0.23766 -12.40328,0.72068 -21.66451,0.89851c-12.32118,0.2366 -24.91217,0.13277 -24.91217,0.13277c0,0 -12.91671,-0.24568 -18.37951,-0.52538c-4.63079,-0.23711 -12.31557,-1.0463 -12.31557,-1.0463" data-paper-data="{&quot;index&quot;:null}" fill="none" fill-rule="nonzero" stroke="#000000" stroke-width="0.5" stroke-linecap="round"/><path d="M201.23228,124.42099l-44.88042,0.64856" data-paper-data="{&quot;index&quot;:null}" fill="none" fill-rule="nonzero" stroke="url(#color-22)" stroke-width="0.5" stroke-linecap="round"/><path d="M125.61654,145.70353c0,0 26.62789,-3.24674 52.43127,-6.21876c14.28452,-1.64529 28.21142,-3.31135 37.47724,-4.04672c20.16523,-1.60041 55.52049,-0.17633 55.52049,-0.17633" data-paper-data="{&quot;index&quot;:null}" fill="none" fill-rule="nonzero" stroke="url(#color-23)" stroke-width="0.5" stroke-linecap="round"/><path d="M117.87403,138.15534c0,0 4.73809,-2.64631 7.96031,-4.30939c1.85767,-0.95881 7.46522,-3.06453 10.48869,-4.584c4.18556,-2.1035 5.59494,-3.06373 5.59494,-3.06373" data-paper-data="{&quot;index&quot;:null}" fill="none" fill-rule="nonzero" stroke="url(#color-24)" stroke-width="0.5" stroke-linecap="round"/><path d="M116.44719,137.50678c0,0 10.79236,-7.40276 14.51634,-9.76607c2.26362,-1.43653 5.55368,-2.91036 5.55368,-2.91036" data-paper-data="{&quot;index&quot;:null}" fill="none" fill-rule="nonzero" stroke="url(#color-25)" stroke-width="0.5" stroke-linecap="round"/><path d="M136.88044,126.8672c-0.43586,-0.52304 -0.79954,-1.84149 -0.79954,-1.84149c0,0 2.75069,-0.47197 3.44087,-0.46652c0.69017,0.00545 1.107,0.27024 1.6931,0.50709c0.85667,0.34621 0.80222,1.63119 0.03658,2.06186c-0.76565,0.43067 -2.57629,1.01065 -2.57629,1.01065c0,0 -1.36594,-0.75708 -1.79472,-1.2716z" data-paper-data="{&quot;index&quot;:null}" fill="#0c0c0c" fill-rule="nonzero" stroke="#000000" stroke-width="0.5" stroke-linecap="round"/><path d="M202.38672,120.87769l-4.99392,0.90799h-16.49507c0,0 -0.16,-2.43372 3.80764,-2.60136c1.39898,-0.0591 7.29336,0.43253 11.61559,0.90101c3.73482,0.40482 6.06576,0.79236 6.06576,0.79236z" data-paper-data="{&quot;index&quot;:null}" fill="url(#color-26)" fill-rule="nonzero" stroke="#000000" stroke-width="0.5" stroke-linecap="round"/><path d="M174.47121,144.02629c0,0 -1.69034,-1.9478 -4.3484,-2.04772c-2.49024,-0.09363 -10.53784,0.88667 -15.63666,1.17671c-4.86754,0.27689 -6.85097,0.1648 -6.85097,0.1648c0,0 17.27436,-2.6124 22.49779,-2.4196c4.7537,0.17547 7.5666,3.2267 7.5666,3.2267z" data-paper-data="{&quot;index&quot;:null}" fill="url(#color-27)" fill-rule="nonzero" stroke="#000000" stroke-width="0.5" stroke-linecap="round"/><path d="M116.3097,138.78012c0,0 0.05251,-1.04893 0.18393,-1.59102c0.13736,-0.56659 0.62318,-1.73827 0.62318,-1.73827" data-paper-data="{&quot;index&quot;:null}" fill="none" fill-rule="nonzero" stroke="#000000" stroke-width="0.5" stroke-linecap="round"/><path d="M127.00376,157.44426c0,0 8.4934,-0.41084 14.43774,-0.12527c3.39413,0.16306 5.75325,0.82514 5.73971,1.23503c-0.03756,1.13706 -3.67415,1.31158 -7.87244,1.36617c-5.77285,0.07506 -12.60768,-0.25641 -12.60768,-0.25641l0.30266,-2.21951z" data-paper-data="{&quot;index&quot;:null}" fill="url(#color-28)" fill-rule="nonzero" stroke="#000000" stroke-width="0.5" stroke-linecap="round"/><g data-paper-data="{&quot;index&quot;:null}" fill-rule="nonzero" stroke="#000000" stroke-width="0.5" stroke-linecap="round"><path d="M266.73694,122.76717c0,0 0.52152,3.38189 0.39235,5.01808c-0.08457,1.07127 -0.55291,2.79212 -0.87096,3.86724c-0.17174,0.58056 -0.93418,0.6873 -1.30823,0.51896c-0.46902,-0.21106 -1.42835,-1.22641 -1.23837,-1.89289c0.21061,-0.73888 0.46135,-1.66658 0.58236,-2.29367c0.24456,-1.26727 0.49717,-3.92058 0.49717,-3.92058z" fill="url(#color-29)"/><path d="M258.69479,115.63299c0,0 3.11518,-0.25015 5.37689,1.21737c1.86953,1.21305 3.03912,3.31447 3.44355,4.10083c0.89367,1.7377 -4.15079,3.76165 -4.15079,3.76165z" fill="url(#color-30)"/></g><path d="M198.55502,173.16555c0,0 -8.25117,-1.13937 -18.2161,-2.73496c-9.64313,-1.54406 -20.74416,-3.1637 -25.66502,-4.27389c-9.84612,-2.22139 -15.50113,-6.06614 -15.50113,-6.06614" data-paper-data="{&quot;index&quot;:null}" fill="none" fill-rule="nonzero" stroke="#000000" stroke-width="0.5" stroke-linecap="round"/><path d="M356.46427,211.54981c0,0 0.00883,3.33452 -0.93787,5.28426c-0.32843,0.67643 -1.25024,1.94558 -2.36632,3.63516c-0.93454,1.41474 -1.91485,3.19212 -3.66735,4.5104c-1.77316,1.33385 -9.95103,4.36075 -10.81248,4.63735c-3.6983,1.18742 -11.19586,2.28683 -11.19586,2.28683c0,0 0.50744,-3.3279 4.33223,-6.01424c0.80361,-0.56441 4.42638,-2.87839 7.99591,-4.66495c3.43208,-1.71779 12.29278,-5.60208 13.79352,-6.74831c1.48175,-1.13173 2.85821,-2.9265 2.85821,-2.9265z" data-paper-data="{&quot;index&quot;:null}" fill="#0c0c0c" fill-rule="nonzero" stroke="#000000" stroke-width="0.5" stroke-linecap="round"/><path d="M355.78774,214.04678c0,0 -0.04634,0.97412 -0.83136,2.45261c-0.42014,0.79131 -1.38116,2.0314 -2.29207,3.40966c-0.70775,1.07085 -1.2953,2.25509 -2.15236,3.18469c-1.22594,1.32971 -2.76922,2.10895 -3.50005,2.45699c-2.94863,1.40423 -7.25552,2.88871 -9.05865,3.46208c-3.06036,0.97317 -9.25372,2.21001 -9.25372,2.21001c0,0 0.32006,-1.78488 2.35754,-3.46618c2.50243,-2.06499 7.20698,-3.97759 9.34128,-5.28328c2.63802,-1.61383 6.65931,-3.38323 9.85429,-4.78704c2.3556,-1.03502 5.53511,-3.63954 5.53511,-3.63954z" data-paper-data="{&quot;index&quot;:null}" fill="url(#color-31)" fill-rule="nonzero" stroke="#000000" stroke-width="0.5" stroke-linecap="round"/><path d="M347.26083,221.67384c0,0 0.02836,0.39697 0.04395,0.61533c0.01775,0.24853 -0.2022,0.7971 -0.45001,0.7971c-0.68126,0 -3.8312,0 -3.8312,0l-0.90799,-1.26109l5.14526,-0.15133z" data-paper-data="{&quot;index&quot;:null}" fill="url(#color-32)" fill-rule="nonzero" stroke="#000000" stroke-width="0.5" stroke-linecap="round"/><path d="M347.34068,219.71886c-0.02793,0.43288 -0.10758,1.66746 -0.10758,1.66746l-4.53993,0.07566c0,0 3.06582,-1.65802 3.8779,-2.07716c0.37191,-0.19196 0.78743,0.05797 0.7696,0.33403z" data-paper-data="{&quot;index&quot;:null}" fill="url(#color-33)" fill-rule="nonzero" stroke="#000000" stroke-width="0.5" stroke-linecap="round"/><path d="M334.53086,225.33462l4.15203,-0.2407c0,0 0,0.76418 0,1.08013c0,0.24701 -0.26825,0.66515 -0.51852,0.66979c-0.65644,0.01216 -3.56742,0.06606 -3.56742,0.06606l-0.64467,-0.85955z" data-paper-data="{&quot;index&quot;:null}" fill="url(#color-34)" fill-rule="nonzero" stroke="#000000" stroke-width="0.5" stroke-linecap="round"/><path d="M337.85058,225.39658h-3.32928l3.40494,-1.81597z" data-paper-data="{&quot;index&quot;:null}" fill="url(#color-35)" fill-rule="nonzero" stroke="#000000" stroke-width="0.5" stroke-linecap="round"/><path d="M347.6871,219.11636v3.07286l-0.67847,0.71041l-0.38084,-0.71041v-2.92994z" data-paper-data="{&quot;index&quot;:null}" fill="url(#color-36)" fill-rule="nonzero" stroke="#000000" stroke-width="0.5" stroke-linecap="round"/><path d="M338.98553,223.05096v3.24212l-0.49849,0.44657l-0.56081,-0.28445l0.06232,-2.96073z" data-paper-data="{&quot;index&quot;:null}" fill="url(#color-37)" fill-rule="nonzero" stroke="#000000" stroke-width="0.5" stroke-linecap="round"/><path d="M328.84638,231.14716c0,0 0.82264,-1.7453 1.35771,-2.44214c0.35753,-0.46561 1.59854,-1.31047 2.42098,-1.84331c0.44072,-0.28553 0.80061,0.10923 0.82754,0.51289c0.0419,0.6285 0.16071,2.41058 0.16071,2.41058z" data-paper-data="{&quot;index&quot;:null}" fill="url(#color-38)" fill-rule="nonzero" stroke="#000000" stroke-width="0.5" stroke-linecap="round"/><path d="M353.36199,215.78707c0,0 0.17925,0.74757 -0.07349,1.60334c-0.1902,0.64399 -0.49645,1.15508 -0.98583,1.49894c-1.13965,0.80084 -1.74031,-1.13497 -1.74031,-1.13497z" data-paper-data="{&quot;index&quot;:null}" fill="url(#color-39)" fill-rule="nonzero" stroke="#000000" stroke-width="0.5" stroke-linecap="round"/><path d="M266.81283,222.37063c0,0 -9.42241,0.392 -19.36998,-0.37926c-9.60557,-0.74473 -19.71617,-2.63549 -21.45835,-3.6215c-3.8228,-2.16359 -5.02493,-6.32757 -5.02493,-6.32757c0,0 15.65414,-0.28931 21.8962,-0.49668c4.70582,-0.15635 12.26676,-0.6383 12.26676,-0.6383c0,0 1.45765,2.02514 2.89421,3.4617c2.17939,2.17939 8.79611,8.00163 8.79611,8.00163z" data-paper-data="{&quot;index&quot;:null}" fill="url(#color-40)" fill-rule="nonzero" stroke="#000000" stroke-width="0" stroke-linecap="round"/><path d="M315.73054,180.14932c0,0 0.22627,3.63992 -0.2079,7.50577c-0.31915,2.84171 -1.15166,5.75334 -1.89827,7.69605c-1.04829,2.72769 -4.04565,8.92911 -9.27419,14.04705c-4.39792,4.30487 -11.00517,7.74359 -13.10999,8.6903c-3.9573,1.7799 -12.62354,2.69319 -12.62354,2.69319c0,0 -5.10386,-0.11082 -7.58804,-1.41458c-0.83013,-0.43568 -2.01772,-1.10998 -3.11917,-2.00385c-1.75774,-1.42646 -3.53435,-3.17383 -4.5176,-4.174c-0.48621,-0.49457 -0.47518,-1.17688 0.06213,-1.60241c0.36996,-0.29298 0.85088,-0.61209 1.42021,-0.85436c1.00637,-0.42825 3.82762,-0.96848 6.52079,-2.66249c3.75351,-2.36095 7.57919,-6.21425 8.74181,-8.48968c2.23888,-4.38178 2.65977,-10.02851 2.94379,-11.79819c0.41348,-2.57635 0.53002,-7.40582 0.53002,-7.40582v-0.75263c0,0 -0.11654,-4.82947 -0.53002,-7.40582c-0.28402,-1.76969 -0.70491,-7.41641 -2.94379,-11.79819c-1.16262,-2.27543 -4.9883,-6.12874 -8.74181,-8.48968c-2.69318,-1.694 -5.51441,-2.23422 -6.52079,-2.66249c-0.56932,-0.24227 -1.05025,-0.56137 -1.42021,-0.85436c-0.53732,-0.42553 -0.54833,-1.10784 -0.06213,-1.60241c0.98323,-1.00017 2.75986,-2.74752 4.5176,-4.174c1.10146,-0.89387 2.28904,-1.56818 3.11917,-2.00385c2.48418,-1.30376 7.58804,-1.41458 7.58804,-1.41458c0,0 8.66624,0.91327 12.62354,2.69319c2.10483,0.94672 8.71208,4.38542 13.10999,8.6903c5.22854,5.11793 8.22591,11.31935 9.27419,14.04705c0.7466,1.94272 1.57912,4.85434 1.89827,7.69605c0.43417,3.86586 0.2079,7.50577 0.2079,7.50577z" data-paper-data="{&quot;index&quot;:null}" fill="url(#color-41)" fill-rule="nonzero" stroke="#000000" stroke-width="0" stroke-linecap="round"/><path d="M327.42086,231.79099c0,0 -0.50006,0.63364 -1.07075,1.40925c-0.36539,0.4966 -0.75977,1.11838 -1.07038,1.44969c-0.89505,0.95471 -2.73929,2.58898 -2.73929,2.58898" data-paper-data="{&quot;index&quot;:null}" fill="none" fill-rule="nonzero" stroke="#2b2b2b" stroke-width="0.5" stroke-linecap="round"/><path d="M215.73409,231.09419c0,0 -27.33151,-0.26084 -39.98561,-1.01217c-11.43516,-0.67896 -32.65322,-3.30076 -32.65322,-3.30076" data-paper-data="{&quot;index&quot;:null}" fill="none" fill-rule="nonzero" stroke="#2b2b2b" stroke-width="0.5" stroke-linecap="round"/><path d="M113.80624,213.8522l-0.25943,-1.16741" data-paper-data="{&quot;index&quot;:null}" fill="none" fill-rule="nonzero" stroke="#000000" stroke-width="0.5" stroke-linecap="round"/><path d="M291.53273,230.46314v-7.99027l17.97811,-3.63195l-3.45034,6.90069l-3.08716,2.36076l-3.26875,1.08958z" data-paper-data="{&quot;index&quot;:null}" fill="url(#color-42)" fill-rule="nonzero" stroke="none" stroke-width="0.5" stroke-linecap="round"/><path d="M311.98511,218.51171c0,0 -5.12905,8.49168 -8.6547,10.53695c-3.3082,1.91912 -11.88846,1.38036 -11.88846,1.38036c0,0 -0.30076,-0.16908 1.80681,-0.76751c1.37192,-0.38955 4.16715,-0.68796 6.07934,-1.2487c2.15788,-0.63277 3.40851,-1.53753 4.30996,-2.1158c3.08025,-1.97601 5.85009,-7.4448 5.85009,-7.4448z" data-paper-data="{&quot;index&quot;:null}" fill="url(#color-43)" fill-rule="nonzero" stroke="#000000" stroke-width="0.5" stroke-linecap="round"/><path d="M370.16427,195.23331c0,0 -3.91811,2.47311 -9.89941,5.24701c-8.29698,3.84781 -19.72474,8.44217 -22.66921,9.3174c-2.01646,0.59939 -19.67223,6.9415 -27.44582,8.64412c-7.85113,1.71962 -16.93848,4.20452 -23.89355,5.23373c-9.09699,1.34618 -15.06242,0.97647 -15.06242,0.97647" data-paper-data="{&quot;index&quot;:null}" fill="none" fill-rule="nonzero" stroke="url(#color-44)" stroke-width="0.5" stroke-linecap="round"/><path d="M355.46009,221.31066c0,0 -1.31318,2.74159 -8.92254,5.93287c-2.60677,1.09326 -7.12776,2.94196 -11.1049,4.07032c-3.74606,1.0628 -6.96572,1.42796 -9.0336,1.76708c-6.62539,1.08651 -17.61386,0.79216 -26.97826,0.62088c-9.13406,-0.16707 -16.72925,-0.19819 -16.72925,-0.19819c0,0 -46.60404,0.41013 -53.17717,0.74379c-6.22664,0.31607 -14.5878,0.72937 -29.21532,1.50321c-17.13782,0.90666 -40.31526,2.1632 -40.31526,2.1632" data-paper-data="{&quot;index&quot;:null}" fill="none" fill-rule="nonzero" stroke="url(#color-45)" stroke-width="0.5" stroke-linecap="round"/><path d="M221.77351,236.11298c0,0 7.6848,-0.80919 12.31557,-1.0463c5.4628,-0.27971 18.37951,-0.52538 18.37951,-0.52538c0,0 12.59097,-0.10382 24.91217,0.13277c9.26123,0.17783 18.42645,0.66086 21.66451,0.89851c6.40458,0.47006 17.11202,2.21151 17.11202,2.21151" data-paper-data="{&quot;index&quot;:null}" fill="none" fill-rule="nonzero" stroke="#000000" stroke-width="0.5" stroke-linecap="round"/><path d="M201.23228,235.579l-44.88042,-0.64856" data-paper-data="{&quot;index&quot;:null}" fill="none" fill-rule="nonzero" stroke="url(#color-46)" stroke-width="0.5" stroke-linecap="round"/><path d="M271.04555,224.73829c0,0 -35.35525,1.42408 -55.52049,-0.17633c-9.26582,-0.73538 -23.19272,-2.40143 -37.47724,-4.04672c-25.80338,-2.97203 -52.43127,-6.21876 -52.43127,-6.21876" data-paper-data="{&quot;index&quot;:null}" fill="none" fill-rule="nonzero" stroke="url(#color-47)" stroke-width="0.5" stroke-linecap="round"/><path d="M141.91795,233.80174c0,0 -1.40938,-0.96022 -5.59494,-3.06373c-3.02346,-1.51948 -8.63102,-3.6252 -10.48869,-4.584c-3.22222,-1.66308 -7.96031,-4.30939 -7.96031,-4.30939" data-paper-data="{&quot;index&quot;:null}" fill="none" fill-rule="nonzero" stroke="url(#color-48)" stroke-width="0.5" stroke-linecap="round"/><path d="M136.51721,235.16963c0,0 -3.29005,-1.47383 -5.55368,-2.91036c-3.724,-2.3633 -14.51634,-9.76607 -14.51634,-9.76607" data-paper-data="{&quot;index&quot;:null}" fill="none" fill-rule="nonzero" stroke="url(#color-49)" stroke-width="0.5" stroke-linecap="round"/><path d="M136.88044,233.1328c0.42878,-0.51453 1.79472,-1.2716 1.79472,-1.2716c0,0 1.81066,0.57997 2.57629,1.01065c0.76565,0.43066 0.82009,1.71564 -0.03658,2.06186c-0.58611,0.23686 -1.00294,0.50164 -1.6931,0.50709c-0.69018,0.00545 -3.44087,-0.46652 -3.44087,-0.46652c0,0 0.36368,-1.31846 0.79954,-1.84149z" data-paper-data="{&quot;index&quot;:null}" fill="#0c0c0c" fill-rule="nonzero" stroke="#000000" stroke-width="0.5" stroke-linecap="round"/><path d="M196.32095,239.91467c-4.32223,0.4685 -10.2166,0.96013 -11.61559,0.90101c-3.96763,-0.16765 -3.80764,-2.60136 -3.80764,-2.60136h16.49507l4.99392,0.90799c0,0 -2.33094,0.38754 -6.06576,0.79236z" data-paper-data="{&quot;index&quot;:null}" fill="url(#color-50)" fill-rule="nonzero" stroke="#000000" stroke-width="0.5" stroke-linecap="round"/><path d="M177.69961,215.87282c0,0 -2.81291,3.05122 -7.5666,3.2267c-5.22344,0.19281 -22.49779,-2.4196 -22.49779,-2.4196c0,0 1.98343,-0.1121 6.85097,0.1648c5.09882,0.29004 13.14639,1.27034 15.63666,1.17671c2.65806,-0.09993 4.3484,-2.04772 4.3484,-2.04772z" data-paper-data="{&quot;index&quot;:null}" fill="url(#color-51)" fill-rule="nonzero" stroke="#000000" stroke-width="0.5" stroke-linecap="round"/><path d="M117.11679,224.54913c0,0 -0.48582,-1.17168 -0.62318,-1.73827c-0.13141,-0.54207 -0.18393,-1.59102 -0.18393,-1.59102" data-paper-data="{&quot;index&quot;:null}" fill="none" fill-rule="nonzero" stroke="#000000" stroke-width="0.5" stroke-linecap="round"/><path d="M127.00375,202.55571l-0.30266,-2.21951c0,0 6.83484,-0.33145 12.60768,-0.25641c4.19829,0.05458 7.83488,0.2291 7.87244,1.36617c0.01354,0.40988 -2.34556,1.07197 -5.73971,1.23503c-5.94435,0.28557 -14.43774,-0.12527 -14.43774,-0.12527z" data-paper-data="{&quot;index&quot;:null}" fill="url(#color-52)" fill-rule="nonzero" stroke="#000000" stroke-width="0.5" stroke-linecap="round"/><path d="M361.9924,180.16075l-40.13296,1.08958v-1.08958v-0.32152v-1.08958l40.13296,1.08958" data-paper-data="{&quot;index&quot;:null}" fill="#ab5a22" fill-rule="nonzero" stroke="none" stroke-width="0.5" stroke-linecap="round"/><path d="M339.8168,187.78005c0,0 -3.5363,1.82937 -4.72555,2.25881c-0.66003,0.23834 -1.66638,0.80109 -1.69165,-0.08308c-0.0371,-1.2981 -0.12767,-4.16286 0.99582,-5.01791c1.33663,-1.01726 10.35433,-2.86334 8.86455,-2.65763c-2.21155,0.30538 -7.53145,1.35766 -8.58415,1.09212c-1.57721,-0.39785 -1.21492,-3.31018 -1.21492,-3.31018v-0.12436c0,0 -0.36228,-2.91233 1.21492,-3.31018c1.05271,-0.26555 6.3726,0.78674 8.58415,1.09212c1.48979,0.20571 -7.52794,-1.64037 -8.86455,-2.65763c-1.12349,-0.85505 -1.03292,-3.71981 -0.99582,-5.01791c0.02527,-0.88417 1.03159,-0.32143 1.69165,-0.08308c1.18923,0.42944 4.72555,2.25881 4.72555,2.25881" data-paper-data="{&quot;index&quot;:null}" fill="none" fill-rule="nonzero" stroke="#191919" stroke-width="0.5" stroke-linecap="round"/><path d="M276.59507,135.57624c0,0 5.78301,0.78563 11.74577,2.5329c5.03713,1.47605 10.09112,3.78693 13.03144,5.37551c6.46348,3.49202 10.27903,8.63043 13.87702,13.42926c3.598,4.79883 5.88634,9.1399 6.94638,13.53667c0.75696,3.13963 0.78663,9.3705 0.78663,9.3705v0.35783c0,0 -0.02967,6.23087 -0.78663,9.3705c-1.06004,4.39677 -3.34839,8.73784 -6.94638,13.53667c-3.598,4.79883 -7.41354,9.93724 -13.87702,13.42926c-2.94033,1.58857 -7.99431,3.89945 -13.03144,5.37551c-5.96276,1.74727 -11.74577,2.5329 -11.74577,2.5329" data-paper-data="{&quot;index&quot;:null}" fill="none" fill-rule="nonzero" stroke="#000000" stroke-width="0.5" stroke-linecap="round"/><path d="M195.91407,179.71083c0,0 0,-1.66864 0,-1.94568c0,-0.53644 0.50651,-1.8601 2.24101,-2.88303c2.05977,-1.21475 5.53201,-2.1118 7.46178,-2.25694c1.76086,-0.13242 9.29666,-0.79777 17.78295,-1.08651c12.41568,-0.42243 27.16163,-0.48255 31.27344,-0.54764c2.96638,-0.04695 6.35636,4.34479 6.35636,5.99586c0,1.1296 0,2.85367 0,2.85367v0.31892c0,0 0,1.72407 0,2.85367c0,1.65106 -3.38997,6.04281 -6.35636,5.99586c-4.1118,-0.06509 -18.85777,-0.12521 -31.27344,-0.54764c-8.48628,-0.28875 -16.02209,-0.95409 -17.78295,-1.08651c-1.92978,-0.14513 -5.40201,-1.0422 -7.46178,-2.25694c-1.7345,-1.02293 -2.24101,-2.34659 -2.24101,-2.88303c0,-0.27704 0,-1.94568 0,-1.94568z" data-paper-data="{&quot;index&quot;:null}" fill="#191919" fill-rule="nonzero" stroke="#000000" stroke-width="0.5" stroke-linecap="round"/><path d="M217.4463,171.92809v7.78273v0.57836v7.78273" data-paper-data="{&quot;index&quot;:null}" fill="none" fill-rule="nonzero" stroke="#000000" stroke-width="0.5" stroke-linecap="round"/><path d="M197.73005,179.71083c0,0 0,-1.72073 0,-2.46453c0,-0.61526 0.63549,-1.76976 1.65765,-1.90405c3.70119,-0.48629 12.47209,-1.63866 14.49904,-1.90497c0.81754,-0.10741 1.61389,1.04272 1.61389,1.86335c0,1.19628 0,4.41021 0,4.41021v0.57836c0,0 0,3.21393 0,4.41021c0,0.82063 -0.79635,1.97076 -1.61389,1.86335c-2.02695,-0.26632 -10.79783,-1.41869 -14.49904,-1.90497c-1.02216,-0.1343 -1.65765,-1.28879 -1.65765,-1.90405c0,-0.74381 0,-2.46453 0,-2.46453z" data-paper-data="{&quot;index&quot;:null}" fill="url(#color-53)" fill-rule="nonzero" stroke="#000000" stroke-width="0.5" stroke-linecap="round"/><path d="M226.39644,179.71083v-6.61531c0,0 22.7864,0 26.33157,0c0.89715,0 2.60464,0.2569 3.56783,0.66878c0.83088,0.3553 1.6951,0.82594 2.03194,1.34652c0.69834,1.07923 0.69834,8.69915 0,9.7784c-0.33684,0.52057 -1.20107,0.99121 -2.03194,1.34652c-0.96319,0.41188 -2.67068,0.66878 -3.56783,0.66878c-3.54517,0 -26.33157,0 -26.33157,0v-6.61531z" data-paper-data="{&quot;index&quot;:null}" fill="url(#color-54)" fill-rule="nonzero" stroke="#000000" stroke-width="0.5" stroke-linecap="round"/><g data-paper-data="{&quot;index&quot;:null}" fill-rule="nonzero" stroke="#000000" stroke-width="0.5" stroke-linecap="round"><path d="M264.79127,235.93568c0,0 -0.25262,-2.65331 -0.49717,-3.92058c-0.12102,-0.62709 -0.37176,-1.55479 -0.58236,-2.29367c-0.18998,-0.66649 0.76935,-1.68183 1.23837,-1.89289c0.37405,-0.16832 1.13649,-0.06159 1.30823,0.51896c0.31805,1.07512 0.78639,2.79597 0.87096,3.86724c0.12917,1.63617 -0.39235,5.01808 -0.39235,5.01808z" fill="url(#color-55)"/><path d="M263.36442,235.28714c0,0 5.04446,2.02396 4.15079,3.76165c-0.40441,0.78638 -1.57401,2.88778 -3.44355,4.10083c-2.26171,1.46751 -5.37689,1.21737 -5.37689,1.21737z" fill="url(#color-56)"/></g><path d="M139.17276,199.90943c0,0 5.65501,-3.84475 15.50113,-6.06614c4.92087,-1.11018 16.02189,-2.72982 25.66502,-4.27389c9.96493,-1.5956 18.2161,-2.73496 18.2161,-2.73496" data-paper-data="{&quot;index&quot;:null}" fill="none" fill-rule="nonzero" stroke="#000000" stroke-width="0.5" stroke-linecap="round"/><path d="M171.49705,187.56082c0,0 -18.63737,3.61004 -23.37897,4.6569c-2.05033,0.45267 -4.4875,-1.94243 -4.53771,-3.72471c-0.06632,-2.35426 -0.23087,-8.19606 -0.23087,-8.19606v-0.59392c0,0 0.16455,-5.8418 0.23087,-8.19606c0.05021,-1.78228 2.48737,-4.17738 4.53771,-3.72471c4.74161,1.04684 23.37897,4.6569 23.37897,4.6569" data-paper-data="{&quot;index&quot;:null}" fill="url(#color-57)" fill-rule="nonzero" stroke="#000000" stroke-width="0.5" stroke-linecap="round"/><path d="M191.3949,179.6771c0,0 -0.11468,-1.79449 0.3559,-3.16515c0.41373,-1.20508 1.39767,-1.9942 1.68457,-2.16699c0.63664,-0.38341 1.20233,0.26745 1.20233,0.92193c0,1.11772 0,4.53993 0,4.53993v0.38635c0,0 0,3.4222 0,4.53993c0,0.65447 -0.56568,1.30533 -1.20233,0.92193c-0.2869,-0.17278 -1.27085,-0.96191 -1.68457,-2.16699c-0.4706,-1.37066 -0.3559,-3.16515 -0.3559,-3.16515z" data-paper-data="{&quot;index&quot;:null}" fill="url(#color-58)" fill-rule="nonzero" stroke="#000000" stroke-width="0.5" stroke-linecap="round"/><path d="M356.35835,147.9735c0,0 1.80348,3.34788 4.40386,8.37571c1.71121,3.30861 4.2823,8.18126 5.09296,10.35074c1.92261,5.14527 1.51251,13.16654 1.51251,13.16654v0.26703c0,0 0.41009,8.02127 -1.51251,13.16654c-0.81066,2.16949 -3.38175,7.04213 -5.09296,10.35074c-2.60038,5.02783 -4.40386,8.37571 -4.40386,8.37571" data-paper-data="{&quot;index&quot;:null}" fill="none" fill-rule="nonzero" stroke="#2b2b2b" stroke-width="0.5" stroke-linecap="round"/><path d="M215.80673,236.09265c0,0 0,-17.80368 0,-21.78038c0,-1.4999 0.99526,-3.35488 2.66602,-3.40476c7.44864,-0.2224 36.54691,-0.87642 36.54691,-0.87642c0,0 5.472,6.0617 11.17232,10.96311c2.61838,2.25141 5.97741,3.49371 7.55487,4.97492c1.40027,1.31484 3.42016,2.68535 5.13656,4.18743c3.01505,2.6386 5.45353,5.5502 5.45353,5.5502" data-paper-data="{&quot;index&quot;:null}" fill="none" fill-rule="nonzero" stroke="#2b2b2b" stroke-width="0.5" stroke-linecap="round"/><path d="M321.86462,179.02447v2.46453v2.33482c0,0 -2.03661,0.18221 -2.76328,-0.162c-0.88496,-0.41919 -2.16578,-2.17282 -2.16578,-2.17282v-2.97803c0,0 1.28082,-1.75363 2.16578,-2.17282c0.72666,-0.34421 2.76328,-0.162 2.76328,-0.162v2.33482v2.46453z" data-paper-data="{&quot;index&quot;:null}" fill="#0c0c0c" fill-rule="nonzero" stroke="#000000" stroke-width="0.5" stroke-linecap="round"/><path d="M319.75032,180.24376l0.33725,1.37495c0,0 -0.56327,1.55655 -1.33603,1.55655c-1.22839,0 -2.98615,0 -3.85245,0c-0.97266,0 -2.46453,-1.81597 -2.46453,-1.81597l-27.88813,-0.77828v-1.16206l27.88813,-0.77828c0,0 1.49187,-1.81597 2.46453,-1.81597c0.8663,0 2.62406,0 3.85245,0c0.77277,0 1.33603,1.55655 1.33603,1.55655l-0.33725,1.37495z" data-paper-data="{&quot;index&quot;:null}" fill="#0c0c0c" fill-rule="nonzero" stroke="#000000" stroke-width="0.5" stroke-linecap="round"/><path d="M320.59344,180.19187c0,0 0,0.45415 0,0.68747c0,0.24197 -0.31341,0.73936 -0.78034,0.73936c-1.1082,0 -3.0812,0 -3.78167,0c-0.48452,0 -1.08048,-0.48675 -1.08048,-0.73936c0,-0.26558 0,-0.81719 0,-0.81719v-0.12432c0,0 0,-0.55161 0,-0.81719c0,-0.25262 0.59596,-0.73936 1.08048,-0.73936c0.70046,0 2.67347,0 3.78167,0c0.46693,0 0.78034,0.49739 0.78034,0.73936c0,0.23332 0,0.68747 0,0.68747z" data-paper-data="{&quot;index&quot;:null}" fill="#0c0c0c" fill-rule="nonzero" stroke="#000000" stroke-width="0.5" stroke-linecap="round"/><path d="M284.33694,124.29323c0,0 -2.43848,2.9116 -5.45353,5.5502c-1.71639,1.50208 -3.73628,2.8726 -5.13656,4.18743c-1.57747,1.4812 -4.93649,2.7235 -7.55487,4.97492c-5.70031,4.9014 -11.17232,10.96311 -11.17232,10.96311c0,0 -29.09828,-0.65402 -36.54691,-0.87642c-1.67077,-0.04988 -2.66602,-1.90488 -2.66602,-3.40476c0,-3.97672 0,-21.78038 0,-21.78038" data-paper-data="{&quot;index&quot;:null}" fill="none" fill-rule="nonzero" stroke="#2b2b2b" stroke-width="0.5" stroke-linecap="round"/><path d="M220.50103,210.89151c0,0 -0.75936,-1.66199 -0.8315,-3.60955c-0.18449,-4.98108 -0.3035,-27.03496 -0.3035,-27.03496v-0.49402c0,0 0.11901,-22.05389 0.3035,-27.03496c0.07214,-1.94755 0.8315,-3.60955 0.8315,-3.60955" data-paper-data="{&quot;index&quot;:null}" fill="none" fill-rule="nonzero" stroke="#2d2d2d" stroke-width="0.5" stroke-linecap="round"/><path d="M142.43697,133.52479v92.22553l-22.69963,-6.8099l-0.59808,-74.41382c0,0 6.51251,-4.30641 10.18439,-6.04037c4.05579,-1.91525 13.11333,-4.96143 13.11333,-4.96143z" data-paper-data="{&quot;index&quot;:null}" fill="url(#color-59)" fill-rule="nonzero" stroke="none" stroke-width="0.5" stroke-linecap="butt"/><path d="M142.86178,226.56399c0,0 -19.24991,-3.68419 -24.68451,-4.72431c-0.43648,-0.08353 -1.83316,-0.63558 -2.19525,-1.08933c-0.36132,-0.45281 -0.65568,-0.99209 -0.76608,-1.41161c-0.35846,-1.36215 -1.40969,-5.35685 -1.40969,-5.35685c0,0 4.00404,-0.32413 6.8561,0.91092c1.72039,0.74499 2.35362,3.02849 5.56973,4.71726c3.96123,2.08004 9.65318,4.03031 13.17062,5.36593c2.36238,0.89702 3.45909,1.588 3.45909,1.588z" data-paper-data="{&quot;index&quot;:null}" fill="url(#color-60)" fill-rule="nonzero" stroke="#2b2b2b" stroke-width="0.5" stroke-linecap="round"/><path d="M142.86178,133.43601c0,0 -1.0967,0.69096 -3.45909,1.588c-3.51744,1.33561 -9.20938,3.28588 -13.17062,5.36593c-3.21611,1.68877 -3.84934,3.97227 -5.56973,4.71726c-2.85207,1.23505 -6.8561,0.91092 -6.8561,0.91092c0,0 1.05124,-3.99469 1.40969,-5.35685c0.1104,-0.41951 0.40476,-0.9588 0.76608,-1.41161c0.36209,-0.45374 1.75877,-1.00578 2.19525,-1.08933c5.4346,-1.04012 24.68451,-4.72431 24.68451,-4.72431z" data-paper-data="{&quot;index&quot;:null}" fill="url(#color-61)" fill-rule="nonzero" stroke="#2b2b2b" stroke-width="0.5" stroke-linecap="round"/><path d="M373.22419,180.33025c0,0 -0.37385,7.46307 -1.39723,11.16298c-0.74326,2.68715 -0.87675,3.42308 -3.89935,9.56936c-3.0226,6.14628 -8.62586,15.28442 -8.62586,15.28442c0,0 -4.19685,6.44029 -8.47013,11.50488c-2.76927,3.28208 -5.92176,5.72308 -6.79595,6.35097c-1.95787,1.40624 -4.08609,2.20228 -4.54898,2.44056c-1.07662,0.55419 -3.12558,0.88992 -4.54922,0.88992c-4.40544,0 -27.38131,0 -34.04946,0c-1.15087,0 -3.65225,-0.34235 -4.82272,-0.56058c-0.88829,-0.1656 -2.54757,-0.47497 -3.88422,-0.72419c-1.13511,-0.21162 -3.52869,-0.37988 -5.36682,-0.37988c-3.34652,0 -19.62002,-0.68068 -38.89204,-0.6786c-11.03779,0.0012 -23.05918,0.53142 -34.19887,0.7683c-8.18016,0.17393 -16.00856,0.54578 -22.50715,0.93392c-7.27239,0.43437 -32.23042,2.2641 -48.01745,0.97422c-2.7625,-0.2257 -6.90987,-0.80487 -11.62975,-3.10638c-5.77911,-2.81801 -10.31509,-5.22626 -14.53521,-10.03408c-4.22012,-4.80785 -6.21737,-13.67566 -6.21737,-13.67566l-1.36198,-30.8715v-0.35782l1.36198,-30.8715c0,0 1.99725,-8.86781 6.21737,-13.67566c4.22013,-4.80784 8.7561,-7.21607 14.53521,-10.03408c4.71986,-2.30149 8.86725,-2.88066 11.62975,-3.10638c15.78703,-1.28987 40.74507,0.53985 48.01745,0.97422c6.49859,0.38814 14.32699,0.76 22.50715,0.93392c11.1397,0.23687 23.16109,0.76709 34.19887,0.7683c19.27203,0.00208 35.54553,-0.6786 38.89204,-0.6786c1.83813,0 4.23172,-0.16825 5.36682,-0.37988c1.33665,-0.2492 2.99595,-0.55858 3.88422,-0.72419c1.17047,-0.21823 3.67185,-0.56058 4.82272,-0.56058c6.66815,0 29.64402,0 34.04946,0c1.42364,0 3.4726,0.33574 4.54922,0.88992c0.46291,0.23827 2.59112,1.03432 4.54898,2.44056c0.87419,0.62789 4.02668,3.06889 6.79595,6.35097c4.27328,5.06459 8.47013,11.50488 8.47013,11.50488c0,0 5.60326,9.13814 8.62586,15.28442c3.0226,6.14628 3.15609,6.88222 3.89935,9.56936c1.02338,3.69991 1.39723,11.16298 1.39723,11.16298z" data-paper-data="{&quot;index&quot;:null}" fill="none" fill-rule="nonzero" stroke="#000000" stroke-width="0.5" stroke-linecap="round"/><path d="M106.77584,179.97997c0,0 0.1549,-9.82984 0.85145,-18.01432c0.24217,-2.84542 0.82832,-7.86508 1.8895,-11.06451c0.71182,-2.14609 1.8514,-3.18782 2.44517,-3.27049c3.7704,-0.52499 10.76265,-1.49859 12.89847,-1.79599c1.21681,-0.16942 2.51364,0.75204 2.44904,1.97959c-0.23966,4.55344 -1.69293,19.61969 -1.69293,32.20576c0,12.58606 1.45328,27.61227 1.69293,32.16571c0.0646,1.22755 -1.23223,2.14902 -2.44904,1.97959c-2.13583,-0.2974 -9.12807,-1.271 -12.89847,-1.79599c-0.59375,-0.08268 -1.73334,-1.12439 -2.44517,-3.27049c-1.06118,-3.19943 -1.64734,-8.21909 -1.8895,-11.06451c-0.69655,-8.18448 -0.85145,-18.01432 -0.85145,-18.01432z" data-paper-data="{&quot;index&quot;:null}" fill="url(#color-62)" fill-rule="nonzero" stroke="#000000" stroke-width="0.5" stroke-linecap="round"/><path d="M187.3518,180.88406" data-paper-data="{&quot;index&quot;:null}" fill="url(#color-63)" fill-rule="evenodd" stroke="url(#color-64)" stroke-width="0.5" stroke-linecap="butt"/><path d="M-2.63138,361.63479v-360.53868h484.97563v360.53869z" fill="none" fill-rule="nonzero" stroke="none" stroke-width="0" stroke-linecap="butt"/><path d="M215.95008,157.21989l-88.57899,-1.07904l0.22219,-9.62043c0,0 69.53146,-10.75463 89.62453,-11.3527c19.32139,-0.5751 54.07881,0.30908 54.07881,0.30908c0,0 -35.42842,0.87923 -45.63731,4.88983c-7.00122,2.75045 -9.70923,16.85325 -9.70923,16.85325z" fill="url(#color-65)" fill-rule="nonzero" stroke="none" stroke-width="0" stroke-linecap="butt"/><path d="M225.6593,219.84766c10.20889,4.0106 45.63731,4.88984 45.63731,4.88984c0,0 -34.75742,0.88418 -54.07881,0.30908c-20.09306,-0.59807 -89.62452,-11.3527 -89.62452,-11.3527l-0.22219,-9.62042l88.579,-1.07904c0,0 2.70801,14.1028 9.70923,16.85325z" data-paper-data="{&quot;index&quot;:null}" fill="url(#color-66)" fill-rule="nonzero" stroke="none" stroke-width="0" stroke-linecap="butt"/><path d="M116.04573,222.26147l240.03055,-0.37127c0,0 -2.5005,12.53448 -17.28773,15.08711c-8.9921,1.55224 -35.80572,-0.05591 -39.08526,0.31069c-2.60173,0.29083 -9.34304,-2.03182 -9.34304,-2.03182c0,0 -118.17793,2.85403 -119.36554,2.85403c-3.17543,0 -25.58298,0.96888 -35.41578,-1.6942c-15.30541,-4.14527 -19.5332,-14.15452 -19.5332,-14.15452z" fill="url(#color-67)" fill-rule="nonzero" stroke="none" stroke-width="0" stroke-linecap="butt"/><path d="M135.57893,123.44827c9.83281,-2.66308 32.24035,-1.6942 35.41579,-1.6942c1.18761,0 119.36554,2.85403 119.36554,2.85403c0,0 6.74131,-2.32266 9.34304,-2.03183c3.27953,0.3666 30.09316,-1.24155 39.08526,0.31069c14.78723,2.55262 17.28773,15.0871 17.28773,15.0871l-240.03054,-0.37127c0,0 4.22778,-10.00925 19.5332,-14.15452z" data-paper-data="{&quot;index&quot;:null}" fill="url(#color-68)" fill-rule="nonzero" stroke="none" stroke-width="0" stroke-linecap="butt"/></g></g></svg>