<svg version="1.1" xmlns="http://www.w3.org/2000/svg" xmlns:xlink="http://www.w3.org/1999/xlink" width="56.46904" height="31.76981" viewBox="0,0,56.46904,31.76981"><g transform="translate(-211.76548,-168.5)"><g data-paper-data="{&quot;isPaintingLayer&quot;:true}" fill-rule="nonzero" stroke-linejoin="miter" stroke-miterlimit="10" stroke-dasharray="" stroke-dashoffset="0" style="mix-blend-mode: normal"><path d="M223.26548,180h33.46904" fill="none" stroke-opacity="0.48627" stroke="#ffffff" stroke-width="23" stroke-linecap="round"/><path d="M213.05348,180.17058c0,-5.77316 4.68007,-10.45322 10.45322,-10.45322c5.77316,0 10.45322,4.68007 10.45322,10.45322c0,5.77316 -4.68007,10.45322 -10.45322,10.45322c-5.77316,0 -10.45322,-4.68007 -10.45322,-10.45322z" fill="#00c72d" stroke="none" stroke-width="0" stroke-linecap="butt"/><path d="M214.38793,180.17058c0,-5.03616 4.08261,-9.11877 9.11877,-9.11877c5.03616,0 9.11877,4.08261 9.11877,9.11877c0,5.03616 -4.08261,9.11877 -9.11877,9.11877c-5.03616,0 -9.11877,-4.08261 -9.11877,-9.11877z" fill="#00f339" stroke="none" stroke-width="0" stroke-linecap="butt"/><text transform="translate(238.47042,184.42996) scale(0.30757,0.30757)" font-size="40" xml:space="preserve" fill="#ffffff" fill-rule="nonzero" stroke="#ffffff" stroke-width="3" stroke-linecap="butt" stroke-linejoin="miter" stroke-miterlimit="10" stroke-dasharray="" stroke-dashoffset="0" font-family="Sans Serif" font-weight="normal" text-anchor="start" style="mix-blend-mode: normal"><tspan x="0" dy="0">开</tspan><tspan x="0" dy="48px"> </tspan></text></g></g></svg>