<svg version="1.1" xmlns="http://www.w3.org/2000/svg" xmlns:xlink="http://www.w3.org/1999/xlink" width="490.51695" height="75.99699" viewBox="0,0,490.51695,75.99699"><g transform="translate(4.57285,4.99206)"><g data-paper-data="{&quot;isPaintingLayer&quot;:true}" fill-rule="nonzero" stroke-linecap="butt" stroke-linejoin="miter" stroke-miterlimit="10" stroke-dasharray="" stroke-dashoffset="0" style="mix-blend-mode: normal"><path d="M485.9441,71.00493h-490.51695v-75.99699h490.51695z" fill-opacity="0.68627" fill="#dcdcdc" stroke="none" stroke-width="0"/><text transform="translate(197.93881,49.96105) scale(1.0536,1.0536)" font-size="40" xml:space="preserve" fill="#ffffff" fill-rule="nonzero" stroke="#ffffff" stroke-width="2" stroke-linecap="butt" stroke-linejoin="miter" stroke-miterlimit="10" stroke-dasharray="" stroke-dashoffset="0" font-family="Sans Serif" font-weight="normal" text-anchor="start" style="mix-blend-mode: normal"><tspan x="0" dy="0">车库</tspan></text><path d="M345.53445,43.28007c0,-6.22997 0,-14.39882 0,-17.74659c0,-2.89998 2.98235,-6.54698 6.41917,-6.54698c11.5895,0 77.01052,0 99.32791,0c4.67592,0 7.45967,2.90728 7.45967,6.81185c0,6.22575 0,14.98698 0,18.54121c0,3.00815 -2.57454,6.85923 -6.92992,6.85923c-21.72239,0 -87.74316,0 -99.59279,0c-3.56341,0 -6.68404,-3.46361 -6.68404,-7.91872z" fill-opacity="0.48235" fill="#969696" stroke="#ffffff" stroke-width="0"/><g><path d="M429.31793,35.58944c0,-6.40497 5.19225,-11.59722 11.59722,-11.59722c6.40497,0 11.59722,5.19226 11.59722,11.59722c0,6.40497 -5.19225,11.59722 -11.59722,11.59722c-6.40497,0 -11.59722,-5.19225 -11.59722,-11.59722z" fill="#ffbb00" stroke="none" stroke-width="0"/><path d="M431.40719,35.60256c0,-5.22462 4.23539,-9.46001 9.46001,-9.46001c5.22462,0 9.46001,4.23539 9.46001,9.46001c0,5.22462 -4.23539,9.46 -9.46001,9.46c-5.22462,0 -9.46001,-4.23539 -9.46001,-9.46z" fill="#e8aa00" stroke="none" stroke-width="0"/><text transform="translate(434.16929,41.85886) rotate(1.42362) scale(0.32261,0.43198) skewX(-18.80581)" font-size="40" xml:space="preserve" fill="#d39b00" fill-rule="nonzero" stroke="#d39b00" stroke-width="3" stroke-linecap="butt" stroke-linejoin="miter" stroke-miterlimit="10" stroke-dasharray="" stroke-dashoffset="0" font-family="Sans Serif" font-weight="normal" text-anchor="start" style="mix-blend-mode: normal"><tspan x="0" dy="0">N</tspan></text><text transform="translate(435.02734,41.15786) rotate(1.42372) scale(0.28717,0.38452) skewX(-18.80559)" font-size="40" xml:space="preserve" fill="#ffbb00" fill-rule="nonzero" stroke="#ffbb00" stroke-width="3" stroke-linecap="butt" stroke-linejoin="miter" stroke-miterlimit="10" stroke-dasharray="" stroke-dashoffset="0" font-family="Sans Serif" font-weight="normal" text-anchor="start" style="mix-blend-mode: normal"><tspan x="0" dy="0">N</tspan></text></g></g></g></svg>