<svg version="1.1" xmlns="http://www.w3.org/2000/svg" xmlns:xlink="http://www.w3.org/1999/xlink" width="206.74324" height="221.19304" viewBox="0,0,206.74324,221.19304"><defs><linearGradient x1="240.18416" y1="197.24039" x2="240.18416" y2="226.79027" gradientUnits="userSpaceOnUse" id="color-1"><stop offset="0" stop-color="#e0cd00"/><stop offset="1" stop-color="#ffe000"/></linearGradient></defs><g transform="translate(-136.90626,-67.6695)"><g data-paper-data="{&quot;isPaintingLayer&quot;:true}" fill-rule="nonzero" stroke-linecap="butt" stroke-linejoin="miter" stroke-miterlimit="10" stroke-dasharray="" stroke-dashoffset="0" style="mix-blend-mode: normal"><path d="M228.26591,208.37762c2.18784,0.0693 8.37079,0.26515 8.37079,0.26515c0,0 1.93485,-6.29338 2.57918,-8.38917c0.38616,-1.25603 1.50637,-1.20353 1.91569,0.07363c0.66959,2.08922 2.64736,8.26026 2.64736,8.26026c0,0 5.99955,-0.15008 8.17316,-0.2244c1.33004,-0.04547 1.98074,1.22672 0.90657,2.02864c-1.77502,1.32513 -6.92372,4.9952 -6.92372,4.9952c0,0 1.8477,5.59115 2.53852,7.68152c0.47647,1.44182 -0.60722,2.32403 -1.80115,1.4488c-1.75564,-1.28699 -6.50584,-4.76918 -6.50584,-4.76918c0,0 -4.54464,3.49539 -6.23364,4.79443c-1.15648,0.88948 -2.35371,0.35183 -1.95963,-0.96175c0.62665,-2.0888 2.43467,-8.11543 2.43467,-8.11543c0,0 -5.05212,-3.77898 -6.82816,-5.10746c-1.13628,-0.84993 -0.72466,-2.02496 0.68621,-1.98027z" fill="url(#color-1)" stroke="#ffffff" stroke-width="1"/><path d="M136.90626,288.86254v-221.19303h206.74324v221.19304z" fill="none" stroke="none" stroke-width="0"/></g></g></svg>