<svg version="1.1" xmlns="http://www.w3.org/2000/svg" xmlns:xlink="http://www.w3.org/1999/xlink" width="390.45551" height="178.49657" viewBox="0,0,390.45551,178.49657"><defs><linearGradient x1="45.36445" y1="189.5344" x2="435.22775" y2="189.5344" gradientUnits="userSpaceOnUse" id="color-1"><stop offset="0" stop-color="#c78b46"/><stop offset="1" stop-color="#d29652"/></linearGradient><linearGradient x1="44.77225" y1="149.18011" x2="433.66485" y2="149.18011" gradientUnits="userSpaceOnUse" id="color-2"><stop offset="0" stop-color="#c78b46"/><stop offset="1" stop-color="#d29652"/></linearGradient><linearGradient x1="69.06785" y1="180.341" x2="97.08848" y2="180.341" gradientUnits="userSpaceOnUse" id="color-3"><stop offset="0" stop-color="#f0b067"/><stop offset="1" stop-color="#d29652"/></linearGradient><linearGradient x1="181.88483" y1="180.59677" x2="209.90546" y2="180.59677" gradientUnits="userSpaceOnUse" id="color-4"><stop offset="0" stop-color="#f0b067"/><stop offset="1" stop-color="#d29652"/></linearGradient><linearGradient x1="289.14067" y1="180.11365" x2="317.16133" y2="180.11365" gradientUnits="userSpaceOnUse" id="color-5"><stop offset="0" stop-color="#f0b067"/><stop offset="1" stop-color="#d29652"/></linearGradient><linearGradient x1="378.77264" y1="179.4032" x2="406.79327" y2="179.4032" gradientUnits="userSpaceOnUse" id="color-6"><stop offset="0" stop-color="#f0b067"/><stop offset="1" stop-color="#d29652"/></linearGradient></defs><g transform="translate(-44.77225,-90.75171)"><g data-paper-data="{&quot;isPaintingLayer&quot;:true}" fill-rule="nonzero" stroke="none" stroke-width="0" stroke-linecap="butt" stroke-linejoin="miter" stroke-miterlimit="10" stroke-dasharray="" stroke-dashoffset="0" style="mix-blend-mode: normal"><path d="M45.36445,200.16291v-21.25706h389.8633v21.25706z" fill="url(#color-1)"/><path d="M44.77225,159.80863v-21.25703h388.89264v21.25703z" fill="url(#color-2)"/><path d="M69.06785,268.9925v-170.5394c0,0 4.88977,-6.7636 13.40118,-6.7636c9.12054,0 14.61946,6.7636 14.61946,6.7636v170.5394z" fill="url(#color-3)"/><path d="M181.88483,269.24829v-170.5394c0,0 4.88977,-6.7636 13.40116,-6.7636c9.12054,0 14.61946,6.7636 14.61946,6.7636v170.5394z" fill="url(#color-4)"/><path d="M289.14067,268.76517v-170.5394c0,0 4.88977,-6.7636 13.40118,-6.7636c9.12054,0 14.61946,6.7636 14.61946,6.7636v170.5394z" fill="url(#color-5)"/><path d="M378.77264,268.05472v-170.5394c0,0 4.88977,-6.7636 13.40118,-6.7636c9.12054,0 14.61946,6.7636 14.61946,6.7636v170.5394z" fill="url(#color-6)"/><path d="M77.86741,148.48062c0,-2.94262 2.38546,-5.32807 5.32807,-5.32807c2.94262,0 5.32807,2.38546 5.32807,5.32807c0,2.94262 -2.38546,5.32807 -5.32807,5.32807c-2.94262,0 -5.32807,-2.38546 -5.32807,-5.32807z" fill="#505050"/><path d="M78.78472,189.16356c0,-2.94262 2.38545,-5.32806 5.32807,-5.32806c2.94262,0 5.32807,2.38545 5.32807,5.32806c0,2.94262 -2.38546,5.32807 -5.32807,5.32807c-2.94262,0 -5.32807,-2.38546 -5.32807,-5.32807z" fill="#505050"/><path d="M191.06413,147.8385c0,-2.94262 2.38545,-5.32807 5.32806,-5.32807c2.94262,0 5.32807,2.38546 5.32807,5.32807c0,2.94262 -2.38546,5.32807 -5.32807,5.32807c-2.94262,0 -5.32806,-2.38546 -5.32806,-5.32807z" fill="#505050"/><path d="M191.98144,188.52144c0,-2.94262 2.38545,-5.32807 5.32806,-5.32807c2.94262,0 5.32807,2.38546 5.32807,5.32807c0,2.94262 -2.38546,5.32807 -5.32807,5.32807c-2.94262,0 -5.32806,-2.38546 -5.32806,-5.32807z" fill="#505050"/><path d="M298.02311,148.236c0,-2.94262 2.38545,-5.32807 5.32806,-5.32807c2.94262,0 5.32807,2.38546 5.32807,5.32807c0,2.94262 -2.38546,5.32807 -5.32807,5.32807c-2.94262,0 -5.32806,-2.38546 -5.32806,-5.32807z" fill="#505050"/><path d="M298.94042,188.91894c0,-2.94262 2.38545,-5.32807 5.32806,-5.32807c2.94262,0 5.32807,2.38546 5.32807,5.32807c0,2.94262 -2.38546,5.32807 -5.32807,5.32807c-2.94262,0 -5.32806,-2.38546 -5.32806,-5.32807z" fill="#505050"/><path d="M387.56838,148.6335c0,-2.94262 2.38545,-5.32806 5.32806,-5.32806c2.94262,0 5.32807,2.38545 5.32807,5.32806c0,2.94262 -2.38546,5.32807 -5.32807,5.32807c-2.94262,0 -5.32806,-2.38546 -5.32806,-5.32807z" fill="#505050"/><path d="M388.48569,189.31644c0,-2.94262 2.38545,-5.32807 5.32806,-5.32807c2.94262,0 5.32807,2.38546 5.32807,5.32807c0,2.94262 -2.38546,5.32807 -5.32807,5.32807c-2.94262,0 -5.32806,-2.38546 -5.32806,-5.32807z" fill="#505050"/></g></g></svg>