<svg version="1.1" xmlns="http://www.w3.org/2000/svg" xmlns:xlink="http://www.w3.org/1999/xlink" width="484.97563" height="360.53869" viewBox="0,0,484.97563,360.53869"><defs><radialGradient cx="230.00569" cy="183.85015" r="128.45518" gradientUnits="userSpaceOnUse" id="color-1"><stop offset="0" stop-color="#ffffff"/><stop offset="1" stop-color="#f0f0f0"/></radialGradient><linearGradient x1="238.95239" y1="226.5218" x2="238.95239" y2="220.54922" gradientUnits="userSpaceOnUse" id="color-2"><stop offset="0" stop-color="#b4b4b4"/><stop offset="1" stop-color="#b4b4b4" stop-opacity="0"/></linearGradient><linearGradient x1="115.74859" y1="178.22072" x2="129.02865" y2="178.22072" gradientUnits="userSpaceOnUse" id="color-3"><stop offset="0" stop-color="#b4b4b4"/><stop offset="1" stop-color="#b4b4b4" stop-opacity="0"/></linearGradient><linearGradient x1="275.25042" y1="180.73377" x2="320.93072" y2="180.73377" gradientUnits="userSpaceOnUse" id="color-4"><stop offset="0" stop-color="#3f3f3f"/><stop offset="1" stop-color="#3f3f3f" stop-opacity="0"/></linearGradient><linearGradient x1="141.42287" y1="147.70917" x2="182.65756" y2="147.70917" gradientUnits="userSpaceOnUse" id="color-5"><stop offset="0" stop-color="#000000"/><stop offset="1" stop-color="#2d4b66"/></linearGradient><linearGradient x1="251.18848" y1="180.08711" x2="289.37414" y2="180.08711" gradientUnits="userSpaceOnUse" id="color-6"><stop offset="0" stop-color="#2d4b66"/><stop offset="1" stop-color="#000000"/></linearGradient><linearGradient x1="178.7374" y1="210.86791" x2="178.7374" y2="223.64488" gradientUnits="userSpaceOnUse" id="color-7"><stop offset="0" stop-color="#2d4b66"/><stop offset="1" stop-color="#000000"/></linearGradient><linearGradient x1="246.32452" y1="210.72274" x2="246.32452" y2="223.93529" gradientUnits="userSpaceOnUse" id="color-8"><stop offset="0" stop-color="#2d4b66"/><stop offset="1" stop-color="#000000"/></linearGradient><linearGradient x1="178.7374" y1="136.35511" x2="178.7374" y2="149.13207" gradientUnits="userSpaceOnUse" id="color-9"><stop offset="0" stop-color="#000000"/><stop offset="1" stop-color="#2d4b66"/></linearGradient><linearGradient x1="246.32452" y1="136.06476" x2="246.32452" y2="149.27725" gradientUnits="userSpaceOnUse" id="color-10"><stop offset="0" stop-color="#000000"/><stop offset="1" stop-color="#2d4b66"/></linearGradient><linearGradient x1="-654.93659" y1="127.66842" x2="574.18953" y2="127.66842" gradientUnits="userSpaceOnUse" id="color-11"><stop offset="0" stop-color="#70bcff"/><stop offset="1" stop-color="#70bcff" stop-opacity="0"/></linearGradient></defs><g transform="translate(2.63138,-1.09611)"><g data-paper-data="{&quot;isPaintingLayer&quot;:true}" fill-rule="nonzero" stroke-linejoin="miter" stroke-miterlimit="10" stroke-dasharray="" stroke-dashoffset="0" style="mix-blend-mode: normal"><path d="M330.60884,189.52466l-35.86258,-55.89918l4.50097,-0.87115l7.69521,-0.29039l11.17984,0.43559l14.80961,1.45194l2.17792,0.72598l4.93653,0.58075l12.77697,1.16154l5.51729,1.45194l2.17793,1.30673l1.74229,3.04906l1.45191,9.29233l0.43563,21.77884l-0.14522,21.05297l-0.72598,19.74615l-1.30673,3.92022l-2.46826,2.75867l-4.0654,1.30673l-10.59904,1.7423l-9.87313,0.5808l-14.22886,2.61344l-21.77889,0.2904l-5.66251,-1.16155c0,0 2.39342,-2.37479 4.64019,-4.60407c5.96202,-5.91563 32.67434,-32.42 32.67434,-32.42z" fill="#282828" stroke="#000000" stroke-width="0.5" stroke-linecap="round"/><path d="M224.76345,132.75433c9.76683,0.05112 19.38318,0.20501 29.03852,0.2904c6.97736,0.20443 14.03839,0.54357 20.90769,0.58075c8.41305,0.04764 17.05375,-0.56216 25.26354,-0.29035c4.67518,0.15389 9.37651,1.18124 13.93846,1.74229c6.08414,0.21314 12.13581,-0.29039 18.00391,0.58076c4.9162,0.7312 9.94045,2.26326 14.51926,3.48463c2.71858,0.72887 5.79665,0.71609 8.13078,2.32309c1.35378,0.9304 2.05535,1.58376 2.32309,4.35574c1.06977,11.07475 1.04769,21.99494 1.1615,33.39431c0.07378,7.1557 0.3299,14.14063 -0.29035,21.4885c-0.48728,5.76591 0.95015,12.80253 -2.90385,17.13276c-3.96436,4.45507 -11.18566,3.69483 -17.13276,5.22694c-2.29289,0.59352 -4.35289,1.2498 -6.96923,1.4519c-5.20718,0.41699 -10.37081,0.29737 -15.68081,0.5808c-7.46347,0.40363 -14.86537,1.67374 -22.35964,2.0327c-10.336,0.49652 -20.86243,0.45358 -31.07122,0.58075c-19.82113,0.24858 -39.70669,0.45765 -59.52893,0.29039c-8.56466,-0.07203 -17.05317,-0.39723 -25.55393,-0.87114c-6.45118,-0.36127 -12.80074,-1.19235 -19.1654,-1.45195c-3.60077,-0.32061 -7.16668,-0.31189 -10.74428,-0.29039c-4.70712,0.03079 -9.31614,0.40715 -13.93846,0c-4.01659,-0.35135 -8.60005,-0.047 -11.61543,-2.61344c-2.73718,-2.07975 -3.10188,-6.12422 -3.48464,-9.58273c-1.27883,-11.54571 -1.8712,-23.22905 -1.74229,-34.8462c0.14116,-12.83151 0.11734,-25.64624 2.90385,-38.04045c0.69635,-3.10309 4.19087,-3.90511 6.96928,-4.3558c6.97038,-1.33983 14.24338,-0.67543 21.4885,-0.87114c6.28508,-0.17015 12.56667,-0.34036 18.87499,-0.5808c8.52167,-0.32637 17.11127,-1.59479 25.55393,-1.74229c11.0201,-0.18875 22.08085,-0.05867 33.10391,0z" fill="url(#color-1)" stroke="#000000" stroke-width="0.5" stroke-linecap="round"/><path d="M355.58175,217.26472l-5.81052,3.95973c0,0 -6.85447,0.75514 -9.66422,1.29646c-3.36654,0.64859 -3.53889,1.42676 -9.55469,1.94535c-6.01578,0.51859 -7.9245,-0.1214 -15.6637,0.56504c-7.73921,0.68644 -18.78415,2.51564 -19.11555,2.51975c-17.21727,0.21349 -28.95654,0.22761 -47.60831,0.34844c-8.53592,0.0553 -28.98194,0.46066 -49.43526,-0.03558c-12.25979,-0.29746 -23.53188,-1.41399 -35.00993,-1.74067c-20.90601,-0.595 -37.36769,-1.13344 -37.91885,-1.23279c-4.43085,-0.7986 -6.95542,-4.34125 -6.95542,-4.34125z" fill="url(#color-2)" stroke="#000000" stroke-width="0" stroke-linecap="butt"/><path d="M118.22403,217.73692c0,0 -0.86896,-8.47794 -1.49976,-17.9664c-0.43055,-6.47624 -0.68403,-13.48935 -0.73468,-18.33873c-0.01151,-1.10166 -0.00773,-2.30285 0.00857,-3.57522c0.05971,-4.66296 0.03999,-10.7769 0.29978,-15.9556c0.42514,-8.47433 1.18346,-15.27498 1.18346,-15.27498c0,0 0.78204,-7.09166 2.31215,-8.45282c2.33769,-2.07958 10.34905,-2.81048 10.34905,-2.81048l0.8664,89.92437c0,0 -6.43306,-0.14238 -8.76021,-1.51667c-1.79449,-1.05973 -4.02476,-6.03345 -4.02476,-6.03345z" fill="url(#color-3)" stroke="none" stroke-width="0" stroke-linecap="butt"/><path d="M252.35002,178.6352l-0.87115,-15.68081l-2.61348,-13.35772l19.7462,-5.80773l14.80967,-4.93653l4.3558,3.48463l4.35574,12.77692l1.16154,22.6501l-1.16154,22.65003l-2.61345,11.90577l-4.06538,7.25963l-3.19424,1.16155l-18.87506,-5.51734l-13.35772,-5.22695l1.16154,-15.10001z" fill="#282828" stroke="#000000" stroke-width="0.5" stroke-linecap="round"/><path d="M284.75615,218.8887l0.26405,-77.89416l73.40535,2.11239l1.58429,73.93344z" fill="#282828" stroke="#000000" stroke-width="0" stroke-linecap="butt"/><path d="M139.97097,160.05056l1.45191,-11.90582l1.45194,-2.90385l4.64614,0.58076l19.31062,3.19424l12.92213,1.74235l4.3558,2.32304l-0.29039,54.30206l-19.4558,3.77499l-18.00385,3.48464l-4.3558,-0.5808l-1.74229,-7.84038l-0.8712,-22.65004z" fill="#282828" stroke="#000000" stroke-width="0.5" stroke-linecap="round"/><path d="M295.38153,158.64253v-5.21147h51.10607l0.3833,5.21147c0,0 -1.11048,0 -2.44099,0c-5.96413,0 -49.04837,0 -49.04837,0z" fill="#252525" stroke="none" stroke-width="0" stroke-linecap="butt"/><path d="M295.21117,158.49571v-1.04229h51.48936v1.04229z" fill="#313131" stroke="none" stroke-width="0" stroke-linecap="butt"/><path d="M294.80098,206.31015v-5.21147h52.1282l-0.63882,5.21147z" fill="#252525" stroke="none" stroke-width="0" stroke-linecap="butt"/><path d="M278.68304,218.8887l3.69667,-77.63012l38.55102,1.0562l0.79214,75.78178z" fill="url(#color-4)" stroke="none" stroke-width="0" stroke-linecap="butt"/><path d="M122.98344,197.15798v-26.71542l0.14518,-11.17984c0,0 0.27219,-7.0079 0.72598,-11.47026c0.45378,-4.46236 0.70689,-5.6625 0.70689,-5.6625c0,0 0.90236,-2.18972 1.76137,-3.25607c0.85902,-1.06635 2.75868,-1.97082 2.75868,-1.97082h2.46827l1.30673,0.72592l-0.33083,0.83072l-2.47063,1.20198c0,0 -0.86259,0.90972 -1.43291,1.78515c-1.1491,1.76386 -2.1541,19.1226 -2.1541,19.1226l-0.29035,18.72982l-0.14522,20.47218l1.59712,14.66443c0,0 0.199,2.56398 1.03541,3.94162c0.83642,1.37764 3.90113,4.18921 3.90113,4.18921l-2.90385,0.58075c0,0 -2.01378,-0.87032 -2.90385,-1.88751c-0.89005,-1.01721 -2.17787,-3.92017 -2.17787,-3.92017z" fill="#282828" stroke="#000000" stroke-width="0.5" stroke-linecap="round"/><path d="M189.62684,211.44872v-63.88474" fill="none" stroke="#000000" stroke-width="0.5" stroke-linecap="round"/><path d="M141.42287,181.24866l0.5808,-21.63367l1.30673,-10.74428l0.87115,-1.01636l2.90385,-0.14517l19.7462,3.04907l8.42119,1.59712l5.51734,0.72592l1.4519,1.16154l0.43558,24.97313l-0.14517,24.82796l-0.43558,2.0327l-5.51734,1.1615l-29.32887,5.08176l-2.90385,-0.14517l-0.8712,-1.01637l-1.01631,-8.27595z" fill="url(#color-5)" stroke="#000000" stroke-width="0.5" stroke-linecap="round"/><path d="M253.51157,173.84384l-0.87114,-11.17984l-1.45195,-11.47019l31.50678,-9.87313l2.17787,4.35579l2.75868,12.05099l1.74234,18.58465l-1.30677,20.03655l-2.46827,14.80966l-3.48458,7.69521l-21.19815,-6.96923l-9.4375,-3.19424l1.01632,-8.27596l1.01637,-7.11445z" fill="url(#color-6)" stroke="#000000" stroke-width="0.5" stroke-linecap="round"/><g stroke-width="0.5" stroke-linecap="round"><path d="M185.56145,212.75544l4.35573,-1.01632l13.21255,-0.87119l6.96923,0.29039l0.14522,2.0327l-5.66251,10.45387l-55.31838,-2.17788l-2.03269,-1.59712l0.58075,-0.72598z" fill="url(#color-7)" stroke="#000000"/><path d="M215.61629,214.49774l0.87114,-3.33942l3.62982,-0.43558l24.24716,0.87115l33.1039,9.7279l2.61349,1.88752l-1.30677,0.72597l-66.20783,-1.01637z" fill="url(#color-8)" stroke="#000000"/><path d="M153.32869,225.242l-16.84236,-1.30673l-5.80768,-1.30673" fill="none" stroke="#000000"/><path d="M147.52095,219.2891l-16.11633,2.0327" fill="none" stroke="#000000"/><path d="M206.75954,228.14585l2.61349,-5.22694l2.75861,-6.24326l1.45195,-5.08176l2.46827,-3.04902l28.89334,0.14517l5.66251,1.45194" fill="none" stroke="#000000"/><path d="M284.72796,227.2747l-2.75867,-6.82406" fill="none" stroke="#000000"/><path d="M271.54431,219.95467c0.53481,0.15183 1.37865,-0.34215 1.72456,0.11713c0.39601,0.53222 0.09533,0.97687 -0.14258,1.82295c-0.95132,3.38916 -1.67332,6.9632 -3.41166,10.03498c-0.6286,1.11015 -2.03946,1.80334 -3.26897,1.7323c-0.6993,-0.04029 -0.66888,-1.27313 -0.57468,-1.94888c0.12051,-1.96907 0.58567,-3.91356 1.2019,-5.79311c0.60182,-1.83524 1.60314,-3.52435 2.28258,-5.33293c0.17702,-0.44909 -0.12737,-1.24435 0.3571,-1.37732c0.6042,-0.18299 1.19957,0.56597 1.83175,0.74488z" fill="#282828" stroke="#000000"/><path d="M355.87232,216.82083l-18.14909,0.43558l-29.03851,1.16154l-22.94038,0.2904" fill="none" stroke="#000000"/><path d="M346.14442,217.11123l0.43558,-10.74428l0.29039,-5.22694l10.88945,-0.29035" fill="none" stroke="#000000"/><path d="M124.63861,216.96606l2.9039,-0.0581c0,0 0.84879,1.94705 1.71143,3.04902c0.86264,1.10197 2.78954,2.70058 2.78954,2.70058l-2.41023,0.40659c0,0 -2.20033,-1.22585 -3.1942,-2.43928c-0.99386,-1.21343 -1.80043,-3.65881 -1.80043,-3.65881z" fill="#cc7700" stroke="none"/><path d="M125.13649,196.87079c0.49973,0.28109 0.89598,1.6558 0.89598,1.6558l0.72598,10.30865l0.87115,8.13083l-2.90385,0.14517l-0.2904,-5.08175l-0.72592,-7.25963l-0.43562,-6.67883c0,0 0.02973,-0.89864 0.43562,-1.16454c0.4059,-0.2659 0.92735,-0.33678 1.42707,-0.05569z" fill="#ff0000" stroke="none"/></g><g stroke-width="0.5" stroke-linecap="round"><path d="M147.81135,140.85606l-0.58075,-0.72593l2.03269,-1.59713l55.31838,-2.17792l5.66251,10.45388l-0.14522,2.03269l-6.96923,0.2904l-13.21255,-0.87115l-4.35573,-1.01637z" fill="url(#color-9)" stroke="#000000"/><path d="M212.56722,137.08108l66.20783,-1.01631l1.30678,0.72592l-2.61349,1.88751l-33.10391,9.7279l-24.24716,0.87115l-3.62982,-0.43559l-0.87114,-3.33942z" fill="url(#color-10)" stroke="#000000"/><path d="M130.67865,137.37147l5.80768,-1.30673l16.84236,-1.30677" fill="none" stroke="#000000"/><path d="M147.52096,140.7109l-16.11633,-2.0327" fill="none" stroke="#000000"/><path d="M250.60772,149.85804l-5.66251,1.4519l-28.89334,0.14522l-2.46827,-3.04907l-1.45194,-5.08175l-2.75862,-6.24327l-2.0327,-4.61714" fill="none" stroke="#000000"/><path d="M281.96929,139.54935l2.75867,-6.82406" fill="none" stroke="#000000"/><path d="M269.71255,140.79026c-0.48448,-0.13303 -0.18007,-0.92829 -0.3571,-1.37737c-0.67946,-1.80851 -1.68076,-3.49763 -2.28258,-5.33293c-0.61623,-1.87955 -1.08139,-3.82405 -1.2019,-5.79311c-0.09421,-0.67576 -0.12464,-1.9086 0.57468,-1.94888c1.22951,-0.07098 2.64038,0.6222 3.26897,1.73237c1.73834,3.07172 2.46034,6.64577 3.41166,10.03499c0.23791,0.84607 0.53861,1.29066 0.14258,1.82294c-0.34591,0.45924 -1.18975,-0.03475 -1.72456,0.11707c-0.63218,0.17892 -1.22755,0.92785 -1.83175,0.74493z" fill="#282828" stroke="#000000"/><path d="M285.74434,141.29164l22.94038,0.29039l29.03851,1.16154l18.14909,0.43559" fill="none" stroke="#000000"/><path d="M357.75984,159.15036l-10.88945,-0.2904l-0.29039,-5.22694l-0.43558,-10.74428" fill="none" stroke="#000000"/><path d="M126.43904,139.37513c1.00839,-1.23118 3.1942,-2.43922 3.1942,-2.43922l2.41024,0.40653l-2.90688,2.58323l-1.59409,3.16642l-2.9039,-0.0581c0,0 0.79205,-2.42768 1.80043,-3.65885z" fill="#cc7700" stroke="none"/><path d="M123.65075,162.95622c-0.36738,-0.29389 -0.37695,-1.04724 -0.37695,-1.04724l0.43563,-6.67883l0.72593,-7.25963l0.29039,-5.08176l2.90384,0.14522l-0.87115,8.13078l-0.72597,10.30865c0,0 -0.31144,1.1436 -1.01333,1.53843c-0.70191,0.39484 -1.00101,0.23827 -1.36839,-0.05564z" fill="#ff0000" stroke="none"/></g><path d="M211.98648,224.51603h8.13078v2.32309h-8.13077z" fill="#282828" stroke="#000000" stroke-width="0.5" stroke-linecap="butt"/><path d="M211.98648,133.91588h8.13078v2.3231h-8.13077z" fill="#282828" stroke="#000000" stroke-width="0.5" stroke-linecap="round"/><path d="M346.7857,201.23428v1.04229h-51.48936v-1.04229z" data-paper-data="{&quot;index&quot;:null}" fill="#313131" stroke="none" stroke-width="0" stroke-linecap="butt"/><path d="M150.51407,150.16462c0,0 20.43112,3.93398 25.73952,7.20256c4.79609,2.95312 4.73023,11.55874 4.73023,11.55874c0,0 -5.43539,-6.6348 -9.91248,-9.3915c-3.73794,-2.30158 -12.3666,-6.03463 -17.20399,-8.04062c-2.25017,-0.93311 -3.35328,-1.32917 -3.35328,-1.32917z" data-paper-data="{&quot;index&quot;:null}" fill="url(#color-11)" stroke="none" stroke-width="0" stroke-linecap="butt"/><path d="M-2.63138,361.63479v-360.53868h484.97563v360.53869z" fill="none" stroke="none" stroke-width="0" stroke-linecap="butt"/></g></g></svg>