<svg version="1.1" xmlns="http://www.w3.org/2000/svg" xmlns:xlink="http://www.w3.org/1999/xlink" width="456.94764" height="340.46924" viewBox="0,0,456.94764,340.46924"><defs><linearGradient x1="6124.29513" y1="-1856.71362" x2="6124.29513" y2="1339.08909" gradientUnits="userSpaceOnUse" id="color-1"><stop offset="0" stop-color="#000000"/><stop offset="1" stop-color="#000000" stop-opacity="0"/></linearGradient><linearGradient x1="-5745.80334" y1="-2148.01666" x2="-5745.80334" y2="1047.78605" gradientUnits="userSpaceOnUse" id="color-2"><stop offset="0" stop-color="#000000"/><stop offset="1" stop-color="#000000" stop-opacity="0"/></linearGradient><linearGradient x1="5641.48945" y1="-1542.03821" x2="5641.48945" y2="1192.77154" gradientUnits="userSpaceOnUse" id="color-3"><stop offset="0" stop-color="#000000"/><stop offset="1" stop-color="#000000" stop-opacity="0"/></linearGradient></defs><g transform="translate(-11.1875,-10.11676)"><g data-paper-data="{&quot;isPaintingLayer&quot;:true}" fill-rule="nonzero" stroke-linecap="butt" stroke-linejoin="miter" stroke-miterlimit="10" stroke-dasharray="" stroke-dashoffset="0" style="mix-blend-mode: normal"><path d="M11.1875,335.64132c0,-8.11341 0,-17.38746 0,-21.90696c0,-5.20236 5.60589,-12.31455 13.00726,-12.31455c37.85701,0 349.54965,0 425.19424,0c10.53576,0 16.49246,7.18927 16.49246,15.30186c0,7.20901 0,15.14712 0,19.41754c0,5.85462 -5.20935,14.44679 -14.50092,14.44679c-71.86172,0 -387.90508,0 -426.68789,0c-7.66276,0 -13.50514,-6.90211 -13.50514,-14.94468z" fill="url(#color-1)" stroke="none" stroke-width="0"/><path d="M283.86415,59.55573c0,0 -79.59458,-0.27278 -79.92761,-0.27278c-9.29157,0 -14.50092,-8.59217 -14.50092,-14.44679c0,-4.27042 0,-12.20853 0,-19.41754c0,-8.11259 5.9567,-15.30186 16.49246,-15.30186c19.7876,0 77.6633,0 77.6633,0z" data-paper-data="{&quot;index&quot;:null}" fill="url(#color-2)" stroke="none" stroke-width="0"/><text transform="translate(211.09158,27.04207) scale(0.24234,0.24234)" font-size="40" xml:space="preserve" fill="#f1f1f1" fill-rule="nonzero" stroke="#f1f1f1" stroke-width="2" stroke-linecap="butt" stroke-linejoin="miter" stroke-miterlimit="10" stroke-dasharray="" stroke-dashoffset="0" font-family="Sans Serif" font-weight="normal" text-anchor="start" style="mix-blend-mode: normal"><tspan x="0" dy="0">区域复杂度</tspan></text><path d="M195.90885,315.32372c0,-4.45193 4.79724,-10.53818 11.13097,-10.53818c32.39616,0 175.84284,0 240.57574,0c9.01598,0 14.11343,6.15222 14.11343,13.09457c0,6.16911 0,12.96216 0,16.61657c0,5.01009 -4.4579,12.36285 -12.40916,12.36285c-61.49571,0 -208.66553,0 -241.85394,0c-6.55741,0 -11.55703,-5.90648 -11.55703,-12.78892c0,0 -0.00001,-14.87932 -0.00001,-18.74689z" fill="url(#color-3)" stroke="none" stroke-width="0"/><text transform="translate(402.69235,293.0516) scale(0.22941,0.22941)" font-size="40" xml:space="preserve" fill="#ffffff" fill-rule="nonzero" stroke="#ffffff" stroke-width="3" stroke-linecap="butt" stroke-linejoin="miter" stroke-miterlimit="10" stroke-dasharray="" stroke-dashoffset="0" font-family="Sans Serif" font-weight="normal" text-anchor="start" style="mix-blend-mode: normal"><tspan x="0" dy="0">:  SHO     MORE</tspan></text><text transform="translate(361.72472,294.30463) scale(0.25826,0.25826)" font-size="40" xml:space="preserve" fill="#ffffff" fill-rule="nonzero" stroke="#ffffff" stroke-width="5" stroke-linecap="butt" stroke-linejoin="miter" stroke-miterlimit="10" stroke-dasharray="" stroke-dashoffset="0" font-family="Sans Serif" font-weight="normal" text-anchor="start" style="mix-blend-mode: normal"><tspan x="0" dy="0">SCROLL</tspan></text><path d="M430.42079,293.40498l-1.79685,-7.28191l1.76262,0.03993l0.99825,4.04758l1.16445,-4.04982l1.49114,0.00482l1.15232,3.99268l1.13311,-4.07225l1.66987,0.01945l-1.91981,7.29914l-1.55123,0.00197l-1.15955,-4.02521l-1.23044,3.9737z" fill="#ffffff" stroke="none" stroke-width="0"/></g></g></svg>