<svg version="1.1" xmlns="http://www.w3.org/2000/svg" xmlns:xlink="http://www.w3.org/1999/xlink" width="262.04166" height="246.76812" viewBox="0,0,262.04166,246.76812"><defs><radialGradient cx="235.71607" cy="206.40498" r="67.77879" gradientUnits="userSpaceOnUse" id="color-1"><stop offset="0" stop-color="#e2ebeb"/><stop offset="1" stop-color="#f7ffff"/></radialGradient><radialGradient cx="239.55038" cy="138.48281" r="55.12983" gradientUnits="userSpaceOnUse" id="color-2"><stop offset="0" stop-color="#e2ebeb"/><stop offset="1" stop-color="#f7ffff"/></radialGradient><radialGradient cx="238.55869" cy="95.89923" r="38.02873" gradientUnits="userSpaceOnUse" id="color-3"><stop offset="0" stop-color="#e2ebeb"/><stop offset="1" stop-color="#f7ffff"/></radialGradient></defs><g transform="translate(-108.97917,-56.72137)"><g data-paper-data="{&quot;isPaintingLayer&quot;:true}" fill-rule="nonzero" stroke-linecap="butt" stroke-linejoin="miter" stroke-miterlimit="10" stroke-dasharray="" stroke-dashoffset="0" style="mix-blend-mode: normal"><path d="M244.7143,167.39564c19.66821,2.01636 40.22636,9.49338 50.26684,24.23009c8.90093,13.06414 8.54023,32.43225 6.75273,49.86829c-1.439,14.03626 -4.02644,29.79641 -11.90924,39.81434c-12.95503,16.46395 -35.81729,22.81829 -58.88519,20.4535c-11.9269,-1.22267 -25.80063,-1.63622 -33.36207,-8.73092c-5.72535,-5.37197 -12.00674,-12.44685 -16.65151,-19.47115c-8.30456,-12.5591 -11.93733,-29.72185 -10.28205,-45.86839c2.3655,-23.07443 11.26782,-44.91547 30.22864,-55.19478c11.52856,-6.25002 29.81214,-6.53914 43.84182,-5.10085z" fill="url(#color-1)" stroke="#ffffff" stroke-width="2.5"/><path d="M243.47215,100.22853c15.99768,1.64007 32.71926,7.72171 40.88599,19.70824c7.23982,10.62609 6.94644,26.37971 5.49254,40.5618c-1.17045,11.41681 -3.27502,24.23576 -9.68672,32.38413c-10.53734,13.39142 -29.13301,18.55991 -47.89594,16.63644c-9.70108,-0.9945 -20.98567,-1.33086 -27.13602,-7.10154c-4.65689,-4.36942 -9.76601,-10.124 -13.54397,-15.83742c-6.75476,-10.2153 -9.70957,-24.17514 -8.3632,-37.30837c1.92406,-18.76824 9.16502,-36.53329 24.58735,-44.89427c9.37708,-5.08365 24.24856,-5.3188 35.66,-4.14892z" fill="url(#color-2)" stroke="#ffffff" stroke-width="2.5"/><path d="M243.34858,58.16224c11.07024,1.1349 22.6414,5.34336 28.29269,13.63789c5.00987,7.35315 4.80687,18.2545 3.80077,28.06837c-0.80994,7.9003 -2.26627,16.7709 -6.7031,22.4095c-7.29174,9.26672 -20.15974,12.84326 -33.1435,11.51224c-6.71306,-0.68816 -14.52187,-0.92093 -18.77784,-4.91419c-3.22251,-3.02361 -6.75799,-7.00571 -9.37229,-10.95934c-4.67422,-7.06887 -6.71893,-16.72894 -5.78727,-25.81702c1.33142,-12.98744 6.3421,-25.28066 17.01421,-31.06636c6.48885,-3.51783 16.77977,-3.68055 24.67636,-2.87101z" fill="url(#color-3)" stroke="#ffffff" stroke-width="2.5"/><path d="M215.42638,84.96895c0,-4.48702 3.63746,-8.12446 8.12446,-8.12446c4.48702,0 8.12446,3.63746 8.12446,8.12446c0,4.48702 -3.63746,8.12446 -8.12446,8.12446c-4.48702,0 -8.12446,-3.63746 -8.12446,-8.12446z" fill="#5f6363" stroke="none" stroke-width="0"/><path d="M248.15312,84.28236c0,-4.73982 3.84237,-8.58219 8.58219,-8.58219c4.73982,0 8.58219,3.84237 8.58219,8.58219c0,4.73982 -3.84237,8.58219 -8.58219,8.58219c-4.73982,0 -8.58219,-3.84237 -8.58219,-8.58219z" fill="#5f6363" stroke="none" stroke-width="0"/><path d="M215.42638,111.63093c0,-1.64313 1.33201,-2.97517 2.97517,-2.97517c1.64313,0 2.97517,1.33201 2.97517,2.97517c0,1.64313 -1.33201,2.97517 -2.97517,2.97517c-1.64313,0 -2.97517,-1.33201 -2.97517,-2.97517z" fill="#5f6363" stroke="none" stroke-width="0"/><path d="M227.78474,119.75539c0,-1.95911 1.58818,-3.54731 3.54731,-3.54731c1.95911,0 3.54731,1.58818 3.54731,3.54731c0,1.95911 -1.58818,3.54731 -3.54731,3.54731c-1.95911,0 -3.54731,-1.58818 -3.54731,-3.54731z" fill="#5f6363" stroke="none" stroke-width="0"/><path d="M247.69541,119.52654c0,-1.70634 1.38326,-3.08958 3.08958,-3.08958c1.70634,0 3.08958,1.38326 3.08958,3.08958c0,1.70634 -1.38326,3.08958 -3.08958,3.08958c-1.70634,0 -3.08958,-1.38326 -3.08958,-3.08958z" fill="#5f6363" stroke="none" stroke-width="0"/><path d="M260.96918,111.97423c0,-1.07436 0.87093,-1.94529 1.94529,-1.94529c1.07436,0 1.94529,0.87093 1.94529,1.94529c0,1.07436 -0.87093,1.94529 -1.94529,1.94529c-1.07436,0 -1.94529,-0.87093 -1.94529,-1.94529z" fill="#5f6363" stroke="none" stroke-width="0"/><path d="M232.81961,100.8746c0,-3.91825 3.17636,-7.09461 7.09461,-7.09461c3.91825,0 7.09461,3.17636 7.09461,7.09461c0,3.91825 -2.03206,13.04492 -5.95031,13.04492c-3.91825,0 -8.2389,-9.12667 -8.2389,-13.04492z" fill="#ff8800" stroke="none" stroke-width="0"/><path d="M135.15241,136.7921l-17.11344,12.33864l-0.83829,-2.70995l11.38686,-9.71665l-18.9495,-6.65416l-0.65887,-4.35072l18.59232,3.49458l-3.96766,-17.56055l5.07356,-0.71317l6.93939,19.7859l59.88613,10.28766c0,0 1.18219,2.81684 0.98445,4.06929c-0.16956,1.07412 -2.09945,2.99291 -2.09945,2.99291z" fill="#9d7a21" stroke="none" stroke-width="0"/><path d="M285.61213,147.49049c0,0 -1.92989,-1.9188 -2.09945,-2.99293c-0.19772,-1.25246 0.98445,-4.06929 0.98445,-4.06929l59.88613,-10.28766l6.93939,-19.7859l5.07353,0.71317l-3.96764,17.56055l18.59229,-3.4946l-0.65889,4.35072l-18.9495,6.65419l11.38688,9.71665l-0.83831,2.70997l-17.11344,-12.33864z" data-paper-data="{&quot;index&quot;:null}" fill="#9d7a21" stroke="none" stroke-width="0"/></g></g></svg>