<svg version="1.1" xmlns="http://www.w3.org/2000/svg" xmlns:xlink="http://www.w3.org/1999/xlink" width="49.06447" height="42.07399" viewBox="0,0,49.06447,42.07399"><defs><linearGradient x1="5446.76265" y1="-1687.86074" x2="5446.76265" y2="1046.94901" gradientUnits="userSpaceOnUse" id="color-1"><stop offset="0" stop-color="#000000"/><stop offset="1" stop-color="#000000" stop-opacity="0"/></linearGradient></defs><g transform="translate(-215.46776,-158.96301)"><g data-paper-data="{&quot;isPaintingLayer&quot;:true}" fill-rule="nonzero" stroke-linecap="butt" stroke-linejoin="miter" stroke-miterlimit="10" stroke-dasharray="" stroke-dashoffset="0" style="mix-blend-mode: normal"><path d="M215.46777,188.24808c0,-6.94306 0,-14.87932 0,-18.74689c0,-4.45193 4.79725,-10.53818 11.13097,-10.53818c32.39616,0 -40.91283,0 23.82007,0c9.01598,0 14.11343,6.15222 14.11343,13.09457c0,6.16911 0,12.96215 0,16.61657c0,5.01009 -4.4579,12.36285 -12.40916,12.36285c-61.49571,0 8.09014,0 -25.09827,0c-6.55741,0 -11.55703,-5.90648 -11.55703,-12.78892z" fill="url(#color-1)" stroke="none" stroke-width="0"/><g><path d="M231.92926,194.90866c0,0 3.67133,-1.21207 3.67133,-2.20279c0,-2.40647 0,-12.37763 0,-12.37763h7.13287c0,0 0,8.26346 0,10.9091c0,0.81768 3.56643,3.15708 3.56643,3.88111c0,0.61541 -3.56643,-0.31468 -3.56643,-0.31468c0,0 -1.2505,0.65853 -2.64056,0.55203c-0.62811,-0.04812 -1.28472,-0.92026 -1.86734,-0.91461c-0.6352,0.00617 -2.39728,0.911 -3.43995,0.99127c-1.7738,0.13655 -2.85634,-0.5238 -2.85634,-0.5238z" fill="#b9872f" stroke="none" stroke-width="0"/><path d="M224.17285,176.68115c0,-4.33544 3.51456,-7.85 7.85,-7.85c1.53007,0 2.9579,0.43775 4.16508,1.19485c2.21334,1.38813 3.68492,3.84978 3.68492,6.65515c0,4.33544 -3.51457,7.85 -7.85,7.85c-4.33544,0 -7.85,-3.51456 -7.85,-7.85z" fill="#5cc937" stroke="#449629" stroke-width="1.5"/><path d="M237.97285,177.28113c0,-4.33544 3.51456,-7.85 7.85,-7.85c1.53007,0 2.9579,0.43775 4.16508,1.19485c2.21334,1.38813 3.68492,3.84978 3.68492,6.65515c0,4.33544 -3.51457,7.85 -7.85,7.85c-4.33544,0 -7.85,-3.51457 -7.85,-7.85z" fill="#5cc937" stroke="#449629" stroke-width="1.5"/><path d="M230.77285,170.68115c0,-4.33544 3.51457,-7.85 7.85,-7.85c1.53007,0 2.9579,0.43775 4.16508,1.19485c2.21334,1.38813 3.68492,3.84978 3.68492,6.65515c0,4.33544 -3.51456,7.85 -7.85,7.85c-4.33544,0 -7.85,-3.51456 -7.85,-7.85z" fill="#5cc937" stroke="#449629" stroke-width="1.5"/><path d="M236.07284,172.08114c0,-4.33544 3.51457,-7.85 7.85,-7.85c1.53007,0 2.9579,0.43775 4.16508,1.19485c2.21334,1.38813 3.68492,3.84978 3.68492,6.65515c0,4.33544 -3.51456,7.85 -7.85,7.85c-4.33544,0 -7.85,-3.51457 -7.85,-7.85z" fill="#5cc937" stroke="#449629" stroke-width="1.5"/><path d="M229.82432,169.95814c-0.86361,2.66322 1.51669,4.45222 1.82262,4.17967c1.57277,-1.40112 4.0995,-8.94002 5.87591,-8.94002c0.57822,0 2.14364,-1.45681 2.69133,-1.3743c0.61756,0.09304 -1.15094,1.08312 -1.72767,1.95968c-0.26484,0.40251 0.05274,0.94664 0.37874,1.07431c3.71675,1.45562 10.95865,5.34843 10.95865,8.03717c0,0.34967 2.79111,0.73919 2.79111,0.73919c0,0 -2.96251,6.72741 -9.20802,6.2845c-1.22177,0.89246 -2.59695,-0.87097 -4.2772,-1.17563c-0.51572,-0.09351 -1.25519,0.45509 -1.80694,0.45509c-4.94295,0 -12.61023,-6.98269 -7.49853,-11.23966z" fill="#5cc937" stroke="none" stroke-width="0"/></g></g></g></svg>