<svg version="1.1" xmlns="http://www.w3.org/2000/svg" xmlns:xlink="http://www.w3.org/1999/xlink" width="50.20194" height="50.20194" viewBox="0,0,50.20194,50.20194"><g transform="translate(-214.89903,-154.89903)"><g data-paper-data="{&quot;isPaintingLayer&quot;:true}" fill-rule="nonzero" stroke-linecap="butt" stroke-linejoin="miter" stroke-miterlimit="10" stroke-dasharray="" stroke-dashoffset="0" style="mix-blend-mode: normal"><path d="" fill-opacity="0.48235" fill="#000000" stroke="none" stroke-width="0"/><path d="M216.14903,180c0,-13.17253 10.67845,-23.85097 23.85097,-23.85097c13.17253,0 23.85097,10.67845 23.85097,23.85097c0,13.17253 -10.67845,23.85097 -23.85097,23.85097c-13.17253,0 -23.85097,-10.67844 -23.85097,-23.85097z" fill-opacity="0.16863" fill="#000000" stroke-opacity="0.44314" stroke="#999999" stroke-width="2.5"/><g fill-opacity="0.38039" fill="#000000" stroke="none" stroke-width="0"><path d="M226.57007,192.02456c0,0 9.40888,-15.39353 12.39768,-20.2834c1.69302,-2.7699 5.07422,-5.43826 8.61538,-3.58716c4.64722,2.42928 2.45699,7.48236 1.0243,9.82633c-3.01155,4.92708 -12.2432,20.03065 -12.2432,20.03065c0,0 -2.20728,0.25788 -5.64844,-1.97695c-3.18204,-2.06653 -4.14572,-4.00948 -4.14572,-4.00948z"/><path d="M246.11279,167.74142l0.70398,-1.17365l3.2226,1.96973l-0.70398,1.17365c0,0 -0.88144,-0.86953 -1.40862,-1.19175c-0.54633,-0.33393 -1.81398,-0.77797 -1.81398,-0.77797z"/><path d="M247.72197,167.2375l1.79468,-3.09887l1.26376,0.77245l-1.79467,3.09887z"/><path d="M247.86926,163.11734l0.69519,-1.13739l4.86549,2.9739l-0.6952,1.13739z"/><path d="M249.57238,166.86062l0.38622,-0.63188l1.2745,0.78172l-0.38622,0.63189z"/></g></g></g></svg>