<svg version="1.1" xmlns="http://www.w3.org/2000/svg" xmlns:xlink="http://www.w3.org/1999/xlink" width="367.7135" height="367.7135" viewBox="0,0,367.7135,367.7135"><defs><radialGradient cx="240" cy="180" r="119.57098" gradientUnits="userSpaceOnUse" id="color-1"><stop offset="0" stop-color="#3f9421"/><stop offset="1" stop-color="#3f9421" stop-opacity="0"/></radialGradient><radialGradient cx="265.91087" cy="221.15254" r="124.1435" gradientUnits="userSpaceOnUse" id="color-2"><stop offset="0" stop-color="#3f9421"/><stop offset="1" stop-color="#3f9421" stop-opacity="0"/></radialGradient></defs><g transform="translate(-56.14325,3.85675)"><g data-paper-data="{&quot;isPaintingLayer&quot;:true}" fill-rule="nonzero" stroke-linecap="butt" stroke-linejoin="miter" stroke-miterlimit="10" stroke-dasharray="" stroke-dashoffset="0" style="mix-blend-mode: normal"><path d="M120.42902,180c0,-66.03722 53.53376,-119.57098 119.57098,-119.57098c66.03722,0 119.57098,53.53376 119.57098,119.57098c0,66.03722 -53.53376,119.57098 -119.57098,119.57098c-66.03722,0 -119.57098,-53.53376 -119.57098,-119.57098z" fill="url(#color-1)" stroke="none" stroke-width="0"/><path d="M141.76738,221.15254c0,-68.56253 55.58095,-124.1435 124.1435,-124.1435c68.56253,0 124.1435,55.58095 124.1435,124.1435c0,68.56253 -55.58095,124.14351 -124.1435,124.14351c-68.56253,0 -124.1435,-55.58098 -124.1435,-124.14351z" fill="url(#color-2)" stroke="none" stroke-width="0"/><path d="M148.9425,179.6413c0,-15.64205 13.49117,-22.50036 19.92644,-33.13814c7.03723,-11.63285 7.60253,-26.66203 21.15505,-35.04286c13.89889,-8.59501 32.43363,-22.8765 49.97602,-22.8765c2.74671,0 1.8801,4.42352 4.56491,4.66168c16.34873,1.45012 43.37095,7.40551 56.66135,15.65732c8.46371,5.25498 6.03657,18.81632 10.49615,26.20327c8.44314,13.98544 19.33506,24.36935 19.33506,44.53524c0,17.8832 -10.17419,34.56237 -19.07966,48.63237c-5.18891,8.19807 -5.39621,27.6992 -12.14945,33.84776c-14.2497,12.97375 -37.84187,8.57742 -59.8284,8.57742c-24.86013,0 -43.65215,-17.3568 -63.10825,-29.69776c-20.39315,-12.93535 -27.94927,-35.93021 -27.94927,-61.35975z" fill="#4baf26" stroke="#4aad26" stroke-width="2"/><path d="M56.14325,363.85674v-367.7135h367.7135v367.7135z" fill="none" stroke="none" stroke-width="0"/></g></g></svg>