<svg version="1.1" xmlns="http://www.w3.org/2000/svg" xmlns:xlink="http://www.w3.org/1999/xlink" width="319.90869" height="117.0767" viewBox="0,0,319.90869,117.0767"><defs><linearGradient x1="403.3927" y1="430.0322" x2="403.3927" y2="622.92981" gradientUnits="userSpaceOnUse" id="color-1"><stop offset="0" stop-color="#dad9d6"/><stop offset="1" stop-color="#dad9d6" stop-opacity="0"/></linearGradient></defs><g transform="translate(-80.73441,-121.09057)"><g data-paper-data="{&quot;isPaintingLayer&quot;:true}" fill-rule="nonzero" stroke-linecap="butt" stroke-linejoin="miter" stroke-miterlimit="10" stroke-dasharray="" stroke-dashoffset="0" style="mix-blend-mode: normal"><path d="" fill="#cbcac6" stroke="none" stroke-width="0"/><path d="" fill="url(#color-1)" stroke="none" stroke-width="0"/><path d="" data-paper-data="{&quot;index&quot;:null}" fill-opacity="0.05882" fill="#000000" stroke="none" stroke-width="0"/><path d="" fill-opacity="0.05098" fill="#000000" stroke="none" stroke-width="0"/><path d="" data-paper-data="{&quot;index&quot;:null}" fill-opacity="0.05882" fill="#000000" stroke="none" stroke-width="0"/><path d="M81.98441,223.07089c0,-16.69002 0,-57.33401 0,-78.60087c0,-8.16524 5.91676,-13.47407 13.1401,-13.47407c29.58368,0 216.40888,0 266.99148,0c6.1419,0 35.8996,-7.91323 35.8996,-7.91323c0,0 -12.57024,21.29463 -12.57024,24.30571c0,8.85891 0,52.90016 0,76.65284c0,7.80749 -5.33842,12.876 -11.97769,12.876c-28.22975,0 -224.34044,0 -277.96028,0c-8.58996,0 -13.52297,-5.48444 -13.52297,-13.84638z" fill-opacity="0.67059" fill="#ffffff" stroke="#ffffff" stroke-width="2.5"/></g></g></svg>