<svg version="1.1" xmlns="http://www.w3.org/2000/svg" xmlns:xlink="http://www.w3.org/1999/xlink" width="472.87786" height="360.53869" viewBox="0,0,472.87786,360.53869"><defs><linearGradient x1="109.90469" y1="127.31558" x2="370.11389" y2="127.31558" gradientUnits="userSpaceOnUse" id="color-1"><stop offset="0" stop-color="#d04c17"/><stop offset="1" stop-color="#ff6925"/></linearGradient><linearGradient x1="138.7096" y1="141.51131" x2="188.6014" y2="141.51131" gradientUnits="userSpaceOnUse" id="color-2"><stop offset="0" stop-color="#000000"/><stop offset="1" stop-color="#666666"/></linearGradient><linearGradient x1="201.41895" y1="133.65542" x2="201.41895" y2="140.27093" gradientUnits="userSpaceOnUse" id="color-3"><stop offset="0" stop-color="#000000"/><stop offset="1" stop-color="#666666"/></linearGradient><linearGradient x1="166.41199" y1="134.34454" x2="166.41199" y2="138.61704" gradientUnits="userSpaceOnUse" id="color-4"><stop offset="0" stop-color="#000000"/><stop offset="1" stop-color="#666666"/></linearGradient><linearGradient x1="112.93675" y1="138.20359" x2="112.93675" y2="179.82599" gradientUnits="userSpaceOnUse" id="color-5"><stop offset="0" stop-color="#666666"/><stop offset="1" stop-color="#151515"/></linearGradient><linearGradient x1="251.58641" y1="136.54969" x2="293.89792" y2="136.54969" gradientUnits="userSpaceOnUse" id="color-6"><stop offset="0" stop-color="#666666"/><stop offset="1" stop-color="#000000"/></linearGradient><linearGradient x1="119.53956" y1="127.34686" x2="119.53956" y2="141.62527" gradientUnits="userSpaceOnUse" id="color-7"><stop offset="0" stop-color="#a2320d"/><stop offset="1" stop-color="#d04c17"/></linearGradient><linearGradient x1="310.29887" y1="147.29984" x2="310.29887" y2="152.95057" gradientUnits="userSpaceOnUse" id="color-8"><stop offset="0" stop-color="#e45b20"/><stop offset="1" stop-color="#e45b20"/></linearGradient><linearGradient x1="109.88611" y1="231.75017" x2="369.95752" y2="231.75017" gradientUnits="userSpaceOnUse" id="color-9"><stop offset="0" stop-color="#d04c17"/><stop offset="1" stop-color="#ff6925"/></linearGradient><linearGradient x1="138.55322" y1="217.55445" x2="188.44502" y2="217.55445" gradientUnits="userSpaceOnUse" id="color-10"><stop offset="0" stop-color="#000000"/><stop offset="1" stop-color="#666666"/></linearGradient><linearGradient x1="201.26258" y1="225.41032" x2="201.26258" y2="218.79482" gradientUnits="userSpaceOnUse" id="color-11"><stop offset="0" stop-color="#000000"/><stop offset="1" stop-color="#666666"/></linearGradient><linearGradient x1="166.25562" y1="224.72121" x2="166.25562" y2="220.44871" gradientUnits="userSpaceOnUse" id="color-12"><stop offset="0" stop-color="#000000"/><stop offset="1" stop-color="#666666"/></linearGradient><linearGradient x1="113.05603" y1="220.86217" x2="113.05603" y2="179.23977" gradientUnits="userSpaceOnUse" id="color-13"><stop offset="0" stop-color="#666666"/><stop offset="1" stop-color="#151515"/></linearGradient><linearGradient x1="251.43004" y1="222.51606" x2="293.74155" y2="222.51606" gradientUnits="userSpaceOnUse" id="color-14"><stop offset="0" stop-color="#666666"/><stop offset="1" stop-color="#000000"/></linearGradient><linearGradient x1="119.41446" y1="231.68762" x2="119.41446" y2="217.4092" gradientUnits="userSpaceOnUse" id="color-15"><stop offset="0" stop-color="#a2320d"/><stop offset="1" stop-color="#d04c17"/></linearGradient><linearGradient x1="310.14249" y1="211.76592" x2="310.14249" y2="206.11519" gradientUnits="userSpaceOnUse" id="color-16"><stop offset="0" stop-color="#e75c20"/><stop offset="1" stop-color="#e45b20"/></linearGradient></defs><g transform="translate(-4.42566,-1.09609)"><g data-paper-data="{&quot;isPaintingLayer&quot;:true}" fill-rule="nonzero" stroke-miterlimit="10" stroke-dasharray="" stroke-dashoffset="0" style="mix-blend-mode: normal"><g stroke-linecap="round"><g><path d="M110.31815,171.41885l0.82692,-8.13153l0.82697,-9.37198l1.37824,-4.96161l2.61861,-4.82381l3.44558,-4.96161l4.68596,-4.96161l20.53557,-2.75641l14.60918,-3.16993l13.36881,-0.96478l12.95535,0.41345l6.06419,1.10258l111.36072,1.37824l16.67654,-0.82692l16.12528,0.68912l6.7533,2.34294l8.13154,4.1347l7.16676,4.96161l5.09947,4.68596l3.30772,4.1347l1.37823,5.09941l1.65389,9.50978l0.82692,14.88484h-260.2092z" fill="url(#color-1)" stroke="none" stroke-width="0.88136" stroke-linejoin="miter"/><path d="M143.53341,141.51131l45.06798,1.6539l-1.10258,9.64756l-0.82691,13.36882l-0.55131,13.50661h-47.13534l-0.27566,-14.33352l1.92955,-13.64447z" fill="url(#color-2)" stroke="none" stroke-width="0.88136" stroke-linejoin="miter"/><path d="M247.03825,133.93109l32.38829,0.41346l-31.69917,5.92639l-42.8629,-0.41352l-3.44552,-1.10258l4.54816,-5.09942z" fill="url(#color-3)" stroke="none" stroke-width="0.88136" stroke-linejoin="miter"/><path d="M168.47934,136.54969l25.91064,-2.20515l-3.58338,4.2725l-24.39462,-0.13786z" fill="url(#color-4)" stroke="none" stroke-width="0.88136" stroke-linejoin="miter"/><path d="M292.5197,162.32254l57.60988,1.24038l1.24044,16.26308h-58.85032z" fill="#151515" stroke="none" stroke-width="0.88136" stroke-linejoin="miter"/><path d="M123.82475,142.33822l11.71492,-0.27559h7.71808" fill="none" stroke="#151515" stroke-width="0.88136" stroke-linejoin="miter"/><path d="M281.63176,129.93419l-2.20522,3.85904" fill="none" stroke="#151515" stroke-width="0.88136" stroke-linejoin="miter"/><path d="M286.59337,137.65227h19.01948l18.46829,0.55132l16.95219,1.79169l13.36874,1.92949" fill="none" stroke="#151515" stroke-width="0.88136" stroke-linejoin="miter"/><path d="M113.90153,151.02108l8.13154,-13.92006l-4.54815,38.45248l-5.51287,0.96478z" fill="#660000" stroke="none" stroke-width="0.88136" stroke-linejoin="miter"/><path d="M114.6131,151.53799l7.24038,-13.53069l-4.04969,37.37693l-4.90875,0.93776z" fill="#7f7f7f" stroke="none" stroke-width="0.82153" stroke-linejoin="miter"/><path d="M113.48807,168.93805l1.24038,-10.33675l1.79175,-8.54499l3.03206,-6.47764l3.44558,-5.37507l2.20515,0.13779l-3.16993,10.47455l-1.92948,11.57706l-1.37823,19.433h-5.78859z" fill="url(#color-5)" stroke="none" stroke-width="0.88136" stroke-linejoin="miter"/><path d="M353.85082,140.27093l5.65073,3.58338l3.16992,3.99684l2.20515,3.16992l1.51603,5.09941l-5.51287,-6.06419z" fill="#512714" stroke="none" stroke-width="0.88136" stroke-linejoin="miter"/><path d="M251.58641,142.33822l33.35307,-5.78853h2.34301l3.03206,4.54816l1.65389,3.72117l1.92948,5.09948v16.67654l-0.41345,13.23095h-39.69291l-0.27566,-18.05477l-0.82691,-10.06103z" fill="url(#color-6)" stroke="none" stroke-width="0.88136" stroke-linejoin="miter"/><path d="M186.94544,143.13761l31.14791,1.10257l20.39777,-0.1378l14.05786,-1.6539l2.20521,37.34997l-69.87611,0.1378z" fill="#151515" stroke="none" stroke-width="0.88136" stroke-linejoin="miter"/><path d="M123.12294,137.62844l-3.58338,1.57113l4.68596,-4.96161l20.53557,-2.75641l14.60918,-3.16993l13.36881,-0.96477l12.95535,0.41345l6.06419,1.10258l111.36072,1.37823l16.67654,-0.82692l16.12527,0.68912l6.75331,2.34294l8.13154,4.1347l7.16676,4.96161l-1.79169,0.08269l-8.54499,-3.58338l-12.6797,-2.20515l-20.39777,-1.24043l-17.50344,-0.55125l-39.27945,-1.10258l-50.71878,-1.79175l-26.87542,0.96478l-22.46506,0.96478l-22.60292,1.79169z" fill="url(#color-7)" stroke="none" stroke-width="0.88136" stroke-linejoin="miter"/><path d="M310.29887,147.29984l27.70233,1.37823l24.2586,4.08903" fill="none" stroke="url(#color-8)" stroke-width="1.76271" stroke-linejoin="round"/></g><g><path d="M109.88611,179.37756l260.07141,-0.13779l-0.82691,14.88484l-1.65389,9.50977l-1.37824,5.09941l-3.30772,4.1347l-5.09947,4.68596l-7.16676,4.96161l-8.13153,4.1347l-6.75331,2.34295l-16.12527,0.68911l-16.67654,-0.82692l-111.36072,1.37824l-6.06419,1.10257l-12.95535,0.41346l-13.36881,-0.96478l-14.60918,-3.16993l-20.53557,-2.75641l-4.68596,-4.96161l-3.44558,-4.96161l-2.61861,-4.82382l-1.37824,-4.96161l-0.82698,-9.37197l-0.82691,-8.13154z" fill="url(#color-9)" stroke="none" stroke-width="0.88136" stroke-linejoin="miter"/><path d="M140.48277,207.35556l-1.92955,-13.64447l0.27566,-15.02264l47.41099,-0.41345l0.27566,14.60918l0.82691,13.36881l1.10258,9.64757l-45.06798,1.6539z" fill="url(#color-10)" stroke="none" stroke-width="0.88136" stroke-linejoin="miter"/><path d="M205.81073,225.41032l-4.54816,-5.09941l3.44552,-1.10257l42.8629,-0.41352l31.69917,5.92639l-32.38829,0.41346z" fill="url(#color-11)" stroke="none" stroke-width="0.88136" stroke-linejoin="miter"/><path d="M166.25562,220.58657l24.39462,-0.13786l3.58338,4.27249l-25.91064,-2.20515z" fill="url(#color-12)" stroke="none" stroke-width="0.88136" stroke-linejoin="miter"/><path d="M292.36332,179.23977h58.85032l-1.24043,16.26307l-57.60988,1.24037z" fill="#151515" stroke="none" stroke-width="0.88136" stroke-linejoin="miter"/><path d="M143.10138,217.00313h-7.71808l-11.71492,-0.27559" fill="none" stroke="#151515" stroke-width="0.88136" stroke-linejoin="miter"/><path d="M279.27017,225.27253l2.20521,3.85904" fill="none" stroke="#151515" stroke-width="0.88136" stroke-linejoin="miter"/><path d="M354.2457,217.14099l-13.36874,1.92949l-16.9522,1.79169l-18.46828,0.55132h-19.01948" fill="none" stroke="#151515" stroke-width="0.88136" stroke-linejoin="miter"/><path d="M111.81566,182.54749l5.51287,0.96478l4.54815,38.45248l-8.13153,-13.92007z" fill="#660000" stroke="none" stroke-width="0.88136" stroke-linejoin="miter"/><path d="M112.73865,182.7125l4.90876,0.93775l4.0497,37.37693l-7.24039,-13.5307z" fill="#7f7f7f" stroke="none" stroke-width="0.82153" stroke-linejoin="miter"/><path d="M113.05603,179.23977l5.7886,0.13779l1.10257,19.29521l1.92949,11.57706l3.16993,10.47455l-2.20515,0.1378l-3.44558,-5.37507l-3.03207,-6.47764l-1.79175,-8.54499l-1.24038,-10.33675z" fill="url(#color-13)" stroke="none" stroke-width="0.88136" stroke-linejoin="miter"/><path d="M360.72341,209.00945l5.51287,-6.06419l-1.51603,5.09941l-2.20515,3.16992l-3.16993,3.99684l-5.65073,3.58338z" fill="#512714" stroke="none" stroke-width="0.88136" stroke-linejoin="miter"/><path d="M252.53261,207.35556l0.82692,-10.06103l0.27566,-18.05476h39.69292l0.41345,13.23095v16.67653l-1.92948,5.09947l-1.6539,3.72118l-3.03206,4.54816h-2.34301l-33.35306,-5.78853z" fill="url(#color-14)" stroke="none" stroke-width="0.88136" stroke-linejoin="miter"/><path d="M184.99737,177.99564l69.60046,1.24037l-2.20521,37.34996l-14.05787,-1.65389l-20.39777,-0.1378l-31.14791,1.10258z" fill="#151515" stroke="none" stroke-width="0.88136" stroke-linejoin="miter"/><path d="M134.98842,224.16251l22.60293,1.79169l22.46506,0.96478l26.87542,0.96478l50.71877,-1.79175l39.27945,-1.10258l17.50345,-0.55125l20.39778,-1.24044l12.67969,-2.20514l8.545,-3.58338l1.79169,0.0827l-7.16676,4.96161l-8.13154,4.1347l-6.7533,2.34295l-16.12528,0.68912l-16.67654,-0.82692l-111.36072,1.37823l-6.06419,1.10258l-12.95535,0.41346l-13.36881,-0.96477l-14.60918,-3.16993l-20.53557,-2.75641l-4.68596,-4.96161l3.58338,1.57114z" fill="url(#color-15)" stroke="none" stroke-width="0.88136" stroke-linejoin="miter"/><path d="M362.28689,206.29865l-24.44206,4.08903l-27.70234,1.37823" fill="none" stroke="url(#color-16)" stroke-width="1.76271" stroke-linejoin="round"/></g></g><g stroke="none" stroke-width="1.23204" stroke-linecap="round" stroke-linejoin="miter"><path d="M277.10049,132.0614l-4.04588,-1.73396l-2.69723,-9.20916l9.63299,10.94311l5.00916,2.11926l-11.55961,2.11927z" fill="#000000"/><path d="M270.35738,120.69444l3.46785,0.19266l2.50458,3.08254l2.31192,3.85322l0.77068,4.04588l-4.81656,-1.92661z" fill="#f76422"/></g><g stroke="none" stroke-width="1.28401" stroke-linecap="round" stroke-linejoin="miter"><path d="M272.03548,223.0418l12.04725,2.20865l-5.22045,2.20865l-10.03938,11.40473l2.81101,-9.59766l4.21658,-1.80707z" fill="#000000"/><path d="M273.24026,229.66781l5.01966,-2.00793l-0.80315,4.21658l-2.40943,4.01573l-2.61029,3.21259l-3.61416,0.20078z" fill="#f76422"/></g><path d="M4.42566,361.63478v-360.53868h472.87786v360.53869z" fill="none" stroke="none" stroke-width="0" stroke-linecap="butt" stroke-linejoin="miter"/></g></g></svg>