<svg version="1.1" xmlns="http://www.w3.org/2000/svg" xmlns:xlink="http://www.w3.org/1999/xlink" width="52.9227" height="49.43896" viewBox="0,0,52.9227,49.43896"><defs><linearGradient x1="6242.93337" y1="-2002.8529" x2="6242.93337" y2="1192.94981" gradientUnits="userSpaceOnUse" id="color-1"><stop offset="0" stop-color="#000000"/><stop offset="1" stop-color="#000000" stop-opacity="0"/></linearGradient></defs><g transform="translate(-213.53865,-155.28052)"><g data-paper-data="{&quot;isPaintingLayer&quot;:true}" fill-rule="nonzero" stroke-linejoin="miter" stroke-miterlimit="10" stroke-dasharray="" stroke-dashoffset="0" style="mix-blend-mode: normal"><path d="M213.53865,155.28052h52.56782l0.35488,49.16619l-52.37715,0.27277z" fill="url(#color-1)" stroke="none" stroke-width="0" stroke-linecap="butt"/><path d="" fill="none" stroke="#cbfeff" stroke-width="2" stroke-linecap="round"/><path d="" fill="none" stroke="#cbfeff" stroke-width="2" stroke-linecap="round"/><path d="" data-paper-data="{&quot;index&quot;:null}" fill="none" stroke="#cbfeff" stroke-width="2" stroke-linecap="round"/><path d="" data-paper-data="{&quot;index&quot;:null}" fill="none" stroke="#cbfeff" stroke-width="2" stroke-linecap="round"/><path d="" data-paper-data="{&quot;index&quot;:null}" fill="none" stroke="#cbfeff" stroke-width="2" stroke-linecap="round"/><path d="" data-paper-data="{&quot;index&quot;:null}" fill="none" stroke="#cbfeff" stroke-width="2" stroke-linecap="round"/><path d="" data-paper-data="{&quot;index&quot;:null}" fill="none" stroke="#cbfeff" stroke-width="2" stroke-linecap="round"/><path d="" data-paper-data="{&quot;index&quot;:null}" fill="none" stroke="#cbfeff" stroke-width="2" stroke-linecap="round"/><path d="" data-paper-data="{&quot;index&quot;:null}" fill="none" stroke="#cbfeff" stroke-width="2" stroke-linecap="round"/><path d="" data-paper-data="{&quot;index&quot;:null}" fill="none" stroke="#cbfeff" stroke-width="2" stroke-linecap="round"/><path d="" data-paper-data="{&quot;index&quot;:null}" fill="none" stroke="#cbfeff" stroke-width="2" stroke-linecap="round"/><path d="M233.59343,180c0,-3.53825 2.86832,-6.40657 6.40657,-6.40657c3.53825,0 6.40657,2.86832 6.40657,6.40657c0,0.06334 -3.24041,0.36054 -6.58756,0.3551c-3.04512,-0.00495 -6.22558,-0.30739 -6.22558,-0.3551z" fill="none" stroke="#ffc500" stroke-width="3.5" stroke-linecap="butt"/><path d="M237.41764,168.43705c0.61733,-1.28836 1.38031,-2.88064 1.72519,-3.6004c0.34789,-0.72604 1.31632,-0.72285 1.69529,0.00475c0.39264,0.75388 1.28256,2.46251 1.9674,3.77741c0.50524,0.97007 -0.14048,1.72583 -0.90133,1.72583c-0.76495,0 -2.46152,0 -3.75042,0c-0.93157,0 -1.24207,-0.85173 -0.73613,-1.90759z" fill="#ffc500" stroke="#ffc500" stroke-width="0" stroke-linecap="butt"/><path d="M247.91405,170.2862c1.07055,-0.37696 2.39366,-0.84283 2.99174,-1.05343c0.6033,-0.21243 1.14555,0.33339 0.94969,0.95502c-0.20293,0.64408 -0.66286,2.10386 -1.0168,3.22725c-0.26113,0.82878 -1.04843,0.8906 -1.47585,0.46318c-0.42972,-0.42972 -1.3828,-1.3828 -2.10686,-2.10686c-0.52333,-0.52333 -0.21928,-1.17622 0.65809,-1.48516z" fill="#ffc500" stroke="#ffc500" stroke-width="0" stroke-linecap="butt"/><path d="M252.47711,177.26067c1.28836,0.61733 2.88064,1.38031 3.6004,1.72519c0.72604,0.34789 0.72286,1.31632 -0.00475,1.69529c-0.75388,0.39265 -5.50324,0.82691 -5.50324,0.06606c0,-0.76495 0,-1.46152 0,-2.75042c0,-0.93157 0.85172,-1.24206 1.90759,-0.73613z" fill="#ffc500" stroke="#ffc500" stroke-width="0" stroke-linecap="butt"/><path d="M233.95911,171.34571c-0.75352,0.75352 -1.74536,1.74536 -2.19257,2.19257c-0.44481,0.44481 -1.26414,0.38048 -1.53589,-0.48202c-0.36835,-1.16909 -0.84699,-2.68825 -1.05818,-3.35854c-0.20382,-0.64692 0.36048,-1.21495 0.98833,-0.99387c0.62242,0.21916 1.99935,0.704 3.11346,1.09629c0.91306,0.3215 1.22947,1.00096 0.68486,1.54557z" data-paper-data="{&quot;index&quot;:null}" fill="#ffc500" stroke="#ffc500" stroke-width="0" stroke-linecap="butt"/><path d="M229.43048,178.43355c0,1.2889 0,1.80364 0,2.5686c0,0.76085 -4.74936,0.5084 -5.50324,0.11576c-0.7276,-0.37896 -0.73079,-1.34739 -0.00475,-1.69529c0.71976,-0.34488 2.31205,-1.10785 3.6004,-1.72519c1.05586,-0.50594 1.90759,-0.19544 1.90759,0.73613z" data-paper-data="{&quot;index&quot;:null}" fill="#ffc500" stroke="#ffc500" stroke-width="0" stroke-linecap="butt"/><path d="M223.72728,184.86364h33.36364" fill="none" stroke="#dca900" stroke-width="3.5" stroke-linecap="round"/><path d="M228.72728,189.86364h23.81818" fill="none" stroke="#dca900" stroke-width="3" stroke-linecap="round"/></g></g></svg>