<svg version="1.1" xmlns="http://www.w3.org/2000/svg" xmlns:xlink="http://www.w3.org/1999/xlink" width="197.9067" height="269.00437" viewBox="0,0,197.9067,269.00437"><defs><linearGradient x1="403.3927" y1="430.03219" x2="403.3927" y2="622.9298" gradientUnits="userSpaceOnUse" id="color-1"><stop offset="0" stop-color="#dad9d6"/><stop offset="1" stop-color="#dad9d6" stop-opacity="0"/></linearGradient><linearGradient x1="307.67014" y1="329.37044" x2="348.28397" y2="323.03072" gradientUnits="userSpaceOnUse" id="color-2"><stop offset="0" stop-color="#dedede"/><stop offset="1" stop-color="#f6f5f1"/></linearGradient><linearGradient x1="172.32987" y1="331.08318" x2="131.71604" y2="324.74346" gradientUnits="userSpaceOnUse" id="color-3"><stop offset="0" stop-color="#dedede"/><stop offset="1" stop-color="#f6f5f1"/></linearGradient><linearGradient x1="154.49137" y1="405.60877" x2="248.20888" y2="405.60877" gradientUnits="userSpaceOnUse" id="color-4"><stop offset="0" stop-color="#dedede"/><stop offset="1" stop-color="#f6f5f1"/></linearGradient><linearGradient x1="229.76768" y1="405.60882" x2="323.48517" y2="405.60882" gradientUnits="userSpaceOnUse" id="color-5"><stop offset="0" stop-color="#f6f5f1"/><stop offset="1" stop-color="#dedede"/></linearGradient><linearGradient x1="254.48503" y1="189.38388" x2="292.14524" y2="189.38388" gradientUnits="userSpaceOnUse" id="color-6"><stop offset="0" stop-color="#535353"/><stop offset="1" stop-color="#9e9e9e"/></linearGradient><linearGradient x1="207.14627" y1="102.20089" x2="267.98526" y2="102.20089" gradientUnits="userSpaceOnUse" id="color-7"><stop offset="0" stop-color="#fffefa"/><stop offset="1" stop-color="#b9b9b9"/></linearGradient><linearGradient x1="184.10284" y1="104.39258" x2="291.63671" y2="104.39258" gradientUnits="userSpaceOnUse" id="color-8"><stop offset="0" stop-color="#525252"/><stop offset="1" stop-color="#212121"/></linearGradient><linearGradient x1="224.52006" y1="60.42524" x2="251.95035" y2="60.42524" gradientUnits="userSpaceOnUse" id="color-9"><stop offset="0" stop-color="#535353"/><stop offset="1" stop-color="#9e9e9e"/></linearGradient><linearGradient x1="184.4657" y1="90.831" x2="290.76707" y2="90.831" gradientUnits="userSpaceOnUse" id="color-10"><stop offset="0" stop-color="#a6a9a6"/><stop offset="1" stop-color="#636863"/></linearGradient><linearGradient x1="259.90362" y1="140.18996" x2="282.93807" y2="133.10916" gradientUnits="userSpaceOnUse" id="color-11"><stop offset="0" stop-color="#535353"/><stop offset="1" stop-color="#9e9e9e"/></linearGradient><linearGradient x1="215.75995" y1="140.68942" x2="192.72552" y2="133.60862" gradientUnits="userSpaceOnUse" id="color-12"><stop offset="0" stop-color="#535353"/><stop offset="1" stop-color="#9e9e9e"/></linearGradient></defs><g transform="translate(-141.04665,-45.49781)"><g data-paper-data="{&quot;isPaintingLayer&quot;:true}" fill-rule="nonzero" stroke-linejoin="miter" stroke-miterlimit="10" stroke-dasharray="" stroke-dashoffset="0" style="mix-blend-mode: normal"><path d="" fill="#cbcac6" stroke="none" stroke-width="0" stroke-linecap="butt"/><path d="" fill="url(#color-1)" stroke="none" stroke-width="0" stroke-linecap="butt"/><path d="M300.40956,284.63851c-0.4015,-2.81196 -2.63943,-7.45065 -2.2097,-9.50883c0.83486,-3.99846 -7.98527,-27.56874 -5.36637,-37.09071c7.81817,-28.4257 29.26925,-56.56025 29.26925,-56.56025c0,0 13.49493,62.27726 16.08672,81.94563c1.40803,10.68522 0.43851,27.15325 0.43851,27.15325c0,0 -37.66807,-2.08459 -38.21841,-5.9391z" data-paper-data="{&quot;index&quot;:null}" fill="url(#color-2)" stroke="none" stroke-width="0" stroke-linecap="butt"/><path d="M324.61763,287.71016c4.63916,-0.91586 11.7287,0.21148 12.90826,1.81479c0.51826,0.7045 -4.72957,1.94956 -7.35608,2.65643c0,0 -10.82352,-3.43056 -5.55218,-4.47122z" data-paper-data="{&quot;index&quot;:null}" fill-opacity="0.05882" fill="#000000" stroke="none" stroke-width="0" stroke-linecap="butt"/><path d="" data-paper-data="{&quot;index&quot;:null}" fill-opacity="0.05882" fill="#000000" stroke="none" stroke-width="0" stroke-linecap="butt"/><path d="M141.37203,292.29033c0,0 -0.96952,-16.46801 0.43851,-27.15325c2.59179,-19.66837 16.08672,-81.94563 16.08672,-81.94563c0,0 21.45108,28.13454 29.26925,56.56025c2.6189,9.52197 -6.20123,33.09224 -5.36637,37.09071c0.42973,2.05818 -1.80822,6.69687 -2.2097,9.50883c-0.55036,3.85451 -38.21841,5.9391 -38.21841,5.9391z" data-paper-data="{&quot;index&quot;:null}" fill="url(#color-3)" stroke="none" stroke-width="0" stroke-linecap="butt"/><path d="M180.22796,241.84618c0,0 -7.68498,-18.50996 -12.22939,-27.72678c-5.43054,-11.01409 -13.50721,-31.89096 -13.50721,-31.89096l52.66662,-24.40648c0,0 12.41739,12.37269 19.16762,16.84797c5.05553,3.35175 17.73997,7.62118 17.73997,7.62118c0,0 -2.22464,94.90657 -7.16275,121.68931c-2.67816,14.52555 -56.74833,-4.96725 -56.74833,-4.96725l1.04389,-8.55671z" fill="url(#color-4)" stroke="none" stroke-width="0" stroke-linecap="butt"/><path d="M296.77814,290.45652l1.04393,8.55671c0,0 -58.07012,19.99279 -60.74832,5.46726c-4.93813,-26.78274 -4.78532,-125.97536 -4.78532,-125.97536c0,0 15.65917,1.1392 20.71472,-2.21253c6.75023,-4.47528 17.81543,-18.47058 17.81543,-18.47058l52.66662,24.40648c0,0 -8.07663,20.87688 -13.50718,31.891c-4.54442,9.21684 -12.2294,27.72678 -12.2294,27.72678z" data-paper-data="{&quot;index&quot;:null}" fill="url(#color-5)" stroke="none" stroke-width="0" stroke-linecap="butt"/><path d="M233.0471,168.32681c0,0 -8.39723,-2.77674 -11.43648,-5.47826c-3.81439,-3.39057 -9.65722,-13.27168 -9.65722,-13.27168l1.44232,-2.52402c0,0 5.03972,9.97969 8.93214,13.18346c3.91986,3.22634 12.88271,6.28763 12.88271,6.28763z" fill="#24292b" stroke="none" stroke-width="0" stroke-linecap="butt"/><path d="M167.12647,208.70174c0,0 -4.38548,-7.28208 -6.1833,-11.32718c-1.97686,-4.44797 -5.19184,-14.26692 -5.19184,-14.26692c0,0 6.16371,-4.8295 9.68633,-6.69444c3.78361,-2.00308 12.28838,-4.93922 12.28838,-4.93922l-0.25853,27.40377c0,0 -3.30807,4.16381 -5.05469,5.8231c-1.69906,1.61414 -5.28638,4.00087 -5.28638,4.00087z" fill="#121830" stroke="none" stroke-width="0" stroke-linecap="butt"/><path d="M223.85242,173.0143c0,0 -6.79737,-3.24441 -9.37924,-5.76481c-2.46034,-2.40175 -5.76493,-9.0188 -5.76493,-9.0188l3.24518,-8.47355c0,0 4.57991,7.53017 7.34419,10.32551c2.57009,2.59897 11.94662,7.16241 11.94662,7.16241z" fill="#efefef" stroke="none" stroke-width="0" stroke-linecap="butt"/><path d="M306.35622,201.59856c-1.7466,-1.65929 -5.05469,-5.8231 -5.05469,-5.8231l-0.25853,-27.40376c0,0 8.50476,2.93616 12.28838,4.93923c3.52265,1.86494 9.68633,6.69443 9.68633,6.69443c0,0 -3.21496,9.81895 -5.19184,14.26692c-1.79782,4.0451 -6.1833,11.32719 -6.1833,11.32719c0,0 -3.5873,-2.38673 -5.28636,-4.00088z" data-paper-data="{&quot;index&quot;:null}" fill="#121830" stroke="none" stroke-width="0" stroke-linecap="butt"/><path d="M218.69274,176.19001l-0.0473,-10.10793c0,0 25.99869,0.53241 33.52953,-2.24991c7.66612,-2.83232 11.16711,-14.41637 11.16711,-14.41637l3.72694,8.22234c0,0 1.58267,12.09419 -14.22758,18.03785c-13.26042,4.98507 -34.14871,0.5141 -34.14871,0.5141z" fill="#333b3d" stroke="none" stroke-width="0" stroke-linecap="butt"/><path d="M217.61102,177.8126l0.85415,-10.28822c0,0 26.35926,0.71271 33.89008,-2.06961c7.66612,-2.83232 11.5277,-14.59667 11.5277,-14.59667l4.2678,7.86174c0,0 0.68123,12.63502 -15.12901,18.57868c-13.26042,4.98507 -35.41072,0.5141 -35.41072,0.5141z" fill="#efefef" stroke="none" stroke-width="0" stroke-linecap="butt"/><path d="M254.48503,195.21749l3.04555,-11.69308l34.61467,0.02586l-3.04555,11.69308z" fill="url(#color-6)" stroke="#ffffff" stroke-width="0" stroke-linecap="butt"/><text transform="translate(255.65433,193.17999) rotate(0.26798) scale(0.23091,0.26559) skewX(-17.56739)" font-size="40" xml:space="preserve" fill="#112843" fill-rule="nonzero" stroke="#112843" stroke-width="3" stroke-linecap="butt" stroke-linejoin="miter" stroke-miterlimit="10" stroke-dasharray="" stroke-dashoffset="0" font-family="Sans Serif" font-weight="normal" text-anchor="start" style="mix-blend-mode: normal"><tspan x="0" dy="0"> NITRO</tspan></text><text transform="translate(253.38513,203.96319) rotate(0.82763) scale(0.21912,0.25203) skewX(-17.564)" font-size="40" xml:space="preserve" fill="#112843" fill-rule="nonzero" stroke="#112843" stroke-width="3" stroke-linecap="butt" stroke-linejoin="miter" stroke-miterlimit="10" stroke-dasharray="" stroke-dashoffset="0" font-family="Sans Serif" font-weight="normal" text-anchor="start" style="mix-blend-mode: normal"><tspan x="0" dy="0">RACING</tspan></text><text transform="translate(198.61656,195.49011) rotate(-2.54591) scale(0.16074,0.18492) skewX(-17.56766)" font-size="40" xml:space="preserve" fill="#112843" fill-rule="nonzero" stroke="#112843" stroke-width="3" stroke-linecap="butt" stroke-linejoin="miter" stroke-miterlimit="10" stroke-dasharray="" stroke-dashoffset="0" font-family="Sans Serif" font-weight="normal" text-anchor="start" style="mix-blend-mode: normal"><tspan x="0" dy="0">SCRATCH</tspan><tspan x="0" dy="48px">  SPEED </tspan></text><path d="M290.81741,234.96117l-5.61453,-4.15121c0,0 1.30012,-4.88166 5.57009,-4.79569c4.85181,0.0977 9.08747,12.57246 9.08747,12.57246z" fill-opacity="0.05098" fill="#000000" stroke="none" stroke-width="0" stroke-linecap="butt"/><path d="M275.78954,240.99381c0,0 4.88686,-2.33721 9.15684,-2.25124c4.85181,0.0977 8.80377,4.47317 8.80377,4.47317c0,0 -8.4183,0.27312 -11.29265,-0.02084c-2.50649,-0.25637 -6.66791,-2.2011 -6.66791,-2.2011z" fill-opacity="0.08235" fill="#000000" stroke="none" stroke-width="0" stroke-linecap="butt"/><path d="M279.90035,254.44262c-0.49834,-1.95203 3.89432,-4.98286 7.92298,-6.40051c4.57763,-1.61088 8.58832,-1.57076 8.74959,0.513c0.14604,1.88703 -6.49116,3.95015 -9.28593,4.68336c-2.43707,0.63939 -7.16764,2.06186 -7.38663,1.20415z" fill-opacity="0.08235" fill="#000000" stroke="none" stroke-width="0" stroke-linecap="butt"/><path d="" fill-opacity="0.05098" fill="#000000" stroke="none" stroke-width="0" stroke-linecap="butt"/><path d="M181.04678,250.96744c0.13574,-1.98584 5.51494,-6.73944 9.92172,-8.45439c5.00727,-1.94863 8.83076,-0.8069 8.32216,1.33593c-0.4606,1.94058 -7.6335,4.48438 -10.61051,5.4155c-2.59596,0.81194 -7.693,2.57549 -7.63338,1.70293z" fill-opacity="0.05882" fill="#000000" stroke="none" stroke-width="0" stroke-linecap="butt"/><path d="M177.37927,228.41507c-0.20372,-1.56139 4.91486,-11.83061 9.99984,-15.96864c5.77796,-4.70195 11.27281,-3.09692 11.04845,-1.17655c-0.20317,1.73907 -9.11888,5.04624 -12.59645,7.67302c-3.03247,2.29057 -8.36237,10.15823 -8.45189,9.47217z" fill-opacity="0.08235" fill="#000000" stroke="none" stroke-width="0" stroke-linecap="butt"/><path d="M295.52926,287.72803c0.32934,2.00581 -0.14473,-0.88133 -0.00002,0z" fill-opacity="0.08235" fill="#000000" stroke="none" stroke-width="0" stroke-linecap="butt"/><path d="M195.80417,272.04727c0.53073,-1.98584 22.61847,4.32746 39.84963,2.61251c19.57928,-1.94863 37.69174,-10.29282 35.70299,-8.14996c3.99593,3.52157 -29.32137,13.4433 -40.96186,14.37442c-10.15063,0.81194 -34.82392,-7.96444 -34.59073,-8.83697z" fill-opacity="0.05882" fill="#000000" stroke="none" stroke-width="0" stroke-linecap="butt"/><path d="M234.93311,286.71917c-0.07004,-18.87532 0.45534,-47.47004 0.58537,-70.12349c0.11465,-19.97479 0.74577,-35.78704 0.74577,-35.78704h4.0837c0,0 -1.89762,16.42489 -2.01346,36.99826c-0.12701,22.56147 0.15935,50.66121 0.22854,69.31375c0.13623,36.71299 -3.49324,36.4367 -3.62993,-0.40147z" fill="#b5b4af" stroke="none" stroke-width="0" stroke-linecap="butt"/><path d="M142.47411,291.23769c1.17957,-1.6033 8.26911,-2.73065 12.90827,-1.81478c5.27134,1.04066 -13.42654,2.51929 -12.90828,1.8148z" fill-opacity="0.05882" fill="#000000" stroke="none" stroke-width="0" stroke-linecap="butt"/><path d="" data-paper-data="{&quot;index&quot;:null}" fill-opacity="0.05882" fill="#000000" stroke="none" stroke-width="0" stroke-linecap="butt"/><g><path d="M191.53324,157.39005c0,0 -0.08844,-2.11438 0.09983,-3.29772c0.252,-1.58397 1.27748,-5.35968 1.27748,-5.35968c0,0 29.93796,14.46031 44.10376,14.07263c16.60005,-0.4543 49.16005,-16.23698 49.16005,-16.23698c0,0 0.12,5.04368 -0.42421,6.85771c-0.37585,1.25279 -2.5272,3.37379 -2.5272,3.37379c0,0 -23.1556,13.46393 -45.83844,14.26714c-21.57016,0.17944 -45.8513,-13.67686 -45.8513,-13.67686z" fill="#130e0b" stroke="none" stroke-width="0" stroke-linecap="butt"/><path d="M183.21187,112.88254l0.20084,-7.01271l7.99954,0.05678l-0.20081,7.01268z" fill="#302e31" stroke="none" stroke-width="0" stroke-linecap="butt"/><path d="M285.04053,111.66389l-0.20081,-7.01268l7.99955,-0.05678l0.20083,7.01268z" data-paper-data="{&quot;index&quot;:null}" fill="#302e31" stroke="none" stroke-width="0" stroke-linecap="butt"/><path d="M285.90551,98.44128l-4.13076,-13.46838l7.64869,-2.34584l4.13076,13.46839z" data-paper-data="{&quot;index&quot;:null}" fill="#302e31" stroke="none" stroke-width="0" stroke-linecap="butt"/><path d="M182.69774,97.37087l4.13075,-13.46838l7.64873,2.34587l-4.13076,13.46838z" fill="#302e31" stroke="none" stroke-width="0" stroke-linecap="butt"/><path d="M193.27069,149.03089c0,0 -7.4674,-22.26079 -8.02558,-32.17704c-0.85757,-15.23477 2.95566,-33.19818 2.95566,-33.19818c0,0 13.92446,-38.21132 49.63182,-38.1578c35.16531,0.05272 49.09812,36.55676 49.09812,36.55676c0,0 4.68106,18.62593 3.69664,33.17618c-0.69518,10.27488 -4.76398,31.13172 -4.76398,31.13172c0,0 -23.91549,19.17323 -46.15107,20.15673c-26.3051,1.16351 -46.4416,-17.48836 -46.4416,-17.48836z" fill="url(#color-7)" stroke="none" stroke-width="0" stroke-linecap="butt"/><path d="M188.05156,119.94247c0,0 -4.00561,-11.2382 -3.94808,-16.41549c0.07464,-6.71893 4.35819,-20.4924 4.35819,-20.4924c0,0 -1.72647,5.9099 3.89158,5.87498c6.45934,-0.04012 25.33317,-7.87875 47.36931,-7.92763c18.04798,-0.04003 33.82416,6.14195 43.78478,5.35927c5.03369,-0.39552 3.99046,-3.92173 3.99046,-3.92173c0,0 4.5237,14.81433 4.11254,21.58014c-0.31429,5.17173 -6.368,15.53279 -6.368,15.53279c0,0 -23.55756,7.44834 -47.1566,8.20258c-28.88162,0.92309 -50.03415,-7.7925 -50.03415,-7.7925z" fill="url(#color-8)" stroke="none" stroke-width="0" stroke-linecap="butt"/><path d="M224.52006,64.67422l2.21825,-8.5168l25.21204,0.01882l-2.21825,8.51682z" fill="url(#color-9)" stroke="#ffffff" stroke-width="0" stroke-linecap="butt"/><text transform="translate(225.37174,63.19016) rotate(0.27086) scale(0.16817,0.19347) skewX(-17.56555)" font-size="40" xml:space="preserve" fill="#112843" fill-rule="nonzero" stroke="#112843" stroke-width="3" stroke-linecap="butt" stroke-linejoin="miter" stroke-miterlimit="10" stroke-dasharray="" stroke-dashoffset="0" font-family="Sans Serif" font-weight="normal" text-anchor="start" style="mix-blend-mode: normal"><tspan x="0" dy="0"> NITRO</tspan></text><text transform="translate(223.71893,71.04424) rotate(0.8311) scale(0.1596,0.18358) skewX(-17.56046)" font-size="40" xml:space="preserve" fill="#112843" fill-rule="nonzero" stroke="#112843" stroke-width="3" stroke-linecap="butt" stroke-linejoin="miter" stroke-miterlimit="10" stroke-dasharray="" stroke-dashoffset="0" font-family="Sans Serif" font-weight="normal" text-anchor="start" style="mix-blend-mode: normal"><tspan x="0" dy="0">RACING</tspan></text><path d="M184.4657,98.81805l2.81626,-10.79569c0,0 2.05244,3.36834 4.21936,3.43937c2.1897,0.0718 25.64892,-8.17657 47.63309,-8.6043c17.6642,-0.34366 32.20458,6.01617 42.72393,5.56195c5.66552,-0.24463 6.33972,-2.5092 6.33972,-2.5092l2.56899,11.59462c0,0 -33.69233,-4.96132 -51.38947,-4.74268c-17.7366,0.21911 -54.91189,6.05594 -54.91189,6.05594z" fill="url(#color-10)" stroke="none" stroke-width="NaN" stroke-linecap="butt"/><path d="M261.00045,143.75801l-0.33575,-7.72457l21.17657,-6.49236l0.33573,7.72457z" fill="url(#color-11)" stroke="#ffffff" stroke-width="0" stroke-linecap="butt"/><text transform="translate(261.33255,142.29194) rotate(-16.81735) scale(0.14776,0.16997) skewX(-17.5715)" font-size="40" xml:space="preserve" fill="#112843" fill-rule="nonzero" stroke="#112843" stroke-width="3" stroke-linecap="butt" stroke-linejoin="miter" stroke-miterlimit="10" stroke-dasharray="" stroke-dashoffset="0" font-family="Sans Serif" font-weight="normal" text-anchor="start" style="mix-blend-mode: normal"><tspan x="0" dy="0"> NITRO</tspan></text><path d="M193.48661,137.76511l0.33572,-7.72457l21.17657,6.49236l-0.33576,7.72454z" data-paper-data="{&quot;index&quot;:null}" fill="url(#color-12)" stroke="#ffffff" stroke-width="0" stroke-linecap="butt"/><text transform="translate(214.33104,142.79139) rotate(-163.18265) scale(0.14776,-0.16997) skewX(-17.5715)" font-size="40" xml:space="preserve" data-paper-data="{&quot;index&quot;:null}" fill="#112843" fill-rule="nonzero" stroke="#112843" stroke-width="3" stroke-linecap="butt" stroke-linejoin="miter" stroke-miterlimit="10" stroke-dasharray="" stroke-dashoffset="0" font-family="Sans Serif" font-weight="normal" text-anchor="start" style="mix-blend-mode: normal"><tspan x="0" dy="0"> NITRO</tspan></text><path d="M216.56614,132.10075c0,0 -10.79738,-1.63838 -15.89046,-2.99655c-4.59523,-1.22538 -13.54469,-4.14581 -13.54469,-4.14581" fill="none" stroke="#b9bdb9" stroke-width="0.5" stroke-linecap="round"/><path d="M289.30584,125.30938c0,0 -8.94946,2.92039 -13.54469,4.14581c-5.09307,1.35817 -15.89046,2.99658 -15.89046,2.99658" data-paper-data="{&quot;index&quot;:null}" fill="none" stroke="#b9bdb9" stroke-width="0.5" stroke-linecap="round"/></g></g></g></svg>