<svg version="1.1" xmlns="http://www.w3.org/2000/svg" xmlns:xlink="http://www.w3.org/1999/xlink" width="142.30004" height="142.30004" viewBox="0,0,142.30004,142.30004"><defs><radialGradient cx="338.12795" cy="167.85952" r="13.82455" gradientUnits="userSpaceOnUse" id="color-1"><stop offset="0" stop-color="#f07070"/><stop offset="1" stop-color="#cf5555"/></radialGradient><radialGradient cx="338.12795" cy="167.85952" r="11.92469" gradientUnits="userSpaceOnUse" id="color-2"><stop offset="0" stop-color="#ff9d9d"/><stop offset="1" stop-color="#ff9d9d" stop-opacity="0"/></radialGradient><radialGradient cx="338.12795" cy="167.85952" r="11.92469" gradientUnits="userSpaceOnUse" id="color-3"><stop offset="0" stop-color="#ff9d9d"/><stop offset="1" stop-color="#ff9d9d" stop-opacity="0"/></radialGradient><radialGradient cx="282.13844" cy="167.43694" r="13.58909" gradientUnits="userSpaceOnUse" id="color-4"><stop offset="0" stop-color="#f7f7f7"/><stop offset="1" stop-color="#cecece"/></radialGradient><radialGradient cx="282.13844" cy="167.43694" r="11.72159" gradientUnits="userSpaceOnUse" id="color-5"><stop offset="0" stop-color="#f7f7f7"/><stop offset="1" stop-color="#f7f7f7" stop-opacity="0"/></radialGradient><radialGradient cx="310.23691" cy="167.68672" r="13.82455" gradientUnits="userSpaceOnUse" id="color-6"><stop offset="0" stop-color="#f07070"/><stop offset="1" stop-color="#cf5555"/></radialGradient><radialGradient cx="310.23691" cy="167.68672" r="11.92468" gradientUnits="userSpaceOnUse" id="color-7"><stop offset="0" stop-color="#ff9d9d"/><stop offset="1" stop-color="#ff9d9d" stop-opacity="0"/></radialGradient><radialGradient cx="310.23691" cy="167.68672" r="11.92468" gradientUnits="userSpaceOnUse" id="color-8"><stop offset="0" stop-color="#ff9d9d"/><stop offset="1" stop-color="#ff9d9d" stop-opacity="0"/></radialGradient><radialGradient cx="309.92586" cy="191.53407" r="13.82455" gradientUnits="userSpaceOnUse" id="color-9"><stop offset="0" stop-color="#f07070"/><stop offset="1" stop-color="#cf5555"/></radialGradient><radialGradient cx="309.92586" cy="191.53407" r="11.92469" gradientUnits="userSpaceOnUse" id="color-10"><stop offset="0" stop-color="#ff9d9d"/><stop offset="1" stop-color="#ff9d9d" stop-opacity="0"/></radialGradient><radialGradient cx="309.92586" cy="191.53407" r="11.92469" gradientUnits="userSpaceOnUse" id="color-11"><stop offset="0" stop-color="#ff9d9d"/><stop offset="1" stop-color="#ff9d9d" stop-opacity="0"/></radialGradient><radialGradient cx="282.00019" cy="191.21517" r="13.58909" gradientUnits="userSpaceOnUse" id="color-12"><stop offset="0" stop-color="#f7f7f7"/><stop offset="1" stop-color="#cecece"/></radialGradient><radialGradient cx="282.00019" cy="191.21517" r="11.72159" gradientUnits="userSpaceOnUse" id="color-13"><stop offset="0" stop-color="#f7f7f7"/><stop offset="1" stop-color="#f7f7f7" stop-opacity="0"/></radialGradient><radialGradient cx="254.62757" cy="167.43694" r="13.5891" gradientUnits="userSpaceOnUse" id="color-14"><stop offset="0" stop-color="#f7f7f7"/><stop offset="1" stop-color="#cecece"/></radialGradient><radialGradient cx="254.62757" cy="167.43694" r="11.72159" gradientUnits="userSpaceOnUse" id="color-15"><stop offset="0" stop-color="#f7f7f7"/><stop offset="1" stop-color="#f7f7f7" stop-opacity="0"/></radialGradient><radialGradient cx="254.48932" cy="191.21517" r="13.58909" gradientUnits="userSpaceOnUse" id="color-16"><stop offset="0" stop-color="#f7f7f7"/><stop offset="1" stop-color="#cecece"/></radialGradient><radialGradient cx="254.48932" cy="191.21517" r="11.72159" gradientUnits="userSpaceOnUse" id="color-17"><stop offset="0" stop-color="#f7f7f7"/><stop offset="1" stop-color="#f7f7f7" stop-opacity="0"/></radialGradient><radialGradient cx="224.90485" cy="167.85952" r="13.82455" gradientUnits="userSpaceOnUse" id="color-18"><stop offset="0" stop-color="#f07070"/><stop offset="1" stop-color="#cf5555"/></radialGradient><radialGradient cx="224.90485" cy="167.85952" r="11.92468" gradientUnits="userSpaceOnUse" id="color-19"><stop offset="0" stop-color="#ff9d9d"/><stop offset="1" stop-color="#ff9d9d" stop-opacity="0"/></radialGradient><radialGradient cx="224.90485" cy="167.85952" r="11.92468" gradientUnits="userSpaceOnUse" id="color-20"><stop offset="0" stop-color="#ff9d9d"/><stop offset="1" stop-color="#ff9d9d" stop-opacity="0"/></radialGradient><radialGradient cx="168.91533" cy="167.43694" r="13.5891" gradientUnits="userSpaceOnUse" id="color-21"><stop offset="0" stop-color="#f7f7f7"/><stop offset="1" stop-color="#cecece"/></radialGradient><radialGradient cx="168.91533" cy="167.43694" r="11.72159" gradientUnits="userSpaceOnUse" id="color-22"><stop offset="0" stop-color="#f7f7f7"/><stop offset="1" stop-color="#f7f7f7" stop-opacity="0"/></radialGradient><radialGradient cx="197.01381" cy="167.68672" r="13.82456" gradientUnits="userSpaceOnUse" id="color-23"><stop offset="0" stop-color="#f07070"/><stop offset="1" stop-color="#cf5555"/></radialGradient><radialGradient cx="197.01381" cy="167.68672" r="11.92469" gradientUnits="userSpaceOnUse" id="color-24"><stop offset="0" stop-color="#ff9d9d"/><stop offset="1" stop-color="#ff9d9d" stop-opacity="0"/></radialGradient><radialGradient cx="197.01381" cy="167.68672" r="11.92469" gradientUnits="userSpaceOnUse" id="color-25"><stop offset="0" stop-color="#ff9d9d"/><stop offset="1" stop-color="#ff9d9d" stop-opacity="0"/></radialGradient><radialGradient cx="196.70276" cy="191.53407" r="13.82455" gradientUnits="userSpaceOnUse" id="color-26"><stop offset="0" stop-color="#f07070"/><stop offset="1" stop-color="#cf5555"/></radialGradient><radialGradient cx="196.70276" cy="191.53407" r="11.92468" gradientUnits="userSpaceOnUse" id="color-27"><stop offset="0" stop-color="#ff9d9d"/><stop offset="1" stop-color="#ff9d9d" stop-opacity="0"/></radialGradient><radialGradient cx="196.70276" cy="191.53407" r="11.92468" gradientUnits="userSpaceOnUse" id="color-28"><stop offset="0" stop-color="#ff9d9d"/><stop offset="1" stop-color="#ff9d9d" stop-opacity="0"/></radialGradient><radialGradient cx="168.77709" cy="191.21517" r="13.58909" gradientUnits="userSpaceOnUse" id="color-29"><stop offset="0" stop-color="#f7f7f7"/><stop offset="1" stop-color="#cecece"/></radialGradient><radialGradient cx="168.77709" cy="191.21517" r="11.72159" gradientUnits="userSpaceOnUse" id="color-30"><stop offset="0" stop-color="#f7f7f7"/><stop offset="1" stop-color="#f7f7f7" stop-opacity="0"/></radialGradient><radialGradient cx="141.40447" cy="167.43694" r="13.5891" gradientUnits="userSpaceOnUse" id="color-31"><stop offset="0" stop-color="#f7f7f7"/><stop offset="1" stop-color="#cecece"/></radialGradient><radialGradient cx="141.40447" cy="167.43694" r="11.72159" gradientUnits="userSpaceOnUse" id="color-32"><stop offset="0" stop-color="#f7f7f7"/><stop offset="1" stop-color="#f7f7f7" stop-opacity="0"/></radialGradient><radialGradient cx="141.26622" cy="191.21517" r="13.5891" gradientUnits="userSpaceOnUse" id="color-33"><stop offset="0" stop-color="#f7f7f7"/><stop offset="1" stop-color="#cecece"/></radialGradient><radialGradient cx="141.26622" cy="191.21517" r="11.72159" gradientUnits="userSpaceOnUse" id="color-34"><stop offset="0" stop-color="#f7f7f7"/><stop offset="1" stop-color="#f7f7f7" stop-opacity="0"/></radialGradient><radialGradient cx="338.49832" cy="191.56323" r="13.82455" gradientUnits="userSpaceOnUse" id="color-35"><stop offset="0" stop-color="#f07070"/><stop offset="1" stop-color="#cf5555"/></radialGradient><radialGradient cx="338.49832" cy="191.56323" r="11.92469" gradientUnits="userSpaceOnUse" id="color-36"><stop offset="0" stop-color="#ff9d9d"/><stop offset="1" stop-color="#ff9d9d" stop-opacity="0"/></radialGradient><radialGradient cx="338.49832" cy="191.56323" r="11.92469" gradientUnits="userSpaceOnUse" id="color-37"><stop offset="0" stop-color="#ff9d9d"/><stop offset="1" stop-color="#ff9d9d" stop-opacity="0"/></radialGradient><radialGradient cx="224.79846" cy="192.32761" r="13.82455" gradientUnits="userSpaceOnUse" id="color-38"><stop offset="0" stop-color="#f07070"/><stop offset="1" stop-color="#cf5555"/></radialGradient><radialGradient cx="224.79846" cy="192.32761" r="11.92468" gradientUnits="userSpaceOnUse" id="color-39"><stop offset="0" stop-color="#ff9d9d"/><stop offset="1" stop-color="#ff9d9d" stop-opacity="0"/></radialGradient><radialGradient cx="224.79846" cy="192.32761" r="11.92468" gradientUnits="userSpaceOnUse" id="color-40"><stop offset="0" stop-color="#ff9d9d"/><stop offset="1" stop-color="#ff9d9d" stop-opacity="0"/></radialGradient><radialGradient cx="239.96141" cy="180.11208" r="11.28951" gradientUnits="userSpaceOnUse" id="color-41"><stop offset="0" stop-color="#d6a965"/><stop offset="1" stop-color="#d6a965" stop-opacity="0"/></radialGradient></defs><g transform="translate(-168.84998,-108.84998)"><g data-paper-data="{&quot;isPaintingLayer&quot;:true}" fill-rule="nonzero" stroke-width="0" stroke-linecap="butt" stroke-linejoin="miter" stroke-miterlimit="10" stroke-dasharray="" stroke-dashoffset="0" style="mix-blend-mode: normal"><g><g><path d="" fill="url(#color-1)" stroke="#bfbfbf"/><path d="" fill="url(#color-2)" stroke="none"/><path d="" fill="#a3a3a3" stroke="none"/><path d="" fill="url(#color-3)" stroke="none"/><path d="" fill="#323232" stroke="none"/></g><g><path d="" fill="url(#color-4)" stroke="#bfbfbf"/><path d="" fill="url(#color-5)" stroke="none"/><path d="" fill="#a3a3a3" stroke="none"/><path d="" fill="#323232" stroke="none"/></g><g><path d="" fill="url(#color-6)" stroke="#bfbfbf"/><path d="" fill="url(#color-7)" stroke="none"/><path d="" fill="#a3a3a3" stroke="none"/><path d="" fill="url(#color-8)" stroke="none"/><path d="" fill="#323232" stroke="none"/></g><g><path d="" fill="url(#color-9)" stroke="#bfbfbf"/><path d="" fill="url(#color-10)" stroke="none"/><path d="" fill="#a3a3a3" stroke="none"/><path d="" fill="url(#color-11)" stroke="none"/><path d="" fill="#323232" stroke="none"/></g><g><path d="" fill="url(#color-12)" stroke="#bfbfbf"/><path d="" fill="url(#color-13)" stroke="none"/><path d="" fill="#a3a3a3" stroke="none"/><path d="" fill="#323232" stroke="none"/></g><g><path d="" fill="url(#color-14)" stroke="#bfbfbf"/><path d="" fill="url(#color-15)" stroke="none"/><path d="" fill="#a3a3a3" stroke="none"/><path d="" fill="#323232" stroke="none"/></g><g><path d="" fill="url(#color-16)" stroke="#bfbfbf"/><path d="" fill="url(#color-17)" stroke="none"/><path d="" fill="#a3a3a3" stroke="none"/><path d="" fill="#323232" stroke="none"/></g><g><path d="" fill="url(#color-18)" stroke="#bfbfbf"/><path d="" fill="url(#color-19)" stroke="none"/><path d="" fill="#a3a3a3" stroke="none"/><path d="" fill="url(#color-20)" stroke="none"/><path d="" fill="#323232" stroke="none"/></g><g><path d="" fill="url(#color-21)" stroke="#bfbfbf"/><path d="" fill="url(#color-22)" stroke="none"/><path d="" fill="#a3a3a3" stroke="none"/><path d="" fill="#323232" stroke="none"/></g><g><path d="" fill="url(#color-23)" stroke="#bfbfbf"/><path d="" fill="url(#color-24)" stroke="none"/><path d="" fill="#a3a3a3" stroke="none"/><path d="" fill="url(#color-25)" stroke="none"/><path d="" fill="#323232" stroke="none"/></g><g><path d="" fill="url(#color-26)" stroke="#bfbfbf"/><path d="" fill="url(#color-27)" stroke="none"/><path d="" fill="#a3a3a3" stroke="none"/><path d="" fill="url(#color-28)" stroke="none"/><path d="" fill="#323232" stroke="none"/></g><g><path d="" fill="url(#color-29)" stroke="#bfbfbf"/><path d="" fill="url(#color-30)" stroke="none"/><path d="" fill="#a3a3a3" stroke="none"/><path d="" fill="#323232" stroke="none"/></g><g><path d="" fill="url(#color-31)" stroke="#bfbfbf"/><path d="" fill="url(#color-32)" stroke="none"/><path d="" fill="#a3a3a3" stroke="none"/><path d="" fill="#323232" stroke="none"/></g><g><path d="" fill="url(#color-33)" stroke="#bfbfbf"/><path d="" fill="url(#color-34)" stroke="none"/><path d="" fill="#a3a3a3" stroke="none"/><path d="" fill="#323232" stroke="none"/></g><g><path d="" fill="url(#color-35)" stroke="#bfbfbf"/><path d="" fill="url(#color-36)" stroke="none"/><path d="" fill="#a3a3a3" stroke="none"/><path d="" fill="url(#color-37)" stroke="none"/><path d="" fill="#323232" stroke="none"/></g><g><path d="" fill="url(#color-38)" stroke="#bfbfbf"/><path d="" fill="url(#color-39)" stroke="none"/><path d="" fill="#a3a3a3" stroke="none"/><path d="" fill="url(#color-40)" stroke="none"/><path d="" fill="#323232" stroke="none"/></g></g><path d="M224.99565,180.25788c0,-0.84053 0.79102,-1.42423 0.92298,-2.2274c0.29226,-1.7788 0.12833,-3.70859 0.91747,-5.24289c0.82034,-1.59496 2.44964,-2.51866 3.60642,-3.90411c1.21861,-1.4595 3.23806,-1.65548 4.79174,-2.21624c1.69011,-0.61001 2.93943,-1.51926 4.8713,-1.51926c0.85755,0 1.57802,0.31223 2.39657,0.44948c1.66358,0.27894 4.20471,0.69627 5.64676,1.45162c1.39099,0.72861 1.97105,2.03121 2.94733,3.14245c1.00204,1.14056 2.49783,2.2745 3.19464,3.65146c0.94414,1.86571 0.92462,4.07694 0.92462,6.4149c0,1.47803 -1.1754,2.90649 -1.57102,4.25658c-0.47382,1.61693 -0.66512,3.60305 -1.5206,4.94566c-1.2113,1.90107 -3.58426,1.42957 -5.16092,3.02967c-1.27438,1.29333 -2.70794,2.41565 -4.40263,2.83598c-0.75431,0.18709 -1.65691,0.04202 -2.45474,0.04202c-1.5419,0 -2.78907,-0.59215 -4.19039,-1.02136c-1.22984,-0.37668 -3.00445,-0.41018 -4.09396,-1.04725c-0.92344,-0.53997 -1.57227,-1.38478 -2.38627,-2.04821c-1.29724,-1.05727 -1.76912,-2.52206 -2.45235,-3.87053c-0.5284,-1.04288 -1.60664,-2.10546 -1.96034,-3.22041c-0.38806,-1.22329 -0.02661,-2.50961 -0.02661,-3.90215z" fill="#906235" stroke="none"/><path d="M226.98285,180.27444c0,-7.34757 5.95638,-13.30395 13.30395,-13.30395c7.34757,0 13.30395,5.95638 13.30395,13.30395c0,7.34757 -5.95638,13.30395 -13.30395,13.30395c-7.34757,0 -13.30395,-5.95638 -13.30395,-13.30395z" fill="#f5c67a" stroke="none"/><path d="M240.4284,167.89183c6.78913,0.27872 12.09952,5.98604 11.86106,12.74765c-0.23845,6.76161 -5.93544,12.01705 -12.72458,11.73833c-6.78913,-0.27872 -12.09951,-5.98603 -11.86106,-12.74765c0.23845,-6.76161 5.93544,-12.01705 12.72457,-11.73833z" fill="#eba755" stroke="none"/><path d="M247.79971,173.10709c4.20472,4.64323 4.13879,11.55373 -0.14727,15.43501c-4.28606,3.88128 -11.1692,3.26359 -15.37392,-1.37964c-4.20472,-4.64323 -4.13879,-11.55372 0.14728,-15.435c4.28606,-3.88128 11.1692,-3.2636 15.37392,1.37963z" fill="#f5c67a" stroke="none"/><path d="M240.30637,170.60368c5.21002,0.21971 9.28525,4.71865 9.10226,10.04867c-0.18299,5.33002 -4.5549,9.47275 -9.76493,9.25304c-5.21002,-0.21971 -9.28525,-4.71865 -9.10226,-10.04867c0.18299,-5.33002 4.5549,-9.47275 9.76493,-9.25305z" fill="#eba755" stroke="none"/><path d="M246.13718,174.61894c3.35228,3.70189 3.29971,9.21139 -0.11741,12.3058c-3.41713,3.09441 -8.90482,2.60195 -12.2571,-1.09994c-3.35228,-3.70189 -3.29971,-9.21138 0.11742,-12.30579c3.41713,-3.09441 8.90481,-2.60195 12.25709,1.09994z" fill="#f5c67a" stroke="none"/><path d="M233.60768,183.32465c-1.90724,-3.70588 -0.68024,-8.1373 2.74057,-9.89783c3.42082,-1.76053 7.74007,-0.1835 9.64731,3.52239c1.90724,3.70588 0.68025,8.1373 -2.74057,9.89782c-3.42082,1.76053 -7.74007,0.18351 -9.64731,-3.52238z" fill="#eba755" stroke="none"/><path d="M234.51231,178.25931c1.05451,-3.16526 4.27794,-4.94213 7.19972,-3.96873c2.92178,0.9734 4.4355,4.32844 3.38099,7.49371c-1.05451,3.16526 -4.27794,4.94213 -7.19972,3.96873c-2.92178,-0.9734 -4.4355,-4.32844 -3.38099,-7.4937z" fill="#f5c67a" stroke="none"/><path d="M236.43475,179.90668c0,-1.92479 1.56035,-3.48513 3.48513,-3.48513c1.92479,0 3.48513,1.56035 3.48513,3.48513c0,1.92479 -1.56035,3.48513 -3.48513,3.48513c-1.92479,0 -3.48513,-1.56035 -3.48513,-3.48513z" fill="#eba755" stroke="none"/><path d="M228.6719,180.11208c0,-6.23502 5.05448,-11.28951 11.28951,-11.28951c6.23502,0 11.28951,5.05448 11.28951,11.28951c0,6.23502 -5.05448,11.2895 -11.28951,11.2895c-6.23502,0 -11.28951,-5.05448 -11.28951,-11.2895z" fill="url(#color-41)" stroke="none"/><path d="M168.84998,251.15002v-142.30004h142.30004v142.30004z" fill="none" stroke="none"/></g></g></svg>