<svg version="1.1" xmlns="http://www.w3.org/2000/svg" xmlns:xlink="http://www.w3.org/1999/xlink" width="279.22975" height="195.75397" viewBox="0,0,279.22975,195.75397"><defs><radialGradient cx="261.19536" cy="173.04388" r="28.38608" gradientUnits="userSpaceOnUse" id="color-1"><stop offset="0" stop-color="#024211"/><stop offset="1" stop-color="#024211" stop-opacity="0"/></radialGradient><linearGradient x1="227.16602" y1="621.79184" x2="227.16602" y2="-122.07889" gradientUnits="userSpaceOnUse" id="color-2"><stop offset="0" stop-color="#6b6b6b"/><stop offset="1" stop-color="#6b6b6b" stop-opacity="0"/></linearGradient><linearGradient x1="224.27414" y1="751.46167" x2="224.27414" y2="-181.81921" gradientUnits="userSpaceOnUse" id="color-3"><stop offset="0" stop-color="#6b6b6b"/><stop offset="1" stop-color="#6b6b6b" stop-opacity="0"/></linearGradient><linearGradient x1="216.25471" y1="763.30854" x2="216.25471" y2="-169.97233" gradientUnits="userSpaceOnUse" id="color-4"><stop offset="0" stop-color="#6b6b6b"/><stop offset="1" stop-color="#6b6b6b" stop-opacity="0"/></linearGradient><linearGradient x1="245.14287" y1="751.73506" x2="245.14287" y2="-181.54582" gradientUnits="userSpaceOnUse" id="color-5"><stop offset="0" stop-color="#6b6b6b"/><stop offset="1" stop-color="#6b6b6b" stop-opacity="0"/></linearGradient><linearGradient x1="239.11874" y1="764.04663" x2="239.11874" y2="-169.23424" gradientUnits="userSpaceOnUse" id="color-6"><stop offset="0" stop-color="#6b6b6b"/><stop offset="1" stop-color="#6b6b6b" stop-opacity="0"/></linearGradient><linearGradient x1="227.91933" y1="769.32311" x2="227.91933" y2="-163.95777" gradientUnits="userSpaceOnUse" id="color-7"><stop offset="0" stop-color="#6b6b6b"/><stop offset="1" stop-color="#6b6b6b" stop-opacity="0"/></linearGradient></defs><g transform="translate(-106.5819,-84.02976)"><g data-paper-data="{&quot;isPaintingLayer&quot;:true}" fill-rule="nonzero" stroke-linejoin="miter" stroke-miterlimit="10" stroke-dasharray="" stroke-dashoffset="0" style="mix-blend-mode: normal"><path d="M165.34689,200.70485v-65.82418h149.11562v65.82418z" fill="#07d437" stroke="none" stroke-width="0" stroke-linecap="butt"/><g fill="none" stroke="#d4d4d4" stroke-width="0.5" stroke-linecap="round"><path d="M319.04864,184.09725h-155.27292"/><path d="M162.76311,166.51451h155.27291"/><path d="M318.86453,148.83972h-155.27291"/><path d="M317.85191,130.70466h-155.27292"/><path d=""/><path d="M253.98575,205.77041v-71.26567"/><path d="M236.40303,134.98011v71.26568"/><path d="M218.72824,205.98649v-71.26568"/><path d="M200.59317,135.19619v71.26568"/><path d="M183.83895,133.85646v71.26568"/><path d="M306.91805,135.64137v71.26568"/><path d="M288.78299,136.11675v71.26568"/><path d="M272.02876,206.04272v-71.26568"/></g><path d="M172.67269,220.47772c0,0 -7.44991,-17.54175 -10.91828,-25.70849c-3.15699,-7.43356 -3.2051,-23.78014 1.50549,-25.78071c9.54955,-4.05565 43.36332,-18.41622 43.36332,-18.41622l19.96414,47.00811z" fill="#9a9a9a" stroke="none" stroke-width="0" stroke-linecap="butt"/><path d="M232.80929,173.04388c0,-15.6772 12.70888,-28.38608 28.38608,-28.38608c15.67719,0 28.38608,12.70888 28.38608,28.38608c0,15.6772 -12.70888,28.38608 -28.38608,28.38608c-15.6772,0 -28.38608,-12.70888 -28.38608,-28.38608z" fill="url(#color-1)" stroke="none" stroke-width="0" stroke-linecap="butt"/><path d="M225.95488,196.57644l-53.22122,22.60282" fill="none" stroke="#bcbcbc" stroke-width="4.5" stroke-linecap="round"/><path d="M206.74905,151.71621c0,0 -33.98434,14.433 -43.27422,18.37837" fill="none" stroke="#bcbcbc" stroke-width="4.5" stroke-linecap="round"/><path d="M313.91382,201.38643v-66.2h7v66.2z" fill="#efefef" stroke="none" stroke-width="0" stroke-linecap="butt"/><path d="M106.5819,279.78373v-195.75397h279.22975v195.75397z" fill="none" stroke="none" stroke-width="0" stroke-linecap="butt"/><g stroke="none" stroke-linecap="butt"><path d="M194.32687,135.20863c0,0 0.7861,-1.57148 1.92323,-1.24419c0.54393,0.15655 0.54617,1.05017 0.83794,1.73884c0.28671,0.67673 0.86767,1.15004 0.86767,1.15004c0,0 2.17301,-0.19665 2.57008,1.45494c0.31738,1.12822 -0.69603,1.89162 -0.69603,1.89162c0,0 -0.35537,0.85414 -0.53301,1.31742c-0.15941,0.41573 -0.48406,1.33506 -0.48406,1.33506c0,0 -1.1577,0.08568 -1.85438,0.55133c-0.69183,0.46241 -0.88356,1.16976 -0.88356,1.16976c0,0 -1.33656,1.31299 -1.90758,1.67685c-0.40659,0.25908 -1.19601,0.45271 -1.19601,0.45271c0,0 -4.08808,-2.26222 -4.94478,-3.88225c-0.81359,-1.53851 1.06021,-2.4029 1.06021,-2.4029c0,0 -1.29537,-1.5924 -1.03332,-2.49943c0.39156,-1.35534 2.19574,-1.42114 2.19574,-1.42114c0,0 0.68546,-2.64668 1.60791,-2.82097c1.23312,-0.23299 2.46996,1.53232 2.46996,1.53232z" fill="url(#color-2)" stroke-width="0"/><path d="M171.39535,150.79719c0,0 -0.26486,0.12883 -0.47043,0.17038c-0.1338,0.02704 -0.24248,-0.00389 -0.23667,-0.05939c0.04713,-0.45051 -0.46222,-1.40556 -0.16605,-2.82626c0.74435,-3.57064 2.89456,-9.11362 4.69732,-9.86005c3.03847,-1.25808 13.61388,5.35507 13.61388,5.35507c0,0 3.3596,3.36264 4.48739,3.03576c1.72592,-0.50025 3.65525,-3.30964 2.97392,-2.14728c-0.3869,0.66004 0.33562,2.12713 0.33562,2.12713c0,0 1.6351,1.9606 1.49798,2.4652c-0.34562,1.27185 -9.56375,7.18738 -9.56375,7.18738c0,0 -0.8082,-2.74685 -2.53109,-1.63442c-0.59803,0.38613 -2.55854,-0.54659 -2.55854,-0.54659c0,0 -2.70129,1.18582 -3.91424,0.72814c-1.17174,-0.34242 -1.09844,-2.5582 -1.98607,-3.45576c-0.68644,-0.69412 -2.53982,1.43048 -2.53982,1.43048c0,0 -1.18461,-1.27881 -1.83062,-1.65262c-0.48189,-0.27884 -1.80882,-0.31716 -1.80882,-0.31716z" fill="url(#color-3)" stroke-width="0"/><path d="M175.0538,152.82773c0,0 1.24143,-1.89873 2.41293,-1.561c0.68243,0.19642 0.68525,1.31759 1.05131,2.1816c0.35972,0.84904 1.08861,1.44287 1.08861,1.44287c0,0 2.72632,-0.24672 3.22448,1.82541c0.39819,1.41548 -2.0166,2.06839 -2.0166,2.06839c0,0 1.84575,1.8853 1.51793,3.09167c-0.34562,1.27185 -3.06316,1.59808 -3.06316,1.59808c0,0 0.46762,1.87039 -1.25527,2.98282c-0.59803,0.38613 -2.55854,-0.54659 -2.55854,-0.54659c0,0 -2.03301,1.18581 -3.24596,0.72813c-1.32375,-0.49949 -1.91084,-2.52945 -1.91084,-2.52945c0,0 -2.07484,0.30098 -3.14967,-1.73154c-1.02076,-1.93026 1.33017,-3.01474 1.33017,-3.01474c0,0 -1.62519,-1.99788 -1.29644,-3.13586c0.49125,-1.70045 2.75482,-1.783 2.75482,-1.783c0,0 0.86,-3.32061 2.01733,-3.53928c1.5471,-0.29231 3.09888,1.92249 3.09888,1.92249z" fill="url(#color-4)" stroke-width="0"/><path d="M203.94195,141.25426c0,0 0.98627,-1.97163 2.41293,-1.561c0.68243,0.19642 0.68525,1.31759 1.05132,2.1816c0.35972,0.84904 1.08861,1.44287 1.08861,1.44287c0,0 2.72632,-0.24672 3.22449,1.82541c0.39819,1.41548 -2.0166,2.06839 -2.0166,2.06839c0,0 1.84574,1.8853 1.51792,3.09167c-0.34562,1.27185 -3.06315,1.59808 -3.06315,1.59808c0,0 0.46762,1.87039 -1.25527,2.98282c-0.59803,0.38613 -2.55854,-0.54659 -2.55854,-0.54659c0,0 -2.03301,1.18582 -3.24596,0.72814c-1.32375,-0.49949 -1.91085,-2.52945 -1.91085,-2.52945c0,0 -2.07483,0.30098 -3.14966,-1.73154c-1.02076,-1.93026 1.33016,-3.01474 1.33016,-3.01474c0,0 -1.50369,-2.11939 -1.17493,-3.25737c0.49125,-1.70045 2.63332,-1.6615 2.63332,-1.6615c0,0 0.86,-3.32061 2.01733,-3.53928c1.5471,-0.29231 3.09888,1.92249 3.09888,1.92249z" fill="url(#color-5)" stroke-width="0"/><path d="M197.91783,153.56582c0,0 0.98628,-1.97163 2.41294,-1.561c1.35303,0.38943 2.13992,3.62447 2.13992,3.62447c0,0 2.57721,-0.24366 3.07538,1.5272c0.39819,1.41549 -1.86749,2.3666 -1.86749,2.3666c0,0 1.84574,1.8853 1.51792,3.09167c-0.34562,1.27185 -3.06315,1.59808 -3.06315,1.59808c0,0 0.46762,1.87038 -1.25527,2.98281c-0.59803,0.38613 -2.55855,-0.54659 -2.55855,-0.54659c0,0 -2.033,1.18582 -3.24595,0.72813c-1.32375,-0.49949 -2.55901,-2.6192 -2.55901,-2.6192c0,0 2.77408,-0.58604 1.69924,-2.61856c-0.81991,-1.39467 -2.98622,-1.23616 -2.98622,-1.23616c0,0 -0.64719,-0.66529 -0.99406,-1.5586c-0.3164,-0.81482 -0.34357,-1.83622 -0.18674,-2.37906c0.49125,-1.70045 2.75483,-1.78301 2.75483,-1.78301c0,0 0.86,-3.3206 2.01734,-3.53927c1.5471,-0.29231 3.09888,1.92248 3.09888,1.92248z" fill="url(#color-6)" stroke-width="0"/><path d="M186.71842,158.84231c0,0 0.98627,-1.97163 2.41293,-1.561c0.68243,0.19642 0.68525,1.31759 1.05132,2.1816c0.35972,0.84904 1.08861,1.44287 1.08861,1.44287c0,0 2.72632,-0.24673 3.22449,1.82541c0.39819,1.41548 -2.0166,2.06839 -2.0166,2.06839c0,0 1.84575,1.8853 1.51793,3.09167c-0.34562,1.27185 -3.06316,1.59808 -3.06316,1.59808c0,0 0.46762,1.87039 -1.25527,2.98282c-0.59803,0.38613 -2.55854,-0.54659 -2.55854,-0.54659c0,0 -2.03301,1.18582 -3.24596,0.72814c-1.32375,-0.49949 -1.91085,-2.52945 -1.91085,-2.52945c0,0 -2.07483,0.30098 -3.14967,-1.73155c-1.02076,-1.93026 1.33016,-3.01474 1.33016,-3.01474c0,0 -1.62519,-1.99788 -1.29644,-3.13586c0.49125,-1.70045 2.75483,-1.783 2.75483,-1.783c0,0 0.85999,-3.3206 2.01733,-3.53927c1.5471,-0.29231 3.09888,1.92248 3.09888,1.92248z" fill="url(#color-7)" stroke-width="0"/><g stroke-width="0"><path d="M178.46846,143.30781c-0.29671,-1.8582 1.2897,-2.37542 1.2897,-2.37542c0,0 -1.71259,-1.91041 -1.10891,-3.14481c0.44393,-0.90776 2.37149,-1.01901 2.37149,-1.01901c0,0 0.55044,-3.0048 1.94763,-3.0048c1.49027,0 2.24361,1.72304 2.24361,1.72304c0,0 0.89316,-1.99111 2.08528,-1.51893c1.14621,0.454 1.08548,1.38538 1.60282,2.87151c0.26586,0.76381 2.44753,-0.42423 2.82627,1.28661c0.37739,1.70472 -1.29093,2.28885 -1.29093,2.28885c0,0 1.19544,1.09422 1.21636,2.24586c0.02867,1.57638 -2.73483,1.71585 -2.73483,1.71585c0,0 0.44057,2.07477 -1.5137,2.63392c-0.12654,0.03621 -1.80315,-0.61213 -1.91278,-0.61213c-0.04712,0 -0.65987,1.00279 -2.56106,0.71626c-0.85319,-0.12859 -1.65462,-2.42876 -1.65462,-2.42876c0,0 -2.53047,0.34945 -2.8063,-1.37796z" fill="#619042"/><path d="M179.50429,142.82822c-0.24736,-1.54907 1.07514,-1.98027 1.07514,-1.98027c0,0 -1.42769,-1.5926 -0.92443,-2.62166c0.37008,-0.75674 1.97696,-0.84948 1.97696,-0.84948c0,0 0.45888,-2.50495 1.62364,-2.50495c1.24238,0 1.87035,1.43641 1.87035,1.43641c0,0 0.74457,-1.65986 1.7384,-1.26624c0.95551,0.37848 0.90489,1.1549 1.33616,2.39382c0.22165,0.63674 2.04037,-0.35363 2.35611,1.0726c0.31461,1.42114 -1.07619,1.90806 -1.07619,1.90806c0,0 0.99658,0.91217 1.01405,1.87224c0.0239,1.31412 -2.27988,1.4304 -2.27988,1.4304c0,0 0.36727,1.72964 -1.26188,2.19573c-0.10547,0.03018 -1.50318,-0.5103 -1.59459,-0.5103c-0.03928,0 -0.55011,0.83597 -2.13501,0.59708c-0.71125,-0.1072 -1.37937,-2.02472 -1.37937,-2.02472c0,0 -2.10952,0.29132 -2.33945,-1.14872z" fill="#7ca95d"/></g><g stroke-width="0"><path d="M177.8885,162.42173c-0.3086,-1.9326 1.34133,-2.47054 1.34133,-2.47054c0,0 -1.78115,-1.9869 -1.1533,-3.27072c0.4617,-0.9441 2.46642,-1.0598 2.46642,-1.0598c0,0 0.57249,-3.1251 2.02559,-3.1251c1.54994,0 2.33344,1.79203 2.33344,1.79203c0,0 0.92892,-2.07083 2.16877,-1.57973c1.19209,0.47217 1.12893,1.44082 1.66698,2.98647c0.27651,0.79438 2.54552,-0.4412 2.93942,1.33812c0.3925,1.77299 -1.34261,2.38047 -1.34261,2.38047c0,0 1.2433,1.13802 1.26507,2.33577c0.02982,1.63948 -2.84434,1.78454 -2.84434,1.78454c0,0 0.4582,2.15785 -1.5743,2.73936c-0.13162,0.03766 -1.87535,-0.63665 -1.98937,-0.63665c-0.04902,0 -0.68628,1.04294 -2.66357,0.74493c-0.88734,-0.13375 -1.72087,-2.526 -1.72087,-2.526c0,0 -2.63179,0.36343 -2.91866,-1.43313z" fill="#619258"/><path d="M178.96581,161.92295c-0.25725,-1.6111 1.11818,-2.05955 1.11818,-2.05955c0,0 -1.48484,-1.65637 -0.96144,-2.72661c0.38489,-0.78705 2.05611,-0.8835 2.05611,-0.8835c0,0 0.47724,-2.60521 1.68864,-2.60521c1.29211,0 1.94525,1.49391 1.94525,1.49391c0,0 0.77437,-1.72633 1.80799,-1.31693c0.99376,0.39362 0.94114,1.20113 1.38967,2.48966c0.23051,0.66224 2.12206,-0.36781 2.45043,1.11551c0.3272,1.47803 -1.11926,1.98447 -1.11926,1.98447c0,0 1.03647,0.94869 1.05463,1.94719c0.02487,1.36674 -2.37116,1.48767 -2.37116,1.48767c0,0 0.38197,1.79888 -1.3124,2.28365c-0.1097,0.0314 -1.56335,-0.53072 -1.65843,-0.53072c-0.04086,0 -0.57212,0.86943 -2.22048,0.62099c-0.73972,-0.11149 -1.43459,-2.10579 -1.43459,-2.10579c0,0 -2.19398,0.30298 -2.43312,-1.19472z" fill="#6bab41"/></g><g stroke-width="0"><path d="M187.87694,156.89264c-0.35065,-2.19606 1.52418,-2.80732 1.52418,-2.80732c0,0 -2.02395,-2.25775 -1.31052,-3.71659c0.52464,-1.0728 2.80265,-1.20427 2.80265,-1.20427c0,0 0.65053,-3.55112 2.30174,-3.55112c1.76123,0 2.65153,2.03633 2.65153,2.03633c0,0 1.05555,-2.35314 2.46442,-1.7951c1.35461,0.53654 1.28284,1.63726 1.89424,3.3936c0.3142,0.90268 2.89253,-0.50134 3.34013,1.52054c0.44601,2.01467 -1.52564,2.70499 -1.52564,2.70499c0,0 1.41279,1.29316 1.43753,2.65419c0.03388,1.86298 -3.23207,2.02782 -3.23207,2.02782c0,0 0.52066,2.45201 -1.78892,3.11279c-0.14955,0.0428 -2.13099,-0.72343 -2.26056,-0.72343c-0.05571,0 -0.77984,1.18512 -3.02668,0.84648c-1.00831,-0.15197 -1.95546,-2.87036 -1.95546,-2.87036c0,0 -2.99056,0.41298 -3.31654,-1.62849z" fill="#6a9d4e"/><path d="M189.10109,156.32584c-0.29232,-1.83072 1.27062,-2.34031 1.27062,-2.34031c0,0 -1.68726,-1.88217 -1.09251,-3.09832c0.43735,-0.89434 2.33641,-1.00393 2.33641,-1.00393c0,0 0.5423,-2.96038 1.91884,-2.96038c1.46827,0 2.21043,1.69756 2.21043,1.69756c0,0 0.87994,-1.96167 2.05446,-1.49646c1.12924,0.44728 1.06943,1.36488 1.5791,2.82906c0.26194,0.75251 2.41134,-0.41794 2.78449,1.2676c0.37179,1.67952 -1.27185,2.25498 -1.27185,2.25498c0,0 1.17776,1.07803 1.1984,2.21265c0.02825,1.55306 -2.6944,1.69047 -2.6944,1.69047c0,0 0.43405,2.04412 -1.49132,2.59496c-0.12465,0.03567 -1.77648,-0.60308 -1.88452,-0.60308c-0.04643,0 -0.65012,0.98796 -2.52319,0.70564c-0.84056,-0.1267 -1.63016,-2.39285 -1.63016,-2.39285c0,0 -2.49307,0.34428 -2.76482,-1.35759z" fill="#75bb4d"/></g><g stroke-width="0"><path d="M162.42031,158.98568c-0.2842,-1.77983 1.2353,-2.27525 1.2353,-2.27525c0,0 -1.64035,-1.82984 -1.06214,-3.01218c0.42521,-0.86947 2.27146,-0.97602 2.27146,-0.97602c0,0 0.52724,-2.87807 1.86549,-2.87807c1.42742,0 2.14899,1.65038 2.14899,1.65038c0,0 0.85549,-1.90714 1.99733,-1.45487c1.09787,0.43485 1.03969,1.32694 1.53521,2.75041c0.25466,0.7316 2.34431,-0.40633 2.70708,1.23235c0.36147,1.63283 -1.23649,2.19231 -1.23649,2.19231c0,0 1.14503,1.04807 1.16508,2.15114c0.02747,1.50989 -2.61949,1.64347 -2.61949,1.64347c0,0 0.42198,1.98729 -1.44986,2.52283c-0.12121,0.03468 -1.7271,-0.58633 -1.83211,-0.58633c-0.04514,0 -0.63204,0.96051 -2.45304,0.68605c-0.81719,-0.12317 -1.58484,-2.32634 -1.58484,-2.32634c0,0 -2.42375,0.3347 -2.68795,-1.31985z" fill="#6f9e50"/><path d="M163.41246,158.52632c-0.23692,-1.48374 1.0298,-1.89675 1.0298,-1.89675c0,0 -1.36748,-1.52545 -0.88545,-2.5111c0.35447,-0.72483 1.89359,-0.81365 1.89359,-0.81365c0,0 0.43951,-2.3993 1.55515,-2.3993c1.18999,0 1.79148,1.37582 1.79148,1.37582c0,0 0.71318,-1.58987 1.66508,-1.21283c0.91521,0.36251 0.86674,1.10619 1.27981,2.29286c0.2123,0.60988 1.95431,-0.33872 2.25673,1.02735c0.30133,1.3612 -1.03079,1.82759 -1.03079,1.82759c0,0 0.95454,0.87371 0.97126,1.79328c0.02289,1.2587 -2.18372,1.37008 -2.18372,1.37008c0,0 0.35179,1.65668 -1.20866,2.10313c-0.10102,0.02891 -1.43977,-0.48878 -1.52734,-0.48878c-0.03762,0 -0.5269,0.80071 -2.04497,0.5719c-0.68125,-0.10268 -1.32119,-1.93934 -1.32119,-1.93934c0,0 -2.02056,0.27903 -2.2408,-1.10028z" fill="#7ab84e"/></g><g stroke-width="0"><path d="M162.11613,142.07484c-0.32374,-2.02749 1.4072,-2.59184 1.4072,-2.59184c0,0 -1.86862,-2.08446 -1.20994,-3.43133c0.48437,-0.99045 2.58753,-1.11183 2.58753,-1.11183c0,0 0.60061,-3.27855 2.12508,-3.27855c1.62605,0 2.44801,1.88003 2.44801,1.88003c0,0 0.97453,-2.17252 2.27527,-1.65731c1.25063,0.49536 1.18437,1.51159 1.74884,3.13313c0.29009,0.83339 2.67052,-0.46288 3.08376,1.40382c0.41178,1.86004 -1.40855,2.49738 -1.40855,2.49738c0,0 1.30435,1.1939 1.32719,2.45047c0.03129,1.71999 -2.98398,1.87217 -2.98398,1.87217c0,0 0.48069,2.2638 -1.65161,2.87387c-0.13807,0.03951 -1.96742,-0.6679 -2.08704,-0.6679c-0.05143,0 -0.71999,1.09415 -2.79438,0.7815c-0.93091,-0.14031 -1.80536,-2.65004 -1.80536,-2.65004c0,0 -2.76103,0.38127 -3.06198,-1.5035z" fill="#6b9f57"/><path d="M163.24633,141.49081c-0.26989,-1.6902 1.17309,-2.16067 1.17309,-2.16067c0,0 -1.55776,-1.73771 -1.00865,-2.86051c0.4038,-0.82569 2.15707,-0.92687 2.15707,-0.92687c0,0 0.50067,-2.73316 1.77155,-2.73316c1.35557,0 2.04077,1.56726 2.04077,1.56726c0,0 0.81241,-1.8111 1.89677,-1.38161c1.04256,0.41296 0.98735,1.26012 1.4579,2.61192c0.24184,0.69475 2.22625,-0.38586 2.57076,1.1703c0.34326,1.55061 -1.17423,2.0819 -1.17423,2.0819c0,0 1.08737,0.99528 1.10642,2.04282c0.02607,1.43385 -2.48758,1.56072 -2.48758,1.56072c0,0 0.40073,1.88721 -1.37685,2.39577c-0.11509,0.03294 -1.64013,-0.55679 -1.73988,-0.55679c-0.04286,0 -0.60022,0.91214 -2.32952,0.65148c-0.77605,-0.11697 -1.50503,-2.20919 -1.50503,-2.20919c0,0 -2.30171,0.31787 -2.55259,-1.25338z" fill="#81ba52"/></g><g stroke-width="0"><path d="M172.91236,134.70076c-0.20279,-1.27005 0.88149,-1.62356 0.88149,-1.62356c0,0 -1.17053,-1.30574 -0.75792,-2.14944c0.30342,-0.62043 1.62088,-0.69647 1.62088,-0.69647c0,0 0.37622,-2.05373 1.33118,-2.05373c1.01858,0 1.53348,1.17768 1.53348,1.17768c0,0 0.61046,-1.3609 1.42525,-1.03817c0.78342,0.3103 0.74191,0.94689 1.09551,1.96264c0.18171,0.52205 1.67286,-0.28995 1.93171,0.87938c0.25794,1.16515 -0.88234,1.56439 -0.88234,1.56439c0,0 0.81707,0.74788 0.83138,1.53501c0.0196,1.07743 -1.86921,1.17276 -1.86921,1.17276c0,0 0.30112,1.41808 -1.03459,1.80024c-0.08649,0.02475 -1.23242,-0.41839 -1.30736,-0.41839c-0.03222,0 -0.45101,0.68541 -1.75045,0.48955c-0.58314,-0.08789 -1.1309,-1.66003 -1.1309,-1.66003c0,0 -1.72955,0.23883 -1.91808,-0.94182z" fill="#67994e"/><path d="M173.62034,134.37298c-0.16906,-1.05876 0.73485,-1.35349 0.73485,-1.35349c0,0 -0.97582,-1.08852 -0.63184,-1.79187c0.25294,-0.51722 1.35122,-0.58061 1.35122,-0.58061c0,0 0.31364,-1.7121 1.10973,-1.7121c0.84914,0 1.27836,0.98176 1.27836,0.98176c0,0 0.5089,-1.1345 1.18817,-0.86546c0.65308,0.25868 0.61848,0.78936 0.91324,1.63614c0.15149,0.43521 1.39457,-0.24171 1.61037,0.7331c0.21503,0.97133 -0.73556,1.30413 -0.73556,1.30413c0,0 0.68114,0.62346 0.69308,1.27965c0.01633,0.89818 -1.55826,0.97766 -1.55826,0.97766c0,0 0.25103,1.18218 -0.86248,1.50075c-0.07209,0.02063 -1.0274,-0.34878 -1.08989,-0.34878c-0.02685,0 -0.37599,0.57137 -1.45925,0.4081c-0.48613,-0.07327 -0.94278,-1.38387 -0.94278,-1.38387c0,0 -1.44183,0.19912 -1.59898,-0.78513z" fill="#71a843"/></g><g stroke-width="0"><path d="M179.41153,142.17573c-0.25012,-1.56644 1.0872,-2.00245 1.0872,-2.00245c0,0 -1.44369,-1.61046 -0.9348,-2.65105c0.37422,-0.76522 1.99913,-0.859 1.99913,-0.859c0,0 0.46402,-2.53301 1.64183,-2.53301c1.25628,0 1.89134,1.45251 1.89134,1.45251c0,0 0.75292,-1.67848 1.75787,-1.28044c0.96624,0.38272 0.91504,1.16786 1.35116,2.42065c0.22412,0.64389 2.06325,-0.35762 2.38252,1.0846c0.31814,1.43706 -1.08825,1.92947 -1.08825,1.92947c0,0 1.00775,0.92242 1.02539,1.89323c0.02418,1.32887 -2.30543,1.44644 -2.30543,1.44644c0,0 0.37139,1.74901 -1.27603,2.22036c-0.10667,0.03053 -1.52004,-0.51603 -1.61245,-0.51603c-0.03973,0 -0.55627,0.84535 -2.15895,0.6038c-0.71922,-0.10841 -1.39482,-2.04742 -1.39482,-2.04742c0,0 -2.13317,0.29457 -2.36569,-1.16161z" fill="#6ea053"/><path d="M180.28472,141.77141c-0.20853,-1.30585 0.90633,-1.66934 0.90633,-1.66934c0,0 -1.20353,-1.34255 -0.77928,-2.21004c0.31197,-0.63792 1.66655,-0.7161 1.66655,-0.7161c0,0 0.38683,-2.11164 1.36871,-2.11164c1.04731,0 1.57668,1.21087 1.57668,1.21087c0,0 0.62767,-1.39924 1.46546,-1.06742c0.80549,0.31905 0.76281,0.97357 1.12637,2.01797c0.18685,0.53677 1.72,-0.29811 1.98616,0.90418c0.26521,1.198 -0.9072,1.60847 -0.9072,1.60847c0,0 0.8401,0.76896 0.85482,1.57828c0.02015,1.1078 -1.9219,1.20582 -1.9219,1.20582c0,0 0.3096,1.45807 -1.06376,1.85098c-0.08891,0.02544 -1.26716,-0.43018 -1.34422,-0.43018c-0.03312,0 -0.46374,0.70471 -1.79979,0.50333c-0.59958,-0.09037 -1.16279,-1.70682 -1.16279,-1.70682c0,0 -1.7783,0.24558 -1.97213,-0.96836z" fill="#96c76d"/></g><path d="M170.88715,151.96459l-0.79193,-0.87287l1.65269,-4.70601l2.11241,0.0406z" fill="#8d6043" stroke-width="0"/><path d="M173.6289,145.73565l-2.45337,-9.03874l0.38738,-0.12913l4.51937,9.42612z" fill="#845b3f" stroke-width="0"/><path d="M168.20566,141.28084l0.12913,-0.38737h4.97131l0.06456,1.03299z" fill="#8d6043" stroke-width="0"/><path d="M183.84755,141.19752v-1.22217l4.77759,0.16666l-0.27777,1.11106z" fill="#7e573c" stroke-width="0"/><path d="M179.7366,150.08605l0.99996,-1.11107l1.27773,-2.72211l2.21993,5.0298l3.83108,7.60689l-0.77345,1.02942l-3.12255,-4.57666z" fill="#82593e" stroke-width="0"/><path d="M184.56974,155.14139l-0.05555,-1.6666l7.27749,-3.49986l0.88885,0.72219z" fill="#8d6043" stroke-width="0"/><path d="M190.89794,156.72769l-4.09552,-3.51825l1.04985,-0.37652l3.15111,3.40714z" fill="#8d6043" stroke-width="0"/><path d="M167.68916,147.15603v-1.74319l10.26542,-0.83931l-0.77475,2.5825z" fill="#8d6043" stroke-width="0"/><path d="M176.62562,148.84536l-0.45305,-3.21865l1.44188,-1.87004l3.13321,-0.71108l5.54422,-11.08845l0.9444,0.8333l-4.075,11.56775l0.46175,1.24411l0.11339,1.7431l-0.89182,2.73746l-2.72781,0.64314c0,0 -0.82334,-0.44352 -1.31708,-0.7095c-0.63437,-0.34172 -2.1741,-1.17117 -2.1741,-1.17117z" fill="#8d6043" stroke-width="0"/><g stroke-width="0"><path d="M184.64482,164.06115c-0.25213,-1.57895 1.09588,-2.01846 1.09588,-2.01846c0,0 -1.45522,-1.62331 -0.94226,-2.67221c0.37722,-0.77134 2.0151,-0.86587 2.0151,-0.86587c0,0 0.46774,-2.55325 1.65494,-2.55325c1.26632,0 1.90644,1.46411 1.90644,1.46411c0,0 0.75894,-1.69189 1.77192,-1.29066c0.97395,0.38576 0.92235,1.17718 1.36194,2.43999c0.22591,0.64901 2.07971,-0.36047 2.40153,1.09326c0.32067,1.44855 -1.09692,1.94488 -1.09692,1.94488c0,0 1.01579,0.92978 1.03358,1.90834c0.02436,1.33948 -2.32385,1.45799 -2.32385,1.45799c0,0 0.37435,1.76298 -1.28622,2.23808c-0.10753,0.03076 -1.53218,-0.52015 -1.62534,-0.52015c-0.04005,0 -0.56071,0.8521 -2.17618,0.60862c-0.72497,-0.10927 -1.40597,-2.06378 -1.40597,-2.06378c0,0 -2.15019,0.29693 -2.38458,-1.17088z" fill="#669751"/><path d="M185.52499,163.7144c-0.21018,-1.31628 0.91357,-1.68268 0.91357,-1.68268c0,0 -1.21314,-1.35327 -0.78551,-2.22768c0.31447,-0.64302 1.67987,-0.72183 1.67987,-0.72183c0,0 0.38992,-2.1285 1.37963,-2.1285c1.05567,0 1.58929,1.22054 1.58929,1.22054c0,0 0.63268,-1.41043 1.47714,-1.07595c0.81192,0.32159 0.76892,0.98134 1.13537,2.03409c0.18833,0.54106 1.73374,-0.30051 2.00203,0.91138c0.26733,1.20756 -0.91445,1.62132 -0.91445,1.62132c0,0 0.8468,0.77509 0.86164,1.59088c0.02032,1.11664 -1.93726,1.21545 -1.93726,1.21545c0,0 0.31208,1.4697 -1.07225,1.86576c-0.08963,0.02565 -1.27728,-0.43361 -1.35496,-0.43361c-0.03339,0 -0.46743,0.71033 -1.81416,0.50736c-0.60437,-0.09109 -1.17207,-1.72045 -1.17207,-1.72045c0,0 -1.79251,0.24753 -1.98789,-0.9761z" fill="#86cd54"/></g><g stroke-width="0"><path d="M159.51939,148.15658c-0.21282,-1.3328 0.92503,-1.70379 0.92503,-1.70379c0,0 -1.22834,-1.37025 -0.79536,-2.25562c0.31841,-0.65109 1.70095,-0.73087 1.70095,-0.73087c0,0 0.39481,-2.1552 1.39694,-2.1552c1.06891,0 1.60923,1.23585 1.60923,1.23585c0,0 0.64061,-1.42812 1.49568,-1.08944c0.82211,0.32563 0.77856,0.99366 1.14962,2.0596c0.1907,0.54784 1.75549,-0.30427 2.02714,0.92282c0.27068,1.22271 -0.92592,1.64167 -0.92592,1.64167c0,0 0.85743,0.78483 0.87244,1.61083c0.02057,1.13065 -1.96158,1.23069 -1.96158,1.23069c0,0 0.316,1.48815 -1.08569,1.88917c-0.09077,0.02597 -1.29332,-0.43906 -1.37195,-0.43906c-0.03381,0 -0.4733,0.71926 -1.83692,0.51374c-0.61194,-0.09223 -1.18678,-1.74204 -1.18678,-1.74204c0,0 -1.81498,0.25064 -2.01282,-0.98834z" fill="#6fa859"/><path d="M160.26234,147.81259c-0.17742,-1.11108 0.77115,-1.42035 0.77115,-1.42035c0,0 -1.02401,-1.14229 -0.66305,-1.88038c0.26543,-0.54278 1.41798,-0.60931 1.41798,-0.60931c0,0 0.32913,-1.79666 1.16455,-1.79666c0.89109,0 1.34153,1.03026 1.34153,1.03026c0,0 0.53404,-1.19055 1.24685,-0.90822c0.68534,0.27146 0.64904,0.82836 0.95837,1.71698c0.15897,0.4567 1.46346,-0.25366 1.68992,0.76929c0.22565,1.01931 -0.77188,1.36857 -0.77188,1.36857c0,0 0.71479,0.65425 0.72732,1.34286c0.01714,0.94255 -1.63525,1.02596 -1.63525,1.02596c0,0 0.26344,1.24058 -0.90509,1.5749c-0.07566,0.02165 -1.07816,-0.36601 -1.14372,-0.36601c-0.02818,0 -0.39455,0.59958 -1.53134,0.42825c-0.51015,-0.0769 -0.98934,-1.45224 -0.98934,-1.45224c0,0 -1.51306,0.20894 -1.67799,-0.82391z" fill="#92e14c"/></g><g stroke-width="0"><path d="M164.9468,155.89376c-0.1909,-1.1955 0.82975,-1.52828 0.82975,-1.52828c0,0 -1.10183,-1.2291 -0.71344,-2.02328c0.28562,-0.58403 1.52575,-0.65559 1.52575,-0.65559c0,0 0.35414,-1.9332 1.25304,-1.9332c0.95881,0 1.44347,1.10855 1.44347,1.10855c0,0 0.57462,-1.28102 1.34161,-0.97724c0.73743,0.29208 0.69836,0.8913 1.0312,1.84744c0.17105,0.49141 1.57467,-0.27292 1.81833,0.82777c0.2428,1.09677 -0.83054,1.47257 -0.83054,1.47257c0,0 0.7691,0.70399 0.78258,1.44492c0.01845,1.0142 -1.75951,1.10393 -1.75951,1.10393c0,0 0.28345,1.33485 -0.97387,1.69457c-0.08141,0.02329 -1.16009,-0.39383 -1.23063,-0.39383c-0.03033,0 -0.42455,0.64517 -1.64771,0.46081c-0.54891,-0.08274 -1.06453,-1.5626 -1.06453,-1.5626c0,0 -1.62803,0.22482 -1.8055,-0.88654z" fill="#73a856"/><path d="M165.61323,155.64595c-0.15914,-0.99663 0.69172,-1.27404 0.69172,-1.27404c0,0 -0.91853,-1.02464 -0.59475,-1.6867c0.23809,-0.48686 1.27192,-0.54654 1.27192,-0.54654c0,0 0.29522,-1.61161 1.04459,-1.61161c0.7993,0 1.20335,0.92414 1.20335,0.92414c0,0 0.47903,-1.06791 1.11843,-0.81466c0.61476,0.2435 0.58219,0.74303 0.85965,1.54011c0.1426,0.40966 1.3127,-0.22754 1.51584,0.69006c0.20242,0.91431 -0.69238,1.22759 -0.69238,1.22759c0,0 0.64116,0.58687 0.6524,1.20455c0.01538,0.84546 -1.46681,0.92028 -1.46681,0.92028c0,0 0.23631,1.11279 -0.81185,1.41267c-0.06787,0.01943 -0.96711,-0.32831 -1.02593,-0.32831c-0.02527,0 -0.35391,0.53783 -1.3736,0.38415c-0.4576,-0.06897 -0.88744,-1.30266 -0.88744,-1.30266c0,0 -1.3572,0.18743 -1.50514,-0.73905z" fill="#88d644"/></g><g stroke-width="0"><path d="M186.65553,141.20907c-0.15359,-1.87613 1.46836,-2.2705 1.46836,-2.2705c0,0 -1.5618,-2.03668 -0.86511,-3.22165c0.51234,-0.87142 2.44344,-0.83468 2.44344,-0.83468c0,0 0.77923,-2.95487 2.1728,-2.84784c1.48644,0.11417 2.10582,1.89048 2.10582,1.89048c0,0 1.0434,-1.91753 2.19627,-1.35523c1.10846,0.54063 0.97652,1.46495 1.37867,2.9869c0.20667,0.7822 2.47371,-0.23561 2.7204,1.49982c0.2458,1.72923 -1.46294,2.18402 -1.46294,2.18402c0,0 1.10852,1.18297 1.04117,2.33322c-0.09217,1.5745 -2.85925,1.5019 -2.85925,1.5019c0,0 0.28047,2.10317 -1.71157,2.51113c-0.12899,0.02641 -1.7516,-0.74871 -1.86095,-0.7571c-0.04702,-0.00361 -0.73499,0.94965 -2.60932,0.51819c-0.84112,-0.19362 -1.46428,-2.54926 -1.46428,-2.54926c0,0 -2.55071,0.15467 -2.69349,-1.5894z" fill="#75a556"/><path d="M187.72543,140.81007c-0.12804,-1.56403 1.22409,-1.89279 1.22409,-1.89279c0,0 -1.30199,-1.69787 -0.7212,-2.6857c0.42709,-0.72644 2.03695,-0.69585 2.03695,-0.69585c0,0 0.64961,-2.4633 1.81134,-2.37408c1.23915,0.09518 1.75549,1.576 1.75549,1.576c0,0 0.86981,-1.59856 1.8309,-1.1298c0.92405,0.45069 0.81409,1.22126 1.14933,2.49003c0.17228,0.65207 2.0622,-0.19642 2.26785,1.25029c0.20492,1.44156 -1.21958,1.82071 -1.21958,1.82071c0,0 0.9241,0.98616 0.86796,1.9451c-0.07683,1.31256 -2.38359,1.25204 -2.38359,1.25204c0,0 0.23383,1.75331 -1.42684,2.0934c-0.10752,0.02203 -1.4602,-0.62414 -1.55138,-0.63114c-0.03919,-0.00301 -0.61272,0.79165 -2.17524,0.43197c-0.70121,-0.16143 -1.22067,-2.12518 -1.22067,-2.12518c0,0 -2.12641,0.12895 -2.24543,-1.32498z" fill="#7fcf39"/></g><g stroke-width="0"><path d="M174.38931,136.80092c-0.06907,-0.84375 0.66036,-1.0211 0.66036,-1.0211c0,0 -0.70238,-0.91596 -0.38906,-1.44887c0.23041,-0.3919 1.09888,-0.37538 1.09888,-0.37538c0,0 0.35045,-1.3289 0.97717,-1.28076c0.66849,0.05135 0.94705,0.85022 0.94705,0.85022c0,0 0.46926,-0.86238 0.98773,-0.60949c0.49851,0.24314 0.43918,0.65884 0.62004,1.3433c0.09295,0.35179 1.1125,-0.10596 1.22344,0.67451c0.11055,0.77768 -0.65793,0.98223 -0.65793,0.98223c0,0 0.49853,0.53203 0.46825,1.04932c-0.04146,0.70809 -1.28589,0.67544 -1.28589,0.67544c0,0 0.12614,0.94586 -0.76975,1.12933c-0.05801,0.01188 -0.78774,-0.33672 -0.83692,-0.3405c-0.02114,-0.00162 -0.33054,0.42709 -1.17348,0.23305c-0.37829,-0.08708 -0.65853,-1.14648 -0.65853,-1.14648c0,0 -1.14714,0.06956 -1.21134,-0.71481z" fill="#71a75a"/><path d="M174.87047,136.62149c-0.05758,-0.70339 0.55051,-0.85124 0.55051,-0.85124c0,0 -0.58554,-0.76359 -0.32434,-1.20784c0.19208,-0.3267 0.91607,-0.31295 0.91607,-0.31295c0,0 0.29215,-1.10781 0.81462,-1.06768c0.55729,0.0428 0.7895,0.70876 0.7895,0.70876c0,0 0.39117,-0.71892 0.8234,-0.5081c0.41557,0.20269 0.36612,0.54923 0.51689,1.11984c0.07748,0.29326 0.92744,-0.08834 1.01992,0.56229c0.09216,0.64831 -0.54848,0.81883 -0.54848,0.81883c0,0 0.41559,0.44351 0.39035,0.87476c-0.03455,0.59029 -1.07196,0.56308 -1.07196,0.56308c0,0 0.10515,0.78851 -0.6417,0.94146c-0.04835,0.0099 -0.65669,-0.28069 -0.6977,-0.28384c-0.01763,-0.00136 -0.27555,0.35602 -0.97826,0.19426c-0.31536,-0.0726 -0.54897,-0.95576 -0.54897,-0.95576c0,0 -0.95631,0.058 -1.00983,-0.59588z" fill="#81dc43"/></g><g fill="none" stroke-width="1" font-family="sans-serif" font-weight="normal" font-size="12" text-anchor="start"/><g stroke-width="0"><path d="M175.10011,158.07889c-0.2061,-1.29073 0.89584,-1.65 0.89584,-1.65c0,0 -1.18957,-1.327 -0.77025,-2.18443c0.30836,-0.63054 1.64725,-0.7078 1.64725,-0.7078c0,0 0.38235,-2.08717 1.35284,-2.08717c1.03517,0 1.55844,1.19684 1.55844,1.19684c0,0 0.6204,-1.38305 1.44846,-1.05506c0.79617,0.31535 0.75399,0.96229 1.11334,1.99459c0.18467,0.53054 1.70007,-0.29466 1.96315,0.8937c0.26214,1.18412 -0.89669,1.58986 -0.89669,1.58986c0,0 0.83037,0.76005 0.84491,1.55999c0.01991,1.09497 -1.89965,1.19185 -1.89965,1.19185c0,0 0.30602,1.44117 -1.05143,1.82954c-0.08791,0.02515 -1.25249,-0.4252 -1.32864,-0.4252c-0.03274,0 -0.45836,0.69655 -1.77893,0.49751c-0.59263,-0.08932 -1.14932,-1.68705 -1.14932,-1.68705c0,0 -1.75769,0.24273 -1.94929,-0.95714z" fill="#6d9f4a"/><path d="M175.81961,157.74576c-0.17182,-1.07601 0.74681,-1.37552 0.74681,-1.37552c0,0 -0.99169,-1.10624 -0.64212,-1.82102c0.25706,-0.52564 1.37322,-0.59007 1.37322,-0.59007c0,0 0.31874,-1.73996 1.12779,-1.73996c0.86297,0 1.29918,0.99775 1.29918,0.99775c0,0 0.51718,-1.15297 1.2075,-0.87955c0.66371,0.26289 0.62856,0.80221 0.92812,1.66278c0.15395,0.44228 1.41727,-0.24564 1.63658,0.74502c0.21852,0.98713 -0.74753,1.32536 -0.74753,1.32536c0,0 0.69223,0.63361 0.70436,1.30048c0.0166,0.9128 -1.58363,0.99357 -1.58363,0.99357c0,0 0.25511,1.20143 -0.87651,1.52518c-0.07327,0.02097 -1.04413,-0.35446 -1.10763,-0.35446c-0.02729,0 -0.3821,0.58067 -1.48299,0.41474c-0.49404,-0.07447 -0.95812,-1.4064 -0.95812,-1.4064c0,0 -1.46531,0.20235 -1.62502,-0.79792z" fill="#7dca47"/></g><g stroke-width="0"><path d="M168.69532,146.69815c-0.21282,-1.3328 0.92503,-1.70378 0.92503,-1.70378c0,0 -1.22834,-1.37025 -0.79536,-2.25562c0.31841,-0.65109 1.70095,-0.73087 1.70095,-0.73087c0,0 0.39481,-2.15519 1.39693,-2.15519c1.06891,0 1.60924,1.23585 1.60924,1.23585c0,0 0.64061,-1.42812 1.49568,-1.08944c0.82211,0.32563 0.77856,0.99366 1.14962,2.0596c0.1907,0.54784 1.75549,-0.30427 2.02714,0.92282c0.27068,1.22271 -0.92592,1.64167 -0.92592,1.64167c0,0 0.85743,0.78483 0.87245,1.61084c0.02057,1.13065 -1.96158,1.23069 -1.96158,1.23069c0,0 0.31599,1.48815 -1.0857,1.88917c-0.09077,0.02597 -1.29332,-0.43906 -1.37195,-0.43906c-0.03381,0 -0.47329,0.71925 -1.83692,0.51374c-0.61194,-0.09223 -1.18678,-1.74204 -1.18678,-1.74204c0,0 -1.81498,0.25064 -2.01282,-0.98834z" fill="#6fa859"/><path d="M169.43827,146.35417c-0.17742,-1.11108 0.77115,-1.42035 0.77115,-1.42035c0,0 -1.02401,-1.14229 -0.66306,-1.88038c0.26543,-0.54278 1.41798,-0.6093 1.41798,-0.6093c0,0 0.32913,-1.79666 1.16455,-1.79666c0.89109,0 1.34153,1.03026 1.34153,1.03026c0,0 0.53403,-1.19055 1.24685,-0.90822c0.68534,0.27146 0.64905,0.82836 0.95837,1.71698c0.15897,0.4567 1.46346,-0.25365 1.68992,0.7693c0.22565,1.01931 -0.77188,1.36857 -0.77188,1.36857c0,0 0.71479,0.65426 0.72732,1.34287c0.01714,0.94255 -1.63526,1.02596 -1.63526,1.02596c0,0 0.26344,1.24058 -0.90508,1.5749c-0.07566,0.02165 -1.07816,-0.36601 -1.14373,-0.36601c-0.02818,0 -0.39455,0.59959 -1.53133,0.42826c-0.51015,-0.0769 -0.98935,-1.45224 -0.98935,-1.45224c0,0 -1.51306,0.20894 -1.67798,-0.82391z" fill="#92e14c"/></g><g stroke-width="0"><path d="M173.72462,152.07895c-0.24816,-1.55411 1.07864,-1.98671 1.07864,-1.98671c0,0 -1.43233,-1.5978 -0.92744,-2.6302c0.37129,-0.75921 1.98341,-0.85225 1.98341,-0.85225c0,0 0.46036,-2.51309 1.62891,-2.51309c1.24641,0 1.87645,1.44107 1.87645,1.44107c0,0 0.747,-1.66529 1.74404,-1.27036c0.95863,0.3797 0.90784,1.15867 1.34052,2.40162c0.22236,0.63881 2.04701,-0.3548 2.36377,1.07606c0.31563,1.42577 -1.07968,1.91428 -1.07968,1.91428c0,0 0.99982,0.91516 1.01734,1.87833c0.02399,1.3184 -2.2873,1.43506 -2.2873,1.43506c0,0 0.36847,1.73526 -1.26599,2.20288c-0.10584,0.03028 -1.50808,-0.51196 -1.59978,-0.51196c-0.03941,0 -0.55189,0.8387 -2.14195,0.59904c-0.71357,-0.10755 -1.38385,-2.03132 -1.38385,-2.03132c0,0 -2.11638,0.29225 -2.34707,-1.15247z" fill="#7eb660"/><path d="M174.59093,151.67783c-0.20687,-1.29558 0.89921,-1.6562 0.89921,-1.6562c0,0 -1.19405,-1.33199 -0.77316,-2.19263c0.30952,-0.6329 1.65345,-0.71047 1.65345,-0.71047c0,0 0.38379,-2.09502 1.35793,-2.09502c1.03905,0 1.5643,1.20134 1.5643,1.20134c0,0 0.62272,-1.38826 1.45391,-1.05903c0.79916,0.31653 0.75682,0.96591 1.11751,2.00209c0.18537,0.53254 1.70648,-0.29577 1.97054,0.89706c0.26313,1.18858 -0.90007,1.59582 -0.90007,1.59582c0,0 0.83349,0.76291 0.84809,1.56585c0.01999,1.09907 -1.9068,1.19633 -1.9068,1.19633c0,0 0.30718,1.44659 -1.05537,1.83642c-0.08822,0.02524 -1.25721,-0.42679 -1.33366,-0.42679c-0.03286,0 -0.46008,0.69917 -1.78562,0.49938c-0.59486,-0.08966 -1.15363,-1.6934 -1.15363,-1.6934c0,0 -1.76432,0.24364 -1.95663,-0.96074z" fill="#93e25a"/></g><g stroke-width="0"><path d="M190.83629,153.73514c-0.24245,-1.51835 1.05381,-1.94099 1.05381,-1.94099c0,0 -1.39936,-1.56101 -0.9061,-2.56964c0.36274,-0.74174 1.93776,-0.83263 1.93776,-0.83263c0,0 0.44978,-2.45524 1.59142,-2.45524c1.21771,0 1.83327,1.4079 1.83327,1.4079c0,0 0.7298,-1.62696 1.7039,-1.24112c0.93657,0.37096 0.88695,1.132 1.30967,2.34634c0.21724,0.6241 1.99989,-0.34663 2.30936,1.0513c0.30837,1.39296 -1.05483,1.87022 -1.05483,1.87022c0,0 0.9768,0.89409 0.99392,1.8351c0.02344,1.28806 -2.23466,1.40203 -2.23466,1.40203c0,0 0.35999,1.69531 -1.23685,2.15217c-0.1034,0.02958 -1.47337,-0.50018 -1.56296,-0.50018c-0.03852,0 -0.53919,0.81939 -2.09265,0.58525c-0.69715,-0.10507 -1.35199,-1.98457 -1.35199,-1.98457c0,0 -2.06767,0.28552 -2.29305,-1.12594z" fill="#77ad5a"/><path d="M191.68268,153.34327c-0.20212,-1.26576 0.8785,-1.61808 0.8785,-1.61808c0,0 -1.16657,-1.30133 -0.75536,-2.14217c0.30239,-0.61834 1.61539,-0.69413 1.61539,-0.69413c0,0 0.37495,-2.0468 1.32667,-2.0468c1.01514,0 1.52829,1.17369 1.52829,1.17369c0,0 0.6084,-1.35629 1.42045,-1.03465c0.78076,0.30925 0.7394,0.94367 1.09179,1.95601c0.18111,0.52029 1.6672,-0.28897 1.92519,0.8764c0.25707,1.16122 -0.87935,1.5591 -0.87935,1.5591c0,0 0.8143,0.74535 0.82857,1.52982c0.01953,1.07378 -1.8629,1.16879 -1.8629,1.16879c0,0 0.30011,1.41329 -1.03109,1.79415c-0.0862,0.02466 -1.22826,-0.41697 -1.30295,-0.41697c-0.03211,0 -0.44948,0.68308 -1.74452,0.48789c-0.58118,-0.0876 -1.12708,-1.65442 -1.12708,-1.65442c0,0 -1.7237,0.23803 -1.91159,-0.93863z" fill="#90db61"/></g><g stroke-width="0"><path d="M190.42157,139.96669c-0.28751,-1.50102 0.98735,-1.96071 0.98735,-1.96071c0,0 -1.43819,-1.50787 -0.97911,-2.52509c0.3376,-0.74804 1.89956,-0.88673 1.89956,-0.88673c0,0 0.37145,-2.45308 1.50566,-2.48815c1.20979,-0.0374 1.86457,1.34244 1.86457,1.34244c0,0 0.67509,-1.63878 1.6547,-1.28538c0.94187,0.33979 0.91595,1.09739 1.3732,2.29085c0.23501,0.61337 1.97623,-0.4058 2.32661,0.97353c0.34914,1.37441 -0.99052,1.89044 -0.99052,1.89044c0,0 0.99791,0.85827 1.04381,1.79263c0.06284,1.27896 -2.17706,1.46153 -2.17706,1.46153c0,0 0.40972,1.67324 -1.1627,2.17615c-0.10181,0.03257 -1.47915,-0.45168 -1.56816,-0.44893c-0.03826,0.00118 -0.51051,0.83061 -2.06105,0.64571c-0.69584,-0.08298 -1.40414,-1.93013 -1.40414,-1.93013c0,0 -2.04545,0.34717 -2.31271,-1.04818z" fill="#78a66a"/><path d="M191.25042,139.55138c-0.23968,-1.25131 0.82309,-1.63454 0.82309,-1.63454c0,0 -1.19894,-1.25704 -0.81623,-2.10503c0.28144,-0.6236 1.58356,-0.73922 1.58356,-0.73922c0,0 0.30965,-2.04499 1.25518,-2.07422c1.00853,-0.03117 1.55439,1.11912 1.55439,1.11912c0,0 0.56278,-1.36616 1.37942,-1.07154c0.78518,0.28326 0.76358,0.91483 1.14476,1.90976c0.19591,0.51134 1.64747,-0.33828 1.93957,0.81158c0.29106,1.14577 -0.82574,1.57595 -0.82574,1.57595c0,0 0.83189,0.7155 0.87016,1.49442c0.05238,1.0662 -1.81489,1.2184 -1.81489,1.2184c0,0 0.34156,1.39488 -0.96928,1.81413c-0.08488,0.02714 -1.23308,-0.37653 -1.30728,-0.37424c-0.0319,0.00098 -0.42559,0.69243 -1.71819,0.53829c-0.58008,-0.06918 -1.17056,-1.60904 -1.17056,-1.60904c0,0 -1.70517,0.28941 -1.92798,-0.87382z" fill="#97e560"/></g><g stroke-width="0"><path d="M164.73211,134.63552c-0.21814,-1.36611 0.94815,-1.74636 0.94815,-1.74636c0,0 -1.25904,-1.40449 -0.81524,-2.31199c0.32637,-0.66736 1.74345,-0.74914 1.74345,-0.74914l3.08129,-0.94232c0,0 2.33107,-0.09818 2.7114,0.99439c0.19547,0.56153 1.79937,-0.31188 2.0778,0.94589c0.27746,1.25328 -0.94906,1.68269 -0.94906,1.68269c0,0 0.87886,0.80444 0.89425,1.6511c0.02108,1.15891 -2.01058,1.26144 -2.01058,1.26144c0,0 0.32389,1.52533 -1.11283,1.93637c-0.09303,0.02662 -1.32564,-0.45003 -1.40625,-0.45003c-0.03465,0 -0.48513,0.73723 -1.88282,0.52658c-0.62725,-0.09454 -1.21643,-1.78558 -1.21643,-1.78558c0,0 -1.86035,0.2569 -2.06313,-1.01304z" fill="#7fba5d"/><path d="M165.49364,134.28293c-0.18186,-1.13884 0.79042,-1.45584 0.79042,-1.45584c0,0 -1.0496,-1.17084 -0.67962,-1.92737c0.27208,-0.55634 1.45342,-0.62452 1.45342,-0.62452l2.5687,-0.78556c0,0 1.94328,-0.08186 2.26033,0.82897c0.16295,0.46812 1.50003,-0.25999 1.73215,0.78853c0.23129,1.04478 -0.79117,1.40276 -0.79117,1.40276c0,0 0.73266,0.67061 0.74549,1.37643c0.01757,0.96612 -1.67612,1.0516 -1.67612,1.0516c0,0 0.27002,1.27158 -0.9277,1.61425c-0.07756,0.02219 -1.10511,-0.37516 -1.1723,-0.37516c-0.02889,0 -0.40442,0.61458 -1.5696,0.43896c-0.52291,-0.07881 -1.01406,-1.48853 -1.01406,-1.48853c0,0 -1.55087,0.21417 -1.71992,-0.84452z" fill="#91e95b"/></g></g><path d="M159.11382,201.18645v-66.2h7v66.2z" fill="#efefef" stroke="none" stroke-width="0" stroke-linecap="butt"/><path d="M320.91382,135.38643h-161.8v-7h161.8z" fill="#efefef" stroke="none" stroke-width="0" stroke-linecap="butt"/><g><g fill="#ffa000" stroke="none" stroke-width="0" stroke-linecap="butt"><path d="M233.94366,151.66031c-0.1535,-0.96922 0.50777,-1.87937 1.47698,-2.03288c0.96922,-0.1535 1.87939,0.50776 2.03289,1.47698c0.1535,0.96922 -0.50777,1.87938 -1.47699,2.03288c-0.96922,0.1535 -1.87938,-0.50777 -2.03288,-1.47699z"/><path d="M240.09639,190.25765c-0.1535,-0.96922 0.50778,-1.87938 1.47699,-2.03288c0.96922,-0.1535 1.87937,0.50777 2.03288,1.47699c0.1535,0.96922 -0.50777,1.87938 -1.47699,2.03288c-0.96922,0.1535 -1.87937,-0.50777 -2.03288,-1.47699z"/></g><path d="M235.8537,152.57141c0,0 21.34964,-3.1205 30.47694,0.08976c9.26736,3.25953 25.57868,20.63188 25.57868,20.63188c0,0 -27.9258,22.66503 -29.56737,23.97187c-0.1488,0.11846 -0.30439,-0.1912 -0.30439,-0.1912c0,0 -6.35863,-4.28333 -9.7203,-5.325c-3.30913,-1.02538 -10.42991,-1.31586 -10.42991,-1.31586z" fill="#9a9a9a" stroke="none" stroke-width="0" stroke-linecap="butt"/><path d="M236.0269,153.43684c0,0 17.84851,-3.59469 31.09841,1.53645c11.60123,4.49268 21.62727,17.30161 23.1357,19.25749" fill="none" stroke="#909090" stroke-width="3" stroke-linecap="round"/><path d="M241.46174,187.94341c0,0 6.69245,-0.72474 12.46577,1.48009c5.43467,2.0755 9.37482,6.6931 9.37482,6.6931" fill="none" stroke="#909090" stroke-width="3" stroke-linecap="round"/><path d="M235.7121,151.37679c0,0 16.27869,-3.98637 31.23845,1.23915c13.45979,4.70157 24.92286,20.24651 24.92286,20.24651" fill="none" stroke="#bcbcbc" stroke-width="4.5" stroke-linecap="round"/><path d="M241.87687,189.97029c0,0 6.68919,-0.33876 10.62452,1.14262c5.60399,2.10951 9.06666,6.20185 9.06666,6.20185" fill="none" stroke="#bcbcbc" stroke-width="4.5" stroke-linecap="round"/></g><path d="M261.77524,194.69561v-23.0659l19.87911,18.68596l-8.80087,-0.80893l4.13869,8.85076l-5.47895,1.92409l-4.31404,-9.69458z" fill-opacity="0.36471" fill="#ffffff" stroke="#000000" stroke-width="0" stroke-linecap="butt"/><path d="M262.01914,189.93951v-23.0659l19.87912,18.68596l-8.80088,-0.80893l4.13869,8.85076l-5.47895,1.92409l-4.31403,-9.69458z" fill-opacity="0.67059" fill="#ffffff" stroke="#000000" stroke-width="0" stroke-linecap="butt"/><path d="M261.77525,185.88085v-23.2074l20.00106,18.80059l-8.85487,-0.81389l4.16409,8.90506l-5.51257,1.9359l-4.3405,-9.75405z" fill="#efefef" stroke="#000000" stroke-width="1" stroke-linecap="butt"/><path d="M159.08622,231.61359v-31.02144h161.81111v31.02144z" fill="#efefef" stroke="none" stroke-width="0" stroke-linecap="butt"/><text transform="translate(196.59926,220.68083) scale(0.40172,0.40172)" font-size="40" xml:space="preserve" fill="#4d4d4d" fill-rule="nonzero" stroke="#4d4d4d" stroke-width="3" stroke-linecap="butt" stroke-linejoin="miter" stroke-miterlimit="10" stroke-dasharray="" stroke-dashoffset="0" font-family="Sans Serif" font-weight="normal" text-anchor="start" style="mix-blend-mode: normal"><tspan x="0" dy="0">自定义赛道</tspan></text></g></g></svg>