<svg version="1.1" xmlns="http://www.w3.org/2000/svg" xmlns:xlink="http://www.w3.org/1999/xlink" width="255.33333" height="165.56839" viewBox="0,0,255.33333,165.56839"><defs><linearGradient x1="420.34117" y1="-728.47084" x2="420.34117" y2="3674.06583" gradientUnits="userSpaceOnUse" id="color-1"><stop offset="0" stop-color="#000000" stop-opacity="0"/><stop offset="1" stop-color="#000000"/></linearGradient><radialGradient cx="338.12802" cy="167.85965" r="13.82455" gradientUnits="userSpaceOnUse" id="color-2"><stop offset="0" stop-color="#f07070"/><stop offset="1" stop-color="#cf5555"/></radialGradient><radialGradient cx="338.12802" cy="167.85965" r="11.92469" gradientUnits="userSpaceOnUse" id="color-3"><stop offset="0" stop-color="#ff9d9d"/><stop offset="1" stop-color="#ff9d9d" stop-opacity="0"/></radialGradient><radialGradient cx="338.12802" cy="167.85965" r="11.92469" gradientUnits="userSpaceOnUse" id="color-4"><stop offset="0" stop-color="#ff9d9d"/><stop offset="1" stop-color="#ff9d9d" stop-opacity="0"/></radialGradient><radialGradient cx="282.13849" cy="167.43697" r="13.58909" gradientUnits="userSpaceOnUse" id="color-5"><stop offset="0" stop-color="#f7f7f7"/><stop offset="1" stop-color="#cecece"/></radialGradient><radialGradient cx="282.13849" cy="167.43697" r="11.72159" gradientUnits="userSpaceOnUse" id="color-6"><stop offset="0" stop-color="#f7f7f7"/><stop offset="1" stop-color="#f7f7f7" stop-opacity="0"/></radialGradient><radialGradient cx="310.23697" cy="167.68679" r="13.82455" gradientUnits="userSpaceOnUse" id="color-7"><stop offset="0" stop-color="#f07070"/><stop offset="1" stop-color="#cf5555"/></radialGradient><radialGradient cx="310.23697" cy="167.68679" r="11.92468" gradientUnits="userSpaceOnUse" id="color-8"><stop offset="0" stop-color="#ff9d9d"/><stop offset="1" stop-color="#ff9d9d" stop-opacity="0"/></radialGradient><radialGradient cx="310.23697" cy="167.68679" r="11.92468" gradientUnits="userSpaceOnUse" id="color-9"><stop offset="0" stop-color="#ff9d9d"/><stop offset="1" stop-color="#ff9d9d" stop-opacity="0"/></radialGradient><radialGradient cx="309.92591" cy="191.53421" r="13.82455" gradientUnits="userSpaceOnUse" id="color-10"><stop offset="0" stop-color="#f07070"/><stop offset="1" stop-color="#cf5555"/></radialGradient><radialGradient cx="309.92591" cy="191.53421" r="11.92469" gradientUnits="userSpaceOnUse" id="color-11"><stop offset="0" stop-color="#ff9d9d"/><stop offset="1" stop-color="#ff9d9d" stop-opacity="0"/></radialGradient><radialGradient cx="309.92591" cy="191.53421" r="11.92469" gradientUnits="userSpaceOnUse" id="color-12"><stop offset="0" stop-color="#ff9d9d"/><stop offset="1" stop-color="#ff9d9d" stop-opacity="0"/></radialGradient><radialGradient cx="282.00023" cy="191.21531" r="13.58909" gradientUnits="userSpaceOnUse" id="color-13"><stop offset="0" stop-color="#f7f7f7"/><stop offset="1" stop-color="#cecece"/></radialGradient><radialGradient cx="282.00023" cy="191.21531" r="11.72159" gradientUnits="userSpaceOnUse" id="color-14"><stop offset="0" stop-color="#f7f7f7"/><stop offset="1" stop-color="#f7f7f7" stop-opacity="0"/></radialGradient><radialGradient cx="254.62763" cy="167.43697" r="13.5891" gradientUnits="userSpaceOnUse" id="color-15"><stop offset="0" stop-color="#f7f7f7"/><stop offset="1" stop-color="#cecece"/></radialGradient><radialGradient cx="254.62763" cy="167.43697" r="11.72159" gradientUnits="userSpaceOnUse" id="color-16"><stop offset="0" stop-color="#f7f7f7"/><stop offset="1" stop-color="#f7f7f7" stop-opacity="0"/></radialGradient><radialGradient cx="254.48939" cy="191.21531" r="13.58909" gradientUnits="userSpaceOnUse" id="color-17"><stop offset="0" stop-color="#f7f7f7"/><stop offset="1" stop-color="#cecece"/></radialGradient><radialGradient cx="254.48939" cy="191.21531" r="11.72159" gradientUnits="userSpaceOnUse" id="color-18"><stop offset="0" stop-color="#f7f7f7"/><stop offset="1" stop-color="#f7f7f7" stop-opacity="0"/></radialGradient><radialGradient cx="224.90492" cy="167.85965" r="13.82455" gradientUnits="userSpaceOnUse" id="color-19"><stop offset="0" stop-color="#f07070"/><stop offset="1" stop-color="#cf5555"/></radialGradient><radialGradient cx="224.90492" cy="167.85965" r="11.92468" gradientUnits="userSpaceOnUse" id="color-20"><stop offset="0" stop-color="#ff9d9d"/><stop offset="1" stop-color="#ff9d9d" stop-opacity="0"/></radialGradient><radialGradient cx="224.90492" cy="167.85965" r="11.92468" gradientUnits="userSpaceOnUse" id="color-21"><stop offset="0" stop-color="#ff9d9d"/><stop offset="1" stop-color="#ff9d9d" stop-opacity="0"/></radialGradient><radialGradient cx="168.9154" cy="167.43697" r="13.5891" gradientUnits="userSpaceOnUse" id="color-22"><stop offset="0" stop-color="#f7f7f7"/><stop offset="1" stop-color="#cecece"/></radialGradient><radialGradient cx="168.9154" cy="167.43697" r="11.72159" gradientUnits="userSpaceOnUse" id="color-23"><stop offset="0" stop-color="#f7f7f7"/><stop offset="1" stop-color="#f7f7f7" stop-opacity="0"/></radialGradient><radialGradient cx="197.01388" cy="167.68679" r="13.82456" gradientUnits="userSpaceOnUse" id="color-24"><stop offset="0" stop-color="#f07070"/><stop offset="1" stop-color="#cf5555"/></radialGradient><radialGradient cx="197.01388" cy="167.68679" r="11.92469" gradientUnits="userSpaceOnUse" id="color-25"><stop offset="0" stop-color="#ff9d9d"/><stop offset="1" stop-color="#ff9d9d" stop-opacity="0"/></radialGradient><radialGradient cx="197.01388" cy="167.68679" r="11.92469" gradientUnits="userSpaceOnUse" id="color-26"><stop offset="0" stop-color="#ff9d9d"/><stop offset="1" stop-color="#ff9d9d" stop-opacity="0"/></radialGradient><radialGradient cx="196.70283" cy="191.53421" r="13.82455" gradientUnits="userSpaceOnUse" id="color-27"><stop offset="0" stop-color="#f07070"/><stop offset="1" stop-color="#cf5555"/></radialGradient><radialGradient cx="196.70283" cy="191.53421" r="11.92468" gradientUnits="userSpaceOnUse" id="color-28"><stop offset="0" stop-color="#ff9d9d"/><stop offset="1" stop-color="#ff9d9d" stop-opacity="0"/></radialGradient><radialGradient cx="196.70283" cy="191.53421" r="11.92468" gradientUnits="userSpaceOnUse" id="color-29"><stop offset="0" stop-color="#ff9d9d"/><stop offset="1" stop-color="#ff9d9d" stop-opacity="0"/></radialGradient><radialGradient cx="168.77715" cy="191.21531" r="13.58909" gradientUnits="userSpaceOnUse" id="color-30"><stop offset="0" stop-color="#f7f7f7"/><stop offset="1" stop-color="#cecece"/></radialGradient><radialGradient cx="168.77715" cy="191.21531" r="11.72159" gradientUnits="userSpaceOnUse" id="color-31"><stop offset="0" stop-color="#f7f7f7"/><stop offset="1" stop-color="#f7f7f7" stop-opacity="0"/></radialGradient><radialGradient cx="141.40454" cy="167.43697" r="13.5891" gradientUnits="userSpaceOnUse" id="color-32"><stop offset="0" stop-color="#f7f7f7"/><stop offset="1" stop-color="#cecece"/></radialGradient><radialGradient cx="141.40454" cy="167.43697" r="11.72159" gradientUnits="userSpaceOnUse" id="color-33"><stop offset="0" stop-color="#f7f7f7"/><stop offset="1" stop-color="#f7f7f7" stop-opacity="0"/></radialGradient><radialGradient cx="141.26629" cy="191.21531" r="13.5891" gradientUnits="userSpaceOnUse" id="color-34"><stop offset="0" stop-color="#f7f7f7"/><stop offset="1" stop-color="#cecece"/></radialGradient><radialGradient cx="141.26629" cy="191.21531" r="11.72159" gradientUnits="userSpaceOnUse" id="color-35"><stop offset="0" stop-color="#f7f7f7"/><stop offset="1" stop-color="#f7f7f7" stop-opacity="0"/></radialGradient><radialGradient cx="338.49839" cy="191.56336" r="13.82455" gradientUnits="userSpaceOnUse" id="color-36"><stop offset="0" stop-color="#f07070"/><stop offset="1" stop-color="#cf5555"/></radialGradient><radialGradient cx="338.49839" cy="191.56336" r="11.92469" gradientUnits="userSpaceOnUse" id="color-37"><stop offset="0" stop-color="#ff9d9d"/><stop offset="1" stop-color="#ff9d9d" stop-opacity="0"/></radialGradient><radialGradient cx="338.49839" cy="191.56336" r="11.92469" gradientUnits="userSpaceOnUse" id="color-38"><stop offset="0" stop-color="#ff9d9d"/><stop offset="1" stop-color="#ff9d9d" stop-opacity="0"/></radialGradient><radialGradient cx="224.79853" cy="192.32775" r="13.82455" gradientUnits="userSpaceOnUse" id="color-39"><stop offset="0" stop-color="#f07070"/><stop offset="1" stop-color="#cf5555"/></radialGradient><radialGradient cx="224.79853" cy="192.32775" r="11.92468" gradientUnits="userSpaceOnUse" id="color-40"><stop offset="0" stop-color="#ff9d9d"/><stop offset="1" stop-color="#ff9d9d" stop-opacity="0"/></radialGradient><radialGradient cx="224.79853" cy="192.32775" r="11.92468" gradientUnits="userSpaceOnUse" id="color-41"><stop offset="0" stop-color="#ff9d9d"/><stop offset="1" stop-color="#ff9d9d" stop-opacity="0"/></radialGradient><linearGradient x1="240.72944" y1="222.77313" x2="240.72944" y2="238.67324" gradientUnits="userSpaceOnUse" id="color-42"><stop offset="0" stop-color="#cd2323"/><stop offset="1" stop-color="#f52a2a"/></linearGradient><linearGradient x1="167.50285" y1="227.37642" x2="167.50285" y2="234.12461" gradientUnits="userSpaceOnUse" id="color-43"><stop offset="0" stop-color="#77beee"/><stop offset="1" stop-color="#6cb6ec"/></linearGradient><linearGradient x1="188.0961" y1="227.35477" x2="188.0961" y2="234.10295" gradientUnits="userSpaceOnUse" id="color-44"><stop offset="0" stop-color="#77beee"/><stop offset="1" stop-color="#6cb6ec"/></linearGradient><linearGradient x1="293.87785" y1="227.65539" x2="293.87785" y2="234.40358" gradientUnits="userSpaceOnUse" id="color-45"><stop offset="0" stop-color="#77beee"/><stop offset="1" stop-color="#6cb6ec"/></linearGradient><linearGradient x1="314.4711" y1="227.63374" x2="314.4711" y2="234.38193" gradientUnits="userSpaceOnUse" id="color-46"><stop offset="0" stop-color="#77beee"/><stop offset="1" stop-color="#6cb6ec"/></linearGradient><linearGradient x1="241.4191" y1="143.53647" x2="241.4191" y2="127.63636" gradientUnits="userSpaceOnUse" id="color-47"><stop offset="0" stop-color="#cd2323"/><stop offset="1" stop-color="#f52a2a"/></linearGradient></defs><g transform="translate(-116.91667,-107.51494)"><g data-paper-data="{&quot;isPaintingLayer&quot;:true}" fill-rule="nonzero" stroke-width="0" stroke-linecap="butt" stroke-linejoin="miter" stroke-miterlimit="10" stroke-dasharray="" stroke-dashoffset="0" style="mix-blend-mode: normal"><path d="M350.63603,155.50596c-0.04117,11.30045 -0.2174,59.66703 -0.30603,83.9916c-0.03103,8.51612 -3.44899,14.07308 -9.33188,14.05295c-33.378,-0.11419 -146.75853,-0.4815 -173.48547,-0.29841c-4.07738,0.02793 -15.03799,-15.21304 -14.32858,-21.44758c0.58729,-5.16121 113.4285,-85.3842 113.4285,-85.3842c0,0 62.6603,0.00033 75.38743,0.00039c4.31587,0.00002 8.65295,4.44173 8.63603,9.08525z" fill="url(#color-1)" stroke="none"/><g><g><path d="" fill="url(#color-2)" stroke="#bfbfbf"/><path d="" fill="url(#color-3)" stroke="none"/><path d="" fill="#a3a3a3" stroke="none"/><path d="" fill="url(#color-4)" stroke="none"/><path d="" fill="#323232" stroke="none"/></g><g><path d="" fill="url(#color-5)" stroke="#bfbfbf"/><path d="" fill="url(#color-6)" stroke="none"/><path d="" fill="#a3a3a3" stroke="none"/><path d="" fill="#323232" stroke="none"/></g><g><path d="" fill="url(#color-7)" stroke="#bfbfbf"/><path d="" fill="url(#color-8)" stroke="none"/><path d="" fill="#a3a3a3" stroke="none"/><path d="" fill="url(#color-9)" stroke="none"/><path d="" fill="#323232" stroke="none"/></g><g><path d="" fill="url(#color-10)" stroke="#bfbfbf"/><path d="" fill="url(#color-11)" stroke="none"/><path d="" fill="#a3a3a3" stroke="none"/><path d="" fill="url(#color-12)" stroke="none"/><path d="" fill="#323232" stroke="none"/></g><g><path d="" fill="url(#color-13)" stroke="#bfbfbf"/><path d="" fill="url(#color-14)" stroke="none"/><path d="" fill="#a3a3a3" stroke="none"/><path d="" fill="#323232" stroke="none"/></g><g><path d="" fill="url(#color-15)" stroke="#bfbfbf"/><path d="" fill="url(#color-16)" stroke="none"/><path d="" fill="#a3a3a3" stroke="none"/><path d="" fill="#323232" stroke="none"/></g><g><path d="" fill="url(#color-17)" stroke="#bfbfbf"/><path d="" fill="url(#color-18)" stroke="none"/><path d="" fill="#a3a3a3" stroke="none"/><path d="" fill="#323232" stroke="none"/></g><g><path d="" fill="url(#color-19)" stroke="#bfbfbf"/><path d="" fill="url(#color-20)" stroke="none"/><path d="" fill="#a3a3a3" stroke="none"/><path d="" fill="url(#color-21)" stroke="none"/><path d="" fill="#323232" stroke="none"/></g><g><path d="" fill="url(#color-22)" stroke="#bfbfbf"/><path d="" fill="url(#color-23)" stroke="none"/><path d="" fill="#a3a3a3" stroke="none"/><path d="" fill="#323232" stroke="none"/></g><g><path d="" fill="url(#color-24)" stroke="#bfbfbf"/><path d="" fill="url(#color-25)" stroke="none"/><path d="" fill="#a3a3a3" stroke="none"/><path d="" fill="url(#color-26)" stroke="none"/><path d="" fill="#323232" stroke="none"/></g><g><path d="" fill="url(#color-27)" stroke="#bfbfbf"/><path d="" fill="url(#color-28)" stroke="none"/><path d="" fill="#a3a3a3" stroke="none"/><path d="" fill="url(#color-29)" stroke="none"/><path d="" fill="#323232" stroke="none"/></g><g><path d="" fill="url(#color-30)" stroke="#bfbfbf"/><path d="" fill="url(#color-31)" stroke="none"/><path d="" fill="#a3a3a3" stroke="none"/><path d="" fill="#323232" stroke="none"/></g><g><path d="" fill="url(#color-32)" stroke="#bfbfbf"/><path d="" fill="url(#color-33)" stroke="none"/><path d="" fill="#a3a3a3" stroke="none"/><path d="" fill="#323232" stroke="none"/></g><g><path d="" fill="url(#color-34)" stroke="#bfbfbf"/><path d="" fill="url(#color-35)" stroke="none"/><path d="" fill="#a3a3a3" stroke="none"/><path d="" fill="#323232" stroke="none"/></g><g><path d="" fill="url(#color-36)" stroke="#bfbfbf"/><path d="" fill="url(#color-37)" stroke="none"/><path d="" fill="#a3a3a3" stroke="none"/><path d="" fill="url(#color-38)" stroke="none"/><path d="" fill="#323232" stroke="none"/></g><g><path d="" fill="url(#color-39)" stroke="#bfbfbf"/><path d="" fill="url(#color-40)" stroke="none"/><path d="" fill="#a3a3a3" stroke="none"/><path d="" fill="url(#color-41)" stroke="none"/><path d="" fill="#323232" stroke="none"/></g></g><path d="M142.10538,223.33076l-3.14516,-5.30452l0.24194,-73.91434l202.12795,-0.78938l0.10949,76.10589l-2.73722,3.90236z" fill="#d52525" stroke="none"/><g data-paper-data="{&quot;index&quot;:null}" stroke="none"><path d="M339.54587,143.6223v1.2665h-196.86227v-1.2665z" fill="#eeeeee"/><path d="M337.7709,142.6137l1.74741,1.09706h-196.86229l1.74741,-1.09706z" fill="#d3d3d3"/></g><path d="M138.33352,218.18703v-74.0725h3.67925v74.0725z" data-paper-data="{&quot;index&quot;:null}" fill="#ededed" stroke="none"/><g stroke="none"><path d="M142.68361,221.30799v-1.2665h196.86227v1.2665z" fill="#eeeeee"/><path d="M144.40342,222.31659l-1.74741,-1.09706h196.86229l-1.74741,1.09706z" fill="#d3d3d3"/></g><path d="M141.87126,218.32145v-74.20693h0.7783v74.20693z" data-paper-data="{&quot;index&quot;:null}" fill="#e3e3e3" stroke="none"/><path d="M338.10074,219.37861v-76.31843h3.67925v76.31843z" fill="#ededed" stroke="none"/><path d="M337.46395,219.5171v-76.45693h0.7783v76.45693z" fill="#e3e3e3" stroke="none"/><path d="M152.84721,238.67324l-10.82701,-15.47559l196.8116,-0.07851l-10.67209,15.5541h-75.95344l-2.13674,-13.09149l-26.37045,-0.12853l2.80844,13.22002c0,0 -6.73763,0 -12.46251,0c-12.6862,0 -61.19781,-0.00001 -61.19781,-0.00001z" fill="url(#color-42)" stroke="none"/><path d="M162.01803,234.12461l-1.50214,-7.3628l12.47175,0.61462v6.74818z" fill="url(#color-43)" stroke="none"/><path d="M161.63102,230.9839v-0.60326c0,0 2.80804,0 4.50883,0c2.21646,0 7.6574,0 7.6574,0v0.60326z" fill="#f1f1f1" stroke="none"/><path d="M162.06829,230.43691v-0.24706h11.09188l0.05053,0.24706z" fill="#c8c8c8" stroke="none"/><path d="M161.28402,234.60022l-1.67952,-7.10387h2.15977l1.09631,7.10387z" fill="#f1f1f1" stroke="none"/><path d="M161.6014,234.62094v-0.60326c0,0 2.80804,0 4.50883,0c2.21646,0 7.65739,0 7.65739,0v0.60326z" fill="#f1f1f1" stroke="none"/><path d="M172.16924,234.49409l0.75926,-7.10389h2.3732l-1.5559,7.10389z" fill="#f1f1f1" stroke="none"/><path d="M159.59907,227.53375l-0.27926,-1.14135h16.26067l-0.30445,1.14135z" fill="#f1f1f1" stroke="none"/><path d="M162.55642,234.07235v-0.28235h9.64218l0.05053,0.28235z" fill="#c8c8c8" stroke="none"/><path d="M159.33081,226.45856v-0.67059h16.17732v0.67059z" fill="#c8c8c8" stroke="none"/><path d="M167.15211,234.19852l-0.26888,-6.83436h1.16517l-0.26889,6.83436z" fill="#f1f1f1" stroke="none"/><path d="M182.61128,234.10295l-1.50214,-7.3628l12.47175,0.61461v6.74819z" fill="url(#color-44)" stroke="none"/><path d="M182.22427,230.96224v-0.60326c0,0 2.80804,0 4.50883,0c2.21646,0 7.6574,0 7.6574,0v0.60326z" fill="#f1f1f1" stroke="none"/><path d="M182.66154,230.41525v-0.24705h11.09188l0.05053,0.24705z" fill="#c8c8c8" stroke="none"/><path d="M181.87728,234.57857l-1.67952,-7.10388h2.15977l1.09631,7.10388z" fill="#f1f1f1" stroke="none"/><path d="M182.19466,234.59929v-0.60326c0,0 2.80804,0 4.50883,0c2.21646,0 7.65739,0 7.65739,0v0.60326z" fill="#f1f1f1" stroke="none"/><path d="M192.7625,234.47244l0.75926,-7.10388h2.3732l-1.5559,7.10388z" fill="#f1f1f1" stroke="none"/><path d="M180.19233,227.51209l-0.27926,-1.14135h16.26067l-0.30445,1.14135z" fill="#f1f1f1" stroke="none"/><path d="M183.14967,234.05069v-0.28235h9.64218l0.05053,0.28235z" fill="#c8c8c8" stroke="none"/><path d="M179.92406,226.43691v-0.6706h16.17732v0.6706z" fill="#c8c8c8" stroke="none"/><path d="M187.74537,234.17686l-0.26888,-6.83436h1.16517l-0.26889,6.83436z" fill="#f1f1f1" stroke="none"/><path d="M151.87532,237.8301v-0.36535h65.89342v0.36535z" fill="#f7f7f7" stroke="none"/><path d="M152.75053,238.80865l-0.88072,-1.2064c0,0 13.60232,0 22.03413,0c9.49496,0 31.0606,0 37.89011,0c1.34253,0 6.7188,0 6.7188,0v1.16911z" fill="#ededed" stroke="none"/><path d="M218.30268,238.61352l-1.73266,-12.84676h19.05929v12.88972z" fill="#e12d2d" stroke="none"/><path d="M217.66944,238.71732l-2.03085,-12.28429h2.04987l1.61336,12.28429z" fill="#d3d3d3" stroke="none"/><path d="M234.68565,238.71185l-0.77815,-12.37157h2.04987l0.36067,12.37157z" fill="#d3d3d3" stroke="none"/><path d="M233.23198,238.70119l-16.82453,-12.07884l1.66771,-0.8867l17.55514,13.01059z" fill="#d3d3d3" stroke="none"/><path d="M219.20014,238.66964l-1.39999,-11.12499l0.50909,0.42607l1.46362,10.69892z" fill="#c1c1c1" stroke="none"/><path d="M236.12729,238.71697l-0.25455,-12.21382h0.44546l0.25454,12.21382z" fill="#c1c1c1" stroke="none"/><path d="M219.04544,226.50456h0.64525l14.958,11.12764v0.48002z" fill="#e5e5e5" stroke="none"/><path d="M218.06389,238.66936l16.44063,-12.87968l1.66771,0.8867l-15.82733,11.99157z" data-paper-data="{&quot;index&quot;:null}" fill="#d3d3d3" stroke="none"/><path d="M226.67109,231.97384v-0.30546l6.68711,-5.10562v0.30546z" fill="#e5e5e5" stroke="none"/><path d="M219.57427,237.51517v-0.30547l5.51393,-4.40674l0.29058,0.17589z" fill="#e5e5e5" stroke="none"/><path d="M152.18662,238.01002l-14.03815,-20.00298h3.51656l13.27728,20.00298z" fill="#ededed" stroke="none"/><path d="M154.52899,237.56996l-12.88417,-19.55221h0.76471l12.41358,19.15837z" fill="#e3e3e3" stroke="none"/><path d="M261.75831,237.61775v-0.36535h67.40136v0.36535z" data-paper-data="{&quot;index&quot;:null}" fill="#f7f7f7" stroke="none"/><path d="M260.97253,238.78686v-1.16911c0,0 34.75537,0 46.11684,0c8.43182,0 22.03413,0 22.03413,0l-0.88072,1.2064z" data-paper-data="{&quot;index&quot;:null}" fill="#ededed" stroke="none"/><path d="M325.97749,237.93253l12.35748,-18.65824h3.51656l-13.11834,18.65824z" data-paper-data="{&quot;index&quot;:null}" fill="#ededed" stroke="none"/><path d="M326.0967,237.09862l11.49378,-17.81363h0.7647l-11.96436,18.20747z" data-paper-data="{&quot;index&quot;:null}" fill="#e3e3e3" stroke="none"/><path d="M244.68174,238.6761v-12.88971h19.05928l-1.73266,12.84675z" fill="#e12d2d" stroke="none"/><path d="M261.00922,238.73693l1.61336,-12.2843h2.04987l-2.03085,12.2843z" fill="#d3d3d3" stroke="none"/><path d="M243.99302,238.7751l0.36066,-12.41521h2.04987l-0.77815,12.41521z" fill="#d3d3d3" stroke="none"/><path d="M244.68074,238.76585l17.55514,-13.01058l1.66771,0.8867l-16.82453,12.07885z" fill="#d3d3d3" stroke="none"/><path d="M260.53819,238.68925l1.46362,-10.69893l0.50909,-0.42606l-1.39999,11.12499z" fill="#c1c1c1" stroke="none"/><path d="M243.73831,238.7366l0.25454,-12.21382h0.44546l-0.25455,12.21382z" fill="#c1c1c1" stroke="none"/><path d="M245.66236,238.13185v-0.48002l14.95801,-11.12764h0.64524z" fill="#e5e5e5" stroke="none"/><path d="M259.96615,238.68758l-15.82733,-11.99157l1.66771,-0.8867l16.44063,12.87968z" data-paper-data="{&quot;index&quot;:null}" fill="#d3d3d3" stroke="none"/><path d="M246.61797,226.53321l0.4522,-0.0127l6.56979,5.16749v0.30546z" fill="#e5e5e5" stroke="none"/><path d="M254.93226,232.99848l0.29058,-0.17589l5.51393,4.40674v0.30547z" fill="#e5e5e5" stroke="none"/><g stroke="none"><path d="M203.00014,225.54132v-1.2665h76.97907v1.2665z" fill="#eeeeee"/><path d="M203.67264,226.54993l-0.68329,-1.09706h76.97908l-0.68329,1.09706z" fill="#d3d3d3"/></g><path d="M217.83081,238.69678v-0.8502h17.85715v0.8502z" fill="#d3d3d3" stroke="none"/><path d="M244.47366,238.80306v-0.8502h17.85715v0.8502z" fill="#d3d3d3" stroke="none"/><path d="M288.39303,234.40358l-1.50214,-7.3628l12.47175,0.61461v6.74819z" fill="url(#color-45)" stroke="none"/><path d="M288.00602,231.26287v-0.60326c0,0 2.80804,0 4.50883,0c2.21646,0 7.6574,0 7.6574,0v0.60326z" fill="#f1f1f1" stroke="none"/><path d="M288.44329,230.71588v-0.24706h11.09188l0.05053,0.24706z" fill="#c8c8c8" stroke="none"/><path d="M287.65902,234.87919l-1.67952,-7.10388h2.15977l1.09631,7.10388z" fill="#f1f1f1" stroke="none"/><path d="M287.9764,234.89992v-0.60326c0,0 2.80804,0 4.50883,0c2.21646,0 7.6574,0 7.6574,0v0.60326z" fill="#f1f1f1" stroke="none"/><path d="M298.54425,234.77307l0.75926,-7.10389h2.3732l-1.5559,7.10389z" fill="#f1f1f1" stroke="none"/><path d="M285.97407,227.81272l-0.27927,-1.14135h16.26067l-0.30445,1.14135z" fill="#f1f1f1" stroke="none"/><path d="M288.93142,234.35132v-0.28235h9.64219l0.05053,0.28235z" fill="#c8c8c8" stroke="none"/><path d="M285.7058,226.73754v-0.67059h16.17732v0.67059z" fill="#c8c8c8" stroke="none"/><path d="M293.52711,234.47749l-0.26889,-6.83437h1.16517l-0.26889,6.83437z" fill="#f1f1f1" stroke="none"/><path d="M308.98628,234.38193l-1.50214,-7.3628l12.47175,0.61461v6.74819z" fill="url(#color-46)" stroke="none"/><path d="M308.59927,231.24121v-0.60327c0,0 2.80804,0 4.50883,0c2.21646,0 7.6574,0 7.6574,0v0.60327z" fill="#f1f1f1" stroke="none"/><path d="M309.03654,230.69423v-0.24706h11.09188l0.05053,0.24706z" fill="#c8c8c8" stroke="none"/><path d="M308.25227,234.85754l-1.67952,-7.10387h2.15977l1.09631,7.10387z" fill="#f1f1f1" stroke="none"/><path d="M308.56966,234.87826v-0.60326c0,0 2.80804,0 4.50883,0c2.21646,0 7.6574,0 7.6574,0v0.60326z" fill="#f1f1f1" stroke="none"/><path d="M319.1375,234.75141l0.75926,-7.10389h2.3732l-1.5559,7.10389z" fill="#f1f1f1" stroke="none"/><path d="M306.56733,227.79106l-0.27927,-1.14135h16.26067l-0.30445,1.14135z" fill="#f1f1f1" stroke="none"/><path d="M309.52467,234.32966v-0.28235h9.64219l0.05053,0.28235z" fill="#c8c8c8" stroke="none"/><path d="M306.29906,226.71588v-0.6706h16.17732v0.6706z" fill="#c8c8c8" stroke="none"/><path d="M314.12037,234.45583l-0.26889,-6.83436h1.16517l-0.26889,6.83436z" fill="#f1f1f1" stroke="none"/><g stroke="none"><path d="M158.19427,248.60613c-0.09074,-0.19577 -0.27824,-0.55676 -0.50342,-0.97909c-0.60599,-1.13657 -1.48483,-2.71737 -1.48483,-2.71737c0,0 4.0138,-1.33881 8.36324,-1.3793c2.20406,-0.02052 4.65827,1.26804 6.38538,1.24157c1.98065,-0.03035 3.69351,-1.46395 5.74968,-1.45125c2.60657,0.0161 5.46357,1.48482 6.80104,1.48909c0.63918,0.00204 1.48749,-0.53707 1.48749,-0.53707c0,0 1.73681,3.53384 2.0732,4.31957c0.10845,0.25332 -0.39167,0.49594 -0.7329,0.48721c-2.19779,-0.05618 -10.32997,-0.26521 -14.62851,-0.26521c-3.89893,0 -10.7367,0.20056 -12.72662,0.26157c-0.35698,0.01094 -0.6711,-0.22671 -0.78375,-0.46974z" fill="#e6bf24"/><path d="M184.9036,244.40698c0,0 0.34913,-0.3526 0.36634,-0.70045c0.06178,-1.24861 -0.03457,-8.14804 -0.03457,-8.14804l2.01545,4.30172c0,0 0,6.62355 0,8.13404c0,0.5098 -0.07408,0.856 -0.15633,0.67082c-0.30791,-0.69327 -2.1909,-4.25808 -2.1909,-4.25808z" fill="#d9b420"/><path d="M155.87155,243.95767c0,-2.20739 0,-7.38298 0,-8.32267c0,-0.28771 0.40762,-0.52714 1.09775,-0.5147c1.60468,0.02892 6.39061,0.43302 7.8232,0.40843c1.56068,-0.02679 4.09583,-0.24272 5.64696,-0.24272c2.28251,0 5.91322,0.30658 7.69779,0.31531c1.22174,0.00598 4.87987,-0.41457 6.01789,-0.43464c0.70177,-0.01238 1.11642,0.11321 1.11642,0.42182c0,1.61468 0,6.75345 0,8.09019c0,0.61431 -0.87779,1.2605 -2.24065,1.23736c-1.17281,-0.01991 -2.81483,-0.47857 -4.45607,-0.47856c-1.53573,0 -5.93892,0.33219 -8.13538,0.33219c-1.54167,0 -4.71494,-0.19463 -5.64379,-0.24318c-1.04227,-0.05448 -6.49473,0.38579 -8.01227,0.4134c-0.53845,0.00979 -0.91184,-0.36851 -0.91184,-0.98224z" fill="#ffd321"/><path d="M164.57196,244.51113v-8.98454h0.49632v8.98454z" fill="#76651f"/><path d="M177.84401,244.4154v-8.82044h0.49633v8.82044z" fill="#76651f"/><path d="M166.15513,248.85347l-1.56151,-4.36499h0.47319l1.56151,4.36499z" fill="#63541a"/><path d="M179.38857,248.87693l-1.56151,-4.47059h0.47319l1.56151,4.47059z" fill="#63541a"/></g><g data-paper-data="{&quot;index&quot;:null}" stroke="none"><path d="M322.87866,247.947c-1.98993,-0.06101 -8.8277,-0.26158 -12.72663,-0.26158c-4.29854,0 -12.43072,0.20903 -14.62851,0.26522c-0.34123,0.00872 -0.84136,-0.23389 -0.7329,-0.48721c0.33639,-0.78573 2.0732,-4.31957 2.0732,-4.31957c0,0 0.8483,0.53911 1.48748,0.53707c1.33747,-0.00427 4.19447,-1.47299 6.80104,-1.48909c2.05617,-0.01271 3.76904,1.4209 5.74968,1.45125c1.72712,0.02647 4.18131,-1.2621 6.38538,-1.24158c4.34944,0.04049 8.36324,1.3793 8.36324,1.3793c0,0 -0.87883,1.58079 -1.48483,2.71737c-0.22517,0.42233 -0.41267,0.78332 -0.50342,0.97909c-0.11265,0.24302 -0.42676,0.48068 -0.78375,0.46974z" fill="#e6bf24"/><path d="M294.76218,247.53619c-0.08225,0.18518 -0.15632,-0.16102 -0.15632,-0.67082c0,-1.51049 0,-8.13404 0,-8.13404l2.01545,-4.30172c0,0 -0.09635,6.89943 -0.03457,8.14804c0.01721,0.34785 0.36634,0.70046 0.36634,0.70046c0,0 -1.88299,3.5648 -2.1909,4.25807z" fill="#d9b420"/><path d="M325.07328,243.81103c-1.51754,-0.02761 -6.97,-0.46789 -8.01227,-0.41341c-0.92885,0.04855 -4.10212,0.24319 -5.64379,0.24319c-2.19646,0 -6.59965,-0.33219 -8.13538,-0.33219c-1.64125,0 -3.28325,0.45864 -4.45607,0.47856c-1.36285,0.02314 -2.24065,-0.62305 -2.24065,-1.23735c0,-1.33674 0,-6.47552 0,-8.09019c0,-0.3086 0.41465,-0.4342 1.11642,-0.42182c1.13801,0.02007 4.79614,0.44062 6.01788,0.43464c1.78457,-0.00874 5.41528,-0.31532 7.69779,-0.31532c1.55113,0 4.08628,0.21593 5.64696,0.24272c1.43259,0.02459 6.21851,-0.37952 7.8232,-0.40844c0.69012,-0.01244 1.09774,0.227 1.09774,0.51471c0,0.93968 0,6.11527 0,8.32267c0,0.61372 -0.37339,0.99203 -0.91184,0.98224z" fill="#ffd321"/><path d="M316.7884,243.38225v-8.98454h0.49632v8.98454z" fill="#76651f"/><path d="M303.51634,243.28653v-8.82044h0.49633v8.82044z" fill="#76651f"/><path d="M315.22836,247.72459l1.56151,-4.36499h0.47319l-1.56151,4.36499z" fill="#63541a"/><path d="M301.99492,247.74806l1.56151,-4.47059h0.47319l-1.56151,4.47059z" fill="#63541a"/></g><g data-paper-data="{&quot;index&quot;:null}" stroke="none"><path d="M290.86567,247.89869c-1.98993,-0.06101 -8.8277,-0.26158 -12.72663,-0.26158c-4.29854,0 -12.43071,0.20903 -14.6285,0.26522c-0.34123,0.00872 -0.84136,-0.23389 -0.73291,-0.48721c0.33639,-0.78573 2.0732,-4.31957 2.0732,-4.31957c0,0 0.8483,0.53911 1.48748,0.53707c1.33747,-0.00427 4.19447,-1.47299 6.80104,-1.48909c2.05617,-0.01271 3.76904,1.4209 5.74968,1.45125c1.72712,0.02647 4.18131,-1.26209 6.38538,-1.24157c4.34944,0.04049 8.36324,1.3793 8.36324,1.3793c0,0 -0.87883,1.58078 -1.48483,2.71736c-0.22517,0.42233 -0.41267,0.78332 -0.50342,0.9791c-0.11265,0.24302 -0.42676,0.48068 -0.78375,0.46974z" fill="#e6bf24"/><path d="M262.74919,247.48788c-0.08225,0.18518 -0.15632,-0.16102 -0.15632,-0.67082c0,-1.51049 0,-8.13404 0,-8.13404l2.01545,-4.30172c0,0 -0.09635,6.89942 -0.03457,8.14803c0.01721,0.34785 0.36634,0.70046 0.36634,0.70046c0,0 -1.88299,3.56481 -2.1909,4.25808z" fill="#d9b420"/><path d="M293.06028,243.76273c-1.51754,-0.02761 -6.97,-0.46789 -8.01227,-0.41341c-0.92885,0.04855 -4.10212,0.24319 -5.64379,0.24319c-2.19646,0 -6.59965,-0.33219 -8.13538,-0.33219c-1.64125,0 -3.28325,0.45864 -4.45607,0.47856c-1.36285,0.02314 -2.24065,-0.62305 -2.24065,-1.23736c0,-1.33674 0,-6.47552 0,-8.09019c0,-0.3086 0.41465,-0.43419 1.11642,-0.42181c1.13801,0.02007 4.79614,0.44062 6.01788,0.43464c1.78457,-0.00874 5.41528,-0.31531 7.69779,-0.31531c1.55113,0 4.08628,0.21592 5.64696,0.24271c1.43259,0.02459 6.21851,-0.37951 7.8232,-0.40843c0.69012,-0.01244 1.09775,0.22699 1.09775,0.51471c0,0.93968 0,6.11528 0,8.32267c0,0.61372 -0.3734,0.99203 -0.91185,0.98224z" fill="#ffd321"/><path d="M284.7754,243.33395v-8.98455h0.49632v8.98455z" fill="#76651f"/><path d="M271.50334,243.23822v-8.82044h0.49633v8.82044z" fill="#76651f"/><path d="M283.21537,247.67629l1.56151,-4.36499h0.47319l-1.56151,4.36499z" fill="#63541a"/><path d="M269.98193,247.69975l1.56151,-4.47059h0.47319l-1.56151,4.47059z" fill="#63541a"/></g><g data-paper-data="{&quot;index&quot;:null}" stroke="none"><path d="M309.11243,242.63324c-1.98993,-0.06101 -8.8277,-0.26158 -12.72663,-0.26158c-4.29854,0 -12.43072,0.20903 -14.62851,0.26522c-0.34123,0.00872 -0.84136,-0.2339 -0.7329,-0.48722c0.33639,-0.78573 2.0732,-4.31957 2.0732,-4.31957c0,0 0.8483,0.53912 1.48748,0.53708c1.33747,-0.00427 4.19447,-1.47299 6.80104,-1.48909c2.05617,-0.01271 3.76904,1.4209 5.74968,1.45125c1.72712,0.02647 4.18131,-1.2621 6.38538,-1.24158c4.34944,0.04049 8.36324,1.37931 8.36324,1.37931c0,0 -0.87883,1.58078 -1.48483,2.71736c-0.22517,0.42233 -0.41267,0.78332 -0.50342,0.9791c-0.11265,0.24302 -0.42676,0.48068 -0.78375,0.46974z" fill="#e6bf24"/><path d="M280.99595,242.22244c-0.08225,0.18518 -0.15632,-0.16102 -0.15632,-0.67082c0,-1.51049 0,-8.13404 0,-8.13404l2.01545,-4.30172c0,0 -0.09635,6.89942 -0.03457,8.14803c0.01721,0.34785 0.36634,0.70046 0.36634,0.70046c0,0 -1.88299,3.56481 -2.1909,4.25808z" fill="#d9b420"/><path d="M311.30704,238.49728c-1.51754,-0.02761 -6.97,-0.46789 -8.01227,-0.41341c-0.92885,0.04855 -4.10212,0.24319 -5.64379,0.24319c-2.19646,0 -6.59965,-0.33219 -8.13538,-0.33219c-1.64125,0 -3.28325,0.45864 -4.45607,0.47856c-1.36285,0.02314 -2.24064,-0.62305 -2.24064,-1.23736c0,-1.33674 0,-6.47552 0,-8.09019c0,-0.3086 0.41465,-0.43419 1.11642,-0.42181c1.13801,0.02007 4.79614,0.44062 6.01788,0.43464c1.78457,-0.00874 5.41528,-0.31531 7.69779,-0.31531c1.55113,0 4.08628,0.21592 5.64696,0.24271c1.43259,0.02459 6.21851,-0.37951 7.8232,-0.40843c0.69012,-0.01244 1.09774,0.22699 1.09774,0.51471c0,0.93968 0,6.11528 0,8.32267c0,0.61372 -0.37339,0.99203 -0.91184,0.98224z" fill="#ffd321"/><path d="M303.02216,238.0685v-8.98455h0.49632v8.98455z" fill="#76651f"/><path d="M289.7501,237.97278v-8.82044h0.49633v8.82044z" fill="#76651f"/><path d="M301.46213,242.41084l1.56151,-4.36499h0.47319l-1.56151,4.36499z" fill="#63541a"/><path d="M288.22869,242.43431l1.56151,-4.4706h0.47319l-1.56151,4.4706z" fill="#63541a"/></g><path d="M214.73468,127.63636c5.72488,0 12.4625,0 12.4625,0l25.69876,0.00001h75.95344l10.67209,15.5541l-196.8116,-0.07851l10.82701,-15.47559c0,0 48.51161,-0.00001 61.19781,-0.00001z" data-paper-data="{&quot;index&quot;:null}" fill="url(#color-47)" stroke="none"/><path d="M154.94231,126.92027l-13.27728,20.00298h-3.51656l14.03815,-20.00298z" data-paper-data="{&quot;index&quot;:null}" fill="#ededed" stroke="none"/><path d="M154.82311,127.75417l-12.41358,19.15837h-0.76471l12.88417,-19.55221z" data-paper-data="{&quot;index&quot;:null}" fill="#e3e3e3" stroke="none"/><path d="M328.73319,126.99776l13.11834,18.65824h-3.51656l-12.35748,-18.65824z" data-paper-data="{&quot;index&quot;:null}" fill="#ededed" stroke="none"/><path d="M326.39082,127.43782l11.96436,18.20747h-0.7647l-11.49378,-17.81363z" data-paper-data="{&quot;index&quot;:null}" fill="#e3e3e3" stroke="none"/><path d="M116.91667,273.08333v-161.33333h255.33333v161.33333z" fill="none" stroke="none"/><path d="M125.74974,266.29174v-158.7768h245.75888v158.7768z" fill="none" stroke="none"/></g></g></svg>