<svg version="1.1" xmlns="http://www.w3.org/2000/svg" xmlns:xlink="http://www.w3.org/1999/xlink" width="509.00901" height="382.88288" viewBox="0,0,509.00901,382.88288"><defs><radialGradient cx="748.86918" cy="153.87855" r="45.49233" gradientUnits="userSpaceOnUse" id="color-1"><stop offset="0" stop-color="#f07070"/><stop offset="1" stop-color="#cf5555"/></radialGradient><radialGradient cx="748.86918" cy="153.87855" r="39.24048" gradientUnits="userSpaceOnUse" id="color-2"><stop offset="0" stop-color="#ff9d9d"/><stop offset="1" stop-color="#ff9d9d" stop-opacity="0"/></radialGradient><radialGradient cx="748.86918" cy="153.87855" r="39.24048" gradientUnits="userSpaceOnUse" id="color-3"><stop offset="0" stop-color="#ff9d9d"/><stop offset="1" stop-color="#ff9d9d" stop-opacity="0"/></radialGradient><radialGradient cx="564.62497" cy="152.74436" r="44.71751" gradientUnits="userSpaceOnUse" id="color-4"><stop offset="0" stop-color="#f7f7f7"/><stop offset="1" stop-color="#cecece"/></radialGradient><radialGradient cx="564.62497" cy="152.74436" r="38.57214" gradientUnits="userSpaceOnUse" id="color-5"><stop offset="0" stop-color="#f7f7f7"/><stop offset="1" stop-color="#f7f7f7" stop-opacity="0"/></radialGradient><radialGradient cx="657.08836" cy="153.41477" r="45.49233" gradientUnits="userSpaceOnUse" id="color-6"><stop offset="0" stop-color="#f07070"/><stop offset="1" stop-color="#cf5555"/></radialGradient><radialGradient cx="657.08836" cy="153.41477" r="39.24045" gradientUnits="userSpaceOnUse" id="color-7"><stop offset="0" stop-color="#ff9d9d"/><stop offset="1" stop-color="#ff9d9d" stop-opacity="0"/></radialGradient><radialGradient cx="657.08836" cy="153.41477" r="39.24045" gradientUnits="userSpaceOnUse" id="color-8"><stop offset="0" stop-color="#ff9d9d"/><stop offset="1" stop-color="#ff9d9d" stop-opacity="0"/></radialGradient><radialGradient cx="656.0648" cy="217.42149" r="45.49233" gradientUnits="userSpaceOnUse" id="color-9"><stop offset="0" stop-color="#f07070"/><stop offset="1" stop-color="#cf5555"/></radialGradient><radialGradient cx="656.0648" cy="217.42149" r="39.24048" gradientUnits="userSpaceOnUse" id="color-10"><stop offset="0" stop-color="#ff9d9d"/><stop offset="1" stop-color="#ff9d9d" stop-opacity="0"/></radialGradient><radialGradient cx="656.0648" cy="217.42149" r="39.24048" gradientUnits="userSpaceOnUse" id="color-11"><stop offset="0" stop-color="#ff9d9d"/><stop offset="1" stop-color="#ff9d9d" stop-opacity="0"/></radialGradient><radialGradient cx="564.17002" cy="216.56555" r="44.71751" gradientUnits="userSpaceOnUse" id="color-12"><stop offset="0" stop-color="#f7f7f7"/><stop offset="1" stop-color="#cecece"/></radialGradient><radialGradient cx="564.17002" cy="216.56555" r="38.57214" gradientUnits="userSpaceOnUse" id="color-13"><stop offset="0" stop-color="#f7f7f7"/><stop offset="1" stop-color="#f7f7f7" stop-opacity="0"/></radialGradient><radialGradient cx="474.09517" cy="152.74436" r="44.71754" gradientUnits="userSpaceOnUse" id="color-14"><stop offset="0" stop-color="#f7f7f7"/><stop offset="1" stop-color="#cecece"/></radialGradient><radialGradient cx="474.09517" cy="152.74436" r="38.57214" gradientUnits="userSpaceOnUse" id="color-15"><stop offset="0" stop-color="#f7f7f7"/><stop offset="1" stop-color="#f7f7f7" stop-opacity="0"/></radialGradient><radialGradient cx="473.64024" cy="216.56555" r="44.71751" gradientUnits="userSpaceOnUse" id="color-16"><stop offset="0" stop-color="#f7f7f7"/><stop offset="1" stop-color="#cecece"/></radialGradient><radialGradient cx="473.64024" cy="216.56555" r="38.57214" gradientUnits="userSpaceOnUse" id="color-17"><stop offset="0" stop-color="#f7f7f7"/><stop offset="1" stop-color="#f7f7f7" stop-opacity="0"/></radialGradient><radialGradient cx="376.28686" cy="153.87855" r="45.49233" gradientUnits="userSpaceOnUse" id="color-18"><stop offset="0" stop-color="#f09999"/><stop offset="1" stop-color="#cf5555"/></radialGradient><radialGradient cx="192.04261" cy="152.74436" r="44.71754" gradientUnits="userSpaceOnUse" id="color-19"><stop offset="0" stop-color="#f7f7f7"/><stop offset="1" stop-color="#cecece"/></radialGradient><radialGradient cx="284.50604" cy="153.98991" r="45.49236" gradientUnits="userSpaceOnUse" id="color-20"><stop offset="0" stop-color="#f09797"/><stop offset="1" stop-color="#cf5555"/></radialGradient><radialGradient cx="283.48247" cy="217.42149" r="45.49233" gradientUnits="userSpaceOnUse" id="color-21"><stop offset="0" stop-color="#f09999"/><stop offset="1" stop-color="#cf5555"/></radialGradient><radialGradient cx="191.5877" cy="216.56555" r="44.71751" gradientUnits="userSpaceOnUse" id="color-22"><stop offset="0" stop-color="#f7f7f7"/><stop offset="1" stop-color="#cecece"/></radialGradient><radialGradient cx="101.51285" cy="152.74436" r="44.71754" gradientUnits="userSpaceOnUse" id="color-23"><stop offset="0" stop-color="#f7f7f7"/><stop offset="1" stop-color="#cecece"/></radialGradient><radialGradient cx="101.05791" cy="216.56555" r="44.71754" gradientUnits="userSpaceOnUse" id="color-24"><stop offset="0" stop-color="#f7f7f7"/><stop offset="1" stop-color="#cecece"/></radialGradient><radialGradient cx="750.08796" cy="217.49974" r="45.49233" gradientUnits="userSpaceOnUse" id="color-25"><stop offset="0" stop-color="#f07070"/><stop offset="1" stop-color="#cf5555"/></radialGradient><radialGradient cx="750.08796" cy="217.49974" r="39.24048" gradientUnits="userSpaceOnUse" id="color-26"><stop offset="0" stop-color="#ff9d9d"/><stop offset="1" stop-color="#ff9d9d" stop-opacity="0"/></radialGradient><radialGradient cx="750.08796" cy="217.49974" r="39.24048" gradientUnits="userSpaceOnUse" id="color-27"><stop offset="0" stop-color="#ff9d9d"/><stop offset="1" stop-color="#ff9d9d" stop-opacity="0"/></radialGradient><radialGradient cx="375.93676" cy="219.55135" r="45.49233" gradientUnits="userSpaceOnUse" id="color-28"><stop offset="0" stop-color="#f09999"/><stop offset="1" stop-color="#cf5555"/></radialGradient><radialGradient cx="750.74959" cy="140.95085" r="45.49233" gradientUnits="userSpaceOnUse" id="color-29"><stop offset="0" stop-color="#f07070"/><stop offset="1" stop-color="#cf5555"/></radialGradient><radialGradient cx="750.74959" cy="140.95085" r="39.24048" gradientUnits="userSpaceOnUse" id="color-30"><stop offset="0" stop-color="#ff9d9d"/><stop offset="1" stop-color="#ff9d9d" stop-opacity="0"/></radialGradient><radialGradient cx="750.74959" cy="140.95085" r="39.24048" gradientUnits="userSpaceOnUse" id="color-31"><stop offset="0" stop-color="#ff9d9d"/><stop offset="1" stop-color="#ff9d9d" stop-opacity="0"/></radialGradient><radialGradient cx="566.50536" cy="139.81664" r="44.71751" gradientUnits="userSpaceOnUse" id="color-32"><stop offset="0" stop-color="#f7f7f7"/><stop offset="1" stop-color="#cecece"/></radialGradient><radialGradient cx="566.50536" cy="139.81664" r="38.57214" gradientUnits="userSpaceOnUse" id="color-33"><stop offset="0" stop-color="#f7f7f7"/><stop offset="1" stop-color="#f7f7f7" stop-opacity="0"/></radialGradient><radialGradient cx="658.96874" cy="140.48705" r="45.49233" gradientUnits="userSpaceOnUse" id="color-34"><stop offset="0" stop-color="#f07070"/><stop offset="1" stop-color="#cf5555"/></radialGradient><radialGradient cx="658.96874" cy="140.48705" r="39.24045" gradientUnits="userSpaceOnUse" id="color-35"><stop offset="0" stop-color="#ff9d9d"/><stop offset="1" stop-color="#ff9d9d" stop-opacity="0"/></radialGradient><radialGradient cx="658.96874" cy="140.48705" r="39.24045" gradientUnits="userSpaceOnUse" id="color-36"><stop offset="0" stop-color="#ff9d9d"/><stop offset="1" stop-color="#ff9d9d" stop-opacity="0"/></radialGradient><radialGradient cx="657.9452" cy="204.49378" r="45.49233" gradientUnits="userSpaceOnUse" id="color-37"><stop offset="0" stop-color="#f07070"/><stop offset="1" stop-color="#cf5555"/></radialGradient><radialGradient cx="657.9452" cy="204.49378" r="39.24048" gradientUnits="userSpaceOnUse" id="color-38"><stop offset="0" stop-color="#ff9d9d"/><stop offset="1" stop-color="#ff9d9d" stop-opacity="0"/></radialGradient><radialGradient cx="657.9452" cy="204.49378" r="39.24048" gradientUnits="userSpaceOnUse" id="color-39"><stop offset="0" stop-color="#ff9d9d"/><stop offset="1" stop-color="#ff9d9d" stop-opacity="0"/></radialGradient><radialGradient cx="566.05043" cy="203.63783" r="44.71751" gradientUnits="userSpaceOnUse" id="color-40"><stop offset="0" stop-color="#f7f7f7"/><stop offset="1" stop-color="#cecece"/></radialGradient><radialGradient cx="566.05043" cy="203.63783" r="38.57214" gradientUnits="userSpaceOnUse" id="color-41"><stop offset="0" stop-color="#f7f7f7"/><stop offset="1" stop-color="#f7f7f7" stop-opacity="0"/></radialGradient><radialGradient cx="475.97557" cy="139.81664" r="44.71754" gradientUnits="userSpaceOnUse" id="color-42"><stop offset="0" stop-color="#f7f7f7"/><stop offset="1" stop-color="#cecece"/></radialGradient><radialGradient cx="475.97557" cy="139.81664" r="38.57214" gradientUnits="userSpaceOnUse" id="color-43"><stop offset="0" stop-color="#f7f7f7"/><stop offset="1" stop-color="#f7f7f7" stop-opacity="0"/></radialGradient><radialGradient cx="475.5206" cy="203.63783" r="44.71751" gradientUnits="userSpaceOnUse" id="color-44"><stop offset="0" stop-color="#f7f7f7"/><stop offset="1" stop-color="#cecece"/></radialGradient><radialGradient cx="475.5206" cy="203.63783" r="38.57214" gradientUnits="userSpaceOnUse" id="color-45"><stop offset="0" stop-color="#f7f7f7"/><stop offset="1" stop-color="#f7f7f7" stop-opacity="0"/></radialGradient><radialGradient cx="378.16726" cy="140.95085" r="45.49233" gradientUnits="userSpaceOnUse" id="color-46"><stop offset="0" stop-color="#f09999"/><stop offset="1" stop-color="#cf5555"/></radialGradient><radialGradient cx="193.92301" cy="139.81664" r="44.71754" gradientUnits="userSpaceOnUse" id="color-47"><stop offset="0" stop-color="#f7f7f7"/><stop offset="1" stop-color="#cecece"/></radialGradient><radialGradient cx="286.38645" cy="141.0622" r="45.49236" gradientUnits="userSpaceOnUse" id="color-48"><stop offset="0" stop-color="#f09797"/><stop offset="1" stop-color="#cf5555"/></radialGradient><radialGradient cx="285.36288" cy="204.49378" r="45.49233" gradientUnits="userSpaceOnUse" id="color-49"><stop offset="0" stop-color="#f09999"/><stop offset="1" stop-color="#cf5555"/></radialGradient><radialGradient cx="193.46811" cy="203.63783" r="44.71751" gradientUnits="userSpaceOnUse" id="color-50"><stop offset="0" stop-color="#f7f7f7"/><stop offset="1" stop-color="#cecece"/></radialGradient><radialGradient cx="103.39324" cy="139.81664" r="44.71754" gradientUnits="userSpaceOnUse" id="color-51"><stop offset="0" stop-color="#f7f7f7"/><stop offset="1" stop-color="#cecece"/></radialGradient><radialGradient cx="102.93831" cy="203.63783" r="44.71754" gradientUnits="userSpaceOnUse" id="color-52"><stop offset="0" stop-color="#f7f7f7"/><stop offset="1" stop-color="#cecece"/></radialGradient><radialGradient cx="751.96836" cy="204.57203" r="45.49233" gradientUnits="userSpaceOnUse" id="color-53"><stop offset="0" stop-color="#f07070"/><stop offset="1" stop-color="#cf5555"/></radialGradient><radialGradient cx="751.96836" cy="204.57203" r="39.24048" gradientUnits="userSpaceOnUse" id="color-54"><stop offset="0" stop-color="#ff9d9d"/><stop offset="1" stop-color="#ff9d9d" stop-opacity="0"/></radialGradient><radialGradient cx="751.96836" cy="204.57203" r="39.24048" gradientUnits="userSpaceOnUse" id="color-55"><stop offset="0" stop-color="#ff9d9d"/><stop offset="1" stop-color="#ff9d9d" stop-opacity="0"/></radialGradient><radialGradient cx="377.81717" cy="206.62364" r="45.49233" gradientUnits="userSpaceOnUse" id="color-56"><stop offset="0" stop-color="#f09999"/><stop offset="1" stop-color="#cf5555"/></radialGradient></defs><g transform="translate(11.5015,9.18919)"><g data-paper-data="{&quot;isPaintingLayer&quot;:true}" fill-rule="nonzero" stroke-width="0" stroke-linecap="butt" stroke-linejoin="miter" stroke-miterlimit="10" stroke-dasharray="" stroke-dashoffset="0" style="mix-blend-mode: normal"><path d="M-11.5015,373.69369v-382.88288h509.00901v382.88288z" fill="none" stroke="none"/><g><g><path d="" fill="url(#color-1)" stroke="#bfbfbf"/><path d="" fill="url(#color-2)" stroke="none"/><path d="" fill="#a3a3a3" stroke="none"/><path d="" fill="url(#color-3)" stroke="none"/><path d="" fill="#323232" stroke="none"/></g><g><path d="" fill="url(#color-4)" stroke="#bfbfbf"/><path d="" fill="url(#color-5)" stroke="none"/><path d="" fill="#a3a3a3" stroke="none"/><path d="" fill="#323232" stroke="none"/></g><g><path d="" fill="url(#color-6)" stroke="#bfbfbf"/><path d="" fill="url(#color-7)" stroke="none"/><path d="" fill="#a3a3a3" stroke="none"/><path d="" fill="url(#color-8)" stroke="none"/><path d="" fill="#323232" stroke="none"/></g><g><path d="" fill="url(#color-9)" stroke="#bfbfbf"/><path d="" fill="url(#color-10)" stroke="none"/><path d="" fill="#a3a3a3" stroke="none"/><path d="" fill="url(#color-11)" stroke="none"/><path d="" fill="#323232" stroke="none"/></g><g><path d="" fill="url(#color-12)" stroke="#bfbfbf"/><path d="" fill="url(#color-13)" stroke="none"/><path d="" fill="#a3a3a3" stroke="none"/><path d="" fill="#323232" stroke="none"/></g><g><path d="" fill="url(#color-14)" stroke="#bfbfbf"/><path d="" fill="url(#color-15)" stroke="none"/><path d="" fill="#a3a3a3" stroke="none"/><path d="" fill="#323232" stroke="none"/></g><g><path d="" fill="url(#color-16)" stroke="#bfbfbf"/><path d="" fill="url(#color-17)" stroke="none"/><path d="" fill="#a3a3a3" stroke="none"/><path d="" fill="#323232" stroke="none"/></g><g fill="url(#color-18)" stroke="#bfbfbf"><path d="M376.28686,116.77321c25.12473,0 45.49233,16.61266 45.49233,37.10538c0,20.49272 -20.36761,37.10534 -45.49233,37.10534c-25.12473,0 -45.49236,-16.61263 -45.49236,-37.10534c0,-20.49272 20.36764,-37.10538 45.49236,-37.10538z"/></g><g fill="url(#color-19)" stroke="#bfbfbf"><path d="M147.3251,152.74436c0,-20.14371 20.0207,-36.47337 44.71751,-36.47337c24.69681,0 44.71751,16.32966 44.71751,36.47337c0,20.14371 -20.02067,36.47337 -44.71751,36.47337c-24.69681,0 -44.71751,-16.32969 -44.71751,-36.47337z"/></g><g fill="url(#color-20)" stroke="#bfbfbf"><path d="M284.50604,116.88453c25.12473,0 45.49236,16.61263 45.49236,37.10538c0,20.49272 -20.36764,37.10538 -45.49236,37.10538c-25.12473,0 -45.49236,-16.61266 -45.49236,-37.10538c0,-20.49272 20.36764,-37.10538 45.49236,-37.10538z"/></g><g fill="url(#color-21)" stroke="#bfbfbf"><path d="M283.48247,180.31614c25.12473,0 45.49233,16.61263 45.49233,37.10534c0,20.49272 -20.36761,37.10534 -45.49233,37.10534c-25.12473,0 -45.49236,-16.61263 -45.49236,-37.10534c0,-20.49272 20.36764,-37.10534 45.49236,-37.10534z"/></g><g fill="url(#color-22)" stroke="#bfbfbf"><path d="M146.87016,216.56555c0,-20.14371 20.02073,-36.47337 44.71754,-36.47337c24.69681,0 44.71751,16.32966 44.71751,36.47337c0,20.14371 -20.0207,36.47337 -44.71751,36.47337c-24.69681,0 -44.71754,-16.32969 -44.71754,-36.47337z"/></g><g fill="url(#color-23)" stroke="#bfbfbf"><path d="M56.79531,152.74436c0,-20.14371 20.0207,-36.47337 44.71751,-36.47337c24.69681,0 44.71754,16.32966 44.71754,36.47337c0,20.14371 -20.02073,36.47337 -44.71754,36.47337c-24.69681,0 -44.71751,-16.32969 -44.71751,-36.47337z"/></g><g fill="url(#color-24)" stroke="#bfbfbf"><path d="M56.3404,216.56555c0,-20.14371 20.0207,-36.47337 44.71751,-36.47337c24.69681,0 44.71751,16.32966 44.71751,36.47337c0,20.14371 -20.0207,36.47337 -44.71751,36.47337c-24.69681,0 -44.71751,-16.32969 -44.71751,-36.47337z"/></g><g><path d="" fill="url(#color-25)" stroke="#bfbfbf"/><path d="" fill="url(#color-26)" stroke="none"/><path d="" fill="#a3a3a3" stroke="none"/><path d="" fill="url(#color-27)" stroke="none"/><path d="" fill="#323232" stroke="none"/></g><g fill="url(#color-28)" stroke="#bfbfbf"><path d="M375.93676,182.44601c25.12473,0 45.49233,16.61266 45.49233,37.10538c0,20.49272 -20.36761,37.10534 -45.49233,37.10534c-25.12473,0 -45.49236,-16.61263 -45.49236,-37.10534c0,-20.49272 20.36764,-37.10538 45.49236,-37.10538z"/></g></g><g><g><path d="" fill="url(#color-29)" stroke="#bfbfbf"/><path d="" fill="url(#color-30)" stroke="none"/><path d="" fill="#a3a3a3" stroke="none"/><path d="" fill="url(#color-31)" stroke="none"/><path d="" fill="#323232" stroke="none"/></g><g><path d="" fill="url(#color-32)" stroke="#bfbfbf"/><path d="" fill="url(#color-33)" stroke="none"/><path d="" fill="#a3a3a3" stroke="none"/><path d="" fill="#323232" stroke="none"/></g><g><path d="" fill="url(#color-34)" stroke="#bfbfbf"/><path d="" fill="url(#color-35)" stroke="none"/><path d="" fill="#a3a3a3" stroke="none"/><path d="" fill="url(#color-36)" stroke="none"/><path d="" fill="#323232" stroke="none"/></g><g><path d="" fill="url(#color-37)" stroke="#bfbfbf"/><path d="" fill="url(#color-38)" stroke="none"/><path d="" fill="#a3a3a3" stroke="none"/><path d="" fill="url(#color-39)" stroke="none"/><path d="" fill="#323232" stroke="none"/></g><g><path d="" fill="url(#color-40)" stroke="#bfbfbf"/><path d="" fill="url(#color-41)" stroke="none"/><path d="" fill="#a3a3a3" stroke="none"/><path d="" fill="#323232" stroke="none"/></g><g><path d="" fill="url(#color-42)" stroke="#bfbfbf"/><path d="" fill="url(#color-43)" stroke="none"/><path d="" fill="#a3a3a3" stroke="none"/><path d="" fill="#323232" stroke="none"/></g><g><path d="" fill="url(#color-44)" stroke="#bfbfbf"/><path d="" fill="url(#color-45)" stroke="none"/><path d="" fill="#a3a3a3" stroke="none"/><path d="" fill="#323232" stroke="none"/></g><g><path d="M378.16726,103.84549c25.12473,0 45.49233,16.61266 45.49233,37.10538c0,20.49272 -20.36761,37.10534 -45.49233,37.10534c-25.12473,0 -45.49236,-16.61263 -45.49236,-37.10534c0,-20.49272 20.36764,-37.10538 45.49236,-37.10538z" fill="url(#color-46)" stroke="#bfbfbf"/><path d="M378.16726,122.2897c12.63583,0 22.8792,8.3549 22.8792,18.66118c0,10.30628 -10.24336,18.66118 -22.8792,18.66118c-12.63583,0 -22.8792,-8.3549 -22.8792,-18.66118c0,-10.30628 10.24336,-18.66118 22.8792,-18.66118z" fill="#323232" stroke="none"/></g><g><path d="M149.2055,139.81664c0,-20.14371 20.0207,-36.47337 44.71751,-36.47337c24.69681,0 44.71751,16.32966 44.71751,36.47337c0,20.14371 -20.02067,36.47337 -44.71751,36.47337c-24.69681,0 -44.71751,-16.32969 -44.71751,-36.47337z" fill="url(#color-47)" stroke="#bfbfbf"/><path d="M171.4335,139.81664c0,-10.13076 10.06889,-18.34333 22.48951,-18.34333c12.42062,0 22.48951,8.21258 22.48951,18.34333c0,10.13076 -10.06889,18.34333 -22.48951,18.34333c-12.42062,0 -22.48951,-8.21258 -22.48951,-18.34333z" fill="#323232" stroke="none"/></g><g><path d="M286.38645,103.95682c25.12473,0 45.49236,16.61263 45.49236,37.10538c0,20.49272 -20.36764,37.10538 -45.49236,37.10538c-25.12473,0 -45.49236,-16.61266 -45.49236,-37.10538c0,-20.49272 20.36764,-37.10538 45.49236,-37.10538z" fill="url(#color-48)" stroke="#bfbfbf"/><path d="M286.38645,121.82587c12.63583,0 22.8792,8.3549 22.8792,18.66118c0,10.30628 -10.24336,18.66118 -22.8792,18.66118c-12.63583,0 -22.8792,-8.3549 -22.8792,-18.66118c0,-10.30628 10.24336,-18.66118 22.8792,-18.66118z" fill="#323232" stroke="none"/></g><g><path d="M285.36288,167.38842c25.12473,0 45.49233,16.61263 45.49233,37.10534c0,20.49272 -20.36761,37.10534 -45.49233,37.10534c-25.12473,0 -45.49236,-16.61263 -45.49236,-37.10534c0,-20.49272 20.36764,-37.10534 45.49236,-37.10534z" fill="url(#color-49)" stroke="#bfbfbf"/><path d="M285.36288,185.83258c12.63583,0 22.8792,8.35487 22.8792,18.66112c0,10.30628 -10.24336,18.66118 -22.8792,18.66118c-12.63583,0 -22.8792,-8.3549 -22.8792,-18.66118c0,-10.30628 10.24336,-18.66112 22.8792,-18.66112z" fill="#323232" stroke="none"/></g><g><path d="M148.75057,203.63783c0,-20.14371 20.02073,-36.47337 44.71754,-36.47337c24.69681,0 44.71751,16.32966 44.71751,36.47337c0,20.14371 -20.0207,36.47337 -44.71751,36.47337c-24.69681,0 -44.71754,-16.32969 -44.71754,-36.47337z" fill="url(#color-50)" stroke="#bfbfbf"/><path d="M170.97859,203.63783c0,-10.13076 10.06889,-18.3433 22.48951,-18.3433c12.42062,0 22.48948,8.21254 22.48948,18.3433c0,10.13076 -10.06886,18.34337 -22.48948,18.34337c-12.42062,0 -22.48951,-8.21261 -22.48951,-18.34337z" fill="#323232" stroke="none"/></g><g><path d="M58.6757,139.81664c0,-20.14371 20.0207,-36.47337 44.71751,-36.47337c24.69681,0 44.71754,16.32966 44.71754,36.47337c0,20.14371 -20.02073,36.47337 -44.71754,36.47337c-24.69681,0 -44.71751,-16.32969 -44.71751,-36.47337z" fill="url(#color-51)" stroke="#bfbfbf"/><path d="M80.90373,139.81664c0,-10.13076 10.06889,-18.34333 22.48951,-18.34333c12.42062,0 22.48951,8.21258 22.48951,18.34333c0,10.13076 -10.06889,18.34333 -22.48951,18.34333c-12.42062,0 -22.48951,-8.21258 -22.48951,-18.34333z" fill="#323232" stroke="none"/></g><g><path d="M58.2208,203.63783c0,-20.14371 20.0207,-36.47337 44.71751,-36.47337c24.69681,0 44.71751,16.32966 44.71751,36.47337c0,20.14371 -20.0207,36.47337 -44.71751,36.47337c-24.69681,0 -44.71751,-16.32969 -44.71751,-36.47337z" fill="url(#color-52)" stroke="#bfbfbf"/><path d="M80.4488,203.63783c0,-10.13076 10.06889,-18.3433 22.48951,-18.3433c12.42062,0 22.48951,8.21254 22.48951,18.3433c0,10.13076 -10.06889,18.34337 -22.48951,18.34337c-12.42062,0 -22.48951,-8.21261 -22.48951,-18.34337z" fill="#323232" stroke="none"/></g><g><path d="" fill="url(#color-53)" stroke="#bfbfbf"/><path d="" fill="url(#color-54)" stroke="none"/><path d="" fill="#a3a3a3" stroke="none"/><path d="" fill="url(#color-55)" stroke="none"/><path d="" fill="#323232" stroke="none"/></g><g><path d="M377.81717,169.5183c25.12473,0 45.49233,16.61266 45.49233,37.10538c0,20.49272 -20.36761,37.10534 -45.49233,37.10534c-25.12473,0 -45.49236,-16.61263 -45.49236,-37.10534c0,-20.49272 20.36764,-37.10538 45.49236,-37.10538z" fill="url(#color-56)" stroke="#bfbfbf"/><path d="M377.81717,187.96246c12.63583,0 22.8792,8.3549 22.8792,18.66118c0,10.30628 -10.24336,18.66118 -22.8792,18.66118c-12.63583,0 -22.8792,-8.3549 -22.8792,-18.66118c0,-10.30628 10.24336,-18.66118 22.8792,-18.66118z" fill="#323232" stroke="none"/></g></g></g></g></svg>