<svg version="1.1" xmlns="http://www.w3.org/2000/svg" xmlns:xlink="http://www.w3.org/1999/xlink" width="509.00901" height="382.88288" viewBox="0,0,509.00901,382.88288"><g transform="translate(11.5015,9.18919)"><g data-paper-data="{&quot;isPaintingLayer&quot;:true}" fill-rule="nonzero" stroke="none" stroke-linecap="butt" stroke-linejoin="miter" stroke-miterlimit="10" stroke-dasharray="" stroke-dashoffset="0" style="mix-blend-mode: normal"><path d="M-11.5015,373.69369v-382.88288h509.00901v382.88288z" fill="none" stroke-width="0"/><path d="M164.51836,229.91834c3.58493,-5.47266 10.21247,-9.2266 17.23698,-9.2266c33.5788,0 134.35665,-3.31994 155.10364,-3.31994c7.44932,0 6.83537,12.05182 3.86329,16.58895c-8.41475,12.8457 -20.5271,31.33604 -24.93764,38.06906c-3.21174,4.90296 -14.39359,10.71419 -26.02689,10.71419c-37.8257,0 -120.66994,0 -141.38492,0c-9.1886,0 -13.71571,-12.51163 -9.69691,-18.64658c0,0 18.23656,-22.56814 25.84246,-34.17906z" fill="#dc7c23" stroke-width="0"/><path d="M138.85919,261.216c5.00949,-7.64734 17.68326,-26.99473 25.28916,-38.60566c3.58494,-5.47266 10.21247,-9.2266 17.23698,-9.2266c33.57878,0 132.42003,0 153.167,0c7.44932,0 8.77201,8.73191 5.79991,13.26901c-8.41475,12.84572 -20.5271,31.33604 -24.93764,38.06906c-3.21174,4.90295 -14.39359,10.71419 -26.02689,10.71419c-37.8257,0 -120.66993,0 -141.38492,0c-9.1886,0 -13.16238,-8.08504 -9.14359,-14.22001z" fill="#ff9431" stroke-width="0"/><path d="M296.59478,238.0852c0,0 -29.88344,14.47091 -57.94019,14.47091c-28.05674,0 -56.58042,-14.33366 -56.58042,-14.33366c0,0 35.65132,-131.32091 46.12708,-152.88865c5.41249,-11.14336 19.18172,-10.64658 24.52997,0.80375c10.22996,21.90171 43.86354,151.94765 43.86354,151.94765z" fill="#ff9431" stroke-width="NaN"/><path d="M182.42495,238.34098l10.82323,-41.07279c0,0 25.21967,5.90253 47.53456,5.96486c20.44818,0.05711 45.23768,-6.24237 45.23768,-6.24237l10.82323,41.90534c0,0 -16.59711,13.85155 -57.17589,13.9997c-38.26286,0.43278 -57.2428,-14.55473 -57.2428,-14.55473z" fill="#fff0e1" stroke-width="0"/><path d="M206.93911,150.78525l9.92679,-34.86018c0,0 11.8575,1.35217 24.31369,1.38697c11.41419,0.03188 22.19901,-1.54187 22.19901,-1.54187l9.64929,35.32491c0,0 -16.61459,2.61352 -32.47067,2.54178c-14.8722,-0.06729 -33.61811,-2.8516 -33.61811,-2.8516z" fill="#fff0e1" stroke-width="0"/></g></g></svg>