<svg version="1.1" xmlns="http://www.w3.org/2000/svg" xmlns:xlink="http://www.w3.org/1999/xlink" width="320.95283" height="320.95283" viewBox="0,0,320.95283,320.95283"><defs><radialGradient cx="243.28449" cy="178.40125" r="40.1043" gradientUnits="userSpaceOnUse" id="color-1"><stop offset="0" stop-color="#383838"/><stop offset="1" stop-color="#383838" stop-opacity="0"/></radialGradient><radialGradient cx="240.88952" cy="178.20991" r="26.90217" gradientUnits="userSpaceOnUse" id="color-2"><stop offset="0" stop-color="#3f760e"/><stop offset="1" stop-color="#3f760e" stop-opacity="0"/></radialGradient></defs><g transform="translate(-79.52358,-19.52359)"><g data-paper-data="{&quot;isPaintingLayer&quot;:true}" fill-rule="nonzero" stroke="none" stroke-width="0" stroke-linecap="butt" stroke-linejoin="miter" stroke-miterlimit="10" stroke-dasharray="" stroke-dashoffset="0" style="mix-blend-mode: normal"><path d="M203.18018,178.40125c0,-22.149 17.95532,-40.1043 40.1043,-40.1043c22.149,0 40.1043,17.95532 40.1043,40.1043c0,22.149 -17.95532,40.1043 -40.1043,40.1043c-22.149,0 -40.1043,-17.95532 -40.1043,-40.1043z" fill="url(#color-1)"/><path d="M237.98676,193.33538c-2.5392,7.2857 -13.74121,10.11955 -13.74121,10.11955c0,0 -7.08517,-8.97865 -4.54597,-16.26435c2.5392,-7.2857 13.85757,-10.45354 13.85757,-10.45354c0,0 6.96877,9.31261 4.42957,16.59834z" data-paper-data="{&quot;index&quot;:null}" fill="#67c217"/><path d="M264.10959,175.04243c6.25752,4.51358 5.77525,16.0584 5.77525,16.0584c0,0 -10.62776,4.22688 -16.88528,-0.2867c-6.25752,-4.51358 -6.06212,-16.26528 -6.06212,-16.26528c0,0 10.91459,-4.01997 17.17213,0.49362z" data-paper-data="{&quot;index&quot;:null}" fill="#67c217"/><path d="M226.88906,169.09433c-3.43901,-5.6276 0.76023,-14.56761 0.76023,-14.56761c0,0 9.775,0.18415 13.21401,5.81175c3.43901,5.6276 -0.60256,14.82557 -0.60256,14.82557c0,0 -9.93264,-0.44212 -13.37166,-6.06974z" data-paper-data="{&quot;index&quot;:null}" fill="#67c217"/><path d="M252.12361,187.5761c0.39661,2.47324 15.23362,5.99598 15.76553,9.50682c0.4811,3.17547 -14.57439,0.40348 -14.57439,0.40348c0,0 0.44642,20.66987 -2.08691,21.2108c-5.33791,1.13978 -10.68508,-11.91801 -12.24895,-21.67007c-0.41183,-2.56815 -0.63419,-6.39988 -0.59199,-10.37744c0.01573,-1.48275 -4.67778,-5.81501 -4.58463,-7.28039c0.24963,-3.92692 6.64751,-2.3301 7.55595,-4.60219c1.29636,-3.24233 3.89032,-2.97811 3.89032,-2.97811c0,0 5.31119,6.03503 6.87508,15.78709z" data-paper-data="{&quot;index&quot;:null}" fill="#59a814"/><path d="M241.9788,160.47183c0.59175,-1.72015 -7.70899,-9.05122 -6.84908,-11.48239c0.77777,-2.19894 9.47524,4.72588 9.47524,4.72588c0,0 6.32475,-15.05157 8.13276,-14.53173c3.8096,1.09533 1.37543,17.87726 -0.95782,24.65987c-0.61445,1.78616 -1.78242,4.31705 -3.16977,6.85089c-1.90309,3.47579 -4.21898,6.95713 -6.08517,8.52935c-1.93939,1.63388 -3.39311,-1.35532 -3.39311,-1.35532c0,0 0.51372,-10.61391 2.84696,-17.39653z" data-paper-data="{&quot;index&quot;:null}" fill="#5aaa14"/><path d="M276.18025,168.41796c-2.19992,1.19774 -0.57967,16.36089 -3.71287,18.0318c-2.83391,1.5113 -5.23481,-13.6078 -5.23481,-13.6078c0,0 -26.87993,12.70291 -28.23377,10.4944c-2.85262,-4.65348 15.21756,-19.44192 23.8919,-24.16466c2.28434,-1.24371 5.82321,-2.72962 9.58771,-4.01466c1.40332,-0.47904 11.92476,-1.62937 12.33525,1.24805c0.47889,3.35695 0.04095,7.2901 -8.63339,12.01286z" data-paper-data="{&quot;index&quot;:null}" fill="#5db015"/><path d="M227.87387,192.80276c-1.63476,0.7979 -0.9491,11.85126 -3.27624,12.96231c-2.10485,1.00492 -3.35831,-10.0417 -3.35831,-10.0417c0,0 -15.11534,6.17079 -16.02621,4.52476c-1.91928,-3.4683 11.66856,-13.6137 18.11445,-16.75988c1.69749,-0.82852 4.31298,-1.79225 7.08567,-2.60294c3.80344,-1.11207 7.90271,-1.93617 10.33402,-1.7283c2.52669,0.21603 1.44094,3.35765 1.44094,3.35765c0,0 -7.86842,7.14191 -14.31431,10.2881z" data-paper-data="{&quot;index&quot;:null}" fill="#59a814"/><path d="M209.56725,162.48253c2.40251,0.70865 1.87977,-11.15901 5.2768,-10.12501c3.07253,0.93522 4.17841,13.32374 4.17841,13.32374c0,0 27.9893,10.02467 27.38495,12.54363c-1.2734,5.30762 -24.33554,1.78018 -33.80871,-1.01403c-2.4947,-0.73584 -6.04776,-2.1875 -9.61832,-3.94074c-0.70806,-0.34768 -9.70666,-5.88977 -8.80199,-9.28962c0.79594,-2.99126 10.95508,-2.80574 15.38885,-1.49797z" data-paper-data="{&quot;index&quot;:null}" fill="#5db015"/><path d="M213.98735,178.20991c0,-14.85766 12.04451,-26.90217 26.90217,-26.90217c14.85766,0 26.90217,12.04451 26.90217,26.90218c0,14.85766 -12.04451,26.90217 -26.90217,26.90217c-14.85766,0 -26.90217,-12.04451 -26.90217,-26.90217z" fill="url(#color-2)"/><path d="M79.52359,340.47643v-320.95283h320.95283v320.95283z" fill="none"/></g></g></svg>