<svg version="1.1" xmlns="http://www.w3.org/2000/svg" xmlns:xlink="http://www.w3.org/1999/xlink" width="157.52799" height="35.20515" viewBox="0,0,157.52799,35.20515"><g transform="translate(-161.18035,-66.06484)"><g data-paper-data="{&quot;isPaintingLayer&quot;:true}" fill-rule="nonzero" stroke-linejoin="miter" stroke-miterlimit="10" stroke-dasharray="" stroke-dashoffset="0" style="mix-blend-mode: normal"><path d="M161.49794,84.55816c0,-35.32158 -0.31759,17.15871 -0.31759,-2.20282c0,-8.1817 7.99801,-16.2905 15.44621,-16.2905c13.64824,0 96.55949,0 123.07497,0c0.49171,0 0.97659,0 1.4543,0c10.51084,0 17.55251,7.71262 17.55251,15.5884c0,14.95439 0,-34.94027 0,1.96878c0,10.80729 -8.98072,17.64797 -17.08445,17.64797c-14.32264,0 -97.69918,0 -123.27554,0c-10.11234,0 -16.85041,-6.44289 -16.85041,-16.71184z" fill-opacity="0.10196" fill="#ffffff" stroke="#000000" stroke-width="0" stroke-linecap="butt"/><text transform="translate(210.47452,89.80734) scale(0.43574,0.43574)" font-size="40" xml:space="preserve" fill="#ffffff" fill-rule="nonzero" stroke="#ffffff" stroke-width="3" stroke-linecap="butt" stroke-linejoin="miter" stroke-miterlimit="10" stroke-dasharray="" stroke-dashoffset="0" font-family="Sans Serif" font-weight="normal" text-anchor="start" style="mix-blend-mode: normal"><tspan x="0" dy="0">加拿大</tspan></text><g stroke="none" stroke-width="0" stroke-linecap="butt"><path d="M283.50272,90.21883v-14.13583h13.22323v14.13583z" fill="#f7f7f7"/><path d="M276.81879,90.27694l0.07839,-14.17502h6.70682v14.17502z" fill="#ff3c3c"/><path d="M295.45795,90.23776l0.07839,-14.17502h6.70682v14.17502z" fill="#ff3c3c"/><path d="M288.7929,87.49801l0.22976,-1.97101l-2.26951,0.33655l0.72966,-1.00818l-2.50292,-1.83558l0.69398,-0.2663l-0.46659,-1.15779l1.16912,0.16432l0.35348,-0.50191l1.54942,0.97121l-0.37485,-2.26084l0.88009,0.4137l0.38196,-1.29473l0.53517,1.27529l1.03059,-0.4406l-0.40788,2.32687l1.41327,-0.90329l0.10258,0.5243l1.28064,-0.34169l-0.22531,1.1989l0.78269,0.11273l-2.46706,1.94391l1.14206,1.12695l-2.80523,-0.38384l0.30984,1.93756z" fill="#ff3c3c"/></g><g fill="none" stroke="#ffffff" stroke-width="1.5" stroke-linecap="round"><path d="M170.84808,80.51384c0,0 -4.62814,-2.78049 -1.5106,-3.89895c0.72414,-0.25979 3.06039,0.12821 6.00943,0.45441c2.01006,0.22233 4.3048,-0.01526 6.56778,1.18326c1.5904,0.8423 -0.26386,3.6448 1.19606,4.73134c0.94406,0.70261 5.50655,2.32037 6.97203,1.48159c2.24474,-1.2848 1.46603,-3.80913 4.46193,-2.68993c1.43623,0.53654 -0.07981,4.42783 -2.61888,7.39669c-1.08903,0.91658 -2.00196,-1.51543 -3.50395,-1.03252c-0.76995,0.24755 -1.95857,1.83649 -2.85664,2.68132c-2.27374,0.66539 -2.30237,-3.10372 -4.2616,-2.75615c-2.74745,0.4874 -1.57529,5.00052 -3.70106,4.68502c-1.199,-0.17795 -4.55559,-4.05939 -4.63839,-6.08488c-0.0635,-1.55328 1.52357,-1.26608 1.8963,-2.33553c0.50368,-1.44518 -3.86138,-3.64276 -4.00904,-3.83834"/><path d="M186.06018,81.91574l-1.16328,3.57932"/></g></g></g></svg>