<svg version="1.1" xmlns="http://www.w3.org/2000/svg" xmlns:xlink="http://www.w3.org/1999/xlink" width="274.75949" height="82.37341" viewBox="0,0,274.75949,82.37341"><defs><radialGradient cx="338.12795" cy="167.85952" r="13.82455" gradientUnits="userSpaceOnUse" id="color-1"><stop offset="0" stop-color="#f07070"/><stop offset="1" stop-color="#cf5555"/></radialGradient><radialGradient cx="338.12795" cy="167.85952" r="11.92469" gradientUnits="userSpaceOnUse" id="color-2"><stop offset="0" stop-color="#ff9d9d"/><stop offset="1" stop-color="#ff9d9d" stop-opacity="0"/></radialGradient><radialGradient cx="338.12795" cy="167.85952" r="11.92469" gradientUnits="userSpaceOnUse" id="color-3"><stop offset="0" stop-color="#ff9d9d"/><stop offset="1" stop-color="#ff9d9d" stop-opacity="0"/></radialGradient><radialGradient cx="282.13844" cy="167.43694" r="13.58909" gradientUnits="userSpaceOnUse" id="color-4"><stop offset="0" stop-color="#f7f7f7"/><stop offset="1" stop-color="#cecece"/></radialGradient><radialGradient cx="282.13844" cy="167.43694" r="11.72159" gradientUnits="userSpaceOnUse" id="color-5"><stop offset="0" stop-color="#f7f7f7"/><stop offset="1" stop-color="#f7f7f7" stop-opacity="0"/></radialGradient><radialGradient cx="310.23691" cy="167.68672" r="13.82455" gradientUnits="userSpaceOnUse" id="color-6"><stop offset="0" stop-color="#f07070"/><stop offset="1" stop-color="#cf5555"/></radialGradient><radialGradient cx="310.23691" cy="167.68672" r="11.92468" gradientUnits="userSpaceOnUse" id="color-7"><stop offset="0" stop-color="#ff9d9d"/><stop offset="1" stop-color="#ff9d9d" stop-opacity="0"/></radialGradient><radialGradient cx="310.23691" cy="167.68672" r="11.92468" gradientUnits="userSpaceOnUse" id="color-8"><stop offset="0" stop-color="#ff9d9d"/><stop offset="1" stop-color="#ff9d9d" stop-opacity="0"/></radialGradient><radialGradient cx="309.92586" cy="191.53407" r="13.82455" gradientUnits="userSpaceOnUse" id="color-9"><stop offset="0" stop-color="#f07070"/><stop offset="1" stop-color="#cf5555"/></radialGradient><radialGradient cx="309.92586" cy="191.53407" r="11.92469" gradientUnits="userSpaceOnUse" id="color-10"><stop offset="0" stop-color="#ff9d9d"/><stop offset="1" stop-color="#ff9d9d" stop-opacity="0"/></radialGradient><radialGradient cx="309.92586" cy="191.53407" r="11.92469" gradientUnits="userSpaceOnUse" id="color-11"><stop offset="0" stop-color="#ff9d9d"/><stop offset="1" stop-color="#ff9d9d" stop-opacity="0"/></radialGradient><radialGradient cx="282.00019" cy="191.21517" r="13.58909" gradientUnits="userSpaceOnUse" id="color-12"><stop offset="0" stop-color="#f7f7f7"/><stop offset="1" stop-color="#cecece"/></radialGradient><radialGradient cx="282.00019" cy="191.21517" r="11.72159" gradientUnits="userSpaceOnUse" id="color-13"><stop offset="0" stop-color="#f7f7f7"/><stop offset="1" stop-color="#f7f7f7" stop-opacity="0"/></radialGradient><radialGradient cx="254.62757" cy="167.43694" r="13.5891" gradientUnits="userSpaceOnUse" id="color-14"><stop offset="0" stop-color="#f7f7f7"/><stop offset="1" stop-color="#cecece"/></radialGradient><radialGradient cx="254.62757" cy="167.43694" r="11.72159" gradientUnits="userSpaceOnUse" id="color-15"><stop offset="0" stop-color="#f7f7f7"/><stop offset="1" stop-color="#f7f7f7" stop-opacity="0"/></radialGradient><radialGradient cx="254.48932" cy="191.21517" r="13.58909" gradientUnits="userSpaceOnUse" id="color-16"><stop offset="0" stop-color="#f7f7f7"/><stop offset="1" stop-color="#cecece"/></radialGradient><radialGradient cx="254.48932" cy="191.21517" r="11.72159" gradientUnits="userSpaceOnUse" id="color-17"><stop offset="0" stop-color="#f7f7f7"/><stop offset="1" stop-color="#f7f7f7" stop-opacity="0"/></radialGradient><radialGradient cx="224.90485" cy="167.85952" r="13.82455" gradientUnits="userSpaceOnUse" id="color-18"><stop offset="0" stop-color="#f07070"/><stop offset="1" stop-color="#cf5555"/></radialGradient><radialGradient cx="224.90485" cy="167.85952" r="11.92468" gradientUnits="userSpaceOnUse" id="color-19"><stop offset="0" stop-color="#ff9d9d"/><stop offset="1" stop-color="#ff9d9d" stop-opacity="0"/></radialGradient><radialGradient cx="224.90485" cy="167.85952" r="11.92468" gradientUnits="userSpaceOnUse" id="color-20"><stop offset="0" stop-color="#ff9d9d"/><stop offset="1" stop-color="#ff9d9d" stop-opacity="0"/></radialGradient><radialGradient cx="168.91533" cy="167.43694" r="13.5891" gradientUnits="userSpaceOnUse" id="color-21"><stop offset="0" stop-color="#f7f7f7"/><stop offset="1" stop-color="#cecece"/></radialGradient><radialGradient cx="168.91533" cy="167.43694" r="11.72159" gradientUnits="userSpaceOnUse" id="color-22"><stop offset="0" stop-color="#f7f7f7"/><stop offset="1" stop-color="#f7f7f7" stop-opacity="0"/></radialGradient><radialGradient cx="197.01381" cy="167.68672" r="13.82456" gradientUnits="userSpaceOnUse" id="color-23"><stop offset="0" stop-color="#f07070"/><stop offset="1" stop-color="#cf5555"/></radialGradient><radialGradient cx="197.01381" cy="167.68672" r="11.92469" gradientUnits="userSpaceOnUse" id="color-24"><stop offset="0" stop-color="#ff9d9d"/><stop offset="1" stop-color="#ff9d9d" stop-opacity="0"/></radialGradient><radialGradient cx="197.01381" cy="167.68672" r="11.92469" gradientUnits="userSpaceOnUse" id="color-25"><stop offset="0" stop-color="#ff9d9d"/><stop offset="1" stop-color="#ff9d9d" stop-opacity="0"/></radialGradient><radialGradient cx="196.70276" cy="191.53407" r="13.82455" gradientUnits="userSpaceOnUse" id="color-26"><stop offset="0" stop-color="#f07070"/><stop offset="1" stop-color="#cf5555"/></radialGradient><radialGradient cx="196.70276" cy="191.53407" r="11.92468" gradientUnits="userSpaceOnUse" id="color-27"><stop offset="0" stop-color="#ff9d9d"/><stop offset="1" stop-color="#ff9d9d" stop-opacity="0"/></radialGradient><radialGradient cx="196.70276" cy="191.53407" r="11.92468" gradientUnits="userSpaceOnUse" id="color-28"><stop offset="0" stop-color="#ff9d9d"/><stop offset="1" stop-color="#ff9d9d" stop-opacity="0"/></radialGradient><radialGradient cx="168.77709" cy="191.21517" r="13.58909" gradientUnits="userSpaceOnUse" id="color-29"><stop offset="0" stop-color="#f7f7f7"/><stop offset="1" stop-color="#cecece"/></radialGradient><radialGradient cx="168.77709" cy="191.21517" r="11.72159" gradientUnits="userSpaceOnUse" id="color-30"><stop offset="0" stop-color="#f7f7f7"/><stop offset="1" stop-color="#f7f7f7" stop-opacity="0"/></radialGradient><radialGradient cx="141.40447" cy="167.43694" r="13.5891" gradientUnits="userSpaceOnUse" id="color-31"><stop offset="0" stop-color="#f7f7f7"/><stop offset="1" stop-color="#cecece"/></radialGradient><radialGradient cx="141.40447" cy="167.43694" r="11.72159" gradientUnits="userSpaceOnUse" id="color-32"><stop offset="0" stop-color="#f7f7f7"/><stop offset="1" stop-color="#f7f7f7" stop-opacity="0"/></radialGradient><radialGradient cx="141.26622" cy="191.21517" r="13.5891" gradientUnits="userSpaceOnUse" id="color-33"><stop offset="0" stop-color="#f7f7f7"/><stop offset="1" stop-color="#cecece"/></radialGradient><radialGradient cx="141.26622" cy="191.21517" r="11.72159" gradientUnits="userSpaceOnUse" id="color-34"><stop offset="0" stop-color="#f7f7f7"/><stop offset="1" stop-color="#f7f7f7" stop-opacity="0"/></radialGradient><radialGradient cx="338.49832" cy="191.56323" r="13.82455" gradientUnits="userSpaceOnUse" id="color-35"><stop offset="0" stop-color="#f07070"/><stop offset="1" stop-color="#cf5555"/></radialGradient><radialGradient cx="338.49832" cy="191.56323" r="11.92469" gradientUnits="userSpaceOnUse" id="color-36"><stop offset="0" stop-color="#ff9d9d"/><stop offset="1" stop-color="#ff9d9d" stop-opacity="0"/></radialGradient><radialGradient cx="338.49832" cy="191.56323" r="11.92469" gradientUnits="userSpaceOnUse" id="color-37"><stop offset="0" stop-color="#ff9d9d"/><stop offset="1" stop-color="#ff9d9d" stop-opacity="0"/></radialGradient><radialGradient cx="224.79846" cy="192.32761" r="13.82455" gradientUnits="userSpaceOnUse" id="color-38"><stop offset="0" stop-color="#f07070"/><stop offset="1" stop-color="#cf5555"/></radialGradient><radialGradient cx="224.79846" cy="192.32761" r="11.92468" gradientUnits="userSpaceOnUse" id="color-39"><stop offset="0" stop-color="#ff9d9d"/><stop offset="1" stop-color="#ff9d9d" stop-opacity="0"/></radialGradient><radialGradient cx="224.79846" cy="192.32761" r="11.92468" gradientUnits="userSpaceOnUse" id="color-40"><stop offset="0" stop-color="#ff9d9d"/><stop offset="1" stop-color="#ff9d9d" stop-opacity="0"/></radialGradient></defs><g transform="translate(-101.41772,-139.10127)"><g data-paper-data="{&quot;isPaintingLayer&quot;:true}" fill-rule="nonzero" stroke-width="0" stroke-linecap="butt" stroke-linejoin="miter" stroke-miterlimit="10" stroke-dasharray="" stroke-dashoffset="0" style="mix-blend-mode: normal"><path d="M101.41772,221.47468v-82.37341h274.75949v82.37341z" fill="none" stroke="none"/><g><g><path d="M338.12795,154.03497c7.63509,0 13.82455,6.18947 13.82455,13.82456c0,7.63509 -6.18946,13.82455 -13.82455,13.82455c-7.63509,0 -13.82455,-6.18946 -13.82455,-13.82455c0,-7.63509 6.18946,-13.82456 13.82455,-13.82456z" fill="url(#color-1)" stroke="#bfbfbf"/><path d="M338.12795,155.93484c6.58583,0 11.92469,5.33886 11.92469,11.92468c0,6.58583 -5.33886,11.92469 -11.92469,11.92469c-6.58582,0 -11.92469,-5.33886 -11.92469,-11.92469c0,-6.58582 5.33886,-11.92468 11.92469,-11.92468z" fill="url(#color-2)" stroke="none"/><path d="M338.12795,159.77499c4.46497,0 8.08454,3.61957 8.08454,8.08453c0,4.46497 -3.61957,8.08454 -8.08454,8.08454c-4.46497,0 -8.08454,-3.61957 -8.08454,-8.08454c0,-4.46497 3.61957,-8.08453 8.08454,-8.08453z" fill="#a3a3a3" stroke="none"/><path d="M338.12795,155.93484c6.58583,0 11.92469,5.33886 11.92469,11.92468c0,6.58583 -5.33886,11.92469 -11.92469,11.92469c-6.58582,0 -11.92469,-5.33886 -11.92469,-11.92469c0,-6.58582 5.33886,-11.92468 11.92469,-11.92468z" fill="url(#color-3)" stroke="none"/><path d="M338.12795,160.90682c3.83987,0 6.9527,3.11283 6.9527,6.9527c0,3.83987 -3.11283,6.9527 -6.9527,6.9527c-3.83987,0 -6.9527,-3.11283 -6.9527,-6.9527c0,-3.83987 3.11283,-6.9527 6.9527,-6.9527z" fill="#323232" stroke="none"/></g><g><path d="M268.54934,167.43694c0,-7.50505 6.08405,-13.5891 13.58909,-13.5891c7.50506,0 13.58909,6.08405 13.58909,13.5891c0,7.50505 -6.08404,13.58909 -13.58909,13.58909c-7.50506,0 -13.58909,-6.08404 -13.58909,-13.58909z" fill="url(#color-4)" stroke="#bfbfbf"/><path d="M270.41685,167.43694c0,-6.47366 5.24793,-11.72159 11.72159,-11.72159c6.47366,0 11.72159,5.24793 11.72159,11.72159c0,6.47366 -5.24793,11.72159 -11.72159,11.72159c-6.47366,0 -11.72159,-5.24793 -11.72159,-11.72159z" fill="url(#color-5)" stroke="none"/><path d="M274.1916,167.43694c0,-4.38891 3.55793,-7.94684 7.94684,-7.94684c4.38891,0 7.94684,3.55793 7.94684,7.94684c0,4.38891 -3.55792,7.94684 -7.94684,7.94684c-4.38891,0 -7.94684,-3.55792 -7.94684,-7.94684z" fill="#a3a3a3" stroke="none"/><path d="M275.30416,167.43694c0,-3.77447 3.05981,-6.83428 6.83428,-6.83428c3.77447,0 6.83427,3.05981 6.83427,6.83428c0,3.77447 -3.0598,6.83428 -6.83427,6.83428c-3.77447,0 -6.83428,-3.05981 -6.83428,-6.83428z" fill="#323232" stroke="none"/></g><g><path d="M310.23691,153.86216c7.63509,0 13.82455,6.18947 13.82455,13.82456c0,7.63509 -6.18946,13.82456 -13.82455,13.82456c-7.63509,0 -13.82455,-6.18947 -13.82455,-13.82456c0,-7.63509 6.18946,-13.82456 13.82455,-13.82456z" fill="url(#color-6)" stroke="#bfbfbf"/><path d="M310.23691,155.76203c6.58583,0 11.92468,5.33886 11.92468,11.92469c0,6.58583 -5.33886,11.92468 -11.92468,11.92468c-6.58582,0 -11.92469,-5.33886 -11.92469,-11.92468c0,-6.58582 5.33886,-11.92469 11.92469,-11.92469z" fill="url(#color-7)" stroke="none"/><path d="M310.23691,159.60218c4.46497,0 8.08453,3.61957 8.08453,8.08454c0,4.46497 -3.61957,8.08453 -8.08453,8.08453c-4.46497,0 -8.08454,-3.61957 -8.08454,-8.08453c0,-4.46497 3.61957,-8.08454 8.08454,-8.08454z" fill="#a3a3a3" stroke="none"/><path d="M310.23691,155.76203c6.58583,0 11.92468,5.33886 11.92468,11.92469c0,6.58583 -5.33886,11.92468 -11.92468,11.92468c-6.58582,0 -11.92469,-5.33886 -11.92469,-11.92468c0,-6.58582 5.33886,-11.92469 11.92469,-11.92469z" fill="url(#color-8)" stroke="none"/><path d="M310.23691,160.73402c3.83987,0 6.9527,3.11283 6.9527,6.9527c0,3.83987 -3.11283,6.9527 -6.9527,6.9527c-3.83987,0 -6.9527,-3.11283 -6.9527,-6.9527c0,-3.83987 3.11283,-6.9527 6.9527,-6.9527z" fill="#323232" stroke="none"/></g><g><path d="M309.92586,177.70952c7.63509,0 13.82455,6.18946 13.82455,13.82455c0,7.63509 -6.18946,13.82456 -13.82455,13.82456c-7.63509,0 -13.82455,-6.18947 -13.82455,-13.82456c0,-7.63509 6.18946,-13.82455 13.82455,-13.82455z" fill="url(#color-9)" stroke="#bfbfbf"/><path d="M309.92586,179.60938c6.58583,0 11.92469,5.33886 11.92469,11.92468c0,6.58583 -5.33886,11.92469 -11.92469,11.92469c-6.58582,0 -11.92469,-5.33886 -11.92469,-11.92469c0,-6.58582 5.33886,-11.92468 11.92469,-11.92468z" fill="url(#color-10)" stroke="none"/><path d="M309.92586,183.44953c4.46497,0 8.08454,3.61957 8.08454,8.08453c0,4.46497 -3.61957,8.08454 -8.08454,8.08454c-4.46497,0 -8.08454,-3.61957 -8.08454,-8.08454c0,-4.46497 3.61957,-8.08453 8.08454,-8.08453z" fill="#a3a3a3" stroke="none"/><path d="M309.92586,179.60938c6.58583,0 11.92469,5.33886 11.92469,11.92468c0,6.58583 -5.33886,11.92469 -11.92469,11.92469c-6.58582,0 -11.92469,-5.33886 -11.92469,-11.92469c0,-6.58582 5.33886,-11.92468 11.92469,-11.92468z" fill="url(#color-11)" stroke="none"/><path d="M309.92586,184.58137c3.83987,0 6.9527,3.11282 6.9527,6.95269c0,3.83987 -3.11282,6.9527 -6.9527,6.9527c-3.83987,0 -6.9527,-3.11283 -6.9527,-6.9527c0,-3.83987 3.11283,-6.95269 6.9527,-6.95269z" fill="#323232" stroke="none"/></g><g><path d="M268.41109,191.21517c0,-7.50505 6.08405,-13.58909 13.5891,-13.58909c7.50505,0 13.58909,6.08404 13.58909,13.58909c0,7.50505 -6.08404,13.58909 -13.58909,13.58909c-7.50505,0 -13.5891,-6.08405 -13.5891,-13.58909z" fill="url(#color-12)" stroke="#bfbfbf"/><path d="M270.2786,191.21517c0,-6.47366 5.24793,-11.72158 11.72159,-11.72158c6.47366,0 11.72159,5.24793 11.72159,11.72158c0,6.47366 -5.24793,11.72159 -11.72159,11.72159c-6.47366,0 -11.72159,-5.24793 -11.72159,-11.72159z" fill="url(#color-13)" stroke="none"/><path d="M274.05335,191.21517c0,-4.38891 3.55793,-7.94683 7.94684,-7.94683c4.38892,0 7.94684,3.55792 7.94684,7.94683c0,4.38892 -3.55792,7.94684 -7.94684,7.94684c-4.38891,0 -7.94684,-3.55793 -7.94684,-7.94684z" fill="#a3a3a3" stroke="none"/><path d="M275.16591,191.21517c0,-3.77447 3.05982,-6.83427 6.83429,-6.83427c3.77447,0 6.83427,3.0598 6.83427,6.83427c0,3.77447 -3.0598,6.83428 -6.83427,6.83428c-3.77447,0 -6.83429,-3.05981 -6.83429,-6.83428z" fill="#323232" stroke="none"/></g><g><path d="M241.03847,167.43694c0,-7.50505 6.08405,-13.5891 13.5891,-13.5891c7.50506,0 13.5891,6.08405 13.5891,13.5891c0,7.50505 -6.08404,13.58909 -13.5891,13.58909c-7.50505,0 -13.5891,-6.08404 -13.5891,-13.58909z" fill="url(#color-14)" stroke="#bfbfbf"/><path d="M242.90598,167.43694c0,-6.47366 5.24793,-11.72159 11.72159,-11.72159c6.47366,0 11.72159,5.24793 11.72159,11.72159c0,6.47366 -5.24794,11.72159 -11.72159,11.72159c-6.47365,0 -11.72159,-5.24793 -11.72159,-11.72159z" fill="url(#color-15)" stroke="none"/><path d="M246.68073,167.43694c0,-4.38891 3.55792,-7.94684 7.94684,-7.94684c4.38892,0 7.94684,3.55793 7.94684,7.94684c0,4.38892 -3.55792,7.94684 -7.94684,7.94684c-4.38891,0 -7.94684,-3.55792 -7.94684,-7.94684z" fill="#a3a3a3" stroke="none"/><path d="M247.79329,167.43694c0,-3.77447 3.05981,-6.83428 6.83428,-6.83428c3.77447,0 6.83428,3.05981 6.83428,6.83428c0,3.77447 -3.05981,6.83428 -6.83428,6.83428c-3.77447,0 -6.83428,-3.05981 -6.83428,-6.83428z" fill="#323232" stroke="none"/></g><g><path d="M240.90023,191.21517c0,-7.50505 6.08404,-13.58909 13.58909,-13.58909c7.50505,0 13.58909,6.08404 13.58909,13.58909c0,7.50506 -6.08404,13.58909 -13.58909,13.58909c-7.50505,0 -13.58909,-6.08405 -13.58909,-13.58909z" fill="url(#color-16)" stroke="#bfbfbf"/><path d="M242.76774,191.21517c0,-6.47366 5.24793,-11.72158 11.72159,-11.72158c6.47366,0 11.72159,5.24793 11.72159,11.72158c0,6.47366 -5.24793,11.72159 -11.72159,11.72159c-6.47366,0 -11.72159,-5.24793 -11.72159,-11.72159z" fill="url(#color-17)" stroke="none"/><path d="M246.54249,191.21517c0,-4.38891 3.55792,-7.94683 7.94684,-7.94683c4.38891,0 7.94684,3.55791 7.94684,7.94683c0,4.38892 -3.55792,7.94684 -7.94684,7.94684c-4.38891,0 -7.94684,-3.55793 -7.94684,-7.94684z" fill="#a3a3a3" stroke="none"/><path d="M247.65505,191.21517c0,-3.77447 3.05981,-6.83427 6.83428,-6.83427c3.77447,0 6.83428,3.0598 6.83428,6.83427c0,3.77447 -3.05981,6.83429 -6.83428,6.83429c-3.77447,0 -6.83428,-3.05982 -6.83428,-6.83429z" fill="#323232" stroke="none"/></g><g><path d="M224.90485,154.03497c7.63509,0 13.82455,6.18947 13.82455,13.82456c0,7.63509 -6.18946,13.82455 -13.82455,13.82455c-7.63509,0 -13.82456,-6.18946 -13.82456,-13.82455c0,-7.63509 6.18947,-13.82456 13.82456,-13.82456z" fill="url(#color-18)" stroke="#bfbfbf"/><path d="M224.90485,155.93484c6.58583,0 11.92468,5.33886 11.92468,11.92468c0,6.58583 -5.33886,11.92469 -11.92468,11.92469c-6.58582,0 -11.92469,-5.33886 -11.92469,-11.92469c0,-6.58582 5.33886,-11.92468 11.92469,-11.92468z" fill="url(#color-19)" stroke="none"/><path d="M224.90485,159.77499c4.46497,0 8.08453,3.61957 8.08453,8.08453c0,4.46497 -3.61957,8.08454 -8.08453,8.08454c-4.46497,0 -8.08454,-3.61957 -8.08454,-8.08454c0,-4.46497 3.61957,-8.08453 8.08454,-8.08453z" fill="#a3a3a3" stroke="none"/><path d="M224.90485,155.93484c6.58583,0 11.92468,5.33886 11.92468,11.92468c0,6.58583 -5.33886,11.92469 -11.92468,11.92469c-6.58582,0 -11.92469,-5.33886 -11.92469,-11.92469c0,-6.58582 5.33886,-11.92468 11.92469,-11.92468z" fill="url(#color-20)" stroke="none"/><path d="M224.90485,160.90682c3.83987,0 6.9527,3.11283 6.9527,6.9527c0,3.83987 -3.11283,6.9527 -6.9527,6.9527c-3.83987,0 -6.9527,-3.11283 -6.9527,-6.9527c0,-3.83987 3.11283,-6.9527 6.9527,-6.9527z" fill="#323232" stroke="none"/></g><g><path d="M155.32624,167.43694c0,-7.50505 6.08404,-13.58909 13.58909,-13.58909c7.50505,0 13.58909,6.08404 13.58909,13.58909c0,7.50505 -6.08403,13.5891 -13.58909,13.5891c-7.50505,0 -13.58909,-6.08405 -13.58909,-13.5891z" fill="url(#color-21)" stroke="#bfbfbf"/><path d="M157.19374,167.43694c0,-6.47366 5.24793,-11.72159 11.72159,-11.72159c6.47366,0 11.72159,5.24793 11.72159,11.72159c0,6.47366 -5.24793,11.72159 -11.72159,11.72159c-6.47366,0 -11.72159,-5.24793 -11.72159,-11.72159z" fill="url(#color-22)" stroke="none"/><path d="M160.9685,167.43694c0,-4.38891 3.55792,-7.94684 7.94683,-7.94684c4.38892,0 7.94684,3.55792 7.94684,7.94684c0,4.38892 -3.55792,7.94684 -7.94684,7.94684c-4.38891,0 -7.94683,-3.55793 -7.94683,-7.94684z" fill="#a3a3a3" stroke="none"/><path d="M162.08105,167.43694c0,-3.77447 3.05981,-6.83428 6.83428,-6.83428c3.77447,0 6.83428,3.05981 6.83428,6.83428c0,3.77447 -3.05981,6.83428 -6.83428,6.83428c-3.77447,0 -6.83428,-3.05981 -6.83428,-6.83428z" fill="#323232" stroke="none"/></g><g><path d="M197.01381,153.86216c7.63509,0 13.82456,6.18947 13.82456,13.82456c0,7.63509 -6.18947,13.82456 -13.82456,13.82456c-7.63509,0 -13.82456,-6.18947 -13.82456,-13.82456c0,-7.63509 6.18947,-13.82456 13.82456,-13.82456z" fill="url(#color-23)" stroke="#bfbfbf"/><path d="M197.01381,155.76203c6.58583,0 11.92469,5.33886 11.92469,11.92469c0,6.58583 -5.33886,11.92468 -11.92469,11.92468c-6.58582,0 -11.92469,-5.33886 -11.92469,-11.92468c0,-6.58582 5.33886,-11.92469 11.92469,-11.92469z" fill="url(#color-24)" stroke="none"/><path d="M197.01381,159.60218c4.46497,0 8.08453,3.61957 8.08453,8.08454c0,4.46497 -3.61957,8.08453 -8.08453,8.08453c-4.46497,0 -8.08453,-3.61957 -8.08453,-8.08453c0,-4.46497 3.61957,-8.08454 8.08453,-8.08454z" fill="#a3a3a3" stroke="none"/><path d="M197.01381,155.76203c6.58583,0 11.92469,5.33886 11.92469,11.92469c0,6.58583 -5.33886,11.92468 -11.92469,11.92468c-6.58582,0 -11.92469,-5.33886 -11.92469,-11.92468c0,-6.58582 5.33886,-11.92469 11.92469,-11.92469z" fill="url(#color-25)" stroke="none"/><path d="M197.01381,160.73402c3.83987,0 6.9527,3.11283 6.9527,6.9527c0,3.83987 -3.11283,6.9527 -6.9527,6.9527c-3.83987,0 -6.9527,-3.11283 -6.9527,-6.9527c0,-3.83987 3.11283,-6.9527 6.9527,-6.9527z" fill="#323232" stroke="none"/></g><g><path d="M196.70276,177.70952c7.63509,0 13.82455,6.18946 13.82455,13.82455c0,7.63509 -6.18946,13.82456 -13.82455,13.82456c-7.63509,0 -13.82456,-6.18947 -13.82456,-13.82456c0,-7.63509 6.18947,-13.82455 13.82456,-13.82455z" fill="url(#color-26)" stroke="#bfbfbf"/><path d="M196.70276,179.60938c6.58583,0 11.92468,5.33886 11.92468,11.92468c0,6.58583 -5.33886,11.92469 -11.92468,11.92469c-6.58582,0 -11.92469,-5.33886 -11.92469,-11.92469c0,-6.58582 5.33886,-11.92468 11.92469,-11.92468z" fill="url(#color-27)" stroke="none"/><path d="M196.70276,183.44953c4.46497,0 8.08453,3.61957 8.08453,8.08453c0,4.46497 -3.61957,8.08454 -8.08453,8.08454c-4.46497,0 -8.08454,-3.61957 -8.08454,-8.08454c0,-4.46497 3.61957,-8.08453 8.08454,-8.08453z" fill="#a3a3a3" stroke="none"/><path d="M196.70276,179.60938c6.58583,0 11.92468,5.33886 11.92468,11.92468c0,6.58583 -5.33886,11.92469 -11.92468,11.92469c-6.58582,0 -11.92469,-5.33886 -11.92469,-11.92469c0,-6.58582 5.33886,-11.92468 11.92469,-11.92468z" fill="url(#color-28)" stroke="none"/><path d="M196.70276,184.58137c3.83987,0 6.9527,3.11282 6.9527,6.95269c0,3.83987 -3.11283,6.9527 -6.9527,6.9527c-3.83987,0 -6.9527,-3.11283 -6.9527,-6.9527c0,-3.83987 3.11283,-6.95269 6.9527,-6.95269z" fill="#323232" stroke="none"/></g><g><path d="M155.18799,191.21517c0,-7.50505 6.08405,-13.58909 13.5891,-13.58909c7.50505,0 13.58909,6.08404 13.58909,13.58909c0,7.50506 -6.08404,13.58909 -13.58909,13.58909c-7.50505,0 -13.5891,-6.08405 -13.5891,-13.58909z" fill="url(#color-29)" stroke="#bfbfbf"/><path d="M157.0555,191.21517c0,-6.47366 5.24793,-11.72158 11.72159,-11.72158c6.47366,0 11.72159,5.24793 11.72159,11.72158c0,6.47366 -5.24793,11.72159 -11.72159,11.72159c-6.47366,0 -11.72159,-5.24793 -11.72159,-11.72159z" fill="url(#color-30)" stroke="none"/><path d="M160.83025,191.21517c0,-4.38891 3.55793,-7.94683 7.94684,-7.94683c4.38892,0 7.94684,3.55791 7.94684,7.94683c0,4.38892 -3.55792,7.94684 -7.94684,7.94684c-4.38891,0 -7.94684,-3.55793 -7.94684,-7.94684z" fill="#a3a3a3" stroke="none"/><path d="M161.94281,191.21517c0,-3.77447 3.05981,-6.83427 6.83428,-6.83427c3.77447,0 6.83427,3.0598 6.83427,6.83427c0,3.77447 -3.0598,6.83429 -6.83427,6.83429c-3.77447,0 -6.83428,-3.05982 -6.83428,-6.83429z" fill="#323232" stroke="none"/></g><g><path d="M127.81537,167.43694c0,-7.50505 6.08404,-13.58909 13.58909,-13.58909c7.50505,0 13.5891,6.08404 13.5891,13.58909c0,7.50505 -6.08405,13.5891 -13.5891,13.5891c-7.50505,0 -13.58909,-6.08405 -13.58909,-13.5891z" fill="url(#color-31)" stroke="#bfbfbf"/><path d="M129.68288,167.43694c0,-6.47366 5.24793,-11.72159 11.72159,-11.72159c6.47366,0 11.72159,5.24793 11.72159,11.72159c0,6.47366 -5.24793,11.72159 -11.72159,11.72159c-6.47366,0 -11.72159,-5.24793 -11.72159,-11.72159z" fill="url(#color-32)" stroke="none"/><path d="M133.45763,167.43694c0,-4.38891 3.55793,-7.94684 7.94684,-7.94684c4.38892,0 7.94684,3.55792 7.94684,7.94684c0,4.38892 -3.55792,7.94684 -7.94684,7.94684c-4.38891,0 -7.94684,-3.55793 -7.94684,-7.94684z" fill="#a3a3a3" stroke="none"/><path d="M134.57019,167.43694c0,-3.77447 3.05981,-6.83428 6.83428,-6.83428c3.77447,0 6.83428,3.05981 6.83428,6.83428c0,3.77447 -3.05981,6.83428 -6.83428,6.83428c-3.77447,0 -6.83428,-3.05981 -6.83428,-6.83428z" fill="#323232" stroke="none"/></g><g><path d="M127.67713,191.21517c0,-7.50505 6.08404,-13.58909 13.58909,-13.58909c7.50505,0 13.58909,6.08404 13.58909,13.58909c0,7.50506 -6.08404,13.58909 -13.58909,13.58909c-7.50505,0 -13.58909,-6.08405 -13.58909,-13.58909z" fill="url(#color-33)" stroke="#bfbfbf"/><path d="M129.54463,191.21517c0,-6.47366 5.24793,-11.72158 11.72159,-11.72158c6.47366,0 11.72159,5.24793 11.72159,11.72158c0,6.47366 -5.24793,11.72159 -11.72159,11.72159c-6.47366,0 -11.72159,-5.24793 -11.72159,-11.72159z" fill="url(#color-34)" stroke="none"/><path d="M133.31938,191.21517c0,-4.38891 3.55792,-7.94683 7.94684,-7.94683c4.38892,0 7.94684,3.55791 7.94684,7.94683c0,4.38892 -3.55792,7.94684 -7.94684,7.94684c-4.38891,0 -7.94684,-3.55793 -7.94684,-7.94684z" fill="#a3a3a3" stroke="none"/><path d="M134.43194,191.21517c0,-3.77447 3.05981,-6.83427 6.83428,-6.83427c3.77447,0 6.83428,3.0598 6.83428,6.83427c0,3.77447 -3.05981,6.83429 -6.83428,6.83429c-3.77447,0 -6.83428,-3.05982 -6.83428,-6.83429z" fill="#323232" stroke="none"/></g><g><path d="M338.49832,177.73868c7.63509,0 13.82455,6.18947 13.82455,13.82456c0,7.63509 -6.18946,13.82455 -13.82455,13.82455c-7.63509,0 -13.82455,-6.18946 -13.82455,-13.82455c0,-7.63509 6.18946,-13.82456 13.82455,-13.82456z" fill="url(#color-35)" stroke="#bfbfbf"/><path d="M338.49832,179.63855c6.58583,0 11.92469,5.33886 11.92469,11.92468c0,6.58583 -5.33886,11.92469 -11.92469,11.92469c-6.58582,0 -11.92469,-5.33886 -11.92469,-11.92469c0,-6.58582 5.33886,-11.92468 11.92469,-11.92468z" fill="url(#color-36)" stroke="none"/><path d="M338.49832,183.4787c4.46497,0 8.08454,3.61957 8.08454,8.08453c0,4.46497 -3.61957,8.08454 -8.08454,8.08454c-4.46497,0 -8.08454,-3.61957 -8.08454,-8.08454c0,-4.46497 3.61957,-8.08453 8.08454,-8.08453z" fill="#a3a3a3" stroke="none"/><path d="M338.49832,179.63855c6.58583,0 11.92469,5.33886 11.92469,11.92468c0,6.58583 -5.33886,11.92469 -11.92469,11.92469c-6.58582,0 -11.92469,-5.33886 -11.92469,-11.92469c0,-6.58582 5.33886,-11.92468 11.92469,-11.92468z" fill="url(#color-37)" stroke="none"/><path d="M338.49832,184.61053c3.83987,0 6.9527,3.11283 6.9527,6.9527c0,3.83987 -3.11283,6.9527 -6.9527,6.9527c-3.83987,0 -6.9527,-3.11283 -6.9527,-6.9527c0,-3.83987 3.11283,-6.9527 6.9527,-6.9527z" fill="#323232" stroke="none"/></g><g><path d="M224.79846,178.50306c7.63509,0 13.82455,6.18947 13.82455,13.82456c0,7.63509 -6.18946,13.82455 -13.82455,13.82455c-7.63509,0 -13.82456,-6.18946 -13.82456,-13.82455c0,-7.63509 6.18947,-13.82456 13.82456,-13.82456z" fill="url(#color-38)" stroke="#bfbfbf"/><path d="M224.79846,180.40293c6.58583,0 11.92468,5.33886 11.92468,11.92468c0,6.58583 -5.33886,11.92469 -11.92468,11.92469c-6.58582,0 -11.92469,-5.33886 -11.92469,-11.92469c0,-6.58582 5.33886,-11.92468 11.92469,-11.92468z" fill="url(#color-39)" stroke="none"/><path d="M224.79846,184.24308c4.46497,0 8.08453,3.61957 8.08453,8.08453c0,4.46497 -3.61957,8.08454 -8.08453,8.08454c-4.46497,0 -8.08454,-3.61957 -8.08454,-8.08454c0,-4.46497 3.61957,-8.08453 8.08454,-8.08453z" fill="#a3a3a3" stroke="none"/><path d="M224.79846,180.40293c6.58583,0 11.92468,5.33886 11.92468,11.92468c0,6.58583 -5.33886,11.92469 -11.92468,11.92469c-6.58582,0 -11.92469,-5.33886 -11.92469,-11.92469c0,-6.58582 5.33886,-11.92468 11.92469,-11.92468z" fill="url(#color-40)" stroke="none"/><path d="M224.79846,185.37491c3.83987,0 6.9527,3.11283 6.9527,6.9527c0,3.83987 -3.11283,6.9527 -6.9527,6.9527c-3.83987,0 -6.9527,-3.11283 -6.9527,-6.9527c0,-3.83987 3.11283,-6.9527 6.9527,-6.9527z" fill="#323232" stroke="none"/></g></g></g></g></svg>