<svg version="1.1" xmlns="http://www.w3.org/2000/svg" xmlns:xlink="http://www.w3.org/1999/xlink" width="482.29271" height="409.30375" viewBox="0,0,482.29271,409.30375"><defs><linearGradient x1="551.52284" y1="3603.04441" x2="551.52284" y2="-1777.03849" gradientUnits="userSpaceOnUse" id="color-1"><stop offset="0" stop-color="#6b6b6b"/><stop offset="1" stop-color="#6b6b6b" stop-opacity="0"/></linearGradient><linearGradient x1="530.60714" y1="4540.88803" x2="530.60714" y2="-2209.11347" gradientUnits="userSpaceOnUse" id="color-2"><stop offset="0" stop-color="#6b6b6b"/><stop offset="1" stop-color="#6b6b6b" stop-opacity="0"/></linearGradient><linearGradient x1="472.60624" y1="4626.57117" x2="472.60624" y2="-2123.43033" gradientUnits="userSpaceOnUse" id="color-3"><stop offset="0" stop-color="#6b6b6b"/><stop offset="1" stop-color="#6b6b6b" stop-opacity="0"/></linearGradient><linearGradient x1="681.54129" y1="4542.86533" x2="681.54129" y2="-2207.13617" gradientUnits="userSpaceOnUse" id="color-4"><stop offset="0" stop-color="#6b6b6b"/><stop offset="1" stop-color="#6b6b6b" stop-opacity="0"/></linearGradient><linearGradient x1="637.97148" y1="4631.90944" x2="637.97148" y2="-2118.09206" gradientUnits="userSpaceOnUse" id="color-5"><stop offset="0" stop-color="#6b6b6b"/><stop offset="1" stop-color="#6b6b6b" stop-opacity="0"/></linearGradient><linearGradient x1="556.97118" y1="4670.07184" x2="556.97118" y2="-2079.92966" gradientUnits="userSpaceOnUse" id="color-6"><stop offset="0" stop-color="#6b6b6b"/><stop offset="1" stop-color="#6b6b6b" stop-opacity="0"/></linearGradient></defs><g transform="translate(1.14636,24.65188)"><g data-paper-data="{&quot;isPaintingLayer&quot;:true}" fill-rule="nonzero" stroke="none" stroke-width="0" stroke-linecap="butt" stroke-linejoin="miter" stroke-miterlimit="10" stroke-dasharray="" stroke-dashoffset="0" style="mix-blend-mode: normal"><path d="M314.01201,83.80667c0,0 5.68555,-11.36586 13.90983,-8.99869c3.93399,1.13231 3.95024,7.59545 6.0605,12.57626c2.07368,4.89446 6.2755,8.31772 6.2755,8.31772c0,0 15.7164,-1.4223 18.58819,10.52293c2.29548,8.15986 -5.03408,13.68125 -5.03408,13.68125c0,0 -2.57027,6.17761 -3.85506,9.52826c-1.15293,3.00678 -3.50099,9.65594 -3.50099,9.65594c0,0 -8.37309,0.61962 -13.4119,3.9875c-5.00368,3.3444 -6.39041,8.46031 -6.39041,8.46031c0,0 -9.66673,9.49626 -13.79666,12.12795c-2.94065,1.87384 -8.65023,3.27423 -8.65023,3.27423c0,0 -29.56725,-16.36164 -35.76335,-28.07854c-5.88436,-11.12738 7.66802,-17.37906 7.66802,-17.37906c0,0 -9.36878,-11.51717 -7.47357,-18.07728c2.83193,-9.80255 15.88076,-10.27848 15.88076,-10.27848c0,0 4.95764,-19.14227 11.62931,-20.40283c8.9186,-1.68508 17.86412,11.08256 17.86412,11.08256z" fill="url(#color-1)"/><path d="M148.1586,196.55168c0,0 -1.9156,0.93174 -3.4024,1.23227c-0.96771,0.19559 -1.75378,-0.02816 -1.71178,-0.42958c0.34089,-3.25836 -3.34299,-10.16578 -1.20097,-20.44103c5.38351,-25.82482 20.93505,-65.9147 33.97362,-71.31334c21.97587,-9.09915 98.46309,38.73082 98.46309,38.73082c0,0 24.29847,24.32044 32.45528,21.95625c12.48281,-3.61804 26.43681,-23.93709 21.50904,-15.53027c-2.79823,4.77382 2.42742,15.38453 2.42742,15.38453c0,0 11.82592,14.1802 10.83419,17.82974c-2.49969,9.19873 -69.17031,51.98308 -69.17031,51.98308c0,0 -5.8453,-19.86678 -18.30623,-11.82107c-4.32529,2.79274 -18.50476,-3.95324 -18.50476,-3.95324c0,0 -19.53726,8.5765 -28.30997,5.26626c-8.47472,-2.47659 -7.9445,-18.50223 -14.36434,-24.99389c-4.96472,-5.02025 -18.36937,10.34599 -18.36937,10.34599c0,0 -8.56775,-9.24902 -13.24005,-11.95265c-3.48531,-2.01677 -13.08242,-2.29388 -13.08242,-2.29388z" fill="url(#color-2)"/><path d="M174.61855,211.23775c0,0 8.97875,-13.73264 17.45167,-11.29002c4.9357,1.42063 4.9561,9.52947 7.60369,15.77852c2.6017,6.14071 7.87342,10.43563 7.87342,10.43563c0,0 19.71824,-1.78446 23.32126,13.20236c2.87998,10.23758 -14.58517,14.95975 -14.58517,14.95975c0,0 13.34946,13.63554 10.97848,22.36064c-2.49969,9.19872 -22.15443,11.55821 -22.15443,11.55821c0,0 3.38211,13.52768 -9.07883,21.57339c-4.32529,2.79273 -18.50476,-3.95324 -18.50476,-3.95324c0,0 -14.70386,8.57649 -23.47657,5.26626c-9.5741,-3.61263 -13.8203,-18.29437 -13.8203,-18.29437c0,0 -15.00632,2.17685 -22.78013,-12.52349c-7.38268,-13.96071 9.6205,-21.80424 9.6205,-21.80424c0,0 -11.75433,-14.44978 -9.37656,-22.68028c3.55303,-12.29854 19.92444,-12.89567 19.92444,-12.89567c0,0 6.21996,-24.01644 14.59044,-25.59797c11.18953,-2.11415 22.41283,13.90449 22.41283,13.90449z" fill="url(#color-3)"/><path d="M383.5536,127.53193c0,0 7.13327,-14.25992 17.45167,-11.29002c4.9357,1.42063 4.9561,9.52947 7.60369,15.77852c2.6017,6.14071 7.87342,10.43563 7.87342,10.43563c0,0 19.71824,-1.78446 23.32126,13.20236c2.87997,10.23758 -14.58517,14.95975 -14.58517,14.95975c0,0 13.34946,13.63554 10.97848,22.36064c-2.49971,9.19872 -22.15444,11.55821 -22.15444,11.55821c0,0 3.38211,13.52767 -9.07881,21.57338c-4.32529,2.79274 -18.50478,-3.95324 -18.50478,-3.95324c0,0 -14.70385,8.5765 -23.47656,5.26626c-9.5741,-3.61263 -13.8203,-18.29437 -13.8203,-18.29437c0,0 -15.00632,2.17685 -22.78013,-12.52349c-7.38268,-13.96071 9.6205,-21.80424 9.6205,-21.80424c0,0 -10.87552,-15.32858 -8.49775,-23.55908c3.55303,-12.29854 19.04564,-12.01686 19.04564,-12.01686c0,0 6.21996,-24.01644 14.59044,-25.59797c11.18953,-2.11415 22.41283,13.90449 22.41283,13.90449z" fill="url(#color-4)"/><path d="M339.98379,216.576c0,0 7.13327,-14.25992 17.45167,-11.29002c9.78583,2.8166 15.4771,26.21415 15.4771,26.21415c0,0 18.63984,-1.76229 22.24287,11.04559c2.87997,10.23759 -13.50677,17.11654 -13.50677,17.11654c0,0 13.34947,13.63555 10.97849,22.36065c-2.49971,9.19873 -22.15444,11.55821 -22.15444,11.55821c0,0 3.38211,13.52765 -9.07881,21.57338c-4.32529,2.79273 -18.50478,-3.95324 -18.50478,-3.95324c0,0 -14.70385,8.57649 -23.47656,5.26626c-9.5741,-3.61263 -18.50813,-18.94353 -18.50813,-18.94353c0,0 20.0637,-4.23853 12.28989,-18.93887c-5.93005,-10.08703 -21.59798,-8.94063 -21.59798,-8.94063c0,0 -4.68084,-4.81179 -7.18963,-11.27266c-2.28837,-5.89322 -2.48489,-13.2805 -1.35063,-17.20666c3.55303,-12.29854 19.92444,-12.89567 19.92444,-12.89567c0,0 6.21998,-24.01644 14.59046,-25.59797c11.18953,-2.11415 22.41283,13.90449 22.41283,13.90449z" fill="url(#color-5)"/><path d="M258.98351,254.73843c0,0 7.13327,-14.25992 17.45167,-11.29002c4.9357,1.42063 4.9561,9.52947 7.60369,15.77852c2.6017,6.14071 7.87342,10.43563 7.87342,10.43563c0,0 19.71824,-1.78446 23.32126,13.20236c2.87997,10.23758 -14.58517,14.95975 -14.58517,14.95975c0,0 13.34946,13.63554 10.97848,22.36064c-2.49971,9.19872 -22.15444,11.55821 -22.15444,11.55821c0,0 3.38211,13.52768 -9.07881,21.57339c-4.32529,2.79273 -18.50478,-3.95324 -18.50478,-3.95324c0,0 -14.70385,8.57649 -23.47656,5.26626c-9.5741,-3.61263 -13.8203,-18.29437 -13.8203,-18.29437c0,0 -15.00632,2.17685 -22.78013,-12.52349c-7.38268,-13.96072 9.6205,-21.80424 9.6205,-21.80424c0,0 -11.75433,-14.44979 -9.37656,-22.68028c3.55303,-12.29854 19.92444,-12.89567 19.92444,-12.89567c0,0 6.21996,-24.01644 14.59044,-25.59797c11.18952,-2.11415 22.41281,13.90449 22.41281,13.90449z" fill="url(#color-6)"/><g><path d="M199.31524,142.38435c-2.14598,-13.43952 9.32781,-17.18037 9.32781,-17.18037c0,0 -12.38637,-13.81714 -8.02022,-22.74504c3.21075,-6.56537 17.15188,-7.36999 17.15188,-7.36999c0,0 3.98109,-21.73234 14.08631,-21.73234c10.77848,0 16.22702,12.46197 16.22702,12.46197c0,0 6.4598,-14.40081 15.08192,-10.98574c8.29,3.28358 7.85072,10.01985 11.59249,20.76837c1.92287,5.52431 17.70194,-3.06826 20.44116,9.30545c2.72946,12.3295 -9.33677,16.55421 -9.33677,16.55421c0,0 8.64608,7.91404 8.79744,16.24328c0.20739,11.4012 -19.77976,12.40995 -19.77976,12.40995c0,0 3.18642,15.0059 -10.94792,19.04993c-0.91523,0.26193 -13.04138,-4.42731 -13.83428,-4.42731c-0.34083,0 -4.77256,7.25275 -18.52296,5.1804c-6.17074,-0.93008 -11.9671,-17.56616 -11.9671,-17.56616c0,0 -18.30181,2.52735 -20.29672,-9.96618z" fill="#619042"/><path d="M206.80695,138.91562c-1.78905,-11.20369 7.77598,-14.32239 7.77598,-14.32239c0,0 -10.32587,-11.51856 -6.68599,-18.96132c2.67658,-5.47316 14.29849,-6.1439 14.29849,-6.1439c0,0 3.31882,-18.11715 11.74302,-18.11715c8.98555,0 13.5274,10.38888 13.5274,10.38888c0,0 5.38516,-12.00507 12.57307,-9.15818c6.91081,2.73738 6.54474,8.35289 9.66391,17.31345c1.60309,4.60528 14.75705,-2.55768 17.04066,7.75757c2.27544,10.27846 -7.78354,13.80019 -7.78354,13.80019c0,0 7.2078,6.59736 7.33412,13.5411c0.17287,9.50449 -16.4893,10.34546 -16.4893,10.34546c0,0 2.65631,12.50969 -9.12661,15.88076c-0.7628,0.21832 -10.87182,-3.69079 -11.53299,-3.69079c-0.28409,0 -3.9787,6.0462 -15.44155,4.31843c-5.14418,-0.77533 -9.97631,-14.64393 -9.97631,-14.64393c0,0 -15.25725,2.10699 -16.92023,-8.30818z" fill="#7ca95d"/></g><g><path d="M195.12068,280.62677c-2.23195,-13.97761 9.70119,-17.86831 9.70119,-17.86831c0,0 -12.88221,-14.37034 -8.34128,-23.65565c3.33928,-6.82821 17.83847,-7.66502 17.83847,-7.66502c0,0 4.14058,-22.60244 14.6502,-22.60244c11.21002,0 16.87674,12.96093 16.87674,12.96093c0,0 6.71842,-14.9774 15.68572,-11.42552c8.62187,3.415 8.16509,10.42088 12.05658,21.59982c1.99988,5.7454 18.41058,-3.19102 21.25948,9.67804c2.83877,12.82319 -9.71052,17.21691 -9.71052,17.21691c0,0 8.99225,8.2308 9.14971,16.89358c0.21568,11.85761 -20.57178,12.90677 -20.57178,12.90677c0,0 3.31397,15.60675 -11.38616,19.81255c-0.95195,0.27237 -13.56358,-4.60455 -14.38822,-4.60455c-0.35453,0 -4.96362,7.54311 -19.26444,5.38773c-6.41773,-0.9673 -12.44624,-18.26945 -12.44624,-18.26945c0,0 -19.03452,2.6285 -21.10932,-10.36518z" fill="#619258"/><path d="M202.91233,277.01925c-1.8606,-11.65231 8.08734,-14.89578 8.08734,-14.89578c0,0 -10.73924,-11.97976 -6.95367,-19.72037c2.78374,-5.69234 14.87097,-6.38997 14.87097,-6.38997c0,0 3.45166,-18.84237 12.21313,-18.84237c9.34525,0 14.06912,10.80483 14.06912,10.80483c0,0 5.60071,-12.48579 13.07639,-9.52481c7.18747,2.84688 6.80679,8.68728 10.0508,18.0066c1.66721,4.78965 15.34796,-2.66018 17.72289,8.068c2.36652,10.68992 -8.09515,14.35272 -8.09515,14.35272c0,0 7.49631,6.86149 7.62767,14.08318c0.17982,9.885 -17.14955,10.75963 -17.14955,10.75963c0,0 2.76267,13.0105 -9.49195,16.51657c-0.79344,0.2271 -11.30705,-3.8385 -11.99474,-3.8385c-0.29551,0 -4.13788,6.28822 -16.05972,4.49137c-5.35009,-0.8064 -10.37574,-15.23023 -10.37574,-15.23023c0,0 -15.86812,2.1913 -17.59772,-8.64085z" fill="#6bab41"/></g><g><path d="M267.36254,240.63743c-2.53613,-15.8831 11.02369,-20.3041 11.02369,-20.3041c0,0 -14.63835,-16.32932 -9.47839,-26.88045c3.79452,-7.75903 20.27031,-8.70994 20.27031,-8.70994c0,0 4.70502,-25.68365 16.64743,-25.68365c12.7382,0 19.17736,14.72782 19.17736,14.72782c0,0 7.6343,-17.01916 17.82403,-12.98311c9.7973,3.88056 9.27818,11.84158 13.70015,24.5444c2.27249,6.52871 20.92036,-3.62601 24.15764,10.99735c3.22579,14.57122 -11.03431,19.56402 -11.03431,19.56402c0,0 10.2181,9.35286 10.39704,19.19658c0.24509,13.4741 -23.3761,14.66629 -23.3761,14.66629c0,0 3.76572,17.7343 -12.93841,22.51344c-1.08165,0.30951 -15.4125,-5.2323 -16.34958,-5.2323c-0.40292,0 -5.64026,8.57145 -21.89067,6.12222c-7.29261,-1.09916 -14.14294,-20.76001 -14.14294,-20.76001c0,0 -21.62936,2.98684 -23.98702,-11.7782z" fill="#6a9d4e"/><path d="M276.21631,236.53801c-2.11422,-13.24079 9.18981,-16.92643 9.18981,-16.92643c0,0 -12.20323,-13.61289 -7.90163,-22.40874c3.16321,-6.46834 16.89818,-7.26099 16.89818,-7.26099c0,0 3.92221,-21.4111 13.87806,-21.4111c10.61929,0 15.98708,12.27774 15.98708,12.27774c0,0 6.36424,-14.18789 14.859,-10.82324c8.1673,3.235 7.73472,9.87154 11.42097,20.46131c1.89449,5.44258 17.44014,-3.02276 20.13895,9.16795c2.68904,12.14723 -9.19872,16.30925 -9.19872,16.30925c0,0 8.51821,7.79693 8.66751,16.00311c0.20432,11.23256 -19.48738,12.22639 -19.48738,12.22639c0,0 3.13932,14.78419 -10.78603,18.76818c-0.90158,0.25799 -12.84849,-4.36185 -13.62989,-4.36185c-0.3358,0 -4.70201,7.14547 -18.24906,5.10358c-6.07942,-0.91632 -11.79018,-17.30645 -11.79018,-17.30645c0,0 -18.03129,2.49 -19.99672,-9.81879z" fill="#75bb4d"/></g><g><path d="M83.24617,255.77543c-2.05546,-12.87275 8.93441,-16.45583 8.93441,-16.45583c0,0 -11.86394,-13.23441 -7.68197,-21.78578c3.07533,-6.28847 16.42844,-7.05912 16.42844,-7.05912c0,0 3.81332,-20.81577 13.49227,-20.81577c10.32391,0 15.54263,11.9364 15.54263,11.9364c0,0 6.18738,-13.7935 14.44582,-10.52239c7.94039,3.14509 7.51966,9.59722 11.10353,19.8925c1.84181,5.29132 16.95536,-2.93881 19.57906,8.91302c2.61436,11.80952 -8.943,15.85602 -8.943,15.85602c0,0 8.28147,7.5802 8.42646,15.55824c0.19867,10.92034 -18.9456,11.88653 -18.9456,11.88653c0,0 3.05199,14.37311 -10.48622,18.24648c-0.87666,0.25087 -12.49132,-4.24062 -13.25081,-4.24062c-0.32653,0 -4.57126,6.94693 -17.74174,4.96184c-5.91041,-0.89084 -11.46243,-16.82535 -11.46243,-16.82535c0,0 -17.52993,2.42073 -19.44077,-9.54588z" fill="#6f9e50"/><path d="M90.42197,252.45298c-1.71352,-10.73125 7.44804,-13.71833 7.44804,-13.71833c0,0 -9.89034,-11.03285 -6.40404,-18.16161c2.56371,-5.24237 13.69549,-5.8848 13.69549,-5.8848c0,0 3.17881,-17.35306 11.24773,-17.35306c8.60665,0 12.957,9.9507 12.957,9.9507c0,0 5.15806,-11.49884 12.04277,-8.7719c6.61935,2.62186 6.26875,8.00056 9.25632,16.58326c1.53543,4.41103 14.13465,-2.44985 16.32195,7.43036c2.17938,9.84495 -7.45529,13.21813 -7.45529,13.21813c0,0 6.90375,6.31917 7.02473,12.97003c0.16557,9.10365 -15.79387,9.90914 -15.79387,9.90914c0,0 2.5443,11.98209 -8.74175,15.21101c-0.73068,0.20911 -10.41326,-3.53512 -11.0466,-3.53512c-0.27212,0 -3.81086,5.7912 -14.79033,4.13628c-4.9272,-0.74265 -9.55558,-14.02637 -9.55558,-14.02637c0,0 -14.61377,2.01811 -16.20669,-7.95783z" fill="#7ab84e"/></g><g><path d="M81.04621,133.46684c-2.34146,-14.66396 10.17763,-18.74564 10.17763,-18.74564c0,0 -13.51482,-15.07596 -8.7509,-24.81725c3.50324,-7.16352 18.71444,-8.0414 18.71444,-8.0414c0,0 4.34391,-23.71227 15.3697,-23.71227c11.76046,0 17.70538,13.59735 17.70538,13.59735c0,0 7.04831,-15.71286 16.45595,-11.98657c9.04525,3.58272 8.56599,10.93268 12.6486,22.66053c2.09808,6.02758 19.31468,-3.34775 22.30348,10.15324c2.97817,13.45278 -10.18738,18.06238 -10.18738,18.06238c0,0 9.43381,8.63495 9.599,17.72312c0.22631,12.43991 -21.58183,13.54055 -21.58183,13.54055c0,0 3.47665,16.37311 -11.94536,20.78544c-0.99862,0.28575 -14.22947,-4.83067 -15.09464,-4.83067c-0.37197,0 -5.20737,7.91355 -20.2105,5.65229c-6.73284,-1.01477 -13.05741,-19.16655 -13.05741,-19.16655c0,0 -19.96921,2.75759 -22.1459,-10.87415z" fill="#6b9f57"/><path d="M89.22044,129.24273c-1.95198,-12.22448 8.48444,-15.62719 8.48444,-15.62719c0,0 -11.26658,-12.56803 -7.29513,-20.68877c2.92045,-5.97183 15.60116,-6.70366 15.60116,-6.70366c0,0 3.62115,-19.76772 12.81281,-19.76772c9.80423,0 14.75994,11.3353 14.75994,11.3353c0,0 5.87578,-13.09887 13.71852,-9.99253c7.54041,2.98672 7.14104,9.11384 10.54431,18.89081c1.74907,5.02485 16.10148,-2.79074 18.59315,8.46429c2.48264,11.21487 -8.49266,15.05742 -8.49266,15.05742c0,0 7.86442,7.19846 8.00223,14.77481c0.1886,10.3704 -17.99156,11.28795 -17.99156,11.28795c0,0 2.89834,13.64936 -9.95813,17.32757c-0.83238,0.23821 -11.86228,-4.02703 -12.58374,-4.02703c-0.31,0 -4.34116,6.59706 -16.84838,4.71183c-5.61281,-0.84601 -10.88521,-15.97811 -10.88521,-15.97811c0,0 -16.64726,2.29896 -18.46179,-9.06514z" fill="#81ba52"/></g><g><path d="M159.13049,80.13354c-1.4667,-9.18569 6.37542,-11.74252 6.37542,-11.74252c0,0 -8.46589,-9.44381 -5.48169,-15.54589c2.19449,-4.48732 11.72306,-5.03726 11.72306,-5.03726c0,0 2.72105,-14.85371 9.62781,-14.85371c7.36692,0 11.09094,8.51759 11.09094,8.51759c0,0 4.41515,-9.84274 10.30825,-7.5086c5.66612,2.24431 5.36587,6.84842 7.92332,14.19489c1.31427,3.77579 12.09903,-2.0971 13.97123,6.36013c1.86557,8.42702 -6.38156,11.31454 -6.38156,11.31454c0,0 5.90949,5.40911 6.01297,11.10206c0.14173,7.79257 -13.51918,8.48204 -13.51918,8.48204c0,0 2.17785,10.25635 -7.48275,13.02032c-0.62554,0.17901 -8.91358,-3.02601 -9.45554,-3.02601c-0.23299,0 -3.26196,4.95718 -12.6602,3.5407c-4.21759,-0.63568 -8.17934,-12.00623 -8.17934,-12.00623c0,0 -12.509,1.7274 -13.87254,-6.81176z" fill="#67994e"/><path d="M164.25097,77.76266c-1.22278,-7.65758 5.31478,-9.78913 5.31478,-9.78913c0,0 -7.05759,-7.87276 -4.56979,-12.95977c1.8294,-3.74085 9.7728,-4.19929 9.7728,-4.19929c0,0 2.26838,-12.38281 8.02618,-12.38281c6.1415,0 9.24582,7.10064 9.24582,7.10064c0,0 3.68067,-8.20532 8.59351,-6.25948c4.72343,1.87091 4.47325,5.70904 6.6051,11.83347c1.09565,3.14767 10.08624,-1.74815 11.64703,5.30219c1.5552,7.02516 -5.31993,9.43221 -5.31993,9.43221c0,0 4.92641,4.50924 5.01275,9.25515c0.11815,6.49615 -11.27021,7.07098 -11.27021,7.07098c0,0 1.81559,8.5502 -6.23792,10.85426c-0.52139,0.14923 -7.43073,-2.52262 -7.88265,-2.52262c-0.19418,0 -2.71939,4.13247 -10.55408,2.95159c-3.51596,-0.52993 -6.81869,-10.00892 -6.81869,-10.00892c0,0 -10.42813,1.44011 -11.56473,-5.67853z" fill="#71a843"/></g><g><path d="M206.13603,134.19647c-1.80901,-11.32934 7.86325,-14.48285 7.86325,-14.48285c0,0 -10.44157,-11.6477 -6.76097,-19.1738c2.70661,-5.53451 14.45883,-6.21281 14.45883,-6.21281c0,0 3.35604,-18.32011 11.87462,-18.32011c9.08614,0 13.67921,10.50532 13.67921,10.50532c0,0 5.44552,-12.13973 12.71388,-9.26087c6.98837,2.76803 6.61806,8.4466 9.77236,17.50752c1.62097,4.65693 14.92256,-2.58648 17.23164,7.8444c2.30092,10.39362 -7.8708,13.95502 -7.8708,13.95502c0,0 7.28856,6.67143 7.41617,13.6929c0.17485,9.6111 -16.67408,10.46146 -16.67408,10.46146c0,0 2.6861,12.64982 -9.229,16.05887c-0.77152,0.22077 -10.99373,-3.73219 -11.66213,-3.73219c-0.28734,0 -4.02322,6.11399 -15.61467,4.36701c-5.20184,-0.78404 -10.08815,-14.80809 -10.08815,-14.80809c0,0 -15.42823,2.1305 -17.10993,-8.4014z" fill="#6ea053"/><path d="M212.45144,131.27234c-1.50816,-9.44462 6.55505,-12.0736 6.55505,-12.0736c0,0 -8.70459,-9.71004 -5.63621,-15.98419c2.25634,-4.61383 12.05346,-5.17924 12.05346,-5.17924c0,0 2.79774,-15.27255 9.89924,-15.27255c7.57473,0 11.40346,8.75771 11.40346,8.75771c0,0 4.53964,-10.12014 10.59897,-7.72022c5.82573,2.30755 5.51712,7.04137 8.14654,14.59504c1.35137,3.88222 12.44005,-2.15612 14.36506,6.53952c1.91814,8.66462 -6.56144,11.6334 -6.56144,11.6334c0,0 6.07611,5.56153 6.18259,11.41501c0.14573,8.01218 -13.9003,8.72112 -13.9003,8.72112c0,0 2.23927,10.54554 -7.69363,13.38732c-0.64305,0.18405 -9.16481,-3.11131 -9.72219,-3.11131c-0.2395,0 -3.35402,5.09688 -13.01706,3.64037c-4.33649,-0.6536 -8.40995,-12.34467 -8.40995,-12.34467c0,0 -12.8617,1.77616 -14.26354,-7.00373z" fill="#96c76d"/></g><path d="M-1.14635,384.65188v-409.30375h482.29271v409.30375z" fill="none"/></g></g></svg>