<svg version="1.1" xmlns="http://www.w3.org/2000/svg" xmlns:xlink="http://www.w3.org/1999/xlink" width="125.26277" height="156.42228" viewBox="0,0,125.26277,156.42228"><defs><radialGradient cx="240" cy="180.00004" r="83.40046" gradientUnits="userSpaceOnUse" id="color-1"><stop offset="0" stop-color="#f0f0f0" stop-opacity="0.41961"/><stop offset="1" stop-color="#f2f2f2" stop-opacity="0.84706"/></radialGradient></defs><g transform="translate(-177.36861,-101.78887)"><g data-paper-data="{&quot;isPaintingLayer&quot;:true}" fill-rule="nonzero" stroke-linecap="butt" stroke-linejoin="miter" stroke-miterlimit="10" stroke-dasharray="" stroke-dashoffset="0" style="mix-blend-mode: normal"><path d="M178.61929,256.4812l0.08339,-153.43748l122.67803,0.4751l-0.08339,153.43748z" fill="url(#color-1)" stroke="#ffffff" stroke-width="2.5"/><text transform="translate(211.48468,221.42002) scale(0.48274,0.70157)" font-size="40" xml:space="preserve" fill="#ffffff" fill-rule="nonzero" stroke="#ffffff" stroke-width="2" stroke-linecap="butt" stroke-linejoin="miter" stroke-miterlimit="10" stroke-dasharray="" stroke-dashoffset="0" font-family="Sans Serif" font-weight="normal" text-anchor="start" style="mix-blend-mode: normal"><tspan x="0" dy="0">自动挡</tspan></text><text transform="translate(231.20266,238.75261) scale(0.22221,0.32293)" font-size="40" xml:space="preserve" fill="#ffffff" fill-rule="nonzero" stroke="#ffffff" stroke-width="1" stroke-linecap="butt" stroke-linejoin="miter" stroke-miterlimit="10" stroke-dasharray="" stroke-dashoffset="0" font-family="Sans Serif" font-weight="normal" text-anchor="start" style="mix-blend-mode: normal"><tspan x="0" dy="0">推荐</tspan></text><path d="M221.73847,161.55784c0,-2.16538 0,-4.67681 0,-5.96295c0,-1.59975 1.96464,-3.91151 3.66487,-3.91151c2.50724,0 10.07195,0 14.90737,0c2.668,0 4.25549,1.80488 4.2285,3.91521c-0.02623,2.04973 -0.05208,4.81356 -0.05208,6.06573c0,1.68689 -1.4156,3.78401 -3.85697,3.78401c-4.68474,0 -12.18326,0 -14.80089,0c-1.85914,0 -4.0908,-1.78105 -4.0908,-3.89049z" fill="none" stroke="#ffffff" stroke-width="3"/><path d="M221.6426,164.69257v-6.01654h22.06063v6.01654z" fill="#ffffff" stroke="none" stroke-width="0"/><path d="M218.13295,161.58402v-6.01654h3.81047v6.01654z" fill="#ffffff" stroke="none" stroke-width="0"/><path d="M228.36377,151.08995c0,0 0,-18.90664 0,-22.75866c0,-1.53593 0.25438,-4.4562 3.79829,-4.57957c3.42033,-0.11907 4.55115,2.92028 4.55115,4.4562c0,3.85202 0,22.88203 0,22.88203z" fill="#ffffff" stroke="none" stroke-width="0"/><path d="M236.71322,160.52252c0,0 0,12.45863 0,16.31066c0,1.53592 -1.13082,4.57527 -4.55115,4.4562c-3.54391,-0.12337 -3.79829,-3.04364 -3.79829,-4.57957c0,-3.85202 0,-16.18729 0,-16.18729z" data-paper-data="{&quot;index&quot;:null}" fill="#ffffff" stroke="none" stroke-width="0"/><text transform="translate(249.77119,179.61189) scale(0.34304,0.34304)" font-size="40" xml:space="preserve" fill="#ffffff" fill-rule="nonzero" stroke="#ffffff" stroke-width="2" stroke-linecap="butt" stroke-linejoin="miter" stroke-miterlimit="10" stroke-dasharray="" stroke-dashoffset="0" font-family="Sans Serif" font-weight="normal" text-anchor="start" style="mix-blend-mode: normal"><tspan x="0" dy="0">N</tspan></text><text transform="translate(249.77119,164.06014) scale(0.34303,0.34303)" font-size="40" xml:space="preserve" fill="#ffffff" fill-rule="nonzero" stroke="#ffffff" stroke-width="2" stroke-linecap="butt" stroke-linejoin="miter" stroke-miterlimit="10" stroke-dasharray="" stroke-dashoffset="0" font-family="Sans Serif" font-weight="normal" text-anchor="start" style="mix-blend-mode: normal"><tspan x="0" dy="0">D</tspan></text><text transform="translate(249.77119,148.96529) scale(0.34303,0.34303)" font-size="40" xml:space="preserve" fill="#ffffff" fill-rule="nonzero" stroke="#ffffff" stroke-width="2" stroke-linecap="butt" stroke-linejoin="miter" stroke-miterlimit="10" stroke-dasharray="" stroke-dashoffset="0" font-family="Sans Serif" font-weight="normal" text-anchor="start" style="mix-blend-mode: normal"><tspan x="0" dy="0">R</tspan></text><text transform="translate(249.77119,133.88467) scale(0.34303,0.34303)" font-size="40" xml:space="preserve" fill="#ffffff" fill-rule="nonzero" stroke="#ffffff" stroke-width="2" stroke-linecap="butt" stroke-linejoin="miter" stroke-miterlimit="10" stroke-dasharray="" stroke-dashoffset="0" font-family="Sans Serif" font-weight="normal" text-anchor="start" style="mix-blend-mode: normal"><tspan x="0" dy="0">P</tspan></text></g></g></svg>