<svg version="1.1" xmlns="http://www.w3.org/2000/svg" xmlns:xlink="http://www.w3.org/1999/xlink" width="482.29271" height="409.30376" viewBox="0,0,482.29271,409.30376"><defs><linearGradient x1="213.20007" y1="180.00001" x2="266.79995" y2="180.00001" gradientUnits="userSpaceOnUse" id="color-1"><stop offset="0" stop-color="#8bed28"/><stop offset="1" stop-color="#78da23"/></linearGradient></defs><g transform="translate(1.14633,24.65179)"><g data-paper-data="{&quot;isPaintingLayer&quot;:true}" fill-rule="nonzero" stroke-width="0" stroke-linecap="butt" stroke-linejoin="miter" stroke-miterlimit="10" stroke-dasharray="" stroke-dashoffset="0" style="mix-blend-mode: normal"><path d="M-1.14633,384.65196v-409.30375h482.29271v409.30375z" fill="none" stroke="none"/><path d="M-1.14633,384.65197v-409.30375h482.29271v409.30375z" fill="none" stroke="none"/><path d="M241.85664,208.95322c-3.25396,0.32059 -4.81471,-2.21763 -8.34025,-2.70357c-3.66962,-0.5058 -6.87008,4.70618 -9.07579,2.69797c-3.14859,-1.93613 -2.44819,-8.34887 -2.44819,-8.34887c0,0 -6.08186,-2.45041 -6.80573,-3.59406c-0.83777,-1.32361 1.5403,-4.65317 1.5403,-4.65317c0,0 -5.25396,-3.98241 -6.27176,-6.88685c-0.41278,-1.17795 3.57941,-5.26122 3.57941,-5.26122c0,0 -2.86657,-5.98661 -2.08618,-8.02377c0.82658,-2.15769 6.47008,-5.4929 6.47008,-5.4929c0,0 0.24576,-7.84232 2.81456,-9.43724c2.12513,-1.31945 9.14864,-1.17924 9.14864,-1.17924c0,0 2.68542,-5.03599 5.45072,-5.42834c3.67171,-0.52097 7.13753,3.03834 7.13753,3.03834c0,0 5.92668,-3.07568 9.68106,-0.81507c2.08181,1.2535 2.88925,6.27382 2.88925,6.27382c0,0 5.51468,-0.12073 7.00494,3.66689c0.9692,2.46329 -0.76981,7.33993 -0.76981,7.33993c0,0 5.13996,0.3133 6.47241,2.39564c1.83062,2.86081 -0.42464,4.57933 -0.42464,7.66196c0,2.78166 2.29978,7.69391 1.62897,10.17526c-0.66083,2.44439 -2.48405,4.00438 -4.6527,5.33812c-1.73801,1.06892 -4.62562,0.32258 -6.3868,1.43969c0,0 1.51437,4.42358 -1.07133,6.63058c-3.86072,3.23709 -5.64435,-0.93167 -10.04505,0.11047c-2.10401,0.49824 -1.67308,4.68453 -5.43965,5.05564z" data-paper-data="{&quot;index&quot;:null}" fill="#7ed429" stroke="#49ac26"/><path d="M241.68246,206.23674c-2.94865,0.29052 -4.36298,-2.00957 -7.55775,-2.44992c-3.32531,-0.45834 -6.22549,4.26466 -8.22427,2.44484c-2.85319,-1.75447 -2.2185,-7.56554 -2.2185,-7.56554c0,0 -5.51123,-2.2205 -6.16718,-3.25685c-0.75918,-1.19943 1.39577,-4.21661 1.39577,-4.21661c0,0 -4.76102,-3.60876 -5.68333,-6.2407c-0.37406,-1.06743 3.24357,-4.76757 3.24357,-4.76757c0,0 -2.59762,-5.42493 -1.89045,-7.27095c0.74902,-1.95525 5.86303,-4.97755 5.86303,-4.97755c0,0 0.22271,-7.10652 2.55049,-8.5518c1.92573,-1.19567 8.29027,-1.06859 8.29027,-1.06859c0,0 2.43346,-4.56352 4.93929,-4.91904c3.32723,-0.47209 6.46787,2.75327 6.46787,2.75327c0,0 5.3706,-2.7871 8.77276,-0.73861c1.88647,1.1359 2.61816,5.68519 2.61816,5.68519c0,0 4.99727,-0.10938 6.34772,3.32285c0.87827,2.23218 -0.69759,6.65126 -0.69759,6.65126c0,0 4.6577,0.28393 5.86514,2.17089c1.65885,2.59241 -0.3848,4.14968 -0.3848,6.94309c0,2.52067 2.08402,6.97203 1.47614,9.22057c-0.59883,2.21505 -2.25099,3.62868 -4.21615,4.83729c-1.57496,0.96865 -4.19164,0.29231 -5.78755,1.30459c0,0 1.37229,4.00855 -0.97082,6.00847c-3.49851,2.93337 -5.11479,-0.84425 -9.10258,0.10011c-1.90661,0.45149 -1.51611,4.24501 -4.92926,4.58131z" data-paper-data="{&quot;index&quot;:null}" fill="url(#color-1)" stroke="#49ac26"/><path d="M241.47197,202.95396c-2.57971,0.25416 -3.81708,-1.75812 -6.61211,-2.14339c-2.90924,-0.40099 -5.44655,3.73106 -7.19525,2.13895c-2.4962,-1.53495 -1.94092,-6.61893 -1.94092,-6.61893c0,0 -4.82166,-1.94267 -5.39554,-2.84935c-0.6642,-1.04935 1.22114,-3.68902 1.22114,-3.68902c0,0 -4.16533,-3.15723 -4.97223,-5.45986c-0.32726,-0.93387 2.83774,-4.17104 2.83774,-4.17104c0,0 -2.2726,-4.74616 -1.65391,-6.3612c0.6553,-1.71061 5.12943,-4.35475 5.12943,-4.35475c0,0 0.19483,-6.21735 2.23137,-7.48179c1.68478,-1.04606 7.25298,-0.93489 7.25298,-0.93489c0,0 2.12898,-3.99252 4.32129,-4.30356c2.91093,-0.41303 5.6586,2.40878 5.6586,2.40878c0,0 4.69862,-2.43837 7.6751,-0.6462c1.65043,0.99377 2.29057,4.97386 2.29057,4.97386c0,0 4.37201,-0.0957 5.55347,2.90708c0.76838,1.95289 -0.61031,5.81904 -0.61031,5.81904c0,0 4.07493,0.24841 5.13129,1.89928c1.4513,2.26804 -0.33665,3.63047 -0.33665,6.07436c0,2.20529 1.82327,6.09968 1.29144,8.06688c-0.52391,1.9379 -1.96934,3.17465 -3.68861,4.23205c-1.3779,0.84746 -3.66718,0.25574 -5.06341,1.14136c0,0 1.20059,3.507 -0.84935,5.25669c-3.06078,2.56634 -4.47482,-0.73861 -7.96365,0.08759c-1.66805,0.395 -1.32641,3.71387 -4.31251,4.0081z" data-paper-data="{&quot;index&quot;:null}" fill="#8ded2d" stroke="#49ac26"/><path d="M239.49104,195.71495c-1.63643,0.16123 -2.42136,-1.11526 -4.19438,-1.35966c-1.84547,-0.25437 -3.45501,2.36679 -4.5643,1.35683c-1.58347,-0.97369 -1.23122,-4.1987 -1.23122,-4.1987c0,0 -3.05861,-1.23233 -3.42266,-1.80748c-0.42133,-0.66566 0.77463,-2.34013 0.77463,-2.34013c0,0 -2.64226,-2.00278 -3.15412,-3.46346c-0.2076,-0.5924 1.80011,-2.64589 1.80011,-2.64589c0,0 -1.44162,-3.01071 -1.04916,-4.03522c0.41568,-1.08512 3.25385,-2.76243 3.25385,-2.76243c0,0 0.1236,-3.94397 1.41546,-4.74606c1.06873,-0.66357 4.60091,-0.59305 4.60091,-0.59305c0,0 1.35053,-2.53265 2.74121,-2.72995c1.84654,-0.26201 3.58952,1.52802 3.58952,1.52802c0,0 2.98057,-1.54678 4.86869,-0.40992c1.04695,0.6304 1.45302,3.15517 1.45302,3.15517c0,0 2.77338,-0.06071 3.52284,1.84409c0.48741,1.23881 -0.38715,3.69129 -0.38715,3.69129c0,0 2.58491,0.15758 3.25502,1.2048c0.92063,1.43873 -0.21355,2.30298 -0.21355,3.85327c0,1.39892 1.15659,3.86931 0.81922,5.1172c-0.33234,1.2293 -1.24924,2.01384 -2.33986,2.6846c-0.87406,0.53758 -2.32626,0.16223 -3.21197,0.72403c0,0 0.76158,2.22465 -0.53879,3.33456c-1.94159,1.62796 -2.83859,-0.46853 -5.05173,0.05556c-1.05813,0.25057 -0.84141,2.35589 -2.73563,2.54253z" data-paper-data="{&quot;index&quot;:null}" fill="#9df247" stroke="#49ac26"/><path d="M241.25074,199.50414c-2.192,0.21597 -3.24341,-1.49389 -5.61837,-1.82126c-2.47201,-0.34073 -4.62797,3.17031 -6.11387,1.81747c-2.12104,-1.30426 -1.64921,-5.62415 -1.64921,-5.62415c0,0 -4.097,-1.65069 -4.58465,-2.42111c-0.56437,-0.89164 1.03761,-3.13459 1.03761,-3.13459c0,0 -3.5393,-2.68272 -4.22494,-4.63929c-0.27807,-0.79351 2.41125,-3.54416 2.41125,-3.54416c0,0 -1.93104,-4.03284 -1.40535,-5.40516c0.55681,-1.45351 4.35852,-3.70026 4.35852,-3.70026c0,0 0.16555,-5.28294 1.89602,-6.35734c1.43156,-0.88885 6.16291,-0.79438 6.16291,-0.79438c0,0 1.80903,-3.39249 3.67184,-3.65677c2.47343,-0.35096 4.80815,2.04677 4.80815,2.04677c0,0 3.99247,-2.07192 6.5216,-0.54908c1.40239,0.84442 1.94631,4.22633 1.94631,4.22633c0,0 3.71493,-0.08132 4.71884,2.47016c0.65289,1.65939 -0.51857,4.94449 -0.51857,4.94449c0,0 3.46248,0.21108 4.3601,1.61384c1.23317,1.92718 -0.28605,3.08484 -0.28605,5.16144c0,1.87385 1.54924,5.18294 1.09735,6.85448c-0.44516,1.64665 -1.67336,2.69754 -3.13424,3.59601c-1.17081,0.72009 -3.11603,0.2173 -4.30242,0.96982c0,0 1.02015,2.97992 -0.7217,4.46664c-2.60076,2.18064 -3.80229,-0.6276 -6.76678,0.07442c-1.41735,0.33564 -1.12706,3.15571 -3.66437,3.40571z" data-paper-data="{&quot;index&quot;:null}" fill="#9df247" stroke="#49ac26"/></g></g></svg>