<svg version="1.1" xmlns="http://www.w3.org/2000/svg" xmlns:xlink="http://www.w3.org/1999/xlink" width="113.3708" height="49.16619" viewBox="0,0,113.3708,49.16619"><defs><linearGradient x1="6324.44015" y1="-2002.71648" x2="6324.44015" y2="1193.08621" gradientUnits="userSpaceOnUse" id="color-1"><stop offset="0" stop-color="#000000"/><stop offset="1" stop-color="#000000" stop-opacity="0"/></linearGradient><linearGradient x1="2945.30915" y1="-784.76425" x2="2945.30915" y2="640.68129" gradientUnits="userSpaceOnUse" id="color-2"><stop offset="0" stop-color="#ffffff"/><stop offset="1" stop-color="#ffffff" stop-opacity="0"/></linearGradient></defs><g transform="translate(-211.3325,-155.41694)"><g data-paper-data="{&quot;isPaintingLayer&quot;:true}" fill-rule="nonzero" stroke-linecap="butt" stroke-linejoin="miter" stroke-miterlimit="10" stroke-dasharray="" stroke-dashoffset="0" style="mix-blend-mode: normal"><path d="M211.3325,189.63845c0,-8.11341 0,-17.38746 0,-21.90696c0,-5.20237 5.60589,-12.31455 13.00726,-12.31455c37.85701,0 8.22649,0 83.87108,0c10.53576,0 16.49246,7.18927 16.49246,15.30186c0,7.20901 0,15.14712 0,19.41754c0,5.85462 -5.20935,14.44679 -14.50091,14.44679c-71.86173,0 -46.58193,0 -85.36474,0c-7.66276,0 -13.50514,-6.90211 -13.50514,-14.94468z" fill="url(#color-1)" stroke="none" stroke-width="0"/><path d="M218.63833,193.10668c0,-3.61888 0,-7.75545 0,-9.77131c0,-2.32045 2.50043,-5.49274 5.80172,-5.49274c16.88562,0 0.405,0 34.14527,0c4.69934,0 7.35624,3.20668 7.35624,6.82519c0,3.21548 0,6.75617 0,8.66094c0,2.61138 -2.32356,6.4438 -6.46794,6.4438c-32.05297,0 -17.51294,0 -34.8115,0c-3.41787,0 -6.02379,-3.07859 -6.02379,-6.66588z" fill="url(#color-2)" stroke="none" stroke-width="0"/><text transform="translate(226.56976,194.92699) scale(0.4374,0.4374)" font-size="40" xml:space="preserve" fill="#f1f1f1" fill-rule="nonzero" stroke="#f1f1f1" stroke-width="2" stroke-linecap="butt" stroke-linejoin="miter" stroke-miterlimit="10" stroke-dasharray="" stroke-dashoffset="0" font-family="Sans Serif" font-weight="normal" text-anchor="start" style="mix-blend-mode: normal"><tspan x="0" dy="0">YES</tspan></text><text transform="translate(277.98527,194.92699) scale(0.4374,0.4374)" font-size="40" xml:space="preserve" fill="#f1f1f1" fill-rule="nonzero" stroke="#f1f1f1" stroke-width="2" stroke-linecap="butt" stroke-linejoin="miter" stroke-miterlimit="10" stroke-dasharray="" stroke-dashoffset="0" font-family="Sans Serif" font-weight="normal" text-anchor="start" style="mix-blend-mode: normal"><tspan x="0" dy="0">NO</tspan></text><text transform="translate(239.68815,173.9457) scale(0.29188,0.29188)" font-size="40" xml:space="preserve" fill="#f1f1f1" fill-rule="nonzero" stroke="#f1f1f1" stroke-width="2" stroke-linecap="butt" stroke-linejoin="miter" stroke-miterlimit="10" stroke-dasharray="" stroke-dashoffset="0" font-family="Sans Serif" font-weight="normal" text-anchor="start" style="mix-blend-mode: normal"><tspan x="0" dy="0">确认离开？</tspan></text></g></g></svg>