<svg version="1.1" xmlns="http://www.w3.org/2000/svg" xmlns:xlink="http://www.w3.org/1999/xlink" width="320.95283" height="320.95283" viewBox="0,0,320.95283,320.95283"><defs><radialGradient cx="225.98665" cy="155.54572" r="6.92204" gradientUnits="userSpaceOnUse" id="color-1"><stop offset="0" stop-color="#ffce00"/><stop offset="1" stop-color="#ff8c00"/></radialGradient><radialGradient cx="235.26457" cy="159.33608" r="5.74317" gradientUnits="userSpaceOnUse" id="color-2"><stop offset="0" stop-color="#ffce00"/><stop offset="1" stop-color="#ff8c00"/></radialGradient><radialGradient cx="236.73546" cy="167.3694" r="6.49642" gradientUnits="userSpaceOnUse" id="color-3"><stop offset="0" stop-color="#ffce00"/><stop offset="1" stop-color="#ff8c00"/></radialGradient><radialGradient cx="230.17303" cy="173.70556" r="6.8561" gradientUnits="userSpaceOnUse" id="color-4"><stop offset="0" stop-color="#ffce00"/><stop offset="1" stop-color="#ff8c00"/></radialGradient><radialGradient cx="222.366" cy="172.12152" r="6.07368" gradientUnits="userSpaceOnUse" id="color-5"><stop offset="0" stop-color="#ffce00"/><stop offset="1" stop-color="#ff8c00"/></radialGradient><radialGradient cx="219.0464" cy="163.00197" r="7.0236" gradientUnits="userSpaceOnUse" id="color-6"><stop offset="0" stop-color="#ffce00"/><stop offset="1" stop-color="#ff8c00"/></radialGradient><radialGradient cx="227.96226" cy="164.85809" r="8.96545" gradientUnits="userSpaceOnUse" id="color-7"><stop offset="0" stop-color="#ff8e00"/><stop offset="1" stop-color="#ff8e00" stop-opacity="0"/></radialGradient><radialGradient cx="256.34362" cy="163.47178" r="5.98631" gradientUnits="userSpaceOnUse" id="color-8"><stop offset="0" stop-color="#ffce00"/><stop offset="1" stop-color="#ff8c00"/></radialGradient><radialGradient cx="264.36733" cy="166.74976" r="4.9668" gradientUnits="userSpaceOnUse" id="color-9"><stop offset="0" stop-color="#ffce00"/><stop offset="1" stop-color="#ff8c00"/></radialGradient><radialGradient cx="265.63938" cy="173.69712" r="5.61822" gradientUnits="userSpaceOnUse" id="color-10"><stop offset="0" stop-color="#ffce00"/><stop offset="1" stop-color="#ff8c00"/></radialGradient><radialGradient cx="259.96408" cy="179.17673" r="5.92928" gradientUnits="userSpaceOnUse" id="color-11"><stop offset="0" stop-color="#ffce00"/><stop offset="1" stop-color="#ff8c00"/></radialGradient><radialGradient cx="253.21242" cy="177.80683" r="5.25263" gradientUnits="userSpaceOnUse" id="color-12"><stop offset="0" stop-color="#ffce00"/><stop offset="1" stop-color="#ff8c00"/></radialGradient><radialGradient cx="250.34157" cy="169.92007" r="6.07413" gradientUnits="userSpaceOnUse" id="color-13"><stop offset="0" stop-color="#ffce00"/><stop offset="1" stop-color="#ff8c00"/></radialGradient><radialGradient cx="258.05217" cy="171.52528" r="7.75348" gradientUnits="userSpaceOnUse" id="color-14"><stop offset="0" stop-color="#ff8e00"/><stop offset="1" stop-color="#ff8e00" stop-opacity="0"/></radialGradient><radialGradient cx="236.97444" cy="181.01477" r="5.71093" gradientUnits="userSpaceOnUse" id="color-15"><stop offset="0" stop-color="#ffce00"/><stop offset="1" stop-color="#ff8c00"/></radialGradient><radialGradient cx="244.62905" cy="184.14196" r="4.73832" gradientUnits="userSpaceOnUse" id="color-16"><stop offset="0" stop-color="#ffce00"/><stop offset="1" stop-color="#ff8c00"/></radialGradient><radialGradient cx="245.84259" cy="190.76973" r="5.35978" gradientUnits="userSpaceOnUse" id="color-17"><stop offset="0" stop-color="#ffce00"/><stop offset="1" stop-color="#ff8c00"/></radialGradient><radialGradient cx="240.42835" cy="195.99728" r="5.65652" gradientUnits="userSpaceOnUse" id="color-18"><stop offset="0" stop-color="#ffce00"/><stop offset="1" stop-color="#ff8c00"/></radialGradient><radialGradient cx="233.98727" cy="194.69039" r="5.011" gradientUnits="userSpaceOnUse" id="color-19"><stop offset="0" stop-color="#ffce00"/><stop offset="1" stop-color="#ff8c00"/></radialGradient><radialGradient cx="231.24849" cy="187.16644" r="5.79472" gradientUnits="userSpaceOnUse" id="color-20"><stop offset="0" stop-color="#ffce00"/><stop offset="1" stop-color="#ff8c00"/></radialGradient><radialGradient cx="238.60438" cy="188.6978" r="7.39682" gradientUnits="userSpaceOnUse" id="color-21"><stop offset="0" stop-color="#ff8e00"/><stop offset="1" stop-color="#ff8e00" stop-opacity="0"/></radialGradient></defs><g transform="translate(-79.52358,-19.52359)"><g data-paper-data="{&quot;isPaintingLayer&quot;:true}" fill-rule="nonzero" stroke="none" stroke-width="0" stroke-linecap="butt" stroke-linejoin="miter" stroke-miterlimit="10" stroke-dasharray="" stroke-dashoffset="0" style="mix-blend-mode: normal"><path d="M221.58337,158.68166c-0.64929,-3.77515 3.53468,-7.70003 3.53468,-7.70003c0,0 5.23671,2.19585 5.886,5.971c0.64929,3.77515 -3.5049,7.87309 -3.5049,7.87309c0,0 -5.26646,-2.36891 -5.91576,-6.14407z" data-paper-data="{&quot;index&quot;:null}" fill="url(#color-1)"/><path d="M230.75903,157.03051c3.13052,-2.20754 8.4718,-0.11443 8.4718,-0.11443c0,0 0.26571,5.67223 -2.86481,7.87977c-3.13052,2.20754 -8.6153,0.21564 -8.6153,0.21564c0,0 -0.12221,-5.77342 3.00832,-7.98096z" data-paper-data="{&quot;index&quot;:null}" fill="url(#color-2)"/><path d="M237.00656,162.93475c3.54302,1.45614 4.6444,7.08619 4.6444,7.08619c0,0 -4.64299,3.26916 -8.18601,1.81302c-3.54302,-1.45614 -4.80683,-7.15291 -4.80683,-7.15291c0,0 4.80541,-3.20242 8.34844,-1.74627z" data-paper-data="{&quot;index&quot;:null}" fill="url(#color-3)"/><path d="M234.47476,170.89133c0.83177,3.73918 -3.15677,7.86253 -3.15677,7.86253c0,0 -5.33711,-1.93909 -6.16888,-5.67828c-0.83177,-3.73918 3.11863,-8.03392 3.11863,-8.03392c0,0 5.37524,2.11049 6.20701,5.84969z" data-paper-data="{&quot;index&quot;:null}" fill="url(#color-4)"/><path d="M227.23444,173.65764c-1.92378,3.31247 -7.65123,3.63913 -7.65123,3.63913c0,0 -2.60839,-5.04392 -0.68462,-8.35638c1.92378,-3.31247 7.7394,-3.79099 7.7394,-3.79099c0,0 2.52021,5.19576 0.59643,8.50824z" data-paper-data="{&quot;index&quot;:null}" fill="url(#color-5)"/><path d="M220.26632,168.21515c-3.82597,-0.18775 -6.74636,-5.12554 -6.74636,-5.12554c0,0 3.28276,-4.63339 7.10873,-4.44564c3.82597,0.18775 6.92174,5.13412 6.92174,5.13412c0,0 -3.45814,4.62478 -7.28413,4.43703z" data-paper-data="{&quot;index&quot;:null}" fill="url(#color-6)"/><path d="M218.99681,164.85809c0,-4.95148 4.01397,-8.96545 8.96546,-8.96545c4.95148,0 8.96545,4.01397 8.96545,8.96545c0,4.95148 -4.01397,8.96545 -8.96545,8.96545c-4.95148,0 -8.96546,-4.01397 -8.96546,-8.96545z" fill="url(#color-7)"/><path d="M224.76635,164.92562c0,-1.80236 1.46109,-3.26346 3.26345,-3.26346c1.80236,0 3.26346,1.4611 3.26346,3.26346c0,1.80236 -1.4611,3.26345 -3.26346,3.26345c-1.80236,0 -3.26345,-1.46109 -3.26345,-3.26345z" fill="#816700"/><path d="M225.35729,164.95938c0,-1.49464 1.21164,-2.70628 2.70628,-2.70628c1.49464,0 2.70628,1.21164 2.70628,2.70628c0,1.49464 -1.21164,2.70628 -2.70628,2.70628c-1.49464,0 -2.70628,-1.21164 -2.70628,-2.70628z" fill="#ffc900"/><path d="M252.53559,166.18378c-0.56152,-3.26482 3.05685,-6.65913 3.05685,-6.65913c0,0 4.5288,1.89901 5.09032,5.16383c0.56152,3.26482 -3.0311,6.80878 -3.0311,6.80878c0,0 -4.55453,-2.04867 -5.11605,-5.3135z" data-paper-data="{&quot;index&quot;:null}" fill="url(#color-8)"/><path d="M260.47086,164.75585c2.70733,-1.90912 7.32656,-0.09896 7.32656,-0.09896c0,0 0.22979,4.90544 -2.47754,6.81456c-2.70733,1.90912 -7.45066,0.18649 -7.45066,0.18649c0,0 -0.10569,-4.99296 2.60165,-6.90207z" data-paper-data="{&quot;index&quot;:null}" fill="url(#color-9)"/><path d="M265.87383,169.86195c3.06407,1.2593 4.01656,6.12826 4.01656,6.12826c0,0 -4.01534,2.82723 -7.07941,1.56793c-3.06407,-1.2593 -4.15703,-6.18597 -4.15703,-6.18597c0,0 4.1558,-2.7695 7.21987,-1.5102z" data-paper-data="{&quot;index&quot;:null}" fill="url(#color-10)"/><path d="M263.68429,176.74294c0.71933,3.23371 -2.73003,6.79965 -2.73003,6.79965c0,0 -4.61563,-1.67696 -5.33496,-4.91067c-0.71933,-3.23371 2.69705,-6.94788 2.69705,-6.94788c0,0 4.6486,1.82519 5.36793,5.05891z" data-paper-data="{&quot;index&quot;:null}" fill="url(#color-11)"/><path d="M257.42273,179.13529c-1.66371,2.86468 -6.61691,3.14718 -6.61691,3.14718c0,0 -2.25578,-4.36207 -0.59207,-7.22675c1.66371,-2.86468 6.69317,-3.27851 6.69317,-3.27851c0,0 2.17952,4.49338 0.5158,7.35807z" data-paper-data="{&quot;index&quot;:null}" fill="url(#color-12)"/><path d="M251.39658,174.42853c-3.30877,-0.16237 -5.83437,-4.43265 -5.83437,-4.43265c0,0 2.83899,-4.00704 6.14776,-3.84467c3.30877,0.16237 5.98605,4.44008 5.98605,4.44008c0,0 -2.99066,3.99959 -6.29944,3.83722z" data-paper-data="{&quot;index&quot;:null}" fill="url(#color-13)"/><path d="M250.29868,171.52528c0,-4.28213 3.47135,-7.75348 7.75348,-7.75348c4.28213,0 7.75348,3.47135 7.75348,7.75348c0,4.28213 -3.47135,7.75348 -7.75348,7.75348c-4.28213,0 -7.75348,-3.47135 -7.75348,-7.75348z" fill="url(#color-14)"/><path d="M255.28828,171.58369c0,-1.55871 1.26358,-2.8223 2.82229,-2.8223c1.55871,0 2.8223,1.26359 2.8223,2.8223c0,1.55871 -1.26359,2.82229 -2.8223,2.82229c-1.55871,0 -2.82229,-1.26358 -2.82229,-2.82229z" fill="#816700"/><path d="M255.79934,171.61289c0,-1.29259 1.04785,-2.34044 2.34044,-2.34044c1.29259,0 2.34044,1.04785 2.34044,2.34044c0,1.29259 -1.04785,2.34044 -2.34044,2.34044c-1.29259,0 -2.34044,-1.04785 -2.34044,-2.34044z" fill="#ffc900"/><path d="M233.34157,183.60203c-0.53569,-3.11463 2.91624,-6.3528 2.91624,-6.3528c0,0 4.32047,1.81166 4.85616,4.92629c0.53569,3.11463 -2.89167,6.49557 -2.89167,6.49557c0,0 -4.34502,-1.95443 -4.88071,-5.06907z" data-paper-data="{&quot;index&quot;:null}" fill="url(#color-15)"/><path d="M240.91182,182.23977c2.58279,-1.82129 6.98954,-0.09441 6.98954,-0.09441c0,0 0.21922,4.67979 -2.36357,6.50109c-2.58279,1.82129 -7.10793,0.17791 -7.10793,0.17791c0,0 -0.10082,-4.76328 2.48198,-6.58458z" data-paper-data="{&quot;index&quot;:null}" fill="url(#color-16)"/><path d="M246.06625,187.11098c2.92312,1.20137 3.8318,5.84636 3.8318,5.84636c0,0 -3.83063,2.69718 -6.75375,1.4958c-2.92312,-1.20137 -3.96581,-5.90141 -3.96581,-5.90141c0,0 3.96463,-2.64211 6.88776,-1.44073z" data-paper-data="{&quot;index&quot;:null}" fill="url(#color-17)"/><path d="M243.97742,193.67544c0.68624,3.08496 -2.60445,6.48686 -2.60445,6.48686c0,0 -4.40331,-1.59981 -5.08955,-4.68478c-0.68624,-3.08496 2.57298,-6.62827 2.57298,-6.62827c0,0 4.43476,1.74123 5.121,4.8262z" data-paper-data="{&quot;index&quot;:null}" fill="url(#color-18)"/><path d="M238.0039,195.95774c-1.58718,2.7329 -6.31253,3.00241 -6.31253,3.00241c0,0 -2.15201,-4.16141 -0.56483,-6.89432c1.58718,-2.7329 6.38528,-3.1277 6.38528,-3.1277c0,0 2.07926,4.28668 0.49207,7.01959z" data-paper-data="{&quot;index&quot;:null}" fill="url(#color-19)"/><path d="M232.25496,191.4675c-3.15656,-0.1549 -5.56599,-4.22875 -5.56599,-4.22875c0,0 2.70839,-3.82271 5.86496,-3.66781c3.15656,0.1549 5.71068,4.23583 5.71068,4.23583c0,0 -2.85308,3.81561 -6.00966,3.66071z" data-paper-data="{&quot;index&quot;:null}" fill="url(#color-20)"/><path d="M231.20756,188.6978c0,-4.08515 3.31167,-7.39682 7.39682,-7.39682c4.08515,0 7.39682,3.31167 7.39682,7.39682c0,4.08515 -3.31167,7.39682 -7.39682,7.39682c-4.08515,0 -7.39682,-3.31167 -7.39682,-7.39682z" fill="url(#color-21)"/><path d="M235.96764,188.75352c0,-1.48701 1.20545,-2.69247 2.69246,-2.69247c1.48701,0 2.69247,1.20546 2.69247,2.69247c0,1.48701 -1.20546,2.69246 -2.69247,2.69246c-1.48701,0 -2.69246,-1.20545 -2.69246,-2.69246z" fill="#816700"/><path d="M236.45519,188.78138c0,-1.23313 0.99965,-2.23278 2.23278,-2.23278c1.23313,0 2.23278,0.99965 2.23278,2.23278c0,1.23313 -0.99965,2.23278 -2.23278,2.23278c-1.23313,0 -2.23278,-0.99965 -2.23278,-2.23278z" fill="#ffc900"/><path d="M79.52359,340.47643v-320.95283h320.95283v320.95283z" fill="none"/></g></g></svg>