<svg version="1.1" xmlns="http://www.w3.org/2000/svg" xmlns:xlink="http://www.w3.org/1999/xlink" width="157.52799" height="35.20515" viewBox="0,0,157.52799,35.20515"><g transform="translate(-161.18035,-66.06484)"><g data-paper-data="{&quot;isPaintingLayer&quot;:true}" fill-rule="nonzero" stroke-linejoin="miter" stroke-miterlimit="10" stroke-dasharray="" stroke-dashoffset="0" style="mix-blend-mode: normal"><path d="M161.49794,84.55816c0,-35.32158 -0.31759,17.15871 -0.31759,-2.20282c0,-8.1817 7.99801,-16.2905 15.44621,-16.2905c13.64824,0 96.55949,0 123.07497,0c0.49171,0 0.97659,0 1.4543,0c10.51084,0 17.55251,7.71262 17.55251,15.5884c0,14.95439 0,-34.94027 0,1.96878c0,10.80729 -8.98072,17.64797 -17.08445,17.64797c-14.32264,0 -97.69918,0 -123.27554,0c-10.11234,0 -16.85041,-6.44289 -16.85041,-16.71184z" fill-opacity="0.10196" fill="#ffffff" stroke="#000000" stroke-width="0" stroke-linecap="butt"/><g stroke="none" stroke-width="0" stroke-linecap="butt"><path d="M266.96863,90.67572v-14.14802h25.53148v14.14802z" fill="#ffffff"/><path d="M266.96428,84.4988v-8.07167h12.61884v8.07167z" fill="#0a4bd4"/><path d="M268.27811,83.76986l0.24625,-0.72384l-0.53265,-0.54389l0.73934,-0.00712l0.26481,-0.71413l0.26346,0.71213l0.78339,-0.01162l-0.52811,0.51654l0.23107,0.79122l-0.75474,-0.45987z" fill="#ffffff"/><path d="M272.36748,83.76986l0.24625,-0.72384l-0.53265,-0.54389l0.73934,-0.00712l0.26481,-0.71413l0.26346,0.71213l0.78339,-0.01162l-0.5281,0.51654l0.23106,0.79122l-0.75474,-0.45987z" fill="#ffffff"/><path d="M276.5358,83.76986l0.24625,-0.72384l-0.53265,-0.54389l0.73934,-0.00712l0.26481,-0.71413l0.26347,0.71213l0.78339,-0.01162l-0.5281,0.51654l0.23107,0.79122l-0.75474,-0.45987z" fill="#ffffff"/><path d="M279.55878,84.45934v-1.54994h12.99769v1.54994z" fill="#ff1f1f"/><path d="M279.55878,78.04596v-1.54993h12.99769v1.54993z" fill="#ff1f1f"/><path d="M279.55878,81.20706v-1.54993h12.99769v1.54993z" fill="#ff1f1f"/><path d="M266.96057,87.56634v-1.54993h25.59589v1.54993z" fill="#ff1f1f"/><path d="M266.96057,90.72344v-1.54993h25.59589v1.54993z" fill="#ff1f1f"/><path d="M268.27811,79.18391l0.24625,-0.72384l-0.53265,-0.54389l0.73934,-0.00712l0.26481,-0.71413l0.26346,0.71213l0.78339,-0.01162l-0.52811,0.51654l0.23107,0.79123l-0.75474,-0.45987z" fill="#ffffff"/><path d="M272.36748,79.18391l0.24625,-0.72384l-0.53265,-0.54389l0.73934,-0.00712l0.26481,-0.71413l0.26346,0.71213l0.78339,-0.01162l-0.5281,0.51654l0.23106,0.79123l-0.75474,-0.45987z" fill="#ffffff"/><path d="M276.5358,79.18391l0.24625,-0.72384l-0.53265,-0.54389l0.73934,-0.00712l0.26481,-0.71413l0.26347,0.71213l0.78339,-0.01162l-0.5281,0.51654l0.23107,0.79123l-0.75474,-0.45987z" fill="#ffffff"/><path d="M270.15356,81.60868l0.24625,-0.72384l-0.53265,-0.54389l0.73934,-0.00712l0.26481,-0.71413l0.26347,0.71213l0.78339,-0.01162l-0.5281,0.51654l0.23106,0.79122l-0.75474,-0.45987z" fill="#ffffff"/><path d="M274.32189,81.60868l0.24625,-0.72384l-0.53265,-0.54389l0.73934,-0.00712l0.26481,-0.71413l0.26347,0.71213l0.78339,-0.01162l-0.5281,0.51654l0.23106,0.79122l-0.75474,-0.45987z" fill="#ffffff"/></g><text transform="translate(220.86627,89.80735) scale(0.43574,0.43574)" font-size="40" xml:space="preserve" fill="#ffffff" fill-rule="nonzero" stroke="#ffffff" stroke-width="3" stroke-linecap="butt" stroke-linejoin="miter" stroke-miterlimit="10" stroke-dasharray="" stroke-dashoffset="0" font-family="Sans Serif" font-weight="normal" text-anchor="start" style="mix-blend-mode: normal"><tspan x="0" dy="0">美国</tspan></text><g fill="none" stroke="#ffffff" stroke-width="1.5" stroke-linecap="round"><g><path d=""/><path d="M206.18303,77.00577l1.05291,-2.81428"/></g><path d="M188.32697,77.58162c0,0 8.94857,-2.82674 10.92858,-2.98587c1.25786,-0.1011 11.15694,1.32926 12.35701,2.73781c0.44996,0.52814 -0.94597,4.36889 -3.4738,4.51754c-1.11946,0.06583 -3.07739,-1.93824 -5.13248,-0.63003c-1.88364,1.19907 1.71852,8.55396 0.12149,10.75875c-1.56301,2.15779 -4.97473,1.42234 -8.25561,0.71805c-2.6637,-0.5718 -5.35999,-0.77896 -5.959,-2.15625c-1.61638,-3.71654 6.43325,-0.99476 7.42794,-2.62667c0.41359,-0.67854 -0.56252,-2.54382 -1.81271,-4.20189c-0.67067,-0.88947 -1.00633,-2.00695 -2.17641,-2.20484c-1.60011,-0.2706 -3.73796,1.82112 -5.536,2.44383c-1.92726,0.66747 -3.92542,-1.3214 -3.4306,-3.2523c0.43105,-1.68204 4.94159,-3.21911 4.94159,-3.21911"/></g></g></g></svg>