<svg version="1.1" xmlns="http://www.w3.org/2000/svg" xmlns:xlink="http://www.w3.org/1999/xlink" width="482.29271" height="409.30376" viewBox="0,0,482.29271,409.30376"><defs><radialGradient cx="188.87558" cy="151.40198" r="37.81284" gradientUnits="userSpaceOnUse" id="color-1"><stop offset="0" stop-color="#a6ff47"/><stop offset="1" stop-color="#abff51"/></radialGradient></defs><g transform="translate(1.14634,24.65178)"><g data-paper-data="{&quot;isPaintingLayer&quot;:true}" fill-rule="nonzero" stroke="none" stroke-width="0" stroke-linecap="butt" stroke-linejoin="miter" stroke-miterlimit="10" stroke-dasharray="" stroke-dashoffset="0" style="mix-blend-mode: normal"><g data-paper-data="{&quot;index&quot;:null}"><path d="M299.51185,254.95707c0,0 1.14917,13.60187 -0.19996,15.58528c-0.22481,0.33054 -2.4236,-0.88847 -2.4236,-0.88847l-1.7125,-10.65113l-6.06639,12.1238l-2.12784,0.84719c0,0 -0.04016,-2.59628 -0.06268,-4.05167c-0.02633,-1.70013 -0.08555,-5.52938 -0.08555,-5.52938c0,0 -10.9032,7.98131 -11.66226,7.71416c-0.833,-0.29318 10.06622,-9.11729 8.64051,-10.31718c-1.02826,-0.86543 -16.44601,10.73035 -16.44601,10.73035l-0.83207,-2.46735c0,0 10.98095,-8.84702 9.28212,-10.62837c-0.95105,-0.99725 -15.91693,6.68231 -15.91693,6.68231c0,0 -0.3992,-0.76521 -1.05964,-1.28346c-1.53859,-1.2074 16.86551,-12.17124 15.62234,-13.82282c-0.49354,-0.65568 -20.77839,11.45165 -20.77839,11.45165l-1.89416,-2.74939c0,0 16.84381,-12.03772 16.0501,-13.14567c-1.17651,-1.64237 -19.24003,6.8903 -19.24003,6.8903c0,0 -0.90172,-1.22846 -1.2946,-1.44354c-1.65393,-0.9053 15.00366,-10.98043 14.54975,-12.54775c-0.36942,-1.27571 -20.83556,10.91504 -20.83556,10.91504l-0.40623,-4.27789c0,0 14.62192,-11.40386 14.23991,-12.42045c-0.33634,-0.89505 -21.05785,3.69673 -21.31169,3.01601c-1.11728,-2.99579 21.27433,-14.76905 21.27433,-14.76905l-24.25886,2.67005c0,0 -0.58667,-1.8014 -0.74048,-2.43503c-0.67791,-2.79301 16.03521,-9.73586 15.78624,-12.8539c-0.10877,-1.36198 -18.5246,1.27788 -18.7015,-0.07242c-0.09851,-0.75185 -0.26504,-3.5085 -0.26504,-3.5085c0,0 19.05409,-5.8635 19.15911,-8.00623c0.06328,-1.29095 -25.66388,1.89275 -25.66388,1.89275c0,0 -0.3544,-3.0546 -0.40981,-3.65516c-0.12936,-1.40178 20.92427,-9.43798 21.1889,-10.85109c0.44171,-2.35858 -12.43411,1.69539 -12.68572,-0.15404c-0.37124,-2.72857 14.37524,-10.89506 14.37524,-10.89506c0,0 21.79568,-2.78358 20.86012,0.50908c-0.58995,2.0764 -13.40239,10.44391 -11.10562,10.87459c2.40812,0.45157 20.62803,-11.10076 21.56277,-9.24019c1.05055,2.09113 -14.47293,15.75926 -12.45088,17.32306c1.67703,1.297 15.76372,-8.88638 17.05913,-7.16455c1.18759,1.57858 -13.6095,14.8766 -12.04523,16.2028c1.24933,1.05923 13.23615,-6.41551 18.93137,-8.54716c1.76188,-0.65949 1.95649,0.71491 2.27736,1.06708c1.57131,1.72452 -10.4276,12.41365 -8.7786,13.82498c2.01109,1.72131 19.50578,-10.29807 20.73288,-8.54059c0.35798,0.51272 -18.02443,17.1719 -14.27304,17.19547c3.46441,0.02182 22.01639,-10.18331 21.72972,-6.78106c-0.2525,2.99625 -18.17255,18.43712 -16.71035,20.25539c1.86496,2.31929 19.51885,-7.42185 19.86903,-4.63077c0.29899,2.38285 -16.29111,11.78576 -15.54805,13.44766c1.75115,3.91663 21.70896,-4.76663 21.40845,-2.79378c-0.11404,0.7488 -20.13074,10.77555 -20.13074,10.77555l20.34699,-4.64132l-1.19515,1.78475l-13.47164,5.97438l15.76043,5.88045z" fill="#9bf937"/><path d="M303.31226,260.25667c0,0 -1.4481,-0.63035 -3.44834,-1.94435c-9.49697,-6.23872 -29.18347,-29.0734 -37.67193,-42.02504c-8.46324,-12.91318 -21.0528,-44.37084 -21.0528,-44.37084l4.90484,-0.66701c0,0 11.70079,31.15164 20.57954,43.93053c19.99792,28.78239 37.13281,42.37365 37.13281,42.37365z" fill="#7bc834"/></g><g data-paper-data="{&quot;index&quot;:null}"><path d="M259.78269,53.95792c0,0 6.373,-7.90144 8.0444,-7.73351c0.27853,0.02797 0.73273,2.56022 0.73273,2.56022l-4.59288,6.89464l9.14965,-0.87129l1.47303,1.42219c0,0 -1.30416,1.3523 -2.03519,2.1103c-0.85399,0.88549 -2.77742,2.87992 -2.77742,2.87992c0,0 9.40391,5.44031 9.6391,6.23655c0.25806,0.87376 -9.5736,-4.13551 -9.48787,-2.2858c0.06181,1.33406 13.51737,8.8699 13.51737,8.8699l-0.85094,1.97608c0,0 -9.88333,-5.06879 -9.96044,-2.68636c-0.04316,1.33376 11.19457,10.46326 11.19457,10.46326c0,0 -0.19484,0.73566 -0.13598,1.57348c0.13715,1.95175 -14.45734,-8.50389 -14.69125,-6.58392c-0.09283,0.76223 16.00484,12.27468 16.00484,12.27468l-0.47508,3.04364c0,0 -14.37865,-8.55279 -14.55527,-7.29983c-0.26182,1.85729 12.92649,13.25005 12.92649,13.25005c0,0 -0.18518,1.40811 -0.10262,1.85916c0.3476,1.89891 -12.93921,-7.48758 -13.51632,-6.2973c-0.46974,0.96881 15.7592,12.59665 15.7592,12.59665l-1.98241,2.52411c0,0 -12.96836,-6.9405 -13.29984,-6.09224c-0.29183,0.74687 12.18748,16.45259 11.96466,17.01891c-0.98083,2.49245 -17.93892,-11.02317 -17.93892,-11.02317l13.23012,19.75956c0,0 -0.63146,1.42459 -0.87932,1.87997c-1.09247,2.00716 -12.8094,-9.0169 -14.27732,-7.2182c-0.6412,0.78575 9.71481,15.47493 9.11284,16.31403c-0.33517,0.46723 -1.65921,2.01085 -1.65921,2.01085c0,0 -12.31197,-13.60921 -13.45581,-12.61343c-0.68916,0.59998 13.52125,21.37684 13.52125,21.37684c0,0 -1.38408,1.85834 -1.66319,2.21127c-0.65146,0.82386 -11.73034,-8.85958 -12.5803,-8.37295c-1.10085,0.63029 -12.34393,2.48821 -12.34393,2.48821l-6.99813,-8.48718c0,0 -8.57789,-11.02728 -6.44126,-11.88368c1.34732,-0.54005 17.93992,5.40601 17.0358,3.18847c-0.94793,-2.32509 -15.75233,-12.32182 -15.26101,-14.07942c0.55224,-1.97531 15.11618,4.60098 14.92426,2.04762c-0.1592,-2.11774 -12.24342,-9.21158 -11.99926,-11.2127c0.22382,-1.83459 14.24372,4.2973 14.15459,2.26299c-0.07119,-1.62478 -9.74694,-8.26535 -13.62023,-12.14075c-1.19826,-1.19889 -0.5927,-2.06562 -0.57013,-2.52357c0.11053,-2.24264 11.43112,2.77754 11.34398,0.62625c-0.10631,-2.62378 -14.79403,-11.75234 -14.49827,-13.71212c0.08626,-0.57178 17.57403,6.97538 15.75069,3.69832c-1.68383,-3.02639 -15.96384,-13.99574 -14.08885,-15.47241c1.65123,-1.30052 18.29157,6.46236 18.50338,4.26722c0.27008,-2.79999 -13.33397,-13.22302 -12.08211,-14.94397c1.06867,-1.46921 13.97974,8.19956 14.46356,6.70958c1.14026,-3.51132 -13.05163,-16.4764 -11.89864,-17.21581c0.43761,-0.28064 15.34322,12.05402 15.34322,12.05402l-12.32135,-15.3546l1.49472,0.13469l9.63728,8.6941l-4.71257,-16.70103z" fill="#9bf937"/><path d="M260.62549,47.9612c0,0 0.38706,1.58022 0.69574,3.98787c1.46546,11.43129 -0.54568,40.15164 -2.99637,54.11115c-1.01526,5.78305 -3.31441,13.81056 -5.65524,21.21893c-3.29285,10.42135 -6.66817,19.61754 -6.66817,19.61754l-2.86543,-0.6565c0,0 10.2844,-29.2638 12.45604,-43.47527c4.89135,-32.00908 3.43791,-53.81877 3.43791,-53.81877z" fill="#79c433"/></g><g data-paper-data="{&quot;index&quot;:null}"><path d="M145.52439,142.63689c0,0 -11.52184,-7.25801 -12.7117,-9.01813c-0.19831,-0.29331 1.51174,-0.61259 1.51174,-0.61259l9.28498,5.30751l-7.97779,-9.75016l-0.00668,-1.46974c0,0 2.14131,1.46828 3.34168,2.29137c1.4022,0.96148 4.56047,3.12707 4.56047,3.12707c0,0 -3.01842,-9.61571 -2.55407,-9.81396c0.50962,-0.21755 4.22024,9.87905 5.66472,9.90655c1.04181,0.01988 -3.48037,-13.75474 -3.48037,-13.75474l2.2916,1.02803c0,0 3.70301,10.14748 5.71245,10.38162c1.12491,0.13106 -0.33294,-11.19164 -0.33294,-11.19164c0,0 0.75636,0.25355 1.39463,0.24475c1.4871,-0.0204 4.52593,14.77403 6.2817,15.14468c0.69702,0.14712 -2.67122,-16.17236 -2.67122,-16.17236l2.86613,0.69813c0,0 4.42349,14.68748 5.58832,14.95475c1.72663,0.39621 0.57072,-12.84832 0.57072,-12.84832c0,0 1.29853,0.28632 1.60186,0.22769c1.27677,-0.2468 4.15159,13.23059 5.58316,13.91817c1.16518,0.55969 -2.21285,-15.89154 -2.21285,-15.89154l3.63822,2.26193c0,0 4.6221,13.29643 5.57894,13.70186c0.84244,0.35698 3.77631,-11.86046 4.41639,-11.58809c2.81699,1.19872 5.23046,18.30171 5.23046,18.30171l5.65264,-12.75362c0,0 1.66636,0.76024 2.23549,1.0519c2.50874,1.28585 2.79789,12.99509 5.43445,14.66561c1.15164,0.72968 4.94037,-9.3031 6.1045,-8.61166c0.64818,0.38502 2.96184,1.88665 2.96184,1.88665c0,0 -1.35235,12.17424 0.37024,13.44995c1.03782,0.76862 6.744,-12.95857 6.744,-12.95857c0,0 2.61863,1.58537 3.12883,1.90366c1.19093,0.74294 0.97332,15.08664 2.04621,16.01838c1.79073,1.55513 2.62941,-6.72418 4.22687,-5.78141c2.35681,1.39087 4.28469,12.89089 4.28469,12.89089c0,0 -4.76341,11.67893 -7.16021,9.36034c-1.5115,-1.46213 -4.22934,-12.18238 -5.3248,-11.36633c-1.14859,0.85564 2.43221,15.90187 0.60479,15.26882c-2.05383,-0.71151 -8.24066,-15.72184 -10.17621,-15.6818c-1.60531,0.0332 2.18928,12.38297 0.35903,11.99626c-1.67797,-0.35458 -7.79619,-14.81684 -9.38902,-14.85255c-1.27213,-0.02855 0.98076,9.79842 0.88724,13.65436c-0.02892,1.19291 -1.21849,0.49584 -1.61089,0.44259c-1.9216,-0.26058 -6.80568,-11.93405 -8.49567,-11.97932c-2.06116,-0.05524 2.13691,14.92292 0.29958,14.4842c-0.536,-0.12801 -8.2507,-18.17407 -9.48266,-16.45183c-1.13774,1.59049 1.23133,16.01885 -1.46506,13.93775c-2.37464,-1.83277 -9.24001,-18.96719 -11.20325,-19.33198c-2.50411,-0.46535 -0.22511,13.28177 -2.62636,11.84533c-2.05002,-1.22628 -4.39563,-14.28746 -5.9982,-14.89542c-3.77677,-1.4328 -3.10971,12.77444 -4.62989,11.5056c-0.577,-0.48158 -2.32638,-15.48554 -2.32638,-15.48554l-2.7722,12.07255l-1.07676,-1.57512l-0.54298,-9.65475l-9.91504,3.9246z" fill="url(#color-1)"/><path d="M139.95148,141.36023c0,0 0.98481,-0.30903 2.70857,-0.48201c8.18413,-0.82133 33.2668,3.14712 46.62797,6.63693c13.32147,3.47942 43.17897,15.66996 43.17897,15.66996l-1.03865,2.65146c0,0 -29.31933,-12.42654 -42.66501,-15.63676c-30.05904,-7.23057 -46.7395,-7.08597 -46.7395,-7.08597z" fill="#82d337"/></g><path d="M-1.14634,384.65198v-409.30375h482.29271v409.30375z" fill="none"/><path d="M-1.14634,384.65199v-409.30375h482.29271v409.30375z" fill="none"/></g></g></svg>