<svg version="1.1" xmlns="http://www.w3.org/2000/svg" xmlns:xlink="http://www.w3.org/1999/xlink" width="35.55757" height="35.55757" viewBox="0,0,35.55757,35.55757"><defs><radialGradient cx="240.00002" cy="180" r="17.77878" gradientUnits="userSpaceOnUse" id="color-1"><stop offset="0" stop-color="#ffd92d"/><stop offset="1" stop-color="#ffd117"/></radialGradient></defs><g transform="translate(-222.22121,-162.22121)"><g data-paper-data="{&quot;isPaintingLayer&quot;:true}" fill-rule="nonzero" stroke-linejoin="miter" stroke-miterlimit="10" stroke-dasharray="" stroke-dashoffset="0" style="mix-blend-mode: normal"><path d="" fill="none" stroke="#000000" stroke-width="5.5" stroke-linecap="round"/><path d="" fill="none" stroke="#000000" stroke-width="5.5" stroke-linecap="round"/><path d="" data-paper-data="{&quot;index&quot;:null}" fill="none" stroke="#9f8200" stroke-width="2.5" stroke-linecap="round"/><path d="M222.22122,180c0,-9.81896 7.95983,-17.77878 17.77878,-17.77878c9.81896,0 17.77879,7.95983 17.77879,17.77878c0,9.81895 -7.95983,17.77879 -17.77879,17.77879c-9.81895,0 -17.77878,-7.95984 -17.77878,-17.77879z" fill="url(#color-1)" stroke="#f1f1f1" stroke-width="0" stroke-linecap="butt"/><path d="M235.47476,171.98909v4.14494" fill="none" stroke="#9f8200" stroke-width="4" stroke-linecap="round"/><path d="M244.16147,172.01667c0,0 0,1.94724 0,2.7081c0,0.55421 0,1.43684 0,1.43684" fill="none" stroke="#9f8200" stroke-width="4" stroke-linecap="round"/><path d="M245.24276,187.34862c0,3.42007 -2.34297,6.19258 -5.23317,6.19258c-2.8902,0 -5.23317,-2.77251 -5.23317,-6.19258c0,-3.42007 2.34297,-6.19258 5.23317,-6.19258c2.8902,0 5.23317,2.77251 5.23317,6.19258z" fill="#9f8200" stroke="none" stroke-width="NaN" stroke-linecap="butt"/></g></g></svg>