<svg version="1.1" xmlns="http://www.w3.org/2000/svg" xmlns:xlink="http://www.w3.org/1999/xlink" width="482.29271" height="462.94236" viewBox="0,0,482.29271,462.94236"><defs><linearGradient x1="829.36703" y1="8180.66634" x2="829.36703" y2="-4116.46928" gradientUnits="userSpaceOnUse" id="color-1"><stop offset="0" stop-color="#6b6b6b"/><stop offset="1" stop-color="#6b6b6b" stop-opacity="0"/></linearGradient><radialGradient cx="267.25001" cy="244.1639" r="80.35539" gradientUnits="userSpaceOnUse" id="color-2"><stop offset="0" stop-color="#8aed2d"/><stop offset="1" stop-color="#91eb31"/></radialGradient><radialGradient cx="174.05093" cy="194.59836" r="80.59278" gradientUnits="userSpaceOnUse" id="color-3"><stop offset="0" stop-color="#97f73d"/><stop offset="1" stop-color="#9af13e"/></radialGradient><radialGradient cx="215.75002" cy="100.6639" r="71.83746" gradientUnits="userSpaceOnUse" id="color-4"><stop offset="0" stop-color="#84e32b"/><stop offset="1" stop-color="#8be02f"/></radialGradient><radialGradient cx="297.75001" cy="130.66389" r="77.65555" gradientUnits="userSpaceOnUse" id="color-5"><stop offset="0" stop-color="#a2fe4d"/><stop offset="1" stop-color="#9cf73a"/></radialGradient><radialGradient cx="240.68183" cy="167.34632" r="71.36363" gradientUnits="userSpaceOnUse" id="color-6"><stop offset="0" stop-color="#75b332"/><stop offset="1" stop-color="#75b332" stop-opacity="0"/></radialGradient></defs><g transform="translate(1.14633,24.65176)"><g data-paper-data="{&quot;isPaintingLayer&quot;:true}" fill-rule="nonzero" stroke="none" stroke-width="0" stroke-linecap="butt" stroke-linejoin="miter" stroke-miterlimit="10" stroke-dasharray="" stroke-dashoffset="0" style="mix-blend-mode: normal"><path d="M286.49384,136.82314c0,0 12.99537,-25.97869 31.79341,-20.56813c8.99185,2.5881 24.52901,13.36076 29.35238,24.74527c2.3232,5.48337 48.94292,5.35974 57.69654,15.46985c5.67982,6.55998 4.26125,22.12545 -4.43738,30.34741c-8.69862,8.22196 -46.28454,21.75606 -55.45883,26.26666c-3.0278,1.48864 -5.29657,5.31845 -4.006,6.8466c10.27962,12.17192 55.23384,66.95967 35.06474,79.98236c-7.8798,5.08779 -57.02367,7.59418 -59.71196,12.298c-3.35198,5.86511 6.70026,52.88872 -2.96917,59.2787c-19.32479,12.77067 -59.5562,-11.30728 -69.80037,-18.18464c-13.4064,-9.0003 -6.2813,-28.64208 -6.2813,-28.64208l-23.89649,-16.18656c0,0 -57.71536,1.67417 -60.00078,-12.31526c-2.28542,-13.98944 10.5266,-78.72291 10.5266,-78.72291c0,0 14.08599,-20.82459 18.41781,-35.81888c6.4729,-22.40545 36.29829,-23.4933 36.29829,-23.4933c0,0 11.33151,-43.75309 26.58083,-46.63432c20.38504,-3.85155 40.8316,25.33116 40.8316,25.33116z" fill="url(#color-1)"/><path d="M202.31689,321.18906l15.18128,-15.31678l-16.76067,-0.28855l-1.9185,-1.55184l23.80718,-4.89446c0,0 -25.2991,-1.82726 -25.68118,-2.67896c-1.00663,-2.24405 23.76608,-2.0204 24.33035,-7.69152c0.23942,-2.40636 -21.10459,-5.24986 -21.59784,-8.30311c-0.57776,-3.57636 22.04384,-0.87253 23.28185,-4.65967c0.97062,-2.96917 -23.90211,-12.46795 -25.20837,-15.98167c-1.48323,-3.98987 22.27833,-1.18694 26.05258,-3.00804c4.08685,-1.97192 -21.70966,-12.71317 -21.49523,-13.52225c0.73502,-2.77344 23.96644,2.78405 25.5697,-0.35147c1.31454,-2.57084 -15.46021,-9.35706 -14.33813,-12.26869c0.22916,-0.59458 -0.0312,-2.36714 2.11892,-2.47772c6.95011,-0.35733 22.60599,2.52528 23.60541,0.58977c1.25133,-2.42342 -19.47529,-10.93352 -18.72191,-13.46882c0.82181,-2.76539 19.70157,2.32415 21.08612,-0.12214c1.66929,-2.94958 -19.97752,-11.53356 -19.55005,-14.62129c0.38032,-2.74739 24.2428,1.86631 26.71618,0.06961c2.35898,-1.71362 -21.43542,-13.41324 -22.79363,-15.63325c-2.15381,-3.52047 16.65289,2.61347 16.65289,2.61347l19.39718,-17.39055c0,0 16.94497,1.70383 18.39959,11.27972c0.3615,2.37991 -20.57233,10.1554 -19.27885,12.79543c0.77495,1.58174 26.52121,0.45057 26.86218,2.22265c0.14606,0.75923 0.80995,4.65827 0.80995,4.65827c0,0 -29.17872,9.45433 -28.66564,10.99187c0.85164,2.55189 23.66792,-0.18617 23.66792,-0.18617c0,0 0.76645,3.43938 0.9175,4.4049c0.27137,1.73414 -20.73928,8.06269 -20.38956,9.77567c0.80069,3.92161 21.43278,3.70899 21.65355,7.45744c0.05007,0.85042 0.02932,3.34544 0.02932,3.34544l-27.39925,9.3186c0,0 28.49231,2.72142 28.30314,6.94413c-0.04298,0.95949 -24.24192,6.1082 -24.3012,7.37113c-0.06731,1.43445 19.81655,7.73128 19.81655,7.73128l1.02803,5.41387c0,0 -26.53405,-4.22664 -26.49852,-2.48358c0.04369,2.14161 21.69259,5.76763 20.19858,7.72559c-0.35488,0.46511 -0.91662,2.42642 -0.91662,2.42642c0,0 -22.65313,-1.0217 -23.37244,1.58549c-0.48528,1.75888 22.04202,7.67575 22.04202,7.67575l-1.12197,4.32538c0,0 -26.30742,-4.21908 -26.62066,-3.16589c-0.78891,2.65288 23.07222,6.45533 21.808,8.72096c-0.54268,0.9725 -0.71519,2.11006 -0.71519,2.11006c0,0 -18.97828,-1.58867 -19.67342,0.11704c-1.2417,3.0468 13.78822,8.11964 13.78822,8.11964l-0.05958,3.43222c0,0 -20.81855,-6.11799 -21.64334,-4.53267c-1.14354,2.19802 13.78922,7.2854 12.98079,8.07348c-0.73671,0.71819 -15.38398,-3.34197 -15.38398,-3.34197c0,0 1.25249,4.68841 1.80855,6.76997c0.47602,1.78187 1.32526,4.96072 1.32526,4.96072l-2.61412,0.07177l-10.79232,-11.60439l1.79436,13.8427c0,0 -1.98083,2.62168 -2.33999,2.33611c-2.15498,-1.71368 -5.57922,-18.85368 -5.57922,-18.85368z" fill="url(#color-2)"/><g><path d="M86.08533,210.11768l22.62019,2.6541l-10.67076,-14.12615l0.04163,-2.60561l19.56811,16.61214c0,0 -14.94936,-22.22849 -14.48982,-23.10066c1.21087,-2.29793 17.15119,18.4489 22.23471,15.22642c2.15703,-1.36737 -9.37265,-20.96831 -7.15463,-23.36611c2.59805,-2.80861 15.07549,17.7639 19.03087,16.3281c3.10098,-1.12566 -5.19116,-27.99348 -3.11939,-31.36712c2.35247,-3.83078 15.48965,17.75422 19.46098,19.70743c4.30029,2.11499 -3.55999,-26.32988 -2.74757,-26.67825c2.78486,-1.19415 13.28628,21.74309 16.93746,21.03521c2.99367,-0.58039 -2.28276,-18.94808 0.86901,-19.91032c0.64367,-0.19649 1.94823,-1.5669 3.43984,0.14923c4.82152,5.54716 12.61583,20.44333 14.87607,20.01446c2.8299,-0.53694 -3.58544,-23.31334 -0.98663,-24.33714c2.8347,-1.11681 10.89231,17.897 13.82804,17.45594c3.53958,-0.53184 -3.41334,-24.12154 -0.56732,-25.7761c2.53232,-1.47215 14.22935,21.37555 17.33362,22.26279c2.96072,0.84619 -2.79924,-26.55757 -1.83723,-29.13227c1.52557,-4.08286 8.66718,15.55005 8.66718,15.55005l27.08918,4.81014c0,0 9.61383,15.20074 2.59728,22.64405c-1.74382,1.84989 -21.83737,-10.49732 -23.19085,-7.70308c-0.8109,1.67415 16.88984,22.34864 15.63811,23.78578c-0.53624,0.61569 -3.34667,3.70594 -3.34667,3.70594c0,0 -26.85685,-18.11085 -27.8015,-16.68327c-1.56778,2.36947 15.56201,19.56131 15.56201,19.56131c0,0 -2.36133,2.87628 -3.06591,3.63047c-1.26545,1.35453 -20.20568,-11.99844 -21.40258,-10.59249c-2.74006,3.21873 10.86773,20.23822 7.89418,22.86195c-0.67462,0.59523 -2.76305,2.20219 -2.76305,2.20219l-25.58559,-16.71939c0,0 16.28453,25.46609 12.64972,28.05763c-0.82591,0.58884 -20.86047,-16.18362 -21.94932,-15.41072c-1.23672,0.87781 6.47064,21.51252 6.47064,21.51252l-3.83307,4.37921c0,0 -13.75791,-24.81744 -15.18432,-23.6532c-1.75255,1.43045 9.32481,21.79439 6.724,21.82653c-0.6178,0.00763 -2.61452,0.81729 -2.61452,0.81729c0,0 -13.89688,-19.50366 -16.53333,-18.40469c-1.77859,0.74141 7.96553,23.32705 7.96553,23.32705l-4.32744,1.88267c0,0 -13.61676,-24.62406 -14.69651,-24.19894c-2.71972,1.07089 9.65106,23.38933 6.94395,23.81287c-1.16202,0.18177 -2.2203,0.77882 -2.2203,0.77882c0,0 -11.03321,-16.81667 -12.90415,-16.28441c-3.34204,0.95075 2.22336,16.75204 2.22336,16.75204l-2.89305,2.18472c0,0 -8.46448,-21.29562 -10.31976,-20.94949c-2.57236,0.47989 2.9178,16.20983 1.73613,16.05057c-1.07682,-0.14513 -7.23532,-14.96901 -7.23532,-14.96901c0,0 -3.08363,4.09359 -4.45263,5.91112c-1.17193,1.55582 -3.2627,4.33136 -3.2627,4.33136l-1.76141,-2.12725l2.62485,-16.52916l-10.34363,10.50342c0,0 -3.46974,0.05934 -3.46599,-0.42518c0.02228,-2.90765 12.04698,-16.91301 12.04698,-16.91301z" fill="url(#color-3)"/><path d="M99.54224,220.40256c0,0 30.26215,-4.87288 75.75683,-24.4862c20.19881,-8.70794 55.5348,-33.04162 55.5348,-33.04162l7.62761,0.95005c0,0 -39.14595,26.72392 -58.97641,35.81371c-19.8895,9.11687 -60.34424,22.49705 -76.09764,23.80284c-3.31794,0.27501 -5.46729,0.12824 -5.46729,0.12824z" fill="#82d237"/></g><g data-paper-data="{&quot;index&quot;:null}"><path d="M134.34446,59.82445c0,0 -6.74142,-16.12633 -5.9124,-18.75187c0.13815,-0.43755 3.24611,0.62913 3.24611,0.62913l6.24981,12.48114l2.4623,-15.65483l2.20775,-1.40172c0,0 1.07271,3.11053 1.67403,4.85412c0.70248,2.03689 2.28457,6.6245 2.28457,6.6245c0,0 9.87582,-11.55402 10.88814,-11.37031c1.11088,0.20159 -8.42753,12.76694 -6.25062,13.9503c1.57001,0.85352 15.41272,-15.85648 15.41272,-15.85648l1.96793,2.81266c0,0 -9.62702,12.60762 -6.89434,14.43992c1.52985,1.02575 16.37836,-10.89981 16.37836,-10.89981c0,0 0.77894,0.84678 1.77249,1.34983c2.31471,1.17199 -15.34516,17.66263 -13.20813,19.42134c0.84843,0.6982 20.3039,-17.50531 20.3039,-17.50531l3.34808,2.95942c0,0 -15.37202,17.49833 -13.98648,18.6855c2.05377,1.75976 20.26636,-11.74988 20.26636,-11.74988c0,0 1.56215,1.31236 2.11634,1.49959c2.33324,0.78838 -13.59085,15.89624 -12.43001,17.69641c0.94482,1.46523 20.58394,-16.87125 20.58394,-16.87125l2.17374,5.06374c0,0 -12.96771,16.33578 -12.11008,17.48754c0.75507,1.01407 23.69852,-8.24318 24.27047,-7.47164c2.51725,3.39569 -19.58704,21.57861 -19.58704,21.57861l27.92792,-7.58855c0,0 1.41188,2.05723 1.84573,2.79043c1.91222,3.23162 -15.3145,14.58804 -13.78635,18.28735c0.66752,1.61587 21.62675,-4.88092 22.37104,-3.29132c0.41445,0.88507 1.70142,4.16536 1.70142,4.16536c0,0 -20.44949,10.48325 -19.72919,13.07531c0.43398,1.56169 29.91332,-6.90895 29.91332,-6.90895c0,0 1.62906,3.60414 1.93227,4.3153c0.70781,1.66002 -21.27293,15.11349 -21.03135,16.85818c0.40319,2.9121 22.10752,-2.34197 23.13807,-0.16653c4.14654,8.75333 -8.95164,19.63783 -8.95164,19.63783l-25.80467,-3.57758c0,0 -12.16561,15.59865 -12.34751,11.47557c-0.1147,-2.60004 13.07555,-25.60154 10.16162,-25.70392c-3.05525,-0.1073 -20.26273,17.05679 -22.11385,14.99129c-2.0804,-2.32133 11.07068,-21.53909 8.03777,-23.0517c-2.51548,-1.25461 -15.32546,13.5189 -17.55257,11.68525c-2.04187,-1.68108 10.38749,-20.32319 7.99526,-21.6332c-1.91064,-1.04632 -13.28102,10.09518 -19.24367,13.68379c-1.84461,1.11018 -2.61957,-0.5051 -3.14196,-0.87006c-2.55787,-1.78709 7.55824,-16.79069 5.03121,-18.18761c-3.08203,-1.70377 -19.2388,15.89014 -21.39854,14.00131c-0.63006,-0.55101 14.75604,-23.87701 10.265,-23.22766c-4.14748,0.59963 -22.28349,16.20584 -23.28384,12.06839c-0.88097,-3.64373 14.43364,-25.42311 11.96918,-27.34249c-3.14349,-2.44829 -20.38961,12.43857 -21.90967,9.15012c-1.2977,-2.80744 14.81109,-17.0959 13.26746,-18.9574c-3.63792,-4.38701 -24.0541,9.64568 -24.47377,7.22224c-0.15925,-0.91978 19.79698,-16.57643 19.79698,-16.57643l-22.47646,9.24911l0.72335,-2.3591l13.73639,-9.60797l-21.14973,-4.21456z" fill="url(#color-4)"/><path d="M127.71246,54.14683c0,0 1.97883,0.49536 4.88713,1.71198c13.80828,5.77625 46.34011,29.64125 61.59304,43.66097c15.20766,13.97809 42.66419,49.48002 42.66419,49.48002l-7.14789,-1.37159c0,0 -24.72269,-32.23642 -40.37364,-45.97815c-35.25132,-30.95109 -61.08652,-44.17698 -61.08652,-44.17698z" fill="#6bad2d"/></g><g data-paper-data="{&quot;index&quot;:null}"><path d="M256.81728,162.8629c0,0 -16.61191,-3.19884 -18.28501,-5.27308c-0.27883,-0.34567 2.24528,-2.28046 2.24528,-2.28046l13.40966,1.64355l-11.30387,-10.36726l0.05183,-2.53055c0,0 3.08233,0.80052 4.81014,1.24926c2.01842,0.52421 6.56451,1.70488 6.56451,1.70488c0,0 -4.02815,-14.14902 -3.33799,-14.86686c0.7573,-0.78773 5.78153,13.63067 7.90121,12.50905c1.52879,-0.8089 -4.53255,-20.91694 -4.53255,-20.91694l3.32145,-0.0808c0,0 5.01086,14.51246 7.95129,13.29021c1.64618,-0.6843 -0.01912,-19.04161 -0.01912,-19.04161c0,0 1.09974,-0.17468 2.03736,-0.7064c2.18424,-1.23877 6.02499,21.82952 8.58727,21.04812c1.01719,-0.31026 -3.24318,-25.74344 -3.24318,-25.74344l4.17879,-1.11505c0,0 5.87816,21.76315 7.57717,21.28166c2.51853,-0.71373 1.37727,-22.63161 1.37727,-22.63161c0,0 1.89451,-0.55688 2.34227,-0.90349c1.88495,-1.45919 5.54006,19.4693 7.61307,19.49716c1.68729,0.02269 -2.58204,-25.62975 -2.58204,-25.62975l5.24669,0.95854c0,0 6.22817,19.20215 7.616,19.12739c1.22188,-0.06585 6.04229,-23.52138 6.97063,-23.5694c4.08568,-0.2115 6.91123,27.34635 6.91123,27.34635l8.8346,-26.58096c0,0 2.41463,-0.03688 3.23807,0.00586c3.62948,0.18846 3.56245,20.15859 7.36332,20.90716c1.66026,0.32696 7.64403,-20.05069 9.32422,-19.79973c0.9355,0.13973 4.26945,0.85834 4.26945,0.85834c0,0 -2.49661,22.10107 -0.02099,22.90816c1.4915,0.48622 10.44554,-27.81786 10.44554,-27.81786c0,0 3.77818,0.61628 4.51396,0.75255c1.71743,0.31811 0.79583,25.24408 2.33195,25.98351c2.56386,1.23409 9.94847,-19.07896 12.25433,-18.74508c9.27778,1.34344 11.04077,17.73205 11.04077,17.73205l-16.70086,18.89044c0,0 6.06322,18.16081 2.6415,16.09988c-2.1578,-1.29958 -13.64128,-24.25025 -15.28395,-21.95553c-1.72235,2.4059 2.90354,25.47014 0.2471,25.85667c-2.98558,0.4345 -11.43921,-20.45857 -14.28271,-18.82306c-2.35839,1.35646 2.69457,19.59497 0.02363,20.40891c-2.44869,0.74622 -10.82463,-19.25668 -13.16169,-18.02935c-1.8666,0.9803 1.02868,16.11337 0.72957,22.84248c-0.09253,2.08175 -1.80978,1.84168 -2.38378,2.06749c-2.81043,1.1056 -9.49128,-15.08411 -11.97064,-13.79462c-3.02387,1.57278 2.51115,24.01986 -0.16818,24.74989c-0.7817,0.21297 -11.35102,-24.68176 -13.23205,-20.71306c-1.73713,3.66512 1.13545,26.64382 -2.73602,25.23512c-3.40953,-1.24059 -12.77028,-25.24966 -15.63735,-24.29029c-3.65709,1.22364 -0.888,23.09972 -4.35324,22.5646c-2.95843,-0.45685 -5.854,-21.09549 -8.18143,-20.84751c-5.485,0.58426 -5.10186,24.55897 -7.28054,23.59978c-0.82691,-0.36408 -2.76563,-24.83738 -2.76563,-24.83738l-4.57694,23.07457l-1.51483,-1.84638l-0.39204,-16.2198l-14.72214,14.7962z" fill="url(#color-5)"/><path d="M248.68862,165.17028c0,0 1.4589,-1.33031 3.99702,-3.02375c12.05056,-8.0407 48.7107,-21.49288 68.18136,-26.28467c19.41278,-4.77754 62.73829,-7.9069 62.73829,-7.9069l-4.93299,5.0288c0,0 -39.2288,2.67351 -58.68838,7.9351c-43.82967,11.85085 -68.32619,25.60001 -68.32619,25.60001z" fill="#6aac2d"/></g><path d="M169.3182,167.34632c0,-1.97255 0.08003,-3.9264 0.23702,-5.85849c0.35521,-4.37164 29.43776,-7.67948 30.54542,-11.79274c2.27781,-8.45858 -24.69471,-13.03608 -22.86231,-20.04885c4.1147,-15.74735 28.45251,-31.37088 50.99589,-34.76506c3.48863,-0.52525 30.68679,25.14913 33.87619,25.14913c11.06843,0 24.3258,-15.99307 31.16298,-14.49374c17.50901,3.83955 24.24827,32.27467 24.24827,60.61928c0,12.17764 -24.04916,9.23272 -30.14972,19.4203c-5.7451,9.59397 7.99389,31.48154 2.84218,40.92742c-7.08303,12.98702 -33.76496,12.20639 -49.53229,12.20639c-11.82576,0 -20.59873,-3.59073 -30.41934,-8.68214c-22.90965,-11.87731 -40.9443,-35.0942 -40.9443,-62.68149z" fill="url(#color-6)"/><path d="M218.17853,317.42355c0,0 14.02929,-25.40792 25.95847,-70.77659c5.29636,-20.14293 7.77683,-60.6922 7.77683,-60.6922l5.1602,-5.13276c0,0 -2.92201,44.78517 -7.71867,64.87626c-4.8109,20.15091 -18.44603,58.12382 -26.66692,70.63188c-1.7315,2.63446 -3.09541,4.15135 -3.09541,4.15135z" fill="#6aac2d"/><path d="M214.92874,164.75171c0,-13.97117 11.32586,-25.2971 25.2971,-25.2971c13.97117,0 25.2971,11.32586 25.2971,25.2971c0,13.97117 -11.32586,25.2971 -25.2971,25.2971c-13.97117,0 -25.2971,-11.32586 -25.2971,-25.2971z" fill="#433f33"/><path d="M216.80016,164.75171c0,-12.93769 10.48799,-23.42569 23.42569,-23.42569c12.93769,0 23.42569,10.48799 23.42569,23.42569c0,12.93769 -10.48799,23.42569 -23.42569,23.42569c-12.93769,0 -23.42569,-10.48799 -23.42569,-23.42569z" fill="#615b4a"/><path d="M218.67156,164.75171c0,-11.90409 9.65019,-21.55428 21.55428,-21.55428c11.90409,0 21.55428,9.65019 21.55428,21.55428c0,11.90409 -9.65019,21.55428 -21.55428,21.55428c-11.90409,0 -21.55428,-9.65019 -21.55428,-21.55428z" fill="#433f33"/><path d="M220.69936,164.75171c0,-10.78417 8.7423,-19.52653 19.52653,-19.52653c10.78417,0 19.52653,8.7423 19.52653,19.52653c0,10.78417 -8.7423,19.52653 -19.52653,19.52653c-10.78417,0 -19.52653,-8.7423 -19.52653,-19.52653z" fill="#615b4a"/><path d="M-1.14633,438.29058v-462.94235h482.29271v462.94235z" fill="none"/><path d="M-1.14633,438.29059v-462.94235h482.29271v462.94235z" fill="none"/></g></g></svg>