<svg version="1.1" xmlns="http://www.w3.org/2000/svg" xmlns:xlink="http://www.w3.org/1999/xlink" width="472.87786" height="360.53869" viewBox="0,0,472.87786,360.53869"><defs><linearGradient x1="136.80473" y1="129.3063" x2="136.80473" y2="158.46377" gradientUnits="userSpaceOnUse" id="color-1"><stop offset="0" stop-color="#0331a6"/><stop offset="1" stop-color="#043dcc"/></linearGradient><linearGradient x1="187.76035" y1="141.46423" x2="187.76035" y2="144.51267" gradientUnits="userSpaceOnUse" id="color-2"><stop offset="0" stop-color="#000000"/><stop offset="1" stop-color="#666666"/></linearGradient><linearGradient x1="257.59483" y1="128.7325" x2="257.59483" y2="136.8019" gradientUnits="userSpaceOnUse" id="color-3"><stop offset="0" stop-color="#23221f"/><stop offset="1" stop-color="#1e201c"/></linearGradient><linearGradient x1="257.59483" y1="128.7325" x2="257.59483" y2="136.8019" gradientUnits="userSpaceOnUse" id="color-4"><stop offset="0" stop-color="#23221f"/><stop offset="1" stop-color="#1e201c"/></linearGradient><linearGradient x1="313.44684" y1="160.4721" x2="333.87576" y2="160.4721" gradientUnits="userSpaceOnUse" id="color-5"><stop offset="0" stop-color="#314a8e"/><stop offset="1" stop-color="#000000"/></linearGradient><linearGradient x1="210.91312" y1="140.20897" x2="210.91312" y2="145.22994" gradientUnits="userSpaceOnUse" id="color-6"><stop offset="0" stop-color="#000000"/><stop offset="1" stop-color="#666666"/></linearGradient><linearGradient x1="240.35694" y1="211.89553" x2="240.35694" y2="230.69376" gradientUnits="userSpaceOnUse" id="color-7"><stop offset="0" stop-color="#043dce"/><stop offset="1" stop-color="#0331a6"/></linearGradient><linearGradient x1="187.76035" y1="218.53587" x2="187.76035" y2="215.48743" gradientUnits="userSpaceOnUse" id="color-8"><stop offset="0" stop-color="#000000"/><stop offset="1" stop-color="#666666"/></linearGradient><linearGradient x1="257.59483" y1="231.26753" x2="257.59483" y2="223.1982" gradientUnits="userSpaceOnUse" id="color-9"><stop offset="0" stop-color="#23221f"/><stop offset="1" stop-color="#1e201c"/></linearGradient><linearGradient x1="257.59483" y1="231.26753" x2="257.59483" y2="223.1982" gradientUnits="userSpaceOnUse" id="color-10"><stop offset="0" stop-color="#23221f"/><stop offset="1" stop-color="#1e201c"/></linearGradient><linearGradient x1="313.44684" y1="199.52796" x2="333.83689" y2="199.52796" gradientUnits="userSpaceOnUse" id="color-11"><stop offset="0" stop-color="#314a8e"/><stop offset="1" stop-color="#000000"/></linearGradient><linearGradient x1="210.91312" y1="219.79113" x2="210.91312" y2="214.77015" gradientUnits="userSpaceOnUse" id="color-12"><stop offset="0" stop-color="#000000"/><stop offset="1" stop-color="#666666"/></linearGradient><linearGradient x1="279.37698" y1="178.39932" x2="335.17499" y2="178.39932" gradientUnits="userSpaceOnUse" id="color-13"><stop offset="0" stop-color="#3c69dd"/><stop offset="1" stop-color="#3c69dd" stop-opacity="0"/></linearGradient><linearGradient x1="256.24589" y1="141.82287" x2="295.54724" y2="141.82287" gradientUnits="userSpaceOnUse" id="color-14"><stop offset="0" stop-color="#666666"/><stop offset="1" stop-color="#000000"/></linearGradient><linearGradient x1="256.24589" y1="218.17723" x2="295.74175" y2="218.17723" gradientUnits="userSpaceOnUse" id="color-15"><stop offset="0" stop-color="#666666"/><stop offset="1" stop-color="#000000"/></linearGradient><linearGradient x1="164.18988" y1="179.98687" x2="132.78276" y2="179.98687" gradientUnits="userSpaceOnUse" id="color-16"><stop offset="0" stop-color="#3c69dd"/><stop offset="1" stop-color="#3c69dd" stop-opacity="0"/></linearGradient><linearGradient x1="151.76652" y1="150.25087" x2="193.98627" y2="150.25087" gradientUnits="userSpaceOnUse" id="color-17"><stop offset="0" stop-color="#000000"/><stop offset="1" stop-color="#666666"/></linearGradient><linearGradient x1="151.76652" y1="209.74916" x2="193.98627" y2="209.74916" gradientUnits="userSpaceOnUse" id="color-18"><stop offset="0" stop-color="#000000"/><stop offset="1" stop-color="#666666"/></linearGradient><linearGradient x1="242.65326" y1="221.31675" x2="242.65326" y2="231.41202" gradientUnits="userSpaceOnUse" id="color-19"><stop offset="0" stop-color="#021952" stop-opacity="0"/><stop offset="1" stop-color="#021952"/></linearGradient><linearGradient x1="247.54393" y1="137.88195" x2="247.54393" y2="127.78669" gradientUnits="userSpaceOnUse" id="color-20"><stop offset="0" stop-color="#021952" stop-opacity="0"/><stop offset="1" stop-color="#021952"/></linearGradient><linearGradient x1="136.22865" y1="180.30659" x2="147.09025" y2="180.30659" gradientUnits="userSpaceOnUse" id="color-21"><stop offset="0" stop-color="#010c28"/><stop offset="1" stop-color="#010c28" stop-opacity="0"/></linearGradient><linearGradient x1="118.69999" y1="154.62729" x2="141.26907" y2="154.62729" gradientUnits="userSpaceOnUse" id="color-22"><stop offset="0" stop-color="#1e201c"/><stop offset="1" stop-color="#616161"/></linearGradient><linearGradient x1="118.69999" y1="205.37279" x2="141.26907" y2="205.37279" gradientUnits="userSpaceOnUse" id="color-23"><stop offset="0" stop-color="#1e201c"/><stop offset="1" stop-color="#616161"/></linearGradient></defs><g transform="translate(-4.42566,-1.09609)"><g data-paper-data="{&quot;isPaintingLayer&quot;:true}" fill-rule="nonzero" stroke-miterlimit="10" stroke-dasharray="" stroke-dashoffset="0" style="mix-blend-mode: normal"><path d="M189.12229,130.88437l159.15098,1.61385l6.61506,3.22775l2.91846,4.30369l3.50209,11.47647l2.14014,13.26965v15.24219h-49.41851z" fill="#121110" stroke="none" stroke-width="1.29078" stroke-linecap="round" stroke-linejoin="miter"/><path d="M155.85231,128.87598l28.54215,0.35864l9.54323,1.2552l3.93982,2.68984l78.00929,2.15181l6.39132,-0.71729l5.69095,-2.51046l5.42825,-2.33119l6.30377,-0.89656l34.05795,0.17933l4.02736,3.22775l4.11496,1.79317l5.42826,3.94504l4.46521,5.02097l3.93988,6.99347l2.27634,5.20024l-1.1382,4.48301l0.96312,4.30369l0.43773,6.63483l0.35024,9.50399l-223.69664,0.03584l1.83857,-43.78988l13.57065,-4.66233z" fill="#043ccb" stroke="none" stroke-width="2.24731" stroke-linecap="round" stroke-linejoin="miter"/><path d="M155.8912,129.3063l28.54215,0.35864l9.54323,1.25526l3.93988,2.68978l78.0093,2.15187l6.39131,-0.71729l5.6909,-2.51051l5.42825,-2.33113l6.30378,-0.89661l34.05795,0.17932l4.02743,3.22775l4.11497,1.79323l3.41455,3.33533l-170.46477,6.99347l-37.28317,4.30508l-0.80214,-12.30274l13.5706,-4.66227z" fill="url(#color-1)" stroke="none" stroke-width="2.24731" stroke-linecap="round" stroke-linejoin="miter"/><path d="M187.76035,141.82287l16.73228,-0.35865l-3.30752,3.04843l-12.64649,-0.89661z" fill="url(#color-2)" stroke="none" stroke-width="1.29078" stroke-linecap="round" stroke-linejoin="miter"/><path d="M191.457,152.94063l16.53771,1.79323l15.95402,-1.07594l12.84098,-1.43453l13.03562,-3.58639l5.83686,31.73959l-65.76171,-0.17932z" fill="#23221f" stroke="none" stroke-width="1.29078" stroke-linecap="round" stroke-linejoin="miter"/><path d="M257.59483,128.7325h4.38845v8.0694h-4.38845z" fill="url(#color-3)" stroke="url(#color-4)" stroke-width="2.34405" stroke-linecap="round" stroke-linejoin="round"/><path d="M347.49503,154.73387l3.50209,4.12436l-5.64224,-1.07593z" fill="#23221f" stroke="none" stroke-width="1.29078" stroke-linecap="round" stroke-linejoin="miter"/><g stroke="none" stroke-width="1.29078" stroke-linecap="round" stroke-linejoin="miter"><g><path d="M338.15612,137.87784l6.22593,1.61385l7.00419,10.22122l-22.37451,-6.63482l-7.00419,-5.73821l9.53345,-0.17932z" fill="#101110"/><path d="M338.35069,137.87784l6.22593,1.61385l7.00419,10.22122l-5.64224,-2.15181l-6.03142,-6.63482l-7.19875,-1.07593l8.17158,5.91753l-11.67367,-2.68978l-7.00419,-5.73821l9.53346,-0.17932z" fill="#2f2f2f"/></g><g fill="#7f7f7f"><path d="M325.50964,139.85034l4.28035,0.17932l0.77826,1.79323l-2.72389,-0.17932z"/><path d="M342.43647,141.82287l2.14014,0.53791l0.19456,2.68983l-2.52928,-1.07593z"/><path d="M338.35069,143.61605l2.14015,0.89661l0.97282,1.97249l-3.11296,-1.79317z"/></g></g><path d="M313.44684,160.4721l19.26155,3.76572l1.16738,15.60084l-20.42893,0.35864z" fill="url(#color-5)" stroke="none" stroke-width="1.29078" stroke-linecap="round" stroke-linejoin="miter"/><path d="M335.82136,157.42367l1.55651,12.01444" fill="none" stroke="#011f72" stroke-width="1.5" stroke-linecap="round" stroke-linejoin="miter"/><path d="M340.10171,169.43811l-1.36189,-11.47647" fill="none" stroke="#011f72" stroke-width="1.5" stroke-linecap="round" stroke-linejoin="miter"/><path d="M341.85278,159.93418l1.16732,9.50393" fill="none" stroke="#011f72" stroke-width="1.5" stroke-linecap="round" stroke-linejoin="miter"/><path d="M345.93856,169.25879l-1.75107,-8.96601" fill="none" stroke="#011f72" stroke-width="1.5" stroke-linecap="round" stroke-linejoin="miter"/><path d="M347.30046,162.08599l1.55651,7.35211" fill="none" stroke="#011f72" stroke-width="1.5" stroke-linecap="round" stroke-linejoin="miter"/><path d="M337.96156,179.65934v-6.99347" fill="none" stroke="#011f72" stroke-width="1.5" stroke-linecap="round" stroke-linejoin="miter"/><path d="M340.29627,179.65934v-6.99347" fill="none" stroke="#011f72" stroke-width="1.5" stroke-linecap="round" stroke-linejoin="miter"/><path d="M342.82554,179.5876v-6.99347" fill="none" stroke="#011f72" stroke-width="1.5" stroke-linecap="round" stroke-linejoin="miter"/><path d="M345.74401,179.73107v-6.99347" fill="none" stroke="#011f72" stroke-width="1.5" stroke-linecap="round" stroke-linejoin="miter"/><path d="M348.27328,180.08972v-6.99347" fill="none" stroke="#011f72" stroke-width="1.5" stroke-linecap="round" stroke-linejoin="miter"/><path d="M279.59322,140.02964l23.34734,2.8691l22.76363,5.02097c0,0 4.20983,1.27487 7.21582,2.18518c5.00734,1.51639 20.02275,6.06355 20.02275,6.06355" fill="none" stroke="#022da4" stroke-width="1" stroke-linecap="round" stroke-linejoin="miter"/><path d="M214.22064,140.20897h53.11522l-24.70928,5.02097l-31.71347,-0.53797z" fill="url(#color-6)" stroke="none" stroke-width="1.29078" stroke-linecap="round" stroke-linejoin="miter"/><path d="M314.03054,179.98213h49.41851v15.24214l-2.14014,13.2697l-3.50209,11.47648l-2.91846,4.30363l-6.61506,3.22775l-159.15098,1.61391z" fill="#121110" stroke="none" stroke-width="1.29078" stroke-linecap="round" stroke-linejoin="miter"/><path d="M150.33651,228.25502l-13.57064,-4.66233l-1.83857,-43.78988l223.6091,0.14342l-0.26269,9.39635l-0.43773,6.63488l-0.96312,4.30363l1.1382,4.48301l-2.27634,5.2003l-3.93988,6.99347l-4.46521,5.02092l-5.42826,3.94504l-4.11496,1.79323l-4.02736,3.22775l-34.05795,0.17933l-6.30377,-0.89661l-5.42825,-2.33114l-5.69095,-2.51051l-6.39132,-0.71723l-78.00929,2.15181l-3.93982,2.68978l-9.54323,1.25526l-28.54215,0.35864z" fill="#043ccb" stroke="none" stroke-width="2.24731" stroke-linecap="round" stroke-linejoin="miter"/><path d="M150.3754,227.82464l-13.5706,-4.66233l0.80214,-10.23085l37.28317,2.23319l170.46477,6.99347l-3.41455,3.33539l-4.11497,1.79317l-4.02743,3.22775l-34.05795,0.17933l-6.30378,-0.89661l-5.42825,-2.33114l-5.6909,-2.51046l-6.39131,-0.71729l-78.0093,2.15181l-3.93988,2.68983l-9.54323,1.25521l-28.54215,0.35864z" fill="url(#color-7)" stroke="none" stroke-width="2.24731" stroke-linecap="round" stroke-linejoin="miter"/><path d="M188.53861,216.38406l12.64649,-0.89661l3.30752,3.04843l-16.73227,-0.35864z" fill="url(#color-8)" stroke="none" stroke-width="1.29078" stroke-linecap="round" stroke-linejoin="miter"/><path d="M189.9005,179.8028l65.76171,-0.17933l-5.83686,31.7396l-13.03562,-3.5864l-12.84098,-1.43458l-15.95402,-1.07588l-16.53771,1.79317z" fill="#23221f" stroke="none" stroke-width="1.29078" stroke-linecap="round" stroke-linejoin="miter"/><path d="M257.59483,223.1982h4.38845v8.06935h-4.38845z" fill="url(#color-9)" stroke="url(#color-10)" stroke-width="2.34405" stroke-linecap="round" stroke-linejoin="round"/><path d="M345.35487,202.21773l5.64224,-1.07588l-3.50209,4.12437z" fill="#23221f" stroke="none" stroke-width="1.29078" stroke-linecap="round" stroke-linejoin="miter"/><g stroke="none" stroke-width="1.29078" stroke-linecap="round" stroke-linejoin="miter"><g><path d="M331.54101,222.83956l-9.53345,-0.17932l7.00419,-5.73827l22.37451,-6.63482l-7.00419,10.22122l-6.22593,1.61391z" fill="#101110"/><path d="M331.73557,222.83956l-9.53346,-0.17932l7.00419,-5.73827l11.67367,-2.68978l-8.17158,5.91753l7.19875,-1.07588l6.03142,-6.63482l5.64224,-2.15187l-7.00419,10.22122l-6.22593,1.61391z" fill="#2f2f2f"/></g><g fill="#7f7f7f"><path d="M327.84435,218.35653l2.72389,-0.17932l-0.77826,1.79323l-4.28035,0.17926z"/><path d="M342.24191,216.0254l2.52928,-1.07594l-0.19456,2.68978l-2.14014,0.53797z"/><path d="M338.35069,215.30811l3.11296,-1.79322l-0.97282,1.97254l-2.14015,0.89661z"/></g></g><path d="M313.44684,179.8028l20.38998,-0.21522l-1.12844,16.17465l-19.26155,3.76572z" fill="url(#color-11)" stroke="none" stroke-width="1.29078" stroke-linecap="round" stroke-linejoin="miter"/><path d="M335.82136,202.57639l1.55651,-12.01439" fill="none" stroke="#011f72" stroke-width="1.5" stroke-linecap="round" stroke-linejoin="miter"/><path d="M340.10171,190.56199l-1.36189,11.47642" fill="none" stroke="#011f72" stroke-width="1.5" stroke-linecap="round" stroke-linejoin="miter"/><path d="M341.85278,200.06593l1.16732,-9.50393" fill="none" stroke="#011f72" stroke-width="1.5" stroke-linecap="round" stroke-linejoin="miter"/><path d="M345.93856,190.74131l-1.75107,8.96596" fill="none" stroke="#011f72" stroke-width="1.5" stroke-linecap="round" stroke-linejoin="miter"/><path d="M348.85696,190.562l-1.55651,7.35211" fill="none" stroke="#011f72" stroke-width="1.5" stroke-linecap="round" stroke-linejoin="miter"/><path d="M337.96156,187.33425v-6.99353" fill="none" stroke="#011f72" stroke-width="1.5" stroke-linecap="round" stroke-linejoin="miter"/><path d="M340.29627,180.34072v6.99353" fill="none" stroke="#011f72" stroke-width="1.5" stroke-linecap="round" stroke-linejoin="miter"/><path d="M342.82554,187.40593v-6.99347" fill="none" stroke="#011f72" stroke-width="1.5" stroke-linecap="round" stroke-linejoin="miter"/><path d="M345.74401,180.26903v6.99347" fill="none" stroke="#011f72" stroke-width="1.5" stroke-linecap="round" stroke-linejoin="miter"/><path d="M348.27328,186.90386v-6.99347" fill="none" stroke="#011f72" stroke-width="1.5" stroke-linecap="round" stroke-linejoin="miter"/><path d="M352.94275,203.83163l-27.23856,8.24873l-22.76363,5.02092l-23.34734,2.86916" fill="none" stroke="#022da4" stroke-width="1" stroke-linecap="round" stroke-linejoin="miter"/><path d="M210.91312,215.30811l31.71347,-0.53797l24.70928,5.02098h-53.11522z" fill="url(#color-12)" stroke="none" stroke-width="1.29078" stroke-linecap="round" stroke-linejoin="miter"/><text transform="translate(223.45009,201.43719) rotate(-90.20149) scale(0.51678,0.51849) skewX(-0.03031)" font-size="22" xml:space="preserve" fill="#ffffff" fill-rule="nonzero" stroke="none" stroke-width="1" stroke-linecap="butt" stroke-linejoin="miter" stroke-miterlimit="10" stroke-dasharray="" stroke-dashoffset="0" font-family="Sans Serif" font-weight="400" text-anchor="start" style="mix-blend-mode: normal"><tspan x="0" dy="0">NISSAN</tspan></text><text transform="translate(154.95204,219.64108) rotate(0.73759) scale(0.26878,0.2291) skewX(-0.11146)" font-size="22" xml:space="preserve" fill="#ffffff" fill-rule="nonzero" stroke="none" stroke-width="1" stroke-linecap="butt" stroke-linejoin="miter" stroke-miterlimit="10" stroke-dasharray="" stroke-dashoffset="0" font-family="Sans Serif" font-weight="400" text-anchor="start" style="mix-blend-mode: normal"><tspan x="0" dy="0">NISSAN</tspan></text><text transform="translate(178.15441,138.02799) rotate(-179.26241) scale(0.26878,0.2291) skewX(-0.11146)" font-size="22" xml:space="preserve" fill="#ffffff" fill-rule="nonzero" stroke="none" stroke-width="1" stroke-linecap="butt" stroke-linejoin="miter" stroke-miterlimit="10" stroke-dasharray="" stroke-dashoffset="0" font-family="Sans Serif" font-weight="400" text-anchor="start" style="mix-blend-mode: normal"><tspan x="0" dy="0">NISSAN</tspan></text><text transform="translate(308.1609,192.94203) rotate(-90.20142) scale(0.34104,0.34217) skewX(-0.03072)" font-size="22" xml:space="preserve" fill="#ffffff" fill-rule="nonzero" stroke="none" stroke-width="1" stroke-linecap="butt" stroke-linejoin="miter" stroke-miterlimit="10" stroke-dasharray="" stroke-dashoffset="0" font-family="Sans Serif" font-weight="400" text-anchor="start" style="mix-blend-mode: normal"><tspan x="0" dy="0">NISSAN</tspan></text><path d="M278.85712,219.52492l-0.69315,-79.2167c0,0 12.97034,1.39192 25.58323,3.10863c9.38348,1.27715 16.9725,4.45674 19.13434,4.42073c0.15062,-0.00251 12.5938,0.936 13.28318,5.04624c2.94225,17.54221 -0.98974,55.62104 -0.98974,55.62104c0,0 -20.21971,5.70731 -26.60128,6.96497c-13.06119,2.57406 -29.71659,4.05509 -29.71659,4.05509z" fill="url(#color-13)" stroke="none" stroke-width="0" stroke-linecap="butt" stroke-linejoin="miter"/><path d="M241.84833,145.05064l26.65486,-5.55894l9.14438,0.35865l4.28035,2.51046l-32.29715,8.42804z" fill="#23221f" stroke="none" stroke-width="1.29078" stroke-linecap="round" stroke-linejoin="miter"/><path d="M256.24589,147.0231l24.90379,-5.20024l4.66948,2.8691l3.89122,5.37956l3.69665,7.71076l2.14021,6.4555v6.81414v9.3964l-36.57751,-0.07174z" fill="url(#color-14)" stroke="none" stroke-width="1.29078" stroke-linecap="round" stroke-linejoin="miter"/><path d="M249.63078,209.21127l32.29715,8.42799l-4.28035,2.51046l-9.14438,0.35864l-26.65486,-5.55889z" fill="#23221f" stroke="none" stroke-width="1.29078" stroke-linecap="round" stroke-linejoin="miter"/><path d="M247.49063,148.81634l10.50628,-2.3312l3.30753,10.40054l2.33477,12.91106l0.19456,10.57986h-9.53352l-0.19457,-10.04189l-2.72384,-11.83513z" fill="#000000" stroke="none" stroke-width="1.29078" stroke-linecap="round" stroke-linejoin="miter"/><path d="M258.96973,179.62349l36.77202,0.35864l-0.19451,8.96597v6.81414l-2.14021,6.4555l-3.69665,7.71076l-3.89122,5.37962l-4.66948,2.86911l-24.90379,-5.2003c0,0 1.07151,-13.12067 1.55264,-19.0121c0.41786,-5.11683 1.1712,-14.34134 1.1712,-14.34134z" fill="url(#color-15)" stroke="none" stroke-width="1.29078" stroke-linecap="round" stroke-linejoin="miter"/><path d="M251.38185,201.5005l2.72384,-11.83512l0.19457,-10.0419h9.53352l-0.19456,10.57987l-2.33477,12.911l-3.30753,10.40055l-10.50628,-2.33114z" fill="#000000" stroke="none" stroke-width="1.29078" stroke-linecap="round" stroke-linejoin="miter"/><text transform="translate(261.28901,187.68746) rotate(-90.20156) scale(0.22823,0.22899) skewX(-0.03027)" font-size="22" xml:space="preserve" fill="#ffffff" fill-rule="nonzero" stroke="none" stroke-width="1" stroke-linecap="butt" stroke-linejoin="miter" stroke-miterlimit="10" stroke-dasharray="" stroke-dashoffset="0" font-family="Sans Serif" font-weight="400" text-anchor="start" style="mix-blend-mode: normal"><tspan x="0" dy="0">NISSAN</tspan></text><path d="M132.78276,209.6954v-59.41706h31.40712v59.41706z" data-paper-data="{&quot;index&quot;:null}" fill="url(#color-16)" stroke="none" stroke-width="0" stroke-linecap="butt" stroke-linejoin="miter"/><path d="M174.72473,150.4302l19.26155,2.51046l-1.94558,10.04196l-1.75107,17.21469h-38.52309l1.16738,-17.39401l3.69667,-12.55241z" fill="url(#color-17)" stroke="none" stroke-width="1.29078" stroke-linecap="round" stroke-linejoin="miter"/><path d="M156.63057,209.74916l-3.69667,-12.55236l-1.16738,-17.39401h38.52309l1.75107,17.21469l1.94558,10.0419l-19.26155,2.51046z" fill="url(#color-18)" stroke="none" stroke-width="1.29078" stroke-linecap="round" stroke-linejoin="miter"/><path d="M137.26091,223.53278l0.26716,-2.21604c0,0 124.07826,-3.3193 162.15934,-3.05103c20.9221,0.14739 47.55674,4.52839 47.55674,4.52839l-12.82412,7.7492c0,0 -22.0068,0.73176 -39.01105,-0.25638c-4.25061,-0.24701 -11.3018,-4.14404 -15.76433,-4.28748c-30.64875,-0.98515 -65.54829,1.05878 -81.47339,1.03836c-3.20814,-0.00411 -4.91619,3.79983 -8.2079,3.98716c-16.57742,0.94341 -34.26879,0.14082 -34.26879,0.14082c0,0 -5.64673,-3.32716 -5.9723,-3.46632c-3.2339,-1.38229 -12.46135,-4.1667 -12.46135,-4.1667z" fill="url(#color-19)" stroke="none" stroke-width="0" stroke-linecap="butt" stroke-linejoin="miter"/><path d="M345.99027,136.89706c0,0 3.29834,3.02968 -0.33897,3.15921c-23.92365,0.85195 -122.08613,1.10958 -155.14152,0.87672c-14.0427,-0.09893 -42.53665,1.58832 -53.6076,0.27973c-5.42357,-0.64107 0.17347,-3.82321 0.17347,-3.82321l18.96867,-8.48789c0,0 15.32795,-0.2393 32.3322,0.74883c4.25061,0.24701 6.22588,3.15913 10.6884,3.30257c30.64875,0.98515 65.28113,1.6497 81.20623,1.67012c3.20814,0.00411 11.59505,-5.52341 14.88676,-5.71074c16.57742,-0.94342 39.07756,-0.14082 39.07756,-0.14082c0,0 3.77665,3.57339 4.10222,3.71255c3.2339,1.38229 7.65257,4.41292 7.65257,4.41292z" data-paper-data="{&quot;index&quot;:null}" fill="url(#color-20)" stroke="none" stroke-width="0" stroke-linecap="butt" stroke-linejoin="miter"/><path d="M136.22865,223.65306v-86.69294l10.64437,-4.00429v93.90067z" fill="url(#color-21)" stroke="none" stroke-width="0" stroke-linecap="butt" stroke-linejoin="miter"/><path d="M118.69999,128.98456h22.56907v51.28547h-22.56907z" fill="url(#color-22)" stroke="none" stroke-width="1.29078" stroke-linecap="butt" stroke-linejoin="miter"/><path d="M118.69999,179.73008h22.56907v51.28542h-22.56907z" fill="url(#color-23)" stroke="none" stroke-width="1.29078" stroke-linecap="butt" stroke-linejoin="miter"/><text transform="translate(137.06875,211.80494) rotate(-90.20116) scale(0.77567,0.77824) skewX(-0.03009)" font-size="22" xml:space="preserve" fill="#ffffff" fill-rule="nonzero" stroke="none" stroke-width="1" stroke-linecap="butt" stroke-linejoin="miter" stroke-miterlimit="10" stroke-dasharray="" stroke-dashoffset="0" font-family="Sans Serif" font-weight="400" text-anchor="start" style="mix-blend-mode: normal"><tspan x="0" dy="0">NISSAN</tspan></text><path d="M4.42566,361.63478v-360.53868h472.87786v360.53869z" fill="none" stroke="none" stroke-width="0" stroke-linecap="butt" stroke-linejoin="miter"/></g></g></svg>