<svg version="1.1" xmlns="http://www.w3.org/2000/svg" xmlns:xlink="http://www.w3.org/1999/xlink" width="616.32718" height="459.45838" viewBox="0,0,616.32718,459.45838"><defs><linearGradient x1="239.01243" y1="63.81671" x2="239.01243" y2="122.02589" gradientUnits="userSpaceOnUse" id="color-1"><stop offset="0" stop-color="#8adef2"/><stop offset="1" stop-color="#abe5f2"/></linearGradient><linearGradient x1="240.85805" y1="121.60828" x2="240.85805" y2="362.71128" gradientUnits="userSpaceOnUse" id="color-2"><stop offset="0" stop-color="#5de962"/><stop offset="1" stop-color="#47b24b"/></linearGradient></defs><g transform="translate(63.23391,46.35736)"><g data-paper-data="{&quot;isPaintingLayer&quot;:true}" fill-rule="nonzero" stroke-width="0" stroke-linecap="butt" stroke-linejoin="miter" stroke-miterlimit="10" stroke-dasharray="" stroke-dashoffset="0" style="mix-blend-mode: normal"><path d="M4.18592,362.41074c0,0 1.13083,-203.79313 1.13083,-230.82314c0,-5.88198 -8.48125,-6.78501 -8.48125,-6.78501v-127.51388h486.55659v365.12202z" fill="#8adef2" stroke="none"/><path d="M-2.94008,122.02589v-58.20918h485.23079c0,0 0,13.22632 0,21.2947c0,10.62305 0,36.91446 0,36.91446z" fill="url(#color-1)" stroke="none"/><path d="M-2.77158,362.71128v-241.103h485.60162v241.103z" fill="url(#color-2)" stroke="none"/><path d="M-4.34371,172.02194c0,0 32.16231,-7.33655 51.47035,-15.55443c19.30804,-8.21788 25.85819,-9.90246 31.79795,-19.88621c5.33746,-8.9714 -11.57163,-14.46391 -11.57163,-14.46391l6.79651,-0.7879c0,0 18.49614,8.85875 15.40522,17.37874c-3.09092,8.51999 -18.30335,25.54836 -34.9212,36.41629c-16.61784,10.86796 -58.97716,25.34077 -58.97716,25.34077z" fill="#868686" stroke="none"/><path d="M-5.14471,174.04314v-1.50282c0,0 16.30933,-3.69556 24.90628,-6.05638c9.23016,-2.53471 28.71022,-10.04305 28.71022,-10.04305v1.33877c0,0 -19.90168,7.55096 -29.36176,10.14882c-8.24428,2.26397 -24.25474,6.11466 -24.25474,6.11466z" fill="#ececec" stroke="none"/><path d="M-4.64474,228.72386l47.76028,-26.05104l19.12326,77.2898l-66.30787,63.80069z" fill="#5a5a5a" stroke="none"/><path d="M37.17335,277.64524h-5.39574l11.05389,-9.39363l-0.0437,4.68595z" fill="#ffe327" stroke="none"/><path d="M-5.11396,199.41589v-3.20403c0,0 15.28987,-4.48801 22.6103,-7.42235c9.1448,-3.66563 29.99856,-13.00803 29.99856,-13.00803v2.34961c0,0 -20.73688,9.51003 -29.96098,13.20748c-7.0718,2.8347 -22.64789,8.07732 -22.64789,8.07732z" fill="#ececec" stroke="none"/><path d="M-5.66767,233.81835l48.49929,-27.80089l0.21361,1.70884l-48.91469,28.97388z" fill="#ffe327" stroke="#000000"/><path d="M26.25834,277.57059l3.83304,-3.42946h6.03296v3.42946z" fill="#ffe327" stroke="none"/><path d="M-63.2339,413.10102v-459.45838h616.32718v459.45838z" fill="none" stroke="none"/></g></g></svg>