<svg version="1.1" xmlns="http://www.w3.org/2000/svg" xmlns:xlink="http://www.w3.org/1999/xlink" width="472.87786" height="360.53869" viewBox="0,0,472.87786,360.53869"><defs><radialGradient cx="330.10634" cy="181.07418" r="14.35716" gradientUnits="userSpaceOnUse" id="color-1"><stop offset="0" stop-color="#810000"/><stop offset="1" stop-color="#810000" stop-opacity="0"/></radialGradient><linearGradient x1="291.11386" y1="180.99923" x2="262.41035" y2="180.99923" gradientUnits="userSpaceOnUse" id="color-2"><stop offset="0" stop-color="#436f8b"/><stop offset="1" stop-color="#1a1a1a"/></linearGradient><linearGradient x1="331.2551" y1="130.94874" x2="331.2551" y2="145.78318" gradientUnits="userSpaceOnUse" id="color-3"><stop offset="0" stop-color="#a50000"/><stop offset="1" stop-color="#e90000"/></linearGradient><linearGradient x1="262.28875" y1="143.12459" x2="223.93078" y2="143.12459" gradientUnits="userSpaceOnUse" id="color-4"><stop offset="0" stop-color="#1a1a1a"/><stop offset="1" stop-color="#447baf"/></linearGradient><linearGradient x1="226.12" y1="142.96204" x2="196.86392" y2="142.96204" gradientUnits="userSpaceOnUse" id="color-5"><stop offset="0" stop-color="#447baf"/><stop offset="1" stop-color="#1a1a1a"/></linearGradient><radialGradient cx="229.80294" cy="182.87417" r="63.63198" gradientUnits="userSpaceOnUse" id="color-6"><stop offset="0" stop-color="#e90000"/><stop offset="1" stop-color="#cb0000"/></radialGradient><linearGradient x1="255.5147" y1="131.2589" x2="255.5147" y2="139.87318" gradientUnits="userSpaceOnUse" id="color-7"><stop offset="0" stop-color="#b00000"/><stop offset="1" stop-color="#ef0000"/></linearGradient><linearGradient x1="165.06707" y1="130.77128" x2="165.06707" y2="147.83734" gradientUnits="userSpaceOnUse" id="color-8"><stop offset="0" stop-color="#ba0000"/><stop offset="1" stop-color="#f30000"/></linearGradient><linearGradient x1="241.32989" y1="128.40489" x2="241.32989" y2="142.15894" gradientUnits="userSpaceOnUse" id="color-9"><stop offset="0" stop-color="#b40000"/><stop offset="1" stop-color="#b40000" stop-opacity="0"/></linearGradient><linearGradient x1="334.60202" y1="180.53479" x2="307.18634" y2="180.53479" gradientUnits="userSpaceOnUse" id="color-10"><stop offset="0" stop-color="#d3d3d3"/><stop offset="1" stop-color="#a7a7a7"/></linearGradient><linearGradient x1="330.84465" y1="214.18885" x2="330.84465" y2="229.81194" gradientUnits="userSpaceOnUse" id="color-11"><stop offset="0" stop-color="#e90000"/><stop offset="1" stop-color="#a50000"/></linearGradient><linearGradient x1="262.31286" y1="217.63609" x2="223.95489" y2="217.63609" gradientUnits="userSpaceOnUse" id="color-12"><stop offset="0" stop-color="#1a1a1a"/><stop offset="1" stop-color="#436f8b"/></linearGradient><linearGradient x1="226.14411" y1="217.79863" x2="196.88803" y2="217.79863" gradientUnits="userSpaceOnUse" id="color-13"><stop offset="0" stop-color="#436f8b"/><stop offset="1" stop-color="#1a1a1a"/></linearGradient><linearGradient x1="255.5388" y1="220.8875" x2="255.5388" y2="229.50179" gradientUnits="userSpaceOnUse" id="color-14"><stop offset="0" stop-color="#ef0000"/><stop offset="1" stop-color="#b00000"/></linearGradient><linearGradient x1="165.07209" y1="212.92333" x2="165.07209" y2="229.98939" gradientUnits="userSpaceOnUse" id="color-15"><stop offset="0" stop-color="#f30000"/><stop offset="1" stop-color="#ba0000"/></linearGradient><linearGradient x1="241.3299" y1="231.59515" x2="241.3299" y2="217.84108" gradientUnits="userSpaceOnUse" id="color-16"><stop offset="0" stop-color="#b40000"/><stop offset="1" stop-color="#b40000" stop-opacity="0"/></linearGradient></defs><g transform="translate(-4.42566,-1.09609)"><g data-paper-data="{&quot;isPaintingLayer&quot;:true}" fill-rule="nonzero" stroke-linejoin="miter" stroke-miterlimit="10" stroke-dasharray="" stroke-dashoffset="0" style="mix-blend-mode: normal"><path d="M372.04705,214.23652l-72.39917,2.60591l2.1322,-14.66054l-0.2961,-23.80339l-0.87093,-15.90156l-0.82425,-17.88124l72.22116,1.26704l1.26704,34.71684z" data-paper-data="{&quot;index&quot;:null}" fill="#dc0000" stroke="#9a0000" stroke-width="0.5" stroke-linecap="round"/><path d="M327.15549,150.34372l18.90196,0.47852l5.98164,0.95707l2.15339,1.4356v23.20874l-1.19633,1.43559l-3.11045,0.23926l-3.58898,-0.23926l3.11045,-1.43559l-0.47852,-22.96947l-16.74858,-1.67487z" data-paper-data="{&quot;index&quot;:null}" fill="#770000" stroke="#000000" stroke-width="0.5" stroke-linecap="round"/><path d="M349.16792,156.20573c0,-0.99106 1.1248,-1.79449 2.51229,-1.79449c1.3875,0 2.51229,0.80343 2.51229,1.79449c0,0.99106 -1.12479,1.79449 -2.51229,1.79449c-1.3875,0 -2.51229,-0.80343 -2.51229,-1.79449z" data-paper-data="{&quot;index&quot;:null}" fill="none" stroke="#000000" stroke-width="0.5" stroke-linecap="butt"/><path d="M330.10634,195.43134c-7.92924,0 -14.35716,-6.42792 -14.35716,-14.35716c0,-7.92924 6.42792,-14.35717 14.35716,-14.35717c7.92924,0 14.35716,6.42793 14.35716,14.35717c0,7.92924 -6.42792,14.35716 -14.35716,14.35716z" data-paper-data="{&quot;index&quot;:null}" fill="url(#color-1)" stroke="#7a7a7a" stroke-width="0" stroke-linecap="butt"/><path d="M357.5422,167.50579l1.91412,-1.67487l1.19633,1.91412l-1.91412,1.19633z" data-paper-data="{&quot;index&quot;:null}" fill="none" stroke="#000000" stroke-width="0.5" stroke-linecap="round"/><path d="M269.83367,180.3782l-2.7219,-28.45611l-4.70143,-3.9591l20.53787,-7.17589l3.21678,3.21678l2.96933,5.69122l1.23722,7.91822l0.74233,22.02255l-1.68332,31.63618l-2.6982,7.17993l-3.19777,2.7594l-20.21705,-8.40191l5.38786,-6.54954z" data-paper-data="{&quot;index&quot;:null}" fill="url(#color-2)" stroke="#000000" stroke-width="0.5" stroke-linecap="round"/><path d="M302.49629,162.00261l0.24745,17.81599l0.12195,23.74891l-3.1024,13.62941l-5.54333,5.05612l-4.88649,0.36585l-8.25106,0.35709l1.7035,-2.47245l0.76877,0.76045l2.85352,-2.34254l3.03276,-8.09738l1.92035,-30.51055l-0.74233,-21.03277l-0.98978,-9.40287l-2.96933,-5.44377l-3.46422,-3.46422l-1.73211,-3.3394l7.17588,0.61751l5.19633,0.98978l5.69122,5.19634z" data-paper-data="{&quot;index&quot;:null}" fill="#b30000" stroke="#9a0000" stroke-width="0.5" stroke-linecap="round"/><path d="M262.98882,148.02011l-1.43559,-1.91412l19.38049,-8.37428l1.91412,2.63192z" data-paper-data="{&quot;index&quot;:null}" fill="#000000" stroke="#000000" stroke-width="0.5" stroke-linecap="round"/><path d="M299.79171,144.34759l-5.50309,-5.26383l-4.54605,-0.95707l0.47853,-3.82825l0.47852,-2.63191l20.09829,-0.7178h23.68726l38.28245,3.11044l-0.7178,11.724z" data-paper-data="{&quot;index&quot;:null}" fill="url(#color-3)" stroke="#9a0000" stroke-width="0.5" stroke-linecap="round"/><path d="M372.76761,133.58065l0.23927,1.67486l-83.02506,-1.19633l0.7178,-2.58469l19.61975,-0.52575l24.64434,-0.23927l14.59518,1.19633l13.63813,1.43559z" data-paper-data="{&quot;index&quot;:null}" fill="none" stroke="#9a0000" stroke-width="0.5" stroke-linecap="round"/><path d="M373.04725,227.44831l-1.35474,-13.23969l1.35834,-34.3045l-1.67486,-33.49715l1.43559,-12.68107h3.11045l0.28455,45.71868l-0.20955,48.13804z" data-paper-data="{&quot;index&quot;:null}" fill="#a6a6a6" stroke="#000000" stroke-width="0.5" stroke-linecap="round"/><path d="M296.48596,139.4681l-0.23927,-2.63192h2.39265l-0.23926,2.15339z" data-paper-data="{&quot;index&quot;:null}" fill="none" stroke="#9a0000" stroke-width="0.5" stroke-linecap="round"/><path d="M187.0231,203.56129l-2.15339,3.11045l-4.30678,1.91412l-15.55224,1.19633l-1.91411,-2.15338l-0.23927,-54.31323l2.63192,-2.15339l15.07371,0.95707l4.7853,2.87118l1.43559,2.87118l0.47853,22.25167z" data-paper-data="{&quot;index&quot;:null}" fill="#353535" stroke="#000000" stroke-width="0.5" stroke-linecap="round"/><path d="M162.8787,152.96577v54.61136l2.60053,2.11294l-18.85392,2.60054l-0.16254,-63.71324l19.66659,2.27547z" data-paper-data="{&quot;index&quot;:null}" fill="#1a1a1a" stroke="#000000" stroke-width="0.5" stroke-linecap="round"/><path d="M146.95037,147.43961l-0.65013,64.85099l-14.62804,2.27547l-23.89246,1.78787l-1.13774,-21.1294l-0.16253,-32.50676l1.13774,-17.71618l38.84558,3.41321" data-paper-data="{&quot;index&quot;:null}" fill="none" stroke="#000000" stroke-width="0.5" stroke-linecap="round"/><path d="M275.454,139.8739l-12.35257,5.68869l-3.41321,0.65013l2.438,-6.01374z" data-paper-data="{&quot;index&quot;:null}" fill="#000000" stroke="#000000" stroke-width="0.5" stroke-linecap="round"/><path d="M262.28875,140.19896l-2.76307,5.68868l-34.78223,0.32507l-0.81267,-1.62534l2.43801,-4.55094z" data-paper-data="{&quot;index&quot;:null}" fill="url(#color-4)" stroke="#000000" stroke-width="0.5" stroke-linecap="round"/><path d="M224.33213,146.05019l-6.82642,-0.9752l-20.64179,-4.38841l29.25608,-0.81267l-2.29939,4.84888z" data-paper-data="{&quot;index&quot;:null}" fill="url(#color-5)" stroke="#000000" stroke-width="0.5" stroke-linecap="round"/><path d="M186.92544,157.61389l-1.62534,-2.43801l-4.87601,-3.25067c0,0 -8.40739,-0.05561 -13.69375,-0.5978c-6.93712,-0.7115 -24.33916,-3.30301 -24.33916,-3.30301l2.11294,-2.00136l47.3199,-7.77752l3.71571,1.92632l13.49031,2.97655l13.81536,2.76308l38.68304,0.16253l1.13774,1.95041l4.38841,4.06334l2.60054,28.28088l-1.40795,25.98537l-6.39879,8.5796l-37.66074,-0.11568l-32.48149,6.93323l-47.30118,-7.16995l-1.8169,-1.81632l38.52491,-4.44386l4.02182,-1.98915l1.91012,-2.25773l0.53065,-23.543l-0.81267,-23.89247" data-paper-data="{&quot;index&quot;:null}" fill="url(#color-6)" stroke="#9a0000" stroke-width="0.5" stroke-linecap="round"/><path d="M289.32172,137.92278l-8.1267,-0.32507l-6.01374,2.27548l-52.66095,-0.48759v-5.20109l-1.78787,-2.92561l69.56447,0.16253z" data-paper-data="{&quot;index&quot;:null}" fill="url(#color-7)" stroke="#9a0000" stroke-width="0.5" stroke-linecap="round"/><path d="M107.73817,144.74918l-0.32507,-9.75203l18.20379,-1.30027l23.92578,-2.92561l71.02727,0.16253l2.11293,2.76308l0.03816,5.88938l-23.60557,1.09958l-8.12669,-1.9504l-46.80973,6.98896l-1.4628,2.11293z" data-paper-data="{&quot;index&quot;:null}" fill="url(#color-8)" stroke="#9a0000" stroke-width="0.5" stroke-linecap="round"/><path d="M332.20419,208.98137l16.74858,-1.67487l0.47852,-22.96947l-3.11045,-1.4356l3.58898,-0.23925l3.11045,0.23925l1.19633,1.4356v23.20874l-2.15339,1.4356l-5.98164,0.95706l-18.90196,0.47852z" data-paper-data="{&quot;index&quot;:null}" fill="#770000" stroke="#000000" stroke-width="0.5" stroke-linecap="round"/><path d="M351.7043,202.76045c1.3875,0 2.51228,0.80343 2.51228,1.79449c0,0.99106 -1.12479,1.79449 -2.51228,1.79449c-1.3875,0 -2.51229,-0.80343 -2.51229,-1.79449c0,-0.99106 1.1248,-1.79449 2.51229,-1.79449z" data-paper-data="{&quot;index&quot;:null}" fill="none" stroke="#000000" stroke-width="0.5" stroke-linecap="butt"/><path d="M105.62127,142.15894l-0.13036,-7.21392l42.59747,-4.76244c0,0 40.60776,-0.14254 71.57723,-0.21452c31.377,-0.07292 115.47814,-0.2202 115.47814,-0.2202c0,0 37.98386,3.53805 37.98386,3.95573c0,2.53831 -0.97773,8.78125 -0.97773,8.78125z" data-paper-data="{&quot;index&quot;:null}" fill="url(#color-9)" stroke="none" stroke-width="0" stroke-linecap="butt"/><path d="M358.76262,191.81933l1.91412,1.19633l-1.19633,1.91412l-1.91412,-1.67487z" data-paper-data="{&quot;index&quot;:null}" fill="none" stroke="#000000" stroke-width="0.5" stroke-linecap="round"/><path d="M307.23399,181.44811l-0.04765,-6.0416l5.64233,-0.12055l11.74249,-4.7994l9.86909,-0.24117l0.16177,10.94932v9.37608l-8.61586,0.25341l-13.93741,-4.81474h-4.81475v-4.56134z" data-paper-data="{&quot;index&quot;:null}" fill="url(#color-10)" stroke="#7a7a7a" stroke-width="0.5" stroke-linecap="round"/><path d="M327.2532,183.72879h-17.99194" data-paper-data="{&quot;index&quot;:null}" fill="none" stroke="#000000" stroke-width="1.5" stroke-linecap="round"/><path d="M282.87194,220.39704l-1.91412,2.63192l-19.38049,-8.37428l1.4356,-1.91412z" data-paper-data="{&quot;index&quot;:null}" fill="#000000" stroke="#000000" stroke-width="0.5" stroke-linecap="round"/><path d="M371.63937,214.18885l0.7178,12.51265l-38.28244,3.11045h-23.68727l-20.09828,-0.7178l-0.47852,-2.63192l-0.47853,-3.82825l4.54605,-0.95707l5.5031,-5.26383z" data-paper-data="{&quot;index&quot;:null}" fill="url(#color-11)" stroke="#9a0000" stroke-width="0.5" stroke-linecap="round"/><path d="M363.22111,227.4193l-13.63812,1.4356l-14.59519,1.19633l-24.64433,-0.23927h-19.61975l-0.7178,-3.11045l83.02507,-1.19633l-0.23927,1.67485z" data-paper-data="{&quot;index&quot;:null}" fill="none" stroke="#9a0000" stroke-width="0.5" stroke-linecap="round"/><path d="M298.42418,221.77112l0.23927,2.15338h-2.39265l0.23926,-2.63191z" data-paper-data="{&quot;index&quot;:null}" fill="none" stroke="#9a0000" stroke-width="0.5" stroke-linecap="round"/><path d="M146.48688,212.34586l-38.84558,3.41321l-1.13774,-17.71617l0.16254,-32.50676l1.13774,-21.1294l23.89246,1.78787l14.62804,2.27547l0.65014,64.85099" data-paper-data="{&quot;index&quot;:null}" fill="#da0000" stroke="#9a0000" stroke-width="0.5" stroke-linecap="round"/><path d="M262.15034,220.56171l-2.43801,-6.01374l3.41321,0.65014l12.35257,5.68868z" data-paper-data="{&quot;index&quot;:null}" fill="#1a1a1a" stroke="#000000" stroke-width="0.5" stroke-linecap="round"/><path d="M226.39289,220.72423l-2.438,-4.55094l0.81267,-1.62534l34.78223,0.32507l2.76307,5.68868z" data-paper-data="{&quot;index&quot;:null}" fill="url(#color-12)" stroke="#000000" stroke-width="0.5" stroke-linecap="round"/><path d="M223.84472,216.0379l2.29939,4.84888l-29.25608,-0.81267l20.64179,-4.38841l6.82641,-0.9752z" data-paper-data="{&quot;index&quot;:null}" fill="url(#color-13)" stroke="#000000" stroke-width="0.5" stroke-linecap="round"/><path d="M140.95248,216.2004c2.33389,0 4.22587,1.96475 4.22587,4.38841c0,2.42365 -1.89198,4.38842 -4.22587,4.38842c-2.33389,0 -4.22588,-1.96476 -4.22588,-4.38842c0,-2.42364 1.89199,-4.38841 4.22588,-4.38841z" data-paper-data="{&quot;index&quot;:null}" fill="none" stroke="#000000" stroke-width="0.5" stroke-linecap="butt"/><path d="M290.32104,229.33924l-69.56448,0.16254l1.78788,-2.92561v-5.20109l52.66094,-0.48759l6.01374,2.27548l8.1267,-0.32507z" data-paper-data="{&quot;index&quot;:null}" fill="url(#color-14)" stroke="#9a0000" stroke-width="0.5" stroke-linecap="round"/><path d="M142.74035,212.92333l1.4628,2.11293l46.80973,6.98896l8.12669,-1.9504l23.34269,0.8367l0.22472,6.15226l-2.11293,2.76308l-71.02728,0.16253l-23.92578,-2.92561l-18.20379,-1.30027l0.32508,-9.75203z" data-paper-data="{&quot;index&quot;:null}" fill="url(#color-15)" stroke="#9a0000" stroke-width="0.5" stroke-linecap="round"/><path d="M105.41876,226.26259l-1.62534,-45.34694c0,0 0.39845,-45.1502 0.93797,-45.21489c0.10892,-0.01306 2.39905,-0.63546 2.39905,-0.63546l0.27017,10.02174l-1.3719,35.46336l0.36526,22.30732l1.30027,13.49031l-0.81268,10.0771z" data-paper-data="{&quot;index&quot;:null}" fill="#c5c5c5" stroke="#000000" stroke-width="0.5" stroke-linecap="round"/><path d="M334.95801,184.50869v-9.12267h4.73028v9.12267z" data-paper-data="{&quot;index&quot;:null}" fill="#a7a7a7" stroke="#7a7a7a" stroke-width="0.5" stroke-linecap="butt"/><path d="M309.23716,177.03189h17.99193" data-paper-data="{&quot;index&quot;:null}" fill="none" stroke="#000000" stroke-width="1.5" stroke-linecap="round"/><path d="M372.14988,217.51517c0,0 0.97772,6.24295 0.97772,8.78125c0,0.41768 -37.98386,3.95573 -37.98386,3.95573c0,0 -84.10114,-0.14728 -115.47813,-0.2202c-30.96947,-0.07197 -71.57722,-0.21452 -71.57722,-0.21452l-42.59747,-4.76244l0.13036,-7.21392z" data-paper-data="{&quot;index&quot;:null}" fill="url(#color-16)" stroke="none" stroke-width="0" stroke-linecap="butt"/><path d="M4.42566,361.63478v-360.53868h472.87786v360.53869z" fill="none" stroke="none" stroke-width="0" stroke-linecap="butt"/></g></g></svg>