<svg version="1.1" xmlns="http://www.w3.org/2000/svg" xmlns:xlink="http://www.w3.org/1999/xlink" width="243.01797" height="70.31138" viewBox="0,0,243.01797,70.31138"><defs><radialGradient cx="338.12795" cy="167.85952" r="13.82455" gradientUnits="userSpaceOnUse" id="color-1"><stop offset="0" stop-color="#f07070"/><stop offset="1" stop-color="#cf5555"/></radialGradient><radialGradient cx="338.12795" cy="167.85952" r="11.92469" gradientUnits="userSpaceOnUse" id="color-2"><stop offset="0" stop-color="#ff9d9d"/><stop offset="1" stop-color="#ff9d9d" stop-opacity="0"/></radialGradient><radialGradient cx="338.12795" cy="167.85952" r="11.92469" gradientUnits="userSpaceOnUse" id="color-3"><stop offset="0" stop-color="#ff9d9d"/><stop offset="1" stop-color="#ff9d9d" stop-opacity="0"/></radialGradient><radialGradient cx="282.13844" cy="167.43694" r="13.58909" gradientUnits="userSpaceOnUse" id="color-4"><stop offset="0" stop-color="#f7f7f7"/><stop offset="1" stop-color="#cecece"/></radialGradient><radialGradient cx="282.13844" cy="167.43694" r="11.72159" gradientUnits="userSpaceOnUse" id="color-5"><stop offset="0" stop-color="#f7f7f7"/><stop offset="1" stop-color="#f7f7f7" stop-opacity="0"/></radialGradient><radialGradient cx="310.23691" cy="167.68672" r="13.82455" gradientUnits="userSpaceOnUse" id="color-6"><stop offset="0" stop-color="#f07070"/><stop offset="1" stop-color="#cf5555"/></radialGradient><radialGradient cx="310.23691" cy="167.68672" r="11.92468" gradientUnits="userSpaceOnUse" id="color-7"><stop offset="0" stop-color="#ff9d9d"/><stop offset="1" stop-color="#ff9d9d" stop-opacity="0"/></radialGradient><radialGradient cx="310.23691" cy="167.68672" r="11.92468" gradientUnits="userSpaceOnUse" id="color-8"><stop offset="0" stop-color="#ff9d9d"/><stop offset="1" stop-color="#ff9d9d" stop-opacity="0"/></radialGradient><radialGradient cx="309.92586" cy="191.53407" r="13.82455" gradientUnits="userSpaceOnUse" id="color-9"><stop offset="0" stop-color="#f07070"/><stop offset="1" stop-color="#cf5555"/></radialGradient><radialGradient cx="309.92586" cy="191.53407" r="11.92469" gradientUnits="userSpaceOnUse" id="color-10"><stop offset="0" stop-color="#ff9d9d"/><stop offset="1" stop-color="#ff9d9d" stop-opacity="0"/></radialGradient><radialGradient cx="309.92586" cy="191.53407" r="11.92469" gradientUnits="userSpaceOnUse" id="color-11"><stop offset="0" stop-color="#ff9d9d"/><stop offset="1" stop-color="#ff9d9d" stop-opacity="0"/></radialGradient><radialGradient cx="282.00019" cy="191.21517" r="13.58909" gradientUnits="userSpaceOnUse" id="color-12"><stop offset="0" stop-color="#f7f7f7"/><stop offset="1" stop-color="#cecece"/></radialGradient><radialGradient cx="282.00019" cy="191.21517" r="11.72159" gradientUnits="userSpaceOnUse" id="color-13"><stop offset="0" stop-color="#f7f7f7"/><stop offset="1" stop-color="#f7f7f7" stop-opacity="0"/></radialGradient><radialGradient cx="254.62757" cy="167.43694" r="13.5891" gradientUnits="userSpaceOnUse" id="color-14"><stop offset="0" stop-color="#f7f7f7"/><stop offset="1" stop-color="#cecece"/></radialGradient><radialGradient cx="254.62757" cy="167.43694" r="11.72159" gradientUnits="userSpaceOnUse" id="color-15"><stop offset="0" stop-color="#f7f7f7"/><stop offset="1" stop-color="#f7f7f7" stop-opacity="0"/></radialGradient><radialGradient cx="254.48932" cy="191.21517" r="13.58909" gradientUnits="userSpaceOnUse" id="color-16"><stop offset="0" stop-color="#f7f7f7"/><stop offset="1" stop-color="#cecece"/></radialGradient><radialGradient cx="254.48932" cy="191.21517" r="11.72159" gradientUnits="userSpaceOnUse" id="color-17"><stop offset="0" stop-color="#f7f7f7"/><stop offset="1" stop-color="#f7f7f7" stop-opacity="0"/></radialGradient><radialGradient cx="224.90485" cy="167.85952" r="13.82455" gradientUnits="userSpaceOnUse" id="color-18"><stop offset="0" stop-color="#f07070"/><stop offset="1" stop-color="#cf5555"/></radialGradient><radialGradient cx="224.90485" cy="167.85952" r="11.92468" gradientUnits="userSpaceOnUse" id="color-19"><stop offset="0" stop-color="#ff9d9d"/><stop offset="1" stop-color="#ff9d9d" stop-opacity="0"/></radialGradient><radialGradient cx="224.90485" cy="167.85952" r="11.92468" gradientUnits="userSpaceOnUse" id="color-20"><stop offset="0" stop-color="#ff9d9d"/><stop offset="1" stop-color="#ff9d9d" stop-opacity="0"/></radialGradient><radialGradient cx="168.91533" cy="167.43694" r="13.5891" gradientUnits="userSpaceOnUse" id="color-21"><stop offset="0" stop-color="#f7f7f7"/><stop offset="1" stop-color="#cecece"/></radialGradient><radialGradient cx="168.91533" cy="167.43694" r="11.72159" gradientUnits="userSpaceOnUse" id="color-22"><stop offset="0" stop-color="#f7f7f7"/><stop offset="1" stop-color="#f7f7f7" stop-opacity="0"/></radialGradient><radialGradient cx="197.01381" cy="167.68672" r="13.82456" gradientUnits="userSpaceOnUse" id="color-23"><stop offset="0" stop-color="#f07070"/><stop offset="1" stop-color="#cf5555"/></radialGradient><radialGradient cx="197.01381" cy="167.68672" r="11.92469" gradientUnits="userSpaceOnUse" id="color-24"><stop offset="0" stop-color="#ff9d9d"/><stop offset="1" stop-color="#ff9d9d" stop-opacity="0"/></radialGradient><radialGradient cx="197.01381" cy="167.68672" r="11.92469" gradientUnits="userSpaceOnUse" id="color-25"><stop offset="0" stop-color="#ff9d9d"/><stop offset="1" stop-color="#ff9d9d" stop-opacity="0"/></radialGradient><radialGradient cx="196.70276" cy="191.53407" r="13.82455" gradientUnits="userSpaceOnUse" id="color-26"><stop offset="0" stop-color="#f07070"/><stop offset="1" stop-color="#cf5555"/></radialGradient><radialGradient cx="196.70276" cy="191.53407" r="11.92468" gradientUnits="userSpaceOnUse" id="color-27"><stop offset="0" stop-color="#ff9d9d"/><stop offset="1" stop-color="#ff9d9d" stop-opacity="0"/></radialGradient><radialGradient cx="196.70276" cy="191.53407" r="11.92468" gradientUnits="userSpaceOnUse" id="color-28"><stop offset="0" stop-color="#ff9d9d"/><stop offset="1" stop-color="#ff9d9d" stop-opacity="0"/></radialGradient><radialGradient cx="168.77709" cy="191.21517" r="13.58909" gradientUnits="userSpaceOnUse" id="color-29"><stop offset="0" stop-color="#f7f7f7"/><stop offset="1" stop-color="#cecece"/></radialGradient><radialGradient cx="168.77709" cy="191.21517" r="11.72159" gradientUnits="userSpaceOnUse" id="color-30"><stop offset="0" stop-color="#f7f7f7"/><stop offset="1" stop-color="#f7f7f7" stop-opacity="0"/></radialGradient><radialGradient cx="141.40447" cy="167.43694" r="13.5891" gradientUnits="userSpaceOnUse" id="color-31"><stop offset="0" stop-color="#f7f7f7"/><stop offset="1" stop-color="#cecece"/></radialGradient><radialGradient cx="141.40447" cy="167.43694" r="11.72159" gradientUnits="userSpaceOnUse" id="color-32"><stop offset="0" stop-color="#f7f7f7"/><stop offset="1" stop-color="#f7f7f7" stop-opacity="0"/></radialGradient><radialGradient cx="141.26622" cy="191.21517" r="13.5891" gradientUnits="userSpaceOnUse" id="color-33"><stop offset="0" stop-color="#f7f7f7"/><stop offset="1" stop-color="#cecece"/></radialGradient><radialGradient cx="141.26622" cy="191.21517" r="11.72159" gradientUnits="userSpaceOnUse" id="color-34"><stop offset="0" stop-color="#f7f7f7"/><stop offset="1" stop-color="#f7f7f7" stop-opacity="0"/></radialGradient><radialGradient cx="338.49832" cy="191.56323" r="13.82455" gradientUnits="userSpaceOnUse" id="color-35"><stop offset="0" stop-color="#f07070"/><stop offset="1" stop-color="#cf5555"/></radialGradient><radialGradient cx="338.49832" cy="191.56323" r="11.92469" gradientUnits="userSpaceOnUse" id="color-36"><stop offset="0" stop-color="#ff9d9d"/><stop offset="1" stop-color="#ff9d9d" stop-opacity="0"/></radialGradient><radialGradient cx="338.49832" cy="191.56323" r="11.92469" gradientUnits="userSpaceOnUse" id="color-37"><stop offset="0" stop-color="#ff9d9d"/><stop offset="1" stop-color="#ff9d9d" stop-opacity="0"/></radialGradient><radialGradient cx="224.79846" cy="192.32761" r="13.82455" gradientUnits="userSpaceOnUse" id="color-38"><stop offset="0" stop-color="#f07070"/><stop offset="1" stop-color="#cf5555"/></radialGradient><radialGradient cx="224.79846" cy="192.32761" r="11.92468" gradientUnits="userSpaceOnUse" id="color-39"><stop offset="0" stop-color="#ff9d9d"/><stop offset="1" stop-color="#ff9d9d" stop-opacity="0"/></radialGradient><radialGradient cx="224.79846" cy="192.32761" r="11.92468" gradientUnits="userSpaceOnUse" id="color-40"><stop offset="0" stop-color="#ff9d9d"/><stop offset="1" stop-color="#ff9d9d" stop-opacity="0"/></radialGradient><linearGradient x1="240.13153" y1="176.34362" x2="240.13153" y2="182.71742" gradientUnits="userSpaceOnUse" id="color-41"><stop offset="0" stop-color="#d8964c"/><stop offset="1" stop-color="#986737"/></linearGradient></defs><g transform="translate(-118.49101,-144.84431)"><g data-paper-data="{&quot;isPaintingLayer&quot;:true}" fill-rule="nonzero" stroke-width="0" stroke-linecap="butt" stroke-linejoin="miter" stroke-miterlimit="10" stroke-dasharray="" stroke-dashoffset="0" style="mix-blend-mode: normal"><g><g><path d="" fill="url(#color-1)" stroke="#bfbfbf"/><path d="" fill="url(#color-2)" stroke="none"/><path d="" fill="#a3a3a3" stroke="none"/><path d="" fill="url(#color-3)" stroke="none"/><path d="" fill="#323232" stroke="none"/></g><g><path d="" fill="url(#color-4)" stroke="#bfbfbf"/><path d="" fill="url(#color-5)" stroke="none"/><path d="" fill="#a3a3a3" stroke="none"/><path d="" fill="#323232" stroke="none"/></g><g><path d="" fill="url(#color-6)" stroke="#bfbfbf"/><path d="" fill="url(#color-7)" stroke="none"/><path d="" fill="#a3a3a3" stroke="none"/><path d="" fill="url(#color-8)" stroke="none"/><path d="" fill="#323232" stroke="none"/></g><g><path d="" fill="url(#color-9)" stroke="#bfbfbf"/><path d="" fill="url(#color-10)" stroke="none"/><path d="" fill="#a3a3a3" stroke="none"/><path d="" fill="url(#color-11)" stroke="none"/><path d="" fill="#323232" stroke="none"/></g><g><path d="" fill="url(#color-12)" stroke="#bfbfbf"/><path d="" fill="url(#color-13)" stroke="none"/><path d="" fill="#a3a3a3" stroke="none"/><path d="" fill="#323232" stroke="none"/></g><g><path d="" fill="url(#color-14)" stroke="#bfbfbf"/><path d="" fill="url(#color-15)" stroke="none"/><path d="" fill="#a3a3a3" stroke="none"/><path d="" fill="#323232" stroke="none"/></g><g><path d="" fill="url(#color-16)" stroke="#bfbfbf"/><path d="" fill="url(#color-17)" stroke="none"/><path d="" fill="#a3a3a3" stroke="none"/><path d="" fill="#323232" stroke="none"/></g><g><path d="" fill="url(#color-18)" stroke="#bfbfbf"/><path d="" fill="url(#color-19)" stroke="none"/><path d="" fill="#a3a3a3" stroke="none"/><path d="" fill="url(#color-20)" stroke="none"/><path d="" fill="#323232" stroke="none"/></g><g><path d="" fill="url(#color-21)" stroke="#bfbfbf"/><path d="" fill="url(#color-22)" stroke="none"/><path d="" fill="#a3a3a3" stroke="none"/><path d="" fill="#323232" stroke="none"/></g><g><path d="" fill="url(#color-23)" stroke="#bfbfbf"/><path d="" fill="url(#color-24)" stroke="none"/><path d="" fill="#a3a3a3" stroke="none"/><path d="" fill="url(#color-25)" stroke="none"/><path d="" fill="#323232" stroke="none"/></g><g><path d="" fill="url(#color-26)" stroke="#bfbfbf"/><path d="" fill="url(#color-27)" stroke="none"/><path d="" fill="#a3a3a3" stroke="none"/><path d="" fill="url(#color-28)" stroke="none"/><path d="" fill="#323232" stroke="none"/></g><g><path d="" fill="url(#color-29)" stroke="#bfbfbf"/><path d="" fill="url(#color-30)" stroke="none"/><path d="" fill="#a3a3a3" stroke="none"/><path d="" fill="#323232" stroke="none"/></g><g><path d="" fill="url(#color-31)" stroke="#bfbfbf"/><path d="" fill="url(#color-32)" stroke="none"/><path d="" fill="#a3a3a3" stroke="none"/><path d="" fill="#323232" stroke="none"/></g><g><path d="" fill="url(#color-33)" stroke="#bfbfbf"/><path d="" fill="url(#color-34)" stroke="none"/><path d="" fill="#a3a3a3" stroke="none"/><path d="" fill="#323232" stroke="none"/></g><g><path d="" fill="url(#color-35)" stroke="#bfbfbf"/><path d="" fill="url(#color-36)" stroke="none"/><path d="" fill="#a3a3a3" stroke="none"/><path d="" fill="url(#color-37)" stroke="none"/><path d="" fill="#323232" stroke="none"/></g><g><path d="" fill="url(#color-38)" stroke="#bfbfbf"/><path d="" fill="url(#color-39)" stroke="none"/><path d="" fill="#a3a3a3" stroke="none"/><path d="" fill="url(#color-40)" stroke="none"/><path d="" fill="#323232" stroke="none"/></g></g><path d="M152.96795,182.71742v-6.3738h174.32715v6.3738z" fill="url(#color-41)" stroke="none"/><g stroke="none"><path d="M180.53731,179.88761c0,-3.15293 2.55596,-5.70889 5.70889,-5.70889c3.15293,0 5.70889,2.55596 5.70889,5.70889c0,3.15293 -2.55596,5.70889 -5.70889,5.70889c-3.15293,0 -5.70889,-2.55596 -5.70889,-5.70889z" fill="#c78b46"/><path d="M181.40099,179.85915c0,-2.705 2.19284,-4.89784 4.89785,-4.89784c2.705,0 4.89784,2.19284 4.89784,4.89784c0,2.705 -2.19284,4.89785 -4.89784,4.89785c-2.705,0 -4.89785,-2.19284 -4.89785,-4.89785z" fill="#d8964c"/></g><g stroke="none"><path d="M149.061,179.69319c0,-3.15293 2.55596,-5.70888 5.70889,-5.70888c3.15293,0 5.70889,2.55595 5.70889,5.70888c0,3.15293 -2.55595,5.70889 -5.70889,5.70889c-3.15293,0 -5.70889,-2.55596 -5.70889,-5.70889z" fill="#c78b46"/><path d="M149.92469,179.66474c0,-2.705 2.19284,-4.89784 4.89785,-4.89784c2.705,0 4.89784,2.19284 4.89784,4.89784c0,2.70501 -2.19284,4.89785 -4.89784,4.89785c-2.70501,0 -4.89785,-2.19284 -4.89785,-4.89785z" fill="#d8964c"/></g><g stroke="none"><path d="M252.44702,180.15492c0,-3.15293 2.55595,-5.70888 5.70889,-5.70888c3.15293,0 5.70889,2.55595 5.70889,5.70888c0,3.15293 -2.55596,5.70889 -5.70889,5.70889c-3.15293,0 -5.70889,-2.55596 -5.70889,-5.70889z" fill="#c78b46"/><path d="M253.31071,180.12646c0,-2.705 2.19285,-4.89784 4.89785,-4.89784c2.705,0 4.89784,2.19284 4.89784,4.89784c0,2.70501 -2.19284,4.89785 -4.89784,4.89785c-2.70501,0 -4.89785,-2.19284 -4.89785,-4.89785z" fill="#d8964c"/></g><g stroke="none"><path d="M218.24083,179.96051c0,-3.15293 2.55596,-5.70888 5.70889,-5.70888c3.15293,0 5.70889,2.55595 5.70889,5.70888c0,3.15293 -2.55596,5.70889 -5.70889,5.70889c-3.15293,0 -5.70889,-2.55596 -5.70889,-5.70889z" fill="#c78b46"/><path d="M219.10452,179.93205c0,-2.705 2.19284,-4.89785 4.89784,-4.89785c2.70501,0 4.89785,2.19284 4.89785,4.89785c0,2.70501 -2.19284,4.89784 -4.89785,4.89784c-2.705,0 -4.89784,-2.19284 -4.89784,-4.89784z" fill="#d8964c"/></g><g stroke="none"><path d="M319.52122,180.3068c0,-3.15293 2.55595,-5.70888 5.70888,-5.70888c3.15293,0 5.70889,2.55595 5.70889,5.70888c0,3.15293 -2.55596,5.70889 -5.70889,5.70889c-3.15293,0 -5.70888,-2.55596 -5.70888,-5.70889z" fill="#c78b46"/><path d="M320.38491,180.27835c0,-2.705 2.19284,-4.89785 4.89785,-4.89785c2.705,0 4.89784,2.19284 4.89784,4.89785c0,2.70501 -2.19284,4.89784 -4.89784,4.89784c-2.70501,0 -4.89785,-2.19284 -4.89785,-4.89784z" fill="#d8964c"/></g><g stroke="none"><path d="M288.04492,180.11239c0,-3.15293 2.55596,-5.70888 5.70889,-5.70888c3.15293,0 5.70888,2.55595 5.70888,5.70888c0,3.15293 -2.55595,5.70889 -5.70888,5.70889c-3.15293,0 -5.70889,-2.55596 -5.70889,-5.70889z" fill="#c78b46"/><path d="M288.90861,180.08394c0,-2.705 2.19284,-4.89785 4.89784,-4.89785c2.70501,0 4.89785,2.19284 4.89785,4.89785c0,2.70501 -2.19284,4.89784 -4.89785,4.89784c-2.705,0 -4.89784,-2.19284 -4.89784,-4.89784z" fill="#d8964c"/></g><path d="M118.49102,215.15569v-70.31138h243.01797v70.31138z" fill="none" stroke="none"/></g></g></svg>