<svg version="1.1" xmlns="http://www.w3.org/2000/svg" xmlns:xlink="http://www.w3.org/1999/xlink" width="877.97602" height="657.26933" viewBox="0,0,877.97602,657.26933"><g transform="translate(198.5,144)"><g data-paper-data="{&quot;isPaintingLayer&quot;:true}" fill-rule="nonzero" stroke-linejoin="miter" stroke-miterlimit="10" stroke-dasharray="" stroke-dashoffset="0" style="mix-blend-mode: normal"><path d="M-198.5,513.26933v-657.26933h877.97602v657.26933z" fill="none" stroke="none" stroke-width="0" stroke-linecap="butt"/><g data-paper-data="{&quot;index&quot;:null}" fill="#ffa000" stroke="none" stroke-width="0" stroke-linecap="butt"><path d="M38.11856,331.76977c8.39179,0 15.1947,6.8029 15.1947,15.1947c0,8.39179 -6.8029,15.1947 -15.1947,15.1947c-8.39179,0 -15.19469,-6.8029 -15.19469,-15.1947c0,-8.3918 6.80289,-15.1947 15.19469,-15.1947z"/><path d="M23.2588,12.72523c0,-8.39179 6.80289,-15.1947 15.19469,-15.1947c8.39179,0 15.1947,6.8029 15.1947,15.1947c0,8.39179 -6.80291,15.1947 -15.19471,15.1947c-8.39178,0 -15.19469,-6.80291 -15.19469,-15.1947z"/></g><path d="M81.70721,-21.40179l328.15628,-0.20273c0,0 -1.72463,24.73228 4.39183,31.12072c7.77546,8.1212 34.98982,10.66773 34.98982,10.66773l-1.53749,329.66125c0,0 -29.46893,-1.15808 -37.09858,4.49055c-8.59921,6.36644 -9.43679,26.31287 -9.43679,26.31287l-320.42751,0.55519c0,0 -6.66146,-18.3214 -14.35713,-25.85513c-7.21435,-7.06255 -28.96624,-16.02507 -28.96624,-16.02507l2.02627,-332.59449l19.43134,0.73993z" data-paper-data="{&quot;index&quot;:null}" fill="#9a9a9a" stroke="none" stroke-width="0" stroke-linecap="butt"/><path d="M91.16668,-23.51753c0,0 0,22.23651 0,32.06188c0,1.88799 -1.21317,13.34668 -9.82638,18.48545c-4.97096,2.96575 -14.07863,3.57541 -19.50026,3.73843c-3.29767,0.09915 -22.10162,-0.0286 -22.10162,-0.0286" data-paper-data="{&quot;index&quot;:null}" fill="none" stroke="#909090" stroke-width="7.5" stroke-linecap="round"/><path d="M72.55557,-18.23975c0,0 0.24938,29.23487 -0.11111,29.91273c-0.25961,0.48818 -33.89317,1.02173 -33.89317,1.02173" data-paper-data="{&quot;index&quot;:null}" fill="none" stroke="#bcbcbc" stroke-width="30.5" stroke-linecap="round"/><g fill="#ffa000" stroke="none" stroke-width="0" stroke-linecap="butt"><path d="M423.78574,13.07884c0,-8.3918 6.8029,-15.1947 15.19469,-15.1947c8.3918,0 15.1947,6.80291 15.1947,15.1947c0,8.3918 -6.80291,15.1947 -15.1947,15.1947c-8.3918,0 -15.19469,-6.8029 -15.19469,-15.1947z"/><path d="M424.12066,347.31808c0,-8.39179 6.80291,-15.1947 15.19469,-15.1947c8.3918,0 15.19471,6.80291 15.19471,15.1947c0,8.3918 -6.80291,15.1947 -15.1947,15.1947c-8.3918,0 -15.19469,-6.80291 -15.19469,-15.1947z"/></g><path d="M445.58773,30.73963c0,0 -24.725,0.12775 -28.02267,0.0286c-5.42163,-0.16302 -14.5293,-0.77268 -19.50026,-3.73843c-8.61321,-5.13877 -9.82638,-16.59746 -9.82638,-18.48545c0,-9.82537 0,-32.06188 0,-32.06188" data-paper-data="{&quot;index&quot;:null}" fill="none" stroke="#909090" stroke-width="7.5" stroke-linecap="round"/><path d="M444.75093,12.69471c0,0 -37.97567,-0.53355 -38.23528,-1.02173c-0.36049,-0.67786 -0.11111,-29.91273 -0.11111,-29.91273" data-paper-data="{&quot;index&quot;:null}" fill="none" stroke="#bcbcbc" stroke-width="30.5" stroke-linecap="round"/><path d="M388.23842,382.80593c0,0 0,-22.23651 0,-32.06188c0,-1.88799 1.21317,-13.34668 9.82638,-18.48545c4.97096,-2.96575 14.07863,-3.57541 19.50026,-3.73843c3.29767,-0.09915 28.02267,0.0286 28.02267,0.0286" data-paper-data="{&quot;index&quot;:null}" fill="none" stroke="#909090" stroke-width="7.5" stroke-linecap="round"/><path d="M406.40454,377.87329c0,0 -0.24938,-29.23487 0.11111,-29.91273c0.25961,-0.48818 38.23528,-1.02173 38.23528,-1.02173" data-paper-data="{&quot;index&quot;:null}" fill="none" stroke="#bcbcbc" stroke-width="30.5" stroke-linecap="round"/><path d="M39.68286,328.54877c0,0 18.80395,-0.12775 22.10162,-0.0286c5.42163,0.16302 14.5293,0.77268 19.50026,3.73843c8.61321,5.13877 9.82638,16.59746 9.82638,18.48545c0,9.82537 0,32.06188 0,32.06188" data-paper-data="{&quot;index&quot;:null}" fill="none" stroke="#909090" stroke-width="7.5" stroke-linecap="round"/><path d="M38.55129,346.93883c0,0 33.63356,0.53355 33.89317,1.02173c0.36049,0.67786 0.11111,29.91273 0.11111,29.91273" data-paper-data="{&quot;index&quot;:null}" fill="none" stroke="#bcbcbc" stroke-width="30.5" stroke-linecap="round"/></g></g></svg>