<svg version="1.1" xmlns="http://www.w3.org/2000/svg" xmlns:xlink="http://www.w3.org/1999/xlink" width="123.46982" height="49.16619" viewBox="0,0,123.46982,49.16619"><defs><linearGradient x1="6303.16422" y1="-2002.71647" x2="6303.16422" y2="1193.08623" gradientUnits="userSpaceOnUse" id="color-1"><stop offset="0" stop-color="#000000"/><stop offset="1" stop-color="#000000" stop-opacity="0"/></linearGradient></defs><g transform="translate(-178.26509,-155.41694)"><g data-paper-data="{&quot;isPaintingLayer&quot;:true}" fill-rule="nonzero" stroke-linecap="butt" stroke-linejoin="miter" stroke-miterlimit="10" stroke-dasharray="" stroke-dashoffset="0" style="mix-blend-mode: normal"><path d="M178.26509,189.63846c0,-8.11341 0,-17.38746 0,-21.90696c0,-5.20237 5.60589,-12.31455 13.00726,-12.31455c37.85701,0 18.32551,0 93.9701,0c10.53576,0 16.49246,7.18927 16.49246,15.30186c0,7.20901 0,15.14712 0,19.41754c0,5.85462 -5.20935,14.44679 -14.50091,14.44679c-71.86173,0 -56.68095,0 -95.46376,0c-7.66276,0 -13.50514,-6.90211 -13.50514,-14.94468z" fill="url(#color-1)" stroke="none" stroke-width="0"/><text transform="translate(192.39351,172.81801) scale(0.31095,0.31095)" font-size="40" xml:space="preserve" fill="#ffffff" fill-rule="nonzero" stroke="#ffffff" stroke-width="1" stroke-linecap="butt" stroke-linejoin="miter" stroke-miterlimit="10" stroke-dasharray="" stroke-dashoffset="0" font-family="Sans Serif" font-weight="normal" text-anchor="start" style="mix-blend-mode: normal"><tspan x="0" dy="0">NEXT TRACK IN:</tspan></text><text transform="translate(231.36604,192.72756) scale(0.50928,0.50928)" font-size="40" xml:space="preserve" fill="#ffffff" fill-rule="nonzero" stroke="#ffffff" stroke-width="1" stroke-linecap="butt" stroke-linejoin="miter" stroke-miterlimit="10" stroke-dasharray="" stroke-dashoffset="0" font-family="Sans Serif" font-weight="normal" text-anchor="start" style="mix-blend-mode: normal"><tspan x="0" dy="0">:</tspan></text></g></g></svg>