<svg version="1.1" xmlns="http://www.w3.org/2000/svg" xmlns:xlink="http://www.w3.org/1999/xlink" width="82.69252" height="82.69252" viewBox="0,0,82.69252,82.69252"><defs><radialGradient cx="240" cy="180" r="41.34626" gradientUnits="userSpaceOnUse" id="color-1"><stop offset="0" stop-color="#00fffe"/><stop offset="1" stop-color="#00fffe" stop-opacity="0"/></radialGradient></defs><g transform="translate(-198.65374,-138.65374)"><g data-paper-data="{&quot;isPaintingLayer&quot;:true}" fill-rule="nonzero" stroke-linecap="butt" stroke-linejoin="miter" stroke-miterlimit="10" stroke-dasharray="" stroke-dashoffset="0" style="mix-blend-mode: normal"><path d="" fill-opacity="0.48235" fill="#000000" stroke="none" stroke-width="0"/><path d="M198.65374,180c0,-22.83491 18.51135,-41.34626 41.34626,-41.34626c22.83491,0 41.34626,18.51135 41.34626,41.34626c0,22.83491 -18.51135,41.34626 -41.34626,41.34626c-22.83491,0 -41.34626,-18.51135 -41.34626,-41.34626z" fill="url(#color-1)" stroke-opacity="0.91765" stroke="#a8e2ff" stroke-width="0"/><path d="M216.14903,180c0,-13.17253 10.67845,-23.85097 23.85097,-23.85097c13.17253,0 23.85097,10.67845 23.85097,23.85097c0,13.17253 -10.67845,23.85097 -23.85097,23.85097c-13.17253,0 -23.85097,-10.67844 -23.85097,-23.85097z" fill-opacity="0.45882" fill="#00a9ff" stroke-opacity="0.91765" stroke="#a8e2ff" stroke-width="2.5"/><g fill-opacity="0.57255" fill="#0046ff" stroke="none" stroke-width="0"><path d="M226.57007,192.02456c0,0 9.40888,-15.39353 12.39768,-20.2834c1.69302,-2.7699 5.07422,-5.43826 8.61538,-3.58716c4.64722,2.42928 2.45699,7.48236 1.0243,9.82633c-3.01155,4.92708 -12.2432,20.03065 -12.2432,20.03065c0,0 -2.20728,0.25788 -5.64844,-1.97695c-3.18204,-2.06653 -4.14572,-4.00948 -4.14572,-4.00948z"/><path d="M246.11279,167.74142l0.70398,-1.17365l3.2226,1.96973l-0.70398,1.17365c0,0 -0.88144,-0.86953 -1.40862,-1.19175c-0.54633,-0.33393 -1.81398,-0.77797 -1.81398,-0.77797z"/><path d="M247.72197,167.2375l1.79468,-3.09887l1.26376,0.77245l-1.79467,3.09887z"/><path d="M247.86925,163.11734l0.69519,-1.13739l4.86549,2.9739l-0.6952,1.13739z"/><path d="M249.57238,166.86062l0.38622,-0.63188l1.2745,0.78172l-0.38622,0.63189z"/></g><path d="M227.35313,188.24146c0,-1.6972 0,-3.58054 0,-3.95263c0,-1.1395 1.40343,-2.80298 2.78481,-2.80298c3.03839,0 14.95196,0 20.57166,0c1.80795,0 2.96448,1.81804 2.96448,3.61148c0,1.06592 0,2.12314 0,2.78481c0,1.26563 -1.11801,3.25215 -2.87464,3.25215c-5.60767,0 -17.72329,0 -20.75132,0c-1.34305,0 -2.69498,-1.37165 -2.69498,-2.89282z" fill="#ffffff" stroke="none" stroke-width="0"/><text transform="translate(229.01019,178.78616) scale(0.27758,0.27758)" font-size="40" xml:space="preserve" fill="#ffffff" fill-rule="nonzero" stroke="#ffffff" stroke-width="2" stroke-linecap="butt" stroke-linejoin="miter" stroke-miterlimit="10" stroke-dasharray="" stroke-dashoffset="0" font-family="Sans Serif" font-weight="normal" text-anchor="start" style="mix-blend-mode: normal"><tspan x="0" dy="0">加速</tspan></text><text transform="translate(229.0385,188.94994) scale(0.18807,0.18807)" font-size="40" xml:space="preserve" fill-opacity="0.93333" fill="#007bff" fill-rule="nonzero" stroke-opacity="0.94118" stroke="#007dff" stroke-width="3" stroke-linecap="butt" stroke-linejoin="miter" stroke-miterlimit="10" stroke-dasharray="" stroke-dashoffset="0" font-family="Sans Serif" font-weight="normal" text-anchor="start" style="mix-blend-mode: normal"><tspan x="0" dy="0">空格键</tspan></text></g></g></svg>