<svg version="1.1" xmlns="http://www.w3.org/2000/svg" xmlns:xlink="http://www.w3.org/1999/xlink" width="40.66026" height="39.39285" viewBox="0,0,40.66026,39.39285"><g transform="translate(-219.66987,-160.30357)"><g data-paper-data="{&quot;isPaintingLayer&quot;:true}" fill-rule="nonzero" stroke-linejoin="miter" stroke-miterlimit="10" stroke-dasharray="" stroke-dashoffset="0" style="mix-blend-mode: normal"><path d="" fill="none" stroke="#000000" stroke-width="5.5" stroke-linecap="round"/><path d="" fill="none" stroke="#000000" stroke-width="5.5" stroke-linecap="round"/><path d="" data-paper-data="{&quot;index&quot;:null}" fill="none" stroke="#9f8200" stroke-width="2.5" stroke-linecap="round"/><g data-paper-data="{&quot;index&quot;:null}" fill="#9f8200" stroke="none" stroke-width="0" stroke-linecap="butt"><g><path d="M238.03603,170.16855c-0.86364,-0.86364 -1.01427,-2.11325 -0.33644,-2.79109c0.67784,-0.67784 1.92746,-0.52721 2.79109,0.33643c0.86364,0.86364 1.01427,2.11325 0.33643,2.79109c-0.67784,0.67784 -1.92745,0.52721 -2.79109,-0.33643z"/><path d="M245.3934,177.52591l-7.383,-7.383l2.45466,-2.45466l7.383,7.383z"/></g><g><path d="M230.16225,168.93594c-0.84463,-0.84463 -0.99193,-2.06672 -0.32903,-2.72963c0.66291,-0.66291 1.88501,-0.51561 2.72964,0.32902c0.84463,0.84463 0.99192,2.06672 0.32901,2.72963c-0.66291,0.66291 -1.885,0.51561 -2.72962,-0.32902z"/><path d="M241.67052,180.44418l-11.53332,-11.53333l2.40061,-2.40061l11.53332,11.53333z"/></g><g><path d="M227.9303,172.0233c-0.84463,-0.84463 -0.99194,-2.06672 -0.32903,-2.72963c0.66291,-0.66291 1.88501,-0.5156 2.72964,0.32902c0.84463,0.84463 0.99193,2.06672 0.32902,2.72963c-0.66291,0.66291 -1.885,0.51561 -2.72963,-0.32902z"/><path d="M239.43856,183.53154l-11.53333,-11.53333l2.40061,-2.4006l11.53332,11.53332z"/></g><g><path d="M227.00905,176.5181c-0.84463,-0.84463 -0.99194,-2.06672 -0.32903,-2.72963c0.66291,-0.66291 1.88502,-0.51561 2.72964,0.32902c0.84463,0.84463 0.99192,2.06672 0.32901,2.72963c-0.66291,0.66291 -1.885,0.51561 -2.72963,-0.32902z"/><path d="M238.51731,188.02635l-11.53333,-11.53333l2.40061,-2.40061l11.53333,11.53332z"/></g><g><path d="M227.00775,181.8181c-0.84463,-0.84463 -0.99193,-2.06672 -0.32902,-2.72963c0.66291,-0.66291 1.885,-0.5156 2.72963,0.32902c0.84463,0.84463 0.99193,2.06672 0.32902,2.72963c-0.66291,0.66291 -1.885,0.51561 -2.72963,-0.32902z"/><path d="M236.6676,191.47798l-9.68494,-9.68494l2.40061,-2.40061l9.68494,9.68494z"/></g><path d="M234.79296,189.35921l-2.24522,-2.25645c0,0 2.8903,-6.91464 5.15818,-9.18251c0.66365,-0.66366 1.76739,-2.68533 3.15121,-2.9339c0.9071,-0.16294 2.60281,1.26201 3.16207,0.79582c1.54053,-1.28415 0.64815,-3.83862 0.64815,-3.83862l4.29482,4.29482c0,0 3.41795,3.98747 2.33238,6.75133c-0.48045,1.54129 1.48915,2.18709 1.74704,3.86088c-0.26747,1.40179 -1.50556,3.01554 -2.75044,4.41291c-1.07381,1.20534 -2.94259,3.10197 -3.7456,3.37279c-1.02448,0.59056 -2.19453,-1.44925 -3.11512,-0.94234c-2.61529,2.099 -8.63746,-4.33475 -8.63746,-4.33475z"/></g><g fill="#ffd522" stroke="none" stroke-width="0" stroke-linecap="butt"><g><path d="M240.97226,169.8231c-0.86364,-0.86364 -1.01427,-2.11325 -0.33643,-2.79109c0.67784,-0.67784 1.92745,-0.52721 2.79109,0.33643c0.86364,0.86364 1.01427,2.11325 0.33643,2.79109c-0.67784,0.67784 -1.92745,0.52721 -2.79109,-0.33643z"/><path d="M248.32963,177.18046l-7.383,-7.383l2.45466,-2.45466l7.383,7.383z"/></g><g><path d="M233.09848,168.59048c-0.84463,-0.84463 -0.99193,-2.06672 -0.32903,-2.72963c0.66291,-0.66291 1.88501,-0.5156 2.72964,0.32902c0.84463,0.84463 0.99192,2.06672 0.32901,2.72963c-0.66291,0.66291 -1.885,0.5156 -2.72962,-0.32902z"/><path d="M244.60674,180.09875l-11.53332,-11.53332l2.40061,-2.40062l11.53332,11.53333z"/></g><g><path d="M230.86653,171.67785c-0.84463,-0.84463 -0.99193,-2.06672 -0.32903,-2.72963c0.66291,-0.66291 1.885,-0.5156 2.72963,0.32903c0.84463,0.84463 0.99193,2.06671 0.32902,2.72962c-0.66291,0.66291 -1.885,0.51561 -2.72962,-0.32902z"/><path d="M242.37479,183.18611l-11.53333,-11.53332l2.40061,-2.40061l11.53332,11.53333z"/></g><g><path d="M229.94527,176.17264c-0.84463,-0.84463 -0.99193,-2.06672 -0.32902,-2.72963c0.66291,-0.66291 1.88501,-0.5156 2.72963,0.32902c0.84463,0.84463 0.99193,2.06672 0.32902,2.72963c-0.66291,0.66291 -1.885,0.5156 -2.72963,-0.32902z"/><path d="M241.45354,187.6809l-11.53333,-11.53332l2.40061,-2.40062l11.53333,11.53333z"/></g><g><path d="M229.94397,181.47266c-0.84463,-0.84463 -0.99193,-2.06673 -0.32902,-2.72964c0.66291,-0.66291 1.885,-0.5156 2.72963,0.32903c0.84463,0.84463 0.99193,2.06671 0.32902,2.72962c-0.66291,0.66291 -1.885,0.51561 -2.72963,-0.32901z"/><path d="M239.60386,191.13252l-9.68494,-9.68494l2.40061,-2.40061l9.68494,9.68494z"/></g><path d="M237.72921,189.01377l-2.24522,-2.25645c0,0 2.8903,-6.91464 5.15818,-9.18251c0.66365,-0.66366 1.76738,-2.68532 3.1512,-2.93389c0.9071,-0.16294 2.60281,1.26201 3.16208,0.79582c1.54053,-1.28415 0.64815,-3.83862 0.64815,-3.83862l4.29482,4.29482c0,0 3.41795,3.98747 2.33238,6.75133c-0.48045,1.54129 1.48915,2.18709 1.74704,3.86089c-0.26747,1.40179 -1.50556,3.01553 -2.75044,4.4129c-1.07381,1.20534 -2.94259,3.10197 -3.7456,3.3728c-1.02448,0.59056 -2.19453,-1.44925 -3.11512,-0.94234c-2.61529,2.099 -8.63746,-4.33475 -8.63746,-4.33475z"/></g><path d="M247.30271,166.14899v-4.34542" fill="#ffffff" stroke="#ffffff" stroke-width="3" stroke-linecap="round"/><path d="M255.39001,164.15734l-4.88859,4.70753" fill="none" stroke="#ffffff" stroke-width="3" stroke-linecap="round"/><path d="M258.83013,171.21863l-5.79389,0.9053" fill="none" stroke="#ffffff" stroke-width="3" stroke-linecap="round"/><path d="M224.42893,193.85101l4.52647,-4.88859" fill="none" stroke="#ffffff" stroke-width="3" stroke-linecap="round"/><path d="M232.9387,192.76465l-1.26741,5.43177" fill="none" stroke="#ffffff" stroke-width="3" stroke-linecap="round"/><path d="M226.05846,185.88442l-4.88859,0.54318" fill="none" stroke="#ffffff" stroke-width="3" stroke-linecap="round"/></g></g></svg>