<svg version="1.1" xmlns="http://www.w3.org/2000/svg" xmlns:xlink="http://www.w3.org/1999/xlink" width="36.16269" height="36.16269" viewBox="0,0,36.16269,36.16269"><defs><radialGradient cx="240.00001" cy="180.00001" r="18.08134" gradientUnits="userSpaceOnUse" id="color-1"><stop offset="0" stop-color="#ffd92d"/><stop offset="1" stop-color="#ffd117"/></radialGradient></defs><g transform="translate(-221.91866,-161.91865)"><g data-paper-data="{&quot;isPaintingLayer&quot;:true}" fill-rule="nonzero" stroke-linejoin="miter" stroke-miterlimit="10" stroke-dasharray="" stroke-dashoffset="0" style="mix-blend-mode: normal"><path d="" fill="none" stroke="#000000" stroke-width="5.5" stroke-linecap="round"/><path d="" fill="none" stroke="#000000" stroke-width="5.5" stroke-linecap="round"/><path d="" data-paper-data="{&quot;index&quot;:null}" fill="none" stroke="#9f8200" stroke-width="2.5" stroke-linecap="round"/><path d="M221.91866,180.00001c0,-9.98606 8.09529,-18.08135 18.08134,-18.08135c9.98605,0 18.08135,8.09529 18.08135,18.08135c0,9.98606 -8.0953,18.08134 -18.08134,18.08134c-9.98605,0 -18.08134,-8.09529 -18.08134,-18.08134z" fill="url(#color-1)" stroke="#f1f1f1" stroke-width="0" stroke-linecap="butt"/><path d="M235.39775,178.17605v-7.38772" fill="none" stroke="#9f8200" stroke-width="4" stroke-linecap="round"/><path d="M244.23228,170.83746c0,0 0,3.47067 0,4.82676c0,0.98779 0,2.56095 0,2.56095" fill="none" stroke="#9f8200" stroke-width="4" stroke-linecap="round"/><path d="M232.93197,188.97711c0,0 1.80619,-4.28412 7.44608,-4.19932c0.73974,0.01112 1.41795,0.0893 2.03796,0.21664c4.0724,0.83639 5.6342,3.79322 5.6342,3.79322" fill="none" stroke="#9f8200" stroke-width="2.5" stroke-linecap="round"/></g></g></svg>