<svg version="1.1" xmlns="http://www.w3.org/2000/svg" xmlns:xlink="http://www.w3.org/1999/xlink" width="472.87786" height="360.53869" viewBox="0,0,472.87786,360.53869"><defs><linearGradient x1="334.06191" y1="130.70106" x2="317.29775" y2="130.70106" gradientUnits="userSpaceOnUse" id="color-1"><stop offset="0" stop-color="#1f1f1f"/><stop offset="1" stop-color="#1f1f1f" stop-opacity="0"/></linearGradient><linearGradient x1="301.90338" y1="131.39456" x2="318.66754" y2="131.39456" gradientUnits="userSpaceOnUse" id="color-2"><stop offset="0" stop-color="#333333"/><stop offset="1" stop-color="#333333" stop-opacity="0"/></linearGradient><linearGradient x1="334.06191" y1="229.23089" x2="317.29775" y2="229.23089" gradientUnits="userSpaceOnUse" id="color-3"><stop offset="0" stop-color="#1f1f1f"/><stop offset="1" stop-color="#1f1f1f" stop-opacity="0"/></linearGradient><linearGradient x1="275.22508" y1="180.13379" x2="246.88702" y2="180.13379" gradientUnits="userSpaceOnUse" id="color-4"><stop offset="0" stop-color="#4e4e4e"/><stop offset="1" stop-color="#000000"/></linearGradient><linearGradient x1="264.16994" y1="142.47449" x2="188.57829" y2="142.47449" gradientUnits="userSpaceOnUse" id="color-5"><stop offset="0" stop-color="#4e4e4e"/><stop offset="1" stop-color="#000000"/></linearGradient><linearGradient x1="178.04169" y1="180.13379" x2="156.93706" y2="180.13379" gradientUnits="userSpaceOnUse" id="color-6"><stop offset="0" stop-color="#4e4e4e"/><stop offset="1" stop-color="#000000"/></linearGradient><linearGradient x1="264.16994" y1="217.79309" x2="188.57829" y2="217.79309" gradientUnits="userSpaceOnUse" id="color-7"><stop offset="0" stop-color="#4e4e4e"/><stop offset="1" stop-color="#000000"/></linearGradient><radialGradient cx="302.00894" cy="180.13379" r="21.82669" gradientUnits="userSpaceOnUse" id="color-8"><stop offset="0" stop-color="#2b2b2b"/><stop offset="1" stop-color="#121212"/></radialGradient><linearGradient x1="304.32951" y1="171.74358" x2="304.32951" y2="179.76639" gradientUnits="userSpaceOnUse" id="color-9"><stop offset="0" stop-color="#232323"/><stop offset="1" stop-color="#4c4c4c"/></linearGradient><radialGradient cx="319.31601" cy="200.38414" r="16.7231" gradientUnits="userSpaceOnUse" id="color-10"><stop offset="0" stop-color="#000000"/><stop offset="1" stop-color="#272727"/></radialGradient><linearGradient x1="303.01692" y1="198.85389" x2="303.01692" y2="205.53928" gradientUnits="userSpaceOnUse" id="color-11"><stop offset="0" stop-color="#9d9d9d"/><stop offset="1" stop-color="#ebebeb"/></linearGradient><linearGradient x1="319.92705" y1="197.60141" x2="319.92705" y2="205.46658" gradientUnits="userSpaceOnUse" id="color-12"><stop offset="0" stop-color="#9d9d9d"/><stop offset="1" stop-color="#ebebeb"/></linearGradient><linearGradient x1="303.88933" y1="188.99808" x2="303.88933" y2="179.76753" gradientUnits="userSpaceOnUse" id="color-13"><stop offset="0" stop-color="#232323"/><stop offset="1" stop-color="#4c4c4c"/></linearGradient><linearGradient x1="297.8" y1="184.85399" x2="297.8" y2="180.27876" gradientUnits="userSpaceOnUse" id="color-14"><stop offset="0" stop-color="#101010"/><stop offset="1" stop-color="#202020"/></linearGradient><linearGradient x1="297.76944" y1="175.62741" x2="297.76944" y2="180.20264" gradientUnits="userSpaceOnUse" id="color-15"><stop offset="0" stop-color="#101010"/><stop offset="1" stop-color="#202020"/></linearGradient><linearGradient x1="313.36254" y1="171.80522" x2="314.00917" y2="177.78408" gradientUnits="userSpaceOnUse" id="color-16"><stop offset="0" stop-color="#454545"/><stop offset="1" stop-color="#848484"/></linearGradient><linearGradient x1="313.19025" y1="188.61198" x2="313.83689" y2="182.63311" gradientUnits="userSpaceOnUse" id="color-17"><stop offset="0" stop-color="#454545"/><stop offset="1" stop-color="#848484"/></linearGradient><linearGradient x1="307.91678" y1="171.8812" x2="308.55708" y2="177.72935" gradientUnits="userSpaceOnUse" id="color-18"><stop offset="0" stop-color="#616161"/><stop offset="1" stop-color="#e8e8e8"/></linearGradient><linearGradient x1="304.75457" y1="172.49701" x2="305.39487" y2="178.34514" gradientUnits="userSpaceOnUse" id="color-19"><stop offset="0" stop-color="#616161"/><stop offset="1" stop-color="#e8e8e8"/></linearGradient><linearGradient x1="305.1303" y1="182.33143" x2="304.48999" y2="188.17957" gradientUnits="userSpaceOnUse" id="color-20"><stop offset="0" stop-color="#616161"/><stop offset="1" stop-color="#e8e8e8"/></linearGradient><linearGradient x1="308.20471" y1="182.77162" x2="307.5644" y2="188.61975" gradientUnits="userSpaceOnUse" id="color-21"><stop offset="0" stop-color="#616161"/><stop offset="1" stop-color="#e8e8e8"/></linearGradient><linearGradient x1="332.58699" y1="196.57903" x2="332.58699" y2="207.43186" gradientUnits="userSpaceOnUse" id="color-22"><stop offset="0" stop-color="#9d9d9d"/><stop offset="1" stop-color="#ebebeb"/></linearGradient><radialGradient cx="319.31601" cy="160.24273" r="16.7231" gradientUnits="userSpaceOnUse" id="color-23"><stop offset="0" stop-color="#000000"/><stop offset="1" stop-color="#272727"/></radialGradient><linearGradient x1="303.01693" y1="161.77298" x2="303.01693" y2="155.08758" gradientUnits="userSpaceOnUse" id="color-24"><stop offset="0" stop-color="#9d9d9d"/><stop offset="1" stop-color="#ebebeb"/></linearGradient><linearGradient x1="319.92705" y1="163.02544" x2="319.92705" y2="155.16028" gradientUnits="userSpaceOnUse" id="color-25"><stop offset="0" stop-color="#9d9d9d"/><stop offset="1" stop-color="#ebebeb"/></linearGradient><linearGradient x1="332.58699" y1="164.04785" x2="332.58699" y2="153.195" gradientUnits="userSpaceOnUse" id="color-26"><stop offset="0" stop-color="#9d9d9d"/><stop offset="1" stop-color="#ebebeb"/></linearGradient><linearGradient x1="197.33762" y1="177.39108" x2="204.04552" y2="166.65989" gradientUnits="userSpaceOnUse" id="color-27"><stop offset="0" stop-color="#84c128"/><stop offset="1" stop-color="#bec981"/></linearGradient><linearGradient x1="187.838" y1="185.40554" x2="194.5459" y2="174.67436" gradientUnits="userSpaceOnUse" id="color-28"><stop offset="0" stop-color="#84c128"/><stop offset="1" stop-color="#bec981"/></linearGradient><linearGradient x1="327.93733" y1="129.71578" x2="329.36349" y2="134.75209" gradientUnits="userSpaceOnUse" id="color-29"><stop offset="0" stop-color="#84c128"/><stop offset="1" stop-color="#bec981"/></linearGradient><linearGradient x1="326.48885" y1="125.90038" x2="327.915" y2="130.93668" gradientUnits="userSpaceOnUse" id="color-30"><stop offset="0" stop-color="#84c128"/><stop offset="1" stop-color="#bec981"/></linearGradient><linearGradient x1="325.45083" y1="230.05516" x2="326.87697" y2="225.01885" gradientUnits="userSpaceOnUse" id="color-31"><stop offset="0" stop-color="#84c128"/><stop offset="1" stop-color="#bec981"/></linearGradient><linearGradient x1="324.00233" y1="233.87056" x2="325.42849" y2="228.83426" gradientUnits="userSpaceOnUse" id="color-32"><stop offset="0" stop-color="#84c128"/><stop offset="1" stop-color="#bec981"/></linearGradient><linearGradient x1="232.86558" y1="216.04644" x2="232.86558" y2="225.78851" gradientUnits="userSpaceOnUse" id="color-33"><stop offset="0" stop-color="#141414" stop-opacity="0"/><stop offset="1" stop-color="#141414"/></linearGradient><linearGradient x1="232.86558" y1="143.59472" x2="232.86558" y2="133.85268" gradientUnits="userSpaceOnUse" id="color-34"><stop offset="0" stop-color="#141414" stop-opacity="0"/><stop offset="1" stop-color="#141414"/></linearGradient><linearGradient x1="302.19473" y1="228.53739" x2="318.9589" y2="228.53739" gradientUnits="userSpaceOnUse" id="color-35"><stop offset="0" stop-color="#333333"/><stop offset="1" stop-color="#333333" stop-opacity="0"/></linearGradient><linearGradient x1="183.80409" y1="130.80199" x2="165.65483" y2="130.80199" gradientUnits="userSpaceOnUse" id="color-36"><stop offset="0" stop-color="#1f1f1f"/><stop offset="1" stop-color="#1f1f1f" stop-opacity="0"/></linearGradient><linearGradient x1="148.85893" y1="131.49549" x2="167.00819" y2="131.49549" gradientUnits="userSpaceOnUse" id="color-37"><stop offset="0" stop-color="#333333"/><stop offset="1" stop-color="#333333" stop-opacity="0"/></linearGradient><linearGradient x1="184.15262" y1="229.08967" x2="166.00336" y2="229.08967" gradientUnits="userSpaceOnUse" id="color-38"><stop offset="0" stop-color="#1f1f1f"/><stop offset="1" stop-color="#1f1f1f" stop-opacity="0"/></linearGradient><linearGradient x1="149.20746" y1="228.39617" x2="167.35672" y2="228.39617" gradientUnits="userSpaceOnUse" id="color-39"><stop offset="0" stop-color="#333333"/><stop offset="1" stop-color="#333333" stop-opacity="0"/></linearGradient><linearGradient x1="136.29665" y1="178.91309" x2="117.12382" y2="178.91309" gradientUnits="userSpaceOnUse" id="color-40"><stop offset="0" stop-color="#141414" stop-opacity="0"/><stop offset="1" stop-color="#141414"/></linearGradient><radialGradient cx="212.84897" cy="209.68957" r="33.0637" gradientUnits="userSpaceOnUse" id="color-41"><stop offset="0" stop-color="#989898"/><stop offset="1" stop-color="#989898" stop-opacity="0"/></radialGradient><radialGradient cx="212.21844" cy="151.93547" r="33.06371" gradientUnits="userSpaceOnUse" id="color-42"><stop offset="0" stop-color="#989898"/><stop offset="1" stop-color="#989898" stop-opacity="0"/></radialGradient></defs><g transform="translate(-4.42566,-1.0961)"><g data-paper-data="{&quot;isPaintingLayer&quot;:true}" fill-rule="nonzero" stroke-linejoin="miter" stroke-miterlimit="10" stroke-dasharray="" stroke-dashoffset="0" style="mix-blend-mode: normal"><path d="M338.05454,129.75058h10.0548l4.08477,1.04737l2.19948,1.25685l2.72318,2.72317l2.72317,5.0274l3.14213,9.42639l3.24686,14.03483l1.6758,12.67325v8.38786l-1.6758,12.67325l-3.24687,14.03484l-3.14213,9.42638l-2.72318,5.0274l-2.72318,2.72318l-2.19949,1.25685l-4.08477,1.04737h-10.0548" data-paper-data="{&quot;index&quot;:null}" fill="#252525" stroke="#000000" stroke-width="0.5" stroke-linecap="round"/><path d="M360.85824,185.78872l-1.36159,12.50186l-2.10427,11.14028l-2.10428,7.05551l-3.46587,6.4366l-1.98049,2.35183l-2.5994,1.23781l-6.68416,0.49512l-3.24014,4.31777l-2.24262,2.4028l-1.12131,0.48056l-31.23645,-0.64075l-5.92691,-4.48523l-1.60188,-2.24262h-30.35541l-17.94094,1.12131l-48.37645,2.80327h-8.40981l-2.4028,2.80327h-39.00552l-3.6042,-3.92458l-2.08243,-3.52411l-12.01401,-0.40046l-10.89271,-0.96113l-0.40046,1.04121l-3.44402,-1.60187l-2.72317,-1.52178l-0.96112,-1.60187l-0.48056,-2.08244v-21.62523v-34.57577v-21.62523l0.48056,-2.08243l0.96112,-1.60187l2.72317,-1.52177l3.44402,-1.60188l0.40046,1.04121l10.89271,-0.96113l12.01402,-0.40046l2.08243,-3.52411l3.6042,-3.92458h39.00552l2.4028,2.80327h8.40981l48.37645,2.80328l17.94094,1.12131h30.35542l1.60187,-2.24262l5.92692,-4.48523l31.23645,-0.64074l1.12131,0.48055l2.24262,2.40281l3.24014,4.31777l6.68417,0.49512l2.59939,1.23781l1.98049,2.35183l3.46587,6.4366l2.10428,7.05551l2.10427,11.14027l1.36159,12.50187z" data-paper-data="{&quot;index&quot;:null}" fill="#4c4c4c" stroke="#000000" stroke-width="0.5" stroke-linecap="round"/><path d="M334.96898,125.79117l5.10224,7.06924c0,0 -9.33939,1.52286 -13.47327,1.98863c-3.45295,0.38905 -9.65688,0.61749 -9.65688,0.61749l0.35668,-8.95331z" data-paper-data="{&quot;index&quot;:null}" fill="url(#color-1)" stroke="none" stroke-width="0.5" stroke-linecap="butt"/><path d="M318.66754,127.20671l-0.0321,8.04615c0,0 -5.81515,0.41952 -9.2681,0.03047c-1.71662,-0.19341 -5.32293,-0.11777 -7.74103,-0.56942c-3.40505,-0.63598 -5.47304,-1.5488 -5.47304,-1.5488c0,0 0.07487,-1.39998 0.85711,-2.11155c1.27389,-1.15881 6.05945,-4.18013 6.05945,-4.18013z" data-paper-data="{&quot;index&quot;:null}" fill="url(#color-2)" stroke="none" stroke-width="0.5" stroke-linecap="butt"/><path d="M317.29775,233.41873l-0.35668,-8.95331c0,0 6.20393,0.22844 9.65688,0.61749c4.13388,0.46578 13.47327,1.98863 13.47327,1.98863l-5.10224,7.06923z" data-paper-data="{&quot;index&quot;:null}" fill="url(#color-3)" stroke="none" stroke-width="0.5" stroke-linecap="butt"/><path d="M249.9506,174.91076l-0.51059,-10.29701l-1.27649,-10.12681l-1.19139,-6.21225l-0.0851,-1.78708l1.44669,-0.6808l19.91324,-4.08476l1.95729,2.80827l1.36159,2.72318l1.70198,6.80794l1.27649,9.95662l0.68079,9.36092v13.50965l-0.68079,9.36092l-1.27649,9.95661l-1.70198,6.80795l-1.36159,2.72317l-1.95729,2.80828l-19.91324,-4.08477l-1.44669,-0.68079l0.0851,-1.78709l1.19139,-6.21225l1.27649,-10.12681l0.51059,-10.29702z" data-paper-data="{&quot;index&quot;:null}" fill="url(#color-4)" stroke="#000000" stroke-width="0.5" stroke-linecap="round"/><path d="M123.57229,181.49773l-4.84628,1.98349l0.04565,-6.94443l8.12144,-1.03199l2.38066,3.51l7.35199,-3.01327l2.52457,3.76927l9.6327,-0.39646l-11.78041,4.34677l-2.55516,-2.30176l-7.63564,4.15552z" data-paper-data="{&quot;index&quot;:null}" fill="#3e3e3e" stroke="none" stroke-width="0.5" stroke-linecap="butt"/><path d="M124.59312,159.31737l-5.29952,0.8093l0.74912,-6.81244l8.1272,0.77898l2.20879,4.02151l7.45187,-1.36334l2.34015,4.31147l9.60187,1.7473l-11.91853,1.70544l-2.43741,-2.8582l-7.78609,2.43672z" data-paper-data="{&quot;index&quot;:null}" fill="#3e3e3e" stroke="none" stroke-width="0.5" stroke-linecap="butt"/><path d="M127.24106,196.77464l7.78609,2.43671l2.4374,-2.8582l11.91853,1.70544l-9.60187,1.7473l-2.34015,4.31147l-7.45186,-1.36334l-2.20879,4.02151l-8.12722,0.77898l-0.74911,-6.81244l5.29952,0.8093z" data-paper-data="{&quot;index&quot;:null}" fill="#3e3e3e" stroke="none" stroke-width="0.5" stroke-linecap="butt"/><path d="M147.93325,153.3414l3.33073,-0.53628l0.16715,4.38092l-5.86803,-0.38288l-1.46363,-2.66483l-4.93794,0.90341l-1.55069,-2.85697l-6.36262,-1.15784l7.89774,-1.13009l1.61513,1.89396l5.1594,-1.61467z" data-paper-data="{&quot;index&quot;:null}" fill="#3e3e3e" stroke="none" stroke-width="0.5" stroke-linecap="butt"/><path d="M146.01097,212.42894l-5.1594,-1.61468l-1.61513,1.89397l-7.89774,-1.13009l6.36262,-1.15784l1.55069,-2.85696l4.93794,0.9034l1.46363,-2.66483l5.86803,-0.38288l-0.16715,4.38092l-3.33073,-0.53629z" data-paper-data="{&quot;index&quot;:null}" fill="#3e3e3e" stroke="none" stroke-width="0.5" stroke-linecap="butt"/><path d="M341.22096,184.34103l-14.88037,-3.41423l-4.9795,1.89115l-22.95769,-3.57135l18.77223,0.32573l4.91989,-3.09688l14.32757,2.47575l4.63946,-2.88387l15.82708,0.84789l0.08897,5.70564l-9.44444,-1.62966z" data-paper-data="{&quot;index&quot;:null}" fill="#3e3e3e" stroke="none" stroke-width="0.5" stroke-linecap="butt"/><path d="M339.62531,166.69218l-15.17355,-2.00203l-4.75002,2.34833l-23.22686,-1.40121l18.71215,-1.43561l4.56051,-3.54235l14.52222,1.12013l4.30449,-3.30412l15.83833,-0.64001l1.45988,5.59718l-10.32772,-0.66493z" data-paper-data="{&quot;index&quot;:null}" fill="#3e3e3e" stroke="none" stroke-width="0.5" stroke-linecap="butt"/><path d="M346.30382,197.46753l10.32772,-0.66493l-1.45987,5.59718l-15.83834,-0.64002l-4.30449,-3.30412l-14.52222,1.12013l-4.56051,-3.54235l-18.71215,-1.4356l23.22687,-1.40121l4.75002,2.34833l15.17356,-2.00203z" data-paper-data="{&quot;index&quot;:null}" fill="#3e3e3e" stroke="none" stroke-width="0.5" stroke-linecap="butt"/><path d="M303.98186,155.25702l10.05466,1.32663l3.14757,-1.5561l15.39113,0.9285l-12.39949,0.9513l-3.02198,2.34731l-9.62306,-0.74224l-2.85234,2.18946l-11.43562,0.31458l0.32574,-3.59942l6.49093,0.44061z" data-paper-data="{&quot;index&quot;:null}" fill="#3e3e3e" stroke="none" stroke-width="0.5" stroke-linecap="butt"/><path d="M299.88307,203.80402l-6.49093,0.44062l-0.32574,-3.59942l11.43562,0.31459l2.85233,2.18945l9.62306,-0.74224l3.02199,2.34732l12.39948,0.95129l-15.39113,0.9285l-3.14757,-1.55611l-10.05465,1.32664z" data-paper-data="{&quot;index&quot;:null}" fill="#3e3e3e" stroke="none" stroke-width="0.5" stroke-linecap="butt"/><path d="M264.16994,139.89217l-14.74272,3.56831l-5.44635,0.84512l-9.39026,0.75122h-29.01593l-5.54026,-0.09391l-3.2866,-0.84512l-4.60123,-2.06586l-3.5683,-2.15976z" data-paper-data="{&quot;index&quot;:null}" fill="url(#color-5)" stroke="#000000" stroke-width="0.5" stroke-linecap="round"/><path d="M114.818,137.13769v32.47642v21.03937v32.47641" data-paper-data="{&quot;index&quot;:null}" fill="none" stroke="#000000" stroke-width="0.5" stroke-linecap="round"/><path d="M119.35663,144.19778l6.15236,-0.70601l26.82835,-0.20172l8.16953,0.30257" data-paper-data="{&quot;index&quot;:null}" fill="none" stroke="#000000" stroke-width="0.5" stroke-linecap="round"/><path d="M153.74935,216.87667l-1.10944,-7.06009l-0.38875,-9.75101l-0.21641,-29.34202l0.60515,-20.27255l1.10945,-7.06009" data-paper-data="{&quot;index&quot;:null}" fill="none" stroke="#000000" stroke-width="0.5" stroke-linecap="round"/><path d="M270.64427,133.80936l-0.60516,2.01717l-1.31116,2.21889l-1.41202,1.41201l-3.83262,0.30257" data-paper-data="{&quot;index&quot;:null}" fill="none" stroke="#000000" stroke-width="0.5" stroke-linecap="round"/><path d="M265.14244,133.51688l-39.55415,0.40847h-20.55999l-1.08927,-1.70198l-2.04238,-1.29351l-2.72318,-0.40848l-5.10595,0.47655l-2.58702,0.81695l-1.42967,-2.6551" data-paper-data="{&quot;index&quot;:null}" fill="none" stroke="#000000" stroke-width="0.5" stroke-linecap="round"/><path d="M191.48049,131.67873l-1.6339,1.22543l-3.13165,1.02119l-4.56132,0.81696l-4.49324,0.74887l-7.89721,0.06808h-15.59019l-6.6037,-0.88503l-4.49325,-0.40848" data-paper-data="{&quot;index&quot;:null}" fill="none" stroke="#000000" stroke-width="0.5" stroke-linecap="round"/><path d="M203.054,139.50786l0.06808,-2.17854l0.40847,-1.83814l0.95311,-1.42966l0.40848,-0.40848" data-paper-data="{&quot;index&quot;:null}" fill="none" stroke="#000000" stroke-width="0.5" stroke-linecap="round"/><path d="M346.95724,133.94008l0.83791,3.14213l1.57107,9.00743l1.04737,2.09475l1.15211,1.88528l2.61845,2.40896l0.8379,1.25685l1.36159,10.36902l1.25685,12.56851v6.92153l-1.25685,12.56851l-1.36159,10.36902l-0.8379,1.25685l-2.61845,2.40897l-1.15211,1.88527l-1.04737,2.09475l-1.57107,9.00744l-0.83791,3.14212" data-paper-data="{&quot;index&quot;:null}" fill="none" stroke="#000000" stroke-width="0.5" stroke-linecap="round"/><path d="M350.93728,148.91756l-67.24153,-1.6758l-12.2543,-0.52368" data-paper-data="{&quot;index&quot;:null}" fill="none" stroke="#000000" stroke-width="0.5" stroke-linecap="round"/><path d="M272.24738,149.7205l23.56596,0.62843l37.81027,1.46632l20.94752,1.15212" data-paper-data="{&quot;index&quot;:null}" fill="none" stroke="#000000" stroke-width="0.5" stroke-linecap="round"/><path d="M285.13011,147.31154l1.04737,6.91269l1.36159,14.03483" data-paper-data="{&quot;index&quot;:null}" fill="none" stroke="#000000" stroke-width="0.5" stroke-linecap="round"/><path d="M340.10466,133.25131l-6.35408,0.74268l-8.08701,1.56789l-7.42685,0.66016l-8.08701,-0.24756l-8.74718,-0.57764l-6.60164,-2.06302" data-paper-data="{&quot;index&quot;:null}" fill="none" stroke="#000000" stroke-width="0.5" stroke-linecap="round"/><path d="M344.80832,133.99399l0.74269,1.48537l0.82521,3.79595l2.22805,9.57238" data-paper-data="{&quot;index&quot;:null}" fill="none" stroke="#000000" stroke-width="0.5" stroke-linecap="round"/><path d="M345.63353,136.30458h-153.81826l-14.60613,-0.74268" data-paper-data="{&quot;index&quot;:null}" fill="none" stroke="#000000" stroke-width="0.5" stroke-linecap="round"/><path d="M159.21965,135.39684l-12.95572,1.07277l-15.34882,0.66016l-11.96548,0.41261" data-paper-data="{&quot;index&quot;:null}" fill="none" stroke="#000000" stroke-width="0.5" stroke-linecap="round"/><path d="M121.67281,143.56636l-0.08252,-4.29106l0.80163,-1.7683" data-paper-data="{&quot;index&quot;:null}" fill="none" stroke="#000000" stroke-width="0.5" stroke-linecap="round"/><path d="M159.35485,143.54193l1.32993,-2.27988l1.7099,-1.13993l5.50968,-0.94995l10.19608,0.18999l10.4494,0.50664" data-paper-data="{&quot;index&quot;:null}" fill="none" stroke="#000000" stroke-width="0.5" stroke-linecap="round"/><path d="M156.93706,175.16605l0.7659,-14.80728l1.70199,-12.85l0.85099,-3.48907l0.93609,-0.51059l2.97848,0.25529l13.19039,4.51027l0.68079,1.10629v2.55298l-0.5957,12.93509v30.52951l0.5957,12.93509v2.55298l-0.68079,1.10629l-13.19039,4.51026l-2.97848,0.2553l-0.93609,-0.5106l-0.85099,-3.48907l-1.70199,-12.84999l-0.7659,-14.80728z" data-paper-data="{&quot;index&quot;:null}" fill="url(#color-6)" stroke="#000000" stroke-width="0.5" stroke-linecap="round"/><path d="M188.57829,220.37541l3.5683,-2.15977l4.60123,-2.06585l3.2866,-0.84512l5.54026,-0.09391h29.01593l9.39027,0.75123l5.44635,0.84512l14.74272,3.5683z" data-paper-data="{&quot;index&quot;:null}" fill="url(#color-7)" stroke="#000000" stroke-width="0.5" stroke-linecap="round"/><path d="M120.1635,224.64277l-1.31115,-1.81545v-2.4206l0.30258,-4.43777l-0.20172,-1.61374v-24.50859v-19.42564v-24.50859l0.20172,-1.61374l-0.30258,-4.43777v-2.42061l1.31115,-1.81545" data-paper-data="{&quot;index&quot;:null}" fill="none" stroke="#000000" stroke-width="0.5" stroke-linecap="round"/><path d="M160.50687,216.67494l-8.16953,0.30258l-26.82834,-0.20172l-6.15236,-0.70601" data-paper-data="{&quot;index&quot;:null}" fill="none" stroke="#000000" stroke-width="0.5" stroke-linecap="round"/><path d="M263.48332,220.50757l3.83262,0.30258l1.41202,1.41201l1.31116,2.21888l0.60516,2.01717" data-paper-data="{&quot;index&quot;:null}" fill="none" stroke="#000000" stroke-width="0.5" stroke-linecap="round"/><path d="M190.05082,231.10778l1.42967,-2.6551l2.58702,0.81695l5.10595,0.47656l2.72318,-0.40848l2.04238,-1.29351l1.08927,-1.70199h20.55999l39.55415,0.40848" data-paper-data="{&quot;index&quot;:null}" fill="none" stroke="#000000" stroke-width="0.5" stroke-linecap="round"/><path d="M143.07601,226.00183l4.49325,-0.40848l6.6037,-0.88503h15.59019l7.89721,0.06808l4.49324,0.74887l4.56132,0.81696l3.13165,1.02119l1.6339,1.22543" data-paper-data="{&quot;index&quot;:null}" fill="none" stroke="#000000" stroke-width="0.5" stroke-linecap="round"/><path d="M204.89214,226.61455l-0.40848,-0.40848l-0.95311,-1.42967l-0.40847,-1.83814l-0.06808,-2.17854" data-paper-data="{&quot;index&quot;:null}" fill="none" stroke="#000000" stroke-width="0.5" stroke-linecap="round"/><path d="M271.44144,213.54952l12.2543,-0.52369l67.24154,-1.6758" data-paper-data="{&quot;index&quot;:null}" fill="none" stroke="#000000" stroke-width="0.5" stroke-linecap="round"/><path d="M323.83561,177.71089c0.2142,1.87897 0.00001,4.84581 0.00001,4.84581c0,0 -0.26676,1.29421 -0.82521,2.3931c-0.55845,1.09888 -0.53068,1.53234 -1.73293,2.64066c-1.20225,1.10832 -1.68876,1.52942 -3.54839,2.22805c-2.20826,0.8296 -2.8256,1.94806 -11.5485,2.13492c-0.16181,0.00347 -0.32826,0.007 -0.4995,0.01062c-9.40168,0.19845 -24.096,0 -24.096,0l-1.2378,-1.07277l-0.16505,-1.32033v-4.95123v-8.97185v-4.95123l0.16505,-1.32032l1.2378,-1.07277h24.096l7.17928,0.66017c0,0 3.37,0.82417 4.86872,1.48538c1.49872,0.6612 2.64141,1.39195 3.54838,2.22806c0.90697,0.83611 2.34394,3.15478 2.55814,5.03375z" data-paper-data="{&quot;index&quot;:null}" fill="url(#color-8)" stroke="#000000" stroke-width="0.5" stroke-linecap="round"/><path d="M354.57113,207.30021l-20.94752,1.15211l-37.81027,1.46633l-23.56596,0.62842" data-paper-data="{&quot;index&quot;:null}" fill="none" stroke="#000000" stroke-width="0.5" stroke-linecap="round"/><path d="M287.53907,192.00852l-1.36159,14.03484l-1.04737,6.91268" data-paper-data="{&quot;index&quot;:null}" fill="none" stroke="#000000" stroke-width="0.5" stroke-linecap="round"/><path d="M294.80089,226.93375l6.60164,-2.06302l8.74718,-0.57764l8.087,-0.24756l7.42685,0.66016l8.08701,1.56789l6.35408,0.74268" data-paper-data="{&quot;index&quot;:null}" fill="none" stroke="#000000" stroke-width="0.5" stroke-linecap="round"/><path d="M280.62154,179.76639v-8.02281l39.16205,-0.14327c0,0 2.24339,2.3178 2.78362,3.75328c0.47605,1.26493 1.0799,4.42898 1.0799,4.42898z" data-paper-data="{&quot;index&quot;:null}" fill="url(#color-9)" stroke="#000000" stroke-width="0.5" stroke-linecap="butt"/><path d="M348.60427,211.41989l-2.22805,9.57238l-0.82521,3.79594l-0.74269,1.48537" data-paper-data="{&quot;index&quot;:null}" fill="none" stroke="#000000" stroke-width="0.5" stroke-linecap="round"/><path d="M177.20913,224.70569l14.60613,-0.74268h153.81826" data-paper-data="{&quot;index&quot;:null}" fill="none" stroke="#000000" stroke-width="0.5" stroke-linecap="round"/><path d="M118.94963,222.7252l11.96548,0.4126l15.34882,0.66017l12.95573,1.07277" data-paper-data="{&quot;index&quot;:null}" fill="none" stroke="#000000" stroke-width="0.5" stroke-linecap="round"/><path d="M122.39192,222.76057l-0.80163,-1.76829l0.08251,-4.29107" data-paper-data="{&quot;index&quot;:null}" fill="none" stroke="#000000" stroke-width="0.5" stroke-linecap="round"/><path d="M188.54984,220.39878l-10.4494,0.50663l-10.19608,0.18999l-5.50968,-0.94994l-1.70991,-1.13994l-1.32992,-2.27987" data-paper-data="{&quot;index&quot;:null}" fill="none" stroke="#000000" stroke-width="0.5" stroke-linecap="round"/><path d="M302.49709,206.07515l-1.1172,-0.97755l-0.62843,-3.49125l0.55861,-2.02493l1.53615,-1.6758l1.88528,-0.90773h11.66078l2.02493,-1.04737l2.65336,-1.1172l0.90772,-0.76808l1.11721,-3.21195l0.90772,-1.18703l0.97755,-0.41895l1.3965,0.69825l0.69825,1.18702l0.76807,3.3516l0.5586,0.97755h4.25934l0.90772,0.69825l0.62843,0.8379v8.79796l-0.48878,1.3965l-1.12608,1.02824h-13.03825l-2.06302,-0.90773l-2.55813,-1.07277h-11.22279z" data-paper-data="{&quot;index&quot;:null}" fill="url(#color-10)" stroke="#000000" stroke-width="0.5" stroke-linecap="round"/><path d="M296.4495,204.5168l-3.14607,1.02247l-2.21555,-4.4007l4.33916,-1.89145l2.91011,-0.39325h14.78653l0.1573,5.34832h-14.55057z" data-paper-data="{&quot;index&quot;:null}" fill="url(#color-11)" stroke="#000000" stroke-width="0.5" stroke-linecap="round"/><path d="M290.31467,203.45501c0,-1.49862 1.17966,-2.71348 2.63484,-2.71348c1.45517,0 2.63483,1.21487 2.63483,2.71348c0,1.49862 -1.17965,2.71349 -2.63483,2.71349c-1.45518,0 -2.63484,-1.21487 -2.63484,-2.71349z" data-paper-data="{&quot;index&quot;:null}" fill="#272727" stroke="#000000" stroke-width="0.5" stroke-linecap="butt"/><path d="M326.33716,205.46658h-11.2472l-2.91011,-1.02247v-5.82022l2.2809,-1.02248l4.48314,1.10112l8.17978,-0.23595l0.55056,6.29215l-0.86517,0.4719z" data-paper-data="{&quot;index&quot;:null}" fill="url(#color-12)" stroke="#000000" stroke-width="0.5" stroke-linecap="round"/><path d="M323.64596,179.58654c0,0 -0.37304,3.92081 -1.15395,5.52949c-0.70378,1.44982 -3.32422,3.95908 -3.32422,3.95908l-38.45959,-0.07702v-9.23055z" data-paper-data="{&quot;index&quot;:null}" fill="url(#color-13)" stroke="#000000" stroke-width="0.5" stroke-linecap="butt"/><path d="M312.35865,180.18904c0,0 -0.19595,1.94339 -0.77458,2.74076c-0.52148,0.71863 -2.46315,1.96237 -2.46315,1.96237l-28.4975,-0.03818v-4.65571z" data-paper-data="{&quot;index&quot;:null}" fill="url(#color-14)" stroke="#000000" stroke-width="0.5" stroke-linecap="butt"/><path d="M280.64856,175.44253v-1.50731h33.41201v1.50731z" data-paper-data="{&quot;index&quot;:null}" fill="#1f1f1f" stroke="none" stroke-width="0.5" stroke-linecap="butt"/><path d="M280.63631,180.20264v-4.57523l28.42542,-0.03817c0,0 1.93676,1.24375 2.45692,1.96237c0.57716,0.79737 0.85289,2.74076 0.85289,2.74076z" data-paper-data="{&quot;index&quot;:null}" fill="url(#color-15)" stroke="#000000" stroke-width="0.5" stroke-linecap="butt"/><path d="M333.33716,207.11232l-1.25843,-1.25843h-5.50562v-7.78652h5.58427l1.25843,-1.57304z" data-paper-data="{&quot;index&quot;:null}" fill="#3d3d3d" stroke="#000000" stroke-width="0.5" stroke-linecap="round"/><path d="M280.81439,186.4559v-1.50731h33.41201v1.50731z" data-paper-data="{&quot;index&quot;:null}" fill="#1f1f1f" stroke="none" stroke-width="0.5" stroke-linecap="butt"/><path d="M309.17735,172.25788l9.99269,-1.09008c0,0 1.90911,1.27612 2.60102,2.06387c0.58718,0.6685 1.28808,2.36387 1.28808,2.36387l-13.0128,1.40738z" data-paper-data="{&quot;index&quot;:null}" fill="url(#color-16)" stroke="#000000" stroke-width="0.5" stroke-linecap="round"/><path d="M309.87406,183.41428l13.01279,1.40738c0,0 -0.7009,1.69538 -1.28808,2.36388c-0.69192,0.78775 -2.60102,2.06387 -2.60102,2.06387l-9.9927,-1.09008z" data-paper-data="{&quot;index&quot;:null}" fill="url(#color-17)" stroke="#000000" stroke-width="0.5" stroke-linecap="round"/><path d="M302.84226,187.83418l0.71561,-5.39463l6.57472,0.87215l-0.71562,5.39464z" data-paper-data="{&quot;index&quot;:null}" fill="#0f0f0f" stroke="none" stroke-width="0.5" stroke-linecap="butt"/><path d="M303.68313,178.29461l-0.64177,-5.40392l6.58602,-0.78216l0.64178,5.40392z" data-paper-data="{&quot;index&quot;:null}" fill="#0f0f0f" stroke="none" stroke-width="0.5" stroke-linecap="butt"/><path d="M307.90245,177.80103l-0.64031,-5.84814l1.30928,-0.14335l0.64031,5.84813z" data-paper-data="{&quot;index&quot;:null}" fill="url(#color-18)" stroke="none" stroke-width="0.5" stroke-linecap="butt"/><path d="M304.74023,178.41683l-0.64031,-5.84814l1.30928,-0.14335l0.64031,5.84814z" data-paper-data="{&quot;index&quot;:null}" fill="url(#color-19)" stroke="none" stroke-width="0.5" stroke-linecap="butt"/><path d="M303.83535,188.10789l0.64031,-5.84814l1.30928,0.14335l-0.64031,5.84814z" data-paper-data="{&quot;index&quot;:null}" fill="url(#color-20)" stroke="none" stroke-width="0.5" stroke-linecap="butt"/><path d="M306.90976,188.54808l0.6403,-5.84814l1.30928,0.14336l-0.6403,5.84813z" data-paper-data="{&quot;index&quot;:null}" fill="url(#color-21)" stroke="none" stroke-width="0.5" stroke-linecap="butt"/><path d="M331.55339,205.15793c0,-2.21718 0,-5.42385 0,-6.61506c0,-1.61414 2.06721,-1.96385 2.06721,-1.96385v10.85284c0,0 -2.06721,-0.03412 -2.06721,-2.27392z" data-paper-data="{&quot;index&quot;:null}" fill="url(#color-22)" stroke="#000000" stroke-width="0.5" stroke-linecap="butt"/><path d="M300.24485,174.07228c0.30455,0 0.55145,0.25865 0.55145,0.57771c0,0.31906 -0.24689,0.57771 -0.55145,0.57771c-0.30456,0 -0.55145,-0.25865 -0.55145,-0.57771c0,-0.31906 0.2469,-0.57771 0.55145,-0.57771z" data-paper-data="{&quot;index&quot;:null}" fill="#989898" stroke="none" stroke-width="0.5" stroke-linecap="butt"/><path d="M294.7985,174.13719c0.30455,0 0.55145,0.25864 0.55145,0.5777c0,0.31906 -0.24689,0.57771 -0.55145,0.57771c-0.30456,0 -0.55146,-0.25865 -0.55146,-0.57771c0,-0.31906 0.2469,-0.5777 0.55146,-0.5777z" data-paper-data="{&quot;index&quot;:null}" fill="#989898" stroke="none" stroke-width="0.5" stroke-linecap="butt"/><path d="M289.35214,174.07397c0.30455,0 0.55145,0.25864 0.55145,0.5777c0,0.31906 -0.24689,0.57771 -0.55145,0.57771c-0.30456,0 -0.55145,-0.25865 -0.55145,-0.57771c0,-0.31906 0.2469,-0.5777 0.55145,-0.5777z" data-paper-data="{&quot;index&quot;:null}" fill="#989898" stroke="none" stroke-width="0.5" stroke-linecap="butt"/><path d="M283.90578,174.10929c0.30455,0 0.55145,0.25864 0.55145,0.5777c0,0.31906 -0.24689,0.57771 -0.55145,0.57771c-0.30456,0 -0.55145,-0.25865 -0.55145,-0.57771c0,-0.31906 0.2469,-0.5777 0.55145,-0.5777z" data-paper-data="{&quot;index&quot;:null}" fill="#989898" stroke="none" stroke-width="0.5" stroke-linecap="butt"/><path d="M300.24485,185.05471c0.30455,0 0.55145,0.25865 0.55145,0.57771c0,0.31906 -0.24689,0.57771 -0.55145,0.57771c-0.30456,0 -0.55145,-0.25865 -0.55145,-0.57771c0,-0.31906 0.2469,-0.57771 0.55145,-0.57771z" data-paper-data="{&quot;index&quot;:null}" fill="#989898" stroke="none" stroke-width="0.5" stroke-linecap="butt"/><path d="M294.7985,185.11962c0.30455,0 0.55145,0.25865 0.55145,0.57771c0,0.31906 -0.24689,0.5777 -0.55145,0.5777c-0.30456,0 -0.55146,-0.25864 -0.55146,-0.5777c0,-0.31906 0.2469,-0.57771 0.55146,-0.57771z" data-paper-data="{&quot;index&quot;:null}" fill="#989898" stroke="none" stroke-width="0.5" stroke-linecap="butt"/><path d="M289.35214,185.05638c0.30455,0 0.55145,0.25865 0.55145,0.57771c0,0.31906 -0.24689,0.5777 -0.55145,0.5777c-0.30456,0 -0.55145,-0.25864 -0.55145,-0.5777c0,-0.31906 0.2469,-0.57771 0.55145,-0.57771z" data-paper-data="{&quot;index&quot;:null}" fill="#989898" stroke="none" stroke-width="0.5" stroke-linecap="butt"/><path d="M283.90578,185.09174c0.30455,0 0.55145,0.25865 0.55145,0.57771c0,0.31906 -0.24689,0.57771 -0.55145,0.57771c-0.30456,0 -0.55145,-0.25865 -0.55145,-0.57771c0,-0.31906 0.2469,-0.57771 0.55145,-0.57771z" data-paper-data="{&quot;index&quot;:null}" fill="#989898" stroke="none" stroke-width="0.5" stroke-linecap="butt"/><path d="M303.70061,154.38678h11.22279l2.55813,-1.07277l2.06302,-0.90772h13.03825l1.12608,1.02824l0.48878,1.3965v8.79796l-0.62843,0.8379l-0.90772,0.69825h-4.25934l-0.5586,0.97755l-0.76807,3.3516l-0.69825,1.18702l-1.3965,0.69825l-0.97755,-0.41895l-0.90772,-1.18703l-1.11721,-3.21195l-0.90772,-0.76808l-2.65336,-1.1172l-2.02493,-1.04737h-11.66078l-1.88528,-0.90773l-1.53615,-1.6758l-0.55861,-2.02492l0.62843,-3.49126l1.1172,-0.97755z" data-paper-data="{&quot;index&quot;:null}" fill="url(#color-23)" stroke="#000000" stroke-width="0.5" stroke-linecap="round"/><path d="M298.7304,156.42466h14.55057l-0.1573,5.34831h-14.78653l-2.91011,-0.39326l-4.33916,-1.89144l2.21555,-4.4007l3.14607,1.02247z" data-paper-data="{&quot;index&quot;:null}" fill="url(#color-24)" stroke="#000000" stroke-width="0.5" stroke-linecap="round"/><path d="M292.94951,154.45839c1.45517,0 2.63483,1.21486 2.63483,2.71348c0,1.49862 -1.17966,2.71349 -2.63483,2.71349c-1.45517,0 -2.63483,-1.21488 -2.63483,-2.71349c0,-1.49862 1.17965,-2.71348 2.63483,-2.71348z" data-paper-data="{&quot;index&quot;:null}" fill="#272727" stroke="#000000" stroke-width="0.5" stroke-linecap="butt"/><g data-paper-data="{&quot;index&quot;:null}" stroke="none" stroke-width="0.5" stroke-linecap="butt"><path d="M346.77336,166.42768c2.78067,0 5.03487,6.2467 5.03487,13.95242c0,7.70571 -2.25419,13.95242 -5.03487,13.95242c-2.78067,0 -5.03486,-6.24671 -5.03486,-13.95242c0,-7.70571 2.25418,-13.95242 5.03486,-13.95242z" fill="#0f3fc1"/><path d="M346.80965,166.69636c2.62975,0 4.7616,6.11676 4.7616,13.66216c0,7.5454 -2.13184,13.66216 -4.76159,13.66216c-2.62975,0 -4.76159,-6.11676 -4.76159,-13.66216c0,-7.5454 2.13184,-13.66216 4.76159,-13.66216z" fill="#ffffff"/><path d="M342.47435,180.31279c0,-7.27157 1.93417,-13.16635 4.32007,-13.16635c2.3859,0 4.32007,5.89477 4.32007,13.16635c0,7.27158 -1.93417,13.16635 -4.32007,13.16635c-2.38591,0 -4.32008,-5.89477 -4.32008,-13.16635z" fill="#0f3fc1"/><g fill="#ffffff"><path d="M344.0614,179.30999c-0.05055,0 -0.23691,-0.27112 0.02096,-0.69808c0.17897,-0.29633 0.8302,-0.82843 1.15312,-1.14945c1.30935,-1.30165 2.93466,-2.65456 3.20517,-3.05085c0.27052,-0.3963 0.20159,-1.11664 -0.32734,-1.16496c-0.43169,-0.03943 -1.29713,0.76812 -1.46963,0.52604c-0.38385,-0.53868 0.51027,-1.35345 0.90508,-1.59993c0.21787,-0.13602 0.87871,-0.18202 1.38299,0.14391c0.40951,0.26468 0.69766,0.85624 0.70686,1.1898c0.02053,0.74433 -0.07276,0.95332 -0.65855,1.76957c-0.35089,0.48893 -0.69958,0.7762 -1.41781,1.31833c-0.71824,0.54213 -1.98027,1.18571 -2.42991,1.64369c-1.28866,1.31256 -0.96135,1.07194 -1.07097,1.07194z"/><path d="M343.87505,184.58107c-0.5365,0.00859 0.08568,-1.30932 -0.0273,-2.26747c-0.09943,-0.84329 -0.51845,-3.29841 -0.51845,-4.34801c0,-0.54721 -0.10062,-1.45419 -0.04839,-1.909c0.05948,-0.51797 0.29359,-1.18472 0.70855,-1.61881c0.34185,-0.35762 0.89345,-0.69415 1.30339,-0.58715c0.19753,0.05156 0.74966,0.38558 0.80392,0.83059c0.03125,0.25632 -0.13244,0.96965 -0.46036,1.29236c-0.38774,0.38157 -0.9998,0.7045 -0.96272,0.43466c0.02632,-0.19146 0.65091,-0.93905 0.62736,-1.36225c-0.01767,-0.31769 -0.33812,-0.41801 -0.80266,-0.05041c-0.46454,0.36759 -0.5939,0.7094 -0.61726,1.17404c-0.03643,0.72448 0.14034,1.78806 0.14034,2.59463c0,0.83176 0.72798,2.66948 0.72865,3.5806c0.00115,1.54496 -0.34801,2.22779 -0.87507,2.23622z"/><path d="M346.39739,179.11158c0.09149,0.11047 -0.00772,0.4616 -0.22584,0.2886c-0.3064,-0.24301 -0.84737,-0.41159 -0.93086,-0.28877c-0.11446,0.16837 0.04828,0.34116 0.11852,0.30713c0.18712,-0.09067 0.27228,-0.2724 0.33079,-0.50332c0.09125,-0.36011 0.06705,-0.76034 0.06705,-1.08273c0,-0.31995 -0.01357,-0.8475 0.08498,-1.31158c0.0672,-0.31644 0.22926,-0.58912 0.31565,-0.80222c0.09839,-0.24269 0.30592,-0.38688 0.47271,-0.26884c0.16678,0.11803 -0.06855,0.19056 -0.14015,0.5042c-0.03778,0.16552 -0.22572,0.36044 -0.28349,0.56543c-0.12948,0.45953 -0.1406,0.96972 -0.1406,1.31301c0,0.43567 -0.05962,1.09335 -0.24609,1.5222c-0.07272,0.16724 -0.32709,0.37629 -0.54704,0.41015c-0.12059,0.01856 -0.38838,-0.08677 -0.41586,-0.40018c-0.00957,-0.10909 0.03239,-0.32881 0.15587,-0.49547c0.08244,-0.11128 0.3524,-0.25032 0.58565,-0.21618c0.36439,0.05333 0.70722,0.34812 0.79871,0.45859z"/><path d="M348.31297,178.17055c-0.60651,0 -1.07867,1.28409 -1.59971,1.09818c-0.18424,-0.06574 -0.16241,-0.59453 0.14461,-1.00705c0.38161,-0.51273 1.10171,-1.0423 1.4378,-1.0423c0.33907,0 1.10056,0.21228 1.34014,0.71824c0.04863,0.1027 0.17027,0.67264 -0.07213,1.12953c-0.39688,0.74807 -0.87317,1.06627 -1.31304,1.20914c-0.13686,0.04446 -0.61486,0.7121 -1.08811,1.23679c-0.02363,0.0262 0.18456,0.18092 0.71918,-0.05988c0.70495,-0.31752 1.80313,-1.12365 1.7685,-1.08981c-0.053,0.05177 0.22965,0.67928 -0.00628,0.90918c-0.08655,0.08434 -0.95751,0.50465 -1.52739,0.99954c-0.02052,0.01782 0.36005,0.18413 0.52901,0.34724c0.1621,0.15649 0.11293,0.31002 0.09299,0.32664c-0.01632,0.0136 -0.00003,0.43265 -0.21901,0.72566c-0.05109,0.06837 0.46774,-0.03916 0.78765,0.11922c0.29721,0.14714 0.3943,0.55695 0.42269,0.71116c0.0917,0.49829 -0.33941,1.2946 -0.528,1.35844c-0.25612,0.0867 -0.10291,-0.47486 -0.15475,-0.7836c-0.02272,-0.13531 -0.00901,-0.36306 -0.14311,-0.38272c-0.03136,-0.00459 -0.08189,-0.04174 -0.11674,-0.04244c-0.1339,-0.00268 -0.49675,-0.03163 -0.7143,0.09684c-0.22561,0.13323 -0.46234,0.44262 -0.63998,0.51318c-0.05743,0.02281 -0.34697,0.45845 -0.31928,0.67354c0.02519,0.19557 0.36059,0.17287 0.44977,0.18284c0.38161,0.04267 1.02489,-0.366 1.01458,-0.33235c-0.01099,0.03589 0.60091,-0.88986 0.51056,-0.72875c-0.06664,0.11882 0.34217,0.42002 0.0666,0.81554c-0.00759,0.0109 0.13036,-0.1049 0.29112,-0.1012c0.13225,0.00304 0.29111,0.12049 0.30053,0.16635c0.00654,0.03184 0.13028,0.51061 -0.08419,0.90065c-0.29083,0.52889 -1.04066,1.10885 -1.31349,1.47422c-0.16165,0.21651 -0.31588,-0.21649 -0.34542,-0.18711c-0.10701,0.10641 1.2321,-1.63982 1.20672,-1.61992c-0.33871,0.26552 -0.87681,0.33525 -1.16768,0.51408c-0.96929,0.59596 -2.94392,1.84954 -2.94392,1.84954l0.05671,-0.8365c0,0 2.05066,-1.38681 1.94449,-1.4295c-0.28007,-0.11261 -0.42217,-0.33632 -0.44045,-0.47243c-0.04452,-0.33152 0.03809,-0.80799 0.02961,-0.81029c-0.05045,-0.01372 0.14437,-0.32443 0.37027,-0.60886c0.39454,-0.49676 1.04123,-1.17798 1.06349,-1.53063c0.04508,-0.714 -0.52321,-0.46495 -0.56899,-0.41725c-0.09437,0.09833 -0.17252,0.20077 -0.22243,0.31265c-0.04609,0.1033 0.382,-0.02791 0.3471,0.33114c-0.00879,0.0904 -0.08869,0.45933 -0.29857,0.49934c-0.10541,0.02008 -0.30397,0.07006 -0.4243,0.02156c-0.08641,-0.03483 -0.29273,-0.1173 -0.36983,-0.27265c-0.07786,-0.1569 -0.02565,-0.38744 0.0622,-0.5772c0.13427,-0.29002 0.53724,-0.70574 0.51954,-0.7017c-0.39648,0.09052 -0.65765,-0.27821 -0.68205,-0.27597c-0.04928,0.00452 -0.11975,-0.34844 0.10239,-0.73811c0.24602,-0.43157 0.84014,-0.95613 0.79967,-0.95262c-0.01909,0.00165 -0.79766,0.21964 -0.7513,-0.21142c0.07236,-0.67283 0.13964,-0.53347 0.11424,-0.53834c-0.3299,-0.06325 1.51364,-0.03382 2.09085,-0.60711c0.30775,-0.30566 -0.3337,-0.88273 -0.52856,-0.88273z"/><path d="M349.30767,176.68454c0.0621,0.05718 0.01907,0.21297 -0.06101,0.29995c-0.16777,0.18222 -0.77884,0.84591 -0.77884,0.84591l-0.38185,-0.35157c0,0 0.56005,-0.60827 0.73377,-0.79695c0.09567,-0.10391 0.28763,-0.18176 0.33242,-0.14052c0.03388,0.03119 0.09803,0.09025 0.15553,0.14319z"/></g></g><path d="M326.80908,155.39623l0.86517,0.4719l-0.55057,6.29214l-8.17978,-0.23595l-4.48314,1.10112l-2.2809,-1.02247v-5.82022l2.91011,-1.02247h11.2472z" data-paper-data="{&quot;index&quot;:null}" fill="url(#color-25)" stroke="#000000" stroke-width="0.5" stroke-linecap="round"/><path d="M333.41582,164.13253l-1.25843,-1.57303h-5.58427v-7.78652h5.50562l1.25843,-1.25843z" data-paper-data="{&quot;index&quot;:null}" fill="#3d3d3d" stroke="#000000" stroke-width="0.5" stroke-linecap="round"/><path d="M333.62059,153.19501v10.85283c0,0 -2.06721,-0.34971 -2.06721,-1.96384c0,-1.19121 0,-4.39788 0,-6.61506c0,-2.2398 2.06721,-2.27392 2.06721,-2.27392z" data-paper-data="{&quot;index&quot;:null}" fill="url(#color-26)" stroke="#000000" stroke-width="0.5" stroke-linecap="butt"/><path d="M231.95764,183.18214l-16.66854,-4.10492l-5.57789,2.27373l-25.7165,-4.29383l21.02808,0.39163l5.51112,-3.72337l16.04931,2.97658l5.19698,-3.46725l17.72901,1.01942l0.09966,6.85986l-10.57937,-1.95934z" data-paper-data="{&quot;index&quot;:null}" fill="#3e3e3e" stroke="none" stroke-width="0.5" stroke-linecap="butt"/><path d="M230.17026,161.96298l-16.99696,-2.40704l-5.32083,2.82339l-26.01802,-1.68467l20.96078,-1.72602l5.10854,-4.25896l16.26736,1.34673l4.82175,-3.97254l17.74161,-0.76949l1.63531,6.72947l-11.5688,-0.79944z" data-paper-data="{&quot;index&quot;:null}" fill="#3e3e3e" stroke="none" stroke-width="0.5" stroke-linecap="butt"/><g data-paper-data="{&quot;index&quot;:null}" stroke="none" stroke-width="0.5" stroke-linecap="butt"><path d="M126.45109,194.33252c-2.78068,0 -5.03487,-6.24671 -5.03487,-13.95242c0,-7.70571 2.25419,-13.95242 5.03487,-13.95242c2.78068,0 5.03486,6.2467 5.03486,13.95242c0,7.70571 -2.25419,13.95242 -5.03486,13.95242z" fill="#0f3fc1"/><path d="M126.41479,194.06382c-2.62975,0 -4.76159,-6.11676 -4.76159,-13.66216c0,-7.5454 2.13184,-13.66216 4.76159,-13.66216c2.62975,0 4.76159,6.11676 4.76159,13.66216c0,7.5454 -2.13183,13.66216 -4.76159,13.66216z" fill="#ffffff"/><path d="M130.7501,180.4474c0,7.27157 -1.93416,13.16635 -4.32007,13.16635c-2.3859,0 -4.32007,-5.89477 -4.32007,-13.16635c0,-7.27158 1.93417,-13.16635 4.32007,-13.16635c2.38591,0 4.32008,5.89477 4.32008,13.16635z" fill="#0f3fc1"/><g fill="#ffffff"><path d="M129.16304,181.45021c0.05056,0 0.23691,0.27112 -0.02096,0.69808c-0.17898,0.29633 -0.8302,0.82843 -1.15312,1.14945c-1.30936,1.30165 -2.93465,2.65456 -3.20518,3.05086c-0.27052,0.3963 -0.20158,1.11663 0.32735,1.16496c0.43169,0.03943 1.29712,-0.76812 1.46962,-0.52604c0.38386,0.53868 -0.51027,1.35345 -0.90508,1.59993c-0.21787,0.13602 -0.87871,0.18202 -1.38299,-0.14391c-0.40951,-0.26468 -0.69766,-0.85623 -0.70686,-1.1898c-0.02053,-0.74433 0.07277,-0.95332 0.65855,-1.76956c0.35089,-0.48893 0.69958,-0.7762 1.41781,-1.31833c0.71824,-0.54213 1.98026,-1.18571 2.4299,-1.64369c1.28867,-1.31256 0.96135,-1.07194 1.07098,-1.07194z"/><path d="M129.3494,176.17913c0.5365,-0.00859 -0.08568,1.30932 0.0273,2.26747c0.09943,0.84329 0.51845,3.29841 0.51845,4.34801c0,0.54721 0.10062,1.45418 0.04839,1.909c-0.05947,0.51797 -0.29358,1.18472 -0.70855,1.61881c-0.34185,0.35762 -0.89345,0.69415 -1.30339,0.58715c-0.19753,-0.05156 -0.74967,-0.38557 -0.80391,-0.83058c-0.03125,-0.25632 0.13244,-0.96965 0.46036,-1.29237c0.38773,-0.38157 0.9998,-0.70449 0.96271,-0.43466c-0.02632,0.19146 -0.6509,0.93904 -0.62736,1.36225c0.01767,0.31769 0.33813,0.41801 0.80267,0.05041c0.46454,-0.36759 0.5939,-0.7094 0.61727,-1.17404c0.03643,-0.72448 -0.14034,-1.78806 -0.14034,-2.59463c0,-0.83176 -0.72797,-2.66948 -0.72865,-3.5806c-0.00115,-1.54496 0.34801,-2.22779 0.87507,-2.23622z"/><path d="M126.82705,181.64861c-0.09149,-0.11047 0.00772,-0.4616 0.22584,-0.2886c0.3064,0.24301 0.84737,0.41159 0.93087,0.28877c0.11446,-0.16837 -0.04828,-0.34116 -0.11852,-0.30713c-0.18712,0.09067 -0.27228,0.2724 -0.33079,0.50332c-0.09125,0.36011 -0.06705,0.76034 -0.06705,1.08274c0,0.31995 0.01356,0.8475 -0.08499,1.31157c-0.06719,0.31644 -0.22926,0.58912 -0.31565,0.80222c-0.09839,0.24269 -0.30592,0.38688 -0.4727,0.26884c-0.16678,-0.11803 0.06855,-0.19056 0.14014,-0.5042c0.03779,-0.16552 0.22573,-0.36044 0.28349,-0.56543c0.12948,-0.45953 0.1406,-0.96972 0.1406,-1.313c0,-0.43567 0.05962,-1.09335 0.24609,-1.5222c0.07271,-0.16724 0.32709,-0.37629 0.54704,-0.41014c0.12059,-0.01856 0.38838,0.08676 0.41586,0.40018c0.00957,0.10909 -0.03239,0.32881 -0.15587,0.49547c-0.08244,0.11128 -0.3524,0.25032 -0.58565,0.21618c-0.36439,-0.05333 -0.70723,-0.34812 -0.79872,-0.45859z"/><path d="M124.91148,182.58964c0.60651,0 1.07867,-1.28409 1.59971,-1.09817c0.18425,0.06574 0.16242,0.59453 -0.14461,1.00705c-0.38161,0.51273 -1.10171,1.0423 -1.4378,1.0423c-0.33908,0 -1.10056,-0.21228 -1.34014,-0.71824c-0.04863,-0.1027 -0.17028,-0.67264 0.07212,-1.12953c0.39688,-0.74807 0.87317,-1.06626 1.31304,-1.20914c0.13686,-0.04446 0.61486,-0.7121 1.08811,-1.23679c0.02363,-0.0262 -0.18457,-0.18092 -0.71919,0.05988c-0.70495,0.31752 -1.80312,1.12365 -1.76849,1.08981c0.053,-0.05177 -0.22966,-0.67928 0.00628,-0.90918c0.08655,-0.08434 0.9575,-0.50465 1.52739,-0.99954c0.02052,-0.01782 -0.36005,-0.18413 -0.52901,-0.34724c-0.1621,-0.15649 -0.11293,-0.31002 -0.09298,-0.32664c0.01632,-0.0136 0.00002,-0.43265 0.219,-0.72566c0.05109,-0.06837 -0.46774,0.03916 -0.78765,-0.11922c-0.29721,-0.14714 -0.39431,-0.55695 -0.42269,-0.71116c-0.0917,-0.49829 0.33941,-1.29461 0.528,-1.35845c0.25612,-0.0867 0.10291,0.47486 0.15475,0.7836c0.02272,0.13531 0.00901,0.36306 0.14312,0.38272c0.03136,0.00459 0.08188,0.04174 0.11674,0.04244c0.1339,0.00268 0.49675,0.03163 0.7143,-0.09684c0.22561,-0.13323 0.46234,-0.44262 0.63998,-0.51318c0.05743,-0.02281 0.34698,-0.45845 0.31928,-0.67354c-0.02519,-0.19557 -0.36059,-0.17286 -0.44977,-0.18283c-0.38161,-0.04267 -1.02489,0.366 -1.01458,0.33234c0.01099,-0.03589 -0.6009,0.88986 -0.51055,0.72875c0.06664,-0.11882 -0.34218,-0.42002 -0.06661,-0.81554c0.00759,-0.0109 -0.13037,0.1049 -0.29112,0.1012c-0.13225,-0.00304 -0.29111,-0.12049 -0.30052,-0.16635c-0.00654,-0.03184 -0.13028,-0.51061 0.08419,-0.90065c0.29083,-0.52889 1.04067,-1.10885 1.31349,-1.47422c0.16165,-0.21651 0.31588,0.21649 0.34542,0.18711c0.10701,-0.10641 -1.2321,1.63982 -1.20672,1.61992c0.33871,-0.26552 0.8768,-0.33525 1.16767,-0.51408c0.9693,-0.59596 2.94393,-1.84954 2.94393,-1.84954l-0.05671,0.8365c0,0 -2.05067,1.38681 -1.9445,1.4295c0.28007,0.11261 0.42217,0.33632 0.44045,0.47244c0.04452,0.33152 -0.03809,0.80798 -0.02961,0.81029c0.05045,0.01372 -0.14437,0.32443 -0.37027,0.60886c-0.39454,0.49676 -1.04122,1.17798 -1.06349,1.53063c-0.04508,0.714 0.52321,0.46495 0.56898,0.41725c0.09437,-0.09833 0.17252,-0.20077 0.22243,-0.31265c0.04609,-0.1033 -0.382,0.02791 -0.34709,-0.33114c0.00879,-0.0904 0.08869,-0.45933 0.29856,-0.49934c0.10541,-0.02008 0.30397,-0.07006 0.4243,-0.02156c0.0864,0.03483 0.29273,0.1173 0.36983,0.27265c0.07787,0.1569 0.02565,0.38744 -0.0622,0.5772c-0.13426,0.29002 -0.53724,0.70574 -0.51953,0.7017c0.39647,-0.09052 0.65765,0.27821 0.68204,0.27597c0.04928,-0.00452 0.11975,0.34844 -0.10238,0.73811c-0.24603,0.43157 -0.84014,0.95613 -0.79966,0.95262c0.01909,-0.00165 0.79766,-0.21964 0.75129,0.21142c-0.07236,0.67283 -0.13963,0.53347 -0.11424,0.53834c0.3299,0.06325 -1.51363,0.03382 -2.09085,0.60711c-0.30775,0.30566 0.3337,0.88273 0.52856,0.88273z"/><path d="M123.91677,184.07566c-0.0621,-0.05718 -0.01907,-0.21297 0.06101,-0.29995c0.16777,-0.18222 0.77884,-0.84591 0.77884,-0.84591l0.38186,0.35157c0,0 -0.56005,0.60827 -0.73377,0.79695c-0.09567,0.10391 -0.28763,0.18176 -0.33242,0.14052c-0.03387,-0.03119 -0.09803,-0.09025 -0.15553,-0.14319z"/></g></g><text transform="translate(222.19265,161.82118) rotate(90) scale(0.84035,0.84034) skewX(0)" font-size="40" xml:space="preserve" data-paper-data="{&quot;index&quot;:null}" fill="#f1f1f1" fill-rule="nonzero" stroke="#f1f1f1" stroke-width="1" stroke-linecap="butt" stroke-linejoin="miter" stroke-miterlimit="10" stroke-dasharray="" stroke-dashoffset="0" font-family="&quot;ヒラギノ角ゴ Pro W3&quot;, &quot;Hiragino Kaku Gothic Pro&quot;, Osaka, &quot;メイリオ&quot;, Meiryo, &quot;ＭＳ Ｐゴシック&quot;, &quot;MS PGothic&quot;" font-weight="normal" text-anchor="start" style="mix-blend-mode: normal"><tspan x="0" dy="0">43</tspan></text><g data-paper-data="{&quot;index&quot;:null}" stroke="none" stroke-width="0.5" stroke-linecap="butt"><g><path d="M201.39427,178.91008l-1.86433,-7.9975l-3.81715,-0.98322l-4.66173,-11.39209l6.54286,7.86723l5.06445,0.28593l2.64942,7.24743l4.73735,0.28999l3.41753,6.27764l-4.07807,4.41596l-2.14856,-5.2962z" fill="url(#color-27)"/><path d="M202.62053,177.87086l-1.82587,-7.57817l-3.60988,-1.00065l-2.85134,-4.86706l3.33859,3.3318l4.27621,0.40813l2.27217,6.84477l5.08575,0.3071l2.49882,4.71089l-2.23457,2.78299l-1.81731,-4.54249z" fill="#262626"/></g><g><path d="M191.89465,186.92454l-1.86433,-7.9975l-3.81715,-0.98323l-4.66172,-11.39209l6.54286,7.86723l5.06445,0.28592l2.64942,7.24744l4.73735,0.29l3.41753,6.27764l-4.07807,4.41595l-2.14856,-5.29619z" fill="url(#color-28)"/><path d="M193.1209,185.88532l-1.82587,-7.57816l-3.60987,-1.00065l-2.85135,-4.86706l3.33859,3.3318l4.27621,0.40812l2.27218,6.84478l5.08576,0.3071l2.49881,4.71088l-2.23457,2.78299l-1.81731,-4.54248z" fill="#262626"/></g></g><g data-paper-data="{&quot;index&quot;:null}" stroke="none" stroke-width="0.5" stroke-linecap="butt"><path d="M326.65906,130.64646l2.53861,1.5l1.08358,-0.99355l4.04748,1.47808l-3.50976,0.0704l-1.16538,1.5872l-2.50693,-1.04417l-1.09613,1.47874l-2.41286,-0.53588l-0.30354,-2.50508l1.87766,0.69329z" fill="url(#color-29)"/><path d="M326.67317,131.3235l2.41826,1.40189l1.04366,-0.9209l1.91407,0.34923l-1.60846,0.21619l-1.02855,1.29614l-2.31818,-1.06168l-1.17561,1.5886l-1.79652,-0.42373l-0.26342,-1.4686l1.60497,0.603z" fill="#262626"/></g><g data-paper-data="{&quot;index&quot;:null}" stroke="none" stroke-width="0.5" stroke-linecap="butt"><path d="M325.21058,126.83106l2.53861,1.5l1.08357,-0.99355l4.04748,1.47808l-3.50976,0.0704l-1.16538,1.5872l-2.50693,-1.04416l-1.09614,1.47874l-2.41285,-0.53587l-0.30354,-2.5051l1.87766,0.69329z" fill="url(#color-30)"/><path d="M325.22468,127.5081l2.41825,1.40188l1.04367,-0.92089l1.91406,0.34923l-1.60845,0.21619l-1.02856,1.29614l-2.31818,-1.06168l-1.17561,1.5886l-1.79652,-0.42373l-0.26342,-1.46859l1.60497,0.60299z" fill="#262626"/></g><g data-paper-data="{&quot;index&quot;:null}" stroke="none" stroke-width="0.5" stroke-linecap="butt"><path d="M322.72529,227.39545l-1.87766,0.69329l0.30354,-2.50509l2.41286,-0.53588l1.09613,1.47874l2.50693,-1.04417l1.16537,1.5872l3.50976,0.0704l-4.04749,1.47808l-1.08357,-0.99355l-2.53861,1.5z" fill="url(#color-31)"/><path d="M322.97686,226.86728l-1.60497,0.603l0.26343,-1.4686l1.79652,-0.42372l1.17561,1.58859l2.31818,-1.06168l1.02855,1.29614l1.60845,0.21619l-1.91406,0.34923l-1.04367,-0.92089l-2.41825,1.40188z" fill="#262626"/></g><g data-paper-data="{&quot;index&quot;:null}" stroke="none" stroke-width="0.5" stroke-linecap="butt"><path d="M321.27679,231.21085l-1.87766,0.69329l0.30353,-2.50509l2.41286,-0.53588l1.09614,1.47874l2.50693,-1.04416l1.16537,1.58719l3.50975,0.0704l-4.04748,1.47808l-1.08357,-0.99355l-2.53861,1.5z" fill="url(#color-32)"/><path d="M321.52837,230.6827l-1.60497,0.603l0.26342,-1.4686l1.79651,-0.42372l1.17562,1.58859l2.31818,-1.06168l1.02856,1.29614l1.60845,0.21619l-1.91406,0.34923l-1.04367,-0.92089l-2.41825,1.40188z" fill="#262626"/></g><text transform="translate(338.59547,168.93295) rotate(90) scale(0.10148,-0.12023) skewX(0)" font-size="40" xml:space="preserve" data-paper-data="{&quot;index&quot;:null}" fill="#f1f1f1" fill-rule="nonzero" stroke="#f1f1f1" stroke-width="1" stroke-linecap="butt" stroke-linejoin="miter" stroke-miterlimit="10" stroke-dasharray="" stroke-dashoffset="0" font-family="&quot;ヒラギノ角ゴ Pro W3&quot;, &quot;Hiragino Kaku Gothic Pro&quot;, Osaka, &quot;メイリオ&quot;, Meiryo, &quot;ＭＳ Ｐゴシック&quot;, &quot;MS PGothic&quot;" font-weight="normal" text-anchor="start" style="mix-blend-mode: normal"><tspan x="0" dy="0">[HOONIGAN]</tspan></text><text transform="translate(134.44846,200.03807) rotate(-90) scale(0.17441,-0.20663)" font-size="40" xml:space="preserve" data-paper-data="{&quot;index&quot;:null}" fill="#f1f1f1" fill-rule="nonzero" stroke="#f1f1f1" stroke-width="1" stroke-linecap="butt" stroke-linejoin="miter" stroke-miterlimit="10" stroke-dasharray="" stroke-dashoffset="0" font-family="&quot;ヒラギノ角ゴ Pro W3&quot;, &quot;Hiragino Kaku Gothic Pro&quot;, Osaka, &quot;メイリオ&quot;, Meiryo, &quot;ＭＳ Ｐゴシック&quot;, &quot;MS PGothic&quot;" font-weight="normal" text-anchor="start" style="mix-blend-mode: normal"><tspan x="0" dy="0">[HOONIGAN]</tspan></text><path d="M237.65132,198.96407l11.56879,-0.79944l-1.63531,6.72948l-17.74162,-0.7695l-4.82175,-3.97254l-16.26736,1.34673l-5.10853,-4.25896l-20.96079,-1.72602l26.01803,-1.68466l5.32083,2.82339l16.99695,-2.40704z" data-paper-data="{&quot;index&quot;:null}" fill="#3e3e3e" stroke="none" stroke-width="0.5" stroke-linecap="butt"/><path d="M190.24355,148.2145l11.26292,1.595l3.52581,-1.87089l17.24068,1.11633l-13.88953,1.14373l-3.38513,2.82218l-10.77946,-0.8924l-3.19511,2.63237l-12.80983,0.37822l0.36489,-4.32756l7.27094,0.52974z" data-paper-data="{&quot;index&quot;:null}" fill="#3e3e3e" stroke="none" stroke-width="0.5" stroke-linecap="butt"/><path d="M185.65221,206.58241l-7.27094,0.52975l-0.36489,-4.32756l12.80983,0.37821l3.19511,2.63238l10.77945,-0.8924l3.38514,2.82217l13.88952,1.14374l-17.24067,1.11633l-3.52581,-1.8709l-11.26292,1.59501z" data-paper-data="{&quot;index&quot;:null}" fill="#3e3e3e" stroke="none" stroke-width="0.5" stroke-linecap="butt"/><path d="M347.23565,225.32312c0,0 -1.94822,0.75482 -4.66843,0.77562c-0.942,0.0072 -3.12441,0.59638 -3.12441,0.59638c0,0 -5.18376,-0.03931 -10.07289,-1.40405c-5.01269,-1.39923 -8.94291,-1.37954 -13.02822,-1.36985c-2.25338,0.00535 -12.63375,0.12296 -14.82891,0.67933c-2.19515,0.55636 -5.40537,1.65116 -5.40537,1.65116l-91.18133,-0.15219c0,0 -0.6539,2.50765 -3.43873,3.50107c-2.78483,0.99343 -1.77711,0.34526 -8.20516,0.11821c-0.6483,-0.0229 -4.51775,-2.74748 -9.57336,-3.84894c-5.05561,-1.10145 -7.3463,-1.17863 -13.51543,-1.19094c-3.85798,-0.0077 -8.65388,-0.12417 -11.9058,-0.03866c-4.72655,0.12428 -7.7848,0.5159 -13.21406,0.96296c-13.98572,1.15163 -25.33395,-1.52894 -25.33395,-1.52894c0,0 -0.21193,-0.65488 -0.52955,-1.61718c-0.31342,-0.9496 0.08726,-6.17045 0.08726,-6.17045l228.98851,-0.53262l-1.05016,9.56909z" data-paper-data="{&quot;index&quot;:null}" fill="url(#color-33)" stroke="#000000" stroke-width="0.5" stroke-linecap="butt"/><path d="M342.5672,133.54241c2.72022,0.02081 4.66843,0.77563 4.66843,0.77563l1.05015,9.56908l-228.9885,-0.53261c0,0 -0.40068,-5.22085 -0.08726,-6.17045c0.31762,-0.9623 0.52955,-1.61718 0.52955,-1.61718c0,0 11.34823,-2.68057 25.33395,-1.52894c5.42926,0.44707 8.48751,0.83868 13.21406,0.96296c3.25192,0.08551 8.04783,-0.03095 11.90581,-0.03865c6.16914,-0.01231 8.45981,0.01793 13.51543,-1.08352c5.05561,-1.10145 9.46225,-4.04091 10.11055,-4.06381c6.42806,-0.22706 4.88315,-0.76778 7.66798,0.22564c2.78483,0.99343 3.43873,3.50108 3.43873,3.50108l91.18133,-0.1522c0,0 3.21022,1.09479 5.40537,1.65116c2.19515,0.55637 12.57553,0.67398 14.82891,0.67933c4.0853,0.00969 8.31788,0.33173 13.33057,-1.0675c4.88914,-1.36474 9.77053,-1.70641 9.77053,-1.70641c0,0 2.18241,0.58918 3.12441,0.59638z" data-paper-data="{&quot;index&quot;:null}" fill="url(#color-34)" stroke="#000000" stroke-width="0.5" stroke-linecap="butt"/><path d="M303.36118,233.05849c0,0 -4.78555,-3.02133 -6.05944,-4.18013c-0.78224,-0.71157 -0.85712,-2.11154 -0.85712,-2.11154c0,0 2.06799,-0.91282 5.47304,-1.5488c2.41811,-0.45164 6.02441,-0.37601 7.74104,-0.56942c3.45295,-0.38905 9.2681,0.03048 9.2681,0.03048l0.03209,8.04615z" data-paper-data="{&quot;index&quot;:null}" fill="url(#color-35)" stroke="none" stroke-width="0.5" stroke-linecap="butt"/><path d="M187.83951,126.79928l3.11836,4.34776c0,0 -2.47672,1.51877 -6.40488,2.55544c-2.82242,0.74486 -6.95837,1.05275 -8.82955,1.24749c-3.73825,0.38905 -10.45477,0.6175 -10.45477,0.6175l0.38616,-8.95332z" data-paper-data="{&quot;index&quot;:null}" fill="url(#color-36)" stroke="none" stroke-width="0.5" stroke-linecap="butt"/><path d="M167.00819,127.30765l-0.03476,8.04615c0,0 -5.12926,0.28993 -8.86751,-0.09912c-0.87474,-0.09104 -5.433,0.00062 -8.22995,-0.42562c-3.14543,-0.47934 -5.67563,-1.34687 -5.67563,-1.34687c0,0 0.38725,-2.14223 0.91643,-2.58687c1.37915,-1.15881 4.357,-4.18013 4.357,-4.18013z" data-paper-data="{&quot;index&quot;:null}" fill="url(#color-37)" stroke="none" stroke-width="0.5" stroke-linecap="butt"/><path d="M166.00335,233.2775l-0.38615,-8.95332c0,0 6.71652,0.22845 10.45477,0.6175c1.87118,0.19474 6.00713,0.50265 8.82955,1.2475c3.92816,1.03667 6.40489,2.55544 6.40489,2.55544l-3.11836,4.34776z" data-paper-data="{&quot;index&quot;:null}" fill="url(#color-38)" stroke="none" stroke-width="0.5" stroke-linecap="butt"/><path d="M148.72691,232.87772c0,0 -2.37093,-2.27732 -3.22156,-3.41739c-0.80508,-1.07904 -1.75311,-3.25002 -1.75311,-3.25002c0,0 3.32685,-0.46919 6.47228,-0.94854c2.79696,-0.42623 7.35522,-0.53375 8.22995,-0.62479c3.73824,-0.38905 8.86751,-0.09912 8.86751,-0.09912l0.03475,8.04616z" data-paper-data="{&quot;index&quot;:null}" fill="url(#color-39)" stroke="none" stroke-width="0.5" stroke-linecap="butt"/><path d="M119.23315,223.06497v-88.30377h17.0635v88.30377z" data-paper-data="{&quot;index&quot;:null}" fill="url(#color-40)" stroke="none" stroke-width="0.5" stroke-linecap="butt"/><path d="M212.84897,208.57348c18.26057,0 33.0637,0.49969 33.0637,1.11608c0,0.6164 -14.80313,1.11607 -33.0637,1.11607c-18.26057,0 -33.0637,-0.49968 -33.0637,-1.11607c0,-0.6164 14.80312,-1.11608 33.0637,-1.11608z" data-paper-data="{&quot;index&quot;:null}" fill="url(#color-41)" stroke="none" stroke-width="0.5" stroke-linecap="butt"/><path d="M212.21844,150.81938c18.26058,0 33.0637,0.49969 33.0637,1.11608c0,0.6164 -14.80312,1.11607 -33.0637,1.11607c-18.26058,0 -33.0637,-0.49968 -33.0637,-1.11607c0,-0.61639 14.80312,-1.11608 33.06371,-1.11608z" data-paper-data="{&quot;index&quot;:null}" fill="url(#color-42)" stroke="none" stroke-width="0.5" stroke-linecap="butt"/><path d="M4.42566,361.63479v-360.53868h472.87786v360.53869z" fill="none" stroke="none" stroke-width="0" stroke-linecap="butt"/></g></g></svg>