<svg version="1.1" xmlns="http://www.w3.org/2000/svg" xmlns:xlink="http://www.w3.org/1999/xlink" width="437.77757" height="140.72117" viewBox="0,0,437.77757,140.72117"><defs><linearGradient x1="5240.73795" y1="-1540.74781" x2="5240.73795" y2="1188.05409" gradientUnits="userSpaceOnUse" id="color-1"><stop offset="0" stop-color="#000000"/><stop offset="1" stop-color="#000000" stop-opacity="0"/></linearGradient><linearGradient x1="5240.73795" y1="-1590.85656" x2="5240.73795" y2="1137.94534" gradientUnits="userSpaceOnUse" id="color-2"><stop offset="0" stop-color="#000000"/><stop offset="1" stop-color="#000000" stop-opacity="0"/></linearGradient><radialGradient cx="45.62513" cy="273.26539" r="17.77878" gradientUnits="userSpaceOnUse" id="color-3"><stop offset="0" stop-color="#ffd92d"/><stop offset="1" stop-color="#ffd117"/></radialGradient><linearGradient x1="5296.7894" y1="-1590.13933" x2="5296.7894" y2="1138.66257" gradientUnits="userSpaceOnUse" id="color-4"><stop offset="0" stop-color="#000000"/><stop offset="1" stop-color="#000000" stop-opacity="0"/></linearGradient><linearGradient x1="5352.0817" y1="-1591.02736" x2="5352.0817" y2="1137.77454" gradientUnits="userSpaceOnUse" id="color-5"><stop offset="0" stop-color="#000000"/><stop offset="1" stop-color="#000000" stop-opacity="0"/></linearGradient><linearGradient x1="5407.60532" y1="-1590.31014" x2="5407.60532" y2="1138.49176" gradientUnits="userSpaceOnUse" id="color-6"><stop offset="0" stop-color="#000000"/><stop offset="1" stop-color="#000000" stop-opacity="0"/></linearGradient><linearGradient x1="5462.98456" y1="-1590.13933" x2="5462.98456" y2="1138.66257" gradientUnits="userSpaceOnUse" id="color-7"><stop offset="0" stop-color="#000000"/><stop offset="1" stop-color="#000000" stop-opacity="0"/></linearGradient><linearGradient x1="5518.76281" y1="-1591.02736" x2="5518.76281" y2="1137.77454" gradientUnits="userSpaceOnUse" id="color-8"><stop offset="0" stop-color="#000000"/><stop offset="1" stop-color="#000000" stop-opacity="0"/></linearGradient><linearGradient x1="5573.78058" y1="-1590.13933" x2="5573.78058" y2="1138.66257" gradientUnits="userSpaceOnUse" id="color-9"><stop offset="0" stop-color="#000000"/><stop offset="1" stop-color="#000000" stop-opacity="0"/></linearGradient><linearGradient x1="5629.55883" y1="-1591.02736" x2="5629.55883" y2="1137.77454" gradientUnits="userSpaceOnUse" id="color-10"><stop offset="0" stop-color="#000000"/><stop offset="1" stop-color="#000000" stop-opacity="0"/></linearGradient><radialGradient cx="101.45181" cy="273.85545" r="18.08134" gradientUnits="userSpaceOnUse" id="color-11"><stop offset="0" stop-color="#ffd92d"/><stop offset="1" stop-color="#ffd117"/></radialGradient><radialGradient cx="156.50349" cy="272.56493" r="18.08134" gradientUnits="userSpaceOnUse" id="color-12"><stop offset="0" stop-color="#ffd92d"/><stop offset="1" stop-color="#ffd117"/></radialGradient><linearGradient x1="5296.7894" y1="-1540.03058" x2="5296.7894" y2="1188.77132" gradientUnits="userSpaceOnUse" id="color-13"><stop offset="0" stop-color="#000000"/><stop offset="1" stop-color="#000000" stop-opacity="0"/></linearGradient><linearGradient x1="5352.0817" y1="-1540.91861" x2="5352.0817" y2="1187.88328" gradientUnits="userSpaceOnUse" id="color-14"><stop offset="0" stop-color="#000000"/><stop offset="1" stop-color="#000000" stop-opacity="0"/></linearGradient><linearGradient x1="5407.60532" y1="-1540.20139" x2="5407.60532" y2="1188.60051" gradientUnits="userSpaceOnUse" id="color-15"><stop offset="0" stop-color="#000000"/><stop offset="1" stop-color="#000000" stop-opacity="0"/></linearGradient><linearGradient x1="5462.98456" y1="-1540.03058" x2="5462.98456" y2="1188.77132" gradientUnits="userSpaceOnUse" id="color-16"><stop offset="0" stop-color="#000000"/><stop offset="1" stop-color="#000000" stop-opacity="0"/></linearGradient><linearGradient x1="5518.76281" y1="-1540.91861" x2="5518.76281" y2="1187.88328" gradientUnits="userSpaceOnUse" id="color-17"><stop offset="0" stop-color="#000000"/><stop offset="1" stop-color="#000000" stop-opacity="0"/></linearGradient><linearGradient x1="5573.78058" y1="-1540.03058" x2="5573.78058" y2="1188.77132" gradientUnits="userSpaceOnUse" id="color-18"><stop offset="0" stop-color="#000000"/><stop offset="1" stop-color="#000000" stop-opacity="0"/></linearGradient><linearGradient x1="5629.55883" y1="-1540.91861" x2="5629.55883" y2="1187.88328" gradientUnits="userSpaceOnUse" id="color-19"><stop offset="0" stop-color="#000000"/><stop offset="1" stop-color="#000000" stop-opacity="0"/></linearGradient><radialGradient cx="101.55726" cy="323.04321" r="17.77878" gradientUnits="userSpaceOnUse" id="color-20"><stop offset="0" stop-color="#ffd92d"/><stop offset="1" stop-color="#ffd117"/></radialGradient><radialGradient cx="157.49728" cy="321.86292" r="17.77878" gradientUnits="userSpaceOnUse" id="color-21"><stop offset="0" stop-color="#ffd92d"/><stop offset="1" stop-color="#ffd117"/></radialGradient></defs><g transform="translate(-20.93519,-203.99644)"><g data-paper-data="{&quot;isPaintingLayer&quot;:true}" fill-rule="nonzero" stroke-linejoin="miter" stroke-miterlimit="10" stroke-dasharray="" stroke-dashoffset="0" style="mix-blend-mode: normal"><path d="M20.93519,331.23955c0,-6.9278 0,-14.84664 0,-18.70571c0,-4.44215 4.78671,-10.51503 11.10652,-10.51503c32.32499,0 -40.82295,0 23.76773,0c8.99618,0 14.08243,6.13871 14.08243,13.06581c0,6.15556 0,12.93368 0,16.58006c0,4.99909 -4.44811,12.33569 -12.3819,12.33569c-61.36061,0 8.07237,0 -25.04313,0c-6.54301,0 -11.53164,-5.89351 -11.53164,-12.76083z" fill="url(#color-1)" stroke="none" stroke-width="0" stroke-linecap="butt"/><g data-paper-data="{&quot;index&quot;:null}" fill="#9f8200" stroke="none" stroke-width="0" stroke-linecap="butt"><g><path d="M42.87137,312.96095c-0.86364,-0.86364 -1.01427,-2.11325 -0.33644,-2.79109c0.67784,-0.67784 1.92746,-0.52721 2.79109,0.33643c0.86364,0.86364 1.01427,2.11325 0.33643,2.79109c-0.67784,0.67784 -1.92745,0.52721 -2.79109,-0.33643z"/><path d="M50.22875,320.31831l-7.383,-7.383l2.45466,-2.45466l7.383,7.383z"/></g><g><path d="M34.99759,311.72834c-0.84463,-0.84463 -0.99193,-2.06672 -0.32903,-2.72963c0.66291,-0.66291 1.88501,-0.51561 2.72964,0.32902c0.84463,0.84463 0.99192,2.06672 0.32901,2.72963c-0.66291,0.66291 -1.885,0.51561 -2.72962,-0.32902z"/><path d="M46.50586,323.23659l-11.53332,-11.53333l2.40061,-2.40061l11.53332,11.53333z"/></g><g><path d="M32.76564,314.8157c-0.84463,-0.84463 -0.99194,-2.06672 -0.32903,-2.72963c0.66291,-0.66291 1.88501,-0.5156 2.72964,0.32902c0.84463,0.84463 0.99193,2.06672 0.32902,2.72963c-0.66291,0.66291 -1.885,0.51561 -2.72963,-0.32902z"/><path d="M44.2739,326.32394l-11.53333,-11.53333l2.40061,-2.4006l11.53332,11.53332z"/></g><g><path d="M31.84439,319.3105c-0.84463,-0.84463 -0.99194,-2.06672 -0.32903,-2.72963c0.66291,-0.66291 1.88502,-0.51561 2.72964,0.32902c0.84463,0.84463 0.99192,2.06672 0.32901,2.72963c-0.66291,0.66291 -1.885,0.51561 -2.72963,-0.32902z"/><path d="M43.35265,330.81875l-11.53333,-11.53333l2.40061,-2.40061l11.53333,11.53332z"/></g><g><path d="M31.84309,324.61051c-0.84463,-0.84463 -0.99193,-2.06672 -0.32902,-2.72963c0.66291,-0.66291 1.885,-0.5156 2.72963,0.32902c0.84463,0.84463 0.99193,2.06672 0.32902,2.72963c-0.66291,0.66291 -1.885,0.51561 -2.72963,-0.32902z"/><path d="M41.50294,334.27038l-9.68494,-9.68494l2.40061,-2.40061l9.68494,9.68494z"/></g><path d="M39.6283,332.15162l-2.24522,-2.25645c0,0 2.8903,-6.91464 5.15818,-9.18251c0.66365,-0.66366 1.76739,-2.68533 3.15121,-2.9339c0.9071,-0.16294 2.60281,1.26201 3.16207,0.79582c1.54053,-1.28415 0.64815,-3.83862 0.64815,-3.83862l4.29482,4.29482c0,0 3.41795,3.98747 2.33238,6.75133c-0.48045,1.54129 1.48915,2.18709 1.74704,3.86088c-0.26747,1.40179 -1.50556,3.01554 -2.75044,4.41291c-1.07381,1.20534 -2.94259,3.10197 -3.7456,3.37279c-1.02448,0.59056 -2.19453,-1.44925 -3.11512,-0.94234c-2.61529,2.099 -8.63746,-4.33475 -8.63746,-4.33475z"/></g><path d="" fill="none" stroke="#000000" stroke-width="5.5" stroke-linecap="round"/><path d="" fill="none" stroke="#000000" stroke-width="5.5" stroke-linecap="round"/><path d="" data-paper-data="{&quot;index&quot;:null}" fill="none" stroke="#9f8200" stroke-width="2.5" stroke-linecap="round"/><path d="M20.93519,281.1308c0,-6.9278 0,-14.84664 0,-18.70571c0,-4.44215 4.78671,-10.51503 11.10652,-10.51503c32.32499,0 -40.82295,0 23.76773,0c8.99618,0 14.08243,6.13871 14.08243,13.06581c0,6.15556 0,12.93368 0,16.58006c0,4.99909 -4.44811,12.33569 -12.3819,12.33569c-61.36061,0 8.07237,0 -25.04313,0c-6.54301,0 -11.53164,-5.89351 -11.53164,-12.76083z" fill="url(#color-2)" stroke="none" stroke-width="0" stroke-linecap="butt"/><path d="M27.84634,273.26539c0,-9.81896 7.95983,-17.77878 17.77878,-17.77878c9.81896,0 17.77879,7.95983 17.77879,17.77878c0,9.81895 -7.95983,17.77879 -17.77879,17.77879c-9.81896,0 -17.77878,-7.95984 -17.77878,-17.77879z" fill="url(#color-3)" stroke="#f1f1f1" stroke-width="0" stroke-linecap="butt"/><path d="M41.09987,264.20786v7.26409" fill="none" stroke="#9f8200" stroke-width="4" stroke-linecap="round"/><path d="M49.78658,264.25618c0,0 0,3.41259 0,4.746c0,0.97126 0,2.51809 0,2.51809" fill="none" stroke="#9f8200" stroke-width="4" stroke-linecap="round"/><path d="M37.48915,279.29056l0.08512,-2.84811c0,0 5.10728,1.27528 7.73964,1.27528c2.74168,0 8.39582,-1.27528 8.39582,-1.27528l0.25535,2.76299c0,0 -4.23143,1.4388 -8.55359,1.45199c-4.49238,0.01371 -7.92234,-1.36687 -7.92234,-1.36687z" fill="#ffffff" stroke="none" stroke-width="NaN" stroke-linecap="butt"/><path d="M54.64644,276.64356c0,0 -5.29248,1.31101 -9.12264,1.33569c-4.01208,0.02587 -9.13576,-1.13936 -9.13576,-1.13936" fill="none" stroke="#9f8200" stroke-width="2.5" stroke-linecap="round"/><path d="M35.50456,277.72335" fill="none" stroke="#000000" stroke-width="5.5" stroke-linecap="round"/><path d="M54.54826,276.74172c0,0 0.32382,7.65774 -8.93692,7.60773c-8.76971,-0.04737 -9.20275,-7.09702 -9.20275,-7.09702" fill="none" stroke="#9f8200" stroke-width="2.5" stroke-linecap="round"/><path d="M76.98665,281.84802c0,-6.9278 0,-14.84664 0,-18.70571c0,-4.44215 4.78671,-10.51503 11.10652,-10.51503c32.32499,0 -40.82295,0 23.76774,0c8.99617,0 14.08243,6.13871 14.08243,13.06581c0,6.15556 0,12.93368 0,16.58007c0,4.99909 -4.44811,12.33569 -12.3819,12.33569c-61.36061,0 8.07237,0 -25.04313,0c-6.543,0 -11.53164,-5.89351 -11.53164,-12.76082z" fill="url(#color-4)" stroke="none" stroke-width="0" stroke-linecap="butt"/><path d="M132.27897,280.96c0,-6.9278 0,-14.84664 0,-18.70571c0,-4.44215 4.78671,-10.51503 11.10652,-10.51503c32.32499,0 -40.82296,0 23.76773,0c8.99617,0 14.08243,6.1387 14.08243,13.0658c0,6.15556 0,12.93368 0,16.58006c0,4.99909 -4.44811,12.33569 -12.3819,12.33569c-61.36061,0 8.07237,0 -25.04313,0c-6.543,0 -11.53164,-5.8935 -11.53164,-12.76082z" fill="url(#color-5)" stroke="none" stroke-width="0" stroke-linecap="butt"/><path d="M187.80253,281.67722c0,-6.9278 0,-14.84664 0,-18.70571c0,-4.44215 4.78671,-10.51503 11.10652,-10.51503c32.32499,0 -40.82296,0 23.76773,0c8.99617,0 14.08243,6.1387 14.08243,13.0658c0,6.15556 0,12.93368 0,16.58007c0,4.99909 -4.44811,12.33569 -12.3819,12.33569c-61.36061,0 8.07237,0 -25.04313,0c-6.543,0 -11.53164,-5.89351 -11.53164,-12.76082z" fill="url(#color-6)" stroke="none" stroke-width="0" stroke-linecap="butt"/><path d="M243.18181,281.84802c0,-6.9278 0,-14.84664 0,-18.70571c0,-4.44215 4.7867,-10.51504 11.10651,-10.51504c32.32498,0 -40.82295,0 23.76774,0c8.99617,0 14.08243,6.13871 14.08243,13.06581c0,6.15556 0,12.93368 0,16.58006c0,4.99909 -4.44811,12.33569 -12.3819,12.33569c-61.36061,0 8.07238,0 -25.04312,0c-6.543,0 -11.53164,-5.89351 -11.53164,-12.76082z" fill="url(#color-7)" stroke="none" stroke-width="0" stroke-linecap="butt"/><path d="M298.96002,280.96c0,-6.9278 0,-14.84664 0,-18.70571c0,-4.44215 4.7867,-10.51503 11.10652,-10.51503c32.32499,0 -40.82295,0 23.76774,0c8.99617,0 14.08243,6.1387 14.08243,13.0658c0,6.15556 0,12.93368 0,16.58006c0,4.99909 -4.44811,12.33569 -12.3819,12.33569c-61.36061,0 8.07238,0 -25.04312,0c-6.543,0 -11.53165,-5.8935 -11.53165,-12.76082z" fill="url(#color-8)" stroke="none" stroke-width="0" stroke-linecap="butt"/><path d="M353.97783,281.84802c0,-6.9278 0,-14.84663 0,-18.7057c0,-4.44215 4.7867,-10.51504 11.10652,-10.51504c32.32499,0 -40.82295,0 23.76774,0c8.99617,0 14.08242,6.13871 14.08242,13.06581c0,6.15557 0,12.93368 0,16.58006c0,4.99908 -4.44811,12.33569 -12.3819,12.33569c-61.36061,0 8.07237,0 -25.04313,0c-6.543,0 -11.53164,-5.89352 -11.53164,-12.76083z" fill="url(#color-9)" stroke="none" stroke-width="0" stroke-linecap="butt"/><path d="M409.75608,280.96c0,-6.9278 0,-14.84664 0,-18.70571c0,-4.44215 4.7867,-10.51504 11.10652,-10.51504c32.32499,0 -40.82295,0 23.76774,0c8.99617,0 14.08243,6.13871 14.08243,13.06581c0,6.15557 0,12.93368 0,16.58006c0,4.99908 -4.44811,12.33569 -12.3819,12.33569c-61.36061,0 8.07238,0 -25.04312,0c-6.543,0 -11.53164,-5.89351 -11.53164,-12.76082z" fill="url(#color-10)" stroke="none" stroke-width="0" stroke-linecap="butt"/><path d="M83.37048,273.85545c0,-9.98606 8.09529,-18.08135 18.08134,-18.08135c9.98605,0 18.08135,8.09529 18.08135,18.08135c0,9.98606 -8.0953,18.08134 -18.08134,18.08134c-9.98605,0 -18.08134,-8.09529 -18.08134,-18.08134z" fill="url(#color-11)" stroke="#f1f1f1" stroke-width="0" stroke-linecap="butt"/><path d="M96.84955,264.64377v7.38772" fill="none" stroke="#9f8200" stroke-width="4" stroke-linecap="round"/><path d="M105.68408,264.69291c0,0 0,3.47067 0,4.82676c0,0.98779 0,2.56095 0,2.56095" fill="none" stroke="#9f8200" stroke-width="4" stroke-linecap="round"/><path d="M94.38377,282.83255c0,0 1.80619,-4.28412 7.44608,-4.19932c0.73974,0.01112 1.41795,0.0893 2.03796,0.21664c4.0724,0.83639 5.6342,3.79322 5.6342,3.79322" fill="none" stroke="#9f8200" stroke-width="2.5" stroke-linecap="round"/><path d="M138.42216,272.56493c0,-9.98606 8.09529,-18.08135 18.08134,-18.08135c9.98605,0 18.08135,8.09529 18.08135,18.08135c0,9.98606 -8.09529,18.08134 -18.08135,18.08134c-9.98605,0 -18.08134,-8.09529 -18.08134,-18.08134z" fill="url(#color-12)" stroke="#f1f1f1" stroke-width="0" stroke-linecap="butt"/><path d="M151.90124,266.72878v7.38772" fill="none" stroke="#9f8200" stroke-width="4" stroke-linecap="round"/><path d="M160.73577,274.16566c0,0 0,-1.57316 0,-2.56095c0,-1.35611 0,-4.82677 0,-4.82677" fill="none" stroke="#9f8200" stroke-width="4" stroke-linecap="round"/><path d="M151.5983,281.68241c0,0 1.24017,-1.97324 5.1127,-1.93418c0.50793,0.00513 0.97361,0.04114 1.39933,0.09979c2.79622,0.38523 3.86861,1.74712 3.86861,1.74712" fill="none" stroke="#9f8200" stroke-width="2.5" stroke-linecap="round"/><path d="M154.39321,263.8083l-5.93707,-2.08898" fill="none" stroke="#9f8200" stroke-width="2.5" stroke-linecap="round"/><path d="M164.33982,261.63662l-5.93707,2.08896" data-paper-data="{&quot;index&quot;:null}" fill="none" stroke="#9f8200" stroke-width="2.5" stroke-linecap="round"/><g stroke-width="3" stroke-linecap="butt" font-family="Sans Serif" font-weight="normal" font-size="40" text-anchor="start"><text transform="translate(312.12014,284.71335) scale(0.84975,0.84975)" font-size="40" xml:space="preserve" fill="#000000" fill-rule="nonzero" stroke="#000000" stroke-width="3" stroke-linecap="butt" stroke-linejoin="miter" stroke-miterlimit="10" stroke-dasharray="" stroke-dashoffset="0" font-family="Sans Serif" font-weight="normal" text-anchor="start" style="mix-blend-mode: normal"><tspan x="0" dy="0">1</tspan></text><text transform="translate(313.48699,284.64764) scale(0.84975,0.84975)" font-size="40" xml:space="preserve" fill="#ffffff" fill-rule="nonzero" stroke="#ffffff" stroke-width="3" stroke-linecap="butt" stroke-linejoin="miter" stroke-miterlimit="10" stroke-dasharray="" stroke-dashoffset="0" font-family="Sans Serif" font-weight="normal" text-anchor="start" style="mix-blend-mode: normal"><tspan x="0" dy="0">1</tspan></text></g><g stroke-width="3" stroke-linecap="butt" font-family="Sans Serif" font-weight="normal" font-size="40" text-anchor="start"><text transform="translate(258.29587,284.49983) scale(0.84975,0.84975)" font-size="40" xml:space="preserve" fill="#000000" fill-rule="nonzero" stroke="#000000" stroke-width="3" stroke-linecap="butt" stroke-linejoin="miter" stroke-miterlimit="10" stroke-dasharray="" stroke-dashoffset="0" font-family="Sans Serif" font-weight="normal" text-anchor="start" style="mix-blend-mode: normal"><tspan x="0" dy="0">2</tspan></text><text transform="translate(259.6627,284.43413) scale(0.84975,0.84975)" font-size="40" xml:space="preserve" fill="#ffffff" fill-rule="nonzero" stroke="#ffffff" stroke-width="3" stroke-linecap="butt" stroke-linejoin="miter" stroke-miterlimit="10" stroke-dasharray="" stroke-dashoffset="0" font-family="Sans Serif" font-weight="normal" text-anchor="start" style="mix-blend-mode: normal"><tspan x="0" dy="0">2</tspan></text></g><g stroke-width="3" stroke-linecap="butt" font-family="Sans Serif" font-weight="normal" font-size="40" text-anchor="start"><text transform="translate(202.10767,284.89706) scale(0.84975,0.84975)" font-size="40" xml:space="preserve" fill="#000000" fill-rule="nonzero" stroke="#000000" stroke-width="3" stroke-linecap="butt" stroke-linejoin="miter" stroke-miterlimit="10" stroke-dasharray="" stroke-dashoffset="0" font-family="Sans Serif" font-weight="normal" text-anchor="start" style="mix-blend-mode: normal"><tspan x="0" dy="0">3</tspan></text><text transform="translate(203.47451,284.83135) scale(0.84975,0.84975)" font-size="40" xml:space="preserve" fill="#ffffff" fill-rule="nonzero" stroke="#ffffff" stroke-width="3" stroke-linecap="butt" stroke-linejoin="miter" stroke-miterlimit="10" stroke-dasharray="" stroke-dashoffset="0" font-family="Sans Serif" font-weight="normal" text-anchor="start" style="mix-blend-mode: normal"><tspan x="0" dy="0">3</tspan></text></g><g stroke-width="3" stroke-linecap="butt" font-family="Sans Serif" font-weight="normal" font-size="40" text-anchor="start"><text transform="translate(362.143,279.24401) scale(0.50585,0.50585)" font-size="40" xml:space="preserve" fill="#000000" fill-rule="nonzero" stroke="#000000" stroke-width="3" stroke-linecap="butt" stroke-linejoin="miter" stroke-miterlimit="10" stroke-dasharray="" stroke-dashoffset="0" font-family="Sans Serif" font-weight="normal" text-anchor="start" style="mix-blend-mode: normal"><tspan x="0" dy="0">GO!</tspan></text><text transform="translate(362.95667,279.20489) scale(0.50585,0.50585)" font-size="40" xml:space="preserve" fill="#ffffff" fill-rule="nonzero" stroke="#ffffff" stroke-width="3" stroke-linecap="butt" stroke-linejoin="miter" stroke-miterlimit="10" stroke-dasharray="" stroke-dashoffset="0" font-family="Sans Serif" font-weight="normal" text-anchor="start" style="mix-blend-mode: normal"><tspan x="0" dy="0">GO!</tspan></text></g><path d="M76.98665,331.95678c0,-6.9278 0,-14.84664 0,-18.70571c0,-4.44215 4.78671,-10.51503 11.10652,-10.51503c32.32499,0 -40.82295,0 23.76774,0c8.99617,0 14.08243,6.13871 14.08243,13.06581c0,6.15556 0,12.93368 0,16.58007c0,4.99909 -4.44811,12.33569 -12.3819,12.33569c-61.36061,0 8.07237,0 -25.04313,0c-6.543,0 -11.53164,-5.8935 -11.53164,-12.76082z" fill="url(#color-13)" stroke="none" stroke-width="0" stroke-linecap="butt"/><path d="M132.27897,331.06875c0,-6.9278 0,-14.84664 0,-18.70571c0,-4.44215 4.78671,-10.51503 11.10652,-10.51503c32.32499,0 -40.82296,0 23.76773,0c8.99617,0 14.08243,6.1387 14.08243,13.0658c0,6.15556 0,12.93368 0,16.58007c0,4.99909 -4.44811,12.33569 -12.3819,12.33569c-61.36061,0 8.07237,0 -25.04313,0c-6.543,0 -11.53164,-5.89351 -11.53164,-12.76082z" fill="url(#color-14)" stroke="none" stroke-width="0" stroke-linecap="butt"/><path d="M187.80253,331.78597c0,-6.9278 0,-14.84664 0,-18.70571c0,-4.44215 4.78671,-10.51503 11.10652,-10.51503c32.32499,0 -40.82296,0 23.76773,0c8.99617,0 14.08243,6.13871 14.08243,13.06581c0,6.15556 0,12.93368 0,16.58006c0,4.99909 -4.44811,12.33569 -12.3819,12.33569c-61.36061,0 8.07237,0 -25.04313,0c-6.543,0 -11.53164,-5.89351 -11.53164,-12.76082z" fill="url(#color-15)" stroke="none" stroke-width="0" stroke-linecap="butt"/><path d="M243.18181,331.95678c0,-6.9278 0,-14.84664 0,-18.70571c0,-4.44215 4.7867,-10.51504 11.10651,-10.51504c32.32498,0 -40.82295,0 23.76774,0c8.99617,0 14.08243,6.13871 14.08243,13.06581c0,6.15556 0,12.93368 0,16.58006c0,4.99909 -4.44811,12.33569 -12.3819,12.33569c-61.36061,0 8.07238,0 -25.04312,0c-6.543,0 -11.53164,-5.8935 -11.53164,-12.76082z" fill="url(#color-16)" stroke="none" stroke-width="0" stroke-linecap="butt"/><path d="M298.96002,331.06875c0,-6.9278 0,-14.84664 0,-18.70571c0,-4.44215 4.7867,-10.51503 11.10652,-10.51503c32.32499,0 -40.82295,0 23.76774,0c8.99617,0 14.08243,6.1387 14.08243,13.0658c0,6.15556 0,12.93368 0,16.58007c0,4.99909 -4.44811,12.33569 -12.3819,12.33569c-61.36061,0 8.07238,0 -25.04312,0c-6.543,0 -11.53165,-5.89351 -11.53165,-12.76082z" fill="url(#color-17)" stroke="none" stroke-width="0" stroke-linecap="butt"/><path d="M353.97783,331.95677c0,-6.9278 0,-14.84663 0,-18.7057c0,-4.44215 4.7867,-10.51504 11.10652,-10.51504c32.32499,0 -40.82295,0 23.76774,0c8.99617,0 14.08242,6.13871 14.08242,13.06581c0,6.15557 0,12.93368 0,16.58006c0,4.99908 -4.44811,12.33569 -12.3819,12.33569c-61.36061,0 8.07237,0 -25.04313,0c-6.543,0 -11.53164,-5.89352 -11.53164,-12.76083z" fill="url(#color-18)" stroke="none" stroke-width="0" stroke-linecap="butt"/><path d="M409.75608,331.06875c0,-6.9278 0,-14.84664 0,-18.70571c0,-4.44215 4.7867,-10.51504 11.10652,-10.51504c32.32499,0 -40.82295,0 23.76774,0c8.99617,0 14.08243,6.13871 14.08243,13.06581c0,6.15557 0,12.93368 0,16.58007c0,4.99908 -4.44811,12.33569 -12.3819,12.33569c-61.36061,0 8.07238,0 -25.04312,0c-6.543,0 -11.53164,-5.89351 -11.53164,-12.76082z" fill="url(#color-19)" stroke="none" stroke-width="0" stroke-linecap="butt"/><text transform="translate(249.65872,330.12342) scale(0.56461,0.56461)" font-size="40" xml:space="preserve" fill="#000000" fill-rule="nonzero" stroke="#000000" stroke-width="3" stroke-linecap="butt" stroke-linejoin="miter" stroke-miterlimit="10" stroke-dasharray="" stroke-dashoffset="0" font-family="Sans Serif" font-weight="normal" text-anchor="start" style="mix-blend-mode: normal"><tspan x="0" dy="0">GG</tspan></text><text transform="translate(250.5669,330.07975) scale(0.56461,0.56461)" font-size="40" xml:space="preserve" fill="#ffffff" fill-rule="nonzero" stroke="#ffffff" stroke-width="3" stroke-linecap="butt" stroke-linejoin="miter" stroke-miterlimit="10" stroke-dasharray="" stroke-dashoffset="0" font-family="Sans Serif" font-weight="normal" text-anchor="start" style="mix-blend-mode: normal"><tspan x="0" dy="0">GG</tspan></text><text transform="translate(360.46858,319.52832) scale(0.34589,0.34589)" font-size="40" xml:space="preserve" fill="#000000" fill-rule="nonzero" stroke="#000000" stroke-width="3" stroke-linecap="butt" stroke-linejoin="miter" stroke-miterlimit="10" stroke-dasharray="" stroke-dashoffset="0" font-family="Sans Serif" font-weight="normal" text-anchor="start" style="mix-blend-mode: normal"><tspan x="0" dy="0">come</tspan></text><text transform="translate(361.02496,319.50158) scale(0.34589,0.34589)" font-size="40" xml:space="preserve" fill="#ffffff" fill-rule="nonzero" stroke="#ffffff" stroke-width="3" stroke-linecap="butt" stroke-linejoin="miter" stroke-miterlimit="10" stroke-dasharray="" stroke-dashoffset="0" font-family="Sans Serif" font-weight="normal" text-anchor="start" style="mix-blend-mode: normal"><tspan x="0" dy="0">come</tspan></text><text transform="translate(361.59248,332.73467) scale(0.34589,0.34589)" font-size="40" xml:space="preserve" fill="#000000" fill-rule="nonzero" stroke="#000000" stroke-width="3" stroke-linecap="butt" stroke-linejoin="miter" stroke-miterlimit="10" stroke-dasharray="" stroke-dashoffset="0" font-family="Sans Serif" font-weight="normal" text-anchor="start" style="mix-blend-mode: normal"><tspan x="0" dy="0">here!</tspan></text><text transform="translate(362.14884,332.70793) scale(0.34589,0.34589)" font-size="40" xml:space="preserve" fill="#ffffff" fill-rule="nonzero" stroke="#ffffff" stroke-width="3" stroke-linecap="butt" stroke-linejoin="miter" stroke-miterlimit="10" stroke-dasharray="" stroke-dashoffset="0" font-family="Sans Serif" font-weight="normal" text-anchor="start" style="mix-blend-mode: normal"><tspan x="0" dy="0">here!</tspan></text><text transform="translate(308.11325,321.3754) scale(0.34589,0.34589)" font-size="40" xml:space="preserve" fill="#000000" fill-rule="nonzero" stroke="#000000" stroke-width="3" stroke-linecap="butt" stroke-linejoin="miter" stroke-miterlimit="10" stroke-dasharray="" stroke-dashoffset="0" font-family="Sans Serif" font-weight="normal" text-anchor="start" style="mix-blend-mode: normal"><tspan x="0" dy="0">let's</tspan></text><text transform="translate(308.66963,321.34865) scale(0.34589,0.34589)" font-size="40" xml:space="preserve" fill="#ffffff" fill-rule="nonzero" stroke="#ffffff" stroke-width="3" stroke-linecap="butt" stroke-linejoin="miter" stroke-miterlimit="10" stroke-dasharray="" stroke-dashoffset="0" font-family="Sans Serif" font-weight="normal" text-anchor="start" style="mix-blend-mode: normal"><tspan x="0" dy="0">let's</tspan></text><text transform="translate(307.13689,334.58175) scale(0.34589,0.34589)" font-size="40" xml:space="preserve" fill="#000000" fill-rule="nonzero" stroke="#000000" stroke-width="3" stroke-linecap="butt" stroke-linejoin="miter" stroke-miterlimit="10" stroke-dasharray="" stroke-dashoffset="0" font-family="Sans Serif" font-weight="normal" text-anchor="start" style="mix-blend-mode: normal"><tspan x="0" dy="0">race!</tspan></text><text transform="translate(307.69326,334.55501) scale(0.34589,0.34589)" font-size="40" xml:space="preserve" fill="#ffffff" fill-rule="nonzero" stroke="#ffffff" stroke-width="3" stroke-linecap="butt" stroke-linejoin="miter" stroke-miterlimit="10" stroke-dasharray="" stroke-dashoffset="0" font-family="Sans Serif" font-weight="normal" text-anchor="start" style="mix-blend-mode: normal"><tspan x="0" dy="0">race!</tspan></text><text transform="translate(414.66655,319.77593) scale(0.34589,0.34589)" font-size="40" xml:space="preserve" fill="#000000" fill-rule="nonzero" stroke="#000000" stroke-width="3" stroke-linecap="butt" stroke-linejoin="miter" stroke-miterlimit="10" stroke-dasharray="" stroke-dashoffset="0" font-family="Sans Serif" font-weight="normal" text-anchor="start" style="mix-blend-mode: normal"><tspan x="0" dy="0">got to</tspan></text><text transform="translate(415.2229,319.74918) scale(0.34589,0.34589)" font-size="40" xml:space="preserve" fill="#ffffff" fill-rule="nonzero" stroke="#ffffff" stroke-width="3" stroke-linecap="butt" stroke-linejoin="miter" stroke-miterlimit="10" stroke-dasharray="" stroke-dashoffset="0" font-family="Sans Serif" font-weight="normal" text-anchor="start" style="mix-blend-mode: normal"><tspan x="0" dy="0">got to</tspan></text><text transform="translate(424.14419,332.98228) scale(0.34589,0.34589)" font-size="40" xml:space="preserve" fill="#000000" fill-rule="nonzero" stroke="#000000" stroke-width="3" stroke-linecap="butt" stroke-linejoin="miter" stroke-miterlimit="10" stroke-dasharray="" stroke-dashoffset="0" font-family="Sans Serif" font-weight="normal" text-anchor="start" style="mix-blend-mode: normal"><tspan x="0" dy="0">go!</tspan></text><text transform="translate(424.70055,332.95554) scale(0.34589,0.34589)" font-size="40" xml:space="preserve" fill="#ffffff" fill-rule="nonzero" stroke="#ffffff" stroke-width="3" stroke-linecap="butt" stroke-linejoin="miter" stroke-miterlimit="10" stroke-dasharray="" stroke-dashoffset="0" font-family="Sans Serif" font-weight="normal" text-anchor="start" style="mix-blend-mode: normal"><tspan x="0" dy="0">go!</tspan></text><g fill="#ffd522" stroke="none" stroke-width="0" stroke-linecap="butt"><g><path d="M45.8076,312.61551c-0.86364,-0.86364 -1.01427,-2.11325 -0.33643,-2.79109c0.67784,-0.67784 1.92745,-0.52721 2.79109,0.33643c0.86364,0.86364 1.01427,2.11325 0.33643,2.79109c-0.67784,0.67784 -1.92745,0.52721 -2.79109,-0.33643z"/><path d="M53.16497,319.97287l-7.383,-7.383l2.45466,-2.45466l7.383,7.383z"/></g><g><path d="M37.93382,311.38289c-0.84463,-0.84463 -0.99193,-2.06672 -0.32903,-2.72963c0.66291,-0.66291 1.88501,-0.5156 2.72964,0.32902c0.84463,0.84463 0.99192,2.06672 0.32901,2.72963c-0.66291,0.66291 -1.885,0.5156 -2.72962,-0.32902z"/><path d="M49.44208,322.89116l-11.53332,-11.53332l2.40061,-2.40062l11.53332,11.53333z"/></g><g><path d="M35.70187,314.47026c-0.84463,-0.84463 -0.99193,-2.06672 -0.32903,-2.72963c0.66291,-0.66291 1.885,-0.5156 2.72963,0.32903c0.84463,0.84463 0.99193,2.06671 0.32902,2.72962c-0.66291,0.66291 -1.885,0.51561 -2.72962,-0.32902z"/><path d="M47.21013,325.97852l-11.53333,-11.53332l2.40061,-2.40061l11.53332,11.53333z"/></g><g><path d="M34.78061,318.96505c-0.84463,-0.84463 -0.99193,-2.06672 -0.32902,-2.72963c0.66291,-0.66291 1.88501,-0.5156 2.72963,0.32902c0.84463,0.84463 0.99193,2.06672 0.32902,2.72963c-0.66291,0.66291 -1.885,0.5156 -2.72963,-0.32902z"/><path d="M46.28888,330.47331l-11.53333,-11.53332l2.40061,-2.40062l11.53333,11.53333z"/></g><g><path d="M34.77931,324.26507c-0.84463,-0.84463 -0.99193,-2.06673 -0.32902,-2.72964c0.66291,-0.66291 1.885,-0.5156 2.72963,0.32903c0.84463,0.84463 0.99193,2.06671 0.32902,2.72962c-0.66291,0.66291 -1.885,0.51561 -2.72963,-0.32901z"/><path d="M44.4392,333.92493l-9.68494,-9.68494l2.40061,-2.40061l9.68494,9.68494z"/></g><path d="M42.56455,331.80618l-2.24522,-2.25645c0,0 2.8903,-6.91464 5.15818,-9.18251c0.66365,-0.66366 1.76738,-2.68532 3.1512,-2.93389c0.9071,-0.16294 2.60281,1.26201 3.16208,0.79582c1.54053,-1.28415 0.64815,-3.83862 0.64815,-3.83862l4.29482,4.29482c0,0 3.41795,3.98747 2.33238,6.75133c-0.48045,1.54129 1.48915,2.18709 1.74704,3.86089c-0.26747,1.40179 -1.50556,3.01553 -2.75044,4.4129c-1.07381,1.20534 -2.94259,3.10197 -3.7456,3.3728c-1.02448,0.59056 -2.19453,-1.44925 -3.11512,-0.94234c-2.61529,2.099 -8.63746,-4.33475 -8.63746,-4.33475z"/></g><path d="M52.13805,308.9414v-4.34542" fill="#ffffff" stroke="#ffffff" stroke-width="3" stroke-linecap="round"/><path d="M60.22535,306.94975l-4.88859,4.70753" fill="none" stroke="#ffffff" stroke-width="3" stroke-linecap="round"/><path d="M63.66547,314.01104l-5.79389,0.9053" fill="none" stroke="#ffffff" stroke-width="3" stroke-linecap="round"/><path d="M29.26427,336.64341l4.52647,-4.88859" fill="none" stroke="#ffffff" stroke-width="3" stroke-linecap="round"/><path d="M37.77404,335.55706l-1.26741,5.43177" fill="none" stroke="#ffffff" stroke-width="3" stroke-linecap="round"/><path d="M30.8938,328.67682l-4.88859,0.54318" fill="none" stroke="#ffffff" stroke-width="3" stroke-linecap="round"/><path d="M83.77846,323.04321c0,-9.81896 7.95983,-17.77879 17.77878,-17.77879c9.81896,0 17.77879,7.95983 17.77879,17.77879c0,9.81895 -7.95983,17.77878 -17.77879,17.77878c-9.81896,0 -17.77878,-7.95983 -17.77878,-17.77878z" fill="url(#color-20)" stroke="#f1f1f1" stroke-width="0" stroke-linecap="butt"/><path d="M93.94175,313.81003c0,0 3.20725,3.12083 3.27105,3.54482c0.05945,0.39513 -4.08154,2.77202 -4.08154,2.77202" fill="none" stroke="#9f8200" stroke-width="4" stroke-linecap="round"/><path d="M109.84596,320.14207c0,0 -4.28334,-2.60685 -4.22569,-2.98998c0.06186,-0.41113 3.4398,-3.13519 3.4398,-3.13519" data-paper-data="{&quot;index&quot;:null}" fill="none" stroke="#9f8200" stroke-width="4" stroke-linecap="round"/><path d="M93.32217,327.96824l0.08512,-3.67036c0,0 5.10728,1.64345 7.73964,1.64345c2.74169,0 8.39582,-1.64345 8.39582,-1.64345l0.25535,3.56067c0,0 -4.11679,1.26324 -8.43895,1.28023c-4.49238,0.01766 -8.03697,-1.17055 -8.03697,-1.17055z" fill="#ffffff" stroke="none" stroke-width="NaN" stroke-linecap="butt"/><path d="M110.47946,324.55706c0,0 -5.40712,0.50762 -9.23727,0.53942c-4.01207,0.03333 -9.02112,-0.28641 -9.02112,-0.28641" fill="none" stroke="#9f8200" stroke-width="2.5" stroke-linecap="round"/><path d="M110.38127,324.68357c0,0 0.32382,9.86853 -8.93691,9.80408c-8.76971,-0.06104 -9.20275,-9.14592 -9.20275,-9.14592" fill="none" stroke="#9f8200" stroke-width="2.5" stroke-linecap="round"/><text transform="translate(197.09818,320.45764) scale(0.34589,0.34589)" font-size="40" xml:space="preserve" fill="#000000" fill-rule="nonzero" stroke="#000000" stroke-width="3" stroke-linecap="butt" stroke-linejoin="miter" stroke-miterlimit="10" stroke-dasharray="" stroke-dashoffset="0" font-family="Sans Serif" font-weight="normal" text-anchor="start" style="mix-blend-mode: normal"><tspan x="0" dy="0">nice</tspan></text><text transform="translate(197.65451,320.43089) scale(0.34589,0.34589)" font-size="40" xml:space="preserve" fill="#ffffff" fill-rule="nonzero" stroke="#ffffff" stroke-width="3" stroke-linecap="butt" stroke-linejoin="miter" stroke-miterlimit="10" stroke-dasharray="" stroke-dashoffset="0" font-family="Sans Serif" font-weight="normal" text-anchor="start" style="mix-blend-mode: normal"><tspan x="0" dy="0">nice</tspan></text><text transform="translate(198.59273,333.45808) scale(0.34589,0.34589)" font-size="40" xml:space="preserve" fill="#000000" fill-rule="nonzero" stroke="#000000" stroke-width="3" stroke-linecap="butt" stroke-linejoin="miter" stroke-miterlimit="10" stroke-dasharray="" stroke-dashoffset="0" font-family="Sans Serif" font-weight="normal" text-anchor="start" style="mix-blend-mode: normal"><tspan x="0" dy="0">car!</tspan></text><text transform="translate(199.14912,333.43134) scale(0.34589,0.34589)" font-size="40" xml:space="preserve" fill="#ffffff" fill-rule="nonzero" stroke="#ffffff" stroke-width="3" stroke-linecap="butt" stroke-linejoin="miter" stroke-miterlimit="10" stroke-dasharray="" stroke-dashoffset="0" font-family="Sans Serif" font-weight="normal" text-anchor="start" style="mix-blend-mode: normal"><tspan x="0" dy="0">car!</tspan></text><text transform="translate(420.22368,265.25595) scale(0.34589,0.34589)" font-size="40" xml:space="preserve" fill="#000000" fill-rule="nonzero" stroke="#000000" stroke-width="3" stroke-linecap="butt" stroke-linejoin="miter" stroke-miterlimit="10" stroke-dasharray="" stroke-dashoffset="0" font-family="Sans Serif" font-weight="normal" text-anchor="start" style="mix-blend-mode: normal"><tspan x="0" dy="0">that</tspan></text><text transform="translate(420.78004,265.22922) scale(0.34589,0.34589)" font-size="40" xml:space="preserve" fill="#ffffff" fill-rule="nonzero" stroke="#ffffff" stroke-width="3" stroke-linecap="butt" stroke-linejoin="miter" stroke-miterlimit="10" stroke-dasharray="" stroke-dashoffset="0" font-family="Sans Serif" font-weight="normal" text-anchor="start" style="mix-blend-mode: normal"><tspan x="0" dy="0">that</tspan></text><text transform="translate(423.01175,276.04453) scale(0.29761,0.29761)" font-size="40" xml:space="preserve" fill="#000000" fill-rule="nonzero" stroke="#000000" stroke-width="3" stroke-linecap="butt" stroke-linejoin="miter" stroke-miterlimit="10" stroke-dasharray="" stroke-dashoffset="0" font-family="Sans Serif" font-weight="normal" text-anchor="start" style="mix-blend-mode: normal"><tspan x="0" dy="0">was</tspan></text><text transform="translate(423.49042,276.02152) scale(0.29761,0.29761)" font-size="40" xml:space="preserve" fill="#ffffff" fill-rule="nonzero" stroke="#ffffff" stroke-width="3" stroke-linecap="butt" stroke-linejoin="miter" stroke-miterlimit="10" stroke-dasharray="" stroke-dashoffset="0" font-family="Sans Serif" font-weight="normal" text-anchor="start" style="mix-blend-mode: normal"><tspan x="0" dy="0">was</tspan></text><text transform="translate(415.44775,288.49666) scale(0.34589,0.34589)" font-size="40" xml:space="preserve" fill="#000000" fill-rule="nonzero" stroke="#000000" stroke-width="3" stroke-linecap="butt" stroke-linejoin="miter" stroke-miterlimit="10" stroke-dasharray="" stroke-dashoffset="0" font-family="Sans Serif" font-weight="normal" text-anchor="start" style="mix-blend-mode: normal"><tspan x="0" dy="0">close!</tspan></text><text transform="translate(416.00411,288.46992) scale(0.34589,0.34589)" font-size="40" xml:space="preserve" fill="#ffffff" fill-rule="nonzero" stroke="#ffffff" stroke-width="3" stroke-linecap="butt" stroke-linejoin="miter" stroke-miterlimit="10" stroke-dasharray="" stroke-dashoffset="0" font-family="Sans Serif" font-weight="normal" text-anchor="start" style="mix-blend-mode: normal"><tspan x="0" dy="0">close!</tspan></text><path d="M139.71848,321.86292c0,-9.81896 7.95983,-17.77878 17.77878,-17.77878c9.81896,0 17.77879,7.95983 17.77879,17.77878c0,9.81895 -7.95983,17.77879 -17.77879,17.77879c-9.81895,0 -17.77878,-7.95984 -17.77878,-17.77879z" fill="url(#color-21)" stroke="#f1f1f1" stroke-width="0" stroke-linecap="butt"/><path d="M152.97202,317.99696v-4.14494" fill="none" stroke="#9f8200" stroke-width="4" stroke-linecap="round"/><path d="M161.65873,313.87959c0,0 0,1.94724 0,2.7081c0,0.55421 0,1.43684 0,1.43684" fill="none" stroke="#9f8200" stroke-width="4" stroke-linecap="round"/><path d="M162.74002,329.21155c0,3.42007 -2.34297,6.19258 -5.23317,6.19258c-2.8902,0 -5.23317,-2.77251 -5.23317,-6.19258c0,-3.42007 2.34297,-6.19258 5.23317,-6.19258c2.8902,0 5.23317,2.77251 5.23317,6.19258z" fill="#9f8200" stroke="none" stroke-width="NaN" stroke-linecap="butt"/><path d="M126.27293,225.87819c-3.97307,4.16311 -9.89178,10.36492 -12.09664,12.67523c-1.64991,1.72883 -3.66059,1.418 -3.66059,-2.17464c0,-8.69151 0,-24.25981 0,-29.10908c0,-2.8367 2.27841,-3.62364 4.07486,-1.73719c2.26207,2.3754 8.06725,8.4714 11.90442,12.50081c2.11245,2.21828 2.01032,5.50574 -0.22204,7.84487z" data-paper-data="{&quot;index&quot;:null}" fill-opacity="0.32157" fill="#000000" stroke-opacity="0.62745" stroke="#babdbf" stroke-width="0" stroke-linecap="butt"/><path d="M26.10404,217.52485c3.83717,-4.0294 9.64235,-10.12541 11.90442,-12.50081c1.79645,-1.88645 4.07486,-1.09951 4.07486,1.73719c0,4.84927 0,20.41757 0,29.10908c0,3.59265 -2.01068,3.90347 -3.6606,2.17464c-2.20486,-2.31032 -8.12357,-8.51212 -12.09665,-12.67523c-2.23235,-2.33913 -2.3345,-5.62659 -0.22204,-7.84487z" data-paper-data="{&quot;index&quot;:null}" fill-opacity="0.1451" fill="#000000" stroke-opacity="0.62745" stroke="#babdbf" stroke-width="0" stroke-linecap="butt"/><text transform="translate(50.24776,226.39064) scale(0.41342,0.38571)" font-size="40" xml:space="preserve" fill-opacity="0" fill="#000000" fill-rule="nonzero" stroke-opacity="0.32157" stroke="#000000" stroke-width="4.2" stroke-linecap="butt" stroke-linejoin="miter" stroke-miterlimit="10" stroke-dasharray="" stroke-dashoffset="0" font-family="&quot;Microsoft YaHei&quot;, &quot;微软雅黑&quot;, STXihei, &quot;华文细黑&quot;" font-weight="normal" text-anchor="start" style="mix-blend-mode: normal"><tspan x="0" dy="0">PAGE 1</tspan></text></g></g></svg>