<svg version="1.1" xmlns="http://www.w3.org/2000/svg" xmlns:xlink="http://www.w3.org/1999/xlink" width="482.29271" height="409.30375" viewBox="0,0,482.29271,409.30375"><g transform="translate(1.14636,24.65188)"><g data-paper-data="{&quot;isPaintingLayer&quot;:true}" fill-rule="nonzero" stroke="none" stroke-width="0" stroke-linecap="butt" stroke-linejoin="miter" stroke-miterlimit="10" stroke-dasharray="" stroke-dashoffset="0" style="mix-blend-mode: normal"><g><path d="M90.63054,178.90516c-1.53923,-9.6395 6.69035,-12.32269 6.69035,-12.32269c0,0 -8.88409,-9.91041 -5.75249,-16.3139c2.30295,-4.70909 12.30224,-5.28607 12.30224,-5.28607c0,0 2.85548,-15.58758 10.1034,-15.58758c7.73092,0 11.63889,8.93838 11.63889,8.93838c0,0 4.6333,-10.32896 10.81755,-7.87945c5.94598,2.3551 5.63093,7.18668 8.31466,14.89616c1.37921,3.96227 12.69666,-2.20067 14.66139,6.67431c1.95767,8.84336 -6.69674,11.87348 -6.69674,11.87348c0,0 6.2014,5.67631 6.30999,11.65044c0.14872,8.17749 -14.18718,8.90104 -14.18718,8.90104c0,0 2.28544,10.76307 -7.85236,13.66352c-0.65646,0.18778 -9.35394,-3.17552 -9.92268,-3.17552c-0.24455,0 -3.42312,5.20204 -13.28562,3.71564c-4.42592,-0.66709 -8.58346,-12.59942 -8.58346,-12.59942c0,0 -13.12695,1.81277 -14.55783,-7.14823z" fill="#f7e3f5"/><path d="M96.00395,176.41725c-1.28321,-8.03596 5.57743,-10.27276 5.57743,-10.27276c0,0 -7.40622,-8.26171 -4.79558,-13.59994c1.91976,-3.92566 10.25562,-4.40682 10.25562,-4.40682c0,0 2.38047,-12.99445 8.42264,-12.99445c6.44483,0 9.70266,7.45144 9.70266,7.45144c0,0 3.86245,-8.61073 9.01793,-6.56873c4.95677,1.96333 4.69423,5.99114 6.93145,12.41815c1.14979,3.3031 10.58457,-1.83457 12.22244,5.56398c1.63205,7.37219 -5.5827,9.89824 -5.5827,9.89824c0,0 5.16974,4.73195 5.26034,9.71237c0.12402,6.81707 -11.82705,7.42029 -11.82705,7.42029c0,0 1.90534,8.9726 -6.54606,11.39054c-0.54719,0.15657 -7.79781,-2.64719 -8.27203,-2.64719c-0.20382,0 -2.85364,4.33654 -11.07548,3.09738c-3.68972,-0.55615 -7.15548,-10.50336 -7.15548,-10.50336c0,0 -10.94329,1.51122 -12.13613,-5.959z" fill="#ffcdf8"/></g><g><path d="M288.76623,217.80063c-1.75355,-10.98151 7.62176,-14.03828 7.62176,-14.03828c0,0 -10.12091,-11.2901 -6.55337,-18.58509c2.62354,-5.36464 14.01488,-6.02203 14.01488,-6.02203c0,0 3.25304,-17.75766 11.51002,-17.75766c8.80718,0 13.25921,10.18277 13.25921,10.18277c0,0 5.27833,-11.76703 12.32355,-8.97647c6.77377,2.683 6.41491,8.1872 9.47225,16.96999c1.57124,4.51388 14.46427,-2.50707 16.70254,7.60353c2.23029,10.0746 -7.62908,13.52647 -7.62908,13.52647c0,0 7.06475,6.46657 7.18852,13.27247c0.16948,9.31598 -16.16229,10.14026 -16.16229,10.14026c0,0 2.60364,12.26144 -8.94557,15.56572c-0.74786,0.21394 -10.65624,-3.61761 -11.30417,-3.61761c-0.27858,0 -3.89968,5.92627 -15.13517,4.23285c-5.04215,-0.75997 -9.7784,-14.35346 -9.7784,-14.35346c0,0 -14.95452,2.0651 -16.5846,-8.14341z" fill="#f7e1f5"/><path d="M294.88779,214.96635c-1.46183,-9.15467 6.35386,-11.70289 6.35386,-11.70289c0,0 -8.43727,-9.41193 -5.46318,-15.49336c2.18709,-4.47218 11.68337,-5.02029 11.68337,-5.02029c0,0 2.71186,-14.80359 9.59523,-14.80359c7.34209,0 11.05343,8.48881 11.05343,8.48881c0,0 4.40024,-9.80947 10.27343,-7.48319c5.6469,2.23667 5.34775,6.82518 7.89641,14.14694c1.30987,3.763 12.05813,-2.08998 13.92403,6.33862c1.85927,8.39857 -6.35994,11.27622 -6.35994,11.27622c0,0 5.88947,5.39075 5.99267,11.06449c0.14128,7.76618 -13.47358,8.45337 -13.47358,8.45337c0,0 2.17057,10.22171 -7.45738,12.97627c-0.62342,0.17838 -8.88347,-3.01574 -9.42366,-3.01574c-0.23219,0 -3.25095,4.94037 -12.61735,3.52866c-4.20337,-0.63356 -8.15169,-11.96567 -8.15169,-11.96567c0,0 -12.4668,1.72155 -13.82568,-6.7887z" fill="#ffcef8"/></g><g><path d="M237.76678,134.21963c-2.07942,-10.85619 7.14104,-14.18097 7.14104,-14.18097c0,0 -10.40182,-10.90582 -7.08146,-18.26291c2.44171,-5.41028 13.7387,-6.41326 13.7387,-6.41326c0,0 2.68649,-17.742 10.88972,-17.99563c8.74987,-0.27047 13.48562,9.70929 13.48562,9.70929c0,0 4.88262,-11.85253 11.9677,-9.29657c6.8121,2.45756 6.62462,7.93689 9.93171,16.56869c1.69968,4.43623 14.2932,-2.93497 16.82736,7.0411c2.52519,9.9405 -7.16401,13.67273 -7.16401,13.67273c0,0 7.2174,6.20753 7.5494,12.96534c0.45444,9.25013 -15.7457,10.57062 -15.7457,10.57062c0,0 2.96329,12.10175 -8.40931,15.73912c-0.73638,0.23551 -10.69801,-3.2668 -11.34176,-3.24689c-0.27673,0.00854 -3.6923,6.00741 -14.90667,4.67015c-5.03269,-0.60014 -10.15556,-13.95978 -10.15556,-13.95978c0,0 -14.79383,2.51093 -16.72681,-7.58105z" fill="#f7ebf6"/><path d="M243.76141,131.21574c-1.73346,-9.05018 5.95305,-11.82188 5.95305,-11.82188c0,0 -8.67137,-9.09158 -5.90342,-15.22474c2.03556,-4.51026 11.45314,-5.34639 11.45314,-5.34639c0,0 2.23962,-14.79051 9.0782,-15.00195c7.29429,-0.22549 11.24219,8.09408 11.24219,8.09408c0,0 4.07032,-9.88079 9.97674,-7.74996c5.67883,2.0487 5.52258,6.61658 8.27952,13.81242c1.41693,3.69826 11.91543,-2.44668 14.02807,5.86975c2.10509,8.28684 -5.97222,11.39816 -5.97222,11.39816c0,0 6.01669,5.17483 6.29347,10.80846c0.37888,7.71133 -13.12627,8.81216 -13.12627,8.81216c0,0 2.47034,10.08854 -7.01039,13.1208c-0.6139,0.19631 -8.9183,-2.72329 -9.45499,-2.70671c-0.23071,0.00712 -3.07809,5.00806 -12.42687,3.89316c-4.19545,-0.50033 -8.46608,-11.63748 -8.46608,-11.63748c0,0 -12.33276,2.09317 -13.94418,-6.31995z" fill="#ffc3f6"/></g><g><path d="M99.96655,79.66153c-1.57774,-9.88042 6.8575,-12.63068 6.8575,-12.63068c0,0 -9.10608,-10.15808 -5.89623,-16.72158c2.3605,-4.82673 12.60961,-5.4182 12.60961,-5.4182c0,0 2.92686,-15.97715 10.35587,-15.97715c7.92411,0 11.92968,9.16174 11.92968,9.16174c0,0 4.74908,-10.58714 11.0879,-8.07639c6.09457,2.41401 5.77171,7.36629 8.52247,15.2684c1.41374,4.06129 13.01399,-2.25571 15.0278,6.84116c2.00669,9.06437 -6.86413,12.17016 -6.86413,12.17016c0,0 6.35638,5.81816 6.46774,11.94166c0.15246,8.38186 -14.54166,9.12346 -14.54166,9.12346c0,0 2.34257,11.03199 -8.04862,14.00492c-0.67287,0.19252 -9.58773,-3.25482 -10.17074,-3.25482c-0.25062,0 -3.5087,5.33202 -13.61757,3.80846c-4.53661,-0.68374 -8.79791,-12.9143 -8.79791,-12.9143c0,0 -13.45503,1.85803 -14.92166,-7.32686z" fill="#f7e9f6"/><path d="M105.4742,77.11146c-1.31527,-8.23671 5.71674,-10.52946 5.71674,-10.52946c0,0 -7.59124,-8.46822 -4.91537,-13.93981c1.96781,-4.02376 10.51189,-4.51689 10.51189,-4.51689c0,0 2.44,-13.31921 8.63316,-13.31921c6.6059,0 9.94511,7.63761 9.94511,7.63761c0,0 3.95901,-8.82591 9.2433,-6.73286c5.08066,2.0124 4.81155,6.14083 7.10468,12.72841c1.17853,3.38565 10.84906,-1.88039 12.52785,5.70311c1.67283,7.55647 -5.72221,10.14554 -5.72221,10.14554c0,0 5.29898,4.85025 5.39179,9.95507c0.12709,6.98748 -12.12256,7.60573 -12.12256,7.60573c0,0 1.95288,9.19675 -6.70964,11.67513c-0.56095,0.16045 -7.99273,-2.71334 -8.47873,-2.71334c-0.20891,0 -2.92496,4.44496 -11.35221,3.17483c-3.78192,-0.56998 -7.33429,-10.76589 -7.33429,-10.76589c0,0 -11.2167,1.54893 -12.4394,-6.10802z" fill="#ffd2f8"/></g><path d="M-1.14635,384.65188v-409.30375h482.29271v409.30375z" fill="none"/></g></g></svg>