<svg version="1.1" xmlns="http://www.w3.org/2000/svg" xmlns:xlink="http://www.w3.org/1999/xlink" width="472.87786" height="360.53869" viewBox="0,0,472.87786,360.53869"><defs><linearGradient x1="121.53166" y1="217.49248" x2="121.4997" y2="206.10033" gradientUnits="userSpaceOnUse" id="color-1"><stop offset="0" stop-color="#ff8282"/><stop offset="1" stop-color="#d00000"/></linearGradient><linearGradient x1="121.16194" y1="153.39316" x2="121.12678" y2="140.8618" gradientUnits="userSpaceOnUse" id="color-2"><stop offset="0" stop-color="#d00000"/><stop offset="1" stop-color="#ff8282"/></linearGradient><linearGradient x1="204.87179" y1="124.76229" x2="205.02893" y2="180.76882" gradientUnits="userSpaceOnUse" id="color-3"><stop offset="0" stop-color="#00164a"/><stop offset="1" stop-color="#00449c"/></linearGradient><linearGradient x1="140.89726" y1="156.52064" x2="122.21542" y2="156.57305" gradientUnits="userSpaceOnUse" id="color-4"><stop offset="0" stop-color="#053276"/><stop offset="1" stop-color="#053276" stop-opacity="0"/></linearGradient><linearGradient x1="140.89726" y1="156.52064" x2="122.21542" y2="156.57305" gradientUnits="userSpaceOnUse" id="color-5"><stop offset="0" stop-color="#053276"/><stop offset="1" stop-color="#053276" stop-opacity="0"/></linearGradient><linearGradient x1="205.63441" y1="235.61365" x2="205.47727" y2="179.60713" gradientUnits="userSpaceOnUse" id="color-6"><stop offset="0" stop-color="#00164a"/><stop offset="1" stop-color="#00449c"/></linearGradient><linearGradient x1="141.48266" y1="204.2148" x2="122.80084" y2="204.26721" gradientUnits="userSpaceOnUse" id="color-7"><stop offset="0" stop-color="#053276"/><stop offset="1" stop-color="#053276" stop-opacity="0"/></linearGradient><radialGradient cx="160.86218" cy="129.68392" r="35.81399" gradientUnits="userSpaceOnUse" id="color-8"><stop offset="0" stop-color="#050811"/><stop offset="1" stop-color="#374e77"/></radialGradient><linearGradient x1="140.89726" y1="156.52064" x2="122.21542" y2="156.57305" gradientUnits="userSpaceOnUse" id="color-9"><stop offset="0" stop-color="#053276"/><stop offset="1" stop-color="#053276" stop-opacity="0"/></linearGradient><linearGradient x1="159.27305" y1="139.79987" x2="160.87199" y2="144.06706" gradientUnits="userSpaceOnUse" id="color-10"><stop offset="0" stop-color="#ffffff" stop-opacity="0"/><stop offset="1" stop-color="#ffffff"/></linearGradient><radialGradient cx="207.08813" cy="147.13189" r="64.24103" gradientUnits="userSpaceOnUse" id="color-11"><stop offset="0" stop-color="#849cc8"/><stop offset="1" stop-color="#849cc8" stop-opacity="0"/></radialGradient><linearGradient x1="223.50586" y1="147.82658" x2="223.59536" y2="179.72939" gradientUnits="userSpaceOnUse" id="color-12"><stop offset="0" stop-color="#395384"/><stop offset="1" stop-color="#020a2f"/></linearGradient><linearGradient x1="132.74157" y1="175.4208" x2="132.75487" y2="180.15994" gradientUnits="userSpaceOnUse" id="color-13"><stop offset="0" stop-color="#849cc8" stop-opacity="0"/><stop offset="1" stop-color="#849cc8"/></linearGradient><linearGradient x1="132.74157" y1="175.4208" x2="132.75487" y2="180.15994" gradientUnits="userSpaceOnUse" id="color-14"><stop offset="0" stop-color="#849cc8" stop-opacity="0"/><stop offset="1" stop-color="#849cc8"/></linearGradient><linearGradient x1="163.82309" y1="175.45445" x2="163.83809" y2="180.80182" gradientUnits="userSpaceOnUse" id="color-15"><stop offset="0" stop-color="#849cc8" stop-opacity="0"/><stop offset="1" stop-color="#849cc8"/></linearGradient><linearGradient x1="161.29984" y1="123.25773" x2="161.35814" y2="144.03677" gradientUnits="userSpaceOnUse" id="color-16"><stop offset="0" stop-color="#050811"/><stop offset="1" stop-color="#050811" stop-opacity="0"/></linearGradient><linearGradient x1="284.81082" y1="130.04271" x2="284.92839" y2="171.94282" gradientUnits="userSpaceOnUse" id="color-17"><stop offset="0" stop-color="#b7b7b7"/><stop offset="1" stop-color="#e4e4e4"/></linearGradient><radialGradient cx="329.7776" cy="159.03677" r="33.49306" gradientUnits="userSpaceOnUse" id="color-18"><stop offset="0" stop-color="#e4e4e4"/><stop offset="1" stop-color="#ffffff"/></radialGradient><radialGradient cx="317.84542" cy="129.01563" r="78.03656" gradientUnits="userSpaceOnUse" id="color-19"><stop offset="0" stop-color="#969799"/><stop offset="1" stop-color="#1d2022"/></radialGradient><linearGradient x1="351.57132" y1="130.74374" x2="351.67616" y2="168.11002" gradientUnits="userSpaceOnUse" id="color-20"><stop offset="0" stop-color="#ffffff"/><stop offset="1" stop-color="#ffffff" stop-opacity="0"/></linearGradient><linearGradient x1="249.21571" y1="134.77208" x2="249.2317" y2="140.47223" gradientUnits="userSpaceOnUse" id="color-21"><stop offset="0" stop-color="#c7e4dd"/><stop offset="1" stop-color="#8da59f"/></linearGradient><linearGradient x1="313.93509" y1="138.84357" x2="314.04504" y2="178.0326" gradientUnits="userSpaceOnUse" id="color-22"><stop offset="0" stop-color="#020a2f"/><stop offset="1" stop-color="#0045c4"/></linearGradient><linearGradient x1="325.31339" y1="158.56767" x2="266.29537" y2="158.73326" gradientUnits="userSpaceOnUse" id="color-23"><stop offset="0" stop-color="#010100" stop-opacity="0"/><stop offset="1" stop-color="#010100"/></linearGradient><radialGradient cx="161.5979" cy="230.93905" r="35.81399" gradientUnits="userSpaceOnUse" id="color-24"><stop offset="0" stop-color="#050811"/><stop offset="1" stop-color="#374e77"/></radialGradient><linearGradient x1="141.48266" y1="204.2148" x2="122.80079" y2="204.26721" gradientUnits="userSpaceOnUse" id="color-25"><stop offset="0" stop-color="#053276"/><stop offset="1" stop-color="#053276" stop-opacity="0"/></linearGradient><linearGradient x1="159.95201" y1="220.83216" x2="161.52693" y2="216.55609" gradientUnits="userSpaceOnUse" id="color-26"><stop offset="0" stop-color="#ffffff" stop-opacity="0"/><stop offset="1" stop-color="#ffffff"/></linearGradient><radialGradient cx="207.7252" cy="213.23196" r="64.24103" gradientUnits="userSpaceOnUse" id="color-27"><stop offset="0" stop-color="#849cc8"/><stop offset="1" stop-color="#849cc8" stop-opacity="0"/></radialGradient><linearGradient x1="224.13876" y1="212.44516" x2="224.04925" y2="180.54234" gradientUnits="userSpaceOnUse" id="color-28"><stop offset="0" stop-color="#395384"/><stop offset="1" stop-color="#020a2f"/></linearGradient><linearGradient x1="133.22107" y1="185.3607" x2="133.20777" y2="180.62157" gradientUnits="userSpaceOnUse" id="color-29"><stop offset="0" stop-color="#849cc8" stop-opacity="0"/><stop offset="1" stop-color="#849cc8"/></linearGradient><linearGradient x1="164.30189" y1="185.15264" x2="164.28689" y2="179.80527" gradientUnits="userSpaceOnUse" id="color-30"><stop offset="0" stop-color="#849cc8" stop-opacity="0"/><stop offset="1" stop-color="#849cc8"/></linearGradient><linearGradient x1="162.07161" y1="237.3627" x2="162.01331" y2="216.58366" gradientUnits="userSpaceOnUse" id="color-31"><stop offset="0" stop-color="#050811"/><stop offset="1" stop-color="#050811" stop-opacity="0"/></linearGradient><linearGradient x1="285.54251" y1="229.8847" x2="285.42494" y2="187.98463" gradientUnits="userSpaceOnUse" id="color-32"><stop offset="0" stop-color="#b7b7b7"/><stop offset="1" stop-color="#e4e4e4"/></linearGradient><radialGradient cx="330.34592" cy="200.63882" r="33.49307" gradientUnits="userSpaceOnUse" id="color-33"><stop offset="0" stop-color="#e4e4e4"/><stop offset="1" stop-color="#ffffff"/></radialGradient><radialGradient cx="318.58236" cy="230.72642" r="78.03656" gradientUnits="userSpaceOnUse" id="color-34"><stop offset="0" stop-color="#969799"/><stop offset="1" stop-color="#1d2022"/></radialGradient><linearGradient x1="352.29804" y1="228.80907" x2="352.19319" y2="191.44281" gradientUnits="userSpaceOnUse" id="color-35"><stop offset="0" stop-color="#ffffff"/><stop offset="1" stop-color="#ffffff" stop-opacity="0"/></linearGradient><linearGradient x1="249.92145" y1="225.35518" x2="249.90545" y2="219.65503" gradientUnits="userSpaceOnUse" id="color-36"><stop offset="0" stop-color="#c7e4dd"/><stop offset="1" stop-color="#8da59f"/></linearGradient><linearGradient x1="314.61694" y1="220.92056" x2="314.50698" y2="181.73156" gradientUnits="userSpaceOnUse" id="color-37"><stop offset="0" stop-color="#020a2f"/><stop offset="1" stop-color="#0045c4"/></linearGradient><linearGradient x1="325.88437" y1="201.13294" x2="266.86641" y2="201.29853" gradientUnits="userSpaceOnUse" id="color-38"><stop offset="0" stop-color="#010100" stop-opacity="0"/><stop offset="1" stop-color="#010100"/></linearGradient><linearGradient x1="159.72483" y1="221.06063" x2="161.29974" y2="216.78455" gradientUnits="userSpaceOnUse" id="color-39"><stop offset="0" stop-color="#ffffff" stop-opacity="0"/><stop offset="1" stop-color="#ffffff"/></linearGradient><linearGradient x1="159.0459" y1="140.02838" x2="160.64481" y2="144.29555" gradientUnits="userSpaceOnUse" id="color-40"><stop offset="0" stop-color="#ffffff" stop-opacity="0"/><stop offset="1" stop-color="#ffffff"/></linearGradient><linearGradient x1="161.07265" y1="123.48621" x2="161.13095" y2="144.26522" gradientUnits="userSpaceOnUse" id="color-41"><stop offset="0" stop-color="#050811"/><stop offset="1" stop-color="#050811" stop-opacity="0"/></linearGradient><linearGradient x1="161.8444" y1="237.59118" x2="161.78609" y2="216.81213" gradientUnits="userSpaceOnUse" id="color-42"><stop offset="0" stop-color="#050811"/><stop offset="1" stop-color="#050811" stop-opacity="0"/></linearGradient><linearGradient x1="135.03662" y1="217.6911" x2="126.86698" y2="217.71403" gradientUnits="userSpaceOnUse" id="color-43"><stop offset="0" stop-color="#3f5b8a" stop-opacity="0"/><stop offset="1" stop-color="#3f5b8a"/></linearGradient><linearGradient x1="134.37702" y1="143.5364" x2="126.20733" y2="143.55932" gradientUnits="userSpaceOnUse" id="color-44"><stop offset="0" stop-color="#3f5b8a" stop-opacity="0"/><stop offset="1" stop-color="#3f5b8a"/></linearGradient><linearGradient x1="132.51437" y1="175.64928" x2="132.52766" y2="180.38841" gradientUnits="userSpaceOnUse" id="color-45"><stop offset="0" stop-color="#849cc8" stop-opacity="0"/><stop offset="1" stop-color="#849cc8"/></linearGradient><linearGradient x1="132.99386" y1="185.58917" x2="132.98056" y2="180.85004" gradientUnits="userSpaceOnUse" id="color-46"><stop offset="0" stop-color="#849cc8" stop-opacity="0"/><stop offset="1" stop-color="#849cc8"/></linearGradient></defs><g transform="translate(-4.42566,-1.09611)"><g data-paper-data="{&quot;isPaintingLayer&quot;:true}" fill-rule="nonzero" stroke-linejoin="miter" stroke-miterlimit="10" stroke-dasharray="" stroke-dashoffset="0" style="mix-blend-mode: normal"><path d="M124.83538,217.48321l-6.63877,-11.14577l2.50564,-0.23487z" data-paper-data="{&quot;index&quot;:null}" fill="url(#color-1)" stroke="#000000" stroke-width="0.5" stroke-linecap="round"/><path d="M118.42719,153.17299l5.43371,-12.31887l-3.38249,12.54096z" data-paper-data="{&quot;index&quot;:null}" fill="url(#color-2)" stroke="#000000" stroke-width="0.5" stroke-linecap="round"/><path d="M119.64383,153.70121c0,0 -2.52983,16.62313 -2.42779,25.5234c0.09901,8.6352 3.03116,27.10707 3.03116,27.10707l-2.05123,-0.22209c0,0 -2.69707,-24.30531 -2.68239,-33.94467c0.01089,-7.14995 2.76257,-18.68772 2.76257,-18.68772z" data-paper-data="{&quot;index&quot;:null}" fill="#4c4c4c" stroke="#000000" stroke-width="0.5" stroke-linecap="round"/><path d="M131.22291,139.08665l81.79566,-0.2295l0.22055,78.60586l-81.79566,0.2295z" data-paper-data="{&quot;index&quot;:null}" fill="#000000" stroke="none" stroke-width="0" stroke-linecap="butt"/><path d="M117.03366,178.9439l18.86477,-0.05294c0.00629,2.2386 0.01257,4.47719 0.01885,6.71579c0.00895,3.18981 0.0179,6.3796 0.02685,9.56941c0.00768,2.73411 0.01534,5.46822 0.02301,8.20234c0,0 0.00063,0.22785 0.22848,0.22721c0.22785,-0.00064 0.22721,-0.22848 0.22721,-0.22848c-0.00768,-2.73411 -0.01533,-5.46823 -0.02301,-8.20235c-0.00895,-3.18981 -0.0179,-6.3796 -0.02685,-9.56941c-0.00629,-2.2386 -0.01256,-4.47719 -0.01884,-6.71579l203.35817,-0.57057l0.14064,50.12547l-204.45117,0.57365z" data-paper-data="{&quot;index&quot;:null}" fill="#000000" stroke="none" stroke-width="0" stroke-linecap="butt"/><path d="M134.67723,131.75171l204.45118,-0.57364l0.14064,50.12547l-202.90658,0.56931c-0.00546,-1.94559 -0.01092,-3.8912 -0.01638,-5.83679c-0.00895,-3.18981 -0.0179,-6.3796 -0.02685,-9.56941c-0.00514,-1.83049 0.39646,-4.20082 -0.02286,-5.97626c-0.27262,-1.15433 -0.90423,-2.20746 -0.91359,-3.41737l-0.00178,-0.1749c0,0 -0.00231,-0.22782 -0.23014,-0.22552c-0.22783,0.00231 -0.22552,0.23014 -0.22552,0.23014l0.00178,0.1749c0.01537,1.24827 0.63787,2.33056 0.92605,3.5187c0.41807,1.72363 0.00537,4.08868 0.01038,5.87158c0.00895,3.18981 0.0179,6.3796 0.02685,9.56941c0.00546,1.94559 0.01092,3.8912 0.01638,5.83679l-6.55907,-0.66513z" data-paper-data="{&quot;index&quot;:null}" fill="#000000" stroke="none" stroke-width="0" stroke-linecap="butt"/><path d="M118.29411,180.10081l2.04982,-27.34714l9.35871,-20.98798c0,0 13.79452,-5.85465 24.6351,-6.40587c5.77615,-0.29371 18.89855,-0.88742 28.2334,-0.14424c10.36151,0.82492 16.69021,3.01322 16.69021,3.01322c0,0 -9.72959,5.19262 3.41352,6.4175c5.28539,0.49257 21.32097,5.73392 33.67267,6.04385c26.49354,0.66477 54.68334,-3.90884 54.68334,-3.90884l0.61269,1.82103c0,0 -17.18892,1.95768 -21.88349,3.64919c-2.87682,1.03655 -3.60935,5.53614 -3.60935,5.53614l0.69707,31.89632l-83.53989,1.14577l-2.79463,-21.56147l-8.82187,-4.22835l-35.8439,1.31574l-0.0889,2.49801c-0.201,-0.57546 -0.37101,-1.15724 -0.37584,-1.78066l-0.00178,-0.1749c0,0 -0.00231,-0.22782 -0.23014,-0.22552c-0.22783,0.00231 -0.22552,0.23014 -0.22552,0.23014l0.00178,0.1749c0.0132,1.0726 0.4747,2.02266 0.78715,3.02262l-0.6915,19.43218z" data-paper-data="{&quot;index&quot;:null}" fill="url(#color-3)" stroke="#000000" stroke-width="0.5" stroke-linecap="round"/><path d="M135.2357,154.85243c0.00167,0.59231 0.00341,1.21265 0.00515,1.83376c-0.0252,-0.00887 -0.05492,-0.01397 -0.08999,-0.01361c-0.22783,0.00231 -0.22552,0.23014 -0.22552,0.23014l0.00178,0.1749c0.00023,0.01847 0.00058,0.0369 0.00107,0.0553c-5.43271,1.10608 -12.69467,1.91792 -12.70583,1.91916c0.00553,-0.00208 6.09726,-2.29648 11.31804,-3.75565c0.57897,-0.16181 1.14724,-0.31028 1.6953,-0.44398z" data-paper-data="{&quot;index&quot;:null}" fill="url(#color-4)" stroke="#000000" stroke-width="0" stroke-linecap="butt"/><path d="M122.22236,159.05211c0,0 0.00001,0 0.00002,0v0z" data-paper-data="{&quot;index&quot;:null}" fill="url(#color-5)" stroke="#000000" stroke-width="0" stroke-linecap="butt"/><path d="M135.47916,181.23632l0.45696,11.09015c0.00266,0.94991 0.00534,1.8998 0.00799,2.8497c0.00768,2.73411 0.01533,5.46822 0.02301,8.20234c0,0 0.00064,0.22785 0.22848,0.2272c0.11581,-0.00033 0.17259,-0.05934 0.20043,-0.11732l0.03789,0.91969l35.85073,1.11459l8.79799,-4.27779l2.6736,-21.57681l83.54502,0.67697l-0.51808,31.89973c0,0 0.75778,4.49542 3.64037,5.5158c4.70401,1.66513 21.90362,3.52632 21.90362,3.52632l-0.60246,1.82444c0,0 -28.21502,-4.41536 -54.70442,-3.60192c-12.34976,0.37925 -28.35567,5.71049 -33.63822,6.23272c-13.13603,1.29862 -3.37746,6.43654 -3.37746,6.43654c0,0 -6.31633,2.22378 -16.67304,3.10684c-9.33053,0.79556 -22.45605,0.27547 -28.23375,0.01419c-10.84349,-0.49038 -24.67067,-6.26753 -24.67067,-6.26753l-9.47633,-20.93514l-2.20324,-27.33521z" data-paper-data="{&quot;index&quot;:null}" fill="url(#color-6)" stroke="#000000" stroke-width="0.5" stroke-linecap="round"/><path d="M122.79388,201.78818c0,0 7.55782,0.8016 13.0305,1.91071c0.00209,0.74749 0.00421,1.50202 0.00622,2.21583c-0.5488,-0.13063 -1.1179,-0.27589 -1.69777,-0.43446c-5.23125,-1.43051 -11.33893,-3.69208 -11.33893,-3.69208z" data-paper-data="{&quot;index&quot;:null}" fill="url(#color-7)" stroke="#000000" stroke-width="0" stroke-linecap="butt"/><path d="M268.06694,140.49122l30.98666,-0.08694l0.10825,38.58143l-30.98666,0.08695z" data-paper-data="{&quot;index&quot;:null}" fill="#52617d" stroke="#000000" stroke-width="0.5" stroke-linecap="butt"/><path d="M280.20676,142.80873c-6.76112,-0.21622 -12.73548,1.93729 -12.73548,1.93729l23.68033,-5.53472c0,0 12.75856,7.35801 16.53236,14.49004c3.54131,6.69267 5.45736,27.06794 5.45736,27.06794l-46.1779,-0.47803c0,0 -1.3152,-1.97623 4.28414,-3.80426c4.26682,-1.393 12.23857,-0.71892 17.67347,-3.18029c6.41974,-2.90738 10.02307,-9.23093 10.21263,-14.70048c0.40697,-11.74244 -9.95213,-15.51045 -18.9269,-15.79746z" data-paper-data="{&quot;index&quot;:null}" fill="#c7e4dd" stroke="#000000" stroke-width="0.5" stroke-linecap="round"/><path d="M286.97753,138.25837c-2.37935,-3.62586 2.33429,-5.11776 2.33429,-5.11776c0,0 25.50884,15.85059 30.45127,22.97696c4.18265,6.03088 6.13489,23.70453 6.13489,23.70453l-13.66974,0.34215c0,0 -0.42034,-15.10573 -2.24275,-20.32738c-1.39639,-4.00102 -20.23564,-17.35374 -23.00797,-21.5785z" data-paper-data="{&quot;index&quot;:null}" fill="#171717" stroke="#000000" stroke-width="0.5" stroke-linecap="round"/><path d="M220.67219,139.40905c0,0 -26.08452,-3.22696 -26.74272,-4.11925c-0.67515,-0.91527 -0.49743,-5.06683 5.19983,-6.16087c4.5555,-0.8748 14.83392,1.18515 14.83392,1.18515l33.1115,-0.70049z" data-paper-data="{&quot;index&quot;:null}" fill="#4c4c4c" stroke="#000000" stroke-width="0.5" stroke-linecap="round"/><path d="M199.68335,129.74657l24.6062,-0.37283l-5.15676,2.74861l-14.58281,-0.26288l-2.11802,3.04387l-7.2995,-3.01745z" data-paper-data="{&quot;index&quot;:null}" fill="#000000" stroke="#000000" stroke-width="0.5" stroke-linecap="round"/><path d="M127.84474,136.83975c0,0 -1.21245,-5.25058 5.3782,-7.94434c8.23583,-3.36621 25.19741,-4.39342 32.11609,-5.22837c11.26457,-1.35941 34.0248,4.54179 34.0248,4.54179l-4.09031,3.88484l-67.42876,4.74609z" data-paper-data="{&quot;index&quot;:null}" fill="url(#color-8)" stroke="#000000" stroke-width="0" stroke-linecap="round"/><path d="M140.87921,154.25574c0.14399,0.84931 -0.98484,1.7399 -4.32789,2.52365c-0.27655,0.06483 -0.56173,0.12891 -0.85397,0.19216c-0.00208,-0.74264 -0.00417,-1.48527 -0.00625,-2.2279c2.89053,-0.67586 5.11633,-0.9113 5.18812,-0.4879z" data-paper-data="{&quot;index&quot;:null}" fill="url(#color-9)" stroke="#000000" stroke-width="0" stroke-linecap="butt"/><path d="M186.17334,132.15357c0.44153,1.17834 -10.88628,6.5122 -25.30136,11.91349c-7.80329,2.92387 -17.62434,6.16598 -25.062,8.33807c-0.00393,-1.01985 -0.10116,-1.96315 -0.39214,-2.66465c8.50285,-3.9059 19.03204,-8.79739 19.40004,-9.68243c0.3317,-0.79774 -8.48864,1.11154 -16.28239,3.44452c-1.18915,0.35596 -2.35437,0.73549 -3.45955,1.11031c-0.18308,-1.34383 -0.4881,-2.62398 -0.98633,-3.57022c-0.13069,-2.60888 -2.99183,-1.98718 -5.13693,-1.74817c0.63108,-0.36625 1.40992,-0.72841 2.36696,-1.08701c14.41508,-5.4013 54.41217,-7.23225 54.85369,-6.0539z" data-paper-data="{&quot;index&quot;:null}" fill="url(#color-10)" stroke="#000000" stroke-width="0" stroke-linecap="butt"/><path d="M204.89912,148.03546c-21.9371,0.06155 -62.02541,8.6713 -62.02965,7.16129c-0.00424,-1.51001 39.91551,-16.06113 61.85262,-16.12269c10.55745,-0.02962 32.43176,2.25589 48.26398,3.23134c10.43543,0.64296 18.33011,0.11518 18.33011,0.11518c0,0 -1.4779,1.15541 -1.86852,2.4307c-0.34872,1.13849 0.38507,2.40276 0.38547,2.5463c0.00424,1.51001 -42.99689,0.57632 -64.934,0.63788z" data-paper-data="{&quot;index&quot;:null}" fill="url(#color-11)" stroke="none" stroke-width="0" stroke-linecap="butt"/><path d="M209.98894,148.47687l1.07818,5.31335l0.83363,26.42767" data-paper-data="{&quot;index&quot;:null}" fill="none" stroke="#000000" stroke-width="0.5" stroke-linecap="round"/><path d="M171.26967,153.5981c0,0 22.2011,-2.96149 32.03615,-3.77818c9.02775,-0.74965 24.75994,-0.93807 24.75994,-0.93807c0,0 -22.2007,3.30031 -30.34137,5.05737c-7.49186,1.61703 -16.71806,5.09984 -16.71806,5.09984l-9.73665,-5.44096z" data-paper-data="{&quot;index&quot;:null}" fill="#00113f" stroke="#000000" stroke-width="0" stroke-linecap="round"/><path d="M266.49226,147.71075l0.39328,31.89718l-12.15291,-0.42159l-71.08575,0.65515l-3.40052,-20.95219c0,0 25.18038,-7.66169 37.37613,-9.24241c15.67193,-2.03128 48.86977,-1.93613 48.86977,-1.93613z" data-paper-data="{&quot;index&quot;:null}" fill="url(#color-12)" stroke="#000000" stroke-width="0.5" stroke-linecap="round"/><path d="M136.35531,179.32366c-0.00267,-0.95211 -0.00535,-1.90421 -0.00802,-2.85632c3.01737,-0.56837 7.513,-1.07773 7.513,-1.07773l1.10337,3.46015z" data-paper-data="{&quot;index&quot;:null}" fill="url(#color-13)" stroke="#000000" stroke-width="0" stroke-linecap="butt"/><path d="M135.89184,176.55594c0.00261,0.93095 0.00522,1.86187 0.00784,2.79282l-0.00285,0.00016c-0.00261,-0.93079 -0.00522,-1.86161 -0.00784,-2.7924c0.00095,-0.00019 0.0019,-0.00038 0.00285,-0.00057z" data-paper-data="{&quot;index&quot;:null}" fill="url(#color-14)" stroke="#000000" stroke-width="0" stroke-linecap="butt"/><path d="M149.51952,178.47241l-4.01618,-2.17605" data-paper-data="{&quot;index&quot;:null}" fill="none" stroke="#ffffff" stroke-width="0.5" stroke-linecap="round"/><path d="M144.786,180.49073l-0.18946,-4.98235l5.64225,3.24391l32.64001,0.72017l0.18431,0.72859l-30.80285,0.63325z" data-paper-data="{&quot;index&quot;:null}" fill="url(#color-15)" stroke="#000000" stroke-width="0" stroke-linecap="round"/><path d="M134.73595,143.22753c-0.01002,-1.32507 -0.12442,-3.40112 -1.30371,-3.8016c-1.02094,-0.34672 -2.63802,-0.0559 -3.71394,-0.05362c-1.60475,0.00342 -3.14004,-0.14342 -4.67947,-0.24059c1.61031,-3.89612 4.34184,-8.89397 8.18347,-10.46415c8.23583,-3.36621 25.19741,-4.39342 32.11608,-5.22837c11.26457,-1.35941 34.02479,4.54179 34.02479,4.54179c0,0 -4.1272,3.62096 -2.60582,5.13382c1.5975,1.58856 11.9736,4.18153 11.9736,4.18153z" data-paper-data="{&quot;index&quot;:null}" fill="url(#color-16)" stroke="#000000" stroke-width="0" stroke-linecap="butt"/><path d="M290.06709,135.70107l-76.33381,-2.06428" data-paper-data="{&quot;index&quot;:null}" fill="none" stroke="none" stroke-width="0" stroke-linecap="round"/><path d="M292.12089,136.83453c0,0 -47.86925,4.72567 -59.78858,3.63437c-9.98359,-0.91407 -31.0627,-4.60142 -36.40362,-7.73142c-1.83793,-1.0771 0.48119,-2.39901 2.8233,-3.18284c2.03457,-0.6809 4.03076,-0.89971 4.03076,-0.89971" data-paper-data="{&quot;index&quot;:null}" fill="none" stroke="#ffffff" stroke-width="1" stroke-linecap="round"/><path d="M275.66866,134.64539c-32.1712,-2.56874 -69.91183,-1.66974 -69.91183,-1.66974c0,0 82.20125,-3.20878 99.10346,-2.96974c13.85658,0.19598 37.1467,2.58745 37.1467,2.58745l21.98289,39.12764c0,0 -21.06252,-23.34283 -42.5675,-28.60859c-11.04746,-2.70512 -25.93175,-6.88433 -45.75372,-8.46703z" data-paper-data="{&quot;index&quot;:null}" fill="url(#color-17)" stroke="#000000" stroke-width="0" stroke-linecap="round"/><path d="M296.22334,137.27871c0,0 27.87015,5.97098 39.64416,12.01642c10.42156,5.35101 27.43888,22.42777 27.43888,22.42777l0.02237,7.97451l-37.39628,1.20233l-0.39485,-2.535c0,0 1.33883,-0.45049 2.53359,-1.37718c0.88227,-0.68431 1.68569,-1.73191 1.81494,-2.51396c1.90722,-11.54021 -9.25207,-23.81134 -13.75719,-26.65911c-7.42957,-4.69638 -19.9056,-10.53579 -19.9056,-10.53579z" data-paper-data="{&quot;index&quot;:null}" fill="url(#color-18)" stroke="#000000" stroke-width="0" stroke-linecap="round"/><path d="M295.31199,137.28125c0,0 15.06122,2.9089 28.22452,7.13291c5.61012,1.80026 10.69061,4.39929 14.41541,6.19945c9.91386,4.79127 25.35253,20.42575 25.35253,20.42575" data-paper-data="{&quot;index&quot;:null}" fill="none" stroke="#000000" stroke-width="1" stroke-linecap="round"/><path d="M303.70446,123.81487c0,0 29.85882,-0.60365 38.36499,5.79601c10.69878,8.04926 20.77165,38.69566 20.77165,38.69566l-20.60752,-36.16951l-33.95372,-1.7275l-101.61162,2.56355c0,0 7.63596,-1.34439 18.43155,-1.97599c18.16038,-1.06248 44.84039,-1.77431 56.07698,-2.83482c11.80284,-1.11394 22.52768,-4.3474 22.52768,-4.3474z" data-paper-data="{&quot;index&quot;:null}" fill="url(#color-19)" stroke="#000000" stroke-width="0" stroke-linecap="round"/><path d="M343.14114,130.76742c0,0 5.54122,5.41358 7.79187,9.7775c3.55055,6.88437 11.45178,27.53505 11.45178,27.53505l-20.37904,-35.94231l-1.14241,-1.13603l2.27779,-0.23423z" data-paper-data="{&quot;index&quot;:null}" fill="url(#color-20)" stroke="#000000" stroke-width="0" stroke-linecap="round"/><path d="M136.57074,156.96123l32.80513,-1.61102l10.70488,4.51975l-10.56126,1.88683l0.20365,9.0859l3.9064,2.58661l0.06504,5.30086l-37.06333,-0.1998z" data-paper-data="{&quot;index&quot;:null}" fill="#000a25" stroke="none" stroke-width="0" stroke-linecap="butt"/><path d="M235.56727,140.50412c-5.92405,-0.07891 -15.80903,-2.0039 -15.80903,-2.0039l3.93906,-3.65657c0,0 24.3063,1.0043 34.01202,1.45962c8.45141,0.39647 20.98177,1.12022 20.98177,1.12022c0,0 -32.792,3.21827 -43.12382,3.08062z" data-paper-data="{&quot;index&quot;:null}" fill="url(#color-21)" stroke="#000000" stroke-width="0.5" stroke-linecap="round"/><path d="M227.96658,140.60376l-2.75032,-5.76436" data-paper-data="{&quot;index&quot;:null}" fill="none" stroke="#000000" stroke-width="0.5" stroke-linecap="round"/><path d="M298.44176,138.88704c0,0 19.29453,9.15843 24.7119,15.23183c4.89013,5.48232 6.37278,19.61717 6.37278,19.61717c0,0 -1.27573,2.70005 -2.04623,3.42324c-0.74353,0.69787 -2.4987,0.84263 -2.4987,0.84263c0,0 -0.68727,-14.84603 -4.19215,-20.01159c-4.8789,-7.19062 -22.34761,-19.10325 -22.34761,-19.10325z" data-paper-data="{&quot;index&quot;:null}" fill="url(#color-22)" stroke="#000000" stroke-width="0.5" stroke-linecap="round"/><path d="M266.26295,147.17976c0,0 1.74739,-5.36667 3.83616,-6.08257c4.94524,-1.6949 25.60021,-4.00629 25.60021,-4.00629c0,0 8.16358,5.17242 15.37061,10.77081c4.86331,3.77781 9.29105,7.74956 10.4808,10.45683c3.79894,8.64444 3.74052,21.80905 3.74052,21.80905l-58.93966,-1.35359l-0.08865,-31.59424z" data-paper-data="{&quot;index&quot;:null}" fill="url(#color-23)" stroke="#ffffff" stroke-width="0" stroke-linecap="round"/><path d="M178.70601,164.77961l-0.43906,5.9252l-2.95429,2.74243l-4.10949,-2.95045l0.43779,-6.38089l4.54982,-2.51906z" data-paper-data="{&quot;index&quot;:null}" fill="#7b7e85" stroke="#000000" stroke-width="0" stroke-linecap="round"/><path d="M178.26693,170.7048l3.87141,-0.69439l0.23807,3.64485l-6.8372,-0.66435z" data-paper-data="{&quot;index&quot;:null}" fill="#b3b7c2" stroke="#000000" stroke-width="0" stroke-linecap="round"/><path d="M178.25287,165.69225l2.73348,-0.23551l1.37984,4.55302l-3.87205,0.46655z" data-paper-data="{&quot;index&quot;:null}" fill="#7b7e85" stroke="#000000" stroke-width="0" stroke-linecap="round"/><path d="M178.9332,164.55112l-2.28674,-2.95557l3.41381,-1.37665l1.83745,5.23528z" data-paper-data="{&quot;index&quot;:null}" fill="#616369" stroke="#000000" stroke-width="0" stroke-linecap="round"/><path d="M176.91268,175.26551l5.92392,-0.01663l0.46719,4.0999l-6.3796,0.0179z" data-paper-data="{&quot;index&quot;:null}" fill="#7b7e85" stroke="none" stroke-width="0" stroke-linecap="butt"/><path d="M271.84265,119.21515c0,0 6.00241,0.5117 7.89819,1.91315c2.04971,1.51521 3.97436,6.86354 3.97436,6.86354l-8.2015,0.32681l-3.67106,-9.1035z" data-paper-data="{&quot;index&quot;:null}" fill="#000e2d" stroke="#000000" stroke-width="0.5" stroke-linecap="round"/><path d="M268.63207,180.9489l30.98666,-0.08695l0.10825,38.58142l-30.98666,0.08695z" data-paper-data="{&quot;index&quot;:null}" fill="#52617d" stroke="#000000" stroke-width="0.5" stroke-linecap="butt"/><path d="M268.12077,215.27894c0,0 5.98636,2.11995 12.74616,1.86579c8.97301,-0.33737 19.3108,-4.16345 18.83794,-15.90342c-0.22025,-5.4684 -3.85899,-11.77163 -10.29495,-14.64295c-5.44862,-2.43084 -13.41647,-1.71204 -17.69103,-3.08107c-5.6095,-1.79657 -4.30542,-3.78016 -4.30542,-3.78016l46.17449,-0.73715c0,0 -1.80168,20.38571 -5.30538,27.09814c-3.73372,7.15311 -16.45079,14.58257 -16.45079,14.58257z" data-paper-data="{&quot;index&quot;:null}" fill="#c7e4dd" stroke="#000000" stroke-width="0.5" stroke-linecap="round"/><path d="M287.6631,221.65705c2.74858,-4.24025 21.51261,-17.69846 22.88653,-21.70726c1.79307,-5.2318 2.12865,-20.33965 2.12865,-20.33965l13.67144,0.26543c0,0 -1.85303,17.68433 -6.00178,23.73858c-4.90236,7.15399 -30.32185,23.14749 -30.32185,23.14749c0,0 -4.72195,-1.46543 -2.36298,-5.10459z" data-paper-data="{&quot;index&quot;:null}" fill="#171717" stroke="#000000" stroke-width="0.5" stroke-linecap="round"/><path d="M247.8094,230.52559l-33.1149,-0.51467c0,0 -10.2667,2.11757 -14.82703,1.26836c-5.7033,-1.06205 -5.90432,-5.21254 -5.23432,-6.13159c0.65318,-0.89596 26.71918,-4.26925 26.71918,-4.26925z" data-paper-data="{&quot;index&quot;:null}" fill="#4c4c4c" stroke="#000000" stroke-width="0.5" stroke-linecap="round"/><path d="M195.85523,228.54482l7.28245,-3.05836l2.13506,3.03194l14.5811,-0.34471l5.1721,2.71963l-24.6079,-0.23475z" data-paper-data="{&quot;index&quot;:null}" fill="#000000" stroke="#000000" stroke-width="0.5" stroke-linecap="round"/><path d="M128.54082,223.96861l67.45434,4.36763l4.11204,3.86183c0,0 -22.72675,6.02881 -33.99877,4.73264c-6.92325,-0.79611 -23.89033,-1.72813 -32.14492,-5.04806c-6.60566,-2.65675 -5.4227,-7.91404 -5.4227,-7.91404z" data-paper-data="{&quot;index&quot;:null}" fill="url(#color-24)" stroke="#000000" stroke-width="0" stroke-linecap="round"/><path d="M141.47737,206.47973c-0.06941,0.42381 -2.2965,0.20086 -5.19078,-0.45878c-0.00208,-0.74264 -0.00417,-1.48526 -0.00625,-2.2279c0.29259,0.06161 0.57813,0.12408 0.85503,0.18737c3.3474,0.76496 4.48122,1.64921 4.34199,2.49932z" data-paper-data="{&quot;index&quot;:null}" fill="url(#color-25)" stroke="#000000" stroke-width="0" stroke-linecap="butt"/><path d="M161.52695,216.55608c14.44516,5.32031 25.80273,10.59053 25.36782,11.77132c-0.43491,1.18079 -40.44165,-0.42568 -54.88681,-5.746c-0.95905,-0.35322 -1.7399,-0.711 -2.37303,-1.07371c2.14642,0.22698 5.01099,0.8326 5.12704,-1.77698c0.49291,-0.94903 0.79076,-2.23086 0.96629,-3.5757c1.10727,0.36863 2.27459,0.7416 3.46571,1.09088c7.80672,2.28921 16.63763,4.14897 16.30145,3.35309c-0.37296,-0.88296 -10.92945,-5.71529 -19.45407,-9.57341c0.28705,-0.70311 0.37898,-1.64695 0.37718,-2.66681c7.44973,2.13032 17.28881,5.31727 25.10839,8.19731z" data-paper-data="{&quot;index&quot;:null}" fill="url(#color-26)" stroke="#000000" stroke-width="0" stroke-linecap="butt"/><path d="M205.53118,212.34068c21.9371,-0.06154 64.93231,-1.23651 64.93655,0.27349c0.0004,0.14354 -0.72627,1.4119 -0.37117,2.54842c0.39776,1.27308 1.88214,2.42018 1.88214,2.42018c0,0 -7.89752,-0.48346 -18.32919,0.21804c-15.82651,1.06429 -37.68765,3.4725 -48.24509,3.50212c-21.9371,0.06155 -61.93787,-14.26534 -61.94211,-15.77534c-0.00424,-1.51002 40.13175,6.87465 62.06886,6.8131z" data-paper-data="{&quot;index&quot;:null}" fill="url(#color-27)" stroke="none" stroke-width="0" stroke-linecap="butt"/><path d="M212.35201,180.11948l-0.68532,26.43192l-1.04836,5.31932" data-paper-data="{&quot;index&quot;:null}" fill="none" stroke="#000000" stroke-width="0.5" stroke-linecap="round"/><path d="M203.92783,210.5652c-9.83948,-0.76149 -32.05685,-3.59836 -32.05685,-3.59836l9.70596,-5.49551c0,0 9.24559,3.43098 16.74641,5.00594c8.1504,1.71135 30.36928,4.88704 30.36928,4.88704c0,0 -15.73301,-0.10013 -24.76482,-0.79911z" data-paper-data="{&quot;index&quot;:null}" fill="#00113f" stroke="#000000" stroke-width="0" stroke-linecap="round"/><path d="M267.12519,212.31977c0,0 -33.19678,0.28144 -48.87987,-1.66187c-12.20442,-1.51226 -37.42739,-9.03253 -37.42739,-9.03253l3.28288,-20.97094l71.08832,0.25623l12.15034,-0.48978l-0.21429,31.89889z" data-paper-data="{&quot;index&quot;:null}" fill="url(#color-28)" stroke="#000000" stroke-width="0.5" stroke-linecap="round"/><path d="M144.33976,185.32952c0,0 -4.97117,-0.53501 -7.97076,-1.12079c-0.00261,-0.93114 -0.00522,-1.86228 -0.00784,-2.79342l9.06253,0.44792l-1.08393,3.46628z" data-paper-data="{&quot;index&quot;:null}" fill="url(#color-29)" stroke="#000000" stroke-width="0" stroke-linecap="butt"/><path d="M149.98161,182.21498l-4.0039,2.19855" data-paper-data="{&quot;index&quot;:null}" fill="none" stroke="#ffffff" stroke-width="0.5" stroke-linecap="round"/><path d="M152.70904,179.83773l30.80592,0.46039l-0.18022,0.72961l-32.63545,0.90332l-5.62395,3.27553l0.1615,-4.98333z" data-paper-data="{&quot;index&quot;:null}" fill="url(#color-30)" stroke="#000000" stroke-width="0" stroke-linecap="round"/><path d="M133.96414,232.11047c-3.99625,-1.60727 -6.81743,-6.9135 -8.4227,-10.85488c2.55524,-0.00717 5.11046,-0.01434 7.6657,-0.02151c0.26036,-0.00073 0.52047,-0.00106 0.78059,-0.00382c0.02573,0.01247 0.05418,0.02025 0.08419,0.02222l0.4103,0.03096l0.36957,0.17464c0.03078,0.01538 0.06552,0.02398 0.10228,0.02388c0.12583,-0.00036 0.22756,-0.10264 0.2272,-0.22848c-0.00023,-0.08034 -0.04201,-0.15086 -0.10494,-0.19125l-0.37692,-0.24975l-0.01522,0.02298l-0.04522,-0.0513c-0.01923,-0.0003 -0.03846,-0.00059 -0.05769,-0.00087c0.71023,-0.59288 0.94506,-2.28062 0.96775,-3.0385l0.00237,-0.07941c0,0 0.00167,-0.05606 -0.02445,-0.11337l73.89625,5.50611c0,0 -10.36138,2.65116 -11.94993,4.24866c-1.51287,1.52138 2.63458,5.11912 2.63458,5.11912c0,0 -22.72676,6.02882 -33.99877,4.73264c-6.92325,-0.79611 -23.89033,-1.72813 -32.14492,-5.04806z" data-paper-data="{&quot;index&quot;:null}" fill="url(#color-31)" stroke="#000000" stroke-width="0" stroke-linecap="butt"/><path d="M214.44594,226.68956l76.32104,-2.49259" data-paper-data="{&quot;index&quot;:null}" fill="none" stroke="none" stroke-width="0" stroke-linecap="round"/><path d="M203.52353,231.73279c0,0 -1.99738,-0.20759 -4.03574,-0.87708c-2.34646,-0.77067 -4.67297,-2.07955 -2.84113,-3.16694c5.32326,-3.15992 26.38137,-6.9655 36.35967,-7.93557c11.91302,-1.15817 59.80803,3.2988 59.80803,3.2988" data-paper-data="{&quot;index&quot;:null}" fill="none" stroke="#ffffff" stroke-width="1" stroke-linecap="round"/><path d="M206.47338,227.39548c0,0 37.74506,0.6872 69.90136,-2.06204c19.81278,-1.69392 34.67337,-5.95658 45.70549,-8.72365c21.47508,-5.38636 42.40628,-28.847 42.40628,-28.847l-21.76298,39.25038c0,0 -23.27632,2.52213 -37.13159,2.79586c-16.90061,0.33389 -99.11857,-2.41357 -99.11857,-2.41357z" data-paper-data="{&quot;index&quot;:null}" fill="url(#color-32)" stroke="#000000" stroke-width="0" stroke-linecap="round"/><path d="M296.91427,222.5848c0,0 12.44306,-5.90933 19.84616,-10.64732c4.48906,-2.87301 15.57932,-15.20655 13.60738,-26.73589c-0.13365,-0.78132 -0.94293,-1.82438 -1.82902,-2.50374c-1.19995,-0.91998 -2.54128,-1.36293 -2.54128,-1.36293l0.38062,-2.53717l37.40245,0.99246l0.02238,7.97451c0,0 -16.92122,17.17199 -27.31259,22.5814c-11.73989,6.11141 -39.5761,12.23869 -39.5761,12.23869z" data-paper-data="{&quot;index&quot;:null}" fill="url(#color-33)" stroke="#000000" stroke-width="0" stroke-linecap="round"/><path d="M363.80488,188.44823c0,0 -15.35069,15.72088 -25.23752,20.5677c-3.71465,1.82104 -8.78047,4.44853 -14.3804,6.28024c-13.13939,4.29783 -28.18406,7.29119 -28.18406,7.29119" data-paper-data="{&quot;index&quot;:null}" fill="none" stroke="#000000" stroke-width="1" stroke-linecap="round"/><path d="M342.80267,229.99524c-8.47012,6.44727 -38.33186,6.0112 -38.33186,6.0112c0,0 -10.74282,-3.17323 -22.55173,-4.22092c-11.24237,-0.99743 -37.92594,-1.55956 -56.092,-2.5201c-10.79897,-0.57101 -18.44234,-1.87253 -18.44234,-1.87253l101.62441,1.99331l33.9435,-1.918l20.40423,-36.28458c0,0 -9.90075,30.70245 -20.55419,38.81162z" data-paper-data="{&quot;index&quot;:null}" fill="url(#color-34)" stroke="#000000" stroke-width="0" stroke-linecap="round"/><path d="M351.60474,219.01163c-2.22613,4.37649 -7.73689,9.82107 -7.73689,9.82107l-2.27907,-0.22144l1.13602,-1.14241l20.17702,-36.05609c0,0 -7.78522,20.69471 -11.29709,27.59888z" data-paper-data="{&quot;index&quot;:null}" fill="url(#color-35)" stroke="#000000" stroke-width="0" stroke-linecap="round"/><path d="M137.09326,182.22933l37.06162,-0.40777l-0.0353,5.30114l-3.89183,2.6085l-0.15267,9.0869l10.57169,1.82753l-10.67935,4.57975l-32.81366,-1.4269z" data-paper-data="{&quot;index&quot;:null}" fill="#000a25" stroke="none" stroke-width="0" stroke-linecap="butt"/><path d="M220.44352,221.79238c0,0 9.87402,-1.98041 15.79754,-2.09258c10.33089,-0.19563 43.14043,2.83859 43.14043,2.83859c0,0 -12.5261,0.79405 -20.97515,1.23794c-9.70303,0.50976 -34.0033,1.65046 -34.0033,1.65046z" data-paper-data="{&quot;index&quot;:null}" fill="url(#color-36)" stroke="#000000" stroke-width="0.5" stroke-linecap="round"/><path d="M228.63989,219.64282l-2.71792,5.7797" data-paper-data="{&quot;index&quot;:null}" fill="none" stroke="#000000" stroke-width="0.5" stroke-linecap="round"/><path d="M299.12361,220.96403c0,0 17.40158,-12.01047 22.24006,-19.22836c3.47584,-5.18516 4.07979,-20.03481 4.07979,-20.03481c0,0 1.75595,0.13492 2.50338,0.8286c0.77454,0.71885 2.0654,3.41171 2.0654,3.41171c0,0 -1.40331,14.14294 -6.2626,19.6526c-5.3832,6.1037 -24.62603,15.37027 -24.62603,15.37027z" data-paper-data="{&quot;index&quot;:null}" fill="url(#color-37)" stroke="#000000" stroke-width="0.5" stroke-linecap="round"/><path d="M266.89881,212.85204l-0.08865,-31.59423l58.93114,-1.6843c0,0 0.13229,13.16407 -3.61808,21.82969c-1.17455,2.71391 -5.57992,6.71046 -10.42196,10.51549c-7.1755,5.63873 -15.30993,10.85689 -15.30993,10.85689c0,0 -20.66762,-2.19546 -25.62227,-3.86257c-2.09276,-0.70416 -3.87024,-6.06095 -3.87024,-6.06095z" data-paper-data="{&quot;index&quot;:null}" fill="url(#color-38)" stroke="#ffffff" stroke-width="0" stroke-linecap="round"/><path d="M176.7471,198.94062l-4.5639,-2.49349l-0.47358,-6.37833l4.09286,-2.97346l2.96963,2.7258l0.47231,5.92264z" data-paper-data="{&quot;index&quot;:null}" fill="#7b7e85" stroke="#000000" stroke-width="0" stroke-linecap="round"/><path d="M176.03161,187.55038l6.83337,-0.70271l-0.21761,3.64613l-3.87526,-0.67266z" data-paper-data="{&quot;index&quot;:null}" fill="#b3b7c2" stroke="#000000" stroke-width="0" stroke-linecap="round"/><path d="M179.00061,190.04835l3.87461,0.44482l-1.35428,4.56069l-2.73475,-0.22017z" data-paper-data="{&quot;index&quot;:null}" fill="#7b7e85" stroke="#000000" stroke-width="0" stroke-linecap="round"/><path d="M182.43231,195.05131l-1.80804,5.24551l-3.42148,-1.35747l2.27012,-2.96835z" data-paper-data="{&quot;index&quot;:null}" fill="#616369" stroke="#000000" stroke-width="0" stroke-linecap="round"/><path d="M177.38076,181.16694l6.3796,-0.0179l-0.44418,4.10246l-5.92392,0.01662z" data-paper-data="{&quot;index&quot;:null}" fill="#7b7e85" stroke="none" stroke-width="0" stroke-linecap="butt"/><path d="M276.25523,231.66096l8.2032,0.28078c0,0 -1.89461,5.35905 -3.93577,6.88575c-1.8879,1.41207 -7.88735,1.95743 -7.88735,1.95743z" data-paper-data="{&quot;index&quot;:null}" fill="#000e2d" stroke="#000000" stroke-width="0.5" stroke-linecap="round"/><g data-paper-data="{&quot;index&quot;:null}" fill="#000000" stroke="#000000" stroke-width="0"><path d="M135.26474,180.18388c0,0 0.70053,21.65075 0.3575,29.30645c-0.22097,4.93138 -2.21579,12.16653 -2.21579,12.16653l-7.4433,-0.13102c0,0 -5.73783,-14.295 -7.15508,-21.25421c-1.40635,-6.90568 -1.31594,-20.34168 -1.31594,-20.34168z" stroke-linecap="round"/><path d="M117.04335,180.93972c0,0 -0.16579,-13.43529 1.20177,-20.34875c1.37816,-6.96705 7.0357,-21.29403 7.0357,-21.29403l7.44245,-0.17278c0,0 2.03539,7.22385 2.28402,12.15391c0.07216,1.43074 0.11059,3.35073 0.12539,5.52705c-0.02541,-0.06256 -0.08229,-0.1332 -0.20966,-0.1319c-0.22784,0.00231 -0.22552,0.23014 -0.22552,0.23014l0.00178,0.1749c0.00871,0.70839 0.21297,1.36335 0.4407,2.01452c-0.00016,9.31834 -0.32572,21.49328 -0.32572,21.49328z" data-paper-data="{&quot;index&quot;:null}" stroke-linecap="round"/><path d="M135.73487,208.22953c0.00707,0.99179 -0.07246,1.91379 -0.33306,2.61038c-5.68633,-2.57247 -10.36449,-4.66837 -10.31957,-4.79037c0.19465,-0.52848 4.57606,0.45505 10.65263,2.17999z" stroke-linecap="butt"/><path d="M124.4868,154.77793c-0.0456,-0.12173 4.62072,-2.24386 10.29253,-4.8482c0.2645,0.69511 0.34921,1.61665 0.3477,2.60846c-6.06679,1.75901 -10.44264,2.7671 -10.64023,2.23973z" data-paper-data="{&quot;index&quot;:null}" stroke-linecap="butt"/><path d="M123.08052,144.14416c0,0 0.51762,-1.99083 1.54939,-4.56671c1.59904,0.09659 3.19755,0.2547 4.86154,0.25118c3.34299,-0.00709 4.43642,0.1659 4.55147,3.43681l-10.96239,0.8787z" data-paper-data="{&quot;index&quot;:null}" stroke-linecap="butt"/><path d="M134.90926,217.52361c-0.03915,0.06064 -0.04119,0.12883 -0.04119,0.12883l-0.00237,0.07941c-0.03098,1.04305 -0.38068,1.98496 -0.91136,2.88245l-0.16847,0.16458c-0.26922,-0.00107 -0.53842,-0.00058 -0.80785,0.00018c-2.61563,0.00734 -5.23128,0.01468 -7.84691,0.02201c-0.92716,-2.34947 -1.39545,-4.11001 -1.39545,-4.11001z" stroke-linecap="butt"/><path d="M135.03191,215.99881c-0.16759,1.32817 -0.4524,2.60648 -0.94155,3.62913c0.17269,2.56615 -3.66929,1.45399 -5.4823,1.36492c-2.99133,-2.1946 -1.22557,-4.57184 -1.1994,-7.21459c0.00553,-0.55859 3.30119,0.76533 7.62325,2.22054z" stroke-linecap="butt"/><path d="M126.7698,147.03627c-0.04101,-2.64257 -1.82009,-5.00985 1.15888,-7.2212c1.81248,-0.09924 5.64818,-1.23293 5.48989,1.33414c0.49488,1.01988 0.78685,2.29657 0.96189,3.62378c-4.31383,1.47944 -7.602,2.82184 -7.61067,2.26328z" data-paper-data="{&quot;index&quot;:null}" stroke-linecap="butt"/><path d="M120.31462,180.19483c0,0 10.39725,-2.59588 14.89112,-3.5434c0.00251,0.89617 0.0051,1.82168 0.00764,2.72319z" data-paper-data="{&quot;index&quot;:null}" stroke-linecap="butt"/><path d="M135.67062,181.39306c0.00252,0.9015 0.00512,1.827 0.00763,2.72317c-4.49911,-0.92229 -14.91077,-3.45978 -14.91077,-3.45978z" stroke-linecap="butt"/></g><g data-paper-data="{&quot;index&quot;:null}" stroke="#000000"><path d="M135.26538,180.41172c0,0 0.70053,21.65075 0.35749,29.30645c-0.22096,4.93138 -2.21578,12.16653 -2.21578,12.16653l-7.44331,-0.13102c0,0 -5.73783,-14.295 -7.15508,-21.25421c-1.40634,-6.90568 -1.31594,-20.34168 -1.31594,-20.34168z" fill="#03194b" stroke-width="0.5" stroke-linecap="round"/><path d="M117.04399,181.16757c0,0 -0.16578,-13.43529 1.20178,-20.34875c1.37816,-6.96705 7.0357,-21.29403 7.0357,-21.29403l7.44245,-0.17278c0,0 2.03539,7.22384 2.28402,12.1539c0.07217,1.43074 0.11059,3.35074 0.12538,5.52706c-0.02541,-0.06256 -0.08228,-0.1332 -0.20966,-0.1319c-0.22783,0.00231 -0.22552,0.23014 -0.22552,0.23014l0.00178,0.1749c0.00871,0.70839 0.21298,1.36335 0.4407,2.01452c-0.00016,9.31834 -0.32572,21.49328 -0.32572,21.49328z" data-paper-data="{&quot;index&quot;:null}" fill="#03194b" stroke-width="0.5" stroke-linecap="round"/><path d="M135.73552,208.45737c0.00707,0.99179 -0.07246,1.91379 -0.33306,2.61038c-5.68633,-2.57247 -10.36449,-4.66837 -10.31957,-4.79037c0.19465,-0.52848 4.57606,0.45505 10.65263,2.17999z" fill="url(#color-39)" stroke-width="0" stroke-linecap="butt"/><path d="M124.48743,155.00578c-0.0456,-0.12173 4.62073,-2.24386 10.29254,-4.84821c0.2645,0.69511 0.3492,1.61666 0.34769,2.60847c-6.06679,1.75901 -10.44263,2.7671 -10.64023,2.23973z" data-paper-data="{&quot;index&quot;:null}" fill="url(#color-40)" stroke-width="0" stroke-linecap="butt"/><path d="M123.08116,144.37202c0,0 0.51762,-1.99083 1.54939,-4.56671c1.59904,0.09659 3.19754,0.2547 4.86154,0.25118c3.34299,-0.00709 4.43642,0.1659 4.55147,3.43681l-10.96239,0.8787z" data-paper-data="{&quot;index&quot;:null}" fill="url(#color-41)" stroke-width="0" stroke-linecap="butt"/><path d="M134.9099,217.75145c-0.03915,0.06064 -0.04118,0.12883 -0.04118,0.12883l-0.00237,0.07941c-0.03098,1.04305 -0.38068,1.98496 -0.91137,2.88245l-0.16847,0.16458c-0.26922,-0.00107 -0.53842,-0.00058 -0.80785,0.00018c-2.61563,0.00734 -5.23127,0.01468 -7.8469,0.02201c-0.92716,-2.34947 -1.39545,-4.11001 -1.39545,-4.11001z" fill="url(#color-42)" stroke-width="0" stroke-linecap="butt"/><path d="M135.03254,216.22664c-0.16758,1.32817 -0.45239,2.60648 -0.94154,3.62913c0.17269,2.56615 -3.6693,1.45399 -5.48231,1.36492c-2.99133,-2.1946 -1.22557,-4.57183 -1.19939,-7.21458c0.00553,-0.55859 3.30119,0.76533 7.62324,2.22054z" fill="url(#color-43)" stroke-width="0" stroke-linecap="butt"/><path d="M126.77044,147.26413c-0.04101,-2.64257 -1.82008,-5.00985 1.15889,-7.2212c1.81248,-0.09924 5.64817,-1.23293 5.48988,1.33414c0.49488,1.01988 0.78686,2.29657 0.9619,3.62378c-4.31383,1.47944 -7.60201,2.82184 -7.61067,2.26328z" data-paper-data="{&quot;index&quot;:null}" fill="url(#color-44)" stroke-width="0" stroke-linecap="butt"/><path d="M120.31526,180.42269c0,0 10.39725,-2.59587 14.89112,-3.54339c0.00251,0.89617 0.0051,1.82167 0.00763,2.72318z" data-paper-data="{&quot;index&quot;:null}" fill="url(#color-45)" stroke-width="0" stroke-linecap="butt"/><path d="M135.67126,181.62091c0.00252,0.9015 0.00512,1.827 0.00764,2.72317c-4.49911,-0.92229 -14.91077,-3.45978 -14.91077,-3.45978z" fill="url(#color-46)" stroke-width="0" stroke-linecap="butt"/></g><path d="M4.42566,361.63479v-360.53868h472.87786v360.53869z" fill="none" stroke="none" stroke-width="0" stroke-linecap="butt"/></g></g></svg>