<svg version="1.1" xmlns="http://www.w3.org/2000/svg" xmlns:xlink="http://www.w3.org/1999/xlink" width="484.97563" height="360.53869" viewBox="0,0,484.97563,360.53869"><defs><radialGradient cx="240.25237" cy="180" r="117.21143" gradientUnits="userSpaceOnUse" id="color-1"><stop offset="0" stop-color="#7ac8f5"/><stop offset="1" stop-color="#5ec4ff"/></radialGradient><linearGradient x1="128.66701" y1="179.68406" x2="122.78167" y2="179.68406" gradientUnits="userSpaceOnUse" id="color-2"><stop offset="0" stop-color="#478ab0" stop-opacity="0"/><stop offset="1" stop-color="#478ab0"/></linearGradient><linearGradient x1="343.02543" y1="182.11554" x2="355.74662" y2="182.11554" gradientUnits="userSpaceOnUse" id="color-3"><stop offset="0" stop-color="#478ab0" stop-opacity="0"/><stop offset="1" stop-color="#478ab0"/></linearGradient><linearGradient x1="237.51219" y1="220.94939" x2="237.51219" y2="228.94145" gradientUnits="userSpaceOnUse" id="color-4"><stop offset="0" stop-color="#4b92bc" stop-opacity="0"/><stop offset="1" stop-color="#4b92bc"/></linearGradient><linearGradient x1="237.51219" y1="139.28257" x2="237.51219" y2="131.29051" gradientUnits="userSpaceOnUse" id="color-5"><stop offset="0" stop-color="#4b92bc" stop-opacity="0"/><stop offset="1" stop-color="#4b92bc"/></linearGradient><linearGradient x1="176.39462" y1="140.05569" x2="173.3051" y2="128.41939" gradientUnits="userSpaceOnUse" id="color-6"><stop offset="0" stop-color="#8fc9eb" stop-opacity="0"/><stop offset="1" stop-color="#8fc9eb"/></linearGradient><linearGradient x1="176.39462" y1="140.05569" x2="173.3051" y2="128.41939" gradientUnits="userSpaceOnUse" id="color-7"><stop offset="0" stop-color="#000000" stop-opacity="0"/><stop offset="1" stop-color="#000000" stop-opacity="0"/></linearGradient><linearGradient x1="133.25379" y1="179.83256" x2="128.97127" y2="179.83256" gradientUnits="userSpaceOnUse" id="color-8"><stop offset="0" stop-color="#42abe8"/><stop offset="1" stop-color="#85c5eb"/></linearGradient><linearGradient x1="176.39462" y1="220.75541" x2="173.3051" y2="232.39173" gradientUnits="userSpaceOnUse" id="color-9"><stop offset="0" stop-color="#8fc9eb" stop-opacity="0"/><stop offset="1" stop-color="#8fc9eb"/></linearGradient><linearGradient x1="176.39462" y1="220.75541" x2="173.3051" y2="232.39173" gradientUnits="userSpaceOnUse" id="color-10"><stop offset="0" stop-color="#000000" stop-opacity="0"/><stop offset="1" stop-color="#000000" stop-opacity="0"/></linearGradient><linearGradient x1="158.53777" y1="180.27843" x2="223.0318" y2="180.27843" gradientUnits="userSpaceOnUse" id="color-11"><stop offset="0" stop-color="#66acd5"/><stop offset="1" stop-color="#66acd5" stop-opacity="0"/></linearGradient><linearGradient x1="351.12711" y1="180.08974" x2="287.0764" y2="180.08974" gradientUnits="userSpaceOnUse" id="color-12"><stop offset="0" stop-color="#4e98c3" stop-opacity="0"/><stop offset="1" stop-color="#4e98c3"/></linearGradient><linearGradient x1="323.28316" y1="157.83793" x2="322.08824" y2="165.74277" gradientUnits="userSpaceOnUse" id="color-13"><stop offset="0" stop-color="#54a4d2" stop-opacity="0"/><stop offset="1" stop-color="#54a4d2"/></linearGradient><linearGradient x1="311.65287" y1="148.49528" x2="312.84779" y2="140.59042" gradientUnits="userSpaceOnUse" id="color-14"><stop offset="0" stop-color="#509cc9" stop-opacity="0"/><stop offset="1" stop-color="#509cc9"/></linearGradient><linearGradient x1="323.57741" y1="201.71864" x2="322.38251" y2="193.81382" gradientUnits="userSpaceOnUse" id="color-15"><stop offset="0" stop-color="#54a4d2" stop-opacity="0"/><stop offset="1" stop-color="#54a4d2"/></linearGradient><linearGradient x1="311.94712" y1="211.06134" x2="313.14204" y2="218.96617" gradientUnits="userSpaceOnUse" id="color-16"><stop offset="0" stop-color="#509cc9" stop-opacity="0"/><stop offset="1" stop-color="#509cc9"/></linearGradient><linearGradient x1="335.8438" y1="214.01052" x2="292.77391" y2="214.01052" gradientUnits="userSpaceOnUse" id="color-17"><stop offset="0" stop-color="#57aada" stop-opacity="0"/><stop offset="1" stop-color="#57aada"/></linearGradient><linearGradient x1="334.93443" y1="146.06854" x2="291.86453" y2="146.06854" gradientUnits="userSpaceOnUse" id="color-18"><stop offset="0" stop-color="#57aada" stop-opacity="0"/><stop offset="1" stop-color="#57aada"/></linearGradient><radialGradient cx="192.26045" cy="179.96317" r="60.70686" gradientUnits="userSpaceOnUse" id="color-19"><stop offset="0" stop-color="#2a2a2a"/><stop offset="1" stop-color="#444444"/></radialGradient><linearGradient x1="161.64961" y1="177.34538" x2="133.78347" y2="177.34538" gradientUnits="userSpaceOnUse" id="color-20"><stop offset="0" stop-color="#141414" stop-opacity="0"/><stop offset="1" stop-color="#141414"/></linearGradient><linearGradient x1="292.81602" y1="179.78697" x2="253.512" y2="179.78697" gradientUnits="userSpaceOnUse" id="color-21"><stop offset="0" stop-color="#000000"/><stop offset="1" stop-color="#333333"/></linearGradient><linearGradient x1="238.03467" y1="215.03425" x2="238.03467" y2="221.96727" gradientUnits="userSpaceOnUse" id="color-22"><stop offset="0" stop-color="#2e2e2e"/><stop offset="1" stop-color="#1a1a1a"/></linearGradient><linearGradient x1="190.16239" y1="215.88512" x2="190.16239" y2="220.5516" gradientUnits="userSpaceOnUse" id="color-23"><stop offset="0" stop-color="#2e2e2e"/><stop offset="1" stop-color="#1a1a1a"/></linearGradient><linearGradient x1="199.36297" y1="137.97727" x2="199.36297" y2="144.90697" gradientUnits="userSpaceOnUse" id="color-24"><stop offset="0" stop-color="#1a1a1a"/><stop offset="1" stop-color="#2f2f2f"/></linearGradient><linearGradient x1="245.0749" y1="137.59229" x2="245.0749" y2="145.03695" gradientUnits="userSpaceOnUse" id="color-25"><stop offset="0" stop-color="#1a1a1a"/><stop offset="1" stop-color="#2e2e2e"/></linearGradient><linearGradient x1="161.75818" y1="219.52645" x2="161.75818" y2="225.53952" gradientUnits="userSpaceOnUse" id="color-26"><stop offset="0" stop-color="#6fb3da"/><stop offset="1" stop-color="#5ab4e8"/></linearGradient><linearGradient x1="304.08313" y1="221.04492" x2="304.08313" y2="224.52219" gradientUnits="userSpaceOnUse" id="color-27"><stop offset="0" stop-color="#7ac0e8" stop-opacity="0"/><stop offset="1" stop-color="#7ac0e8"/></linearGradient><linearGradient x1="304.16193" y1="228.00024" x2="304.16193" y2="224.52296" gradientUnits="userSpaceOnUse" id="color-28"><stop offset="0" stop-color="#7ac0e8" stop-opacity="0"/><stop offset="1" stop-color="#7ac0e8"/></linearGradient><linearGradient x1="304.08313" y1="138.61152" x2="304.08313" y2="135.13424" gradientUnits="userSpaceOnUse" id="color-29"><stop offset="0" stop-color="#7ac0e8" stop-opacity="0"/><stop offset="1" stop-color="#7ac0e8"/></linearGradient><linearGradient x1="304.16193" y1="131.6562" x2="304.16193" y2="135.13346" gradientUnits="userSpaceOnUse" id="color-30"><stop offset="0" stop-color="#7ac0e8" stop-opacity="0"/><stop offset="1" stop-color="#7ac0e8"/></linearGradient><radialGradient cx="207.93994" cy="203.38723" r="36.84842" gradientUnits="userSpaceOnUse" id="color-31"><stop offset="0" stop-color="#87d3ff"/><stop offset="1" stop-color="#87d3ff" stop-opacity="0"/></radialGradient><radialGradient cx="206.65666" cy="157.37253" r="36.84841" gradientUnits="userSpaceOnUse" id="color-32"><stop offset="0" stop-color="#87d3ff"/><stop offset="1" stop-color="#87d3ff" stop-opacity="0"/></radialGradient><radialGradient cx="322.26329" cy="167.84972" r="21.00272" gradientUnits="userSpaceOnUse" id="color-33"><stop offset="0" stop-color="#7bc0e9"/><stop offset="1" stop-color="#7bc0e9" stop-opacity="0"/></radialGradient><radialGradient cx="322.93285" cy="192.84576" r="21.00272" gradientUnits="userSpaceOnUse" id="color-34"><stop offset="0" stop-color="#7bc0e9"/><stop offset="1" stop-color="#7bc0e9" stop-opacity="0"/></radialGradient></defs><g transform="translate(2.63138,-1.09611)"><g data-paper-data="{&quot;isPaintingLayer&quot;:true}" fill-rule="nonzero" stroke-linejoin="miter" stroke-miterlimit="10" stroke-dasharray="" stroke-dashoffset="0" style="mix-blend-mode: normal"><path d="M357.39383,180.40999c0,0 0.26319,5.06146 -0.23137,12.12291c-0.33769,4.82158 -0.61486,10.48229 -2.6122,15.88012c-1.32116,3.57046 -13.50555,17.29677 -16.54839,18.34124c-12.05613,4.13825 -37.98676,2.38119 -64.0522,2.12366c-30.0333,-0.29674 -59.70817,0.5376 -59.70817,0.5376c0,0 -19.90694,-0.20121 -40.33689,-0.37746c-14.94784,-0.12895 -30.48052,0.67004 -37.17957,-2.99276c-14.40364,-7.87537 -13.67802,-46.49152 -13.67802,-46.49152v0.89242c0,0 -0.72562,-38.61615 13.67802,-46.49152c6.69905,-3.66279 22.23173,-2.8638 37.17958,-2.99275c20.42995,-0.17624 40.33689,-0.37746 40.33689,-0.37746c0,0 29.67488,0.83434 59.70817,0.5376c26.06544,-0.25752 51.99608,-2.0146 64.0522,2.12365c3.04285,1.04445 15.22723,14.77079 16.54839,18.34125c1.99734,5.39783 2.2745,11.05853 2.6122,15.88011c0.49457,7.06144 0.23137,12.12291 0.23137,12.12291z" data-paper-data="{&quot;index&quot;:null}" fill="url(#color-1)" stroke="#498eb7" stroke-width="0.5" stroke-linecap="round"/><path d="M129.48634,140.92541l0.80165,77.09157c0,0 -2.82993,-5.37793 -4.66644,-13.21651c-2.01454,-8.59848 -3.05339,-19.91068 -3.08406,-24.44514c-0.06119,-9.04758 2.07219,-22.55045 2.07219,-22.55045z" data-paper-data="{&quot;index&quot;:null}" fill="url(#color-2)" stroke="none" stroke-width="0" stroke-linecap="butt"/><path d="M347.75278,142.2967c0,0 4.43576,4.9392 5.83378,7.10287c1.17627,1.82047 2.00453,5.02827 2.00453,5.02827c0,0 0.8156,19.3114 0.68332,28.35898c-0.12673,8.66816 -1.46107,24.83705 -1.46107,24.83705c0,0 -2.89182,4.85493 -4.72607,7.08169c-2.06716,2.50952 -7.06183,7.2288 -7.06183,7.2288l-0.3111,-84.92631l5.03843,5.28866z" data-paper-data="{&quot;index&quot;:null}" fill="url(#color-3)" stroke="none" stroke-width="0" stroke-linecap="butt"/><path d="M340.53183,220.9494c0,0 1.87575,2.70907 0.44205,4.08812c-2.44025,2.34722 -9.40933,3.90394 -13.81849,3.90394c-3.5032,0 -9.28014,0.62094 -16.8896,0.62094c-40.07005,0 -127.58841,-0.39279 -161.73401,-0.55356c-4.05151,-0.01907 -8.91523,-1.56488 -12.17766,-3.49312c-3.81302,-2.25367 -5.7114,-4.93889 -5.7114,-4.93889z" data-paper-data="{&quot;index&quot;:null}" fill="url(#color-4)" stroke="none" stroke-width="0" stroke-linecap="butt"/><path d="M340.53183,139.28257l-209.88911,0.37256c0,0 1.89838,-2.68521 5.7114,-4.93889c3.26244,-1.92825 8.12615,-3.47405 12.17766,-3.49312c34.1456,-0.16078 121.66396,-0.55357 161.73401,-0.55357c7.60946,0 13.38641,0.62095 16.8896,0.62095c4.40916,0 11.37824,1.55671 13.81849,3.90393c1.4337,1.37905 -0.44205,4.08813 -0.44205,4.08813z" data-paper-data="{&quot;index&quot;:null}" fill="url(#color-5)" stroke="none" stroke-width="0" stroke-linecap="butt"/><path d="M182.81114,132.37879c12.78553,-0.65345 26.16885,-1.07568 26.16885,-1.07568c0,0 12.46897,-0.64473 8.21828,0.48991c-4.87152,1.30037 -28.71675,10.91973 -44.39367,14.55912c-13.6141,3.1605 -35.30605,16.33411 -46.00911,15.01443c-5.57379,-0.68724 2.96025,-19.26277 2.96025,-19.26277l5.54384,-2.72549c0,0 3.43842,-2.44764 10.44742,-3.80971c1.66111,-0.32281 8.09768,-1.30307 14.9431,-1.77201c1.70919,-0.11709 11.74776,-0.88765 22.12105,-1.41781z" data-paper-data="{&quot;index&quot;:null}" fill="url(#color-6)" stroke="url(#color-7)" stroke-width="0" stroke-linecap="butt"/><path d="M131.5969,197.76598c0,0 -0.77077,-1.25063 -1.3185,-3.73722c-0.71059,-3.22591 -1.24574,-8.41199 -1.29953,-14.40778c-0.15221,-7.27263 2.03325,-17.72181 2.03325,-17.72181l2.24167,0.38986c0,0 -1.3645,10.58679 -1.3645,16.33396c0,5.94203 1.3645,18.75314 1.3645,18.75314z" data-paper-data="{&quot;index&quot;:null}" fill="url(#color-8)" stroke="#498eb7" stroke-width="0" stroke-linecap="butt"/><path d="M208.97999,229.50802c0,0 -16.93178,-0.47527 -25.87976,-1.4235c-5.20722,-0.55181 -14.64574,-0.4963 -22.8201,-1.60072c-13.2063,-1.78428 -25.06657,-4.79289 -25.06657,-4.79289l-5.37178,-2.03725c0,0 -8.62009,-19.52185 -3.04628,-20.20909c10.70306,-1.31968 32.39501,11.85392 46.00911,15.01442c15.67691,3.63939 38.48979,13.0867 43.36131,14.38707c4.2507,1.13465 -7.18592,0.66197 -7.18592,0.66197z" data-paper-data="{&quot;index&quot;:null}" fill="url(#color-9)" stroke="url(#color-10)" stroke-width="0" stroke-linecap="butt"/><path d="M165.68592,209.86913c-3.52196,0 -7.14813,-2.49668 -7.14813,-6.43764c0,-13.20334 0,-42.61775 0,-48.66735c0,-2.13652 2.87846,-4.07642 5.83633,-4.07642c9.37718,0 58.65769,0 58.65769,0v59.18141c0,0 -47.37027,0 -57.34589,0z" data-paper-data="{&quot;index&quot;:null}" fill="url(#color-11)" stroke="none" stroke-width="0" stroke-linecap="butt"/><path d="M349.36908,190.46321c0,0 -29.01627,4.01333 -39.97151,5.92858c-15.84937,2.77087 -22.32118,-0.77172 -22.32118,-0.77172v-31.0607c0,0 3.77825,-3.0563 22.2819,-0.80288c11.14049,1.35672 39.77639,5.02213 39.77639,5.02213l0.23441,21.68458z" data-paper-data="{&quot;index&quot;:null}" fill="url(#color-12)" stroke="none" stroke-width="0" stroke-linecap="butt"/><path d="M298.02274,162.41934l-2.59202,-9.16714l48.44661,7.69883c0,0 2.2179,4.21554 1.49025,6.10966c-0.42894,1.11655 -2.05401,1.26921 -2.05401,1.26921z" data-paper-data="{&quot;index&quot;:null}" fill="url(#color-13)" stroke="none" stroke-width="0" stroke-linecap="butt"/><path d="M336.17695,149.38385l3.32836,3.69713l-48.4466,-7.69884l-2.27643,-6.32695c0,0 2.92027,-0.90698 7.36661,-0.74155c7.28159,0.27092 18.1252,1.82565 23.00421,3.14823c6.53906,1.77258 17.02386,7.92197 17.02386,7.92197z" data-paper-data="{&quot;index&quot;:null}" fill="url(#color-14)" stroke="none" stroke-width="0" stroke-linecap="butt"/><path d="M343.60783,191.22671c0,0 1.62508,0.15267 2.05401,1.26922c0.72764,1.89412 -1.49027,6.10965 -1.49027,6.10965l-48.4466,7.69884l2.59202,-9.16714z" data-paper-data="{&quot;index&quot;:null}" fill="url(#color-15)" stroke="none" stroke-width="0" stroke-linecap="butt"/><path d="M336.47121,210.1727c0,0 -10.48479,6.14938 -17.02385,7.92197c-4.87901,1.32258 -15.72262,2.87732 -23.00421,3.14824c-4.44635,0.16543 -7.36662,-0.74155 -7.36662,-0.74155l2.27645,-6.32694l48.4466,-7.69882l-3.32837,3.69713z" data-paper-data="{&quot;index&quot;:null}" fill="url(#color-16)" stroke="none" stroke-width="0" stroke-linecap="butt"/><path d="M293.42962,198.17984l39.69761,-4.87108l1.77982,18.45325c0,0 -11.77797,5.48796 -18.3553,7.29969c-6.42579,1.76999 -14.15606,2.2802 -19.01963,2.41483c-2.88265,0.07979 -5.88232,-0.62809 -5.88232,-0.62809z" data-paper-data="{&quot;index&quot;:null}" fill="url(#color-17)" stroke="none" stroke-width="0" stroke-linecap="butt"/><path d="M338.60608,222.52369c-2.21391,1.62183 -3.70341,1.98756 -5.89994,2.39941c-2.06494,0.38718 -6.90886,0.00224 -6.90886,0.00224c0,0 7.26526,-3.14732 10.51264,-5.63405c3.99977,-3.06289 11.70262,-11.37763 11.70262,-11.37763c0,0 -3.08436,6.64962 -4.7982,9.31154c-1.31441,2.04155 -2.39434,3.67667 -4.60826,5.2985z" data-paper-data="{&quot;index&quot;:null}" fill="#2e3232" stroke="#353535" stroke-width="0.5" stroke-linecap="round"/><path d="M290.74043,139.2306c0,0 2.99967,-0.70788 5.88232,-0.62809c4.86356,0.13462 12.59384,0.64484 19.01963,2.41483c6.57732,1.81172 18.3553,7.29968 18.3553,7.29968l-1.77981,18.45325l-39.69761,-4.87107z" data-paper-data="{&quot;index&quot;:null}" fill="url(#color-18)" stroke="none" stroke-width="0" stroke-linecap="butt"/><path d="M302.14128,196.94518c0,0 11.99638,-1.27307 23.05499,-2.79134c8.1532,-1.11938 15.54005,-2.57736 18.55223,-2.70189c2.79621,-0.11561 1.91096,3.69403 1.91096,3.69403c0,0 -0.09582,0.29868 -0.28207,0.81604c-1.01097,2.8084 -4.68651,12.06057 -10.16455,14.96071c-3.96579,2.09955 -11.42113,5.82079 -19.10469,7.70685c-10.04008,2.46451 -20.15163,2.82972 -20.15163,2.82972" data-paper-data="{&quot;index&quot;:null}" fill="none" stroke="#498eb7" stroke-width="0.5" stroke-linecap="round"/><path d="M330.92851,222.35888l5.28515,1.1245c0,0 -3.11737,1.14453 -4.78442,1.31698c-1.59038,0.16451 -4.99873,-0.30494 -4.99873,-0.30494z" data-paper-data="{&quot;index&quot;:null}" fill="#d09829" stroke="#498eb7" stroke-width="0" stroke-linecap="round"/><path d="M328.92528,223.14605c0,0 -23.332,1.68668 -29.46819,1.20428c-1.549,-0.12178 -2.19011,-2.15524 -3.12174,-2.59709c-2.53241,-1.20109 -4.18124,-1.19354 -4.18124,-1.19354" data-paper-data="{&quot;index&quot;:null}" fill="none" stroke="#498eb7" stroke-width="0.5" stroke-linecap="round"/><path d="M354.71612,198.94044l-6.30331,7.96734c0,0 1.06705,-6.8406 1.31884,-10.96368c0.2791,-4.57015 0.28227,-15.25433 0.28227,-15.25433v-1.24414c0,0 -0.00317,-10.68417 -0.28227,-15.25433c-0.25179,-4.12308 -1.31884,-10.96369 -1.31884,-10.96369l6.30331,7.96734" data-paper-data="{&quot;index&quot;:null}" fill="none" stroke="#498eb7" stroke-width="0.5" stroke-linecap="round"/><path d="M292.41076,138.97072c0,0 1.64883,0.00755 4.18124,-1.19354c0.93162,-0.44185 1.57274,-2.47531 3.12174,-2.59709c6.13619,-0.48241 29.67352,1.61492 29.67352,1.61492" data-paper-data="{&quot;index&quot;:null}" fill="none" stroke="#498eb7" stroke-width="0.5" stroke-linecap="round"/><path d="M337.71825,136.96303c2.22928,1.60066 3.32474,3.22541 4.65856,5.25433c1.73913,2.64547 4.88673,9.26538 4.88673,9.26538c0,0 -7.78176,-8.24094 -11.81055,-11.26556c-3.27096,-2.45567 -10.56586,-5.5336 -10.56586,-5.5336c0,0 4.84004,-0.43109 6.90857,-0.06361c2.20035,0.39091 3.69328,0.74241 5.92255,2.34307z" data-paper-data="{&quot;index&quot;:null}" fill="#2e3232" stroke="#2e3232" stroke-width="0.5" stroke-linecap="round"/><path d="M325.40387,134.81987c0,0 3.40836,-0.46947 4.99874,-0.30494c1.66707,0.17246 4.78442,1.31699 4.78442,1.31699l-5.28514,1.1245z" data-paper-data="{&quot;index&quot;:null}" fill="#d09829" stroke="#498eb7" stroke-width="0" stroke-linecap="round"/><path d="M295.7512,138.27031c0,0 10.11156,0.36522 20.15163,2.82972c7.68356,1.88606 15.1389,5.6073 19.10469,7.70684c5.47804,2.90013 9.15358,12.1523 10.16455,14.9607c0.18625,0.51737 0.28206,0.81604 0.28206,0.81604c0,0 0.88525,3.80965 -1.91096,3.69404c-3.01218,-0.12453 -10.39902,-1.58252 -18.55222,-2.7019c-11.05863,-1.51827 -23.055,-2.79134 -23.055,-2.79134" data-paper-data="{&quot;index&quot;:null}" fill="none" stroke="#498eb7" stroke-width="0.5" stroke-linecap="round"/><path d="M357.39168,181.87686c0,0 -0.144,12.27406 -0.69874,16.52702c-0.41827,3.20673 -2.00007,8.43689 -2.00007,8.43689l1.02662,-26.51863l-1.02662,-26.07621c0,0 1.5818,5.23016 2.00007,8.43689c0.55473,4.25296 0.69874,16.52703 0.69874,16.52703z" data-paper-data="{&quot;index&quot;:null}" fill="#1e1e1e" stroke="#498eb7" stroke-width="0" stroke-linecap="round"/><path d="M354.69287,206.27853l0.11245,-8.20885h1.79919c0,0 -0.04695,2.15801 -0.26568,3.38627c-0.26104,1.4658 -1.64596,4.82259 -1.64596,4.82259z" data-paper-data="{&quot;index&quot;:null}" fill="#932226" stroke="#498eb7" stroke-width="0" stroke-linecap="round"/><path d="M356.33883,157.92618c0.21873,1.22827 0.26568,3.38627 0.26568,3.38627h-1.79919l-0.11245,-8.20885c0,0 1.38493,3.35679 1.64596,4.82259z" data-paper-data="{&quot;index&quot;:null}" fill="#932226" stroke="#498eb7" stroke-width="0" stroke-linecap="round"/><path d="M327.58464,225.59332c0,0 -1.70478,0.48753 -5.60586,0.6073c-8.20324,0.25185 -40.23284,-0.05977 -40.23284,-0.05977" data-paper-data="{&quot;index&quot;:null}" fill="none" stroke="#498eb7" stroke-width="0.5" stroke-linecap="round"/><path d="M281.41258,132.9888c0,0 32.3057,-0.16671 39.91064,0.03254c3.06529,0.08032 6.24962,1.37846 6.24962,1.37846" data-paper-data="{&quot;index&quot;:null}" fill="none" stroke="#498eb7" stroke-width="0.5" stroke-linecap="round"/><path d="M281.61415,131.17458c0,0 -0.11787,2.798 -0.59143,3.63583c-0.3784,0.66948 -1.62588,1.00036 -1.62588,1.00036" data-paper-data="{&quot;index&quot;:null}" fill="none" stroke="#498eb7" stroke-width="0.5" stroke-linecap="round"/><path d="M279.59841,223.29361c0,0 1.12011,1.37366 1.56542,2.3328c0.42744,0.92065 0.65188,2.90811 0.65188,2.90811" data-paper-data="{&quot;index&quot;:null}" fill="none" stroke="#498eb7" stroke-width="0.5" stroke-linecap="round"/><path d="M148.22957,215.48976c-2.15226,-1.31383 -5.95832,-2.72412 -8.8813,-6.51771c-1.86333,-2.41833 -4.58241,-6.53629 -5.99848,-11.08457c-1.54843,-4.97336 -1.71264,-10.36195 -1.76811,-12.16467c-0.13871,-4.50831 0.28124,-14.07365 0.28124,-14.07365c0,0 0.01999,-5.55718 1.97423,-11.26878c1.82014,-5.31969 5.4863,-10.73971 7.95823,-12.81233c5.78742,-4.85254 23.04915,-3.57272 23.04915,-3.57272l-0.0916,4.84304c0,0 5.63193,0.37827 13.14379,0.52099c10.88073,0.20672 25.84496,0.07097 34.51505,0.03046c5.66717,-0.02649 13.40921,0.04684 20.18273,-0.15927c10.05384,-0.30593 18.43178,-0.92218 18.43178,-0.92218l-0.93315,1.58304c0,0 -24.06596,1.27714 -37.55563,1.35075c-15.09527,0.08237 -48.61518,-0.24559 -48.61518,-0.24559c0,0 -1.86716,-0.24462 -3.30487,0.44037c-1.16557,0.55533 -1.96194,1.93903 -1.94306,2.83232c0.12289,5.81636 -1.12161,36.92578 0.47892,50.51553c0.4862,4.12817 6.00276,4.60026 6.00276,4.60026c0,0 31.62008,-0.34834 46.58354,-0.45274c5.37792,-0.03752 13.09858,-0.00417 19.90903,0.20576c10.71757,0.33037 20.05707,1.03763 20.05707,1.03763l1.26157,1.25462c0,0 -8.57012,-0.44761 -18.65683,-0.62099c-8.15581,-0.1402 -17.30315,-0.01327 -23.71331,-0.01327c-14.87073,0 -45.44107,0 -45.44107,0l-0.94582,4.87085c0,0 -13.97626,1.04642 -15.9807,-0.17717z" data-paper-data="{&quot;index&quot;:null}" fill="url(#color-19)" stroke="#498eb7" stroke-width="0" stroke-linecap="round"/><path d="M158.75562,199.42977c0,0 -4.39789,1.11779 -5.56694,-1.93815c-1.23728,-3.23427 -1.36039,-31.69036 -0.46989,-34.41228c1.17798,-3.60063 5.90997,-3.10065 5.90997,-3.10065" data-paper-data="{&quot;index&quot;:null}" fill="none" stroke="#0d0d0d" stroke-width="0.5" stroke-linecap="round"/><path d="M158.24822,159.09072c0,0 -1.58681,-0.15357 -2.28648,-0.22127c-0.59364,-0.05745 -1.26539,-0.41299 -1.26539,-0.41299c0,0 -0.25128,-0.30768 -0.03064,-1.1497c0.52764,-2.0136 1.57774,-5.63211 2.63193,-7.01654c0.66318,-0.87092 1.77477,-3.05696 2.94372,-3.88388c2.19998,-1.55625 4.60319,-1.5231 4.60319,-1.5231" data-paper-data="{&quot;index&quot;:null}" fill="none" stroke="#090909" stroke-width="0.5" stroke-linecap="round"/><path d="M164.33713,214.27154c0,0 -3.13836,-0.61085 -4.66052,-1.81759c-2.07638,-1.64613 -2.78325,-4.18269 -3.51722,-5.7763c-1.39261,-3.02365 -1.71675,-5.97932 -1.71675,-5.97932h4.31299" data-paper-data="{&quot;index&quot;:null}" fill="none" stroke="#0b0b0b" stroke-width="0.5" stroke-linecap="round"/><path d="M164.94194,208.88542l-0.25665,-57.74753" data-paper-data="{&quot;index&quot;:null}" fill="none" stroke="#498eb7" stroke-width="0.5" stroke-linecap="round"/><path d="M148.13098,152.49449v-7.59701" data-paper-data="{&quot;index&quot;:null}" fill="none" stroke="#0d0d0d" stroke-width="0.5" stroke-linecap="round"/><path d="M148.33633,207.52149l-0.10267,7.80233" data-paper-data="{&quot;index&quot;:null}" fill="none" stroke="#0d0d0d" stroke-width="0.5" stroke-linecap="round"/><path d="M149.56827,215.73446c0,0 1.12169,-1.19568 2.19813,-1.48614c1.07948,-0.29129 4.2696,-0.25912 4.2696,-0.25912c0,0 2.89339,0.05591 4.19856,0.19915c1.47912,0.16234 3.91176,0.93013 3.91176,0.93013" data-paper-data="{&quot;index&quot;:null}" fill="none" stroke="#0d0d0d" stroke-width="0.5" stroke-linecap="round"/><path d="M164.86495,144.17881c0,0 -3.43365,1.25826 -5.07694,1.66447c-1.34008,0.33125 -4.06,0.38878 -4.06,0.38878c0,0 -3.27715,0.31441 -4.20522,-0.01122c-1.01477,-0.35607 -1.33855,-1.63138 -1.33855,-1.63138" data-paper-data="{&quot;index&quot;:null}" fill="none" stroke="#0d0d0d" stroke-width="0.5" stroke-linecap="round"/><path d="M161.64961,202.24992c0,0 3.94441,10.71232 1.65894,12.7759c-1.12791,1.01839 -9.84703,2.6954 -16.26871,0.09176c-6.87472,-2.78733 -11.50878,-10.16296 -13.73302,-18.50224c-1.28499,-4.81772 -1.4329,-11.13903 -1.39814,-18.73299c0.14353,-31.35736 16.1444,-32.84553 16.1444,-32.84553c0,0 13.20019,-2.12009 15.7067,-0.75517c1.7376,0.94622 -2.11017,8.1592 -2.11017,8.1592v49.80906z" data-paper-data="{&quot;index&quot;:null}" fill="url(#color-20)" stroke="#498eb7" stroke-width="0" stroke-linecap="butt"/><path d="M290.48337,138.83439c0,0 1.51594,0.09639 3.03811,1.93444c1.92669,2.32655 4.50927,6.1517 6.32119,11.54175c3.15447,9.3839 3.84231,23.68538 3.82449,30.86962c-0.00954,3.84151 -0.95686,15.17608 -3.87664,24.13473c-2.52425,7.74505 -6.87914,13.51064 -9.08773,13.57433c-5.36775,0.1548 -12.17588,-1.87961 -19.25546,-3.44614c-7.08161,-1.56698 -14.06886,-3.15383 -18.28065,-4.11604c-2.48663,-0.56809 -2.79639,-1.12002 -2.79639,-1.12002c0,0 -0.90718,-0.85566 -0.46205,-2.68955c1.27025,-5.23342 3.70385,-16.79171 3.59598,-28.15412c-0.08527,-8.98179 -0.9059,-18.41285 -2.31437,-24.08909c-0.57049,-2.29911 -1.62585,-7.9581 -1.62585,-7.9581c0,0 0.01493,-2.02142 1.42172,-2.37646c7.53011,-1.90045 31.63608,-6.82578 36.5836,-8.07444c1.71219,-0.43213 2.91405,-0.0309 2.91405,-0.0309z" data-paper-data="{&quot;index&quot;:null}" fill="#2a2a2a" stroke="#498eb7" stroke-width="0" stroke-linecap="round"/><path d="M257.03828,147.58298c5.69911,-1.13227 18.9758,-3.77003 22.99287,-4.56812c2.23667,-0.44437 4.00187,-0.35054 4.00187,-0.35054c0,0 1.2862,0.29667 1.99876,1.89052c1.54754,3.46156 4.19242,10.18935 5.40159,18.0431c0.88149,5.72541 1.51884,12.0721 1.35765,17.77453c-0.07387,2.61309 -0.02173,12.86033 -1.92744,21.48141c-1.15474,5.22383 -3.09143,9.82536 -4.36275,12.50876c-0.74271,1.56764 -2.06464,2.07749 -2.06464,2.07749c0,0 -1.73897,0.82881 -3.85512,0.30315c-3.90346,-0.96965 -19.05248,-3.61311 -25.44552,-5.49987c-2.16405,-0.63866 -1.54006,-2.26149 -1.54006,-2.26149c0,0 1.50705,-6.17948 2.00457,-9.47562c0.56814,-3.76386 1.22059,-11.89114 1.22059,-11.89114c0,0 4.31092,-1.09034 5.76205,-1.76009c0.93345,-0.43083 1.66593,-0.31778 2.30088,-3.07768c0.63495,-2.7599 -0.20157,-6.0472 -0.20157,-6.0472c0,0 -0.63849,-1.86224 -1.78625,-2.51811c-1.55101,-0.88629 -6.07511,-1.31177 -6.07511,-1.31177c0,0 -0.51999,-7.37335 -1.13896,-13.29013c-0.37923,-3.62515 -1.52625,-7.20776 -1.6389,-8.68473c-0.11737,-1.53878 0.56056,-2.01236 0.56056,-2.01236c0,0 0.80787,-1.00684 2.43496,-1.33011z" data-paper-data="{&quot;index&quot;:null}" fill="url(#color-21)" stroke="#498eb7" stroke-width="0" stroke-linecap="round"/><path d="M169.88257,182.9632c0,0 -1.01359,-1.93373 -1.15495,-2.95155c-0.06677,-0.48075 1.26583,-2.87007 1.26583,-2.87007c0,0 3.69528,0.63929 4.46418,0.85101c1.49347,0.41125 3.63793,2.14739 3.63793,2.14739c0,0 -2.57014,1.63312 -3.68618,1.92957c-1.5041,0.39952 -4.5268,0.89364 -4.5268,0.89364z" data-paper-data="{&quot;index&quot;:null}" fill="#4f87a2" stroke="#498eb7" stroke-width="0.5" stroke-linecap="round"/><path d="M169.1126,181.1666c0,0 -0.46664,-0.73143 -0.46664,-1.11996c0,-0.42153 0.46664,-1.31827 0.46664,-1.31827c0,0 1.53559,0.03877 2.27281,0.2494c0.7593,0.21695 2.31199,1.12721 2.31199,1.12721c0,0 -1.58353,0.87385 -2.34844,1.07054c-0.73069,0.18789 -2.23637,-0.00891 -2.23637,-0.00891z" data-paper-data="{&quot;index&quot;:null}" fill="#557e9a" stroke="#498eb7" stroke-width="0.5" stroke-linecap="round"/><path d="M267.8492,140.10166l0.27999,-2.79988c0,0 2.96149,-1.21816 4.25959,-1.83392c1.09303,-0.51848 3.0201,-1.61926 3.0201,-1.61926c0,0 2.44812,1.9497 3.72824,2.62259c1.12684,0.59232 3.55145,1.20391 3.55145,1.20391z" data-paper-data="{&quot;index&quot;:null}" fill="#4f4f4d" stroke="#498eb7" stroke-width="0" stroke-linecap="round"/><path d="M271.84368,135.67347c-0.93896,0.42043 -3.15449,1.25505 -3.15449,1.25505c0,0 -2.25542,-2.96324 -3.23342,-4.72639c-1.18922,-2.14396 -3.01964,-7.3131 -3.01964,-7.3131c0,0 2.18922,0 2.89321,0c0.42629,0 1.02662,0.18666 1.02662,0.18666c0,0 0.30432,0.06202 0.76357,0.44641c0.9631,0.80611 2.60759,2.20905 3.55555,3.16677c1.59274,1.60915 4.73381,5.34644 4.73381,5.34644c0,0 -2.45021,1.1389 -3.5652,1.63816z" data-paper-data="{&quot;index&quot;:null}" fill="#72bff5" stroke="#498eb7" stroke-width="0.5" stroke-linecap="round"/><path d="M268.50251,136.92851c0,0 -2.35407,-3.08428 -3.30642,-5.01871c-1.03224,-2.09674 -2.76,-6.92745 -2.76,-6.92745h1.02662l6.25307,11.47951z" data-paper-data="{&quot;index&quot;:null}" fill="#423f48" stroke="#498eb7" stroke-width="0.5" stroke-linecap="round"/><path d="M172.93327,218.12503c0,0 -0.1552,-0.30794 0.63975,-0.76996c0.65654,-0.38159 1.4519,-0.80461 2.16752,-1.07722c1.77856,-0.67754 8.20559,-1.04602 8.20559,-1.04602c0,0 42.93213,-2.00654 58.43205,-0.85265c10.52213,0.78331 25.56434,5.61245 25.56434,5.61245l0.27999,2.33324c0,0 -47.50424,1.50082 -65.23305,0.74273c-7.58625,-0.32438 -18.91495,-1.78614 -25.51222,-3.11465c-1.27844,-0.25744 -2.34927,-0.56974 -3.18566,-0.85799c-1.36444,-0.47026 -1.35833,-0.96992 -1.35833,-0.96992z" data-paper-data="{&quot;index&quot;:null}" fill="#2a2a2a" stroke="#498eb7" stroke-width="0" stroke-linecap="round"/><path d="M240.41042,215.46365c10.08996,0.92452 27.34964,5.18126 27.34964,5.18126v0.83996c0,0 -22.00841,0.44753 -31.73224,0.48062c-8.36267,0.02845 -23.61205,-0.29395 -23.61205,-0.29395l-4.10649,-6.3464c0,0 22.52553,-0.73888 32.10115,0.13851z" data-paper-data="{&quot;index&quot;:null}" fill="url(#color-22)" stroke="#498eb7" stroke-width="0" stroke-linecap="round"/><path d="M202.05204,220.5516c0,0 -22.46424,-1.57345 -23.4578,-2.07996c-1.12837,-0.57523 0.97342,-1.46905 2.29665,-1.61199c6.57752,-0.71051 19.20122,-0.97452 19.20122,-0.97452l1.95991,4.66646z" data-paper-data="{&quot;index&quot;:null}" fill="url(#color-23)" stroke="#498eb7" stroke-width="0" stroke-linecap="round"/><path d="M203.45196,214.8585c0,0 2.79279,5.80929 3.60816,8.43841c0.68687,2.21482 0.77831,6.12097 0.77831,6.12097" data-paper-data="{&quot;index&quot;:null}" fill="none" stroke="#498eb7" stroke-width="0.5" stroke-linecap="round"/><path d="M178.43722,144.26064c-0.40298,-0.02711 -1.55028,-0.19208 -2.7772,-0.61741c-2.69818,-0.93535 -5.78146,-2.50923 -2.18057,-3.29456c10.03599,-2.18877 39.43559,-3.2647 45.39525,-3.51335c15.68188,-0.65428 48.887,0.24361 48.887,0.24361v2.95154c0,0 -8.09644,2.41533 -12.03767,3.43384c-1.05612,0.27293 -6.14935,2.20634 -14.39899,2.42743c-18.59316,0.49829 -49.41294,-0.73941 -60.4207,-1.35377c-0.99061,-0.05528 -1.82078,-0.23386 -2.46714,-0.27733z" data-paper-data="{&quot;index&quot;:null}" fill="#2a2a2a" stroke="#498eb7" stroke-width="0" stroke-linecap="round"/><path d="M222.33366,130.79092c0,0 -0.62724,0.93333 -0.90298,2.63161c-0.20828,1.28276 -0.05068,3.27751 -0.20721,4.07539c-0.66878,3.40878 -2.48298,8.17902 -2.48298,8.17902" data-paper-data="{&quot;index&quot;:null}" fill="none" stroke="#498eb7" stroke-width="0.5" stroke-linecap="round"/><path d="M193.62042,139.2518c6.0169,-0.51506 22.5535,-1.27454 22.5535,-1.27454l-0.89829,6.92971c0,0 -12.52842,-0.3048 -18.22282,-0.50577c-5.1609,-0.18214 -14.50078,-0.64918 -14.50078,-0.64918l0.12833,-3.07987c0,0 6.36122,-1.02838 10.94007,-1.42035z" data-paper-data="{&quot;index&quot;:null}" fill="url(#color-24)" stroke="#498eb7" stroke-width="0" stroke-linecap="round"/><path d="M268.04558,137.84894v1.79659c0,0 -13.81569,3.99032 -21.36027,4.85196c-7.80326,0.89118 -24.58109,0.40948 -24.58109,0.40948l4.10649,-7.31468z" data-paper-data="{&quot;index&quot;:null}" fill="url(#color-25)" stroke="#498eb7" stroke-width="0" stroke-linecap="round"/><path d="M179.21126,140.62875c0.79066,-0.07713 2.31414,0.0434 2.31414,0.0434v2.69488l-3.72151,-0.12832l-1.53993,-2.05325c0,0 2.00941,-0.46521 2.9473,-0.55672z" data-paper-data="{&quot;index&quot;:null}" fill="#060606" stroke="#498eb7" stroke-width="0" stroke-linecap="round"/><path d="M171.77249,141.31379c0,0 -2.2534,-1.23947 -2.05282,-2.52648c0.28348,-1.819 4.61938,-7.48309 4.61938,-7.48309" data-paper-data="{&quot;index&quot;:null}" fill="none" stroke="#498eb7" stroke-width="0.5" stroke-linecap="round"/><path d="M135.969,139.00389c0,0 6.1192,-3.6119 15.43048,-4.57568c14.1926,-1.46902 61.4379,-3.38065 61.4379,-3.38065" data-paper-data="{&quot;index&quot;:null}" fill="none" stroke="#498eb7" stroke-width="0.5" stroke-linecap="round"/><path d="M144.95197,141.05714c0,0 -1.64661,-2.90793 -1.2044,-4.07663c0.66336,-1.75316 4.79757,-5.41962 4.79757,-5.41962" data-paper-data="{&quot;index&quot;:null}" fill="none" stroke="#498eb7" stroke-width="0.5" stroke-linecap="round"/><path d="M165.09944,145.67694c0,0 0.73851,-0.90753 1.69986,-1.02526c2.15653,-0.26407 10.87627,-0.51468 10.87627,-0.51468" data-paper-data="{&quot;index&quot;:null}" fill="none" stroke="#498eb7" stroke-width="0.5" stroke-linecap="round"/><path d="M174.72403,216.51391c0,0 -5.12285,0.06607 -6.78032,-0.24174c-1.12822,-0.20953 -3.48591,-1.81151 -3.48591,-1.81151" data-paper-data="{&quot;index&quot;:null}" fill="none" stroke="#498eb7" stroke-width="0.5" stroke-linecap="round"/><path d="M207.06264,229.34668c0,0 -35.95722,-1.67685 -48.65247,-3.05927c-10.42347,-1.13505 -27.95925,-6.26589 -27.95925,-6.26589" data-paper-data="{&quot;index&quot;:null}" fill="none" stroke="#498eb7" stroke-width="0.5" stroke-linecap="round"/><path d="M148.93013,228.83338c0,0 -4.29586,-3.6252 -4.88979,-5.07508c-0.79883,-1.95008 0.52665,-5.19115 0.52665,-5.19115" data-paper-data="{&quot;index&quot;:null}" fill="none" stroke="#498eb7" stroke-width="0.5" stroke-linecap="round"/><path d="M131.22088,197.52139c0,0 -0.7811,-1.43333 -1.21337,-3.69487c-0.6167,-3.22658 -0.97893,-8.13902 -1.2406,-12.97996c-0.13311,-2.46259 0.19151,-7.89724 0.82369,-12.02844c0.59795,-3.9074 1.50195,-6.58689 1.50195,-6.58689" data-paper-data="{&quot;index&quot;:null}" fill="none" stroke="#498eb7" stroke-width="0.5" stroke-linecap="round"/><path d="M133.14582,197.39305c0,0 0.96493,3.48722 3.04586,7.07774c1.87188,3.2298 4.76926,6.51872 6.58474,7.84712c1.69823,1.24262 3.82759,2.49207 6.49278,3.14477c4.77547,1.1695 10.50463,0.32404 10.50463,0.32404l-0.29644,1.65344c0,0 -7.24258,0.59155 -10.93234,0.73973c-1.98863,0.07986 -3.44491,0.22835 -4.37477,0.15861c-2.28667,-0.17149 -4.25686,0.7789 -8.45792,-5.41777c-4.20105,-6.19666 -4.23482,-15.27101 -4.23482,-15.27101l1.66826,-0.25665z" data-paper-data="{&quot;index&quot;:null}" fill="#c60202" stroke="#498eb7" stroke-width="0" stroke-linecap="round"/><path d="M132.76081,162.14899l-1.66826,-0.25665c0,0 0.03376,-9.07434 4.23481,-15.27101c4.20104,-6.19666 6.17125,-5.24625 8.45792,-5.41777c0.92987,-0.06974 2.38615,0.07875 4.37478,0.15861c3.68976,0.14819 11.33872,0.31198 11.33872,0.31198l-0.003,1.95287c0,0 -5.28002,0.15977 -10.05549,1.32927c-2.66519,0.65269 -5.35064,1.02523 -7.04888,2.26784c-1.81548,1.32841 -4.71286,4.61732 -6.58474,7.84713c-2.08094,3.59052 -3.04586,7.07774 -3.04586,7.07774z" data-paper-data="{&quot;index&quot;:null}" fill="#c60202" stroke="#498eb7" stroke-width="0" stroke-linecap="round"/><path d="M133.40246,207.91593c0,0 -3.86167,-1.15209 -5.14769,-4.82644c-0.5124,-1.46399 -1.5449,-10.70169 -1.71521,-20.45978c-0.18505,-10.6027 0.53196,-21.81977 0.99478,-24.34674c1.17113,-6.3944 5.09817,-5.93299 5.09817,-5.93299" data-paper-data="{&quot;index&quot;:null}" fill="none" stroke="#498eb7" stroke-width="0.5" stroke-linecap="round"/><path d="M161.75818,219.52644c2.47045,0 4.47314,1.34606 4.47314,3.00653c0,1.66046 -2.00269,3.00654 -4.47314,3.00654c-2.47045,0 -4.47314,-1.34607 -4.47314,-3.00654c0,-1.66046 2.00269,-3.00653 4.47314,-3.00653z" data-paper-data="{&quot;index&quot;:null}" fill="url(#color-26)" stroke="#498eb7" stroke-width="0" stroke-linecap="butt"/><path d="M137.50813,215.07075c0,0 -0.96322,-1.05163 -1.80104,-2.36877c-0.7321,-1.15096 -1.31823,-2.50464 -1.74038,-3.53655c-0.57708,-1.4106 -1.24255,-3.86391 -1.72616,-5.79314c-0.39872,-1.59059 -0.46139,-2.82493 -0.46139,-2.82493c0,0 3.16284,5.5373 4.80897,8.00649c1.57845,2.36767 5.29817,6.51691 5.29817,6.51691z" data-paper-data="{&quot;index&quot;:null}" fill="#b55966" stroke="#498eb7" stroke-width="0" stroke-linecap="round"/><path d="M131.61244,158.44891c0,0 -0.02882,-1.24971 0.20264,-2.61608c0.15089,-0.89073 0.53456,-1.83103 0.68852,-2.50702c0.33047,-1.45094 1.15868,-3.05593 1.52129,-4.03494c0.64756,-1.74843 2.94453,-4.63664 2.94453,-4.63664l4.69683,-0.22006c0,0 -3.25504,2.86405 -4.6315,4.91014c-1.33632,1.98642 -5.42231,9.1046 -5.42231,9.1046z" data-paper-data="{&quot;index&quot;:null}" fill="#b55966" stroke="#498eb7" stroke-width="0" stroke-linecap="round"/><path d="M336.46195,219.44797c1.45124,-0.96146 3.93949,-3.49285 3.93949,-3.49285c0,0 0.65467,1.25197 0.15301,2.25382c-0.44686,0.89243 -4.8833,4.74233 -5.74963,4.86183c-1.12088,0.1546 -3.11313,-0.95508 -3.11313,-0.95508z" data-paper-data="{&quot;index&quot;:null}" fill="#f8fcff" stroke="#498eb7" stroke-width="0" stroke-linecap="round"/><path d="M340.27051,141.45205c0.50167,1.00186 0.05943,2.46626 0.05943,2.46626c0,0 -2.59447,-2.6376 -4.04572,-3.59906c-1.37732,-0.91249 -5.19512,-3.41124 -5.19512,-3.41124c0,0 2.31089,-0.4724 3.43177,-0.31779c0.86635,0.11949 5.30278,3.9694 5.74964,4.86182z" data-paper-data="{&quot;index&quot;:null}" fill="#f8fcff" stroke="#f8fcff" stroke-width="0" stroke-linecap="round"/><path d="M211.15759,229.47748c0,0 2.03092,-2.59371 3.47912,-2.95154c1.66943,-0.41249 5.83363,-0.40643 7.42875,-0.05702c1.59512,0.34941 4.67684,2.7234 4.67684,2.7234z" data-paper-data="{&quot;index&quot;:null}" fill="#498eb7" stroke="#000000" stroke-width="0" stroke-linecap="butt"/><path d="M240.25949,130.92567c0,0 -2.98021,2.29579 -4.5228,2.6337c-1.54259,0.33789 -5.56964,0.34375 -7.18408,-0.05516c-1.4005,-0.34605 -3.36452,-2.85432 -3.36452,-2.85432z" data-paper-data="{&quot;index&quot;:null}" fill="#498eb7" stroke="#000000" stroke-width="0" stroke-linecap="butt"/><path d="M272.08637,224.94994l6.25647,-3.47327c0,0 7.69648,-1.10912 14.45839,-0.54826c0.38724,0.03212 6.00331,0.71605 12.41465,-0.1488c10.7898,-1.45548 24.188,-5.21718 24.85126,-5.13207c0.06358,0.00816 2.6112,1.38413 2.19,3.34218c-0.35395,1.64543 -3.42755,4.27036 -3.42755,4.27036l-4.04253,1.60432z" data-paper-data="{&quot;index&quot;:null}" fill="url(#color-27)" stroke="none" stroke-width="0" stroke-linecap="butt"/><path d="M324.4381,224.95072l8.43907,0.30036c0,0 -0.74441,1.46964 -4.56844,2.22944c-8.62221,1.71316 -55.32082,0.50371 -55.32082,0.50371l-0.48053,-3.11907z" data-paper-data="{&quot;index&quot;:null}" fill="url(#color-28)" stroke="none" stroke-width="0" stroke-linecap="butt"/><path d="M282.87523,222.32485c0,0 -2.42461,0.61159 -3.55145,1.20391c-1.28012,0.67289 -3.72824,2.62258 -3.72824,2.62258c0,0 -1.92707,-1.10077 -3.0201,-1.61926c-1.29809,-0.61576 -4.25959,-1.83391 -4.25959,-1.83391l-0.27999,-2.79988z" data-paper-data="{&quot;index&quot;:null}" fill="#4f4f4d" stroke="#498eb7" stroke-width="0" stroke-linecap="round"/><path d="M275.59554,225.9647c0,0 -3.14108,3.73729 -4.73381,5.34644c-0.94797,0.95773 -2.59245,2.36065 -3.55555,3.16677c-0.45925,0.38439 -0.76357,0.4464 -0.76357,0.4464c0,0 -0.60034,0.18666 -1.02663,0.18666c-0.70398,0 -2.8932,0 -2.8932,0c0,0 1.83042,-5.16914 3.01964,-7.3131c0.978,-1.76316 3.23342,-4.72639 3.23342,-4.72639c0,0 2.21553,0.83462 3.15449,1.25505c1.115,0.49926 3.5652,1.63816 3.5652,1.63816z" data-paper-data="{&quot;index&quot;:null}" fill="#72bff5" stroke="#498eb7" stroke-width="0.5" stroke-linecap="round"/><path d="M269.90243,223.53813l-6.25307,11.47951h-1.02662c0,0 1.72776,-4.8307 2.76,-6.92745c0.95234,-1.93444 3.30642,-5.01871 3.30642,-5.01871z" data-paper-data="{&quot;index&quot;:null}" fill="#423f48" stroke="#498eb7" stroke-width="0.5" stroke-linecap="round"/><path d="M324.78705,134.79201l4.04253,1.60432c0,0 3.0736,2.62494 3.42755,4.27037c0.4212,1.95806 -2.60024,5.07138 -2.66382,5.07954c-0.66326,0.08512 -13.58763,-5.41396 -24.37743,-6.86942c-6.41134,-0.86486 -12.02741,-0.18091 -12.41466,-0.1488c-6.7619,0.56087 -14.45839,-0.54826 -14.45839,-0.54826l-6.25648,-3.47327z" data-paper-data="{&quot;index&quot;:null}" fill="url(#color-29)" stroke="none" stroke-width="0" stroke-linecap="butt"/><path d="M272.50737,134.79125l0.48053,-3.11907c0,0 46.6986,-1.20944 55.32083,0.50373c3.82403,0.75982 4.56844,2.22944 4.56844,2.22944c0,0 -2.43388,-0.07412 -3.73411,-0.02785c-1.48751,0.05294 -4.70496,0.32822 -4.70496,0.32822z" data-paper-data="{&quot;index&quot;:null}" fill="url(#color-30)" stroke="none" stroke-width="0" stroke-linecap="butt"/><path d="M207.93993,200.82068c20.35082,0 36.84842,1.14908 36.84842,2.56655c0,1.41747 -16.49761,2.56656 -36.84842,2.56656c-20.35082,0 -36.84842,-1.14909 -36.84842,-2.56656c0,-1.41747 16.49759,-2.56655 36.84842,-2.56655z" data-paper-data="{&quot;index&quot;:null}" fill="url(#color-31)" stroke="none" stroke-width="0" stroke-linecap="butt"/><path d="M206.65665,154.80598c20.35082,0 36.84843,1.14908 36.84843,2.56655c0,1.41747 -16.49761,2.56656 -36.84843,2.56656c-20.35082,0 -36.84841,-1.14909 -36.84841,-2.56656c0,-1.41747 16.49759,-2.56655 36.84841,-2.56655z" data-paper-data="{&quot;index&quot;:null}" fill="url(#color-32)" stroke="none" stroke-width="0" stroke-linecap="butt"/><path d="M322.43478,166.39693c11.51953,1.35965 20.78116,3.11231 20.68647,3.91465c-0.0947,0.80235 -9.50989,0.35057 -21.02942,-1.00907c-11.51952,-1.35965 -20.78116,-3.1123 -20.68646,-3.91465c0.0947,-0.80235 9.50988,-0.35058 21.02941,1.00907z" data-paper-data="{&quot;index&quot;:null}" fill="url(#color-33)" stroke="none" stroke-width="0" stroke-linecap="butt"/><path d="M302.07489,195.30762c-0.0947,-0.80236 9.16694,-2.55501 20.68647,-3.91466c11.51953,-1.35965 20.93472,-1.81141 21.02941,-1.00906c0.0947,0.80235 -9.16694,2.55501 -20.68647,3.91466c-11.51953,1.35965 -20.93471,1.81141 -21.02941,1.00906z" data-paper-data="{&quot;index&quot;:null}" fill="url(#color-34)" stroke="none" stroke-width="0" stroke-linecap="butt"/><path d="M-2.63138,361.63479v-360.53868h484.97563v360.53869z" fill="none" stroke="none" stroke-width="0" stroke-linecap="butt"/></g></g></svg>