<svg version="1.1" xmlns="http://www.w3.org/2000/svg" xmlns:xlink="http://www.w3.org/1999/xlink" width="292.71415" height="211.01625" viewBox="0,0,292.71415,211.01625"><defs><linearGradient x1="238.95228" y1="133.73949" x2="238.95228" y2="150.12106" gradientUnits="userSpaceOnUse" id="color-1"><stop offset="0" stop-color="#3de6d5"/><stop offset="1" stop-color="#c4ffe9"/></linearGradient><linearGradient x1="240.17655" y1="153.6721" x2="240.17655" y2="176.69539" gradientUnits="userSpaceOnUse" id="color-2"><stop offset="0" stop-color="#3fe845"/><stop offset="1" stop-color="#00b306"/></linearGradient><linearGradient x1="287.87701" y1="139.92005" x2="287.87701" y2="154.17721" gradientUnits="userSpaceOnUse" id="color-3"><stop offset="0" stop-color="#4f2d0f"/><stop offset="1" stop-color="#4f2d0f" stop-opacity="0"/></linearGradient><linearGradient x1="276.71612" y1="157.00232" x2="288.93717" y2="157.00232" gradientUnits="userSpaceOnUse" id="color-4"><stop offset="0" stop-color="#a85f20"/><stop offset="1" stop-color="#a85f20" stop-opacity="0"/></linearGradient><linearGradient x1="239.52823" y1="176.76715" x2="239.52823" y2="202.87996" gradientUnits="userSpaceOnUse" id="color-5"><stop offset="0" stop-color="#5f5f5f"/><stop offset="1" stop-color="#9a9a9a"/></linearGradient><linearGradient x1="174.88253" y1="173.66454" x2="174.88253" y2="179.24966" gradientUnits="userSpaceOnUse" id="color-6"><stop offset="0" stop-color="#ff3838"/><stop offset="1" stop-color="#dc3030"/></linearGradient><linearGradient x1="175.00121" y1="168.3113" x2="175.00121" y2="173.89638" gradientUnits="userSpaceOnUse" id="color-7"><stop offset="0" stop-color="#ff3838"/><stop offset="1" stop-color="#dc3030"/></linearGradient><linearGradient x1="193.46639" y1="173.63031" x2="193.46639" y2="179.2154" gradientUnits="userSpaceOnUse" id="color-8"><stop offset="0" stop-color="#ff3838"/><stop offset="1" stop-color="#dc3030"/></linearGradient><linearGradient x1="193.58506" y1="168.27705" x2="193.58506" y2="173.86216" gradientUnits="userSpaceOnUse" id="color-9"><stop offset="0" stop-color="#ff3838"/><stop offset="1" stop-color="#dc3030"/></linearGradient><linearGradient x1="212.08763" y1="173.73304" x2="212.08763" y2="179.31816" gradientUnits="userSpaceOnUse" id="color-10"><stop offset="0" stop-color="#f7f7f7"/><stop offset="1" stop-color="#b4b4b4"/></linearGradient><linearGradient x1="212.20631" y1="168.37979" x2="212.20631" y2="173.96488" gradientUnits="userSpaceOnUse" id="color-11"><stop offset="0" stop-color="#f7f7f7"/><stop offset="1" stop-color="#b4b4b4"/></linearGradient><linearGradient x1="230.67148" y1="173.69881" x2="230.67148" y2="179.2839" gradientUnits="userSpaceOnUse" id="color-12"><stop offset="0" stop-color="#f7f7f7"/><stop offset="1" stop-color="#b4b4b4"/></linearGradient><linearGradient x1="230.79016" y1="168.34555" x2="230.79016" y2="173.93065" gradientUnits="userSpaceOnUse" id="color-13"><stop offset="0" stop-color="#f7f7f7"/><stop offset="1" stop-color="#b4b4b4"/></linearGradient><linearGradient x1="249.64154" y1="173.73918" x2="249.64154" y2="179.32428" gradientUnits="userSpaceOnUse" id="color-14"><stop offset="0" stop-color="#ff3838"/><stop offset="1" stop-color="#dc3030"/></linearGradient><linearGradient x1="249.76022" y1="168.3859" x2="249.76022" y2="173.97103" gradientUnits="userSpaceOnUse" id="color-15"><stop offset="0" stop-color="#ff3838"/><stop offset="1" stop-color="#dc3030"/></linearGradient><linearGradient x1="268.22535" y1="173.70492" x2="268.22535" y2="179.29004" gradientUnits="userSpaceOnUse" id="color-16"><stop offset="0" stop-color="#ff3838"/><stop offset="1" stop-color="#dc3030"/></linearGradient><linearGradient x1="268.34407" y1="168.35168" x2="268.34407" y2="173.93676" gradientUnits="userSpaceOnUse" id="color-17"><stop offset="0" stop-color="#ff3838"/><stop offset="1" stop-color="#dc3030"/></linearGradient><linearGradient x1="286.84659" y1="173.80768" x2="286.84659" y2="179.39278" gradientUnits="userSpaceOnUse" id="color-18"><stop offset="0" stop-color="#f7f7f7"/><stop offset="1" stop-color="#b4b4b4"/></linearGradient><linearGradient x1="286.96531" y1="168.4544" x2="286.96531" y2="174.03952" gradientUnits="userSpaceOnUse" id="color-19"><stop offset="0" stop-color="#f7f7f7"/><stop offset="1" stop-color="#b4b4b4"/></linearGradient><linearGradient x1="305.43048" y1="173.77342" x2="305.43048" y2="179.35854" gradientUnits="userSpaceOnUse" id="color-20"><stop offset="0" stop-color="#f7f7f7"/><stop offset="1" stop-color="#b4b4b4"/></linearGradient><linearGradient x1="305.54913" y1="168.42017" x2="305.54913" y2="174.00526" gradientUnits="userSpaceOnUse" id="color-21"><stop offset="0" stop-color="#f7f7f7"/><stop offset="1" stop-color="#b4b4b4"/></linearGradient><linearGradient x1="265.43308" y1="238.81802" x2="280.25361" y2="236.50459" gradientUnits="userSpaceOnUse" id="color-22"><stop offset="0" stop-color="#dedede"/><stop offset="1" stop-color="#f6f5f1"/></linearGradient><linearGradient x1="216.04562" y1="239.44302" x2="201.22509" y2="237.12959" gradientUnits="userSpaceOnUse" id="color-23"><stop offset="0" stop-color="#dedede"/><stop offset="1" stop-color="#f6f5f1"/></linearGradient><linearGradient x1="209.53611" y1="266.6384" x2="243.73488" y2="266.6384" gradientUnits="userSpaceOnUse" id="color-24"><stop offset="0" stop-color="#dedede"/><stop offset="1" stop-color="#f6f5f1"/></linearGradient><linearGradient x1="237.00544" y1="266.63844" x2="271.2042" y2="266.63844" gradientUnits="userSpaceOnUse" id="color-25"><stop offset="0" stop-color="#f6f5f1"/><stop offset="1" stop-color="#dedede"/></linearGradient><linearGradient x1="246.02513" y1="187.73508" x2="259.76784" y2="187.73508" gradientUnits="userSpaceOnUse" id="color-26"><stop offset="0" stop-color="#535353"/><stop offset="1" stop-color="#9e9e9e"/></linearGradient><linearGradient x1="248.6805" y1="266.7159" x2="248.6805" y2="355.69556" gradientUnits="userSpaceOnUse" id="color-27"><stop offset="0" stop-color="#dad9d6"/><stop offset="1" stop-color="#dad9d6" stop-opacity="0"/></linearGradient><linearGradient x1="228.75058" y1="155.92082" x2="250.95154" y2="155.92082" gradientUnits="userSpaceOnUse" id="color-28"><stop offset="0" stop-color="#fffefa"/><stop offset="1" stop-color="#b9b9b9"/></linearGradient><linearGradient x1="220.34173" y1="156.7206" x2="259.58227" y2="156.7206" gradientUnits="userSpaceOnUse" id="color-29"><stop offset="0" stop-color="#525252"/><stop offset="1" stop-color="#212121"/></linearGradient><linearGradient x1="235.09051" y1="140.67635" x2="245.10019" y2="140.67635" gradientUnits="userSpaceOnUse" id="color-30"><stop offset="0" stop-color="#535353"/><stop offset="1" stop-color="#9e9e9e"/></linearGradient><linearGradient x1="220.47414" y1="151.77182" x2="259.26493" y2="151.77182" gradientUnits="userSpaceOnUse" id="color-31"><stop offset="0" stop-color="#a6a9a6"/><stop offset="1" stop-color="#636863"/></linearGradient><linearGradient x1="248.00245" y1="169.78354" x2="256.40802" y2="167.19966" gradientUnits="userSpaceOnUse" id="color-32"><stop offset="0" stop-color="#535353"/><stop offset="1" stop-color="#9e9e9e"/></linearGradient><linearGradient x1="231.89383" y1="169.96582" x2="223.48826" y2="167.38194" gradientUnits="userSpaceOnUse" id="color-33"><stop offset="0" stop-color="#535353"/><stop offset="1" stop-color="#9e9e9e"/></linearGradient></defs><g transform="translate(-84.85831,-31.06569)"><g data-paper-data="{&quot;isPaintingLayer&quot;:true}" fill-rule="nonzero" stroke-linejoin="miter" stroke-miterlimit="10" stroke-dasharray="" stroke-dashoffset="0" style="mix-blend-mode: normal"><path d="M162.37335,150.12106v-16.38157h153.15787v16.38157z" fill="url(#color-1)" stroke="none" stroke-width="0" stroke-linecap="butt"/><path d="M164.74051,159.25349v-10.29069c0,0 25.29906,-1.39535 32.26743,-1.39535c13.13899,0 54.75799,1.01853 84.41171,0.71712c19.76393,-0.20089 33.49526,2.248 33.49526,2.248l-0.34884,8.72093z" fill="#7de380" stroke="none" stroke-width="0" stroke-linecap="butt"/><path d="M162.3673,156.97985c0,0 15.72179,-3.23729 24.62197,-4.43759c10.54145,-1.42164 42.73794,-4.41322 42.73794,-4.41322l4.94285,-0.11159c0,0 -33.01015,6.88433 -43.72738,8.7618c-9.03349,1.58251 -27.9158,5.65119 -27.9158,5.65119z" fill="#636363" stroke="none" stroke-width="0" stroke-linecap="butt"/><path d="M162.64747,176.69539v-16.39535c0,0 22.84586,-7.74921 40.83461,-8.51813c14.60466,-0.62427 52.43445,1.86196 76.98764,2.77106c23.52799,0.87115 36.88704,-0.00875 36.88704,-0.00875l0.34883,22.15116z" fill="url(#color-2)" stroke="none" stroke-width="0" stroke-linecap="butt"/><g stroke="none" stroke-width="0" stroke-linecap="butt"><path d="M316.58315,136.89673c-1.17008,2.79423 -6.25278,5.45659 -6.25278,5.45659c0,0 -2.81143,2.43038 -4.32342,2.91304c-0.92655,0.29577 -2.81754,-0.27421 -2.81754,-0.27421l-2.1176,-1.3779c0,0 -5.28293,-0.46578 -6.89631,-1.10155c-1.89873,-0.74823 -1.00428,-1.73 -1.89552,-2.96066c-0.89799,-1.23998 -4.02012,-3.21152 -4.02012,-3.21152c0,0 1.02106,-1.24242 1.0075,-2.65401c-0.01143,-1.1887 27.51551,-3.28512 27.51551,-3.28512c0,0 0.51868,4.77973 -0.19972,6.49535z" fill="#009405"/><path d="M276.31739,172.81055c0,0 3.40663,-2.14383 4.09344,-2.9461c0.40406,-0.47201 -0.7532,-1.02361 -0.7532,-1.02361c0,0 2.7039,-1.8528 2.94621,-2.70089c0.37535,-1.31368 4.42597,-6.44013 2.62068,-11.66201c-0.60456,-1.74874 -2.29269,-2.41611 -3.47494,-3.96092c-1.82715,-2.38751 -3.30139,-6.62094 -4.90819,-9.11967c-1.32215,-2.05606 -2.9825,-2.51167 -2.85564,-3.47935c0.02991,-0.22813 0.6068,-0.86014 1.84241,-0.07998c1.08502,0.68508 3.97485,4.79191 3.97485,4.79191c0,0 0.8659,-1.17611 0.93549,-2.44251c0.10871,-1.97815 -0.50077,-4.31267 0.02094,-3.77451c0.71314,0.73562 1.64519,0.19316 1.64519,0.19316c0,0 0.58374,2.16721 0.65492,4.45039c0.06483,2.07914 -0.95924,3.40392 -0.77553,4.12645c0.36504,1.43573 3.10179,3.57107 3.10179,3.57107c0,0 0.83844,-4.53059 0.19838,-6.70001c-0.76436,-2.59069 -2.21239,-5.04295 -1.87,-5.24778c0.29555,-0.17681 1.29394,0.24726 2.44518,1.48837c0.35251,0.38002 0.72438,-2.83663 1.09808,-2.41832c0.36734,0.41118 1.67038,-0.14505 1.75226,0.54375c0.11158,0.9388 0.09839,3.03586 0.34315,4.07084c0.43778,1.85124 1.46404,5.59606 1.46404,5.59606c0,0 3.27854,-2.53011 5.77753,-4.1226c1.81364,-1.15574 -2.01466,-5.71514 -2.26132,-6.24238c-0.30123,-0.64387 0.3765,-0.07421 0.71393,-0.24046c1.36646,-0.67331 3.58064,4.5033 3.58064,4.5033l4.2196,-4.38051c0,0 -0.31557,0.85959 0.6877,0.58163c1.37426,-0.38074 -4.01426,4.97407 -2.55607,4.69331c3.86121,-0.74345 7.62011,-4.46147 7.62011,-4.46147c0,0 0.95269,-0.17593 1.23643,-0.03009c0.32533,0.16722 0.60795,0.97806 0.60795,0.97806c0,0 -2.09932,3.07902 -5.35928,5.05487c-2.63389,1.59639 -7.52291,2.83215 -8.84219,5.06299c-3.51919,5.95081 -2.74443,13.9412 -1.95216,16.76367c1.0294,3.66724 4.57937,7.62458 4.57937,7.62458l-1.33628,0.74815l-1.82579,-0.72922l0.83352,2.09343l-1.33043,-1.05905l-0.43688,1.41243c0,0 -1.99809,-1.64354 -2.36347,-1.5745c-1.27966,0.2418 -0.63375,2.32434 -0.63375,2.32434l-4.02926,-1.95133l-2.10886,1.11557l-1.08944,-1.4524l-2.955,0.24052l1.09792,-0.92695z" fill="#633713"/><path d="M289.4491,139.92005l1.30272,6.24038c0,0 7.08295,-5.50547 8.42886,-6.47851c0.27703,-0.20028 3.98247,-2.6003 3.98247,-2.6003c0,0 -2.19005,2.01866 -2.59146,3.72865c-0.25299,1.07774 8.12497,-4.56529 8.12497,-4.56529c0,0 0.8041,0.10621 1.07954,0.288c0.25098,0.16566 0.50656,0.7589 0.50656,0.7589c0,0 -1.58429,2.91015 -3.05834,3.87385c-3.21623,2.10271 -7.63181,3.40411 -10.28303,5.61327c-2.25392,1.87811 -3.1867,7.75318 -3.1867,7.75318c0,0 -5.55681,1.47098 -8.05973,0.54681c-1.33323,-0.49227 -0.4126,-6.02229 -0.4126,-6.02229c0,0 0.81085,-3.23833 0.37642,-5.30228c-0.43443,-2.06395 3.79032,-3.83434 3.79032,-3.83434z" fill="url(#color-3)"/><path d="M286.21459,134.58333c-1.07684,2.57159 -5.75457,5.02181 -5.75457,5.02181c0,0 -2.5874,2.23674 -3.97894,2.68094c-0.85272,0.27221 -2.59304,-0.25236 -2.59304,-0.25236l-1.94887,-1.2681c0,0 -4.86199,-0.42866 -6.34681,-1.01378c-1.74745,-0.68861 -0.92427,-1.59215 -1.74448,-2.72476c-0.82643,-1.14117 -3.6998,-2.95564 -3.6998,-2.95564c0,0 26.72768,-1.06702 26.06651,0.51189z" fill="#00a706"/><path d="M304.78182,134.938c-1.17008,2.79423 -6.25278,5.45659 -6.25278,5.45659c0,0 -2.81143,2.43038 -4.32342,2.91304c-0.92655,0.29577 -2.81754,-0.2742 -2.81754,-0.2742l-2.1176,-1.3779c0,0 -5.28293,-0.46578 -6.89631,-1.10156c-1.89873,-0.74823 -1.00428,-1.72999 -1.89552,-2.96065c-0.89798,-1.23998 -4.02012,-3.21152 -4.02012,-3.21152c0,0 29.04169,-1.15942 28.32329,0.55619z" fill="#00b106"/><path d="M282.38128,166.66296c0,0 -0.01117,-0.50072 0.42981,-1.21606c1.24161,-2.01417 3.6671,-6.35454 2.69043,-10.3181c-0.60294,-2.44687 -3.52084,-3.63077 -4.60569,-5.70691c-1.35222,-2.58782 -3.8153,-7.70527 -3.8153,-7.70527l1.09468,-1.19407l1.6465,2.1122c0,0 0.5935,-0.91779 0.8085,-1.44716c0.21072,-0.51886 0.15486,-1.46265 0.15486,-1.46265l2.16369,0.66451c0,0 0.1798,1.29741 -0.03464,2.34477c-0.15743,0.76893 -0.64948,1.57052 -0.55459,2.37029c0.14864,1.25267 1.38784,2.10515 1.59619,2.43117c0.37934,0.59362 1.53289,1.18534 1.53289,1.18534c0,0 0.35429,-2.57116 0.34097,-3.74852c-0.01557,-1.37702 -0.42871,-4.00883 -0.42871,-4.00883c0,0 1.533,-0.96926 1.9973,-0.82584c0.65729,0.20303 3.03241,9.70603 3.45582,10.63044c1.17063,2.55578 2.80036,15.95984 2.80036,15.95984c0,0 -3.06994,5.37763 -4.29341,5.61804c-0.04752,0.00934 -3.79622,1.92456 -3.79622,1.92456l-1.09939,-1.53707l-2.76745,0.27287l1.08828,-0.99113l-6.07004,0.74494l3.9205,-3.11894l-0.84728,-0.77282z" fill="url(#color-4)"/></g><path d="M163.59071,202.87996v-26.1128h151.87499v26.1128z" fill="url(#color-5)" stroke="none" stroke-width="0" stroke-linecap="butt"/><path d="M165.03743,181.85659v-1.03619h152.56577v1.03619z" fill="#ececec" stroke="none" stroke-width="0" stroke-linecap="butt"/><path d="M84.85831,201.63704v-170.57135h292.71415v170.57135z" fill="none" stroke="none" stroke-width="0" stroke-linecap="butt"/><path d="M166.39592,179.24966c0,0 -0.65571,-1.28579 -0.80108,-2.58875c-0.17802,-1.59561 0.80108,-2.99636 0.80108,-2.99636h16.72619c0,0 1.11857,1.1912 1.06811,2.83331c-0.04929,1.60394 -1.06811,2.75179 -1.06811,2.75179c0,0 -5.87465,0.40761 -8.71913,0.40761c-2.72586,0 -8.00706,-0.40761 -8.00706,-0.40761z" fill="url(#color-6)" stroke="none" stroke-width="0" stroke-linecap="butt"/><path d="M166.5146,173.89638c0,0 -0.65571,-1.28579 -0.80108,-2.58875c-0.17802,-1.59561 0.80108,-2.99635 0.80108,-2.99635c0,0 5.80014,0.32608 8.63105,0.32608c2.74162,0 8.09513,-0.32608 8.09513,-0.32608c0,0 1.11857,1.1912 1.06811,2.83331c-0.04929,1.60394 -1.06811,2.7518 -1.06811,2.7518c0,0 -5.50495,0.32608 -8.39276,0.32608c-2.67057,0 -8.33342,-0.32608 -8.33342,-0.32608z" fill="url(#color-7)" stroke="none" stroke-width="0" stroke-linecap="butt"/><path d="M183.33451,168.37818c0,0.45023 -3.78583,0.57065 -8.45589,0.57065c-4.67006,0 -8.45589,-0.12042 -8.45589,-0.57065c0,-0.45023 3.78583,-0.81521 8.45589,-0.81521c4.67006,0 8.45589,0.36498 8.45589,0.81521z" fill="#ff5151" stroke="none" stroke-width="0" stroke-linecap="butt"/><path d="M184.97977,179.2154c0,0 -0.65571,-1.28579 -0.80108,-2.58875c-0.17802,-1.59561 0.80108,-2.99636 0.80108,-2.99636h16.72619c0,0 1.11857,1.1912 1.06811,2.83331c-0.04929,1.60394 -1.06811,2.75179 -1.06811,2.75179c0,0 -5.87465,0.40761 -8.71913,0.40761c-2.72586,0 -8.00706,-0.40761 -8.00706,-0.40761z" fill="url(#color-8)" stroke="none" stroke-width="0" stroke-linecap="butt"/><path d="M185.09845,173.86216c0,0 -0.65571,-1.28579 -0.80108,-2.58875c-0.17802,-1.59561 0.80108,-2.99635 0.80108,-2.99635c0,0 5.80014,0.32608 8.63105,0.32608c2.74162,0 8.09513,-0.32608 8.09513,-0.32608c0,0 1.11857,1.1912 1.06811,2.83331c-0.04929,1.60394 -1.06811,2.7518 -1.06811,2.7518c0,0 -5.50495,0.32608 -8.39276,0.32608c-2.67057,0 -8.33342,-0.32608 -8.33342,-0.32608z" fill="url(#color-9)" stroke="none" stroke-width="0" stroke-linecap="butt"/><path d="M201.91837,168.34395c0,0.45023 -3.78583,0.57065 -8.45589,0.57065c-4.67006,0 -8.45589,-0.12042 -8.45589,-0.57065c0,-0.45023 3.78583,-0.81521 8.45589,-0.81521c4.67006,0 8.45589,0.36498 8.45589,0.81521z" fill="#ff5151" stroke="none" stroke-width="0" stroke-linecap="butt"/><path d="M203.60101,179.31816c0,0 -0.65571,-1.28579 -0.80108,-2.58875c-0.17802,-1.59561 0.80108,-2.99635 0.80108,-2.99635h16.72619c0,0 1.11857,1.1912 1.06811,2.83331c-0.04929,1.60394 -1.06811,2.75179 -1.06811,2.75179c0,0 -5.87465,0.40761 -8.71913,0.40761c-2.72586,0 -8.00706,-0.40761 -8.00706,-0.40761z" fill="url(#color-10)" stroke="none" stroke-width="0" stroke-linecap="butt"/><path d="M203.7197,173.96488c0,0 -0.65571,-1.28579 -0.80108,-2.58875c-0.17802,-1.59561 0.80108,-2.99635 0.80108,-2.99635c0,0 5.80014,0.32609 8.63105,0.32609c2.74162,0 8.09513,-0.32609 8.09513,-0.32609c0,0 1.11857,1.1912 1.06811,2.83331c-0.04929,1.60394 -1.06811,2.75179 -1.06811,2.75179c0,0 -5.50495,0.32609 -8.39276,0.32609c-2.67057,0 -8.33342,-0.32609 -8.33342,-0.32609z" fill="url(#color-11)" stroke="none" stroke-width="0" stroke-linecap="butt"/><path d="M220.53961,168.44668c0,0.45023 -3.78583,0.57065 -8.45589,0.57065c-4.67006,0 -8.45589,-0.12042 -8.45589,-0.57065c0,-0.45023 3.78583,-0.81522 8.45589,-0.81522c4.67006,0 8.45589,0.36499 8.45589,0.81522z" fill="#ffffff" stroke="none" stroke-width="0" stroke-linecap="butt"/><path d="M222.18486,179.2839c0,0 -0.65571,-1.28579 -0.80108,-2.58875c-0.17802,-1.59561 0.80108,-2.99635 0.80108,-2.99635h16.72619c0,0 1.11857,1.1912 1.06811,2.83331c-0.04929,1.60394 -1.06811,2.75179 -1.06811,2.75179c0,0 -5.87465,0.40761 -8.71913,0.40761c-2.72586,0 -8.00706,-0.40761 -8.00706,-0.40761z" fill="url(#color-12)" stroke="none" stroke-width="0" stroke-linecap="butt"/><path d="M222.30355,173.93065c0,0 -0.65571,-1.28579 -0.80108,-2.58875c-0.17802,-1.59561 0.80108,-2.99635 0.80108,-2.99635c0,0 5.80014,0.32609 8.63105,0.32609c2.74162,0 8.09513,-0.32609 8.09513,-0.32609c0,0 1.11857,1.1912 1.06811,2.83331c-0.04929,1.60394 -1.06811,2.75179 -1.06811,2.75179c0,0 -5.50495,0.32609 -8.39276,0.32609c-2.67057,0 -8.33342,-0.32609 -8.33342,-0.32609z" fill="url(#color-13)" stroke="none" stroke-width="0" stroke-linecap="butt"/><path d="M239.12346,168.41244c0,0.45023 -3.78583,0.57065 -8.45589,0.57065c-4.67006,0 -8.45589,-0.12042 -8.45589,-0.57065c0,-0.45023 3.78583,-0.81522 8.45589,-0.81522c4.67006,0 8.45589,0.36499 8.45589,0.81522z" fill="#ffffff" stroke="none" stroke-width="0" stroke-linecap="butt"/><path d="M241.15492,179.32428c0,0 -0.65571,-1.28579 -0.80108,-2.58875c-0.17802,-1.59561 0.80108,-2.99636 0.80108,-2.99636h16.72619c0,0 1.11857,1.1912 1.06811,2.83331c-0.04929,1.60394 -1.06811,2.75179 -1.06811,2.75179c0,0 -5.87465,0.40761 -8.71913,0.40761c-2.72586,0 -8.00706,-0.40761 -8.00706,-0.40761z" fill="url(#color-14)" stroke="none" stroke-width="0" stroke-linecap="butt"/><path d="M241.2736,173.97103c0,0 -0.65571,-1.28579 -0.80108,-2.58875c-0.17802,-1.59561 0.80108,-2.99635 0.80108,-2.99635c0,0 5.80014,0.32608 8.63105,0.32608c2.74162,0 8.09513,-0.32608 8.09513,-0.32608c0,0 1.11857,1.1912 1.06811,2.83331c-0.04929,1.60394 -1.06811,2.7518 -1.06811,2.7518c0,0 -5.50495,0.32608 -8.39276,0.32608c-2.67057,0 -8.33342,-0.32608 -8.33342,-0.32608z" fill="url(#color-15)" stroke="none" stroke-width="0" stroke-linecap="butt"/><path d="M258.09352,168.45282c0,0.45023 -3.78583,0.57065 -8.45589,0.57065c-4.67006,0 -8.45589,-0.12042 -8.45589,-0.57065c0,-0.45023 3.78583,-0.81521 8.45589,-0.81521c4.67006,0 8.45589,0.36498 8.45589,0.81521z" fill="#ff5151" stroke="none" stroke-width="0" stroke-linecap="butt"/><path d="M259.73877,179.29004c0,0 -0.65571,-1.28579 -0.80108,-2.58875c-0.17802,-1.59561 0.80108,-2.99636 0.80108,-2.99636h16.72619c0,0 1.11857,1.1912 1.06811,2.83331c-0.04929,1.60394 -1.06811,2.75179 -1.06811,2.75179c0,0 -5.87465,0.40761 -8.71913,0.40761c-2.72586,0 -8.00706,-0.40761 -8.00706,-0.40761z" fill="url(#color-16)" stroke="none" stroke-width="0" stroke-linecap="butt"/><path d="M259.85742,173.93676c0,0 -0.65571,-1.28579 -0.80108,-2.58875c-0.17802,-1.59561 0.80108,-2.99635 0.80108,-2.99635c0,0 5.80014,0.32608 8.63105,0.32608c2.74162,0 8.09513,-0.32608 8.09513,-0.32608c0,0 1.11857,1.1912 1.06811,2.83331c-0.04929,1.60394 -1.06811,2.7518 -1.06811,2.7518c0,0 -5.50495,0.32608 -8.39276,0.32608c-2.67057,0 -8.33342,-0.32608 -8.33342,-0.32608z" fill="url(#color-17)" stroke="none" stroke-width="0" stroke-linecap="butt"/><path d="M276.67735,168.41857c0,0.45023 -3.78583,0.57065 -8.45589,0.57065c-4.67006,0 -8.45589,-0.12042 -8.45589,-0.57065c0,-0.45023 3.78583,-0.81521 8.45589,-0.81521c4.67006,0 8.45589,0.36498 8.45589,0.81521z" fill="#ff5151" stroke="none" stroke-width="0" stroke-linecap="butt"/><path d="M278.36001,179.39278c0,0 -0.65571,-1.28579 -0.80108,-2.58875c-0.17802,-1.59561 0.80108,-2.99635 0.80108,-2.99635h16.72619c0,0 1.11857,1.1912 1.06811,2.83331c-0.04929,1.60394 -1.06811,2.75179 -1.06811,2.75179c0,0 -5.87465,0.40761 -8.71913,0.40761c-2.72586,0 -8.00706,-0.40761 -8.00706,-0.40761z" fill="url(#color-18)" stroke="none" stroke-width="0" stroke-linecap="butt"/><path d="M278.47866,174.03952c0,0 -0.65571,-1.28579 -0.80108,-2.58875c-0.17802,-1.59561 0.80108,-2.99635 0.80108,-2.99635c0,0 5.80014,0.32609 8.63105,0.32609c2.74162,0 8.09513,-0.32609 8.09513,-0.32609c0,0 1.11857,1.1912 1.06811,2.83331c-0.04929,1.60394 -1.06811,2.75179 -1.06811,2.75179c0,0 -5.50495,0.32609 -8.39276,0.32609c-2.67057,0 -8.33342,-0.32609 -8.33342,-0.32609z" fill="url(#color-19)" stroke="none" stroke-width="0" stroke-linecap="butt"/><path d="M295.29859,168.52129c0,0.45023 -3.78583,0.57065 -8.45589,0.57065c-4.67006,0 -8.45589,-0.12042 -8.45589,-0.57065c0,-0.45023 3.78583,-0.81522 8.45589,-0.81522c4.67006,0 8.45589,0.36499 8.45589,0.81522z" fill="#ffffff" stroke="none" stroke-width="0" stroke-linecap="butt"/><path d="M296.94383,179.35854c0,0 -0.65571,-1.28579 -0.80108,-2.58875c-0.17802,-1.59561 0.80108,-2.99635 0.80108,-2.99635h16.72619c0,0 1.11857,1.1912 1.06811,2.83331c-0.04929,1.60394 -1.06811,2.75179 -1.06811,2.75179c0,0 -5.87465,0.40761 -8.71913,0.40761c-2.72586,0 -8.00706,-0.40761 -8.00706,-0.40761z" fill="url(#color-20)" stroke="none" stroke-width="0" stroke-linecap="butt"/><path d="M297.06255,174.00526c0,0 -0.65571,-1.28579 -0.80108,-2.58875c-0.17802,-1.59561 0.80108,-2.99635 0.80108,-2.99635c0,0 5.80014,0.32609 8.63105,0.32609c2.74162,0 8.09513,-0.32609 8.09513,-0.32609c0,0 1.11857,1.1912 1.06811,2.83331c-0.04929,1.60394 -1.06811,2.75179 -1.06811,2.75179c0,0 -5.50495,0.32609 -8.39276,0.32609c-2.67057,0 -8.33342,-0.32609 -8.33342,-0.32609z" fill="url(#color-21)" stroke="none" stroke-width="0" stroke-linecap="butt"/><path d="M313.88247,168.48707c0,0.45023 -3.78583,0.57065 -8.45589,0.57065c-4.67006,0 -8.45589,-0.12042 -8.45589,-0.57065c0,-0.45023 3.78583,-0.81522 8.45589,-0.81522c4.67006,0 8.45589,0.36499 8.45589,0.81522z" fill="#ffffff" stroke="none" stroke-width="0" stroke-linecap="butt"/><path d="M260.01899,205.48995c2.85295,-10.37292 10.68074,-20.63959 10.68074,-20.63959c0,0 4.92448,22.7258 5.87026,29.90305c0.51381,3.89918 -17.50667,-5.78877 -16.551,-9.26346z" data-paper-data="{&quot;index&quot;:null}" fill="url(#color-22)" stroke="none" stroke-width="0" stroke-linecap="butt"/><path d="M204.90871,215.37843c0.94578,-7.17725 5.87026,-29.90305 5.87026,-29.90305c0,0 7.82779,10.26667 10.68074,20.63959c0.95567,3.47469 -17.06481,13.16264 -16.551,9.26346z" data-paper-data="{&quot;index&quot;:null}" fill="url(#color-23)" stroke="none" stroke-width="0" stroke-linecap="butt"/><path d="M218.92774,206.87926c0,0 -2.80435,-6.75453 -4.46267,-10.11787c-1.98168,-4.01919 -4.3734,-11.45225 -4.3734,-11.45225l18.66319,-9.09144c0,0 4.53127,4.51496 6.99452,6.14805c1.84483,1.2231 6.47355,2.78107 6.47355,2.78107c0,0 4.52221,33.98802 2.33423,37.75253c-4.13471,7.11393 -25.27529,1.71846 -25.27529,1.71846z" fill="url(#color-24)" stroke="none" stroke-width="0" stroke-linecap="butt"/><path d="M236.5377,225.07589c-3.83407,-6.65578 1.38759,-41.31064 1.38759,-41.31064c0,0 5.71424,0.41571 7.55908,-0.80738c2.46325,-1.63309 6.50109,-6.74016 6.50109,-6.74016l19.21875,8.90625c0,0 -2.94727,7.61825 -4.92895,11.63745c-1.65832,3.36335 -4.46267,10.11787 -4.46267,10.11787c0,0 -21.27186,25.14571 -25.27489,18.19662z" data-paper-data="{&quot;index&quot;:null}" fill="url(#color-25)" stroke="none" stroke-width="0" stroke-linecap="butt"/><path d="M238.20214,180.05107c0,0 -3.06426,-1.01327 -4.17332,-1.99909c-1.39192,-1.23726 -3.52405,-4.84301 -3.52405,-4.84301l0.52632,-0.92105c0,0 1.83906,3.64172 3.25946,4.81082c1.43041,1.17733 4.70107,2.29444 4.70107,2.29444z" fill="#24292b" stroke="none" stroke-width="0" stroke-linecap="butt"/><path d="M214.14683,194.78442c0,0 -1.60032,-2.65733 -2.25637,-4.13344c-0.72138,-1.62312 -1.89457,-5.20619 -1.89457,-5.20619c0,0 2.24922,-1.76235 3.53467,-2.44289c1.38069,-0.73095 4.48419,-1.80239 4.48419,-1.80239l-0.09434,10c0,0 -1.20716,1.51943 -1.84452,2.12493c-0.62001,0.58902 -1.92907,1.45997 -1.92907,1.45997z" fill="#121830" stroke="none" stroke-width="0" stroke-linecap="butt"/><path d="M234.84688,181.7616c0,0 -2.48045,-1.18393 -3.42261,-2.10366c-0.89781,-0.87643 -2.1037,-3.29108 -2.1037,-3.29108l1.18421,-3.09211c0,0 1.67127,2.74786 2.67999,3.76792c0.93786,0.9484 4.35948,2.61366 4.35948,2.61366z" fill="#efefef" stroke="none" stroke-width="0" stroke-linecap="butt"/><path d="M264.95362,192.19238c-0.63736,-0.6055 -1.84452,-2.12493 -1.84452,-2.12493l-0.09434,-10c0,0 3.1035,1.07144 4.48419,1.80239c1.28546,0.68054 3.53467,2.44289 3.53467,2.44289c0,0 -1.17318,3.58307 -1.89457,5.20619c-0.65605,1.47611 -2.25637,4.13344 -2.25637,4.13344c0,0 -1.30905,-0.87095 -1.92906,-1.45997z" data-paper-data="{&quot;index&quot;:null}" fill="#121830" stroke="none" stroke-width="0" stroke-linecap="butt"/><path d="M232.96405,182.92045l-0.01726,-3.68852c0,0 9.48727,0.19428 12.23537,-0.82102c2.79747,-1.03355 4.07503,-5.26073 4.07503,-5.26073l1.36001,3.00044c0,0 0.57754,4.41333 -5.19183,6.58225c-4.8389,1.81912 -12.46132,0.1876 -12.46132,0.1876z" fill="#333b3d" stroke="none" stroke-width="0" stroke-linecap="butt"/><path d="M232.56931,183.51256l0.31169,-3.75431c0,0 9.61885,0.26008 12.36694,-0.75523c2.79747,-1.03355 4.20661,-5.32652 4.20661,-5.32652l1.55738,2.86885c0,0 0.24859,4.61069 -5.52078,6.77961c-4.8389,1.81912 -12.92184,0.1876 -12.92184,0.1876z" fill="#efefef" stroke="none" stroke-width="0" stroke-linecap="butt"/><path d="M246.02513,189.86384l1.11136,-4.26696l12.63135,0.00944l-1.11136,4.26696z" fill="url(#color-26)" stroke="#ffffff" stroke-width="0" stroke-linecap="butt"/><text transform="translate(246.45182,189.12031) rotate(0.26859) scale(0.08426,0.09692) skewX(-17.56713)" font-size="40" xml:space="preserve" fill="#112843" fill-rule="nonzero" stroke="#112843" stroke-width="3" stroke-linecap="butt" stroke-linejoin="miter" stroke-miterlimit="10" stroke-dasharray="" stroke-dashoffset="0" font-family="Sans Serif" font-weight="normal" text-anchor="start" style="mix-blend-mode: normal"><tspan x="0" dy="0"> NITRO</tspan></text><text transform="translate(245.62376,193.05526) rotate(0.82767) scale(0.07996,0.09197) skewX(-17.56409)" font-size="40" xml:space="preserve" fill="#112843" fill-rule="nonzero" stroke="#112843" stroke-width="3" stroke-linecap="butt" stroke-linejoin="miter" stroke-miterlimit="10" stroke-dasharray="" stroke-dashoffset="0" font-family="Sans Serif" font-weight="normal" text-anchor="start" style="mix-blend-mode: normal"><tspan x="0" dy="0">RACING</tspan></text><text transform="translate(225.63798,189.96332) rotate(-2.54535) scale(0.05866,0.06748) skewX(-17.567)" font-size="40" xml:space="preserve" fill="#112843" fill-rule="nonzero" stroke="#112843" stroke-width="3" stroke-linecap="butt" stroke-linejoin="miter" stroke-miterlimit="10" stroke-dasharray="" stroke-dashoffset="0" font-family="Sans Serif" font-weight="normal" text-anchor="start" style="mix-blend-mode: normal"><tspan x="0" dy="0">SCRATCH</tspan><tspan x="0" dy="48px">  SPEED </tspan></text><path d="M259.2833,204.36682l-2.04882,-1.51483c0,0 0.47443,-1.78138 2.0326,-1.75001c1.77049,0.03565 3.31614,4.58786 3.31614,4.58786z" fill-opacity="0.05098" fill="#000000" stroke="none" stroke-width="0" stroke-linecap="butt"/><path d="M217.88821,201.97808c-0.07434,-0.56977 1.7935,-4.31715 3.64908,-5.82717c2.10845,-1.7158 4.1136,-1.13011 4.03173,-0.42934c-0.07414,0.63461 -3.3276,1.84144 -4.59661,2.79999c-1.10659,0.83586 -3.05154,3.70687 -3.08421,3.45652z" fill-opacity="0.08235" fill="#000000" stroke="none" stroke-width="0" stroke-linecap="butt"/><path d="M261.07774,242.08194z" fill="#cbcac6" stroke="none" stroke-width="0" stroke-linecap="butt"/><path d="" fill="url(#color-27)" stroke="none" stroke-width="0" stroke-linecap="butt"/><path d="M239.10398,197.665c0.04184,-7.28907 0.27214,-13.05917 0.27214,-13.05917h1.4902c0,0 -0.69247,5.99366 -0.73474,13.50116c-0.04635,8.23298 -1.07505,7.82456 -1.0276,-0.44199z" fill="#b5b4af" stroke="none" stroke-width="0" stroke-linecap="butt"/><g><path d="M223.05318,176.0601c0,0 -0.03227,-0.77157 0.03643,-1.20338c0.09196,-0.57801 0.46617,-1.95582 0.46617,-1.95582c0,0 10.92476,5.27676 16.09405,5.13529c6.05758,-0.16578 17.93916,-5.92509 17.93916,-5.92509c0,0 0.04379,1.84051 -0.1548,2.50247c-0.13715,0.45716 -0.92221,1.23114 -0.92221,1.23114c0,0 -8.44979,4.91317 -16.72706,5.20627c-7.87124,0.06548 -16.73175,-4.99087 -16.73175,-4.99087z" fill="#130e0b" stroke="none" stroke-width="0" stroke-linecap="butt"/><path d="M220.0166,159.81872l0.07329,-2.55903l2.91914,0.02072l-0.07328,2.55902z" fill="#302e31" stroke="none" stroke-width="0" stroke-linecap="butt"/><path d="M257.17524,159.374l-0.07328,-2.55902l2.91914,-0.02072l0.07329,2.55902z" data-paper-data="{&quot;index&quot;:null}" fill="#302e31" stroke="none" stroke-width="0" stroke-linecap="butt"/><path d="M257.49088,154.5489l-1.50737,-4.91479l2.79111,-0.85603l1.50737,4.91479z" data-paper-data="{&quot;index&quot;:null}" fill="#302e31" stroke="none" stroke-width="0" stroke-linecap="butt"/><path d="M219.82899,154.15828l1.50737,-4.91479l2.79112,0.85604l-1.50737,4.91479z" fill="#302e31" stroke="none" stroke-width="0" stroke-linecap="butt"/><path d="M223.6872,173.00972c0,0 -2.72495,-8.12326 -2.92864,-11.74183c-0.31294,-5.55937 1.07856,-12.11446 1.07856,-12.11446c0,0 5.08122,-13.94382 18.11131,-13.92429c12.83229,0.01924 17.91656,13.34005 17.91656,13.34005c0,0 1.70818,6.79685 1.34895,12.10643c-0.25368,3.74944 -1.73844,11.36038 -1.73844,11.36038c0,0 -8.72708,6.99657 -16.84114,7.35546c-9.59908,0.42458 -16.94716,-6.38174 -16.94716,-6.38174z" fill="url(#color-28)" stroke="none" stroke-width="0" stroke-linecap="butt"/><path d="M221.78267,162.39496c0,0 -1.4617,-4.10097 -1.44071,-5.99023c0.02724,-2.45183 1.59036,-7.47795 1.59036,-7.47795c0,0 -0.63001,2.1566 1.42009,2.14386c2.3571,-0.01464 9.24441,-2.87506 17.28569,-2.8929c6.58595,-0.01461 12.34289,2.24128 15.97765,1.95567c1.83686,-0.14433 1.45617,-1.43109 1.45617,-1.43109c0,0 1.65076,5.40595 1.50072,7.87488c-0.11469,1.88723 -2.32377,5.66812 -2.32377,5.66812c0,0 -8.59647,2.718 -17.20807,2.99323c-10.53929,0.33685 -18.25813,-2.84359 -18.25813,-2.84359z" fill="url(#color-29)" stroke="none" stroke-width="0" stroke-linecap="butt"/><path d="M235.09051,142.22686l0.80947,-3.10789l9.20021,0.00687l-0.80947,3.1079z" fill="url(#color-30)" stroke="#ffffff" stroke-width="0" stroke-linecap="butt"/><text transform="translate(235.4013,141.68531) rotate(0.27075) scale(0.06137,0.0706) skewX(-17.56495)" font-size="40" xml:space="preserve" fill="#112843" fill-rule="nonzero" stroke="#112843" stroke-width="3" stroke-linecap="butt" stroke-linejoin="miter" stroke-miterlimit="10" stroke-dasharray="" stroke-dashoffset="0" font-family="Sans Serif" font-weight="normal" text-anchor="start" style="mix-blend-mode: normal"><tspan x="0" dy="0"> NITRO</tspan></text><text transform="translate(234.79817,144.55136) rotate(0.83131) scale(0.05824,0.06699) skewX(-17.55962)" font-size="40" xml:space="preserve" fill="#112843" fill-rule="nonzero" stroke="#112843" stroke-width="3" stroke-linecap="butt" stroke-linejoin="miter" stroke-miterlimit="10" stroke-dasharray="" stroke-dashoffset="0" font-family="Sans Serif" font-weight="normal" text-anchor="start" style="mix-blend-mode: normal"><tspan x="0" dy="0">RACING</tspan></text><path d="M220.47414,154.6864l1.02769,-3.93949c0,0 0.74896,1.22915 1.5397,1.25507c0.79905,0.0262 9.35963,-2.98374 17.38195,-3.13982c6.4459,-0.12541 11.75188,2.19538 15.59053,2.02963c2.06742,-0.08927 2.31345,-0.91564 2.31345,-0.91564l0.93746,4.23103c0,0 -12.29478,-1.81045 -18.7527,-1.73067c-6.47232,0.07996 -20.03808,2.20989 -20.03808,2.20989z" fill="url(#color-31)" stroke="none" stroke-width="NaN" stroke-linecap="butt"/><path d="M248.40269,171.08557l-0.12252,-2.8188l7.72761,-2.36915l0.12251,2.8188z" fill="url(#color-32)" stroke="#ffffff" stroke-width="0" stroke-linecap="butt"/><text transform="translate(248.52388,170.5506) rotate(-16.8168) scale(0.05392,0.06202) skewX(-17.56903)" font-size="40" xml:space="preserve" fill="#112843" fill-rule="nonzero" stroke="#112843" stroke-width="3" stroke-linecap="butt" stroke-linejoin="miter" stroke-miterlimit="10" stroke-dasharray="" stroke-dashoffset="0" font-family="Sans Serif" font-weight="normal" text-anchor="start" style="mix-blend-mode: normal"><tspan x="0" dy="0"> NITRO</tspan></text><path d="M223.76599,168.89869l0.12251,-2.8188l7.72761,2.36915l-0.12252,2.81879z" data-paper-data="{&quot;index&quot;:null}" fill="url(#color-33)" stroke="#ffffff" stroke-width="0" stroke-linecap="butt"/><text transform="translate(231.3724,170.73286) rotate(-163.1832) scale(0.05392,-0.06202) skewX(-17.56903)" font-size="40" xml:space="preserve" data-paper-data="{&quot;index&quot;:null}" fill="#112843" fill-rule="nonzero" stroke="#112843" stroke-width="3" stroke-linecap="butt" stroke-linejoin="miter" stroke-miterlimit="10" stroke-dasharray="" stroke-dashoffset="0" font-family="Sans Serif" font-weight="normal" text-anchor="start" style="mix-blend-mode: normal"><tspan x="0" dy="0"> NITRO</tspan></text><path d="M232.18802,166.8317c0,0 -3.94011,-0.59787 -5.79864,-1.09348c-1.67686,-0.44716 -4.94264,-1.51286 -4.94264,-1.51286" fill="none" stroke="#b9bdb9" stroke-width="0.5" stroke-linecap="round"/><path d="M258.73171,164.35342c0,0 -3.26578,1.06569 -4.94264,1.51286c-1.85853,0.49561 -5.79864,1.09349 -5.79864,1.09349" data-paper-data="{&quot;index&quot;:null}" fill="none" stroke="#b9bdb9" stroke-width="0.5" stroke-linecap="round"/></g><path d="M159.08623,231.61366v-31.02144h161.81111v31.02144z" fill="#efefef" stroke="none" stroke-width="0" stroke-linecap="butt"/><text transform="translate(205.68724,220.69025) scale(0.40172,0.40172)" font-size="40" xml:space="preserve" fill="#4d4d4d" fill-rule="nonzero" stroke="#4d4d4d" stroke-width="3" stroke-linecap="butt" stroke-linejoin="miter" stroke-miterlimit="10" stroke-dasharray="" stroke-dashoffset="0" font-family="Sans Serif" font-weight="normal" text-anchor="start" style="mix-blend-mode: normal"><tspan x="0" dy="0">故事模式</tspan></text><g stroke="none" stroke-width="0" stroke-linecap="butt"><path d="M161.89779,175.27356l1.44166,-30.45352l13.14833,-14.93193c0,0 33.46275,-1.86498 27.44972,3.99534c-2.63494,2.56803 -4.54879,6.58325 -7.72259,9.18205c-2.51912,2.06274 -8.4293,5.07385 -13.28718,9.20284c-4.50691,3.83068 -8.00738,8.79974 -9.55352,10.492c-6.30704,6.90311 -11.47642,12.51322 -11.47642,12.51322z" fill="#1c1c1c"/><path d="M168.0181,167.95033l-8.56724,-9.30039l9.16614,-8.44358l8.38652,8.5775c0,0 -1.98466,2.39338 -3.32454,3.76025c-1.60658,1.63895 -5.66088,5.40622 -5.66088,5.40622z" fill="#ffffff"/><path d="M168.62119,150.10413l-8.56726,-9.30039l9.16614,-8.44358l8.56724,9.30041z" fill="#ffffff"/><path d="M186.20809,149.74036l-8.38654,-8.03533l9.16614,-8.44358l9.29014,9.84258c0,0 -3.98976,2.74024 -5.84862,3.96529c-1.19827,0.78971 -4.22112,2.67105 -4.22112,2.67105z" fill="#ffffff"/></g><path d="M159.11388,201.18652v-66.2h7v66.2z" fill="#efefef" stroke="none" stroke-width="0" stroke-linecap="butt"/><g stroke="none" stroke-width="0" stroke-linecap="butt"><path d="M306.52039,162.88081c-1.54614,-1.69226 -5.04662,-6.66132 -9.55352,-10.492c-4.85787,-4.12898 -10.76805,-7.1401 -13.28717,-9.20284c-3.1738,-2.5988 -5.08765,-6.61402 -7.72259,-9.18205c-6.01303,-5.86032 27.44973,-3.99534 27.44973,-3.99534l13.14833,14.93193l1.44166,30.45352c0,0 -5.16939,-5.61011 -11.47643,-12.51322z" fill="#1c1c1c"/><path d="M306.21562,162.66458c-1.33988,-1.36687 -3.32454,-3.76026 -3.32454,-3.76026l8.38652,-8.57751l9.16615,8.44359l-8.56725,9.30039c0,0 -4.0543,-3.76726 -5.66089,-5.40622z" fill="#ffffff"/><path d="M302.1073,141.78105l8.56724,-9.30041l9.16615,8.44358l-8.56726,9.3004z" fill="#ffffff"/><path d="M289.46539,147.18979c-1.85885,-1.22505 -5.84862,-3.96528 -5.84862,-3.96528l9.29014,-9.84258l9.16614,8.44358l-8.38654,8.03534c0,0 -3.02285,-1.88135 -4.22112,-2.67105z" fill="#ffffff"/></g><path d="M313.91382,201.3865v-66.2h7v66.2z" fill="#efefef" stroke="none" stroke-width="0" stroke-linecap="butt"/><path d="M320.91382,135.38646h-161.8v-7h161.8z" fill="#efefef" stroke="none" stroke-width="0" stroke-linecap="butt"/></g></g></svg>