<svg version="1.1" xmlns="http://www.w3.org/2000/svg" xmlns:xlink="http://www.w3.org/1999/xlink" width="499.19714" height="388.50319" viewBox="0,0,499.19714,388.50319"><defs><linearGradient x1="245.39238" y1="-4.62849" x2="237.09025" y2="190.19473" gradientUnits="userSpaceOnUse" id="color-1"><stop offset="0" stop-color="#32a8e6"/><stop offset="1" stop-color="#31ffdb"/></linearGradient><linearGradient x1="241.07853" y1="82.36655" x2="235.78301" y2="194.50035" gradientUnits="userSpaceOnUse" id="color-2"><stop offset="0" stop-color="#6bffff" stop-opacity="0"/><stop offset="1" stop-color="#6bffff" stop-opacity="0.53333"/></linearGradient><radialGradient cx="16.14505" cy="-137.33193" r="450.9332" gradientUnits="userSpaceOnUse" id="color-3"><stop offset="0" stop-color="#fff38b"/><stop offset="1" stop-color="#fff38b" stop-opacity="0"/></radialGradient><linearGradient x1="76.93909" y1="122.70902" x2="75.58983" y2="140.54073" gradientUnits="userSpaceOnUse" id="color-4"><stop offset="0" stop-color="#4f2d0f"/><stop offset="1" stop-color="#4f2d0f" stop-opacity="0"/></linearGradient><radialGradient cx="81.25628" cy="104.04278" r="37.95282" gradientUnits="userSpaceOnUse" id="color-5"><stop offset="0" stop-color="#00b106"/><stop offset="1" stop-color="#00b106" stop-opacity="0"/></radialGradient><linearGradient x1="61.36333" y1="143.01791" x2="76.64844" y2="144.17449" gradientUnits="userSpaceOnUse" id="color-6"><stop offset="0" stop-color="#a85f20"/><stop offset="1" stop-color="#a85f20" stop-opacity="0"/></linearGradient><linearGradient x1="32.25376" y1="110.4854" x2="29.7374" y2="136.10923" gradientUnits="userSpaceOnUse" id="color-7"><stop offset="0" stop-color="#4f2d0f"/><stop offset="1" stop-color="#4f2d0f" stop-opacity="0"/></linearGradient><radialGradient cx="39.06906" cy="83.75589" r="54.64361" gradientUnits="userSpaceOnUse" id="color-8"><stop offset="0" stop-color="#00b106"/><stop offset="1" stop-color="#00b106" stop-opacity="0"/></radialGradient><linearGradient x1="9.17968" y1="139.21678" x2="31.14412" y2="141.37381" gradientUnits="userSpaceOnUse" id="color-9"><stop offset="0" stop-color="#a85f20"/><stop offset="1" stop-color="#a85f20" stop-opacity="0"/></linearGradient><linearGradient x1="156.34116" y1="113.1368" x2="155.11693" y2="142.97304" gradientUnits="userSpaceOnUse" id="color-10"><stop offset="0" stop-color="#4f2d0f"/><stop offset="1" stop-color="#4f2d0f" stop-opacity="0"/></linearGradient><radialGradient cx="162.47036" cy="81.73685" r="63.37539" gradientUnits="userSpaceOnUse" id="color-11"><stop offset="0" stop-color="#00b106"/><stop offset="1" stop-color="#00b106" stop-opacity="0"/></radialGradient><linearGradient x1="131.51764" y1="147.92683" x2="157.09293" y2="148.97625" gradientUnits="userSpaceOnUse" id="color-12"><stop offset="0" stop-color="#a85f20"/><stop offset="1" stop-color="#a85f20" stop-opacity="0"/></linearGradient><linearGradient x1="17.1933" y1="165.54755" x2="33.55416" y2="168.64541" gradientUnits="userSpaceOnUse" id="color-13"><stop offset="0" stop-color="#a59c93"/><stop offset="1" stop-color="#847d75"/></linearGradient><linearGradient x1="355.64657" y1="241.08961" x2="373.77783" y2="244.52266" gradientUnits="userSpaceOnUse" id="color-14"><stop offset="0" stop-color="#c1b7ac"/><stop offset="1" stop-color="#8b847c"/></linearGradient><linearGradient x1="461.8004" y1="265.32034" x2="479.93166" y2="268.75338" gradientUnits="userSpaceOnUse" id="color-15"><stop offset="0" stop-color="#c1b7ac"/><stop offset="1" stop-color="#8b847c"/></linearGradient><linearGradient x1="411.03117" y1="254.93576" x2="429.16243" y2="258.36879" gradientUnits="userSpaceOnUse" id="color-16"><stop offset="0" stop-color="#c1b7ac"/><stop offset="1" stop-color="#8b847c"/></linearGradient><linearGradient x1="249.35998" y1="203.29074" x2="246.90711" y2="213.38152" gradientUnits="userSpaceOnUse" id="color-17"><stop offset="0" stop-color="#a89f95"/><stop offset="1" stop-color="#665e5a"/></linearGradient><linearGradient x1="249.35998" y1="216.55997" x2="246.90711" y2="226.65075" gradientUnits="userSpaceOnUse" id="color-18"><stop offset="0" stop-color="#a89f95"/><stop offset="1" stop-color="#665e5a"/></linearGradient><radialGradient cx="185.70637" cy="271.20063" r="10.15796" gradientUnits="userSpaceOnUse" id="color-19"><stop offset="0" stop-color="#252f30"/><stop offset="1" stop-color="#131b1e"/></radialGradient><linearGradient x1="315.26689" y1="277.92179" x2="315.26689" y2="338.64544" gradientUnits="userSpaceOnUse" id="color-20"><stop offset="0" stop-color="#00151c"/><stop offset="1" stop-color="#131b1e"/></linearGradient><linearGradient x1="151.32894" y1="166.24149" x2="151.32894" y2="212.80866" gradientUnits="userSpaceOnUse" id="color-21"><stop offset="0" stop-color="#c4cac0"/><stop offset="1" stop-color="#83897e"/></linearGradient><linearGradient x1="314.65504" y1="255.90382" x2="320.69793" y2="240.11658" gradientUnits="userSpaceOnUse" id="color-22"><stop offset="0" stop-color="#cf3729"/><stop offset="1" stop-color="#e43e2e"/></linearGradient><linearGradient x1="305.15549" y1="281.10778" x2="381.727" y2="281.10778" gradientUnits="userSpaceOnUse" id="color-23"><stop offset="0" stop-color="#9e1c22"/><stop offset="1" stop-color="#851823"/></linearGradient><linearGradient x1="214.17224" y1="258.71101" x2="251.23107" y2="258.71101" gradientUnits="userSpaceOnUse" id="color-24"><stop offset="0" stop-color="#d85634"/><stop offset="1" stop-color="#c92a21"/></linearGradient><radialGradient cx="270.53668" cy="261.14349" r="26.93877" gradientUnits="userSpaceOnUse" id="color-25"><stop offset="0" stop-color="#122724"/><stop offset="1" stop-color="#152e30"/></radialGradient><linearGradient x1="266.76115" y1="264.05163" x2="269.10805" y2="264.05163" gradientUnits="userSpaceOnUse" id="color-26"><stop offset="0" stop-color="#889290"/><stop offset="1" stop-color="#717977"/></linearGradient><linearGradient x1="113.51823" y1="187.43218" x2="113.51823" y2="216.37585" gradientUnits="userSpaceOnUse" id="color-27"><stop offset="0" stop-color="#e7723f"/><stop offset="1" stop-color="#e29864"/></linearGradient><linearGradient x1="90.10273" y1="176.37585" x2="90.10273" y2="198.34768" gradientUnits="userSpaceOnUse" id="color-28"><stop offset="0" stop-color="#a91f1f"/><stop offset="1" stop-color="#e67643"/></linearGradient><linearGradient x1="189.20643" y1="194.71007" x2="328.25392" y2="194.71007" gradientUnits="userSpaceOnUse" id="color-29"><stop offset="0" stop-color="#1a3034"/><stop offset="1" stop-color="#7d8d89"/></linearGradient><radialGradient cx="185.52276" cy="278.08377" r="6.78852" gradientUnits="userSpaceOnUse" id="color-30"><stop offset="0" stop-color="#e6dbd1" stop-opacity="0.64706"/><stop offset="1" stop-color="#e6dbd1" stop-opacity="0"/></radialGradient><radialGradient cx="185.05401" cy="292.77127" r="6.78852" gradientUnits="userSpaceOnUse" id="color-31"><stop offset="0" stop-color="#8c8680" stop-opacity="0.55294"/><stop offset="1" stop-color="#8c8680" stop-opacity="0"/></radialGradient><radialGradient cx="192.24151" cy="290.42752" r="6.78852" gradientUnits="userSpaceOnUse" id="color-32"><stop offset="0" stop-color="#8c8680" stop-opacity="0.55294"/><stop offset="1" stop-color="#8c8680" stop-opacity="0"/></radialGradient><radialGradient cx="178.14894" cy="291.28686" r="5.0397" gradientUnits="userSpaceOnUse" id="color-33"><stop offset="0" stop-color="#8c8680" stop-opacity="0.55294"/><stop offset="1" stop-color="#8c8680" stop-opacity="0"/></radialGradient><radialGradient cx="200.57081" cy="257.43084" r="6.05533" gradientUnits="userSpaceOnUse" id="color-34"><stop offset="0" stop-color="#8c8680" stop-opacity="0.55294"/><stop offset="1" stop-color="#8c8680" stop-opacity="0"/></radialGradient><radialGradient cx="192.80011" cy="256.18084" r="4.53462" gradientUnits="userSpaceOnUse" id="color-35"><stop offset="0" stop-color="#8c8680" stop-opacity="0.55294"/><stop offset="1" stop-color="#8c8680" stop-opacity="0"/></radialGradient><radialGradient cx="186.70635" cy="254.15558" r="10.00337" gradientUnits="userSpaceOnUse" id="color-36"><stop offset="0" stop-color="#8c8680" stop-opacity="0.3098"/><stop offset="1" stop-color="#8c8680" stop-opacity="0"/></radialGradient><radialGradient cx="178.4251" cy="258.21801" r="10.00337" gradientUnits="userSpaceOnUse" id="color-37"><stop offset="0" stop-color="#8c8680" stop-opacity="0.3098"/><stop offset="1" stop-color="#8c8680" stop-opacity="0"/></radialGradient><radialGradient cx="195.14385" cy="253.37433" r="10.00337" gradientUnits="userSpaceOnUse" id="color-38"><stop offset="0" stop-color="#8c8680" stop-opacity="0.3098"/><stop offset="1" stop-color="#8c8680" stop-opacity="0"/></radialGradient><radialGradient cx="186.70635" cy="254.15558" r="10.00337" gradientUnits="userSpaceOnUse" id="color-39"><stop offset="0" stop-color="#8c8680" stop-opacity="0.3098"/><stop offset="1" stop-color="#8c8680" stop-opacity="0"/></radialGradient><radialGradient cx="181.53839" cy="285.0519" r="7.3354" gradientUnits="userSpaceOnUse" id="color-40"><stop offset="0" stop-color="#e6dbd1" stop-opacity="0.41176"/><stop offset="1" stop-color="#e6dbd1" stop-opacity="0"/></radialGradient><radialGradient cx="179.19464" cy="292.67377" r="10.7729" gradientUnits="userSpaceOnUse" id="color-41"><stop offset="0" stop-color="#e6dbd1" stop-opacity="0.41176"/><stop offset="1" stop-color="#e6dbd1" stop-opacity="0"/></radialGradient><radialGradient cx="28.65579" cy="221.45603" r="6.8293" gradientUnits="userSpaceOnUse" id="color-42"><stop offset="0" stop-color="#252f30"/><stop offset="1" stop-color="#131b1e"/></radialGradient><radialGradient cx="28.08114" cy="227.24106" r="4.56399" gradientUnits="userSpaceOnUse" id="color-43"><stop offset="0" stop-color="#e6dbd1" stop-opacity="0.64706"/><stop offset="1" stop-color="#e6dbd1" stop-opacity="0"/></radialGradient><radialGradient cx="26.80341" cy="239.5806" r="4.56398" gradientUnits="userSpaceOnUse" id="color-44"><stop offset="0" stop-color="#8c8680" stop-opacity="0.55294"/><stop offset="1" stop-color="#8c8680" stop-opacity="0"/></radialGradient><radialGradient cx="31.76845" cy="238.0569" r="4.56398" gradientUnits="userSpaceOnUse" id="color-45"><stop offset="0" stop-color="#8c8680" stop-opacity="0.55294"/><stop offset="1" stop-color="#8c8680" stop-opacity="0"/></radialGradient><radialGradient cx="22.27866" cy="237.89819" r="3.38824" gradientUnits="userSpaceOnUse" id="color-46"><stop offset="0" stop-color="#8c8680" stop-opacity="0.55294"/><stop offset="1" stop-color="#8c8680" stop-opacity="0"/></radialGradient><radialGradient cx="39.5095" cy="210.79072" r="4.07106" gradientUnits="userSpaceOnUse" id="color-47"><stop offset="0" stop-color="#8c8680" stop-opacity="0.55294"/><stop offset="1" stop-color="#8c8680" stop-opacity="0"/></radialGradient><radialGradient cx="34.38994" cy="209.25148" r="3.04867" gradientUnits="userSpaceOnUse" id="color-48"><stop offset="0" stop-color="#8c8680" stop-opacity="0.55294"/><stop offset="1" stop-color="#8c8680" stop-opacity="0"/></radialGradient><radialGradient cx="30.44385" cy="207.16435" r="6.72536" gradientUnits="userSpaceOnUse" id="color-49"><stop offset="0" stop-color="#8c8680" stop-opacity="0.3098"/><stop offset="1" stop-color="#8c8680" stop-opacity="0"/></radialGradient><radialGradient cx="24.63386" cy="210.06699" r="6.72536" gradientUnits="userSpaceOnUse" id="color-50"><stop offset="0" stop-color="#8c8680" stop-opacity="0.3098"/><stop offset="1" stop-color="#8c8680" stop-opacity="0"/></radialGradient><radialGradient cx="36.14303" cy="207.03475" r="6.72536" gradientUnits="userSpaceOnUse" id="color-51"><stop offset="0" stop-color="#8c8680" stop-opacity="0.3098"/><stop offset="1" stop-color="#8c8680" stop-opacity="0"/></radialGradient><radialGradient cx="30.44385" cy="207.16435" r="6.72536" gradientUnits="userSpaceOnUse" id="color-52"><stop offset="0" stop-color="#8c8680" stop-opacity="0.3098"/><stop offset="1" stop-color="#8c8680" stop-opacity="0"/></radialGradient><radialGradient cx="24.95672" cy="232.85973" r="4.93166" gradientUnits="userSpaceOnUse" id="color-53"><stop offset="0" stop-color="#e6dbd1" stop-opacity="0.41176"/><stop offset="1" stop-color="#e6dbd1" stop-opacity="0"/></radialGradient><radialGradient cx="15.18986" cy="-136.79603" r="450.9332" gradientUnits="userSpaceOnUse" id="color-54"><stop offset="0" stop-color="#fff38b"/><stop offset="1" stop-color="#fff38b" stop-opacity="0"/></radialGradient><radialGradient cx="22.88761" cy="239.13165" r="7.24272" gradientUnits="userSpaceOnUse" id="color-55"><stop offset="0" stop-color="#e6dbd1" stop-opacity="0.41176"/><stop offset="1" stop-color="#e6dbd1" stop-opacity="0"/></radialGradient><linearGradient x1="164.21902" y1="46.05025" x2="431.0677" y2="86.90974" gradientUnits="userSpaceOnUse" id="color-56"><stop offset="0" stop-color="#d83a2b"/><stop offset="1" stop-color="#ed8333"/></linearGradient><linearGradient x1="487.23569" y1="144.77874" x2="483.47793" y2="194.44144" gradientUnits="userSpaceOnUse" id="color-57"><stop offset="0" stop-color="#4f2d0f"/><stop offset="1" stop-color="#4f2d0f" stop-opacity="0"/></linearGradient><linearGradient x1="487.23569" y1="144.77874" x2="483.47793" y2="194.44144" gradientUnits="userSpaceOnUse" id="color-58"><stop offset="0" stop-color="#4f2d0f"/><stop offset="1" stop-color="#4f2d0f" stop-opacity="0"/></linearGradient><radialGradient cx="499.25931" cy="92.7918" r="105.70154" gradientUnits="userSpaceOnUse" id="color-59"><stop offset="0" stop-color="#00b106"/><stop offset="1" stop-color="#00b106" stop-opacity="0"/></radialGradient><radialGradient cx="499.25931" cy="92.7918" r="105.70154" gradientUnits="userSpaceOnUse" id="color-60"><stop offset="0" stop-color="#00b106"/><stop offset="1" stop-color="#00b106" stop-opacity="0"/></radialGradient><linearGradient x1="443.85591" y1="201.34064" x2="486.42618" y2="204.56174" gradientUnits="userSpaceOnUse" id="color-61"><stop offset="0" stop-color="#a85f20"/><stop offset="1" stop-color="#a85f20" stop-opacity="0"/></linearGradient></defs><g transform="translate(9.33498,10.52342)"><g data-paper-data="{&quot;isPaintingLayer&quot;:true}" fill-rule="nonzero" stroke-linejoin="miter" stroke-miterlimit="10" stroke-dasharray="" stroke-dashoffset="0" style="mix-blend-mode: normal"><path d="M-5.50206,179.85699l1.42713,-183.57317l485.80962,-1.82451l-2.05213,206.07317z" fill="url(#color-1)" stroke="none" stroke-width="0" stroke-linecap="butt"/><path d="M-8.24614,175.52013l5.29552,-112.1338l487.20447,37.89405c-0.3,2.19447 -0.95211,4.4426 -0.95211,6.61763c0,8.82006 0,20.19604 0,31.6883l-3.48966,73.89428z" fill="url(#color-2)" stroke="none" stroke-width="0" stroke-linecap="butt"/><path d="M454.78471,-7.78046c-28.63868,148.10673 -105.29103,273.2312 -208.53715,348.94969c-10.98158,8.05365 -255.58253,36.81054 -255.58253,36.81054l3.61448,-383.05492c0,0 460.73248,-3.88066 460.50521,-2.70532z" fill="url(#color-3)" stroke="none" stroke-width="NaN" stroke-linecap="butt"/><path d="M8.50433,270.02198l-11.3789,-140.27124c0,0 51.91333,-3.56078 104.25253,-10.65362c25.86363,-3.50496 44.74257,-14.01593 71.44526,-13.31103c35.56962,0.93897 80.43659,26.28069 96.25781,27.08813c24.60582,1.25576 61.90489,3.92512 98.85416,6.7659c12.95941,0.99636 26.84601,5.75678 38.7147,7.71393c34.72069,5.72543 65.19044,10.74075 76.65187,12.62683c0,5.28524 0,10.2424 0,14.58109c0,2.6794 0.68656,5.3135 1.36208,7.94589c-0.10025,7.93121 -0.15538,15.98518 -0.07995,24.39161c0.13533,15.08287 2.43874,29.97365 2.43874,45.085c0,6.7657 0.20905,11.93703 0.39681,18.03751z" fill-opacity="0.58039" fill="#2a914c" stroke="none" stroke-width="0" stroke-linecap="butt"/><path d="M0.37595,306.91238l-2.62526,-171.53427c0,0 38.28275,0.17418 77.87023,2.20927c37.57395,1.93158 76.28611,5.70079 85.91014,6.71661c25.0583,2.64489 57.8297,6.61079 88.1275,10.42006c51.61058,6.48887 107.3052,16.87453 150.96359,21.8238c49.40328,5.60053 80.63837,9.86454 80.63837,9.86454c0,0 0.29146,24.6794 0.47757,40.43844c0.26187,22.17402 0.94551,80.06154 0.94551,80.06154z" fill-opacity="0.83137" fill="#35b541" stroke="none" stroke-width="0" stroke-linecap="butt"/><path d="M-6.67136,187.51641l3.1263,-38.14089l488.57958,69.00493c0.70762,11.19276 1.98811,22.33709 1.98811,33.60404c0,12.5776 0.72245,19.64512 0.68757,37.4154c-0.00685,3.49248 -0.45029,6.98533 -0.63245,10.47409z" fill="#6fc165" stroke="none" stroke-width="0" stroke-linecap="butt"/><g data-paper-data="{&quot;index&quot;:null}" stroke="none" stroke-width="0" stroke-linecap="butt"><path d="M113.9931,113.53935c0,0 0.19639,6.02718 -0.86448,8.10495c-1.72787,3.38407 -8.33687,6.23293 -8.33687,6.23293c0,0 -3.74632,2.77366 -5.68308,3.23425c-1.18685,0.28224 -3.498,-0.6096 -3.498,-0.6096l-2.51813,-1.92377c0,0 -6.56339,-1.08251 -8.52111,-2.03037c-2.30397,-1.11552 -1.09235,-2.25879 -2.09058,-3.88235c-1.00579,-1.63586 -4.72412,-4.39717 -4.72412,-4.39717c0,0 1.39464,-1.4573 1.51126,-3.22408c0.0982,-1.48781 -1.08675,-3.22364 -1.0122,-4.20888c0.15257,-2.01644 3.30823,-4.96307 3.30823,-4.96307c0,0 -0.31075,-6.15667 1.29908,-7.50433c1.00731,-0.84327 6.35551,0.19253 6.35551,0.19253c0,0 2.57326,-0.21557 3.82571,-1.13882c1.42637,-1.05146 2.78542,-3.34272 4.44085,-3.21746c2.28407,0.17283 5.50776,-1.22306 7.45614,-0.28504c0.98237,0.47295 0.61601,1.74891 1.42748,2.88343c1.3783,1.92702 3.66621,3.87178 3.66621,3.87178c0,0 1.75386,0.34549 2.9481,1.62207c1.28589,1.37458 2.03402,3.73323 2.48973,5.11435c0.52501,1.59119 -1.4797,6.12865 -1.4797,6.12865z" fill="#009405"/><path d="M59.36861,162.75185c0,0 4.46364,-2.35894 5.39856,-3.29736c0.55003,-0.55211 -0.84518,-1.35153 -0.84518,-1.35153c0,0 3.55718,-2.06145 3.94049,-3.09924c0.59377,-1.60753 6.14512,-7.63594 4.38138,-14.33792c-0.59064,-2.24441 -2.63886,-3.23885 -3.97133,-5.28286c-2.05931,-3.15903 -3.50253,-8.59339 -5.27571,-11.87066c-1.45907,-2.69667 -3.49258,-3.42365 -3.24234,-4.62194c0.059,-0.28249 0.84034,-1.01838 2.31191,0.07432c1.29222,0.95952 4.51793,6.36951 4.51793,6.36951c0,0 1.1943,-1.38903 1.40118,-2.96636c0.32317,-2.46382 -0.21819,-5.44134 0.3834,-4.71888c0.82233,0.98754 2.03939,0.39729 2.03939,0.39729c0,0 0.525,2.76582 0.39795,5.62818c-0.11568,2.60657 -1.52187,4.16658 -1.36048,5.08765c0.32069,1.83024 3.54152,4.75996 3.54152,4.75996c0,0 1.47742,-5.58715 0.88218,-8.36107c-0.71083,-3.31256 -2.28984,-6.5167 -1.84221,-6.74049c0.38639,-0.19317 1.59496,0.4317 2.91739,2.09293c0.40493,0.50866 1.17445,-3.47928 1.60226,-2.92073c0.42052,0.54904 2.10291,-0.02334 2.14012,0.84591c0.05071,1.18474 -0.16424,3.80631 0.04394,5.12396c0.37235,2.35681 1.30151,7.13766 1.30151,7.13766c0,0 4.33997,-2.85419 7.61623,-4.60946c2.37774,-1.27388 -1.97892,-7.33871 -2.23752,-8.02148c-0.31582,-0.83382 0.47792,-0.05718 0.91568,-0.23319c1.77278,-0.71281 4.0522,5.97123 4.0522,5.97123l5.69211,-5.07946c0,0 -0.47605,1.04524 0.80508,0.79254c1.75485,-0.34614 -5.49145,5.84129 -3.64108,5.62813c4.89966,-0.56444 9.95284,-4.85892 9.95284,-4.85892c0,0 1.2082,-0.12989 1.54928,0.07937c0.39108,0.23993 0.66781,1.28082 0.66781,1.28082c0,0 -2.91706,3.65232 -7.18134,5.81504c-3.44534,1.74739 -9.67709,2.83029 -11.53826,5.4956c-4.96469,7.10976 -4.75186,17.17683 -4.02805,20.78193c0.94043,4.68411 5.00595,9.96961 5.00595,9.96961l-1.74211,0.80926l-2.21455,-1.08483l0.84439,2.69717l-1.56377,-1.45048l-0.68009,1.72521c0,0 -2.34351,-2.2447 -2.80703,-2.19293c-1.62338,0.18132 -1.01262,2.84713 -1.01262,2.84713l-4.85481,-2.82189l-2.74317,1.1957l-1.22514,-1.91965l-3.71864,0.02117l1.46091,-1.05545z" fill="#633713"/><path d="M78.90533,122.8578l1.03878,7.92826c0,0 9.37981,-6.21551 11.15525,-7.30514c0.36544,-0.22427 5.22705,-2.87537 5.22705,-2.87537c0,0 -2.93017,2.31752 -3.59405,4.41825c-0.41841,1.32401 10.59412,-4.94099 10.59412,-4.94099c0,0 0.99565,0.20893 1.32295,0.46238c0.29823,0.23095 0.56174,0.99712 0.56174,0.99712c0,0 -2.25691,3.48985 -4.19174,4.55567c-4.2216,2.32553 -9.86742,3.53535 -13.39242,6.04749c-2.99676,2.13568 -4.71941,9.39548 -4.71941,9.39548c0,0 -7.08923,1.31391 -10.13223,-0.07884c-1.6209,-0.74187 0.05388,-7.57125 0.05388,-7.57125c0,0 1.32062,-3.97351 0.97259,-6.59605c-0.34803,-2.62254 5.1035,-4.43699 5.1035,-4.43699z" fill="url(#color-4)"/><path d="M76.16057,108.41775c0,0 0.18075,5.54697 -0.79561,7.45918c-1.59019,3.11443 -7.67261,5.73629 -7.67261,5.73629c0,0 -3.44779,2.55267 -5.23026,2.97655c-1.09228,0.25976 -3.21929,-0.56103 -3.21929,-0.56103l-2.31748,-1.77048c0,0 -6.04042,-0.99625 -7.84215,-1.86859c-2.1204,-1.02663 -1.00533,-2.0788 -1.924,-3.573c-0.92564,-1.5055 -4.3477,-4.04682 -4.3477,-4.04682c0,0 1.28353,-1.34118 1.39084,-2.9672c0.09038,-1.36928 -1.00015,-2.96678 -0.93154,-3.87352c0.14041,-1.85576 3.04463,-4.56761 3.04463,-4.56761c0,0 -0.28599,-5.66612 1.19557,-6.90642c0.92704,-0.77608 5.84911,0.17719 5.84911,0.17719c0,0 2.36822,-0.19839 3.52088,-1.04807c1.31273,-0.96767 2.56349,-3.07637 4.08701,-2.96109c2.10207,0.15905 5.06889,-1.1256 6.86204,-0.26232c0.90409,0.43526 0.56694,1.60954 1.31374,2.65367c1.26848,1.77348 3.37408,3.56329 3.37408,3.56329c0,0 1.61411,0.31796 2.7132,1.49282c1.18342,1.26504 1.87195,3.43576 2.29135,4.70683c0.48319,1.4644 -1.36179,5.64034 -1.36179,5.64034z" fill="#00a706"/><path d="M99.10872,103.99527c0,0 0.25215,7.73803 -1.10986,10.40559c-2.21833,4.34466 -10.70335,8.0022 -10.70335,8.0022c0,0 -4.8097,3.56099 -7.29625,4.1523c-1.52375,0.36235 -4.49093,-0.78265 -4.49093,-0.78265l-3.23291,-2.46984c0,0 -8.42644,-1.38979 -10.93986,-2.60671c-2.95797,-1.43215 -1.40243,-2.89995 -2.684,-4.98435c-1.29127,-2.10019 -6.06509,-5.64533 -6.06509,-5.64533c0,0 1.79053,-1.87096 1.94025,-4.13926c0.12608,-1.91014 -1.39523,-4.13867 -1.29952,-5.40357c0.19588,-2.5888 4.24729,-6.37186 4.24729,-6.37186c0,0 -0.39896,-7.90428 1.66782,-9.63448c1.29324,-1.08264 8.15956,0.24717 8.15956,0.24717c0,0 3.30368,-0.27676 4.91165,-1.46207c1.83125,-1.34991 3.57608,-4.29156 5.70142,-4.13074c2.93242,0.22189 7.07116,-1.57023 9.5726,-0.36595c1.26123,0.60719 0.79087,2.24533 1.83268,3.7019c1.76954,2.47401 4.70687,4.9708 4.70687,4.9708c0,0 2.25171,0.44356 3.78493,2.0825c1.6509,1.76476 2.6114,4.79291 3.19645,6.56607c0.67403,2.04285 -1.89973,7.86832 -1.89973,7.86832z" fill="#00a005"/><path d="M99.41827,109.97268c0,0 0.19639,6.02719 -0.8645,8.10496c-1.72787,3.38407 -8.33688,6.23294 -8.33688,6.23294c0,0 -3.74631,2.77367 -5.68308,3.23425c-1.18685,0.28224 -3.49801,-0.60959 -3.49801,-0.60959l-2.51813,-1.92377c0,0 -6.56339,-1.08251 -8.5211,-2.03038c-2.30397,-1.11552 -1.09236,-2.25878 -2.09058,-3.88234c-1.00577,-1.63586 -4.72412,-4.39717 -4.72412,-4.39717c0,0 1.39465,-1.4573 1.51126,-3.2241c0.0982,-1.48781 -1.08675,-3.22363 -1.01219,-4.20887c0.15257,-2.01644 3.30823,-4.96305 3.30823,-4.96305c0,0 -0.31076,-6.15667 1.29907,-7.50434c1.00731,-0.84327 6.35551,0.19253 6.35551,0.19253c0,0 2.57326,-0.21558 3.82571,-1.13882c1.42637,-1.05146 2.78542,-3.3427 4.44085,-3.21744c2.28407,0.17283 5.50776,-1.22306 7.45615,-0.28505c0.98237,0.47295 0.61601,1.74891 1.42748,2.88343c1.3783,1.92702 3.6662,3.87178 3.6662,3.87178c0,0 1.75387,0.34549 2.9481,1.62207c1.28589,1.37458 2.03402,3.73323 2.48972,5.11435c0.52501,1.59119 -1.4797,6.12865 -1.4797,6.12865z" fill="#00b106"/><path d="M48.91518,103.2733c0.6022,-7.95866 4.14306,-8.01592 9.5631,-10.07595c3.25264,-1.23624 0.60053,-5.89732 4.41007,-6.40917c2.63693,-0.3543 5.5876,2.82278 8.25336,1.65676c0.99183,-0.43382 1.38581,-6.02799 2.51412,-6.05969c2.90172,-0.08151 4.51223,-3.2865 7.6564,-3.16284c0.4641,0.01825 1.79869,2.41748 2.2656,2.45282c7.27657,0.55058 7.89619,8.54731 12.41467,11.9387c8.46027,6.34995 17.38596,11.31976 16.35506,24.94422c-0.37794,4.99494 -2.5854,3.38049 -5.43864,4.34674c-1.79926,0.60932 -3.32445,3.94679 -6.48341,5.24895c-4.18166,1.72373 -6.1521,-1.02859 -9.84558,-0.69629c-7.6063,0.68434 -8.08194,-3.29409 -16.66863,-3.9438c-14.23864,-1.07738 -16.26553,-1.87823 -18.89176,-7.93236c-1.22883,-2.83279 -6.60843,-5.64571 -6.10432,-12.30809z" fill="url(#color-5)"/><path d="M67.53461,155.63682c0,0 0.03342,-0.62732 0.65266,-1.48028c1.74353,-2.40166 5.1879,-7.60072 4.34145,-12.65045c-0.52255,-3.11741 -4.06,-4.87427 -5.22036,-7.57362c-1.44634,-3.36461 -4.04268,-9.99821 -4.04268,-9.99821l1.48215,-1.38985l1.85941,2.79759c0,0 0.82916,-1.09173 1.14816,-1.73348c0.31266,-0.62901 0.33211,-1.81471 0.33211,-1.81471l2.64328,1.03588c0,0 0.1021,1.63971 -0.26523,2.92938c-0.26968,0.94683 -0.96095,1.90281 -0.91795,2.91209c0.06736,1.58081 1.53657,2.7643 1.76631,3.19178c0.41827,0.77835 1.80504,1.6276 1.80504,1.6276c0,0 0.68644,-3.18228 0.78121,-4.65608c0.11084,-1.72374 -0.15681,-5.05451 -0.15681,-5.05451c0,0 2.00908,-1.06719 2.57622,-0.84388c0.80287,0.31613 2.87416,12.42652 3.31625,13.62277c1.22226,3.30735 1.99208,20.22633 1.99208,20.22633c0,0 -4.34856,6.43539 -5.90152,6.62028c-0.06032,0.00718 -4.93015,2.04782 -4.93015,2.04782l-1.22957,-2.02649l-3.48713,0.07938l1.45494,-1.13663l-7.66243,0.35726l5.19862,-3.52989l-0.98658,-1.04677z" fill="url(#color-6)"/></g><g stroke="none" stroke-width="0" stroke-linecap="butt"><path d="M85.88519,98.47967c0,0 0.08859,8.68196 -1.50536,11.63858c-2.59611,4.81546 -12.20096,8.70331 -12.20096,8.70331c0,0 -5.48183,3.87183 -8.28447,4.47243c-1.71746,0.36804 -5.01546,-0.99012 -5.01546,-0.99012l-3.56269,-2.8502c0,0 -9.4126,-1.76955 -12.20005,-3.19696c-3.28045,-1.67989 -1.49962,-3.28652 -2.88419,-5.65564c-1.39507,-2.38707 -6.65838,-6.48149 -6.65838,-6.48149c0,0 2.05439,-2.05275 2.27916,-4.59213c0.18927,-2.13842 -1.46048,-4.67516 -1.32144,-6.09092c0.28455,-2.89758 4.92175,-7.03739 4.92175,-7.03739c0,0 -0.24903,-8.87203 2.11158,-10.76005c1.47709,-1.18137 9.14202,0.4818 9.14202,0.4818c0,0 3.71094,-0.22743 5.54347,-1.51604c2.087,-1.46756 4.11702,-4.72186 6.49585,-4.48825c3.28217,0.32232 7.96735,-1.58312 10.74168,-0.17018c1.3988,0.71241 0.83037,2.53723 1.96188,4.19642c1.9219,2.81817 5.15252,5.69117 5.15252,5.69117c0,0 2.51341,0.5538 4.19131,2.42978c1.80666,2.02 2.80758,5.43918 3.41906,7.44185c0.70448,2.30729 -2.32728,8.77403 -2.32728,8.77403z" fill="#009405"/><path d="M5.67297,167.55793c0,0 6.501,-3.25175 7.87696,-4.57243c0.80951,-0.77701 -1.17304,-1.97263 -1.17304,-1.97263c0,0 5.18664,-2.85273 5.77182,-4.3342c0.90646,-2.29478 9.09131,-10.79342 6.76837,-20.49715c-0.77791,-3.24965 -3.69413,-4.74704 -5.54629,-7.73213c-2.86248,-4.61347 -4.76486,-12.48226 -7.21168,-17.25673c-2.01336,-3.92863 -4.91704,-5.04053 -4.51825,-6.75731c0.09403,-0.40473 1.24239,-1.4388 3.32541,0.18143c1.82915,1.42278 6.29807,9.31388 6.29807,9.31388c0,0 1.76384,-1.96095 2.11242,-4.22472c0.54452,-3.53606 -0.13884,-7.83939 0.70383,-6.78009c1.15187,1.44796 2.92274,0.63753 2.92274,0.63753c0,0 0.66663,3.99807 0.39158,8.11412c-0.25045,3.74821 -2.32479,5.94843 -2.12215,7.27944c0.40266,2.64481 4.94445,6.96562 4.94445,6.96562c0,0 2.30654,-7.99466 1.53907,-12.00666c-0.91651,-4.79105 -3.08618,-9.45399 -2.43465,-9.7617c0.56239,-0.26561 2.28191,0.67276 4.13194,3.10656c0.56648,0.74522 1.80257,-4.97031 2.40038,-4.15255c0.58763,0.80384 3.02772,0.03413 3.05329,1.28653c0.03484,1.70696 -0.35899,5.4736 -0.10177,7.37694c0.46007,3.40444 1.64357,10.31598 1.64357,10.31598c0,0 6.33895,-3.96861 11.11137,-6.38966c3.46357,-1.75707 -2.61216,-10.62719 -2.96241,-11.61832c-0.42775,-1.21037 0.68978,-0.06692 1.32556,-0.30617c2.57473,-0.96894 5.64052,8.72559 5.64052,8.72559l8.35688,-7.12817c0,0 -0.71888,1.48921 1.13332,1.16673c2.5371,-0.44173 -8.0926,8.2312 -5.42228,7.98397c7.07083,-0.65468 14.48277,-6.6735 14.48277,-6.6735c0,0 1.74328,-0.14805 2.2275,0.16415c0.55519,0.35796 0.92002,1.86513 0.92002,1.86513c0,0 -4.31648,5.16329 -10.52421,8.13902c-5.01555,2.40426 -14.02051,3.76234 -16.78534,7.53889c-7.37521,10.07404 -7.39306,24.57161 -6.46729,29.78416c1.20284,6.77267 6.8846,14.51163 6.8846,14.51163l-2.53368,1.10877l-3.15272,-1.63285l1.12856,3.90955l-2.20421,-2.13822l-1.03449,2.4614c0,0 -3.30101,-3.30653 -3.96987,-3.24695c-2.34257,0.20872 -1.54927,4.0656 -1.54927,4.0656l-6.89723,-4.21822l-3.98706,1.63277l-1.70167,-2.80263l-5.35336,-0.08927l2.13684,-1.47219z" fill="#633713"/><path d="M35.07922,110.76288l1.23991,11.44552c0,0 13.70163,-8.64464 16.29232,-10.15591c0.53325,-0.31105 7.61649,-3.97052 7.61649,-3.97052c0,0 -4.29237,3.24152 -5.31562,6.24397c-0.6449,1.89232 15.40847,-6.77099 15.40847,-6.77099c0,0 1.42643,0.3328 1.88938,0.70816c0.42184,0.34204 0.77647,1.45336 0.77647,1.45336c0,0 -3.36102,4.95067 -6.18037,6.42253c-6.15154,3.21146 -14.31717,4.77108 -19.47203,8.27358c-4.38236,2.97764 -7.09576,13.37204 -7.09576,13.37204c0,0 -10.24666,1.66297 -14.58196,-0.43977c-2.30927,-1.12006 0.32137,-10.89645 0.32137,-10.89645c0,0 2.02888,-5.677 1.61238,-9.46314c-0.4165,-3.78614 7.48895,-6.22234 7.48895,-6.22234z" fill="url(#color-7)"/><path d="M31.59332,89.88923c0,0 0.08154,7.99021 -1.38543,10.71124c-2.38924,4.43175 -11.22881,8.00984 -11.22881,8.00984c0,0 -5.04502,3.56333 -7.62438,4.11607c-1.58061,0.33872 -4.61583,-0.91123 -4.61583,-0.91123l-7.03037,-2.62308l-0.49067,-39.88009c0,0 3.41524,-0.2093 5.10176,-1.39523c1.92072,-1.35061 3.78899,-4.34563 5.97827,-4.13064c3.02064,0.29664 7.3325,-1.45698 9.88579,-0.15662c1.28736,0.65563 0.76422,2.33507 1.80556,3.86206c1.76876,2.59364 4.74196,5.23771 4.74196,5.23771c0,0 2.31315,0.50966 3.85736,2.23618c1.6627,1.85904 2.58388,5.00577 3.14663,6.84888c0.64834,2.12345 -2.14182,8.07495 -2.14182,8.07495z" fill="#00a706"/><path d="M64.76766,84.26244c0,0 0.11375,11.14639 -1.93266,14.94225c-3.33302,6.18233 -15.66427,11.17381 -15.66427,11.17381c0,0 -7.03785,4.97087 -10.63607,5.74193c-2.20497,0.47252 -6.43911,-1.27118 -6.43911,-1.27118l-4.57398,-3.65924c0,0 -12.08441,-2.27184 -15.66308,-4.10443c-4.21164,-2.15672 -1.92528,-4.2194 -3.70288,-7.261c-1.79104,-3.06463 -8.5484,-8.3213 -8.5484,-8.3213c0,0 2.63757,-2.63543 2.92613,-5.89564c0.24299,-2.74543 -1.87504,-6.00222 -1.69654,-7.81985c0.36533,-3.72006 6.31882,-9.03498 6.31882,-9.03498c0,0 -0.31973,-11.39041 2.71095,-13.81433c1.89638,-1.51672 11.73705,0.61854 11.73705,0.61854c0,0 4.76429,-0.29199 7.11699,-1.94636c2.67941,-1.88412 5.28566,-6.06219 8.33974,-5.76226c4.21383,0.41381 10.22891,-2.03251 13.79076,-0.21849c1.79589,0.91462 1.06609,3.25744 2.51878,5.3876c2.46744,3.61812 6.61508,7.30664 6.61508,7.30664c0,0 3.22686,0.71098 5.38103,3.11948c2.31951,2.59339 3.60455,6.9831 4.38959,9.55425c0.90443,2.96222 -2.98789,11.26461 -2.98789,11.26461z" fill="#00a005"/><path d="M65.02075,92.87639c0,0 0.08859,8.68196 -1.50537,11.63858c-2.59611,4.81546 -12.20096,8.70333 -12.20096,8.70333c0,0 -5.48183,3.87183 -8.28447,4.47243c-1.71746,0.36804 -5.01546,-0.9901 -5.01546,-0.9901l-3.56269,-2.8502c0,0 -9.41259,-1.76955 -12.20004,-3.19698c-3.28045,-1.67989 -1.49962,-3.2865 -2.88419,-5.65562c-1.39504,-2.38707 -6.65838,-6.48149 -6.65838,-6.48149c0,0 2.05441,-2.05274 2.27917,-4.59215c0.18927,-2.13842 -1.46047,-4.67516 -1.32144,-6.09092c0.28455,-2.89758 4.92175,-7.03737 4.92175,-7.03737c0,0 -0.24904,-8.87203 2.11157,-10.76005c1.47708,-1.18137 9.14203,0.4818 9.14203,0.4818c0,0 3.71094,-0.22743 5.54347,-1.51604c2.087,-1.46756 4.11702,-4.72185 6.49585,-4.48824c3.28216,0.32232 7.96735,-1.58313 10.74168,-0.17019c1.39881,0.71241 0.83037,2.53723 1.96188,4.19642c1.92189,2.81817 5.15251,5.69117 5.15251,5.69117c0,0 2.51341,0.5538 4.19131,2.42978c1.80666,2.02 2.80759,5.43917 3.41906,7.44185c0.70448,2.30729 -2.32728,8.77403 -2.32728,8.77403z" fill="#00b106"/><path d="M-7.45849,81.60683c1.1231,-11.43645 6.22173,-11.40484 14.08977,-14.19554c4.72172,-1.67472 1.05434,-8.46937 6.55434,-9.08346c3.80706,-0.42507 7.95199,4.24311 11.82667,2.65057c1.44162,-0.59251 2.18888,-8.63216 3.814,-8.64145c4.17942,-0.02388 6.60082,-4.58534 11.12261,-4.30609c0.66745,0.04122 2.51122,3.53769 3.18215,3.60358c10.45629,1.02685 11.09066,12.55743 17.48542,17.58457c11.97338,9.41268 24.66112,16.85374 22.73847,36.43182c-0.70488,7.17763 -3.83033,4.78269 -7.96845,6.08164c-2.6095,0.81912 -4.91238,5.57402 -9.50137,7.34664c-6.07467,2.3465 -8.8223,-1.6787 -14.14947,-1.31932c-10.97068,0.7401 -11.52721,-5.00182 -23.86612,-6.21355c-20.46065,-2.00932 -23.35238,-3.22737 -26.93766,-12.02636c-1.67757,-4.11713 -9.33049,-8.33933 -8.39031,-17.91304z" fill="url(#color-8)"/><path d="M17.65633,157.5794c0,0 0.06831,-0.9019 0.98711,-2.10972c2.587,-3.40084 7.71231,-10.77354 6.65654,-18.06948c-0.65178,-4.50409 -5.68704,-7.14686 -7.27037,-11.06972c-1.97355,-4.88965 -5.49713,-14.52179 -5.49713,-14.52179l2.17818,-1.95285l2.58639,4.08678c0,0 1.22867,-1.54476 1.7085,-2.45823c0.4703,-0.89534 0.53649,-2.60143 0.53649,-2.60143l3.77143,1.57618c0,0 0.09415,2.36352 -0.47611,4.20806c-0.41867,1.35419 -1.44449,2.708 -1.4151,4.16215c0.04605,2.27761 2.12276,4.02845 2.43967,4.65118c0.57701,1.13384 2.54579,2.40092 2.54579,2.40092c0,0 1.09056,-4.55853 1.27443,-6.67689c0.21506,-2.47761 -0.06296,-7.28059 -0.06296,-7.28059c0,0 2.92628,-1.47143 3.73544,-1.13173c1.14549,0.4809 3.73694,17.9795 4.33476,19.71564c1.65284,4.80002 2.21609,29.17827 2.21609,29.17827c0,0 -6.46663,9.12318 -8.70795,9.3393c-0.08705,0.0084 -7.16249,2.78891 -7.16249,2.78891l-1.70461,-2.95657l-5.022,0.00197l2.13087,-1.58924l-11.04094,0.26749l7.59666,-4.91359l-1.38639,-1.5385z" fill="url(#color-9)"/></g><g data-paper-data="{&quot;index&quot;:null}" stroke="none" stroke-width="0" stroke-linecap="butt"><path d="M217.65048,95.69899c0,0 0.67503,10.04717 -0.9757,13.57579c-2.68859,5.74708 -13.55389,10.88219 -13.55389,10.88219c0,0 -6.09223,4.8447 -9.29787,5.72493c-1.96442,0.5394 -5.87278,-0.8158 -5.87278,-0.8158l-4.31323,-3.0654c0,0 -11.01571,-1.42838 -14.33746,-2.89742c-3.90926,-1.72888 -1.95313,-3.70664 -3.71255,-6.3586c-1.77275,-2.67204 -8.13722,-7.06603 -8.13722,-7.06603c0,0 2.24348,-2.51237 2.33631,-5.46759c0.07816,-2.4886 -1.99937,-5.31716 -1.93172,-6.96567c0.13845,-3.37393 5.23499,-8.47325 5.23499,-8.47325c0,0 -0.87333,-10.25666 1.73557,-12.59848c1.63245,-1.46532 10.6175,-0.04489 10.6175,-0.04489c0,0 4.28197,-0.50802 6.31893,-2.12096c2.31982,-1.83692 4.45585,-5.739 7.22574,-5.62533c3.82174,0.15681 9.12117,-2.35844 12.42678,-0.90528c1.66668,0.73269 1.12879,2.88317 2.54838,4.72975c2.41121,3.1365 6.34144,6.25019 6.34144,6.25019c0,0 2.94684,0.47553 5.01341,2.53713c2.22516,2.21988 3.60959,6.11301 4.44967,8.39163c0.96786,2.62521 -2.11629,10.31306 -2.11629,10.31306z" fill="#009405"/><path d="M129.32576,180.97476c0,0 7.31322,-4.1939 8.8194,-5.81386c0.88612,-0.95308 -1.48835,-2.20681 -1.48835,-2.20681c0,0 5.81763,-3.64521 6.39753,-5.39921c0.8983,-2.71694 9.81534,-13.09733 6.48576,-24.18031c-1.11502,-3.71155 -4.59049,-5.25312 -6.93197,-8.5875c-3.61871,-5.1533 -6.34034,-14.13929 -9.48836,-19.5064c-2.59034,-4.41628 -6.02587,-5.51233 -5.6773,-7.52652c0.08218,-0.47485 1.34373,-1.74794 3.86251,-0.00918c2.21181,1.52685 7.90677,10.36946 7.90677,10.36946c0,0 1.91308,-2.38691 2.16746,-5.03116c0.39736,-4.13038 -0.67765,-9.06823 0.36794,-7.8972c1.42924,1.60068 3.42633,0.54551 3.42633,0.54551c0,0 1.03552,4.58549 0.98842,9.36967c-0.04287,4.35663 -2.29971,7.04109 -1.97731,8.56893c0.64064,3.03592 6.18454,7.73961 6.18454,7.73961c0,0 2.14367,-9.40926 0.99049,-14.00423c-1.37714,-5.48722 -4.19688,-10.74347 -3.46275,-11.14272c0.6337,-0.34464 2.68662,0.62855 4.98928,3.32471c0.70507,0.82555 1.75951,-5.87407 2.50565,-4.96658c0.73343,0.89203 3.50809,-0.1601 3.62029,1.28839c0.15289,1.97423 -0.05478,6.36165 0.36855,8.5486c0.75718,3.91172 2.58329,11.83671 2.58329,11.83671c0,0 7.07833,-5.01328 12.44477,-8.13133c3.89469,-2.26291 -3.72536,-12.1332 -4.19627,-13.25775c-0.5751,-1.37331 0.79429,-0.12296 1.5147,-0.44192c2.91745,-1.29171 7.10657,9.73163 7.10657,9.73163l9.20661,-8.80485c0,0 -0.73422,1.77178 1.38922,1.27625c2.90863,-0.67877 -8.82787,10.06465 -5.75215,9.60231c8.14429,-1.22428 16.32987,-8.68228 16.32987,-8.68228c0,0 2.00883,-0.28636 2.59009,0.0432c0.66648,0.37788 1.18828,2.09901 1.18828,2.09901c0,0 -4.6577,6.26327 -11.64955,10.11823c-5.64908,3.11464 -15.98655,5.28091 -18.939,9.83615c-7.87568,12.1512 -6.94046,28.93939 -5.52482,34.91406c1.83933,7.7629 8.92862,16.34937 8.92862,16.34937l-2.8607,1.45092l-3.75825,-1.68283l1.56456,4.45254l-2.69327,-2.33055l-1.03556,2.91831c0,0 -4.04032,-3.61104 -4.81088,-3.49794c-2.69875,0.39614 -1.52587,4.80978 -1.52587,4.80978l-8.26455,-4.42959l-4.50904,2.1535l-2.15518,-3.13302l-6.20465,0.2496l2.37723,-1.84557z" fill="#633713"/><path d="M159.63115,113.2718l2.19037,13.17123c0,0 15.29541,-10.9132 18.19557,-12.83394c0.59695,-0.39533 8.5575,-5.09973 8.5575,-5.09973c0,0 -4.7565,4.03643 -5.74338,7.58049c-0.62198,2.23368 17.39533,-8.85619 17.39533,-8.85619c0,0 1.67363,0.29132 2.23444,0.69542c0.51101,0.36824 0.99491,1.63167 0.99491,1.63167c0,0 -3.56537,5.95409 -6.7329,7.84427c-6.91123,4.1242 -16.26357,6.46852 -22.00153,10.864c-4.8781,3.73681 -7.33465,15.9516 -7.33465,15.9516c0,0 -11.75518,2.60118 -16.91374,0.45223c-2.7478,-1.14468 -0.34631,-12.6384 -0.34631,-12.6384c0,0 1.97496,-6.70729 1.24306,-11.06387c-0.73191,-4.35658 8.26133,-7.69874 8.26133,-7.69874z" fill="url(#color-10)"/><path d="M154.21848,89.33164c0,0 0.62124,9.24664 -0.89798,12.49409c-2.47434,5.28915 -12.47394,10.01511 -12.47394,10.01511c0,0 -5.60678,4.45869 -8.55704,5.26879c-1.80789,0.49644 -5.40484,-0.75079 -5.40484,-0.75079l-3.96956,-2.82113c0,0 -10.13799,-1.31457 -13.19505,-2.66656c-3.59779,-1.59113 -1.79752,-3.4113 -3.41674,-5.85196c-1.6315,-2.45912 -7.48886,-6.50303 -7.48886,-6.50303c0,0 2.06475,-2.31218 2.15015,-5.03196c0.07194,-2.29033 -1.84005,-4.89349 -1.77779,-6.41066c0.12741,-3.10508 4.81786,-7.79808 4.81786,-7.79808c0,0 -0.80375,-9.43944 1.59729,-11.59467c1.50238,-1.34857 9.77151,-0.04131 9.77151,-0.04131c0,0 3.94077,-0.46753 5.81543,-1.95194c2.13499,-1.69053 4.10083,-5.28171 6.65,-5.17711c3.51721,0.14432 8.39438,-2.17052 11.43661,-0.83317c1.53388,0.6743 1.03888,2.65343 2.34534,4.35291c2.21909,2.8866 5.83614,5.75219 5.83614,5.75219c0,0 2.71204,0.43763 4.61395,2.33498c2.04785,2.04299 3.32198,5.62591 4.09512,7.72299c0.89074,2.41604 -1.94764,9.49137 -1.94764,9.49137z" fill="#00a706"/><path d="M192.26074,80.62895c0,0 0.86665,12.89912 -1.25266,17.42934c-3.45174,7.3784 -17.40124,13.97118 -17.40124,13.97118c0,0 -7.82152,6.21989 -11.93712,7.34998c-2.52203,0.69251 -7.53978,-1.04736 -7.53978,-1.04736l-5.53756,-3.93553c0,0 -14.14257,-1.83383 -18.40721,-3.71988c-5.01895,-2.21962 -2.50752,-4.75879 -4.76638,-8.16351c-2.27594,-3.43051 -10.44701,-9.07176 -10.44701,-9.07176c0,0 2.88033,-3.22553 2.99949,-7.01961c0.10035,-3.195 -2.56689,-6.82644 -2.48005,-8.94289c0.17773,-4.3316 6.72096,-10.8784 6.72096,-10.8784c0,0 -1.12122,-13.16809 2.22822,-16.17463c2.09584,-1.88128 13.63134,-0.05763 13.63134,-0.05763c0,0 5.49742,-0.65224 8.11257,-2.723c2.97832,-2.35832 5.72067,-7.36803 9.27683,-7.22211c4.90656,0.20133 11.71025,-3.02791 15.95418,-1.16228c2.1398,0.94065 1.44922,3.70156 3.27177,6.07233c3.09565,4.0268 8.14148,8.02434 8.14148,8.02434c0,0 3.78332,0.6105 6.43648,3.25732c2.8568,2.85 4.63419,7.8482 5.71273,10.77363c1.24256,3.37038 -2.717,13.24051 -2.717,13.24051z" fill="#00a005"/><path d="M193.12174,90.58652c0,0 0.67503,10.04717 -0.97572,13.57579c-2.68859,5.74708 -13.55388,10.88221 -13.55388,10.88221c0,0 -6.09224,4.8447 -9.29787,5.72493c-1.96442,0.5394 -5.87278,-0.81578 -5.87278,-0.81578l-4.31323,-3.0654c0,0 -11.01571,-1.42838 -14.33746,-2.89744c-3.90926,-1.72888 -1.95313,-3.70662 -3.71256,-6.35859c-1.77273,-2.67204 -8.13722,-7.06602 -8.13722,-7.06602c0,0 2.2435,-2.51237 2.33631,-5.46761c0.07816,-2.4886 -1.99936,-5.31716 -1.93172,-6.96567c0.13845,-3.37393 5.23499,-8.47322 5.23499,-8.47322c0,0 -0.87333,-10.25666 1.73557,-12.59849c1.63245,-1.46532 10.61749,-0.04489 10.61749,-0.04489c0,0 4.28197,-0.50802 6.31893,-2.12096c2.31982,-1.83692 4.45585,-5.73898 7.22574,-5.62532c3.82174,0.15681 9.12116,-2.35846 12.42678,-0.90531c1.66668,0.73269 1.12879,2.88317 2.54838,4.72975c2.41121,3.1365 6.34144,6.25019 6.34144,6.25019c0,0 2.94684,0.47553 5.01341,2.53713c2.22516,2.21988 3.60959,6.11301 4.44967,8.39163c0.96786,2.62521 -2.11629,10.31306 -2.11629,10.31306z" fill="#00b106"/><path d="M108.45353,82.31614c0.54642,-13.31653 6.45229,-13.6161 15.37885,-17.36629c5.35695,-2.25052 0.66241,-9.87637 6.99048,-10.95007c4.38024,-0.74321 9.48753,4.38887 13.86909,2.28936c1.63022,-0.78114 1.96539,-10.13967 3.84654,-10.25758c4.83786,-0.30322 7.34089,-5.74467 12.59517,-5.71946c0.77557,0.00372 3.14103,3.93079 3.92226,3.96285c12.17524,0.49958 13.67005,13.80923 21.40612,19.20862c14.48483,10.10967 29.66682,17.88927 28.73142,40.68587c-0.34294,8.3576 -4.11987,5.7905 -8.82584,7.56744c-2.96759,1.12053 -5.32062,6.77815 -10.51742,9.13328c-6.87926,3.11759 -10.32621,-1.36211 -16.47095,-0.59474c-12.65437,1.58032 -13.67736,-5.03167 -28.04473,-5.62121c-23.82427,-0.97758 -27.25298,-2.19731 -31.98459,-12.14944c-2.21396,-4.65669 -11.3538,-9.04109 -10.89639,-20.18866z" fill="url(#color-11)"/><path d="M142.5437,168.63033c0,0 0.01963,-1.04883 1.00389,-2.50797c2.77131,-4.10847 8.21989,-12.9834 6.51635,-21.36189c-1.05168,-5.17239 -7.05637,-7.90052 -9.14839,-12.33847c-2.6076,-5.5317 -7.32271,-16.45261 -7.32271,-16.45261l2.39341,-2.40487l3.26428,4.56163c0,0 1.32084,-1.86972 1.81623,-2.95908c0.48554,-1.06774 0.44968,-3.04762 0.44968,-3.04762l4.47094,1.57643c0,0 0.26486,2.73056 -0.27384,4.90398c-0.3955,1.59565 -1.49405,3.23089 -1.36414,4.91273c0.2035,2.63426 2.7236,4.52467 3.13161,5.22484c0.74289,1.27485 3.10612,2.61222 3.10612,2.61222c0,0 0.9622,-5.3503 1.03544,-7.81532c0.08566,-2.88305 -0.55293,-8.42619 -0.55293,-8.42619c0,0 3.29137,-1.89675 4.25071,-1.55675c1.35809,0.48132 5.51254,20.57242 6.31925,22.54331c2.23034,5.44906 4.48989,33.63998 4.48989,33.63998c0,0 -6.88632,10.99027 -9.46733,11.3883c-0.10025,0.01546 -8.10971,3.70159 -8.10971,3.70159l-2.16873,-3.31108l-5.81494,0.3334l2.36258,-1.9807l-12.76689,1.03771l8.47235,-6.1904l-1.70676,-1.69005z" fill="url(#color-12)"/></g><path d="M13.71585,183.91365l6.9805,-34.03857l10.46699,2.33472c0,0 -4.00028,23.6993 -4.99628,29.6c-0.42487,2.51711 -0.90917,5.38628 -0.90917,5.38628z" fill="url(#color-13)" stroke="none" stroke-width="0" stroke-linecap="butt"/><path d="M351.79274,261.44302l7.73584,-37.72184l11.59961,2.58736c0,0 -4.43315,26.26378 -5.53692,32.80299c-0.47084,2.78949 -1.00755,5.96912 -1.00755,5.96912z" fill="url(#color-14)" stroke="none" stroke-width="0" stroke-linecap="butt"/><path d="M457.94657,285.67377l7.73585,-37.72184l11.59961,2.58736c0,0 -4.43315,26.26377 -5.53692,32.80298c-0.47084,2.78949 -1.00755,5.96913 -1.00755,5.96913z" fill="url(#color-15)" stroke="none" stroke-width="0" stroke-linecap="butt"/><path d="M407.17735,275.28918l7.73584,-37.72184l11.59961,2.58736l-6.54447,38.77211z" fill="url(#color-16)" stroke="none" stroke-width="0" stroke-linecap="butt"/><path d="M-0.72045,160.20344l-0.84163,-8.84758l488.61634,105.16605c0.04645,3.3435 0.1386,6.39155 0.23955,9.54851l-0.25912,1.06599z" fill="url(#color-17)" stroke="none" stroke-width="0" stroke-linecap="butt"/><path d="M-0.72045,169.43427l-0.84163,-5.96296l488.97664,106.39256c0.07727,2.4991 0.15127,5.15127 0.20607,8.13135l-0.58594,2.41047z" fill="url(#color-18)" stroke="none" stroke-width="0" stroke-linecap="butt"/><path d="M-3.79636,173.96008l488.04138,116.51739c0,0 1.71479,48.12747 -0.26821,46.99989c-7.69547,-4.37586 -488.56079,-137.08587 -488.56079,-137.08587z" fill="#b0a79d" stroke="none" stroke-width="0" stroke-linecap="butt"/><path d="M-2.50556,198.79762l489.13692,134.42947l-8.11124,29.83913l-482.90532,-3.13388z" fill="#8a7b77" stroke="none" stroke-width="0" stroke-linecap="butt"/><path d="M361.03484,359.44421c0,0 -62.14216,-13.72035 -120.83214,-30.48041c-42.75555,-12.20968 -82.5591,-27.31245 -100.66846,-33.61557c-36.4638,-12.69155 -98.61302,-37.15401 -98.61302,-37.15401c0,0 -5.57352,-19.20813 0.4851,-19.17026c10.03271,0.0627 54.06035,19.51117 54.06035,19.51117l137.38635,19.77273c0,0 117.54671,52.15909 116.24999,52.15909c-1.62989,0 32.24604,9.44734 59.95764,18.262c21.34528,6.78963 38.06271,13.48117 38.06271,13.48117z" fill-opacity="0.9098" fill="#0f191f" stroke="none" stroke-width="0" stroke-linecap="butt"/><path d="M20.96564,254.83101c-1.68199,-1.22974 -4.92994,-2.76711 -7.35655,-7.16245c-2.66662,-4.83007 -3.35544,-11.46668 -3.11105,-14.81811c1.13123,-15.51279 6.04029,-38.26137 6.04029,-38.26137c0,0 2.15114,-9.1016 7.42755,-13.59498c6.21138,-5.28959 15.82036,-5.96653 17.68372,-3.8567c7.81143,8.84468 20.61454,69.22587 20.61454,69.22587c0,0 -3.22207,6.53839 -5.26123,8.93219c-1.50733,1.76948 -5.8678,4.13232 -5.8678,4.13232c0,0 -26.15079,-1.65863 -30.16947,-4.59677z" fill="#0f181d" stroke="none" stroke-width="0" stroke-linecap="butt"/><path d="M24.54023,251.92777c-11.47751,1.55629 -16.66246,-17.24602 -13.38687,-32.81836c1.36778,-6.50252 4.09518,-15.28573 7.8379,-20.33337c5.71669,-7.70985 13.15269,-10.61781 16.678,-10.4773c8.685,0.34617 9.32158,9.6034 9.49363,15.18854c0.85293,27.68817 -14.23242,47.57401 -20.62266,48.44049z" fill="#433f3a" stroke="none" stroke-width="0" stroke-linecap="butt"/><path d="M183.29253,309.14815l3.15994,-4.54969c0,0 -36.88115,-22.67857 -33.92858,-22.67857c1.60003,0 15.68821,-62.2816 24.01556,-59.27051c7.75453,2.80397 33.73729,2.27718 40.35533,18.56813c9.18335,22.60572 -2.22803,63.38095 -2.22803,63.38095l-5.11647,4.67391z" fill="#0e191d" stroke="none" stroke-width="0" stroke-linecap="butt"/><path d="M191.79399,233.65839c2.42837,0.19881 12.36327,3.46909 15.34767,7.09977c3.87314,4.71188 4.91957,28.27521 -0.51081,43.29445c-2.24761,6.21639 -8.01363,18.98291 -16.60308,22.76853c-8.48877,3.74126 -19.79757,-1.43057 -22.72746,-6.64298c-1.83898,-3.27164 -4.80797,-14.90592 -4.32707,-25.9846c0.40646,-9.36395 3.99152,-18.33098 5.50151,-21.51599c3.30567,-6.97262 8.61768,-12.30277 10.82699,-13.98599c5.04142,-3.84094 10.25059,-5.21671 12.49224,-5.03319z" fill="#484745" stroke="none" stroke-width="0" stroke-linecap="butt"/><path d="M204.92984,275.94892c-3.42998,16.1214 -13.1215,29.99186 -24.49662,28.46479c-12.14208,-1.63003 -17.11044,-20.23999 -14.76957,-36.55516c2.34087,-16.31517 14.07329,-30.40733 25.43412,-28.7773c11.36083,1.63003 17.73544,18.52124 13.83207,36.86767z" fill="#2f3437" stroke="#989896" stroke-width="1.5" stroke-linecap="butt"/><path d="M201.7583,275.16427c-3.25225,15.0958 -13.15389,25.75175 -22.11591,23.80073c-8.96202,-1.95102 -13.5907,-15.77019 -10.33844,-30.86599c3.25225,-15.0958 13.15389,-25.75174 22.11591,-23.80072c8.96202,1.95102 13.5907,15.77019 10.33845,30.86598z" fill="#1e292b" stroke="none" stroke-width="0" stroke-linecap="butt"/><path d="M192.54331,272.35749c-0.94304,5.57306 -4.76851,9.57297 -8.54444,8.93403c-3.77594,-0.63894 -6.07246,-5.67476 -5.12942,-11.24782c0.94304,-5.57306 4.76851,-9.57297 8.54445,-8.93403c3.77594,0.63894 6.07245,5.67476 5.12942,11.24782z" fill="url(#color-19)" stroke="none" stroke-width="0" stroke-linecap="butt"/><path d="M191.54674,271.12246c0,2.07107 -1.2592,3.75 -2.8125,3.75c-1.5533,0 -2.8125,-1.67893 -2.8125,-3.75c0,-2.07107 1.2592,-3.75 2.8125,-3.75c1.5533,0 2.8125,1.67893 2.8125,3.75z" fill="#9c7053" stroke="#969086" stroke-width="0.5" stroke-linecap="butt"/><path d="M228.68685,307.49541l17.53247,-26.83442c0,0 20.08681,-2.84994 20.58035,-2.73586c21.16649,4.89225 103.31575,31.37223 103.31575,31.37223c0,0 23.56823,-7.16177 25.48304,-1.59461c0.17618,0.51223 -1.63079,18.34125 -1.10728,18.80355c9.77591,8.63295 8.6547,12.46552 3.31462,12.11737c-0.71112,-0.04636 -52.65643,-6.2233 -93.27287,-13.24539c-37.296,-6.44802 -75.84609,-17.88287 -75.84609,-17.88287z" fill="url(#color-20)" stroke="none" stroke-width="0" stroke-linecap="butt"/><path d="M386.47905,330.28765l-5.25974,-5.25974h7.79221l9.74026,4.67533z" fill="#751f23" stroke="none" stroke-width="0" stroke-linecap="butt"/><path d="M388.23231,325.0279l1.94805,-16.94805l7.01299,-1.55845l0.77922,22.79221z" fill="#321a1e" stroke="none" stroke-width="0" stroke-linecap="butt"/><path d="M171.03183,174.94816l-31.12778,-8.06738c0,0 -43.87494,4.88238 -73.87163,4.95876c-12.89288,0.03283 -26.29711,-5.94958 -26.69583,-6.10256c-1.80644,-0.69308 91.93336,-4.12215 91.93336,-4.12215c0,0 76.0931,12.91568 94.56508,17.73984c16.95308,4.42748 49.31238,16.23688 49.31238,16.23688l-84.82983,-15.88148z" fill="#e06742" stroke="none" stroke-width="0" stroke-linecap="butt"/><path d="M211.34928,219.94816v-6.66667l128.33334,28.33334l2.61904,3.33334c0,0 -29.04298,-3.04457 -46.9543,-6.464c-23.95657,-4.57353 -83.99808,-18.536 -83.99808,-18.536z" fill="#142127" stroke="none" stroke-width="0" stroke-linecap="butt"/><path d="M172.90617,214.11373l12.09365,-21.23044l14.31753,19.46678z" fill="#aab0a6" stroke="none" stroke-width="0" stroke-linecap="butt"/><path d="M117.07524,189.3012c0,0 4.67517,-8.76141 8.20554,-12.54919c3.63098,-3.89575 13.287,-10.5105 13.287,-10.5105c0,0 21.43434,2.66879 30.94663,8.6897c7.4743,4.73094 16.06829,17.72821 16.06829,17.72821l-13.47515,20.825z" fill="url(#color-21)" stroke="none" stroke-width="0" stroke-linecap="butt"/><path d="M108.8804,183.92807c0,0 5.852,-8.05138 9.20437,-11.32487c2.93534,-2.86628 10.04936,-7.70498 10.04936,-7.70498c0,0 3.95481,0.29475 5.66089,0.41107c1.56537,0.10673 5.53314,0.97862 5.53314,0.97862c0,0 -10.61414,8.42452 -14.33398,12.46782c-2.9808,3.24 -7.8302,10.54548 -7.8302,10.54548c0,0 -2.73141,-0.96697 -3.86398,-1.70161c-1.51551,-0.98303 -4.4196,-3.67152 -4.4196,-3.67152z" fill="#a1a8a0" stroke="none" stroke-width="0" stroke-linecap="butt"/><path d="M377.5259,275.0195l-15,-21.38613c0,0 10.79059,7.45242 14.30683,10.51002c3.30196,2.87128 8.71297,9.09394 8.71297,9.09394l-2.98309,13.54044z" fill="#a33e35" stroke="none" stroke-width="0" stroke-linecap="butt"/><path d="M213.28989,273.71101l1.17647,-12.35294l55.29412,18.82353l-17.94118,5.88235z" fill="#a92225" stroke="none" stroke-width="0" stroke-linecap="butt"/><path d="M209.09885,301.94597l5.3675,-37.6467c0,0 10.25293,9.91453 16.71113,13.33641c6.67209,3.53521 21.81828,7.84006 21.81828,7.84006c0,0 -13.40912,9.46126 -16.26176,13.16969c-3.02015,3.9262 0.42505,11.58182 0.42505,11.58182z" fill="#b72525" stroke="none" stroke-width="0" stroke-linecap="butt"/><path d="M265.05449,314.4953c0,0 -22.15969,-2.84228 -28.1111,-7.11634c-7.4565,-5.35496 -21.66871,-11.91982 -21.66871,-11.91982l17.36077,5.5697l6.24257,5.52528l27.35294,-0.88235l13.0027,4.12203z" fill="#e74131" stroke="none" stroke-width="0" stroke-linecap="butt"/><path d="M265.6427,305.37764l-6.76471,-22.14233l5.50473,-1.6243l15.00894,27.75586c0,0 -1.13128,0.14904 -2.76688,-0.32552c-2.53801,-0.7364 -10.98209,-3.6637 -10.98209,-3.6637z" fill="#ae2125" stroke="none" stroke-width="0" stroke-linecap="butt"/><path d="M263.28981,312.43647l-24.11765,-5.58823l25.58824,-0.88235l12.35294,4.11765z" fill="#b21d26" stroke="none" stroke-width="0" stroke-linecap="butt"/><path d="M275.43147,310.81541l3.74068,-2.39851l25.88235,4.70589l9.24887,4.40272l1.04525,1.47964z" fill="#c22124" stroke="none" stroke-width="0" stroke-linecap="butt"/><path d="M186.59084,224.49609l22.47296,-9.60787l61.66382,16.85304c0,0 20.933,21.03337 26.90943,28.50742c3.84204,4.80482 7.75367,13.84052 7.75367,13.84052c0,0 -22.07761,-9.05524 -35.85609,-16.00571c-6.48823,-3.27295 -12.78281,-6.85621 -18.10315,-9.05549c-15.56753,-6.43521 -46.37689,-17.08165 -46.37689,-17.08165c0,0 -7.6103,-4.2028 -10.98503,-5.56453c-2.53856,-1.02433 -7.47872,-1.88574 -7.47872,-1.88574z" fill="#dd3b2c" stroke="none" stroke-width="0" stroke-linecap="butt"/><path d="M325.29832,300.60778l-34.2246,-23.16244l6.51031,-6.6947l39.625,9.66965l45.73011,6.64384c0,0 1.44369,7.06493 1.68137,10.92602c0.26085,4.23746 -0.46505,12.33193 -0.46505,12.33193c0,0 -19.26761,-0.26587 -30.18926,-2.47652c-7.65346,-1.54913 -28.66788,-7.23777 -28.66788,-7.23777z" fill="#b92325" stroke="none" stroke-width="0" stroke-linecap="butt"/><path d="M269.15549,280.95673l-3.28571,-12.57143l26.42857,9.57143l35,23.42857z" fill="#c02727" stroke="none" stroke-width="0" stroke-linecap="butt"/><path d="M382.46183,286.96173l-22.84843,0.56538l-5.85105,-2.99284l-11.18148,-2.16644l-5.21327,1.68445l-32.25683,-10.46198l-34.40417,-41.74021l52.66579,10.42592c0,0 13.3041,1.52412 17.96798,1.70809c1.40088,0.05525 -24.69159,-11.22568 -33.22222,-18.43474c-7.80508,-6.59591 -18.0584,-21.04738 -18.0584,-21.04738l69.68838,45.47578c0,0 13.87488,18.30415 15.51032,20.95894c5.07607,8.23991 7.20338,16.02505 7.20338,16.02505z" fill="url(#color-22)" stroke="none" stroke-width="0" stroke-linecap="butt"/><path d="M381.727,286.89349c0,0 -6.26465,0.78746 -9.84365,1.04478c-3.70252,0.2662 -12.01349,0.52665 -12.01349,0.52665l-5.85715,-3.85714l-13.14285,-2.57143l-3.42858,2.14286l-32.28571,-10.42858" fill="none" stroke="url(#color-23)" stroke-width="1" stroke-linecap="round"/><path d="M211.58782,244.52212c-1.40722,-3.63936 -5.16694,-12.17735 -5.16694,-12.17735c0,0 11.05575,3.48775 16.8955,5.40319c6.36915,2.08908 19.38529,7.13955 19.38529,7.13955l23.74414,23.22959l2.98239,12.97539l-54.72016,-20.16444c0,0 -1.68484,-12.69379 -3.1202,-16.40592z" fill="url(#color-24)" stroke="none" stroke-width="0" stroke-linecap="butt"/><path d="M214.27654,261.70921v-4.70588l13.82353,6.7647l-0.58823,2.05883z" fill="#b8afa1" stroke="none" stroke-width="0" stroke-linecap="butt"/><path d="M266.35294,267.92922l-22.75511,-22.75511l53.87755,25.91837l-6.42857,6.02041z" fill="url(#color-25)" stroke="none" stroke-width="0" stroke-linecap="butt"/><path d="M266.96272,267.78578l-16.2142,-15.2716l1.06118,-1.10127l14.9897,14.35324z" fill="#87918f" stroke="none" stroke-width="0" stroke-linecap="butt"/><path d="M266.76115,267.82714l0.10204,-7.65305h2.24489v7.7551z" fill="url(#color-26)" stroke="none" stroke-width="0" stroke-linecap="butt"/><path d="M280.18048,272.29429l-13.38556,-12.10331l1.13871,-2.03505l16.4468,15.5727z" fill="#6d7573" stroke="none" stroke-width="0" stroke-linecap="butt"/><path d="M273.39376,264.66391l-2.04081,-2.75511h5.61224l-0.10204,2.95918z" fill="#7c8683" stroke="none" stroke-width="0" stroke-linecap="butt"/><path d="M283.80199,273.84756v-7.14285h2.2449v7.14285z" fill="#6d7573" stroke="none" stroke-width="0" stroke-linecap="butt"/><path d="M384.12582,310.29329l-1.75049,-23.85369l6.63291,8.421l-1.23377,13.86057z" fill="#a33e35" stroke="none" stroke-width="0" stroke-linecap="butt"/><path d="M388.74152,294.68881c0,0 -2.50691,-3.22555 -3.6995,-4.49764c-1.06588,-1.13694 -2.39142,-3.50236 -2.39142,-3.50236l2.36364,-12.72728l7.63636,12c0,0 0.41562,3.98397 -0.29061,4.96183c-1.09089,1.51047 -3.61847,3.76544 -3.61847,3.76544z" fill="#566166" stroke="none" stroke-width="0" stroke-linecap="butt"/><path d="M153.02517,227.36176l-65.49296,-34.85916c0,0 6.65598,-2.55 9.91801,-3.22491c4.5011,-0.93126 15.18089,-2.38611 15.18089,-2.38611l62.99968,28.42792z" fill="url(#color-27)" stroke="none" stroke-width="0" stroke-linecap="butt"/><path d="M89.06257,258.36665l-43.77913,-17.06502c0,0 2.41297,-13.61452 3.1506,-20.01961c0.68066,-5.9103 1.11802,-17.04604 1.11802,-17.04604l35.23376,2.63277l80.70423,35.91549c0,0 -5.0829,12.99791 -6.54269,19.9052c-1.42678,6.75112 -2.11928,21.08072 -2.11928,21.08072z" fill="#c82e25" stroke="none" stroke-width="0" stroke-linecap="butt"/><path d="M384.37787,288.87066l-0.36363,-4.72728c0,0 4.27229,2.92818 4.65108,3.50462c0.05144,0.07827 -3.4145,-11.42145 -3.4145,-11.42145l1.85564,2.1854l4.33264,12.27063c0,0 -1.09358,0.72294 -1.35822,0.54404c-0.73429,-0.49638 -3.88483,-3.53778 -3.88483,-3.53778v3.63637z" fill="#a4aba5" stroke="none" stroke-width="0" stroke-linecap="butt"/><path d="M173.79993,213.84063l25.35211,-1.47887l10.14085,2.53521l-26.40845,11.61972c0,0 -7.13225,4.3579 -10.09257,7.19751c-2.99812,2.87587 -7.7842,9.95031 -7.7842,9.95031c0,0 -9.85189,6.23706 -14.14959,4.22868c-4.29771,-2.00839 -65.87757,-41.24552 -65.87757,-41.24552l3.16417,-14.38156c0,0 60.88456,31.27724 65.07405,31.51265c1.8453,0.10369 20.58122,-9.93812 20.58122,-9.93812z" fill="#e35b34" stroke="none" stroke-width="0" stroke-linecap="butt"/><path d="M387.28372,309.03704l1.73684,-14.52632c0,0 2.98604,-2.7029 3.72393,-4.60438c0.60321,-1.55443 -7.34594,-16.52002 -7.34594,-16.52002c0,0 4.18101,4.62362 7.59541,10.45854c3.56329,6.08934 6.38076,13.42502 7.10217,14.63227c1.06961,1.78994 1.71391,4.8757 1.71391,4.8757c0,0 -2.95659,2.93251 -5.22416,3.82957c-2.49932,0.98874 -9.30216,1.85464 -9.30216,1.85464z" fill="#8c2721" stroke="none" stroke-width="0" stroke-linecap="butt"/><path d="M46.12386,233.91106l1.47888,-3.16901l33.38028,1.05633l-21.76056,8.66198z" fill="#d87551" stroke="#a1291b" stroke-width="0" stroke-linecap="butt"/><path d="M61.75766,245.3195l-2.53521,-4.01408c0,0 7.02623,-6.23302 10.54881,-7.64206c3.84373,-1.53749 11.63428,-1.23118 11.63428,-1.23118l8.23944,18.38028z" fill="#11161c" stroke="none" stroke-width="0" stroke-linecap="butt"/><path d="M85.20836,207.08006l-36.5493,-2.32394c0,0 -1.5344,-17.78523 -13.85728,-23.37395c-12.8809,-2.43355 -19.10047,14.28945 -19.10047,14.28945c0,0 -2.43668,1.09096 -1.59944,-0.87866c1.82961,-4.30416 4.77929,-12.8307 8.46928,-19.62363c3.01104,-5.54305 7.00919,-9.93174 7.22325,-9.92989c2.74424,0.02365 14.42998,-0.19386 24.5507,1.26763c10.04851,1.45105 18.96476,4.58127 18.96476,4.58127c0,0 4.472,7.84479 7.09045,11.20107c3.25172,4.16799 8.18832,9.57939 8.18832,9.57939z" fill="#e77340" stroke="none" stroke-width="0" stroke-linecap="butt"/><path d="M42.46189,186.72796l-6.5493,-5.49295l22.1831,-14.3662c0,0 12.002,2.13531 14.4845,3.99719c2.58387,1.9379 4.52958,7.2 4.52958,7.2z" fill="#e88357" stroke="none" stroke-width="0" stroke-linecap="butt"/><path d="M88.50557,192.11081c0,0 -5.11051,-6.12534 -7.28785,-8.68284c-2.25646,-2.65044 -5.7981,-8.74227 -5.7981,-8.74227l24.50704,0.16933l12.25352,11.66165z" fill="url(#color-28)" stroke="none" stroke-width="0" stroke-linecap="butt"/><path d="M75.59215,174.63575l-2.15114,-3.46701c0,0 24.19053,-5.44927 33.82633,-6.48489c7.15726,-0.76924 21.66108,0.31231 21.66108,0.31231c0,0 -5.50643,2.54677 -8.5693,5.65681c-2.78928,2.83223 -11.52308,12.6298 -11.52308,12.6298l-9.16992,-8.31475z" fill="#151b1f" stroke="none" stroke-width="0" stroke-linecap="butt"/><path d="M172.46251,213.57314l12.31343,-20.68985" fill="none" stroke="#3d3e40" stroke-width="1.5" stroke-linecap="round"/><path d="M209.44452,214.47197l-29.40604,-38.09524l95.08522,19.35924l34.57932,21.53044l32.12246,25.777l-65.75425,-13.56801z" fill="url(#color-29)" stroke="none" stroke-width="0" stroke-linecap="butt"/><path d="M199.36515,212.80531c0,0 -15.59599,-20.5289 -21.20256,-27.64304c-3.52519,-4.47309 -9.19512,-10.92839 -9.19512,-10.92839c0,0 9.55066,0.56173 11.68461,3.01123c12.31878,14.1404 30.61783,38.65544 30.61783,38.65544z" fill="#e65327" stroke="none" stroke-width="0" stroke-linecap="butt"/><path d="M387.88745,336.59716c0,0 -29.79936,-4.3903 -43.03598,-6.52746c-11.43344,-1.84602 -31.76921,-5.55046 -31.76921,-5.55046" fill="none" stroke="#262e31" stroke-width="1.5" stroke-linecap="round"/><path d="M320.67958,318.09066l40.9091,6.81819" fill="none" stroke="#262e31" stroke-width="1.5" stroke-linecap="round"/><path d="M208.66667,302.18156c0,0 27.66642,8.00515 43.43823,11.63781c17.81083,4.10231 58.05527,11.73881 58.05527,11.73881l18.31169,-13.44156l46.94806,7.20779l18.31169,18.50649l7.20779,0.12987" fill="none" stroke="#323b40" stroke-width="1.5" stroke-linecap="round"/><path d="M192.31128,278.08377c0,3.85222 -3.03933,6.97507 -6.78852,6.97507c-3.74919,0 -6.78851,-3.12285 -6.78851,-6.97507c0,-3.85222 3.03932,-6.97506 6.78851,-6.97506c3.74919,0 6.78852,3.12284 6.78852,6.97506z" fill="url(#color-30)" stroke="none" stroke-width="0" stroke-linecap="butt"/><path d="M174.67174,253.31002c0,0 6.54935,-10.59228 17.01777,-7.83378c10.95866,4.63626 10.16973,18.14628 10.16973,18.14628" fill="none" stroke-opacity="0.23137" stroke="#e3d8cf" stroke-width="2" stroke-linecap="round"/><path d="M172.32799,262.52871l6.25,2.96875l-1.875,10" fill="none" stroke-opacity="0.17647" stroke="#e3d8cf" stroke-width="2" stroke-linecap="round"/><path d="M183.26549,298.77871c0,0 -6.46159,-0.25272 -11.12318,-6.93612c-4.52831,-6.49232 -2.31432,-20.09513 -2.31432,-20.09513" fill="none" stroke-opacity="0.14902" stroke="#e3d8cf" stroke-width="2" stroke-linecap="round"/><path d="M191.84253,292.77127c0,3.85222 -3.03933,6.97507 -6.78852,6.97507c-3.74919,0 -6.78851,-3.12285 -6.78851,-6.97507c0,-3.85222 3.03932,-6.97506 6.78851,-6.97506c3.74919,0 6.78852,3.12284 6.78852,6.97506z" fill="url(#color-31)" stroke="none" stroke-width="0" stroke-linecap="butt"/><path d="M199.03003,290.42752c0,3.85222 -3.03933,6.97507 -6.78852,6.97507c-3.74919,0 -6.78851,-3.12285 -6.78851,-6.97507c0,-3.85222 3.03932,-6.97506 6.78851,-6.97506c3.74919,0 6.78852,3.12284 6.78852,6.97506z" fill="url(#color-32)" stroke="none" stroke-width="0" stroke-linecap="butt"/><path d="M183.18864,291.28686c0,2.85983 -2.25635,5.17819 -5.0397,5.17819c-2.78335,0 -5.03969,-2.31836 -5.03969,-5.17819c0,-2.85983 2.25634,-5.17818 5.03969,-5.17818c2.78335,0 5.0397,2.31835 5.0397,5.17818z" fill="url(#color-33)" stroke="none" stroke-width="0" stroke-linecap="butt"/><path d="M206.62614,257.43084c0,3.43617 -2.71106,6.22173 -6.05533,6.22173c-3.34427,0 -6.05532,-2.78556 -6.05532,-6.22173c0,-3.43616 2.71105,-6.22171 6.05532,-6.22171c3.34427,0 6.05533,2.78555 6.05533,6.22171z" fill="url(#color-34)" stroke="none" stroke-width="0" stroke-linecap="butt"/><path d="M197.33472,256.18084c0,2.57322 -2.03021,4.65923 -4.53462,4.65923c-2.5044,0 -4.53461,-2.08601 -4.53461,-4.65923c0,-2.57322 2.03021,-4.65921 4.53461,-4.65921c2.5044,0 4.53462,2.08599 4.53462,4.65921z" fill="url(#color-35)" stroke="none" stroke-width="0" stroke-linecap="butt"/><path d="M192.01549,275.02871l6.5625,4.21875" fill="none" stroke-opacity="0.12549" stroke="#e3d8cf" stroke-width="2" stroke-linecap="round"/><path d="M189.82799,257.84126l5.15625,-14.6875" fill="none" stroke-opacity="0.18431" stroke="#e3d8cf" stroke-width="2" stroke-linecap="round"/><path d="M192.95299,261.27871c0,0 2.4466,0.52492 3.61098,1.51465c1.16439,0.98973 2.63902,3.79785 2.63902,3.79785" fill="none" stroke-opacity="0.23137" stroke="#e3d8cf" stroke-width="2" stroke-linecap="round"/><path d="M182.95299,262.37246c0,0 3.86741,-3.81848 6.94834,-0.20638c2.28307,2.6767 2.42666,7.39388 2.42666,7.39388" fill="none" stroke-opacity="0.12549" stroke="#e3d8cf" stroke-width="1" stroke-linecap="round"/><path d="M177.48424,294.40371l3.4375,-12.96875" fill="none" stroke-opacity="0.12549" stroke="#e3d8cf" stroke-width="2" stroke-linecap="round"/><path d="M183.26549,292.84121l0.78125,-11.40625" fill="none" stroke-opacity="0.23137" stroke="#e3d8cf" stroke-width="2" stroke-linecap="round"/><path d="M196.70972,254.15558c0,5.67652 -4.47866,10.27826 -10.00337,10.27826c-5.52471,0 -10.00335,-4.60174 -10.00335,-10.27826c0,-5.67652 4.47865,-10.27823 10.00335,-10.27823c5.52471,0 10.00337,4.60171 10.00337,10.27823z" fill="url(#color-36)" stroke="none" stroke-width="0" stroke-linecap="butt"/><path d="M188.42847,258.21801c0,5.67653 -4.47866,10.27826 -10.00337,10.27826c-5.52471,0 -10.00335,-4.60174 -10.00335,-10.27826c0,-5.67652 4.47865,-10.27823 10.00335,-10.27823c5.52471,0 10.00337,4.60171 10.00337,10.27823z" fill="url(#color-37)" stroke="none" stroke-width="0" stroke-linecap="butt"/><path d="M205.14722,253.37433c0,5.67652 -4.47866,10.27826 -10.00337,10.27826c-5.52471,0 -10.00335,-4.60174 -10.00335,-10.27826c0,-5.67652 4.47865,-10.27823 10.00335,-10.27823c5.52471,0 10.00337,4.60171 10.00337,10.27823z" fill="url(#color-38)" stroke="none" stroke-width="0" stroke-linecap="butt"/><path d="M196.70972,254.15558c0,5.67652 -4.47866,10.27826 -10.00337,10.27826c-5.52471,0 -10.00335,-4.60174 -10.00335,-10.27826c0,-5.67652 4.47865,-10.27823 10.00335,-10.27823c5.52471,0 10.00337,4.60171 10.00337,10.27823z" fill="url(#color-39)" stroke="none" stroke-width="0" stroke-linecap="butt"/><path d="M188.87378,285.0519c0,4.16255 -3.28417,7.53696 -7.3354,7.53696c-4.05122,0 -7.33539,-3.37441 -7.33539,-7.53696c0,-4.16255 3.28417,-7.53697 7.33539,-7.53697c4.05122,0 7.3354,3.37441 7.3354,7.53697z" fill="url(#color-40)" stroke="none" stroke-width="0" stroke-linecap="butt"/><path d="M189.96753,292.67377c0,6.1132 -4.82319,11.06892 -10.7729,11.06892c-5.9497,0 -10.77289,-4.95572 -10.77289,-11.06892c0,-6.1132 4.82318,-11.06892 10.77289,-11.06892c5.9497,0 10.7729,4.95572 10.7729,11.06892z" fill="url(#color-41)" stroke="none" stroke-width="0" stroke-linecap="butt"/><path d="M45.46036,241.69164l110.73692,42.45912" fill="none" stroke="#948984" stroke-width="1.5" stroke-linecap="round"/><path d="M41.21202,226.65846c-3.35405,13.36167 -10.75176,24.43566 -18.2659,22.43739c-8.02077,-2.13299 -10.12514,-18.11624 -7.48741,-31.70928c2.63773,-13.59304 11.41616,-24.72594 18.91397,-22.64186c7.49781,2.08408 10.65631,16.70796 6.83935,31.91375z" fill="#2f3437" stroke="#989896" stroke-width="1.5" stroke-linecap="butt"/><path d="M39.14052,225.79908c-3.16777,12.50909 -10.49516,20.86287 -16.36618,18.65868c-5.87101,-2.20419 -8.06243,-14.13166 -4.89465,-26.64075c3.16777,-12.50909 10.49516,-20.86286 16.36618,-18.65867c5.87102,2.20419 8.06243,14.13166 4.89466,26.64075z" fill="#1e292b" stroke="none" stroke-width="0" stroke-linecap="butt"/><path d="M33.15637,222.8584c-0.99702,4.63424 -3.82026,7.76317 -6.30589,6.98867c-2.48563,-0.77451 -3.69239,-5.15916 -2.69537,-9.7934c0.99702,-4.63424 3.82026,-7.76317 6.3059,-6.98866c2.48563,0.77451 3.69238,5.15915 2.69536,9.7934z" fill="url(#color-42)" stroke="none" stroke-width="0" stroke-linecap="butt"/><path d="M32.5703,221.75593c-0.13593,1.74412 -1.08901,3.07917 -2.12877,2.98191c-1.03976,-0.09726 -1.77246,-1.59 -1.63654,-3.33412c0.13593,-1.74412 1.08901,-3.07917 2.12877,-2.98191c1.03976,0.09726 1.77246,1.59 1.63653,3.33413z" fill="#9c7053" stroke="#969086" stroke-width="0.5" stroke-linecap="butt"/><path d="M32.62521,227.66612c-0.25283,3.2441 -2.49226,5.68366 -5.00193,5.4489c-2.50967,-0.23476 -4.33919,-3.05493 -4.08637,-6.29903c0.25283,-3.2441 2.49226,-5.68365 5.00193,-5.44889c2.50967,0.23476 4.3392,3.05492 4.08637,6.29903z" fill="url(#color-43)" stroke="none" stroke-width="0" stroke-linecap="butt"/><path d="M22.44353,205.69872c0,0 5.07923,-8.51006 11.90562,-5.53154c7.03131,4.59056 5.61653,15.91845 5.61653,15.91845" fill="none" stroke-opacity="0.23137" stroke="#e3d8cf" stroke-width="2" stroke-linecap="round"/><path d="M20.26951,213.31543l3.98883,2.89144l-1.91141,8.30397" fill="none" stroke-opacity="0.17647" stroke="#e3d8cf" stroke-width="2" stroke-linecap="round"/><path d="M25.21191,244.52777c0,0 -4.30873,-0.61742 -6.99049,-6.53765c-2.60509,-5.75097 -0.23031,-17.06778 -0.23031,-17.06778" fill="none" stroke-opacity="0.14902" stroke="#e3d8cf" stroke-width="2" stroke-linecap="round"/><path d="M31.34755,240.00567c-0.25283,3.2441 -2.49226,5.68365 -5.00193,5.44889c-2.50967,-0.23476 -4.33919,-3.05493 -4.08637,-6.29903c0.25283,-3.2441 2.49226,-5.68366 5.00193,-5.4489c2.50967,0.23476 4.33919,3.05493 4.08636,6.29903z" fill="url(#color-44)" stroke="none" stroke-width="0" stroke-linecap="butt"/><path d="M36.31251,238.48197c-0.25283,3.2441 -2.49227,5.68365 -5.00193,5.44889c-2.50966,-0.23476 -4.33919,-3.05493 -4.08637,-6.29903c0.25283,-3.2441 2.49227,-5.68365 5.00193,-5.44889c2.50966,0.23476 4.33919,3.05492 4.08637,6.29903z" fill="url(#color-45)" stroke="none" stroke-width="0" stroke-linecap="butt"/><path d="M25.65217,238.21375c-0.1877,2.40838 -1.85022,4.21947 -3.71336,4.04519c-1.86314,-0.17428 -3.22135,-2.26793 -3.03365,-4.67631c0.1877,-2.40838 1.85021,-4.21946 3.71336,-4.04518c1.86314,0.17428 3.22136,2.26793 3.03366,4.67631z" fill="url(#color-46)" stroke="none" stroke-width="0" stroke-linecap="butt"/><path d="M43.56295,211.16987c-0.22552,2.89372 -2.22309,5.0698 -4.4617,4.86039c-2.23861,-0.20941 -3.87054,-2.72499 -3.64502,-5.61871c0.22552,-2.89372 2.22308,-5.06978 4.46169,-4.86038c2.23861,0.20941 3.87055,2.72498 3.64503,5.6187z" fill="url(#color-47)" stroke="none" stroke-width="0" stroke-linecap="butt"/><path d="M37.42533,209.53542c-0.16889,2.167 -1.66479,3.79658 -3.3412,3.63977c-1.67641,-0.15681 -2.89851,-2.04064 -2.72962,-4.20765c0.16888,-2.167 1.66479,-3.79657 3.3412,-3.63976c1.67641,0.15681 2.89851,2.04064 2.72962,4.20764z" fill="url(#color-48)" stroke="none" stroke-width="0" stroke-linecap="butt"/><path d="M36.74374,229.03856l-4.11597,-3.96368" fill="none" stroke-opacity="0.12549" stroke="#e3d8cf" stroke-width="2" stroke-linecap="round"/><path d="M36.70696,198.41764l-4.41548,12.04603" fill="none" stroke-opacity="0.18431" stroke="#e3d8cf" stroke-width="2" stroke-linecap="round"/><path d="M34.15769,213.55419c0,0 1.60327,0.59526 2.31774,1.50165c0.71447,0.9064 1.51727,3.36355 1.51727,3.36355" fill="none" stroke-opacity="0.23137" stroke="#e3d8cf" stroke-width="2" stroke-linecap="round"/><path d="M27.39212,213.84913c0,0 2.8394,-2.97352 4.66467,0.26128c1.35259,2.3971 1.13911,6.37861 1.13911,6.37861" fill="none" stroke-opacity="0.12549" stroke="#e3d8cf" stroke-width="1" stroke-linecap="round"/><path d="M24.78133,229.77518l-3.15217,10.70623" fill="none" stroke-opacity="0.12549" stroke="#e3d8cf" stroke-width="2" stroke-linecap="round"/><path d="M25.6016,239.52758l1.27156,-9.55671" fill="none" stroke-opacity="0.23137" stroke="#e3d8cf" stroke-width="2" stroke-linecap="round"/><path d="M37.13994,207.79072c-0.37255,4.78042 -3.67254,8.37528 -7.37071,8.02934c-3.69817,-0.34593 -6.3941,-4.50167 -6.02154,-9.28208c0.37255,-4.78042 3.67252,-8.37525 7.37069,-8.02931c3.69817,0.34593 6.39411,4.50164 6.02156,9.28205z" fill="url(#color-49)" stroke="none" stroke-width="0" stroke-linecap="butt"/><path d="M31.32999,210.69335c-0.37255,4.78042 -3.67253,8.37528 -7.37071,8.02934c-3.69817,-0.34593 -6.3941,-4.50166 -6.02154,-9.28208c0.37255,-4.78042 3.67252,-8.37525 7.37069,-8.02932c3.69817,0.34593 6.39411,4.50164 6.02156,9.28205z" fill="url(#color-50)" stroke="none" stroke-width="0" stroke-linecap="butt"/><path d="M42.83921,207.66111c-0.37255,4.78042 -3.67254,8.37527 -7.37071,8.02934c-3.69817,-0.34593 -6.3941,-4.50166 -6.02154,-9.28207c0.37255,-4.78042 3.67253,-8.37526 7.3707,-8.02932c3.69817,0.34593 6.39411,4.50164 6.02155,9.28206z" fill="url(#color-51)" stroke="none" stroke-width="0" stroke-linecap="butt"/><path d="M37.13994,207.79072c-0.37255,4.78042 -3.67254,8.37528 -7.37071,8.02934c-3.69817,-0.34593 -6.3941,-4.50167 -6.02154,-9.28208c0.37255,-4.78042 3.67252,-8.37525 7.37069,-8.02931c3.69817,0.34593 6.39411,4.50164 6.02156,9.28205z" fill="url(#color-52)" stroke="none" stroke-width="0" stroke-linecap="butt"/><path d="M29.86694,233.31904c-0.2732,3.50544 -2.69305,6.14152 -5.40488,5.88785c-2.71184,-0.25367 -4.68875,-3.30104 -4.41556,-6.80648c0.2732,-3.50544 2.69304,-6.14152 5.40488,-5.88785c2.71184,0.25367 4.68876,3.30104 4.41557,6.80648z" fill="url(#color-53)" stroke="none" stroke-width="0" stroke-linecap="butt"/><path d="M452.24974,-3.2951c-28.63868,148.10673 -103.71125,269.28174 -206.95737,345.00024c-10.98158,8.05365 -249.26341,21.01275 -249.26341,21.01275l-0.59801,-365.37629z" fill="url(#color-54)" stroke="none" stroke-width="NaN" stroke-linecap="butt"/><path d="M30.09885,239.80621c-0.40122,5.14816 -3.95505,9.01954 -7.93771,8.647c-3.98266,-0.37255 -6.88599,-4.84795 -6.48477,-9.99611c0.40122,-5.14816 3.95504,-9.01955 7.9377,-8.647c3.98266,0.37255 6.88599,4.84796 6.48478,9.99611z" fill="url(#color-55)" stroke="none" stroke-width="0" stroke-linecap="butt"/><g stroke-linecap="butt"><path d="M180.37806,91.65329l-10.81006,-88.10415l245.34064,37.75758l10.80998,88.10413z" fill="url(#color-56)" stroke="#ffffff" stroke-width="0"/><text transform="translate(183.01939,76.9941) rotate(8.98016) scale(1.65937,1.9359) skewX(17.28815)" font-size="40" xml:space="preserve" fill="#ffffff" fill-rule="nonzero" stroke="#ffffff" stroke-width="3" stroke-linecap="butt" stroke-linejoin="miter" stroke-miterlimit="10" stroke-dasharray="" stroke-dashoffset="0" font-family="Sans Serif" font-weight="normal" text-anchor="start" style="mix-blend-mode: normal"><tspan x="0" dy="0"> NITRO</tspan></text><text transform="translate(170.19803,154.63206) rotate(9.53278) scale(1.59895,1.82755) skewX(16.78048)" font-size="40" xml:space="preserve" fill="#2ee6ff" fill-rule="nonzero" stroke="#ff7e27" stroke-width="3" stroke-linecap="butt" stroke-linejoin="miter" stroke-miterlimit="10" stroke-dasharray="" stroke-dashoffset="0" font-family="Sans Serif" font-weight="normal" text-anchor="start" style="mix-blend-mode: normal"><tspan x="0" dy="0"> RACING</tspan></text><text transform="translate(173.093,155.07533) rotate(9.53278) scale(1.59895,1.82755) skewX(16.78048)" font-size="40" xml:space="preserve" fill="#00d0ff" fill-rule="nonzero" stroke="#f15c33" stroke-width="3" stroke-linecap="butt" stroke-linejoin="miter" stroke-miterlimit="10" stroke-dasharray="" stroke-dashoffset="0" font-family="Sans Serif" font-weight="normal" text-anchor="start" style="mix-blend-mode: normal"><tspan x="0" dy="0"> RACING</tspan></text><text transform="translate(175.98793,155.51857) rotate(9.53278) scale(1.59895,1.82755) skewX(16.78048)" font-size="40" xml:space="preserve" fill="#00aaf2" fill-rule="nonzero" stroke="#d83b2b" stroke-width="3" stroke-linecap="butt" stroke-linejoin="miter" stroke-miterlimit="10" stroke-dasharray="" stroke-dashoffset="0" font-family="Sans Serif" font-weight="normal" text-anchor="start" style="mix-blend-mode: normal"><tspan x="0" dy="0"> RACING</tspan></text><text transform="translate(196.81004,158.82766) rotate(9.54122) scale(1.58307,1.82744) skewX(17.12456)" font-size="40" xml:space="preserve" fill="#ffffff" fill-rule="nonzero" stroke="#ffffff" stroke-width="3" stroke-linecap="butt" stroke-linejoin="miter" stroke-miterlimit="10" stroke-dasharray="" stroke-dashoffset="0" font-family="Sans Serif" font-weight="normal" text-anchor="start" style="mix-blend-mode: normal"><tspan x="0" dy="0">RACING</tspan></text></g><g data-paper-data="{&quot;index&quot;:null}" stroke="none" stroke-width="0" stroke-linecap="butt"><path d="" fill="#009405"/><path d="" fill="#009405"/><path d="M438.30046,256.30113c0,0 12.43156,-6.56982 15.03539,-9.18341c1.5319,-1.53767 -2.35388,-3.76412 -2.35388,-3.76412c0,0 9.90701,-5.74129 10.97458,-8.63162c1.65371,-4.4771 17.11466,-21.26669 12.2025,-39.9322c-1.645,-6.25084 -7.34945,-9.02045 -11.06048,-14.71317c-5.73535,-8.79814 -9.75482,-23.93326 -14.69328,-33.06071c-4.06361,-7.51045 -9.72712,-9.53514 -9.03018,-12.87246c0.16432,-0.78678 2.34041,-2.83625 6.43884,0.20699c3.59893,2.67235 12.5828,17.73958 12.5828,17.73958c0,0 3.32622,-3.86858 3.90241,-8.26157c0.90005,-6.86195 -0.60768,-15.15456 1.06779,-13.14244c2.29024,2.75038 5.67987,1.10648 5.67987,1.10648c0,0 1.46218,7.70301 1.10834,15.67492c-0.32218,7.25949 -4.23853,11.60424 -3.78906,14.1695c0.89314,5.09735 9.86342,13.25685 9.86342,13.25685c0,0 4.11473,-15.56066 2.45694,-23.28623c-1.97972,-9.22574 -6.37738,-18.14951 -5.1307,-18.77276c1.07612,-0.538 4.44208,1.20233 8.12515,5.82898c0.4293,0.53929 1.00576,-0.73623 1.62085,-2.43719c0,13.65466 0,27.81369 0,38.33542c0,5.07937 2.46732,9.99595 2.64941,15.04677c0.33491,9.28999 -0.49771,20.10645 0.51742,29.21429c0.28468,2.55422 0.76877,5.14235 1.35148,7.73301c0,0.36946 0,0.73891 0,1.10837c0,3.40085 0.34548,6.27992 1.012,9.54767c0.43021,2.10923 -0.17081,4.99966 -0.12912,7.2269c0.0435,2.32389 0.54748,4.62165 1.012,6.89906c0.39466,1.93493 -0.12913,5.30355 -0.12913,7.2269c0,2.77578 -0.11845,5.62626 -0.19891,8.48528l-11.35955,-6.60281l-7.63992,3.33011l-3.4121,-5.34637l-10.35672,0.05897l4.06875,-2.93952z" fill="#633713"/><path d="" fill="#633713"/><path d="M475.63937,197.00753c-4.51435,-2.06617 0.15007,-21.08651 0.15007,-21.08651c0,0 3.67801,-11.06653 2.70874,-18.37051c-0.39786,-2.99806 1.9257,-5.61693 4.80358,-7.66278c0,9.02345 0,17.65762 0,24.67423c0,5.07937 2.46732,9.99595 2.64941,15.04677c0.10592,2.93811 0.09506,6.0289 0.0628,9.17004c-3.92965,-0.07707 -7.70937,-0.5514 -10.3746,-1.77124z" fill="url(#color-57)"/><path d="" fill="url(#color-58)"/><path d="M482.85153,125.75081c-4.4288,8.67392 -21.36882,15.97601 -21.36882,15.97601c0,0 -9.60238,7.10939 -14.56669,8.28993c-3.04209,0.72345 -8.96597,-1.56252 -8.96597,-1.56252l-6.45438,-4.93091c0,0 -16.82306,-2.77465 -21.84098,-5.20418c-5.90549,-2.85926 -2.79992,-5.78964 -5.35848,-9.9511c-2.57798,-4.19293 -12.1087,-11.27069 -12.1087,-11.27069c0,0 3.57473,-3.73529 3.87361,-8.26388c0.25171,-3.81353 -2.7855,-8.26272 -2.59442,-10.78806c0.39107,-5.16842 8.47952,-12.72114 8.47952,-12.72114c0,0 -0.7965,-15.78058 3.32975,-19.2349c2.58188,-2.16144 16.29023,0.49349 16.29023,0.49349c0,0 6.59566,-0.55252 9.8059,-2.91896c3.65604,-2.69504 7.1395,-8.56793 11.38264,-8.24687c5.85444,0.44298 14.11725,-3.13489 19.11131,-0.7306c2.51797,1.21223 1.57897,4.48272 3.65887,7.3907c3.53282,4.93929 9.39707,9.92403 9.39707,9.92403c0,0 4.49543,0.88556 7.55647,4.15764c0.86846,0.92836 1.64123,2.03184 2.3298,3.21847c-0.18155,6.73223 -0.25886,13.46731 -0.40936,20.20042c-0.0608,2.72031 -1.09715,5.5784 -1.09715,8.32031c0,4.94216 0,10.68681 0,16.80474c-0.13928,0.38135 -0.28909,0.73248 -0.45023,1.04807z" fill="#00a706"/><path d="M483.25082,153.31136l-9.00392,-6.87871c0,0 -23.46829,-3.87067 -30.46836,-7.25988c-8.23819,-3.98866 -3.90585,-8.07659 -7.47514,-13.88182c-3.59628,-5.8492 -16.89175,-15.72268 -16.89175,-15.72268c0,0 4.98676,-5.21078 5.40374,-11.52817c0.35114,-5.31989 -3.88582,-11.52653 -3.61926,-15.04938c0.54555,-7.21 11.82903,-17.74611 11.82903,-17.74611c0,0 -1.11112,-22.01404 4.64501,-26.83279c3.60177,-3.01523 22.72499,0.6884 22.72499,0.6884c0,0 9.20102,-0.77082 13.67932,-4.072c3.04643,-2.24568 6.00696,-6.07303 9.15877,-8.69586c0.01744,3.67245 0.14385,7.34782 0.13081,11.01989c-0.04514,12.71426 -0.06231,101.54763 -0.06231,115.97851c-0.03357,-0.0127 -0.05095,-0.01941 -0.05095,-0.01941z" fill="#00a005"/><path d="" fill="#00a005"/><path d="M467.90018,145.53644c-6.41674,-3.1068 -3.04231,-6.29087 -5.82242,-10.81261c-2.80115,-4.55598 -13.15704,-12.24645 -13.15704,-12.24645c0,0 3.8842,-4.05868 4.20899,-8.97935c0.2735,-4.14368 -3.02668,-8.97807 -2.81905,-11.72204c0.42494,-5.61594 9.21368,-13.82249 9.21368,-13.82249c0,0 -0.86546,-17.1468 3.61802,-20.90017c2.80542,-2.34856 17.70058,0.5362 17.70058,0.5362c0,0 1.79957,-0.15076 4.03408,-0.62472c0.10565,2.94336 0.13695,5.8822 0.0393,8.81155c-0.26437,7.93124 -0.34009,15.86765 -0.51742,23.80131c-0.0608,2.72031 -1.09715,5.5784 -1.09715,8.32031c0,11.40434 0,27.08179 0,41.75857c-5.57303,-1.11403 -12.41352,-2.67339 -15.40158,-4.12012z" fill="#00b106"/><path d="" fill="#00b106"/><path d="M409.18685,90.64875c1.67717,-22.16549 11.53874,-22.32496 26.63397,-28.06231c9.05886,-3.44303 1.67254,-16.4245 12.2824,-17.85004c7.34407,-0.98676 15.56191,7.86168 22.98624,4.61423c2.76232,-1.20824 3.85959,-16.78842 7.00201,-16.8767c1.89986,-0.05337 3.60098,-0.5875 5.20558,-1.36893c0.03698,2.08272 0.07441,4.16552 0.06702,6.24725c-0.04514,12.71426 -0.06231,96.10633 -0.06231,110.14728c-1.40742,-0.19673 -2.90283,-0.35879 -4.49887,-0.47956c-39.65573,-3.00057 -45.30074,-5.23102 -52.615,-22.09224c-3.42239,-7.88952 -18.40501,-15.72373 -17.00102,-34.27897z" fill="url(#color-59)"/><path d="" fill="url(#color-60)"/><path d="M461.0434,236.48524c0,0 0.09308,-1.74714 1.81769,-4.1227c4.85585,-6.6888 14.44868,-21.16859 12.09127,-35.2325c-1.45534,-8.68224 -11.30739,-13.57523 -14.5391,-21.09313c-4.02818,-9.37069 -11.25917,-27.84579 -11.25917,-27.84579l4.12789,-3.87086l5.17861,7.79151c0,0 2.30928,-3.04056 3.19771,-4.82788c0.87078,-1.75185 0.92495,-5.05411 0.92495,-5.05411l7.36175,2.885c0,0 0.28434,4.56673 -0.73868,8.15854c-0.75107,2.63698 -2.67632,5.29948 -2.55657,8.11039c0.1876,4.40267 4.27949,7.69877 4.9193,8.88935c1.16493,2.16776 5.02718,4.53298 5.02718,4.53298c0,0 1.91178,-8.86289 2.17572,-12.96755c0.30871,-4.80074 -0.43675,-14.07718 -0.43675,-14.07718c0,0 2.77363,-1.47331 4.96656,-2.12829c0,10.53975 0,20.81569 0,28.92894c0,5.07937 2.46732,9.99595 2.64941,15.04677c0.33491,9.28999 -0.49771,20.10645 0.51742,29.21429c0.28468,2.55422 0.76877,5.14235 1.35148,7.73301c0,0.36946 0,0.73891 0,1.10837c0,3.40085 0.34548,6.27992 1.012,9.54767c0.43021,2.10923 -0.17081,4.99966 -0.12912,7.2269c0.0435,2.32389 0.54748,4.62165 1.012,6.89906c0.11446,0.56119 0.15167,1.24299 0.1468,1.97513c-2.36836,2.63334 -4.59749,4.64079 -6.00365,4.80821c-0.16799,0.02 -13.73086,5.70336 -13.73086,5.70336l-3.42444,-5.64395l-9.71193,0.22109l4.05211,-3.16561l-21.34047,0.99499l14.47856,-9.83103l-2.74769,-2.91532z" fill="url(#color-61)"/></g><path d="M168.87033,222.50261c0,0 -6.47638,12.10995 -8.71511,19.63208c-2.87981,9.67617 -7.12995,33.60736 -7.12995,33.60736l-58.52113,-26.40845c0,0 -9.40906,-19.93251 -9.87524,-30.21577c-0.39362,-8.68268 0.7638,-14.78783 1.74823,-18.97972c1.4484,-6.16755 3.04394,-8.19343 3.04394,-8.19343l22.61829,-4.93503" fill="none" stroke="#b92f20" stroke-width="1" stroke-linecap="round"/><path d="M155.63082,215.53078l5.70423,-2.11267l8.4507,1.69014c0,0 -1.83518,2.27199 -0.5198,3.46596c1.2119,1.10005 5.60907,1.09342 5.0429,1.87812c-0.56749,0.78652 -2.73983,3.33716 -5.14933,3.83408c-1.94927,0.40199 -3.66454,-3.39243 -3.82903,-3.29373c-1.01604,0.60963 -3.99544,-0.81401 -3.99544,-0.81401z" fill="#811e22" stroke="none" stroke-width="0" stroke-linecap="butt"/><path d="M137.46186,197.57303l-1.69014,-7.60564c0,0 14.55289,1.52186 23.14252,4.69868c3.79457,1.40339 5.57519,5.34026 5.86797,5.85554c0.75977,1.33721 0.14445,2.9669 0.14445,2.9669z" fill="#d8322d" stroke="none" stroke-width="0" stroke-linecap="butt"/><path d="M154.78582,207.29134l-21.03158,-4.96449l-2.29308,-7.04843l24.381,5.88616l9.08451,1.47888l-4.43662,13.52112c0,0 -10.86737,2.7431 -11.90955,1.12194c-0.59446,-0.92472 6.20532,-9.99517 6.20532,-9.99517z" fill="#a12523" stroke="none" stroke-width="0" stroke-linecap="butt"/><path d="M131.41117,195.35005c0,0 1.39355,-3.07238 2.10596,-4.00794c0.38384,-0.50406 1.96714,-1.2986 1.96714,-1.2986c0,0 3.61917,2.17712 4.59978,3.44828c0.91646,1.188 0.9693,4.08123 0.9693,4.08123z" fill="#d95a56" stroke="none" stroke-width="0" stroke-linecap="butt"/></g></g></svg>