<svg version="1.1" xmlns="http://www.w3.org/2000/svg" xmlns:xlink="http://www.w3.org/1999/xlink" width="547.48082" height="360.53869" viewBox="0,0,547.48082,360.53869"><defs><radialGradient cx="244.99999" cy="184.77428" r="191.57099" gradientUnits="userSpaceOnUse" id="color-1"><stop offset="0" stop-color="#6c6c6c"/><stop offset="1" stop-color="#d3d3d3"/></radialGradient><linearGradient x1="272.0102" y1="184.77428" x2="388.31373" y2="184.77428" gradientUnits="userSpaceOnUse" id="color-2"><stop offset="0" stop-color="#545454"/><stop offset="1" stop-color="#333333"/></linearGradient><linearGradient x1="53.77621" y1="184.77428" x2="271.91499" y2="184.77428" gradientUnits="userSpaceOnUse" id="color-3"><stop offset="0" stop-color="#4c4c4c"/><stop offset="1" stop-color="#545454"/></linearGradient><linearGradient x1="243.23036" y1="255.95714" x2="243.23036" y2="243.36091" gradientUnits="userSpaceOnUse" id="color-4"><stop offset="0" stop-color="#4c4c4c"/><stop offset="1" stop-color="#4c4c4c" stop-opacity="0"/></linearGradient><linearGradient x1="243.23035" y1="114.07682" x2="243.23035" y2="126.67305" gradientUnits="userSpaceOnUse" id="color-5"><stop offset="0" stop-color="#4c4c4c"/><stop offset="1" stop-color="#4c4c4c" stop-opacity="0"/></linearGradient></defs><g transform="translate(20.77804,-1.09609)"><g data-paper-data="{&quot;isPaintingLayer&quot;:true}" fill-rule="nonzero" stroke-linejoin="miter" stroke-miterlimit="10" stroke-dasharray="" stroke-dashoffset="0" style="mix-blend-mode: normal"><path d="M64.39978,120.33865l42.70248,-6.45745h40.82774l18.33082,2.49966l1.87474,3.95779" data-paper-data="{&quot;origPos&quot;:null}" fill="#666666" stroke="#000000" stroke-width="0" stroke-linecap="round"/><path d="M104.81091,119.92204l2.08305,-5.83254" data-paper-data="{&quot;origPos&quot;:null}" fill="none" stroke="#000000" stroke-width="0" stroke-linecap="round"/><path d="M148.55491,114.08951l1.04153,5.62422" data-paper-data="{&quot;origPos&quot;:null}" fill="none" stroke="#000000" stroke-width="0" stroke-linecap="round"/><path d="M336.02923,120.13035l2.49967,-4.3744l18.95573,-1.66643h40.82775l13.1232,0.83321l4.3744,5.62423" data-paper-data="{&quot;origPos&quot;:null}" fill="#666666" stroke="#000000" stroke-width="0" stroke-linecap="round"/><path d="M355.19328,120.13035l2.08305,-5.83254" data-paper-data="{&quot;origPos&quot;:null}" fill="none" stroke="#000000" stroke-width="0" stroke-linecap="round"/><path d="M398.93728,114.29781l1.04152,5.62423" data-paper-data="{&quot;origPos&quot;:null}" fill="none" stroke="#000000" stroke-width="0" stroke-linecap="round"/><path d="M434.48795,224.9771l-18.60857,24.16336h-362.45035v-128.73236h362.45035l18.60857,24.16336c0,0 2.08304,24.21438 2.08304,39.71283c0,15.88089 -2.08304,40.69283 -2.08304,40.69283z" data-paper-data="{&quot;origPos&quot;:null}" fill="url(#color-1)" stroke="#000000" stroke-width="0" stroke-linecap="round"/><path d="M258.3315,126.37949l0.05273,-3.37435l1.61371,-2.45818" data-paper-data="{&quot;origPos&quot;:null}" fill="none" stroke="#000000" stroke-width="0" stroke-linecap="round"/><path d="M334.15449,126.17119l-0.06318,-3.60671l1.10472,-2.01752" data-paper-data="{&quot;origPos&quot;:null}" fill="none" stroke="#000000" stroke-width="0" stroke-linecap="round"/><path d="M168.13552,249.20988l-1.87474,3.95779l-18.33082,2.49966h-40.82774l-42.70248,-6.45745" data-paper-data="{&quot;origPos&quot;:null,&quot;index&quot;:null}" fill="#666666" stroke="#000000" stroke-width="0" stroke-linecap="round"/><path d="M104.81091,249.62649l2.08305,5.83254" data-paper-data="{&quot;origPos&quot;:null,&quot;index&quot;:null}" fill="none" stroke="#000000" stroke-width="0" stroke-linecap="round"/><path d="M149.59643,249.8348l-1.04153,5.62422" data-paper-data="{&quot;origPos&quot;:null,&quot;index&quot;:null}" fill="none" stroke="#000000" stroke-width="0" stroke-linecap="round"/><path d="M415.80998,249.00157l-4.3744,5.62423l-13.1232,0.83321h-40.82775l-18.95573,-1.66644l-2.49967,-4.3744" data-paper-data="{&quot;origPos&quot;:null,&quot;index&quot;:null}" fill="#666666" stroke="#000000" stroke-width="0" stroke-linecap="round"/><path d="M357.27633,255.25073l-2.08305,-5.83254" data-paper-data="{&quot;origPos&quot;:null,&quot;index&quot;:null}" fill="none" stroke="#000000" stroke-width="0" stroke-linecap="round"/><path d="M399.9788,249.62649l-1.04152,5.62423" data-paper-data="{&quot;origPos&quot;:null,&quot;index&quot;:null}" fill="none" stroke="#000000" stroke-width="0" stroke-linecap="round"/><path d="M272.0102,136.79473l107.97133,-13.33151c0,0 8.33219,24.07852 8.33219,59.98782c0,35.69229 -8.33219,62.63427 -8.33219,62.63427l-107.97133,-13.33151" data-paper-data="{&quot;origPos&quot;:null,&quot;index&quot;:null}" fill="url(#color-2)" stroke="#000000" stroke-width="0" stroke-linecap="round"/><path d="M53.77621,120.47753l218.06538,16.34659l0.07338,-1.78312v99.31973l-0.07338,-1.78527l-218.06538,16.49555" data-paper-data="{&quot;origPos&quot;:null,&quot;index&quot;:null}" fill="url(#color-3)" stroke="#363636" stroke-width="0" stroke-linecap="round"/><path d="M188.54938,240.25277l82.90531,-5.41592l72.49007,8.5405l-156.2286,-0.2083" data-paper-data="{&quot;origPos&quot;:null,&quot;index&quot;:null}" fill="#404040" stroke="#000000" stroke-width="0" stroke-linecap="round"/><path d="M343.3245,243.2591l34.7823,4.07606l-191.2238,-1.24983" data-paper-data="{&quot;origPos&quot;:null,&quot;index&quot;:null}" fill="none" stroke="#000000" stroke-width="0" stroke-linecap="round"/><path d="M259.99793,249.00157l-1.61371,-2.45817l-0.05273,-3.37437" data-paper-data="{&quot;origPos&quot;:null,&quot;index&quot;:null}" fill="none" stroke="#000000" stroke-width="0" stroke-linecap="round"/><path d="M335.19602,249.00157l-1.10472,-2.01751l0.06318,-3.60672" data-paper-data="{&quot;origPos&quot;:null,&quot;index&quot;:null}" fill="none" stroke="#000000" stroke-width="0" stroke-linecap="round"/><path d="M415.60165,120.40807l-35.55068,3.05515l-3.05514,-2.7774" data-paper-data="{&quot;origPos&quot;:null}" fill="none" stroke="#000000" stroke-width="0" stroke-linecap="round"/><path d="M376.71811,248.72385l3.05515,-2.7774l35.55068,3.05515" data-paper-data="{&quot;origPos&quot;:null,&quot;index&quot;:null}" fill="none" stroke="#000000" stroke-width="0" stroke-linecap="round"/><path d="M272.14902,228.86545v-87.48801h4.1661v87.48801z" data-paper-data="{&quot;origPos&quot;:null}" fill="#b2b2b2" stroke="#000000" stroke-width="0" stroke-linecap="butt"/><path d="M53.84564,120.68584l7.08237,6.94348v114.56764l-6.9435,6.94348" data-paper-data="{&quot;origPos&quot;:null}" fill="none" stroke="#363636" stroke-width="0.5" stroke-linecap="round"/><path d="M61.34464,127.69876l119.70582,9.44315v95.82021l-119.98356,9.72088" fill="none" stroke="#363636" stroke-width="0.5" stroke-linecap="round"/><path d="M263.62246,145.07137v79.98905l-68.65726,3.99945v-88.65452z" fill="none" stroke="#363636" stroke-width="0.5" stroke-linecap="round"/><path d="M372.27425,129.40686c0,0 6.24704,24.05179 5.99918,54.65919c-0.24218,29.90624 -5.99918,55.99233 -5.99918,55.99233l-75.65631,-10.9985v-87.98794z" data-paper-data="{&quot;origPos&quot;:null}" fill="none" stroke="#363636" stroke-width="0.5" stroke-linecap="round"/><path d="M187.97804,242.7187l0.53564,-2.11281l5.65399,-0.3571l-0.44637,2.46989z" data-paper-data="{&quot;origPos&quot;:null}" fill="#666666" stroke="#000000" stroke-width="0" stroke-linecap="butt"/><path d="M250.61762,242.83774l-1.2337,-6.15988l8.0088,-0.47039l4.50382,6.63027z" data-paper-data="{&quot;origPos&quot;:null,&quot;index&quot;:null}" fill="#666666" stroke="#000000" stroke-width="0" stroke-linecap="butt"/><path d="M322.48347,242.83774l-2.79725,-1.87475l15.65263,1.9045z" data-paper-data="{&quot;origPos&quot;:null}" fill="#666666" stroke="#000000" stroke-width="0" stroke-linecap="butt"/><path d="M187.8352,126.28029l156.2286,-0.2083l-72.49007,8.5405l-82.90531,-5.41592" data-paper-data="{&quot;origPos&quot;:null,&quot;index&quot;:null}" fill="#404040" stroke="#000000" stroke-width="0" stroke-linecap="round"/><path d="M187.00198,123.36402l191.22381,-1.24983l-34.7823,4.07606" data-paper-data="{&quot;origPos&quot;:null,&quot;index&quot;:null}" fill="none" stroke="#000000" stroke-width="0" stroke-linecap="round"/><path d="M193.8403,126.73063l0.44637,2.4699l-5.65399,-0.35708l-0.53564,-2.11282z" data-paper-data="{&quot;origPos&quot;:null,&quot;index&quot;:null}" fill="#666666" stroke="#000000" stroke-width="0" stroke-linecap="butt"/><path d="M262.01549,126.61159l-4.50382,6.63026l-8.00881,-0.47039l1.2337,-6.15987z" data-paper-data="{&quot;origPos&quot;:null,&quot;index&quot;:null}" fill="#666666" stroke="#000000" stroke-width="0" stroke-linecap="butt"/><path d="M335.45788,126.58183l-15.65263,1.90451l2.79725,-1.87475z" data-paper-data="{&quot;origPos&quot;:null,&quot;index&quot;:null}" fill="#666666" stroke="#000000" stroke-width="0" stroke-linecap="butt"/><path d="M421.72137,240.82085l-9.4741,13.87121l-13.97381,1.28706l-40.15126,0.13972l-19.5445,-2.25426l-2.61004,-4.47271l-167.98603,0.01911l-2.037,4.02152l-15.24096,2.27061l-43.01183,0.25401l-47.52457,-7.51609c0,0 -9.73154,-5.90876 -3.52592,-5.99583c35.13587,-0.49299 365.08004,-1.62437 365.08004,-1.62437z" data-paper-data="{&quot;index&quot;:null}" fill="url(#color-4)" stroke="none" stroke-width="0" stroke-linecap="butt"/><path d="M56.6413,127.58874c-6.20562,-0.08707 3.52592,-5.99583 3.52592,-5.99583l47.52457,-7.51608l43.01183,0.25401l15.24096,2.27061l2.037,4.02151l167.98603,0.01911l2.61004,-4.47271l19.54449,-2.25426l40.15128,0.13972l13.97381,1.28706l9.47409,13.87122c0,0 -329.94415,-1.13138 -365.08002,-1.62438z" data-paper-data="{&quot;index&quot;:null}" fill="url(#color-5)" stroke="none" stroke-width="0" stroke-linecap="butt"/><path d="M-20.77804,361.63478v-360.53868l547.48082,0v360.53869z" fill="none" stroke="none" stroke-width="0" stroke-linecap="butt"/></g></g></svg>