<svg version="1.1" xmlns="http://www.w3.org/2000/svg" xmlns:xlink="http://www.w3.org/1999/xlink" width="388.88889" height="307.80781" viewBox="0,0,388.88889,307.80781"><defs><linearGradient x1="341.24359" y1="157.84517" x2="341.24359" y2="243.83909" gradientUnits="userSpaceOnUse" id="color-1"><stop offset="0" stop-color="#dedede"/><stop offset="1" stop-color="#e7e7e7"/></linearGradient><linearGradient x1="333.39224" y1="126.97538" x2="333.39224" y2="173.21276" gradientUnits="userSpaceOnUse" id="color-2"><stop offset="0" stop-color="#728abb"/><stop offset="1" stop-color="#7f99cf"/></linearGradient><linearGradient x1="203.83154" y1="114.71253" x2="203.83154" y2="246.33152" gradientUnits="userSpaceOnUse" id="color-3"><stop offset="0" stop-color="#e2e2e2"/><stop offset="1" stop-color="#ededed"/></linearGradient><linearGradient x1="207.72243" y1="113.66846" x2="207.72243" y2="173.42949" gradientUnits="userSpaceOnUse" id="color-4"><stop offset="0" stop-color="#7a94c8"/><stop offset="1" stop-color="#87a4dd"/></linearGradient><linearGradient x1="330.01749" y1="183.20119" x2="330.01749" y2="244.10436" gradientUnits="userSpaceOnUse" id="color-5"><stop offset="0" stop-color="#c8c8c8"/><stop offset="1" stop-color="#d2d2d2"/></linearGradient><linearGradient x1="128.61509" y1="200.58606" x2="128.61509" y2="221.82712" gradientUnits="userSpaceOnUse" id="color-6"><stop offset="0" stop-color="#4d7c9b"/><stop offset="1" stop-color="#77acd1"/></linearGradient><linearGradient x1="236.61048" y1="199.9997" x2="236.61048" y2="221.91263" gradientUnits="userSpaceOnUse" id="color-7"><stop offset="0" stop-color="#4d7c9b"/><stop offset="1" stop-color="#77acd1"/></linearGradient><linearGradient x1="180.92278" y1="209.09239" x2="180.92278" y2="224.2967" gradientUnits="userSpaceOnUse" id="color-8"><stop offset="0" stop-color="#4d7c9b"/><stop offset="1" stop-color="#77acd1"/></linearGradient></defs><g transform="translate(-39.54955,-30.35737)"><g data-paper-data="{&quot;isPaintingLayer&quot;:true}" fill-rule="nonzero" stroke="none" stroke-width="0" stroke-linecap="butt" stroke-linejoin="miter" stroke-miterlimit="10" stroke-dasharray="" stroke-dashoffset="0" style="mix-blend-mode: normal"><path d="M39.54955,338.16518v-307.80781h388.88889v307.80781z" fill="none"/><path d="M270.83087,243.83909v-85.99392h115.5777c0,0 -0.89499,62.8087 -1.08596,76.21061c-0.06842,4.80178 -3.8471,9.78331 -7.94011,9.78331c-15.12709,0 -106.55164,0 -106.55164,0z" fill="url(#color-1)"/><path d="M272.77396,126.97539c0,0 87.42549,0 101.97115,0c3.95949,0 8.5503,3.86449 9.41787,7.2363c2.0141,7.82785 10.03491,39.00108 10.03491,39.00108l-109.4495,-0.00001z" data-paper-data="{&quot;index&quot;:null}" fill="url(#color-2)"/><path d="M95.79153,236.76275c-0.20296,-21.80036 -0.69554,-74.70934 -0.86903,-93.34472c-0.1166,-12.52309 19.22801,-28.70549 19.22801,-28.70549h159.71021c0,0 0,103.37466 0,121.50949c0,5.23086 -2.6025,10.1095 -7.16437,10.1095c-29.53494,0 -141.20026,0 -160.46615,0c-5.52651,0 -10.38339,-3.63015 -10.43868,-9.56878z" fill="url(#color-3)"/><path d="M85.8021,173.42949c0,0 12.24616,-41.61495 15.13999,-51.44878c1.16317,-3.9527 6.03014,-8.31224 10.34924,-8.31224c16.7216,0 123.43361,0 154.80464,0c5.48067,0 9.76932,4.51777 10.76362,8.5736c2.42949,9.91016 12.54864,51.18742 12.54864,51.18742z" data-paper-data="{&quot;index&quot;:null}" fill="url(#color-4)"/><path d="M287.61372,244.10436v-60.90317h84.80758v60.90317z" fill="url(#color-5)"/><g><g><path d="M120.8974,221.82712v-21.24104h15.43538v21.24104z" fill="url(#color-6)"/><path d="M119.70077,221.25973v-21.49036h2.37597v21.49036z" fill="#ffffff"/><path d="M135.85043,221.29975v-21.49036h2.37597v21.49036z" fill="#ffffff"/><path d="M138.26082,222.90052h-18.49119v-2.76133h18.49119z" fill="#ffffff"/><path d="M138.19197,200.96996h-18.4912v-2.76134h18.4912z" fill="#ffffff"/></g><path d="M112.05913,223.06342v-24.85643h7.42992v24.85643z" fill="#b38534"/><path d="M138.20289,222.99985v-24.85643h7.42992v24.85643z" fill="#b38534"/></g><g><g><path d="M228.64865,221.91263v-21.91292h15.92363v21.91292z" fill="url(#color-7)"/><path d="M227.41418,221.32732v-22.17013h2.45111v22.17013z" fill="#ffffff"/><path d="M244.07466,221.36859v-22.17013h2.45111v22.17013z" fill="#ffffff"/><path d="M246.56131,223.01999h-19.0761v-2.84868h19.0761z" fill="#ffffff"/><path d="M246.49029,200.39573h-19.0761v-2.84868h19.0761z" fill="#ffffff"/></g><path d="M219.7545,223.18804v-25.64269h7.66493v25.64269z" fill="#b38534"/><path d="M246.72523,223.12245v-25.64269h7.66494v25.64269z" fill="#b38534"/></g><g><path d="M164.86273,245.96835v-41.33012h30.82932v41.33012z" fill="#c9c9c9"/><path d="M162.47271,245.93007v-42.92302h4.74556v42.92302z" fill="#ffffff"/><path d="M194.72866,246.00997v-42.92302h4.74556v42.92302z" fill="#ffffff"/><path d="M199.40546,205.40497h-36.93274v-5.51524h36.93274z" fill="#ffffff"/></g><path d="M171.47306,224.2967v-15.20431h18.89942v15.20431z" fill="url(#color-8)"/><path d="M185.31193,231.11173v-3.15673h6.103v3.15673z" fill="#7f7f7f"/></g></g></svg>