<svg version="1.1" xmlns="http://www.w3.org/2000/svg" xmlns:xlink="http://www.w3.org/1999/xlink" width="482.29271" height="409.30376" viewBox="0,0,482.29271,409.30376"><defs><radialGradient cx="241.14964" cy="179.80583" r="36.46794" gradientUnits="userSpaceOnUse" id="color-1"><stop offset="0" stop-color="#383838"/><stop offset="1" stop-color="#383838" stop-opacity="0"/></radialGradient><radialGradient cx="239.14386" cy="178.26762" r="21.36621" gradientUnits="userSpaceOnUse" id="color-2"><stop offset="0" stop-color="#77b83f"/><stop offset="1" stop-color="#77b83f" stop-opacity="0"/></radialGradient></defs><g transform="translate(1.14633,24.65173)"><g data-paper-data="{&quot;isPaintingLayer&quot;:true}" fill-rule="nonzero" stroke-linejoin="miter" stroke-miterlimit="10" stroke-dasharray="" stroke-dashoffset="0" style="mix-blend-mode: normal"><path d="M-1.14633,384.65202v-409.30375h482.29271v409.30375z" fill="none" stroke="none" stroke-width="0" stroke-linecap="butt"/><path d="M-1.14633,384.65203v-409.30375h482.29271v409.30375z" fill="none" stroke="none" stroke-width="0" stroke-linecap="butt"/><path d="M204.6817,179.80583c0,-20.14069 16.32726,-36.46794 36.46794,-36.46794c20.14069,0 36.46794,16.32726 36.46794,36.46794c0,20.14069 -16.32726,36.46794 -36.46794,36.46794c-20.14069,0 -36.46794,-16.32726 -36.46794,-36.46794z" fill="url(#color-1)" stroke="none" stroke-width="0" stroke-linecap="butt"/><path d="M227.64426,176.62239l-10.00928,-11.98786" fill="none" stroke="#946c3f" stroke-width="1.5" stroke-linecap="round"/><path d="M219.38078,198.38676l0.23278,-9.54373" fill="none" stroke="#946c3f" stroke-width="1.5" stroke-linecap="round"/><path d="M220.31189,194.89515l7.44877,-5.70297" fill="none" stroke="#946c3f" stroke-width="2" stroke-linecap="round"/><path d="M239.39936,204.32249l4.4227,3.37522" fill="none" stroke="#946c3f" stroke-width="1.5" stroke-linecap="round"/><path d="M239.74853,212.00404l1.74581,-4.65548" fill="none" stroke="#946c3f" stroke-width="1.5" stroke-linecap="round"/><path d="M257.43935,166.6131l2.09497,-9.31097" fill="none" stroke="#946c3f" stroke-width="1.5" stroke-linecap="round"/><path d="M238.81742,153.46137l9.54373,-4.4227" fill="none" stroke="#946c3f" stroke-width="1.5" stroke-linecap="round"/><path d="M246.03342,149.62058l-3.49161,-1.86219" fill="none" stroke="#946c3f" stroke-width="1.5" stroke-linecap="round"/><path d="M270.00914,193.03296l-14.78116,2.44413" fill="none" stroke="#946c3f" stroke-width="1.5" stroke-linecap="round"/><path d="M244.90414,184.02383c0,0 7.82264,1.84534 12.09686,7.60546c4.27422,5.7601 3.57737,13.51779 3.57737,13.51779c0,0 -7.6267,-1.5813 -11.90092,-7.34141c-4.27422,-5.7601 -3.7733,-13.78183 -3.7733,-13.78183z" fill="#85ce46" stroke="none" stroke-width="0" stroke-linecap="butt"/><path d="M239.4324,182.04625c0,0 -2.17683,7.73694 -8.11374,11.76197c-5.93691,4.02501 -13.65789,2.99845 -13.65789,2.99845c0,0 1.90467,-7.55246 7.84158,-11.57747c5.93691,-4.02501 13.93003,-3.18293 13.93003,-3.18293z" fill="#82e52b" stroke="none" stroke-width="0" stroke-linecap="butt"/><path d="M227.41762,182.67702c0,0 -4.18297,6.86305 -10.98548,9.13759c-6.80251,2.27453 -13.96043,-0.79651 -13.96043,-0.79651c0,0 3.87114,-6.7588 10.67366,-9.03333c6.80251,-2.27453 14.27226,0.69225 14.27226,0.69225z" fill="#85ce46" stroke="none" stroke-width="0" stroke-linecap="butt"/><path d="M228.52614,177.53663c0,0 -6.14343,5.18239 -13.31613,5.18239c-7.1727,0 -12.98734,-5.18239 -12.98734,-5.18239c0,0 5.81464,-5.18241 12.98734,-5.18241c7.1727,0 13.31613,5.18241 13.31613,5.18241z" fill="#aff870" stroke="none" stroke-width="0" stroke-linecap="butt"/><path d="M241.06381,177.93356c0,0 -4.01439,6.96302 -10.75942,9.40273c-6.74504,2.43971 -13.97572,-0.4559 -13.97572,-0.4559c0,0 3.70519,-6.8512 10.45024,-9.2909c6.74504,-2.43971 14.28489,0.34406 14.28489,0.34406z" fill="#93e34d" stroke="none" stroke-width="0" stroke-linecap="butt"/><path d="M245.00177,184.09864c0,0 5.99598,5.35228 7.00621,12.45348c1.01022,7.10122 -3.30158,13.58778 -3.30158,13.58778c0,0 -5.94969,-5.02679 -6.95991,-12.12799c-1.01022,-7.10122 3.25528,-13.9133 3.25528,-13.9133z" fill="#82e52b" stroke="none" stroke-width="0" stroke-linecap="butt"/><path d="M239.29145,190.58686c0,0 4.33014,6.77118 3.38757,13.88168c-0.94256,7.1105 -6.84413,12.19368 -6.84413,12.19368c0,0 -4.37334,-6.44524 -3.43077,-13.55574c0.94256,-7.1105 6.88734,-12.51963 6.88734,-12.51963z" fill="#85ce46" stroke="none" stroke-width="0" stroke-linecap="butt"/><path d="M235.15945,187.3343c0,0 1.95946,7.79484 -1.1893,14.23946c-3.14874,6.44462 -10.35765,9.39402 -10.35765,9.39402c0,0 -2.10379,-7.49942 1.04495,-13.94404c3.14874,-6.44462 10.50198,-9.68944 10.50198,-9.68944z" fill="#aff870" stroke="none" stroke-width="0" stroke-linecap="butt"/><path d="M241.01997,176.24353c0,0 4.49396,6.66357 3.72502,13.79495c-0.76893,7.13138 -6.54479,12.35693 -6.54479,12.35693c0,0 -4.52921,-6.33669 -3.76028,-13.46807c0.76893,-7.13138 6.58003,-12.68384 6.58003,-12.68384z" fill="#93e34d" stroke="none" stroke-width="0" stroke-linecap="butt"/><path d="M246.43488,168.3519c4.07619,-5.90191 11.64481,-7.74122 11.64481,-7.74122c0,0 0.95982,7.72955 -3.11638,13.63146c-4.07619,5.90191 -11.83167,8.01177 -11.83167,8.01177c0,0 -0.77297,-8.00009 3.30321,-13.902z" data-paper-data="{&quot;index&quot;:null}" fill="#82e52b" stroke="none" stroke-width="0" stroke-linecap="butt"/><path d="M243.29738,155.96732c2.33326,-6.78261 9.12525,-10.59518 9.12525,-10.59518c0,0 3.00909,7.18419 0.67584,13.9668c-2.33326,6.78261 -9.23221,10.9061 -9.23221,10.9061c0,0 -2.90212,-7.4951 -0.56888,-14.27772z" data-paper-data="{&quot;index&quot;:null}" fill="#85ce46" stroke="none" stroke-width="0" stroke-linecap="butt"/><path d="M233.64933,157.94863c0.062,-7.17243 5.29446,-12.94207 5.29446,-12.94207c0,0 5.13195,5.85921 5.06995,13.03164c-0.062,7.17243 -5.29728,13.27085 -5.29728,13.27085c0,0 -5.12911,-6.18798 -5.06711,-13.36044z" data-paper-data="{&quot;index&quot;:null}" fill="#aff870" stroke="none" stroke-width="0" stroke-linecap="butt"/><path d="M238.78441,169.56237c2.49793,-6.72371 9.38087,-10.36954 9.38087,-10.36954c0,0 2.83301,7.25542 0.33508,13.97912c-2.49793,6.72371 -9.49538,10.67776 -9.49538,10.67776c0,0 -2.7185,-7.56363 -0.22057,-14.28734z" data-paper-data="{&quot;index&quot;:null}" fill="#93e34d" stroke="none" stroke-width="0" stroke-linecap="butt"/><path d="M257.79634,184.37986c7.09222,1.07156 12.06739,7.06446 12.06739,7.06446c0,0 -6.52359,4.25557 -13.61581,3.18401c-7.09222,-1.07156 -12.39248,-7.11357 -12.39248,-7.11357c0,0 6.8487,-4.20647 13.94089,-3.13491z" data-paper-data="{&quot;index&quot;:null}" fill="#82e52b" stroke="none" stroke-width="0" stroke-linecap="butt"/><path d="M264.25181,175.4079c7.11838,-0.88109 13.52559,3.5478 13.52559,3.5478c0,0 -5.13399,5.85741 -12.25237,6.73849c-7.11838,0.88109 -13.85188,-3.50741 -13.85188,-3.50741c0,0 5.4603,-5.8978 12.57868,-6.77888z" data-paper-data="{&quot;index&quot;:null}" fill="#85ce46" stroke="none" stroke-width="0" stroke-linecap="butt"/><path d="M258.23626,167.60897c6.47159,-3.09294 13.95255,-0.92441 13.95255,-0.92441c0,0 -3.0116,7.18315 -9.48318,10.27607c-6.47159,3.09294 -14.2492,1.06618 -14.2492,1.06618c0,0 3.30824,-7.32491 9.77984,-10.41783z" data-paper-data="{&quot;index&quot;:null}" fill="#aff870" stroke="none" stroke-width="0" stroke-linecap="butt"/><path d="M250.05567,177.3211c7.13777,-0.70727 13.43506,3.87653 13.43506,3.87653c0,0 -5.27528,5.73047 -12.41304,6.43775c-7.13777,0.70727 -13.76225,-3.8441 -13.76225,-3.8441c0,0 5.60248,-5.76291 12.74023,-6.47019z" data-paper-data="{&quot;index&quot;:null}" fill="#93e34d" stroke="none" stroke-width="0" stroke-linecap="butt"/><path d="M237.57365,175.75699c0,0 -4.5012,-6.65868 -3.74002,-13.7909c0.76118,-7.13222 6.53135,-12.36407 6.53135,-12.36407c0,0 4.5361,6.33176 3.77493,13.46396c-0.76118,7.13222 -6.56624,12.69099 -6.56624,12.69099z" fill="#82e52b" stroke="none" stroke-width="0" stroke-linecap="butt"/><path d="M239.66006,179.65863c0,0 -2.72357,-7.56182 -0.23013,-14.28719c2.49344,-6.72537 9.37394,-10.37582 9.37394,-10.37582c0,0 2.83786,7.25354 0.34443,13.9789c-2.49344,6.72537 -9.48825,10.68411 -9.48825,10.68411z" fill="#93e34d" stroke="none" stroke-width="0" stroke-linecap="butt"/><path d="M236.55714,180.87849c0,0 -7.95876,1.12119 -14.03285,-2.69366c-6.0741,-3.81486 -8.24183,-11.29605 -8.24183,-11.29605c0,0 7.68033,-1.29607 13.75444,2.51878c6.0741,3.81486 8.52024,11.47092 8.52024,11.47092z" fill="#82e52b" stroke="none" stroke-width="0" stroke-linecap="butt"/><path d="M231.14406,170.13365c0,0 -7.96622,-1.06702 -12.78623,-6.3788c-4.82003,-5.31179 -4.88956,-13.10039 -4.88956,-13.10039c0,0 7.74525,0.82351 12.56528,6.13531c4.82003,5.31179 5.11053,13.34387 5.11053,13.34387z" fill="#85ce46" stroke="none" stroke-width="0" stroke-linecap="butt"/><path d="M236.2959,169.07952c0,0 -7.2167,-3.53809 -10.10355,-10.10422c-2.88682,-6.56613 -0.48296,-13.97481 -0.48296,-13.97481c0,0 7.08438,3.23711 9.9712,9.80323c2.88682,6.56613 0.61529,14.2758 0.61529,14.2758z" fill="#aff870" stroke="none" stroke-width="0" stroke-linecap="butt"/><path d="M240.97865,180.71662c0,0 -7.98985,-0.87246 -12.93795,-6.06516c-4.9481,-5.1927 -5.20755,-12.97726 -5.20755,-12.97726c0,0 7.76303,0.63441 12.71114,5.8271c4.9481,5.1927 5.43437,13.21531 5.43437,13.21531z" fill="#93e34d" stroke="none" stroke-width="0" stroke-linecap="butt"/><path d="M217.77763,178.26762c0,-11.80023 9.56597,-21.36621 21.36621,-21.36621c11.80023,0 21.36621,9.56597 21.36621,21.36621c0,11.80023 -9.56597,21.36621 -21.36621,21.36621c-11.80023,0 -21.36621,-9.56597 -21.36621,-21.36621z" fill="url(#color-2)" stroke="none" stroke-width="0" stroke-linecap="butt"/></g></g></svg>