<svg version="1.1" xmlns="http://www.w3.org/2000/svg" xmlns:xlink="http://www.w3.org/1999/xlink" width="388.88889" height="307.80781" viewBox="0,0,388.88889,307.80781"><defs><linearGradient x1="107.19263" y1="176.55241" x2="112.04756" y2="171.7966" gradientUnits="userSpaceOnUse" id="color-1"><stop offset="0" stop-color="#bac1c2"/><stop offset="1" stop-color="#d7d7d7"/></linearGradient><linearGradient x1="133.57727" y1="176.55241" x2="128.72232" y2="171.7966" gradientUnits="userSpaceOnUse" id="color-2"><stop offset="0" stop-color="#bac1c2"/><stop offset="1" stop-color="#d7d7d7"/></linearGradient><linearGradient x1="106.99022" y1="237.07076" x2="111.84517" y2="232.31495" gradientUnits="userSpaceOnUse" id="color-3"><stop offset="0" stop-color="#bac1c2"/><stop offset="1" stop-color="#d7d7d7"/></linearGradient><linearGradient x1="148.86056" y1="210.93823" x2="155.65674" y2="210.93823" gradientUnits="userSpaceOnUse" id="color-4"><stop offset="0" stop-color="#e1e1e1"/><stop offset="1" stop-color="#bac1c2"/></linearGradient><linearGradient x1="85.60381" y1="182.05129" x2="92.39999" y2="182.05129" gradientUnits="userSpaceOnUse" id="color-5"><stop offset="0" stop-color="#bcc3c4"/><stop offset="1" stop-color="#dfdfdf"/></linearGradient><linearGradient x1="152.49679" y1="277.35112" x2="146.67366" y2="270.41142" gradientUnits="userSpaceOnUse" id="color-6"><stop offset="0" stop-color="#c2c9ca"/><stop offset="1" stop-color="#e5e5e5"/></linearGradient><linearGradient x1="120.4257" y1="279.35756" x2="120.4257" y2="272.56136" gradientUnits="userSpaceOnUse" id="color-7"><stop offset="0" stop-color="#bcc3c4"/><stop offset="1" stop-color="#dfdfdf"/></linearGradient><linearGradient x1="87.46677" y1="277.14097" x2="94.40647" y2="271.31786" gradientUnits="userSpaceOnUse" id="color-8"><stop offset="0" stop-color="#c2c9ca"/><stop offset="1" stop-color="#e5e5e5"/></linearGradient><linearGradient x1="133.37487" y1="237.07076" x2="128.51993" y2="232.31495" gradientUnits="userSpaceOnUse" id="color-9"><stop offset="0" stop-color="#bac1c2"/><stop offset="1" stop-color="#d7d7d7"/></linearGradient><linearGradient x1="239.34553" y1="148.67796" x2="239.34553" y2="155.47414" gradientUnits="userSpaceOnUse" id="color-10"><stop offset="0" stop-color="#bcc3c4"/><stop offset="1" stop-color="#dfdfdf"/></linearGradient><linearGradient x1="238.65727" y1="90.41301" x2="238.65727" y2="97.2092" gradientUnits="userSpaceOnUse" id="color-11"><stop offset="0" stop-color="#bcc3c4"/><stop offset="1" stop-color="#dfdfdf"/></linearGradient><linearGradient x1="372.4633" y1="177.46997" x2="367.60836" y2="172.71416" gradientUnits="userSpaceOnUse" id="color-12"><stop offset="0" stop-color="#bac1c2"/><stop offset="1" stop-color="#d7d7d7"/></linearGradient><linearGradient x1="346.07866" y1="177.46997" x2="350.9336" y2="172.71416" gradientUnits="userSpaceOnUse" id="color-13"><stop offset="0" stop-color="#bac1c2"/><stop offset="1" stop-color="#d7d7d7"/></linearGradient><linearGradient x1="372.66571" y1="237.98832" x2="367.81076" y2="233.23252" gradientUnits="userSpaceOnUse" id="color-14"><stop offset="0" stop-color="#bac1c2"/><stop offset="1" stop-color="#d7d7d7"/></linearGradient><linearGradient x1="330.79538" y1="211.85579" x2="323.99917" y2="211.85579" gradientUnits="userSpaceOnUse" id="color-15"><stop offset="0" stop-color="#e1e1e1"/><stop offset="1" stop-color="#bac1c2"/></linearGradient><linearGradient x1="394.05212" y1="182.45273" x2="387.25594" y2="182.45273" gradientUnits="userSpaceOnUse" id="color-16"><stop offset="0" stop-color="#bcc3c4"/><stop offset="1" stop-color="#dfdfdf"/></linearGradient><linearGradient x1="346.28106" y1="237.98832" x2="351.13599" y2="233.23252" gradientUnits="userSpaceOnUse" id="color-17"><stop offset="0" stop-color="#bac1c2"/><stop offset="1" stop-color="#d7d7d7"/></linearGradient><linearGradient x1="390.94721" y1="278.38338" x2="385.12407" y2="271.44368" gradientUnits="userSpaceOnUse" id="color-18"><stop offset="0" stop-color="#c2c9ca"/><stop offset="1" stop-color="#e5e5e5"/></linearGradient><linearGradient x1="358.87611" y1="280.38981" x2="358.87611" y2="273.59361" gradientUnits="userSpaceOnUse" id="color-19"><stop offset="0" stop-color="#bcc3c4"/><stop offset="1" stop-color="#dfdfdf"/></linearGradient><linearGradient x1="325.91718" y1="278.17323" x2="332.85688" y2="272.35011" gradientUnits="userSpaceOnUse" id="color-20"><stop offset="0" stop-color="#c2c9ca"/><stop offset="1" stop-color="#e5e5e5"/></linearGradient></defs><g transform="translate(-45.55555,-26.0961)"><g data-paper-data="{&quot;isPaintingLayer&quot;:true}" fill-rule="nonzero" stroke="none" stroke-width="0" stroke-linecap="butt" stroke-linejoin="miter" stroke-miterlimit="10" stroke-dasharray="" stroke-dashoffset="0" style="mix-blend-mode: normal"><path d="M45.55556,333.90392v-307.80781h388.88889v307.80781z" fill="none"/><path d="M89.128,153.18461v-57.34738h302.33541v57.34738z" fill="#f7f7f7"/><path d="M91.01312,149.85846v-17.58878h29.96974v17.58878z" fill="#272727"/><path d="M120.64612,132.26968v-17.58878h29.96974v17.58878z" fill="#272727"/><path d="M150.9526,149.32546v-17.58878h29.96974v17.58878z" fill="#272727"/><path d="M210.55535,114.1479v17.58878h-29.96974v-17.58878z" data-paper-data="{&quot;index&quot;:null}" fill="#272727"/><path d="M240.18835,131.73668v17.58878h-29.96974v-17.58878z" data-paper-data="{&quot;index&quot;:null}" fill="#272727"/><path d="M270.49484,114.6809v17.58878h-29.96974v-17.58878z" data-paper-data="{&quot;index&quot;:null}" fill="#272727"/><path d="M270.83157,149.32546v-17.58878h29.96974v17.58878z" fill="#272727"/><path d="M330.43431,114.1479v17.58878h-29.96974v-17.58878z" data-paper-data="{&quot;index&quot;:null}" fill="#272727"/><path d="M360.06732,131.20369v17.58878h-29.96974v-17.58878z" data-paper-data="{&quot;index&quot;:null}" fill="#272727"/><path d="M390.3738,114.1479v17.58878h-29.96974v-17.58878z" data-paper-data="{&quot;index&quot;:null}" fill="#272727"/><path d="M90.67638,114.1479v-17.58878h29.96974v17.58878z" fill="#272727"/><path d="M150.61587,113.61491v-17.58878h29.96974v17.58878z" fill="#272727"/><path d="M239.85162,96.02613v17.58878h-29.96974v-17.58878z" data-paper-data="{&quot;index&quot;:null}" fill="#272727"/><path d="M270.49484,113.61491v-17.58878h29.96974v17.58878z" fill="#272727"/><path d="M359.73058,95.49313v17.58878h-29.96974v-17.58878z" data-paper-data="{&quot;index&quot;:null}" fill="#272727"/><path d="M148.38575,217.15393l-60.85655,-60.67485l4.85494,-4.75582l60.85655,60.67485z" data-paper-data="{&quot;index&quot;:null}" fill="url(#color-1)"/><path d="M87.5292,212.3981l60.85655,-60.67485l4.85494,4.75582l-60.85655,60.67485z" data-paper-data="{&quot;index&quot;:null}" fill="url(#color-2)"/><path d="M148.18334,277.67229l-60.85655,-60.67485l4.85495,-4.75581l60.85655,60.67485z" data-paper-data="{&quot;index&quot;:null}" fill="url(#color-3)"/><path d="M148.86056,273.41938v-124.96227h6.79618v124.96227z" fill="url(#color-4)"/><path d="M85.60381,273.41938v-182.73644h6.79618v182.73644z" fill="url(#color-5)"/><path d="M149.4143,271.33513l6.53149,1.50825l-7.44569,6.32484l-1.00709,-6.40371z" fill="url(#color-6)"/><path d="M92.32609,272.56136h56.19917v6.79618h-56.19917z" data-paper-data="{&quot;index&quot;:null}" fill="url(#color-7)"/><path d="M93.48275,274.05849l-1.16314,5.49625l-6.66992,-6.41044l6.40373,-1.00708z" fill="url(#color-8)"/><path d="M87.32681,272.91646l60.85655,-60.67485l4.85495,4.75581l-60.85655,60.67485z" data-paper-data="{&quot;index&quot;:null}" fill="url(#color-9)"/><path d="M149.81254,148.67796h179.06622v6.79617h-179.06622z" fill="url(#color-10)"/><path d="M86.04226,90.41301h305.23046v6.79618h-305.23046z" fill="url(#color-11)"/><path d="M326.41524,213.31568l60.85653,-60.67485l4.85494,4.75582l-60.85653,60.67485z" data-paper-data="{&quot;index&quot;:null}" fill="url(#color-12)"/><path d="M387.27178,218.07148l-60.85653,-60.67485l4.85494,-4.75582l60.85653,60.67485z" data-paper-data="{&quot;index&quot;:null}" fill="url(#color-13)"/><path d="M326.61764,273.83403l60.85655,-60.67485l4.85494,4.75582l-60.85653,60.67485z" data-paper-data="{&quot;index&quot;:null}" fill="url(#color-14)"/><path d="M323.99917,274.33694v-124.96227h6.79618v124.96227z" data-paper-data="{&quot;index&quot;:null}" fill="url(#color-15)"/><path d="M387.25594,274.33694v-183.76869h6.79618v183.76869z" data-paper-data="{&quot;index&quot;:null}" fill="url(#color-16)"/><path d="M387.47418,278.58982l-60.85655,-60.67485l4.85495,-4.75582l60.85653,60.67485z" data-paper-data="{&quot;index&quot;:null}" fill="url(#color-17)"/><path d="M387.86471,272.36738l6.53149,1.50825l-7.44569,6.32484l-1.00709,-6.40371z" fill="url(#color-18)"/><path d="M330.77651,273.59361h56.19917v6.79618h-56.19917z" data-paper-data="{&quot;index&quot;:null}" fill="url(#color-19)"/><path d="M331.93317,275.09074l-1.16314,5.49625l-6.66992,-6.41044l6.40373,-1.00708z" fill="url(#color-20)"/></g></g></svg>