<svg version="1.1" xmlns="http://www.w3.org/2000/svg" xmlns:xlink="http://www.w3.org/1999/xlink" width="70.7777" height="121.02357" viewBox="0,0,70.7777,121.02357"><defs><linearGradient x1="236.20461" y1="243.09534" x2="244.36243" y2="243.09534" gradientUnits="userSpaceOnUse" id="color-1"><stop offset="0" stop-color="#e6e6e6"/><stop offset="1" stop-color="#a3a3a3"/></linearGradient></defs><g transform="translate(-204.61115,-119.48821)"><g data-paper-data="{&quot;isPaintingLayer&quot;:true}" fill-rule="nonzero" stroke-linecap="butt" stroke-linejoin="miter" stroke-miterlimit="10" stroke-dasharray="" stroke-dashoffset="0" style="mix-blend-mode: normal"><path d="M244.36243,238.06703c0,0 -0.205,2.13379 -3.92758,2.42128c-3.91886,0.30267 -4.23025,-2.42128 -4.23025,-2.42128v-47.81362l8.15784,0z" fill="url(#color-1)" stroke="none" stroke-width="0"/><path d="M236.11218,200.14349c-4.62879,-5.96052 -21.84657,-22.36196 -29.70358,-32.47943c-2.58988,-3.335 -2.1571,-8.27612 -0.12318,-11.00225c4.22851,-5.66753 20.09448,-23.10478 28.27278,-34.0662c2.9828,-3.99786 7.1238,-3.856 9.23407,-1.17655c4.41016,5.59973 21.00647,22.84439 29.23903,33.29747c2.8444,3.61161 3.15032,8.0341 0.72514,11.30734c-7.71998,10.41949 -25.20631,28.20103 -29.73662,34.31544c-2.21759,2.99307 -5.53265,2.86251 -7.90767,-0.19572z" fill="#ffe32e" stroke="none" stroke-width="NaN"/><path d="M236.1882,197.41624c-4.31731,-5.59654 -20.43009,-20.70687 -27.75838,-30.20658c-2.4156,-3.13138 -2.01193,-7.77084 -0.11488,-10.33043c3.94398,-5.32142 18.74222,-21.46016 26.3702,-31.75224c2.78207,-3.75377 6.64443,-3.62064 8.61268,-1.10476c4.11338,5.2578 19.59288,21.2157 27.27146,31.03052c2.65298,3.39106 2.93833,7.54354 0.67633,10.61686c-7.20049,9.7833 -23.56377,26.18935 -27.7892,31.93047c-2.06838,2.8103 -5.05302,2.68771 -7.26821,-0.18384z" fill="#1d1d1d" stroke="none" stroke-width="NaN"/><path d="M236.53735,195.57959c-4.02349,-5.33464 -19.09401,-19.51559 -25.92357,-28.57064c-2.25121,-2.98482 -1.87501,-7.40707 -0.10707,-9.8469c3.67556,-5.07233 17.46675,-20.27648 24.57559,-30.0869c2.59276,-3.57811 6.19224,-3.4511 8.02655,-1.05304c3.83345,5.01164 18.25948,20.04341 25.41549,29.39884c2.47246,3.2324 2.73834,7.19043 0.63032,10.11997c-6.71044,9.32534 -22.01442,24.74146 -25.95227,30.21384c-1.92761,2.67881 -4.60058,2.56198 -6.66499,-0.17517z" fill="#ffe32e" stroke="none" stroke-width="NaN"/><text transform="translate(212.40147,166.60441) scale(0.40925,0.42312)" font-size="40" xml:space="preserve" fill="#1d1d1d" fill-rule="nonzero" stroke="#1d1d1d" stroke-width="2" stroke-linecap="butt" stroke-linejoin="miter" stroke-miterlimit="10" stroke-dasharray="" stroke-dashoffset="0" font-family="Sans Serif" font-weight="normal" text-anchor="start" style="mix-blend-mode: normal"><tspan x="0" dy="0"> SLOW</tspan></text></g></g></svg>