<svg version="1.1" xmlns="http://www.w3.org/2000/svg" xmlns:xlink="http://www.w3.org/1999/xlink" width="157.52799" height="35.20515" viewBox="0,0,157.52799,35.20515"><g transform="translate(-161.18035,-66.06484)"><g data-paper-data="{&quot;isPaintingLayer&quot;:true}" fill-rule="nonzero" stroke-linejoin="miter" stroke-miterlimit="10" stroke-dasharray="" stroke-dashoffset="0" style="mix-blend-mode: normal"><path d="M161.49794,84.55816c0,-35.32158 -0.31759,17.15871 -0.31759,-2.20282c0,-8.1817 7.99801,-16.2905 15.44621,-16.2905c13.64824,0 96.55949,0 123.07497,0c0.49171,0 0.97659,0 1.4543,0c10.51084,0 17.55251,7.71262 17.55251,15.5884c0,14.95439 0,-34.94027 0,1.96878c0,10.80729 -8.98072,17.64797 -17.08445,17.64797c-14.32264,0 -97.69918,0 -123.27554,0c-10.11234,0 -16.85041,-6.44289 -16.85041,-16.71184z" fill-opacity="0.10196" fill="#ffffff" stroke="#000000" stroke-width="0" stroke-linecap="butt"/><text transform="translate(219.09336,89.80735) scale(0.43574,0.43574)" font-size="40" xml:space="preserve" fill="#ffffff" fill-rule="nonzero" stroke="#ffffff" stroke-width="3" stroke-linecap="butt" stroke-linejoin="miter" stroke-miterlimit="10" stroke-dasharray="" stroke-dashoffset="0" font-family="Sans Serif" font-weight="normal" text-anchor="start" style="mix-blend-mode: normal"><tspan x="0" dy="0">日本</tspan></text><g fill="none" stroke="#ffffff" stroke-width="1.5" stroke-linecap="round"><path d="M199.22015,91.4616l-3.4987,0.03498"/><path d="M197.5178,95.18547c0,0 0,-5.87263 0,-7.77248c0,-1.09982 -0.80898,-2.03545 -1.45339,-1.58198c-0.77292,0.54391 -2.703,1.90211 -4.11032,2.89245c-0.92259,0.64923 -2.14556,-0.17225 -2.48614,-1.02371c-0.22387,-0.55968 -0.61739,-1.54346 -0.97903,-2.44758c-0.43067,-1.07669 -1.59254,-1.3041 -2.21037,-0.71816c-0.68066,0.64554 -3.00684,3.44035 -4.30873,4.67505c-1.04083,0.98711 -2.82708,0.2118 -2.20329,-0.86171c0.68954,-1.18665 3.38341,-4.46109 5.15332,-6.57129c0.92655,-1.10469 -0.06943,-1.85057 -1.2764,-1.82184c-1.18816,0.02829 -3.78651,0.09016 -5.7615,0.13718c-1.43291,0.03412 -2.53769,-1.48721 -2.53769,-2.30011c0,-0.86859 1.2657,-2.69504 2.53738,-2.69504c2.64218,0 12.61248,0 18.61251,0c2.7458,0 4.66012,2.87575 4.66012,4.98217c0,3.65179 0,14.97403 0,14.97403"/></g><g stroke="none" stroke-width="0" stroke-linecap="butt"><path d="M271.55546,91.19565v-15.2415h27.50477v15.2415z" fill="#ffffff"/><path d="M280.45466,83.75009c0,-2.85426 2.31384,-5.1681 5.1681,-5.1681c2.85426,0 5.1681,2.31384 5.1681,5.1681c0,2.85426 -2.31384,5.1681 -5.1681,5.1681c-2.85426,0 -5.1681,-2.31384 -5.1681,-5.1681z" fill="#d43333"/></g></g></g></svg>