<svg version="1.1" xmlns="http://www.w3.org/2000/svg" xmlns:xlink="http://www.w3.org/1999/xlink" width="472.87786" height="360.53869" viewBox="0,0,472.87786,360.53869"><defs><linearGradient x1="117.89104" y1="176.49103" x2="125.9772" y2="176.49103" gradientUnits="userSpaceOnUse" id="color-1"><stop offset="0" stop-color="#113a73"/><stop offset="1" stop-color="#113a73" stop-opacity="0"/></linearGradient><linearGradient x1="131.69102" y1="179.96429" x2="150.34693" y2="179.96429" gradientUnits="userSpaceOnUse" id="color-2"><stop offset="0" stop-color="#113a73"/><stop offset="1" stop-color="#113a73" stop-opacity="0"/></linearGradient><linearGradient x1="348.17634" y1="148.91988" x2="350.46047" y2="143.11571" gradientUnits="userSpaceOnUse" id="color-3"><stop offset="0" stop-color="#174d98"/><stop offset="1" stop-color="#174d98" stop-opacity="0"/></linearGradient><linearGradient x1="178.13912" y1="179.7697" x2="230.54834" y2="179.7697" gradientUnits="userSpaceOnUse" id="color-4"><stop offset="0" stop-color="#164a93"/><stop offset="1" stop-color="#164a93" stop-opacity="0"/></linearGradient><linearGradient x1="363.25466" y1="213.39437" x2="360.92452" y2="212.2953" gradientUnits="userSpaceOnUse" id="color-5"><stop offset="0" stop-color="#113569"/><stop offset="1" stop-color="#1751a0"/></linearGradient><linearGradient x1="363.84942" y1="147.27724" x2="361.51929" y2="148.37631" gradientUnits="userSpaceOnUse" id="color-6"><stop offset="0" stop-color="#113569"/><stop offset="1" stop-color="#1751a0"/></linearGradient><linearGradient x1="348.17634" y1="210.61133" x2="350.46045" y2="216.41549" gradientUnits="userSpaceOnUse" id="color-7"><stop offset="0" stop-color="#174d98"/><stop offset="1" stop-color="#174d98" stop-opacity="0"/></linearGradient><linearGradient x1="295.57626" y1="180.08743" x2="327.91337" y2="180.08743" gradientUnits="userSpaceOnUse" id="color-8"><stop offset="0" stop-color="#144487"/><stop offset="1" stop-color="#144487" stop-opacity="0"/></linearGradient><linearGradient x1="348.67355" y1="194.88578" x2="329.99647" y2="194.88578" gradientUnits="userSpaceOnUse" id="color-9"><stop offset="0" stop-color="#15468b"/><stop offset="1" stop-color="#15468b" stop-opacity="0"/></linearGradient><linearGradient x1="344.28951" y1="183.98875" x2="344.32056" y2="187.66394" gradientUnits="userSpaceOnUse" id="color-10"><stop offset="0" stop-color="#144384"/><stop offset="1" stop-color="#144384" stop-opacity="0"/></linearGradient><linearGradient x1="333.53648" y1="210.34832" x2="331.74147" y2="207.14114" gradientUnits="userSpaceOnUse" id="color-11"><stop offset="0" stop-color="#144384"/><stop offset="1" stop-color="#144384" stop-opacity="0"/></linearGradient><linearGradient x1="180.66796" y1="180.0057" x2="143.27118" y2="180.0057" gradientUnits="userSpaceOnUse" id="color-12"><stop offset="0" stop-color="#666666"/><stop offset="1" stop-color="#000000"/></linearGradient><linearGradient x1="224.75635" y1="214.88845" x2="224.75635" y2="222.96011" gradientUnits="userSpaceOnUse" id="color-13"><stop offset="0" stop-color="#333333"/><stop offset="1" stop-color="#1a1a1a"/></linearGradient><linearGradient x1="224.75632" y1="137.05131" x2="224.75632" y2="145.12296" gradientUnits="userSpaceOnUse" id="color-14"><stop offset="0" stop-color="#1a1a1a"/><stop offset="1" stop-color="#333333"/></linearGradient><linearGradient x1="197.02853" y1="214.82079" x2="197.02853" y2="222.96011" gradientUnits="userSpaceOnUse" id="color-15"><stop offset="0" stop-color="#666666"/><stop offset="1" stop-color="#000000"/></linearGradient><linearGradient x1="197.02853" y1="137.05131" x2="197.02853" y2="145.19062" gradientUnits="userSpaceOnUse" id="color-16"><stop offset="0" stop-color="#000000"/><stop offset="1" stop-color="#666666"/></linearGradient><linearGradient x1="254.8638" y1="214.99599" x2="254.8638" y2="223.28783" gradientUnits="userSpaceOnUse" id="color-17"><stop offset="0" stop-color="#666666"/><stop offset="1" stop-color="#000000"/></linearGradient><linearGradient x1="254.8638" y1="136.72358" x2="254.8638" y2="145.01542" gradientUnits="userSpaceOnUse" id="color-18"><stop offset="0" stop-color="#000000"/><stop offset="1" stop-color="#666666"/></linearGradient><linearGradient x1="308.84921" y1="180.0057" x2="257.16607" y2="180.0057" gradientUnits="userSpaceOnUse" id="color-19"><stop offset="0" stop-color="#000000"/><stop offset="1" stop-color="#666666"/></linearGradient><linearGradient x1="349.88469" y1="180.00569" x2="324.60211" y2="180.00569" gradientUnits="userSpaceOnUse" id="color-20"><stop offset="0" stop-color="#1a57ab"/><stop offset="1" stop-color="#15468c"/></linearGradient><linearGradient x1="347.08379" y1="194.73407" x2="342.51789" y2="194.73407" gradientUnits="userSpaceOnUse" id="color-21"><stop offset="0" stop-color="#1a1a1a"/><stop offset="1" stop-color="#333333"/></linearGradient><linearGradient x1="347.08378" y1="165.27736" x2="342.51788" y2="165.27736" gradientUnits="userSpaceOnUse" id="color-22"><stop offset="0" stop-color="#1a1a1a"/><stop offset="1" stop-color="#333333"/></linearGradient><linearGradient x1="357.98894" y1="203.98194" x2="357.19827" y2="201.93926" gradientUnits="userSpaceOnUse" id="color-23"><stop offset="0" stop-color="#144487"/><stop offset="1" stop-color="#144487" stop-opacity="0"/></linearGradient><linearGradient x1="337.00491" y1="215.65803" x2="336.69994" y2="213.489" gradientUnits="userSpaceOnUse" id="color-24"><stop offset="0" stop-color="#144487"/><stop offset="1" stop-color="#144487" stop-opacity="0"/></linearGradient><linearGradient x1="357.98894" y1="155.91738" x2="357.19827" y2="157.96006" gradientUnits="userSpaceOnUse" id="color-25"><stop offset="0" stop-color="#144487"/><stop offset="1" stop-color="#144487" stop-opacity="0"/></linearGradient><linearGradient x1="337.00491" y1="144.2413" x2="336.69994" y2="146.41033" gradientUnits="userSpaceOnUse" id="color-26"><stop offset="0" stop-color="#144487"/><stop offset="1" stop-color="#144487" stop-opacity="0"/></linearGradient><linearGradient x1="348.67355" y1="165.05233" x2="329.99647" y2="165.05233" gradientUnits="userSpaceOnUse" id="color-27"><stop offset="0" stop-color="#15468b"/><stop offset="1" stop-color="#15468b" stop-opacity="0"/></linearGradient><linearGradient x1="344.28951" y1="175.94937" x2="344.32056" y2="172.27418" gradientUnits="userSpaceOnUse" id="color-28"><stop offset="0" stop-color="#144384"/><stop offset="1" stop-color="#144384" stop-opacity="0"/></linearGradient><linearGradient x1="333.53648" y1="149.58979" x2="331.74147" y2="152.79698" gradientUnits="userSpaceOnUse" id="color-29"><stop offset="0" stop-color="#144384"/><stop offset="1" stop-color="#144384" stop-opacity="0"/></linearGradient><linearGradient x1="347.08379" y1="165.20405" x2="342.51789" y2="165.20405" gradientUnits="userSpaceOnUse" id="color-30"><stop offset="0" stop-color="#1a1a1a"/><stop offset="1" stop-color="#333333"/></linearGradient><linearGradient x1="325.56377" y1="179.81896" x2="322.54074" y2="179.81896" gradientUnits="userSpaceOnUse" id="color-31"><stop offset="0" stop-color="#1a1a1a" stop-opacity="0"/><stop offset="1" stop-color="#1a1a1a"/></linearGradient><linearGradient x1="318.66875" y1="231.34835" x2="318.66875" y2="222.81804" gradientUnits="userSpaceOnUse" id="color-32"><stop offset="0" stop-color="#103569"/><stop offset="1" stop-color="#103569" stop-opacity="0"/></linearGradient><linearGradient x1="319.05872" y1="129.44248" x2="319.05872" y2="137.97279" gradientUnits="userSpaceOnUse" id="color-33"><stop offset="0" stop-color="#103569"/><stop offset="1" stop-color="#103569" stop-opacity="0"/></linearGradient><linearGradient x1="145.38401" y1="179.98312" x2="122.04236" y2="179.98312" gradientUnits="userSpaceOnUse" id="color-34"><stop offset="0" stop-color="#1b5ab1"/><stop offset="1" stop-color="#2774df"/></linearGradient><linearGradient x1="367.90007" y1="180.00571" x2="362.08214" y2="180.00571" gradientUnits="userSpaceOnUse" id="color-35"><stop offset="0" stop-color="#1a1a1a"/><stop offset="1" stop-color="#333333"/></linearGradient><radialGradient cx="220.08484" cy="205.93587" r="34.79714" gradientUnits="userSpaceOnUse" id="color-36"><stop offset="0" stop-color="#558ddb"/><stop offset="1" stop-color="#558ddb" stop-opacity="0"/></radialGradient><radialGradient cx="219.69165" cy="154.31157" r="34.79715" gradientUnits="userSpaceOnUse" id="color-37"><stop offset="0" stop-color="#558ddb"/><stop offset="1" stop-color="#558ddb" stop-opacity="0"/></radialGradient></defs><g transform="translate(-4.42566,-1.09611)"><g data-paper-data="{&quot;isPaintingLayer&quot;:true}" fill-rule="nonzero" stroke-linejoin="miter" stroke-miterlimit="10" stroke-dasharray="" stroke-dashoffset="0" style="mix-blend-mode: normal"><path d="M118.18661,180.04686c0,0 0.23502,-8.07693 0.92549,-15.73408c0.45848,-5.08454 1.48813,-9.7655 2.01411,-11.99207c1.68035,-7.11319 4.90606,-13.0785 7.05929,-15.73872c0.59444,-0.73442 2.05008,-1.88313 2.69341,-2.21739c1.23365,-0.64095 3.14351,-1.48651 5.17071,-1.97422c2.85172,-0.68609 5.93568,-1.00279 7.69625,-1.13856c0.90041,-0.06945 1.8838,-0.22854 2.63206,-0.42282c1.67432,-0.43473 4.94642,-1.15637 8.58362,-1.2722c2.14594,-0.06834 8.5076,-0.23967 15.08692,-0.21912c7.63225,0.02383 15.55743,0.2497 17.53442,0.30603c5.72287,0.16305 15.27461,2.49103 15.27461,2.49103h85.26735c0,0 2.71045,-0.15393 3.30825,-0.28945c0.14314,-0.03245 1.52736,-0.74484 2.96189,-1.1382c1.53272,-0.42028 3.12291,-0.52233 3.31813,-0.52974c0.77548,-0.02946 10.14108,-0.23635 19.64614,-0.23246c5.78969,0.00237 14.39435,0.17496 19.61807,0.43616c2.62693,0.13134 4.39883,0.40645 4.52777,0.44877c3.00797,0.98734 8.61149,3.14738 12.96201,5.75911c0.39375,0.23637 1.37549,0.34345 2.10998,0.49793c0.83909,0.17648 1.8533,0.80496 1.90727,0.86294c3.47011,3.72789 7.8242,16.68742 8.97307,21.12641c0.26625,1.02871 0.41269,2.71231 0.41269,3.75481c0,2.97687 0,17.21589 0,17.21589v0.83186c0,0 0,14.23902 0,17.21589c0,1.0425 -0.14644,2.7261 -0.41269,3.75481c-1.14887,4.43899 -5.50296,17.39852 -8.97307,21.12641c-0.05397,0.05799 -1.06817,0.68646 -1.90727,0.86294c-0.73449,0.15447 -1.71623,0.26155 -2.10998,0.49793c-4.35051,2.61173 -9.95404,4.77178 -12.96201,5.75911c-0.12894,0.04232 -1.90086,0.31743 -4.52777,0.44877c-5.22373,0.2612 -13.82837,0.4338 -19.61807,0.43617c-9.50507,0.00388 -18.87066,-0.20301 -19.64614,-0.23246c-0.19522,-0.00743 -1.78541,-0.10948 -3.31813,-0.52975c-1.43453,-0.39336 -2.81875,-1.10575 -2.96189,-1.1382c-0.5978,-0.13552 -3.30825,-0.28946 -3.30825,-0.28946h-85.26735c0,0 -9.55174,2.32798 -15.27461,2.49103c-1.97699,0.05633 -9.90217,0.28221 -17.53442,0.30604c-6.57932,0.02055 -12.94098,-0.15079 -15.08692,-0.21913c-3.6372,-0.11583 -6.9093,-0.83747 -8.58362,-1.2722c-0.74826,-0.19428 -1.73165,-0.35336 -2.63206,-0.42281c-1.76057,-0.13578 -4.84453,-0.45247 -7.69625,-1.13857c-2.0272,-0.48771 -3.93705,-1.33327 -5.17071,-1.97422c-0.64333,-0.33426 -2.09896,-1.48297 -2.69341,-2.21739c-2.15323,-2.66021 -5.37895,-8.62553 -7.05929,-15.73872c-0.52598,-2.22657 -1.55563,-6.90754 -2.01411,-11.99209c-0.69045,-7.65714 -0.92549,-15.73407 -0.92549,-15.73407z" data-paper-data="{&quot;index&quot;:null}" fill="#1b5ab1" stroke="#174a92" stroke-width="0.75" stroke-linecap="round"/><path d="M128.52979,224.52095c0,0 -5.33034,-5.99001 -7.11226,-15.16735c-0.7368,-3.79472 -1.88835,-8.05577 -2.36807,-12.58594c-1.35349,-12.78135 -0.81142,-26.84087 -0.08873,-32.87367c0.67212,-5.61063 1.98941,-12.95948 4.04156,-18.43696c2.13009,-5.68552 4.9847,-9.39681 4.9847,-9.39681l5.04652,-2.82253l-0.21712,79.23324z" data-paper-data="{&quot;index&quot;:null}" fill="url(#color-1)" stroke="none" stroke-width="0" stroke-linecap="butt"/><path d="M131.58936,215.06007c-2.57062,-10.59261 -0.57983,-58.51754 -0.02891,-70.62829c0.08074,-1.77483 1.46474,-2.93646 2.72431,-2.96654c1.70893,-0.0408 6.1379,0.60559 10.41967,0.50337c4.18287,-0.09986 8.24015,-0.94886 8.24015,-0.94886l-0.70846,77.50852c0,0 -19.56162,1.00329 -20.64677,-3.46821z" data-paper-data="{&quot;index&quot;:null}" fill="url(#color-2)" stroke="none" stroke-width="0" stroke-linecap="butt"/><path d="M365.62202,158.88747c0,0 -42.58409,-15.2349 -55.56439,-18.93803c-2.61891,-0.74714 -53.22157,9.34518 -83.1263,9.7544c-15.1887,0.20785 -30.97045,-0.23709 -44.81522,-1.70944c-9.66816,-1.02819 -18.14025,-2.90948 -25.87077,-3.92898c-3.52887,-0.46538 -8.37836,-2.84464 -11.34111,-3.20956c-10.22185,-1.25903 -15.30847,0.93404 -15.30847,0.93404c0,0 4.66101,-3.53672 5.73167,-3.96256c2.10145,-0.83582 13.59994,-1.70004 20.69311,-2.01453c28.21615,-1.25102 134.55893,-2.03534 134.55893,-2.03534c0,0 16.39838,-0.29795 31.23216,0.35353c9.89872,0.43474 18.3917,1.29059 22.08715,2.21892c4.98604,1.25254 10.868,8.46046 10.868,8.46046c0,0 4.97415,4.03059 6.59471,6.22176c1.70189,2.30115 4.26053,7.85533 4.26053,7.85533z" data-paper-data="{&quot;index&quot;:null}" fill="url(#color-3)" stroke="#174a92" stroke-width="0" stroke-linecap="butt"/><path d="M238.57879,207.53973c0,0 -17.15962,0.28321 -26.54871,0.5378c-10.60826,0.28765 -33.89096,1.10108 -33.89096,1.10108v-58.81784c0,0 19.06964,1.2149 29.53314,1.56618c11.18469,0.3755 35.55574,0.61901 35.55574,0.61901l-4.6492,54.99378z" data-paper-data="{&quot;index&quot;:null}" fill="url(#color-4)" stroke="none" stroke-width="0" stroke-linecap="butt"/><path d="M362.06632,211.66457c1.78211,-3.62237 5.75837,-12.68945 5.75837,-12.68945c0,0 -0.47386,4.80712 -1.67407,7.7737c-1.30712,3.23083 -3.26509,8.70144 -4.93791,11.97148c-1.40848,2.75335 -3.00639,4.49936 -3.45184,4.72041c-0.42563,0.21122 -2.24904,0.33 -2.24904,0.33c0,0 4.61539,-8.16463 6.55449,-12.10612z" data-paper-data="{&quot;index&quot;:null}" fill="url(#color-5)" stroke="none" stroke-width="0" stroke-linecap="butt"/><path d="M362.66108,149.00703c-1.9391,-3.9415 -6.55449,-12.10612 -6.55449,-12.10612c0,0 1.82342,0.11879 2.24905,0.33c0.44545,0.22105 1.65179,2.29336 3.06028,5.04671c1.67281,3.27004 3.63078,7.5007 4.93791,10.73153c1.20022,2.96658 0.95619,6.66425 0.95619,6.66425c0,0 -2.86683,-7.044 -4.64893,-10.66637z" data-paper-data="{&quot;index&quot;:null}" fill="url(#color-6)" stroke="none" stroke-width="0" stroke-linecap="butt"/><path d="M365.62199,200.64375c0,0 -2.55863,5.55418 -4.26052,7.85533c-1.62056,2.19117 -6.59471,6.22177 -6.59471,6.22177c0,0 -5.88196,7.20791 -10.868,8.46045c-3.69545,0.92834 -12.18842,1.78418 -22.08715,2.21892c-14.83378,0.65148 -31.23216,0.35353 -31.23216,0.35353c0,0 -106.34279,-0.78431 -134.55893,-2.03534c-7.09316,-0.3145 -18.59164,-1.17872 -20.69309,-2.01454c-1.07066,-0.42584 -5.73168,-3.96257 -5.73168,-3.96257c0,0 5.08662,2.19308 15.30847,0.93405c2.96274,-0.36492 7.81224,-2.74418 11.34112,-3.20956c7.73051,-1.0195 16.2026,-2.9008 25.87077,-3.92899c13.84477,-1.47236 29.62651,-1.9173 44.81521,-1.70945c29.90473,0.40922 80.5074,10.50154 83.12631,9.7544c12.98029,-3.70313 55.56439,-18.93802 55.56439,-18.93802z" data-paper-data="{&quot;index&quot;:null}" fill="url(#color-7)" stroke="#174a92" stroke-width="0" stroke-linecap="butt"/><path d="M295.57626,220.43913v-80.7034h32.33711v80.7034z" data-paper-data="{&quot;index&quot;:null}" fill="url(#color-8)" stroke="#174a92" stroke-width="0" stroke-linecap="butt"/><path d="M347.01265,201.67149c0,0 -1.6918,2.27352 -3.68399,3.21774c-4.51495,2.13993 -22.7439,9.30812 -22.7439,9.30812l6.57435,-25.88966l21.79125,-4.08302c0,0 -0.24574,9.82847 -0.59682,12.98959c-0.19064,1.71648 -1.34088,4.45723 -1.34088,4.45723z" data-paper-data="{&quot;index&quot;:null}" fill="url(#color-9)" stroke="#174a92" stroke-width="0" stroke-linecap="butt"/><path d="M329.97628,190.76395c0,0 0.92566,-2.61586 3.98825,-3.70899c3.24235,-1.15729 14.95735,-3.05326 14.95735,-3.05326l-0.23193,4.4806z" data-paper-data="{&quot;index&quot;:null}" fill="url(#color-10)" stroke="#174a92" stroke-width="0" stroke-linecap="butt"/><path d="M347.7324,195.92039c0,0 0.48489,1.7531 0.44042,2.54362c-0.04549,0.80859 -0.78659,3.39812 -0.78659,3.39812c0,0 -4.88643,3.23521 -7.92365,4.76946c-3.23118,1.63224 -11.98452,4.59578 -11.98452,4.59578c0,0 -3.93548,2.36096 -4.30171,1.58759c-0.62306,-1.31574 0.90485,-9.6754 0.90485,-9.6754z" data-paper-data="{&quot;index&quot;:null}" fill="url(#color-11)" stroke="#174a92" stroke-width="0" stroke-linecap="butt"/><path d="M128.63268,216.95178c0,0 0.54024,0.08761 1.19861,0.55055c0.68023,0.47832 2.673,2.1665 4.67046,3.6155c1.91188,1.38691 3.82803,2.53638 4.60163,2.99785c1.74856,1.04307 3.94311,2.09061 5.12592,2.70207c0.88262,0.45627 0.50566,0.62115 -0.3147,0.55733c-1.0136,-0.07885 -2.51236,-0.2549 -4.14767,-0.64794c-1.22412,-0.29421 -4.46514,-1.31357 -6.88061,-2.93632c-0.98063,-0.65879 -2.82477,-2.40701 -3.65087,-3.97091c-0.8036,-1.52129 -0.60278,-2.86813 -0.60278,-2.86813z" data-paper-data="{&quot;index&quot;:null}" fill="#cc0000" stroke="#174a92" stroke-width="0.75" stroke-linecap="round"/><path d="M129.23546,140.1915c0.8261,-1.5639 2.67024,-3.31211 3.65087,-3.97091c2.41547,-1.62275 5.65649,-2.6421 6.88061,-2.93632c1.6353,-0.39305 3.13406,-0.5691 4.14767,-0.64795c0.82036,-0.06382 1.19733,0.10106 0.3147,0.55733c-1.18282,0.61146 -3.37736,1.659 -5.12592,2.70207c-0.7736,0.46147 -2.68975,1.61093 -4.60163,2.99784c-1.99746,1.449 -3.99023,3.13719 -4.67046,3.61551c-0.65837,0.46295 -1.19861,0.55055 -1.19861,0.55055c0,0 -0.20083,-1.34684 0.60278,-2.86813z" data-paper-data="{&quot;index&quot;:null}" fill="#cc0000" stroke="#174a92" stroke-width="0.75" stroke-linecap="round"/><path d="M143.27119,179.76512c0,0 0.22557,-9.6188 1.00799,-17.24656c0.36687,-3.57668 1.19708,-6.71558 1.56072,-8.21978c1.14013,-4.71608 4.01584,-8.52765 5.52734,-10.02415c0.19012,-0.18824 1.22953,-0.44072 2.48156,-0.36311c4.21768,0.26145 13.21586,2.0103 19.52164,3.23719c2.50874,0.48811 4.59132,0.80166 5.77715,1.04633c0.66953,0.13816 1.04755,0.65443 1.04755,0.65443c0,0 0.51158,0.69758 0.47048,1.52566c-0.02835,0.5711 -0.31568,1.68801 -0.52096,3.16477c-0.07231,0.52011 -0.48165,3.90477 -0.69874,8.07471c-0.40016,7.68652 -0.67092,18.04127 -0.67092,18.04127v0.69967c0,0 0.27077,10.35474 0.67092,18.04126c0.21708,4.16995 0.62643,7.55462 0.69874,8.07471c0.20529,1.47676 0.49262,2.59369 0.52096,3.16479c0.0411,0.82807 -0.47048,1.52563 -0.47048,1.52563c0,0 -0.37803,0.51629 -1.04756,0.65445c-1.18583,0.24468 -3.26842,0.55822 -5.77715,1.04633c-6.30578,1.22689 -15.30396,2.97574 -19.52164,3.23719c-1.25203,0.07761 -2.29142,-0.17486 -2.48155,-0.36311c-1.51152,-1.4965 -4.38721,-5.30806 -5.52734,-10.02415c-0.36364,-1.50421 -1.19386,-4.6431 -1.56073,-8.21978c-0.78241,-7.62777 -1.00798,-17.24657 -1.00798,-17.24657z" data-paper-data="{&quot;index&quot;:null}" fill="url(#color-12)" stroke="#174a92" stroke-width="0.75" stroke-linecap="round"/><path d="M175.69747,179.87436h8.4922c0,-1.02567 0.80702,-1.48206 1.8025,-1.48206c0.99549,0 1.8025,0.45639 1.8025,1.48206v0.26268c0,1.02567 -0.80702,1.48207 -1.8025,1.48207c-0.9955,0 -1.8025,-0.4564 -1.8025,-1.48207h-8.4922z" data-paper-data="{&quot;index&quot;:null}" fill="#1a1a1a" stroke="#174a92" stroke-width="1" stroke-linecap="butt"/><path d="M221.29505,222.96011c0,0 -1.05963,-2.98265 -1.60792,-4.38173c-0.32223,-0.82221 -0.87013,-2.10637 -1.22343,-2.92572c-0.19931,-0.46221 -0.68555,-0.77168 -0.18967,-0.76407c1.8664,0.02863 7.06992,0.09683 8.04618,0.09683c0.38797,0 0.46875,0.219 0.68492,0.55763c0.47092,0.7377 1.29845,1.93389 1.8013,2.7796c0.85104,1.43132 2.64816,4.63747 2.64816,4.63747z" data-paper-data="{&quot;index&quot;:null}" fill="url(#color-13)" stroke="#121212" stroke-width="0.75" stroke-linecap="round"/><path d="M231.45457,137.05131c0,0 -1.79711,3.20614 -2.64816,4.63747c-0.50286,0.84572 -1.33038,2.04191 -1.8013,2.77961c-0.21617,0.33863 -0.29697,0.55763 -0.68493,0.55763c-0.97625,0 -6.17976,0.06819 -8.04617,0.09682c-0.49588,0.0076 -0.00962,-0.30186 0.18967,-0.76407c0.35331,-0.81935 0.90121,-2.1035 1.22343,-2.92572c0.54828,-1.39909 1.60793,-4.38174 1.60793,-4.38174z" data-paper-data="{&quot;index&quot;:null}" fill="url(#color-14)" stroke="#121212" stroke-width="0.75" stroke-linecap="round"/><path d="M217.50224,214.86299c0.42638,0.00761 0.46394,0.29633 0.65722,0.72018c0.37514,0.82268 0.98635,2.17536 1.33672,3.01628c0.55997,1.34394 1.61666,4.25142 1.61666,4.25142c0,0 -4.88398,0.07974 -11.47257,0.042c-12.49226,-0.07154 -31.33096,-0.39115 -34.40728,-0.37684c-0.86258,0.00401 -1.09443,0.44409 -1.09443,0.44409c0,0 -2.18218,-1.2217 -0.64714,-2.28205c0.38378,-0.2651 1.5483,-0.99306 2.95513,-1.56762c1.55158,-0.63367 3.74923,-1.34651 5.72676,-1.89803c0.87394,-0.24373 2.1947,-0.62385 3.57232,-0.87561c2.60188,-0.47551 5.40659,-0.77369 5.78682,-0.80161c2.90249,-0.21321 9.15771,-0.52824 14.83999,-0.65357c4.79504,-0.10575 9.5098,-0.04749 11.12978,-0.01862z" data-paper-data="{&quot;index&quot;:null}" fill="url(#color-15)" stroke="#174a92" stroke-width="0" stroke-linecap="round"/><path d="M218.15945,144.42824c-0.19327,0.42386 -0.23084,0.71258 -0.65722,0.72019c-1.61997,0.02888 -6.33474,0.08714 -11.12978,-0.01861c-5.68228,-0.12533 -11.93751,-0.44036 -14.83999,-0.65357c-0.38023,-0.02793 -3.18495,-0.3261 -5.78682,-0.80162c-1.37761,-0.25178 -2.69839,-0.63188 -3.57232,-0.87561c-1.97752,-0.55151 -4.17518,-1.26437 -5.72676,-1.89804c-1.40681,-0.57456 -2.57134,-1.30251 -2.95513,-1.56761c-1.53504,-1.06035 0.64714,-2.28205 0.64714,-2.28205c0,0 0.23184,0.44008 1.09443,0.44409c3.07634,0.01431 21.91503,-0.30531 34.40729,-0.37686c6.58858,-0.03774 11.47257,0.042 11.47257,0.042c0,0 -1.05668,2.90748 -1.61666,4.25142c-0.35038,0.84091 -0.96159,2.19359 -1.33672,3.01627z" data-paper-data="{&quot;index&quot;:null}" fill="url(#color-16)" stroke="#174a92" stroke-width="0" stroke-linecap="round"/><path d="M227.40718,214.99623c2.14424,0.03426 8.28934,0.17211 14.4202,0.70471c1.44264,0.12533 10.08706,1.0532 18.39535,2.44459c7.12473,1.19317 14.00228,2.84284 15.87904,3.31015c3.9663,0.98759 6.58753,1.83216 6.58753,1.83216l-51.12548,-0.32774c0,0 -1.76728,-3.18572 -2.60071,-4.60062c-0.46927,-0.79665 -1.22779,-2.00422 -1.69239,-2.73803c-0.24205,-0.38232 -0.42269,-0.63416 0.13648,-0.62523z" data-paper-data="{&quot;index&quot;:null}" fill="url(#color-17)" stroke="#174a92" stroke-width="0" stroke-linecap="round"/><path d="M227.40722,145.01521c-0.55917,0.00893 -0.37855,-0.24292 -0.13648,-0.62524c0.4646,-0.73381 1.22313,-1.94138 1.6924,-2.73803c0.83344,-1.41491 2.60071,-4.60062 2.60071,-4.60062l51.12548,-0.32773c0,0 -2.62123,0.84457 -6.58753,1.83216c-1.87676,0.4673 -8.75431,2.11697 -15.87903,3.31015c-8.30829,1.39139 -16.9527,2.31925 -18.39534,2.44458c-6.13086,0.5326 -12.27597,0.67046 -14.4202,0.70471z" data-paper-data="{&quot;index&quot;:null}" fill="url(#color-18)" stroke="#174a92" stroke-width="0" stroke-linecap="round"/><path d="M260.45479,179.87435c0,0 -0.5758,-15.04826 -1.23621,-21.09197c-0.37595,-3.44057 -1.50973,-8.62553 -2.0136,-10.83798c-0.15143,-0.66487 0.14374,-1.12098 0.80394,-1.22415c2.39307,-0.37396 8.34012,-1.3192 12.16324,-2.06352c6.80987,-1.32583 23.71081,-5.20211 23.71081,-5.20211c0,0 0.56498,0.23459 1.36298,0.4973c0.53195,0.17513 1.16741,0.30206 1.8081,0.60284c0.90868,0.42659 1.82783,1.05726 2.47689,1.64376c0.73143,0.66094 2.57671,3.27248 4.05997,6.27652c0.57238,1.15924 1.87361,3.92381 2.68235,6.86717c0.51076,1.85888 1.32512,5.66469 1.79056,9.24088c0.39706,3.05079 0.48071,5.93444 0.5541,7.29963c0.21704,4.03705 0.23126,7.77315 0.23126,7.77315v0.69969c0,0 -0.01422,3.7361 -0.23126,7.77315c-0.07339,1.3652 -0.15704,4.24885 -0.5541,7.29963c-0.46544,3.57619 -1.27981,7.382 -1.79056,9.24088c-0.80874,2.94336 -2.10997,5.70792 -2.68235,6.86716c-1.48325,3.00404 -3.32854,5.61559 -4.05997,6.27653c-0.64907,0.5865 -1.56821,1.21716 -2.47689,1.64375c-0.64069,0.30078 -1.27615,0.42772 -1.8081,0.60285c-0.798,0.26272 -1.36298,0.4973 -1.36298,0.4973c0,0 -16.90094,-3.87629 -23.71081,-5.20212c-3.82313,-0.74432 -9.77017,-1.68955 -12.16324,-2.06351c-0.6602,-0.10317 -0.95537,-0.55928 -0.80394,-1.22414c0.50388,-2.21246 1.63766,-7.39741 2.0136,-10.83798c0.66042,-6.04371 1.23621,-21.09198 1.23621,-21.09198z" data-paper-data="{&quot;index&quot;:null}" fill="url(#color-19)" stroke="#174a92" stroke-width="0" stroke-linecap="round"/><path d="M308.84921,179.76516c0,0 -0.01422,-3.84536 -0.23126,-7.8824c-0.07339,-1.3652 -0.15704,-4.24885 -0.5541,-7.29963c-0.46544,-3.57619 -1.2798,-7.382 -1.79056,-9.24088c-0.80874,-2.94336 -2.10997,-5.70793 -2.68236,-6.86717c-1.48325,-3.00404 -3.32854,-5.61558 -4.05997,-6.27652c-1.79321,-1.6204 -3.53015,-2.07728 -4.77624,-2.35324c-1.12888,-0.25 -1.23379,-0.45675 0.11142,-0.50083c1.95156,-0.06395 4.94445,-0.08157 5.75073,0.21621c0.39867,0.14724 1.72283,0.91616 2.77223,1.96738c1.34738,1.34974 2.45434,3.09402 2.8231,3.83355c0.6354,1.27423 2.79661,5.59471 4.06073,9.88725c1.20129,4.07918 1.51833,8.13313 1.71369,9.52365c0.26215,1.86588 0.39324,3.87451 0.54798,5.80101c0.18342,2.28354 0.24736,9.30083 0.24736,9.30083v0.26272c0,0 -0.06394,7.01729 -0.24736,9.30084c-0.15474,1.9265 -0.28582,3.93512 -0.54798,5.80101c-0.19536,1.39051 -0.5124,5.44447 -1.71369,9.52365c-1.26412,4.29254 -3.42533,8.61302 -4.06073,9.88725c-0.36876,0.73952 -1.47572,2.48381 -2.8231,3.83355c-1.0494,1.05122 -2.37356,1.82013 -2.77223,1.96738c-0.80628,0.29778 -3.79917,0.28017 -5.75073,0.21622c-1.34521,-0.04408 -1.24032,-0.25084 -0.11142,-0.50084c1.24608,-0.27595 2.98303,-0.73284 4.77624,-2.35324c0.73143,-0.66094 2.5767,-3.27248 4.05997,-6.27652c0.57238,-1.15924 1.87362,-3.9238 2.68236,-6.86716c0.51076,-1.85888 1.32511,-5.6647 1.79056,-9.24089c0.39706,-3.05079 0.48071,-5.93444 0.5541,-7.29963c0.21704,-4.03705 0.23126,-7.8824 0.23126,-7.8824z" data-paper-data="{&quot;index&quot;:null}" fill="#1a1a1a" stroke="#2c2c2c" stroke-width="0" stroke-linecap="round"/><path d="M290.49647,224.59874c0,0 -67.90695,0.10508 -89.0336,-0.13296c-6.68566,-0.07533 -20.98451,-0.47462 -26.27907,-0.98239c-1.74076,-0.16695 -0.65694,-1.08076 -0.45669,-1.07519c4.09237,0.11355 17.87431,0.24675 28.0809,0.34177c21.43543,0.19958 88.53075,0.49659 88.53075,0.49659z" data-paper-data="{&quot;index&quot;:null}" fill="#1a1a1a" stroke="#174a92" stroke-width="0" stroke-linecap="round"/><path d="M291.33876,136.76485c0,0 -67.09533,0.29701 -88.53076,0.49659c-10.20658,0.09502 -23.98853,0.22823 -28.08089,0.34177c-0.20024,0.00556 -1.28406,-0.90824 0.4567,-1.0752c5.29456,-0.50778 19.59339,-0.90706 26.27906,-0.9824c21.12667,-0.23806 89.0336,-0.13296 89.0336,-0.13296z" data-paper-data="{&quot;index&quot;:null}" fill="#1a1a1a" stroke="#174a92" stroke-width="0" stroke-linecap="round"/><path d="M283.56323,226.67434c0,0 -1.82326,-1.19893 -2.60777,-1.44768c-0.69844,-0.22146 -1.98041,0.13676 -1.98041,0.13676c0,0 -0.85932,-2.24749 -1.11468,-2.91532c-0.13367,-0.34959 -0.55655,-0.80967 0.03358,-0.65166c1.34594,0.36036 4.31363,1.13948 4.99868,1.65627c1.08128,0.81571 0.67061,3.22164 0.67061,3.22164z" data-paper-data="{&quot;index&quot;:null}" fill="#1a1a1a" stroke="#174a92" stroke-width="0" stroke-linecap="round"/><path d="M280.9555,134.78471c0.78451,-0.24875 2.60777,-1.44767 2.60777,-1.44767c0,0 0.41067,2.40593 -0.67061,3.22163c-0.68505,0.51678 -3.65274,1.29591 -4.99868,1.65627c-0.59013,0.15801 -0.16724,-0.30206 -0.03358,-0.65166c0.25534,-0.66783 1.11468,-2.91533 1.11468,-2.91533c0,0 1.28195,0.35823 1.98041,0.13677z" data-paper-data="{&quot;index&quot;:null}" fill="#1a1a1a" stroke="#174a92" stroke-width="0.75" stroke-linecap="round"/><path d="M321.88755,172.99284c0,0 3.2661,-0.51117 4.49725,-0.27178c2.22449,0.43252 6.42171,0.95452 10.27488,1.70372c5.3583,1.04186 10.60899,2.3191 12.00261,2.59007c0.66503,0.1293 1.22239,0.77982 1.22239,1.11162c0,0.43894 0,1.52939 0,1.52939v0.69968c0,0 0,1.09045 0,1.52939c0,0.3318 -0.55736,0.98232 -1.22239,1.11162c-1.39362,0.27097 -6.6443,1.54822 -12.00261,2.59008c-3.85318,0.7492 -8.0504,1.27119 -10.27488,1.70371c-0.52847,0.10276 -1.79553,0.31234 -2.57677,0.09557c-1.0388,-0.28824 -1.55032,-1.046 -1.55032,-1.046z" data-paper-data="{&quot;index&quot;:null}" fill="url(#color-20)" stroke="#174a92" stroke-width="0" stroke-linecap="round"/><path d="M347.08303,186.57806c-0.08634,2.64296 -0.42645,11.41258 -1.20775,14.05569c-0.10813,0.3658 -0.72184,1.22145 -1.41116,1.71865c-1.00241,0.72302 -1.94623,1.16257 -1.94623,1.16257c0,0 0.08917,-13.73279 0.10285,-15.83949c0.0034,-0.52505 0.79505,-1.13774 1.33082,-1.24228c0.51266,-0.10003 1.71146,-0.31263 2.46549,-0.45976c0.46214,-0.09017 0.68171,0.12249 0.66595,0.60462z" data-paper-data="{&quot;index&quot;:null}" fill="url(#color-21)" stroke="#174a92" stroke-width="0.75" stroke-linecap="round"/><path d="M347.08299,173.43338c0.01576,0.48213 -0.2038,0.69479 -0.66594,0.60462c-0.75403,-0.14713 -1.95284,-0.35973 -2.4655,-0.45976c-0.53578,-0.10455 -1.32741,-0.71724 -1.33082,-1.24229c-0.01368,-2.10671 -0.10285,-15.83949 -0.10285,-15.83949c0,0 0.94381,0.43956 1.94623,1.16257c0.68932,0.4972 1.30304,1.35284 1.41116,1.71864c0.7813,2.6431 1.12141,11.41273 1.20775,14.05569z" data-paper-data="{&quot;index&quot;:null}" fill="url(#color-22)" stroke="#174a92" stroke-width="0.75" stroke-linecap="round"/><path d="M341.72458,224.20814c0.58364,-0.12574 2.36359,-0.87708 3.21651,-1.19473c1.39524,-0.51961 2.94063,-1.19424 3.94889,-1.92982c2.15207,-1.57007 5.75945,-5.3468 8.1059,-7.79503c0.50834,-0.53039 0.74526,-0.85732 1.09421,-1.17809c0.43532,-0.40018 0.95904,-0.33597 0.79441,0.33051c-0.12889,0.52178 -0.27127,1.21053 -0.7588,2.00784c-0.2804,0.45857 -1.96712,3.17621 -3.79628,5.37264c-0.92876,1.11524 -1.92047,2.05684 -2.651,2.69873c-0.45812,0.40253 -1.35561,1.05204 -1.75779,1.26529c-1.34779,0.71464 -4.00851,1.99381 -4.80952,2.08156c-0.67079,0.07349 -1.84308,-0.13102 -2.46446,-0.41951c-1.01128,-0.46951 -1.28379,-1.16144 -0.9221,-1.23936z" data-paper-data="{&quot;index&quot;:null}" fill="#ffffff" stroke="#174a92" stroke-width="0.75" stroke-linecap="round"/><path d="M361.92526,202.43932c0,0 -7.5995,4.28717 -16.32566,7.95065c-2.62079,1.10028 -8.64044,3.16496 -14.60057,4.93544c-6.51315,1.93475 -12.98631,3.54927 -15.64453,3.93922c-7.6926,1.12849 -15.74124,1.41908 -15.74124,1.41908" data-paper-data="{&quot;index&quot;:null}" fill="none" stroke="#174a92" stroke-width="0.75" stroke-linecap="round"/><path d="M366.33274,200.0192c0,0 -1.81736,3.51728 -3.01683,5.44687c-1.30431,2.09823 -4.5209,6.46057 -4.5209,6.46057" data-paper-data="{&quot;index&quot;:null}" fill="none" stroke="#174a92" stroke-width="0.75" stroke-linecap="round"/><path d="M341.64395,224.27101c0,0 -5.69772,2.33087 -12.18056,3.66777c-5.52699,1.13978 -11.99231,1.20916 -14.14538,1.19727c-3.73895,-0.02064 -7.38988,-0.88353 -8.30727,-1.28409c-1.76429,-0.77035 -3.71089,-1.94233 -3.71089,-1.94233" data-paper-data="{&quot;index&quot;:null}" fill="none" stroke="#174a92" stroke-width="0.75" stroke-linecap="round"/><path d="M367.42518,199.14524c0,0 -1.66602,5.08568 -3.67543,9.8482c-1.55649,3.68905 -3.45009,7.14052 -4.106,8.1606c-1.29753,2.01791 -2.5396,4.21786 -3.73019,5.62805c-0.87645,1.03811 -1.92518,1.48895 -1.92518,1.48895" data-paper-data="{&quot;index&quot;:null}" fill="none" stroke="#174a92" stroke-width="0.75" stroke-linecap="round"/><path d="M349.40018,224.05253c0,0 -4.75792,2.28608 -7.42906,3.16028c-1.33625,0.43732 -3.58576,1.16551 -5.76432,1.74099c-3.08796,0.8157 -6.03332,1.32557 -6.03332,1.32557" data-paper-data="{&quot;index&quot;:null}" fill="none" stroke="#174a92" stroke-width="0.75" stroke-linecap="round"/><path d="M353.87911,220.33829c0,0 -0.35531,1.23345 -1.11343,2.3538c-0.27552,0.40716 -1.3056,1.45069 -2.57205,2.38271c-1.25441,0.92317 -2.7428,1.73488 -3.53077,2.1392c-2.74009,1.40599 -5.67437,2.51915 -5.67437,2.51915" data-paper-data="{&quot;index&quot;:null}" fill="none" stroke="#174a92" stroke-width="0.75" stroke-linecap="round"/><path d="M343.17335,223.61557c0,0 -3.82329,0.93193 -8.95936,1.28974c-5.06437,0.35281 -11.51135,0.76056 -17.14352,0.87249c-2.02738,0.04028 -7.87178,0.04805 -13.55203,0.0448c-6.55468,-0.00376 -13.21846,-0.13142 -13.21846,-0.13142" data-paper-data="{&quot;index&quot;:null}" fill="none" stroke="#174a92" stroke-width="0.75" stroke-linecap="round"/><path d="M303.84603,230.27937c0,0 -2.45069,-1.27851 -3.58411,-2.00315c-1.08578,-0.6942 -2.97044,-2.25731 -2.97044,-2.25731" data-paper-data="{&quot;index&quot;:null}" fill="none" stroke="#174a92" stroke-width="0.75" stroke-linecap="round"/><path d="M322.85425,192.16261c-0.42723,0 -0.77358,-0.34633 -0.77358,-0.77357c0,-0.42724 0.34634,-0.77358 0.77358,-0.77358c0.42723,0 0.77357,0.34634 0.77357,0.77358c0,0.42724 -0.34634,0.77357 -0.77357,0.77357z" data-paper-data="{&quot;index&quot;:null}" fill="#000000" stroke="#174a92" stroke-width="0.5" stroke-linecap="butt"/><path d="M290.16875,225.69117c0,0 0.97913,-1.98137 1.57385,-2.88304c0.52555,-0.79679 2.14039,-2.25136 2.14039,-2.25136" data-paper-data="{&quot;index&quot;:null}" fill="none" stroke="#174a92" stroke-width="0.75" stroke-linecap="round"/><path d="M288.21279,228.09451c0,0 -1.16271,-1.28727 -1.60024,-2.08623c-0.39582,-0.72278 -0.80309,-2.50195 -0.80309,-2.50195" data-paper-data="{&quot;index&quot;:null}" fill="none" stroke="#174a92" stroke-width="0.75" stroke-linecap="round"/><path d="M299.90173,228.20375h-11.5797" data-paper-data="{&quot;index&quot;:null}" fill="none" stroke="#174a92" stroke-width="0.75" stroke-linecap="round"/><path d="M178.09638,212.03586c0,0 0.88717,-0.16736 1.89676,-0.26301c3.6907,-0.34966 13.3971,-1.20079 23.78065,-1.54688c4.85434,-0.1618 20.82679,-0.26409 33.86506,0.58604c11.2355,0.73259 20.64151,2.53476 20.64151,2.53476" data-paper-data="{&quot;index&quot;:null}" fill="none" stroke="#174a92" stroke-width="0.75" stroke-linecap="round"/><path d="M180.85997,209.17933c4.19356,-0.38604 13.26109,-1.14419 22.91382,-1.46594c4.85435,-0.1618 20.82679,-0.2641 33.86506,0.58604c9.22321,0.60136 16.99507,1.92352 19.56139,2.37783" data-paper-data="{&quot;index&quot;:null}" fill="none" stroke="#174a92" stroke-width="0.75" stroke-linecap="round"/><path d="M177.76439,230.9348c0,0 -2.79418,-2.705 -5.09042,-5.45468c-0.58065,-0.69529 -1.66388,-2.10107 -2.15293,-3.18585c-0.27353,-0.60673 -0.21104,-1.11306 -0.13404,-1.33848c0.16273,-0.47644 0.62119,-0.92375 0.91461,-1.09842c1.72958,-1.02958 4.96339,-2.42126 7.27799,-3.13186c4.99878,-1.53467 11.00657,-2.49767 14.76675,-2.89285c11.44713,-1.20301 24.88022,-1.33716 30.0648,-1.08892c6.24247,0.29888 20.48393,0.95588 33.11566,2.84736c11.0123,1.64899 20.80116,4.30609 22.99996,4.99322c4.22742,1.32108 6.16921,2.70349 6.16921,2.70349" data-paper-data="{&quot;index&quot;:null}" fill="none" stroke="#174a92" stroke-width="0.75" stroke-linecap="round"/><path d="M186.37372,216.29631c0,0 0.7734,1.84942 1.17838,2.81786c0.16072,0.38433 0.38714,0.92576 0.6079,1.45367c0.37115,0.88754 0.7263,1.73681 0.7263,1.73681" data-paper-data="{&quot;index&quot;:null}" fill="none" stroke="#121212" stroke-width="0.75" stroke-linecap="round"/><path d="M204.28949,228.31299c0,0 -17.15213,-0.39959 -31.56212,-1.06747c-2.87021,-0.13302 -12.82467,-0.69876 -20.99922,-1.36063c-6.37848,-0.51645 -11.34553,-1.1769 -11.34553,-1.1769" data-paper-data="{&quot;index&quot;:null}" fill="none" stroke="#174a92" stroke-width="0.75" stroke-linecap="round"/><path d="M175.79727,229.18693c0,0 -11.40529,-0.45406 -16.84034,-0.87068c-4.9751,-0.38136 -14.51226,-1.53266 -14.51226,-1.53266" data-paper-data="{&quot;index&quot;:null}" fill="none" stroke="#174a92" stroke-width="0.75" stroke-linecap="round"/><path d="M166.13617,227.54978c0.01693,0.54149 -0.63751,1.46896 -1.2722,1.41436c-0.30217,-0.02599 -0.79231,0.0411 -1.39106,-0.01041c-1.87174,-0.161 -4.80469,-0.52256 -6.37348,-0.6575c-0.65725,-0.05653 -1.13321,-0.65419 -1.15163,-1.29821c-0.01614,-0.56402 -0.00184,-1.19116 0.10863,-1.55942c0.05939,-0.19797 0.30731,-0.58486 0.65387,-0.91733c0.17536,-0.16822 0.95406,-0.53026 1.29778,-0.55496c0.77116,-0.05542 2.01196,-0.02719 3.22857,0.08839c1.67222,0.15886 3.29876,0.49327 3.59735,0.60666c0.64527,0.24504 1.11195,0.63864 1.20414,0.82899c0.34633,0.71508 0.08538,1.65485 0.09803,2.05942z" data-paper-data="{&quot;index&quot;:null}" fill="none" stroke="#174a92" stroke-width="0.75" stroke-linecap="round"/><path d="M163.12244,220.66603c0,0 -7.22831,-0.17666 -13.29719,-1.19876c-1.58357,-0.2667 -4.09398,-0.81938 -6.44806,-1.81168c-2.48468,-1.04736 -4.79519,-2.54711 -5.65788,-3.25377c-0.92424,-0.75706 -2.03849,-2.18136 -2.73681,-3.57476c-0.78122,-1.5588 -1.09685,-3.07892 -1.14724,-3.58282c-0.74276,-7.42602 -0.53602,-26.88868 -0.53602,-26.88868v-0.69967c0,0 -0.20675,-19.46268 0.53602,-26.88869c0.05039,-0.50389 0.36603,-2.024 1.14724,-3.58282c0.69831,-1.39339 1.81257,-2.81769 2.73681,-3.57475c0.86268,-0.70665 3.1732,-2.20641 5.65788,-3.25377c2.35407,-0.9923 4.86448,-1.54498 6.44806,-1.81167c6.06888,-1.0221 13.29719,-1.19878 13.29719,-1.19878" data-paper-data="{&quot;index&quot;:null}" fill="none" stroke="#174a92" stroke-width="0.75" stroke-linecap="round"/><path d="M134.20405,207.33843c0,0 1.93202,-0.08519 3.29391,0.08608c0.24788,0.03118 1.34807,0.28373 2.26878,0.8398c0.98261,0.59345 1.79116,1.50223 2.13949,1.85807c0.3397,0.34699 1.07112,1.27789 1.60162,2.28897c0.4881,0.93027 0.78935,1.94521 0.83076,2.26378c0.172,1.32317 0.02498,3.04135 0.02498,3.04135" data-paper-data="{&quot;index&quot;:null}" fill="none" stroke="#174a92" stroke-width="0.75" stroke-linecap="round"/><path d="M150.15346,214.76693c0,0 -0.56569,0.33383 -1.13611,0.46402c-0.66981,0.15287 -1.4968,0.21701 -1.92649,0.24815c-1.17927,0.08548 -2.39952,0.05252 -2.39952,0.05252" data-paper-data="{&quot;index&quot;:null}" fill="none" stroke="#174a92" stroke-width="0.75" stroke-linecap="round"/><path d="M133.00238,193.13692c0,0 -5.96702,-1.93708 -7.37955,-2.43338c-0.66569,-0.23389 -0.43297,-0.59231 0.0338,-0.56078c1.27403,0.08608 7.34575,0.70006 7.34575,0.70006" data-paper-data="{&quot;index&quot;:null}" fill="none" stroke="#174a92" stroke-width="0.75" stroke-linecap="round"/><path d="M156.81725,230.93481c0,0 -4.36191,-0.31841 -6.37284,-0.90425c-0.36473,-0.10625 -1.26955,-0.64479 -2.36077,-1.1243c-0.76132,-0.33455 -1.58316,-0.56135 -2.25016,-0.82726c-0.78851,-0.31436 -1.36065,-0.63995 -1.36065,-0.63995" data-paper-data="{&quot;index&quot;:null}" fill="none" stroke="#174a92" stroke-width="0.75" stroke-linecap="round"/><path d="M299.61328,139.32771c0,0 8.04864,0.29058 15.74124,1.41907c2.65822,0.38996 9.13139,2.00447 15.64454,3.93922c5.96013,1.77048 11.97976,3.83516 14.60056,4.93544c8.72614,3.66348 16.32566,7.95066 16.32566,7.95066" data-paper-data="{&quot;index&quot;:null}" fill="none" stroke="#174a92" stroke-width="0.75" stroke-linecap="round"/><path d="M303.29983,134.10176c0,0 1.94661,-1.17198 3.7109,-1.94233c0.91739,-0.40056 4.56832,-1.26346 8.30726,-1.2841c2.15307,-0.01188 8.6184,0.05749 14.14539,1.19727c6.48282,1.33691 12.18056,3.66778 12.18056,3.66778" data-paper-data="{&quot;index&quot;:null}" fill="none" stroke="#174a92" stroke-width="0.75" stroke-linecap="round"/><path d="M353.98837,135.74035c0,0 1.04873,0.45084 1.92518,1.48895c1.19059,1.41019 2.43266,3.61013 3.7302,5.62804c0.65592,1.02008 2.54952,4.47155 4.106,8.1606c1.48708,3.52454 2.78608,6.98823 3.36094,8.55081c0.20192,0.54886 0.3145,0.86316 0.3145,0.86316" data-paper-data="{&quot;index&quot;:null}" fill="none" stroke="#174a92" stroke-width="0.75" stroke-linecap="round"/><path d="M330.17348,129.73205c0,0 2.94538,0.50987 6.03332,1.32557c2.17856,0.57548 4.42807,1.30367 5.76432,1.74099c2.67113,0.87419 7.42906,3.16028 7.42906,3.16028" data-paper-data="{&quot;index&quot;:null}" fill="none" stroke="#174a92" stroke-width="0.75" stroke-linecap="round"/><path d="M340.98849,130.27826c0,0 2.93428,1.11317 5.67437,2.51916c0.78796,0.40432 2.27636,1.21604 3.53077,2.1392c1.26644,0.93202 2.29653,1.97554 2.57205,2.3827c0.75811,1.12035 1.11343,2.35381 1.11343,2.35381" data-paper-data="{&quot;index&quot;:null}" fill="none" stroke="#174a92" stroke-width="0.75" stroke-linecap="round"/><path d="M290.29997,134.32025c0,0 6.6638,-0.12766 13.21847,-0.13142c5.68024,-0.00325 11.52464,0.0045 13.55202,0.04479c5.63217,0.11193 12.07915,0.51968 17.14353,0.87249c5.13606,0.35781 8.95936,1.28974 8.95936,1.28974" data-paper-data="{&quot;index&quot;:null}" fill="none" stroke="#174a92" stroke-width="0.75" stroke-linecap="round"/><path d="M297.2915,133.9925c0,0 1.88465,-1.56311 2.97044,-2.25731c1.13343,-0.72465 3.58411,-2.00314 3.58411,-2.00314" data-paper-data="{&quot;index&quot;:null}" fill="none" stroke="#174a92" stroke-width="0.75" stroke-linecap="round"/><path d="M323.62782,168.62238c0,0.42724 -0.34634,0.77358 -0.77358,0.77358c-0.42723,0 -0.77358,-0.34634 -0.77358,-0.77358c0,-0.42724 0.34634,-0.77357 0.77358,-0.77357c0.42723,0 0.77358,0.34633 0.77358,0.77357z" data-paper-data="{&quot;index&quot;:null}" fill="#000000" stroke="#174a92" stroke-width="0.5" stroke-linecap="butt"/><path d="M293.88298,139.45463c0,0 -1.61485,-1.45458 -2.14039,-2.25137c-0.59472,-0.90167 -1.57385,-2.88302 -1.57385,-2.88302" data-paper-data="{&quot;index&quot;:null}" fill="none" stroke="#174a92" stroke-width="0.75" stroke-linecap="round"/><path d="M285.80947,136.50509c0,0 0.40728,-1.77917 0.80309,-2.50194c0.43752,-0.79897 1.60024,-2.08624 1.60024,-2.08624" data-paper-data="{&quot;index&quot;:null}" fill="none" stroke="#174a92" stroke-width="0.75" stroke-linecap="round"/><path d="M299.90173,131.80766h-11.5797" data-paper-data="{&quot;index&quot;:null}" fill="none" stroke="#174a92" stroke-width="0.75" stroke-linecap="round"/><path d="M258.28036,146.66463c0,0 -9.40601,1.80218 -20.64151,2.53476c-13.03827,0.85013 -29.01071,0.74784 -33.86506,0.58604c-10.38356,-0.34609 -20.08997,-1.19721 -23.78065,-1.54687c-1.00958,-0.09564 -1.89676,-0.26301 -1.89676,-0.26301" data-paper-data="{&quot;index&quot;:null}" fill="none" stroke="#174a92" stroke-width="0.75" stroke-linecap="round"/><path d="M257.20023,149.33417c-2.56632,0.45431 -10.33818,1.77645 -19.56139,2.37783c-13.03827,0.85014 -29.0107,0.74784 -33.86506,0.58604c-9.65273,-0.32175 -18.72026,-1.0799 -22.91381,-1.46594" data-paper-data="{&quot;index&quot;:null}" fill="none" stroke="#174a92" stroke-width="0.75" stroke-linecap="round"/><path d="M285.696,136.72355c0,0 -1.9418,1.38242 -6.16922,2.7035c-2.19878,0.68713 -11.98766,3.34423 -22.99995,4.99322c-12.63175,1.89148 -26.87322,2.54847 -33.11567,2.84735c-5.18457,0.24824 -18.61767,0.11409 -30.0648,-1.08892c-3.76019,-0.39517 -9.76797,-1.35816 -14.76675,-2.89283c-2.31458,-0.71059 -5.5484,-2.10226 -7.27798,-3.13185c-0.29341,-0.17466 -0.75187,-0.62198 -0.91461,-1.09842c-0.07701,-0.22542 -0.1395,-0.73174 0.13404,-1.33847c0.48905,-1.08477 1.57228,-2.49053 2.15293,-3.18584c2.29623,-2.74968 5.09043,-5.45469 5.09043,-5.45469" data-paper-data="{&quot;index&quot;:null}" fill="none" stroke="#174a92" stroke-width="0.75" stroke-linecap="round"/><path d="M235.96982,144.69826c0,0 -4.23053,0.24651 -8.62555,0.37547c-3.73922,0.10972 -7.59751,0.1042 -9.07086,0.11224c-3.4418,0.01881 -11.58058,-0.05074 -11.58058,-0.05074" data-paper-data="{&quot;index&quot;:null}" fill="none" stroke="#174a92" stroke-width="0.75" stroke-linecap="round"/><path d="M188.8863,137.70675l-2.51257,6.00835" data-paper-data="{&quot;index&quot;:null}" fill="none" stroke="#121212" stroke-width="0.75" stroke-linecap="round"/><path d="M140.38261,135.30339c0,0 4.96706,-0.66045 11.34553,-1.1769c8.17454,-0.66186 18.12901,-1.2276 20.99922,-1.36062c14.41,-0.66788 31.56211,-1.06748 31.56211,-1.06748" data-paper-data="{&quot;index&quot;:null}" fill="none" stroke="#174a92" stroke-width="0.75" stroke-linecap="round"/><path d="M144.44466,133.22781c0,0 9.53716,-1.15131 14.51226,-1.53267c5.43505,-0.41663 16.84035,-0.87068 16.84035,-0.87068" data-paper-data="{&quot;index&quot;:null}" fill="none" stroke="#174a92" stroke-width="0.75" stroke-linecap="round"/><path d="M144.36361,142.29495c0,0 0.14702,1.71817 -0.02498,3.04135c-0.04141,0.31857 -0.34265,1.33349 -0.83076,2.26377c-0.5305,1.01108 -1.26193,1.94198 -1.60162,2.28898c-0.34833,0.35584 -1.15687,1.26461 -2.13949,1.85806c-0.92071,0.55606 -2.02091,0.8086 -2.26878,0.83978c-1.36189,0.17127 -3.29391,0.08609 -3.29391,0.08609" data-paper-data="{&quot;index&quot;:null}" fill="none" stroke="#174a92" stroke-width="0.75" stroke-linecap="round"/><path d="M144.69133,144.47978c0,0 1.22025,-0.03296 2.39952,0.05252c0.42969,0.03114 1.25668,0.09528 1.92649,0.24815c0.57043,0.13019 1.13611,0.46402 1.13611,0.46402" data-paper-data="{&quot;index&quot;:null}" fill="none" stroke="#174a92" stroke-width="0.75" stroke-linecap="round"/><path d="M133.00239,169.1686c0,0 -6.07172,0.61397 -7.34576,0.70006c-0.46677,0.03153 -0.69949,-0.32688 -0.0338,-0.56077c1.41254,-0.49631 7.37955,-2.43338 7.37955,-2.43338" data-paper-data="{&quot;index&quot;:null}" fill="none" stroke="#174a92" stroke-width="0.75" stroke-linecap="round"/><path d="M144.47283,132.57236c0,0 0.57214,-0.32559 1.36065,-0.63995c0.667,-0.26592 1.48883,-0.49271 2.25016,-0.82726c1.09123,-0.4795 1.99604,-1.01806 2.36077,-1.1243c2.01093,-0.58584 6.37284,-0.90425 6.37284,-0.90425" data-paper-data="{&quot;index&quot;:null}" fill="none" stroke="#174a92" stroke-width="0.75" stroke-linecap="round"/><path d="M302.60027,161.63463l3.46937,32.72461" data-paper-data="{&quot;index&quot;:null}" fill="none" stroke="#000000" stroke-width="1" stroke-linecap="round"/><path d="M305.13196,152.16419c0,0 1.82297,16.56517 2.06376,18.75325c0.05109,0.46419 -0.22202,1.14091 -0.48576,1.38958c-0.57006,0.53747 -2.51566,2.54873 -2.51566,2.54873" data-paper-data="{&quot;index&quot;:null}" fill="none" stroke="#000000" stroke-width="1" stroke-linecap="round"/><path d="M306.81978,196.04703l-10.50189,20.81622" data-paper-data="{&quot;index&quot;:null}" fill="none" stroke="#000000" stroke-width="1" stroke-linecap="round"/><path d="M309.44527,165.94791c0,0 -0.15143,26.64323 -0.1789,29.62864c-0.00489,0.53156 -0.43473,1.27474 -0.79077,1.55504c-0.7665,0.60341 -3.43738,2.85365 -3.43738,2.85365" data-paper-data="{&quot;index&quot;:null}" fill="none" stroke="#000000" stroke-width="1" stroke-linecap="round"/><path d="M362.00711,202.56068c0,0 -3.44201,3.17336 -10.91688,7.0669c-6.22312,3.24152 -15.57567,6.9822 -24.96393,9.80648c-8.5118,2.56062 -17.70363,3.28635 -19.53502,2.72785c-1.05828,-0.32272 -2.17792,-1.81493 -2.17792,-1.81493c0,0 16.62864,-2.24016 24.64749,-4.77063c10.31327,-3.2545 32.94627,-13.01567 32.94627,-13.01567z" data-paper-data="{&quot;index&quot;:null}" fill="#144487" stroke="#174a92" stroke-width="0" stroke-linecap="butt"/><path d="M332.16702,209.63389c9.86559,-2.44645 30.00899,-9.47593 30.00899,-9.47593l-0.46429,2.53078c0,0 -19.34388,8.96089 -29.39548,12.03688c-9.57768,2.93096 -29.56104,6.00501 -29.56104,6.00501l0.17705,-5.80605c0,0 19.91286,-2.97907 29.23476,-5.2907z" data-paper-data="{&quot;index&quot;:null}" fill="url(#color-23)" stroke="#174a92" stroke-width="0" stroke-linecap="butt"/><path d="M304.85871,220.9401c-0.37682,0.03481 -1.67691,-1.94738 -1.67691,-1.94738l2.74045,-3.43941c0,0 3.27771,-0.25071 4.65206,-0.26918c10.16348,-0.13666 31.16311,-3.57944 31.16311,-3.57944l-1.13568,2.4662c0,0 -25.11372,5.78731 -35.74302,6.76921z" data-paper-data="{&quot;index&quot;:null}" fill="url(#color-24)" stroke="#174a92" stroke-width="0" stroke-linecap="butt"/><path d="M362.00712,157.33865c0,0 -22.633,-9.76117 -32.94627,-13.01567c-8.01885,-2.53047 -24.64749,-4.77063 -24.64749,-4.77063c0,0 1.11964,-1.4922 2.17792,-1.81492c1.83139,-0.5585 11.02322,0.16723 19.53502,2.72785c9.38826,2.82428 18.74081,6.56497 24.96393,9.80649c7.47487,3.89354 10.91688,7.06689 10.91688,7.06689z" data-paper-data="{&quot;index&quot;:null}" fill="#144487" stroke="#174a92" stroke-width="0" stroke-linecap="butt"/><path d="M332.16702,150.26545c-9.3219,-2.31162 -29.23476,-5.2907 -29.23476,-5.2907l-0.17706,-5.80605c0,0 19.98336,3.07404 29.56104,6.00501c10.0516,3.07599 29.39548,12.03688 29.39548,12.03688l0.46429,2.53079c0,0 -20.14341,-7.02949 -30.00899,-9.47594z" data-paper-data="{&quot;index&quot;:null}" fill="url(#color-25)" stroke="#174a92" stroke-width="0" stroke-linecap="butt"/><path d="M303.18181,140.90661c0,0 1.30009,-1.98219 1.67691,-1.94738c10.6293,0.9819 35.74304,6.76921 35.74304,6.76921l1.13568,2.46619c0,0 -20.99962,-3.44277 -31.1631,-3.57943c-1.37435,-0.01847 -4.65206,-0.26919 -4.65206,-0.26919l-2.74046,-3.4394z" data-paper-data="{&quot;index&quot;:null}" fill="url(#color-26)" stroke="#174a92" stroke-width="0" stroke-linecap="butt"/><path d="M347.01266,158.26663c0,0 1.15024,2.74076 1.34088,4.45723c0.35109,3.16111 0.59682,12.98958 0.59682,12.98958l-21.79125,-4.08302l-6.57435,-25.88966c0,0 18.22895,7.16819 22.7439,9.30812c1.99219,0.94422 3.68399,3.21774 3.68399,3.21774z" data-paper-data="{&quot;index&quot;:null}" fill="url(#color-27)" stroke="#174a92" stroke-width="0" stroke-linecap="butt"/><path d="M348.68995,171.45581l0.23193,4.48059c0,0 -11.715,-1.89597 -14.95735,-3.05326c-3.06259,-1.09313 -3.98825,-3.70899 -3.98825,-3.70899z" data-paper-data="{&quot;index&quot;:null}" fill="url(#color-28)" stroke="#174a92" stroke-width="0" stroke-linecap="butt"/><path d="M324.08119,156.79855c0,0 -1.52792,-8.35966 -0.90485,-9.6754c0.36622,-0.77337 4.3017,1.5876 4.3017,1.5876c0,0 8.75334,2.96354 11.98452,4.59578c3.03722,1.53425 7.92365,4.76945 7.92365,4.76945c0,0 0.7411,2.58953 0.78659,3.39813c0.04447,0.79053 -0.44042,2.54362 -0.44042,2.54362z" data-paper-data="{&quot;index&quot;:null}" fill="url(#color-29)" stroke="#174a92" stroke-width="0" stroke-linecap="butt"/><path d="M347.08301,173.36007c0.01576,0.48213 -0.20381,0.6948 -0.66595,0.60463c-0.75403,-0.14713 -1.95283,-0.35974 -2.46549,-0.45977c-0.53578,-0.10455 -1.32742,-0.71723 -1.33082,-1.24228c-0.01368,-2.10671 -0.10285,-15.83949 -0.10285,-15.83949c0,0 0.94382,0.43955 1.94623,1.16257c0.68932,0.4972 1.30303,1.35285 1.41116,1.71865c0.7813,2.64311 1.12141,11.41273 1.20775,14.05569z" data-paper-data="{&quot;index&quot;:null}" fill="url(#color-30)" stroke="#174a92" stroke-width="0.75" stroke-linecap="round"/><path d="M322.84921,187.28401v-14.43654l2.71456,-0.30847v14.8684z" data-paper-data="{&quot;index&quot;:null}" fill="url(#color-31)" stroke="#174a92" stroke-width="0" stroke-linecap="butt"/><path d="M324.88511,187.4691c0,0 -2.8647,0 -3.76337,0c-0.50155,0 -1.1722,-0.39729 -1.1722,-1.04881c0,-2.41132 0,-8.30491 0,-10.42639c0,-0.74617 0,-1.61228 0,-2.2827c0,-0.64614 0.58864,-1.11051 1.04881,-1.11051c0.88585,0 3.88676,0 3.88676,0c0,0 -1.31844,0.72292 -1.60406,1.23389c-0.15337,0.27437 -0.01556,3.04307 -0.07044,5.98537c-0.05326,2.85513 -0.30597,5.88455 -0.01961,6.25938c0.38583,0.50504 1.69412,1.38976 1.69412,1.38976z" data-paper-data="{&quot;index&quot;:null}" fill="#1d60be" stroke="#174a92" stroke-width="0.5" stroke-linecap="butt"/><path d="M293.72789,225.82874c0,0 16.10384,0.40025 24.00094,0.16682c7.65642,-0.22631 22.68197,-1.54672 22.68197,-1.54672c0,0 0.86911,0.68433 1.49101,0.94522c0.66547,0.27917 2.37995,0.67867 2.37995,0.67867c0,0 1.82017,-0.32645 3.46044,-1.17655c2.27803,-1.18064 4.55864,-2.96349 4.25306,-2.6465c-0.10595,0.10992 10.60477,-12.10617 12.11961,-11.82627c0.98077,0.18123 -2.57157,7.61332 -4.7115,11.18648c-0.6954,1.16114 -1.85873,1.80257 -1.85873,1.80257c0,0 -0.73795,0.39973 -1.11696,0.47618c-0.39289,0.07924 -1.20026,-0.00881 -1.20026,-0.00881c0,0 -0.41132,0.2733 -1.04643,0.67765c-1.3315,0.84772 -3.64659,2.27147 -5.21731,2.96055c-2.60642,1.14345 -8.61561,2.88946 -8.61561,2.88946l-44.98939,0.94084l-6.81508,-2.69344l-86.37954,0.38572c0,0 -9.31921,2.51243 -19.00141,2.72223c-5.67592,0.12299 -19.12054,0.17538 -27.04185,-0.27603c-8.00853,-0.45637 -10.21222,-2.79717 -10.21222,-2.79717l-5.98757,-4.58886l55.29843,2.42457c0,0 94.00225,-0.82103 94.84192,-0.62503c1.35385,0.31601 3.66653,-0.07161 3.66653,-0.07161z" data-paper-data="{&quot;index&quot;:null}" fill="url(#color-32)" stroke="none" stroke-width="0" stroke-linecap="butt"/><path d="M276.91247,235.96353c-0.93097,0.51254 -3.66233,0.09878 -3.52789,-0.68114c0.06289,-0.36488 0.18882,-0.80331 0.42298,-1.30426c0.59867,-1.28071 1.30491,-2.87467 2.17579,-4.31361c0.3022,-0.49931 1.11689,-1.82515 1.88824,-2.88891c0.55102,-0.75992 1.13341,-1.38609 1.24635,-1.48164c0.35999,-0.30454 0.78667,-0.32015 1.1852,-0.21255c0.35858,0.09681 1.03638,0.24239 1.48743,0.44619c0.69707,0.31495 1.48363,0.7611 1.73881,0.98334c0.30523,0.26585 -0.58087,1.80786 -0.89189,2.33698c-0.50686,0.8623 -1.36759,2.24406 -2.38952,3.54817c-0.35413,0.45189 -2.01275,2.8392 -3.3355,3.56744z" data-paper-data="{&quot;index&quot;:null}" fill="#1b5ab1" stroke="#174a92" stroke-width="0.75" stroke-linecap="round"/><path d="M291.00656,133.40982c-0.83967,0.196 -94.10158,0.30038 -94.10158,0.30038l-57.44792,2.65172l6.84147,-4.26075c0,0 2.20368,-2.3408 10.21221,-2.79718c7.92131,-0.45139 21.36594,-0.399 27.04187,-0.27602c9.68221,0.2098 19.00141,2.72223 19.00141,2.72223l86.37954,0.38573l6.81508,-2.69345l44.9894,0.94084c0,0 6.00919,1.74602 8.6156,2.88947c1.57072,0.68909 3.88583,2.11282 5.21731,2.96054c0.63511,0.40436 1.04642,0.67765 1.04642,0.67765c0,0 0.80736,-0.08804 1.20026,-0.0088c0.37901,0.07644 1.11696,0.47617 1.11696,0.47617c0,0 1.16333,0.64144 1.85873,1.80257c2.13993,3.57316 5.69227,11.00526 4.7115,11.18648c-1.51484,0.27991 -12.22556,-11.93618 -12.11961,-11.82627c0.30557,0.31699 -1.97503,-1.46587 -4.25306,-2.6465c-1.64027,-0.85011 -3.46044,-1.17655 -3.46044,-1.17655c0,0 -1.71448,0.39951 -2.37995,0.67867c-0.62189,0.26089 -1.49101,0.94522 -1.49101,0.94522c0,0 -15.02555,-1.3204 -22.68197,-1.54672c-7.89709,-0.23343 -25.75835,-1.70146 -27.11221,-1.38545z" data-paper-data="{&quot;index&quot;:null}" fill="url(#color-33)" stroke="none" stroke-width="0" stroke-linecap="butt"/><path d="M273.38458,124.72902c-0.13443,-0.77992 2.59693,-1.19369 3.52789,-0.68115c1.32277,0.72824 2.9814,3.11556 3.33551,3.56745c1.02192,1.3041 1.88266,2.68585 2.38952,3.54816c0.31102,0.52912 1.19712,2.07114 0.89189,2.337c-0.25517,0.22224 -1.04173,0.6684 -1.73881,0.98335c-0.45105,0.20379 -1.12885,0.34937 -1.48744,0.44618c-0.39853,0.10761 -0.82521,0.09199 -1.1852,-0.21255c-0.11295,-0.09555 -0.69534,-0.72171 -1.24635,-1.48163c-0.77134,-1.06376 -1.58603,-2.3896 -1.88824,-2.88891c-0.87088,-1.43894 -1.57713,-3.0329 -2.17579,-4.31362c-0.23417,-0.50094 -0.36009,-0.93938 -0.42298,-1.30425z" data-paper-data="{&quot;index&quot;:null}" fill="#1b5ab1" stroke="#174a92" stroke-width="0.75" stroke-linecap="round"/><path d="M341.72457,135.80324c-0.36169,-0.07792 -0.0892,-0.76985 0.92208,-1.23936c0.62138,-0.28848 1.79366,-0.49299 2.46447,-0.4195c0.80102,0.08775 3.46174,1.36692 4.80952,2.08156c0.40218,0.21324 1.29967,0.86275 1.75779,1.26529c0.73053,0.6419 1.72224,1.58348 2.651,2.69873c1.82916,2.19643 3.51587,4.91407 3.79629,5.37264c0.48753,0.7973 0.6299,1.48605 0.75879,2.00784c0.16463,0.66648 -0.35909,0.73071 -0.79441,0.33052c-0.34895,-0.32077 -0.58587,-0.64769 -1.0942,-1.17809c-2.34645,-2.44823 -5.95385,-6.22497 -8.10592,-7.79504c-1.00826,-0.73558 -2.55365,-1.4102 -3.94888,-1.92981c-0.85291,-0.31765 -2.63286,-1.069 -3.21652,-1.19474z" data-paper-data="{&quot;index&quot;:null}" fill="#ffffff" stroke="#174a92" stroke-width="0.75" stroke-linecap="round"/><path d="M138.39063,214.78469c1.82134,1.504 7.31904,4.01805 7.31904,4.01805c0,0 -10.56309,0.76594 -14.73844,-0.88359c-1.18729,-0.46905 -5.02985,-2.13747 -6.14097,-4.29018c-2.46435,-4.77453 -2.13328,-12.54936 -2.13328,-12.54936c0,0 -2.53863,-46.17056 2.38254,-54.55962c4.49181,-7.65714 19.70949,-5.47177 19.70949,-5.47177c0,0 -10.89789,3.50661 -11.36517,14.55398c-0.51575,12.19321 0.20531,48.34126 0.43854,51.1859c0.23323,2.84464 2.52617,6.34337 4.52824,7.99661z" data-paper-data="{&quot;index&quot;:null}" fill="url(#color-34)" stroke="none" stroke-width="0" stroke-linecap="butt"/><path d="M358.79501,148.08479c0,0 3.21659,4.36233 4.5209,6.46057c1.19948,1.92959 2.93502,5.28324 2.93502,5.28324" data-paper-data="{&quot;index&quot;:null}" fill="none" stroke="#174a92" stroke-width="0.75" stroke-linecap="round"/><path d="M367.90007,198.20789c0,0 -0.77956,1.00252 -1.79118,1.84681c-1.28565,1.07301 -2.89016,2.05815 -3.1348,2.23712c-0.62603,0.45799 -0.94948,0.33478 -0.8835,-0.27161c0.11555,-1.062 0.30159,-2.87111 0.4506,-4.78675c0.14098,-1.81234 0.20321,-3.68708 0.27001,-5.04205c0.08934,-1.81241 0.21645,-12.17391 0.21645,-12.17391v-0.02359c0,0 -0.12712,-10.36152 -0.21645,-12.17391c-0.0668,-1.35496 -0.12903,-3.2297 -0.27001,-5.04205c-0.14902,-1.91564 -0.33506,-3.72475 -0.4506,-4.78675c-0.06596,-0.6064 0.25745,-0.72959 0.88349,-0.2716c0.24464,0.17897 1.84916,1.1641 3.13481,2.23711c1.01161,0.84429 1.79118,1.84681 1.79118,1.84681z" data-paper-data="{&quot;index&quot;:null}" fill="url(#color-35)" stroke="#999999" stroke-width="0.5" stroke-linecap="round"/><path d="M220.08484,205.17757c19.21793,0 34.79714,0.3395 34.79714,0.7583c0,0.41879 -15.57922,0.75829 -34.79714,0.75829c-19.21793,0 -34.79714,-0.33949 -34.79714,-0.75829c0,-0.41879 15.57921,-0.7583 34.79714,-0.7583z" data-paper-data="{&quot;index&quot;:null}" fill="url(#color-36)" stroke="none" stroke-width="0" stroke-linecap="butt"/><path d="M219.69165,153.55328c19.21793,0 34.79713,0.3395 34.79713,0.75829c0,0.41879 -15.5792,0.7583 -34.79713,0.7583c-19.21793,0 -34.79714,-0.33951 -34.79714,-0.7583c0,-0.41879 15.57922,-0.75829 34.79715,-0.75829z" data-paper-data="{&quot;index&quot;:null}" fill="url(#color-37)" stroke="none" stroke-width="0" stroke-linecap="butt"/><path d="M4.42566,361.6348v-360.53869h472.87786v360.53869z" fill="none" stroke="none" stroke-width="0" stroke-linecap="butt"/></g></g></svg>