<svg version="1.1" xmlns="http://www.w3.org/2000/svg" xmlns:xlink="http://www.w3.org/1999/xlink" width="305.77472" height="379.82954" viewBox="0,0,305.77472,379.82954"><defs><linearGradient x1="6034.25421" y1="224.73336" x2="-825.26404" y2="224.73336" gradientUnits="userSpaceOnUse" id="color-1"><stop offset="0" stop-color="#5d5d5d"/><stop offset="1" stop-color="#5d5d5d" stop-opacity="0"/></linearGradient><linearGradient x1="237.95987" y1="76.82765" x2="237.95987" y2="122.88238" gradientUnits="userSpaceOnUse" id="color-2"><stop offset="0" stop-color="#4f2d0f"/><stop offset="1" stop-color="#4f2d0f" stop-opacity="0"/></linearGradient><radialGradient cx="245.41943" cy="28.05311" r="97.74296" gradientUnits="userSpaceOnUse" id="color-3"><stop offset="0" stop-color="#00b106"/><stop offset="1" stop-color="#00b106" stop-opacity="0"/></radialGradient><linearGradient x1="201.90689" y1="132.00832" x2="241.38444" y2="132.00832" gradientUnits="userSpaceOnUse" id="color-4"><stop offset="0" stop-color="#a85f20"/><stop offset="1" stop-color="#a85f20" stop-opacity="0"/></linearGradient></defs><g transform="translate(-95.22747,74.22745)"><g data-paper-data="{&quot;isPaintingLayer&quot;:true}" fill-rule="nonzero" stroke="none" stroke-width="0" stroke-linecap="butt" stroke-linejoin="miter" stroke-miterlimit="10" stroke-dasharray="" stroke-dashoffset="0" style="mix-blend-mode: normal"><path d="M308.80156,175.67837c0,0 26.71426,34.26478 31.5642,37.02575c-3.54506,23.01135 -33.19177,29.47299 -55.9199,33.48906c-21.60626,3.81784 -85.00198,-8.33688 -85.00198,-8.33688l-38.07504,-35.16569l43.16847,-33.11499h67.16665z" fill="url(#color-1)"/><g><path d="M331.3342,46.07952c0,0 1.6755,15.4399 -0.64513,20.98184c-3.77969,9.02619 -20.1983,17.62636 -20.1983,17.62636c0,0 -9.08173,7.85085 -13.96592,9.40998c-2.99304,0.95542 -9.10147,-0.88579 -9.10147,-0.88579l-6.84047,-4.45101c0,0 -17.0654,-1.50459 -22.27708,-3.55832c-6.13345,-2.417 -3.24413,-5.5884 -6.12307,-9.5638c-2.90076,-4.0055 -12.98616,-10.37415 -12.98616,-10.37415c0,0 3.29832,-4.01339 3.25451,-8.57323c-0.03691,-3.83985 -3.41721,-8.06726 -3.41721,-10.61188c0,-5.20794 7.53129,-13.38819 7.53129,-13.38819c0,0 -1.99433,-15.75019 1.87789,-19.52387c2.42294,-2.36127 16.35861,-0.74054 16.35861,-0.74054c0,0 6.56635,-1.05361 9.60329,-3.66792c3.45866,-2.97735 6.50353,-9.12547 10.77909,-9.12547c5.89917,0 13.90649,-4.21108 19.09229,-2.1808c2.61466,1.02367 1.92176,4.37155 4.2261,7.12737c3.91398,4.68085 10.16729,9.2305 10.16729,9.2305c0,0 4.57112,0.54646 7.88603,3.5927c3.56931,3.28011 5.94886,9.19184 7.3875,12.65005c1.65745,3.98422 -2.60907,16.02614 -2.60907,16.02614z" fill="#009405"/><path d="M200.61891,183.07342c0,0 11.00442,-6.92518 13.22299,-9.51676c1.30524,-1.52472 -2.43307,-3.30656 -2.43307,-3.30656c0,0 8.7344,-5.98509 9.51712,-8.72466c1.21248,-4.24358 14.29718,-20.80348 8.46555,-37.6717c-1.95292,-5.64895 -7.40606,-7.80474 -11.22508,-12.79492c-5.90224,-7.71236 -10.66444,-21.38758 -15.85487,-29.45919c-4.27093,-6.64166 -9.63435,-8.11343 -9.22456,-11.2393c0.09663,-0.73693 1.96014,-2.77851 5.95151,-0.25837c3.50492,2.21301 12.83991,15.47927 12.83991,15.47927c0,0 2.79711,-3.79918 3.0219,-7.89002c0.35116,-6.39 -1.61764,-13.93119 0.06764,-12.19277c2.30366,2.37626 5.31444,0.62397 5.31444,0.62397c0,0 1.88566,7.00071 2.11559,14.37607c0.20942,6.71624 -3.09861,10.99566 -2.50519,13.32965c1.17918,4.63781 10.0197,11.5356 10.0197,11.5356c0,0 2.70841,-14.63511 0.64081,-21.64298c-2.46911,-8.36867 -7.14667,-16.2902 -6.04063,-16.95187c0.95472,-0.57115 4.1798,0.79872 7.89865,4.80786c1.1387,1.22759 2.33996,-9.16314 3.54713,-7.81189c1.1866,1.32824 5.39582,-0.46855 5.6603,1.75647c0.36043,3.0326 0.31783,9.8067 1.10847,13.15001c1.41416,5.98005 4.72929,18.0769 4.72929,18.0769c0,0 10.59063,-8.17299 18.6631,-13.31719c5.85859,-3.73339 -6.50794,-18.46157 -7.30471,-20.16472c-0.97306,-2.0799 1.21622,-0.23971 2.30619,-0.77677c4.41408,-2.17499 11.5665,14.54698 11.5665,14.54698l13.63055,-14.15032c0,0 -1.01939,2.77672 2.22148,1.87885c4.43925,-1.22989 -12.96724,16.06771 -8.25684,15.16076c12.47284,-2.40157 24.61516,-14.41186 24.61516,-14.41186c0,0 3.07746,-0.56831 3.99403,-0.0972c1.05092,0.54016 1.96385,3.15942 1.96385,3.15942c0,0 -6.78142,9.94614 -17.31204,16.3287c-8.50824,5.15682 -24.30119,9.14867 -28.56285,16.35493c-11.36801,19.22285 -8.86531,45.03415 -6.30603,54.15154c3.32525,11.84624 14.7927,24.62963 14.7927,24.62963l-4.31656,2.41674l-5.89783,-2.35559l2.6925,6.76238l-4.29767,-3.42105l-1.41126,4.56256c0,0 -6.45442,-5.3091 -7.63469,-5.0861c-4.13369,0.78108 -2.04721,7.50831 -2.04721,7.50831l-13.01568,-6.30338l-6.81222,3.60363l-3.51921,-4.69168l-9.54552,0.77696l3.54659,-2.99432z" fill="#633713"/><path d="M243.03818,76.82765l4.20817,20.15823c0,0 22.88,-17.78427 27.22767,-20.92749c0.8949,-0.64695 12.86455,-8.39973 12.86455,-8.39973c0,0 -7.07449,6.52085 -8.37116,12.04461c-0.81722,3.48141 26.24602,-14.74723 26.24602,-14.74723c0,0 2.59747,0.34308 3.48722,0.93034c0.81074,0.53514 1.63633,2.45148 1.63633,2.45148c0,0 -5.11771,9.40062 -9.87933,12.51367c-10.38936,6.79235 -24.65296,10.99627 -33.21718,18.13249c-7.28081,6.06683 -10.29398,25.04502 -10.29398,25.04502c0,0 -17.95011,4.75169 -26.03529,1.76635c-4.30671,-1.59019 -1.33281,-19.45374 -1.33281,-19.45374c0,0 2.61929,-10.46074 1.21596,-17.1279c-1.40333,-6.66716 12.24383,-12.38605 12.24383,-12.38605z" fill="url(#color-2)"/><path d="M233.18355,40.27837c0,0 1.54201,14.20969 -0.59375,19.31005c-3.4785,8.30697 -18.58894,16.22191 -18.58894,16.22191c0,0 -8.35806,7.22531 -12.85314,8.66021c-2.75455,0.87931 -8.37628,-0.81521 -8.37628,-0.81521l-6.29542,-4.09634c0,0 -15.70565,-1.3847 -20.50204,-3.2748c-5.64477,-2.22442 -2.98566,-5.14311 -5.63518,-8.80176c-2.66962,-3.68632 -11.95143,-9.54757 -11.95143,-9.54757c0,0 3.03554,-3.69361 2.99518,-7.89015c-0.03397,-3.53391 -3.14491,-7.42447 -3.14491,-9.76635c0,-4.79294 6.93118,-12.32141 6.93118,-12.32141c0,0 -1.83543,-14.49525 1.72826,-17.96826c2.22988,-2.17314 15.05519,-0.68152 15.05519,-0.68152c0,0 6.04312,-0.96964 8.83809,-3.37564c3.1831,-2.7401 5.98535,-8.39836 9.92023,-8.39836c5.42912,0 12.7984,-3.87554 17.57102,-2.00705c2.40633,0.94209 1.76868,4.02323 3.88938,6.55948c3.60213,4.3079 9.35716,8.49504 9.35716,8.49504c0,0 4.20689,0.5029 7.25768,3.30643c3.2849,3.01873 5.47487,8.45942 6.79887,11.6421c1.52539,3.66677 -2.40115,14.74924 -2.40115,14.74924z" fill="#00a706"/><path d="M291.25598,24.46217c0,0 2.15112,19.8226 -0.82825,26.93764c-4.85256,11.58829 -25.9317,22.62974 -25.9317,22.62974c0,0 -11.65958,10.07936 -17.93023,12.08103c-3.84263,1.22663 -11.68495,-1.13723 -11.68495,-1.13723l-8.78217,-5.71446c0,0 -21.9095,-1.93167 -28.60052,-4.56838c-7.87449,-3.10306 -4.16497,-7.17469 -7.86113,-12.2785c-3.72412,-5.14247 -16.67235,-13.31891 -16.67235,-13.31891c0,0 4.2346,-5.15263 4.17833,-11.00681c-0.04739,-4.92982 -4.3872,-10.35718 -4.3872,-13.62409c0,-6.6862 9.66908,-17.18848 9.66908,-17.18848c0,0 -2.56043,-20.22099 2.41093,-25.06582c3.11072,-3.03155 21.0021,-0.95075 21.0021,-0.95075c0,0 8.43021,-1.35269 12.32921,-4.70906c4.44044,-3.82247 8.3496,-11.71578 13.83882,-11.71578c7.57369,0 17.8539,-5.40643 24.51172,-2.79986c3.35689,1.31422 2.46729,5.61243 5.42573,9.15052c5.02498,6.00951 13.05332,11.85062 13.05332,11.85062c0,0 5.86866,0.70155 10.1245,4.6125c4.5825,4.21118 7.6375,11.80097 9.48449,16.24083c2.12789,5.11515 -3.34967,20.57528 -3.34967,20.57528z" fill="#00a005"/><path d="M293.21241,39.75224c0,0 1.6755,15.4399 -0.64516,20.98184c-3.77969,9.02619 -20.1983,17.62639 -20.1983,17.62639c0,0 -9.08173,7.85085 -13.96592,9.40998c-2.99304,0.95542 -9.10147,-0.88576 -9.10147,-0.88576l-6.84047,-4.45101c0,0 -17.0654,-1.50459 -22.27708,-3.55835c-6.13345,-2.417 -3.24413,-5.58837 -6.12307,-9.56377c-2.90073,-4.0055 -12.98616,-10.37415 -12.98616,-10.37415c0,0 3.29835,-4.01339 3.25451,-8.57326c-0.03691,-3.83985 -3.41721,-8.06726 -3.41721,-10.61188c0,-5.20794 7.53129,-13.38815 7.53129,-13.38815c0,0 -1.99433,-15.75019 1.87789,-19.52387c2.42294,-2.36127 16.35861,-0.74054 16.35861,-0.74054c0,0 6.56635,-1.05361 9.60329,-3.66792c3.45866,-2.97735 6.50353,-9.12544 10.77909,-9.12544c5.89917,0 13.90649,-4.21111 19.09229,-2.18084c2.61466,1.02367 1.92176,4.37155 4.2261,7.12737c3.91398,4.68085 10.16729,9.2305 10.16729,9.2305c0,0 4.57112,0.54646 7.88603,3.5927c3.56931,3.28011 5.94886,9.19184 7.3875,12.65005c1.65745,3.98422 -2.60907,16.02614 -2.60907,16.02614z" fill="#00b106"/><path d="M162.21667,32.36133c0,-20.55518 9.08195,-21.39026 22.60054,-27.73368c8.1127,-3.80675 0.39628,-15.26125 10.07987,-17.31594c6.70291,-1.42225 14.8977,6.16329 21.51689,2.65092c2.46276,-1.3068 2.38751,-15.7494 5.27888,-16.05004c7.43591,-0.77316 10.94898,-9.31664 19.04736,-9.61003c1.19538,-0.0433 5.08885,5.85869 6.29475,5.85869c18.7935,0 21.93857,20.41551 34.20119,28.24674c22.9602,14.663 46.84741,25.69129 46.84741,60.87976c0,12.90065 -5.98254,9.18362 -13.12202,12.21942c-4.50217,1.91438 -7.77042,10.78148 -15.62973,14.73931c-10.40374,5.23916 -15.99869,-1.44605 -25.41915,0.125c-19.40031,3.2354 -21.39483,-6.88891 -43.57206,-6.88891c-36.77476,0 -42.13547,-1.66279 -50.05613,-16.69973c-3.70613,-7.03592 -18.06776,-13.2143 -18.06776,-30.42151z" fill="url(#color-3)"/><path d="M220.20698,163.21499c0,0 -0.03607,-1.61748 1.38841,-3.92823c4.01077,-6.50634 11.8458,-20.52703 8.69088,-33.33048c-1.94768,-7.90411 -11.37334,-11.72843 -14.87773,-18.43499c-4.36806,-8.3594 -12.32454,-24.89027 -12.32454,-24.89027l3.53614,-3.8572l5.31866,6.82302c0,0 1.91719,-2.96473 2.61169,-4.67475c0.68069,-1.67608 0.50025,-4.72478 0.50025,-4.72478l6.98934,2.14655c0,0 0.5808,4.19101 -0.1119,7.57429c-0.50856,2.48388 -2.09802,5.07323 -1.79149,7.65673c0.48015,4.04649 4.48313,6.80024 5.15615,7.8534c1.22539,1.91755 4.95168,3.82899 4.95168,3.82899c0,0 1.14445,-8.3056 1.10144,-12.1088c-0.05029,-4.44817 -1.38486,-12.9497 -1.38486,-12.9497c0,0 4.95203,-3.13098 6.45186,-2.6677c2.12323,0.65583 9.79558,31.35331 11.16332,34.33942c3.78148,8.25591 9.04597,51.55493 9.04597,51.55493c0,0 -9.91681,17.37132 -13.86895,18.14789c-0.1535,0.03016 -12.26291,6.21688 -12.26291,6.21688l-3.55135,-4.9652l-8.93967,0.88145l3.51547,-3.20163l-19.60801,2.40636l12.66436,-10.07507l-2.73697,-2.49643z" fill="url(#color-4)"/></g><path d="M95.22747,305.60209v-379.82954h305.77472v379.82954z" fill="none"/></g></g></svg>