<svg version="1.1" xmlns="http://www.w3.org/2000/svg" xmlns:xlink="http://www.w3.org/1999/xlink" width="509.00901" height="382.88288" viewBox="0,0,509.00901,382.88288"><defs><linearGradient x1="248.87797" y1="129.0958" x2="248.87797" y2="184.46321" gradientUnits="userSpaceOnUse" id="color-1"><stop offset="0" stop-color="#2b2b2b"/><stop offset="1" stop-color="#2b2b2b" stop-opacity="0"/></linearGradient><linearGradient x1="240" y1="138.29115" x2="240" y2="112.44147" gradientUnits="userSpaceOnUse" id="color-2"><stop offset="0" stop-color="#cdd4d4"/><stop offset="1" stop-color="#ccd5d5"/></linearGradient></defs><g transform="translate(11.5015,9.18919)"><g data-paper-data="{&quot;isPaintingLayer&quot;:true}" fill-rule="nonzero" stroke-linecap="butt" stroke-linejoin="miter" stroke-miterlimit="10" stroke-dasharray="" stroke-dashoffset="0" style="mix-blend-mode: normal"><path d="M-11.5015,373.69369v-382.88288h509.00901v382.88288z" fill="none" stroke="none" stroke-width="0"/><path d="M53.75,164.88437v-32.5h350v32.5z" fill="#8f9494" stroke="none" stroke-width="0"/><path d="M82.63999,162.69158v-24.76963h16.75593v24.76963z" fill="#cdd4d4" stroke="none" stroke-width="0"/><path d="M360.93409,162.69158v-24.76963h16.75593v24.76963z" fill="#cdd4d4" stroke="none" stroke-width="0"/><path d="M391.53187,162.69158v-24.76963h16.75593v24.76963z" fill="#cdd4d4" stroke="none" stroke-width="0"/><path d="M52.0422,162.69158v-24.76963h16.75593v24.76963z" fill="#cdd4d4" stroke="none" stroke-width="0"/><path d="M24.3585,203.36173l20.39852,-45.89667h381.01522l20.39852,45.89667z" fill="#9fa4a4" stroke="none" stroke-width="0"/><path d="M14.88032,247.55853l9.5,-45.16815h422.26161l10.5,45.16815z" fill="#cdd4d4" stroke="none" stroke-width="NaN"/><path d="M36.01479,198.22008v-14.52835h44.43963v14.52835z" fill="#ff2020" stroke="none" stroke-width="NaN"/><path d="M85.55406,198.22008v-14.52835h44.43964v14.52835z" fill="#ff2020" stroke="none" stroke-width="NaN"/><path d="M135.09333,198.22008v-14.52835h44.43964v14.52835z" fill="#c8ff21" stroke="none" stroke-width="NaN"/><path d="M184.63259,198.22008v-14.52835h44.43963v14.52835z" fill="#ff2020" stroke="none" stroke-width="NaN"/><path d="M233.44334,197.49156v-14.52835h44.43963v14.52835z" fill="#ff2020" stroke="none" stroke-width="NaN"/><path d="M282.9826,197.49156v-14.52835h44.43963v14.52835z" fill="#ff21e5" stroke="none" stroke-width="NaN"/><path d="M332.52186,197.49156v-14.52835h44.43964v14.52835z" fill="#ff2020" stroke="none" stroke-width="NaN"/><path d="M382.06113,197.49156v-14.52835h44.43964v14.52835z" fill="#ff2020" stroke="none" stroke-width="NaN"/><path d="M43.29998,180.00711v-13.71519h41.95234v13.71519z" fill="#21fff2" stroke="none" stroke-width="NaN"/><path d="M90.06652,180.00711v-13.71519h41.95234v13.71519z" fill="#ff2020" stroke="none" stroke-width="NaN"/><path d="M136.83307,180.00711v-13.71519h41.95234v13.71519z" fill="#2140ff" stroke="none" stroke-width="NaN"/><path d="M183.59962,180.00711v-13.71519h41.95234v13.71519z" fill="#ff2020" stroke="none" stroke-width="NaN"/><path d="M229.67842,179.31937v-13.71519h41.95234v13.71519z" fill="#21ff3b" stroke="none" stroke-width="NaN"/><path d="M276.44496,179.31937v-13.71519h41.95234v13.71519z" fill="#ff2020" stroke="none" stroke-width="NaN"/><path d="M323.21151,179.31937v-13.71519h41.95234v13.71519z" fill="#ff2020" stroke="none" stroke-width="NaN"/><path d="M369.97804,179.31937v-13.71519h41.95234v13.71519z" fill="#21b6ff" stroke="none" stroke-width="NaN"/><path d="M23.40146,203.4047l22.08408,-45.16815h6.26446l2,-29.5l356.31668,-6.53573l-1.81668,36.03573h17.97928l19.71296,46.62519z" fill="url(#color-1)" stroke="none" stroke-width="NaN"/><path d="M457.20028,112.44147l11.53081,25.84968h-457.4622l11.53082,-25.84968z" data-paper-data="{&quot;index&quot;:null}" fill="#cdd4d4" stroke="#b9bebe" stroke-width="5"/><path d="M457.20028,112.44147l11.53081,25.84968h-457.4622l11.53082,-25.84968z" data-paper-data="{&quot;index&quot;:null}" fill="url(#color-2)" stroke="#a9afaf" stroke-width="0"/><path d="M14.76483,247.26874v-5h441.5v5z" fill="#a7adad" stroke="none" stroke-width="0"/></g></g></svg>