<svg version="1.1" xmlns="http://www.w3.org/2000/svg" xmlns:xlink="http://www.w3.org/1999/xlink" width="57.33501" height="49.1666" viewBox="0,0,57.33501,49.1666"><defs><linearGradient x1="6324.44017" y1="-2002.7165" x2="6324.44017" y2="1193.08621" gradientUnits="userSpaceOnUse" id="color-1"><stop offset="0" stop-color="#000000"/><stop offset="1" stop-color="#000000" stop-opacity="0"/></linearGradient><radialGradient cx="239.94256" cy="170.74709" r="11.74934" gradientUnits="userSpaceOnUse" id="color-2"><stop offset="0" stop-color="#ffd92d"/><stop offset="1" stop-color="#ffd117"/></radialGradient></defs><g transform="translate(-211.33251,-155.4165)"><g data-paper-data="{&quot;isPaintingLayer&quot;:true}" fill-rule="nonzero" stroke-linejoin="miter" stroke-miterlimit="10" stroke-dasharray="" stroke-dashoffset="0" style="mix-blend-mode: normal"><path d="M211.33252,189.63842c0,-8.11341 0,-17.38746 0,-21.90696c0,-5.20237 5.60589,-12.31455 13.00726,-12.31455c37.85701,0 -19.80663,0.28574 27.83529,0c10.53557,-0.06319 16.49246,7.18927 16.49246,15.30186c0,7.20901 0,15.14712 0,19.41754c0,5.85462 -5.20935,14.44679 -14.50091,14.44679c-71.86173,0 9.45386,0 -29.32895,0c-7.66276,0 -13.50514,-6.90211 -13.50514,-14.94468z" fill="url(#color-1)" stroke="none" stroke-width="0" stroke-linecap="butt"/><path d="M228.19319,170.74709c0,-6.48899 5.26036,-11.74934 11.74935,-11.74934c6.48899,0 11.74936,5.26036 11.74936,11.74934c0,6.48898 -5.26037,11.74936 -11.74936,11.74936c-6.48899,0 -11.74935,-5.26037 -11.74935,-11.74936z" fill="url(#color-2)" stroke="#f1f1f1" stroke-width="0" stroke-linecap="butt"/><path d="M236.95198,164.76131v4.80058" fill="none" stroke="#9f8200" stroke-width="3" stroke-linecap="round"/><path d="M242.69271,164.79325c0,0 0,2.25526 0,3.13645c0,0.64187 0,1.66411 0,1.66411" fill="none" stroke="#9f8200" stroke-width="3" stroke-linecap="round"/><path d="M234.56579,174.7289l0.05625,-1.88221c0,0 3.37522,0.84279 5.11485,0.84279c1.81188,0 5.54849,-0.84279 5.54849,-0.84279l0.16875,1.82596c0,0 -2.7964,0.95085 -5.65276,0.95956c-2.96884,0.00906 -5.23558,-0.90331 -5.23558,-0.90331z" fill="#ffffff" stroke="none" stroke-width="NaN" stroke-linecap="butt"/><path d="M245.90441,172.97961c0,0 -3.49761,0.8664 -6.02882,0.88271c-2.65144,0.0171 -6.03749,-0.75297 -6.03749,-0.75297" fill="none" stroke="#9f8200" stroke-width="1.5" stroke-linecap="round"/><path d="M245.83954,173.04448c0,0 0.214,5.06072 -5.90609,5.02767c-5.79558,-0.03131 -6.08176,-4.69016 -6.08176,-4.69016" fill="none" stroke="#9f8200" stroke-width="1.5" stroke-linecap="round"/><text transform="translate(228.27708,195.19297) scale(0.29679,0.29679)" font-size="40" xml:space="preserve" fill="#ffffff" fill-rule="nonzero" stroke="#ffffff" stroke-width="2" stroke-linecap="butt" stroke-linejoin="miter" stroke-miterlimit="10" stroke-dasharray="" stroke-dashoffset="0" font-family="Sans Serif" font-weight="normal" text-anchor="start" style="mix-blend-mode: normal"><tspan x="0" dy="0">表情</tspan></text></g></g></svg>