<svg version="1.1" xmlns="http://www.w3.org/2000/svg" xmlns:xlink="http://www.w3.org/1999/xlink" width="292.71415" height="170.57135" viewBox="0,0,292.71415,170.57135"><g transform="translate(-90.54983,-91.35976)"><g data-paper-data="{&quot;isPaintingLayer&quot;:true}" fill-rule="nonzero" stroke-linejoin="miter" stroke-miterlimit="10" stroke-dasharray="" stroke-dashoffset="0" style="mix-blend-mode: normal"><path d="M90.54983,261.93111v-170.57135h292.71415v170.57135z" fill="none" stroke="none" stroke-width="0" stroke-linecap="butt"/><path d="M214.1124,192.16127c0,-7.90622 0,-19.9598 0,-24.40222c0,-3.2697 3.24532,-7.24873 6.87018,-7.24873c11.46379,0 18.51117,0 38.53867,0c4.00298,0 6.36637,3.87183 6.36637,7.08044c0,4.1896 0,15.96947 0,23.89734c0,4.95934 -2.56286,8.00158 -6.87124,8.00158c-20.52857,0 -26.66474,0 -38.03379,0c-3.62486,0 -6.87018,-3.0597 -6.87018,-7.32841z" fill-opacity="0.2902" fill="#ececec" stroke="none" stroke-width="0" stroke-linecap="butt"/><text transform="translate(223.31064,195.14455) scale(0.20936,0.20936)" font-size="40" xml:space="preserve" fill="#e0e0e0" fill-rule="nonzero" stroke="#e0e0e0" stroke-width="2" stroke-linecap="butt" stroke-linejoin="miter" stroke-miterlimit="10" stroke-dasharray="" stroke-dashoffset="0" font-family="Sans Serif" font-weight="normal" text-anchor="start" style="mix-blend-mode: normal"><tspan x="0" dy="0">创作团队</tspan></text><path d="M248.06165,168.36274h-15.65664" fill="none" stroke="#e0e0e0" stroke-width="2" stroke-linecap="round"/><path d="M232.40501,174.9787h15.65664" fill="none" stroke="#e0e0e0" stroke-width="2" stroke-linecap="round"/><path d="M248.06165,181.36652h-15.65664" fill="none" stroke="#e0e0e0" stroke-width="2" stroke-linecap="round"/></g></g></svg>