<svg version="1.1" xmlns="http://www.w3.org/2000/svg" xmlns:xlink="http://www.w3.org/1999/xlink" width="655.66661" height="556.43969" viewBox="0,0,655.66661,556.43969"><defs><radialGradient cx="168.93904" cy="246.29598" r="41.31266" gradientUnits="userSpaceOnUse" id="color-1"><stop offset="0" stop-color="#3d5c00" stop-opacity="0.5098"/><stop offset="1" stop-color="#3d5c00" stop-opacity="0"/></radialGradient><radialGradient cx="189.26781" cy="180.59594" r="38.30678" gradientUnits="userSpaceOnUse" id="color-2"><stop offset="0" stop-color="#3d5c00" stop-opacity="0.5098"/><stop offset="1" stop-color="#3d5c00" stop-opacity="0"/></radialGradient><radialGradient cx="122.56053" cy="172.45061" r="41.31266" gradientUnits="userSpaceOnUse" id="color-3"><stop offset="0" stop-color="#3d5c00" stop-opacity="0.5098"/><stop offset="1" stop-color="#3d5c00" stop-opacity="0"/></radialGradient><radialGradient cx="122.76411" cy="171.37776" r="27.25349" gradientUnits="userSpaceOnUse" id="color-4"><stop offset="0" stop-color="#2cbe00"/><stop offset="1" stop-color="#3e5600"/></radialGradient><radialGradient cx="122.76411" cy="171.37776" r="25.47608" gradientUnits="userSpaceOnUse" id="color-5"><stop offset="0" stop-color="#2cbe00"/><stop offset="1" stop-color="#6a9400"/></radialGradient><radialGradient cx="168.69441" cy="240.84727" r="31.76856" gradientUnits="userSpaceOnUse" id="color-6"><stop offset="0" stop-color="#2cbe00"/><stop offset="1" stop-color="#3e5600"/></radialGradient><radialGradient cx="168.69441" cy="240.84727" r="29.6967" gradientUnits="userSpaceOnUse" id="color-7"><stop offset="0" stop-color="#2cbe00"/><stop offset="1" stop-color="#6a9400"/></radialGradient><radialGradient cx="192.02238" cy="178.70313" r="21.84335" gradientUnits="userSpaceOnUse" id="color-8"><stop offset="0" stop-color="#2cbe00"/><stop offset="1" stop-color="#3e5600"/></radialGradient><radialGradient cx="192.02238" cy="178.70313" r="20.41878" gradientUnits="userSpaceOnUse" id="color-9"><stop offset="0" stop-color="#2cbe00"/><stop offset="1" stop-color="#6a9400"/></radialGradient><radialGradient cx="369.90114" cy="65.29394" r="44.41899" gradientUnits="userSpaceOnUse" id="color-10"><stop offset="0" stop-color="#000000" stop-opacity="0.25882"/><stop offset="1" stop-color="#000000" stop-opacity="0"/></radialGradient><radialGradient cx="316.12003" cy="38.60835" r="37.62916" gradientUnits="userSpaceOnUse" id="color-11"><stop offset="0" stop-color="#000000" stop-opacity="0.25882"/><stop offset="1" stop-color="#000000" stop-opacity="0"/></radialGradient><radialGradient cx="320.78147" cy="32.8991" r="22.6564" gradientUnits="userSpaceOnUse" id="color-12"><stop offset="0" stop-color="#349812"/><stop offset="1" stop-color="#349812" stop-opacity="0"/></radialGradient><radialGradient cx="379.77935" cy="63.31039" r="22.65641" gradientUnits="userSpaceOnUse" id="color-13"><stop offset="0" stop-color="#349812"/><stop offset="1" stop-color="#349812" stop-opacity="0"/></radialGradient></defs><g transform="translate(87.83327,98.21966)"><g data-paper-data="{&quot;isPaintingLayer&quot;:true}" fill-rule="nonzero" stroke="none" stroke-width="0" stroke-linecap="butt" stroke-linejoin="miter" stroke-miterlimit="10" stroke-dasharray="" stroke-dashoffset="0" style="mix-blend-mode: normal"><path d="M-87.83327,458.22002v-556.43968h655.66661v556.43968z" fill="none"/><path d="M-87.83327,458.22004v-556.43968h655.66661v556.43968z" fill="none"/><path d="M458.68399,181.88242c0,32.21323 -32.62415,57.57297 -55.71445,82.55794c-39.47389,42.71293 -87.95356,75.48225 -164.78923,75.48225c-59.52646,0 -107.40711,-39.91819 -147.07864,-67.39605c-41.48955,-28.73707 -73.42501,-46.02495 -73.42501,-90.64411c0,-44.13434 26.74521,-80.60928 75.71967,-98.8302c16.96696,-6.31254 47.89313,-5.5559 65.2977,-12.50053c31.71128,-12.65318 40.61675,-46.70943 79.48634,-46.70943c47.7404,0 87.33479,23.91431 123.42971,42.39488c55.97947,28.66148 97.07399,62.57878 97.07399,115.64528z" fill="#66c7ff"/><path d="M439.50678,181.88242c0,29.41167 -29.78686,52.56586 -50.86899,75.37791c-36.04085,38.9982 -80.30426,68.91756 -150.45756,68.91756c-54.34947,0 -98.06597,-36.44653 -134.28727,-61.53463c-37.88123,-26.23782 -67.03927,-42.02218 -67.03927,-82.76083c0,-40.296 24.41919,-73.59869 69.13436,-90.23495c15.49137,-5.76356 43.72787,-5.07272 59.61876,-11.41336c28.95336,-11.55274 37.08433,-42.64712 72.57343,-42.64712c43.58843,0 79.73931,21.83447 112.69507,38.70781c51.11095,26.16877 88.63149,57.13632 88.63149,105.58766z" fill="#56c1ff"/><path d="M426.07546,181.88242c0,27.44951 -27.79964,49.05896 -47.47532,70.34914c-33.63644,36.39646 -74.94685,64.31979 -140.41993,64.31979c-50.72358,0 -91.52357,-34.01504 -125.3284,-57.42942c-35.35402,-24.48737 -62.56682,-39.21871 -62.56682,-77.23951c0,-37.60768 22.7901,-68.68865 64.52215,-84.21503c14.45787,-5.37903 40.81061,-4.73428 55.64136,-10.65193c27.02177,-10.78199 34.61028,-39.80199 67.73176,-39.80199c40.68047,0 74.41957,20.37781 105.17672,36.12546c47.70114,24.42294 82.71853,53.32453 82.71853,98.54349z" fill="#31b4ff"/><path d="M127.62638,246.29598c0,-22.81637 18.49631,-41.31266 41.31266,-41.31266c22.81637,0 41.31266,18.49631 41.31266,41.31266c0,22.81637 -18.49631,41.31266 -41.31266,41.31266c-22.81637,0 -41.31266,-18.49628 -41.31266,-41.31266z" fill="url(#color-1)"/><path d="M150.96104,180.59594c0,-21.15625 17.15053,-38.30678 38.30678,-38.30678c21.15625,0 38.30678,17.15053 38.30678,38.30678c0,21.15625 -17.15053,38.30678 -38.30678,38.30678c-21.15625,0 -38.30678,-17.15051 -38.30678,-38.30678z" fill="url(#color-2)"/><path d="M214.87669,72.86376c0,0 7.61693,-4.9138 16.64936,-7.57512c9.00635,-2.65363 19.42337,-3.05479 22.80895,-3.05479c8.06734,0 28.80169,7.97244 28.80169,7.97244c0,0 0.81378,0.8133 -1.12809,1.25494c-3.27923,0.74581 -17.33611,-1.55675 -32.28035,-1.39024c-16.97872,0.18919 -34.8516,2.79274 -34.8516,2.79274z" fill="#66c7ff"/><path d="M246.08608,294.95899c24.55652,0.25953 47.6549,-3.3286 53.04337,-2.16641c3.19088,0.68822 1.8537,1.95558 1.8537,1.95558c0,0 -34.07091,12.42341 -47.32725,12.42341c-5.56324,0 -22.6806,-0.62512 -37.47993,-4.76026c-14.84217,-4.14712 -27.35838,-11.80426 -27.35838,-11.80426c0,0 29.36884,4.0571 57.26847,4.35194z" data-paper-data="{&quot;index&quot;:null}" fill="#66c7ff"/><path d="M149.98831,201.77766c4.0164,-2.97265 4.93596,-8.08637 5.88813,-12.19875c2.10399,-9.08719 -0.50048,-22.38558 -0.50048,-23.97547c0,-4.03994 -5.67865,-14.53105 -10.32224,-19.29808c-7.5253,-7.72535 -19.30982,-10.33398 -19.30982,-10.33398c0,0 19.70798,0.86906 28.38141,10.81013c1.8428,2.11214 4.69865,9.00154 7.0934,19.70235c1.63065,7.28643 4.6987,18.19768 0.63753,23.31492c-3.34973,4.22079 -5.51263,10.63334 -8.55044,13.76125c-4.96169,5.10883 -10.97376,5.94769 -18.77296,7.51734c-9.75421,1.96315 -27.6457,-0.06374 -27.6457,-0.06374c0,0 -14.37044,-5.95508 -16.24304,-10.8053c-3.36982,-8.7281 -3.54427,-24.04939 0.34234,-26.34603c2.77927,-1.6423 -2.08528,21.60349 6.8588,26.94622c2.97563,1.77751 22.17227,4.61969 28.3339,4.91281c9.0943,0.43262 16.12435,1.74409 23.80919,-3.9437z" fill="#66c7ff"/><path d="M139.77372,196.35508c3.16169,-1.82753 4.25107,-5.46516 5.28156,-8.37296c2.27709,-6.4254 1.48222,-16.29711 1.61329,-17.45162c0.33308,-2.9337 -2.92564,-11.02027 -5.90466,-14.8648c-4.82775,-6.2304 -13.17026,-9.09631 -13.17026,-9.09631c0,0 14.23979,2.25596 19.71858,10.19c1.16405,1.68573 2.66989,6.92407 3.52663,14.89216c0.58339,5.42567 1.91172,13.60209 -1.45931,16.98324c-2.78048,2.78884 -4.87982,7.26715 -7.34369,9.28808c-4.02425,3.30082 -8.45922,3.41428 -14.25222,3.91112c-7.24511,0.62137 -20.07033,-2.32561 -20.07033,-2.32561c0,0 -9.94444,-5.50924 -10.90438,-9.18572c-1.72746,-6.61596 -0.59095,-17.75628 2.42077,-19.10357c2.15363,-0.96343 -3.29544,15.51596 2.75903,20.13314c2.01427,1.53609 15.72003,5.18277 20.17027,5.90362c6.56839,1.06396 11.5653,2.59593 17.61477,-0.90079z" fill="#66c7ff"/><path d="M81.24788,172.45061c0,-22.81637 18.49631,-41.31266 41.31266,-41.31266c22.81637,0 41.31266,18.49631 41.31266,41.31266c0,22.81637 -18.49631,41.31266 -41.31266,41.31266c-22.81637,0 -41.31266,-18.49628 -41.31266,-41.31266z" fill="url(#color-3)"/><g><path d="M95.51062,171.37776c0,-4.90851 3.83191,-10.78038 6.10434,-14.75744c4.69055,-8.20911 10.99674,-12.47538 21.12847,-12.47538c4.67804,0 -0.55098,29.17146 -0.55098,29.17146c0,0 22.51458,-20.54404 24.8368,-17.54634c3.56785,4.60561 2.94697,9.33088 2.94697,15.60768c0,5.318 -2.57986,11.12437 -5.21544,15.31725c-4.81829,7.66529 -12.2951,11.91557 -22.01735,11.91557c-7.8429,0 -13.64481,-3.31541 -18.61394,-8.62116c-4.56012,-4.86905 -8.61887,-11.41427 -8.61887,-18.61162z" fill="url(#color-4)"/><path d="M97.28803,171.37776c0,-4.58838 3.582,-10.07729 5.70623,-13.79498c4.38463,-7.67375 10.27954,-11.66175 19.75051,-11.66175c4.37295,0 -0.51505,27.26899 -0.51505,27.26899c0,0 21.04622,-19.20422 23.21701,-16.40201c3.33515,4.30523 2.75478,8.72233 2.75478,14.58979c0,4.97115 -2.4116,10.39887 -4.87529,14.31827c-4.50407,7.16538 -11.49323,11.13847 -20.58143,11.13847c-7.33141,0 -12.75493,-3.0992 -17.4,-8.05892c-4.26273,-4.5515 -8.05676,-10.66987 -8.05676,-17.39782z" fill="url(#color-5)"/><path d="M108.91209,192.12492l13.17817,-19.25476l0.5716,0.07357l-13.04099,19.6663z" fill="#52c515"/></g><g><path d="M140.93687,256.29911c-2.78298,-4.9993 -2.20933,-13.15232 -2.14975,-18.49134c0.12299,-11.02034 4.12698,-18.94089 14.44614,-24.68526c4.76456,-2.6523 15.9781,30.02342 15.9781,30.02342c0,0 11.28318,-33.68905 15.34796,-31.95254c6.24505,2.66794 8.2918,7.83262 11.85053,14.22551c3.01513,5.41635 3.6796,12.79285 3.37249,18.55753c-0.56144,10.53889 -5.76677,19.10686 -15.66885,24.61906c-7.98796,4.44667 -15.77691,4.35945 -23.84614,1.77289c-7.40507,-2.37366 -15.24981,-6.73877 -19.33045,-14.06924z" fill="url(#color-6)"/><path d="M142.74714,255.29141c-2.60147,-4.67327 -2.06523,-12.29455 -2.00956,-17.28539c0.11496,-10.30162 3.85784,-17.70561 13.504,-23.07536c4.45383,-2.47931 14.93605,28.06535 14.93605,28.06535c0,0 10.54735,-31.49195 14.34702,-29.86871c5.83777,2.49394 7.75102,7.32181 11.07767,13.29776c2.81849,5.06311 3.43961,11.95851 3.15252,17.34724c-0.52481,9.85157 -5.39067,17.86078 -14.64697,23.0135c-7.467,4.15666 -14.74799,4.07514 -22.29096,1.65726c-6.92212,-2.21884 -14.25526,-6.29929 -18.06978,-13.15168z" fill="url(#color-7)"/><path d="M166.34917,269.8318l2.50509,-27.08249l0.62386,-0.24914l-2.13203,27.42386z" fill="#52c515"/></g><g><path d="M173.88171,166.53569c2.19144,-3.26724 7.36358,-5.46493 10.65176,-7.09765c6.78717,-3.37009 12.88943,-3.39439 19.6334,1.12898c3.11383,2.08854 -13.39054,19.17135 -13.39054,19.17135c0,0 24.15832,-3.62295 24.36573,-0.59082c0.31863,4.65849 -2.20421,7.52658 -5.00655,11.70459c-2.37426,3.5398 -6.68377,6.25291 -10.31001,7.86712c-6.62943,2.9511 -13.5037,2.4421 -19.97512,-1.89845c-5.22045,-3.50151 -7.60221,-8.29863 -8.54098,-14.04879c-0.86152,-5.27687 -0.64101,-11.44562 2.5723,-16.23635z" fill="url(#color-8)"/><path d="M175.06478,167.32919c2.04853,-3.05415 6.88335,-5.1085 9.95706,-6.63476c6.34452,-3.15032 12.04882,-3.17304 18.35298,1.05534c2.91074,1.95232 -12.51722,17.92106 -12.51722,17.92106c0,0 22.58279,-3.38666 22.77666,-0.5523c0.29786,4.35469 -2.06049,7.03572 -4.68002,10.94126c-2.21941,3.30895 -6.24787,5.8451 -9.63761,7.35404c-6.19706,2.75863 -12.62306,2.28285 -18.67241,-1.77465c-4.88,-3.27315 -7.1064,-7.75743 -7.98396,-13.13258c-0.80535,-4.93273 -0.59921,-10.69915 2.40455,-15.17744z" fill="url(#color-9)"/><path d="M173.5394,186.32872l17.36817,-6.93305l0.34763,0.30416l-17.46059,7.26822z" fill="#52c515"/></g><path d="M115.90733,80.25875l-13.79276,-26.58507l39.20323,-10.28173l33.65959,0.82561l-0.00967,24.82953z" fill="#9d9d9d"/><path d="M54.5644,111.58287l-21.95586,-20.37025l15.87223,-15.25472l49.5241,-18.23753l8.37078,23.37598l-31.62157,12.40843z" fill="#9d9d9d"/><path d="M25.24695,173.0327l-18.78748,-3.40669l3.24288,-55.04493l25.93408,-8.46417l13.21783,7.68832z" fill="#9d9d9d"/><path d="M5.39057,190.1113l17.9047,-6.63299l25.23344,49.02789l-18.01203,20.48867l-8.29964,-19.59031l-25.11544,-31.13074z" data-paper-data="{&quot;index&quot;:null}" fill="#9d9d9d"/><path d="M46.7231,256.21054l13.84684,-13.14686l42.49905,35.13247l-23.83261,11.18554l-35.34391,-18.72742z" data-paper-data="{&quot;index&quot;:null}" fill="#9d9d9d"/><path d="M325.48215,65.29394c0,-24.53193 19.88705,-44.41899 44.41897,-44.41899c24.53193,0 44.41899,19.88705 44.41899,44.41899c0,24.53193 -19.88707,44.41899 -44.41899,44.41899c-24.53193,0 -44.41897,-19.88705 -44.41897,-44.41899z" fill="url(#color-10)"/><path d="M278.49089,38.60835c0,-20.78201 16.84715,-37.62916 37.62916,-37.62916c20.78201,0 37.62916,16.84715 37.62916,37.62916c0,20.78201 -16.84715,37.62916 -37.62916,37.62916c-20.78201,0 -37.62916,-16.84715 -37.62916,-37.62916z" fill="url(#color-11)"/><path d="M373.27768,77.80952c0,0 -29.11686,-2.22279 -29.69771,-5.89902c-0.4739,-2.99922 29.08287,-10.13277 29.08287,-10.13277z" fill="#279b00"/><path d="M390.92173,58.06625c0,0 27.97205,8.38422 27.75515,12.09973c-0.17696,3.03128 -30.57517,3.69405 -30.57517,3.69405z" fill="#2bab00"/><path d="M374.09893,56.4008c0,0 -8.16399,-28.03713 -4.92722,-29.8743c2.64071,-1.49887 19.71757,23.65806 19.71757,23.65806z" fill="#2eb700"/><path d="M391.49232,69.98931c0,0 5.33512,28.71005 1.93168,30.21621c-2.7767,1.22881 -17.26691,-25.50174 -17.26691,-25.50174z" fill="#2eb700"/><path d="M385.04146,74.75672c0,0 -17.14981,23.63505 -20.5853,22.20354c-2.80286,-1.1679 6.60837,-30.08015 6.60837,-30.08015z" fill="#2baa00"/><path d="M379.69966,52.90344c0,0 24.08448,-16.51265 26.84073,-14.01166c2.24868,2.04045 -16.31586,26.12045 -16.31586,26.12045z" fill="#2eb700"/><path d="M375.52912,68.5712c0,0 -25.08859,-14.94305 -23.97348,-18.49389c0.90973,-2.89694 30.55437,3.86216 30.55437,3.86216z" fill="#2caf00"/><path d="M375.79337,71.39047c0,0 -40.13777,-3.5247 -40.66502,-6.92317c-0.43015,-2.77263 41.02115,-7.7994 41.02115,-7.7994c0,0 3.64221,1.43628 3.58875,3.64599c-0.06351,2.62571 -3.9449,11.07658 -3.9449,11.07658z" fill="#41c017"/><path d="M384.80046,73.59225c0,0 -35.12152,19.747 -37.47506,17.23934c-1.92013,-2.04587 29.4586,-29.59318 29.4586,-29.59318c0,0 3.81721,-0.87033 5.0204,0.98386c1.4297,2.20326 2.99605,11.36999 2.99605,11.36999z" fill="#46ce19"/><path d="M390.43859,65.77781c0,0 -3.85465,40.10743 -7.25733,40.60672c-2.77607,0.40733 -7.46181,-41.08388 -7.46181,-41.08388c0,0 1.46617,-3.63028 3.67537,-3.55866c2.6251,0.0851 11.04377,4.03584 11.04377,4.03584z" fill="#43c418"/><path d="M387.1533,53.84569c0,0 28.96959,28.00407 27.24007,30.97666c-1.41103,2.42518 -36.78409,-19.76095 -36.78409,-19.76095c0,0 -1.92602,-3.40866 -0.49356,-5.09203c1.70215,-2.00029 10.03759,-6.12367 10.03759,-6.12367z" fill="#46cd19"/><path d="M375.75619,57.79389c0,0 34.92862,-20.08621 37.30634,-17.60146c1.93986,2.02719 -29.17062,29.87708 -29.17062,29.87708c0,0 -3.80859,0.90726 -5.02969,-0.93518c-1.45098,-2.18932 -3.10602,-11.34043 -3.10602,-11.34043z" fill="#42c217"/><path d="M372.27362,55.01646c0,0 12.01549,-38.45898 15.44815,-38.24826c2.80053,0.17192 -1.14131,41.74041 -1.14131,41.74041c0,0 -2.18099,3.25143 -4.3283,2.7273c-2.55157,-0.62282 -9.97853,-6.21946 -9.97853,-6.21946z" fill="#44c918"/><path d="M376.95961,67.95785c0,0 -31.52584,-25.09157 -30.08988,-28.21656c1.17153,-2.54952 38.51232,16.13586 38.51232,16.13586c0,0 2.24457,3.20786 0.98045,5.02106c-1.50211,2.15456 -9.4029,7.05962 -9.4029,7.05962z" fill="#42c217"/><path d="M322.92429,44.48688c0,0 -20.48958,11.22447 -22.48427,9.0137c-1.62736,-1.80363 15.07145,-19.49237 15.07145,-19.49237z" fill="#279b00"/><path d="M326.13088,23.54697c0,0 22.41268,-6.59416 23.88973,-4.00869c1.20505,2.10934 -18.88345,15.82772 -18.88345,15.82772z" fill="#2bab00"/><path d="M314.12623,29.77658c0,0 -17.71593,-15.23012 -16.34836,-17.87512c1.11573,-2.15793 23.54883,7.24941 23.54883,7.24941z" fill="#2eb700"/><path d="M331.71989,31.29063c0,0 16.11339,16.91653 14.48956,19.4124c-1.32481,2.03627 -22.71109,-9.55548 -22.71109,-9.55548z" fill="#2eb700"/><path d="M329.47726,37.30345c0,0 -1.17585,23.33299 -4.10398,23.87356c-2.38893,0.44101 -8.70519,-23.0504 -8.70519,-23.0504z" fill="#2baa00"/><path d="M316.35355,24.98639c0,0 8.93478,-21.58657 11.87459,-21.11356c2.39845,0.3859 0.46852,24.63496 0.46852,24.63496z" fill="#2eb700"/><path d="M320.39945,37.31067c0,0 -23.34376,0.93821 -24.14679,-1.92909c-0.65516,-2.33926 22.16911,-10.75323 22.16911,-10.75323z" fill="#2caf00"/><path d="M321.8077,39.08523c0,0 -28.44613,15.16426 -30.28361,13.11628c-1.4991,-1.67084 24.09337,-23.1413 24.09337,-23.1413c0,0 3.06879,-0.62763 3.99788,0.87703c1.10401,1.78792 2.19233,9.14799 2.19233,9.14799z" fill="#41c017"/><path d="M328.8072,36.62807c0,0 -14.92127,28.57435 -17.59403,27.92103c-2.18057,-0.53302 6.82548,-32.70205 6.82548,-32.70205c0,0 2.17888,-2.2503 3.79513,-1.53273c1.92053,0.85268 6.97342,6.31375 6.97342,6.31375z" fill="#46ce19"/><path d="M329.17445,28.92751c0,0 14.92983,28.56987 12.86681,30.39043c-1.68311,1.48531 -22.94239,-24.28284 -22.94239,-24.28284c0,0 -0.60237,-3.07386 0.90986,-3.99054c1.79695,-1.08926 9.1657,-2.11703 9.1657,-2.11703z" fill="#43c418"/><path d="M321.76167,22.36323c0,0 31.64885,6.12272 31.78749,8.87067c0.11311,2.24192 -33.28788,2.81558 -33.28788,2.81558c0,0 -2.77961,-1.444 -2.55441,-3.198c0.26758,-2.08421 4.05481,-8.48825 4.05481,-8.48825z" fill="#46cd19"/><path d="M315.84552,29.98679c0,0 14.64384,-28.71751 17.3228,-28.09011c2.18564,0.51187 -6.50845,32.76661 -6.50845,32.76661c0,0 -2.15698,2.2713 -3.7801,1.56941c-1.9287,-0.83403 -7.03423,-6.24592 -7.03423,-6.24592z" fill="#42c217"/><path d="M312.29808,29.64564c0,0 -8.73925,-31.02842 -6.3461,-32.38611c1.95245,-1.10767 17.46184,28.47973 17.46184,28.47973c0,0 -0.04225,3.13202 -1.71061,3.71834c-1.98245,0.6967 -9.40514,0.18804 -9.40514,0.18804z" fill="#44c918"/><path d="M321.09058,36.27484c0,0 -32.09066,-3.05402 -32.49264,-5.77595c-0.32795,-2.22068 32.86344,-6.00039 32.86344,-6.00039c0,0 2.90548,1.1703 2.84982,2.93781c-0.06612,2.10027 -3.22063,8.83852 -3.22063,8.83852z" fill="#42c217"/><path d="M167.39241,149.24235c0,0 -0.11422,-4.28856 1.11485,-7.47356c0.84247,-2.18317 3.06744,-3.60158 3.77874,-3.43046c0.69728,0.16774 1.53129,2.85045 0.87583,4.93397c-1.02888,3.27041 -3.86355,6.53023 -3.86355,6.53023z" fill="#f7dbeb"/><path d="M168.94032,148.8633c0,0 3.32386,-2.71231 6.59571,-3.68694c2.24269,-0.66807 4.72544,0.22545 5.02491,0.89295c0.29356,0.65435 -1.31946,2.95448 -3.36897,3.7096c-3.21703,1.18527 -7.52974,0.93507 -7.52974,0.93507z" fill="#f7dbeb"/><path d="M169.47753,149.68926c0,0 3.80645,1.97878 5.99655,4.59762c1.5012,1.79508 1.66341,4.42876 1.16895,4.96797c-0.4847,0.52859 -3.23546,-0.04226 -4.74014,-1.62549c-2.36183,-2.48512 -3.83913,-6.54462 -3.83913,-6.54462z" fill="#f7dbeb"/><path d="M169.61895,149.46685c0,0 -0.15114,4.28742 -1.57478,7.39034c-0.97583,2.12691 -3.28425,3.40506 -3.98361,3.19029c-0.68557,-0.21053 -1.35213,-2.93969 -0.5691,-4.97869c1.2291,-3.20054 4.2599,-6.27886 4.2599,-6.27886z" fill="#f7dbeb"/><path d="M168.22,150.29191c0,0 -3.48084,2.5077 -6.80534,3.28397c-2.27878,0.5321 -4.70336,-0.50899 -4.96217,-1.19327c-0.25371,-0.67079 1.49462,-2.86986 3.58581,-3.50045c3.28243,-0.98982 7.5723,-0.48093 7.5723,-0.48093z" fill="#f7dbeb"/><path d="M167.72025,149.76673c0,0 -3.95495,-1.66227 -6.35102,-4.09407c-1.6424,-1.66688 -2.0185,-4.27859 -1.56961,-4.85627c0.44005,-0.5663 3.22815,-0.22134 4.85676,1.2341c2.55636,2.28454 4.35932,6.21026 4.35932,6.21026z" fill="#f7dbeb"/><path d="M167.95049,149.50893c0,0 -1.37399,-2.73955 -1.54446,-5.17247c-0.11686,-1.66765 0.89244,-3.25971 1.40445,-3.36465c0.50191,-0.10287 1.85469,1.3797 2.06231,2.9262c0.32588,2.42748 -0.51959,5.39554 -0.51959,5.39554z" fill="#ffc5f2"/><path d="M168.8369,148.79448c0,0 1.3279,-2.76217 3.14893,-4.38454c1.24823,-1.11203 3.12514,-1.2867 3.52122,-0.94569c0.38826,0.33429 0.04213,2.31121 -1.05475,3.42099c-1.72171,1.74199 -4.58737,2.88754 -4.58737,2.88754z" fill="#ffc5f2"/><path d="M169.4348,149.16592c0,0 3.06221,0.1261 5.27285,1.15623c1.51529,0.70611 2.41864,2.36062 2.26224,2.85932c-0.15331,0.48887 -2.10577,0.95351 -3.55909,0.38549c-2.28122,-0.89159 -4.4675,-3.06974 -4.4675,-3.06974z" fill="#ffc5f2"/><path d="M169.45886,148.97918c0,0 1.20197,2.81927 1.22172,5.25808c0.01353,1.67168 -1.09228,3.19831 -1.60978,3.27139c-0.5073,0.07166 -1.76583,-1.49172 -1.87744,-3.0481c-0.17517,-2.44298 0.85217,-5.35308 0.85217,-5.35308z" fill="#ffc5f2"/><path d="M168.80403,149.93699c0,0 -1.49147,2.67741 -3.4067,4.18741c-1.31279,1.03503 -3.19682,1.09659 -3.57169,0.7324c-0.36747,-0.35701 0.09684,-2.30956 1.25841,-3.35142c1.82328,-1.63537 4.75259,-2.60669 4.75259,-2.60669z" fill="#ffc5f2"/><path d="M168.32153,149.74875c0,0 -3.06231,0.12366 -5.34949,-0.72303c-1.56776,-0.58037 -2.60281,-2.15582 -2.48756,-2.66559c0.11298,-0.49972 2.02114,-1.12181 3.51587,-0.67404c2.34623,0.70286 4.70264,2.69576 4.70264,2.69576z" fill="#ffc5f2"/><path d="M165.18505,149.04379c0,-1.81489 1.47127,-3.28615 3.28616,-3.28615c1.81489,0 3.28615,1.47126 3.28615,3.28615c0,1.81489 -1.47126,3.28615 -3.28615,3.28615c-1.81489,0 -3.28616,-1.47126 -3.28616,-3.28615z" fill="#faff00"/><path d="M298.12507,32.8991c0,-12.51279 10.14362,-22.6564 22.6564,-22.6564c12.51279,0 22.6564,10.14362 22.6564,22.6564c0,12.51279 -10.14362,22.6564 -22.6564,22.6564c-12.51279,0 -22.6564,-10.14362 -22.6564,-22.6564z" fill="url(#color-12)"/><path d="M357.12295,63.31039c0,-12.51278 10.14362,-22.6564 22.65641,-22.6564c12.51279,0 22.65641,10.14362 22.65641,22.65641c0,12.51279 -10.14362,22.6564 -22.65641,22.6564c-12.51279,0 -22.65641,-10.14361 -22.65641,-22.6564z" fill="url(#color-13)"/></g></g></svg>