<svg version="1.1" xmlns="http://www.w3.org/2000/svg" xmlns:xlink="http://www.w3.org/1999/xlink" width="206.81645" height="120.85443" viewBox="0,0,206.81645,120.85443"><defs><linearGradient x1="161.88597" y1="170.47454" x2="234.45354" y2="170.47454" gradientUnits="userSpaceOnUse" id="color-1"><stop offset="0" stop-color="#b17300"/><stop offset="1" stop-color="#e09300"/></linearGradient><linearGradient x1="314.46024" y1="170.60967" x2="241.89267" y2="170.60967" gradientUnits="userSpaceOnUse" id="color-2"><stop offset="0" stop-color="#b17300"/><stop offset="1" stop-color="#e09300"/></linearGradient><radialGradient cx="276.17874" cy="160.55043" r="24.50272" gradientUnits="userSpaceOnUse" id="color-3"><stop offset="0" stop-color="#392500"/><stop offset="1" stop-color="#392500" stop-opacity="0"/></radialGradient><radialGradient cx="275.99666" cy="160.28454" r="12.96607" gradientUnits="userSpaceOnUse" id="color-4"><stop offset="0" stop-color="#b7b7b7"/><stop offset="1" stop-color="#a9a9a9"/></radialGradient></defs><g transform="translate(-135.68988,-109.63924)"><g data-paper-data="{&quot;isPaintingLayer&quot;:true}" fill-rule="nonzero" stroke="none" stroke-width="0" stroke-linecap="butt" stroke-linejoin="miter" stroke-miterlimit="10" stroke-dasharray="" stroke-dashoffset="0" style="mix-blend-mode: normal"><path d="M135.68988,230.49367v-120.85443h206.81645v120.85443z" fill="none"/><path d="M161.88597,208.78535v-76.62162l72.56757,-2.83784v76.62162z" fill="url(#color-1)"/><path d="M241.89267,206.08264v-76.62162l72.56757,2.83784v76.62162z" data-paper-data="{&quot;index&quot;:null}" fill="url(#color-2)"/><path d="M170.37373,208.1137v-76.3007l1.56716,0.04299v76.25771z" fill="#ac7000"/><path d="M179.77869,207.89193v-76.09234l1.56716,-0.2632v76.35554z" fill="#ac7000"/><path d="M192.24549,207.37668v-76.09233l1.56716,-0.2632v76.35554z" fill="#ac7000"/><path d="M234.04443,206.03808v-76.74677h8.33449v76.74677z" fill="#eea826"/><path d="M207.17449,206.84873v-76.09233l1.56716,-0.2632v76.35554z" fill="#ac7000"/><path d="M222.2786,206.3374v-76.09233l1.56716,-0.2632v76.35554z" fill="#ac7000"/><path d="M304.02998,208.41989v-76.56391l1.56716,0.2632v76.3007z" data-paper-data="{&quot;index&quot;:null}" fill="#ac7000"/><path d="M294.62502,207.89193v-76.35554l1.56716,0.2632v76.09233z" data-paper-data="{&quot;index&quot;:null}" fill="#ac7000"/><path d="M282.15822,207.37669v-76.35554l1.56716,0.2632v76.09234z" data-paper-data="{&quot;index&quot;:null}" fill="#ac7000"/><path d="M267.22922,206.84873v-76.35554l1.56716,0.2632v76.09233z" data-paper-data="{&quot;index&quot;:null}" fill="#ac7000"/><path d="M252.12511,206.3374v-76.35554l1.56716,0.2632v76.09233z" data-paper-data="{&quot;index&quot;:null}" fill="#ac7000"/><path d="M251.67602,160.55043c0,-13.53248 10.97024,-24.50272 24.50273,-24.50272c13.53248,0 24.50272,10.97024 24.50272,24.50272c0,13.53248 -10.97024,24.50272 -24.50272,24.50272c-13.53248,0 -24.50272,-10.97024 -24.50272,-24.50272z" fill="url(#color-3)"/><path d="M161.7827,208.90875v-4.71959l72.55391,-4.15156l0.15307,6.02583z" fill="#8c6013"/><path d="M163.68412,210.40177l-1.90695,-1.65268l72.71803,-2.79685v1.91526z" fill="#5d400d"/><path d="M234.0382,205.95736v-5.94395h8.49137v5.94395z" fill="#9b6a16"/><path d="M234.32124,207.86215v-1.90478h8.20832v1.90478z" fill="#5d400d"/><path d="M242.28571,206.06343l0.15307,-6.02584l72.55391,4.15156v4.71959z" data-paper-data="{&quot;index&quot;:null}" fill="#8c6013"/><path d="M242.28019,207.8675v-1.91526l72.71802,2.79685l-1.90695,1.65268z" data-paper-data="{&quot;index&quot;:null}" fill="#5d400d"/><path d="M161.9358,137.74319v-4.71959l72.55391,-4.15156l0.15307,6.02583z" fill="#8c6013"/><path d="M163.83722,139.23621l-1.90695,-1.65268l72.71803,-2.79685v1.91526z" fill="#5d400d"/><path d="M234.1913,134.79181v-5.94395h8.49137v5.94395z" fill="#9b6a16"/><path d="M234.47434,136.6966v-1.90478h8.20832v1.90478z" fill="#5d400d"/><path d="M242.43881,134.89788l0.15307,-6.02584l72.55391,4.15157v4.71959z" data-paper-data="{&quot;index&quot;:null}" fill="#8c6013"/><path d="M242.43329,136.70195v-1.91526l72.71802,2.79684l-1.90695,1.65268z" data-paper-data="{&quot;index&quot;:null}" fill="#5d400d"/><path d="M263.03059,169.59569c0,-5.57281 0,-15.86595 0,-18.88093c0,-1.63101 2.15778,-3.39628 4.04289,-3.39628c3.09225,0 12.70313,0 18.10501,0c2.26072,0 3.78424,1.52352 3.78424,3.78423c0,5.40188 0,15.01276 0,18.10501c0,1.88511 -1.81266,4.04288 -4.43085,4.04288c-5.74772,0 -15.37759,0 -18.23433,0c-1.57863,0 -3.26695,-1.46201 -3.26695,-3.65492z" fill="url(#color-4)"/></g></g></svg>