<svg version="1.1" xmlns="http://www.w3.org/2000/svg" xmlns:xlink="http://www.w3.org/1999/xlink" width="877.97602" height="657.26933" viewBox="0,0,877.97602,657.26933"><g transform="translate(198.5,144)"><g data-paper-data="{&quot;isPaintingLayer&quot;:true}" fill-rule="nonzero" stroke-linejoin="miter" stroke-miterlimit="10" stroke-dasharray="" stroke-dashoffset="0" style="mix-blend-mode: normal"><g fill="#ffa000" stroke="none" stroke-width="0" stroke-linecap="butt"><path d="M22.92387,13.07884c0,-8.39179 6.80291,-15.1947 15.19469,-15.1947c8.3918,0 15.19471,6.8029 15.19471,15.1947c0,8.3918 -6.80291,15.1947 -15.1947,15.1947c-8.3918,0 -15.19469,-6.8029 -15.19469,-15.1947z"/><path d="M23.2588,347.31808c0,-8.3918 6.80291,-15.1947 15.19469,-15.1947c8.3918,0 15.19471,6.80291 15.19471,15.1947c0,8.3918 -6.80291,15.1947 -15.1947,15.1947c-8.3918,0 -15.19469,-6.80291 -15.19469,-15.1947z"/></g><path d="M-198.5,513.26933v-657.26933h877.97602v657.26933z" fill="none" stroke="none" stroke-width="0" stroke-linecap="butt"/><path d="M37.83807,23.32955c0,0 140.4059,-4.7397 260.96049,31.43295c92.43603,27.73561 207.56492,151.91181 207.56492,151.91181l-239.12129,230.3445c0,0 -49.94778,-36.42077 -103.595,-61.33574c-48.9629,-22.73946 -125.49554,-24.48926 -125.49554,-24.48926z" fill="#9a9a9a" stroke="none" stroke-width="0" stroke-linecap="butt"/><path d="M37.58758,30.87113c0,0 152.40215,0.29738 258.24036,55.48826c109.07749,45.4358 195.07771,135.27343 195.07771,135.27343" fill="none" stroke="#909090" stroke-width="7.5" stroke-linecap="round"/><path d="M37.887,329.59752c0,0 73.67974,-1.08431 132.98992,25.37483c65.72836,29.32238 105.26873,72.11862 105.26873,72.11862" fill="none" stroke="#909090" stroke-width="7.5" stroke-linecap="round"/><path d="M38.68182,347.27273c0,0 63.95644,-3.10577 132.76046,28.08019c57.4051,25.26065 90.3353,62.25665 90.3353,62.25665" fill="none" stroke="#bcbcbc" stroke-width="30.5" stroke-linecap="round"/><path d="M38.24009,13.05002c0,0 131.16652,-6.53618 264.8957,54.38838c131.91157,60.0965 200.78791,140.28956 200.78791,140.28956" fill="none" stroke="#bcbcbc" stroke-width="30.5" stroke-linecap="round"/></g></g></svg>