<svg version="1.1" xmlns="http://www.w3.org/2000/svg" xmlns:xlink="http://www.w3.org/1999/xlink" width="443.34825" height="43.14407" viewBox="0,0,443.34825,43.14407"><g transform="translate(-17.94469,-10.86633)"><g data-paper-data="{&quot;isPaintingLayer&quot;:true}" fill-rule="nonzero" stroke-linecap="butt" stroke-linejoin="miter" stroke-miterlimit="10" stroke-dasharray="" stroke-dashoffset="0" style="mix-blend-mode: normal"><path d="M408.23075,45.58046c0,-6.96135 0,-22.99027 0,-26.87792c0,-3.42966 4.09012,-7.83621 7.99931,-7.83621c8.01241,0 22.41881,0 36.94225,0c4.93331,0 8.12063,3.50442 8.12063,8.12063c0,6.83575 0,22.79338 0,26.73571c0,3.58222 -3.4337,8.28773 -8.68947,8.28773c-14.7152,0 -28.46423,0 -36.37341,0c-3.9092,0 -7.99931,-3.65399 -7.99931,-8.42993z" fill-opacity="0.27451" fill="#000000" stroke="none" stroke-width="0"/><text transform="translate(427.5329,48.42402) rotate(0.82734) scale(0.19461,0.22385) skewX(-17.56438)" font-size="40" xml:space="preserve" fill="#ffffff" fill-rule="nonzero" stroke="#ffffff" stroke-width="2" stroke-linecap="butt" stroke-linejoin="miter" stroke-miterlimit="10" stroke-dasharray="" stroke-dashoffset="0" font-family="Sans Serif" font-weight="normal" text-anchor="start" style="mix-blend-mode: normal"><tspan x="0" dy="0">名次</tspan></text><path d="M17.94469,45.58046c0,-6.96135 0,-22.99027 0,-26.87792c0,-3.42966 4.09012,-7.83621 7.99931,-7.83621c8.01241,0 22.41881,0 36.94225,0c4.93331,0 8.12063,3.50442 8.12063,8.12063c0,6.83575 0,22.79338 0,26.73571c0,3.58222 -3.4337,8.28773 -8.68947,8.28773c-14.7152,0 -28.46423,0 -36.37341,0c-3.9092,0 -7.99931,-3.65399 -7.99931,-8.42993z" fill-opacity="0.27451" fill="#000000" stroke="none" stroke-width="0"/><text transform="translate(27.71707,48.19715) rotate(0.82735) scale(0.19461,0.22385) skewX(-17.56435)" font-size="40" xml:space="preserve" fill="#ffffff" fill-rule="nonzero" stroke="#ffffff" stroke-width="2" stroke-linecap="butt" stroke-linejoin="miter" stroke-miterlimit="10" stroke-dasharray="" stroke-dashoffset="0" font-family="Sans Serif" font-weight="normal" text-anchor="start" style="mix-blend-mode: normal"><tspan x="0" dy="0">剩余圈数</tspan></text></g></g></svg>