<svg version="1.1" xmlns="http://www.w3.org/2000/svg" xmlns:xlink="http://www.w3.org/1999/xlink" width="333.71636" height="124.57455" viewBox="0,0,333.71636,124.57455"><g transform="translate(-73.14182,-117.71273)"><g data-paper-data="{&quot;isPaintingLayer&quot;:true}" fill-rule="nonzero" stroke="none" stroke-width="0" stroke-linecap="butt" stroke-linejoin="miter" stroke-miterlimit="10" stroke-dasharray="" stroke-dashoffset="0" style="mix-blend-mode: normal"><path d="M230.46826,242.28727v-118.85095h19.53566v118.85095z" fill="#989898"/><path d="M344.93499,242.28727v-118.85095h19.53565v118.85095z" fill="#989898"/><path d="M123.02216,242.28726v-118.85095h19.53566v118.85095z" fill="#989898"/><path d="M73.64797,186.17186v-21.25706h333.21022v21.25706z" fill="#acacac"/><path d="M73.14182,138.96976v-21.25703h332.38061v21.25703z" fill="#acacac"/><path d="M128.59878,128.08396c0,-2.68021 1.85701,-4.85294 4.14773,-4.85294c2.29074,0 4.14774,2.17274 4.14774,4.85294c0,2.68021 -1.85701,4.85294 -4.14774,4.85294c-2.29074,0 -4.14773,-2.17274 -4.14773,-4.85294z" fill="#989898"/><path d="M128.59879,128.08396c0,-2.68021 1.85701,-4.85294 4.14773,-4.85294c2.29074,0 4.14774,2.17274 4.14774,4.85294c0,2.68021 -1.857,4.85294 -4.14774,4.85294c-2.29074,0 -4.14773,-2.17273 -4.14773,-4.85294z" fill="#989898"/><path d="M236.4399,128.08396c0,-2.68021 1.857,-4.85294 4.14774,-4.85294c2.29074,0 4.14773,2.17274 4.14773,4.85294c0,2.68021 -1.85701,4.85294 -4.14773,4.85294c-2.29074,0 -4.14774,-2.17273 -4.14774,-4.85294z" fill="#989898"/><path d="M350.69116,128.08396c0,-2.68021 1.85699,-4.85294 4.14773,-4.85294c2.29073,0 4.14774,2.17274 4.14774,4.85294c0,2.68021 -1.85701,4.85294 -4.14774,4.85294c-2.29073,0 -4.14773,-2.17273 -4.14773,-4.85294z" fill="#989898"/><path d="M128.59879,175.89333c0,-2.68021 1.85701,-4.85294 4.14773,-4.85294c2.29074,0 4.14774,2.17274 4.14774,4.85294c0,2.68021 -1.857,4.85294 -4.14774,4.85294c-2.29074,0 -4.14773,-2.17273 -4.14773,-4.85294z" fill="#989898"/><path d="M236.83147,175.89333c0,-2.68021 1.857,-4.85294 4.14773,-4.85294c2.29074,0 4.14774,2.17274 4.14774,4.85294c0,2.68021 -1.857,4.85294 -4.14774,4.85294c-2.29074,0 -4.14773,-2.17273 -4.14773,-4.85294z" fill="#989898"/><path d="M351.72085,175.89333c0,-2.68021 1.857,-4.85294 4.14773,-4.85294c2.29073,0 4.14774,2.17274 4.14774,4.85294c0,2.68021 -1.85701,4.85294 -4.14774,4.85294c-2.29073,0 -4.14773,-2.17273 -4.14773,-4.85294z" fill="#989898"/></g></g></svg>