<svg version="1.1" xmlns="http://www.w3.org/2000/svg" xmlns:xlink="http://www.w3.org/1999/xlink" width="450.84433" height="295.87476" viewBox="0,0,450.84433,295.87476"><defs><linearGradient x1="85.83269" y1="262.58891" x2="84.69012" y2="259.5385" gradientUnits="userSpaceOnUse" id="color-1"><stop offset="0" stop-color="#1b1b1b"/><stop offset="1" stop-color="#4c4c4c"/></linearGradient><radialGradient cx="120.22504" cy="246.78479" r="4.00046" gradientUnits="userSpaceOnUse" id="color-2"><stop offset="0" stop-color="#333333"/><stop offset="1" stop-color="#0c0c0c"/></radialGradient><radialGradient cx="112.9682" cy="227.41039" r="4.00047" gradientUnits="userSpaceOnUse" id="color-3"><stop offset="0" stop-color="#333333"/><stop offset="1" stop-color="#0c0c0c"/></radialGradient><radialGradient cx="58.14857" cy="270.8762" r="3.81466" gradientUnits="userSpaceOnUse" id="color-4"><stop offset="0" stop-color="#ff0000"/><stop offset="1" stop-color="#660007"/></radialGradient><radialGradient cx="50.46708" cy="250.05716" r="4.37145" gradientUnits="userSpaceOnUse" id="color-5"><stop offset="0" stop-color="#1a1a1a"/><stop offset="1" stop-color="#0c0c0c"/></radialGradient><radialGradient cx="50.33978" cy="250.02817" r="3.81467" gradientUnits="userSpaceOnUse" id="color-6"><stop offset="0" stop-color="#ff0000"/><stop offset="1" stop-color="#660007"/></radialGradient><linearGradient x1="76.62707" y1="238.01162" x2="77.76961" y2="241.06204" gradientUnits="userSpaceOnUse" id="color-7"><stop offset="0" stop-color="#1b1b1b"/><stop offset="1" stop-color="#4c4c4c"/></linearGradient><linearGradient x1="120.63466" y1="311.34952" x2="124.55806" y2="323.8369" gradientUnits="userSpaceOnUse" id="color-8"><stop offset="0" stop-color="#4c4c4c"/><stop offset="1" stop-color="#0c0c0c"/></linearGradient><linearGradient x1="117.67402" y1="301.92647" x2="113.75062" y2="289.4391" gradientUnits="userSpaceOnUse" id="color-9"><stop offset="0" stop-color="#4c4c4c"/><stop offset="1" stop-color="#0c0c0c"/></linearGradient><linearGradient x1="115.6264" y1="294.12423" x2="107.74909" y2="296.59921" gradientUnits="userSpaceOnUse" id="color-10"><stop offset="0" stop-color="#4c4c4c"/><stop offset="1" stop-color="#0c0c0c"/></linearGradient><linearGradient x1="84.22401" y1="307.73758" x2="83.16755" y2="304.37505" gradientUnits="userSpaceOnUse" id="color-11"><stop offset="0" stop-color="#4c4c4c"/><stop offset="1" stop-color="#1a1a1a"/></linearGradient><linearGradient x1="89.01679" y1="299.33445" x2="88.00982" y2="299.65083" gradientUnits="userSpaceOnUse" id="color-12"><stop offset="0" stop-color="#0c0c0c"/><stop offset="1" stop-color="#4c4c4c"/></linearGradient><linearGradient x1="88.48319" y1="297.1567" x2="85.88734" y2="297.97229" gradientUnits="userSpaceOnUse" id="color-13"><stop offset="0" stop-color="#0c0c0c"/><stop offset="1" stop-color="#4c4c4c"/></linearGradient><linearGradient x1="123.48455" y1="318.89968" x2="115.60724" y2="321.37465" gradientUnits="userSpaceOnUse" id="color-14"><stop offset="0" stop-color="#4c4c4c"/><stop offset="1" stop-color="#0c0c0c"/></linearGradient><linearGradient x1="90.92831" y1="329.07595" x2="89.87184" y2="325.71341" gradientUnits="userSpaceOnUse" id="color-15"><stop offset="0" stop-color="#1a1a1a"/><stop offset="1" stop-color="#4c4c4c"/></linearGradient><linearGradient x1="107.95756" y1="310.15592" x2="92.61747" y2="314.9756" gradientUnits="userSpaceOnUse" id="color-16"><stop offset="0" stop-color="#1a1a1a"/><stop offset="1" stop-color="#4c4c4c"/></linearGradient><linearGradient x1="98.60932" y1="329.86548" x2="97.60235" y2="330.18186" gradientUnits="userSpaceOnUse" id="color-17"><stop offset="0" stop-color="#0c0c0c"/><stop offset="1" stop-color="#4c4c4c"/></linearGradient><linearGradient x1="99.41712" y1="331.95708" x2="96.82126" y2="332.77268" gradientUnits="userSpaceOnUse" id="color-18"><stop offset="0" stop-color="#0c0c0c"/><stop offset="1" stop-color="#4c4c4c"/></linearGradient><linearGradient x1="53.14784" y1="327.37657" x2="47.17594" y2="329.25287" gradientUnits="userSpaceOnUse" id="color-19"><stop offset="0" stop-color="#4c4c4c"/><stop offset="1" stop-color="#0c0c0c"/></linearGradient><linearGradient x1="77.2898" y1="100.67531" x2="78.88661" y2="104.21511" gradientUnits="userSpaceOnUse" id="color-20"><stop offset="0" stop-color="#0c0c0c"/><stop offset="1" stop-color="#252525"/></linearGradient><linearGradient x1="86.51591" y1="121.12761" x2="88.11272" y2="124.66742" gradientUnits="userSpaceOnUse" id="color-21"><stop offset="0" stop-color="#252525"/><stop offset="1" stop-color="#0c0c0c"/></linearGradient><linearGradient x1="122.35645" y1="105.77653" x2="119.52381" y2="107.05435" gradientUnits="userSpaceOnUse" id="color-22"><stop offset="0" stop-color="#ffffff"/><stop offset="1" stop-color="#ffffff" stop-opacity="0"/></linearGradient><linearGradient x1="121.33352" y1="103.0336" x2="120.00652" y2="103.63222" gradientUnits="userSpaceOnUse" id="color-23"><stop offset="0" stop-color="#ffffff"/><stop offset="1" stop-color="#ffffff" stop-opacity="0"/></linearGradient><linearGradient x1="58.05753" y1="136.01232" x2="55.39987" y2="137.2112" gradientUnits="userSpaceOnUse" id="color-24"><stop offset="0" stop-color="#ff0000"/><stop offset="1" stop-color="#8c0000"/></linearGradient><linearGradient x1="114.11498" y1="87.50689" x2="111.28233" y2="88.78471" gradientUnits="userSpaceOnUse" id="color-25"><stop offset="0" stop-color="#ffffff"/><stop offset="1" stop-color="#ffffff" stop-opacity="0"/></linearGradient><linearGradient x1="115.49423" y1="90.08909" x2="114.16722" y2="90.68771" gradientUnits="userSpaceOnUse" id="color-26"><stop offset="0" stop-color="#ffffff"/><stop offset="1" stop-color="#ffffff" stop-opacity="0"/></linearGradient><linearGradient x1="52.31653" y1="126.37798" x2="50.21666" y2="127.32522" gradientUnits="userSpaceOnUse" id="color-27"><stop offset="0" stop-color="#191919"/><stop offset="1" stop-color="#0c0c0c"/></linearGradient><linearGradient x1="121.36003" y1="95.23233" x2="120.78585" y2="95.49135" gradientUnits="userSpaceOnUse" id="color-28"><stop offset="0" stop-color="#000000" stop-opacity="0"/><stop offset="1" stop-color="#000000"/></linearGradient><linearGradient x1="48.89366" y1="115.69793" x2="46.236" y2="116.89681" gradientUnits="userSpaceOnUse" id="color-29"><stop offset="0" stop-color="#ff0000"/><stop offset="1" stop-color="#8c0000"/></linearGradient><linearGradient x1="97.65919" y1="105.92383" x2="89.43686" y2="109.63294" gradientUnits="userSpaceOnUse" id="color-30"><stop offset="0" stop-color="#1a1a1a"/><stop offset="1" stop-color="#4c4c4c"/></linearGradient><linearGradient x1="120.71695" y1="95.52243" x2="120.30352" y2="95.70892" gradientUnits="userSpaceOnUse" id="color-31"><stop offset="0" stop-color="#4c4c4c" stop-opacity="0"/><stop offset="1" stop-color="#4c4c4c"/></linearGradient><radialGradient cx="56.01855" cy="201.77799" r="1.64485" gradientUnits="userSpaceOnUse" id="color-32"><stop offset="0" stop-color="#fc0204"/><stop offset="1" stop-color="#770505"/></radialGradient><linearGradient x1="54.63434" y1="199.11303" x2="54.11328" y2="199.34484" gradientUnits="userSpaceOnUse" id="color-33"><stop offset="0" stop-color="#fc0204"/><stop offset="1" stop-color="#770505"/></linearGradient><linearGradient x1="88.68894" y1="185.72674" x2="89.97598" y2="188.61972" gradientUnits="userSpaceOnUse" id="color-34"><stop offset="0" stop-color="#4c4c4c"/><stop offset="1" stop-color="#1a1a1a"/></linearGradient><radialGradient cx="47.27669" cy="182.12823" r="1.64485" gradientUnits="userSpaceOnUse" id="color-35"><stop offset="0" stop-color="#fc0204"/><stop offset="1" stop-color="#770505"/></radialGradient><linearGradient x1="48.3293" y1="184.94071" x2="47.80825" y2="185.17252" gradientUnits="userSpaceOnUse" id="color-36"><stop offset="0" stop-color="#fc0204"/><stop offset="1" stop-color="#770505"/></linearGradient><linearGradient x1="70.0467" y1="183.76765" x2="60.1342" y2="188.17756" gradientUnits="userSpaceOnUse" id="color-37"><stop offset="0" stop-color="#4c4c4c"/><stop offset="1" stop-color="#1a1a1a"/></linearGradient><linearGradient x1="79.7866" y1="165.71626" x2="81.07364" y2="168.60924" gradientUnits="userSpaceOnUse" id="color-38"><stop offset="0" stop-color="#1a1a1a"/><stop offset="1" stop-color="#4c4c4c"/></linearGradient><linearGradient x1="98.53114" y1="171.09539" x2="88.8492" y2="175.40273" gradientUnits="userSpaceOnUse" id="color-39"><stop offset="0" stop-color="#1a1a1a"/><stop offset="1" stop-color="#4c4c4c"/></linearGradient><radialGradient cx="112.07069" cy="154.36667" r="3.2642" gradientUnits="userSpaceOnUse" id="color-40"><stop offset="0" stop-color="#4c4c4c"/><stop offset="1" stop-color="#0c0c0c"/></radialGradient><linearGradient x1="114.27549" y1="155.28503" x2="113.07086" y2="155.82095" gradientUnits="userSpaceOnUse" id="color-41"><stop offset="0" stop-color="#fefefe"/><stop offset="1" stop-color="#b3b3b3"/></linearGradient><linearGradient x1="111.83987" y1="155.17205" x2="110.99032" y2="153.26245" gradientUnits="userSpaceOnUse" id="color-42"><stop offset="0" stop-color="#4c4c4c"/><stop offset="1" stop-color="#0c0c0c"/></linearGradient><radialGradient cx="111.91675" cy="154.11739" r="1.09707" gradientUnits="userSpaceOnUse" id="color-43"><stop offset="0" stop-color="#fefefe"/><stop offset="1" stop-color="#808080"/></radialGradient><linearGradient x1="109.94898" y1="154.12729" x2="109.12897" y2="152.2841" gradientUnits="userSpaceOnUse" id="color-44"><stop offset="0" stop-color="#4c4c4c"/><stop offset="1" stop-color="#0c0c0c"/></linearGradient><linearGradient x1="110.67018" y1="153.02031" x2="110.19953" y2="153.2297" gradientUnits="userSpaceOnUse" id="color-45"><stop offset="0" stop-color="#fefefe"/><stop offset="1" stop-color="#808080"/></linearGradient><radialGradient cx="120.02424" cy="172.24449" r="3.2642" gradientUnits="userSpaceOnUse" id="color-46"><stop offset="0" stop-color="#4c4c4c"/><stop offset="1" stop-color="#0c0c0c"/></radialGradient><linearGradient x1="120.81836" y1="169.99196" x2="119.61373" y2="170.52788" gradientUnits="userSpaceOnUse" id="color-47"><stop offset="0" stop-color="#fefefe"/><stop offset="1" stop-color="#b3b3b3"/></linearGradient><linearGradient x1="119.27149" y1="171.87669" x2="120.12104" y2="173.78629" gradientUnits="userSpaceOnUse" id="color-48"><stop offset="0" stop-color="#4c4c4c"/><stop offset="1" stop-color="#0c0c0c"/></linearGradient><radialGradient cx="120.10633" cy="172.52574" r="1.09706" gradientUnits="userSpaceOnUse" id="color-49"><stop offset="0" stop-color="#fefefe"/><stop offset="1" stop-color="#808080"/></radialGradient><linearGradient x1="118.78144" y1="173.9807" x2="119.60144" y2="175.82387" gradientUnits="userSpaceOnUse" id="color-50"><stop offset="0" stop-color="#4c4c4c"/><stop offset="1" stop-color="#0c0c0c"/></linearGradient><linearGradient x1="120.08653" y1="174.18619" x2="119.61589" y2="174.39557" gradientUnits="userSpaceOnUse" id="color-51"><stop offset="0" stop-color="#fefefe"/><stop offset="1" stop-color="#808080"/></linearGradient></defs><g transform="translate(-12.73568,-64.45158)"><g data-paper-data="{&quot;isPaintingLayer&quot;:true}" fill-rule="nonzero" stroke-linejoin="miter" stroke-miterlimit="10" stroke-dasharray="" stroke-dashoffset="0" style="mix-blend-mode: normal"><path d="M12.73568,338.79698c0,-8.08388 0,-40.41859 0,-44.96084c0,-3.34317 4.17793,-7.41163 8.84448,-7.41163c14.75816,0 408.02111,0 433.80396,0c5.15333,0 8.19589,3.95884 8.19589,7.23955c0,4.28374 0,36.33859 0,44.44461c0,5.07079 -3.29935,8.18139 -8.84584,8.18139c-26.42791,0 -418.51778,0 -433.15398,0c-4.66655,0 -8.84448,-3.12845 -8.84448,-7.49309z" fill-opacity="0.31765" fill="#e4ed9a" stroke="none" stroke-width="0" stroke-linecap="butt"/><path d="M12.73568,271.79598c0,-8.08388 0,-40.41859 0,-44.96083c0,-3.34318 4.17793,-7.41162 8.84448,-7.41162c14.75816,0 408.02111,0 433.80396,0c5.15333,0 8.19589,3.95883 8.19589,7.23955c0,4.28374 0,36.3386 0,44.44462c0,5.07079 -3.29935,8.18138 -8.84584,8.18138c-26.42791,0 -418.51778,0 -433.15398,0c-4.66655,0 -8.84448,-3.12845 -8.84448,-7.49309z" fill-opacity="0.38039" fill="#bb9bed" stroke="none" stroke-width="0" stroke-linecap="butt"/><path d="M12.73568,202.25706c0,-8.08388 0,-40.41859 0,-44.96083c0,-3.34318 4.17793,-7.41163 8.84448,-7.41163c14.75816,0 408.02111,0 433.80396,0c5.15333,0 8.19589,3.95883 8.19589,7.23955c0,4.28374 0,36.3386 0,44.44462c0,5.07079 -3.29935,8.18138 -8.84584,8.18138c-26.42791,0 -418.51778,0 -433.15398,0c-4.66655,0 -8.84448,-3.12845 -8.84448,-7.49309z" fill-opacity="0.31765" fill="#9ae1ed" stroke="none" stroke-width="0" stroke-linecap="butt"/><path d="M12.73568,135.25606c0,-8.08388 0,-40.41859 0,-44.96084c0,-3.34318 4.17793,-7.41163 8.84448,-7.41163c14.75816,0 408.02111,0 433.80396,0c5.15333,0 8.19589,3.95883 8.19589,7.23955c0,4.28374 0,36.3386 0,44.44462c0,5.07079 -3.29935,8.18138 -8.84584,8.18138c-26.42791,0 -418.51778,0 -433.15398,0c-4.66655,0 -8.84448,-3.12844 -8.84448,-7.49309z" fill-opacity="0.2902" fill="#9fee9b" stroke="none" stroke-width="0" stroke-linecap="butt"/><g stroke="#000000" stroke-linecap="round"><path d="M47.89403,262.90853c-0.91179,-2.43433 -1.03312,-3.29626 -1.36071,-6.65773c-0.26217,-2.69017 -0.03653,-5.62404 0.23188,-6.94668c0.35903,-1.76916 1.92362,-2.98318 3.11503,-3.86026c0.36854,-0.27131 0.69355,-0.52004 0.95278,-0.72241c0.40412,-0.31547 1.34493,-0.78502 2.19239,-1.10956c3.94865,-1.51214 33.52018,-12.83655 33.52018,-12.83655c0,0 8.62034,-3.43401 15.05086,-5.7799c2.14418,-0.7822 4.04489,-1.44344 5.30138,-1.81603c2.14672,-0.63658 4.79839,-0.62523 6.1358,-0.56703c0.53329,0.02321 1.28375,0.14131 1.79145,0.36175c0.2964,0.12869 0.6206,0.30273 0.90403,0.53114c1.28279,1.03382 2.65077,2.83718 3.57216,4.06861c1.52016,2.03171 3.57581,7.10204 3.57581,7.10204l0.04553,0.12154c0,0 1.78112,5.17315 1.96975,7.70361c0.11432,1.53374 0.26768,3.79202 -0.02029,5.41419c-0.06363,0.35841 -0.19373,0.7026 -0.33265,0.99435c-0.23797,0.49973 -0.72619,1.08178 -1.11299,1.44963c-0.97007,0.92248 -2.9618,2.67307 -4.99849,3.60341c-1.19209,0.54453 -3.05949,1.29468 -5.18993,2.11357c-6.38931,2.45588 -15.14446,5.52999 -15.14446,5.52999c0,0 -32.29887,11.82821 -33.70498,12.34315c-0.85214,0.31206 -1.86991,0.57612 -2.38184,0.60376c-0.32838,0.01772 -0.73684,0.04372 -1.19293,0.08129c-1.47444,0.12142 -3.45159,0.234 -4.88451,-0.86398c-1.07127,-0.82085 -3.16881,-2.88455 -4.73845,-5.085c-1.96134,-2.74955 -2.38497,-3.34258 -3.29677,-5.7769z" data-paper-data="{&quot;index&quot;:null}" fill="#000000" stroke-width="0"/><path d="M93.78956,259.60857c0,0 -6.20714,2.21913 -8.85565,3.0682c-2.03184,0.65136 -5.6815,1.59211 -5.6815,1.59211l-2.5837,-1.79138c0,0 6.77506,-2.80709 9.42459,-3.52913c1.91113,-0.52082 5.05315,-0.37324 5.05315,-0.37324z" data-paper-data="{&quot;index&quot;:null}" fill="url(#color-1)" stroke-width="0"/><path d="M54.55963,260.14702c0,0 -1.00694,-2.71303 -1.18655,-4.13772c-0.16795,-1.33225 0.14155,-4.1517 0.14155,-4.1517l14.06434,-5.26792c0,0 0.19,1.04343 0.46407,1.88205c0.48913,1.49673 2.03251,5.96177 2.03251,5.96177l0.05842,0.15596c0,0 1.7697,4.38026 2.3842,5.83004c0.34431,0.81231 0.88654,1.72382 0.88654,1.72382l-14.06434,5.26791c0,0 -2.08558,-1.92236 -2.83418,-3.03713c-0.80054,-1.19212 -1.8237,-3.89908 -1.8237,-3.89908z" data-paper-data="{&quot;index&quot;:null}" fill="#1a1a1a" stroke-width="0"/><path d="M101.33895,242.88596c0,0 0.52183,1.57331 0.8548,3.203c0.26598,1.3018 0.18002,2.77631 0.17049,3.73661c-0.00811,0.81772 -0.11719,1.88764 -0.37571,2.92063c-0.37978,1.51746 -0.95403,2.90721 -0.95403,2.90721c0,0 -1.44699,0.56794 -2.68047,0.78985c-1.90396,0.34251 -7.501,1.02579 -9.50093,1.2662c-0.45231,0.05437 -0.81336,-0.30291 -0.8984,-0.65963c-0.216,-0.90609 -0.41026,-3.33939 -0.76001,-4.78835c-0.34977,-1.44896 -2.03892,-5.9587 -2.72711,-7.2809c-0.68819,-1.32219 -2.14029,-3.28435 -2.5727,-4.10939c-0.17023,-0.32482 -0.13274,-0.83137 0.24399,-1.08752c1.66576,-1.13261 6.33444,-4.29443 7.99491,-5.287c1.07574,-0.64304 2.53978,-1.16545 2.53978,-1.16545c0,0 1.34595,0.67054 2.62916,1.56509c0.87353,0.60896 1.65865,1.34394 2.20197,1.95514c0.63805,0.71775 1.67154,1.77296 2.32622,2.92916c0.81958,1.44744 1.45974,2.97642 1.45974,2.97642z" data-paper-data="{&quot;index&quot;:null}" fill="#1a1a1a" stroke-width="0"/><path d="M122.75816,242.1426c0,0 -0.49681,2.05301 -0.73002,3.923c-0.14592,1.17004 -0.03282,2.25066 -0.11204,2.7668c-0.03914,0.25504 -0.11113,0.50251 -0.18057,0.70193c-0.09238,0.26531 -0.23878,0.46752 -0.23878,0.46752c0,0 -1.24333,0.06776 -1.8942,0.05913c-0.7793,-0.01033 -2.46607,-0.11692 -2.46607,-0.11692c0,0 0.21795,-0.51353 0.69661,-1.04435c0.30822,-0.34181 0.69483,-0.59773 0.96477,-0.96447c1.0644,-1.4461 3.96028,-5.79266 3.96028,-5.79266z" data-paper-data="{&quot;index&quot;:null}" fill="url(#color-2)" stroke-width="0"/><path d="M117.9277,229.24617c0,0 -5.03878,-1.37458 -6.79128,-1.76559c-0.44443,-0.09916 -0.90405,-0.03811 -1.36098,-0.09334c-0.7096,-0.08576 -1.21128,-0.32973 -1.21128,-0.32973c0,0 1.20169,-1.18848 1.78245,-1.70823c0.48506,-0.4341 1.46695,-1.19981 1.46695,-1.19981c0,0 0.24322,0.05629 0.48716,0.19562c0.18336,0.10474 0.4002,0.24402 0.59727,0.41058c0.3988,0.33711 1.02347,1.22612 1.90213,2.01238c1.40433,1.25663 3.12759,2.47809 3.12759,2.47809z" data-paper-data="{&quot;index&quot;:null}" fill="url(#color-3)" stroke-width="0.5"/><path d="M62.83106,272.50219c0,0 -2.1009,0.71771 -3.70127,0.97208c-0.72335,0.11497 -1.37738,0.04727 -1.63143,-0.07052c-0.96977,-0.44963 -2.07127,-1.61922 -2.72151,-2.25165c-0.94358,-0.91774 -1.31079,-1.90187 -1.31079,-1.90187c0,0 1.21117,1.08937 2.55801,2.04422c0.95835,0.67942 2.02065,1.30732 2.67298,1.53256c1.18008,0.40747 4.13401,-0.32482 4.13401,-0.32482z" data-paper-data="{&quot;index&quot;:null}" fill="url(#color-4)" stroke-width="0.5"/><g data-paper-data="{&quot;index&quot;:null}" stroke-width="0.5"><path d="M47.81517,254.75748c0,0 -0.27989,0.07371 -0.33649,-0.23641c-0.24211,-1.32638 -0.45268,-5.08 0.56486,-6.44907c1.023,-1.37643 5.3044,-2.78552 5.3044,-2.78552c0,0 0.09483,0.16781 -0.4164,0.45681c-0.93012,0.52578 -2.80197,1.4424 -3.36527,2.40664c-0.45457,0.77813 -0.94861,2.19811 -1.26084,3.58235c-0.34893,1.54697 -0.49026,3.0252 -0.49026,3.0252z" data-paper-data="{&quot;index&quot;:null}" fill="url(#color-5)"/><path d="M52.80189,245.72612c0,0 -2.70815,1.38849 -3.33017,2.47095c-0.34385,0.59837 -0.73226,1.76964 -1.00844,2.91146c-0.38813,1.6047 -0.58561,3.2217 -0.58561,3.2217c0,0 -0.36968,-0.9832 -0.26119,-2.29501c0.07476,-0.90399 0.13686,-2.50941 0.57262,-3.48549c0.11415,-0.2557 0.5628,-0.73642 1.18368,-1.12494c1.37367,-0.85959 3.42912,-1.69867 3.42912,-1.69867z" data-paper-data="{&quot;index&quot;:null}" fill="url(#color-6)"/></g><g data-paper-data="{&quot;index&quot;:null}" fill="#1a1a1a" stroke-width="0"><path d="M94.87699,262.79478c-0.06045,0.15593 -0.14451,0.3369 -0.26054,0.52821c-0.25092,0.41369 -0.56429,0.95096 -0.89245,1.30307c-0.09455,0.10144 -0.2589,0.39509 -0.55167,0.55494c-0.35398,0.19327 -0.83611,0.24633 -0.83611,0.24633c0,0 0.26405,-2.49919 0.33482,-3.16896c0.00759,-0.07176 0.023,-0.47907 0.18131,-0.62841c0.16971,-0.16008 1.03861,-0.03039 1.21256,0.0231c0.17314,0.05325 0.40475,0.20231 0.59695,0.34137c0.20283,0.14676 0.33441,0.49259 0.2151,0.80034z" data-paper-data="{&quot;index&quot;:null}"/></g><g data-paper-data="{&quot;index&quot;:null}" fill="#1a1a1a" stroke-width="0"><path d="M83.7033,232.73701c-0.05355,0.23111 -0.13024,0.49567 -0.2258,0.64955c-0.09601,0.15461 -0.6659,0.82322 -0.89902,0.81401c-0.21747,-0.00859 -0.49668,-0.30554 -0.54954,-0.35466c-0.49335,-0.45847 -2.33426,-2.16923 -2.33426,-2.16923c0,0 0.39833,-0.27674 0.79218,-0.36357c0.32573,-0.07181 0.64257,0.04159 0.7805,0.05597c0.47872,0.04988 1.06794,0.24909 1.5289,0.39613c0.21318,0.068 0.39542,0.14922 0.54344,0.22707c0.29211,0.15365 0.42012,0.50082 0.36361,0.74472z" data-paper-data="{&quot;index&quot;:null}"/></g><path d="M83.27015,237.54688c0,0 -2.27192,2.1754 -4.05494,3.03825c-2.47191,1.19625 -9.42397,3.53075 -9.42397,3.53075l0.7711,-3.04793c0,0 3.36961,-1.68839 5.3294,-2.53212c2.55459,-1.09981 8.69224,-3.5045 8.69224,-3.5045z" data-paper-data="{&quot;index&quot;:null}" fill="url(#color-7)" stroke-width="0"/></g><g stroke="#000000" stroke-linecap="round"><path d="M124.68987,305.0043c0,0 0.57315,2.20443 0.61361,3.37387c0.02938,0.84935 0.0578,1.07554 -0.25961,3.13907c-0.31741,2.06351 -1.11193,5.23287 -1.11193,5.23287c0,0 -0.63202,2.25631 -1.41196,4.11954c-0.50544,1.20745 -1.19916,2.20534 -1.39601,2.4678c-0.44087,0.58783 -0.98703,1.01376 -1.09986,1.12534c-0.26245,0.25952 -0.82761,0.54437 -1.24161,0.67444c-1.28111,0.40251 -7.96254,2.50175 -9.90166,3.111c-0.33467,0.10516 -1.09337,0.23415 -1.45368,0.27762c-0.27344,0.03301 -0.78424,0.09463 -1.19571,0.14429c-0.34943,0.04218 -1.06085,0.21194 -1.59539,0.37989c-0.97317,0.30576 -5.76773,1.59468 -11.37189,3.35611c-3.2097,1.00883 -6.65711,2.26139 -9.87491,3.34807c-2.36292,0.79798 -4.60546,1.62136 -6.45979,2.32799c-2.07515,0.79077 -9.1658,3.60321 -13.87457,4.67052c-0.82396,0.18677 -2.08295,0.39728 -3.66578,0.15924c-1.93805,-0.29146 -3.47715,-0.57735 -5.14365,-1.5899c-1.6665,-1.01256 -3.05753,-3.40884 -3.05753,-3.40884l-3.21671,-8.85307l-0.03269,-0.10405l-2.42457,-9.10194c0,0 -0.22942,-2.76127 0.55852,-4.54498c0.78795,-1.78371 1.88697,-2.89846 3.31008,-4.24596c1.16226,-1.10051 2.31542,-1.64788 3.09813,-1.96591c4.47306,-1.81752 11.89808,-3.56577 14.05258,-4.10391c1.92526,-0.48089 4.23577,-1.08801 6.63047,-1.78483c3.26109,-0.94892 6.80539,-1.89308 10.0153,-2.90123c5.60453,-1.76022 10.27472,-3.44502 11.24788,-3.75079c0.53454,-0.16794 1.21522,-0.43556 1.52597,-0.60082c0.36593,-0.19459 0.8202,-0.43617 1.06338,-0.56549c0.32044,-0.17041 1.01655,-0.4985 1.35123,-0.60365c1.93911,-0.60925 8.62054,-2.70849 9.90166,-3.111c0.414,-0.13007 1.04051,-0.21965 1.40424,-0.15686c0.15639,0.02699 0.84801,0.06404 1.54583,0.2941c0.31158,0.10271 1.45135,0.52454 2.55654,1.22595c1.70542,1.08236 3.51431,2.57175 3.51431,2.57175c0,0 2.46436,2.14543 3.90491,3.65662c1.44055,1.51119 1.5466,1.713 2.00826,2.42652c0.63565,0.98244 1.42625,3.11856 1.42625,3.11856z" data-paper-data="{&quot;index&quot;:null}" fill="#000000" stroke-width="0"/><path d="M125.27657,309.89106c0,0 1.80325,2.59715 1.66215,3.9808c-0.10166,0.9969 -0.02087,1.48083 -0.63204,3.11717c-0.29175,0.78114 -0.79337,2.26168 -1.42938,3.65689c-0.27116,0.59485 -0.48034,1.14705 -0.84929,1.66728c-0.38027,0.5362 -0.86683,0.88735 -1.31262,1.26422c-0.84874,0.71753 -1.63683,1.25103 -1.87381,1.38596c-0.8219,0.468 -1.60448,0.05422 -1.60448,0.05422c0,0 2.32034,-2.75531 3.13133,-4.78654c1.10797,-2.77506 2.90814,-10.33999 2.90814,-10.33999z" data-paper-data="{&quot;index&quot;:null}" fill="url(#color-8)" stroke-width="0.5"/><path d="M114.01671,293.64929c-1.82697,-1.2024 -5.30618,-2.13557 -5.30618,-2.13557c0,0 0.40532,-0.787 1.34718,-0.87316c0.27157,-0.02484 1.22315,-0.03793 2.32976,0.06525c0.58122,0.05419 1.18118,0.06397 1.79978,0.28634c0.60017,0.21573 1.08758,0.54908 1.65023,0.88195c1.31968,0.78075 2.57791,1.70837 3.26399,2.18228c1.43721,0.99275 1.64769,1.43595 2.30124,2.19556c0.90709,1.05431 0.91324,4.21609 0.91324,4.21609c0,0 -5.80322,-5.17601 -8.29923,-6.81874z" data-paper-data="{&quot;index&quot;:null}" fill="url(#color-9)" stroke-width="0.5"/><path d="M114.46891,296.069c-1.05737,-0.11631 -2.38843,-0.26345 -3.30302,-0.49172c-0.73995,-0.18469 -2.2828,-0.31104 -3.19919,-0.6829c-0.74612,-0.30277 -1.00227,-0.79257 -1.00227,-0.79257c0,0 1.91405,-0.20619 2.89292,-0.20281c0.57674,0.002 1.96483,0.04017 2.9506,0.17912c0.24433,0.03444 0.76431,0.12004 1.24231,0.3947c0.33418,0.19203 0.61322,0.48271 0.91688,0.72947c0.39083,0.31757 0.78359,0.59039 0.97808,0.78211c0.36337,0.35823 0.46585,0.63726 0.46585,0.63726c0,0 -1.16257,-0.4669 -1.94215,-0.55266z" data-paper-data="{&quot;index&quot;:null}" fill="url(#color-10)" stroke-width="0.5"/><path d="M89.84375,302.30928c0,0 -1.3922,2.29767 -1.82685,3.13057c-0.2865,0.54901 -0.52535,1.27111 -0.52535,1.27111c0,0 -2.24277,0.55067 -3.62552,0.93516c-1.83415,0.51001 -6.41284,1.85616 -6.41284,1.85616c0,0 -0.03086,-1.32073 0.88313,-2.29918c0.41654,-0.44591 3.18397,-1.91952 5.90924,-3.01373c2.82231,-1.13317 5.59819,-1.88007 5.59819,-1.88007z" data-paper-data="{&quot;index&quot;:null}" fill="url(#color-11)" stroke-width="0"/><g data-paper-data="{&quot;index&quot;:null}" stroke-width="0.5"><path d="M88.46378,297.99427c0,0 0.46066,0.93581 0.57259,1.42343c0.07329,0.31925 0.09431,0.86247 0.10005,1.20418c0.00311,0.18452 -0.20887,0.28522 -0.33302,0.27045c-0.15568,-0.01852 -0.52742,-0.22614 -0.53307,-0.43731c-0.00626,-0.2341 -0.01811,-0.52679 -0.04021,-0.72021c-0.04467,-0.39087 -0.21364,-1.18554 -0.21364,-1.18554z" fill="url(#color-12)"/><path d="M85.47327,296.65443c0,0 0.88304,-0.35737 1.67484,-0.13725c0.65449,0.18195 1.18663,0.68618 1.37608,0.8779c0.41866,0.42367 -0.86338,1.47314 -0.86338,1.47314z" fill="url(#color-13)"/></g><path d="M122.69989,316.40226c0,0 0.07553,0.28751 -0.01767,0.78918c-0.04988,0.2685 -0.21604,0.71693 -0.35501,1.20095c-0.10797,0.37608 -0.17064,0.77414 -0.33494,1.12277c-0.23502,0.49869 -0.61261,0.8663 -0.79333,1.03429c-0.72917,0.67776 -1.84598,1.50295 -2.31795,1.83444c-0.80105,0.56261 -2.48908,1.48817 -2.48908,1.48817c0,0 -0.07001,-0.5483 0.36888,-1.22338c0.53904,-0.82914 1.73238,-1.81517 2.23374,-2.38987c0.61969,-0.71033 1.62743,-1.5923 2.42827,-2.29244c0.59045,-0.51621 1.27709,-1.56412 1.27709,-1.56412z" data-paper-data="{&quot;index&quot;:null}" fill="url(#color-14)" stroke-width="0.5"/><path d="M97.58632,326.95223c0,0 -2.70424,0.97489 -5.66749,1.65949c-2.86137,0.66106 -5.97429,1.035 -6.57102,0.90744c-1.30935,-0.2799 -2.03939,-1.38096 -2.03939,-1.38096c0,0 4.52583,-1.51441 6.32208,-2.14502c1.35417,-0.47542 3.50888,-1.3064 3.50888,-1.3064c0,0 0.60892,0.45573 1.15793,0.74223c0.83289,0.43465 3.28902,1.52322 3.28902,1.52322z" data-paper-data="{&quot;index&quot;:null}" fill="url(#color-15)" stroke-width="0"/><path d="M107.95406,310.20472c0,0 0.39837,1.03782 0.62533,2.20169c0.16684,0.85553 0.19076,1.77831 0.15114,2.41147c-0.05562,0.889 -0.36066,2.96625 -1.41352,4.93227c-0.8856,1.65369 -2.49282,3.25735 -3.01841,3.72497c-0.98817,0.87917 -3.42488,1.93656 -3.42488,1.93656c0,0 -1.49434,0.4341 -2.33586,0.28193c-0.28122,-0.05085 -0.68818,-0.13843 -1.09015,-0.29773c-0.64149,-0.25421 -1.31778,-0.60003 -1.69509,-0.80105c-0.18658,-0.0994 -0.24571,-0.29882 -0.12834,-0.47166c0.08082,-0.11899 0.19152,-0.25574 0.33494,-0.37821c0.25353,-0.21648 1.02459,-0.63135 1.65299,-1.37005c0.87582,-1.02951 1.63627,-2.49961 1.76646,-3.26753c0.25073,-1.47879 -0.14281,-3.15933 -0.2219,-3.6999c-0.11516,-0.78699 -0.52252,-2.20205 -0.52252,-2.20205l-0.06877,-0.21887c0,0 -0.47514,-1.39377 -0.83078,-2.10519c-0.24429,-0.48868 -0.88261,-2.09231 -1.93403,-3.16197c-0.546,-0.55547 -2.01057,-1.32648 -3.31781,-1.6701c-0.93796,-0.24656 -1.80774,-0.14589 -2.13953,-0.17848c-0.1877,-0.01844 -0.3567,-0.06729 -0.49106,-0.11868c-0.19513,-0.07465 -0.26067,-0.27206 -0.16448,-0.46031c0.19455,-0.38069 0.55154,-1.05114 0.93236,-1.62657c0.23864,-0.36058 0.52238,-0.66517 0.72398,-0.86771c0.60329,-0.60611 2.07737,-1.10465 2.07737,-1.10465c0,0 2.60361,-0.52623 3.91703,-0.3702c0.69858,0.08299 2.93417,0.47929 4.60642,1.32934c1.98808,1.01059 3.42633,2.54011 3.98039,3.23755c0.39462,0.49673 0.90274,1.26738 1.25518,2.06459c0.47947,1.08454 0.74625,2.1637 0.74625,2.1637z" data-paper-data="{&quot;index&quot;:null}" fill="url(#color-16)" stroke-width="0"/><g data-paper-data="{&quot;index&quot;:null}" stroke-width="0.5"><path d="M98.23785,331.08169c0,0 -0.31589,-0.7485 -0.50279,-1.09468c-0.09248,-0.1713 -0.25016,-0.41818 -0.37891,-0.6138c-0.11614,-0.17646 0.07007,-0.55937 0.18717,-0.6636c0.0934,-0.08312 0.32486,-0.12175 0.42785,0.03139c0.19072,0.28359 0.48415,0.74122 0.60662,1.04503c0.18706,0.464 0.34439,1.49512 0.34439,1.49512z" fill="url(#color-17)"/><path d="M97.76366,331.02344c0,0 1.65186,0.12767 1.55074,0.71465c-0.04575,0.26563 -0.19387,0.98358 -0.62671,1.50716c-0.52363,0.6334 -1.45238,0.84528 -1.45238,0.84528z" fill="url(#color-18)"/></g><path d="M47.17411,329.24705c0,0 -0.85308,-2.87269 -1.39831,-5.3164c-0.18955,-0.84958 -0.47772,-2.36286 -0.46146,-3.39022c0.01091,-0.68913 0.24713,-1.09618 0.41224,-1.17448c1.04847,-0.49716 2.99288,-1.41915 3.58681,-1.70078c0.33837,-0.16044 0.79969,-0.01097 0.89305,0.35191c0.34634,1.34605 1.30029,5.86012 2.45024,9.52018c1.14995,3.66006 2.94547,7.89693 3.43119,9.19917c0.13094,0.35107 -0.16199,0.73753 -0.53131,0.79944c-0.64827,0.10866 -2.77058,0.4644 -3.91499,0.65622c-0.18022,0.03021 -0.6068,-0.16861 -1.00988,-0.72766c-0.60091,-0.83344 -1.23001,-2.23962 -1.5604,-3.04494c-0.95035,-2.31642 -1.89352,-5.16082 -1.89352,-5.16082z" data-paper-data="{&quot;index&quot;:null}" fill="url(#color-19)" stroke-width="0.5"/></g><g stroke-width="0" stroke-linecap="round"><path d="M120.40465,94.82405c0,0 4.58469,8.97634 2.65372,12.42562c-2.23407,3.99071 -17.60282,10.86229 -19.52329,11.74068c-3.89553,1.78176 -17.73749,8.00204 -17.73749,8.00204c0,0 -6.88132,3.09086 -8.70378,3.96388c-0.41554,0.19906 -0.68961,0.49487 -1.01626,0.69593c-0.27307,0.16807 -1.16737,0.55558 -1.16737,0.55558c0,0 -8.95426,3.77606 -12.37347,4.95801c-2.47697,0.85624 -4.83638,1.35149 -6.05852,1.39418c-1.22214,0.04269 -1.94406,0.04799 -2.83802,-1.09409c-0.43141,-0.55115 -1.14708,-1.51655 -1.8167,-2.67097c-1.6559,-2.8547 -3.50013,-6.65322 -3.50013,-6.65322l0.02823,0.06259c0,0 -1.62701,-3.89651 -2.67113,-7.02718c-0.42224,-1.26601 -0.67231,-2.44146 -0.79996,-3.12963c-0.26452,-1.42602 0.21724,-1.96371 1.0581,-2.85164c0.84085,-0.88793 2.77364,-2.3289 5.05486,-3.61908c3.149,-1.78099 11.90592,-5.99447 11.90592,-5.99447c0,0 0.88237,-0.41396 1.18909,-0.50743c0.36692,-0.11181 0.77006,-0.12149 1.19431,-0.30127c1.86062,-0.78844 8.73196,-3.90141 8.73196,-3.90141c0,0 13.82408,-6.25994 17.73796,-8.00102c1.92951,-0.85834 17.13747,-7.77998 21.6077,-6.81359c3.86374,0.83528 7.67345,10.16122 7.67345,10.16122z" data-paper-data="{&quot;index&quot;:null}" fill="#000000" stroke="#000000"/><path d="M90.9804,94.84104c0,0 -0.68091,0.52873 -1.56759,1.34873c-1.92717,1.78225 -5.13664,4.82307 -6.6275,5.97419c-1.1078,0.85534 -4.10837,2.13992 -4.10837,2.13992c0,0 -3.96946,1.84501 -7.2939,3.12089c-1.27727,0.4902 -2.44476,0.94873 -3.22181,1.08407c-1.37507,0.2395 -3.33541,-0.8543 -4.15627,-1.36443c-0.24177,-0.15026 -0.28477,-0.29522 -0.13656,-0.36247c1.27529,-0.57865 18.37361,-8.33671 18.37361,-8.33671c0,0 6.29882,-2.86296 7.8132,-3.48758c0.6959,-0.28703 0.92517,-0.11661 0.92517,-0.11661z" data-paper-data="{&quot;index&quot;:null}" fill="url(#color-20)" stroke="#000000"/><path d="M101.54723,118.26551c0,0 -0.02397,0.28466 -0.69972,0.61638c-1.47052,0.72187 -7.78549,3.54902 -7.78549,3.54902c0,0 -17.13204,7.68332 -18.40985,8.25638c-0.14851,0.06661 -0.22872,-0.06156 -0.18134,-0.34226c0.16084,-0.95299 0.63829,-3.14648 1.72789,-4.0188c0.61574,-0.49294 1.73216,-1.06469 2.94496,-1.69777c3.15668,-1.64776 7.16691,-3.40241 7.16691,-3.40241c0,0 2.94884,-1.39923 4.32323,-1.66359c1.84964,-0.35578 6.25333,-0.74928 8.86485,-1.01445c1.20154,-0.12199 2.04857,-0.28252 2.04857,-0.28252z" data-paper-data="{&quot;index&quot;:null}" fill="url(#color-21)" stroke="#000000"/><path d="M121.40097,103.65843c0,0 0.36393,1.72304 0.46509,2.24155c0.05333,0.27336 0.1352,1.22541 0.02781,1.68952c-0.05277,0.22807 -0.19955,0.3829 -0.26469,0.49714c-0.27763,0.48688 -1.14989,1.08581 -1.14989,1.08581c0,0 0.5546,-1.17573 0.55275,-1.90493c-0.0011,-0.43504 -0.20651,-1.16299 -0.35356,-1.78053c-0.13416,-0.56344 -0.26473,-0.95326 -0.26473,-0.95326z" data-paper-data="{&quot;index&quot;:null}" fill="url(#color-22)" stroke="#000000"/><path d="M120.39789,104.49987c0,0 -0.21798,-0.78704 -0.12893,-1.13437c0.11295,-0.44061 0.67313,-1.19956 0.67313,-1.19956l0.4455,1.39608z" data-paper-data="{&quot;index&quot;:null}" fill="url(#color-23)" stroke="#000000"/><path d="M56.84477,136.12503c0,0 0.48772,0.57181 0.81556,0.8136c0.30109,0.22206 1.07803,0.58297 1.07803,0.58297c0,0 -1.18541,0.44769 -1.85442,0.13983c-0.24681,-0.11357 -0.77911,-0.31257 -1.16193,-0.65089c-0.64046,-0.56602 -1.00299,-1.30864 -1.00299,-1.30864z" data-paper-data="{&quot;index&quot;:null}" fill="url(#color-24)" stroke="#000000"/><path d="M113.64609,89.83756c0,0 -0.20583,-0.35587 -0.53941,-0.82935c-0.36562,-0.51894 -0.77538,-1.1547 -1.10079,-1.44346c-0.54542,-0.484 -1.79387,-0.84637 -1.79387,-0.84637c0,0 1.02629,-0.2575 1.57502,-0.14339c0.12876,0.02678 0.34197,0.01923 0.54787,0.1306c0.419,0.22665 1.07852,0.91812 1.24815,1.13902c0.32175,0.419 1.37257,1.83217 1.37257,1.83217z" data-paper-data="{&quot;index&quot;:null}" fill="url(#color-25)" stroke="#000000"/><path d="M113.66099,89.87185l1.35807,-0.12124l0.75173,1.25794c0,0 -0.9397,-0.08236 -1.34475,-0.28928c-0.31932,-0.16312 -0.76505,-0.84742 -0.76505,-0.84742z" data-paper-data="{&quot;index&quot;:null}" fill="url(#color-26)" stroke="#000000"/><path d="M51.43188,126.86786c0,0 2.155,4.62173 3.12121,6.31174c0.66835,1.16903 2.11936,2.85453 2.11936,2.85453l-1.99771,-0.40191c0,0 -0.49587,-0.5324 -0.81297,-1.12205c-0.35567,-0.66135 -1.22993,-2.21393 -2.0077,-3.75317c-0.84824,-1.6787 -1.58855,-3.32349 -1.58855,-3.32349l-0.09768,-0.21654c0,0 -0.74307,-1.64354 -1.44012,-3.39044c-0.63914,-1.60178 -1.22443,-3.28471 -1.48483,-3.98905c-0.23216,-0.62797 -0.30309,-1.35205 -0.30309,-1.35205l1.02085,-1.7636c0,0 0.30324,2.20326 0.73726,3.478c0.62745,1.84282 2.66591,6.51712 2.66591,6.51712z" data-paper-data="{&quot;index&quot;:null}" fill="url(#color-27)" stroke="none"/><path d="M120.90936,95.6426l-2.30093,-4.79432l1.17133,-0.5284l2.23877,4.65651l-0.03083,-0.06834l2.12394,4.70831l-1.17134,0.5284l-2.18609,-4.84612z" data-paper-data="{&quot;index&quot;:null}" fill="#252525" stroke="#000000"/><path d="M120.94632,95.84707l-2.37345,-4.95509l0.57418,-0.25902l2.14552,4.44981l0.13493,0.29914l2.03069,4.50161l-0.57418,0.25902l-2.25862,-5.0069" data-paper-data="{&quot;index&quot;:null}" fill="url(#color-28)" stroke="none"/><path d="M46.91684,118.40609c0,0 -0.31677,-0.76326 -0.31721,-1.618c-0.00026,-0.5109 0.20285,-1.04164 0.28105,-1.30182c0.21198,-0.70528 1.33213,-1.29763 1.33213,-1.29763c0,0 -0.24365,0.82131 -0.27644,1.19397c-0.03572,0.40578 0.07017,1.14986 0.07017,1.14986z" data-paper-data="{&quot;index&quot;:null}" fill="url(#color-29)" stroke="#000000"/><path d="M89.68251,109.4422c0,0 -2.13175,-4.4361 -2.8511,-5.89591c-0.42214,-0.85667 -1.07146,-2.0643 -1.07146,-2.0643l5.73259,-5.18425c0,0 0.68966,0.16957 1.36297,1.21141c0.41924,0.64871 1.27764,1.91431 2.07998,3.30892c1.38327,2.40439 1.75331,2.95458 2.69374,5.03933c0.94044,2.08475 1.16791,2.85911 2.05487,5.48739c0.51447,1.52447 0.89511,3.00559 1.10395,3.74921c0.3354,1.19426 0.00608,1.8235 0.00608,1.8235l-7.68038,0.86637c0,0 -0.47557,-1.286 -0.83839,-2.16943c-0.61826,-1.50541 -2.53296,-6.03942 -2.53296,-6.03942z" data-paper-data="{&quot;index&quot;:null}" fill="url(#color-30)" stroke="#000000"/><path d="M120.77406,95.64903l2.07212,4.59347l-0.41341,0.18649l-2.35187,-5.2136l0.44526,0.98704l-2.46671,-5.16181l0.41341,-0.18649l2.18697,4.54168z" data-paper-data="{&quot;index&quot;:null}" fill="url(#color-31)" stroke="none"/><path d="M120.82224,95.57201l2.09285,4.63942l-0.82682,0.37298l-2.09285,-4.63941l-0.07278,-0.16134l-2.20768,-4.58761l0.82682,-0.37299l2.20768,4.58761z" data-paper-data="{&quot;index&quot;:null}" fill="none" stroke="#000000"/></g><text transform="translate(72.95395,134.87622) scale(1.60057,1.60056)" font-size="40" xml:space="preserve" fill-opacity="0.54902" fill="#ffffff" fill-rule="nonzero" stroke-opacity="0.97647" stroke="#ffffff" stroke-width="2" stroke-linecap="butt" stroke-linejoin="miter" stroke-miterlimit="10" stroke-dasharray="" stroke-dashoffset="0" font-family="Sans Serif" font-weight="normal" text-anchor="start" style="mix-blend-mode: normal"><tspan x="0" dy="0">?</tspan></text><text transform="translate(144.82969,131.62194) scale(0.30974,0.30974)" font-size="40" xml:space="preserve" fill="#e6e6e6" fill-rule="nonzero" stroke="#e6e6e6" stroke-width="2" stroke-linecap="butt" stroke-linejoin="miter" stroke-miterlimit="10" stroke-dasharray="" stroke-dashoffset="0" font-family="Sans Serif" font-weight="normal" text-anchor="start" style="mix-blend-mode: normal"><tspan x="0" dy="0">解锁：完成故事模式中的所有任务</tspan></text><text transform="translate(144.82969,266.48832) scale(0.30974,0.30974)" font-size="40" xml:space="preserve" fill="#e6e6e6" fill-rule="nonzero" stroke="#e6e6e6" stroke-width="2" stroke-linecap="butt" stroke-linejoin="miter" stroke-miterlimit="10" stroke-dasharray="" stroke-dashoffset="0" font-family="Sans Serif" font-weight="normal" text-anchor="start" style="mix-blend-mode: normal"><tspan x="0" dy="0">解锁：在极端难度下完成 10 个任务</tspan></text><text transform="translate(178.85011,318.58828) scale(0.65241,0.65241)" font-size="40" xml:space="preserve" fill="#fcfcfc" fill-rule="nonzero" stroke="#fcfcfc" stroke-width="2" stroke-linecap="butt" stroke-linejoin="miter" stroke-miterlimit="10" stroke-dasharray="" stroke-dashoffset="0" font-family="Sans Serif" font-weight="normal" text-anchor="start" style="mix-blend-mode: normal"><tspan x="0" dy="0">秘密汽车 #4</tspan></text><text transform="translate(142.4643,333.48367) scale(0.30974,0.30974)" font-size="40" xml:space="preserve" fill="#e6e6e6" fill-rule="nonzero" stroke="#e6e6e6" stroke-width="2" stroke-linecap="butt" stroke-linejoin="miter" stroke-miterlimit="10" stroke-dasharray="" stroke-dashoffset="0" font-family="Sans Serif" font-weight="normal" text-anchor="start" style="mix-blend-mode: normal"><tspan x="0" dy="0">解锁方法：收集商店中的所有汽车</tspan></text><text transform="translate(178.85011,180.39826) scale(0.65241,0.65241)" font-size="40" xml:space="preserve" fill="#fcfcfc" fill-rule="nonzero" stroke="#fcfcfc" stroke-width="2" stroke-linecap="butt" stroke-linejoin="miter" stroke-miterlimit="10" stroke-dasharray="" stroke-dashoffset="0" font-family="Sans Serif" font-weight="normal" text-anchor="start" style="mix-blend-mode: normal"><tspan x="0" dy="0">秘密汽车 #2</tspan></text><text transform="translate(178.85011,114.5951) scale(0.65241,0.65241)" font-size="40" xml:space="preserve" fill="#fcfcfc" fill-rule="nonzero" stroke="#fcfcfc" stroke-width="2" stroke-linecap="butt" stroke-linejoin="miter" stroke-miterlimit="10" stroke-dasharray="" stroke-dashoffset="0" font-family="Sans Serif" font-weight="normal" text-anchor="start" style="mix-blend-mode: normal"><tspan x="0" dy="0">秘密汽车 #1</tspan></text><text transform="translate(72.95395,272.96445) scale(1.60057,1.60056)" font-size="40" xml:space="preserve" fill-opacity="0.54902" fill="#ffffff" fill-rule="nonzero" stroke-opacity="0.97647" stroke="#ffffff" stroke-width="2" stroke-linecap="butt" stroke-linejoin="miter" stroke-miterlimit="10" stroke-dasharray="" stroke-dashoffset="0" font-family="Sans Serif" font-weight="normal" text-anchor="start" style="mix-blend-mode: normal"><tspan x="0" dy="0">?</tspan></text><text transform="translate(178.85011,250.54531) scale(0.65241,0.65241)" font-size="40" xml:space="preserve" fill="#fcfcfc" fill-rule="nonzero" stroke="#fcfcfc" stroke-width="2" stroke-linecap="butt" stroke-linejoin="miter" stroke-miterlimit="10" stroke-dasharray="" stroke-dashoffset="0" font-family="Sans Serif" font-weight="normal" text-anchor="start" style="mix-blend-mode: normal"><tspan x="0" dy="0">秘密汽车 #3</tspan></text><g stroke="#000000" stroke-width="0"><path d="M49.47586,192.91892c0,0 -1.43441,-3.41784 -2.04366,-5.01534c-0.2779,-0.72868 -1.002,-2.61601 -1.41763,-4.30994c-0.21379,-0.87132 -0.34249,-1.6907 -0.39667,-2.299c-0.01886,-0.21174 0.03251,-0.74621 0.24754,-1.07015c0.33022,-0.49746 5.53511,-4.07812 6.25238,-4.50153c1.369,-0.80813 2.78028,-1.57357 4.06881,-2.24188c2.76761,-1.43546 4.96898,-2.42289 4.96898,-2.42289c0,0 1.68554,-0.89482 3.83578,-1.62497c1.55647,-0.5285 3.40843,-0.80598 4.79143,-1.38523c1.18403,-0.49591 6.76603,-3.16887 12.23234,-5.65194c3.31306,-1.50495 6.48325,-2.7845 8.89364,-3.91323c0.88519,-0.41451 3.13429,-1.62064 3.34593,-1.72906c0.70237,-0.35983 0.9768,-0.93672 1.78837,-1.38261c0.98731,-0.54245 8.70205,-3.91526 9.33198,-4.01116c0.53377,-0.08126 0.91415,0.24554 1.64332,0.2968c0.90214,0.06341 2.00493,-0.39714 2.93014,-0.30545c0.42642,0.04226 1.09649,0.10455 1.74885,0.50587c1.52035,0.9353 3.31688,2.76899 4.37702,3.72557c0.39893,0.35996 0.64748,0.16021 0.93215,0.50176c1.10089,1.32091 2.96244,5.34158 2.96244,5.34158l0.098,0.22027c0,0 1.73996,4.07475 1.98397,5.77687c0.0631,0.44012 -0.25168,0.49099 -0.25144,1.02832c0.00069,1.42792 0.15978,3.99007 -0.16347,5.74556c-0.1387,0.75324 -0.54111,1.29267 -0.79523,1.63769c-0.55138,0.7486 -1.63185,1.25933 -2.18878,1.97186c-0.45015,0.57592 -0.4621,1.07727 -0.87984,1.41932c-0.49301,0.40367 -8.16366,3.87558 -9.22763,4.24571c-0.87458,0.30424 -1.48683,0.12183 -2.22437,0.4026c-0.22224,0.08461 -2.624,0.94756 -3.52457,1.32751c-2.45225,1.03459 -5.52527,2.53253 -8.86139,3.98569c-5.50433,2.3976 -11.22719,4.75397 -12.38831,5.30138c-1.35625,0.6394 -2.80233,1.82918 -4.23704,2.63139c-1.98202,1.10824 -3.77523,1.76105 -3.77523,1.76105c0,0 -2.20737,0.97396 -5.12665,2.0685c-1.35916,0.50959 -2.87261,1.04532 -4.38948,1.52106c-0.79474,0.24927 -6.93931,1.71779 -7.5299,1.62999c-0.38459,-0.05718 -0.81595,-0.37689 -0.9606,-0.53267c-0.41555,-0.44753 -0.93799,-1.09175 -1.44202,-1.83394c-0.9799,-1.4429 -1.8969,-3.24441 -2.25206,-3.93872c-0.77863,-1.52214 -2.35684,-4.87601 -2.35684,-4.87601z" data-paper-data="{&quot;index&quot;:null}" fill="#000000" stroke-linecap="round"/><path d="M56.29975,201.56269c0.53795,0.73512 0.84814,1.42743 0.69284,1.54634c-0.15529,0.11891 -0.71728,-0.38064 -1.25522,-1.11575c-0.53795,-0.73512 -0.84814,-1.42743 -0.69284,-1.54634c0.15529,-0.11891 0.71728,0.38064 1.25522,1.11575z" data-paper-data="{&quot;index&quot;:null}" fill="url(#color-32)" stroke-linecap="butt"/><path d="M54.56888,199.1097c0.37304,0.60351 0.58811,1.14613 0.48038,1.21198c-0.10773,0.06585 -0.49746,-0.36999 -0.87049,-0.9735c-0.37304,-0.60351 -0.58812,-1.14614 -0.48039,-1.21199c0.10773,-0.06585 0.49746,0.37 0.8705,0.97351z" data-paper-data="{&quot;index&quot;:null}" fill="url(#color-33)" stroke-linecap="butt"/><path d="M97.1682,185.42001l-14.43657,6.28226l-0.10752,-3.21492c0,0 4.92525,-2.43437 7.28243,-3.0097c1.0361,-0.25289 2.5629,-0.23141 3.84778,-0.26125c1.48965,-0.03459 2.67203,-0.09785 2.67203,-0.09785z" data-paper-data="{&quot;index&quot;:null}" fill="url(#color-34)" stroke-linecap="round"/><path d="M47.61317,183.74291c-0.1923,0.03573 -0.49882,-0.65821 -0.68465,-1.54998c-0.18583,-0.89176 -0.18059,-1.64365 0.01171,-1.67938c0.1923,-0.03573 0.49882,0.65821 0.68465,1.54998c0.18583,0.89176 0.18059,1.64365 -0.01171,1.67938z" data-paper-data="{&quot;index&quot;:null}" fill="url(#color-35)" stroke-linecap="butt"/><path d="M48.28795,184.99158c0.1985,0.68116 0.26127,1.26247 0.14023,1.29839c-0.12104,0.03592 -0.38009,-0.48716 -0.57858,-1.16832c-0.1985,-0.68116 -0.26127,-1.26247 -0.14023,-1.29839c0.12105,-0.03592 0.38008,0.48715 0.57857,1.16831z" data-paper-data="{&quot;index&quot;:null}" fill="url(#color-36)" stroke-linecap="butt"/><path d="M70.02828,183.79991c0,0 2.55634,5.68384 3.02413,6.72394c0.14133,0.31425 -0.56106,1.24437 -1.59294,2.01485c-1.25239,0.93513 -4.48971,3.31842 -5.16862,3.3811c-0.43937,0.04057 -0.96488,-0.25747 -1.22185,-0.40881c-0.51322,-0.30227 -0.95334,-0.89544 -1.34278,-1.34754c-0.32599,-0.37843 -0.83091,-1.01563 -1.27094,-1.70881c-0.96603,-1.52181 -1.89703,-3.32386 -1.89703,-3.32386c0,0 0.50411,-0.29146 0.54805,-0.52693c0.04122,-0.22096 -0.44613,-1.31644 -0.63785,-1.43375c-0.20432,-0.12502 -0.75834,0.05426 -0.75834,0.05426c0,0 -0.71514,-1.89808 -1.19866,-3.63455c-0.22024,-0.79095 -0.35545,-1.59264 -0.41827,-2.08815c-0.07505,-0.59196 -0.22095,-1.31604 -0.10183,-1.89962c0.05965,-0.2922 0.19012,-0.88208 0.51444,-1.18126c0.50113,-0.46229 4.43893,-1.27109 5.97205,-1.57519c1.26319,-0.25056 2.42433,-0.1495 2.56311,0.16589c0.45933,1.04387 2.96944,6.74828 2.96944,6.74828" data-paper-data="{&quot;index&quot;:null}" fill="url(#color-37)" stroke-linecap="round"/><path d="M86.70601,163.26943c0,0 -0.83864,0.83587 -1.86176,1.91916c-0.88246,0.93437 -1.88881,2.08281 -2.77036,2.68305c-2.00559,1.3656 -7.11149,3.39391 -7.11149,3.39391l-2.31593,-2.23244l14.33234,-6.51655z" data-paper-data="{&quot;index&quot;:null}" fill="url(#color-38)" stroke-linecap="round"/><path d="M90.02064,174.96891c0,0 -1.34976,-2.79952 -2.16581,-3.98569c-0.48924,-0.71114 -1.23542,-1.74161 -1.89044,-2.46134c-0.50598,-0.55596 -0.74847,-1.12814 -0.47854,-1.36358c0.65583,-0.57203 3.22023,-3.17743 4.76676,-4.52636c0.61491,-0.53634 1.75998,-1.32494 2.40181,-0.48217c0.63705,0.83649 2.46118,3.03758 3.78848,5.08968c1.27746,1.97504 2.07152,3.81917 2.07152,3.81917l0.03284,0.07384c0,0 0.83807,1.82454 1.44973,4.0958c0.63551,2.35987 1.04904,5.18851 1.2438,6.22176c0.19622,1.04101 -1.1562,1.3635 -1.9663,1.46113c-2.03742,0.24551 -5.68962,0.40578 -6.55361,0.50989c-0.3556,0.04285 -0.61823,-0.52037 -0.6924,-1.26843c-0.09601,-0.96841 -0.3618,-2.21261 -0.56243,-3.05215c-0.33465,-1.40034 -1.51027,-4.27733 -1.51027,-4.27733" data-paper-data="{&quot;index&quot;:null}" fill="url(#color-39)" stroke-linecap="round"/><g data-paper-data="{&quot;index&quot;:null}"><path d="M114.93933,156.38937c-0.65242,-0.40872 -2.74546,-1.71374 -3.7771,-2.28408c-0.73512,-0.40641 -1.97132,-0.96934 -2.53086,-1.21988c-0.18062,-0.08087 -0.20013,-0.23995 -0.14544,-0.30679c0.07088,-0.08664 0.24411,-0.29841 0.24411,-0.29841c0,0 1.6198,-0.2215 2.54534,0.30288c0.62982,0.35683 1.69522,1.27356 2.6418,2.08561c1.00687,0.86377 1.87733,1.61397 1.87733,1.61397c0,0 -0.36319,0.12807 -0.4838,0.17059c-0.07203,0.0254 -0.24492,0.01532 -0.37138,-0.0639z" data-paper-data="{&quot;index&quot;:null}" fill="url(#color-40)" stroke-linecap="round"/><path d="M112.68851,154.96151c0,0 0.44796,-0.29703 0.70934,-0.13865c0.36311,0.22001 1.26626,1.33571 1.26626,1.33571z" fill="url(#color-41)" stroke-linecap="round"/><path d="M110.3012,153.56902l0.81921,-0.30478l1.40857,1.60122z" fill="url(#color-42)" stroke-linecap="round"/><path d="M111.0404,153.55432c-0.22585,-0.24173 0.10492,-0.25811 0.15181,-0.31209c0.0712,-0.08199 0.45857,0.28765 0.93119,0.69811c0.47261,0.41046 0.79801,0.80965 0.72682,0.89164c-0.03564,0.04104 -0.05868,0.18669 -0.2372,0.07878c-0.17809,-0.10765 -1.45547,-1.23106 -1.57261,-1.35643z" fill="url(#color-43)" stroke-linecap="butt"/><path d="M108.54803,152.54256c0,0 0.5371,0.00391 0.78449,0.03996c0.28588,0.04166 0.84686,0.22887 0.84686,0.22887l0.46725,1.00553c0,0 -0.64785,-0.34115 -1.24012,-0.61829c-0.32358,-0.15141 -0.66034,-0.25652 -0.79687,-0.33944c-0.23677,-0.14378 -0.06161,-0.31662 -0.06161,-0.31662z" fill="url(#color-44)" stroke-linecap="round"/><path d="M110.33466,153.51809c0,0 -0.30552,-0.52926 -0.06668,-0.68644c0.1342,-0.08832 0.53902,0.4962 0.53902,0.4962z" fill="url(#color-45)" stroke-linecap="round"/></g><g data-paper-data="{&quot;index&quot;:null}"><path d="M120.44258,168.75947c0.02582,-0.14696 0.13411,-0.28215 0.2012,-0.31864c0.11234,-0.0611 0.45063,-0.24512 0.45063,-0.24512c0,0 -0.0256,1.14884 -0.05818,2.47505c-0.03064,1.2468 -0.06307,2.65194 -0.21973,3.35867c-0.23022,1.03855 -1.47929,2.09337 -1.47929,2.09337c0,0 -0.27328,-0.01313 -0.38509,-0.0185c-0.08625,-0.00413 -0.19136,-0.12514 -0.13049,-0.31344c0.18856,-0.58336 0.59815,-1.87847 0.78849,-2.69661c0.26712,-1.14813 0.6992,-3.57654 0.83246,-4.33479z" data-paper-data="{&quot;index&quot;:null}" fill="url(#color-46)" stroke-linecap="round"/><path d="M120.42973,169.11841c0,0 0.22398,1.41785 0.14428,1.83486c-0.05738,0.30019 -0.57794,0.43404 -0.57794,0.43404z" fill="url(#color-47)" stroke-linecap="round"/><path d="M119.9606,171.57011l0.24621,2.11834l-0.77488,0.4044z" fill="url(#color-48)" stroke-linecap="round"/><path d="M119.98324,171.47738c0.03938,-0.20486 0.16298,-0.12446 0.21733,-0.12345c0.10856,0.00201 0.1872,0.511 0.17563,1.13686c-0.01157,0.62586 0.00362,1.16108 -0.10495,1.15907c-0.07149,-0.00133 -0.30514,0.23339 -0.33346,-0.0962c-0.01469,-0.17094 0.00617,-1.87192 0.04546,-2.07628z" fill="url(#color-49)" stroke-linecap="butt"/><path d="M118.82656,175.82456c0.02984,-0.15694 0.17724,-0.47744 0.28144,-0.81915c0.19071,-0.62548 0.37108,-1.33509 0.37108,-1.33509l0.43403,1.02031c0,0 -0.23658,0.542 -0.39704,0.78224c-0.13886,0.20791 -0.49558,0.60945 -0.49558,0.60945c0,0 -0.24566,0.01438 -0.19392,-0.25776z" fill="url(#color-50)" stroke-linecap="round"/><path d="M119.94972,173.87867c0,0 0.16311,0.69204 0.00764,0.73259c-0.27666,0.07216 -0.4652,-0.50914 -0.4652,-0.50914z" fill="url(#color-51)" stroke-linecap="round"/></g></g><text transform="translate(72.95395,201.8405) scale(1.60057,1.60056)" font-size="40" xml:space="preserve" fill-opacity="0.54902" fill="#ffffff" fill-rule="nonzero" stroke-opacity="0.97647" stroke="#ffffff" stroke-width="2" stroke-linecap="butt" stroke-linejoin="miter" stroke-miterlimit="10" stroke-dasharray="" stroke-dashoffset="0" font-family="Sans Serif" font-weight="normal" text-anchor="start" style="mix-blend-mode: normal"><tspan x="0" dy="0">?</tspan></text><text transform="translate(72.95395,339.51906) scale(1.60057,1.60056)" font-size="40" xml:space="preserve" fill-opacity="0.54902" fill="#ffffff" fill-rule="nonzero" stroke-opacity="0.97647" stroke="#ffffff" stroke-width="2" stroke-linecap="butt" stroke-linejoin="miter" stroke-miterlimit="10" stroke-dasharray="" stroke-dashoffset="0" font-family="Sans Serif" font-weight="normal" text-anchor="start" style="mix-blend-mode: normal"><tspan x="0" dy="0">?</tspan></text><text transform="translate(144.82969,196.41185) scale(0.30974,0.30974)" font-size="40" xml:space="preserve" fill="#e6e6e6" fill-rule="nonzero" stroke="#e6e6e6" stroke-width="2" stroke-linecap="butt" stroke-linejoin="miter" stroke-miterlimit="10" stroke-dasharray="" stroke-dashoffset="0" font-family="Sans Serif" font-weight="normal" text-anchor="start" style="mix-blend-mode: normal"><tspan x="0" dy="0">解锁：精选您的存档</tspan></text></g></g></svg>