<svg version="1.1" xmlns="http://www.w3.org/2000/svg" xmlns:xlink="http://www.w3.org/1999/xlink" width="472.87786" height="360.53869" viewBox="0,0,472.87786,360.53869"><defs><radialGradient cx="246.59352" cy="180.00002" r="134.55879" gradientUnits="userSpaceOnUse" id="color-1"><stop offset="0" stop-color="#f5ad12"/><stop offset="1" stop-color="#f4af1c"/></radialGradient><linearGradient x1="194.10533" y1="119.80705" x2="194.10533" y2="128.11523" gradientUnits="userSpaceOnUse" id="color-2"><stop offset="0" stop-color="#bc7d00"/><stop offset="1" stop-color="#bc7d00" stop-opacity="0"/></linearGradient><linearGradient x1="193.89719" y1="240.56278" x2="193.89719" y2="232.25461" gradientUnits="userSpaceOnUse" id="color-3"><stop offset="0" stop-color="#bc7d00"/><stop offset="1" stop-color="#bc7d00" stop-opacity="0"/></linearGradient><linearGradient x1="282.09187" y1="179.99998" x2="115.40993" y2="179.99998" gradientUnits="userSpaceOnUse" id="color-4"><stop offset="0" stop-color="#171111"/><stop offset="1" stop-color="#292826"/></linearGradient><radialGradient cx="104.41824" cy="177.3699" r="29.77064" gradientUnits="userSpaceOnUse" id="color-5"><stop offset="0" stop-color="#3c3c3c"/><stop offset="1" stop-color="#212121"/></radialGradient><linearGradient x1="331.38041" y1="179.99998" x2="272.51139" y2="179.99998" gradientUnits="userSpaceOnUse" id="color-6"><stop offset="0" stop-color="#343434"/><stop offset="1" stop-color="#2f2c33"/></linearGradient><radialGradient cx="287.93447" cy="180.00001" r="73.48135" gradientUnits="userSpaceOnUse" id="color-7"><stop offset="0" stop-color="#1b1b1b"/><stop offset="1" stop-color="#1b1b1b" stop-opacity="0"/></radialGradient><linearGradient x1="300.07964" y1="203.32251" x2="286.65199" y2="203.32251" gradientUnits="userSpaceOnUse" id="color-8"><stop offset="0" stop-color="#313131"/><stop offset="1" stop-color="#1a1a1a"/></linearGradient><linearGradient x1="297.70839" y1="168.47249" x2="288.40586" y2="168.47249" gradientUnits="userSpaceOnUse" id="color-9"><stop offset="0" stop-color="#313131"/><stop offset="1" stop-color="#1a1a1a"/></linearGradient></defs><g transform="translate(-4.42566,-1.09609)"><g data-paper-data="{&quot;isPaintingLayer&quot;:true}" fill-rule="nonzero" stroke-linejoin="miter" stroke-miterlimit="10" stroke-dasharray="" stroke-dashoffset="0" style="mix-blend-mode: normal"><path d="M108.87241,179.85163c0,0 -0.78976,-41.82129 -0.25289,-53.29517c0.04668,-0.9978 5.6588,-8.71247 6.98296,-8.90239c1.83499,-0.2632 4.40956,-0.38095 6.87209,-0.38044c0.79029,0.00016 2.39256,-0.36643 3.75301,-0.96791c1.06246,-0.46975 2.09386,-1.27365 2.77414,-1.96713c1.14641,-1.16867 -0.14355,-2.46165 1.10214,-3.42433c1.10306,-0.85246 2.63029,-1.44591 3.82418,-1.46471c13.51399,-0.21278 31.23939,-0.30861 51.14846,0.07118c1.24134,0.0237 2.52434,1.90549 4.55133,2.66081c1.59168,0.59314 3.93487,-0.28471 5.10308,0.83628c2.33734,2.2429 3.14674,8.7052 3.14674,8.7052l96.59478,-1.72251c0,0 -0.02544,-3.69104 2.24923,-6.22595c0.894,-0.99628 2.21622,-0.84553 3.63337,-1.68327c1.47064,-0.86936 3.26541,-2.96604 5.44811,-2.98566c14.99515,-0.13478 41.05021,-0.05737 51.67332,-0.01306c4.1454,0.01731 3.90875,8.28292 4.89079,8.28506c2.59185,0.00566 5.53318,0.68986 7.20207,0.78214c2.41199,0.13335 4.15351,0.83799 4.78481,2.72685c1.99217,5.96079 6.36239,19.28394 8.28007,27.07425c0.19351,0.78616 1.80628,1.28368 3.11208,1.5613c0.92703,0.19709 1.52061,1.43409 1.56739,2.65895c0.04158,1.08853 0.14825,3.48632 0.2833,6.43775c0.01184,0.25887 2.06265,0.21297 2.15983,0.43306c0.0989,0.224 0.05908,1.39638 0.07145,1.66459c0.01307,0.28363 -2.13224,0.0568 -2.11883,0.34684c0.37994,8.22066 0.661,18.78831 0.661,18.78831v0.29662c0,0 -0.28107,10.56765 -0.661,18.78831c-0.01341,0.29005 2.1319,0.06322 2.11883,0.34684c-0.01236,0.26821 0.02745,1.44059 -0.07145,1.66459c-0.09718,0.22009 -2.14799,0.17418 -2.15983,0.43306c-0.13505,2.95144 -0.24172,5.34923 -0.2833,6.43776c-0.04678,1.22486 -0.64035,2.46185 -1.56739,2.65894c-1.30581,0.27761 -2.91856,0.77514 -3.11208,1.5613c-1.91768,7.79033 -6.28791,21.11347 -8.28007,27.07425c-0.63128,1.88886 -2.37282,2.5935 -4.78481,2.72685c-1.66889,0.09228 -4.61022,0.77649 -7.20207,0.78214c-0.98204,0.00213 -0.74541,8.26775 -4.89079,8.28506c-10.62311,0.04433 -36.67817,0.12171 -51.67332,-0.01306c-2.1827,-0.01961 -3.97749,-2.11629 -5.44811,-2.98566c-1.41715,-0.83775 -2.73937,-0.68701 -3.63337,-1.68328c-2.27468,-2.53492 -2.24923,-6.22595 -2.24923,-6.22595l-96.59478,-1.72251c0,0 -0.80939,6.4623 -3.14674,8.7052c-1.16821,1.12098 -3.5114,0.24314 -5.10308,0.83628c-2.02699,0.75532 -3.30999,2.63711 -4.55133,2.66081c-19.90907,0.37978 -37.63447,0.28397 -51.14846,0.07119c-1.19391,-0.0188 -2.72113,-0.61226 -3.82418,-1.46472c-1.24567,-0.96268 0.04429,-2.25566 -1.10214,-3.42434c-0.68027,-0.69349 -1.71166,-1.49737 -2.77414,-1.96712c-1.36044,-0.60148 -2.9627,-0.96807 -3.75301,-0.96791c-2.46253,0.00052 -5.0371,-0.11724 -6.87209,-0.38044c-1.32416,-0.18992 -6.93626,-7.90459 -6.98296,-8.90239c-0.53687,-11.47388 0.25289,-53.29518 0.25289,-53.29518" data-paper-data="{&quot;index&quot;:null}" fill="#25242a" stroke="none" stroke-width="0" stroke-linecap="round"/><path d="M126.22759,243.69424c0,0 -0.03168,-4.95614 -0.00078,-5.86692c0.00653,-0.19277 2.67218,-0.73117 7.59447,-0.75756c1.35628,-0.00727 0.84571,8.89881 3.34079,8.90096c1.44752,0.00125 5.65406,2.59729 7.27967,2.62991c5.68471,0.1141 12.10845,0.2644 18.55369,0.28159c6.6207,0.01764 13.26408,-0.77329 18.6697,-1.94427c2.61145,-0.56571 2.64439,-9.13577 4.93467,-9.09699c7.13214,0.12083 11.27783,0.43597 11.27783,0.43597c0,0 -0.80939,6.4623 -3.14674,8.7052c-1.16821,1.12098 -3.5114,0.24314 -5.10308,0.83628c-2.02699,0.75531 -3.30998,2.63713 -4.55132,2.66082c-19.90907,0.37978 -37.63447,0.28395 -51.14846,0.07115c-1.19391,-0.0188 -2.72113,-0.61223 -3.82418,-1.46471c-1.24567,-0.96268 0.04429,-2.25566 -1.10214,-3.42434c-0.68027,-0.69349 -1.71166,-1.49738 -2.77413,-1.96713z" data-paper-data="{&quot;index&quot;:null}" fill="#121212" stroke="none" stroke-width="0" stroke-linecap="round"/><path d="M381.33245,179.67333c0,0 0.00809,-12.09633 -0.12002,-21.12745c-0.05703,-4.02017 -0.2601,-7.43298 -0.29882,-8.901c-0.02954,-1.11986 1.72058,-1.68401 1.72058,-1.68401c0.19351,0.78616 1.21238,1.28368 2.51819,1.5613c0.92703,0.19709 1.58483,30.3295 1.58483,30.3295v0.29664c0,0 -0.6578,30.13241 -1.58483,30.3295c-1.30581,0.27761 -2.32467,0.77514 -2.51819,1.5613c0,0 -1.75012,-0.56415 -1.72058,-1.68401c0.03872,-1.46802 0.24179,-4.88083 0.29882,-8.901c0.12813,-9.03113 0.12002,-21.12745 0.12002,-21.12745z" data-paper-data="{&quot;index&quot;:null}" fill="#090a0c" stroke="none" stroke-width="0" stroke-linecap="round"/><path d="M294.47238,119.10968c0,0 -0.02544,-2.80016 2.24923,-5.33512c0.894,-0.99628 2.21622,-0.84556 3.63337,-1.68328c1.47064,-0.86936 3.26541,-2.96604 5.44811,-2.98566c14.99516,-0.13478 41.05022,-0.05737 51.67333,-0.01306c4.1454,0.01731 3.90875,8.28293 4.89078,8.28506c0,0 1.32667,2.91152 -0.61255,2.94074c-1.64509,0.02479 -3.04683,-1.12578 -5.7806,-1.20444c-1.51232,-0.04351 -0.93258,-5.65568 -2.68003,-5.70011c-2.59071,-0.06589 -6.64737,-1.98301 -9.78093,-2.13661c-10.69244,-0.52415 -21.41049,0.39672 -30.01775,0.29824c-2.43156,-0.02783 -4.2605,0.64661 -5.17969,1.99272c-1.3467,1.97215 -1.25135,4.87539 -2.44047,4.92134c-1.78989,0.06915 -4.78231,0.84054 -6.43747,0.94308c-2.80361,0.17369 -4.96533,-0.32287 -4.96533,-0.32287z" data-paper-data="{&quot;index&quot;:null}" fill="#121212" stroke="none" stroke-width="0" stroke-linecap="round"/><path d="M126.22756,116.30573c1.06246,-0.46975 2.09386,-1.27365 2.77413,-1.96713c1.14641,-1.16867 -0.14355,-2.46165 1.10214,-3.42433c1.10306,-0.85246 2.63029,-1.44589 3.82419,-1.46469c13.51399,-0.21278 31.23939,-0.30864 51.14846,0.07113c1.24134,0.0237 2.52433,1.90552 4.55132,2.66081c1.59168,0.59314 3.93488,-0.28471 5.10308,0.83628c2.33734,2.2429 3.14674,8.7052 3.14674,8.7052c0,0 -4.14569,0.31513 -11.27783,0.43596c-2.29028,0.03879 -2.32322,-8.53128 -4.93467,-9.09699c-5.40562,-1.17099 -12.049,-1.96191 -18.6697,-1.94428c-6.44525,0.01718 -12.86898,0.16748 -18.55369,0.28158c-1.62561,0.03263 -5.83215,2.62867 -7.27967,2.62992c-2.49508,0.00213 -1.98451,8.90823 -3.34079,8.90096c-4.92228,-0.02639 -7.58792,-0.56479 -7.59447,-0.75756c-0.03091,-0.91078 0.00078,-5.86693 0.00078,-5.86693z" data-paper-data="{&quot;index&quot;:null}" fill="#121212" stroke="none" stroke-width="0" stroke-linecap="round"/><path d="M112.1215,179.85172c0,0 0.01041,-34.55989 -0.08676,-45.1091c-0.0107,-1.16115 7.10354,-13.32578 15.23063,-13.29634c10.14428,0.03677 37.95673,-0.79469 71.04502,-1.03616c31.45579,-0.22954 67.59028,-0.99396 98.65948,-1.07747c25.17599,-0.06767 47.10253,0.54119 59.91269,0.42623c2.00169,-0.01796 3.96444,0.6531 5.80397,1.12619c2.60841,0.67082 4.96912,1.39371 6.84196,3.07044c1.91876,1.71781 3.18312,4.25389 4.07686,6.53592c2.57048,6.5633 5.22816,14.66182 6.09243,19.96248c1.49002,9.13835 1.45447,29.39781 1.45447,29.39781v0.29659c0,0 0.03556,20.25945 -1.45447,29.3978c-0.86427,5.30066 -3.52195,13.39918 -6.09243,19.96248c-0.89376,2.28203 -2.1581,4.81812 -4.07686,6.53592c-1.87284,1.67672 -4.23355,2.39963 -6.84196,3.07044c-1.83953,0.47309 -3.80228,1.14415 -5.80397,1.12619c-12.81016,-0.11496 -34.73668,0.49391 -59.91269,0.42623c-31.06922,-0.08351 -67.2037,-0.84792 -98.65948,-1.07747c-33.08828,-0.24146 -60.90073,-1.07291 -71.04502,-1.03616c-8.12709,0.02944 -15.24135,-12.13521 -15.23063,-13.29636c0.09717,-10.54922 0.08676,-45.10908 0.08676,-45.10908z" data-paper-data="{&quot;index&quot;:null}" fill="url(#color-1)" stroke="none" stroke-width="0" stroke-linecap="round"/><path d="M297.07672,179.89079l-0.79989,-40.71442c0,0 12.35847,0.79319 23.6725,1.04037c6.26526,0.13688 14.59034,7.65782 15.11733,12.19407c0.89902,7.73872 0.9359,27.47994 0.9359,27.47994v0.31963c0,0 -0.03688,19.74122 -0.9359,27.47994c-0.52699,4.53625 -8.85207,12.05721 -15.11733,12.19407c-11.31403,0.24718 -23.6725,1.04037 -23.6725,1.04037l0.79989,-40.71439z" data-paper-data="{&quot;index&quot;:null}" fill="#cc9214" stroke="none" stroke-width="0" stroke-linecap="round"/><path d="M112.1215,179.85173c0,0 0.01041,-34.55989 -0.08676,-45.10911c-0.0107,-1.16115 7.10354,-13.32579 15.23063,-13.29635c10.14428,0.03677 37.95673,-0.79467 71.04502,-1.03615c31.45579,-0.22955 67.59027,-0.99397 98.65948,-1.07748c25.176,-0.06767 47.10253,0.54119 59.91269,0.42623c2.00169,-0.01796 3.96444,0.65312 5.80397,1.12619c2.60841,0.67082 4.96912,1.39372 6.84196,3.07043c1.91876,1.71782 3.18312,4.2539 4.07686,6.53592c0.55233,1.41026 1.10867,2.89139 1.65039,4.40043c0,0 -1.8551,-0.72947 -4.09001,-2.71867c-1.09209,-0.97203 -1.77729,-3.31646 -3.73877,-3.61377c-3.14851,-0.47726 -14.64929,-0.32018 -27.48976,-0.26024c-8.87907,0.04146 -24.37628,-0.82618 -37.98106,-0.52597c-0.43498,0.00959 -2.81252,-0.23646 -6.16026,0.52554c-1.53868,0.35023 -2.32785,1.34479 -4.18203,1.80629c-9.59571,2.38828 -23.10661,5.26451 -25.53862,5.32946c-0.98365,0.02627 -0.90062,-1.10629 -1.593,-2.01767c-0.64873,-0.85393 -2.07144,-1.49037 -3.00002,-1.47008c-63.29977,1.38491 -134.48034,1.68306 -141.45092,1.64762c-1.40288,-0.00714 -2.3059,1.47391 -2.30767,3.11822c-0.00664,6.11282 -0.04698,43.25619 -0.04698,43.25619v0.0625c0,0 0.04034,37.14337 0.04698,43.25619c0.00177,1.64431 0.90479,3.12536 2.30767,3.11822c6.97057,-0.03546 78.15114,0.2627 141.45092,1.64762c0.92858,0.02029 2.35128,-0.61615 3.00002,-1.47008c0.69238,-0.91137 0.60935,-2.04394 1.593,-2.01767c2.43201,0.06495 15.94292,2.94116 25.53862,5.32945c1.8542,0.4615 2.64335,1.45605 4.18203,1.80628c3.34773,0.762 5.72526,0.51595 6.16026,0.52555c13.60476,0.30021 29.10199,-0.56743 37.98107,-0.52597c12.84045,0.05994 24.34123,0.21702 27.48976,-0.26024c1.96148,-0.29731 2.64668,-2.64174 3.73877,-3.61377c2.23492,-1.9892 4.09001,-2.71867 4.09001,-2.71867c-0.54172,1.50904 -1.09806,2.99017 -1.65039,4.40042c-0.89375,2.28203 -2.1581,4.81812 -4.07686,6.53592c-1.87284,1.67672 -4.23355,2.39963 -6.84196,3.07044c-1.83953,0.47307 -3.80228,1.14415 -5.80397,1.12619c-12.81016,-0.11496 -34.73668,0.49391 -59.91269,0.42623c-31.06922,-0.08351 -67.20369,-0.84792 -98.65948,-1.07747c-33.08828,-0.24146 -60.90073,-1.07291 -71.04502,-1.03616c-8.12709,0.02944 -15.24135,-12.1352 -15.23063,-13.29634c0.09717,-10.54922 0.08676,-45.1091 0.08676,-45.1091z" data-paper-data="{&quot;index&quot;:null}" fill="#eeb43e" stroke="none" stroke-width="0" stroke-linecap="round"/><path d="M332.80575,134.89923c-46.61039,0.39065 -216.41223,-6.18415 -216.41223,-6.18415c0,0 2.23852,-3.34726 3.92005,-4.46511c1.87955,-1.24949 6.82951,-2.68103 6.82951,-2.68103c0,0 112.77806,-2.09051 155.41035,-2.22337c30.50198,-0.09507 75.11765,0.44646 75.11765,0.44646c0,0 8.12176,1.16209 11.02026,3.17059c2.69097,1.86469 5.79445,8.67676 5.79445,8.67676c0,0 -17.00337,3.05303 -41.68002,3.25987z" data-paper-data="{&quot;index&quot;:null}" fill="url(#color-2)" stroke="none" stroke-width="0" stroke-linecap="butt"/><path d="M374.27765,228.73048c0,0 -2.51649,5.83371 -5.20745,7.6984c-2.89851,2.00851 -11.60725,3.95327 -11.60725,3.95327c0,0 -44.61567,0.73718 -75.11765,0.64213c-42.6323,-0.13286 -155.41035,-2.22337 -155.41035,-2.22337c0,0 -4.94995,-1.43153 -6.8295,-2.68104c-1.68152,-1.11785 -3.92005,-4.46512 -3.92005,-4.46512c0,0 169.80185,-6.57482 216.41222,-6.18416c24.67665,0.20683 41.68003,3.25986 41.68003,3.25986z" data-paper-data="{&quot;index&quot;:null}" fill="url(#color-3)" stroke="none" stroke-width="0" stroke-linecap="butt"/><path d="M115.44228,179.85171c0,0 0.17583,-34.01363 -0.03098,-42.52661c-0.08875,-3.65309 4.20775,-7.86929 8.66183,-7.90801c13.70744,-0.11915 83.83806,-0.72868 83.83806,-0.72868c0,0 1.46852,-3.26694 5.00986,-3.31532c10.10646,-0.13799 60.56387,-0.00439 68.71022,0.01826c0.72177,0.002 0.57998,0.16616 -0.3178,0.44157c-4.43584,1.36073 -17.81579,5.46514 -20.23476,6.20717c-0.73346,0.225 -1.37115,1.1586 -1.32541,2.29171c0.05631,1.39478 -0.20963,3.3912 0.02693,5.35725c0.43912,3.64924 1.65967,8.19478 1.90376,11.64511c0.59054,8.34769 0.96797,28.51753 0.96797,28.51753v0.29663c0,0 -0.37743,20.16985 -0.96797,28.51753c-0.24408,3.45032 -1.46464,7.99588 -1.90376,11.64511c-0.23657,1.96604 0.02938,3.96249 -0.02693,5.35727c-0.04575,1.13309 0.59195,2.06669 1.32541,2.2917c2.41899,0.74203 15.79893,4.84644 20.23476,6.20717c0.89778,0.27541 1.03957,0.43955 0.3178,0.44156c-8.14635,0.02266 -58.60376,0.15626 -68.71022,0.01826c-3.54134,-0.04835 -5.00986,-3.31531 -5.00986,-3.31531c0,0 -70.13063,-0.60954 -83.83806,-0.72868c-4.45408,-0.03871 -8.75058,-4.25492 -8.66183,-7.90801c0.20681,-8.51297 0.03098,-42.52661 0.03098,-42.52661z" data-paper-data="{&quot;index&quot;:null}" fill="url(#color-4)" stroke="none" stroke-width="0" stroke-linecap="round"/><path d="M120.52001,179.85171c0,0 -0.0673,-32.76855 -0.08174,-39.80135c-0.00521,-2.53624 2.78144,-5.20326 6.17293,-5.23597c14.46635,-0.13954 114.8428,-1.10781 130.96048,-1.2633c1.41595,-0.01365 2.10082,1.59491 2.09615,3.29084c-0.00286,1.03588 0.02269,2.10161 0.1124,2.84712c0.43912,3.64924 0.59067,8.19478 0.83475,11.64509c0.59054,8.34769 0.96798,28.51753 0.96798,28.51753v0.29664c0,0 -0.37744,20.16984 -0.96798,28.51752c-0.24408,3.45031 -0.39564,7.99587 -0.83475,11.6451c-0.08972,0.74552 -0.11526,1.81124 -0.1124,2.84712c0.00466,1.69592 -0.6802,3.3045 -2.09615,3.29083c-16.11768,-0.15549 -116.49412,-1.12376 -130.96047,-1.2633c-3.39149,-0.03271 -6.17814,-2.69974 -6.17293,-5.23597c0.01445,-7.03279 0.08174,-39.80134 0.08174,-39.80134z" data-paper-data="{&quot;index&quot;:null}" fill="#333333" stroke="none" stroke-width="0" stroke-linecap="round"/><path d="M108.87241,179.85167c0,0 -0.69838,-16.7257 -0.33523,-28.2617c0.02302,-0.73154 0.53261,-1.86486 1.07834,-1.36692c0.74522,0.67995 1.66841,1.80062 1.86599,3.2978c0.7064,5.3527 1.14667,26.31775 1.14667,26.31775v0.3228c0,0 -0.44027,20.96507 -1.14667,26.31775c-0.19759,1.49718 -1.12077,2.61785 -1.86599,3.2978c-0.54572,0.49792 -1.05531,-0.63538 -1.07834,-1.36692c-0.36315,-11.53599 0.33523,-28.2617 0.33523,-28.2617z" data-paper-data="{&quot;index&quot;:null}" fill="#121212" stroke="none" stroke-width="0" stroke-linecap="round"/><path d="M372.92004,129.35836l1.00218,1.50327c0,0 -13.41153,0 -18.37338,0c-0.37714,0 -0.77623,1.01675 -1.18768,1.04264c-2.18484,0.13746 -4.71791,0.14783 -6.16174,0.13951c-0.72001,-0.00414 -1.16913,-0.87896 -1.16913,-1.34919c0,-0.52575 0.51981,-1.67891 1.33783,-1.68752c1.5066,-0.01588 4.02473,-0.03178 6.16994,0.00597c0.4094,0.0072 0.80521,0.34531 1.17783,0.34531c4.76425,0 17.20416,0 17.20416,0z" data-paper-data="{&quot;index&quot;:null}" fill="#3c3b39" stroke="none" stroke-width="0" stroke-linecap="butt"/><path d="M90.34314,179.85171c0,0 -0.13961,-20.96784 -0.17134,-25.73526c-0.01221,-1.8345 2.197,-3.82047 3.98282,-3.82841c2.47191,-0.01096 9.22711,-0.04094 13.21372,-0.05864c1.81634,-0.00806 3.08313,1.49193 3.10816,2.99158c0.07457,4.46428 0.44481,26.63071 0.44481,26.63071v0.29663c0,0 -0.37024,22.16644 -0.44481,26.63072c-0.02505,1.49965 -1.29183,2.99963 -3.10816,2.99157c-3.98661,-0.0177 -10.74181,-0.04767 -13.21372,-0.05863c-1.78581,-0.00794 -3.99503,-1.99391 -3.98282,-3.82841c0.03173,-4.76743 0.17134,-25.73526 0.17134,-25.73526" data-paper-data="{&quot;index&quot;:null}" fill="url(#color-5)" stroke="none" stroke-width="0" stroke-linecap="round"/><path d="M90.34312,179.85168c0,0 -0.13961,-20.96784 -0.17136,-25.73526c-0.01221,-1.83449 2.19703,-3.82047 3.98283,-3.8284c2.4719,-0.01096 9.22709,-0.04094 13.21371,-0.05863c1.81634,-0.00806 3.08312,1.49191 3.10816,2.99158c0.07457,4.46428 0.44481,26.63072 0.44481,26.63072l-1.87575,-0.04875c0,0 -0.51973,-11.64343 -0.69085,-15.47687c-0.07179,-1.60808 -2.54842,-5.40679 -4.25023,-5.40523c-1.82573,0.00167 -6.03087,0.00553 -9.01955,0.00826c-1.89516,0.00172 -3.28051,2.37841 -3.26403,4.26871c0.03265,3.74749 0.14605,16.54254 0.14605,16.54254v0.51928c0,0 -0.11341,12.79506 -0.14605,16.54254c-0.01647,1.8903 1.36887,4.26698 3.26403,4.2687c2.98868,0.00274 7.19382,0.00659 9.01955,0.00826c1.7018,0.00156 4.17844,-3.79712 4.25023,-5.40523c0.17112,-3.83344 0.60178,-15.92228 0.60178,-15.92228l1.96484,0.04033c0,0 -0.37024,22.52277 -0.44481,26.98705c-0.02506,1.49967 -1.29183,2.99964 -3.10817,2.99158c-3.98663,-0.0177 -10.74181,-0.04767 -13.21371,-0.05863c-1.7858,-0.00792 -3.99504,-1.99391 -3.98283,-3.8284c0.03175,-4.76743 0.17136,-25.73526 0.17136,-25.73526z" data-paper-data="{&quot;index&quot;:null}" fill="#0f0f0f" stroke="none" stroke-width="0" stroke-linecap="round"/><path d="M259.26959,142.89118c0,0 -48.98782,0 -54.58562,0c-1.01763,0 -2.22603,-0.59094 -2.44385,-0.89588c-0.22722,-0.31809 -0.69633,-0.97487 -0.69633,-0.97487c0,0 47.5459,0 54.58562,0c1.68847,0 3.14017,1.87075 3.14017,1.87075z" data-paper-data="{&quot;index&quot;:null}" fill="#141414" stroke="none" stroke-width="0" stroke-linecap="butt"/><path d="M249.78309,150.28058v11.89257c0,0 -37.47051,0 -41.69085,0c-0.75556,0 -1.33625,-0.45279 -1.33625,-0.93537c0,-1.28295 0,-7.18384 0,-9.75459c0,-0.73885 0.51711,-1.20263 1.20262,-1.20263c4.04261,0 41.82448,0 41.82448,0z" data-paper-data="{&quot;index&quot;:null}" fill="#333333" stroke="#202020" stroke-width="0.5" stroke-linecap="butt"/><path d="M260.47305,175.80285v3.74148h-10.15546v-3.74148z" data-paper-data="{&quot;index&quot;:null}" fill="#dadada" stroke="none" stroke-width="0" stroke-linecap="butt"/><path d="M260.47305,171.126v3.74148h-10.15546v-3.74148z" data-paper-data="{&quot;index&quot;:null}" fill="#dadada" stroke="none" stroke-width="0" stroke-linecap="butt"/><path d="M260.47305,166.58275v3.7415h-10.15546v-3.7415z" data-paper-data="{&quot;index&quot;:null}" fill="#dadada" stroke="none" stroke-width="0" stroke-linecap="butt"/><path d="M260.47305,162.0395v3.74148h-10.15546v-3.74148z" data-paper-data="{&quot;index&quot;:null}" fill="#dadada" stroke="none" stroke-width="0" stroke-linecap="butt"/><path d="M260.47305,157.36267v3.74149h-10.15546v-3.74149z" data-paper-data="{&quot;index&quot;:null}" fill="#dadada" stroke="none" stroke-width="0" stroke-linecap="butt"/><path d="M260.33942,152.68579l0.13362,3.74149h-10.15547v-3.74149z" data-paper-data="{&quot;index&quot;:null}" fill="#dadada" stroke="none" stroke-width="0" stroke-linecap="butt"/><path d="M260.2058,148.67708l0.13362,3.34062h-10.02184v-3.34062z" data-paper-data="{&quot;index&quot;:null}" fill="#dadada" stroke="none" stroke-width="0" stroke-linecap="butt"/><path d="M259.80493,144.66833l0.26724,3.34062h-9.7546v-3.34062z" data-paper-data="{&quot;index&quot;:null}" fill="#dadada" stroke="none" stroke-width="0" stroke-linecap="butt"/><path d="M134.8401,143.2836h-7.34935" data-paper-data="{&quot;index&quot;:null}" fill="none" stroke="#1a1a1a" stroke-width="0.5" stroke-linecap="round"/><path d="M267.80924,141.71968c0,0 0.2344,1.72775 0.3367,2.52329c0.08562,0.66603 0.14053,1.8354 0.14053,1.8354h-7.28572c0,0 -0.44374,-1.17999 -0.58711,-1.84901c-0.17017,-0.79413 -0.36735,-2.60514 -0.36735,-2.60514z" data-paper-data="{&quot;index&quot;:null}" fill="#1b1b1b" stroke="none" stroke-width="0" stroke-linecap="butt"/><path d="M118.92765,125.5591c0,0 -2.04758,1.98674 -3.04115,3.16692c-0.95482,1.13415 -2.80864,3.78156 -2.80864,3.78156c0,0 -0.91261,0 -1.33625,0c-0.38414,0 -1.09868,-0.37905 -1.09868,-0.95021c0,-1.474 0,-4.22753 0,-5.04804c0,-0.45313 0.57213,-0.95021 1.09868,-0.95021c1.34667,0 7.18603,0 7.18603,0z" data-paper-data="{&quot;index&quot;:null}" fill="#9b9d9c" stroke="none" stroke-width="0" stroke-linecap="butt"/><path d="M294.47242,240.89029c0,0 2.16172,-0.49656 4.96533,-0.32288c1.65516,0.10254 4.64758,0.87393 6.43748,0.94308c1.18912,0.04594 1.09377,2.94918 2.44047,4.92134c0.91919,1.3461 2.74813,2.02054 5.17969,1.99271c8.60726,-0.09849 19.32529,0.82239 30.01775,0.29824c3.13356,-0.15361 7.19022,-2.07072 9.78093,-2.13661c1.74745,-0.04445 1.1677,-5.6566 2.68003,-5.70011c2.73379,-0.07864 4.13552,-1.22922 5.78061,-1.20444c1.93922,0.0292 0.61255,2.94073 0.61255,2.94073c-0.98204,0.00213 -0.7454,8.26775 -4.89078,8.28506c-10.62311,0.04433 -36.67817,0.12171 -51.67333,-0.01306c-2.1827,-0.01961 -3.97749,-2.11629 -5.44811,-2.98566c-1.41715,-0.83773 -2.73937,-0.68702 -3.63337,-1.68327c-2.27468,-2.53494 -2.24923,-5.33512 -2.24923,-5.33512z" data-paper-data="{&quot;index&quot;:null}" fill="#121212" stroke="none" stroke-width="0" stroke-linecap="round"/><path d="M372.92006,230.64162c0,0 -12.43991,0 -17.20416,0c-0.37261,0 -0.76843,0.33811 -1.17783,0.3453c-2.14521,0.03775 -4.66334,0.02186 -6.16994,0.00598c-0.81801,-0.00862 -1.33783,-1.16179 -1.33783,-1.68753c0,-0.47024 0.44913,-1.34506 1.16913,-1.34919c1.44383,-0.00832 3.97689,0.00205 6.16174,0.13951c0.41145,0.02589 0.81054,1.04265 1.18768,1.04265c4.96184,0 18.37338,0 18.37338,0l-1.00218,1.50328z" data-paper-data="{&quot;index&quot;:null}" fill="#3c3b39" stroke="none" stroke-width="0" stroke-linecap="butt"/><path d="M256.12942,218.97955c-7.03974,0 -54.58562,0 -54.58562,0c0,0 0.46911,-0.65678 0.69633,-0.97487c0.21782,-0.30494 1.42622,-0.89587 2.44385,-0.89587c5.59779,0 54.58562,0 54.58562,0c0,0 -1.45171,1.87075 -3.14017,1.87075z" data-paper-data="{&quot;index&quot;:null}" fill="#141414" stroke="none" stroke-width="0" stroke-linecap="butt"/><path d="M207.02241,179.85167c0,0 0.02129,-4.07976 0.02671,-5.11838c0.00237,-0.45445 0.44514,-0.97908 1.0432,-0.97792c3.80522,0.00753 41.62313,0.08318 41.62313,0.08318v5.97304v0.37683v5.97303c0,0 -37.81791,0.07564 -41.62313,0.08319c-0.59806,0.00118 -1.04084,-0.52346 -1.0432,-0.97792c-0.00543,-1.03862 -0.02671,-5.11837 -0.02671,-5.11837z" data-paper-data="{&quot;index&quot;:null}" fill="#333333" stroke="#232323" stroke-width="0.5" stroke-linecap="round"/><path d="M207.95861,209.71941c-0.68552,0 -1.20262,-0.46377 -1.20262,-1.20263c0,-2.57075 0,-8.47163 0,-9.75459c0,-0.48259 0.58068,-0.93537 1.33625,-0.93537c4.22035,0 41.69086,0 41.69086,0v11.89258c0,0 -37.78187,0 -41.82448,0z" data-paper-data="{&quot;index&quot;:null}" fill="#333333" stroke="#202020" stroke-width="0.5" stroke-linecap="butt"/><path d="M250.31758,184.19713v-3.74149h10.15547v3.74149z" data-paper-data="{&quot;index&quot;:null}" fill="#dadada" stroke="none" stroke-width="0" stroke-linecap="butt"/><path d="M250.31758,188.87399v-3.74149h10.15547v3.74149z" data-paper-data="{&quot;index&quot;:null}" fill="#dadada" stroke="none" stroke-width="0" stroke-linecap="butt"/><path d="M250.31758,193.41723v-3.74148h10.15547v3.74148z" data-paper-data="{&quot;index&quot;:null}" fill="#dadada" stroke="none" stroke-width="0" stroke-linecap="butt"/><path d="M250.31758,197.96046v-3.74148h10.15547v3.74148z" data-paper-data="{&quot;index&quot;:null}" fill="#dadada" stroke="none" stroke-width="0" stroke-linecap="butt"/><path d="M250.31758,202.63731v-3.74149h10.15547v3.74149z" data-paper-data="{&quot;index&quot;:null}" fill="#dadada" stroke="none" stroke-width="0" stroke-linecap="butt"/><path d="M250.31758,207.31418v-3.74149h10.15547l-0.13362,3.74149z" data-paper-data="{&quot;index&quot;:null}" fill="#dadada" stroke="none" stroke-width="0" stroke-linecap="butt"/><path d="M250.31758,211.32291v-3.34062h10.02184l-0.13362,3.34062z" data-paper-data="{&quot;index&quot;:null}" fill="#dadada" stroke="none" stroke-width="0" stroke-linecap="butt"/><path d="M250.31758,215.33165v-3.34062h9.7546l-0.26724,3.34062z" data-paper-data="{&quot;index&quot;:null}" fill="#dadada" stroke="none" stroke-width="0" stroke-linecap="butt"/><path d="M180.82212,179.85171l-0.19741,-37.9008l4.85703,-0.01178l0.16908,37.91254v0.29665l-0.16908,37.91254l-4.85703,-0.01178l0.19741,-37.90078z" data-paper-data="{&quot;index&quot;:null}" fill="#252525" stroke="none" stroke-width="0" stroke-linecap="round"/><path d="M167.19243,179.85171l-0.19741,-37.9008l4.85704,-0.01178l0.16907,37.91255v0.29662l-0.16907,37.91254l-4.85704,-0.01178l0.19741,-37.90078z" data-paper-data="{&quot;index&quot;:null}" fill="#252525" stroke="none" stroke-width="0" stroke-linecap="round"/><path d="M153.56271,179.85171l-0.19741,-37.9008l4.85704,-0.01178l0.16908,37.91255v0.29662l-0.16908,37.91254l-4.85704,-0.01178l0.19741,-37.90078z" data-paper-data="{&quot;index&quot;:null}" fill="#252525" stroke="none" stroke-width="0" stroke-linecap="round"/><path d="M138.59676,179.85171c0,0 -0.14006,-26.89107 -0.17193,-33.00813c-0.00492,-0.94666 -0.02697,-3.26096 0.90738,-4.09222c1.39007,-1.23669 3.92416,-0.81221 3.92416,-0.81221l0.16908,37.91254v0.29661l-0.16908,37.91254c0,0 -2.53409,0.42448 -3.92416,-0.81221c-0.93435,-0.83125 -0.91231,-3.14556 -0.90738,-4.09222c0.03186,-6.11705 0.17193,-33.00812 0.17193,-33.00812z" data-paper-data="{&quot;index&quot;:null}" fill="#252525" stroke="none" stroke-width="0" stroke-linecap="round"/><path d="M195.74875,179.85171l0.16908,-37.91257c0,0 2.53409,-0.42448 3.92416,0.81221c0.93435,0.83125 0.91232,3.14556 0.9074,4.09223c-0.03186,6.11705 -0.17193,33.00811 -0.17193,33.00811v0.29659c0,0 0.14006,26.89106 0.17193,33.0081c0.00492,0.94668 0.02695,3.26098 -0.9074,4.09223c-1.39007,1.23669 -3.92416,0.81221 -3.92416,0.81221l-0.16908,-37.91255z" data-paper-data="{&quot;index&quot;:null}" fill="#252525" stroke="none" stroke-width="0" stroke-linecap="round"/><path d="M190.66983,217.62054v-37.28125v-0.67861v-37.28125" data-paper-data="{&quot;index&quot;:null}" fill="none" stroke="#1a1a1a" stroke-width="0.5" stroke-linecap="round"/><path d="M176.372,217.62056v-37.28125v-0.67863v-37.28125" data-paper-data="{&quot;index&quot;:null}" fill="none" stroke="#1a1a1a" stroke-width="0.5" stroke-linecap="round"/><path d="M162.60867,217.62056v-37.28125v-0.67863v-37.28125" data-paper-data="{&quot;index&quot;:null}" fill="none" stroke="#1a1a1a" stroke-width="0.5" stroke-linecap="round"/><path d="M148.31084,142.37943v37.28125v0.67863v37.28125" data-paper-data="{&quot;index&quot;:null}" fill="none" stroke="#1a1a1a" stroke-width="0.5" stroke-linecap="round"/><path d="M202.3205,179.85171c0,0 0.08979,-30.85176 0.10037,-34.4893c0.00198,-0.6836 0.57309,-1.10423 1.23083,-0.91758c0.8978,0.25477 1.95991,-0.39422 1.96213,1.06622c0.0197,3.73856 0.1809,34.34068 0.1809,34.34068v0.29659c0,0 -0.16119,30.60212 -0.1809,34.34068c-0.00221,1.46044 -1.06433,0.81143 -1.96213,1.0662c-0.65774,0.18665 -1.22884,-0.23396 -1.23083,-0.91756c-0.01059,-3.63754 -0.10037,-34.4893 -0.10037,-34.4893z" data-paper-data="{&quot;index&quot;:null}" fill="#282828" stroke="none" stroke-width="0" stroke-linecap="round"/><path d="M134.8401,216.71636h-7.34935" data-paper-data="{&quot;index&quot;:null}" fill="none" stroke="#202020" stroke-width="0.5" stroke-linecap="round"/><path d="M139.96237,220.27967c0,0 -2.13478,-0.35574 -3.70607,-1.45096c-0.915,-0.63778 -1.63892,-1.8207 -1.63892,-2.55777c0,-5.98988 0,-35.85592 0,-35.85592v-0.83005c0,0 0,-29.86604 0,-35.85591c0,-0.73708 0.72392,-1.91999 1.63892,-2.55777c1.57129,-1.09522 3.70607,-1.45096 3.70607,-1.45096" data-paper-data="{&quot;index&quot;:null}" fill="none" stroke="#1a1a1a" stroke-width="0.5" stroke-linecap="round"/><path d="M260.0463,218.37575c0,0 0.19718,-1.81101 0.36735,-2.60514c0.14337,-0.66905 0.58711,-1.84901 0.58711,-1.84901h7.28572c0,0 -0.05491,1.16937 -0.14053,1.8354c-0.10228,0.79555 -0.3367,2.5233 -0.3367,2.5233z" data-paper-data="{&quot;index&quot;:null}" fill="#1b1b1b" stroke="none" stroke-width="0" stroke-linecap="butt"/><path d="M111.74162,234.44088c-0.52657,0 -1.09869,-0.4971 -1.09869,-0.95021c0,-0.82053 0,-3.57404 0,-5.04804c0,-0.57118 0.71455,-0.95021 1.09869,-0.95021c0.42364,0 1.33625,0 1.33625,0c0,0 1.85379,2.64739 2.80863,3.78154c0.99357,1.18017 3.04115,3.16692 3.04115,3.16692c0,0 -5.83936,0 -7.18601,0z" data-paper-data="{&quot;index&quot;:null}" fill="#9b9d9c" stroke="none" stroke-width="0" stroke-linecap="butt"/><path d="M273.25376,179.85171l-0.74236,-37.7861c0,0 33.47013,0.73613 43.97041,0.96554c5.81464,0.12704 13.54095,7.10704 14.03004,11.31703c0.83436,7.18213 0.86859,25.50349 0.86859,25.50349v0.29664c0,0 -0.03423,18.32136 -0.86859,25.50349c-0.48908,4.20999 -8.2154,11.19001 -14.03004,11.31703c-10.50028,0.22941 -43.97041,0.96554 -43.97041,0.96554l0.74236,-37.78607z" data-paper-data="{&quot;index&quot;:null}" fill="url(#color-6)" stroke="none" stroke-width="0" stroke-linecap="round"/><path d="M270.11266,179.85171c0,0 -0.24379,-17.11345 -0.73669,-24.9316c-0.43775,-6.94357 -2.07498,-19.66558 -2.07498,-19.66558l23.51138,-4.84274l7.29915,12.23809l0.78611,37.20184v0.29659l-0.78611,37.20182l-7.29915,12.2381l-23.51138,-4.84273c0,0 1.63723,-12.72202 2.07498,-19.66558c0.4929,-7.81815 0.73669,-24.9316 0.73669,-24.9316z" data-paper-data="{&quot;index&quot;:null}" fill="#090502" stroke="none" stroke-width="0" stroke-linecap="round"/><path d="M292.60613,179.8517c0,0 -0.55217,-37.71884 -2.87993,-43.81312c-0.58601,-1.76829 -4.27011,-11.53007 -5.17115,-12.56508c-0.90789,-1.0429 -2.68193,0.57603 -3.55668,-0.46714c-0.859,-1.02441 -1.48914,-1.70474 -2.13435,-2.68922c-4.35454,-6.64426 -6.74356,-11.42004 -5.90069,-12.08817c0.28647,-0.22709 5.15782,-2.91056 6.73971,-1.06764c1.7937,2.08969 4.45083,6.06079 7.23465,10.11283c5.4433,7.92311 11.13894,17.19025 12.27453,19.72942c3.83738,8.58023 3.86118,42.84814 3.86118,42.84814v0.29658c0,0 -0.02379,34.2679 -3.86118,42.84813c-1.1356,2.53916 -6.83123,11.80632 -12.27453,19.72942c-2.78382,4.05203 -5.44094,8.02314 -7.23465,10.11283c-1.58189,1.84293 -6.45324,-0.84055 -6.73971,-1.06763c-0.84287,-0.66813 1.54615,-5.44391 5.90069,-12.08817c0.64521,-0.98448 1.27534,-1.66482 2.13435,-2.68922c0.87475,-1.04317 2.6488,0.57576 3.55668,-0.46714c0.90104,-1.03503 4.58514,-10.79679 5.17115,-12.56508c2.32777,-6.09429 2.87993,-43.81312 2.87993,-43.81312z" data-paper-data="{&quot;index&quot;:null}" fill="#333333" stroke="url(#color-7)" stroke-width="0" stroke-linecap="round"/><path d="M299.69142,187.14613c0.74494,0.81264 0.40786,2.95742 -0.92528,5.48394c-1.50144,2.84551 -6.18582,8.43558 -8.20434,13.98586c-1.70936,4.70018 -2.63806,9.4985 -3.39979,12.17006c-0.45657,1.60124 -0.64486,1.2455 -0.40619,-0.87317c0.32683,-2.90105 1.26613,-7.29479 2.61607,-11.82963c1.4196,-4.76888 4.33285,-9.44097 5.73413,-13.42627c0.33263,-0.94599 -0.00739,-2.36092 0.31273,-3.15636c1.38928,-3.45234 4.02639,-2.62307 4.27267,-2.35441z" data-paper-data="{&quot;index&quot;:null}" fill="url(#color-8)" stroke="none" stroke-width="0" stroke-linecap="butt"/><path d="M297.56842,146.24969c-1.16192,3.14296 -3.04523,8.12914 -4.30164,12.69958c-0.5925,2.15537 -1.04559,4.21824 -1.21784,5.95175c-0.83067,8.35953 -1.7299,24.16905 -1.91977,27.80304c-0.02378,0.45515 -0.49117,1.68384 -0.74911,1.68384c-0.30635,0 -0.99482,-0.46904 -0.97373,-1.30839c0.12525,-4.98213 0.6225,-23.01092 1.49548,-33.43399c0.15194,-1.81415 0.79788,-3.06845 1.04066,-4.64072c0.92098,-5.9644 2.00478,-10.54063 3.79832,-12.12984c1.41222,-1.25133 3.53332,1.46579 2.82763,3.37471z" data-paper-data="{&quot;index&quot;:null}" fill="url(#color-9)" stroke="none" stroke-width="0" stroke-linecap="butt"/><path d="M296.31504,131.44372l-1.40623,-1.75003l52.15025,-0.11719l-0.11718,1.86722z" fill="#f5c46a" stroke="none" stroke-width="0" stroke-linecap="butt"/><path d="M347.07512,228.55821l0.11718,1.86721l-52.15025,-0.11719l1.40623,-1.75002z" data-paper-data="{&quot;index&quot;:null}" fill="#f5c46a" stroke="none" stroke-width="0" stroke-linecap="butt"/><path d="M4.42566,361.63478v-360.53868h472.87786v360.53869z" fill="none" stroke="none" stroke-width="0" stroke-linecap="butt"/></g></g></svg>