<svg version="1.1" xmlns="http://www.w3.org/2000/svg" xmlns:xlink="http://www.w3.org/1999/xlink" width="287.33333" height="144.66667" viewBox="0,0,287.33333,144.66667"><defs><radialGradient cx="338.12803" cy="167.85965" r="13.82455" gradientUnits="userSpaceOnUse" id="color-1"><stop offset="0" stop-color="#f07070"/><stop offset="1" stop-color="#cf5555"/></radialGradient><radialGradient cx="338.12803" cy="167.85965" r="11.92469" gradientUnits="userSpaceOnUse" id="color-2"><stop offset="0" stop-color="#ff9d9d"/><stop offset="1" stop-color="#ff9d9d" stop-opacity="0"/></radialGradient><radialGradient cx="338.12803" cy="167.85965" r="11.92469" gradientUnits="userSpaceOnUse" id="color-3"><stop offset="0" stop-color="#ff9d9d"/><stop offset="1" stop-color="#ff9d9d" stop-opacity="0"/></radialGradient><radialGradient cx="282.13849" cy="167.43697" r="13.58909" gradientUnits="userSpaceOnUse" id="color-4"><stop offset="0" stop-color="#f7f7f7"/><stop offset="1" stop-color="#cecece"/></radialGradient><radialGradient cx="282.13849" cy="167.43697" r="11.72159" gradientUnits="userSpaceOnUse" id="color-5"><stop offset="0" stop-color="#f7f7f7"/><stop offset="1" stop-color="#f7f7f7" stop-opacity="0"/></radialGradient><radialGradient cx="310.23697" cy="167.68679" r="13.82455" gradientUnits="userSpaceOnUse" id="color-6"><stop offset="0" stop-color="#f07070"/><stop offset="1" stop-color="#cf5555"/></radialGradient><radialGradient cx="310.23697" cy="167.68679" r="11.92468" gradientUnits="userSpaceOnUse" id="color-7"><stop offset="0" stop-color="#ff9d9d"/><stop offset="1" stop-color="#ff9d9d" stop-opacity="0"/></radialGradient><radialGradient cx="310.23697" cy="167.68679" r="11.92468" gradientUnits="userSpaceOnUse" id="color-8"><stop offset="0" stop-color="#ff9d9d"/><stop offset="1" stop-color="#ff9d9d" stop-opacity="0"/></radialGradient><radialGradient cx="309.92591" cy="191.53422" r="13.82455" gradientUnits="userSpaceOnUse" id="color-9"><stop offset="0" stop-color="#f07070"/><stop offset="1" stop-color="#cf5555"/></radialGradient><radialGradient cx="309.92591" cy="191.53422" r="11.92469" gradientUnits="userSpaceOnUse" id="color-10"><stop offset="0" stop-color="#ff9d9d"/><stop offset="1" stop-color="#ff9d9d" stop-opacity="0"/></radialGradient><radialGradient cx="309.92591" cy="191.53422" r="11.92469" gradientUnits="userSpaceOnUse" id="color-11"><stop offset="0" stop-color="#ff9d9d"/><stop offset="1" stop-color="#ff9d9d" stop-opacity="0"/></radialGradient><radialGradient cx="282.00023" cy="191.21531" r="13.58909" gradientUnits="userSpaceOnUse" id="color-12"><stop offset="0" stop-color="#f7f7f7"/><stop offset="1" stop-color="#cecece"/></radialGradient><radialGradient cx="282.00023" cy="191.21531" r="11.72159" gradientUnits="userSpaceOnUse" id="color-13"><stop offset="0" stop-color="#f7f7f7"/><stop offset="1" stop-color="#f7f7f7" stop-opacity="0"/></radialGradient><radialGradient cx="254.62764" cy="167.43697" r="13.5891" gradientUnits="userSpaceOnUse" id="color-14"><stop offset="0" stop-color="#f7f7f7"/><stop offset="1" stop-color="#cecece"/></radialGradient><radialGradient cx="254.62764" cy="167.43697" r="11.72159" gradientUnits="userSpaceOnUse" id="color-15"><stop offset="0" stop-color="#f7f7f7"/><stop offset="1" stop-color="#f7f7f7" stop-opacity="0"/></radialGradient><radialGradient cx="254.48939" cy="191.21531" r="13.58909" gradientUnits="userSpaceOnUse" id="color-16"><stop offset="0" stop-color="#f7f7f7"/><stop offset="1" stop-color="#cecece"/></radialGradient><radialGradient cx="254.48939" cy="191.21531" r="11.72159" gradientUnits="userSpaceOnUse" id="color-17"><stop offset="0" stop-color="#f7f7f7"/><stop offset="1" stop-color="#f7f7f7" stop-opacity="0"/></radialGradient><radialGradient cx="224.90493" cy="167.85965" r="13.82455" gradientUnits="userSpaceOnUse" id="color-18"><stop offset="0" stop-color="#f07070"/><stop offset="1" stop-color="#cf5555"/></radialGradient><radialGradient cx="224.90493" cy="167.85965" r="11.92468" gradientUnits="userSpaceOnUse" id="color-19"><stop offset="0" stop-color="#ff9d9d"/><stop offset="1" stop-color="#ff9d9d" stop-opacity="0"/></radialGradient><radialGradient cx="224.90493" cy="167.85965" r="11.92468" gradientUnits="userSpaceOnUse" id="color-20"><stop offset="0" stop-color="#ff9d9d"/><stop offset="1" stop-color="#ff9d9d" stop-opacity="0"/></radialGradient><radialGradient cx="168.91541" cy="167.43697" r="13.5891" gradientUnits="userSpaceOnUse" id="color-21"><stop offset="0" stop-color="#f7f7f7"/><stop offset="1" stop-color="#cecece"/></radialGradient><radialGradient cx="168.91541" cy="167.43697" r="11.72159" gradientUnits="userSpaceOnUse" id="color-22"><stop offset="0" stop-color="#f7f7f7"/><stop offset="1" stop-color="#f7f7f7" stop-opacity="0"/></radialGradient><radialGradient cx="197.01389" cy="167.68679" r="13.82456" gradientUnits="userSpaceOnUse" id="color-23"><stop offset="0" stop-color="#f07070"/><stop offset="1" stop-color="#cf5555"/></radialGradient><radialGradient cx="197.01389" cy="167.68679" r="11.92469" gradientUnits="userSpaceOnUse" id="color-24"><stop offset="0" stop-color="#ff9d9d"/><stop offset="1" stop-color="#ff9d9d" stop-opacity="0"/></radialGradient><radialGradient cx="197.01389" cy="167.68679" r="11.92469" gradientUnits="userSpaceOnUse" id="color-25"><stop offset="0" stop-color="#ff9d9d"/><stop offset="1" stop-color="#ff9d9d" stop-opacity="0"/></radialGradient><radialGradient cx="196.70284" cy="191.53422" r="13.82455" gradientUnits="userSpaceOnUse" id="color-26"><stop offset="0" stop-color="#f07070"/><stop offset="1" stop-color="#cf5555"/></radialGradient><radialGradient cx="196.70284" cy="191.53422" r="11.92468" gradientUnits="userSpaceOnUse" id="color-27"><stop offset="0" stop-color="#ff9d9d"/><stop offset="1" stop-color="#ff9d9d" stop-opacity="0"/></radialGradient><radialGradient cx="196.70284" cy="191.53422" r="11.92468" gradientUnits="userSpaceOnUse" id="color-28"><stop offset="0" stop-color="#ff9d9d"/><stop offset="1" stop-color="#ff9d9d" stop-opacity="0"/></radialGradient><radialGradient cx="168.77716" cy="191.21531" r="13.58909" gradientUnits="userSpaceOnUse" id="color-29"><stop offset="0" stop-color="#f7f7f7"/><stop offset="1" stop-color="#cecece"/></radialGradient><radialGradient cx="168.77716" cy="191.21531" r="11.72159" gradientUnits="userSpaceOnUse" id="color-30"><stop offset="0" stop-color="#f7f7f7"/><stop offset="1" stop-color="#f7f7f7" stop-opacity="0"/></radialGradient><radialGradient cx="141.40454" cy="167.43697" r="13.5891" gradientUnits="userSpaceOnUse" id="color-31"><stop offset="0" stop-color="#f7f7f7"/><stop offset="1" stop-color="#cecece"/></radialGradient><radialGradient cx="141.40454" cy="167.43697" r="11.72159" gradientUnits="userSpaceOnUse" id="color-32"><stop offset="0" stop-color="#f7f7f7"/><stop offset="1" stop-color="#f7f7f7" stop-opacity="0"/></radialGradient><radialGradient cx="141.26629" cy="191.21531" r="13.5891" gradientUnits="userSpaceOnUse" id="color-33"><stop offset="0" stop-color="#f7f7f7"/><stop offset="1" stop-color="#cecece"/></radialGradient><radialGradient cx="141.26629" cy="191.21531" r="11.72159" gradientUnits="userSpaceOnUse" id="color-34"><stop offset="0" stop-color="#f7f7f7"/><stop offset="1" stop-color="#f7f7f7" stop-opacity="0"/></radialGradient><radialGradient cx="338.49839" cy="191.56336" r="13.82455" gradientUnits="userSpaceOnUse" id="color-35"><stop offset="0" stop-color="#f07070"/><stop offset="1" stop-color="#cf5555"/></radialGradient><radialGradient cx="338.49839" cy="191.56336" r="11.92469" gradientUnits="userSpaceOnUse" id="color-36"><stop offset="0" stop-color="#ff9d9d"/><stop offset="1" stop-color="#ff9d9d" stop-opacity="0"/></radialGradient><radialGradient cx="338.49839" cy="191.56336" r="11.92469" gradientUnits="userSpaceOnUse" id="color-37"><stop offset="0" stop-color="#ff9d9d"/><stop offset="1" stop-color="#ff9d9d" stop-opacity="0"/></radialGradient><radialGradient cx="224.79854" cy="192.32776" r="13.82455" gradientUnits="userSpaceOnUse" id="color-38"><stop offset="0" stop-color="#f07070"/><stop offset="1" stop-color="#cf5555"/></radialGradient><radialGradient cx="224.79854" cy="192.32776" r="11.92468" gradientUnits="userSpaceOnUse" id="color-39"><stop offset="0" stop-color="#ff9d9d"/><stop offset="1" stop-color="#ff9d9d" stop-opacity="0"/></radialGradient><radialGradient cx="224.79854" cy="192.32776" r="11.92468" gradientUnits="userSpaceOnUse" id="color-40"><stop offset="0" stop-color="#ff9d9d"/><stop offset="1" stop-color="#ff9d9d" stop-opacity="0"/></radialGradient><linearGradient x1="124.1901" y1="170.81199" x2="237.71792" y2="170.81199" gradientUnits="userSpaceOnUse" id="color-41"><stop offset="0" stop-color="#3a3a3a"/><stop offset="1" stop-color="#4e4e4e"/></linearGradient><linearGradient x1="355.8099" y1="170.80615" x2="242.2821" y2="170.80615" gradientUnits="userSpaceOnUse" id="color-42"><stop offset="0" stop-color="#3a3a3a"/><stop offset="1" stop-color="#4e4e4e"/></linearGradient></defs><g transform="translate(-95.58333,-98.41666)"><g data-paper-data="{&quot;isPaintingLayer&quot;:true}" fill-rule="nonzero" stroke-width="0" stroke-linecap="butt" stroke-linejoin="miter" stroke-miterlimit="10" stroke-dasharray="" stroke-dashoffset="0" style="mix-blend-mode: normal"><g><g><path d="" fill="url(#color-1)" stroke="#bfbfbf"/><path d="" fill="url(#color-2)" stroke="none"/><path d="" fill="#a3a3a3" stroke="none"/><path d="" fill="url(#color-3)" stroke="none"/><path d="" fill="#323232" stroke="none"/></g><g><path d="" fill="url(#color-4)" stroke="#bfbfbf"/><path d="" fill="url(#color-5)" stroke="none"/><path d="" fill="#a3a3a3" stroke="none"/><path d="" fill="#323232" stroke="none"/></g><g><path d="" fill="url(#color-6)" stroke="#bfbfbf"/><path d="" fill="url(#color-7)" stroke="none"/><path d="" fill="#a3a3a3" stroke="none"/><path d="" fill="url(#color-8)" stroke="none"/><path d="" fill="#323232" stroke="none"/></g><g><path d="" fill="url(#color-9)" stroke="#bfbfbf"/><path d="" fill="url(#color-10)" stroke="none"/><path d="" fill="#a3a3a3" stroke="none"/><path d="" fill="url(#color-11)" stroke="none"/><path d="" fill="#323232" stroke="none"/></g><g><path d="" fill="url(#color-12)" stroke="#bfbfbf"/><path d="" fill="url(#color-13)" stroke="none"/><path d="" fill="#a3a3a3" stroke="none"/><path d="" fill="#323232" stroke="none"/></g><g><path d="" fill="url(#color-14)" stroke="#bfbfbf"/><path d="" fill="url(#color-15)" stroke="none"/><path d="" fill="#a3a3a3" stroke="none"/><path d="" fill="#323232" stroke="none"/></g><g><path d="" fill="url(#color-16)" stroke="#bfbfbf"/><path d="" fill="url(#color-17)" stroke="none"/><path d="" fill="#a3a3a3" stroke="none"/><path d="" fill="#323232" stroke="none"/></g><g><path d="" fill="url(#color-18)" stroke="#bfbfbf"/><path d="" fill="url(#color-19)" stroke="none"/><path d="" fill="#a3a3a3" stroke="none"/><path d="" fill="url(#color-20)" stroke="none"/><path d="" fill="#323232" stroke="none"/></g><g><path d="" fill="url(#color-21)" stroke="#bfbfbf"/><path d="" fill="url(#color-22)" stroke="none"/><path d="" fill="#a3a3a3" stroke="none"/><path d="" fill="#323232" stroke="none"/></g><g><path d="" fill="url(#color-23)" stroke="#bfbfbf"/><path d="" fill="url(#color-24)" stroke="none"/><path d="" fill="#a3a3a3" stroke="none"/><path d="" fill="url(#color-25)" stroke="none"/><path d="" fill="#323232" stroke="none"/></g><g><path d="" fill="url(#color-26)" stroke="#bfbfbf"/><path d="" fill="url(#color-27)" stroke="none"/><path d="" fill="#a3a3a3" stroke="none"/><path d="" fill="url(#color-28)" stroke="none"/><path d="" fill="#323232" stroke="none"/></g><g><path d="" fill="url(#color-29)" stroke="#bfbfbf"/><path d="" fill="url(#color-30)" stroke="none"/><path d="" fill="#a3a3a3" stroke="none"/><path d="" fill="#323232" stroke="none"/></g><g><path d="" fill="url(#color-31)" stroke="#bfbfbf"/><path d="" fill="url(#color-32)" stroke="none"/><path d="" fill="#a3a3a3" stroke="none"/><path d="" fill="#323232" stroke="none"/></g><g><path d="" fill="url(#color-33)" stroke="#bfbfbf"/><path d="" fill="url(#color-34)" stroke="none"/><path d="" fill="#a3a3a3" stroke="none"/><path d="" fill="#323232" stroke="none"/></g><g><path d="" fill="url(#color-35)" stroke="#bfbfbf"/><path d="" fill="url(#color-36)" stroke="none"/><path d="" fill="#a3a3a3" stroke="none"/><path d="" fill="url(#color-37)" stroke="none"/><path d="" fill="#323232" stroke="none"/></g><g><path d="" fill="url(#color-38)" stroke="#bfbfbf"/><path d="" fill="url(#color-39)" stroke="none"/><path d="" fill="#a3a3a3" stroke="none"/><path d="" fill="url(#color-40)" stroke="none"/><path d="" fill="#323232" stroke="none"/></g></g><g stroke="none"><g><path d="M124.1901,209.04117v-75.66193l14.15759,-5.57508l99.19815,-3.36081l0.17209,93.33311l-99.63285,-3.5584z" fill="url(#color-41)"/><path d="M124.73278,208.98834v-75.56082l13.67227,-5.68982v86.48525z" fill="#363636"/><path d="M206.88874,213.49144v-9.82185h1.98118v9.82185z" fill="#363636"/><path d="M224.89949,137.1512v-10.75727h1.44086v10.75728z" fill="#363636"/><path d="M138.284,215.34874v-3.73167l99.15374,2.90964v3.73167z" fill="#e4e4e4"/><path d="M124.1885,209.14164v-2.23345l14.41876,4.72963v3.28448z" fill="#dedede"/><path d="M237.4027,123.77057v3.73167l-99.15374,2.90964v-3.73167z" data-paper-data="{&quot;index&quot;:null}" fill="#e4e4e4"/><path d="M138.57224,127.10663v3.28447l-14.41875,4.72965v-2.23346z" data-paper-data="{&quot;index&quot;:null}" fill="#dedede"/><path d="M138.52404,202.35535v-1.41371l99.0808,2.82742v1.41371z" fill="#363636"/><path d="M236.89857,136.47768v1.4137l-98.42294,2.47399v-1.41371z" data-paper-data="{&quot;index&quot;:null}" fill="#363636"/><path d="M138.50139,152.48275v-1.41371l99.10345,-1.88495v1.41371z" fill="#363636"/><path d="M138.77046,165.65509v-1.4137l98.8086,-1.88495v1.4137z" fill="#363636"/><path d="M138.47251,177.88495v-1.4137l98.80859,1.17808v1.4137z" fill="#363636"/><path d="M138.71892,190.58604v-1.41371l98.80859,1.17808v1.41371z" fill="#363636"/><path d="M124.22577,143.18883v-1.25198l14.13864,-2.81043v1.25199z" fill="#2d2d2d"/><path d="M124.29225,154.36576v-1.40375l14.00568,-1.78662v1.40375z" fill="#2d2d2d"/><path d="M124.29225,166.19142v-1.53136l14.30054,-0.51047v1.53138z" fill="#2d2d2d"/><path d="M138.4979,201.17002v1.25199l-14.13865,-2.81043v-1.25199z" data-paper-data="{&quot;index&quot;:null}" fill="#2d2d2d"/><path d="M138.43141,189.35209v1.40375l-14.00568,-1.78662v-1.40375z" data-paper-data="{&quot;index&quot;:null}" fill="#2d2d2d"/><path d="M138.72627,176.25028v1.53138l-14.30054,-0.38283v-1.53139z" data-paper-data="{&quot;index&quot;:null}" fill="#2d2d2d"/><path d="M138.34021,211.68395v-1.10701l99.11295,2.94179v1.10701z" fill="#cacaca"/><path d="M124.22993,207.14523v-1.10701l14.19553,4.42804v1.10701z" fill="#b7b7b7"/><path d="M237.8045,127.19125v1.107l-99.11295,2.94179v-1.10701z" data-paper-data="{&quot;index&quot;:null}" fill="#cacaca"/><path d="M138.77683,130.24374v1.10701l-14.19553,4.42804v-1.10701z" data-paper-data="{&quot;index&quot;:null}" fill="#b7b7b7"/><path d="M208.5097,177.78978v-13.8753h1.62097v13.8753z" fill="#363636"/><path d="M148.17371,165.00578v-13.25171h1.26076v13.25171z" fill="#363636"/><path d="M169.6065,202.73419v-12.3163h1.44086v12.3163z" fill="#363636"/><path d="M129.98285,188.75494v-11.69267h1.26076v11.69267z" fill="#2d2d2d"/><path d="M133.40491,151.65012v-10.28956h1.08064v10.28956z" fill="#2d2d2d"/><path d="M190.49897,150.71472v-11.69268h1.80107v11.69268z" fill="#363636"/></g><g data-paper-data="{&quot;index&quot;:null}"><path d="M341.91495,214.21219l-99.63285,3.5584v-93.9289l99.37023,3.95662l14.15759,5.5751v75.66192z" fill="url(#color-42)"/><path d="M341.59497,214.21712v-86.48526l13.67225,5.68983v75.56081z" fill="#363636"/><path d="M271.13007,213.48561v-9.82185h1.98118v9.82185z" fill="#363636"/><path d="M253.65968,137.14537v-10.75727h1.44086v10.75728z" fill="#363636"/><path d="M242.56227,218.25253v-3.73167l99.15374,-2.90964v3.73167z" fill="#e4e4e4"/><path d="M341.39274,214.91646v-3.28447l14.41875,-4.72963v2.23345z" fill="#dedede"/><path d="M341.75106,126.67436v3.73167l-99.15374,-2.90964v-3.73167z" data-paper-data="{&quot;index&quot;:null}" fill="#e4e4e4"/><path d="M355.84653,132.88146v2.23346l-14.41875,-4.72964v-3.28447z" data-paper-data="{&quot;index&quot;:null}" fill="#dedede"/><path d="M242.39517,205.17692v-1.41371l99.0808,-2.82741v1.41371z" fill="#363636"/><path d="M341.52439,138.94581v1.4137l-98.42294,-2.47399v-1.4137z" data-paper-data="{&quot;index&quot;:null}" fill="#363636"/><path d="M242.39517,150.59196v-1.41371l99.10345,1.88495v1.41371z" fill="#363636"/><path d="M242.42094,163.76429v-1.4137l98.80859,1.88496v1.4137z" fill="#363636"/><path d="M242.71891,179.0572v-1.4137l98.80859,-1.17808v1.4137z" fill="#363636"/><path d="M242.4725,191.75828v-1.41371l98.80859,-1.17808v1.41371z" fill="#363636"/><path d="M341.63559,140.37255v-1.25199l14.13865,2.81043v1.25199z" fill="#2d2d2d"/><path d="M341.70208,152.57331v-1.40376l14.00568,1.78662v1.40375z" fill="#2d2d2d"/><path d="M341.40721,165.67513v-1.53138l14.30054,0.51045v1.53139z" fill="#2d2d2d"/><path d="M355.64076,198.35374v1.25199l-14.13864,2.81043v-1.25199z" data-paper-data="{&quot;index&quot;:null}" fill="#2d2d2d"/><path d="M355.57429,187.55963v1.40375l-14.00568,1.78661v-1.40376z" data-paper-data="{&quot;index&quot;:null}" fill="#2d2d2d"/><path d="M355.57429,175.8616v1.53136l-14.30054,0.38284v-1.53136z" data-paper-data="{&quot;index&quot;:null}" fill="#2d2d2d"/><path d="M242.54687,214.6199v-1.107l99.11294,-2.94179v1.10701z" fill="#cacaca"/><path d="M341.57455,211.56742v-1.10699l14.19553,-4.42804v1.107z" fill="#b7b7b7"/><path d="M341.30844,130.12721v1.10701l-99.11294,-2.94179v-1.107z" data-paper-data="{&quot;index&quot;:null}" fill="#cacaca"/><path d="M355.41871,134.66593v1.107l-14.19553,-4.42804v-1.10699z" data-paper-data="{&quot;index&quot;:null}" fill="#b7b7b7"/><path d="M269.86934,177.78396v-13.87531h1.62097v13.87531z" fill="#363636"/><path d="M330.56553,164.99994v-13.25171h1.26076v13.25171z" fill="#363636"/><path d="M308.95266,202.72834v-12.3163h1.44086v12.3163z" fill="#363636"/><path d="M348.7564,188.74907v-11.69268h1.26076v11.69268z" fill="#2d2d2d"/><path d="M345.51446,151.64431v-10.28955h1.08065v10.28956z" fill="#2d2d2d"/><path d="M287.69997,150.70889v-11.69268h1.80107v11.69268z" fill="#363636"/></g><path d="M237.47646,213.46469v-85.34362h4.99025v85.34362z" fill="#626262"/><path d="M242.69517,214.51186v3.766h-5.48163v-3.766z" data-paper-data="{&quot;index&quot;:null}" fill="#ededed"/><path d="M237.30439,127.52526v-3.76599h5.3344v3.76599z" fill="#ededed"/><path d="M237.13232,128.37387v-1.22886h5.85062v1.22886z" fill="#d2d2d2"/><path d="M242.6225,213.47386v1.20381h-5.33533v-1.20381z" data-paper-data="{&quot;index&quot;:null}" fill="#d2d2d2"/></g><path d="M95.58333,243.08333v-144.66667h287.33333v144.66667z" fill="none" stroke="none"/><path d="M107.45589,232.46538v-122.1891h265.08823v122.1891z" fill="none" stroke="none"/></g></g></svg>