<svg version="1.1" xmlns="http://www.w3.org/2000/svg" xmlns:xlink="http://www.w3.org/1999/xlink" width="609.98601" height="360.53869" viewBox="0,0,609.98601,360.53869"><defs><linearGradient x1="71.04928" y1="180.14189" x2="57.61888" y2="180.14189" gradientUnits="userSpaceOnUse" id="color-1"><stop offset="0" stop-color="#676767"/><stop offset="1" stop-color="#404040"/></linearGradient><linearGradient x1="135.77877" y1="180.14189" x2="121.88889" y2="180.14189" gradientUnits="userSpaceOnUse" id="color-2"><stop offset="0" stop-color="#676767"/><stop offset="1" stop-color="#404040"/></linearGradient><linearGradient x1="36.32477" y1="180.01329" x2="26.9749" y2="180.01329" gradientUnits="userSpaceOnUse" id="color-3"><stop offset="0" stop-color="#9b9b9b"/><stop offset="1" stop-color="#cccccc"/></linearGradient><radialGradient cx="303.04184" cy="180.14189" r="150.95138" gradientUnits="userSpaceOnUse" id="color-4"><stop offset="0" stop-color="#c5d0d9"/><stop offset="1" stop-color="#8e9ba1"/></radialGradient><linearGradient x1="357.51173" y1="182.81567" x2="323.33073" y2="182.81567" gradientUnits="userSpaceOnUse" id="color-5"><stop offset="0" stop-color="#b3c1c9"/><stop offset="1" stop-color="#b3c1c9" stop-opacity="0"/></linearGradient><linearGradient x1="285.08416" y1="231.41535" x2="285.08416" y2="214.59805" gradientUnits="userSpaceOnUse" id="color-6"><stop offset="0" stop-color="#919ca1"/><stop offset="1" stop-color="#919ca1" stop-opacity="0"/></linearGradient><linearGradient x1="290.81637" y1="123.4729" x2="290.81637" y2="140.2902" gradientUnits="userSpaceOnUse" id="color-7"><stop offset="0" stop-color="#919ca1"/><stop offset="1" stop-color="#919ca1" stop-opacity="0"/></linearGradient><linearGradient x1="216.85749" y1="180.0452" x2="255.42474" y2="180.0452" gradientUnits="userSpaceOnUse" id="color-8"><stop offset="0" stop-color="#6f787d"/><stop offset="1" stop-color="#6f787d" stop-opacity="0"/></linearGradient><linearGradient x1="314.25537" y1="247.42352" x2="314.25537" y2="229.00997" gradientUnits="userSpaceOnUse" id="color-9"><stop offset="0" stop-color="#6f787d"/><stop offset="1" stop-color="#6f787d" stop-opacity="0"/></linearGradient><linearGradient x1="372.0486" y1="182.24395" x2="385.65612" y2="182.24395" gradientUnits="userSpaceOnUse" id="color-10"><stop offset="0" stop-color="#6f787d"/><stop offset="1" stop-color="#6f787d" stop-opacity="0"/></linearGradient><linearGradient x1="452.95804" y1="180.39033" x2="405.28482" y2="180.39033" gradientUnits="userSpaceOnUse" id="color-11"><stop offset="0" stop-color="#6f787d"/><stop offset="1" stop-color="#6f787d" stop-opacity="0"/></linearGradient><linearGradient x1="312.04508" y1="112.02286" x2="312.04508" y2="130.43638" gradientUnits="userSpaceOnUse" id="color-12"><stop offset="0" stop-color="#6f787d"/><stop offset="1" stop-color="#6f787d" stop-opacity="0"/></linearGradient><linearGradient x1="64.84311" y1="230.93887" x2="64.84311" y2="248.66096" gradientUnits="userSpaceOnUse" id="color-13"><stop offset="0" stop-color="#292929"/><stop offset="1" stop-color="#1c1c1c"/></linearGradient><linearGradient x1="64.84311" y1="212.04645" x2="64.84311" y2="229.76855" gradientUnits="userSpaceOnUse" id="color-14"><stop offset="0" stop-color="#292929"/><stop offset="1" stop-color="#1c1c1c"/></linearGradient><linearGradient x1="129.37828" y1="212.04645" x2="129.37828" y2="229.76855" gradientUnits="userSpaceOnUse" id="color-15"><stop offset="0" stop-color="#292929"/><stop offset="1" stop-color="#1c1c1c"/></linearGradient><linearGradient x1="129.37831" y1="230.77169" x2="129.37831" y2="248.49378" gradientUnits="userSpaceOnUse" id="color-16"><stop offset="0" stop-color="#292929"/><stop offset="1" stop-color="#1c1c1c"/></linearGradient><linearGradient x1="374.93955" y1="180.14189" x2="359.58732" y2="180.14189" gradientUnits="userSpaceOnUse" id="color-17"><stop offset="0" stop-color="#1d1d1d"/><stop offset="1" stop-color="#636363"/></linearGradient><linearGradient x1="64.23137" y1="111.83327" x2="64.23137" y2="129.55536" gradientUnits="userSpaceOnUse" id="color-18"><stop offset="0" stop-color="#1c1c1c"/><stop offset="1" stop-color="#292929"/></linearGradient><linearGradient x1="64.23137" y1="130.72567" x2="64.23137" y2="148.44779" gradientUnits="userSpaceOnUse" id="color-19"><stop offset="0" stop-color="#1c1c1c"/><stop offset="1" stop-color="#292929"/></linearGradient><linearGradient x1="128.76657" y1="130.72567" x2="128.76657" y2="148.44779" gradientUnits="userSpaceOnUse" id="color-20"><stop offset="0" stop-color="#1c1c1c"/><stop offset="1" stop-color="#292929"/></linearGradient><linearGradient x1="128.76659" y1="112.00045" x2="128.76659" y2="129.72253" gradientUnits="userSpaceOnUse" id="color-21"><stop offset="0" stop-color="#1c1c1c"/><stop offset="1" stop-color="#292929"/></linearGradient><linearGradient x1="334.61422" y1="180.34251" x2="316.33484" y2="180.34251" gradientUnits="userSpaceOnUse" id="color-22"><stop offset="0" stop-color="#1d1d1d"/><stop offset="1" stop-color="#636363"/></linearGradient><radialGradient cx="282.76107" cy="147.66659" r="43.29917" gradientUnits="userSpaceOnUse" id="color-23"><stop offset="0" stop-color="#b9c8d0"/><stop offset="1" stop-color="#b9c8d0" stop-opacity="0"/></radialGradient><radialGradient cx="284.72527" cy="213.25638" r="43.29917" gradientUnits="userSpaceOnUse" id="color-24"><stop offset="0" stop-color="#b9c8d0"/><stop offset="1" stop-color="#b9c8d0" stop-opacity="0"/></radialGradient></defs><g transform="translate(69.16916,-1.09611)"><g data-paper-data="{&quot;isPaintingLayer&quot;:true}" fill-rule="nonzero" stroke-linejoin="miter" stroke-miterlimit="10" stroke-dasharray="" stroke-dashoffset="0" style="mix-blend-mode: normal"><path d="M57.70594,177.34169c0,0 -0.70075,-5.09449 1.87401,-7.07708c2.6658,-2.05266 1.85196,-12.67764 1.85196,-12.67764h6.01883c0,0 -1.44955,9.00852 0.71926,11.79873c2.475,3.1841 2.87928,8.81583 2.87928,8.81583l-0.04458,3.8807c0,0 0.04155,5.63173 -2.43346,8.81583c-2.16883,2.79021 -0.71926,11.79873 -0.71926,11.79873h-6.01883c0,0 0.81384,-10.62498 -1.85196,-12.67764c-2.57475,-1.98259 -2.31984,-7.07708 -2.31984,-7.07708z" data-paper-data="{&quot;index&quot;:null}" fill="url(#color-1)" stroke="#000000" stroke-width="0" stroke-linecap="round"/><path d="M135.77877,182.94208c0,0 -0.05292,2.68944 -0.73659,4.62923c-0.47324,1.34278 -1.54728,1.87849 -1.88702,2.75653c-1.23492,3.19148 -1.10236,11.80648 -1.10236,11.80648l-5.73221,-0.27589c0,0 -0.52785,-7.49012 -1.20627,-10.59151c-0.21836,-0.9982 -1.74692,-1.96318 -2.16018,-3.19034c-0.83301,-2.47354 -0.869,-5.13446 -0.869,-5.13446l-0.17834,-5.60043c0,0 -0.18692,-2.66092 0.64609,-5.13446c0.41325,-1.22716 1.94181,-2.19214 2.16018,-3.19034c0.67842,-3.1014 1.20627,-11.43527 1.20627,-11.43527l5.73221,0.28661c0,0 -0.13258,8.89625 1.10236,12.08774c0.33975,0.87802 1.41378,1.41374 1.88702,2.75653c0.68365,1.93979 0.9595,4.62923 0.9595,4.62923z" data-paper-data="{&quot;index&quot;:null}" fill="url(#color-2)" stroke="#000000" stroke-width="0" stroke-linecap="round"/><path d="M27.03859,161.29148v10.6046h-1.43306v-10.6046z" data-paper-data="{&quot;index&quot;:null}" fill="#9a9a9a" stroke="#000000" stroke-width="0" stroke-linecap="butt"/><path d="M25.6533,184.86954v-10.03138h1.20377v10.03138z" data-paper-data="{&quot;index&quot;:null}" fill="#9a9a9a" stroke="none" stroke-width="0" stroke-linecap="butt"/><path d="M26.00678,198.99229v-10.6046h1.43306v10.6046z" data-paper-data="{&quot;index&quot;:null}" fill="#9a9a9a" stroke="#000000" stroke-width="0" stroke-linecap="butt"/><path d="M32.88544,183.22868c0,0 0.8573,5.53142 1.43001,7.72683c0.57374,2.1993 2.00933,5.45727 2.00933,5.45727v5.90123l-8.31172,0.28661l-0.85983,-19.65855l-0.17834,-5.60041l0.63692,-19.91575l8.31172,0.28661v6.15845c0,0 -1.43559,3.25797 -2.00933,5.45727c-0.57271,2.1954 -1.43001,7.72683 -1.43001,7.72683" data-paper-data="{&quot;index&quot;:null}" fill="url(#color-3)" stroke="#000000" stroke-width="0" stroke-linecap="round"/><path d="M32.19757,178.20152c0,0 0.26063,-3.99194 0.71098,-5.83842c0.49984,-2.04935 2.15514,-5.91261 2.15514,-5.91261v11.17782l0.40126,5.02716v11.17782c0,0 -1.6553,-3.86327 -2.15514,-5.91261c-0.45035,-1.84648 -0.71098,-5.83842 -0.71098,-5.83842z" data-paper-data="{&quot;index&quot;:null}" fill="#787878" stroke="#000000" stroke-width="0" stroke-linecap="round"/><path d="M27.43984,205.58433v-3.72594h191.45606v3.72594z" data-paper-data="{&quot;index&quot;:null}" fill="#868686" stroke="#000000" stroke-width="0" stroke-linecap="butt"/><path d="M218.49464,154.69944v3.72594h-191.45606v-3.72594z" data-paper-data="{&quot;index&quot;:null}" fill="#868686" stroke="#000000" stroke-width="0" stroke-linecap="butt"/><path d="M207.43146,213.60944h-1.71966l-0.11464,-35.69452l-0.28661,-31.24058h1.71966l0.85983,31.5272z" data-paper-data="{&quot;index&quot;:null}" fill="#585858" stroke="#000000" stroke-width="0" stroke-linecap="round"/><path d="M198.19303,150.76285v-7.62385h16.45146v7.62385z" data-paper-data="{&quot;index&quot;:null}" fill="#5c5c5e" stroke="#000000" stroke-width="0" stroke-linecap="butt"/><path d="M218.29758,178.56636c0,0 -2.23388,-17.8129 -4.35238,-25.8072c-2.2975,-8.6698 -11.94862,-24.85126 -11.94862,-24.85126c0,0 -12.20869,-2.01322 -18.53747,-2.51617c-6.29384,-0.50019 -19.331,-0.49325 -19.331,-0.49325l-12.03766,-1.25393l0.25079,-9.52981l39.12238,-1.25393c0,0 68.8262,-0.06389 102.30835,-0.46905c2.1626,-0.02616 3.1788,-3.30034 5.02735,-3.30049c13.48621,-0.00096 32.22592,-0.40651 44.87631,0.6754c3.56761,0.43683 3.50162,1.60332 5.93976,2.20389c2.99832,0.73857 8.11348,0.87825 8.11348,0.87825c0,0 67.59245,-1.472 78.61632,4.62811c6.39847,3.54063 13.25623,19.93908 15.76191,26.40893c0.63294,1.63429 0.73739,3.38741 0.73739,3.38741c0,0 0.30659,1.25085 0.35943,3.14694c0.14238,5.11087 0.78929,28.33063 0.78929,28.33063c0,0 -0.24565,26.00181 -0.38804,31.11269c-0.05282,1.89609 -0.35943,3.14694 -0.35943,3.14694c0,0 -0.10445,1.75312 -0.73739,3.38741c-2.50568,6.46985 -9.36343,22.8683 -15.76191,26.40893c-11.02389,6.10012 -78.61632,4.62811 -78.61632,4.62811c0,0 -5.11516,0.13968 -8.11348,0.87825c-2.43815,0.60058 -2.37214,1.76707 -5.93976,2.20389c-12.65039,1.0819 -31.39012,0.67636 -44.87631,0.6754c-1.84854,-0.00014 -2.86474,-3.27432 -5.02735,-3.30049c-33.48214,-0.40516 -102.30835,-0.46905 -102.30835,-0.46905l-39.12238,-1.25393l-0.25079,-9.52981l12.03766,-1.25393c0,0 13.03714,0.00695 19.331,-0.49325c6.32878,-0.50295 18.53747,-2.51617 18.53747,-2.51617c0,0 9.65112,-16.18145 11.94862,-24.85126c2.11848,-7.99431 4.35238,-25.8072 4.35238,-25.8072z" data-paper-data="{&quot;index&quot;:null}" fill="url(#color-4)" stroke="#70767b" stroke-width="0.5" stroke-linecap="round"/><path d="M355.36217,220.09027c0,0 0.80565,9.47137 -16.89016,10.0513c-2.41415,0.07911 -16.14075,4.49504 -18.81568,2.43062c-3.85163,-2.97258 3.67441,-12.78903 3.67441,-12.78903v-73.93498c0,0 -6.7563,-12.19144 -3.72528,-16.65809c2.11389,-3.11514 13.56214,0.99684 16.1041,0.99684c2.87011,0 10.45242,-1.40095 15.74471,3.04639c3.75841,3.15836 4.52205,14.45735 4.52205,14.45735c0,0 2.01248,21.1716 2.26098,32.83936c0.16665,7.82449 -0.11544,21.65504 -1.01672,30.71433c-0.51861,5.21283 -1.85843,8.84589 -1.85843,8.84589z" data-paper-data="{&quot;index&quot;:null}" fill="url(#color-5)" stroke="none" stroke-width="0" stroke-linecap="butt"/><path d="M349.8456,213.71293c0,0 8.94522,3.3484 6.58729,5.10613c-1.08828,0.81126 -3.08788,6.91863 -6.97127,8.87031c-6.5617,3.29773 -15.84327,2.70598 -15.84327,2.70598c0,0 -11.94938,2.99829 -26.40881,4.05434c-4.79951,0.35054 -23.11234,1.34176 -41.02871,1.3765c-24.56378,0.04765 -49.64301,-0.94623 -49.64301,-0.94623c0,0 0.56271,-2.64705 2.00431,-5.06516c1.5922,-2.67075 2.07567,-12.85643 2.07567,-12.85643z" data-paper-data="{&quot;index&quot;:null}" fill="url(#color-6)" stroke="none" stroke-width="0" stroke-linecap="butt"/><path d="M226.34999,137.92988c0,0 -0.48347,-10.18567 -2.07567,-12.85643c-1.44157,-2.41812 -2.00431,-5.06516 -2.00431,-5.06516c0,0 36.48129,-0.84136 57.52044,0.27666c19.57002,1.03996 59.56009,4.20796 59.56009,4.20796c0,0 9.28155,-0.59175 15.84327,2.70598c3.88339,1.95168 5.88299,8.05906 6.97127,8.87031c2.35793,1.75773 -6.58729,5.10613 -6.58729,5.10613z" data-paper-data="{&quot;index&quot;:null}" fill="url(#color-7)" stroke="none" stroke-width="0" stroke-linecap="butt"/><path d="M216.85749,242.71697c0,0 6.52405,-2.16378 7.38211,-7.43181c2.2645,-13.90275 1.30705,-42.33123 1.30705,-54.73732c0,-10.36792 0.50466,-42.89428 -0.3734,-51.66523c-1.12853,-11.27298 -10.22312,-11.50916 -10.22312,-11.50916l44.92516,2.75509l1.05966,120.89301z" data-paper-data="{&quot;index&quot;:null}" fill="url(#color-8)" stroke="none" stroke-width="0" stroke-linecap="butt"/><path d="M452.61418,218.45748c0,0 -11.40024,21.91679 -14.68025,24.17761c-4.60167,3.17183 -24.40306,3.61591 -24.40306,3.61591l-223.56429,1.17251c0,0 -4.75411,-2.05562 -0.61284,-2.77227c4.86203,-0.84137 27.97116,-1.96212 27.97116,-1.96212c0,0 32.82681,-4.6209 66.71669,-3.37388c11.98197,0.44087 41.55231,-2.0774 63.59692,-4.35602c15.79352,-1.63246 26.50094,0.82761 26.50094,0.82761z" data-paper-data="{&quot;index&quot;:null}" fill="url(#color-9)" stroke="none" stroke-width="0" stroke-linecap="butt"/><path d="M367.72909,233.58627c0,0 4.07834,-39.18892 4.07834,-49.47378c0,-11.01829 -4.32501,-58.24847 -4.32501,-58.24847l17.55975,3.97967l0.6104,100.27273z" data-paper-data="{&quot;index&quot;:null}" fill="url(#color-10)" stroke="none" stroke-width="0" stroke-linecap="butt"/><path d="M452.53554,211.75213c0,0 -14.85945,5.55338 -22.42429,7.933c-7.3082,2.29889 -22.22141,6.11093 -22.22141,6.11093l-2.18252,-91.14582c0,0 12.03917,2.01516 18.96757,3.9446c8.39695,2.3384 27.86065,9.09619 27.86065,9.09619c0,0 1.26751,23.54955 1.26751,34.56784c0,10.28483 -1.26751,29.49324 -1.26751,29.49324z" data-paper-data="{&quot;index&quot;:null}" fill="url(#color-11)" stroke="none" stroke-width="0" stroke-linecap="butt"/><path d="M371.92913,123.65953c0,0 -10.70741,2.46007 -26.50094,0.82761c-22.04461,-2.27861 -51.61496,-4.79693 -63.59692,-4.35602c-33.88988,1.24703 -66.71669,-3.37388 -66.71669,-3.37388c0,0 -23.10914,-1.12074 -27.97114,-1.96212c-4.14128,-0.71666 0.61284,-2.77227 0.61284,-2.77227l223.56429,1.17251c0,0 19.80138,0.44409 24.40306,3.61591c3.28,2.26084 14.68025,24.17761 14.68025,24.17761z" data-paper-data="{&quot;index&quot;:null}" fill="url(#color-12)" stroke="none" stroke-width="0" stroke-linecap="butt"/><path d="M430.67079,118.14317c0,0 4.3043,6.03463 5.84262,8.6588c1.23835,2.11247 2.85126,6.22109 2.85126,6.22109c0,0 -10.8368,-3.39944 -15.21508,-5.96803c-3.93344,-2.30763 -10.03056,-9.24622 -10.03056,-9.24622z" data-paper-data="{&quot;index&quot;:null}" fill="#171719" stroke="#000000" stroke-width="0.5" stroke-linecap="round"/><path d="M431.29687,118.67505c0,0 4.38477,-0.20414 5.96352,-0.27763c1.03982,-0.04841 2.87366,1.59923 2.87366,1.59923c0,0 0.80072,0.85648 2.22861,3.43862c1.34383,2.43014 3.00566,4.81643 3.83747,6.59304c1.44159,3.07901 3.26285,8.78593 3.26285,8.78593l-9.69699,-5.51726c0,0 -0.74398,-2.471 -1.53863,-4.14364c-1.21968,-2.56732 -6.93048,-10.47827 -6.93048,-10.47827z" data-paper-data="{&quot;index&quot;:null}" fill="#454746" stroke="#000000" stroke-width="0.5" stroke-linecap="round"/><path d="M430.98282,118.527l3.25117,0.0621c0,0 3.83424,5.77615 5.27348,8.47842c1.27039,2.3852 2.91882,7.70555 2.91882,7.70555l-3.61899,-2.0015c0,0 -0.30522,-2.09485 -0.9887,-3.52213c-1.23946,-2.58829 -6.83578,-10.72243 -6.83578,-10.72243z" data-paper-data="{&quot;index&quot;:null}" fill="#ebebff" stroke="#000000" stroke-width="0.5" stroke-linecap="round"/><path d="M431.29684,241.71546c0,0 5.7108,-7.91097 6.93048,-10.47827c0.79465,-1.67265 1.53863,-4.14364 1.53863,-4.14364l9.69699,-5.51726c0,0 -1.82125,5.70691 -3.26285,8.78593c-0.8318,1.77662 -2.49364,4.1629 -3.83747,6.59304c-1.42789,2.58213 -2.22861,3.43862 -2.22861,3.43862c0,0 -1.83384,1.64763 -2.87366,1.59923c-1.57874,-0.07349 -5.96352,-0.27763 -5.96352,-0.27763z" data-paper-data="{&quot;index&quot;:null}" fill="#454746" stroke="#000000" stroke-width="0.5" stroke-linecap="round"/><path d="M414.52028,242.47498c0,0 6.09711,-6.93861 10.03056,-9.24622c4.37828,-2.5686 15.21508,-5.96803 15.21508,-5.96803c0,0 -1.61291,4.10861 -2.85126,6.22109c-1.53831,2.62417 -5.84262,8.6588 -5.84262,8.6588z" data-paper-data="{&quot;index&quot;:null}" fill="#171719" stroke="#000000" stroke-width="0.5" stroke-linecap="round"/><path d="M420.84382,238.05569c0,0 3.823,-2.34036 6.30246,-4.31476c2.47946,-1.9744 9.73184,-3.77402 9.73184,-3.77402l-6.54587,10.82858" data-paper-data="{&quot;index&quot;:null}" fill="none" stroke="#ebebff" stroke-width="0.5" stroke-linecap="round"/><path d="M438.33483,230.81152c0.68348,-1.42728 0.9887,-3.52213 0.9887,-3.52213l3.61899,-2.0015c0,0 -1.64842,5.32034 -2.91882,7.70555c-1.43925,2.70227 -5.27348,8.47842 -5.27348,8.47842l-3.25117,0.0621c0,0 5.59633,-8.13412 6.83578,-10.72243z" data-paper-data="{&quot;index&quot;:null}" fill="#ebebff" stroke="#000000" stroke-width="0.5" stroke-linecap="round"/><path d="M454.39447,183.03763l-0.75236,27.33552c0,0 -3.34071,1.11359 -4.58935,1.52979c-0.86093,0.28698 -2.18182,-0.02508 -2.18182,-0.02508c0,0 0,-0.46562 0,-1.7555c0,-4.35511 0,-28.58943 0,-28.58943c0,0 -0.40126,-27.0164 -0.40126,-31.37149c0,-1.28988 0,-1.7555 0,-1.7555c0,0 1.32089,-0.31206 2.18182,-0.02508c1.24864,0.4162 4.58935,1.52979 4.58935,1.52979z" data-paper-data="{&quot;index&quot;:null}" fill="#171719" stroke="#000000" stroke-width="0.5" stroke-linecap="round"/><path d="M452.63899,210.49115c0,0 -2.37341,1.18463 -3.33042,1.4245c-0.96559,0.24202 -2.43763,-0.09683 -2.43763,-0.09683v-3.3192l6.26962,-1.88825z" data-paper-data="{&quot;index&quot;:null}" fill="#cfd0d2" stroke="#000000" stroke-width="0.5" stroke-linecap="round"/><path d="M446.62919,205.52606c0,0 -19.8577,3.7982 -30.67261,5.48366c-11.9567,1.86339 -37.98663,5.2165 -37.98663,5.2165" data-paper-data="{&quot;index&quot;:null}" fill="none" stroke="#70767b" stroke-width="0.5" stroke-linecap="round"/><path d="M369.94484,246.76616c0,0 -2.70683,-1.10172 -3.29367,-2.51015c-0.81989,-1.96774 -1.16472,-8.18998 -1.16472,-8.18998" data-paper-data="{&quot;index&quot;:null}" fill="none" stroke="#70767b" stroke-width="0.5" stroke-linecap="round"/><path d="M373.28864,232.72224c0,0 29.84111,-5.72234 43.46034,-9.17511c12.69452,-3.21832 35.6761,-10.88765 35.6761,-10.88765l-6.24174,6.9105c0,0 -18.38074,5.05937 -28.53803,7.33705c-13.43513,3.01272 -45.02543,9.15899 -45.02543,9.15899z" data-paper-data="{&quot;index&quot;:null}" fill="none" stroke="#70767b" stroke-width="0.5" stroke-linecap="round"/><path d="M363.96477,234.28267l8.65509,-0.44584l-0.22291,2.22919l-6.98804,-0.26167z" data-paper-data="{&quot;index&quot;:null}" fill="none" stroke="#70767b" stroke-width="0.5" stroke-linecap="round"/><path d="M351.74056,247.61008l-0.77384,0.14331l-0.22928,-11.89435c0,0 1.9499,-1.81092 3.30383,-2.51357c1.3784,-0.71534 2.9147,-1.73584 4.29135,-1.21237c2.61943,0.99604 4.02618,1.7495 5.29215,2.85723c0.89816,0.78588 0.72667,2.58838 0.72667,2.58838c0,0 -2.0276,3.50193 -3.21122,5.17689c-1.33081,1.88323 -4.38397,5.57102 -4.38397,5.57102z" data-paper-data="{&quot;index&quot;:null}" fill="#636564" stroke="#000000" stroke-width="0" stroke-linecap="round"/><path d="M357.08223,235.96743c0.99013,0.26058 3.11335,1.61126 3.11335,1.61126l-6.59204,7.8818l1.14645,-9.88807c0,0 1.56421,0.19291 2.33223,0.39501z" data-paper-data="{&quot;index&quot;:null}" fill="#a3acb3" stroke="#000000" stroke-width="0" stroke-linecap="round"/><path d="M356.18301,248.61322c0,0 1.32343,3.65968 1.26006,4.8633c-0.0772,1.4668 -2.2632,3.59174 -2.2632,3.59174c0,0 -7.87607,0.22703 -8.74163,0c-0.86555,-0.22703 0,-2.29289 0,-2.29289l5.3023,-7.16527z" data-paper-data="{&quot;index&quot;:null}" fill="#d0d1d3" stroke="#000000" stroke-width="0" stroke-linecap="round"/><path d="M354.60667,244.45736c0,0 -0.14632,2.13173 -0.73119,3.57671c-0.89955,2.22244 -5.00103,8.74756 -5.00103,8.74756" data-paper-data="{&quot;index&quot;:null}" fill="none" stroke="#000000" stroke-width="0" stroke-linecap="round"/><path d="M437.48947,241.86194c0,0 -19.46951,0.85242 -30.30805,0.95469c-12.54152,0.11831 -40.58037,-0.28594 -40.58037,-0.28594l-5.18215,0.07719" data-paper-data="{&quot;index&quot;:null}" fill="none" stroke="#70767b" stroke-width="0.5" stroke-linecap="round"/><path d="M427.72826,226.92634l-0.33439,-6.18601l10.36577,-3.51098c0,0 -0.07489,3.92496 -0.44087,5.44518c-0.35835,1.48851 -1.7326,4.41901 -1.7326,4.41901z" data-paper-data="{&quot;index&quot;:null}" fill="#606062" stroke="#70767b" stroke-width="0.5" stroke-linecap="round"/><path d="M424.2173,251.33601l2.00628,-14.21111c0,0 1.98637,-0.48838 3.59306,0.07536c1.15571,0.40552 1.95361,1.75884 2.43079,2.33917c0.78873,0.95926 0.16216,5.10899 0.16216,5.10899c0,0 -0.90214,5.30856 -2.19522,6.36415c-1.42486,1.16316 -5.99706,0.32344 -5.99706,0.32344z" data-paper-data="{&quot;index&quot;:null}" fill="#c2c3c5" stroke="#70767b" stroke-width="0.5" stroke-linecap="round"/><path d="M431.23927,238.12804l-3.3438,13.37518" data-paper-data="{&quot;index&quot;:null}" fill="none" stroke="#70767b" stroke-width="0.5" stroke-linecap="round"/><path d="M445.95195,219.56999l-0.33439,3.51098" data-paper-data="{&quot;index&quot;:null}" fill="none" stroke="#000000" stroke-width="0.5" stroke-linecap="round"/><path d="M446.95507,223.08097c0,0 -3.26206,7.36355 -5.15936,10.71346c-1.62805,2.87456 -5.54079,8.17897 -5.54079,8.17897" data-paper-data="{&quot;index&quot;:null}" fill="none" stroke="#000000" stroke-width="0.5" stroke-linecap="round"/><path d="M90.17235,247.65782c0,0 -1.13094,1.00314 -3.51098,1.00314c-6.1385,0 -33.56123,0 -44.13807,0c-2.59811,0 -3.17659,-0.66875 -3.17659,-0.66875c0,0 -1.00314,-1.17111 -1.00314,-2.67503c0,-2.11688 0,-7.98482 0,-11.53609c0,-1.68049 0.66875,-2.00628 0.66875,-2.00628c0,0 0.37908,-0.83596 2.17346,-0.83596c9.71729,0 41.32795,0 46.9803,0c1.69081,0 2.00628,1.17032 2.00628,1.17032c0,0 1.17032,1.10632 1.17032,2.84223c0,1.84075 0,6.08142 0,9.36263c0,2.43841 -1.17032,3.3438 -1.17032,3.3438z" data-paper-data="{&quot;index&quot;:null}" fill="url(#color-13)" stroke="#1c1c1c" stroke-width="0.75" stroke-linecap="butt"/><path d="M90.17235,228.76541c0,0 -1.13094,1.00314 -3.51098,1.00314c-6.1385,0 -33.56123,0 -44.13807,0c-2.59811,0 -3.17659,-0.66875 -3.17659,-0.66875c0,0 -1.00314,-1.17111 -1.00314,-2.67503c0,-2.11688 0,-7.98482 0,-11.53609c0,-1.68049 0.66875,-2.00628 0.66875,-2.00628c0,0 0.37908,-0.83596 2.17346,-0.83596c9.71729,0 41.32795,0 46.9803,0c1.69081,0 2.00628,1.17032 2.00628,1.17032c0,0 1.17032,1.10632 1.17032,2.84223c0,1.84075 0,6.08142 0,9.36263c0,2.43841 -1.17032,3.3438 -1.17032,3.3438z" data-paper-data="{&quot;index&quot;:null}" fill="url(#color-14)" stroke="#1c1c1c" stroke-width="0.75" stroke-linecap="butt"/><path d="M154.70752,228.76541c0,0 -1.13094,1.00314 -3.51098,1.00314c-6.1385,0 -33.56123,0 -44.13807,0c-2.59811,0 -3.17659,-0.66875 -3.17659,-0.66875c0,0 -1.00314,-1.17111 -1.00314,-2.67503c0,-2.11688 0,-7.98482 0,-11.53609c0,-1.68049 0.66875,-2.00628 0.66875,-2.00628c0,0 0.37908,-0.83596 2.17346,-0.83596c9.71729,0 41.32795,0 46.9803,0c1.69081,0 2.00628,1.17032 2.00628,1.17032c0,0 1.17032,1.10632 1.17032,2.84223c0,1.84075 0,6.08142 0,9.36263c0,2.43841 -1.17032,3.3438 -1.17032,3.3438z" data-paper-data="{&quot;index&quot;:null}" fill="url(#color-15)" stroke="#1c1c1c" stroke-width="0.75" stroke-linecap="butt"/><path d="M154.70754,247.49064c0,0 -1.13094,1.00314 -3.51098,1.00314c-6.1385,0 -33.56123,0 -44.13807,0c-2.59811,0 -3.17659,-0.66875 -3.17659,-0.66875c0,0 -1.00314,-1.17111 -1.00314,-2.67503c0,-2.11688 0,-7.98482 0,-11.53609c0,-1.68049 0.66875,-2.00628 0.66875,-2.00628c0,0 0.37908,-0.83596 2.17346,-0.83596c9.71729,0 41.32795,0 46.9803,0c1.69081,0 2.00628,1.17032 2.00628,1.17032c0,0 1.17032,1.10632 1.17032,2.84223c0,1.84075 0,6.08142 0,9.36263c0,2.43841 -1.17032,3.3438 -1.17032,3.3438z" data-paper-data="{&quot;index&quot;:null}" fill="url(#color-16)" stroke="#1c1c1c" stroke-width="0.75" stroke-linecap="butt"/><path d="M29.23115,248.80288v-41.23154h5.35008v41.23154z" data-paper-data="{&quot;index&quot;:null}" fill="#555555" stroke="#000000" stroke-width="0" stroke-linecap="butt"/><path d="M157.09993,235.76208v-25.7472h4.82758v25.7472z" data-paper-data="{&quot;index&quot;:null}" fill="#8c8c8c" stroke="#000000" stroke-width="0" stroke-linecap="butt"/><path d="M340.20393,230.07762c0,0 -22.37637,3.71905 -37.14043,4.61514c-21.33024,1.2946 -78.55484,2.40683 -78.55484,2.40683" data-paper-data="{&quot;index&quot;:null}" fill="none" stroke="#70767b" stroke-width="0.5" stroke-linecap="round"/><path d="M199.43024,240.44338c0,0 7.19719,-5.63688 28.15594,-8.92921c12.49037,-1.96206 30.50602,-1.62946 45.45597,-2.84829c13.03407,-1.06262 23.41698,-3.70559 29.90318,-4.91796c16.81189,-3.14242 39.59926,-10.05489 39.59926,-10.05489c0,0 -29.94176,12.53578 -49.00802,16.47462c-18.11231,3.74177 -62.67468,6.59755 -62.67468,6.59755" data-paper-data="{&quot;index&quot;:null}" fill="none" stroke="#70767b" stroke-width="0.5" stroke-linecap="round"/><path d="M357.25727,208.00858c0,0 -44.83834,9.77584 -66.8037,12.59915c-21.37648,2.74761 -63.26986,4.11983 -63.26986,4.11983" data-paper-data="{&quot;index&quot;:null}" fill="none" stroke="#70767b" stroke-width="0.5" stroke-linecap="round"/><path d="M271.81779,238.59315c-0.18934,0.56797 -2.14004,1.29293 -2.14004,1.29293l-37.45049,-0.22291l1.33753,-2.67503l37.22758,-0.44584c0,0 1.20734,1.50514 1.02542,2.05086z" data-paper-data="{&quot;index&quot;:null}" fill="#5d6164" stroke="#000000" stroke-width="0" stroke-linecap="round"/><path d="M296.42811,242.56112l-78.6906,0.44584l47.48186,-2.45211l30.98583,-1.1146z" data-paper-data="{&quot;index&quot;:null}" fill="none" stroke="#70767b" stroke-width="0.5" stroke-linecap="round"/><path d="M197.99244,244.65656l-13.24142,0.40126l0.40126,-10.43263l18.05648,-2.40753z" data-paper-data="{&quot;index&quot;:null}" fill="#636363" stroke="#000000" stroke-width="0" stroke-linecap="round"/><path d="M279.76348,235.5859c0,0 26.95311,-1.30606 37.73815,-2.14978c8.09234,-0.63308 22.85138,-3.06654 22.85138,-3.06654l8.82761,4.21318l-53.16631,5.01569" data-paper-data="{&quot;index&quot;:null}" fill="none" stroke="#70767b" stroke-width="0.5" stroke-linecap="round"/><path d="M350.58502,244.21289l-7.82448,-3.41067l-0.60188,-3.81192l8.22573,-0.40126" data-paper-data="{&quot;index&quot;:null}" fill="none" stroke="#70767b" stroke-width="0.5" stroke-linecap="round"/><path d="M170.54823,252.18786v-7.02197h20.81512v7.02197z" data-paper-data="{&quot;index&quot;:null}" fill="#9d9c9b" stroke="#000000" stroke-width="0" stroke-linecap="butt"/><path d="M343.08797,246.21142l-40.12555,-0.50157l-0.75236,-6.26962l39.87474,-3.76177z" data-paper-data="{&quot;index&quot;:null}" fill="#9d9c9b" stroke="#5b6064" stroke-width="0.5" stroke-linecap="round"/><path d="M350.3607,246.46221l-19.81198,-10.03138l3.51098,-0.25079l16.301,7.77433z" data-paper-data="{&quot;index&quot;:null}" fill="#464543" stroke="#70767b" stroke-width="0.5" stroke-linecap="round"/><path d="M302.96246,251.4779l-0.25079,-5.51726l40.12552,0.25079l-0.25079,4.76491z" data-paper-data="{&quot;index&quot;:null}" fill="#9d9c9b" stroke="#5b6064" stroke-width="0.5" stroke-linecap="round"/><path d="M301.95929,246.96378l-5.26648,-3.76177v-2.50784l5.51726,2.00628z" data-paper-data="{&quot;index&quot;:null}" fill="none" stroke="#70767b" stroke-width="0.5" stroke-linecap="round"/><path d="M264.59241,246.96378l37.86846,-0.25079" data-paper-data="{&quot;index&quot;:null}" fill="none" stroke="#5b6064" stroke-width="0.5" stroke-linecap="round"/><path d="M293.6834,242.70044l0.75236,3.76177" data-paper-data="{&quot;index&quot;:null}" fill="none" stroke="#70767b" stroke-width="0.5" stroke-linecap="round"/><path d="M125.74737,211.60316v-6.01883h6.59204v6.01883z" data-paper-data="{&quot;index&quot;:null}" fill="#d5d5d5" stroke="#000000" stroke-width="0" stroke-linecap="butt"/><path d="M61.83315,211.60316v-5.73221h6.01883v5.73221z" data-paper-data="{&quot;index&quot;:null}" fill="#d5d5d5" stroke="#000000" stroke-width="0" stroke-linecap="butt"/><path d="M27.72648,207.87722v-2.29289h7.16527v2.29289z" data-paper-data="{&quot;index&quot;:null}" fill="#303030" stroke="#000000" stroke-width="0" stroke-linecap="butt"/><path d="M126.89382,197.84584l5.73221,-0.28661" data-paper-data="{&quot;index&quot;:null}" fill="none" stroke="#000000" stroke-width="0" stroke-linecap="round"/><path d="M132.62603,192.97346h-6.59204" data-paper-data="{&quot;index&quot;:null}" fill="none" stroke="#000000" stroke-width="0" stroke-linecap="round"/><path d="M67.56536,192.97346h-6.01883" data-paper-data="{&quot;index&quot;:null}" fill="none" stroke="#000000" stroke-width="0" stroke-linecap="round"/><path d="M452.7393,153.6724l-6.26962,-1.88825v-3.3192c0,0 1.47205,-0.33885 2.43763,-0.09683c0.95701,0.23987 3.33042,1.4245 3.33042,1.4245z" data-paper-data="{&quot;index&quot;:null}" fill="#cfd0d2" stroke="#000000" stroke-width="0.5" stroke-linecap="round"/><path d="M451.1269,207.27007c0,0 0.22764,-2.20006 -0.09746,-3.60877c-0.2359,-1.02226 -1.57377,-2.62324 -1.7908,-3.70824c-0.21703,-1.08498 0.22041,-1.92695 0.491,-2.78943c0.34197,-1.09003 1.37805,-1.14711 1.16125,-3.70146c-0.2168,-2.55435 -1.98242,-3.74916 -2.00628,-6.25484c-0.02386,-2.50568 1.88826,-6.13686 1.88826,-6.13686l-0.40126,-1.85718c0,0 -1.91212,-3.63118 -1.88826,-6.13686c0.02386,-2.50568 1.78948,-3.70049 2.00628,-6.25484c0.2168,-2.55435 -0.81928,-2.61143 -1.16125,-3.70146c-0.27059,-0.86247 -0.70803,-1.70445 -0.491,-2.78943c0.21703,-1.08499 1.5549,-2.68598 1.7908,-3.70824c0.3251,-1.40871 0.09746,-3.60877 0.09746,-3.60877" data-paper-data="{&quot;index&quot;:null}" fill="none" stroke="#000000" stroke-width="0.5" stroke-linecap="round"/><path d="M377.56869,144.05757c0,0 26.02993,3.35311 37.98663,5.2165c10.81491,1.68545 30.67261,5.48366 30.67261,5.48366" data-paper-data="{&quot;index&quot;:null}" fill="none" stroke="#70767b" stroke-width="0.5" stroke-linecap="round"/><path d="M365.08521,124.21774c0,0 0.34483,-6.22224 1.16472,-8.18998c0.58684,-1.40843 3.29367,-2.51015 3.29367,-2.51015" data-paper-data="{&quot;index&quot;:null}" fill="none" stroke="#70767b" stroke-width="0.5" stroke-linecap="round"/><path d="M372.21862,124.21774c0,0 31.5903,6.14626 45.02543,9.15899c10.1573,2.27768 28.53803,7.33705 28.53803,7.33705l6.24174,6.9105c0,0 -22.98157,-7.66933 -35.6761,-10.88765c-13.61923,-3.45276 -43.46034,-9.17511 -43.46034,-9.17511z" data-paper-data="{&quot;index&quot;:null}" fill="none" stroke="#70767b" stroke-width="0.5" stroke-linecap="round"/><path d="M365.00766,124.47943l6.98804,-0.26167l0.22291,2.22919l-8.65509,-0.44584z" data-paper-data="{&quot;index&quot;:null}" fill="none" stroke="#70767b" stroke-width="0.5" stroke-linecap="round"/><path d="M368.67927,178.59419c0,0 -0.30995,-26.07622 -2.30845,-34.81966c-1.80277,-7.8871 -9.15599,-15.33724 -9.15599,-15.33724c0,0 3.98649,-2.33986 6.15734,-2.36853c2.86061,-0.03778 9.37192,0.87178 9.37192,0.87178c0,0 3.682,10.92983 4.61323,18.00721c0.45721,3.47484 1.74317,9.13935 2.09725,14.86288c0.59023,9.54066 0.52165,21.41717 0.52165,21.41717c0,0 0.46982,9.70468 -0.12039,19.24535c-0.35409,5.72352 -1.64006,11.38804 -2.09725,14.86288c-0.93124,7.07737 -4.61323,18.00721 -4.61323,18.00721c0,0 -6.51131,0.90956 -9.37192,0.87178c-2.17086,-0.02867 -6.15734,-2.36853 -6.15734,-2.36853c0,0 7.35322,-7.45014 9.15599,-15.33724c1.99852,-8.74345 1.87853,-34.81966 1.87853,-34.81966z" data-paper-data="{&quot;index&quot;:null}" fill="none" stroke="#70767b" stroke-width="0.5" stroke-linecap="round"/><path d="M358.0932,231.51066c0,0 7.11344,-7.16993 8.82459,-15.73727c3.15234,-15.78295 2.08515,-43.3612 0.85932,-59.86047c-0.42831,-5.765 -0.32129,-7.85618 -1.21296,-11.11796c-1.90231,-6.95871 -9.02824,-15.93874 -9.02824,-15.93874c0,0 3.23632,-1.97419 4.87285,-2.44888c1.58816,-0.46066 5.69728,0.3103 5.69728,0.3103c0,0 5.8406,9.84907 7.31055,17.97838c1.65967,9.17849 2.54886,36.56364 2.54886,36.56364c0,0 -0.48793,25.14959 -2.1476,34.32808c-1.46995,8.12931 -7.31055,17.97838 -7.31055,17.97838c0,0 -4.62951,0.22141 -6.45,-0.13791c-1.62969,-0.32166 -3.96408,-1.91753 -3.96408,-1.91753z" data-paper-data="{&quot;index&quot;:null}" fill="#4e4f51" stroke="#000000" stroke-width="0" stroke-linecap="round"/><path d="M368.61558,177.30443c0,0 -0.09392,-22.49149 -1.57644,-30.73332c-0.38765,-2.15508 -0.76366,-4.41516 -1.70782,-6.53133c-2.26081,-5.06732 -5.74399,-9.30958 -5.74399,-9.30958c0,0 5.81436,-2.43028 8.60302,0.59093c2.43704,2.64028 3.53801,9.06062 4.47727,12.57259c2.33349,8.72519 2.18971,34.70048 2.18971,34.70048l0.03504,3.0954c0,0 0.51002,25.97527 -1.82349,34.70048c-0.93925,3.51197 -2.04022,9.93232 -4.47727,12.57259c-2.78864,3.02121 -8.60302,0.59093 -8.60302,0.59093c0,0 3.48317,-4.24227 5.74399,-9.30958c0.94416,-2.11618 1.32016,-4.37625 1.70782,-6.53133c1.48252,-8.24182 1.1306,-30.73332 1.1306,-30.73332z" data-paper-data="{&quot;index&quot;:null}" fill="url(#color-17)" stroke="#000000" stroke-width="0" stroke-linecap="round"/><path d="M356.355,111.95713c0,0 3.05317,3.68779 4.38397,5.57102c1.18362,1.67497 3.21122,5.17689 3.21122,5.17689c0,0 0.17148,1.8025 -0.72667,2.58838c-1.26598,1.10774 -2.67272,1.8612 -5.29215,2.85723c-1.37664,0.52347 -2.91295,-0.49703 -4.29135,-1.21237c-1.35393,-0.70263 -3.30383,-2.51357 -3.30383,-2.51357l0.22928,-11.89435l0.77384,0.14331z" data-paper-data="{&quot;index&quot;:null}" fill="#636564" stroke="#000000" stroke-width="0" stroke-linecap="round"/><path d="M354.34874,124.71135l-1.14645,-9.88807l6.59204,7.8818c0,0 -2.12322,1.35069 -3.11335,1.61126c-0.76802,0.20212 -2.33223,0.39501 -2.33223,0.39501z" data-paper-data="{&quot;index&quot;:null}" fill="#a3acb3" stroke="#000000" stroke-width="0" stroke-linecap="round"/><path d="M351.33931,112.6737l-5.3023,-7.16527c0,0 -2.04598,-1.42734 1.25393,-2.29289c3.29991,-0.86555 7.4877,0 7.4877,0c0,0 2.186,2.12492 2.2632,3.59174c0.06335,1.20362 -1.26006,4.8633 -1.26006,4.8633z" data-paper-data="{&quot;index&quot;:null}" fill="#d0d1d3" stroke="#000000" stroke-width="0" stroke-linecap="round"/><path d="M361.01768,117.6759l5.18215,0.07719c0,0 28.03885,-0.40425 40.58037,-0.28594c10.83854,0.10225 30.30805,0.95469 30.30805,0.95469" data-paper-data="{&quot;index&quot;:null}" fill="none" stroke="#70767b" stroke-width="0.5" stroke-linecap="round"/><path d="M348.4732,103.50215c0,0 4.10146,6.52513 5.00103,8.74756c0.58487,1.44498 0.73119,3.57671 0.73119,3.57671" data-paper-data="{&quot;index&quot;:null}" fill="none" stroke="#000000" stroke-width="0" stroke-linecap="round"/><path d="M366.35486,216.43893c-1.40656,7.19821 -8.95373,15.40754 -8.95373,15.40754c0,0 -2.10566,0.293 -3.06796,0.75124c-1.0382,0.49438 -2.95087,2.11487 -2.95087,2.11487l-11.46444,-4.58577c0,0 12.48743,-0.9407 15.16313,-8.03538c3.43707,-9.11347 3.75318,-41.8349 3.75318,-41.8349c0,0 -0.71737,-32.95071 -4.15444,-42.06418c-2.67571,-7.09467 -15.16313,-8.03538 -15.16313,-8.03538c0,0 4.24096,-1.69639 6.22688,-2.49075c1.82131,-0.72852 5.23756,-2.09502 5.23756,-2.09502c0,0 1.91267,1.62049 2.95087,2.11487c0.9623,0.45824 3.06796,0.75124 3.06796,0.75124c0,0 7.54717,8.20932 8.95373,15.40754c1.76126,9.01352 2.51071,34.46274 2.51071,34.46274c0,0 -0.3482,29.11783 -2.10946,38.13135z" data-paper-data="{&quot;index&quot;:null}" fill="none" stroke="#70767b" stroke-width="0.5" stroke-linecap="round"/><path d="M435.18491,133.19025c0,0 1.37426,2.93048 1.7326,4.41901c0.36598,1.52021 0.44087,5.44518 0.44087,5.44518l-10.36577,-3.51098l0.33439,-6.18601z" data-paper-data="{&quot;index&quot;:null}" fill="#606062" stroke="#70767b" stroke-width="0.5" stroke-linecap="round"/><path d="M445.21633,137.2028l0.33439,3.51098" data-paper-data="{&quot;index&quot;:null}" fill="none" stroke="#000000" stroke-width="0.5" stroke-linecap="round"/><path d="M435.85366,118.31039c0,0 3.91274,5.30441 5.54079,8.17897c1.8973,3.3499 5.15936,10.71346 5.15936,10.71346" data-paper-data="{&quot;index&quot;:null}" fill="none" stroke="#000000" stroke-width="0.5" stroke-linecap="round"/><path d="M89.56061,112.83638c0,0 1.17032,0.9054 1.17032,3.3438c0,3.28121 0,7.52188 0,9.36263c0,1.73591 -1.17032,2.84223 -1.17032,2.84223c0,0 -0.31546,1.17032 -2.00628,1.17032c-5.65236,0 -37.26301,0 -46.9803,0c-1.79437,0 -2.17346,-0.83596 -2.17346,-0.83596c0,0 -0.66875,-0.32578 -0.66875,-2.00628c0,-3.55126 0,-9.41921 0,-11.53609c0,-1.50392 1.00314,-2.67503 1.00314,-2.67503c0,0 0.57849,-0.66875 3.17659,-0.66875c10.57684,0 37.99957,0 44.13807,0c2.38004,0 3.51098,1.00314 3.51098,1.00314z" data-paper-data="{&quot;index&quot;:null}" fill="url(#color-18)" stroke="#1c1c1c" stroke-width="0.75" stroke-linecap="butt"/><path d="M89.56061,131.72878c0,0 1.17032,0.9054 1.17032,3.3438c0,3.28121 0,7.52188 0,9.36263c0,1.73591 -1.17032,2.84223 -1.17032,2.84223c0,0 -0.31546,1.17032 -2.00628,1.17032c-5.65236,0 -37.26301,0 -46.9803,0c-1.79437,0 -2.17346,-0.83596 -2.17346,-0.83596c0,0 -0.66875,-0.32578 -0.66875,-2.00628c0,-3.55126 0,-9.41921 0,-11.53609c0,-1.50392 1.00314,-2.67503 1.00314,-2.67503c0,0 0.57849,-0.66875 3.17659,-0.66875c10.57684,0 37.99957,0 44.13807,0c2.38004,0 3.51098,1.00314 3.51098,1.00314z" data-paper-data="{&quot;index&quot;:null}" fill="url(#color-19)" stroke="#1c1c1c" stroke-width="0.75" stroke-linecap="butt"/><path d="M154.09581,131.72878c0,0 1.17032,0.9054 1.17032,3.3438c0,3.28121 0,7.52188 0,9.36263c0,1.73591 -1.17032,2.84223 -1.17032,2.84223c0,0 -0.31546,1.17032 -2.00628,1.17032c-5.65236,0 -37.26301,0 -46.9803,0c-1.79437,0 -2.17346,-0.83596 -2.17346,-0.83596c0,0 -0.66875,-0.32578 -0.66875,-2.00628c0,-3.55126 0,-9.41921 0,-11.53609c0,-1.50392 1.00314,-2.67503 1.00314,-2.67503c0,0 0.57849,-0.66875 3.17659,-0.66875c10.57684,0 37.99957,0 44.13807,0c2.38004,0 3.51098,1.00314 3.51098,1.00314z" data-paper-data="{&quot;index&quot;:null}" fill="url(#color-20)" stroke="#1c1c1c" stroke-width="0.75" stroke-linecap="butt"/><path d="M154.09583,113.00357c0,0 1.17032,0.9054 1.17032,3.3438c0,3.28121 0,7.52188 0,9.36263c0,1.73591 -1.17032,2.84223 -1.17032,2.84223c0,0 -0.31546,1.17032 -2.00628,1.17032c-5.65236,0 -37.26301,0 -46.9803,0c-1.79437,0 -2.17346,-0.83596 -2.17346,-0.83596c0,0 -0.66875,-0.32578 -0.66875,-2.00628c0,-3.55126 0,-9.41921 0,-11.53609c0,-1.50392 1.00314,-2.67503 1.00314,-2.67503c0,0 0.57849,-0.66875 3.17659,-0.66875c10.57684,0 37.99957,0 44.13807,0c2.38004,0 3.51098,1.00314 3.51098,1.00314z" data-paper-data="{&quot;index&quot;:null}" fill="url(#color-21)" stroke="#1c1c1c" stroke-width="0.75" stroke-linecap="butt"/><path d="M34.17999,111.4809v41.23154h-5.35008v-41.23154z" data-paper-data="{&quot;index&quot;:null}" fill="#555555" stroke="#000000" stroke-width="0" stroke-linecap="butt"/><path d="M161.87015,124.52169v25.7472h-4.57915v-25.7472z" data-paper-data="{&quot;index&quot;:null}" fill="#8c8c8c" stroke="#000000" stroke-width="0" stroke-linecap="butt"/><path d="M224.10742,123.18419c0,0 57.22458,1.11222 78.55484,2.40683c14.76404,0.89609 37.14043,4.61514 37.14043,4.61514" data-paper-data="{&quot;index&quot;:null}" fill="none" stroke="#70767b" stroke-width="0.5" stroke-linecap="round"/><path d="M230.46064,123.51858c0,0 44.56235,2.85579 62.67468,6.59755c19.06626,3.93884 49.00802,16.47462 49.00802,16.47462c0,0 -22.78736,-6.91249 -39.59926,-10.05489c-6.4862,-1.21237 -16.86911,-3.85534 -29.90318,-4.91796c-14.94995,-1.21884 -32.9656,-0.88623 -45.45597,-2.84829c-20.95874,-3.29235 -28.15594,-8.92921 -28.15594,-8.92921" data-paper-data="{&quot;index&quot;:null}" fill="none" stroke="#70767b" stroke-width="0.5" stroke-linecap="round"/><path d="M226.78246,135.55622c0,0 41.89337,1.37221 63.26986,4.11983c21.96535,2.82331 66.8037,12.59915 66.8037,12.59915" data-paper-data="{&quot;index&quot;:null}" fill="none" stroke="#70767b" stroke-width="0.5" stroke-linecap="round"/><path d="M313.86044,179.47137l0.44584,-23.40656c0,0 0.70498,-0.3982 2.45646,-0.31878c4.74294,0.21511 14.33628,1.10933 16.96265,1.47702c1.38321,0.19364 2.67854,0.59418 2.87284,1.96264c0.1943,1.36846 0.22291,19.83985 0.22291,19.83985c0,0 0.37264,20.70409 0.17834,22.07255c-0.1943,1.36846 -1.48964,1.769 -2.87284,1.96264c-2.62635,0.3677 -12.21971,1.2619 -16.96265,1.47702c-1.75148,0.07942 -2.45646,-0.31878 -2.45646,-0.31878z" data-paper-data="{&quot;index&quot;:null}" fill="#727375" stroke="#000000" stroke-width="0" stroke-linecap="round"/><path d="M316.33484,178.33449l0.22291,-20.73151l17.61065,2.67503l0.44584,18.50232l-0.04458,21.6267l-17.61065,2.67503z" data-paper-data="{&quot;index&quot;:null}" fill="url(#color-22)" stroke="#000000" stroke-width="0" stroke-linecap="round"/><path d="M270.39109,123.74148l-37.22758,-0.44584l-1.33753,-2.67503l37.45049,-0.22291c0,0 1.9507,0.72494 2.14004,1.29293c0.18191,0.5457 -1.02542,2.05086 -1.02542,2.05086z" data-paper-data="{&quot;index&quot;:null}" fill="#5d6164" stroke="#000000" stroke-width="0" stroke-linecap="round"/><path d="M295.80393,120.84353l-30.98583,-1.1146l-47.48186,-2.45211l78.6906,0.44584z" data-paper-data="{&quot;index&quot;:null}" fill="none" stroke="#70767b" stroke-width="0.5" stroke-linecap="round"/><path d="M225.79893,207.34482c0.08118,11.60755 0.89967,23.92105 -1.34115,29.15899c-3.99118,9.32941 -26.8332,7.55087 -26.8332,7.55087c0,0 10.32597,-20.00364 14.88554,-30.66501c4.53541,-10.60483 5.9463,-34.76539 5.9463,-34.76539c0,0 -1.81214,-21.12534 -6.34755,-31.73017c-4.55959,-10.66137 -14.88554,-30.66501 -14.88554,-30.66501c0,0 22.84202,-1.77854 26.8332,7.55087c2.24083,5.23794 1.42233,17.55144 1.34115,29.15899c-0.09203,13.16281 0.38166,25.41783 0.38166,25.41783c0,0 -0.07242,15.82523 0.0196,28.98804z" data-paper-data="{&quot;index&quot;:null}" fill="none" stroke="#000000" stroke-width="0" stroke-linecap="round"/><path d="M202.80746,128.06612l-18.05648,-2.40753l-0.40126,-10.43263l13.24142,0.40126z" data-paper-data="{&quot;index&quot;:null}" fill="#636363" stroke="#000000" stroke-width="0" stroke-linecap="round"/><path d="M295.61306,120.68532l53.16631,5.01569l-8.82761,4.21318c0,0 -14.75905,-2.43346 -22.85138,-3.06654c-10.78503,-0.84372 -37.73815,-2.14978 -37.73815,-2.14978" data-paper-data="{&quot;index&quot;:null}" fill="none" stroke="#70767b" stroke-width="0.5" stroke-linecap="round"/><path d="M349.98317,123.69473l-8.22573,-0.40126l0.60188,-3.81192l7.82448,-3.41067" data-paper-data="{&quot;index&quot;:null}" fill="none" stroke="#70767b" stroke-width="0.5" stroke-linecap="round"/><path d="M429.85707,119.51608l6.54587,10.82859c0,0 -7.25239,-1.79963 -9.73184,-3.77402c-2.47946,-1.97438 -6.30246,-4.31476 -6.30246,-4.31476" data-paper-data="{&quot;index&quot;:null}" fill="none" stroke="#ebebff" stroke-width="0.5" stroke-linecap="round"/><path d="M190.96207,108.09591v7.02197h-20.81512v-7.02197z" data-paper-data="{&quot;index&quot;:null}" fill="#9d9c9b" stroke="#000000" stroke-width="0" stroke-linecap="butt"/><path d="M341.68355,124.6053l-39.87474,-3.76177l0.75236,-6.26962l40.12555,-0.50157z" data-paper-data="{&quot;index&quot;:null}" fill="#9d9c9b" stroke="#5b6064" stroke-width="0.5" stroke-linecap="round"/><path d="M349.95945,116.32941l-16.301,7.77433l-3.51098,-0.25079l19.81198,-10.03138z" data-paper-data="{&quot;index&quot;:null}" fill="#464543" stroke="#70767b" stroke-width="0.5" stroke-linecap="round"/><path d="M342.18515,109.30744l0.25079,4.76491l-40.12552,0.25079l0.25079,-5.51726z" data-paper-data="{&quot;index&quot;:null}" fill="#9d9c9b" stroke="#5b6064" stroke-width="0.5" stroke-linecap="round"/><path d="M301.80884,117.58334l-5.51726,2.00628v-2.50784l5.26648,-3.76177z" data-paper-data="{&quot;index&quot;:null}" fill="none" stroke="#70767b" stroke-width="0.5" stroke-linecap="round"/><path d="M302.05963,113.57078l-37.86846,-0.25079" data-paper-data="{&quot;index&quot;:null}" fill="none" stroke="#70767b" stroke-width="0.5" stroke-linecap="round"/><path d="M293.28217,117.58334l0.75236,-3.76177" data-paper-data="{&quot;index&quot;:null}" fill="none" stroke="#70767b" stroke-width="0.5" stroke-linecap="round"/><path d="M428.20424,174.00981c0,0 5.64281,0.9958 7.10643,1.25408c0.65431,0.11546 1.08586,0.75219 1.08586,0.75219c0,0 0.37321,0.39411 0.40566,1.1423c0.04385,1.01187 0.16295,3.75844 0.24536,5.65933c0.04872,1.12346 0.08462,1.28275 0.08462,1.28275c0,0 -0.60114,0.77484 -1.15128,0.87192c-1.39247,0.24573 -7.37539,1.30155 -7.37539,1.30155" data-paper-data="{&quot;index&quot;:null}" fill="none" stroke="#000000" stroke-width="0.5" stroke-linecap="round"/><path d="M433.37038,185.02001l-0.25079,-4.01255l-0.15048,-5.74369" data-paper-data="{&quot;index&quot;:null}" fill="none" stroke="#000000" stroke-width="0.5" stroke-linecap="round"/><path d="M217.2891,194.1408c-0.71139,3.84149 -2.69239,11.44353 -2.69239,11.44353l-0.97448,-27.66941l0.57323,-23.21548c0,0 1.981,7.60204 2.69239,11.44353c0.72151,3.89622 1.03355,11.77195 1.03355,11.77195" data-paper-data="{&quot;index&quot;:null}" fill="none" stroke="#000000" stroke-width="0" stroke-linecap="round"/><path d="M131.93818,148.68061v6.01883h-6.59204v-6.01883z" data-paper-data="{&quot;index&quot;:null}" fill="#d5d5d5" stroke="#000000" stroke-width="0" stroke-linecap="butt"/><path d="M67.45073,148.68061v5.73221h-6.01883v-5.73221z" data-paper-data="{&quot;index&quot;:null}" fill="#d5d5d5" stroke="#000000" stroke-width="0" stroke-linecap="butt"/><path d="M34.49046,152.40655v2.29289h-7.16527v-2.29289z" data-paper-data="{&quot;index&quot;:null}" fill="#303030" stroke="#000000" stroke-width="0" stroke-linecap="butt"/><path d="M126.49257,162.43793l5.73221,0.28661" data-paper-data="{&quot;index&quot;:null}" fill="none" stroke="#000000" stroke-width="0" stroke-linecap="round"/><path d="M132.22478,167.31031h-6.59204" data-paper-data="{&quot;index&quot;:null}" fill="none" stroke="#000000" stroke-width="0" stroke-linecap="round"/><path d="M61.1453,167.31031h6.01883" data-paper-data="{&quot;index&quot;:null}" fill="none" stroke="#000000" stroke-width="0" stroke-linecap="round"/><path d="M61.43189,162.72454l5.73221,-0.28661" data-paper-data="{&quot;index&quot;:null}" fill="none" stroke="#000000" stroke-width="0" stroke-linecap="round"/><path d="M435.58618,226.92631l-2.84223,12.53922c0,0 -1.5226,-1.68917 -2.50865,-2.1422c-1.06923,-0.49126 -3.67736,-0.7 -3.67736,-0.7l1.17032,-9.8642z" data-paper-data="{&quot;index&quot;:null}" fill="#606062" stroke="#70767b" stroke-width="0.5" stroke-linecap="round"/><path d="M427.327,133.52464l-1.17032,-9.8642c0,0 2.60814,-0.20875 3.67736,-0.7c0.98604,-0.45304 2.50865,-2.1422 2.50865,-2.1422l2.84223,12.53922z" data-paper-data="{&quot;index&quot;:null}" fill="#606062" stroke="#70767b" stroke-width="0.5" stroke-linecap="round"/><path d="M423.81602,108.94777c0,0 4.5722,-0.83973 5.99706,0.32344c1.29308,1.05558 2.19522,6.36415 2.19522,6.36415c0,0 0.62656,4.14972 -0.16216,5.10899c-0.47718,0.58033 -1.27507,1.93367 -2.43079,2.33917c-1.60668,0.56374 -3.59306,0.07536 -3.59306,0.07536z" data-paper-data="{&quot;index&quot;:null}" fill="#c2c3c5" stroke="#70767b" stroke-width="0.5" stroke-linecap="round"/><path d="M430.83798,122.15573l-3.3438,-13.37518" data-paper-data="{&quot;index&quot;:null}" fill="none" stroke="#70767b" stroke-width="0.5" stroke-linecap="round"/><path d="M184.94324,114.8671v10.28217h-20.56433v-10.28217z" data-paper-data="{&quot;index&quot;:null}" fill="#9d9c9b" stroke="#000000" stroke-width="0" stroke-linecap="butt"/><path d="M164.7802,245.41668v-10.28217h20.56433v10.28217z" data-paper-data="{&quot;index&quot;:null}" fill="#9d9c9b" stroke="#000000" stroke-width="0" stroke-linecap="butt"/><path d="M283.51852,143.10142c23.89109,1.03414 42.91954,3.91637 42.5012,6.43764c-0.41832,2.52127 -20.125,3.72684 -44.01609,2.69268c-23.89109,-1.03414 -42.91954,-3.91637 -42.5012,-6.43764c0.41832,-2.52127 20.125,-3.72684 44.01609,-2.69268z" data-paper-data="{&quot;index&quot;:null}" fill="url(#color-23)" stroke="none" stroke-width="0" stroke-linecap="butt"/><path d="M285.4827,217.82156c-23.89109,1.03414 -43.59777,-0.17141 -44.01609,-2.69268c-0.41832,-2.52127 18.61011,-5.40349 42.5012,-6.43764c23.89109,-1.03415 43.59777,0.1714 44.01609,2.69267c0.41832,2.52127 -18.61011,5.40349 -42.5012,6.43764z" data-paper-data="{&quot;index&quot;:null}" fill="url(#color-24)" stroke="none" stroke-width="0" stroke-linecap="butt"/><path d="M-69.16916,361.63479v-360.53868h609.98601v360.53869z" fill="none" stroke="none" stroke-width="0" stroke-linecap="butt"/></g></g></svg>