<svg version="1.1" xmlns="http://www.w3.org/2000/svg" xmlns:xlink="http://www.w3.org/1999/xlink" width="292.71415" height="170.57135" viewBox="0,0,292.71415,170.57135"><g transform="translate(-90.15248,-91.35976)"><g data-paper-data="{&quot;isPaintingLayer&quot;:true}" fill-rule="nonzero" stroke-linejoin="miter" stroke-miterlimit="10" stroke-dasharray="" stroke-dashoffset="0" style="mix-blend-mode: normal"><path d="M90.15248,261.93111v-170.57135h292.71415v170.57135z" fill="none" stroke="none" stroke-width="0" stroke-linecap="butt"/><path d="M214.1124,192.16127c0,-7.90622 0,-19.9598 0,-24.40222c0,-3.2697 3.24532,-7.24873 6.87018,-7.24873c11.46379,0 18.51117,0 38.53867,0c4.00298,0 6.36637,3.87183 6.36637,7.08044c0,4.1896 0,15.96947 0,23.89734c0,4.95934 -2.56286,8.00158 -6.87124,8.00158c-20.52857,0 -26.66474,0 -38.03379,0c-3.62486,0 -6.87018,-3.0597 -6.87018,-7.32841z" fill-opacity="0.2902" fill="#ececec" stroke="none" stroke-width="0" stroke-linecap="butt"/><text transform="translate(222.94346,195.14455) scale(0.20936,0.20936)" font-size="40" xml:space="preserve" fill="#e0e0e0" fill-rule="nonzero" stroke="#e0e0e0" stroke-width="2" stroke-linecap="butt" stroke-linejoin="miter" stroke-miterlimit="10" stroke-dasharray="" stroke-dashoffset="0" font-family="Sans Serif" font-weight="normal" text-anchor="start" style="mix-blend-mode: normal"><tspan x="0" dy="0">游戏设定</tspan></text><g fill="none" stroke="#e0e0e0" stroke-width="2"><path d="M235.46832,175.26176c0,-2.38835 1.93614,-4.32448 4.32448,-4.32448c2.38835,0 4.32449,1.93614 4.32449,4.32448c0,2.38835 -1.93614,4.32449 -4.32449,4.32449c-2.38835,0 -4.32448,-1.93615 -4.32448,-4.32449z" stroke-linecap="butt"/><path d="M230.37344,172.52486l2.25466,-4.11143l1.72415,0.9726l3.09463,-1.90098l0.08841,-1.81258h4.64195l0.04421,1.9452l2.962,1.81257l1.76836,-0.88418l2.29887,3.9346l-1.67995,1.10523l0.04421,3.58093l1.63573,0.83997l-2.34308,4.06723l-1.63573,-0.9726l-3.13883,1.81257l-0.04421,1.94519h-4.55353l-0.08841,-1.9894l-3.05042,-1.76836l-1.72415,0.92839l-2.38729,-3.97881l1.63574,-0.92839l0.08841,-3.71356z" stroke-linecap="round"/></g></g></g></svg>