<svg version="1.1" xmlns="http://www.w3.org/2000/svg" xmlns:xlink="http://www.w3.org/1999/xlink" width="59.38137" height="24.01869" viewBox="0,0,59.38137,24.01869"><defs><radialGradient cx="231.0861" cy="179.86804" r="11.85294" gradientUnits="userSpaceOnUse" id="color-1"><stop offset="0" stop-color="#000000"/><stop offset="1" stop-color="#000000" stop-opacity="0"/></radialGradient><radialGradient cx="239.71554" cy="179.84359" r="11.85294" gradientUnits="userSpaceOnUse" id="color-2"><stop offset="0" stop-color="#000000"/><stop offset="1" stop-color="#000000" stop-opacity="0"/></radialGradient><radialGradient cx="248.76708" cy="179.96436" r="11.85294" gradientUnits="userSpaceOnUse" id="color-3"><stop offset="0" stop-color="#000000"/><stop offset="1" stop-color="#000000" stop-opacity="0"/></radialGradient><radialGradient cx="257.73059" cy="180.15641" r="11.85294" gradientUnits="userSpaceOnUse" id="color-4"><stop offset="0" stop-color="#000000"/><stop offset="1" stop-color="#000000" stop-opacity="0"/></radialGradient><radialGradient cx="222.0551" cy="179.89248" r="11.85294" gradientUnits="userSpaceOnUse" id="color-5"><stop offset="0" stop-color="#000000"/><stop offset="1" stop-color="#000000" stop-opacity="0"/></radialGradient></defs><g transform="translate(-210.20215,-167.99065)"><g data-paper-data="{&quot;isPaintingLayer&quot;:true}" fill-rule="nonzero" stroke-linejoin="miter" stroke-miterlimit="10" stroke-dasharray="" stroke-dashoffset="0" style="mix-blend-mode: normal"><path d="M219.23317,179.86804c0,-6.5462 5.30674,-11.85294 11.85293,-11.85294c6.5462,0 11.85294,5.30674 11.85294,11.85294c0,6.5462 -5.30674,11.85294 -11.85294,11.85294c-6.5462,0 -11.85293,-5.30675 -11.85293,-11.85294z" fill="url(#color-1)" stroke="none" stroke-width="0" stroke-linecap="butt"/><path d="M227.8626,179.84359c0,-6.5462 5.30675,-11.85294 11.85295,-11.85294c6.5462,0 11.85294,5.30674 11.85294,11.85294c0,6.5462 -5.30674,11.85294 -11.85294,11.85294c-6.5462,0 -11.85295,-5.30674 -11.85295,-11.85294z" fill="url(#color-2)" stroke="none" stroke-width="0" stroke-linecap="butt"/><path d="M236.91415,179.96436c0,-6.5462 5.30674,-11.85294 11.85294,-11.85294c6.5462,0 11.85294,5.30674 11.85294,11.85294c0,6.5462 -5.30675,11.85294 -11.85294,11.85294c-6.5462,0 -11.85294,-5.30674 -11.85294,-11.85294z" fill="url(#color-3)" stroke="none" stroke-width="0" stroke-linecap="butt"/><path d="M245.87764,180.15641c0,-6.5462 5.30675,-11.85294 11.85295,-11.85294c6.5462,0 11.85294,5.30674 11.85294,11.85294c0,6.5462 -5.30674,11.85294 -11.85294,11.85294c-6.5462,0 -11.85295,-5.30674 -11.85295,-11.85294z" fill="url(#color-4)" stroke="none" stroke-width="0" stroke-linecap="butt"/><path d="M210.20216,179.89248c0,-6.5462 5.30674,-11.85294 11.85294,-11.85294c6.5462,0 11.85294,5.30674 11.85294,11.85294c0,6.5462 -5.30674,11.85294 -11.85294,11.85294c-6.5462,0 -11.85294,-5.30674 -11.85294,-11.85294z" fill="url(#color-5)" stroke="none" stroke-width="0" stroke-linecap="butt"/><path d="M258.40366,180h-36.80731" fill="none" stroke="#ffffff" stroke-width="18" stroke-linecap="round"/></g></g></svg>