<svg version="1.1" xmlns="http://www.w3.org/2000/svg" xmlns:xlink="http://www.w3.org/1999/xlink" width="482.29271" height="409.30376" viewBox="0,0,482.29271,409.30376"><defs><radialGradient cx="78.60819" cy="88.92656" r="0.00125" gradientUnits="userSpaceOnUse" id="color-1"><stop offset="0" stop-color="#383838"/><stop offset="1" stop-color="#383838" stop-opacity="0"/></radialGradient><radialGradient cx="237.66445" cy="182.86278" r="57.36708" gradientUnits="userSpaceOnUse" id="color-2"><stop offset="0" stop-color="#383838"/><stop offset="1" stop-color="#383838" stop-opacity="0"/></radialGradient><radialGradient cx="227.38491" cy="158.5452" r="27.94772" gradientUnits="userSpaceOnUse" id="color-3"><stop offset="0" stop-color="#4a7327"/><stop offset="1" stop-color="#4a7327" stop-opacity="0"/></radialGradient><radialGradient cx="229.39842" cy="201.89933" r="27.94772" gradientUnits="userSpaceOnUse" id="color-4"><stop offset="0" stop-color="#4a7327"/><stop offset="1" stop-color="#4a7327" stop-opacity="0"/></radialGradient></defs><g transform="translate(1.14633,24.6517)"><g data-paper-data="{&quot;isPaintingLayer&quot;:true}" fill-rule="nonzero" stroke="none" stroke-width="0" stroke-linecap="butt" stroke-linejoin="miter" stroke-miterlimit="10" stroke-dasharray="" stroke-dashoffset="0" style="mix-blend-mode: normal"><path d="M-1.14633,384.65205v-409.30375h482.29271v409.30375z" fill="none"/><path d="M-1.14633,384.65206v-409.30375h482.29271v409.30375z" fill="none"/><path d="M157.21643,177.85305z" fill="url(#color-1)"/><path d="M180.29736,182.86278c0,-31.68297 25.68413,-57.36708 57.36708,-57.36708c31.68297,0 57.36708,25.68413 57.36708,57.36708c0,31.68297 -25.68413,57.36708 -57.36708,57.36708c-31.68297,0 -57.36708,-25.68413 -57.36708,-57.36708z" fill="url(#color-2)"/><path d="M236.78044,136.37018c10.90181,-9.75093 32.08192,-4.16341 32.08192,-4.16341c0,0 3.50477,21.39699 -7.39704,31.14792c-10.90181,9.75093 -32.58161,4.61045 -32.58161,4.61045c0,0 -3.00504,-21.84395 7.89681,-31.59492z" data-paper-data="{&quot;index&quot;:null}" fill="#7cca39"/><path d="M279.70381,173.84267c11.07771,9.55061 8.27352,31.27512 8.27352,31.27512c0,0 -20.76485,6.23987 -31.84256,-3.31074c-11.07771,-9.55062 -8.78134,-31.71286 -8.78134,-31.71286c0,0 21.27261,-5.80209 32.35038,3.74856z" data-paper-data="{&quot;index&quot;:null}" fill="#77c236"/><path d="M217.87606,178.09893c0,-10.95534 8.88106,-19.8364 19.8364,-19.8364c10.95534,0 19.8364,8.88106 19.8364,19.8364c0,10.95534 -8.88106,19.8364 -19.8364,19.8364c-10.95534,0 -19.8364,-8.88106 -19.8364,-19.8364z" fill="#72b834"/><path d="M263.66454,148.68951c16.31367,-4.29901 36.03811,9.63291 36.03811,9.63291c0,0 -6.72532,20.90211 -23.03899,25.20111c-16.31367,4.29901 -36.78588,-9.43579 -36.78588,-9.43579c0,0 7.4731,-21.09916 23.78683,-25.39819z" data-paper-data="{&quot;index&quot;:null}" fill="#6bad31"/><path d="M256.20574,214.95138c-6.20535,13.24474 -27.88025,16.40963 -27.88025,16.40963c0,0 -11.61404,-18.30925 -5.40868,-31.55401c6.20535,-13.24474 28.16463,-17.01677 28.16463,-17.01677c0,0 11.32961,18.91635 5.12422,32.16117z" data-paper-data="{&quot;index&quot;:null}" fill="#6bad31"/><path d="M223.57444,211.22742c-12.90239,6.88902 -32.15452,-3.55954 -32.15452,-3.55954c0,0 1.66681,-21.61798 14.5692,-28.50698c12.90239,-6.889 32.74593,3.2437 32.74593,3.2437c0,0 -2.25822,21.93374 -15.16066,28.82279z" data-paper-data="{&quot;index&quot;:null}" fill="#83d43b"/><path d="M198.90929,184.74865c-13.89936,-7.26003 -15.42637,-29.12029 -15.42637,-29.12029c0,0 21.00846,-10.08945 34.90782,-2.82943c13.89936,7.26003 16.06353,29.45301 16.06353,29.45301c0,0 -21.64557,9.75667 -35.545,2.49662z" data-paper-data="{&quot;index&quot;:null}" fill="#67a72f"/><path d="M207.25204,141.20075c3.56256,-14.18584 24.23456,-21.43059 24.23456,-21.43059c0,0 14.89594,15.75516 11.33338,29.941c-3.56256,14.18584 -24.39779,22.08087 -24.39779,22.08087c0,0 -14.73266,-16.4054 -11.17007,-30.5913z" data-paper-data="{&quot;index&quot;:null}" fill="#6bad31"/><path d="M199.43717,158.5452c0,-1.11403 0.19194,-3.29279 0.19194,-3.29279l15.0617,0.41077c0,0 2.21304,-25.06569 12.69408,-25.06569c15.43509,0 27.94772,12.51261 27.94772,27.94772c0,15.43509 -12.51261,27.94772 -27.94772,27.94772c-15.43509,0 -27.94772,-12.51261 -27.94772,-27.94772z" fill="url(#color-3)"/><path d="M238.68766,228.25813c-1.05069,0.37028 -8.64371,2.80113 -8.64371,2.80113l-6.3177,-14.71945l-20.30905,-4.39614c0,0 -11.76029,-17.27598 -5.92533,-28.25569c2.38298,-4.48408 18.39604,-6.65974 22.61734,-8.14739c14.55755,-5.13029 30.5177,2.51198 35.648,17.06955c5.13029,14.55755 -2.51198,30.5177 -17.06955,35.648z" fill="url(#color-4)"/></g></g></svg>