<svg version="1.1" xmlns="http://www.w3.org/2000/svg" xmlns:xlink="http://www.w3.org/1999/xlink" width="69.03339" height="69.03339" viewBox="0,0,69.03339,69.03339"><defs><radialGradient cx="240" cy="180" r="13.68535" gradientUnits="userSpaceOnUse" id="color-1"><stop offset="0" stop-color="#000000" stop-opacity="0.08235"/><stop offset="1" stop-color="#000000" stop-opacity="0"/></radialGradient><radialGradient cx="338.12799" cy="167.85962" r="13.82455" gradientUnits="userSpaceOnUse" id="color-2"><stop offset="0" stop-color="#f07070"/><stop offset="1" stop-color="#cf5555"/></radialGradient><radialGradient cx="338.12799" cy="167.85962" r="11.92469" gradientUnits="userSpaceOnUse" id="color-3"><stop offset="0" stop-color="#ff9d9d"/><stop offset="1" stop-color="#ff9d9d" stop-opacity="0"/></radialGradient><radialGradient cx="338.12799" cy="167.85962" r="11.92469" gradientUnits="userSpaceOnUse" id="color-4"><stop offset="0" stop-color="#ff9d9d"/><stop offset="1" stop-color="#ff9d9d" stop-opacity="0"/></radialGradient><radialGradient cx="282.13848" cy="167.43697" r="13.58909" gradientUnits="userSpaceOnUse" id="color-5"><stop offset="0" stop-color="#f7f7f7"/><stop offset="1" stop-color="#cecece"/></radialGradient><radialGradient cx="282.13848" cy="167.43697" r="11.72159" gradientUnits="userSpaceOnUse" id="color-6"><stop offset="0" stop-color="#f7f7f7"/><stop offset="1" stop-color="#f7f7f7" stop-opacity="0"/></radialGradient><radialGradient cx="310.23695" cy="167.68679" r="13.82455" gradientUnits="userSpaceOnUse" id="color-7"><stop offset="0" stop-color="#f07070"/><stop offset="1" stop-color="#cf5555"/></radialGradient><radialGradient cx="310.23695" cy="167.68679" r="11.92468" gradientUnits="userSpaceOnUse" id="color-8"><stop offset="0" stop-color="#ff9d9d"/><stop offset="1" stop-color="#ff9d9d" stop-opacity="0"/></radialGradient><radialGradient cx="310.23695" cy="167.68679" r="11.92468" gradientUnits="userSpaceOnUse" id="color-9"><stop offset="0" stop-color="#ff9d9d"/><stop offset="1" stop-color="#ff9d9d" stop-opacity="0"/></radialGradient><radialGradient cx="309.9259" cy="191.53418" r="13.82455" gradientUnits="userSpaceOnUse" id="color-10"><stop offset="0" stop-color="#f07070"/><stop offset="1" stop-color="#cf5555"/></radialGradient><radialGradient cx="309.9259" cy="191.53418" r="11.92469" gradientUnits="userSpaceOnUse" id="color-11"><stop offset="0" stop-color="#ff9d9d"/><stop offset="1" stop-color="#ff9d9d" stop-opacity="0"/></radialGradient><radialGradient cx="309.9259" cy="191.53418" r="11.92469" gradientUnits="userSpaceOnUse" id="color-12"><stop offset="0" stop-color="#ff9d9d"/><stop offset="1" stop-color="#ff9d9d" stop-opacity="0"/></radialGradient><radialGradient cx="282.00022" cy="191.21528" r="13.58909" gradientUnits="userSpaceOnUse" id="color-13"><stop offset="0" stop-color="#f7f7f7"/><stop offset="1" stop-color="#cecece"/></radialGradient><radialGradient cx="282.00022" cy="191.21528" r="11.72159" gradientUnits="userSpaceOnUse" id="color-14"><stop offset="0" stop-color="#f7f7f7"/><stop offset="1" stop-color="#f7f7f7" stop-opacity="0"/></radialGradient><radialGradient cx="254.6276" cy="167.43697" r="13.5891" gradientUnits="userSpaceOnUse" id="color-15"><stop offset="0" stop-color="#f7f7f7"/><stop offset="1" stop-color="#cecece"/></radialGradient><radialGradient cx="254.6276" cy="167.43697" r="11.72159" gradientUnits="userSpaceOnUse" id="color-16"><stop offset="0" stop-color="#f7f7f7"/><stop offset="1" stop-color="#f7f7f7" stop-opacity="0"/></radialGradient><radialGradient cx="254.48936" cy="191.21528" r="13.58909" gradientUnits="userSpaceOnUse" id="color-17"><stop offset="0" stop-color="#f7f7f7"/><stop offset="1" stop-color="#cecece"/></radialGradient><radialGradient cx="254.48936" cy="191.21528" r="11.72159" gradientUnits="userSpaceOnUse" id="color-18"><stop offset="0" stop-color="#f7f7f7"/><stop offset="1" stop-color="#f7f7f7" stop-opacity="0"/></radialGradient><radialGradient cx="224.90489" cy="167.85962" r="13.82455" gradientUnits="userSpaceOnUse" id="color-19"><stop offset="0" stop-color="#f07070"/><stop offset="1" stop-color="#cf5555"/></radialGradient><radialGradient cx="224.90489" cy="167.85962" r="11.92468" gradientUnits="userSpaceOnUse" id="color-20"><stop offset="0" stop-color="#ff9d9d"/><stop offset="1" stop-color="#ff9d9d" stop-opacity="0"/></radialGradient><radialGradient cx="224.90489" cy="167.85962" r="11.92468" gradientUnits="userSpaceOnUse" id="color-21"><stop offset="0" stop-color="#ff9d9d"/><stop offset="1" stop-color="#ff9d9d" stop-opacity="0"/></radialGradient><radialGradient cx="168.91537" cy="167.43697" r="13.5891" gradientUnits="userSpaceOnUse" id="color-22"><stop offset="0" stop-color="#f7f7f7"/><stop offset="1" stop-color="#cecece"/></radialGradient><radialGradient cx="168.91537" cy="167.43697" r="11.72159" gradientUnits="userSpaceOnUse" id="color-23"><stop offset="0" stop-color="#f7f7f7"/><stop offset="1" stop-color="#f7f7f7" stop-opacity="0"/></radialGradient><radialGradient cx="197.01385" cy="167.68679" r="13.82456" gradientUnits="userSpaceOnUse" id="color-24"><stop offset="0" stop-color="#f07070"/><stop offset="1" stop-color="#cf5555"/></radialGradient><radialGradient cx="197.01385" cy="167.68679" r="11.92469" gradientUnits="userSpaceOnUse" id="color-25"><stop offset="0" stop-color="#ff9d9d"/><stop offset="1" stop-color="#ff9d9d" stop-opacity="0"/></radialGradient><radialGradient cx="197.01385" cy="167.68679" r="11.92469" gradientUnits="userSpaceOnUse" id="color-26"><stop offset="0" stop-color="#ff9d9d"/><stop offset="1" stop-color="#ff9d9d" stop-opacity="0"/></radialGradient><radialGradient cx="196.7028" cy="191.53418" r="13.82455" gradientUnits="userSpaceOnUse" id="color-27"><stop offset="0" stop-color="#f07070"/><stop offset="1" stop-color="#cf5555"/></radialGradient><radialGradient cx="196.7028" cy="191.53418" r="11.92468" gradientUnits="userSpaceOnUse" id="color-28"><stop offset="0" stop-color="#ff9d9d"/><stop offset="1" stop-color="#ff9d9d" stop-opacity="0"/></radialGradient><radialGradient cx="196.7028" cy="191.53418" r="11.92468" gradientUnits="userSpaceOnUse" id="color-29"><stop offset="0" stop-color="#ff9d9d"/><stop offset="1" stop-color="#ff9d9d" stop-opacity="0"/></radialGradient><radialGradient cx="168.77712" cy="191.21528" r="13.58909" gradientUnits="userSpaceOnUse" id="color-30"><stop offset="0" stop-color="#f7f7f7"/><stop offset="1" stop-color="#cecece"/></radialGradient><radialGradient cx="168.77712" cy="191.21528" r="11.72159" gradientUnits="userSpaceOnUse" id="color-31"><stop offset="0" stop-color="#f7f7f7"/><stop offset="1" stop-color="#f7f7f7" stop-opacity="0"/></radialGradient><radialGradient cx="141.40451" cy="167.43697" r="13.5891" gradientUnits="userSpaceOnUse" id="color-32"><stop offset="0" stop-color="#f7f7f7"/><stop offset="1" stop-color="#cecece"/></radialGradient><radialGradient cx="141.40451" cy="167.43697" r="11.72159" gradientUnits="userSpaceOnUse" id="color-33"><stop offset="0" stop-color="#f7f7f7"/><stop offset="1" stop-color="#f7f7f7" stop-opacity="0"/></radialGradient><radialGradient cx="141.26626" cy="191.21528" r="13.5891" gradientUnits="userSpaceOnUse" id="color-34"><stop offset="0" stop-color="#f7f7f7"/><stop offset="1" stop-color="#cecece"/></radialGradient><radialGradient cx="141.26626" cy="191.21528" r="11.72159" gradientUnits="userSpaceOnUse" id="color-35"><stop offset="0" stop-color="#f7f7f7"/><stop offset="1" stop-color="#f7f7f7" stop-opacity="0"/></radialGradient><radialGradient cx="338.49836" cy="191.56333" r="13.82455" gradientUnits="userSpaceOnUse" id="color-36"><stop offset="0" stop-color="#f07070"/><stop offset="1" stop-color="#cf5555"/></radialGradient><radialGradient cx="338.49836" cy="191.56333" r="11.92469" gradientUnits="userSpaceOnUse" id="color-37"><stop offset="0" stop-color="#ff9d9d"/><stop offset="1" stop-color="#ff9d9d" stop-opacity="0"/></radialGradient><radialGradient cx="338.49836" cy="191.56333" r="11.92469" gradientUnits="userSpaceOnUse" id="color-38"><stop offset="0" stop-color="#ff9d9d"/><stop offset="1" stop-color="#ff9d9d" stop-opacity="0"/></radialGradient><radialGradient cx="224.7985" cy="192.32772" r="13.82455" gradientUnits="userSpaceOnUse" id="color-39"><stop offset="0" stop-color="#f07070"/><stop offset="1" stop-color="#cf5555"/></radialGradient><radialGradient cx="224.7985" cy="192.32772" r="11.92468" gradientUnits="userSpaceOnUse" id="color-40"><stop offset="0" stop-color="#ff9d9d"/><stop offset="1" stop-color="#ff9d9d" stop-opacity="0"/></radialGradient><radialGradient cx="224.7985" cy="192.32772" r="11.92468" gradientUnits="userSpaceOnUse" id="color-41"><stop offset="0" stop-color="#ff9d9d"/><stop offset="1" stop-color="#ff9d9d" stop-opacity="0"/></radialGradient><linearGradient x1="244.97136" y1="177.55259" x2="244.97136" y2="182.48314" gradientUnits="userSpaceOnUse" id="color-42"><stop offset="0" stop-color="#e6e6e6"/><stop offset="1" stop-color="#a3a3a3"/></linearGradient><radialGradient cx="240" cy="180" r="7.24519" gradientUnits="userSpaceOnUse" id="color-43"><stop offset="0" stop-color="#000000" stop-opacity="0.08235"/><stop offset="1" stop-color="#000000" stop-opacity="0"/></radialGradient></defs><g transform="translate(-205.4833,-145.48331)"><g data-paper-data="{&quot;isPaintingLayer&quot;:true}" fill-rule="nonzero" stroke-linecap="butt" stroke-linejoin="miter" stroke-miterlimit="10" stroke-dasharray="" stroke-dashoffset="0" style="mix-blend-mode: normal"><path d="M226.31465,180c0,-7.55821 6.12714,-13.68535 13.68535,-13.68535c7.55821,0 13.68535,6.12714 13.68535,13.68535c0,7.55821 -6.12714,13.68535 -13.68535,13.68535c-7.55821,0 -13.68535,-6.12714 -13.68535,-13.68535z" fill="url(#color-1)" stroke="none" stroke-width="0"/><g stroke-width="0"><g><path d="" fill="url(#color-2)" stroke="#bfbfbf"/><path d="" fill="url(#color-3)" stroke="none"/><path d="" fill="#a3a3a3" stroke="none"/><path d="" fill="url(#color-4)" stroke="none"/><path d="" fill="#323232" stroke="none"/></g><g><path d="" fill="url(#color-5)" stroke="#bfbfbf"/><path d="" fill="url(#color-6)" stroke="none"/><path d="" fill="#a3a3a3" stroke="none"/><path d="" fill="#323232" stroke="none"/></g><g><path d="" fill="url(#color-7)" stroke="#bfbfbf"/><path d="" fill="url(#color-8)" stroke="none"/><path d="" fill="#a3a3a3" stroke="none"/><path d="" fill="url(#color-9)" stroke="none"/><path d="" fill="#323232" stroke="none"/></g><g><path d="" fill="url(#color-10)" stroke="#bfbfbf"/><path d="" fill="url(#color-11)" stroke="none"/><path d="" fill="#a3a3a3" stroke="none"/><path d="" fill="url(#color-12)" stroke="none"/><path d="" fill="#323232" stroke="none"/></g><g><path d="" fill="url(#color-13)" stroke="#bfbfbf"/><path d="" fill="url(#color-14)" stroke="none"/><path d="" fill="#a3a3a3" stroke="none"/><path d="" fill="#323232" stroke="none"/></g><g><path d="" fill="url(#color-15)" stroke="#bfbfbf"/><path d="" fill="url(#color-16)" stroke="none"/><path d="" fill="#a3a3a3" stroke="none"/><path d="" fill="#323232" stroke="none"/></g><g><path d="" fill="url(#color-17)" stroke="#bfbfbf"/><path d="" fill="url(#color-18)" stroke="none"/><path d="" fill="#a3a3a3" stroke="none"/><path d="" fill="#323232" stroke="none"/></g><g><path d="" fill="url(#color-19)" stroke="#bfbfbf"/><path d="" fill="url(#color-20)" stroke="none"/><path d="" fill="#a3a3a3" stroke="none"/><path d="" fill="url(#color-21)" stroke="none"/><path d="" fill="#323232" stroke="none"/></g><g><path d="" fill="url(#color-22)" stroke="#bfbfbf"/><path d="" fill="url(#color-23)" stroke="none"/><path d="" fill="#a3a3a3" stroke="none"/><path d="" fill="#323232" stroke="none"/></g><g><path d="" fill="url(#color-24)" stroke="#bfbfbf"/><path d="" fill="url(#color-25)" stroke="none"/><path d="" fill="#a3a3a3" stroke="none"/><path d="" fill="url(#color-26)" stroke="none"/><path d="" fill="#323232" stroke="none"/></g><g><path d="" fill="url(#color-27)" stroke="#bfbfbf"/><path d="" fill="url(#color-28)" stroke="none"/><path d="" fill="#a3a3a3" stroke="none"/><path d="" fill="url(#color-29)" stroke="none"/><path d="" fill="#323232" stroke="none"/></g><g><path d="" fill="url(#color-30)" stroke="#bfbfbf"/><path d="" fill="url(#color-31)" stroke="none"/><path d="" fill="#a3a3a3" stroke="none"/><path d="" fill="#323232" stroke="none"/></g><g><path d="" fill="url(#color-32)" stroke="#bfbfbf"/><path d="" fill="url(#color-33)" stroke="none"/><path d="" fill="#a3a3a3" stroke="none"/><path d="" fill="#323232" stroke="none"/></g><g><path d="" fill="url(#color-34)" stroke="#bfbfbf"/><path d="" fill="url(#color-35)" stroke="none"/><path d="" fill="#a3a3a3" stroke="none"/><path d="" fill="#323232" stroke="none"/></g><g><path d="" fill="url(#color-36)" stroke="#bfbfbf"/><path d="" fill="url(#color-37)" stroke="none"/><path d="" fill="#a3a3a3" stroke="none"/><path d="" fill="url(#color-38)" stroke="none"/><path d="" fill="#323232" stroke="none"/></g><g><path d="" fill="url(#color-39)" stroke="#bfbfbf"/><path d="" fill="url(#color-40)" stroke="none"/><path d="" fill="#a3a3a3" stroke="none"/><path d="" fill="url(#color-41)" stroke="none"/><path d="" fill="#323232" stroke="none"/></g></g><path d="M239.91155,182.48314c0,0 -1.28965,-0.1239 -1.46341,-2.37381c-0.18293,-2.36854 1.46341,-2.55674 1.46341,-2.55674h11.59722v4.93056z" fill="url(#color-42)" stroke="none" stroke-width="0"/><path d="M205.4833,214.5167v-69.03339h69.03339v69.03339z" fill="none" stroke="none" stroke-width="0"/><g><path d="M243.32024,178.68568c0.83778,-2.41831 3.14308,-11.41371 4.56514,-15.51859c0.46875,-1.35308 1.16325,-1.12697 1.54642,-0.06436c0.7966,2.20918 3.78555,10.49833 5.32623,14.77107c0.56192,1.55836 0.54198,3.72182 0.16537,4.82433c-0.78707,2.30408 -3.74895,10.9748 -5.21818,15.27589c-0.50763,1.48605 -1.12923,1.64588 -1.5893,0.37885c-1.46451,-4.03329 -3.96379,-13.169 -4.8232,-15.53585c-0.42069,-1.15858 -0.40234,-2.89053 0.02751,-4.13135z" fill="#ffe32e" stroke="none" stroke-width="NaN"/><path d="M243.70357,178.7254c0.78662,-2.25557 2.91045,-10.67367 4.24568,-14.50232c0.44013,-1.26203 1.09223,-1.05113 1.45199,-0.06002c0.74795,2.06052 3.55439,9.79185 5.00099,13.77707c0.52761,1.45349 0.5089,3.47137 0.15528,4.49968c-0.73901,2.14903 -3.52003,10.23627 -4.89955,14.24793c-0.47663,1.38605 -1.06028,1.53512 -1.49225,0.35335c-1.37509,-3.76188 -3.68104,-12.31086 -4.48798,-14.51843c-0.395,-1.08062 -0.37777,-2.63994 0.02584,-3.79726z" fill="#1d1d1d" stroke="none" stroke-width="NaN"/><path d="M243.96172,178.90781c0.74981,-2.10207 2.74301,-9.97564 4.01574,-13.54373c0.41953,-1.17614 1.0411,-0.9796 1.38403,-0.05594c0.71294,1.92029 3.38802,9.12548 4.76692,12.83948c0.50292,1.35458 0.48507,3.23513 0.14801,4.19346c-0.70441,2.00278 -3.35526,9.53964 -4.67021,13.27828c-0.45433,1.29173 -1.01065,1.43064 -1.42241,0.32931c-1.31072,-3.50586 -3.47753,-11.5014 -4.2467,-13.55873c-0.37652,-1.00708 -0.3601,-2.40357 0.02462,-3.48212z" fill="#ffe32e" stroke="none" stroke-width="NaN"/><text transform="translate(247.70089,166.49806) rotate(90) scale(0.21381,0.05947)" font-size="40" xml:space="preserve" fill="#1d1d1d" fill-rule="nonzero" stroke="#1d1d1d" stroke-width="2" stroke-linecap="butt" stroke-linejoin="miter" stroke-miterlimit="10" stroke-dasharray="" stroke-dashoffset="0" font-family="Sans Serif" font-weight="normal" text-anchor="start" style="mix-blend-mode: normal"><tspan x="0" dy="0"> SLOW</tspan><tspan x="0" dy="46.150000000000006px"> </tspan></text><path d="M255.26939,180.64587c0,0 -0.61857,-2.69398 -1.10198,-4.00203c-1.08685,-2.9409 -5.29565,-14.32941 -5.29565,-14.32941h0.59702c0,0 4.38688,10.8295 5.57304,13.86078c0.27167,0.69427 0.71003,1.73753 0.98347,2.64952c0.3094,1.03192 0.43814,1.89577 0.43814,1.89577z" fill="#d4d4d4" stroke="none" stroke-width="0"/><path d="M256.42935,180.59072c0,0 0.00459,0.57665 -0.22315,1.45889c-0.26238,1.01642 -0.77978,2.40289 -1.08977,3.19509c-1.18615,3.03127 -5.57303,13.86078 -5.57303,13.86078h-0.59701c0,0 4.2088,-11.38851 5.29565,-14.32941c0.48341,-1.30805 0.99328,-4.21942 0.99328,-4.21942z" data-paper-data="{&quot;index&quot;:null}" fill="#d4d4d4" stroke="none" stroke-width="0"/></g><path d="M232.75481,180c0,-4.00141 3.24378,-7.24519 7.24519,-7.24519c4.00141,0 7.24519,3.24378 7.24519,7.24519c0,4.00141 -3.24378,7.24519 -7.24519,7.24519c-4.00141,0 -7.24519,-3.24378 -7.24519,-7.24519z" fill="url(#color-43)" stroke="none" stroke-width="0"/></g></g></svg>