<svg version="1.1" xmlns="http://www.w3.org/2000/svg" xmlns:xlink="http://www.w3.org/1999/xlink" width="52.82917" height="49.37739" viewBox="0,0,52.82917,49.37739"><defs><linearGradient x1="6243.29898" y1="-2002.66518" x2="6243.29898" y2="1193.13753" gradientUnits="userSpaceOnUse" id="color-1"><stop offset="0" stop-color="#000000"/><stop offset="1" stop-color="#000000" stop-opacity="0"/></linearGradient></defs><g transform="translate(-213.90426,-155.46824)"><g data-paper-data="{&quot;isPaintingLayer&quot;:true}" fill-rule="nonzero" stroke-linejoin="miter" stroke-miterlimit="10" stroke-dasharray="" stroke-dashoffset="0" style="mix-blend-mode: normal"><path d="M213.90426,155.46824h52.56782c0,0 0.19592,27.14294 0.26114,36.17957c0.03908,5.41406 -5.35294,13.01499 -12.38076,13.05159c-9.75432,0.0508 -21.52655,0.11746 -27.0372,0.14616c-7.17931,0.02668 -12.94247,-6.91901 -12.99931,-12.06947c-0.09967,-9.03225 -0.41169,-37.30785 -0.41169,-37.30785z" fill="url(#color-1)" stroke="none" stroke-width="0" stroke-linecap="butt"/><path d="M224.29023,173.77559c0,-5.66542 4.59273,-10.25816 10.25816,-10.25816c5.66542,0 10.25816,4.59273 10.25816,10.25816c0,5.66542 -4.59273,10.25816 -10.25816,10.25816c-5.66542,0 -10.25816,-4.59273 -10.25816,-10.25816z" fill="none" stroke="#f1f1f1" stroke-width="3" stroke-linecap="butt"/><path d="M242.287,182.44557l10.93151,11.11923" fill="none" stroke="#f1f1f1" stroke-width="5" stroke-linecap="round"/><path d="M230.71976,174.13443h7.85172" fill="none" stroke="#f1f1f1" stroke-width="3.5" stroke-linecap="round"/><path d="M234.64562,170.20857v7.85172" fill="none" stroke="#f1f1f1" stroke-width="3.5" stroke-linecap="round"/></g></g></svg>