<svg version="1.1" xmlns="http://www.w3.org/2000/svg" xmlns:xlink="http://www.w3.org/1999/xlink" width="320.95283" height="320.95283" viewBox="0,0,320.95283,320.95283"><defs><radialGradient cx="238.35362" cy="178.36891" r="55.6025" gradientUnits="userSpaceOnUse" id="color-1"><stop offset="0" stop-color="#5ab03b"/><stop offset="1" stop-color="#b3dfa3"/></radialGradient><radialGradient cx="239.99999" cy="180" r="54.9321" gradientUnits="userSpaceOnUse" id="color-2"><stop offset="0" stop-color="#3f9421"/><stop offset="1" stop-color="#3f9421" stop-opacity="0"/></radialGradient><radialGradient cx="201.93074" cy="198.40665" r="8.56335" gradientUnits="userSpaceOnUse" id="color-3"><stop offset="0" stop-color="#0ee125"/><stop offset="1" stop-color="#22cd1f"/></radialGradient></defs><g transform="translate(-79.52358,-19.52359)"><g data-paper-data="{&quot;isPaintingLayer&quot;:true}" fill-rule="nonzero" stroke-linecap="butt" stroke-linejoin="miter" stroke-miterlimit="10" stroke-dasharray="" stroke-dashoffset="0" style="mix-blend-mode: normal"><path d="M278.38461,217.10297c-11.83386,7.50622 -23.26384,18.06319 -38.38463,18.06319c-13.37297,0 -27.72255,2.67401 -36.3897,-5.21708c-4.10756,-3.73975 -4.23363,-15.60102 -7.38972,-20.58737c-5.41662,-8.55785 -11.60491,-18.70268 -11.60491,-29.57988c0,-12.26558 6.62486,-18.58145 11.76027,-27.08788c2.71247,-4.49301 1.2362,-12.74147 6.38412,-15.93773c8.08369,-5.01905 24.51955,-8.64131 34.46342,-9.52332c1.63301,-0.14485 1.10589,-2.8354 2.77654,-2.8354c10.6699,0 21.94334,8.68648 30.39716,13.91427c8.24313,5.09752 8.58695,14.23879 12.86725,21.3143c3.91415,6.47026 12.11993,10.64172 12.11993,20.15574c0,15.46714 -4.59589,29.45341 -16.9997,37.32114z" data-paper-data="{&quot;index&quot;:null}" fill="url(#color-1)" stroke="#b9e3aa" stroke-width="2"/><path d="M185.0679,180c0,-30.33817 24.59393,-54.9321 54.9321,-54.9321c30.33817,0 54.9321,24.59393 54.9321,54.9321c0,30.33817 -24.59393,54.9321 -54.9321,54.9321c-30.33817,0 -54.9321,-24.59393 -54.9321,-54.9321z" fill="url(#color-2)" stroke="#daf5d1" stroke-width="0"/><path d="M193.3674,198.40665c0,-4.72941 3.83393,-8.56335 8.56334,-8.56335c4.72941,0 8.56335,3.83394 8.56335,8.56335c0,4.72941 -3.83394,8.56335 -8.56335,8.56335c-4.72941,0 -8.56334,-3.83394 -8.56334,-8.56335z" fill="url(#color-3)" stroke="none" stroke-width="NaN"/><path d="M79.52359,340.47643v-320.95283h320.95283v320.95283z" fill="none" stroke="none" stroke-width="0"/></g></g></svg>