<svg version="1.1" xmlns="http://www.w3.org/2000/svg" xmlns:xlink="http://www.w3.org/1999/xlink" width="289.09392" height="155.37864" viewBox="0,0,289.09392,155.37864"><defs><linearGradient x1="462.30947" y1="-741.67084" x2="462.30947" y2="3660.86583" gradientUnits="userSpaceOnUse" id="color-1"><stop offset="0" stop-color="#000000" stop-opacity="0"/><stop offset="1" stop-color="#000000"/></linearGradient><linearGradient x1="281.55936" y1="164.92822" x2="281.55936" y2="146.83831" gradientUnits="userSpaceOnUse" id="color-2"><stop offset="0" stop-color="#e2e2e2"/><stop offset="1" stop-color="#ededed"/></linearGradient><linearGradient x1="279.81239" y1="200.99397" x2="279.81239" y2="219.08388" gradientUnits="userSpaceOnUse" id="color-3"><stop offset="0" stop-color="#e2e2e2"/><stop offset="1" stop-color="#ededed"/></linearGradient><radialGradient cx="338.12796" cy="167.85956" r="13.82455" gradientUnits="userSpaceOnUse" id="color-4"><stop offset="0" stop-color="#f07070"/><stop offset="1" stop-color="#cf5555"/></radialGradient><radialGradient cx="338.12796" cy="167.85956" r="11.92469" gradientUnits="userSpaceOnUse" id="color-5"><stop offset="0" stop-color="#ff9d9d"/><stop offset="1" stop-color="#ff9d9d" stop-opacity="0"/></radialGradient><radialGradient cx="338.12796" cy="167.85956" r="11.92469" gradientUnits="userSpaceOnUse" id="color-6"><stop offset="0" stop-color="#ff9d9d"/><stop offset="1" stop-color="#ff9d9d" stop-opacity="0"/></radialGradient><radialGradient cx="282.13845" cy="167.43696" r="13.58909" gradientUnits="userSpaceOnUse" id="color-7"><stop offset="0" stop-color="#f7f7f7"/><stop offset="1" stop-color="#cecece"/></radialGradient><radialGradient cx="282.13845" cy="167.43696" r="11.72159" gradientUnits="userSpaceOnUse" id="color-8"><stop offset="0" stop-color="#f7f7f7"/><stop offset="1" stop-color="#f7f7f7" stop-opacity="0"/></radialGradient><radialGradient cx="310.23692" cy="167.68676" r="13.82455" gradientUnits="userSpaceOnUse" id="color-9"><stop offset="0" stop-color="#f07070"/><stop offset="1" stop-color="#cf5555"/></radialGradient><radialGradient cx="310.23692" cy="167.68676" r="11.92468" gradientUnits="userSpaceOnUse" id="color-10"><stop offset="0" stop-color="#ff9d9d"/><stop offset="1" stop-color="#ff9d9d" stop-opacity="0"/></radialGradient><radialGradient cx="310.23692" cy="167.68676" r="11.92468" gradientUnits="userSpaceOnUse" id="color-11"><stop offset="0" stop-color="#ff9d9d"/><stop offset="1" stop-color="#ff9d9d" stop-opacity="0"/></radialGradient><radialGradient cx="309.92587" cy="191.53411" r="13.82455" gradientUnits="userSpaceOnUse" id="color-12"><stop offset="0" stop-color="#f07070"/><stop offset="1" stop-color="#cf5555"/></radialGradient><radialGradient cx="309.92587" cy="191.53411" r="11.92469" gradientUnits="userSpaceOnUse" id="color-13"><stop offset="0" stop-color="#ff9d9d"/><stop offset="1" stop-color="#ff9d9d" stop-opacity="0"/></radialGradient><radialGradient cx="309.92587" cy="191.53411" r="11.92469" gradientUnits="userSpaceOnUse" id="color-14"><stop offset="0" stop-color="#ff9d9d"/><stop offset="1" stop-color="#ff9d9d" stop-opacity="0"/></radialGradient><radialGradient cx="282.00019" cy="191.21521" r="13.58909" gradientUnits="userSpaceOnUse" id="color-15"><stop offset="0" stop-color="#f7f7f7"/><stop offset="1" stop-color="#cecece"/></radialGradient><radialGradient cx="282.00019" cy="191.21521" r="11.72159" gradientUnits="userSpaceOnUse" id="color-16"><stop offset="0" stop-color="#f7f7f7"/><stop offset="1" stop-color="#f7f7f7" stop-opacity="0"/></radialGradient><radialGradient cx="254.62757" cy="167.43696" r="13.5891" gradientUnits="userSpaceOnUse" id="color-17"><stop offset="0" stop-color="#f7f7f7"/><stop offset="1" stop-color="#cecece"/></radialGradient><radialGradient cx="254.62757" cy="167.43696" r="11.72159" gradientUnits="userSpaceOnUse" id="color-18"><stop offset="0" stop-color="#f7f7f7"/><stop offset="1" stop-color="#f7f7f7" stop-opacity="0"/></radialGradient><radialGradient cx="254.48933" cy="191.21521" r="13.58909" gradientUnits="userSpaceOnUse" id="color-19"><stop offset="0" stop-color="#f7f7f7"/><stop offset="1" stop-color="#cecece"/></radialGradient><radialGradient cx="254.48933" cy="191.21521" r="11.72159" gradientUnits="userSpaceOnUse" id="color-20"><stop offset="0" stop-color="#f7f7f7"/><stop offset="1" stop-color="#f7f7f7" stop-opacity="0"/></radialGradient><radialGradient cx="224.90486" cy="167.85956" r="13.82455" gradientUnits="userSpaceOnUse" id="color-21"><stop offset="0" stop-color="#f07070"/><stop offset="1" stop-color="#cf5555"/></radialGradient><radialGradient cx="224.90486" cy="167.85956" r="11.92468" gradientUnits="userSpaceOnUse" id="color-22"><stop offset="0" stop-color="#ff9d9d"/><stop offset="1" stop-color="#ff9d9d" stop-opacity="0"/></radialGradient><radialGradient cx="224.90486" cy="167.85956" r="11.92468" gradientUnits="userSpaceOnUse" id="color-23"><stop offset="0" stop-color="#ff9d9d"/><stop offset="1" stop-color="#ff9d9d" stop-opacity="0"/></radialGradient><radialGradient cx="168.91534" cy="167.43696" r="13.5891" gradientUnits="userSpaceOnUse" id="color-24"><stop offset="0" stop-color="#f7f7f7"/><stop offset="1" stop-color="#cecece"/></radialGradient><radialGradient cx="168.91534" cy="167.43696" r="11.72159" gradientUnits="userSpaceOnUse" id="color-25"><stop offset="0" stop-color="#f7f7f7"/><stop offset="1" stop-color="#f7f7f7" stop-opacity="0"/></radialGradient><radialGradient cx="197.01382" cy="167.68676" r="13.82456" gradientUnits="userSpaceOnUse" id="color-26"><stop offset="0" stop-color="#f07070"/><stop offset="1" stop-color="#cf5555"/></radialGradient><radialGradient cx="197.01382" cy="167.68676" r="11.92469" gradientUnits="userSpaceOnUse" id="color-27"><stop offset="0" stop-color="#ff9d9d"/><stop offset="1" stop-color="#ff9d9d" stop-opacity="0"/></radialGradient><radialGradient cx="197.01382" cy="167.68676" r="11.92469" gradientUnits="userSpaceOnUse" id="color-28"><stop offset="0" stop-color="#ff9d9d"/><stop offset="1" stop-color="#ff9d9d" stop-opacity="0"/></radialGradient><radialGradient cx="196.70277" cy="191.53411" r="13.82455" gradientUnits="userSpaceOnUse" id="color-29"><stop offset="0" stop-color="#f07070"/><stop offset="1" stop-color="#cf5555"/></radialGradient><radialGradient cx="196.70277" cy="191.53411" r="11.92468" gradientUnits="userSpaceOnUse" id="color-30"><stop offset="0" stop-color="#ff9d9d"/><stop offset="1" stop-color="#ff9d9d" stop-opacity="0"/></radialGradient><radialGradient cx="196.70277" cy="191.53411" r="11.92468" gradientUnits="userSpaceOnUse" id="color-31"><stop offset="0" stop-color="#ff9d9d"/><stop offset="1" stop-color="#ff9d9d" stop-opacity="0"/></radialGradient><radialGradient cx="168.77709" cy="191.21521" r="13.58909" gradientUnits="userSpaceOnUse" id="color-32"><stop offset="0" stop-color="#f7f7f7"/><stop offset="1" stop-color="#cecece"/></radialGradient><radialGradient cx="168.77709" cy="191.21521" r="11.72159" gradientUnits="userSpaceOnUse" id="color-33"><stop offset="0" stop-color="#f7f7f7"/><stop offset="1" stop-color="#f7f7f7" stop-opacity="0"/></radialGradient><radialGradient cx="141.40448" cy="167.43696" r="13.5891" gradientUnits="userSpaceOnUse" id="color-34"><stop offset="0" stop-color="#f7f7f7"/><stop offset="1" stop-color="#cecece"/></radialGradient><radialGradient cx="141.40448" cy="167.43696" r="11.72159" gradientUnits="userSpaceOnUse" id="color-35"><stop offset="0" stop-color="#f7f7f7"/><stop offset="1" stop-color="#f7f7f7" stop-opacity="0"/></radialGradient><radialGradient cx="141.26623" cy="191.21521" r="13.5891" gradientUnits="userSpaceOnUse" id="color-36"><stop offset="0" stop-color="#f7f7f7"/><stop offset="1" stop-color="#cecece"/></radialGradient><radialGradient cx="141.26623" cy="191.21521" r="11.72159" gradientUnits="userSpaceOnUse" id="color-37"><stop offset="0" stop-color="#f7f7f7"/><stop offset="1" stop-color="#f7f7f7" stop-opacity="0"/></radialGradient><radialGradient cx="338.49833" cy="191.56327" r="13.82455" gradientUnits="userSpaceOnUse" id="color-38"><stop offset="0" stop-color="#f07070"/><stop offset="1" stop-color="#cf5555"/></radialGradient><radialGradient cx="338.49833" cy="191.56327" r="11.92469" gradientUnits="userSpaceOnUse" id="color-39"><stop offset="0" stop-color="#ff9d9d"/><stop offset="1" stop-color="#ff9d9d" stop-opacity="0"/></radialGradient><radialGradient cx="338.49833" cy="191.56327" r="11.92469" gradientUnits="userSpaceOnUse" id="color-40"><stop offset="0" stop-color="#ff9d9d"/><stop offset="1" stop-color="#ff9d9d" stop-opacity="0"/></radialGradient><radialGradient cx="224.79847" cy="192.32765" r="13.82455" gradientUnits="userSpaceOnUse" id="color-41"><stop offset="0" stop-color="#f07070"/><stop offset="1" stop-color="#cf5555"/></radialGradient><radialGradient cx="224.79847" cy="192.32765" r="11.92468" gradientUnits="userSpaceOnUse" id="color-42"><stop offset="0" stop-color="#ff9d9d"/><stop offset="1" stop-color="#ff9d9d" stop-opacity="0"/></radialGradient><radialGradient cx="224.79847" cy="192.32765" r="11.92468" gradientUnits="userSpaceOnUse" id="color-43"><stop offset="0" stop-color="#ff9d9d"/><stop offset="1" stop-color="#ff9d9d" stop-opacity="0"/></radialGradient><linearGradient x1="199.03091" y1="211.01676" x2="199.03091" y2="229.10665" gradientUnits="userSpaceOnUse" id="color-44"><stop offset="0" stop-color="#e2e2e2"/><stop offset="1" stop-color="#ededed"/></linearGradient><linearGradient x1="199.83241" y1="217.02812" x2="199.83241" y2="222.16863" gradientUnits="userSpaceOnUse" id="color-45"><stop offset="0" stop-color="#4d7c9b"/><stop offset="1" stop-color="#77acd1"/></linearGradient><linearGradient x1="142.02301" y1="216.37013" x2="142.02301" y2="223.40511" gradientUnits="userSpaceOnUse" id="color-46"><stop offset="0" stop-color="#4d7c9b"/><stop offset="1" stop-color="#77acd1"/></linearGradient><linearGradient x1="171.22837" y1="216.37012" x2="171.22837" y2="223.4051" gradientUnits="userSpaceOnUse" id="color-47"><stop offset="0" stop-color="#4d7c9b"/><stop offset="1" stop-color="#77acd1"/></linearGradient><linearGradient x1="227.58239" y1="216.37012" x2="227.58239" y2="223.4051" gradientUnits="userSpaceOnUse" id="color-48"><stop offset="0" stop-color="#4d7c9b"/><stop offset="1" stop-color="#77acd1"/></linearGradient><linearGradient x1="256.78774" y1="216.37011" x2="256.78774" y2="223.40509" gradientUnits="userSpaceOnUse" id="color-49"><stop offset="0" stop-color="#4d7c9b"/><stop offset="1" stop-color="#77acd1"/></linearGradient><linearGradient x1="315.06986" y1="207.36212" x2="315.06986" y2="219.22861" gradientUnits="userSpaceOnUse" id="color-50"><stop offset="0" stop-color="#d5d5d5"/><stop offset="1" stop-color="#c8c8c8"/></linearGradient><linearGradient x1="198.44065" y1="148.98324" x2="198.44065" y2="130.89335" gradientUnits="userSpaceOnUse" id="color-51"><stop offset="0" stop-color="#e2e2e2"/><stop offset="1" stop-color="#ededed"/></linearGradient><linearGradient x1="141.43275" y1="143.62987" x2="141.43275" y2="136.59489" gradientUnits="userSpaceOnUse" id="color-52"><stop offset="0" stop-color="#4d7c9b"/><stop offset="1" stop-color="#77acd1"/></linearGradient><linearGradient x1="180.92382" y1="143.62988" x2="180.92382" y2="136.5949" gradientUnits="userSpaceOnUse" id="color-53"><stop offset="0" stop-color="#4d7c9b"/><stop offset="1" stop-color="#77acd1"/></linearGradient><linearGradient x1="217.99213" y1="143.62988" x2="217.99213" y2="136.5949" gradientUnits="userSpaceOnUse" id="color-54"><stop offset="0" stop-color="#4d7c9b"/><stop offset="1" stop-color="#77acd1"/></linearGradient><linearGradient x1="256.19748" y1="143.62989" x2="256.19748" y2="136.59491" gradientUnits="userSpaceOnUse" id="color-55"><stop offset="0" stop-color="#4d7c9b"/><stop offset="1" stop-color="#77acd1"/></linearGradient></defs><g transform="translate(-98.08211,-105.8268)"><g data-paper-data="{&quot;isPaintingLayer&quot;:true}" fill-rule="nonzero" stroke-width="0" stroke-linecap="butt" stroke-linejoin="miter" stroke-miterlimit="10" stroke-dasharray="" stroke-dashoffset="0" style="mix-blend-mode: normal"><path d="M346.89751,183.72076c0,0 19.04407,27.16011 21.59478,45.53143c0.82267,5.92522 -2.97835,11.13305 -4.55378,11.13071c-1.39455,-0.00207 -178.84069,-0.54616 -218.20482,-0.3308c-5.10543,0.02793 -18.82961,-15.21304 -17.94133,-21.44758c1.31134,-9.20377 219.10515,-34.88376 219.10515,-34.88376z" fill="url(#color-1)" stroke="none"/><path d="M353.63181,146.83831l7.46568,16.94135l-159.07626,1.14856l8.03996,-18.08991z" data-paper-data="{&quot;index&quot;:null}" fill="url(#color-2)" stroke="none"/><path d="M208.31423,219.08388l-8.03996,-18.08991l159.07626,1.14856l-7.46568,16.94135z" fill="url(#color-3)" stroke="none"/><g><g><path d="" fill="url(#color-4)" stroke="#bfbfbf"/><path d="" fill="url(#color-5)" stroke="none"/><path d="" fill="#a3a3a3" stroke="none"/><path d="" fill="url(#color-6)" stroke="none"/><path d="" fill="#323232" stroke="none"/></g><g><path d="" fill="url(#color-7)" stroke="#bfbfbf"/><path d="" fill="url(#color-8)" stroke="none"/><path d="" fill="#a3a3a3" stroke="none"/><path d="" fill="#323232" stroke="none"/></g><g><path d="" fill="url(#color-9)" stroke="#bfbfbf"/><path d="" fill="url(#color-10)" stroke="none"/><path d="" fill="#a3a3a3" stroke="none"/><path d="" fill="url(#color-11)" stroke="none"/><path d="" fill="#323232" stroke="none"/></g><g><path d="" fill="url(#color-12)" stroke="#bfbfbf"/><path d="" fill="url(#color-13)" stroke="none"/><path d="" fill="#a3a3a3" stroke="none"/><path d="" fill="url(#color-14)" stroke="none"/><path d="" fill="#323232" stroke="none"/></g><g><path d="" fill="url(#color-15)" stroke="#bfbfbf"/><path d="" fill="url(#color-16)" stroke="none"/><path d="" fill="#a3a3a3" stroke="none"/><path d="" fill="#323232" stroke="none"/></g><g><path d="" fill="url(#color-17)" stroke="#bfbfbf"/><path d="" fill="url(#color-18)" stroke="none"/><path d="" fill="#a3a3a3" stroke="none"/><path d="" fill="#323232" stroke="none"/></g><g><path d="" fill="url(#color-19)" stroke="#bfbfbf"/><path d="" fill="url(#color-20)" stroke="none"/><path d="" fill="#a3a3a3" stroke="none"/><path d="" fill="#323232" stroke="none"/></g><g><path d="" fill="url(#color-21)" stroke="#bfbfbf"/><path d="" fill="url(#color-22)" stroke="none"/><path d="" fill="#a3a3a3" stroke="none"/><path d="" fill="url(#color-23)" stroke="none"/><path d="" fill="#323232" stroke="none"/></g><g><path d="" fill="url(#color-24)" stroke="#bfbfbf"/><path d="" fill="url(#color-25)" stroke="none"/><path d="" fill="#a3a3a3" stroke="none"/><path d="" fill="#323232" stroke="none"/></g><g><path d="" fill="url(#color-26)" stroke="#bfbfbf"/><path d="" fill="url(#color-27)" stroke="none"/><path d="" fill="#a3a3a3" stroke="none"/><path d="" fill="url(#color-28)" stroke="none"/><path d="" fill="#323232" stroke="none"/></g><g><path d="" fill="url(#color-29)" stroke="#bfbfbf"/><path d="" fill="url(#color-30)" stroke="none"/><path d="" fill="#a3a3a3" stroke="none"/><path d="" fill="url(#color-31)" stroke="none"/><path d="" fill="#323232" stroke="none"/></g><g><path d="" fill="url(#color-32)" stroke="#bfbfbf"/><path d="" fill="url(#color-33)" stroke="none"/><path d="" fill="#a3a3a3" stroke="none"/><path d="" fill="#323232" stroke="none"/></g><g><path d="" fill="url(#color-34)" stroke="#bfbfbf"/><path d="" fill="url(#color-35)" stroke="none"/><path d="" fill="#a3a3a3" stroke="none"/><path d="" fill="#323232" stroke="none"/></g><g><path d="" fill="url(#color-36)" stroke="#bfbfbf"/><path d="" fill="url(#color-37)" stroke="none"/><path d="" fill="#a3a3a3" stroke="none"/><path d="" fill="#323232" stroke="none"/></g><g><path d="" fill="url(#color-38)" stroke="#bfbfbf"/><path d="" fill="url(#color-39)" stroke="none"/><path d="" fill="#a3a3a3" stroke="none"/><path d="" fill="url(#color-40)" stroke="none"/><path d="" fill="#323232" stroke="none"/></g><g><path d="" fill="url(#color-41)" stroke="#bfbfbf"/><path d="" fill="url(#color-42)" stroke="none"/><path d="" fill="#a3a3a3" stroke="none"/><path d="" fill="url(#color-43)" stroke="none"/><path d="" fill="#323232" stroke="none"/></g></g><path d="M127.53274,229.10665l-8.03996,-18.0899l159.07626,1.14856l-7.46568,16.94134z" fill="url(#color-44)" stroke="none"/><path d="M192.28054,229.23473v-14.81767h14.91206v14.81767z" fill="#dadada" stroke="none"/><g fill="#f1f1f1" stroke="none"><path d="M192.79618,218.8349h-2.29507c0,0 -0.24779,-2.6182 -0.34264,-3.62043c-0.06735,-0.71168 -0.17278,-1.82557 -0.17278,-1.82557l19.21811,-0.13186l-0.45856,5.66186h-2.23451l0.30672,-3.55805l-14.1956,-0.03775z"/><path d="M191.38187,229.09504l-0.88075,-10.43054h2.26479l0.88075,10.43054z"/><path d="M205.64165,229.13742l0.88076,-10.43054h2.26478l-0.88076,10.43054z" data-paper-data="{&quot;index&quot;:null}"/></g><path d="M119.19382,212.33678v-64.38511h159.29765v64.38511z" fill="#e2e2e2" stroke="none"/><path d="M189.91624,213.50628v-0.72951h19.23476v0.72951z" fill="#c8c8c8" stroke="none"/><path d="M195.17816,222.16863l-0.4168,-5.14051h10.14209l-0.48627,5.14051z" fill="url(#color-45)" stroke="#000000"/><path d="M202.75155,224.11555v-0.928h2.47466v0.928z" fill="#909090" stroke="none"/><g stroke="none"><g><path d="M137.7693,223.40511v-7.03498h8.5074v7.03498z" fill="url(#color-46)"/><g><path d="M137.20004,223.90094l-1.30254,-7.40579h1.96624l0.55899,7.40579z" fill="#f1f1f1"/><path d="M137.44619,223.92254v-0.6289h9.43542v0.6289z" fill="#f1f1f1"/><path d="M145.642,223.7903l0.2976,-7.4058h2.13176l-1.20667,7.4058z" fill="#f1f1f1"/><path d="M135.8933,216.53414l-0.27483,-1.53934h12.72733l-0.29436,1.53934z" fill="#f1f1f1"/><path d="M138.18685,223.3439v-0.44153h7.47792l0.03919,0.44153z" fill="#c8c8c8"/><path d="M135.627,215.06377v-0.69909h12.72094v0.69909z" fill="#c8c8c8"/></g></g><g><path d="M133.262,224.27872l-2.22067,-8.8063l4.69454,-0.52339l1.34835,8.98076z" fill="#b38534"/><path d="M131.05752,215.59945v-0.65471l4.69207,-0.54559v0.65471z" fill="#9c732d"/><path d="M133.45036,223.37783l-0.11043,-0.51819l3.16988,-0.37384l0.10917,0.51945z" fill="#9c732d"/><path d="M133.08219,221.44543l-0.11043,-0.51819l3.16988,-0.37384l0.10917,0.51945z" fill="#9c732d"/><path d="M132.64291,219.29972l-0.11043,-0.51819l3.16988,-0.37384l0.10917,0.51945z" fill="#9c732d"/><path d="M132.2392,217.08291l-0.11043,-0.51819l3.16988,-0.37384l0.10917,0.51945z" fill="#9c732d"/></g><g data-paper-data="{&quot;index&quot;:null}"><path d="M146.91538,223.91668l1.34835,-8.98076l4.69454,0.52339l-2.22067,8.8063z" fill="#b38534"/><path d="M148.25,215.04072v-0.65471l4.69207,0.54559v0.65471z" fill="#9c732d"/><path d="M147.38063,222.99211l0.10917,-0.51945l3.16988,0.37384l-0.11043,0.51819z" fill="#9c732d"/><path d="M147.74879,221.05972l0.10917,-0.51945l3.16987,0.37384l-0.11043,0.51819z" fill="#9c732d"/><path d="M148.18806,218.91401l0.10917,-0.51945l3.16988,0.37384l-0.11043,0.51819z" fill="#9c732d"/><path d="M148.59178,216.69721l0.10917,-0.51945l3.16987,0.37384l-0.11043,0.5182z" fill="#9c732d"/></g></g><g stroke="none"><g><path d="M166.97466,223.4051v-7.03498h8.50741v7.03498z" fill="url(#color-47)"/><g><path d="M166.40541,223.90093l-1.30254,-7.40579h1.96623l0.55899,7.40579z" fill="#f1f1f1"/><path d="M166.65155,223.92253v-0.6289h9.43542v0.6289z" fill="#f1f1f1"/><path d="M174.84736,223.79029l0.2976,-7.4058h2.13176l-1.20667,7.4058z" fill="#f1f1f1"/><path d="M165.09866,216.53413l-0.27483,-1.53934h12.72733l-0.29436,1.53934z" fill="#f1f1f1"/><path d="M167.3922,223.3439v-0.44153h7.47792l0.03919,0.44153z" fill="#c8c8c8"/><path d="M164.83236,215.06376v-0.69909h12.72094v0.69909z" fill="#c8c8c8"/></g></g><g><path d="M162.46736,224.27872l-2.22067,-8.8063l4.69454,-0.52339l1.34835,8.98076z" fill="#b38534"/><path d="M160.26288,215.59944v-0.65471l4.69208,-0.54559v0.65471z" fill="#9c732d"/><path d="M162.65571,223.37782l-0.11043,-0.51819l3.16987,-0.37384l0.10917,0.51945z" fill="#9c732d"/><path d="M162.28755,221.44542l-0.11043,-0.51819l3.16988,-0.37384l0.10917,0.51945z" fill="#9c732d"/><path d="M161.84828,219.29971l-0.11043,-0.51819l3.16987,-0.37384l0.10917,0.51945z" fill="#9c732d"/><path d="M161.44457,217.08291l-0.11043,-0.5182l3.16987,-0.37384l0.10917,0.51945z" fill="#9c732d"/></g><g data-paper-data="{&quot;index&quot;:null}"><path d="M176.12075,223.91667l1.34835,-8.98076l4.69454,0.52339l-2.22067,8.8063z" fill="#b38534"/><path d="M177.45537,215.04072v-0.65471l4.69208,0.54559v0.65471z" fill="#9c732d"/><path d="M176.58599,222.99211l0.10917,-0.51945l3.16987,0.37384l-0.11043,0.51819z" fill="#9c732d"/><path d="M176.95416,221.05971l0.10917,-0.51945l3.16987,0.37384l-0.11043,0.51819z" fill="#9c732d"/><path d="M177.39343,218.91401l0.10917,-0.51945l3.16987,0.37384l-0.11043,0.51819z" fill="#9c732d"/><path d="M177.79714,216.6972l0.10917,-0.51945l3.16987,0.37384l-0.11043,0.51819z" fill="#9c732d"/></g></g><g stroke="none"><g><path d="M223.32868,223.4051v-7.03498h8.5074v7.03498z" fill="url(#color-48)"/><g><path d="M222.75943,223.90093l-1.30254,-7.40579h1.96624l0.55899,7.40579z" fill="#f1f1f1"/><path d="M223.00557,223.92253v-0.6289h9.43542v0.6289z" fill="#f1f1f1"/><path d="M231.20138,223.79029l0.2976,-7.4058h2.13176l-1.20667,7.4058z" fill="#f1f1f1"/><path d="M221.45268,216.53413l-0.27483,-1.53934h12.72733l-0.29436,1.53934z" fill="#f1f1f1"/><path d="M223.74623,223.3439v-0.44153h7.47792l0.03919,0.44153z" fill="#c8c8c8"/><path d="M221.18638,215.06376v-0.69909h12.72094v0.69909z" fill="#c8c8c8"/></g></g><g><path d="M218.82138,224.27872l-2.22067,-8.8063l4.69454,-0.52339l1.34835,8.98076z" fill="#b38534"/><path d="M216.6169,215.59944v-0.65471l4.69207,-0.54559v0.65471z" fill="#9c732d"/><path d="M219.00974,223.37782l-0.11043,-0.51819l3.16988,-0.37384l0.10917,0.51945z" fill="#9c732d"/><path d="M218.64157,221.44542l-0.11043,-0.51819l3.16988,-0.37384l0.10917,0.51945z" fill="#9c732d"/><path d="M218.2023,219.29971l-0.11043,-0.51819l3.16988,-0.37384l0.10917,0.51945z" fill="#9c732d"/><path d="M217.79858,217.0829l-0.11043,-0.51819l3.16988,-0.37384l0.10917,0.51945z" fill="#9c732d"/></g><g data-paper-data="{&quot;index&quot;:null}"><path d="M232.47476,223.91667l1.34835,-8.98076l4.69454,0.52339l-2.22067,8.8063z" fill="#b38534"/><path d="M233.80938,215.04072v-0.65471l4.69207,0.54559v0.65471z" fill="#9c732d"/><path d="M232.94001,222.99211l0.10917,-0.51945l3.16988,0.37384l-0.11043,0.51819z" fill="#9c732d"/><path d="M233.30817,221.05971l0.10917,-0.51945l3.16987,0.37384l-0.11043,0.51819z" fill="#9c732d"/><path d="M233.74744,218.91401l0.10917,-0.51945l3.16988,0.37384l-0.11043,0.51819z" fill="#9c732d"/><path d="M234.15116,216.6972l0.10917,-0.51945l3.16987,0.37384l-0.11043,0.5182z" fill="#9c732d"/></g></g><g stroke="none"><path d="M252.53405,223.40509v-7.03498h8.5074v7.03498z" fill="url(#color-49)"/><g><path d="M251.9648,223.90092l-1.30254,-7.40579h1.96624l0.55899,7.40579z" fill="#f1f1f1"/><path d="M252.21094,223.92252v-0.6289h9.43542v0.6289z" fill="#f1f1f1"/><path d="M260.40674,223.79028l0.2976,-7.4058h2.13176l-1.20667,7.4058z" fill="#f1f1f1"/><path d="M250.65804,216.53412l-0.27483,-1.53934h12.72733l-0.29437,1.53934z" fill="#f1f1f1"/><path d="M252.95159,223.34389v-0.44153h7.47792l0.03918,0.44153z" fill="#c8c8c8"/><path d="M250.39175,215.06375v-0.69909h12.72094v0.69909z" fill="#c8c8c8"/></g></g><g stroke="none"><path d="M248.02675,224.27871l-2.22067,-8.8063l4.69454,-0.52339l1.34835,8.98076z" fill="#b38534"/><path d="M245.82227,215.59943v-0.65471l4.69207,-0.54559v0.65471z" fill="#9c732d"/><path d="M248.2151,223.37781l-0.11043,-0.51819l3.16988,-0.37384l0.10917,0.51945z" fill="#9c732d"/><path d="M247.84694,221.44541l-0.11043,-0.51819l3.16987,-0.37384l0.10917,0.51945z" fill="#9c732d"/><path d="M247.40767,219.2997l-0.11043,-0.51819l3.16988,-0.37384l0.10917,0.51945z" fill="#9c732d"/><path d="M247.00395,217.0829l-0.11043,-0.5182l3.16987,-0.37384l0.10917,0.51945z" fill="#9c732d"/></g><g data-paper-data="{&quot;index&quot;:null}" stroke="none"><path d="M261.68012,223.91666l1.34835,-8.98076l4.69454,0.52339l-2.22067,8.8063z" fill="#b38534"/><path d="M263.01475,215.04071v-0.65471l4.69207,0.54559v0.65471z" fill="#9c732d"/><path d="M262.14537,222.9921l0.10917,-0.51945l3.16987,0.37384l-0.11043,0.51819z" fill="#9c732d"/><path d="M262.51354,221.0597l0.10917,-0.51945l3.16987,0.37384l-0.11043,0.51819z" fill="#9c732d"/><path d="M262.95281,218.914l0.10917,-0.51945l3.16987,0.37384l-0.11043,0.51819z" fill="#9c732d"/><path d="M263.35652,216.69719l0.10917,-0.51945l3.16987,0.37384l-0.11043,0.51819z" fill="#9c732d"/></g><path d="M294.52968,219.24176l-0.52516,-11.87964l42.13069,0.11035l-1.74364,11.75614z" fill="url(#color-50)" stroke="none"/><path d="M292.16787,219.22253l-2.39723,-11.51008l4.69537,0.0636l0.47624,11.31929z" fill="#f1f1f1" stroke="none"/><path d="M289.69001,207.83632l-0.42794,-2.37922h50.58685l-0.68829,2.37922z" fill="#f1f1f1" stroke="none"/><path d="M289.29654,205.5737v-0.90043h50.56104v0.90043z" fill="#c8c8c8" stroke="none"/><path d="M333.99075,219.09533l0.47624,-11.3193l4.69537,-0.06359l-2.39722,11.51008z" data-paper-data="{&quot;index&quot;:null}" fill="#f1f1f1" stroke="none"/><path d="M270.5131,130.89335l7.46568,16.94134l-159.07626,1.14856l8.03996,-18.0899z" data-paper-data="{&quot;index&quot;:null}" fill="url(#color-51)" stroke="none"/><g data-paper-data="{&quot;index&quot;:null}" stroke="none"><g><path d="M145.68643,136.59489v7.03498h-8.5074v-7.03498z" fill="url(#color-52)"/><g><path d="M137.83247,136.09906l-0.55899,7.40579h-1.96624l1.30254,-7.40579z" fill="#f1f1f1"/><path d="M146.29135,136.07746v0.6289h-9.43542v-0.6289z" fill="#f1f1f1"/><path d="M146.27443,136.2097l1.20667,7.4058h-2.13176l-0.2976,-7.4058z" fill="#f1f1f1"/><path d="M147.46118,143.46586l0.29436,1.53934h-12.72733l0.27483,-1.53934z" fill="#f1f1f1"/><path d="M145.1137,136.6561l-0.03919,0.44153h-7.47792v-0.44153z" fill="#c8c8c8"/><path d="M147.75768,144.93623v0.69909h-12.72094v-0.69909z" fill="#c8c8c8"/></g></g><g><path d="M136.49396,136.07021l-1.34835,8.98076l-4.69454,-0.52339l2.22067,-8.8063z" fill="#b38534"/><path d="M135.15933,144.94614v0.65471l-4.69207,-0.54559v-0.65471z" fill="#9c732d"/><path d="M136.02872,136.99475l-0.10917,0.51945l-3.16988,-0.37384l0.11043,-0.51819z" fill="#9c732d"/><path d="M135.66055,138.92715l-0.10917,0.51945l-3.16988,-0.37384l0.11043,-0.51819z" fill="#9c732d"/><path d="M135.22128,141.07286l-0.10917,0.51945l-3.16988,-0.37384l0.11043,-0.51819z" fill="#9c732d"/><path d="M134.81756,143.28967l-0.10917,0.51945l-3.16988,-0.37384l0.11043,-0.51819z" fill="#9c732d"/></g><g data-paper-data="{&quot;index&quot;:null}"><path d="M150.14734,135.73439l2.22067,8.8063l-4.69454,0.52339l-1.34835,-8.98076z" fill="#b38534"/><path d="M152.35181,144.41369v0.65471l-4.69207,0.54559v-0.65471z" fill="#9c732d"/><path d="M149.95899,136.63531l0.11043,0.51819l-3.16988,0.37384l-0.10917,-0.51945z" fill="#9c732d"/><path d="M150.32714,138.5677l0.11043,0.51819l-3.16987,0.37384l-0.10917,-0.51945z" fill="#9c732d"/><path d="M150.76642,140.71341l0.11043,0.51819l-3.16988,0.37384l-0.10917,-0.51945z" fill="#9c732d"/><path d="M151.17013,142.9302l0.11043,0.5182l-3.16987,0.37384l-0.10917,-0.51945z" fill="#9c732d"/></g></g><g data-paper-data="{&quot;index&quot;:null}" stroke="none"><g><path d="M185.17752,136.5949v7.03498h-8.50741v-7.03498z" fill="url(#color-53)"/><g><path d="M177.32354,136.09907l-0.55899,7.40579h-1.96623l1.30254,-7.40579z" fill="#f1f1f1"/><path d="M185.78242,136.07747v0.6289h-9.43542v-0.6289z" fill="#f1f1f1"/><path d="M185.7655,136.20971l1.20667,7.4058h-2.13176l-0.2976,-7.4058z" fill="#f1f1f1"/><path d="M186.95225,143.46587l0.29436,1.53934h-12.72733l0.27483,-1.53934z" fill="#f1f1f1"/><path d="M184.60477,136.6561l-0.03919,0.44153h-7.47792v-0.44153z" fill="#c8c8c8"/><path d="M187.24875,144.93624v0.69909h-12.72094v-0.69909z" fill="#c8c8c8"/></g></g><g><path d="M175.98503,136.07021l-1.34835,8.98076l-4.69454,-0.52339l2.22067,-8.8063z" fill="#b38534"/><path d="M174.65041,144.94615v0.65471l-4.69208,-0.54559v-0.65471z" fill="#9c732d"/><path d="M175.51977,136.99476l-0.10917,0.51945l-3.16987,-0.37384l0.11043,-0.51819z" fill="#9c732d"/><path d="M175.15162,138.92716l-0.10917,0.51945l-3.16988,-0.37384l0.11043,-0.51819z" fill="#9c732d"/><path d="M174.71234,141.07287l-0.10917,0.51945l-3.16987,-0.37384l0.11043,-0.51819z" fill="#9c732d"/><path d="M174.30863,143.28968l-0.10917,0.51945l-3.16987,-0.37384l0.11043,-0.5182z" fill="#9c732d"/></g><g data-paper-data="{&quot;index&quot;:null}"><path d="M189.63842,135.7344l2.22067,8.8063l-4.69454,0.52339l-1.34835,-8.98076z" fill="#b38534"/><path d="M191.8429,144.41369v0.65471l-4.69208,0.54559v-0.65471z" fill="#9c732d"/><path d="M189.45005,136.63531l0.11043,0.51819l-3.16987,0.37384l-0.10917,-0.51945z" fill="#9c732d"/><path d="M189.81822,138.56771l0.11043,0.51819l-3.16987,0.37384l-0.10917,-0.51945z" fill="#9c732d"/><path d="M190.25749,140.71341l0.11043,0.51819l-3.16987,0.37384l-0.10917,-0.51945z" fill="#9c732d"/><path d="M190.6612,142.93022l0.11043,0.51819l-3.16987,0.37384l-0.10917,-0.51945z" fill="#9c732d"/></g></g><g data-paper-data="{&quot;index&quot;:null}" stroke="none"><g><path d="M222.24582,136.5949v7.03498h-8.5074v-7.03498z" fill="url(#color-54)"/><g><path d="M214.39186,136.09907l-0.55899,7.40579h-1.96624l1.30254,-7.40579z" fill="#f1f1f1"/><path d="M222.85073,136.07747v0.6289h-9.43542v-0.6289z" fill="#f1f1f1"/><path d="M222.83381,136.20971l1.20667,7.4058h-2.13176l-0.2976,-7.4058z" fill="#f1f1f1"/><path d="M224.02056,143.46587l0.29436,1.53934h-12.72733l0.27483,-1.53934z" fill="#f1f1f1"/><path d="M221.67308,136.6561l-0.03919,0.44153h-7.47792v-0.44153z" fill="#c8c8c8"/><path d="M224.31706,144.93624v0.69909h-12.72094v-0.69909z" fill="#c8c8c8"/></g></g><g><path d="M213.05334,136.07021l-1.34835,8.98076l-4.69454,-0.52339l2.22067,-8.8063z" fill="#b38534"/><path d="M211.71871,144.94615v0.65471l-4.69207,-0.54559v-0.65471z" fill="#9c732d"/><path d="M212.5881,136.99476l-0.10917,0.51945l-3.16988,-0.37384l0.11043,-0.51819z" fill="#9c732d"/><path d="M212.21993,138.92716l-0.10917,0.51945l-3.16988,-0.37384l0.11043,-0.51819z" fill="#9c732d"/><path d="M211.78066,141.07287l-0.10917,0.51945l-3.16988,-0.37384l0.11043,-0.51819z" fill="#9c732d"/><path d="M211.37694,143.28968l-0.10917,0.51945l-3.16988,-0.37384l0.11043,-0.51819z" fill="#9c732d"/></g><g data-paper-data="{&quot;index&quot;:null}"><path d="M226.70672,135.7344l2.22067,8.8063l-4.69454,0.52339l-1.34835,-8.98076z" fill="#b38534"/><path d="M228.91119,144.41369v0.65471l-4.69207,0.54559v-0.65471z" fill="#9c732d"/><path d="M226.51837,136.63531l0.11043,0.51819l-3.16988,0.37384l-0.10917,-0.51945z" fill="#9c732d"/><path d="M226.88652,138.56771l0.11043,0.51819l-3.16987,0.37384l-0.10917,-0.51945z" fill="#9c732d"/><path d="M227.3258,140.71341l0.11043,0.51819l-3.16988,0.37384l-0.10917,-0.51945z" fill="#9c732d"/><path d="M227.72951,142.93021l0.11043,0.5182l-3.16987,0.37384l-0.10917,-0.51945z" fill="#9c732d"/></g></g><g data-paper-data="{&quot;index&quot;:null}" stroke="none"><path d="M260.45119,136.59491v7.03498h-8.5074v-7.03498z" fill="url(#color-55)"/><g><path d="M252.59723,136.09908l-0.55899,7.40579h-1.96624l1.30254,-7.40579z" fill="#f1f1f1"/><path d="M261.0561,136.07748v0.6289h-9.43542v-0.6289z" fill="#f1f1f1"/><path d="M261.03917,136.20972l1.20667,7.4058h-2.13176l-0.2976,-7.4058z" fill="#f1f1f1"/><path d="M262.22591,143.46588l0.29437,1.53934h-12.72733l0.27483,-1.53934z" fill="#f1f1f1"/><path d="M259.87843,136.65611l-0.03918,0.44153h-7.47792v-0.44153z" fill="#c8c8c8"/><path d="M262.52243,144.93625v0.69909h-12.72094v-0.69909z" fill="#c8c8c8"/></g></g><g data-paper-data="{&quot;index&quot;:null}" stroke="none"><path d="M251.25871,136.07022l-1.34835,8.98076l-4.69454,-0.52339l2.22067,-8.8063z" fill="#b38534"/><path d="M249.92408,144.94616v0.65471l-4.69207,-0.54559v-0.65471z" fill="#9c732d"/><path d="M250.79346,136.99477l-0.10917,0.51945l-3.16988,-0.37384l0.11043,-0.51819z" fill="#9c732d"/><path d="M250.42529,138.92717l-0.10917,0.51945l-3.16987,-0.37384l0.11043,-0.51819z" fill="#9c732d"/><path d="M249.98603,141.07288l-0.10917,0.51945l-3.16988,-0.37384l0.11043,-0.51819z" fill="#9c732d"/><path d="M249.5823,143.28969l-0.10917,0.51945l-3.16987,-0.37384l0.11043,-0.5182z" fill="#9c732d"/></g><g data-paper-data="{&quot;index&quot;:null}" stroke="none"><path d="M264.91209,135.73441l2.22067,8.8063l-4.69454,0.52339l-1.34835,-8.98076z" fill="#b38534"/><path d="M267.11656,144.4137v0.65471l-4.69207,0.54559v-0.65471z" fill="#9c732d"/><path d="M264.72372,136.63532l0.11043,0.51819l-3.16987,0.37384l-0.10917,-0.51945z" fill="#9c732d"/><path d="M265.09189,138.56772l0.11043,0.51819l-3.16987,0.37384l-0.10917,-0.51945z" fill="#9c732d"/><path d="M265.53116,140.71342l0.11043,0.51819l-3.16987,0.37384l-0.10917,-0.51945z" fill="#9c732d"/><path d="M265.93487,142.93023l0.11043,0.51819l-3.16987,0.37384l-0.10917,-0.51945z" fill="#9c732d"/></g><path d="M271.53847,202.62819v-38.84615h88.84615v38.84615z" fill="#e2e2e2" stroke="none"/><path d="M98.08211,261.20544v-155.37864h289.09392v155.37864z" fill="none" stroke="none"/></g></g></svg>