<svg version="1.1" xmlns="http://www.w3.org/2000/svg" xmlns:xlink="http://www.w3.org/1999/xlink" width="616.32718" height="459.45838" viewBox="0,0,616.32718,459.45838"><defs><linearGradient x1="240.55406" y1="64.40237" x2="240.55406" y2="122.31791" gradientUnits="userSpaceOnUse" id="color-1"><stop offset="0" stop-color="#8adef2"/><stop offset="1" stop-color="#abe5f2"/></linearGradient><linearGradient x1="241.53587" y1="118.48687" x2="241.53587" y2="361.78918" gradientUnits="userSpaceOnUse" id="color-2"><stop offset="0" stop-color="#5de962"/><stop offset="1" stop-color="#47b24b"/></linearGradient><radialGradient cx="373.34072" cy="50.55441" r="29.00956" gradientUnits="userSpaceOnUse" id="color-3"><stop offset="0" stop-color="#ffffff"/><stop offset="1" stop-color="#ffffff" stop-opacity="0"/></radialGradient><radialGradient cx="331.21531" cy="67.63227" r="46.84642" gradientUnits="userSpaceOnUse" id="color-4"><stop offset="0" stop-color="#ffffff"/><stop offset="1" stop-color="#ffffff" stop-opacity="0"/></radialGradient><radialGradient cx="330.69597" cy="48.37726" r="46.84642" gradientUnits="userSpaceOnUse" id="color-5"><stop offset="0" stop-color="#ffffff"/><stop offset="1" stop-color="#ffffff" stop-opacity="0"/></radialGradient><radialGradient cx="304.4301" cy="44.32252" r="29.00956" gradientUnits="userSpaceOnUse" id="color-6"><stop offset="0" stop-color="#ffffff"/><stop offset="1" stop-color="#ffffff" stop-opacity="0"/></radialGradient><radialGradient cx="295.76133" cy="71.84683" r="29.00956" gradientUnits="userSpaceOnUse" id="color-7"><stop offset="0" stop-color="#ffffff"/><stop offset="1" stop-color="#ffffff" stop-opacity="0"/></radialGradient><radialGradient cx="280.10166" cy="45.16144" r="29.00956" gradientUnits="userSpaceOnUse" id="color-8"><stop offset="0" stop-color="#ffffff"/><stop offset="1" stop-color="#ffffff" stop-opacity="0"/></radialGradient><radialGradient cx="353.62483" cy="65.85107" r="29.00956" gradientUnits="userSpaceOnUse" id="color-9"><stop offset="0" stop-color="#ffffff"/><stop offset="1" stop-color="#ffffff" stop-opacity="0"/></radialGradient><radialGradient cx="217.33887" cy="80.73739" r="29.00956" gradientUnits="userSpaceOnUse" id="color-10"><stop offset="0" stop-color="#ffffff"/><stop offset="1" stop-color="#ffffff" stop-opacity="0"/></radialGradient><radialGradient cx="199.70385" cy="64.11982" r="29.00956" gradientUnits="userSpaceOnUse" id="color-11"><stop offset="0" stop-color="#ffffff"/><stop offset="1" stop-color="#ffffff" stop-opacity="0"/></radialGradient><radialGradient cx="189.79563" cy="81.35151" r="29.00956" gradientUnits="userSpaceOnUse" id="color-12"><stop offset="0" stop-color="#ffffff"/><stop offset="1" stop-color="#ffffff" stop-opacity="0"/></radialGradient></defs><g transform="translate(63.23387,46.35736)"><g data-paper-data="{&quot;isPaintingLayer&quot;:true}" fill-rule="nonzero" stroke-linecap="butt" stroke-linejoin="miter" stroke-miterlimit="10" stroke-dasharray="" stroke-dashoffset="0" style="mix-blend-mode: normal"><path d="M-0.25139,361.49015l1.17948,-234.40836l-2.26342,-4.39676l-0.56495,-124.47501h484.10211v363.28013z" fill="#8adef2" stroke="none" stroke-width="0"/><path d="M-1.49696,122.31791v-57.91554h484.10211c0,0 0,13.15959 0,21.18727c0,10.56946 0,36.72824 0,36.72824z" fill="url(#color-1)" stroke="none" stroke-width="0"/><path d="M-1.82592,361.42782v-239.52539c0,0 52.49955,1.41955 112.79516,-0.41458c51.24969,-1.55896 114.60743,-3.00099 152.56831,-3.00099c78.70606,0 218.98343,3.41557 218.98343,3.41557c0,0 0,176.97749 0,213.7197c0,12.76732 0,25.80569 0,25.80569z" fill="url(#color-2)" stroke="none" stroke-width="0"/><path d="M295.34515,198.73069c-52.5891,-11.47925 -87.90533,-35.0657 -176.23001,-55.16009c-80.81397,-19.05621 -121.18155,-12.95038 -121.18155,-12.95038l-0.01894,-4.83848c0,0 90.48705,-2.40492 162.11675,10.93367c66.69897,12.42043 79.2069,14.63934 145.25539,29.71899c82.56452,18.85044 176.71348,5.83293 176.71348,5.83293l0.20103,27.99662c0,0 -76.78945,22.49225 -186.85611,-1.53327z" data-paper-data="{&quot;index&quot;:null}" fill="#868686" stroke="none" stroke-width="0"/><path d="M239.51987,361.59571l242.54643,-133.3266l0.4521,113.98964l-16.58094,19.53128z" fill="#5a5a5a" stroke="none" stroke-width="0"/><path d="M-2.08767,129.55503c0,0 11.25662,-1.03344 28.2977,-0.62294c17.86109,0.43027 42.39365,2.41124 67.96114,7.24056c10.09332,1.9065 45.03105,9.42173 85.2026,20.70186c26.23076,7.36556 54.90244,19.39582 80.34943,26.77129c29.04367,8.41793 54.15852,13.44991 67.54146,15.71218c82.61856,13.96591 154.84629,-3.73072 154.84629,-3.73072l0.0417,3.17122c0,0 -71.66598,17.90141 -156.54358,2.93723c-17.39844,-2.91199 -36.68874,-5.89219 -67.35025,-15.63612c-23.23401,-7.38357 -56.12753,-20.34727 -79.15273,-27.33775c-41.44538,-12.58288 -78.31213,-20.1216 -84.79472,-21.46168c-24.98498,-5.16488 -49.895,-7.34145 -68.09292,-7.76981c-16.90492,-0.39791 -28.30611,0.65281 -28.30611,0.65281z" fill="#ececec" stroke="none" stroke-width="0"/><path d="M-2.04163,125.93423c0,0 10.90621,-0.17552 26.66968,0.07896c23.01379,0.37155 56.99539,1.51465 84.91757,4.25943c12.58368,1.23699 54.11638,7.16893 100.66377,16.39139c47.41641,9.39464 78.04183,20.89424 147.25791,28.56406c58.0969,6.4377 124.77751,-2.64213 124.77751,-2.64213v1.45787c0,0 -69.58294,9.64513 -123.79063,3.31388c-69.69894,-8.14059 -101.26236,-19.98494 -148.40652,-29.57547c-47.87932,-9.74007 -87.14121,-15.44274 -99.91883,-16.6988c-32.65743,-3.21025 -73.07244,-4.46977 -94.74021,-4.75276c-9.54772,-0.12471 -17.43018,0.18675 -17.43018,0.18675z" fill="#ececec" stroke="none" stroke-width="0"/><path d="M267.63732,361.4233l-14.66417,0.22796l229.51282,-129.7666l-0.20077,2.86729z" fill="#ffe327" stroke="#000000" stroke-width="0"/><path d="M402.35024,50.55441c0,16.02153 -12.98803,29.00956 -29.00956,29.00956c-16.02157,0 -29.00956,-12.98803 -29.00956,-29.00956c0,-16.02153 12.98803,-29.00956 29.00956,-29.00956c16.02157,0 29.00956,12.98803 29.00956,29.00956z" data-paper-data="{&quot;index&quot;:null}" fill="url(#color-3)" stroke="none" stroke-width="0"/><path d="M378.06179,67.63227c0,25.87257 -20.97385,46.84642 -46.84642,46.84642c-25.87257,0 -46.84642,-20.97385 -46.84642,-46.84642c0,-25.87257 20.97385,-46.84639 46.84642,-46.84639c25.87257,0 46.84642,20.97381 46.84642,46.84639z" data-paper-data="{&quot;index&quot;:null}" fill="url(#color-4)" stroke="none" stroke-width="0"/><path d="M377.54245,48.37726c0,25.87257 -20.97385,46.84642 -46.84642,46.84642c-25.87257,0 -46.84642,-20.97385 -46.84642,-46.84642c0,-25.87257 20.97385,-46.84639 46.84642,-46.84639c25.87257,0 46.84642,20.97381 46.84642,46.84639z" data-paper-data="{&quot;index&quot;:null}" fill="url(#color-5)" stroke="none" stroke-width="0"/><path d="M333.43962,44.32252c0,16.02153 -12.98803,29.00956 -29.00956,29.00956c-16.02157,0 -29.00956,-12.98803 -29.00956,-29.00956c0,-16.02153 12.98803,-29.00956 29.00956,-29.00956c16.02153,0 29.00956,12.98803 29.00956,29.00956z" data-paper-data="{&quot;index&quot;:null}" fill="url(#color-6)" stroke="none" stroke-width="0"/><path d="M324.7709,71.84683c0,16.02153 -12.98803,29.00956 -29.00956,29.00956c-16.02153,0 -29.00956,-12.98803 -29.00956,-29.00956c0,-16.02153 12.98803,-29.00956 29.00956,-29.00956c16.02157,0 29.00956,12.98803 29.00956,29.00956z" data-paper-data="{&quot;index&quot;:null}" fill="url(#color-7)" stroke="none" stroke-width="0"/><path d="M309.11118,45.16144c0,16.02153 -12.98803,29.00956 -29.00956,29.00956c-16.02153,0 -29.00956,-12.98803 -29.00956,-29.00956c0,-16.02153 12.98803,-29.00956 29.00956,-29.00956c16.02153,0 29.00956,12.98803 29.00956,29.00956z" data-paper-data="{&quot;index&quot;:null}" fill="url(#color-8)" stroke="none" stroke-width="0"/><path d="M382.6344,65.85107c0,16.02153 -12.98803,29.00956 -29.00956,29.00956c-16.02157,0 -29.00956,-12.98803 -29.00956,-29.00956c0,-16.02153 12.98803,-29.00956 29.00956,-29.00956c16.02153,0 29.00956,12.98803 29.00956,29.00956z" data-paper-data="{&quot;index&quot;:null}" fill="url(#color-9)" stroke="none" stroke-width="0"/><path d="M246.3484,80.73739c0,16.02153 -12.98803,29.00956 -29.00956,29.00956c-16.02153,0 -29.00956,-12.98803 -29.00956,-29.00956c0,-16.02153 12.98803,-29.00956 29.00956,-29.00956c16.02153,0 29.00956,12.98803 29.00956,29.00956z" data-paper-data="{&quot;index&quot;:null}" fill="url(#color-10)" stroke="none" stroke-width="0"/><path d="M228.71343,64.11982c0,16.02153 -12.98803,29.00956 -29.00956,29.00956c-16.02153,0 -29.00956,-12.98803 -29.00956,-29.00956c0,-16.02153 12.98803,-29.00956 29.00956,-29.00956c16.02153,0 29.00956,12.98803 29.00956,29.00956z" data-paper-data="{&quot;index&quot;:null}" fill="url(#color-11)" stroke="none" stroke-width="0"/><path d="M218.80517,81.35151c0,16.02153 -12.98803,29.00956 -29.00956,29.00956c-16.02153,0 -29.00956,-12.98803 -29.00956,-29.00956c0,-16.02153 12.98803,-29.00956 29.00956,-29.00956c16.02153,0 29.00956,12.98803 29.00956,29.00956z" data-paper-data="{&quot;index&quot;:null}" fill="url(#color-12)" stroke="none" stroke-width="0"/><path d="M-63.23387,413.10102v-459.45838h616.32718v459.45838z" fill="none" stroke="none" stroke-width="0"/><g fill="none" stroke="#e0e0e0" stroke-width="2" font-family="&quot;Helvetica Neue&quot;, Helvetica, Arial, sans-serif" font-weight="400" font-size="16" text-anchor="start"/></g></g></svg>