<svg version="1.1" xmlns="http://www.w3.org/2000/svg" xmlns:xlink="http://www.w3.org/1999/xlink" width="150.14955" height="345.11987" viewBox="0,0,150.14955,345.11987"><defs><linearGradient x1="248.79651" y1="292.65727" x2="245.7232" y2="289.64671" gradientUnits="userSpaceOnUse" id="color-1"><stop offset="0" stop-color="#ced6d7"/><stop offset="1" stop-color="#ececec"/></linearGradient><linearGradient x1="231.09429" y1="289.9906" x2="234.1676" y2="286.98004" gradientUnits="userSpaceOnUse" id="color-2"><stop offset="0" stop-color="#ced6d7"/><stop offset="1" stop-color="#ececec"/></linearGradient><linearGradient x1="249.79649" y1="252.32393" x2="246.72318" y2="249.31337" gradientUnits="userSpaceOnUse" id="color-3"><stop offset="0" stop-color="#ced6d7"/><stop offset="1" stop-color="#ececec"/></linearGradient><linearGradient x1="231.42763" y1="213.65727" x2="234.50094" y2="210.64671" gradientUnits="userSpaceOnUse" id="color-4"><stop offset="0" stop-color="#ced6d7"/><stop offset="1" stop-color="#ececec"/></linearGradient><linearGradient x1="249.46316" y1="172.32393" x2="246.38985" y2="169.31337" gradientUnits="userSpaceOnUse" id="color-5"><stop offset="0" stop-color="#ced6d7"/><stop offset="1" stop-color="#ececec"/></linearGradient><linearGradient x1="231.0943" y1="133.65727" x2="234.16761" y2="130.64671" gradientUnits="userSpaceOnUse" id="color-6"><stop offset="0" stop-color="#ced6d7"/><stop offset="1" stop-color="#ececec"/></linearGradient><linearGradient x1="249.7965" y1="95.9906" x2="246.72319" y2="92.98004" gradientUnits="userSpaceOnUse" id="color-7"><stop offset="0" stop-color="#ced6d7"/><stop offset="1" stop-color="#ececec"/></linearGradient><linearGradient x1="231.42763" y1="57.32393" x2="234.50094" y2="54.31337" gradientUnits="userSpaceOnUse" id="color-8"><stop offset="0" stop-color="#ced6d7"/><stop offset="1" stop-color="#ececec"/></linearGradient><radialGradient cx="338.12798" cy="167.8596" r="13.82455" gradientUnits="userSpaceOnUse" id="color-9"><stop offset="0" stop-color="#f07070"/><stop offset="1" stop-color="#cf5555"/></radialGradient><radialGradient cx="338.12798" cy="167.8596" r="11.92469" gradientUnits="userSpaceOnUse" id="color-10"><stop offset="0" stop-color="#ff9d9d"/><stop offset="1" stop-color="#ff9d9d" stop-opacity="0"/></radialGradient><radialGradient cx="338.12798" cy="167.8596" r="11.92469" gradientUnits="userSpaceOnUse" id="color-11"><stop offset="0" stop-color="#ff9d9d"/><stop offset="1" stop-color="#ff9d9d" stop-opacity="0"/></radialGradient><radialGradient cx="282.13847" cy="167.43696" r="13.58909" gradientUnits="userSpaceOnUse" id="color-12"><stop offset="0" stop-color="#f7f7f7"/><stop offset="1" stop-color="#cecece"/></radialGradient><radialGradient cx="282.13847" cy="167.43696" r="11.72159" gradientUnits="userSpaceOnUse" id="color-13"><stop offset="0" stop-color="#f7f7f7"/><stop offset="1" stop-color="#f7f7f7" stop-opacity="0"/></radialGradient><radialGradient cx="310.23694" cy="167.68678" r="13.82455" gradientUnits="userSpaceOnUse" id="color-14"><stop offset="0" stop-color="#f07070"/><stop offset="1" stop-color="#cf5555"/></radialGradient><radialGradient cx="310.23694" cy="167.68678" r="11.92468" gradientUnits="userSpaceOnUse" id="color-15"><stop offset="0" stop-color="#ff9d9d"/><stop offset="1" stop-color="#ff9d9d" stop-opacity="0"/></radialGradient><radialGradient cx="310.23694" cy="167.68678" r="11.92468" gradientUnits="userSpaceOnUse" id="color-16"><stop offset="0" stop-color="#ff9d9d"/><stop offset="1" stop-color="#ff9d9d" stop-opacity="0"/></radialGradient><radialGradient cx="309.92589" cy="191.53416" r="13.82455" gradientUnits="userSpaceOnUse" id="color-17"><stop offset="0" stop-color="#f07070"/><stop offset="1" stop-color="#cf5555"/></radialGradient><radialGradient cx="309.92589" cy="191.53416" r="11.92469" gradientUnits="userSpaceOnUse" id="color-18"><stop offset="0" stop-color="#ff9d9d"/><stop offset="1" stop-color="#ff9d9d" stop-opacity="0"/></radialGradient><radialGradient cx="309.92589" cy="191.53416" r="11.92469" gradientUnits="userSpaceOnUse" id="color-19"><stop offset="0" stop-color="#ff9d9d"/><stop offset="1" stop-color="#ff9d9d" stop-opacity="0"/></radialGradient><radialGradient cx="282.00021" cy="191.21526" r="13.58909" gradientUnits="userSpaceOnUse" id="color-20"><stop offset="0" stop-color="#f7f7f7"/><stop offset="1" stop-color="#cecece"/></radialGradient><radialGradient cx="282.00021" cy="191.21526" r="11.72159" gradientUnits="userSpaceOnUse" id="color-21"><stop offset="0" stop-color="#f7f7f7"/><stop offset="1" stop-color="#f7f7f7" stop-opacity="0"/></radialGradient><radialGradient cx="254.62759" cy="167.43696" r="13.5891" gradientUnits="userSpaceOnUse" id="color-22"><stop offset="0" stop-color="#f7f7f7"/><stop offset="1" stop-color="#cecece"/></radialGradient><radialGradient cx="254.62759" cy="167.43696" r="11.72159" gradientUnits="userSpaceOnUse" id="color-23"><stop offset="0" stop-color="#f7f7f7"/><stop offset="1" stop-color="#f7f7f7" stop-opacity="0"/></radialGradient><radialGradient cx="254.48935" cy="191.21526" r="13.58909" gradientUnits="userSpaceOnUse" id="color-24"><stop offset="0" stop-color="#f7f7f7"/><stop offset="1" stop-color="#cecece"/></radialGradient><radialGradient cx="254.48935" cy="191.21526" r="11.72159" gradientUnits="userSpaceOnUse" id="color-25"><stop offset="0" stop-color="#f7f7f7"/><stop offset="1" stop-color="#f7f7f7" stop-opacity="0"/></radialGradient><radialGradient cx="224.90488" cy="167.8596" r="13.82455" gradientUnits="userSpaceOnUse" id="color-26"><stop offset="0" stop-color="#f07070"/><stop offset="1" stop-color="#cf5555"/></radialGradient><radialGradient cx="224.90488" cy="167.8596" r="11.92468" gradientUnits="userSpaceOnUse" id="color-27"><stop offset="0" stop-color="#ff9d9d"/><stop offset="1" stop-color="#ff9d9d" stop-opacity="0"/></radialGradient><radialGradient cx="224.90488" cy="167.8596" r="11.92468" gradientUnits="userSpaceOnUse" id="color-28"><stop offset="0" stop-color="#ff9d9d"/><stop offset="1" stop-color="#ff9d9d" stop-opacity="0"/></radialGradient><radialGradient cx="168.91536" cy="167.43696" r="13.5891" gradientUnits="userSpaceOnUse" id="color-29"><stop offset="0" stop-color="#f7f7f7"/><stop offset="1" stop-color="#cecece"/></radialGradient><radialGradient cx="168.91536" cy="167.43696" r="11.72159" gradientUnits="userSpaceOnUse" id="color-30"><stop offset="0" stop-color="#f7f7f7"/><stop offset="1" stop-color="#f7f7f7" stop-opacity="0"/></radialGradient><radialGradient cx="197.01384" cy="167.68678" r="13.82456" gradientUnits="userSpaceOnUse" id="color-31"><stop offset="0" stop-color="#f07070"/><stop offset="1" stop-color="#cf5555"/></radialGradient><radialGradient cx="197.01384" cy="167.68678" r="11.92469" gradientUnits="userSpaceOnUse" id="color-32"><stop offset="0" stop-color="#ff9d9d"/><stop offset="1" stop-color="#ff9d9d" stop-opacity="0"/></radialGradient><radialGradient cx="197.01384" cy="167.68678" r="11.92469" gradientUnits="userSpaceOnUse" id="color-33"><stop offset="0" stop-color="#ff9d9d"/><stop offset="1" stop-color="#ff9d9d" stop-opacity="0"/></radialGradient><radialGradient cx="196.70279" cy="191.53416" r="13.82455" gradientUnits="userSpaceOnUse" id="color-34"><stop offset="0" stop-color="#f07070"/><stop offset="1" stop-color="#cf5555"/></radialGradient><radialGradient cx="196.70279" cy="191.53416" r="11.92468" gradientUnits="userSpaceOnUse" id="color-35"><stop offset="0" stop-color="#ff9d9d"/><stop offset="1" stop-color="#ff9d9d" stop-opacity="0"/></radialGradient><radialGradient cx="196.70279" cy="191.53416" r="11.92468" gradientUnits="userSpaceOnUse" id="color-36"><stop offset="0" stop-color="#ff9d9d"/><stop offset="1" stop-color="#ff9d9d" stop-opacity="0"/></radialGradient><radialGradient cx="168.77711" cy="191.21526" r="13.58909" gradientUnits="userSpaceOnUse" id="color-37"><stop offset="0" stop-color="#f7f7f7"/><stop offset="1" stop-color="#cecece"/></radialGradient><radialGradient cx="168.77711" cy="191.21526" r="11.72159" gradientUnits="userSpaceOnUse" id="color-38"><stop offset="0" stop-color="#f7f7f7"/><stop offset="1" stop-color="#f7f7f7" stop-opacity="0"/></radialGradient><radialGradient cx="141.4045" cy="167.43696" r="13.5891" gradientUnits="userSpaceOnUse" id="color-39"><stop offset="0" stop-color="#f7f7f7"/><stop offset="1" stop-color="#cecece"/></radialGradient><radialGradient cx="141.4045" cy="167.43696" r="11.72159" gradientUnits="userSpaceOnUse" id="color-40"><stop offset="0" stop-color="#f7f7f7"/><stop offset="1" stop-color="#f7f7f7" stop-opacity="0"/></radialGradient><radialGradient cx="141.26625" cy="191.21526" r="13.5891" gradientUnits="userSpaceOnUse" id="color-41"><stop offset="0" stop-color="#f7f7f7"/><stop offset="1" stop-color="#cecece"/></radialGradient><radialGradient cx="141.26625" cy="191.21526" r="11.72159" gradientUnits="userSpaceOnUse" id="color-42"><stop offset="0" stop-color="#f7f7f7"/><stop offset="1" stop-color="#f7f7f7" stop-opacity="0"/></radialGradient><radialGradient cx="338.49835" cy="191.56331" r="13.82455" gradientUnits="userSpaceOnUse" id="color-43"><stop offset="0" stop-color="#f07070"/><stop offset="1" stop-color="#cf5555"/></radialGradient><radialGradient cx="338.49835" cy="191.56331" r="11.92469" gradientUnits="userSpaceOnUse" id="color-44"><stop offset="0" stop-color="#ff9d9d"/><stop offset="1" stop-color="#ff9d9d" stop-opacity="0"/></radialGradient><radialGradient cx="338.49835" cy="191.56331" r="11.92469" gradientUnits="userSpaceOnUse" id="color-45"><stop offset="0" stop-color="#ff9d9d"/><stop offset="1" stop-color="#ff9d9d" stop-opacity="0"/></radialGradient><radialGradient cx="224.79849" cy="192.3277" r="13.82455" gradientUnits="userSpaceOnUse" id="color-46"><stop offset="0" stop-color="#f07070"/><stop offset="1" stop-color="#cf5555"/></radialGradient><radialGradient cx="224.79849" cy="192.3277" r="11.92468" gradientUnits="userSpaceOnUse" id="color-47"><stop offset="0" stop-color="#ff9d9d"/><stop offset="1" stop-color="#ff9d9d" stop-opacity="0"/></radialGradient><radialGradient cx="224.79849" cy="192.3277" r="11.92468" gradientUnits="userSpaceOnUse" id="color-48"><stop offset="0" stop-color="#ff9d9d"/><stop offset="1" stop-color="#ff9d9d" stop-opacity="0"/></radialGradient><linearGradient x1="209.94279" y1="82.55132" x2="218.77139" y2="82.55132" gradientUnits="userSpaceOnUse" id="color-49"><stop offset="0" stop-color="#f7f7f7"/><stop offset="1" stop-color="#ececec"/></linearGradient><linearGradient x1="240.19228" y1="314.79974" x2="240.19228" y2="319.10191" gradientUnits="userSpaceOnUse" id="color-50"><stop offset="0" stop-color="#ced6d7"/><stop offset="1" stop-color="#ececec"/></linearGradient><linearGradient x1="240.19228" y1="40.2418" x2="240.19228" y2="44.54397" gradientUnits="userSpaceOnUse" id="color-51"><stop offset="0" stop-color="#ced6d7"/><stop offset="1" stop-color="#ececec"/></linearGradient><linearGradient x1="258.19233" y1="180.38899" x2="262.49449" y2="180.38899" gradientUnits="userSpaceOnUse" id="color-52"><stop offset="0" stop-color="#ced6d7"/><stop offset="1" stop-color="#ececec"/></linearGradient><linearGradient x1="218.14908" y1="180.38902" x2="222.45125" y2="180.38902" gradientUnits="userSpaceOnUse" id="color-53"><stop offset="0" stop-color="#ced6d7"/><stop offset="1" stop-color="#ececec"/></linearGradient><linearGradient x1="248.12983" y1="57.32394" x2="245.05652" y2="54.31338" gradientUnits="userSpaceOnUse" id="color-54"><stop offset="0" stop-color="#ced6d7"/><stop offset="1" stop-color="#ececec"/></linearGradient></defs><g transform="translate(-164.92523,-7.44006)"><g data-paper-data="{&quot;isPaintingLayer&quot;:true}" fill-rule="nonzero" stroke-width="0" stroke-linecap="butt" stroke-linejoin="miter" stroke-miterlimit="10" stroke-dasharray="" stroke-dashoffset="0" style="mix-blend-mode: normal"><path d="M219.64682,315.34858l38.52385,-38.40883l3.07331,3.01056l-38.52385,38.40883z" data-paper-data="{&quot;index&quot;:null}" fill="url(#color-1)" stroke="none"/><path d="M257.17067,315.69247l-38.52385,-38.40883l3.07331,-3.01056l38.52385,38.40883z" data-paper-data="{&quot;index&quot;:null}" fill="url(#color-2)" stroke="none"/><path d="M220.64681,275.01524l38.52385,-38.40883l3.07331,3.01056l-38.52385,38.40883z" data-paper-data="{&quot;index&quot;:null}" fill="url(#color-3)" stroke="none"/><path d="M257.504,239.35914l-38.52385,-38.40883l3.07331,-3.01056l38.52385,38.40883z" data-paper-data="{&quot;index&quot;:null}" fill="url(#color-4)" stroke="none"/><path d="M220.31348,195.01524l38.52385,-38.40883l3.07331,3.01056l-38.52385,38.40883z" data-paper-data="{&quot;index&quot;:null}" fill="url(#color-5)" stroke="none"/><path d="M257.17067,159.35914l-38.52385,-38.40883l3.07331,-3.01056l38.52385,38.40883z" data-paper-data="{&quot;index&quot;:null}" fill="url(#color-6)" stroke="none"/><path d="M220.64682,118.68191l38.52385,-38.40883l3.07331,3.01056l-38.52385,38.40883z" data-paper-data="{&quot;index&quot;:null}" fill="url(#color-7)" stroke="none"/><path d="M257.504,83.0258l-38.52385,-38.40883l3.07331,-3.01056l38.52385,38.40883z" data-paper-data="{&quot;index&quot;:null}" fill="url(#color-8)" stroke="none"/><g><g><path d="" fill="url(#color-9)" stroke="#bfbfbf"/><path d="" fill="url(#color-10)" stroke="none"/><path d="" fill="#a3a3a3" stroke="none"/><path d="" fill="url(#color-11)" stroke="none"/><path d="" fill="#323232" stroke="none"/></g><g><path d="" fill="url(#color-12)" stroke="#bfbfbf"/><path d="" fill="url(#color-13)" stroke="none"/><path d="" fill="#a3a3a3" stroke="none"/><path d="" fill="#323232" stroke="none"/></g><g><path d="" fill="url(#color-14)" stroke="#bfbfbf"/><path d="" fill="url(#color-15)" stroke="none"/><path d="" fill="#a3a3a3" stroke="none"/><path d="" fill="url(#color-16)" stroke="none"/><path d="" fill="#323232" stroke="none"/></g><g><path d="" fill="url(#color-17)" stroke="#bfbfbf"/><path d="" fill="url(#color-18)" stroke="none"/><path d="" fill="#a3a3a3" stroke="none"/><path d="" fill="url(#color-19)" stroke="none"/><path d="" fill="#323232" stroke="none"/></g><g><path d="" fill="url(#color-20)" stroke="#bfbfbf"/><path d="" fill="url(#color-21)" stroke="none"/><path d="" fill="#a3a3a3" stroke="none"/><path d="" fill="#323232" stroke="none"/></g><g><path d="" fill="url(#color-22)" stroke="#bfbfbf"/><path d="" fill="url(#color-23)" stroke="none"/><path d="" fill="#a3a3a3" stroke="none"/><path d="" fill="#323232" stroke="none"/></g><g><path d="" fill="url(#color-24)" stroke="#bfbfbf"/><path d="" fill="url(#color-25)" stroke="none"/><path d="" fill="#a3a3a3" stroke="none"/><path d="" fill="#323232" stroke="none"/></g><g><path d="" fill="url(#color-26)" stroke="#bfbfbf"/><path d="" fill="url(#color-27)" stroke="none"/><path d="" fill="#a3a3a3" stroke="none"/><path d="" fill="url(#color-28)" stroke="none"/><path d="" fill="#323232" stroke="none"/></g><g><path d="" fill="url(#color-29)" stroke="#bfbfbf"/><path d="" fill="url(#color-30)" stroke="none"/><path d="" fill="#a3a3a3" stroke="none"/><path d="" fill="#323232" stroke="none"/></g><g><path d="" fill="url(#color-31)" stroke="#bfbfbf"/><path d="" fill="url(#color-32)" stroke="none"/><path d="" fill="#a3a3a3" stroke="none"/><path d="" fill="url(#color-33)" stroke="none"/><path d="" fill="#323232" stroke="none"/></g><g><path d="" fill="url(#color-34)" stroke="#bfbfbf"/><path d="" fill="url(#color-35)" stroke="none"/><path d="" fill="#a3a3a3" stroke="none"/><path d="" fill="url(#color-36)" stroke="none"/><path d="" fill="#323232" stroke="none"/></g><g><path d="" fill="url(#color-37)" stroke="#bfbfbf"/><path d="" fill="url(#color-38)" stroke="none"/><path d="" fill="#a3a3a3" stroke="none"/><path d="" fill="#323232" stroke="none"/></g><g><path d="" fill="url(#color-39)" stroke="#bfbfbf"/><path d="" fill="url(#color-40)" stroke="none"/><path d="" fill="#a3a3a3" stroke="none"/><path d="" fill="#323232" stroke="none"/></g><g><path d="" fill="url(#color-41)" stroke="#bfbfbf"/><path d="" fill="url(#color-42)" stroke="none"/><path d="" fill="#a3a3a3" stroke="none"/><path d="" fill="#323232" stroke="none"/></g><g><path d="" fill="url(#color-43)" stroke="#bfbfbf"/><path d="" fill="url(#color-44)" stroke="none"/><path d="" fill="#a3a3a3" stroke="none"/><path d="" fill="url(#color-45)" stroke="none"/><path d="" fill="#323232" stroke="none"/></g><g><path d="" fill="url(#color-46)" stroke="#bfbfbf"/><path d="" fill="url(#color-47)" stroke="none"/><path d="" fill="#a3a3a3" stroke="none"/><path d="" fill="url(#color-48)" stroke="none"/><path d="" fill="#323232" stroke="none"/></g></g><path d="M212.80612,314.51187v-265.0498l5.96527,-6.71863v275.7996z" fill="url(#color-49)" stroke="none"/><path d="M222.40447,314.79974h35.57561v4.30217h-35.57561z" fill="url(#color-50)" stroke="none"/><path d="M222.40447,40.2418h35.57561v4.30217h-35.57561z" fill="url(#color-51)" stroke="none"/><path d="M258.19233,315.52537v-270.27276h4.30217v270.27276z" fill="url(#color-52)" stroke="none"/><path d="M218.14908,315.52544v-270.27276h4.30217v270.27276z" fill="url(#color-53)" stroke="none"/><path d="M215.59523,42.45966c0,-2.69105 2.18152,-4.87257 4.87257,-4.87257c2.69105,0 4.87257,2.18152 4.87257,4.87257c0,2.69105 -2.18152,4.87257 -4.87257,4.87257c-2.69105,0 -4.87257,-2.18152 -4.87257,-4.87257z" fill="#d4dbdb" stroke="none"/><path d="M255.1789,42.45966c0,-2.69105 2.18152,-4.87257 4.87257,-4.87257c2.69105,0 4.87257,2.18152 4.87257,4.87257c0,2.69105 -2.18152,4.87257 -4.87257,4.87257c-2.69105,0 -4.87257,-2.18152 -4.87257,-4.87257z" fill="#d4dbdb" stroke="none"/><path d="M215.59523,316.79877c0,-2.69105 2.18152,-4.87257 4.87257,-4.87257c2.69105,0 4.87257,2.18152 4.87257,4.87257c0,2.69105 -2.18152,4.87257 -4.87257,4.87257c-2.69105,0 -4.87257,-2.18152 -4.87257,-4.87257z" fill="#d4dbdb" stroke="none"/><path d="M255.1789,316.79877c0,-2.69105 2.18152,-4.87257 4.87257,-4.87257c2.69105,0 4.87257,2.18152 4.87257,4.87257c0,2.69105 -2.18152,4.87257 -4.87257,4.87257c-2.69105,0 -4.87257,-2.18152 -4.87257,-4.87257z" fill="#d4dbdb" stroke="none"/><path d="M212.78218,54.62267v-5.10974l2.46253,-2.52409v6.03319z" fill="#292929" stroke="none"/><path d="M215.19652,57.8989l0.06157,-4.98662l2.95504,-2.03158v5.54069z" fill="#292929" stroke="none"/><path d="M212.73399,64.90585v-5.34474l2.46253,-1.60064v5.54069z" fill="#292929" stroke="none"/><path d="M215.14834,68.37803l0.06157,-4.98662l2.95503,-1.60064v5.10974z" fill="#292929" stroke="none"/><path d="M212.75084,75.26178v-5.34474l2.46253,-1.60064v5.54069z" fill="#292929" stroke="none"/><path d="M215.16519,78.73396l0.06156,-4.98662l2.95504,-1.60064v5.10974z" fill="#292929" stroke="none"/><path d="M212.79952,85.41139v-5.34474l2.46253,-1.35686v5.54069z" fill="#292929" stroke="none"/><path d="M215.21387,89.22486l0.06156,-4.98662l2.95504,-1.35685v5.10974z" fill="#292929" stroke="none"/><path d="M212.72886,95.92086v-5.34474l2.46253,-1.35686v5.54069z" fill="#292929" stroke="none"/><path d="M215.14321,99.73433l0.06157,-4.98662l2.95504,-1.35685v5.10975z" fill="#292929" stroke="none"/><path d="M212.6582,106.13779v-5.34474l2.46253,-1.06432v5.54069z" fill="#292929" stroke="none"/><path d="M215.07254,110.19505l0.06156,-4.98662l2.95504,-1.06432v5.10975z" fill="#292929" stroke="none"/><path d="M212.68505,116.25722v-5.34474l2.46253,-0.82054v5.54069z" fill="#292929" stroke="none"/><path d="M215.14815,120.60701l0.06156,-4.98662l2.95504,-0.82053v5.10974z" fill="#292929" stroke="none"/><path d="M212.7119,126.66918v-5.34474l2.46253,-0.67427v5.54069z" fill="#292929" stroke="none"/><path d="M215.07748,131.01897l0.06156,-4.98662l2.95504,-0.67426v5.10975z" fill="#292929" stroke="none"/><path d="M212.73875,137.03238v-5.34474l2.46253,-0.67427v5.54069z" fill="#292929" stroke="none"/><path d="M215.10433,141.38217l0.06156,-4.98662l2.95504,-0.67427v5.10975z" fill="#292929" stroke="none"/><path d="M212.66446,147.26044v-5.34474l2.46253,-0.5205v5.54069z" fill="#292929" stroke="none"/><path d="M215.03005,151.81525l0.06157,-4.98662l2.95503,-0.5205v5.10975z" fill="#292929" stroke="none"/><path d="M212.74394,157.64225v-5.34474l2.46253,-0.5205v5.54069z" fill="#292929" stroke="none"/><path d="M215.10952,162.19706l0.06157,-4.98662l2.95503,-0.5205v5.10975z" fill="#292929" stroke="none"/><path d="M212.72091,167.81905v-5.34474l2.46253,-0.36674v5.54069z" fill="#292929" stroke="none"/><path d="M215.08649,172.47637l0.06157,-4.98662l2.95504,-0.36673v5.10975z" fill="#292929" stroke="none"/><path d="M212.75236,178.13026v-5.34474l2.46253,-0.36674v5.54069z" fill="#292929" stroke="none"/><path d="M215.11794,182.78759l0.06157,-4.98662l2.95504,-0.36674v5.10975z" fill="#292929" stroke="none"/><path d="M215.11587,307.62043v5.54069l-2.46253,-1.60064v-5.34474z" data-paper-data="{&quot;index&quot;:null}" fill="#292929" stroke="none"/><path d="M218.08429,304.22107v5.10974l-2.95503,-1.60064l-0.06157,-4.98662z" data-paper-data="{&quot;index&quot;:null}" fill="#292929" stroke="none"/><path d="M215.13272,297.2645v5.54069l-2.46253,-1.60064v-5.34474z" data-paper-data="{&quot;index&quot;:null}" fill="#292929" stroke="none"/><path d="M218.10114,293.86514v5.10974l-2.95504,-1.60064l-0.06156,-4.98662z" data-paper-data="{&quot;index&quot;:null}" fill="#292929" stroke="none"/><path d="M215.18141,286.8711v5.54069l-2.46253,-1.35686v-5.34474z" data-paper-data="{&quot;index&quot;:null}" fill="#292929" stroke="none"/><path d="M218.14982,283.13045v5.10974l-2.95504,-1.35685l-0.06156,-4.98662z" data-paper-data="{&quot;index&quot;:null}" fill="#292929" stroke="none"/><path d="M215.11074,276.36163v5.54069l-2.46253,-1.35686v-5.34474z" data-paper-data="{&quot;index&quot;:null}" fill="#292929" stroke="none"/><path d="M218.07916,272.62098v5.10974l-2.95504,-1.35685l-0.06157,-4.98662z" data-paper-data="{&quot;index&quot;:null}" fill="#292929" stroke="none"/><path d="M215.04008,265.85216v5.54069l-2.46253,-1.06432v-5.34474z" data-paper-data="{&quot;index&quot;:null}" fill="#292929" stroke="none"/><path d="M218.00849,261.86773v5.10975l-2.95504,-1.06432l-0.06156,-4.98662z" data-paper-data="{&quot;index&quot;:null}" fill="#292929" stroke="none"/><path d="M215.06693,255.48896v5.54069l-2.46253,-0.82054v-5.34474z" data-paper-data="{&quot;index&quot;:null}" fill="#292929" stroke="none"/><path d="M218.0841,251.21199v5.10974l-2.95504,-0.82053l-0.06156,-4.98662z" data-paper-data="{&quot;index&quot;:null}" fill="#292929" stroke="none"/><path d="M215.09378,244.93073v5.54069l-2.46253,-0.67427v-5.34474z" data-paper-data="{&quot;index&quot;:null}" fill="#292929" stroke="none"/><path d="M218.01343,240.65376v5.10974l-2.95504,-0.67426l-0.06156,-4.98662z" data-paper-data="{&quot;index&quot;:null}" fill="#292929" stroke="none"/><path d="M215.12063,234.56752v5.54069l-2.46253,-0.67427v-5.34474z" data-paper-data="{&quot;index&quot;:null}" fill="#292929" stroke="none"/><path d="M218.04028,230.29055v5.10975l-2.95504,-0.67427l-0.06156,-4.98662z" data-paper-data="{&quot;index&quot;:null}" fill="#292929" stroke="none"/><path d="M215.04634,224.1857v5.54069l-2.46253,-0.5205v-5.34474z" data-paper-data="{&quot;index&quot;:null}" fill="#292929" stroke="none"/><path d="M217.966,219.70371v5.10975l-2.95503,-0.5205l-0.06157,-4.98662z" data-paper-data="{&quot;index&quot;:null}" fill="#292929" stroke="none"/><path d="M215.12582,213.80388v5.54069l-2.46253,-0.52051v-5.34474z" data-paper-data="{&quot;index&quot;:null}" fill="#292929" stroke="none"/><path d="M218.04548,209.32189v5.10974l-2.95504,-0.5205l-0.06157,-4.98662z" data-paper-data="{&quot;index&quot;:null}" fill="#292929" stroke="none"/><path d="M215.10279,203.47332v5.54069l-2.46253,-0.36674v-5.34474z" data-paper-data="{&quot;index&quot;:null}" fill="#292929" stroke="none"/><path d="M218.02245,198.88882v5.10974l-2.95504,-0.36674l-0.06157,-4.98662z" data-paper-data="{&quot;index&quot;:null}" fill="#292929" stroke="none"/><path d="M215.13424,193.16211v5.54069l-2.46253,-0.36673v-5.34474z" data-paper-data="{&quot;index&quot;:null}" fill="#292929" stroke="none"/><path d="M218.0539,188.57761v5.10974l-2.95504,-0.36673l-0.06157,-4.98662z" data-paper-data="{&quot;index&quot;:null}" fill="#292929" stroke="none"/><path d="M212.91365,188.54961v-5.34474l2.46253,-0.36673v5.54069z" fill="#292929" stroke="none"/><path d="M218.98015,80.01524l38.52385,-38.40883l3.07331,3.01056l-38.52385,38.40883z" data-paper-data="{&quot;index&quot;:null}" fill="url(#color-54)" stroke="none"/><path d="M164.92523,352.55994v-345.11987h150.14955v345.11987z" fill="none" stroke="none"/></g></g></svg>