<svg version="1.1" xmlns="http://www.w3.org/2000/svg" xmlns:xlink="http://www.w3.org/1999/xlink" width="96.44236" height="87.66666" viewBox="0,0,96.44236,87.66666"><defs><linearGradient x1="185.10508" y1="181.79887" x2="281.54744" y2="181.79887" gradientUnits="userSpaceOnUse" id="color-1"><stop offset="0" stop-color="#ff7b00"/><stop offset="1" stop-color="#f97800"/></linearGradient></defs><g transform="translate(-185.10508,-131.19744)"><g data-paper-data="{&quot;isPaintingLayer&quot;:true}" fill-rule="nonzero" stroke="none" stroke-width="0" stroke-linecap="butt" stroke-linejoin="miter" stroke-miterlimit="10" stroke-dasharray="" stroke-dashoffset="0" style="mix-blend-mode: normal"><path d="M223.58633,150.03077c0,0 2.03415,-7.8796 4.01762,-11.12789c1.83891,-3.01156 7.48238,-7.70545 7.48238,-7.70545l4.83333,2.16667c0,0 -1.66667,4.91722 -1.66667,7.66667c0,2.805 1.66667,9 1.66667,9z" fill="#964f0c"/><path d="" fill="#989898"/><path d="" fill="#989898"/><path d="" fill="#989898"/><path d="" fill="#acacac"/><path d="" fill="#acacac"/><path d="" fill="#989898"/><path d="" fill="#989898"/><path d="" fill="#989898"/><path d="" fill="#989898"/><path d="" fill="#989898"/><path d="" fill="#989898"/><path d="" fill="#989898"/><path d="M281.53364,180.89838c-0.33753,12.62585 -4.44278,23.50511 -15.7708,30.65488c-8.04321,5.07654 -24.18857,5.59512 -35.12205,5.59512c-14.87672,0 -28.51922,0.12572 -37.26292,-8.6315c-6.73285,-6.74326 -8.27279,-19.29391 -8.27279,-28.68993c0,-12.25285 3.60629,-25.48778 14.19499,-30.4984c12.69279,-6.00628 29.64797,-0.7516 33.12643,-0.7516c1.46316,0 22.55127,-5.47771 35.53661,1.82866c7.29921,4.107 13.92767,17.13313 13.57053,30.49277z" fill="url(#color-1)"/><path d="M263.24082,182.6141c0,10.94103 -2.70003,22.24996 -9.34088,28.89653c-5.51084,5.51558 -14.2025,7.35347 -22.0697,7.35347c-8.80748,0 -17.26831,-3.51679 -22.97191,-10.25581c-5.53046,-6.53444 -8.43867,-16.13831 -8.43867,-25.99418c0,-9.833 1.89241,-21.25159 7.40019,-27.78198c5.70625,-6.76571 15.18308,-8.46802 24.01039,-8.46802c9.33663,0 18.22182,2.70124 23.97518,10.16444c4.93646,6.40352 7.4354,16.84036 7.4354,26.08556z" fill="#ff8615"/><path d="M218.15783,161.81447l8.60682,15.72189l-17.40847,-0.40703z" fill="#964f0c"/><path d="M204.49931,181.93912l12.32113,11.61909l5.73762,-2.74301l5.32567,3.43086l8.83382,-1.94911l6.43733,1.44648l4.78079,-1.10522l12.28742,-8.58334l-10.67473,13.7055l-6.22793,1.14216l-5.82136,3.95101l-4.66506,-1.53967l-5.8938,0.9234l-4.78745,-2.22132l-5.78485,-0.50956z" fill="#964f0c"/><path d="M245.85192,159.64675l10.91273,17.00239l-21.05133,1.33733z" fill="#964f0c"/></g></g></svg>