<svg version="1.1" xmlns="http://www.w3.org/2000/svg" xmlns:xlink="http://www.w3.org/1999/xlink" width="437.77759" height="159.49482" viewBox="0,0,437.77759,159.49482"><defs><linearGradient x1="5240.73799" y1="-1540.7478" x2="5240.73799" y2="1188.0541" gradientUnits="userSpaceOnUse" id="color-1"><stop offset="0" stop-color="#000000"/><stop offset="1" stop-color="#000000" stop-opacity="0"/></linearGradient><linearGradient x1="5240.73799" y1="-1590.85655" x2="5240.73799" y2="1137.94532" gradientUnits="userSpaceOnUse" id="color-2"><stop offset="0" stop-color="#000000"/><stop offset="1" stop-color="#000000" stop-opacity="0"/></linearGradient><linearGradient x1="5296.78943" y1="-1590.13932" x2="5296.78943" y2="1138.66258" gradientUnits="userSpaceOnUse" id="color-3"><stop offset="0" stop-color="#000000"/><stop offset="1" stop-color="#000000" stop-opacity="0"/></linearGradient><linearGradient x1="5352.08174" y1="-1591.02735" x2="5352.08174" y2="1137.77455" gradientUnits="userSpaceOnUse" id="color-4"><stop offset="0" stop-color="#000000"/><stop offset="1" stop-color="#000000" stop-opacity="0"/></linearGradient><linearGradient x1="5407.60541" y1="-1590.31013" x2="5407.60541" y2="1138.49177" gradientUnits="userSpaceOnUse" id="color-5"><stop offset="0" stop-color="#000000"/><stop offset="1" stop-color="#000000" stop-opacity="0"/></linearGradient><linearGradient x1="5462.98465" y1="-1590.13932" x2="5462.98465" y2="1138.66258" gradientUnits="userSpaceOnUse" id="color-6"><stop offset="0" stop-color="#000000"/><stop offset="1" stop-color="#000000" stop-opacity="0"/></linearGradient><linearGradient x1="5518.7629" y1="-1591.02735" x2="5518.7629" y2="1137.77455" gradientUnits="userSpaceOnUse" id="color-7"><stop offset="0" stop-color="#000000"/><stop offset="1" stop-color="#000000" stop-opacity="0"/></linearGradient><linearGradient x1="5573.78067" y1="-1590.13932" x2="5573.78067" y2="1138.66258" gradientUnits="userSpaceOnUse" id="color-8"><stop offset="0" stop-color="#000000"/><stop offset="1" stop-color="#000000" stop-opacity="0"/></linearGradient><linearGradient x1="5629.55892" y1="-1591.02735" x2="5629.55892" y2="1137.77455" gradientUnits="userSpaceOnUse" id="color-9"><stop offset="0" stop-color="#000000"/><stop offset="1" stop-color="#000000" stop-opacity="0"/></linearGradient><linearGradient x1="5296.78943" y1="-1540.03057" x2="5296.78943" y2="1188.77133" gradientUnits="userSpaceOnUse" id="color-10"><stop offset="0" stop-color="#000000"/><stop offset="1" stop-color="#000000" stop-opacity="0"/></linearGradient><linearGradient x1="5352.08174" y1="-1540.9186" x2="5352.08174" y2="1187.88327" gradientUnits="userSpaceOnUse" id="color-11"><stop offset="0" stop-color="#000000"/><stop offset="1" stop-color="#000000" stop-opacity="0"/></linearGradient><linearGradient x1="5407.60541" y1="-1540.20138" x2="5407.60541" y2="1188.60052" gradientUnits="userSpaceOnUse" id="color-12"><stop offset="0" stop-color="#000000"/><stop offset="1" stop-color="#000000" stop-opacity="0"/></linearGradient><linearGradient x1="5462.98465" y1="-1540.03057" x2="5462.98465" y2="1188.77133" gradientUnits="userSpaceOnUse" id="color-13"><stop offset="0" stop-color="#000000"/><stop offset="1" stop-color="#000000" stop-opacity="0"/></linearGradient><linearGradient x1="5518.7629" y1="-1540.9186" x2="5518.7629" y2="1187.88327" gradientUnits="userSpaceOnUse" id="color-14"><stop offset="0" stop-color="#000000"/><stop offset="1" stop-color="#000000" stop-opacity="0"/></linearGradient><linearGradient x1="5573.78067" y1="-1540.03057" x2="5573.78067" y2="1188.77133" gradientUnits="userSpaceOnUse" id="color-15"><stop offset="0" stop-color="#000000"/><stop offset="1" stop-color="#000000" stop-opacity="0"/></linearGradient><linearGradient x1="5629.55892" y1="-1540.9186" x2="5629.55892" y2="1187.88327" gradientUnits="userSpaceOnUse" id="color-16"><stop offset="0" stop-color="#000000"/><stop offset="1" stop-color="#000000" stop-opacity="0"/></linearGradient></defs><g transform="translate(-20.93523,-185.2228)"><g data-paper-data="{&quot;isPaintingLayer&quot;:true}" fill-rule="nonzero" stroke-linejoin="miter" stroke-miterlimit="10" stroke-dasharray="" stroke-dashoffset="0" style="mix-blend-mode: normal"><path d="M20.93523,331.23956c0,-6.9278 0,-14.84664 0,-18.70571c0,-4.44215 4.78671,-10.51503 11.10652,-10.51503c32.32499,0 -40.82295,0 23.76773,0c8.99618,0 14.08243,6.13871 14.08243,13.06581c0,6.15556 0,12.93368 0,16.58006c0,4.99909 -4.44811,12.33569 -12.3819,12.33569c-61.36061,0 8.07237,0 -25.04313,0c-6.54301,0 -11.53164,-5.89351 -11.53164,-12.76083z" fill="url(#color-1)" stroke="none" stroke-width="0" stroke-linecap="butt"/><path d="" fill="none" stroke="#000000" stroke-width="5.5" stroke-linecap="round"/><path d="" fill="none" stroke="#000000" stroke-width="5.5" stroke-linecap="round"/><path d="" data-paper-data="{&quot;index&quot;:null}" fill="none" stroke="#9f8200" stroke-width="2.5" stroke-linecap="round"/><path d="M20.93523,281.13079c0,-6.9278 0,-14.84664 0,-18.70571c0,-4.44215 4.78671,-10.51503 11.10652,-10.51503c32.32499,0 -40.82295,0 23.76773,0c8.99618,0 14.08243,6.13871 14.08243,13.06581c0,6.15556 0,12.93368 0,16.58006c0,4.99909 -4.44811,12.33569 -12.3819,12.33569c-61.36061,0 8.07237,0 -25.04313,0c-6.54301,0 -11.53164,-5.89351 -11.53164,-12.76083z" fill="url(#color-2)" stroke="none" stroke-width="0" stroke-linecap="butt"/><path d="M76.98675,281.84801c0,-6.9278 0,-14.84664 0,-18.70571c0,-4.44215 4.78671,-10.51503 11.10652,-10.51503c32.32499,0 -40.82295,0 23.76774,0c8.99617,0 14.08243,6.13871 14.08243,13.06581c0,6.15556 0,12.93368 0,16.58007c0,4.99909 -4.44811,12.33569 -12.3819,12.33569c-61.36061,0 8.07237,0 -25.04313,0c-6.543,0 -11.53164,-5.89351 -11.53164,-12.76082z" fill="url(#color-3)" stroke="none" stroke-width="0" stroke-linecap="butt"/><path d="M132.279,280.96001c0,-6.9278 0,-14.84664 0,-18.70571c0,-4.44215 4.78671,-10.51503 11.10652,-10.51503c32.32499,0 -40.82296,0 23.76773,0c8.99617,0 14.08243,6.1387 14.08243,13.0658c0,6.15556 0,12.93368 0,16.58006c0,4.99909 -4.44811,12.33569 -12.3819,12.33569c-61.36061,0 8.07237,0 -25.04313,0c-6.543,0 -11.53164,-5.8935 -11.53164,-12.76082z" fill="url(#color-4)" stroke="none" stroke-width="0" stroke-linecap="butt"/><path d="M187.80263,281.67723c0,-6.9278 0,-14.84664 0,-18.70571c0,-4.44215 4.78671,-10.51503 11.10652,-10.51503c32.32499,0 -40.82296,0 23.76773,0c8.99617,0 14.08243,6.1387 14.08243,13.0658c0,6.15556 0,12.93368 0,16.58007c0,4.99909 -4.44811,12.33569 -12.3819,12.33569c-61.36061,0 8.07237,0 -25.04313,0c-6.543,0 -11.53164,-5.89351 -11.53164,-12.76082z" fill="url(#color-5)" stroke="none" stroke-width="0" stroke-linecap="butt"/><path d="M243.18188,281.84801c0,-6.9278 0,-14.84664 0,-18.70571c0,-4.44215 4.7867,-10.51504 11.10651,-10.51504c32.32498,0 -40.82295,0 23.76774,0c8.99617,0 14.08243,6.13871 14.08243,13.06581c0,6.15556 0,12.93368 0,16.58006c0,4.99909 -4.44811,12.33569 -12.3819,12.33569c-61.36061,0 8.07238,0 -25.04312,0c-6.543,0 -11.53164,-5.89351 -11.53164,-12.76082z" fill="url(#color-6)" stroke="none" stroke-width="0" stroke-linecap="butt"/><path d="M298.96002,280.96001c0,-6.9278 0,-14.84664 0,-18.70571c0,-4.44215 4.7867,-10.51503 11.10652,-10.51503c32.32499,0 -40.82295,0 23.76774,0c8.99617,0 14.08243,6.1387 14.08243,13.0658c0,6.15556 0,12.93368 0,16.58006c0,4.99909 -4.44811,12.33569 -12.3819,12.33569c-61.36061,0 8.07238,0 -25.04312,0c-6.543,0 -11.53165,-5.8935 -11.53165,-12.76082z" fill="url(#color-7)" stroke="none" stroke-width="0" stroke-linecap="butt"/><path d="M353.97791,281.84801c0,-6.9278 0,-14.84663 0,-18.7057c0,-4.44215 4.7867,-10.51504 11.10652,-10.51504c32.32499,0 -40.82295,0 23.76774,0c8.99617,0 14.08242,6.13871 14.08242,13.06581c0,6.15557 0,12.93368 0,16.58006c0,4.99908 -4.44811,12.33569 -12.3819,12.33569c-61.36061,0 8.07237,0 -25.04313,0c-6.543,0 -11.53164,-5.89352 -11.53164,-12.76083z" fill="url(#color-8)" stroke="none" stroke-width="0" stroke-linecap="butt"/><path d="M409.75614,280.96001c0,-6.9278 0,-14.84664 0,-18.70571c0,-4.44215 4.7867,-10.51504 11.10652,-10.51504c32.32499,0 -40.82295,0 23.76774,0c8.99617,0 14.08243,6.13871 14.08243,13.06581c0,6.15557 0,12.93368 0,16.58006c0,4.99908 -4.44811,12.33569 -12.3819,12.33569c-61.36061,0 8.07238,0 -25.04312,0c-6.543,0 -11.53164,-5.89351 -11.53164,-12.76082z" fill="url(#color-9)" stroke="none" stroke-width="0" stroke-linecap="butt"/><path d="M76.98675,331.95679c0,-6.9278 0,-14.84664 0,-18.70571c0,-4.44215 4.78671,-10.51503 11.10652,-10.51503c32.32499,0 -40.82295,0 23.76774,0c8.99617,0 14.08243,6.13871 14.08243,13.06581c0,6.15556 0,12.93368 0,16.58007c0,4.99909 -4.44811,12.33569 -12.3819,12.33569c-61.36061,0 8.07237,0 -25.04313,0c-6.543,0 -11.53164,-5.8935 -11.53164,-12.76082z" fill="url(#color-10)" stroke="none" stroke-width="0" stroke-linecap="butt"/><path d="M132.279,331.06874c0,-6.9278 0,-14.84664 0,-18.70571c0,-4.44215 4.78671,-10.51503 11.10652,-10.51503c32.32499,0 -40.82296,0 23.76773,0c8.99617,0 14.08243,6.1387 14.08243,13.0658c0,6.15556 0,12.93368 0,16.58007c0,4.99909 -4.44811,12.33569 -12.3819,12.33569c-61.36061,0 8.07237,0 -25.04313,0c-6.543,0 -11.53164,-5.89351 -11.53164,-12.76082z" fill="url(#color-11)" stroke="none" stroke-width="0" stroke-linecap="butt"/><path d="M187.80263,331.78596c0,-6.9278 0,-14.84664 0,-18.70571c0,-4.44215 4.78671,-10.51503 11.10652,-10.51503c32.32499,0 -40.82296,0 23.76773,0c8.99617,0 14.08243,6.13871 14.08243,13.06581c0,6.15556 0,12.93368 0,16.58006c0,4.99909 -4.44811,12.33569 -12.3819,12.33569c-61.36061,0 8.07237,0 -25.04313,0c-6.543,0 -11.53164,-5.89351 -11.53164,-12.76082z" fill="url(#color-12)" stroke="none" stroke-width="0" stroke-linecap="butt"/><path d="M243.18188,331.95679c0,-6.9278 0,-14.84664 0,-18.70571c0,-4.44215 4.7867,-10.51504 11.10651,-10.51504c32.32498,0 -40.82295,0 23.76774,0c8.99617,0 14.08243,6.13871 14.08243,13.06581c0,6.15556 0,12.93368 0,16.58006c0,4.99909 -4.44811,12.33569 -12.3819,12.33569c-61.36061,0 8.07238,0 -25.04312,0c-6.543,0 -11.53164,-5.8935 -11.53164,-12.76082z" fill="url(#color-13)" stroke="none" stroke-width="0" stroke-linecap="butt"/><path d="M298.96002,331.06874c0,-6.9278 0,-14.84664 0,-18.70571c0,-4.44215 4.7867,-10.51503 11.10652,-10.51503c32.32499,0 -40.82295,0 23.76774,0c8.99617,0 14.08243,6.1387 14.08243,13.0658c0,6.15556 0,12.93368 0,16.58007c0,4.99909 -4.44811,12.33569 -12.3819,12.33569c-61.36061,0 8.07238,0 -25.04312,0c-6.543,0 -11.53165,-5.89351 -11.53165,-12.76082z" fill="url(#color-14)" stroke="none" stroke-width="0" stroke-linecap="butt"/><path d="M353.97791,331.95678c0,-6.9278 0,-14.84663 0,-18.7057c0,-4.44215 4.7867,-10.51504 11.10652,-10.51504c32.32499,0 -40.82295,0 23.76774,0c8.99617,0 14.08242,6.13871 14.08242,13.06581c0,6.15557 0,12.93368 0,16.58006c0,4.99908 -4.44811,12.33569 -12.3819,12.33569c-61.36061,0 8.07237,0 -25.04313,0c-6.543,0 -11.53164,-5.89352 -11.53164,-12.76083z" fill="url(#color-15)" stroke="none" stroke-width="0" stroke-linecap="butt"/><path d="M409.75614,331.06874c0,-6.9278 0,-14.84664 0,-18.70571c0,-4.44215 4.7867,-10.51504 11.10652,-10.51504c32.32499,0 -40.82295,0 23.76774,0c8.99617,0 14.08243,6.13871 14.08243,13.06581c0,6.15557 0,12.93368 0,16.58007c0,4.99908 -4.44811,12.33569 -12.3819,12.33569c-61.36061,0 8.07238,0 -25.04312,0c-6.543,0 -11.53164,-5.89351 -11.53164,-12.76082z" fill="url(#color-16)" stroke="none" stroke-width="0" stroke-linecap="butt"/><path d="M126.27302,225.8782c-3.97307,4.16311 -9.89178,10.36492 -12.09664,12.67523c-1.64991,1.72883 -3.66059,1.418 -3.66059,-2.17464c0,-8.69151 0,-24.25981 0,-29.10908c0,-2.8367 2.27841,-3.62364 4.07486,-1.73719c2.26207,2.3754 8.06725,8.4714 11.90442,12.50081c2.11245,2.21828 2.01032,5.50574 -0.22204,7.84487z" data-paper-data="{&quot;index&quot;:null}" fill-opacity="0.1451" fill="#000000" stroke-opacity="0.62745" stroke="#babdbf" stroke-width="0" stroke-linecap="butt"/><path d="M26.10413,217.52486c3.83717,-4.0294 9.64235,-10.12541 11.90442,-12.50081c1.79645,-1.88645 4.07486,-1.09951 4.07486,1.73719c0,4.84927 0,20.41757 0,29.10908c0,3.59265 -2.01068,3.90347 -3.6606,2.17464c-2.20486,-2.31032 -8.12357,-8.51212 -12.09665,-12.67523c-2.23235,-2.33913 -2.3345,-5.62659 -0.22204,-7.84487z" data-paper-data="{&quot;index&quot;:null}" fill-opacity="0.32157" fill="#000000" stroke-opacity="0.62745" stroke="#babdbf" stroke-width="0" stroke-linecap="butt"/><text transform="translate(50.24784,226.39065) scale(0.41342,0.38571)" font-size="40" xml:space="preserve" fill-opacity="0" fill="#000000" fill-rule="nonzero" stroke-opacity="0.32157" stroke="#000000" stroke-width="4.2" stroke-linecap="butt" stroke-linejoin="miter" stroke-miterlimit="10" stroke-dasharray="" stroke-dashoffset="0" font-family="&quot;Microsoft YaHei&quot;, &quot;微软雅黑&quot;, STXihei, &quot;华文细黑&quot;" font-weight="normal" text-anchor="start" style="mix-blend-mode: normal"><tspan x="0" dy="0">PAGE 2</tspan></text><text transform="translate(34.36977,266.75955) scale(0.34589,0.34589)" font-size="40" xml:space="preserve" fill="#000000" fill-rule="nonzero" stroke="#000000" stroke-width="3" stroke-linecap="butt" stroke-linejoin="miter" stroke-miterlimit="10" stroke-dasharray="" stroke-dashoffset="0" font-family="Sans Serif" font-weight="normal" text-anchor="start" style="mix-blend-mode: normal"><tspan x="0" dy="0">I'm</tspan></text><text transform="translate(34.92609,266.73284) scale(0.34589,0.34589)" font-size="40" xml:space="preserve" fill="#ffffff" fill-rule="nonzero" stroke="#ffffff" stroke-width="3" stroke-linecap="butt" stroke-linejoin="miter" stroke-miterlimit="10" stroke-dasharray="" stroke-dashoffset="0" font-family="Sans Serif" font-weight="normal" text-anchor="start" style="mix-blend-mode: normal"><tspan x="0" dy="0">I'm</tspan></text><text transform="translate(33.54665,287.22234) scale(0.34589,0.34589)" font-size="40" xml:space="preserve" fill="#000000" fill-rule="nonzero" stroke="#000000" stroke-width="3" stroke-linecap="butt" stroke-linejoin="miter" stroke-miterlimit="10" stroke-dasharray="" stroke-dashoffset="0" font-family="Sans Serif" font-weight="normal" text-anchor="start" style="mix-blend-mode: normal"><tspan x="0" dy="0">car</tspan></text><text transform="translate(34.10296,287.61815) scale(0.34589,0.34589)" font-size="40" xml:space="preserve" fill="#ffffff" fill-rule="nonzero" stroke="#ffffff" stroke-width="3" stroke-linecap="butt" stroke-linejoin="miter" stroke-miterlimit="10" stroke-dasharray="" stroke-dashoffset="0" font-family="Sans Serif" font-weight="normal" text-anchor="start" style="mix-blend-mode: normal"><tspan x="0" dy="0">car</tspan></text><text transform="translate(24.65419,276.23404) scale(0.22285,0.22285)" font-size="40" xml:space="preserve" fill="#000000" fill-rule="nonzero" stroke="#000000" stroke-width="3" stroke-linecap="butt" stroke-linejoin="miter" stroke-miterlimit="10" stroke-dasharray="" stroke-dashoffset="0" font-family="Sans Serif" font-weight="normal" text-anchor="start" style="mix-blend-mode: normal"><tspan x="0" dy="0">switching</tspan></text><text transform="translate(25.01264,276.21682) scale(0.22285,0.22285)" font-size="40" xml:space="preserve" fill="#ffffff" fill-rule="nonzero" stroke="#ffffff" stroke-width="3" stroke-linecap="butt" stroke-linejoin="miter" stroke-miterlimit="10" stroke-dasharray="" stroke-dashoffset="0" font-family="Sans Serif" font-weight="normal" text-anchor="start" style="mix-blend-mode: normal"><tspan x="0" dy="0">switching</tspan></text><text transform="translate(357.14753,276.23465) scale(0.27505,0.27505)" font-size="40" xml:space="preserve" fill="#000000" fill-rule="nonzero" stroke="#000000" stroke-width="3" stroke-linecap="butt" stroke-linejoin="miter" stroke-miterlimit="10" stroke-dasharray="" stroke-dashoffset="0" font-family="Sans Serif" font-weight="normal" text-anchor="start" style="mix-blend-mode: normal"><tspan x="0" dy="0">Thanks!</tspan></text><text transform="translate(357.58994,276.21339) scale(0.27505,0.27505)" font-size="40" xml:space="preserve" fill="#ffffff" fill-rule="nonzero" stroke="#ffffff" stroke-width="3" stroke-linecap="butt" stroke-linejoin="miter" stroke-miterlimit="10" stroke-dasharray="" stroke-dashoffset="0" font-family="Sans Serif" font-weight="normal" text-anchor="start" style="mix-blend-mode: normal"><tspan x="0" dy="0">Thanks!</tspan></text><text transform="translate(80.82649,269.85189) scale(0.34589,0.34589)" font-size="40" xml:space="preserve" fill="#000000" fill-rule="nonzero" stroke="#000000" stroke-width="3" stroke-linecap="butt" stroke-linejoin="miter" stroke-miterlimit="10" stroke-dasharray="" stroke-dashoffset="0" font-family="Sans Serif" font-weight="normal" text-anchor="start" style="mix-blend-mode: normal"><tspan x="0" dy="0">You're</tspan></text><text transform="translate(81.38287,269.82516) scale(0.34589,0.34589)" font-size="40" xml:space="preserve" fill="#ffffff" fill-rule="nonzero" stroke="#ffffff" stroke-width="3" stroke-linecap="butt" stroke-linejoin="miter" stroke-miterlimit="10" stroke-dasharray="" stroke-dashoffset="0" font-family="Sans Serif" font-weight="normal" text-anchor="start" style="mix-blend-mode: normal"><tspan x="0" dy="0">You're</tspan></text><text transform="translate(81.71828,284.13293) scale(0.34589,0.34589)" font-size="40" xml:space="preserve" fill="#000000" fill-rule="nonzero" stroke="#000000" stroke-width="3" stroke-linecap="butt" stroke-linejoin="miter" stroke-miterlimit="10" stroke-dasharray="" stroke-dashoffset="0" font-family="Sans Serif" font-weight="normal" text-anchor="start" style="mix-blend-mode: normal"><tspan x="0" dy="0">good!</tspan></text><text transform="translate(82.2746,284.1062) scale(0.34589,0.34589)" font-size="40" xml:space="preserve" fill="#ffffff" fill-rule="nonzero" stroke="#ffffff" stroke-width="3" stroke-linecap="butt" stroke-linejoin="miter" stroke-miterlimit="10" stroke-dasharray="" stroke-dashoffset="0" font-family="Sans Serif" font-weight="normal" text-anchor="start" style="mix-blend-mode: normal"><tspan x="0" dy="0">good!</tspan></text><text transform="translate(139.3587,269.30145) scale(0.34589,0.34589)" font-size="40" xml:space="preserve" fill="#000000" fill-rule="nonzero" stroke="#000000" stroke-width="3" stroke-linecap="butt" stroke-linejoin="miter" stroke-miterlimit="10" stroke-dasharray="" stroke-dashoffset="0" font-family="Sans Serif" font-weight="normal" text-anchor="start" style="mix-blend-mode: normal"><tspan x="0" dy="0">Drag</tspan></text><text transform="translate(139.91508,269.27474) scale(0.34589,0.34589)" font-size="40" xml:space="preserve" fill="#ffffff" fill-rule="nonzero" stroke="#ffffff" stroke-width="3" stroke-linecap="butt" stroke-linejoin="miter" stroke-miterlimit="10" stroke-dasharray="" stroke-dashoffset="0" font-family="Sans Serif" font-weight="normal" text-anchor="start" style="mix-blend-mode: normal"><tspan x="0" dy="0">Drag</tspan></text><text transform="translate(139.19016,284.13293) scale(0.34589,0.34589)" font-size="40" xml:space="preserve" fill="#000000" fill-rule="nonzero" stroke="#000000" stroke-width="3" stroke-linecap="butt" stroke-linejoin="miter" stroke-miterlimit="10" stroke-dasharray="" stroke-dashoffset="0" font-family="Sans Serif" font-weight="normal" text-anchor="start" style="mix-blend-mode: normal"><tspan x="0" dy="0">race?</tspan></text><text transform="translate(139.74651,284.1062) scale(0.34589,0.34589)" font-size="40" xml:space="preserve" fill="#ffffff" fill-rule="nonzero" stroke="#ffffff" stroke-width="3" stroke-linecap="butt" stroke-linejoin="miter" stroke-miterlimit="10" stroke-dasharray="" stroke-dashoffset="0" font-family="Sans Serif" font-weight="normal" text-anchor="start" style="mix-blend-mode: normal"><tspan x="0" dy="0">race?</tspan></text><text transform="translate(301.9636,275.88319) scale(0.23317,0.23317)" font-size="40" xml:space="preserve" fill="#000000" fill-rule="nonzero" stroke="#000000" stroke-width="3" stroke-linecap="butt" stroke-linejoin="miter" stroke-miterlimit="10" stroke-dasharray="" stroke-dashoffset="0" font-family="Sans Serif" font-weight="normal" text-anchor="start" style="mix-blend-mode: normal"><tspan x="0" dy="0">Rematch?</tspan></text><text transform="translate(302.33867,275.86516) scale(0.23317,0.23317)" font-size="40" xml:space="preserve" fill="#ffffff" fill-rule="nonzero" stroke="#ffffff" stroke-width="3" stroke-linecap="butt" stroke-linejoin="miter" stroke-miterlimit="10" stroke-dasharray="" stroke-dashoffset="0" font-family="Sans Serif" font-weight="normal" text-anchor="start" style="mix-blend-mode: normal"><tspan x="0" dy="0">Rematch?</tspan></text><text transform="translate(195.34059,280.39664) scale(0.56461,0.56461)" font-size="40" xml:space="preserve" fill="#000000" fill-rule="nonzero" stroke="#000000" stroke-width="3" stroke-linecap="butt" stroke-linejoin="miter" stroke-miterlimit="10" stroke-dasharray="" stroke-dashoffset="0" font-family="Sans Serif" font-weight="normal" text-anchor="start" style="mix-blend-mode: normal"><tspan x="0" dy="0">Ok</tspan></text><text transform="translate(196.24877,280.35298) scale(0.56461,0.56461)" font-size="40" xml:space="preserve" fill="#ffffff" fill-rule="nonzero" stroke="#ffffff" stroke-width="3" stroke-linecap="butt" stroke-linejoin="miter" stroke-miterlimit="10" stroke-dasharray="" stroke-dashoffset="0" font-family="Sans Serif" font-weight="normal" text-anchor="start" style="mix-blend-mode: normal"><tspan x="0" dy="0">Ok</tspan></text><text transform="translate(252.19368,280.39664) scale(0.56461,0.56461)" font-size="40" xml:space="preserve" fill="#000000" fill-rule="nonzero" stroke="#000000" stroke-width="3" stroke-linecap="butt" stroke-linejoin="miter" stroke-miterlimit="10" stroke-dasharray="" stroke-dashoffset="0" font-family="Sans Serif" font-weight="normal" text-anchor="start" style="mix-blend-mode: normal"><tspan x="0" dy="0">No</tspan></text><text transform="translate(253.10186,280.35298) scale(0.56461,0.56461)" font-size="40" xml:space="preserve" fill="#ffffff" fill-rule="nonzero" stroke="#ffffff" stroke-width="3" stroke-linecap="butt" stroke-linejoin="miter" stroke-miterlimit="10" stroke-dasharray="" stroke-dashoffset="0" font-family="Sans Serif" font-weight="normal" text-anchor="start" style="mix-blend-mode: normal"><tspan x="0" dy="0">No</tspan></text><text transform="translate(23.63583,326.59647) scale(0.28738,0.28738)" font-size="40" xml:space="preserve" fill="#000000" fill-rule="nonzero" stroke="#000000" stroke-width="3" stroke-linecap="butt" stroke-linejoin="miter" stroke-miterlimit="10" stroke-dasharray="" stroke-dashoffset="0" font-family="Sans Serif" font-weight="normal" text-anchor="start" style="mix-blend-mode: normal"><tspan x="0" dy="0">Oh no...</tspan></text><text transform="translate(24.09808,326.57427) scale(0.28738,0.28738)" font-size="40" xml:space="preserve" fill="#ffffff" fill-rule="nonzero" stroke="#ffffff" stroke-width="3" stroke-linecap="butt" stroke-linejoin="miter" stroke-miterlimit="10" stroke-dasharray="" stroke-dashoffset="0" font-family="Sans Serif" font-weight="normal" text-anchor="start" style="mix-blend-mode: normal"><tspan x="0" dy="0">Oh no...</tspan></text><text transform="translate(418.11885,267.94696) scale(0.34589,0.34589)" font-size="40" xml:space="preserve" fill="#000000" fill-rule="nonzero" stroke="#000000" stroke-width="3" stroke-linecap="butt" stroke-linejoin="miter" stroke-miterlimit="10" stroke-dasharray="" stroke-dashoffset="0" font-family="Sans Serif" font-weight="normal" text-anchor="start" style="mix-blend-mode: normal"><tspan x="0" dy="0">Nice</tspan></text><text transform="translate(418.67521,267.92025) scale(0.34589,0.34589)" font-size="40" xml:space="preserve" fill="#ffffff" fill-rule="nonzero" stroke="#ffffff" stroke-width="3" stroke-linecap="butt" stroke-linejoin="miter" stroke-miterlimit="10" stroke-dasharray="" stroke-dashoffset="0" font-family="Sans Serif" font-weight="normal" text-anchor="start" style="mix-blend-mode: normal"><tspan x="0" dy="0">Nice</tspan></text><text transform="translate(417.12839,282.77844) scale(0.34589,0.34589)" font-size="40" xml:space="preserve" fill="#000000" fill-rule="nonzero" stroke="#000000" stroke-width="3" stroke-linecap="butt" stroke-linejoin="miter" stroke-miterlimit="10" stroke-dasharray="" stroke-dashoffset="0" font-family="Sans Serif" font-weight="normal" text-anchor="start" style="mix-blend-mode: normal"><tspan x="0" dy="0">drift!</tspan></text><text transform="translate(417.68472,282.75171) scale(0.34589,0.34589)" font-size="40" xml:space="preserve" fill="#ffffff" fill-rule="nonzero" stroke="#ffffff" stroke-width="3" stroke-linecap="butt" stroke-linejoin="miter" stroke-miterlimit="10" stroke-dasharray="" stroke-dashoffset="0" font-family="Sans Serif" font-weight="normal" text-anchor="start" style="mix-blend-mode: normal"><tspan x="0" dy="0">drift!</tspan></text><text transform="translate(85.58099,319.62754) scale(0.34589,0.34589)" font-size="40" xml:space="preserve" fill="#000000" fill-rule="nonzero" stroke="#000000" stroke-width="3" stroke-linecap="butt" stroke-linejoin="miter" stroke-miterlimit="10" stroke-dasharray="" stroke-dashoffset="0" font-family="Sans Serif" font-weight="normal" text-anchor="start" style="mix-blend-mode: normal"><tspan x="0" dy="0">Wait</tspan></text><text transform="translate(86.13735,319.60082) scale(0.34589,0.34589)" font-size="40" xml:space="preserve" fill="#ffffff" fill-rule="nonzero" stroke="#ffffff" stroke-width="3" stroke-linecap="butt" stroke-linejoin="miter" stroke-miterlimit="10" stroke-dasharray="" stroke-dashoffset="0" font-family="Sans Serif" font-weight="normal" text-anchor="start" style="mix-blend-mode: normal"><tspan x="0" dy="0">Wait</tspan></text><text transform="translate(84.54289,334.45901) scale(0.34589,0.34589)" font-size="40" xml:space="preserve" fill="#000000" fill-rule="nonzero" stroke="#000000" stroke-width="3" stroke-linecap="butt" stroke-linejoin="miter" stroke-miterlimit="10" stroke-dasharray="" stroke-dashoffset="0" font-family="Sans Serif" font-weight="normal" text-anchor="start" style="mix-blend-mode: normal"><tspan x="0" dy="0">a sec</tspan></text><text transform="translate(85.09924,334.43228) scale(0.34589,0.34589)" font-size="40" xml:space="preserve" fill="#ffffff" fill-rule="nonzero" stroke="#ffffff" stroke-width="3" stroke-linecap="butt" stroke-linejoin="miter" stroke-miterlimit="10" stroke-dasharray="" stroke-dashoffset="0" font-family="Sans Serif" font-weight="normal" text-anchor="start" style="mix-blend-mode: normal"><tspan x="0" dy="0">a sec</tspan></text><text transform="translate(142.92855,329.95187) scale(0.56461,0.56461)" font-size="40" xml:space="preserve" fill="#000000" fill-rule="nonzero" stroke="#000000" stroke-width="3" stroke-linecap="butt" stroke-linejoin="miter" stroke-miterlimit="10" stroke-dasharray="" stroke-dashoffset="0" font-family="Sans Serif" font-weight="normal" text-anchor="start" style="mix-blend-mode: normal"><tspan x="0" dy="0">lol</tspan></text><text transform="translate(143.83675,329.90819) scale(0.56461,0.56461)" font-size="40" xml:space="preserve" fill="#ffffff" fill-rule="nonzero" stroke="#ffffff" stroke-width="3" stroke-linecap="butt" stroke-linejoin="miter" stroke-miterlimit="10" stroke-dasharray="" stroke-dashoffset="0" font-family="Sans Serif" font-weight="normal" text-anchor="start" style="mix-blend-mode: normal"><tspan x="0" dy="0">lol</tspan></text><text transform="translate(415.4281,320.23323) scale(0.34589,0.34589)" font-size="40" xml:space="preserve" fill="#000000" fill-rule="nonzero" stroke="#000000" stroke-width="3" stroke-linecap="butt" stroke-linejoin="miter" stroke-miterlimit="10" stroke-dasharray="" stroke-dashoffset="0" font-family="Sans Serif" font-weight="normal" text-anchor="start" style="mix-blend-mode: normal"><tspan x="0" dy="0">Great</tspan></text><text transform="translate(415.98448,320.20651) scale(0.34589,0.34589)" font-size="40" xml:space="preserve" fill="#ffffff" fill-rule="nonzero" stroke="#ffffff" stroke-width="3" stroke-linecap="butt" stroke-linejoin="miter" stroke-miterlimit="10" stroke-dasharray="" stroke-dashoffset="0" font-family="Sans Serif" font-weight="normal" text-anchor="start" style="mix-blend-mode: normal"><tspan x="0" dy="0">Great</tspan></text><text transform="translate(417.93866,335.06469) scale(0.34589,0.34589)" font-size="40" xml:space="preserve" fill="#000000" fill-rule="nonzero" stroke="#000000" stroke-width="3" stroke-linecap="butt" stroke-linejoin="miter" stroke-miterlimit="10" stroke-dasharray="" stroke-dashoffset="0" font-family="Sans Serif" font-weight="normal" text-anchor="start" style="mix-blend-mode: normal"><tspan x="0" dy="0">race!</tspan></text><text transform="translate(418.49502,335.03797) scale(0.34589,0.34589)" font-size="40" xml:space="preserve" fill="#ffffff" fill-rule="nonzero" stroke="#ffffff" stroke-width="3" stroke-linecap="butt" stroke-linejoin="miter" stroke-miterlimit="10" stroke-dasharray="" stroke-dashoffset="0" font-family="Sans Serif" font-weight="normal" text-anchor="start" style="mix-blend-mode: normal"><tspan x="0" dy="0">race!</tspan></text><text transform="translate(196.38512,330.53163) scale(0.56461,0.56461)" font-size="40" xml:space="preserve" fill="#000000" fill-rule="nonzero" stroke="#000000" stroke-width="3" stroke-linecap="butt" stroke-linejoin="miter" stroke-miterlimit="10" stroke-dasharray="" stroke-dashoffset="0" font-family="Sans Serif" font-weight="normal" text-anchor="start" style="mix-blend-mode: normal"><tspan x="0" dy="0">Hi!</tspan></text><text transform="translate(197.2933,330.48796) scale(0.56461,0.56461)" font-size="40" xml:space="preserve" fill="#ffffff" fill-rule="nonzero" stroke="#ffffff" stroke-width="3" stroke-linecap="butt" stroke-linejoin="miter" stroke-miterlimit="10" stroke-dasharray="" stroke-dashoffset="0" font-family="Sans Serif" font-weight="normal" text-anchor="start" style="mix-blend-mode: normal"><tspan x="0" dy="0">Hi!</tspan></text><text transform="translate(247.55161,326.91094) scale(0.29005,0.29005)" font-size="40" xml:space="preserve" fill="#000000" fill-rule="nonzero" stroke="#000000" stroke-width="3" stroke-linecap="butt" stroke-linejoin="miter" stroke-miterlimit="10" stroke-dasharray="" stroke-dashoffset="0" font-family="Sans Serif" font-weight="normal" text-anchor="start" style="mix-blend-mode: normal"><tspan x="0" dy="0">Ready?</tspan></text><text transform="translate(248.01815,326.88852) scale(0.29005,0.29005)" font-size="40" xml:space="preserve" fill="#ffffff" fill-rule="nonzero" stroke="#ffffff" stroke-width="3" stroke-linecap="butt" stroke-linejoin="miter" stroke-miterlimit="10" stroke-dasharray="" stroke-dashoffset="0" font-family="Sans Serif" font-weight="normal" text-anchor="start" style="mix-blend-mode: normal"><tspan x="0" dy="0">Ready?</tspan></text><text transform="translate(68.01612,206.58391) scale(0.5,0.5)" font-size="40" xml:space="preserve" fill="none" fill-rule="nonzero" stroke="none" stroke-width="1" stroke-linecap="butt" stroke-linejoin="miter" stroke-miterlimit="10" stroke-dasharray="" stroke-dashoffset="0" font-family="&quot;Microsoft YaHei&quot;, &quot;微软雅黑&quot;, STXihei, &quot;华文细黑&quot;" font-weight="normal" text-anchor="start" style="mix-blend-mode: normal"><tspan x="0" dy="0"> </tspan></text><text transform="translate(358.73175,328.64911) scale(0.46645,0.46645)" font-size="40" xml:space="preserve" fill="#000000" fill-rule="nonzero" stroke="#000000" stroke-width="3" stroke-linecap="butt" stroke-linejoin="miter" stroke-miterlimit="10" stroke-dasharray="" stroke-dashoffset="0" font-family="Sans Serif" font-weight="normal" text-anchor="start" style="mix-blend-mode: normal"><tspan x="0" dy="0">Bye!</tspan></text><text transform="translate(359.48206,328.61309) scale(0.46645,0.46645)" font-size="40" xml:space="preserve" fill="#ffffff" fill-rule="nonzero" stroke="#ffffff" stroke-width="3" stroke-linecap="butt" stroke-linejoin="miter" stroke-miterlimit="10" stroke-dasharray="" stroke-dashoffset="0" font-family="Sans Serif" font-weight="normal" text-anchor="start" style="mix-blend-mode: normal"><tspan x="0" dy="0">Bye!</tspan></text><text transform="translate(305.25473,319.65519) scale(0.30321,0.30321)" font-size="40" xml:space="preserve" fill="#000000" fill-rule="nonzero" stroke="#000000" stroke-width="3" stroke-linecap="butt" stroke-linejoin="miter" stroke-miterlimit="10" stroke-dasharray="" stroke-dashoffset="0" font-family="Sans Serif" font-weight="normal" text-anchor="start" style="mix-blend-mode: normal"><tspan x="0" dy="0">This is</tspan></text><text transform="translate(305.7424,319.63178) scale(0.30321,0.30321)" font-size="40" xml:space="preserve" fill="#ffffff" fill-rule="nonzero" stroke="#ffffff" stroke-width="3" stroke-linecap="butt" stroke-linejoin="miter" stroke-miterlimit="10" stroke-dasharray="" stroke-dashoffset="0" font-family="Sans Serif" font-weight="normal" text-anchor="start" style="mix-blend-mode: normal"><tspan x="0" dy="0">This is</tspan></text><text transform="translate(309.2557,334.38741) scale(0.35272,0.35272)" font-size="40" xml:space="preserve" fill="#000000" fill-rule="nonzero" stroke="#000000" stroke-width="3" stroke-linecap="butt" stroke-linejoin="miter" stroke-miterlimit="10" stroke-dasharray="" stroke-dashoffset="0" font-family="Sans Serif" font-weight="normal" text-anchor="start" style="mix-blend-mode: normal"><tspan x="0" dy="0">fun!</tspan></text><text transform="translate(309.82299,334.79103) scale(0.35272,0.35272)" font-size="40" xml:space="preserve" fill="#ffffff" fill-rule="nonzero" stroke="#ffffff" stroke-width="3" stroke-linecap="butt" stroke-linejoin="miter" stroke-miterlimit="10" stroke-dasharray="" stroke-dashoffset="0" font-family="Sans Serif" font-weight="normal" text-anchor="start" style="mix-blend-mode: normal"><tspan x="0" dy="0">fun!</tspan></text></g></g></svg>