<svg version="1.1" xmlns="http://www.w3.org/2000/svg" xmlns:xlink="http://www.w3.org/1999/xlink" width="472.87786" height="360.53869" viewBox="0,0,472.87786,360.53869"><defs><radialGradient cx="242.2635" cy="180.02427" r="124.39167" gradientUnits="userSpaceOnUse" id="color-1"><stop offset="0" stop-color="#246372"/><stop offset="1" stop-color="#448594"/></radialGradient><linearGradient x1="360.92283" y1="136.17215" x2="331.58805" y2="136.17215" gradientUnits="userSpaceOnUse" id="color-2"><stop offset="0" stop-color="#616161"/><stop offset="1" stop-color="#333333"/></linearGradient><linearGradient x1="360.42283" y1="223.79308" x2="331.08805" y2="223.79308" gradientUnits="userSpaceOnUse" id="color-3"><stop offset="0" stop-color="#616161"/><stop offset="1" stop-color="#333333"/></linearGradient><linearGradient x1="291.12321" y1="179.88701" x2="251.79241" y2="179.88701" gradientUnits="userSpaceOnUse" id="color-4"><stop offset="0" stop-color="#1f1f1f"/><stop offset="1" stop-color="#6d6d6d"/></linearGradient><linearGradient x1="235.96862" y1="146.38525" x2="235.96862" y2="138.95979" gradientUnits="userSpaceOnUse" id="color-5"><stop offset="0" stop-color="#6d6d6d"/><stop offset="1" stop-color="#1f1f1f"/></linearGradient><linearGradient x1="236.21037" y1="213.26417" x2="236.21037" y2="220.68958" gradientUnits="userSpaceOnUse" id="color-6"><stop offset="0" stop-color="#6d6d6d"/><stop offset="1" stop-color="#1f1f1f"/></linearGradient><linearGradient x1="128.9644" y1="180.15065" x2="113.89659" y2="180.15065" gradientUnits="userSpaceOnUse" id="color-7"><stop offset="0" stop-color="#242424"/><stop offset="1" stop-color="#4c4c4c"/></linearGradient><linearGradient x1="302.48357" y1="205.98339" x2="302.48357" y2="227.16773" gradientUnits="userSpaceOnUse" id="color-8"><stop offset="0" stop-color="#336874" stop-opacity="0"/><stop offset="1" stop-color="#336874"/></linearGradient><linearGradient x1="302.85391" y1="227.2171" x2="302.85391" y2="233.73537" gradientUnits="userSpaceOnUse" id="color-9"><stop offset="0" stop-color="#336874"/><stop offset="1" stop-color="#336874" stop-opacity="0"/></linearGradient><linearGradient x1="332.29954" y1="193.64667" x2="332.29954" y2="214.45337" gradientUnits="userSpaceOnUse" id="color-10"><stop offset="0" stop-color="#30636e"/><stop offset="1" stop-color="#30636e" stop-opacity="0"/></linearGradient><linearGradient x1="340.19756" y1="179.75405" x2="328.14723" y2="179.75405" gradientUnits="userSpaceOnUse" id="color-11"><stop offset="0" stop-color="#246372"/><stop offset="1" stop-color="#246372" stop-opacity="0"/></linearGradient><linearGradient x1="324.66938" y1="178.91915" x2="312.61906" y2="178.91915" gradientUnits="userSpaceOnUse" id="color-12"><stop offset="0" stop-color="#246372"/><stop offset="1" stop-color="#246372" stop-opacity="0"/></linearGradient><linearGradient x1="344.00292" y1="179.94433" x2="340.07071" y2="179.94433" gradientUnits="userSpaceOnUse" id="color-13"><stop offset="0" stop-color="#246372"/><stop offset="1" stop-color="#246372" stop-opacity="0"/></linearGradient><linearGradient x1="360.66257" y1="179.62103" x2="329.42298" y2="179.62103" gradientUnits="userSpaceOnUse" id="color-14"><stop offset="0" stop-color="#347483"/><stop offset="1" stop-color="#3b7b8a"/></linearGradient><linearGradient x1="302.48357" y1="154.08935" x2="302.48357" y2="132.90503" gradientUnits="userSpaceOnUse" id="color-15"><stop offset="0" stop-color="#336874" stop-opacity="0"/><stop offset="1" stop-color="#336874"/></linearGradient><linearGradient x1="302.85391" y1="132.85564" x2="302.85391" y2="126.33738" gradientUnits="userSpaceOnUse" id="color-16"><stop offset="0" stop-color="#336874"/><stop offset="1" stop-color="#336874" stop-opacity="0"/></linearGradient><linearGradient x1="332.29954" y1="166.42609" x2="332.29954" y2="145.61935" gradientUnits="userSpaceOnUse" id="color-17"><stop offset="0" stop-color="#30636e"/><stop offset="1" stop-color="#30636e" stop-opacity="0"/></linearGradient><linearGradient x1="227.97789" y1="126.0995" x2="227.97789" y2="133.12622" gradientUnits="userSpaceOnUse" id="color-18"><stop offset="0" stop-color="#2a525c"/><stop offset="1" stop-color="#2a525c" stop-opacity="0"/></linearGradient><linearGradient x1="352.27384" y1="139.70356" x2="327.02234" y2="139.70356" gradientUnits="userSpaceOnUse" id="color-19"><stop offset="0" stop-color="#ffffff"/><stop offset="1" stop-color="#959595"/></linearGradient><linearGradient x1="227.97788" y1="234.21789" x2="227.97788" y2="227.19117" gradientUnits="userSpaceOnUse" id="color-20"><stop offset="0" stop-color="#2a525c"/><stop offset="1" stop-color="#2a525c" stop-opacity="0"/></linearGradient><linearGradient x1="353.12384" y1="220.45358" x2="327.87235" y2="220.45358" gradientUnits="userSpaceOnUse" id="color-21"><stop offset="0" stop-color="#ffffff"/><stop offset="1" stop-color="#959595"/></linearGradient><radialGradient cx="169.44281" cy="177.57688" r="38.23766" gradientUnits="userSpaceOnUse" id="color-22"><stop offset="0" stop-color="#1e444c"/><stop offset="1" stop-color="#1e444c" stop-opacity="0"/></radialGradient><linearGradient x1="190.20973" y1="180.0054" x2="135.70529" y2="180.0054" gradientUnits="userSpaceOnUse" id="color-23"><stop offset="0" stop-color="#6d6d6d"/><stop offset="1" stop-color="#1f1f1f"/></linearGradient><linearGradient x1="158.33399" y1="208.46098" x2="153.43072" y2="222.38234" gradientUnits="userSpaceOnUse" id="color-24"><stop offset="0" stop-color="#357381"/><stop offset="1" stop-color="#357381" stop-opacity="0"/></linearGradient><linearGradient x1="158.33399" y1="151.43856" x2="153.43072" y2="137.51722" gradientUnits="userSpaceOnUse" id="color-25"><stop offset="0" stop-color="#357381"/><stop offset="1" stop-color="#357381" stop-opacity="0"/></linearGradient><linearGradient x1="138.8532" y1="180.58723" x2="116.49803" y2="180.58723" gradientUnits="userSpaceOnUse" id="color-26"><stop offset="0" stop-color="#2c606b" stop-opacity="0"/><stop offset="1" stop-color="#2c606b"/></linearGradient><radialGradient cx="339.13113" cy="139.13913" r="8.09614" gradientUnits="userSpaceOnUse" id="color-27"><stop offset="0" stop-color="#dedcdf"/><stop offset="1" stop-color="#dedcdf" stop-opacity="0"/></radialGradient><radialGradient cx="338.31225" cy="137.99067" r="2.24827" gradientUnits="userSpaceOnUse" id="color-28"><stop offset="0" stop-color="#dedcdf"/><stop offset="1" stop-color="#dedcdf" stop-opacity="0"/></radialGradient><radialGradient cx="340.5665" cy="141.82072" r="8.09614" gradientUnits="userSpaceOnUse" id="color-29"><stop offset="0" stop-color="#dedcdf"/><stop offset="1" stop-color="#dedcdf" stop-opacity="0"/></radialGradient><radialGradient cx="336.58595" cy="136.0478" r="3.18805" gradientUnits="userSpaceOnUse" id="color-30"><stop offset="0" stop-color="#dedcdf"/><stop offset="1" stop-color="#dedcdf" stop-opacity="0"/></radialGradient><radialGradient cx="330.52922" cy="133.40132" r="3.11559" gradientUnits="userSpaceOnUse" id="color-31"><stop offset="0" stop-color="#dedcdf"/><stop offset="1" stop-color="#dedcdf" stop-opacity="0"/></radialGradient><radialGradient cx="338.75109" cy="140.55333" r="3.98508" gradientUnits="userSpaceOnUse" id="color-32"><stop offset="0" stop-color="#7a787a"/><stop offset="1" stop-color="#7a787a" stop-opacity="0"/></radialGradient><radialGradient cx="335.96215" cy="138.55039" r="3.18805" gradientUnits="userSpaceOnUse" id="color-33"><stop offset="0" stop-color="#939294"/><stop offset="1" stop-color="#939294" stop-opacity="0"/></radialGradient><radialGradient cx="332.74573" cy="136.23883" r="3.11561" gradientUnits="userSpaceOnUse" id="color-34"><stop offset="0" stop-color="#6d6c6d"/><stop offset="1" stop-color="#6d6c6d" stop-opacity="0"/></radialGradient><radialGradient cx="339.41685" cy="221.36959" r="8.09614" gradientUnits="userSpaceOnUse" id="color-35"><stop offset="0" stop-color="#dedcdf"/><stop offset="1" stop-color="#dedcdf" stop-opacity="0"/></radialGradient><radialGradient cx="338.59797" cy="222.51806" r="2.24827" gradientUnits="userSpaceOnUse" id="color-36"><stop offset="0" stop-color="#dedcdf"/><stop offset="1" stop-color="#dedcdf" stop-opacity="0"/></radialGradient><radialGradient cx="340.85222" cy="218.68799" r="8.09614" gradientUnits="userSpaceOnUse" id="color-37"><stop offset="0" stop-color="#dedcdf"/><stop offset="1" stop-color="#dedcdf" stop-opacity="0"/></radialGradient><radialGradient cx="336.87167" cy="224.46092" r="3.18805" gradientUnits="userSpaceOnUse" id="color-38"><stop offset="0" stop-color="#dedcdf"/><stop offset="1" stop-color="#dedcdf" stop-opacity="0"/></radialGradient><radialGradient cx="330.81494" cy="227.10741" r="3.11559" gradientUnits="userSpaceOnUse" id="color-39"><stop offset="0" stop-color="#dedcdf"/><stop offset="1" stop-color="#dedcdf" stop-opacity="0"/></radialGradient><radialGradient cx="339.03681" cy="219.9554" r="3.98508" gradientUnits="userSpaceOnUse" id="color-40"><stop offset="0" stop-color="#7a787a"/><stop offset="1" stop-color="#7a787a" stop-opacity="0"/></radialGradient><radialGradient cx="336.24787" cy="221.95833" r="3.18806" gradientUnits="userSpaceOnUse" id="color-41"><stop offset="0" stop-color="#939294"/><stop offset="1" stop-color="#939294" stop-opacity="0"/></radialGradient><radialGradient cx="333.03144" cy="224.26991" r="3.11561" gradientUnits="userSpaceOnUse" id="color-42"><stop offset="0" stop-color="#6d6c6d"/><stop offset="1" stop-color="#6d6c6d" stop-opacity="0"/></radialGradient><radialGradient cx="222.21741" cy="151.35089" r="18.125" gradientUnits="userSpaceOnUse" id="color-43"><stop offset="0" stop-color="#3f808f"/><stop offset="1" stop-color="#3f808f" stop-opacity="0"/></radialGradient><radialGradient cx="221.71741" cy="205.60089" r="18.125" gradientUnits="userSpaceOnUse" id="color-44"><stop offset="0" stop-color="#3f808f"/><stop offset="1" stop-color="#3f808f" stop-opacity="0"/></radialGradient><radialGradient cx="171.71741" cy="227.35088" r="18.125" gradientUnits="userSpaceOnUse" id="color-45"><stop offset="0" stop-color="#438999"/><stop offset="1" stop-color="#438999" stop-opacity="0"/></radialGradient><radialGradient cx="174.46741" cy="133.3509" r="18.125" gradientUnits="userSpaceOnUse" id="color-46"><stop offset="0" stop-color="#438999"/><stop offset="1" stop-color="#438999" stop-opacity="0"/></radialGradient></defs><g transform="translate(-4.42566,-1.09609)"><g data-paper-data="{&quot;isPaintingLayer&quot;:true}" fill-rule="nonzero" stroke-linejoin="miter" stroke-miterlimit="10" stroke-dasharray="" stroke-dashoffset="0" style="mix-blend-mode: normal"><path d="M129.20198,226.5338c0,0 -11.27468,-28.64323 -11.32842,-43.69044c-0.02264,-6.3381 0.14717,-16.48699 2.30693,-25.13241c3.15467,-12.62805 8.69295,-23.16562 8.69295,-23.16562l-5.58501,-2.62824c0,0 4.3676,-2.25818 7.24466,-3.23529c2.92615,-0.99379 10.16745,-2.67826 10.16745,-2.67826c0,0 155.87034,-0.6382 185.95559,-0.25001c5.0319,0.06493 14.00143,2.28888 16.7052,2.78206c2.53759,0.46287 5.16493,2.77219 9.77114,8.73619c5.84579,7.56899 10.99611,17.85468 12.31244,26.34394c1.35113,8.71367 2.62191,27.94818 -2.38905,41.47766c-1.05904,2.85938 -2.61406,6.38032 -4.98434,10.93871c-1.83058,3.52046 -3.79684,6.43029 -5.23448,8.3531c-0.8731,1.16775 -1.05123,1.47145 -1.38558,1.82679c-0.41428,0.44029 -1.39144,1.35302 -1.96465,1.73207c-5.0697,3.35252 -14.56076,6.20025 -20.8658,6.26226c-25.17763,0.24765 -186.2778,0.21221 -186.2778,0.21221c0,0 -8.6392,-0.98196 -12.10739,-2.02242c-3.04798,-0.91439 -7.60442,-3.89112 -7.60442,-3.89112z" data-paper-data="{&quot;index&quot;:null}" fill="url(#color-1)" stroke="#000000" stroke-width="0.75" stroke-linecap="round"/><path d="M328.68125,126.34993c0.37123,-0.40448 9.97627,1.56613 9.97627,1.56613c0,0 6.8029,3.89363 10.01362,6.84046c4.30249,3.94886 7.28335,8.98153 9.17677,12.78404c1.66094,3.33563 2.51966,5.69005 2.23172,6.00378c-0.32895,0.35841 -1.82769,-3.09257 -4.52217,-7.00286c-1.01556,-1.4738 -2.10762,-3.38851 -3.43739,-4.91212c-0.87236,-0.99952 -1.72881,-2.05358 -2.73365,-2.95208c-1.01196,-0.90486 -2.173,-1.65409 -3.24668,-2.63952c-0.78947,-0.72458 -1.76092,-1.21197 -2.59442,-1.71593c-1.93295,-1.16872 -3.78076,-1.98881 -5.59509,-2.93108c-1.45626,-0.7563 -2.68061,-1.58795 -3.90342,-2.18917c-3.31762,-1.63116 -5.66972,-2.52023 -5.36556,-2.85164z" data-paper-data="{&quot;index&quot;:null}" fill="url(#color-2)" stroke="none" stroke-width="0" stroke-linecap="butt"/><path d="M329.28121,233.86527c0,0 1.29795,-1.17048 4.61556,-2.80164c1.22281,-0.60121 2.49717,-1.48286 3.95342,-2.23916c1.81434,-0.94227 3.26215,-2.01236 5.1951,-3.18108c0.83351,-0.50397 1.80496,-0.99135 2.59443,-1.71593c1.07368,-0.98542 2.23472,-1.73465 3.24668,-2.63952c1.00484,-0.89851 1.86129,-1.95256 2.73365,-2.95209c1.32977,-1.52361 2.42184,-3.43832 3.4374,-4.91212c2.69448,-3.9103 4.49321,-8.86128 4.82216,-8.50287c0.28794,0.31372 -0.87077,4.16816 -2.53171,7.50378c-1.89342,3.8025 -4.87428,8.83518 -9.17677,12.78404c-3.21072,2.94683 -9.32516,6.91738 -9.32516,6.91738c0,0 -3.89,0.96688 -5.59173,1.29131c-1.4239,0.27146 -3.973,0.4479 -3.973,0.4479z" data-paper-data="{&quot;index&quot;:null}" fill="url(#color-3)" stroke="none" stroke-width="0" stroke-linecap="butt"/><path d="M202.04935,188.88923c0,0 6.07698,-0.08608 12.38641,0.02878c4.70834,0.08571 9.62266,-0.50632 13.00624,1.20964c2.76184,1.40065 5.38926,6.60013 8.83758,10.27991c2.70204,2.8834 5.64286,6.45079 8.17949,8.5475c2.87068,2.37283 5.17726,3.09437 5.17726,3.09437" data-paper-data="{&quot;index&quot;:null}" fill="none" stroke="#234c56" stroke-width="0.5" stroke-linecap="round"/><path d="M249.10369,147.86118c0,0 -6.93501,5.82626 -12.69492,11.97278c-3.44832,3.67978 -6.07574,8.87926 -8.83758,10.27991c-3.38358,1.71596 -8.29789,1.12393 -13.00624,1.20964c-6.30943,0.11485 -12.38641,0.02877 -12.38641,0.02877" data-paper-data="{&quot;index&quot;:null}" fill="none" stroke="#234c56" stroke-width="0.5" stroke-linecap="round"/><path d="M276.56693,220.01128c0,0 10.7884,-7.45614 16.94252,-17.75917c4.30416,-7.20588 4.3933,-16.73058 4.41399,-22.13026c0.02159,-5.63445 -1.50888,-16.90681 -5.97436,-24.15793c-5.97275,-9.69866 -15.07995,-14.82607 -15.07995,-14.82607c0,0 10.7772,3.75173 20.95772,9.85668c3.01297,1.80678 5.01284,4.45567 7.05789,8.02379c2.27783,3.97428 3.04804,8.95707 3.62772,11.31735c1.15681,4.71013 0.98557,13.54843 -0.1763,20.36905c-0.9006,5.28692 -2.7583,9.36155 -2.7583,9.36155c0,0 -0.60534,2.79657 -2.70334,5.12255c-2.26781,2.51424 -6.12698,4.63132 -8.59499,6.32807c-4.91362,3.37813 -17.71259,8.49439 -17.71259,8.49439z" data-paper-data="{&quot;index&quot;:null}" fill="#3c3c3c" stroke="#000000" stroke-width="0.5" stroke-linecap="round"/><path d="M275.6627,220.4536c0,0 -21.12998,-6.5216 -24.79357,-7.65234c-1.04325,-0.32199 -1.84503,-1.11689 -1.84503,-1.11689c0,0 0.01548,-0.58461 0.29331,-2.37363c0.91552,-5.89542 2.8831,-19.47969 2.89479,-27.40811c0.0134,-9.08251 -2.45893,-26.49011 -3.30794,-32.19765c-0.17589,-1.18248 0.21425,-1.36639 0.21425,-1.36639c0,0 0.04145,-0.64573 0.69379,-0.82689c3.01599,-0.83758 25.43986,-7.06499 25.43986,-7.06499c0,0 10.15898,4.38601 16.3199,13.74454c5.04314,7.6606 6.07543,26.17776 6.07658,26.40131c0.03248,6.32997 -0.99908,18.34422 -6.47352,26.45265c-5.80828,8.60289 -15.51241,13.4084 -15.51241,13.4084z" data-paper-data="{&quot;index&quot;:null}" fill="#252525" stroke="#000000" stroke-width="0.5" stroke-linecap="round"/><path d="M275.03753,142.79372c0,0 6.94767,5.29487 11.50605,14.14032c3.32076,6.44387 4.67719,15.23625 4.57421,22.95964c-0.10837,8.12739 -0.52745,17.63476 -4.55965,24.07135c-4.41785,7.05219 -10.77875,13.01524 -10.77875,13.01524l-23.98698,-5.44035l2.47289,-22.25597c0,0 2.81676,0 3.77315,0c0.5867,0 1.27794,-0.56787 1.27794,-0.56787c0,0 0.15507,-0.40183 0.17499,-1.87607c0.05458,-4.03886 0.16033,-11.86457 0.188,-13.9122c0.01302,-0.96341 -0.39964,-1.37534 -0.39964,-1.37534c0,0 -0.5652,-0.56787 -1.24129,-0.56787c-1.0499,0 -4.02044,0 -4.02044,0l-1.97831,-21.76139l22.99783,-6.4295z" data-paper-data="{&quot;index&quot;:null}" fill="url(#color-4)" stroke="#000000" stroke-width="0.5" stroke-linecap="round"/><path d="M356.66996,194.11616c0,0 -15.27799,5.58626 -23.91211,7.33925c-9.48592,1.92593 -29.34351,3.74639 -29.34351,3.74639" data-paper-data="{&quot;index&quot;:null}" fill="none" stroke="#2e6471" stroke-width="0.5" stroke-linecap="round"/><path d="M324.89489,191.55307c0,0 -0.04738,0.03005 -0.03805,-0.77616c0.03092,-2.67212 0.08308,-8.1297 0.14682,-11.28492c0.05063,-2.50643 -0.02932,-6.66768 -0.09366,-9.34595c-0.03636,-1.51356 0.03753,-1.07982 0.03753,-1.07982c0,0 -0.05419,-0.75862 -0.00254,-0.03558c0.15844,2.21812 0.96673,13.53412 0.96673,13.53412c0,0 -0.75943,6.94333 -0.93188,8.51995c-0.06626,0.60578 -0.08494,0.46834 -0.08494,0.46834z" data-paper-data="{&quot;index&quot;:null}" fill="none" stroke="#2e6471" stroke-width="1" stroke-linecap="round"/><path d="M323.90945,159.37012c0,0 2.42307,13.97653 2.39481,21.01271c-0.02682,6.67805 -2.56027,20.18613 -2.56027,20.18613" data-paper-data="{&quot;index&quot;:null}" fill="none" stroke="#2e6471" stroke-width="0.5" stroke-linecap="round"/><path d="M360.50683,154.74021c0,0 0.00642,0.92673 0.29798,2.77354c0.47075,2.98181 1.16801,7.32844 1.59603,9.67404c0.68559,3.75706 1.05286,12.20266 1.05286,12.20266c0,0 -0.46288,11.60644 -1.21266,15.90326c-0.29217,1.67437 -0.76011,3.64499 -1.19758,5.34386c-0.57569,2.2357 -1.09859,3.20774 -1.09859,3.20774c0,0 1.24953,-16.62656 1.27748,-24.62059c0.02718,-7.77338 -0.71552,-24.48451 -0.71552,-24.48451z" data-paper-data="{&quot;index&quot;:null}" fill="#393534" stroke="#000000" stroke-width="0.75" stroke-linecap="round"/><path d="M360.74224,202.50953c0,0 -1.47612,6.0009 -4.23542,11.7104c-2.55736,5.29163 -4.35454,6.88105 -6.65599,9.58229c-2.30143,2.70122 -11.13936,8.53808 -11.13936,8.53808" data-paper-data="{&quot;index&quot;:null}" fill="none" stroke="#000000" stroke-width="0.5" stroke-linecap="round"/><path d="M360.04621,197.99295c0,0 -2.52858,6.32554 -3.44649,8.09807c-0.99274,1.91701 -3.49611,5.58889 -3.49611,5.58889" data-paper-data="{&quot;index&quot;:null}" fill="none" stroke="#000000" stroke-width="0.5" stroke-linecap="round"/><path d="M359.8445,204.07412c0,0 -5.57813,12.44983 -10.56863,17.05645c-5.30039,4.89266 -20.91562,12.93757 -20.91562,12.93757" data-paper-data="{&quot;index&quot;:null}" fill="none" stroke="#000000" stroke-width="0.5" stroke-linecap="round"/><path d="M356.99837,181.14704c-0.34312,-0.00795 -0.81004,-0.01877 -0.81004,-0.01877l0.06439,-2.60917c0,0 1.18833,0.21398 1.70335,0.30671c0.42743,0.07696 0.88179,0.57772 0.88179,0.57772c0,0 0.36212,0.09949 0.4063,0.39081c0.00756,0.04989 0.0166,0.10946 0.02661,0.17549c0.01485,0.09792 -0.15708,0.11592 -0.27801,0.22859c-0.44733,0.41673 -1.52374,0.95953 -1.99438,0.94862z" data-paper-data="{&quot;index&quot;:null}" fill="#3d3d3d" stroke="none" stroke-width="0" stroke-linecap="butt"/><path d="M356.23471,181.23206c-0.03094,0.00075 -0.05815,-0.0196 -0.06701,-0.04945c-0.12298,-0.42199 -0.19661,-0.88187 -0.20027,-1.33674c-0.00541,-0.45486 0.05904,-0.91611 0.17357,-1.34091c0.00831,-0.02959 0.03506,-0.05047 0.06601,-0.05078c1.13355,-0.01218 2.54103,0.39963 3.1694,1.31909c0.0156,0.02298 0.01591,0.05347 0.00077,0.07676c-0.60991,0.93224 -2.00846,1.37159 -3.14247,1.38202zM358.40309,180.37683c0.24551,-0.14776 0.46196,-0.32462 0.63057,-0.53281c0.01355,-0.01691 0.01331,-0.04126 -0.00058,-0.0579c-0.4721,-0.56031 -1.29899,-0.88151 -2.09345,-0.99905l-0.0786,-0.14321l0.01062,1.06533c0.00341,0.34224 0.1158,0.38477 0.19592,0.38397c0.0798,-0.0008 0.1912,-0.04556 0.18779,-0.3878l-0.00311,-0.31143c-0.00012,-0.01195 0.00968,-0.01984 0.02,-0.01994c0.00474,-0.00005 0.00946,0.00166 0.01378,0.00546l1.16824,1.14416l-0.05162,-0.14677v0zM356.4518,180.94334c0.51329,-0.03089 1.07815,-0.15255 1.5754,-0.37257l-0.62908,-0.61621c-0.00909,-0.00891 -0.02407,-0.00316 -0.02526,0.00924l-0.01164,0.12141c-0.02531,0.25721 -0.15248,0.40587 -0.31448,0.40749c-0.18703,0.00186 -0.29436,-0.19502 -0.29767,-0.52652l-0.01201,-1.20449c-0.10395,-0.01103 -0.20644,-0.019 -0.30724,-0.02271c-0.03306,-0.00132 -0.06203,0.02123 -0.0694,0.053c-0.07633,0.34731 -0.11472,0.7028 -0.11134,1.04165l0.00018,0.01842c0.00338,0.33885 0.04841,0.69351 0.13209,1.03923c0.00796,0.03206 0.03743,0.05402 0.07045,0.05205z" data-paper-data="{&quot;index&quot;:null}" fill="#dcdcdc" stroke="none" stroke-width="1" stroke-linecap="butt"/><path d="M351.47118,147.63192c0,0 3.06732,3.41861 4.42249,5.15323c1.38205,1.76903 4.38555,6.35104 4.38555,6.35104" data-paper-data="{&quot;index&quot;:null}" fill="none" stroke="#000000" stroke-width="0.5" stroke-linecap="round"/><path d="M327.78939,126.22944c0,0 15.32004,7.17734 20.79533,11.97667c5.21845,4.57419 11.52119,16.57289 11.52119,16.57289" data-paper-data="{&quot;index&quot;:null}" fill="none" stroke="#000000" stroke-width="0.5" stroke-linecap="round"/><path d="M338.1708,127.70953c0,0 6.52253,4.20211 9.41967,6.61639c1.73514,1.44595 5.88769,6.08311 8.84525,11.45089c2.31003,4.19255 3.73508,9.53272 3.73508,9.53272" data-paper-data="{&quot;index&quot;:null}" fill="none" stroke="#000000" stroke-width="0.5" stroke-linecap="round"/><path d="M303.41806,204.32663l-11.59757,0.40148" data-paper-data="{&quot;index&quot;:null}" fill="none" stroke="#000000" stroke-width="0.75" stroke-linecap="round"/><path d="M302.51147,155.4848l-11.28057,-0.74809" data-paper-data="{&quot;index&quot;:null}" fill="none" stroke="#000000" stroke-width="0.75" stroke-linecap="round"/><path d="M327.11858,132.96606l-49.31713,-0.33092" data-paper-data="{&quot;index&quot;:null}" fill="none" stroke="#2e6471" stroke-width="0.5" stroke-linecap="round"/><path d="M277.73963,227.37305l49.97533,-0.33092" data-paper-data="{&quot;index&quot;:null}" fill="none" stroke="#2e6471" stroke-width="0.5" stroke-linecap="round"/><path d="M284.45101,234.20166c0,0 -5.37189,-4.23567 -6.8725,-6.62553c-1.45475,-2.31681 -1.99782,-7.30127 -1.99782,-7.30127" data-paper-data="{&quot;index&quot;:null}" fill="none" stroke="#2e6471" stroke-width="0.5" stroke-linecap="round"/><path d="M275.53717,140.35697c0,0 0.84308,-5.88446 2.29782,-8.20127c1.50061,-2.38985 6.8725,-6.62553 6.8725,-6.62553" data-paper-data="{&quot;index&quot;:null}" fill="none" stroke="#2e6471" stroke-width="0.5" stroke-linecap="round"/><path d="M266.10802,132.85485c0,0 1.41002,2.13601 1.88878,3.25313c0.50858,1.18669 1.07869,3.67095 1.07869,3.67095h-4.94577c0,0 0.18809,-1.96362 0.00856,-2.96899c-0.22308,-1.24926 -1.245,-3.95509 -1.245,-3.95509z" data-paper-data="{&quot;index&quot;:null}" fill="#414141" stroke="#000000" stroke-width="0.5" stroke-linecap="round"/><path d="M267.38319,140.20982c0,0 -19.52664,4.40712 -24.13985,5.01412c-8.25242,1.08584 -27.02157,1.16673 -33.45032,1.16106c-1.39443,-0.00123 -1.61349,-0.20479 -1.61349,-0.20479c0,0 -0.40951,-0.4032 -0.08162,-1.17284c0.45188,-1.06065 1.17461,-2.44069 2.05659,-3.00606c1.67761,-1.0754 10.6432,-2.99461 10.6432,-2.99461z" data-paper-data="{&quot;index&quot;:null}" fill="url(#color-5)" stroke="#000000" stroke-width="0.5" stroke-linecap="round"/><path d="M265.21724,140.27619l-2.16667,0.66667l0.91667,-0.83333l2.25,-0.16667z" data-paper-data="{&quot;index&quot;:null}" fill="none" stroke="#000000" stroke-width="0.5" stroke-linecap="round"/><path d="M207.94693,234.17762c0,0 -1.76928,-1.64361 -2.08658,-3.65319c-0.40361,-2.55614 -0.13902,-10.44226 -0.13902,-10.44226c0,0 -0.84225,-2.89204 -1.47899,-4.50513c-0.59715,-1.51279 -1.63034,-5.09184 -1.63034,-5.09184c0,0 -0.6,-2.51731 -0.6,-5.3352c0,-7.39276 0,-40.87622 0,-53.2c0,-2.85191 0.8,-4.57066 0.8,-4.57066c0,0 0.90398,-2.36573 1.55885,-3.76278c0.56966,-1.21527 1.35049,-4.15045 1.35049,-4.15045c0,0 -0.33599,-7.96432 0.20924,-10.69047c0.32556,-1.62777 1.76906,-3.15768 1.76906,-3.15768" data-paper-data="{&quot;index&quot;:null}" fill="none" stroke="#2a5a67" stroke-width="0.5" stroke-linecap="round"/><path d="M201.36173,145.67687c-0.04026,-0.41821 0.43027,-2.7319 0.63601,-2.99317c0.52663,-0.66877 2.55759,-0.94509 2.92225,-0.78779c0.15738,0.06788 -1.90383,4.31165 -2.0033,4.26875c-0.28123,-0.12132 -1.50481,0.0329 -1.55495,-0.48779z" data-paper-data="{&quot;index&quot;:null}" fill="#53575a" stroke="#000000" stroke-width="0.5" stroke-linecap="butt"/><path d="M202.0724,216.13009c-0.20574,-0.26127 -0.67627,-2.57495 -0.63601,-2.99317c0.05013,-0.52069 0.87372,-0.36647 1.15495,-0.48779c0.22693,-0.0979 1.86259,4.14789 1.58241,4.26875c-0.36466,0.1573 -1.57473,-0.11901 -2.10136,-0.78779z" data-paper-data="{&quot;index&quot;:null}" fill="#53575a" stroke="#000000" stroke-width="0.5" stroke-linecap="butt"/><path d="M204.73324,217.28628c0,0 -6.79188,-0.92879 -8.28494,-1.6919c-1.42783,-0.72979 -1.46106,-3.50597 -1.46106,-3.50597l7.79679,0.19492" data-paper-data="{&quot;index&quot;:null}" fill="none" stroke="#2e6471" stroke-width="0.5" stroke-linecap="round"/><path d="M221.03947,220.64272c0,0 -8.96559,-1.91922 -10.6432,-2.9946c-0.88198,-0.56537 -1.60471,-1.94542 -2.05659,-3.00607c-0.32789,-0.76964 0.08162,-1.17285 0.08162,-1.17285c0,0 0.21906,-0.20356 1.61349,-0.20479c6.42876,-0.00567 25.19791,0.07521 33.45033,1.16106c4.61321,0.607 11.5217,1.00928 15.78237,2.52378c3.57994,1.27253 8.64081,2.80702 8.64081,2.80702z" data-paper-data="{&quot;index&quot;:null}" fill="url(#color-6)" stroke="#000000" stroke-width="0.5" stroke-linecap="round"/><path d="M264.05057,219.69289l-1.33333,-1.5l3.58333,1.33333z" data-paper-data="{&quot;index&quot;:null}" fill="#000000" stroke="#000000" stroke-width="0.5" stroke-linecap="round"/><path d="M262.96534,227.14511c0,0 1.02192,-2.70582 1.245,-3.95509c0.17953,-1.00537 -0.00856,-2.96899 -0.00856,-2.96899h4.94577c0,0 -0.5701,2.48426 -1.07869,3.67096c-0.47877,1.11712 -1.88877,3.25312 -1.88877,3.25312z" data-paper-data="{&quot;index&quot;:null}" fill="#414141" stroke="#000000" stroke-width="0.5" stroke-linecap="round"/><path d="M222.04238,220.57673c0,0 -8.86683,0.32495 -18.84367,-0.7921c-8.77034,-0.98197 -18.28606,-3.30302 -24.93894,-4.84126c-14.29921,-3.30617 -41.77921,-14.14972 -41.77921,-14.14972" data-paper-data="{&quot;index&quot;:null}" fill="none" stroke="#2e6471" stroke-width="0.5" stroke-linecap="round"/><path d="M136.48057,159.49648c0,0 27.19523,-10.83962 41.09134,-14.16976c13.96472,-3.34658 42.49217,-5.86061 42.49217,-5.86061" data-paper-data="{&quot;index&quot;:null}" fill="none" stroke="#2e6471" stroke-width="0.5" stroke-linecap="round"/><path d="M144.71651,131.91302c0,0 8.20935,-1.9605 16.85979,-2.693c11.15053,-0.9442 44.22047,-1.5109 44.22047,-1.5109" data-paper-data="{&quot;index&quot;:null}" fill="none" stroke="#2e6471" stroke-width="0.5" stroke-linecap="round"/><path d="M206.29135,231.57029c0,0 -29.59191,0.40144 -40.80557,-0.19115c-7.78377,-0.41134 -20.0274,-3.0236 -20.0274,-3.0236" data-paper-data="{&quot;index&quot;:null}" fill="none" stroke="#2e6471" stroke-width="0.5" stroke-linecap="round"/><path d="M129.19722,134.55247l15.12193,-2.63778c0,0 -5.66865,16.1064 -6.64057,20.15085c-2.23773,9.31185 -4.06023,21.31584 -3.9636,28.39389c0.08722,6.38932 1.06259,16.53153 3.21099,24.86084c3.28713,12.74411 8.21093,23.01923 8.21093,23.01923l-15.44092,-1.64265" data-paper-data="{&quot;index&quot;:null}" fill="none" stroke="#2e6471" stroke-width="0.5" stroke-linecap="round"/><path d="M128.9644,134.01992c0,0 -4.66459,8.58624 -7.64312,19.59829c-2.28798,8.45899 -3.68821,18.954 -3.5901,25.41494c0.082,5.40033 0.84104,12.88408 2.57416,20.09615c3.26142,13.57183 8.46081,27.08541 8.46081,27.08541l-5.87739,2.02289l0.77845,-2.26996c0,0 -3.16987,-3.46699 -4.07127,-4.67029c-1.69275,-2.25969 -2.78196,-5.66858 -3.16553,-6.65226c-2.21196,-5.67262 -3.03382,-18.91431 -3.03382,-18.91431l2.68086,-0.44826c0,0 -0.43073,-11.01472 -0.39708,-16.36535c0.03239,-5.1495 0.09534,-15.15813 0.09534,-15.15813l-2.43087,-0.44826c0,0 2.6322,-13.57478 4.20518,-18.2047c0.84322,-2.48194 5.28206,-10.51048 5.28206,-10.51048l-0.05131,-2.53192z" data-paper-data="{&quot;index&quot;:null}" fill="url(#color-7)" stroke="#000000" stroke-width="0.75" stroke-linecap="round"/><path d="M127.29223,226.70956c0,0 -4.64861,-7.92472 -6.37166,-12.87052c-1.86561,-5.35497 -4.42834,-18.12948 -4.42834,-18.12948" data-paper-data="{&quot;index&quot;:null}" fill="none" stroke="#000000" stroke-width="0.5" stroke-linecap="round"/><path d="M116.02558,163.90953c0,0 2.79121,-12.30622 4.56512,-17.34183c1.66343,-4.72199 6.16822,-13.3915 6.16822,-13.3915" data-paper-data="{&quot;index&quot;:null}" fill="none" stroke="#000000" stroke-width="0.5" stroke-linecap="round"/><path d="M122.86509,148.09643c0,0 0.56579,-2.26578 0.7557,-3.16487c0.15015,-0.71088 0.702,-2.00898 0.702,-2.00898c0,0 0.39148,-1.54683 0.83781,-2.27961c0.51733,-0.84937 1.94214,-2.77519 1.94214,-2.77519c0,0 -1.77575,3.74339 -2.43024,5.35236c-0.66886,1.64425 -1.80741,4.87628 -1.80741,4.87628z" data-paper-data="{&quot;index&quot;:null}" fill="#ffffff" stroke="#ffffff" stroke-width="0.5" stroke-linecap="round"/><path d="M121.87235,152.06738c0,0 1.32604,-6.92689 2.46789,-9.76759c1.11893,-2.78369 4.31585,-7.10905 4.31585,-7.10905" data-paper-data="{&quot;index&quot;:null}" fill="none" stroke="#9a0a01" stroke-width="0.5" stroke-linecap="round"/><path d="M123.62078,215.07657c-0.18991,-0.89909 -1.24142,-6.02201 -1.24142,-6.02201c0,0 1.82428,6.15584 2.49313,7.80009c0.6545,1.60897 1.76357,4.88569 1.76357,4.88569c0,0 -0.95813,-1.52582 -1.47547,-2.37519c-0.44633,-0.73278 -0.96638,-2.33675 -0.96638,-2.33675z" data-paper-data="{&quot;index&quot;:null}" fill="#ffffff" stroke="#ffffff" stroke-width="0.5" stroke-linecap="round"/><path d="M128.65611,224.81739c0,0 -3.19692,-4.32536 -4.31585,-7.10904c-1.14184,-2.8407 -2.46789,-9.76759 -2.46789,-9.76759" data-paper-data="{&quot;index&quot;:null}" fill="none" stroke="#9a0a01" stroke-width="0.5" stroke-linecap="round"/><path d="M277.15127,227.16774l-1.26386,-6.51716c0,0 9.50753,-4.04708 13.68259,-6.2704c4.51548,-2.40461 13.65428,-8.98935 13.65428,-8.98935c0,0 12.52471,-1.54436 25.15107,-2.92083c9.51871,-1.03769 31.78228,-10.01404 31.91986,-8.99422c0.09709,0.7197 -0.34888,3.88397 -0.34888,3.88397l-2.94644,6.25337c0,0 -0.78873,5.83277 -7.12689,10.69043c-5.20887,3.99217 -15.89697,6.94104 -18.12011,8.75375c-2.16627,1.76634 -3.64073,4.11043 -3.64073,4.11043z" data-paper-data="{&quot;index&quot;:null}" fill="url(#color-8)" stroke="#000000" stroke-width="0" stroke-linecap="butt"/><path d="M277.44756,233.73537v-6.51826h50.81276v6.51826z" data-paper-data="{&quot;index&quot;:null}" fill="url(#color-9)" stroke="none" stroke-width="0" stroke-linecap="butt"/><path d="M360.05024,198.20115l-7.07342,13.52314c0,0 -1.3751,0.71947 -3.2279,1.71969c-1.33898,0.72284 -3.03263,1.80268 -4.13567,1.86081c-7.80985,0.4116 -44.41892,-0.85141 -44.41892,-0.85141l1.76141,-9.24743c0,0 16.45213,-0.93045 28.083,-3.41274c11.63087,-2.48229 29.17344,-8.80707 29.17344,-8.80707z" data-paper-data="{&quot;index&quot;:null}" fill="url(#color-10)" stroke="none" stroke-width="0" stroke-linecap="butt"/><path d="M338.48399,195.68557c0,0 -4.64881,2.30894 -6.63155,3.09888c-1.67023,0.66542 -4.48898,1.33158 -4.48898,1.33158l0.65693,-39.70593l9.7671,4.05906l2.53691,3.0443l-0.25369,24.22749z" data-paper-data="{&quot;index&quot;:null}" fill="url(#color-11)" stroke="#000000" stroke-width="0" stroke-linecap="butt"/><path d="M338.52425,165.1266c0,0 1.6,1.74958 1.6,3.2734c0,3.20372 0,15.35023 0,21.8c0,2.45271 -1.8,5.28161 -1.8,5.28161" data-paper-data="{&quot;index&quot;:null}" fill="none" stroke="#2e6471" stroke-width="0.5" stroke-linecap="round"/><path d="M324.92307,194.58457c0,0 -2.60122,4.1501 -4.33012,4.77052c-2.40589,0.86336 -8.75767,-0.07395 -8.75767,-0.07395l0.65693,-39.70593l8.49865,0.38054l3.93221,5.58121v29.04762z" data-paper-data="{&quot;index&quot;:null}" fill="url(#color-12)" stroke="#000000" stroke-width="0" stroke-linecap="butt"/><path d="M325.10294,167.51346c0,0 -3.69136,-3.63514 -9.04145,-6.27694c-5.4383,-2.68535 -12.53566,-4.37808 -12.39545,-4.37808c1.04338,0 6.9509,0.35862 12.12824,1.01824c4.17142,0.53146 7.91335,1.39183 7.91335,1.39183l1.3953,8.24496z" data-paper-data="{&quot;index&quot;:null}" fill="#2f6673" stroke="none" stroke-width="0" stroke-linecap="butt"/><path d="M324.92308,192.93558l-1.3953,8.24496c0,0 -3.99562,0.86037 -8.16704,1.39183c-5.17734,0.65962 -10.19694,1.52562 -11.24033,1.52562c-0.14021,0 6.06923,-2.20012 11.50753,-4.88547c5.35009,-2.6418 9.29514,-6.27694 9.29514,-6.27694z" data-paper-data="{&quot;index&quot;:null}" fill="#2f6673" stroke="none" stroke-width="0" stroke-linecap="butt"/><path d="M340.07072,194.53156l-0.12685,-28.92078c0,0 2.21343,0.84139 2.98575,1.35627c0.48965,0.32644 1.20015,1.43433 1.20015,1.43433l-0.12685,23.84696z" data-paper-data="{&quot;index&quot;:null}" fill="url(#color-13)" stroke="none" stroke-width="0" stroke-linecap="butt"/><path d="M330.90781,201.4087l0.30587,-1.89055c0,0 5.11976,-2.28062 7.2986,-3.39244c1.38654,-0.70752 2.83061,-1.9236 4.01702,-2.62728c0.61632,-0.36556 1.55362,-1.09771 1.56067,-2.039c0.03967,-5.2957 0.14542,-22.87935 -0.19463,-23.39631c-0.54963,-0.83556 -4.40868,-3.48917 -6.75163,-4.6542c-2.52796,-1.25703 -7.72072,-3.26958 -7.72072,-3.26958l0.18406,-2.30595c0,0 13.99681,3.97603 19.56253,5.73206c4.14358,1.30733 11.136,3.86101 11.136,3.86101c0,0 0.35699,7.6894 0.35699,11.86939c0,4.42369 -0.65038,13.98312 -0.65038,13.98312z" data-paper-data="{&quot;index&quot;:null}" fill="url(#color-14)" stroke="none" stroke-width="0" stroke-linecap="butt"/><path d="M302.23864,154.57187c0,0 19.35966,1.62474 28.74323,3.51841c8.90161,1.79642 29.47827,9.18769 29.47827,9.18769" data-paper-data="{&quot;index&quot;:null}" fill="none" stroke="#2e6471" stroke-width="0.5" stroke-linecap="round"/><path d="M303.55822,156.55738c0,0 15.38802,1.31974 22.36624,3.19958c4.68766,1.26279 12.06429,4.71948 15.81364,6.54903c1.44971,0.70741 1.60713,1.42156 1.60713,1.42156c0,0 0.75,1.06343 0.75,2.365c0,3.83481 -0.27778,21.67217 -0.27778,21.67217" data-paper-data="{&quot;index&quot;:null}" fill="none" stroke="#2e6471" stroke-width="0.5" stroke-linecap="round"/><path d="M343.70754,192.01594c0,0 -0.29023,0.92727 -1.15642,1.43381c-2.79084,1.63207 -9.25389,5.24066 -14.08068,6.61975c-7.09808,2.02802 -24.29939,4.13955 -24.29939,4.13955" data-paper-data="{&quot;index&quot;:null}" fill="none" stroke="#2e6471" stroke-width="0.5" stroke-linecap="round"/><path d="M328.11215,132.90503c0,0 1.47446,2.34408 3.64073,4.11043c2.22314,1.81272 12.91123,4.76159 18.12011,8.75375c6.33817,4.85766 7.12689,10.69043 7.12689,10.69043l2.94644,6.25337c0,0 0.44597,3.16426 0.34888,3.88397c-0.13758,1.01982 -22.40115,-7.95653 -31.91986,-8.99422c-12.62636,-1.37648 -25.15107,-2.92083 -25.15107,-2.92083c0,0 -9.1388,-6.58473 -13.65428,-8.98934c-4.17505,-2.22332 -13.68259,-6.2704 -13.68259,-6.2704l1.26386,-6.51716z" data-paper-data="{&quot;index&quot;:null}" fill="url(#color-15)" stroke="#000000" stroke-width="0" stroke-linecap="butt"/><path d="M328.2603,126.33738v6.51825h-50.81276v-6.51825z" data-paper-data="{&quot;index&quot;:null}" fill="url(#color-16)" stroke="none" stroke-width="0" stroke-linecap="butt"/><path d="M360.49123,167.32169c-0.00588,0.41544 -17.82164,-6.55987 -29.4525,-9.04216c-11.63087,-2.48229 -28.083,-3.41274 -28.083,-3.41274l-1.76141,-9.24743c0,0 36.60907,-1.26301 44.41893,-0.85141c1.10304,0.05813 2.79669,1.13797 4.13567,1.86081c1.8528,1.00022 2.39653,1.44256 2.39653,1.44256l8.18193,10.89045c0,0 0.18127,7.13151 0.16385,8.35992z" data-paper-data="{&quot;index&quot;:null}" fill="url(#color-17)" stroke="none" stroke-width="0" stroke-linecap="butt"/><path d="M335.26236,133.12622c0,0 -177.47687,1.04938 -202.48898,0.90902c-5.72372,-0.03212 -9.53049,-2.09877 -9.53049,-2.09877c0,0 3.43658,-1.86895 5.64371,-2.63264c3.13206,-1.08372 11.36497,-3.25255 11.36497,-3.25255l187.24292,-0.46167l7.76786,4.83713v2.69948z" data-paper-data="{&quot;index&quot;:null}" fill="url(#color-18)" stroke="none" stroke-width="0" stroke-linecap="butt"/><path d="M255.22735,123.70518c0,0 5.33276,0.10941 7.18804,1.7117c1.76734,1.52634 3.69264,7.68526 3.69264,7.68526l-7.17136,-1.23645z" data-paper-data="{&quot;index&quot;:null}" fill="#246372" stroke="#000000" stroke-width="0.5" stroke-linecap="round"/><path d="M329.23032,131.09677c1.38934,-0.32517 5.56853,0.25273 5.56853,0.25273c0,0 6.56177,3.50988 9.17743,6.12554c2.08544,2.08544 5.92888,6.3636 7.58381,9.29037c0.8971,1.58653 0.69403,1.37753 0.69403,1.37753c0,0 -0.15928,0.63353 -1.14635,-0.05228c-1.3073,-0.90831 -3.34026,-2.24359 -5.72788,-3.54356c-4.18312,-2.27756 -9.45658,-4.44502 -11.84485,-5.99664c-2.90612,-1.88805 -6.51269,-5.38094 -6.51269,-5.38094c0,0 1.04599,-1.80081 2.20797,-2.07276z" data-paper-data="{&quot;index&quot;:null}" fill="url(#color-19)" stroke="#000000" stroke-width="0.5" stroke-linecap="round"/><path d="M132.77336,226.28214c25.01211,-0.14035 202.48899,0.90902 202.48899,0.90902v2.69948l-7.76786,4.83713l-187.24292,-0.46167c0,0 -8.23291,-2.16883 -11.36497,-3.25255c-2.20713,-0.76369 -5.64372,-2.63264 -5.64372,-2.63264c0,0 3.80677,-2.06664 9.53048,-2.09876z" data-paper-data="{&quot;index&quot;:null}" fill="url(#color-20)" stroke="none" stroke-width="0" stroke-linecap="butt"/><path d="M255.29939,236.29482l3.70933,-8.16052l7.17137,-1.23644c0,0 -1.9253,6.15892 -3.69265,7.68526c-1.85528,1.60229 -7.18805,1.7117 -7.18805,1.7117z" data-paper-data="{&quot;index&quot;:null}" fill="#246372" stroke="#000000" stroke-width="0.5" stroke-linecap="round"/><path d="M330.08032,229.0604c-1.16198,-0.27195 -2.20797,-2.07276 -2.20797,-2.07276c0,0 3.60657,-3.49289 6.51269,-5.38094c2.38827,-1.55162 7.66173,-3.71908 11.84485,-5.99664c2.38762,-1.29997 4.42058,-2.63525 5.72788,-3.54356c0.98707,-0.68581 1.14635,-0.05228 1.14635,-0.05228c0,0 0.20307,-0.209 -0.69403,1.37753c-1.65493,2.92677 -5.49837,7.20493 -7.58381,9.29037c-2.61566,2.61566 -9.17743,6.12554 -9.17743,6.12554c0,0 -4.17919,0.5779 -5.56853,0.25273z" data-paper-data="{&quot;index&quot;:null}" fill="url(#color-21)" stroke="#000000" stroke-width="0.5" stroke-linecap="round"/><path d="M136.20822,158.9629c0,0 39.14507,-15.63255 53.57651,-15.63255c21.11807,0 17.89574,12.91513 17.89574,34.24652c0,21.33139 1.16239,39.13888 -19.95568,39.13888c-6.61131,0 -19.25439,-4.02477 -30.33643,-8.08918c-11.30248,-4.14525 -20.9812,-8.33174 -20.9812,-8.33174c0,0 -4.17204,-13.84562 -4.17204,-21.68799c0,-6.75419 3.9731,-19.64394 3.9731,-19.64394z" data-paper-data="{&quot;index&quot;:null}" fill="url(#color-22)" stroke="none" stroke-width="0" stroke-linecap="butt"/><path d="M135.11049,196.27385c0,0 -1.32274,-10.67395 -1.2899,-16.05974c0.03324,-5.45167 1.48816,-16.45504 1.48816,-16.45504c0,0 17.80478,-3.12093 27.18595,-4.13855c10.06616,-1.09192 31.30101,-2.2058 31.30101,-2.2058l-0.19826,45.40174c0,0 -22.91505,-1.5499 -33.20661,-2.70116c-9.04185,-1.01146 -25.28034,-3.84145 -25.28034,-3.84145z" data-paper-data="{&quot;index&quot;:null}" fill="#252525" stroke="#000000" stroke-width="0.5" stroke-linecap="round"/><path d="M136.10181,166.73299c0,0 15.92497,-2.90457 24.78811,-3.4847c7.16367,-0.4689 20.72213,-0.26463 26.5547,-0.14653c1.73174,0.03507 2.18763,0.85558 2.18763,0.85558c0,0 0.58624,0.66746 0.57739,2.18075c-0.02176,3.72189 -0.11552,19.55713 -0.15881,26.95907c-0.01348,2.30383 -0.41858,2.58191 -0.41858,2.58191c0,0 -0.4107,1.38526 -1.78543,1.37732c-5.91151,-0.03414 -22.31686,-0.16765 -30.15535,-0.6237c-8.30736,-0.48334 -21.98618,-3.52928 -21.98618,-3.52928z" data-paper-data="{&quot;index&quot;:null}" fill="url(#color-23)" stroke="#000000" stroke-width="0.5" stroke-linecap="round"/><path d="M205.33042,231.16928c0,0 -20.05759,0.85235 -27.55545,-0.71651c-5.57439,-1.16639 -18.46487,0.22544 -25.86313,-2.5037c-8.3568,-3.08274 -10.93052,-10.24427 -10.93052,-10.24427c0,0 -1.47974,-4.25582 -2.16431,-6.68925c-0.86922,-3.08982 -2.6306,-10.35524 -2.6306,-10.35524c0,0 13.00087,5.1301 20.02967,7.60574c4.12412,1.45257 17.13367,5.65853 29.20765,8.48034c10.40662,2.43213 20.37181,3.62468 20.37181,3.62468l-0.46513,10.7982z" data-paper-data="{&quot;index&quot;:null}" fill="url(#color-24)" stroke="none" stroke-width="0" stroke-linecap="butt"/><path d="M177.77496,129.4468c7.49786,-1.56886 27.55545,-0.71651 27.55545,-0.71651l-0.19238,11.62008c0,0 -9.30769,0.37067 -19.71431,2.8028c-12.07398,2.82181 -25.08353,7.02777 -29.20765,8.48034c-7.0288,2.47564 -20.02967,7.60574 -20.02967,7.60574c0,0 1.76138,-7.26542 2.6306,-10.35524c0.68457,-2.43343 2.16431,-6.68925 2.16431,-6.68925c0,0 2.57372,-7.16153 10.93052,-10.24427c7.39826,-2.72914 20.28874,-1.33731 25.86313,-2.5037z" data-paper-data="{&quot;index&quot;:null}" fill="url(#color-25)" stroke="none" stroke-width="0" stroke-linecap="butt"/><path d="M129.31938,226.61256c-1.87579,0 -11.02926,-28.52637 -11.24799,-47.19809c-0.22066,-18.8374 10.91924,-44.85258 10.91924,-44.85258h9.86257c0,0 1.80813,26.77007 1.80813,41.31322c0,16.00094 -1.80813,50.73745 -1.80813,50.73745c0,0 -6.12093,0 -9.53382,0z" data-paper-data="{&quot;index&quot;:null}" fill="url(#color-26)" stroke="none" stroke-width="0" stroke-linecap="butt"/><path d="M333.729,132.40454c0,0 7.22161,3.3562 9.18194,5.52167c2.46818,2.72648 4.44179,7.00508 4.10455,7.12113c-0.66193,0.22776 -2.91785,-3.56312 -5.78422,-6.10911c-3.0888,-2.74355 -11.16758,-5.71205 -11.16758,-5.71205z" data-paper-data="{&quot;index&quot;:null}" fill="url(#color-27)" stroke="none" stroke-width="0" stroke-linecap="butt"/><path d="M340.57355,137.47227l-0.02736,1.14426l-4.49525,-0.10748l0.02736,-1.14426z" data-paper-data="{&quot;index&quot;:null}" fill="url(#color-28)" stroke="none" stroke-width="0" stroke-linecap="butt"/><path d="M335.16439,135.08614c0,0 7.76418,4.20955 9.82721,8.23651c2.46817,2.72646 0.54141,0.84318 -2.32496,-1.70281c-3.08879,-2.74355 -11.16757,-5.71206 -11.16757,-5.71206z" data-paper-data="{&quot;index&quot;:null}" fill="url(#color-29)" stroke="none" stroke-width="0" stroke-linecap="butt"/><path d="M339.79734,135.10992l-0.0485,2.02817l-6.37429,-0.15241l0.0485,-2.02818z" data-paper-data="{&quot;index&quot;:null}" fill="url(#color-30)" stroke="none" stroke-width="0" stroke-linecap="butt"/><path d="M333.6751,132.17196l-0.06235,2.60767l-4.65047,-0.14895l-1.49292,-1.31394l0.88726,-1.29373z" data-paper-data="{&quot;index&quot;:null}" fill="url(#color-31)" stroke="none" stroke-width="0" stroke-linecap="butt"/><path d="M342.75926,139.63451l-0.0485,2.02817l-3.08951,-0.09446l-4.22256,-2.18496z" data-paper-data="{&quot;index&quot;:null}" fill="url(#color-32)" stroke="none" stroke-width="0" stroke-linecap="butt"/><path d="M339.17356,137.61252l-0.04849,2.02818l-3.3178,-0.11708l-3.30706,-1.92282z" data-paper-data="{&quot;index&quot;:null}" fill="url(#color-33)" stroke="none" stroke-width="0" stroke-linecap="butt"/><path d="M335.8916,135.00943l-0.06235,2.60767l-3.07126,0.04827l-3.42575,-2.80839z" data-paper-data="{&quot;index&quot;:null}" fill="url(#color-34)" stroke="none" stroke-width="0" stroke-linecap="butt"/><path d="M330.34942,227.28254c0,0 8.07878,-2.9685 11.16758,-5.71205c2.86636,-2.54599 5.12229,-6.33687 5.78422,-6.10911c0.33724,0.11605 -1.63637,4.39466 -4.10455,7.12113c-1.96033,2.16547 -9.18194,5.52167 -9.18194,5.52167z" data-paper-data="{&quot;index&quot;:null}" fill="url(#color-35)" stroke="none" stroke-width="0" stroke-linecap="butt"/><path d="M336.36402,223.14393l-0.02736,-1.14425l4.49525,-0.10748l0.02736,1.14426z" data-paper-data="{&quot;index&quot;:null}" fill="url(#color-36)" stroke="none" stroke-width="0" stroke-linecap="butt"/><path d="M331.78479,224.60093c0,0 8.07878,-2.96851 11.16757,-5.71205c2.86636,-2.54599 4.79314,-4.42927 2.32497,-1.70281c-2.06303,4.02696 -9.82722,8.23651 -9.82722,8.23651z" data-paper-data="{&quot;index&quot;:null}" fill="url(#color-37)" stroke="none" stroke-width="0" stroke-linecap="butt"/><path d="M333.70877,225.55123l-0.0485,-2.02818l6.37428,-0.15241l0.0485,2.02818z" data-paper-data="{&quot;index&quot;:null}" fill="url(#color-38)" stroke="none" stroke-width="0" stroke-linecap="butt"/><path d="M328.64234,228.48572l-0.88726,-1.29373l1.49293,-1.31395l4.65047,-0.14894l0.06235,2.60767z" data-paper-data="{&quot;index&quot;:null}" fill="url(#color-39)" stroke="none" stroke-width="0" stroke-linecap="butt"/><path d="M335.68441,221.12546l4.22256,-2.18496l3.08951,-0.09446l0.0485,2.02818z" data-paper-data="{&quot;index&quot;:null}" fill="url(#color-40)" stroke="none" stroke-width="0" stroke-linecap="butt"/><path d="M332.78593,222.90792l3.30706,-1.92282l3.3178,-0.11708l0.04849,2.02818z" data-paper-data="{&quot;index&quot;:null}" fill="url(#color-41)" stroke="none" stroke-width="0" stroke-linecap="butt"/><path d="M329.61796,225.65176l3.42575,-2.80839l3.07126,0.04826l0.06235,2.60767z" data-paper-data="{&quot;index&quot;:null}" fill="url(#color-42)" stroke="none" stroke-width="0" stroke-linecap="butt"/><path d="M222.21741,153.37499c-10.01016,0 -18.125,-0.90623 -18.125,-2.02411c0,-1.11789 8.11484,-2.02411 18.125,-2.02411c10.01016,0 18.125,0.90623 18.125,2.02411c0,1.11789 -8.11484,2.02411 -18.125,2.02411z" data-paper-data="{&quot;index&quot;:null}" fill="url(#color-43)" stroke="none" stroke-width="0" stroke-linecap="butt"/><path d="M221.71741,207.62501c-10.01016,0 -18.125,-0.90623 -18.125,-2.02411c0,-1.11789 8.11484,-2.02411 18.125,-2.02411c10.01016,0 18.125,0.90623 18.125,2.02411c0,1.11789 -8.11484,2.02411 -18.125,2.02411z" data-paper-data="{&quot;index&quot;:null}" fill="url(#color-44)" stroke="none" stroke-width="0" stroke-linecap="butt"/><path d="M171.75623,229.37464c-10.00832,0.19199 -18.13904,-0.55843 -18.16048,-1.67611c-0.02144,-1.11768 8.07452,-2.17938 18.08284,-2.37138c10.00832,-0.19199 18.13905,0.55844 18.16049,1.67612c0.02144,1.11768 -8.07453,2.17938 -18.08285,2.37137z" data-paper-data="{&quot;index&quot;:null}" fill="url(#color-45)" stroke="none" stroke-width="0" stroke-linecap="butt"/><path d="M174.50623,135.37464c-10.00832,0.19199 -18.13904,-0.55843 -18.16048,-1.67611c-0.02144,-1.11768 8.07452,-2.17938 18.08284,-2.37138c10.00832,-0.19199 18.13905,0.55844 18.16049,1.67612c0.02144,1.11768 -8.07453,2.17938 -18.08285,2.37137z" data-paper-data="{&quot;index&quot;:null}" fill="url(#color-46)" stroke="none" stroke-width="0" stroke-linecap="butt"/><path d="M4.42566,361.63478v-360.53868h472.87786v360.53869z" fill="none" stroke="none" stroke-width="0" stroke-linecap="butt"/></g></g></svg>