<svg version="1.1" xmlns="http://www.w3.org/2000/svg" xmlns:xlink="http://www.w3.org/1999/xlink" width="479.77611" height="421.75553" viewBox="0,0,479.77611,421.75553"><defs><radialGradient cx="240" cy="180.00001" r="103.46353" gradientUnits="userSpaceOnUse" id="color-1"><stop offset="0" stop-color="#000000"/><stop offset="1" stop-color="#000000" stop-opacity="0"/></radialGradient></defs><g transform="translate(-0.11195,30.87775)"><g data-paper-data="{&quot;isPaintingLayer&quot;:true}" fill-rule="nonzero" stroke-linecap="butt" stroke-linejoin="miter" stroke-miterlimit="10" stroke-dasharray="" stroke-dashoffset="0" style="mix-blend-mode: normal"><path d="M136.53647,283.46353v-206.92707h206.92707v206.92707z" fill="url(#color-1)" stroke="none" stroke-width="NaN"/><g><path d="M153.31532,179.73703c0,-47.87465 38.81003,-86.68468 86.68468,-86.68468c47.87465,0 86.68468,38.81011 86.68468,86.68468c0,47.87465 -38.81003,86.68468 -86.68468,86.68468c-47.87465,0 -86.68468,-38.81003 -86.68468,-86.68468z" fill="#ffbb00" stroke="none" stroke-width="0"/><path d="M168.93173,179.83511c0,-39.05198 31.65789,-70.70987 70.70987,-70.70987c39.05198,0 70.70987,31.65789 70.70987,70.70987c0,39.05198 -31.65789,70.70979 -70.70987,70.70979c-39.05198,0 -70.70987,-31.65789 -70.70987,-70.70979z" fill="#e8aa00" stroke="none" stroke-width="0"/><text transform="translate(189.57734,226.5985) rotate(1.42376) scale(2.41138,3.22887) skewX(-18.80556)" font-size="40" xml:space="preserve" fill="#d39b00" fill-rule="nonzero" stroke="#d39b00" stroke-width="3" stroke-linecap="butt" stroke-linejoin="miter" stroke-miterlimit="10" stroke-dasharray="" stroke-dashoffset="0" font-family="Sans Serif" font-weight="normal" text-anchor="start" style="mix-blend-mode: normal"><tspan x="0" dy="0">N</tspan></text><text transform="translate(195.99092,221.35879) rotate(1.42369) scale(2.14647,2.87414) skewX(-18.80572)" font-size="40" xml:space="preserve" fill="#ffbb00" fill-rule="nonzero" stroke="#ffbb00" stroke-width="3" stroke-linecap="butt" stroke-linejoin="miter" stroke-miterlimit="10" stroke-dasharray="" stroke-dashoffset="0" font-family="Sans Serif" font-weight="normal" text-anchor="start" style="mix-blend-mode: normal"><tspan x="0" dy="0">N</tspan></text></g><text transform="translate(160.70365,202.05255) scale(1.69382,1.69382)" font-size="40" xml:space="preserve" fill="#c18e00" fill-rule="nonzero" stroke="#906900" stroke-width="5" stroke-linecap="butt" stroke-linejoin="miter" stroke-miterlimit="10" stroke-dasharray="" stroke-dashoffset="0" font-family="Sans Serif" font-weight="normal" text-anchor="start" style="mix-blend-mode: normal"><tspan x="0" dy="0">1000</tspan></text><path d="M0.11195,390.87778v-421.75553h479.77611v421.75553z" fill="none" stroke="none" stroke-width="1.5"/></g></g></svg>