<svg version="1.1" xmlns="http://www.w3.org/2000/svg" xmlns:xlink="http://www.w3.org/1999/xlink" width="79.2" height="79.2" viewBox="0,0,79.2,79.2"><defs><radialGradient cx="240" cy="180" r="16.875" gradientUnits="userSpaceOnUse" id="color-1"><stop offset="0" stop-color="#4e4e4e"/><stop offset="1" stop-color="#4e4e4e" stop-opacity="0"/></radialGradient><radialGradient cx="240.00002" cy="180" r="10.74444" gradientUnits="userSpaceOnUse" id="color-2"><stop offset="0" stop-color="#af6600"/><stop offset="1" stop-color="#af6600" stop-opacity="0"/></radialGradient></defs><g transform="translate(-200.4,-140.4)"><g data-paper-data="{&quot;isPaintingLayer&quot;:true}" fill-rule="nonzero" stroke-linecap="butt" stroke-linejoin="miter" stroke-miterlimit="10" stroke-dasharray="" stroke-dashoffset="0" style="mix-blend-mode: normal"><path d="M223.125,196.875v-33.75h33.75v33.75z" fill="url(#color-1)" stroke="none" stroke-width="0"/><path d="M229.7,186.22791c0,-4.02984 0,-10.31019 0,-12.45581c0,-1.81422 2.10395,-4.07209 3.83256,-4.07209c2.40092,0 9.00678,0 13.17442,0c2.10857,0 3.59302,1.72779 3.59302,4.07209c0,3.78423 0,9.65397 0,11.97674c0,2.13816 -1.48445,4.55116 -3.59302,4.55116c-4.16765,0 -10.7735,0 -13.17442,0c-1.72861,0 -3.83256,-1.2372 -3.83256,-4.07209z" fill="#f7b400" stroke="#f79100" stroke-width="1"/><path d="M200.4,219.6v-79.2h79.2v79.2z" fill="none" stroke="none" stroke-width="0"/><path d="M229.25556,180c0,-5.82867 4.81045,-10.55371 10.74444,-10.55371c5.93399,0 10.74444,4.72507 10.74444,10.55371c0,5.82867 -4.81045,10.55371 -10.74444,10.55371c-5.93399,0 -10.74444,-4.72507 -10.74444,-10.55371z" fill="url(#color-2)" stroke="none" stroke-width="0"/><path d="M231.49634,180c0,-4.69644 3.80722,-8.50366 8.50366,-8.50366c4.69644,0 8.50365,3.80722 8.50365,8.50366c0,4.69644 -3.80721,8.50366 -8.50365,8.50366c-4.69644,0 -8.50366,-3.80722 -8.50366,-8.50366z" fill="#f7f7f7" stroke="#f79100" stroke-width="0.5"/></g></g></svg>