<svg version="1.1" xmlns="http://www.w3.org/2000/svg" xmlns:xlink="http://www.w3.org/1999/xlink" width="206.74324" height="221.19304" viewBox="0,0,206.74324,221.19304"><g transform="translate(-136.90626,-67.6695)"><g data-paper-data="{&quot;isPaintingLayer&quot;:true}" fill-rule="nonzero" stroke-linejoin="miter" stroke-miterlimit="10" stroke-dasharray="" stroke-dashoffset="0" style="mix-blend-mode: normal"><path d="M187.52535,251.34785v-142.69571h104.94929v142.69571z" fill-opacity="0.69412" fill="#555555" stroke="#ffffff" stroke-width="2.5" stroke-linecap="butt"/><path d="M227.37815,178.86727v-5.45558c0,0 -1.41823,-14.73331 10.41522,-14.63091c12.08228,0.10455 11.65512,14.38294 11.65512,14.38294l0.24799,5.70356" fill="none" stroke="#cacaca" stroke-width="7" stroke-linecap="round"/><path d="M227.37815,179.08425v-5.45558c0,0 -1.41823,-14.7333 10.41522,-14.6309c12.08228,0.10455 11.65512,14.38294 11.65512,14.38294l0.24799,5.70356" fill="none" stroke="#ffffff" stroke-width="3" stroke-linecap="round"/><path d="M218.79801,203.23805c0,-3.73194 0,-13.90847 0,-20.5961c0,-2.8128 2.85249,-5.64073 5.30675,-5.64073c7.77902,0 23.8639,0 28.94588,0c2.8325,0 5.49231,2.86822 5.49231,5.08406c0,3.63248 0,14.60428 0,21.15278c0,3.00901 -2.7662,5.45518 -5.30675,5.45518c-4.72852,0 -20.18879,0 -28.57478,0c-3.6485,0 -5.86338,-2.68268 -5.86338,-5.4552z" fill="#ffffff" stroke="#cacaca" stroke-width="2" stroke-linecap="butt"/><path d="M233.77605,190.08639c0,-2.76956 2.24518,-5.01474 5.01474,-5.01474c2.76957,0 5.01474,2.24517 5.01474,5.01474c0,2.76957 -2.24517,5.01474 -5.01474,5.01474c-2.76956,0 -5.01474,-2.24517 -5.01474,-5.01474z" fill="#3e3e3e" stroke="none" stroke-width="0" stroke-linecap="butt"/><path d="M236.47628,198.18712c0,-1.69126 0,-8.48646 0,-8.48646h4.62899c0,0 0,6.92482 0,8.58858c0,0.68147 -0.57877,1.44087 -1.2934,1.44087c-0.8926,0 -1.79294,0 -2.24642,0c-0.39697,0 -1.08917,-0.82183 -1.08917,-1.54299z" fill="#3e3e3e" stroke="none" stroke-width="0" stroke-linecap="butt"/><path d="M136.90626,288.86254v-221.19303h206.74324v221.19304z" fill="none" stroke="none" stroke-width="0" stroke-linecap="butt"/></g></g></svg>