<svg version="1.1" xmlns="http://www.w3.org/2000/svg" xmlns:xlink="http://www.w3.org/1999/xlink" width="57.33501" height="49.16619" viewBox="0,0,57.33501,49.16619"><defs><linearGradient x1="6324.44014" y1="-2002.7165" x2="6324.44014" y2="1193.08621" gradientUnits="userSpaceOnUse" id="color-1"><stop offset="0" stop-color="#000000"/><stop offset="1" stop-color="#000000" stop-opacity="0"/></linearGradient></defs><g transform="translate(-211.33249,-155.41691)"><g data-paper-data="{&quot;isPaintingLayer&quot;:true}" fill-rule="nonzero" stroke-linejoin="miter" stroke-miterlimit="10" stroke-dasharray="" stroke-dashoffset="0" style="mix-blend-mode: normal"><path d="M211.33249,189.63842c0,-8.11341 0,-17.38746 0,-21.90696c0,-5.20237 5.60589,-12.31455 13.00726,-12.31455c37.85701,0 -47.8093,0 27.83529,0c10.53576,0 16.49246,7.18927 16.49246,15.30186c0,7.20901 0,15.14712 0,19.41754c0,5.85462 -5.20935,14.44679 -14.50091,14.44679c-71.86173,0 9.45386,0 -29.32895,0c-7.66276,0 -13.50514,-6.90211 -13.50514,-14.94468z" fill="url(#color-1)" stroke="none" stroke-width="0" stroke-linecap="butt"/><path d="M227.11648,173.27628l3.15976,23.31681" fill="none" stroke="#f1f1f1" stroke-width="2.5" stroke-linecap="round"/><path d="M251.08703,172.84044l-2.94184,23.75264l-17.21521,0.21791" fill="none" stroke="#f1f1f1" stroke-width="2.5" stroke-linecap="round"/><path d="M224.93734,172.07775v-4.90306h27.67509v5.77472h-27.34822" fill="none" stroke="#f1f1f1" stroke-width="2.5" stroke-linecap="round"/><path d="M234.96139,166.73886v-2.72392h8.06282v2.94184" fill="none" stroke="#f1f1f1" stroke-width="2.5" stroke-linecap="round"/><path d="M233.6539,176.32707v14.60025" fill="none" stroke="#f1f1f1" stroke-width="2.5" stroke-linecap="round"/><path d="M238.88384,190.81836v-14.7092" fill="none" stroke="#f1f1f1" stroke-width="2.5" stroke-linecap="round"/><path d="M244.22274,176.21812v14.60024" fill="none" stroke="#f1f1f1" stroke-width="2.5" stroke-linecap="round"/></g></g></svg>