<svg version="1.1" xmlns="http://www.w3.org/2000/svg" xmlns:xlink="http://www.w3.org/1999/xlink" width="310.52316" height="284.57034" viewBox="0,0,310.52316,284.57034"><defs><linearGradient x1="157.16726" y1="179.83836" x2="177.34603" y2="179.83836" gradientUnits="userSpaceOnUse" id="color-1"><stop offset="0" stop-color="#737373" stop-opacity="0"/><stop offset="1" stop-color="#737373" stop-opacity="0.48235"/></linearGradient><linearGradient x1="322.80385" y1="179.78638" x2="302.62511" y2="179.78638" gradientUnits="userSpaceOnUse" id="color-2"><stop offset="0" stop-color="#737373" stop-opacity="0"/><stop offset="1" stop-color="#737373" stop-opacity="0.48235"/></linearGradient></defs><g transform="translate(-84.73842,-37.71483)"><g data-paper-data="{&quot;isPaintingLayer&quot;:true}" fill-rule="nonzero" stroke-linecap="butt" stroke-linejoin="miter" stroke-miterlimit="10" stroke-dasharray="" stroke-dashoffset="0" style="mix-blend-mode: normal"><path d="M177.35779,202.08626v-44.49579h125.25679v44.49579z" fill-opacity="0.48235" fill="#737373" stroke="#ffffff" stroke-width="0"/><path d="M157.16726,202.08626v-44.49579h20.17874v44.49579z" fill="url(#color-1)" stroke="#ffffff" stroke-width="0"/><text transform="translate(220.05529,168.65809) scale(0.20111,0.20111)" font-size="40" xml:space="preserve" fill="#ffffff" fill-rule="nonzero" stroke="#ffffff" stroke-width="2" stroke-linecap="butt" stroke-linejoin="miter" stroke-miterlimit="10" stroke-dasharray="" stroke-dashoffset="0" font-family="Sans Serif" font-weight="normal" text-anchor="start" style="mix-blend-mode: normal"><tspan x="0" dy="0">点击以购买</tspan></text><path d="M84.73842,322.28517v-284.57034h310.52316v284.57034z" fill="none" stroke="none" stroke-width="0"/><path d="M302.62511,202.0343v-44.49579h20.17874v44.49579z" data-paper-data="{&quot;index&quot;:null}" fill="url(#color-2)" stroke="#ffffff" stroke-width="0"/><g><path d="M285.58567,185.05461c0,-6.40497 5.19225,-11.59722 11.59722,-11.59722c6.40497,0 11.59722,5.19226 11.59722,11.59722c0,6.40497 -5.19225,11.59722 -11.59722,11.59722c-6.40497,0 -11.59722,-5.19225 -11.59722,-11.59722z" fill="#ffbb00" stroke="none" stroke-width="0"/><path d="M287.67493,185.06773c0,-5.22462 4.23539,-9.46001 9.46001,-9.46001c5.22462,0 9.46001,4.23539 9.46001,9.46001c0,5.22462 -4.23539,9.46 -9.46001,9.46c-5.22462,0 -9.46001,-4.23539 -9.46001,-9.46z" fill="#e8aa00" stroke="none" stroke-width="0"/><text transform="translate(290.43703,191.32403) rotate(1.42362) scale(0.32261,0.43198) skewX(-18.80581)" font-size="40" xml:space="preserve" fill="#d39b00" fill-rule="nonzero" stroke="#d39b00" stroke-width="3" stroke-linecap="butt" stroke-linejoin="miter" stroke-miterlimit="10" stroke-dasharray="" stroke-dashoffset="0" font-family="Sans Serif" font-weight="normal" text-anchor="start" style="mix-blend-mode: normal"><tspan x="0" dy="0">N</tspan></text><text transform="translate(291.29508,190.62303) rotate(1.42372) scale(0.28717,0.38452) skewX(-18.80559)" font-size="40" xml:space="preserve" fill="#ffbb00" fill-rule="nonzero" stroke="#ffbb00" stroke-width="3" stroke-linecap="butt" stroke-linejoin="miter" stroke-miterlimit="10" stroke-dasharray="" stroke-dashoffset="0" font-family="Sans Serif" font-weight="normal" text-anchor="start" style="mix-blend-mode: normal"><tspan x="0" dy="0">N</tspan></text></g></g></g></svg>