<svg version="1.1" xmlns="http://www.w3.org/2000/svg" xmlns:xlink="http://www.w3.org/1999/xlink" width="482.29271" height="409.30376" viewBox="0,0,482.29271,409.30376"><defs><linearGradient x1="168.38484" y1="153.13497" x2="177.06115" y2="164.51615" gradientUnits="userSpaceOnUse" id="color-1"><stop offset="0" stop-color="#ffffff"/><stop offset="1" stop-color="#dde7dd"/></linearGradient><linearGradient x1="237.5398" y1="75.51693" x2="237.5398" y2="138.98931" gradientUnits="userSpaceOnUse" id="color-2"><stop offset="0" stop-color="#ffffff"/><stop offset="1" stop-color="#ededed"/></linearGradient><linearGradient x1="142.54633" y1="125.80963" x2="146.18487" y2="131.81913" gradientUnits="userSpaceOnUse" id="color-3"><stop offset="0" stop-color="#ffffff"/><stop offset="1" stop-color="#dde7dd"/></linearGradient></defs><g transform="translate(1.14634,24.65178)"><g data-paper-data="{&quot;isPaintingLayer&quot;:true}" fill-rule="nonzero" stroke="none" stroke-width="0" stroke-linecap="butt" stroke-linejoin="miter" stroke-miterlimit="10" stroke-dasharray="" stroke-dashoffset="0" style="mix-blend-mode: normal"><path d="M144.48305,204.99495l-5.72762,-6.31301l11.95321,-34.03642l15.27806,0.29362z" fill="#8d6043"/><path d="M164.31288,159.9438l-17.74415,-65.37314l2.80173,-0.93393l32.68658,68.17487z" fill="#856048"/><path d="M125.08902,127.72414l0.93393,-2.80173h35.95521l0.46697,7.47121z" fill="#8d6043"/><path d="M238.21979,127.12154v-8.83943l34.55412,1.20538l-2.00896,8.03584z" fill="#7d5c45"/><path d="M208.48717,191.40828l7.23226,-8.03584l9.24122,-19.68782l16.05577,36.37832l27.70848,55.0172l-5.59401,7.44534l-22.58397,-33.10096z" fill="#825f48"/><path d="M243.44308,227.97137l-0.40179,-12.05376l52.63477,-25.31291l6.42867,5.2233z" fill="#8c6850"/><path d="M289.21208,239.44428l-29.62101,-25.44589l7.59308,-2.72323l22.79054,24.64231z" fill="#8d6043"/><path d="M121.35342,170.21675v-12.60771l74.24518,-6.07037l-5.6034,18.67808z" fill="#8c674f"/><path d="M185.98681,182.43494l-3.27669,-23.27906l10.42853,-13.52513l22.66105,-5.14295l40.09886,-80.19774l6.83047,6.02688l-29.47266,83.66435l3.33965,8.9981l0.82011,12.60709l-6.45011,19.79881l-19.72903,4.65154c0,0 -5.95483,-3.20777 -9.52587,-5.13146c-4.58809,-2.47156 -15.72432,-8.47049 -15.72432,-8.47049z" fill="#8c6b55"/><g><path d="M243.9861,292.48392c-1.82351,-11.41985 7.92601,-14.59861 7.92601,-14.59861c0,0 -10.52492,-11.74073 -6.81492,-19.32694c2.72827,-5.57877 14.57428,-6.2624 14.57428,-6.2624c0,0 3.3829,-18.46647 11.96943,-18.46647c9.15872,0 13.78846,10.58923 13.78846,10.58923c0,0 5.48903,-12.2367 12.81546,-9.33477c7.04417,2.79006 6.67094,8.51399 9.85032,17.64734c1.63395,4.69404 15.04162,-2.60713 17.3692,7.90704c2.31929,10.4767 -7.93357,14.06642 -7.93357,14.06642c0,0 7.34676,6.72469 7.47545,13.80221c0.17623,9.68785 -16.80739,10.545 -16.80739,10.545c0,0 2.70756,12.75089 -9.30265,16.18704c-0.77773,0.22249 -11.08157,-3.76202 -11.75536,-3.76202c-0.28969,0 -4.05533,6.16282 -15.7393,4.40183c-5.24338,-0.79032 -10.1687,-14.92638 -10.1687,-14.92638c0,0 -15.5514,2.14754 -17.24659,-8.46848z" fill="#ebebeb"/><path d="M250.35194,289.97598c-1.52019,-9.5201 6.60749,-12.17004 6.60749,-12.17004c0,0 -8.77407,-9.78761 -5.68123,-16.1118c2.27439,-4.65068 12.14971,-5.22066 12.14971,-5.22066c0,0 2.8201,-15.39446 9.97822,-15.39446c7.63516,0 11.49466,8.82764 11.49466,8.82764c0,0 4.57587,-10.20101 10.68352,-7.78191c5.87227,2.32592 5.56121,7.09761 8.21159,14.71163c1.36214,3.91319 12.5394,-2.17341 14.47981,6.59164c1.93346,8.73377 -6.61382,11.7263 -6.61382,11.7263c0,0 6.12454,5.60592 6.23186,11.50614c0.14694,8.07614 -14.01137,8.79077 -14.01137,8.79077c0,0 2.25719,10.62971 -7.75506,13.49422c-0.6483,0.1855 -9.23803,-3.13614 -9.79984,-3.13614c-0.24147,0 -3.38068,5.13754 -13.12099,3.6695c-4.37113,-0.65886 -8.47707,-12.44327 -8.47707,-12.44327c0,0 -12.96441,1.79028 -14.37753,-7.05965z" fill="#f7f7f7"/></g><g><path d="M62.26511,177.4533c-1.53923,-9.6395 6.69035,-12.32269 6.69035,-12.32269c0,0 -8.88409,-9.91041 -5.75249,-16.3139c2.30295,-4.70909 12.30224,-5.28607 12.30224,-5.28607c0,0 2.85548,-15.58758 10.1034,-15.58758c7.73092,0 11.63889,8.93838 11.63889,8.93838c0,0 4.6333,-10.32896 10.81755,-7.87945c5.94598,2.3551 5.63093,7.18668 8.31466,14.89616c1.37921,3.96227 12.69666,-2.20067 14.66139,6.67431c1.95767,8.84336 -6.69674,11.87348 -6.69674,11.87348c0,0 6.2014,5.67631 6.30999,11.65044c0.14872,8.17749 -14.18718,8.90104 -14.18718,8.90104c0,0 2.28544,10.76307 -7.85236,13.66352c-0.65646,0.18778 -9.35394,-3.17552 -9.92268,-3.17552c-0.24455,0 -3.42312,5.20204 -13.28562,3.71564c-4.42592,-0.66709 -8.58346,-12.59942 -8.58346,-12.59942c0,0 -13.12695,1.81277 -14.55783,-7.14823z" fill="#ebebeb"/><path d="M67.63854,174.96539c-1.28321,-8.03596 5.57743,-10.27276 5.57743,-10.27276c0,0 -7.40622,-8.26171 -4.79558,-13.59994c1.91976,-3.92566 10.25562,-4.40682 10.25562,-4.40682c0,0 2.38047,-12.99445 8.42264,-12.99445c6.44483,0 9.70266,7.45144 9.70266,7.45144c0,0 3.86245,-8.61073 9.01793,-6.56873c4.95677,1.96333 4.69423,5.99114 6.93145,12.41815c1.14979,3.3031 10.58457,-1.83457 12.22244,5.56398c1.63205,7.37219 -5.5827,9.89824 -5.5827,9.89824c0,0 5.16974,4.73195 5.26034,9.71237c0.12402,6.81707 -11.82705,7.42029 -11.82705,7.42029c0,0 1.90534,8.9726 -6.54606,11.39054c-0.54719,0.15657 -7.79781,-2.64719 -8.27203,-2.64719c-0.20382,0 -2.85364,4.33654 -11.07548,3.09738c-3.68972,-0.55615 -7.15548,-10.50336 -7.15548,-10.50336c0,0 -10.94329,1.51122 -12.13613,-5.959z" fill="#f7f7f7"/></g><g><path d="M101.51917,233.41285c-1.38069,-8.64654 6.00121,-11.05336 6.00121,-11.05336c0,0 -7.96901,-8.88956 -5.15997,-14.6335c2.06572,-4.22401 11.03506,-4.74159 11.03506,-4.74159c0,0 2.56137,-13.98201 9.06272,-13.98201c6.93459,0 10.43996,8.01766 10.43996,8.01766c0,0 4.15601,-9.26506 9.70327,-7.06788c5.3335,2.11253 5.05094,6.44637 7.45819,13.36172c1.23714,3.55415 11.38889,-1.97395 13.15122,5.98689c1.75607,7.93246 -6.00692,10.65047 -6.00692,10.65047c0,0 5.56255,5.0916 5.66004,10.45041c0.13342,7.33521 -12.72577,7.98418 -12.72577,7.98418c0,0 2.05006,9.65438 -7.04355,12.2561c-0.58884,0.16843 -8.39039,-2.84842 -8.90061,-2.84842c-0.21935,0 -3.07054,4.66622 -11.91715,3.33283c-3.97001,-0.59842 -7.69929,-11.30154 -7.69929,-11.30154c0,0 -11.77483,1.62597 -13.05834,-6.41197z" fill="#ebebeb"/><path d="M106.33915,231.62067c-1.15101,-7.20818 5.00289,-9.21456 5.00289,-9.21456c0,0 -6.6433,-7.41071 -4.30159,-12.1991c1.72204,-3.52129 9.1992,-3.95287 9.1992,-3.95287c0,0 2.13525,-11.65603 7.55506,-11.65603c5.78099,0 8.70325,6.6839 8.70325,6.6839c0,0 3.46464,-7.72374 8.0891,-5.89212c4.44626,1.76111 4.21068,5.37398 6.21743,11.13894c1.03136,2.96292 9.49423,-1.64562 10.96344,4.99092c1.46398,6.61283 -5.00769,8.87861 -5.00769,8.87861c0,0 4.63723,4.24459 4.71849,8.71197c0.11124,6.11484 -10.60876,6.65595 -10.60876,6.65595c0,0 1.70908,8.04832 -5.87178,10.21723c-0.49086,0.14049 -6.99466,-2.37451 -7.42004,-2.37451c-0.1828,0 -2.55965,3.88991 -9.9346,2.7784c-3.30961,-0.49885 -6.41848,-9.42151 -6.41848,-9.42151c0,0 -9.81605,1.35557 -10.88604,-5.34523z" fill="#f7f7f7"/></g><g><path d="M258.52864,127.20508c-1.11084,-13.56922 10.61994,-16.42145 10.61994,-16.42145c0,0 -11.29576,-14.73044 -6.25692,-23.30075c3.70551,-6.30257 17.67229,-6.03684 17.67229,-6.03684c0,0 5.63584,-21.37127 15.71486,-20.59712c10.75073,0.82576 15.23044,13.67304 15.23044,13.67304c0,0 7.5464,-13.86868 15.88464,-9.8018c8.01699,3.91012 7.06278,10.59531 9.97134,21.60291c1.49475,5.65728 17.8912,-1.70411 19.67541,10.84747c1.77775,12.50678 -10.58081,15.79606 -10.58081,15.79606c0,0 8.01741,8.55595 7.5303,16.8752c-0.66667,11.38765 -20.67962,10.86252 -20.67962,10.86252c0,0 2.02855,15.21134 -12.37902,18.16192c-0.93294,0.19097 -12.66852,-5.41508 -13.45945,-5.47582c-0.34006,-0.02611 -5.31587,6.86836 -18.87201,3.74789c-6.08346,-1.40041 -10.59046,-18.43771 -10.59046,-18.43771c0,0 -18.44816,1.1187 -19.48081,-11.4954z" fill="#ebebeb"/><path d="M266.26674,124.31932c-0.92607,-11.31198 8.85331,-13.68968 8.85331,-13.68968c0,0 -9.41665,-12.27994 -5.21611,-19.42448c3.08896,-5.25401 14.73228,-5.03276 14.73228,-5.03276c0,0 4.69834,-17.81595 13.10065,-17.17061c8.96222,0.68841 12.69671,11.39846 12.69671,11.39846c0,0 6.29089,-11.56161 13.24207,-8.17129c6.68323,3.25967 5.88794,8.8328 8.31257,18.00921c1.24604,4.71616 14.91496,-1.42061 16.40234,9.04281c1.48211,10.4262 -8.82069,13.16835 -8.82069,13.16835c0,0 6.68366,7.1325 6.27762,14.06801c-0.55566,9.49314 -17.23941,9.0554 -17.23941,9.0554c0,0 1.6912,12.68093 -10.31969,15.14064c-0.77766,0.15928 -10.56098,-4.51413 -11.22039,-4.5648c-0.28343,-0.02174 -4.4315,5.72564 -15.73255,3.12423c-5.07158,-1.16753 -8.82855,-15.37045 -8.82855,-15.37045c0,0 -15.37935,0.93264 -16.24018,-9.58299z" fill="#f7f7f7"/></g><g><path d="M169.81261,95.32296c-0.49959,-6.10243 4.77606,-7.38521 4.77606,-7.38521c0,0 -5.07999,-6.62475 -2.8139,-10.47903c1.66645,-2.83442 7.9477,-2.71494 7.9477,-2.71494c0,0 2.53465,-9.61131 7.06746,-9.26315c4.8349,0.37139 6.84957,6.14919 6.84957,6.14919c0,0 3.39389,-6.23715 7.1438,-4.40816c3.6055,1.75852 3.17638,4.76506 4.48445,9.71549c0.67226,2.54429 8.04617,-0.76636 8.84858,4.87845c0.79954,5.62465 -4.75848,7.10401 -4.75848,7.10401c0,0 3.60569,3.8479 3.38664,7.58927c-0.29982,5.12132 -9.30025,4.88514 -9.30025,4.88514c0,0 0.91231,6.84103 -5.56722,8.16797c-0.41954,0.08588 -5.69738,-2.43533 -6.05311,-2.46266c-0.15295,-0.01173 -2.39067,3.08896 -8.48726,1.68555c-2.73595,-0.6298 -4.76284,-8.29199 -4.76284,-8.29199c0,0 -8.29673,0.50315 -8.76111,-5.16986z" fill="#ebebeb"/><path d="M173.29261,94.02519c-0.41647,-5.08731 3.98156,-6.15661 3.98156,-6.15661c0,0 -4.23494,-5.52269 -2.34583,-8.7358c1.38923,-2.36284 6.62554,-2.2634 6.62554,-2.2634c0,0 2.11295,-8.01232 5.89175,-7.72208c4.03058,0.30959 5.71004,5.12619 5.71004,5.12619c0,0 2.8292,-5.19959 5.95533,-3.67486c3.00567,1.46594 2.64798,3.97234 3.73844,8.0993c0.5604,2.12101 6.70774,-0.6389 7.37661,4.06681c0.66654,4.68894 -3.96693,5.92221 -3.96693,5.92221c0,0 3.00579,3.20771 2.82324,6.32677c-0.24989,4.26934 -7.75303,4.07247 -7.75303,4.07247c0,0 0.76052,5.70297 -4.64109,6.80921c-0.3497,0.07162 -4.74958,-2.0301 -5.04614,-2.05288c-0.12746,-0.00982 -1.99299,2.57495 -7.07538,1.40501c-2.28084,-0.52507 -3.97049,-6.91253 -3.97049,-6.91253c0,0 -6.91653,0.41949 -7.30364,-4.3097z" fill="#f7f7f7"/></g><g><path d="M222.98897,52.45331c-1.47603,-9.66949 6.78858,-12.30143 6.78858,-12.30143c0,0 -8.83377,-9.99136 -5.65182,-16.38626c2.33999,-4.70271 12.3633,-5.21205 12.3633,-5.21205c0,0 2.96845,-15.59925 10.23086,-15.54943c7.74647,0.05319 11.6008,9.03643 11.6008,9.03643c0,0 4.71364,-10.31784 10.89348,-7.82085c5.94175,2.40075 5.59279,7.23981 8.22891,14.98326c1.35476,3.97971 12.73732,-2.11775 14.64493,6.78858c1.90079,8.87457 -6.79183,11.85124 -6.79183,11.85124c0,0 6.17479,5.73037 6.24249,11.71721c0.09276,8.195 -14.27692,8.82136 -14.27692,8.82136c0,0 2.21603,10.80042 -7.96207,13.63698c-0.65911,0.1836 -9.35093,-3.24628 -9.92078,-3.25015c-0.24503,-0.00166 -3.46575,5.18896 -13.33783,3.63167c-4.43022,-0.69885 -8.51406,-12.68375 -8.51406,-12.68375c0,0 -13.16583,1.72609 -14.53792,-7.26273z" fill="#ebebeb"/><path d="M228.39035,49.99734c-1.23049,-8.06096 5.65931,-10.255 5.65931,-10.255c0,0 -7.3642,-8.32928 -4.71167,-13.66026c1.9506,-3.92031 10.30654,-4.34514 10.30654,-4.34514c0,0 2.47464,-13.00415 8.52898,-12.96263c6.45773,0.04435 9.6709,7.53318 9.6709,7.53318c0,0 3.92941,-8.60146 9.0812,-6.51989c4.9532,2.00134 4.66247,6.03548 6.86001,12.49076c1.12932,3.31766 10.61841,-1.76547 12.20868,5.65919c1.58462,7.39823 -5.66201,9.87975 -5.66201,9.87975c0,0 5.14756,4.77703 5.20407,9.76807c0.0774,6.83164 -11.90186,7.35383 -11.90186,7.35383c0,0 1.84747,9.00374 -6.63753,11.36842c-0.5494,0.15313 -7.79529,-2.70615 -8.27043,-2.70941c-0.20424,-0.00141 -2.8892,4.32561 -11.11904,3.02741c-3.69334,-0.58269 -7.09761,-10.57369 -7.09761,-10.57369c0,0 -10.97573,1.43898 -12.11956,-6.05447z" fill="#f7f7f7"/></g><g><path d="M174.95352,249.21697c-1.49064,-9.33527 6.47917,-11.93374 6.47917,-11.93374c0,0 -8.60368,-9.59756 -5.57091,-15.79895c2.23022,-4.56039 11.91383,-5.11924 11.91383,-5.11924c0,0 2.76537,-15.09556 9.78448,-15.09556c7.48688,0 11.2715,8.65626 11.2715,8.65626c0,0 4.48704,-10.00297 10.47608,-7.63079c5.75833,2.28077 5.45322,6.95983 8.05225,14.42594c1.33566,3.83721 12.29591,-2.1312 14.1986,6.46369c1.89594,8.56424 -6.48537,11.49871 -6.48537,11.49871c0,0 6.00569,5.49714 6.11086,11.28273c0.14405,7.91938 -13.73932,8.62008 -13.73932,8.62008c0,0 2.21333,10.42331 -7.6045,13.23223c-0.63576,0.18189 -9.05872,-3.07527 -9.60947,-3.07527c-0.23681,0 -3.31507,5.03785 -12.8662,3.59832c-4.28624,-0.64602 -8.31251,-12.20168 -8.31251,-12.20168c0,0 -12.71263,1.75552 -14.09835,-6.9226z" fill="#ebebeb"/><path d="M180.15729,246.80756c-1.24266,-7.78228 5.40131,-9.94849 5.40131,-9.94849c0,0 -7.17242,-8.00095 -4.64417,-13.17068c1.8592,-3.80176 9.9319,-4.26769 9.9319,-4.26769c0,0 2.30528,-12.58431 8.15679,-12.58431c6.24144,0 9.39638,7.21623 9.39638,7.21623c0,0 3.74058,-8.33892 8.73334,-6.36135c4.80032,1.90134 4.54607,5.802 6.71266,12.02613c1.11348,3.19886 10.25047,-1.77665 11.83662,5.38842c1.58051,7.1395 -5.40653,9.58576 -5.40653,9.58576c0,0 5.00659,4.58262 5.09431,9.40578c0.12009,6.6019 -11.45369,7.18607 -11.45369,7.18607c0,0 1.84513,8.68937 -6.33942,11.03095c-0.52993,0.15166 -7.55168,-2.56365 -8.01096,-2.56365c-0.19737,0 -2.76359,4.19975 -10.72584,2.99966c-3.5732,-0.53859 -6.92967,-10.17183 -6.92967,-10.17183c0,0 -10.5979,1.46349 -11.75302,-5.77098z" fill="#f7f7f7"/></g><path d="M158.63349,151.99028c3.5062,-0.91267 8.24883,0.01548 11.93271,-0.40572c2.07435,-0.23717 7.82757,1.46051 11.9236,1.82314c7.72815,0.6842 5.44626,5.91808 0.56426,6.47058c-7.32308,0.82876 -14.72919,0.20406 -16.14089,0.82897c-2.1929,0.97071 -10.1904,0.52073 -15.71956,0.76219c-5.09234,0.22238 -8.01662,-4.25352 -8.34333,-5.30181c-0.50023,-1.60504 13.01277,-3.4562 15.7832,-4.17735z" data-paper-data="{&quot;index&quot;:null}" fill="url(#color-1)"/><path d="M239.78833,93.6595c1.46995,-3.09643 3.99475,-10.07819 7.07297,-15.37886c5.80781,-10.00098 5.69195,2.77417 2.23122,10.05605c-5.19117,10.92297 -8.95041,14.23754 -9.85281,16.79862c-1.40177,3.97831 -0.75744,11.88051 -4.75817,19.75146c-3.68466,7.24912 -8.57367,5.70467 -9.03466,5.12943c-0.70583,-0.88075 3.50519,-12.85164 5.38293,-17.38304c0,0 6.34802,-13.47466 8.95853,-18.97366z" data-paper-data="{&quot;index&quot;:null}" fill="url(#color-2)"/><path d="M137.84681,124.74007c1.75913,-0.26178 4.02531,0.43969 5.84542,0.4271c1.02488,-0.00709 3.744,1.12292 5.72421,1.51449c3.73615,0.73881 2.3482,2.27384 -0.06357,2.28775c-3.6177,0.02087 -7.19978,-0.67203 -7.92155,-0.44098c-1.12117,0.35891 -5.00105,-0.27969 -7.7124,-0.4515c-2.49714,-0.15823 -3.68996,-1.59605 -3.7945,-2.12482c-0.16007,-0.8096 6.5324,-1.00521 7.92238,-1.21205z" data-paper-data="{&quot;index&quot;:null}" fill="url(#color-3)"/><path d="M287.67551,198.06538c0.51558,1.2211 -7.97555,5.97261 -18.96546,10.61279c-10.98991,4.64018 -20.31695,7.4119 -20.83252,6.1908c-0.51558,-1.2211 7.97555,-5.97261 18.96546,-10.61279c10.98991,-4.64018 20.31695,-7.4119 20.83252,-6.1908z" fill="#ffffff"/><path d="M-1.14634,384.65198v-409.30375h482.29271v409.30375z" fill="none"/><path d="M-1.14634,384.65199v-409.30375h482.29271v409.30375z" fill="none"/></g></g></svg>