<svg version="1.1" xmlns="http://www.w3.org/2000/svg" xmlns:xlink="http://www.w3.org/1999/xlink" width="219.12333" height="177.85984" viewBox="0,0,219.12333,177.85984"><defs><linearGradient x1="442.5527" y1="-731.35545" x2="442.5527" y2="3671.18122" gradientUnits="userSpaceOnUse" id="color-1"><stop offset="0" stop-color="#000000" stop-opacity="0"/><stop offset="1" stop-color="#000000"/></linearGradient><linearGradient x1="241.294" y1="215.73193" x2="241.294" y2="229.31301" gradientUnits="userSpaceOnUse" id="color-2"><stop offset="0" stop-color="#ff8c00"/><stop offset="1" stop-color="#ff8c00" stop-opacity="0"/></linearGradient><radialGradient cx="240" cy="180" r="0" gradientUnits="userSpaceOnUse" id="color-3"><stop offset="0" stop-color="#f07070"/><stop offset="1" stop-color="#cf5555"/></radialGradient><radialGradient cx="240" cy="180" r="0" gradientUnits="userSpaceOnUse" id="color-4"><stop offset="0" stop-color="#ff9d9d"/><stop offset="1" stop-color="#ff9d9d" stop-opacity="0"/></radialGradient><radialGradient cx="240" cy="180" r="0" gradientUnits="userSpaceOnUse" id="color-5"><stop offset="0" stop-color="#ff9d9d"/><stop offset="1" stop-color="#ff9d9d" stop-opacity="0"/></radialGradient><radialGradient cx="240" cy="180" r="0" gradientUnits="userSpaceOnUse" id="color-6"><stop offset="0" stop-color="#f7f7f7"/><stop offset="1" stop-color="#cecece"/></radialGradient><radialGradient cx="240" cy="180" r="0" gradientUnits="userSpaceOnUse" id="color-7"><stop offset="0" stop-color="#f7f7f7"/><stop offset="1" stop-color="#f7f7f7" stop-opacity="0"/></radialGradient><radialGradient cx="240" cy="180" r="0" gradientUnits="userSpaceOnUse" id="color-8"><stop offset="0" stop-color="#f07070"/><stop offset="1" stop-color="#cf5555"/></radialGradient><radialGradient cx="240" cy="180" r="0" gradientUnits="userSpaceOnUse" id="color-9"><stop offset="0" stop-color="#ff9d9d"/><stop offset="1" stop-color="#ff9d9d" stop-opacity="0"/></radialGradient><radialGradient cx="240" cy="180" r="0" gradientUnits="userSpaceOnUse" id="color-10"><stop offset="0" stop-color="#ff9d9d"/><stop offset="1" stop-color="#ff9d9d" stop-opacity="0"/></radialGradient><radialGradient cx="240" cy="180" r="0" gradientUnits="userSpaceOnUse" id="color-11"><stop offset="0" stop-color="#f07070"/><stop offset="1" stop-color="#cf5555"/></radialGradient><radialGradient cx="240" cy="180" r="0" gradientUnits="userSpaceOnUse" id="color-12"><stop offset="0" stop-color="#ff9d9d"/><stop offset="1" stop-color="#ff9d9d" stop-opacity="0"/></radialGradient><radialGradient cx="240" cy="180" r="0" gradientUnits="userSpaceOnUse" id="color-13"><stop offset="0" stop-color="#ff9d9d"/><stop offset="1" stop-color="#ff9d9d" stop-opacity="0"/></radialGradient><radialGradient cx="240" cy="180" r="0" gradientUnits="userSpaceOnUse" id="color-14"><stop offset="0" stop-color="#f7f7f7"/><stop offset="1" stop-color="#cecece"/></radialGradient><radialGradient cx="240" cy="180" r="0" gradientUnits="userSpaceOnUse" id="color-15"><stop offset="0" stop-color="#f7f7f7"/><stop offset="1" stop-color="#f7f7f7" stop-opacity="0"/></radialGradient><radialGradient cx="240" cy="180" r="0" gradientUnits="userSpaceOnUse" id="color-16"><stop offset="0" stop-color="#f7f7f7"/><stop offset="1" stop-color="#cecece"/></radialGradient><radialGradient cx="240" cy="180" r="0" gradientUnits="userSpaceOnUse" id="color-17"><stop offset="0" stop-color="#f7f7f7"/><stop offset="1" stop-color="#f7f7f7" stop-opacity="0"/></radialGradient><radialGradient cx="240" cy="180" r="0" gradientUnits="userSpaceOnUse" id="color-18"><stop offset="0" stop-color="#f7f7f7"/><stop offset="1" stop-color="#cecece"/></radialGradient><radialGradient cx="240" cy="180" r="0" gradientUnits="userSpaceOnUse" id="color-19"><stop offset="0" stop-color="#f7f7f7"/><stop offset="1" stop-color="#f7f7f7" stop-opacity="0"/></radialGradient><radialGradient cx="240" cy="180" r="0" gradientUnits="userSpaceOnUse" id="color-20"><stop offset="0" stop-color="#f07070"/><stop offset="1" stop-color="#cf5555"/></radialGradient><radialGradient cx="240" cy="180" r="0" gradientUnits="userSpaceOnUse" id="color-21"><stop offset="0" stop-color="#ff9d9d"/><stop offset="1" stop-color="#ff9d9d" stop-opacity="0"/></radialGradient><radialGradient cx="240" cy="180" r="0" gradientUnits="userSpaceOnUse" id="color-22"><stop offset="0" stop-color="#ff9d9d"/><stop offset="1" stop-color="#ff9d9d" stop-opacity="0"/></radialGradient><radialGradient cx="240" cy="180" r="0" gradientUnits="userSpaceOnUse" id="color-23"><stop offset="0" stop-color="#f7f7f7"/><stop offset="1" stop-color="#cecece"/></radialGradient><radialGradient cx="240" cy="180" r="0" gradientUnits="userSpaceOnUse" id="color-24"><stop offset="0" stop-color="#f7f7f7"/><stop offset="1" stop-color="#f7f7f7" stop-opacity="0"/></radialGradient><radialGradient cx="240" cy="180" r="0" gradientUnits="userSpaceOnUse" id="color-25"><stop offset="0" stop-color="#f07070"/><stop offset="1" stop-color="#cf5555"/></radialGradient><radialGradient cx="240" cy="180" r="0" gradientUnits="userSpaceOnUse" id="color-26"><stop offset="0" stop-color="#ff9d9d"/><stop offset="1" stop-color="#ff9d9d" stop-opacity="0"/></radialGradient><radialGradient cx="240" cy="180" r="0" gradientUnits="userSpaceOnUse" id="color-27"><stop offset="0" stop-color="#ff9d9d"/><stop offset="1" stop-color="#ff9d9d" stop-opacity="0"/></radialGradient><radialGradient cx="240" cy="180" r="0" gradientUnits="userSpaceOnUse" id="color-28"><stop offset="0" stop-color="#f07070"/><stop offset="1" stop-color="#cf5555"/></radialGradient><radialGradient cx="240" cy="180" r="0" gradientUnits="userSpaceOnUse" id="color-29"><stop offset="0" stop-color="#ff9d9d"/><stop offset="1" stop-color="#ff9d9d" stop-opacity="0"/></radialGradient><radialGradient cx="240" cy="180" r="0" gradientUnits="userSpaceOnUse" id="color-30"><stop offset="0" stop-color="#ff9d9d"/><stop offset="1" stop-color="#ff9d9d" stop-opacity="0"/></radialGradient><radialGradient cx="240" cy="180" r="0" gradientUnits="userSpaceOnUse" id="color-31"><stop offset="0" stop-color="#f7f7f7"/><stop offset="1" stop-color="#cecece"/></radialGradient><radialGradient cx="240" cy="180" r="0" gradientUnits="userSpaceOnUse" id="color-32"><stop offset="0" stop-color="#f7f7f7"/><stop offset="1" stop-color="#f7f7f7" stop-opacity="0"/></radialGradient><radialGradient cx="240" cy="180" r="0" gradientUnits="userSpaceOnUse" id="color-33"><stop offset="0" stop-color="#f7f7f7"/><stop offset="1" stop-color="#cecece"/></radialGradient><radialGradient cx="240" cy="180" r="0" gradientUnits="userSpaceOnUse" id="color-34"><stop offset="0" stop-color="#f7f7f7"/><stop offset="1" stop-color="#f7f7f7" stop-opacity="0"/></radialGradient><radialGradient cx="240" cy="180" r="0" gradientUnits="userSpaceOnUse" id="color-35"><stop offset="0" stop-color="#f7f7f7"/><stop offset="1" stop-color="#cecece"/></radialGradient><radialGradient cx="240" cy="180" r="0" gradientUnits="userSpaceOnUse" id="color-36"><stop offset="0" stop-color="#f7f7f7"/><stop offset="1" stop-color="#f7f7f7" stop-opacity="0"/></radialGradient><radialGradient cx="240" cy="180" r="0" gradientUnits="userSpaceOnUse" id="color-37"><stop offset="0" stop-color="#f07070"/><stop offset="1" stop-color="#cf5555"/></radialGradient><radialGradient cx="240" cy="180" r="0" gradientUnits="userSpaceOnUse" id="color-38"><stop offset="0" stop-color="#ff9d9d"/><stop offset="1" stop-color="#ff9d9d" stop-opacity="0"/></radialGradient><radialGradient cx="240" cy="180" r="0" gradientUnits="userSpaceOnUse" id="color-39"><stop offset="0" stop-color="#ff9d9d"/><stop offset="1" stop-color="#ff9d9d" stop-opacity="0"/></radialGradient><radialGradient cx="240" cy="180" r="0" gradientUnits="userSpaceOnUse" id="color-40"><stop offset="0" stop-color="#f07070"/><stop offset="1" stop-color="#cf5555"/></radialGradient><radialGradient cx="240" cy="180" r="0" gradientUnits="userSpaceOnUse" id="color-41"><stop offset="0" stop-color="#ff9d9d"/><stop offset="1" stop-color="#ff9d9d" stop-opacity="0"/></radialGradient><radialGradient cx="240" cy="180" r="0" gradientUnits="userSpaceOnUse" id="color-42"><stop offset="0" stop-color="#ff9d9d"/><stop offset="1" stop-color="#ff9d9d" stop-opacity="0"/></radialGradient><linearGradient x1="240" y1="180" x2="240" y2="180" gradientUnits="userSpaceOnUse" id="color-43"><stop offset="0" stop-color="#3a3a3a"/><stop offset="1" stop-color="#4e4e4e"/></linearGradient><linearGradient x1="240" y1="180" x2="240" y2="180" gradientUnits="userSpaceOnUse" id="color-44"><stop offset="0" stop-color="#3a3a3a"/><stop offset="1" stop-color="#4e4e4e"/></linearGradient><linearGradient x1="239.98832" y1="208.65229" x2="239.98832" y2="232.63709" gradientUnits="userSpaceOnUse" id="color-45"><stop offset="0" stop-color="#f7f2e9"/><stop offset="1" stop-color="#cfcac2"/></linearGradient><linearGradient x1="210.39909" y1="224.30554" x2="222.17052" y2="224.30554" gradientUnits="userSpaceOnUse" id="color-46"><stop offset="0" stop-color="#ff0000"/><stop offset="1" stop-color="#d50004"/></linearGradient><linearGradient x1="260.22276" y1="224.72927" x2="271.99418" y2="224.72927" gradientUnits="userSpaceOnUse" id="color-47"><stop offset="0" stop-color="#ff0000"/><stop offset="1" stop-color="#d50004"/></linearGradient><linearGradient x1="240.7838" y1="145.47591" x2="240.7838" y2="131.89483" gradientUnits="userSpaceOnUse" id="color-48"><stop offset="0" stop-color="#ff8c00"/><stop offset="1" stop-color="#ff8c00" stop-opacity="0"/></linearGradient><linearGradient x1="239.47812" y1="152.55555" x2="239.47812" y2="128.57074" gradientUnits="userSpaceOnUse" id="color-49"><stop offset="0" stop-color="#f7f2e9"/><stop offset="1" stop-color="#cfcac2"/></linearGradient><linearGradient x1="209.88889" y1="136.9023" x2="221.66032" y2="136.9023" gradientUnits="userSpaceOnUse" id="color-50"><stop offset="0" stop-color="#ff0000"/><stop offset="1" stop-color="#d50004"/></linearGradient><linearGradient x1="259.71256" y1="136.47857" x2="271.48398" y2="136.47857" gradientUnits="userSpaceOnUse" id="color-51"><stop offset="0" stop-color="#ff0000"/><stop offset="1" stop-color="#d50004"/></linearGradient></defs><g transform="translate(-137.11858,-99.36437)"><g data-paper-data="{&quot;isPaintingLayer&quot;:true}" fill-rule="nonzero" stroke-linejoin="miter" stroke-miterlimit="10" stroke-dasharray="" stroke-dashoffset="0" style="mix-blend-mode: normal"><path d="M330.73218,152.62135c-0.04117,11.30045 -0.2174,59.66703 -0.30603,83.9916c-0.03103,8.51612 -3.44899,14.07308 -9.33188,14.05295c-33.378,-0.11419 -104.64315,-0.4815 -131.37009,-0.29841c-4.07738,0.02793 -15.03799,-15.21304 -14.32858,-21.44758c0.58729,-5.16121 113.4285,-85.3842 113.4285,-85.3842c0,0 20.54492,0.00033 33.27205,0.00039c4.31587,0.00002 8.65295,4.44173 8.63603,9.08525z" fill="url(#color-1)" stroke="none" stroke-width="0" stroke-linecap="butt"/><path d="M160.45833,213.33333v-65.5h6.75v65.5z" fill="#d90004" stroke="none" stroke-width="0" stroke-linecap="butt"/><path d="M203.78231,234.18098v-20.79767h73.60445v20.79767z" fill="#8b5625" stroke="none" stroke-width="0" stroke-linecap="butt"/><path d="M219.93976,234.02567v-1.32812h43.5v1.32813z" fill="#be7e42" stroke="none" stroke-width="0" stroke-linecap="butt"/><path d="M216.26022,229.31301v-13.58108h50.06755v13.58108z" fill="url(#color-2)" stroke="none" stroke-width="0" stroke-linecap="butt"/><path d="M170.86679,221.56485l0.30405,2.22973l-10.23035,-6.90434l1.00955,-0.89822z" fill="#d90004" stroke="none" stroke-width="0" stroke-linecap="butt"/><g stroke-width="0" stroke-linecap="butt"><g><path d="" fill="url(#color-3)" stroke="#bfbfbf"/><path d="" fill="url(#color-4)" stroke="none"/><path d="" fill="#a3a3a3" stroke="none"/><path d="" fill="url(#color-5)" stroke="none"/><path d="" fill="#323232" stroke="none"/></g><g><path d="" fill="url(#color-6)" stroke="#bfbfbf"/><path d="" fill="url(#color-7)" stroke="none"/><path d="" fill="#a3a3a3" stroke="none"/><path d="" fill="#323232" stroke="none"/></g><g><path d="" fill="url(#color-8)" stroke="#bfbfbf"/><path d="" fill="url(#color-9)" stroke="none"/><path d="" fill="#a3a3a3" stroke="none"/><path d="" fill="url(#color-10)" stroke="none"/><path d="" fill="#323232" stroke="none"/></g><g><path d="" fill="url(#color-11)" stroke="#bfbfbf"/><path d="" fill="url(#color-12)" stroke="none"/><path d="" fill="#a3a3a3" stroke="none"/><path d="" fill="url(#color-13)" stroke="none"/><path d="" fill="#323232" stroke="none"/></g><g><path d="" fill="url(#color-14)" stroke="#bfbfbf"/><path d="" fill="url(#color-15)" stroke="none"/><path d="" fill="#a3a3a3" stroke="none"/><path d="" fill="#323232" stroke="none"/></g><g><path d="" fill="url(#color-16)" stroke="#bfbfbf"/><path d="" fill="url(#color-17)" stroke="none"/><path d="" fill="#a3a3a3" stroke="none"/><path d="" fill="#323232" stroke="none"/></g><g><path d="" fill="url(#color-18)" stroke="#bfbfbf"/><path d="" fill="url(#color-19)" stroke="none"/><path d="" fill="#a3a3a3" stroke="none"/><path d="" fill="#323232" stroke="none"/></g><g><path d="" fill="url(#color-20)" stroke="#bfbfbf"/><path d="" fill="url(#color-21)" stroke="none"/><path d="" fill="#a3a3a3" stroke="none"/><path d="" fill="url(#color-22)" stroke="none"/><path d="" fill="#323232" stroke="none"/></g><g><path d="" fill="url(#color-23)" stroke="#bfbfbf"/><path d="" fill="url(#color-24)" stroke="none"/><path d="" fill="#a3a3a3" stroke="none"/><path d="" fill="#323232" stroke="none"/></g><g><path d="" fill="url(#color-25)" stroke="#bfbfbf"/><path d="" fill="url(#color-26)" stroke="none"/><path d="" fill="#a3a3a3" stroke="none"/><path d="" fill="url(#color-27)" stroke="none"/><path d="" fill="#323232" stroke="none"/></g><g><path d="" fill="url(#color-28)" stroke="#bfbfbf"/><path d="" fill="url(#color-29)" stroke="none"/><path d="" fill="#a3a3a3" stroke="none"/><path d="" fill="url(#color-30)" stroke="none"/><path d="" fill="#323232" stroke="none"/></g><g><path d="" fill="url(#color-31)" stroke="#bfbfbf"/><path d="" fill="url(#color-32)" stroke="none"/><path d="" fill="#a3a3a3" stroke="none"/><path d="" fill="#323232" stroke="none"/></g><g><path d="" fill="url(#color-33)" stroke="#bfbfbf"/><path d="" fill="url(#color-34)" stroke="none"/><path d="" fill="#a3a3a3" stroke="none"/><path d="" fill="#323232" stroke="none"/></g><g><path d="" fill="url(#color-35)" stroke="#bfbfbf"/><path d="" fill="url(#color-36)" stroke="none"/><path d="" fill="#a3a3a3" stroke="none"/><path d="" fill="#323232" stroke="none"/></g><g><path d="" fill="url(#color-37)" stroke="#bfbfbf"/><path d="" fill="url(#color-38)" stroke="none"/><path d="" fill="#a3a3a3" stroke="none"/><path d="" fill="url(#color-39)" stroke="none"/><path d="" fill="#323232" stroke="none"/></g><g><path d="" fill="url(#color-40)" stroke="#bfbfbf"/><path d="" fill="url(#color-41)" stroke="none"/><path d="" fill="#a3a3a3" stroke="none"/><path d="" fill="url(#color-42)" stroke="none"/><path d="" fill="#323232" stroke="none"/></g></g><g stroke="none" stroke-width="0" stroke-linecap="butt"><g><path d="" fill="url(#color-43)"/><path d="" fill="#363636"/><path d="" fill="#363636"/><path d="" fill="#363636"/><path d="" fill="#e4e4e4"/><path d="" fill="#dedede"/><path d="" data-paper-data="{&quot;index&quot;:null}" fill="#e4e4e4"/><path d="" data-paper-data="{&quot;index&quot;:null}" fill="#dedede"/><path d="" fill="#363636"/><path d="" data-paper-data="{&quot;index&quot;:null}" fill="#363636"/><path d="" fill="#363636"/><path d="" fill="#363636"/><path d="" fill="#363636"/><path d="" fill="#363636"/><path d="" fill="#2d2d2d"/><path d="" fill="#2d2d2d"/><path d="" fill="#2d2d2d"/><path d="" data-paper-data="{&quot;index&quot;:null}" fill="#2d2d2d"/><path d="" data-paper-data="{&quot;index&quot;:null}" fill="#2d2d2d"/><path d="" data-paper-data="{&quot;index&quot;:null}" fill="#2d2d2d"/><path d="" fill="#cacaca"/><path d="" fill="#b7b7b7"/><path d="" data-paper-data="{&quot;index&quot;:null}" fill="#cacaca"/><path d="" data-paper-data="{&quot;index&quot;:null}" fill="#b7b7b7"/><path d="" fill="#363636"/><path d="" fill="#363636"/><path d="" fill="#363636"/><path d="" fill="#2d2d2d"/><path d="" fill="#2d2d2d"/><path d="" fill="#363636"/></g><g data-paper-data="{&quot;index&quot;:null}"><path d="" fill="url(#color-44)"/><path d="" fill="#363636"/><path d="" fill="#363636"/><path d="" fill="#363636"/><path d="" fill="#e4e4e4"/><path d="" fill="#dedede"/><path d="" data-paper-data="{&quot;index&quot;:null}" fill="#e4e4e4"/><path d="" data-paper-data="{&quot;index&quot;:null}" fill="#dedede"/><path d="" fill="#363636"/><path d="" data-paper-data="{&quot;index&quot;:null}" fill="#363636"/><path d="" fill="#363636"/><path d="" fill="#363636"/><path d="" fill="#363636"/><path d="" fill="#363636"/><path d="" fill="#2d2d2d"/><path d="" fill="#2d2d2d"/><path d="" fill="#2d2d2d"/><path d="" data-paper-data="{&quot;index&quot;:null}" fill="#2d2d2d"/><path d="" data-paper-data="{&quot;index&quot;:null}" fill="#2d2d2d"/><path d="" data-paper-data="{&quot;index&quot;:null}" fill="#2d2d2d"/><path d="" fill="#cacaca"/><path d="" fill="#b7b7b7"/><path d="" data-paper-data="{&quot;index&quot;:null}" fill="#cacaca"/><path d="" data-paper-data="{&quot;index&quot;:null}" fill="#b7b7b7"/><path d="" fill="#363636"/><path d="" fill="#363636"/><path d="" fill="#363636"/><path d="" fill="#2d2d2d"/><path d="" fill="#2d2d2d"/><path d="" fill="#363636"/></g><path d="" fill="#626262"/><path d="" data-paper-data="{&quot;index&quot;:null}" fill="#ededed"/><path d="" fill="#ededed"/><path d="" fill="#d2d2d2"/><path d="" data-paper-data="{&quot;index&quot;:null}" fill="#d2d2d2"/></g><path d="" fill="none" stroke="none" stroke-width="0" stroke-linecap="butt"/><path d="" fill="none" stroke="none" stroke-width="0" stroke-linecap="butt"/><path d="M176.24055,231.88709l-13.2869,-23.21258l154.06936,-0.02222l-10.9807,23.9848l-42.75333,-0.24703l-0.99404,-16.5281l-42.41068,-0.30645l-3.50953,16.56348z" fill="url(#color-45)" stroke="none" stroke-width="0" stroke-linecap="butt"/><path d="M304.89396,231.76848l10.07387,-22.86083l2.22973,0.25423l-10.07386,22.6066z" data-paper-data="{&quot;index&quot;:null}" fill="#c70003" stroke="none" stroke-width="0" stroke-linecap="butt"/><path d="M175.42761,231.69999l-13.09354,-23.00928l2.30185,-0.28846l13.02143,23.29774z" fill="#c70003" stroke="none" stroke-width="0" stroke-linecap="butt"/><path d="M162.82367,208.86364v-53.19697l3.843,-4.80303h150.44079v58z" fill="#f6f1e8" stroke="none" stroke-width="0" stroke-linecap="butt"/><path d="M263.09207,236.57619v-4.49017h43.77764l-2.45251,4.49017z" data-paper-data="{&quot;index&quot;:null}" fill="#c0c0c0" stroke="none" stroke-width="0" stroke-linecap="butt"/><path d="M269.17514,232.24635v-0.81082h37.7027v0.81082z" data-paper-data="{&quot;index&quot;:null}" fill="#d90004" stroke="none" stroke-width="0" stroke-linecap="butt"/><path d="M315.31667,213.95v-67h4.6v67z" fill="#d90004" stroke="none" stroke-width="NaN" stroke-linecap="butt"/><path d="M177.6662,236.18334l-2.45251,-4.49017h43.77764v4.49017z" fill="#c0c0c0" stroke="none" stroke-width="0" stroke-linecap="butt"/><path d="M212.82766,231.56413l-1.66586,-16.62857h10.246l-1.38014,16.62857c0,0 -0.00383,2.13966 -3.82223,2.11112c-2.89773,-0.02166 -3.37777,-2.11112 -3.37777,-2.11112z" fill="url(#color-46)" stroke="none" stroke-width="0" stroke-linecap="butt"/><path d="M262.65133,231.98786l-1.66586,-16.62857h10.24601l-1.38015,16.62857c0,0 -0.00382,2.13965 -3.82222,2.11111c-2.89772,-0.02166 -3.37778,-2.11111 -3.37778,-2.11111z" fill="url(#color-47)" stroke="none" stroke-width="0" stroke-linecap="butt"/><g stroke="#d60000" stroke-width="1"><path d="M182.40769,229.22654l-4.83483,-9.93825h26.49353l1.47731,9.80395z" fill="#ff8c00" stroke-linecap="butt"/><path d="M186.63019,228.66886l-3.6375,-9.13245" fill="none" stroke-linecap="round"/><path d="M188.48764,219.30423l2.55399,9.51941" fill="none" stroke-linecap="round"/><path d="M195.29827,228.74625l-1.93484,-9.13245" fill="none" stroke-linecap="round"/><path d="M198.47141,219.69119l1.70266,8.90027" fill="none" stroke-linecap="round"/><path d="M179.74215,222.55476h24.7304" fill="none" stroke-linecap="round"/><path d="M204.90763,225.96008h-23.84978" fill="none" stroke-linecap="round"/></g><path d="M160.81617,216.9601v-1.79572h159.11244v1.79572z" fill="#c70003" stroke="none" stroke-width="0" stroke-linecap="butt"/><path d="M160.50096,215.46991v-2.39429h159.43637v2.39429z" fill="#d90004" stroke="none" stroke-width="0" stroke-linecap="butt"/><path d="M175.20556,231.8535v-0.81082h37.7027v0.81082z" fill="#d90004" stroke="none" stroke-width="0" stroke-linecap="butt"/><path d="M212.7032,236.01333l-0.45732,-4.43346c0,0 2.06696,1.04975 4.07565,0.90659c2.05097,-0.14617 4.28571,-0.90659 4.28571,-0.90659l-0.7317,4.25054c0,0 -0.87402,1.26976 -3.5721,1.34582c-2.03171,0.05727 -3.60024,-1.16289 -3.60024,-1.16289z" fill="#a7a7a7" stroke="none" stroke-width="0" stroke-linecap="butt"/><path d="M262.51686,236.44812l-0.45732,-4.43346c0,0 2.06696,1.04975 4.07565,0.90659c2.05097,-0.14617 4.28572,-0.90659 4.28572,-0.90659l-0.73171,4.25053c0,0 -0.87402,1.26977 -3.5721,1.34582c-2.03172,0.05727 -3.60024,-1.16289 -3.60024,-1.16289z" fill="#a7a7a7" stroke="none" stroke-width="0" stroke-linecap="butt"/><path d="M319.05341,216.07744l1.00955,0.89822l-9.92629,7.4111l0.30405,-2.22973z" data-paper-data="{&quot;index&quot;:null}" fill="#d90004" stroke="none" stroke-width="0" stroke-linecap="butt"/><path d="M176.74068,218.94046l0.17143,-0.94286h27.6v0.94286z" fill="#ff0000" stroke="none" stroke-width="0" stroke-linecap="butt"/><g data-paper-data="{&quot;index&quot;:null}" stroke="#d60000" stroke-width="1"><path d="M275.74066,229.09224l1.47731,-9.80394h26.49352l-4.83482,9.93825z" fill="#ff8c00" stroke-linecap="butt"/><path d="M294.65416,228.66885l3.6375,-9.13244" fill="none" stroke-linecap="round"/><path d="M290.24274,228.82364l2.55399,-9.51941" fill="none" stroke-linecap="round"/><path d="M285.98609,228.74625l1.93484,-9.13244" fill="none" stroke-linecap="round"/><path d="M281.11028,228.59146l1.70266,-8.90027" fill="none" stroke-linecap="round"/><path d="M301.54221,222.55476h-24.7304" fill="none" stroke-linecap="round"/><path d="M300.22652,225.96008h-23.84978" fill="none" stroke-linecap="round"/></g><path d="M276.77225,218.94046v-0.94286h27.59999l0.17142,0.94286z" data-paper-data="{&quot;index&quot;:null}" fill="#ff0000" stroke="none" stroke-width="0" stroke-linecap="butt"/><path d="M173.53513,213.23922l-2.57576,-9.69697h2.27273l2.57575,9.69697z" fill="#c70003" stroke="none" stroke-width="0" stroke-linecap="butt"/><path d="M187.92907,213.0877l-2.27273,-9.69697h2.27273l2.27272,9.69697z" fill="#c70003" stroke="none" stroke-width="0" stroke-linecap="butt"/><path d="M201.86846,213.23922l-1.51515,-9.69697h2.27273l1.51515,9.69697z" fill="#c70003" stroke="none" stroke-width="0" stroke-linecap="butt"/><path d="M215.97559,213.23922l-0.80086,-9.69697h4.77272l0.80086,9.69697z" fill="#c70003" stroke="none" stroke-width="0" stroke-linecap="butt"/><path d="M230.2613,213.23922l-0.26515,-9.69697h2.27272l0.26515,9.69697z" fill="#c70003" stroke="none" stroke-width="0" stroke-linecap="butt"/><path d="M301.78999,213.23922l2.57575,-9.69697h2.27273l-2.57576,9.69697z" data-paper-data="{&quot;index&quot;:null}" fill="#c70003" stroke="none" stroke-width="0" stroke-linecap="butt"/><path d="M287.39605,213.0877l2.27272,-9.69697h2.27273l-2.27273,9.69697z" data-paper-data="{&quot;index&quot;:null}" fill="#c70003" stroke="none" stroke-width="0" stroke-linecap="butt"/><path d="M273.45664,213.23922l1.51515,-9.69697h2.27273l-1.51515,9.69697z" data-paper-data="{&quot;index&quot;:null}" fill="#c70003" stroke="none" stroke-width="0" stroke-linecap="butt"/><path d="M259.34953,213.23922l0.80086,-9.69697h4.58041l-0.80086,9.69697z" data-paper-data="{&quot;index&quot;:null}" fill="#c70003" stroke="none" stroke-width="0" stroke-linecap="butt"/><path d="M245.06381,213.23922l0.26515,-9.69697h2.27272l-0.26514,9.69697z" data-paper-data="{&quot;index&quot;:null}" fill="#c70003" stroke="none" stroke-width="0" stroke-linecap="butt"/><path d="M162.90811,209.41065l-0.44003,-1.64383h154.77514v1.64383z" fill="#c70003" stroke="none" stroke-width="0" stroke-linecap="butt"/><g><path d="M276.87656,127.02686v20.79767h-73.60445v-20.79767z" data-paper-data="{&quot;index&quot;:null}" fill="#8b5625" stroke="none" stroke-width="0" stroke-linecap="butt"/><path d="M262.92956,127.18216v1.32813h-43.5v-1.32812z" data-paper-data="{&quot;index&quot;:null}" fill="#be7e42" stroke="none" stroke-width="0" stroke-linecap="butt"/><path d="M265.81757,131.89483v13.58108h-50.06755v-13.58108z" data-paper-data="{&quot;index&quot;:null}" fill="url(#color-48)" stroke="none" stroke-width="0" stroke-linecap="butt"/><path d="M161.43983,145.21582l-1.00955,-0.89822l10.23035,-6.90434l-0.30405,2.22973z" data-paper-data="{&quot;index&quot;:null}" fill="#d90004" stroke="none" stroke-width="0" stroke-linecap="butt"/><path d="M215.86453,129.08885l3.50953,16.56348l42.41068,-0.30645l0.99404,-16.5281l42.75333,-0.24703l10.9807,23.9848l-153.82346,-0.02222l13.041,-23.21258z" data-paper-data="{&quot;index&quot;:null}" fill="url(#color-49)" stroke="none" stroke-width="0" stroke-linecap="butt"/><path d="M306.6135,129.43936l10.58234,22.98794h-2.22973l-10.58233,-22.98794z" data-paper-data="{&quot;index&quot;:null}" fill="#c70003" stroke="none" stroke-width="0" stroke-linecap="butt"/><path d="M177.14714,129.50785l-12.55085,23.5862l-2.22973,-0.12712l12.55084,-23.45908z" data-paper-data="{&quot;index&quot;:null}" fill="#c70003" stroke="none" stroke-width="0" stroke-linecap="butt"/><path d="M303.907,124.63165l2.45251,4.49017h-43.77764v-4.49017z" data-paper-data="{&quot;index&quot;:null}" fill="#c0c0c0" stroke="none" stroke-width="0" stroke-linecap="butt"/><path d="M306.36764,128.96149v0.81082h-37.7027v-0.81082z" data-paper-data="{&quot;index&quot;:null}" fill="#d90004" stroke="none" stroke-width="0" stroke-linecap="butt"/><path d="M218.48113,125.0245v4.49017h-43.77764l2.45251,-4.49017z" data-paper-data="{&quot;index&quot;:null}" fill="#c0c0c0" stroke="none" stroke-width="0" stroke-linecap="butt"/><path d="M215.69523,127.53259c3.8184,-0.02854 3.82223,2.11112 3.82223,2.11112l1.38014,16.62857h-10.246l1.66586,-16.62857c0,0 0.48004,-2.08946 3.37777,-2.11112z" data-paper-data="{&quot;index&quot;:null}" fill="url(#color-50)" stroke="none" stroke-width="0" stroke-linecap="butt"/><path d="M265.51891,127.10887c3.8184,-0.02854 3.82222,2.11111 3.82222,2.11111l1.38015,16.62857h-10.24601l1.66586,-16.62857c0,0 0.48006,-2.08945 3.37778,-2.11111z" data-paper-data="{&quot;index&quot;:null}" fill="url(#color-51)" stroke="none" stroke-width="0" stroke-linecap="butt"/><g data-paper-data="{&quot;index&quot;:null}" stroke="#d60000" stroke-width="1"><path d="M205.0335,132.1156l-1.47731,9.80395h-26.49353l4.83483,-9.93825z" fill="#ff8c00" stroke-linecap="butt"/><path d="M182.48249,141.67143l3.6375,-9.13245" fill="none" stroke-linecap="round"/><path d="M187.97744,141.90361l2.55399,-9.51941" fill="none" stroke-linecap="round"/><path d="M192.85323,141.59404l1.93484,-9.13245" fill="none" stroke-linecap="round"/><path d="M197.96121,141.51665l1.70266,-8.90027" fill="none" stroke-linecap="round"/><path d="M179.23195,138.65308h24.7304" fill="none" stroke-linecap="round"/><path d="M204.39743,135.24776h-23.84978" fill="none" stroke-linecap="round"/></g><path d="M319.66841,144.24774v1.79572h-159.14022v-1.79572z" data-paper-data="{&quot;index&quot;:null}" fill="#c70003" stroke="none" stroke-width="0" stroke-linecap="butt"/><path d="M319.67713,145.73791v2.39429h-159.18637v-2.39429z" data-paper-data="{&quot;index&quot;:null}" fill="#d90004" stroke="none" stroke-width="0" stroke-linecap="butt"/><path d="M212.39806,129.35434v0.81082h-37.7027v-0.81082z" data-paper-data="{&quot;index&quot;:null}" fill="#d90004" stroke="none" stroke-width="0" stroke-linecap="butt"/><path d="M212.193,125.1945c0,0 1.56853,-1.22016 3.60024,-1.16289c2.69808,0.07606 3.5721,1.34582 3.5721,1.34582l0.7317,4.25054c0,0 -2.23474,-0.76042 -4.28571,-0.90659c-2.00869,-0.14316 -4.07565,0.90659 -4.07565,0.90659l0.45732,-4.43346z" data-paper-data="{&quot;index&quot;:null}" fill="#a7a7a7" stroke="none" stroke-width="0" stroke-linecap="butt"/><path d="M265.6069,123.59683c2.69808,0.07605 3.5721,1.34582 3.5721,1.34582l0.73171,4.25053c0,0 -2.23475,-0.76042 -4.28572,-0.90659c-2.00869,-0.14316 -4.07565,0.90659 -4.07565,0.90659l0.45732,-4.43346c0,0 1.56852,-1.22016 3.60024,-1.16289z" data-paper-data="{&quot;index&quot;:null}" fill="#a7a7a7" stroke="none" stroke-width="0" stroke-linecap="butt"/><path d="M309.93053,139.05081l-0.30405,-2.22973l9.92629,7.4111l-1.00955,0.89822z" data-paper-data="{&quot;index&quot;:null}" fill="#d90004" stroke="none" stroke-width="0" stroke-linecap="butt"/><path d="M204.00191,142.26737v0.94286h-27.6l-0.17143,-0.94286z" data-paper-data="{&quot;index&quot;:null}" fill="#ff0000" stroke="none" stroke-width="0" stroke-linecap="butt"/><g data-paper-data="{&quot;index&quot;:null}" stroke="#d60000" stroke-width="1"><path d="M298.36647,131.98129l4.83482,9.93825h-26.49352l-1.47731,-9.80394z" fill="#ff8c00" stroke-linecap="butt"/><path d="M294.14397,132.53899l3.6375,9.13244" fill="none" stroke-linecap="round"/><path d="M289.73254,132.3842l2.55399,9.51941" fill="none" stroke-linecap="round"/><path d="M285.47589,132.46159l1.93484,9.13244" fill="none" stroke-linecap="round"/><path d="M280.60008,132.61638l1.70266,8.90027" fill="none" stroke-linecap="round"/><path d="M301.03201,138.65308h-24.7304" fill="none" stroke-linecap="round"/><path d="M299.71632,135.24776h-23.84978" fill="none" stroke-linecap="round"/></g><path d="M304.03346,142.26737l-0.17142,0.94286h-27.59999v-0.94286z" data-paper-data="{&quot;index&quot;:null}" fill="#ff0000" stroke="none" stroke-width="0" stroke-linecap="butt"/><path d="M175.29765,147.96862l-2.57575,9.69697h-2.27273l2.57576,-9.69697z" data-paper-data="{&quot;index&quot;:null}" fill="#c70003" stroke="none" stroke-width="0" stroke-linecap="butt"/><path d="M189.69159,148.12014l-2.27272,9.69697h-2.27273l2.27273,-9.69697z" data-paper-data="{&quot;index&quot;:null}" fill="#c70003" stroke="none" stroke-width="0" stroke-linecap="butt"/><path d="M203.63099,147.96862l-1.51515,9.69697h-2.27273l1.51515,-9.69697z" data-paper-data="{&quot;index&quot;:null}" fill="#c70003" stroke="none" stroke-width="0" stroke-linecap="butt"/><path d="M220.23811,147.96862l-0.80086,9.69697h-4.77272l0.80086,-9.69697z" data-paper-data="{&quot;index&quot;:null}" fill="#c70003" stroke="none" stroke-width="0" stroke-linecap="butt"/><path d="M232.02382,147.96862l-0.26515,9.69697h-2.27272l0.26515,-9.69697z" data-paper-data="{&quot;index&quot;:null}" fill="#c70003" stroke="none" stroke-width="0" stroke-linecap="butt"/><path d="M303.55251,147.96862l2.57576,9.69697h-2.27273l-2.57575,-9.69697z" data-paper-data="{&quot;index&quot;:null}" fill="#c70003" stroke="none" stroke-width="0" stroke-linecap="butt"/><path d="M289.15857,148.12014l2.27273,9.69697h-2.27273l-2.27272,-9.69697z" data-paper-data="{&quot;index&quot;:null}" fill="#c70003" stroke="none" stroke-width="0" stroke-linecap="butt"/><path d="M275.21918,147.96862l1.51515,9.69697h-2.27273l-1.51515,-9.69697z" data-paper-data="{&quot;index&quot;:null}" fill="#c70003" stroke="none" stroke-width="0" stroke-linecap="butt"/><path d="M263.41974,147.96862l0.80086,9.69697h-4.58041l-0.80086,-9.69697z" data-paper-data="{&quot;index&quot;:null}" fill="#c70003" stroke="none" stroke-width="0" stroke-linecap="butt"/><path d="M246.82634,147.96863l0.26514,9.69697h-2.27272l-0.26515,-9.69697z" data-paper-data="{&quot;index&quot;:null}" fill="#c70003" stroke="none" stroke-width="0" stroke-linecap="butt"/><path d="M316.86013,151.79719v1.64384h-154.43168c0,0 0.47459,-1.64384 1.22314,-1.64384c8.37762,0 153.20854,0 153.20854,0z" data-paper-data="{&quot;index&quot;:null}" fill="#c70003" stroke="none" stroke-width="0" stroke-linecap="butt"/></g><path d="M162.32342,208.73153v-55.7481h2.32758v55.7481z" fill="#c70003" stroke="none" stroke-width="0" stroke-linecap="butt"/><path d="M314.64662,207.8417v-55.37113h2.58621v55.37113z" fill="#c70003" stroke="none" stroke-width="0" stroke-linecap="butt"/><path d="M137.11858,277.22421v-177.85984h219.12333v177.85984z" fill="none" stroke="none" stroke-width="0" stroke-linecap="butt"/></g></g></svg>