<svg version="1.1" xmlns="http://www.w3.org/2000/svg" xmlns:xlink="http://www.w3.org/1999/xlink" width="482.29271" height="409.30376" viewBox="0,0,482.29271,409.30376"><defs><radialGradient cx="78.60819" cy="88.92651" r="0.00125" gradientUnits="userSpaceOnUse" id="color-1"><stop offset="0" stop-color="#383838"/><stop offset="1" stop-color="#383838" stop-opacity="0"/></radialGradient></defs><g transform="translate(1.14633,24.65177)"><g data-paper-data="{&quot;isPaintingLayer&quot;:true}" fill-rule="nonzero" stroke="none" stroke-width="0" stroke-linecap="butt" stroke-linejoin="miter" stroke-miterlimit="10" stroke-dasharray="" stroke-dashoffset="0" style="mix-blend-mode: normal"><path d="M-1.14633,384.65198v-409.30375h482.29271v409.30375z" fill="none"/><path d="M-1.14633,384.65199v-409.30375h482.29271v409.30375z" fill="none"/><path d="M157.21637,177.853z" fill="url(#color-1)"/><g><g><path d="M223.56827,139.10064c-0.18509,-2.26099 1.76956,-2.73625 1.76956,-2.73625c0,0 -1.88219,-2.45448 -1.04257,-3.88253c0.61745,-1.05017 2.94468,-1.00589 2.94468,-1.00589c0,0 0.93911,-3.56104 2.61854,-3.43207c1.79135,0.1376 2.5378,2.27831 2.5378,2.27831c0,0 1.25748,-2.31087 2.64681,-1.63322c1.33586,0.65151 1.17687,1.76545 1.66151,3.59962c0.2491,0.94267 2.98115,-0.28394 3.27843,1.80749c0.29622,2.08398 -1.76305,2.63207 -1.76305,2.63207c0,0 1.33597,1.4257 1.25478,2.81187c-0.11111,1.8975 -3.4458,1.80998 -3.4458,1.80998c0,0 0.33802,2.53462 -2.06269,3.02626c-0.15544,0.03181 -2.1109,-0.9023 -2.24269,-0.91242c-0.05668,-0.00432 -0.88576,1.1445 -3.14458,0.62449c-1.01371,-0.23332 -1.76467,-3.07223 -1.76467,-3.07223c0,0 -3.07398,0.1864 -3.24604,-1.91546z" fill="#cdf4f7"/><path d="M226.94416,137.88535c-0.1073,-1.31064 1.02579,-1.58615 1.02579,-1.58615c0,0 -1.09106,-1.42282 -0.60438,-2.25063c0.35789,-0.60873 1.70696,-0.58312 1.70696,-0.58312c0,0 0.54436,-2.0642 1.51791,-1.98944c1.03841,0.07977 1.4711,1.32066 1.4711,1.32066c0,0 0.7289,-1.33957 1.53429,-0.94678c0.77434,0.37767 0.68222,1.0234 0.96314,2.08665c0.14438,0.54646 1.72811,-0.16458 1.90044,1.04775c0.17174,1.20801 -1.02199,1.52573 -1.02199,1.52573c0,0 0.77438,0.8264 0.72734,1.62998c-0.06437,1.0999 -1.99743,1.04922 -1.99743,1.04922c0,0 0.19591,1.46926 -1.19572,1.75426c-0.0901,0.01845 -1.22362,-0.523 -1.30003,-0.5289c-0.03285,-0.00253 -0.51344,0.66341 -1.82281,0.36199c-0.58759,-0.1353 -1.02293,-1.78088 -1.02293,-1.78088c0,0 -1.78192,0.10807 -1.88165,-1.1103z" fill="#f5fffe"/></g><g><path d="M230.78242,154.67923c1.40536,1.78082 0.04026,3.25836 0.04026,3.25836c0,0 2.926,1.00286 3.01691,2.65693c0.06686,1.2164 -1.89607,2.46736 -1.89607,2.46736c0,0 1.18839,3.48578 -0.28184,4.30773c-1.56822,0.87668 -3.37459,-0.4933 -3.37459,-0.4933c0,0 0.23141,2.62066 -1.30081,2.82505c-1.47321,0.19657 -1.95722,-0.81926 -3.37587,-2.07879c-0.72914,-0.64732 -2.32595,1.8862 -3.73094,0.3087c-1.39997,-1.57187 0.01197,-3.16795 0.01197,-3.16795c0,0 -1.90172,-0.44822 -2.60119,-1.64775c-0.9575,-1.64197 1.86852,-3.4144 1.86852,-3.4144c0,0 -1.68414,-1.9241 0.04342,-3.66212c0.11188,-0.1125 2.25753,-0.41659 2.37292,-0.48108c0.0496,-0.02775 0.10444,-1.44344 2.27364,-2.26031c0.97347,-0.36662 3.16995,1.58243 3.16995,1.58243c0,0 2.45726,-1.85633 3.76369,-0.20085z" fill="#cdf4f7"/><path d="M228.64306,157.55964c0.81465,1.03231 0.02331,1.88881 0.02331,1.88881c0,0 1.69613,0.58135 1.74884,1.54016c0.03876,0.70511 -1.09909,1.43029 -1.09909,1.43029c0,0 0.68886,2.02058 -0.1634,2.49705c-0.90907,0.50818 -1.95614,-0.28596 -1.95614,-0.28596c0,0 0.13417,1.51913 -0.75403,1.63763c-0.85395,0.11392 -1.13456,-0.4749 -1.95693,-1.20505c-0.42264,-0.37526 -1.34832,1.09337 -2.16272,0.17896c-0.81152,-0.91116 0.00694,-1.83637 0.00694,-1.83637c0,0 -1.10234,-0.25981 -1.50783,-0.95516c-0.55505,-0.95176 1.08312,-1.97926 1.08312,-1.97926c0,0 -0.97626,-1.11537 0.02517,-2.12285c0.06484,-0.06524 1.3086,-0.2415 1.37552,-0.27887c0.02875,-0.01606 0.06055,-0.8367 1.31796,-1.31022c0.56428,-0.21248 1.83754,0.91729 1.83754,0.91729c0,0 1.42441,-1.07609 2.18169,-0.11646z" fill="#f5fffe"/></g><g><path d="M219.62301,150.13609c1.40536,1.78082 0.04026,3.25835 0.04026,3.25835c0,0 2.92599,1.00286 3.0169,2.65692c0.06686,1.2164 -1.89607,2.46737 -1.89607,2.46737c0,0 1.18839,3.48578 -0.28183,4.30773c-1.56822,0.87668 -3.37459,-0.4933 -3.37459,-0.4933c0,0 0.2314,2.62066 -1.30081,2.82505c-1.47321,0.19657 -1.95721,-0.81927 -3.37587,-2.0788c-0.72914,-0.64732 -2.32596,1.88621 -3.73094,0.30871c-1.39997,-1.57187 0.01198,-3.16796 0.01198,-3.16796c0,0 -1.90172,-0.44822 -2.60119,-1.64774c-0.9575,-1.64197 1.86853,-3.4144 1.86853,-3.4144c0,0 -1.68415,-1.9241 0.04341,-3.66212c0.11188,-0.1125 2.25754,-0.41658 2.37292,-0.48108c0.0496,-0.02775 0.10444,-1.44345 2.27364,-2.26032c0.97347,-0.36662 3.16995,1.58243 3.16995,1.58243c0,0 2.45726,-1.85633 3.76369,-0.20085z" fill="#cdf4f7"/><path d="M217.48366,153.0165c0.81465,1.03231 0.02331,1.88882 0.02331,1.88882c0,0 1.69613,0.58134 1.74885,1.54015c0.03876,0.70511 -1.0991,1.4303 -1.0991,1.4303c0,0 0.68886,2.02058 -0.1634,2.49705c-0.90907,0.50818 -1.95614,-0.28596 -1.95614,-0.28596c0,0 0.13416,1.51912 -0.75403,1.63762c-0.85395,0.11392 -1.13456,-0.4749 -1.95693,-1.20504c-0.42264,-0.37526 -1.34832,1.09337 -2.16272,0.17896c-0.81152,-0.91116 0.00694,-1.83637 0.00694,-1.83637c0,0 -1.10234,-0.25981 -1.50783,-0.95516c-0.55505,-0.95176 1.08311,-1.97927 1.08311,-1.97927c0,0 -0.97626,-1.11536 0.02517,-2.12284c0.06484,-0.06524 1.3086,-0.2415 1.37552,-0.27888c0.02875,-0.01606 0.06055,-0.83671 1.31796,-1.31022c0.56428,-0.21248 1.83754,0.9173 1.83754,0.9173c0,0 1.42441,-1.07609 2.18169,-0.11646z" fill="#f5fffe"/></g><g><path d="M216.84862,139.25892c1.40536,1.78082 0.04026,3.25835 0.04026,3.25835c0,0 2.92599,1.00286 3.0169,2.65693c0.06686,1.2164 -1.89606,2.46736 -1.89606,2.46736c0,0 1.18839,3.48578 -0.28184,4.30773c-1.56822,0.87668 -3.37459,-0.4933 -3.37459,-0.4933c0,0 0.2314,2.62066 -1.30081,2.82505c-1.47321,0.19657 -1.95721,-0.81926 -3.37587,-2.0788c-0.72914,-0.64732 -2.32595,1.88621 -3.73094,0.3087c-1.39997,-1.57187 0.01197,-3.16795 0.01197,-3.16795c0,0 -1.90172,-0.44822 -2.60119,-1.64774c-0.9575,-1.64197 1.86852,-3.4144 1.86852,-3.4144c0,0 -1.68414,-1.9241 0.04342,-3.66212c0.11188,-0.1125 2.25753,-0.41658 2.37291,-0.48108c0.0496,-0.02775 0.10444,-1.44344 2.27364,-2.26031c0.97347,-0.36662 3.16995,1.58243 3.16995,1.58243c0,0 2.45727,-1.85633 3.7637,-0.20085z" fill="#cdf4f7"/><path d="M214.70926,142.13933c0.81465,1.03231 0.02331,1.88881 0.02331,1.88881c0,0 1.69612,0.58134 1.74884,1.54015c0.03876,0.70511 -1.0991,1.4303 -1.0991,1.4303c0,0 0.68887,2.02058 -0.16339,2.49705c-0.90907,0.50818 -1.95615,-0.28596 -1.95615,-0.28596c0,0 0.13417,1.51912 -0.75402,1.63762c-0.85395,0.11392 -1.13456,-0.4749 -1.95693,-1.20504c-0.42264,-0.37526 -1.34832,1.09337 -2.16272,0.17896c-0.81152,-0.91116 0.00694,-1.83637 0.00694,-1.83637c0,0 -1.10234,-0.25981 -1.50783,-0.95516c-0.55505,-0.95176 1.08312,-1.97926 1.08312,-1.97926c0,0 -0.97626,-1.11536 0.02516,-2.12284c0.06484,-0.06524 1.3086,-0.2415 1.37552,-0.27887c0.02875,-0.01606 0.06055,-0.83671 1.31796,-1.31022c0.56428,-0.21248 1.83754,0.91729 1.83754,0.91729c0,0 1.42441,-1.07608 2.18169,-0.11645z" fill="#f5fffe"/></g><g><path d="M230.3492,149.06015c-0.1851,-2.26099 1.76958,-2.73625 1.76958,-2.73625c0,0 -1.88219,-2.45448 -1.04257,-3.88252c0.61745,-1.05017 2.94468,-1.00589 2.94468,-1.00589c0,0 0.9391,-3.56104 2.61854,-3.43208c1.79135,0.1376 2.53782,2.27831 2.53782,2.27831c0,0 1.25747,-2.31087 2.64681,-1.63322c1.33586,0.65151 1.17687,1.76548 1.6615,3.59963c0.2491,0.94267 2.98115,-0.28394 3.27845,1.80749c0.29622,2.08398 -1.76305,2.63206 -1.76305,2.63206c0,0 1.33597,1.4257 1.25478,2.81188c-0.11111,1.8975 -3.44581,1.80998 -3.44581,1.80998c0,0 0.33803,2.53462 -2.06268,3.02626c-0.15544,0.03179 -2.11089,-0.90229 -2.24268,-0.91242c-0.05668,-0.00432 -0.88575,1.1445 -3.14458,0.6245c-1.01371,-0.23334 -1.76467,-3.07225 -1.76467,-3.07225c0,0 -3.07398,0.1864 -3.24604,-1.91545z" fill="#cdf4f7"/><path d="M233.72509,147.84483c-0.1073,-1.31064 1.02581,-1.58615 1.02581,-1.58615c0,0 -1.09106,-1.42282 -0.60438,-2.25063c0.35789,-0.60875 1.70697,-0.58312 1.70697,-0.58312c0,0 0.54437,-2.0642 1.51792,-1.98944c1.03841,0.07977 1.47109,1.32066 1.47109,1.32066c0,0 0.7289,-1.33958 1.53428,-0.94676c0.77434,0.37767 0.68222,1.02338 0.96316,2.08665c0.14438,0.54644 1.72811,-0.16458 1.90042,1.04775c0.17174,1.20801 -1.022,1.52573 -1.022,1.52573c0,0 0.77439,0.8264 0.72734,1.62998c-0.06437,1.0999 -1.99744,1.04922 -1.99744,1.04922c0,0 0.19593,1.46926 -1.1957,1.75426c-0.0901,0.01845 -1.22362,-0.523 -1.30002,-0.5289c-0.03285,-0.00253 -0.51344,0.66342 -1.82283,0.362c-0.58759,-0.13529 -1.02293,-1.7809 -1.02293,-1.7809c0,0 -1.7819,0.10807 -1.88164,-1.1103z" fill="#f5fffe"/></g><g><path d="M226.64087,159.65535c-0.1851,-2.26099 1.76958,-2.73625 1.76958,-2.73625c0,0 -1.88219,-2.45448 -1.04258,-3.88252c0.61745,-1.05017 2.94468,-1.00589 2.94468,-1.00589c0,0 0.9391,-3.56104 2.61854,-3.43207c1.79135,0.1376 2.53782,2.27831 2.53782,2.27831c0,0 1.25747,-2.31087 2.64681,-1.63322c1.33586,0.65151 1.17687,1.76547 1.66151,3.59962c0.2491,0.94267 2.98115,-0.28394 3.27845,1.80749c0.29622,2.08398 -1.76305,2.63207 -1.76305,2.63207c0,0 1.33597,1.4257 1.25479,2.81188c-0.11111,1.8975 -3.44581,1.80998 -3.44581,1.80998c0,0 0.33802,2.53462 -2.06269,3.02626c-0.15544,0.03179 -2.11088,-0.90229 -2.24268,-0.91242c-0.05668,-0.00432 -0.88575,1.1445 -3.14458,0.62449c-1.01371,-0.23334 -1.76467,-3.07224 -1.76467,-3.07224c0,0 -3.07397,0.1864 -3.24604,-1.91545z" fill="#cdf4f7"/><path d="M230.01677,158.44005c-0.1073,-1.31064 1.0258,-1.58615 1.0258,-1.58615c0,0 -1.09106,-1.42282 -0.60438,-2.25063c0.35789,-0.60875 1.70696,-0.58312 1.70696,-0.58312c0,0 0.54437,-2.0642 1.51792,-1.98944c1.03841,0.07977 1.4711,1.32066 1.4711,1.32066c0,0 0.7289,-1.33958 1.53428,-0.94676c0.77434,0.37767 0.68222,1.02338 0.96315,2.08665c0.14438,0.54644 1.72811,-0.16458 1.90042,1.04775c0.17174,1.20801 -1.022,1.52573 -1.022,1.52573c0,0 0.77439,0.8264 0.72734,1.62998c-0.06437,1.0999 -1.99743,1.04922 -1.99743,1.04922c0,0 0.19593,1.46926 -1.1957,1.75426c-0.0901,0.01845 -1.22362,-0.523 -1.30003,-0.5289c-0.03285,-0.00253 -0.51344,0.66342 -1.82282,0.362c-0.58759,-0.13529 -1.02293,-1.7809 -1.02293,-1.7809c0,0 -1.78191,0.10807 -1.88164,-1.1103z" fill="#f5fffe"/></g><g><path d="M223.94741,129.8292c1.40536,1.78082 0.04026,3.25834 0.04026,3.25834c0,0 2.92601,1.00284 3.01691,2.65694c0.06686,1.2164 -1.89608,2.46737 -1.89608,2.46737c0,0 1.1884,3.48578 -0.28182,4.30772c-1.56822,0.8767 -3.37459,-0.49329 -3.37459,-0.49329c0,0 0.2314,2.62066 -1.30081,2.82504c-1.47321,0.19657 -1.95721,-0.81926 -3.37587,-2.0788c-0.72914,-0.64732 -2.32596,1.88621 -3.73094,0.3087c-1.39997,-1.57187 0.01197,-3.16795 0.01197,-3.16795c0,0 -1.90173,-0.4482 -2.60117,-1.64774c-0.9575,-1.64197 1.86853,-3.41441 1.86853,-3.41441c0,0 -1.68416,-1.9241 0.0434,-3.66212c0.11188,-0.1125 2.25753,-0.41658 2.37292,-0.48108c0.0496,-0.02775 0.10444,-1.44345 2.27364,-2.26032c0.97347,-0.36662 3.16995,1.58244 3.16995,1.58244c0,0 2.45727,-1.85633 3.76371,-0.20085z" fill="#cdf4f7"/><path d="M221.80807,132.70959c0.81465,1.03231 0.02331,1.88882 0.02331,1.88882c0,0 1.69613,0.58133 1.74884,1.54016c0.03876,0.70511 -1.09908,1.4303 -1.09908,1.4303c0,0 0.68885,2.02057 -0.1634,2.49704c-0.90905,0.50818 -1.95614,-0.28595 -1.95614,-0.28595c0,0 0.13416,1.51914 -0.75403,1.63764c-0.85395,0.11392 -1.13456,-0.4749 -1.95693,-1.20505c-0.42264,-0.37526 -1.34833,1.09337 -2.16273,0.17896c-0.81152,-0.91116 0.00695,-1.83637 0.00695,-1.83637c0,0 -1.10234,-0.25981 -1.50783,-0.95516c-0.55505,-0.95176 1.08312,-1.97927 1.08312,-1.97927c0,0 -0.97626,-1.11538 0.02517,-2.12286c0.06486,-0.06524 1.30862,-0.2415 1.37552,-0.27886c0.02875,-0.01606 0.06055,-0.83671 1.31796,-1.31022c0.56429,-0.21248 1.83754,0.9173 1.83754,0.9173c0,0 1.42439,-1.07609 2.18169,-0.11646z" fill="#f5fffe"/></g><g><path d="M214.62034,152.00562c-0.26017,-3.1781 2.48732,-3.84614 2.48732,-3.84614c0,0 -2.64565,-3.45007 -1.46547,-5.45734c0.8679,-1.47615 4.13913,-1.4139 4.13913,-1.4139c0,0 1.32002,-5.00547 3.68067,-4.82419c2.51796,0.19342 3.5672,3.20244 3.5672,3.20244c0,0 1.76755,-3.24822 3.72042,-2.29568c1.87769,0.91577 1.65422,2.48157 2.33544,5.0597c0.35015,1.32503 4.19036,-0.39912 4.60824,2.54064c0.41638,2.92927 -2.47817,3.69969 -2.47817,3.69969c0,0 1.87787,2.00396 1.76374,3.95242c-0.15617,2.66716 -4.84349,2.54415 -4.84349,2.54415c0,0 0.47515,3.56271 -2.89935,4.25378c-0.21848,0.0447 -2.96713,-1.26828 -3.15238,-1.28252c-0.07966,-0.00609 -1.24503,1.60873 -4.4201,0.87781c-1.42488,-0.32796 -2.48046,-4.31838 -2.48046,-4.31838c0,0 -4.32083,0.262 -4.56269,-2.69241z" fill="#cdf4f7"/><path d="M219.36554,150.29736c-0.15082,-1.84229 1.44189,-2.22953 1.44189,-2.22953c0,0 -1.53359,-1.99993 -0.84951,-3.16351c0.50307,-0.85566 2.39934,-0.81965 2.39934,-0.81965c0,0 0.76518,-2.90149 2.1336,-2.79641c1.4596,0.11213 2.0678,1.85635 2.0678,1.85635c0,0 1.02455,-1.88291 2.15662,-1.33078c1.08841,0.53085 0.95893,1.43851 1.35383,2.93305c0.20293,0.76809 2.42906,-0.23136 2.67128,1.47274c0.24139,1.69801 -1.43654,2.1446 -1.43654,2.1446c0,0 1.08849,1.16159 1.02238,2.29111c-0.09049,1.54604 -2.80764,1.4748 -2.80764,1.4748c0,0 0.27536,2.06524 -1.68071,2.46582c-0.12667,0.02594 -1.71993,-0.73515 -1.82734,-0.74344c-0.04617,-0.00354 -0.72172,0.93249 -2.56219,0.50883c-0.82592,-0.19017 -1.43782,-2.50326 -1.43782,-2.50326c0,0 -2.50469,0.15191 -2.64489,-1.56067z" fill="#f5fffe"/></g></g><g><g><path d="M226.93921,189.95139c-0.18885,-2.3068 1.80542,-2.7917 1.80542,-2.7917c0,0 -1.92032,-2.50422 -1.0637,-3.96118c0.62995,-1.07146 3.00435,-1.02628 3.00435,-1.02628c0,0 0.95815,-3.6332 2.6716,-3.50162c1.82764,0.1404 2.58923,2.32448 2.58923,2.32448c0,0 1.28296,-2.3577 2.70045,-1.6663c1.36292,0.6647 1.20072,1.80122 1.69517,3.67256c0.25414,0.96177 3.04156,-0.28968 3.34486,1.84411c0.30223,2.12621 -1.79878,2.6854 -1.79878,2.6854c0,0 1.36304,1.45458 1.2802,2.86885c-0.11336,1.93595 -3.51564,1.84664 -3.51564,1.84664c0,0 0.34487,2.58598 -2.10448,3.08759c-0.1586,0.03243 -2.15366,-0.92058 -2.28813,-0.9309c-0.05783,-0.00442 -0.90371,1.16768 -3.2083,0.63716c-1.03426,-0.23806 -1.80042,-3.13448 -1.80042,-3.13448c0,0 -3.13627,0.19017 -3.31181,-1.95427z" fill="#cdf4f7"/><path d="M230.38349,188.71147c-0.10947,-1.3372 1.04659,-1.61829 1.04659,-1.61829c0,0 -1.11316,-1.45164 -0.61662,-2.29623c0.36515,-0.62107 1.74155,-0.59494 1.74155,-0.59494c0,0 0.55541,-2.10603 1.54867,-2.02976c1.05946,0.08139 1.5009,1.34742 1.5009,1.34742c0,0 0.74367,-1.36673 1.56537,-0.96595c0.79002,0.38532 0.69602,1.04413 0.98265,2.12893c0.1473,0.55751 1.76313,-0.16791 1.93894,1.06897c0.17521,1.2325 -1.0427,1.55664 -1.0427,1.55664c0,0 0.79008,0.84315 0.74209,1.663c-0.06567,1.12219 -2.03792,1.07047 -2.03792,1.07047c0,0 0.1999,1.49902 -1.21994,1.78981c-0.09195,0.01883 -1.24842,-0.5336 -1.32638,-0.53961c-0.0335,-0.00258 -0.52385,0.67685 -1.85975,0.36933c-0.5995,-0.13804 -1.04365,-1.81698 -1.04365,-1.81698c0,0 -1.81803,0.11025 -1.91977,-1.13281z" fill="#f5fffe"/></g><g><path d="M234.29952,205.84563c1.43383,1.81689 0.04107,3.32437 0.04107,3.32437c0,0 2.98529,1.02316 3.07804,2.71075c0.06821,1.24105 -1.93448,2.51736 -1.93448,2.51736c0,0 1.21247,3.55641 -0.28755,4.395c-1.59998,0.89445 -3.44296,-0.50329 -3.44296,-0.50329c0,0 0.23609,2.67377 -1.32717,2.88228c-1.50305,0.20055 -1.99687,-0.83586 -3.44427,-2.12092c-0.74391,-0.66045 -2.37309,1.92443 -3.80653,0.31496c-1.42833,-1.60372 0.01222,-3.23215 0.01222,-3.23215c0,0 -1.94026,-0.4573 -2.65389,-1.68113c-0.9769,-1.67524 1.90637,-3.48359 1.90637,-3.48359c0,0 -1.71828,-1.9631 0.0443,-3.73632c0.11415,-0.11479 2.30327,-0.42501 2.42099,-0.49083c0.0506,-0.02831 0.10656,-1.47269 2.3197,-2.30611c0.99318,-0.37405 3.23418,1.6145 3.23418,1.6145c0,0 2.50704,-1.89394 3.83996,-0.20492z" fill="#cdf4f7"/><path d="M232.11682,208.7844c0.83117,1.05322 0.02379,1.92709 0.02379,1.92709c0,0 1.7305,0.59313 1.78429,1.57137c0.03955,0.71938 -1.12135,1.45928 -1.12135,1.45928c0,0 0.70282,2.06152 -0.16672,2.54764c-0.92747,0.51849 -1.99577,-0.29175 -1.99577,-0.29175c0,0 0.13689,1.54991 -0.7693,1.67081c-0.87127,0.11623 -1.15755,-0.48451 -1.99659,-1.22946c-0.4312,-0.38286 -1.37565,1.11554 -2.20655,0.18258c-0.82798,-0.92962 0.00708,-1.87359 0.00708,-1.87359c0,0 -1.12466,-0.26507 -1.53838,-0.97451c-0.56629,-0.97103 1.10506,-2.01936 1.10506,-2.01936c0,0 -0.99603,-1.13797 0.02567,-2.16587c0.06617,-0.06655 1.33512,-0.24639 1.40339,-0.28452c0.02934,-0.01639 0.06178,-0.85365 1.34467,-1.33678c0.57572,-0.21677 1.87477,0.93589 1.87477,0.93589c0,0 1.45326,-1.09788 2.2259,-0.11881z" fill="#f5fffe"/></g><g><path d="M222.91401,201.21045c1.43383,1.81689 0.04107,3.32437 0.04107,3.32437c0,0 2.98529,1.02317 3.07802,2.71075c0.06821,1.24105 -1.93448,2.51736 -1.93448,2.51736c0,0 1.21247,3.55641 -0.28753,4.395c-1.59998,0.89445 -3.44296,-0.5033 -3.44296,-0.5033c0,0 0.23609,2.67377 -1.32718,2.88228c-1.50305,0.20055 -1.99686,-0.83586 -3.44426,-2.12092c-0.74391,-0.66045 -2.37309,1.92443 -3.80653,0.31496c-1.42833,-1.60372 0.0122,-3.23215 0.0122,-3.23215c0,0 -1.94026,-0.45729 -2.65389,-1.68112c-0.9769,-1.67524 1.90639,-3.4836 1.90639,-3.4836c0,0 -1.71828,-1.96309 0.0443,-3.73632c0.11415,-0.11479 2.30327,-0.42502 2.42099,-0.49082c0.0506,-0.02831 0.10656,-1.47269 2.3197,-2.30611c0.99318,-0.37405 3.23418,1.61449 3.23418,1.61449c0,0 2.50705,-1.89395 3.83996,-0.20493z" fill="#cdf4f7"/><path d="M220.73131,204.1492c0.83117,1.05322 0.02379,1.92709 0.02379,1.92709c0,0 1.7305,0.59313 1.78429,1.57137c0.03955,0.71938 -1.12136,1.45928 -1.12136,1.45928c0,0 0.7028,2.06152 -0.16672,2.54764c-0.92747,0.51849 -1.99577,-0.29174 -1.99577,-0.29174c0,0 0.13689,1.54991 -0.7693,1.6708c-0.87127,0.11623 -1.15755,-0.48452 -1.99659,-1.22946c-0.4312,-0.38286 -1.37565,1.11554 -2.20655,0.18259c-0.82798,-0.92962 0.00708,-1.87359 0.00708,-1.87359c0,0 -1.12466,-0.26506 -1.53838,-0.9745c-0.56629,-0.97103 1.10506,-2.01937 1.10506,-2.01937c0,0 -0.99603,-1.13797 0.02567,-2.16586c0.06617,-0.06655 1.33513,-0.2464 1.4034,-0.28453c0.02934,-0.01639 0.06178,-0.85366 1.34467,-1.33677c0.57572,-0.21677 1.87477,0.93589 1.87477,0.93589c0,0 1.45326,-1.09789 2.2259,-0.11882z" fill="#f5fffe"/></g><g><path d="M220.0834,190.11289c1.43383,1.81689 0.04107,3.32437 0.04107,3.32437c0,0 2.98529,1.02316 3.07802,2.71075c0.06821,1.24105 -1.93448,2.51736 -1.93448,2.51736c0,0 1.21247,3.55641 -0.28754,4.395c-1.59998,0.89445 -3.44296,-0.50329 -3.44296,-0.50329c0,0 0.23609,2.67377 -1.32718,2.88228c-1.50305,0.20055 -1.99687,-0.83586 -3.44426,-2.12092c-0.74391,-0.66045 -2.37309,1.92443 -3.80653,0.31496c-1.42833,-1.60372 0.01222,-3.23215 0.01222,-3.23215c0,0 -1.94026,-0.4573 -2.65389,-1.68112c-0.9769,-1.67524 1.90637,-3.48359 1.90637,-3.48359c0,0 -1.71828,-1.9631 0.0443,-3.73632c0.11415,-0.11479 2.30327,-0.42502 2.42099,-0.49081c0.0506,-0.02831 0.10656,-1.47269 2.3197,-2.30611c0.99318,-0.37405 3.23418,1.61451 3.23418,1.61451c0,0 2.50705,-1.89395 3.83995,-0.20493z" fill="#cdf4f7"/><path d="M217.9007,193.05164c0.83117,1.05322 0.02379,1.92709 0.02379,1.92709c0,0 1.7305,0.59313 1.78428,1.57137c0.03955,0.71938 -1.12136,1.45928 -1.12136,1.45928c0,0 0.70282,2.06152 -0.16672,2.54764c-0.92747,0.51849 -1.99577,-0.29173 -1.99577,-0.29173c0,0 0.13689,1.54991 -0.7693,1.67081c-0.87127,0.11623 -1.15755,-0.48452 -1.99658,-1.22946c-0.4312,-0.38286 -1.37565,1.11554 -2.20655,0.18259c-0.82798,-0.92962 0.00708,-1.87359 0.00708,-1.87359c0,0 -1.12466,-0.26507 -1.53838,-0.97451c-0.56629,-0.97103 1.10506,-2.01936 1.10506,-2.01936c0,0 -0.99603,-1.13797 0.02567,-2.16587c0.06617,-0.06655 1.33513,-0.24639 1.4034,-0.28452c0.02934,-0.01639 0.06177,-0.85366 1.34467,-1.33677c0.57572,-0.21677 1.87477,0.93589 1.87477,0.93589c0,0 1.45326,-1.09789 2.2259,-0.11882z" fill="#f5fffe"/></g><g><path d="M233.85752,200.11269c-0.18885,-2.30682 1.80542,-2.7917 1.80542,-2.7917c0,0 -1.92034,-2.50422 -1.0637,-3.96118c0.62995,-1.07146 3.00435,-1.02628 3.00435,-1.02628c0,0 0.95813,-3.6332 2.67159,-3.50162c1.82765,0.14038 2.58924,2.32448 2.58924,2.32448c0,0 1.28296,-2.3577 2.70043,-1.6663c1.36292,0.6647 1.20072,1.80124 1.69517,3.67257c0.25414,0.96177 3.04156,-0.2897 3.34486,1.84411c0.30223,2.12619 -1.79877,2.6854 -1.79877,2.6854c0,0 1.36305,1.45458 1.28021,2.86886c-0.11336,1.93595 -3.51564,1.84664 -3.51564,1.84664c0,0 0.34487,2.58597 -2.10449,3.08758c-0.1586,0.03243 -2.15366,-0.92057 -2.28813,-0.9309c-0.05783,-0.00442 -0.90371,1.16769 -3.2083,0.63715c-1.03424,-0.23806 -1.80042,-3.13449 -1.80042,-3.13449c0,0 -3.13626,0.19018 -3.31181,-1.95426z" fill="#cdf4f7"/><path d="M237.30181,198.87275c-0.10947,-1.3372 1.04659,-1.61829 1.04659,-1.61829c0,0 -1.11315,-1.45164 -0.61662,-2.29621c0.36515,-0.62108 1.74155,-0.59494 1.74155,-0.59494c0,0 0.55541,-2.10603 1.54866,-2.02975c1.05944,0.08139 1.5009,1.34743 1.5009,1.34743c0,0 0.74366,-1.36671 1.56536,-0.96595c0.79002,0.38532 0.69604,1.04413 0.98266,2.12891c0.14729,0.55751 1.76312,-0.16791 1.93893,1.06898c0.17521,1.2325 -1.0427,1.55664 -1.0427,1.55664c0,0 0.79008,0.84316 0.74208,1.663c-0.06567,1.12219 -2.03791,1.07048 -2.03791,1.07048c0,0 0.19989,1.49902 -1.21993,1.78981c-0.09195,0.01883 -1.24842,-0.53359 -1.32638,-0.53961c-0.0335,-0.00258 -0.52383,0.67685 -1.85974,0.36933c-0.59948,-0.13804 -1.04366,-1.81699 -1.04366,-1.81699c0,0 -1.81802,0.11028 -1.91976,-1.13279z" fill="#f5fffe"/></g><g><path d="M230.07406,210.92257c-0.18885,-2.30682 1.80543,-2.7917 1.80543,-2.7917c0,0 -1.92034,-2.50422 -1.0637,-3.96118c0.62995,-1.07146 3.00435,-1.02628 3.00435,-1.02628c0,0 0.95813,-3.6332 2.6716,-3.50162c1.82765,0.14038 2.58923,2.32448 2.58923,2.32448c0,0 1.28296,-2.3577 2.70045,-1.6663c1.36292,0.6647 1.2007,1.80124 1.69515,3.67257c0.25414,0.96177 3.04155,-0.28971 3.34486,1.8441c0.30223,2.12619 -1.79878,2.6854 -1.79878,2.6854c0,0 1.36305,1.45459 1.28021,2.86886c-0.11336,1.93595 -3.51561,1.84664 -3.51561,1.84664c0,0 0.34486,2.58597 -2.10449,3.08758c-0.1586,0.03243 -2.15366,-0.92057 -2.28812,-0.9309c-0.05783,-0.00442 -0.90371,1.16769 -3.2083,0.63715c-1.03424,-0.23806 -1.80042,-3.13448 -1.80042,-3.13448c0,0 -3.13627,0.19017 -3.31181,-1.95427z" fill="#cdf4f7"/><path d="M233.51834,209.68265c-0.10947,-1.3372 1.04659,-1.6183 1.04659,-1.6183c0,0 -1.11317,-1.45163 -0.61662,-2.29622c0.36515,-0.62108 1.74155,-0.59494 1.74155,-0.59494c0,0 0.55541,-2.10603 1.54867,-2.02975c1.05944,0.08139 1.50089,1.34742 1.50089,1.34742c0,0 0.74366,-1.36673 1.56538,-0.96595c0.79002,0.38532 0.69604,1.04414 0.98265,2.12892c0.14729,0.55751 1.76312,-0.16792 1.93893,1.06897c0.17521,1.2325 -1.0427,1.55665 -1.0427,1.55665c0,0 0.79008,0.84316 0.74209,1.663c-0.06567,1.12219 -2.03791,1.07048 -2.03791,1.07048c0,0 0.19989,1.49902 -1.21992,1.78981c-0.09195,0.01883 -1.24842,-0.53359 -1.32638,-0.53961c-0.0335,-0.00258 -0.52385,0.67685 -1.85976,0.36933c-0.59948,-0.13804 -1.04365,-1.81697 -1.04365,-1.81697c0,0 -1.81803,0.11025 -1.91977,-1.13281z" fill="#f5fffe"/></g><g><path d="M227.32603,180.49209c1.43383,1.81689 0.04108,3.32437 0.04108,3.32437c0,0 2.98529,1.02316 3.07804,2.71077c0.06821,1.24105 -1.93448,2.51735 -1.93448,2.51735c0,0 1.21247,3.5564 -0.28753,4.39499c-1.6,0.89445 -3.44298,-0.50329 -3.44298,-0.50329c0,0 0.23609,2.67377 -1.32718,2.88228c-1.50305,0.20055 -1.99688,-0.83586 -3.44426,-2.12092c-0.74391,-0.66045 -2.37309,1.92442 -3.80653,0.31495c-1.42833,-1.60372 0.0122,-3.23215 0.0122,-3.23215c0,0 -1.94025,-0.45727 -2.65387,-1.68112c-0.9769,-1.67524 1.90637,-3.48359 1.90637,-3.48359c0,0 -1.71828,-1.9631 0.0443,-3.73632c0.11415,-0.11479 2.30327,-0.42502 2.42099,-0.49082c0.0506,-0.02831 0.10656,-1.47269 2.3197,-2.30611c0.99318,-0.37405 3.23418,1.6145 3.23418,1.6145c0,0 2.50705,-1.89395 3.83996,-0.20493z" fill="#cdf4f7"/><path d="M225.14333,183.43086c0.83115,1.05322 0.02376,1.92709 0.02376,1.92709c0,0 1.73049,0.59311 1.78429,1.57136c0.03955,0.71938 -1.12134,1.45929 -1.12134,1.45929c0,0 0.70282,2.06152 -0.16672,2.54764c-0.92747,0.51849 -1.99577,-0.29175 -1.99577,-0.29175c0,0 0.13689,1.54992 -0.7693,1.67082c-0.87125,0.11623 -1.15755,-0.48451 -1.99659,-1.22946c-0.4312,-0.38286 -1.37565,1.11553 -2.20655,0.18258c-0.82798,-0.92962 0.00708,-1.87359 0.00708,-1.87359c0,0 -1.12468,-0.26507 -1.53838,-0.97451c-0.56629,-0.97103 1.10506,-2.01936 1.10506,-2.01936c0,0 -0.99603,-1.13798 0.02567,-2.16587c0.06617,-0.06655 1.33513,-0.24639 1.4034,-0.28452c0.02934,-0.01639 0.06178,-0.85366 1.34467,-1.33677c0.57572,-0.21678 1.87477,0.93587 1.87477,0.93587c0,0 1.45326,-1.09788 2.2259,-0.11881z" fill="#f5fffe"/></g><g><path d="M217.80997,203.11784c-0.26544,-3.2425 2.53772,-3.92407 2.53772,-3.92407c0,0 -2.69925,-3.51996 -1.49516,-5.56791c0.88549,-1.50606 4.22298,-1.44255 4.22298,-1.44255c0,0 1.34676,-5.10689 3.75523,-4.92192c2.56897,0.19735 3.63947,3.2673 3.63947,3.2673c0,0 1.80335,-3.31401 3.7958,-2.34219c1.91574,0.93433 1.68775,2.53184 2.38277,5.16221c0.35725,1.35188 4.27527,-0.40721 4.7016,2.59211c0.42481,2.98862 -2.52839,3.77466 -2.52839,3.77466c0,0 1.91591,2.04458 1.79946,4.0325c-0.15934,2.72122 -4.94163,2.5957 -4.94163,2.5957c0,0 0.48478,3.63491 -2.95809,4.33996c-0.22292,0.0456 -3.02726,-1.29399 -3.21625,-1.30851c-0.08128,-0.00621 -1.27025,1.64132 -4.50965,0.89559c-1.45377,-0.33461 -2.5307,-4.40588 -2.5307,-4.40588c0,0 -4.40839,0.2673 -4.65515,-2.74696z" fill="#cdf4f7"/><path d="M222.65132,201.37498c-0.15388,-1.87962 1.4711,-2.2747 1.4711,-2.2747c0,0 -1.56468,-2.04045 -0.86673,-3.22761c0.51326,-0.873 2.44796,-0.83626 2.44796,-0.83626c0,0 0.78067,-2.96027 2.17683,-2.85306c1.48917,0.11441 2.1097,1.89396 2.1097,1.89396c0,0 1.0453,-1.92106 2.2003,-1.35774c1.11047,0.54161 0.97836,1.46766 1.38126,2.99246c0.20703,0.78367 2.47827,-0.23604 2.72541,1.50256c0.24628,1.73241 -1.46564,2.18805 -1.46564,2.18805c0,0 1.11055,1.18514 1.04309,2.33754c-0.09231,1.57737 -2.86452,1.50469 -2.86452,1.50469c0,0 0.28095,2.10708 -1.71475,2.51578c-0.12923,0.02646 -1.75479,-0.75004 -1.86437,-0.75851c-0.0471,-0.00362 -0.73633,0.9514 -2.61412,0.51915c-0.84266,-0.19403 -1.46696,-2.55398 -1.46696,-2.55398c0,0 -2.55544,0.155 -2.69849,-1.59227z" fill="#f5fffe"/></g></g><g><g><path d="M266.54841,154.63885c-0.16001,-1.95468 1.52982,-2.36556 1.52982,-2.36556c0,0 -1.6272,-2.12195 -0.90133,-3.35652c0.53379,-0.9079 2.54574,-0.86962 2.54574,-0.86962c0,0 0.81188,-3.0786 2.26379,-2.9671c1.54865,0.11895 2.194,1.96964 2.194,1.96964c0,0 1.08712,-1.99779 2.28822,-1.41195c1.15488,0.56324 1.01743,1.52628 1.4364,3.11195c0.21535,0.81497 2.57726,-0.24546 2.83427,1.56262c0.2561,1.80164 -1.52419,2.27548 -1.52419,2.27548c0,0 1.15497,1.23255 1.08478,2.43094c-0.09605,1.64042 -2.97898,1.56476 -2.97898,1.56476c0,0 0.29224,2.19123 -1.78325,2.61627c-0.13439,0.02749 -1.8249,-0.78006 -1.93884,-0.78881c-0.049,-0.00375 -0.76576,0.98944 -2.71855,0.5399c-0.87638,-0.20172 -1.52559,-2.656 -1.52559,-2.656c0,0 -2.65752,0.16115 -2.80627,-1.65596z" fill="#cdf4f7"/><path d="M269.46693,153.58819c-0.09276,-1.13307 0.88682,-1.37126 0.88682,-1.37126c0,0 -0.94323,-1.23005 -0.5225,-1.94571c0.30941,-0.52627 1.47571,-0.50413 1.47571,-0.50413c0,0 0.47062,-1.78455 1.31227,-1.71991c0.89772,0.06896 1.27179,1.14174 1.27179,1.14174c0,0 0.63014,-1.15808 1.32642,-0.8185c0.66942,0.32649 0.58978,0.88475 0.83265,1.80394c0.12481,0.47241 1.49399,-0.14228 1.64296,0.9058c0.14847,1.04435 -0.88354,1.31903 -0.88354,1.31903c0,0 0.66947,0.71444 0.62881,1.40915c-0.05566,0.9509 -1.72682,0.90707 -1.72682,0.90707c0,0 0.16938,1.27021 -1.03372,1.51659c-0.0779,0.01595 -1.05783,-0.45215 -1.1239,-0.45725c-0.02839,-0.00218 -0.44388,0.57353 -1.57587,0.31295c-0.50798,-0.11696 -0.88434,-1.5396 -0.88434,-1.5396c0,0 -1.5405,0.09342 -1.62672,-0.95988z" fill="#f5fffe"/></g><g><path d="M272.78517,168.10686c1.21495,1.53956 0.0348,2.8169 0.0348,2.8169c0,0 2.52959,0.86699 2.60817,2.29697c0.05779,1.0516 -1.6392,2.13308 -1.6392,2.13308c0,0 1.02738,3.01352 -0.24366,3.72412c-1.35575,0.75791 -2.9174,-0.42647 -2.9174,-0.42647c0,0 0.20005,2.26561 -1.12458,2.44231c-1.27362,0.16994 -1.69206,-0.70826 -2.91851,-1.79717c-0.63035,-0.55963 -2.01084,1.63066 -3.22548,0.26689c-1.2103,-1.35892 0.01035,-2.73877 0.01035,-2.73877c0,0 -1.64408,-0.38748 -2.24877,-1.42451c-0.82777,-1.41952 1.61537,-2.95182 1.61537,-2.95182c0,0 -1.45598,-1.66344 0.03753,-3.16599c0.09673,-0.09726 1.9517,-0.36014 2.05145,-0.41591c0.04288,-0.02399 0.09029,-1.24788 1.9656,-1.95408c0.84159,-0.31695 2.74048,1.36805 2.74048,1.36805c0,0 2.12433,-1.60485 3.25379,-0.17364z" fill="#cdf4f7"/><path d="M270.93567,170.59703c0.70429,0.89244 0.02016,1.63293 0.02016,1.63293c0,0 1.46634,0.50259 1.51191,1.33151c0.0335,0.60957 -0.95019,1.23652 -0.95019,1.23652c0,0 0.59554,1.74683 -0.14126,2.15874c-0.78589,0.43933 -1.69113,-0.24721 -1.69113,-0.24721c0,0 0.116,1.31332 -0.65187,1.41576c-0.73827,0.09849 -0.98085,-0.41056 -1.69182,-1.04178c-0.36538,-0.32441 -1.16566,0.94525 -1.86972,0.15472c-0.70158,-0.78772 0.00601,-1.58759 0.00601,-1.58759c0,0 -0.95299,-0.2246 -1.30355,-0.82576c-0.47985,-0.82281 0.93637,-1.71112 0.93637,-1.71112c0,0 -0.84399,-0.96427 0.02175,-1.83525c0.05606,-0.0564 1.13132,-0.20878 1.18918,-0.24109c0.02486,-0.01389 0.05235,-0.72335 1.13939,-1.13271c0.48784,-0.18369 1.58858,0.79303 1.58858,0.79303c0,0 1.23143,-0.93031 1.88612,-0.10068z" fill="#f5fffe"/></g><g><path d="M263.13763,164.17922c1.21495,1.53956 0.03481,2.8169 0.03481,2.8169c0,0 2.52958,0.86699 2.60817,2.29697c0.05779,1.0516 -1.6392,2.13308 -1.6392,2.13308c0,0 1.0274,3.01354 -0.24364,3.72412c-1.35575,0.75791 -2.91741,-0.42647 -2.91741,-0.42647c0,0 0.20005,2.26561 -1.12458,2.44231c-1.27362,0.16994 -1.69205,-0.70826 -2.91851,-1.79717c-0.63035,-0.55963 -2.01084,1.63065 -3.22546,0.26689c-1.2103,-1.35892 0.01035,-2.73877 0.01035,-2.73877c0,0 -1.64407,-0.3875 -2.24877,-1.42451c-0.82777,-1.41952 1.61537,-2.95183 1.61537,-2.95183c0,0 -1.45598,-1.66344 0.03753,-3.16599c0.09673,-0.09726 1.95167,-0.36014 2.05142,-0.41589c0.04288,-0.02399 0.0903,-1.24788 1.9656,-1.95408c0.84159,-0.31695 2.74048,1.36805 2.74048,1.36805c0,0 2.12436,-1.60484 3.2538,-0.17364z" fill="#cdf4f7"/><path d="M261.28812,166.66938c0.70429,0.89244 0.02017,1.63293 0.02017,1.63293c0,0 1.46634,0.50258 1.51191,1.3315c0.0335,0.60957 -0.95019,1.23652 -0.95019,1.23652c0,0 0.59552,1.74683 -0.14126,2.15875c-0.78589,0.43933 -1.69112,-0.24721 -1.69112,-0.24721c0,0 0.116,1.31332 -0.65187,1.41576c-0.73827,0.09849 -0.98085,-0.41056 -1.6918,-1.04179c-0.36538,-0.32441 -1.16565,0.94525 -1.86971,0.15471c-0.70158,-0.78772 0.00599,-1.58759 0.00599,-1.58759c0,0 -0.95299,-0.2246 -1.30355,-0.82575c-0.47985,-0.82281 0.93638,-1.71112 0.93638,-1.71112c0,0 -0.84399,-0.96427 0.02175,-1.83526c0.05606,-0.0564 1.13131,-0.20878 1.18917,-0.24109c0.02486,-0.01389 0.05235,-0.72335 1.13942,-1.13271c0.48784,-0.18369 1.58858,0.79303 1.58858,0.79303c0,0 1.23143,-0.93031 1.88612,-0.10068z" fill="#f5fffe"/></g><g><path d="M260.73912,154.77568c1.21495,1.53956 0.03481,2.8169 0.03481,2.8169c0,0 2.52958,0.86698 2.60818,2.29697c0.05779,1.0516 -1.6392,2.13308 -1.6392,2.13308c0,0 1.02738,3.01352 -0.24365,3.72412c-1.35575,0.75791 -2.91741,-0.42646 -2.91741,-0.42646c0,0 0.20005,2.26561 -1.12458,2.4423c-1.27362,0.16994 -1.69206,-0.70826 -2.91851,-1.79717c-0.63035,-0.55963 -2.01084,1.63066 -3.22548,0.26689c-1.2103,-1.35892 0.01036,-2.73877 0.01036,-2.73877c0,0 -1.64407,-0.38749 -2.24877,-1.4245c-0.82777,-1.41952 1.61536,-2.95183 1.61536,-2.95183c0,0 -1.45598,-1.66344 0.03753,-3.16599c0.09673,-0.09726 1.95169,-0.36014 2.05144,-0.41589c0.04288,-0.02399 0.0903,-1.24789 1.9656,-1.95408c0.84159,-0.31695 2.74048,1.36804 2.74048,1.36804c0,0 2.12436,-1.60484 3.2538,-0.17364z" fill="#cdf4f7"/><path d="M258.88962,157.26585c0.70429,0.89244 0.02017,1.63292 0.02017,1.63292c0,0 1.46634,0.50258 1.51191,1.3315c0.0335,0.60957 -0.95019,1.23653 -0.95019,1.23653c0,0 0.59554,1.74683 -0.14126,2.15874c-0.78589,0.43933 -1.69112,-0.24721 -1.69112,-0.24721c0,0 0.116,1.31332 -0.65187,1.41576c-0.73827,0.09849 -0.98085,-0.41056 -1.69182,-1.04179c-0.36538,-0.32441 -1.16565,0.94525 -1.86972,0.15471c-0.70158,-0.78772 0.00601,-1.58759 0.00601,-1.58759c0,0 -0.95299,-0.2246 -1.30355,-0.82576c-0.47985,-0.82281 0.93637,-1.71112 0.93637,-1.71112c0,0 -0.84399,-0.96427 0.02176,-1.83525c0.05606,-0.0564 1.13131,-0.20878 1.18917,-0.24109c0.02486,-0.01389 0.05236,-0.72335 1.1394,-1.13272c0.48784,-0.18369 1.58858,0.79302 1.58858,0.79302c0,0 1.23143,-0.93031 1.88613,-0.10067z" fill="#f5fffe"/></g><g><path d="M272.41066,163.24904c-0.16003,-1.95468 1.52983,-2.36556 1.52983,-2.36556c0,0 -1.62719,-2.12195 -0.90132,-3.35652c0.53379,-0.9079 2.54573,-0.86961 2.54573,-0.86961c0,0 0.81187,-3.07859 2.26378,-2.9671c1.54867,0.11895 2.19399,1.96964 2.19399,1.96964c0,0 1.08711,-1.99779 2.28822,-1.41195c1.15488,0.56324 1.01742,1.52629 1.4364,3.11195c0.21535,0.81495 2.57727,-0.24548 2.83429,1.5626c0.2561,1.80164 -1.5242,2.27548 -1.5242,2.27548c0,0 1.15498,1.23254 1.08479,2.43093c-0.09605,1.64042 -2.97898,1.56476 -2.97898,1.56476c0,0 0.29223,2.19123 -1.78323,2.61628c-0.13439,0.02749 -1.82491,-0.78005 -1.93885,-0.78881c-0.049,-0.00375 -0.76576,0.98944 -2.71855,0.5399c-0.87637,-0.20172 -1.52559,-2.65601 -1.52559,-2.65601c0,0 -2.65752,0.16115 -2.80627,-1.65593z" fill="#cdf4f7"/><path d="M275.32918,162.19838c-0.09276,-1.13307 0.88682,-1.37127 0.88682,-1.37127c0,0 -0.94324,-1.23006 -0.52249,-1.9457c0.30941,-0.52627 1.47571,-0.50412 1.47571,-0.50412c0,0 0.47062,-1.78454 1.31226,-1.71992c0.89772,0.06896 1.27179,1.14175 1.27179,1.14175c0,0 0.63015,-1.15809 1.32641,-0.81849c0.66942,0.32649 0.58978,0.88475 0.83266,1.80394c0.12481,0.47241 1.49399,-0.14228 1.64296,0.9058c0.14847,1.04435 -0.88354,1.31903 -0.88354,1.31903c0,0 0.66947,0.71444 0.62881,1.40915c-0.05566,0.95088 -1.72682,0.90707 -1.72682,0.90707c0,0 0.16939,1.27021 -1.0337,1.51659c-0.0779,0.01595 -1.05785,-0.45213 -1.1239,-0.45725c-0.02839,-0.00218 -0.44388,0.57353 -1.57587,0.31295c-0.50798,-0.11696 -0.88434,-1.53963 -0.88434,-1.53963c0,0 -1.54049,0.09344 -1.62672,-0.95988z" fill="#f5fffe"/></g><g><path d="M269.20473,172.4088c-0.16003,-1.95468 1.52983,-2.36556 1.52983,-2.36556c0,0 -1.6272,-2.12195 -0.90133,-3.35652c0.53379,-0.9079 2.54574,-0.86961 2.54574,-0.86961c0,0 0.81186,-3.07859 2.26377,-2.9671c1.54867,0.11895 2.194,1.96964 2.194,1.96964c0,0 1.08713,-1.99779 2.28822,-1.41195c1.15488,0.56324 1.01743,1.52629 1.4364,3.11195c0.21535,0.81495 2.57726,-0.24548 2.83428,1.5626c0.2561,1.80164 -1.52419,2.27548 -1.52419,2.27548c0,0 1.15497,1.23254 1.08478,2.43093c-0.09605,1.64042 -2.97896,1.56476 -2.97896,1.56476c0,0 0.29221,2.19122 -1.78325,2.61627c-0.13439,0.02749 -1.8249,-0.78005 -1.93884,-0.7888c-0.049,-0.00375 -0.76576,0.98944 -2.71855,0.5399c-0.87637,-0.20172 -1.5256,-2.656 -1.5256,-2.656c0,0 -2.65751,0.16115 -2.80626,-1.65596z" fill="#cdf4f7"/><path d="M272.12325,171.35816c-0.09276,-1.13307 0.88684,-1.37127 0.88684,-1.37127c0,0 -0.94323,-1.23005 -0.52249,-1.94572c0.30941,-0.52627 1.47571,-0.50413 1.47571,-0.50413c0,0 0.47062,-1.78453 1.31226,-1.71991c0.89772,0.06896 1.27179,1.14174 1.27179,1.14174c0,0 0.63015,-1.15808 1.32643,-0.8185c0.66942,0.32649 0.58978,0.88475 0.83266,1.80394c0.12481,0.47241 1.49399,-0.14228 1.64296,0.9058c0.14847,1.04435 -0.88354,1.31903 -0.88354,1.31903c0,0 0.66947,0.71445 0.62881,1.40915c-0.05566,0.95088 -1.72683,0.90707 -1.72683,0.90707c0,0 0.16939,1.27021 -1.0337,1.5166c-0.0779,0.01595 -1.05783,-0.45214 -1.1239,-0.45725c-0.02839,-0.00218 -0.44388,0.57353 -1.57587,0.31295c-0.50798,-0.11696 -0.88434,-1.53963 -0.88434,-1.53963c0,0 -1.5405,0.09343 -1.62673,-0.95987z" fill="#f5fffe"/></g><g><path d="M266.87617,146.62348c1.21495,1.53956 0.0348,2.8169 0.0348,2.8169c0,0 2.52959,0.86699 2.60817,2.29697c0.05779,1.0516 -1.6392,2.13308 -1.6392,2.13308c0,0 1.0274,3.01352 -0.24364,3.7241c-1.35576,0.75791 -2.91741,-0.42646 -2.91741,-0.42646c0,0 0.20005,2.26561 -1.12458,2.4423c-1.27362,0.16994 -1.69205,-0.70826 -2.9185,-1.79716c-0.63036,-0.55963 -2.01084,1.63065 -3.22548,0.26687c-1.2103,-1.35892 0.01035,-2.73877 0.01035,-2.73877c0,0 -1.64407,-0.38748 -2.24877,-1.4245c-0.82777,-1.41952 1.61536,-2.95183 1.61536,-2.95183c0,0 -1.45598,-1.66343 0.03753,-3.16599c0.09672,-0.09726 1.95168,-0.36014 2.05142,-0.41589c0.04288,-0.02399 0.0903,-1.24788 1.96562,-1.95409c0.84159,-0.31695 2.74048,1.36805 2.74048,1.36805c0,0 2.12436,-1.60485 3.2538,-0.17364z" fill="#cdf4f7"/><path d="M265.02666,149.11365c0.70429,0.89244 0.02016,1.63292 0.02016,1.63292c0,0 1.46633,0.50259 1.5119,1.33151c0.0335,0.60957 -0.95018,1.23652 -0.95018,1.23652c0,0 0.59554,1.74684 -0.14126,2.15876c-0.78589,0.43935 -1.69112,-0.24721 -1.69112,-0.24721c0,0 0.116,1.31332 -0.65187,1.41577c-0.73827,0.09849 -0.98085,-0.41056 -1.69182,-1.04178c-0.36538,-0.32441 -1.16566,0.94523 -1.86974,0.15471c-0.70158,-0.78772 0.00601,-1.58758 0.00601,-1.58758c0,0 -0.95299,-0.2246 -1.30355,-0.82576c-0.47985,-0.82281 0.93638,-1.71112 0.93638,-1.71112c0,0 -0.84399,-0.96427 0.02175,-1.83525c0.05606,-0.0564 1.13131,-0.20878 1.18917,-0.24109c0.02486,-0.01389 0.05233,-0.72335 1.1394,-1.13271c0.48784,-0.18369 1.58859,0.79302 1.58859,0.79302c0,0 1.23143,-0.93031 1.88611,-0.10068z" fill="#f5fffe"/></g><g><path d="M258.81273,165.79545c-0.22492,-2.74753 2.15035,-3.32505 2.15035,-3.32505c0,0 -2.28722,-2.98266 -1.26693,-4.71799c0.75032,-1.27616 3.57835,-1.22235 3.57835,-1.22235c0,0 1.1412,-4.32733 3.182,-4.1706c2.17681,0.16722 3.08392,2.76856 3.08392,2.76856c0,0 1.52808,-2.80814 3.21637,-1.98467c1.62331,0.7917 1.43012,2.14537 2.01903,4.37421c0.30271,1.14552 3.62265,-0.34504 3.98391,2.19643c0.35997,2.53241 -2.14243,3.19845 -2.14243,3.19845c0,0 1.62346,1.73248 1.52479,3.41694c-0.13502,2.30582 -4.18731,2.19947 -4.18731,2.19947c0,0 0.41078,3.08003 -2.50655,3.67747c-0.1889,0.03865 -2.56514,-1.09645 -2.72528,-1.10876c-0.06887,-0.00527 -1.07635,1.39078 -3.82126,0.75889c-1.23185,-0.28353 -2.1444,-3.73334 -2.1444,-3.73334c0,0 -3.73546,0.22649 -3.94455,-2.32764z" fill="#cdf4f7"/><path d="M262.91506,164.31864c-0.1304,-1.59268 1.24654,-1.92746 1.24654,-1.92746c0,0 -1.32584,-1.72899 -0.73442,-2.73493c0.43491,-0.73974 2.07429,-0.70862 2.07429,-0.70862c0,0 0.66151,-2.50841 1.84453,-2.41756c1.26185,0.09695 1.78765,1.60485 1.78765,1.60485c0,0 0.88573,-1.62783 1.86443,-1.15049c0.94095,0.45893 0.82902,1.24362 1.17041,2.53567c0.17543,0.66403 2.09997,-0.20001 2.30938,1.2732c0.20869,1.46797 -1.24191,1.85405 -1.24191,1.85405c0,0 0.94102,1.00422 0.88387,1.98072c-0.07823,1.33659 -2.42727,1.275 -2.42727,1.275c0,0 0.23807,1.78543 -1.45301,2.13176c-0.1095,0.02241 -1.48692,-0.63555 -1.57978,-0.64271c-0.03991,-0.00307 -0.62393,0.80617 -2.21507,0.4399c-0.71402,-0.1644 -1.24304,-2.16412 -1.24304,-2.16412c0,0 -2.16537,0.13134 -2.28656,-1.34922z" fill="#f5fffe"/></g></g></g></g></svg>