<svg version="1.1" xmlns="http://www.w3.org/2000/svg" xmlns:xlink="http://www.w3.org/1999/xlink" width="292.71415" height="170.57135" viewBox="0,0,292.71415,170.57135"><g transform="translate(-90.54984,-91.35976)"><g data-paper-data="{&quot;isPaintingLayer&quot;:true}" fill-rule="nonzero" stroke-linejoin="miter" stroke-miterlimit="10" stroke-dasharray="" stroke-dashoffset="0" style="mix-blend-mode: normal"><path d="M90.54985,261.93111v-170.57135h292.71415v170.57135z" fill="none" stroke="none" stroke-width="0" stroke-linecap="butt"/><path d="M201.82713,192.16127c0,-7.90622 0,-19.9598 0,-24.40222c0,-3.2697 3.24532,-7.24873 6.87018,-7.24873c11.46379,0 43.08172,0 63.10922,0c4.00298,0 6.36637,3.87183 6.36637,7.08044c0,4.1896 0,15.96947 0,23.89734c0,4.95934 -2.56286,8.00158 -6.87124,8.00158c-20.52857,0 -51.23529,0 -62.60434,0c-3.62486,0 -6.87018,-3.0597 -6.87018,-7.32841z" fill-opacity="0.2902" fill="#ececec" stroke="none" stroke-width="0" stroke-linecap="butt"/><g stroke="#e0e0e0" stroke-width="2"><text transform="translate(222.56429,195.14455) scale(0.20936,0.20936)" font-size="40" xml:space="preserve" fill="#e0e0e0" fill-rule="nonzero" stroke="#e0e0e0" stroke-width="2" stroke-linecap="butt" stroke-linejoin="miter" stroke-miterlimit="10" stroke-dasharray="" stroke-dashoffset="0" font-family="Sans Serif" font-weight="normal" text-anchor="start" style="mix-blend-mode: normal"><tspan x="0" dy="0">保存工程</tspan></text><path d="M229.04578,164.46805h21.3691l0.12818,15.66034l-5.79581,5.26268l-15.71986,0.05731z" fill="none" stroke-linecap="round"/><path d="M245.23067,164.78415v6.32222h-11.25355v-6.57511" fill="none" stroke-linecap="round"/><path d="M237.075,185.1417v-5.56355h5.69v5.81644" fill="none" stroke-linecap="round"/><path d="M239.60389,182.73926h-2.52889" fill="none" stroke-linecap="round"/></g></g></g></svg>