<svg version="1.1" xmlns="http://www.w3.org/2000/svg" xmlns:xlink="http://www.w3.org/1999/xlink" width="877.97602" height="657.26933" viewBox="0,0,877.97602,657.26933"><g transform="translate(198.5,144)"><g data-paper-data="{&quot;isPaintingLayer&quot;:true}" fill-rule="nonzero" stroke-linejoin="miter" stroke-miterlimit="10" stroke-dasharray="" stroke-dashoffset="0" style="mix-blend-mode: normal"><path d="M-198.5,513.26933v-657.26933h877.97602v657.26933z" fill="none" stroke="none" stroke-width="0" stroke-linecap="butt"/><g fill="#ffa000" stroke="none" stroke-width="0" stroke-linecap="butt"><path d="M22.92387,13.07884c0,-8.39179 6.80291,-15.1947 15.19469,-15.1947c8.3918,0 15.19471,6.8029 15.19471,15.1947c0,8.3918 -6.80291,15.1947 -15.1947,15.1947c-8.3918,0 -15.19469,-6.8029 -15.19469,-15.1947z"/><path d="M23.2588,347.31808c0,-8.3918 6.80291,-15.1947 15.19469,-15.1947c8.3918,0 15.19471,6.80291 15.19471,15.1947c0,8.3918 -6.80291,15.1947 -15.1947,15.1947c-8.3918,0 -15.19469,-6.80291 -15.19469,-15.1947z"/></g><path d="M37.83807,23.32955c0,0 184.50187,2.20341 257.30018,41.52863c73.91538,39.92866 188.44746,208.4828 188.44746,208.4828c0,0 -266.19243,154.08014 -281.80602,162.92223c-1.41524,0.80146 -2.31527,-2.02218 -2.31527,-2.02218c0,0 -47.9774,-44.68502 -74.97793,-57.98033c-26.57856,-13.08753 -86.33483,-25.06689 -86.33483,-25.06689z" fill="#9a9a9a" stroke="none" stroke-width="0" stroke-linecap="butt"/><path d="M38.14314,30.87113c0,0 155.56441,-6.48549 260.6141,54.57917c91.97851,53.46648 159.52725,175.06815 169.65159,193.60608" fill="none" stroke="#909090" stroke-width="7.5" stroke-linecap="round"/><path d="M37.887,329.59752c0,0 57.49659,2.83144 103.31075,29.17758c43.12684,24.80075 70.22976,69.07363 70.22976,69.07363" fill="none" stroke="#909090" stroke-width="7.5" stroke-linecap="round"/><path d="M38.24009,13.05002c0,0 142.82907,-11.89365 262.19468,52.25553c107.39722,57.71715 183.42357,204.35052 183.42357,204.35052" fill="none" stroke="#bcbcbc" stroke-width="30.5" stroke-linecap="round"/><path d="M38.68182,347.27273c0,0 56.95274,6.08717 88.21036,23.86391c44.51158,25.31449 68.28409,64.51215 68.28409,64.51215" fill="none" stroke="#bcbcbc" stroke-width="30.5" stroke-linecap="round"/></g></g></svg>