<svg version="1.1" xmlns="http://www.w3.org/2000/svg" xmlns:xlink="http://www.w3.org/1999/xlink" width="355.27333" height="355.27333" viewBox="0,0,355.27333,355.27333"><defs><radialGradient cx="240" cy="180" r="60.80616" gradientUnits="userSpaceOnUse" id="color-1"><stop offset="0" stop-color="#3f9421"/><stop offset="1" stop-color="#3f9421" stop-opacity="0"/></radialGradient></defs><g transform="translate(-62.36334,-2.36336)"><g data-paper-data="{&quot;isPaintingLayer&quot;:true}" fill-rule="nonzero" stroke-linecap="butt" stroke-linejoin="miter" stroke-miterlimit="10" stroke-dasharray="" stroke-dashoffset="0" style="mix-blend-mode: normal"><path d="M179.19385,180c0,-33.58233 27.22384,-60.80616 60.80616,-60.80616c33.58233,0 60.80616,27.22384 60.80616,60.80616c0,33.58233 -27.22384,60.80616 -60.80616,60.80616c-33.58233,0 -60.80616,-27.22384 -60.80616,-60.80616z" fill="url(#color-1)" stroke="none" stroke-width="0"/><path d="M62.36334,357.6367v-355.27333h355.27333v355.27333z" fill="none" stroke="none" stroke-width="0"/><path d="M216.38341,154.79428c8.17386,-5.18468 16.06874,-12.47655 26.5129,-12.47655c9.23693,0 19.14842,-1.84698 25.13498,3.60351c2.83716,2.58311 2.92424,10.77588 5.10421,14.22006c3.74136,5.91107 8.01571,12.91828 8.01571,20.43133c0,8.47203 -4.57588,12.8345 -8.12301,18.71003c-1.87355,3.10338 -0.85387,8.80075 -4.40962,11.00845c-5.58354,3.46674 -16.93603,5.96869 -23.80445,6.57792c-1.12794,0.10003 -0.76385,1.95845 -1.91781,1.95845c-7.36988,0 -15.15662,-5.9999 -20.99581,-9.61083c-5.69367,-3.52093 -5.93116,-9.83495 -8.88762,-14.72211c-2.70356,-4.46911 -8.37146,-7.35041 -8.37146,-13.92191c0,-10.68341 3.17444,-20.34396 11.74196,-25.77833z" data-paper-data="{&quot;index&quot;:null}" fill="#59d12e" stroke="#59d12e" stroke-width="2"/></g></g></svg>