<svg version="1.1" xmlns="http://www.w3.org/2000/svg" xmlns:xlink="http://www.w3.org/1999/xlink" width="238.421" height="310.26309" viewBox="0,0,238.421,310.26309"><g transform="translate(-120.7895,-24.86848)"><g data-paper-data="{&quot;isPaintingLayer&quot;:true}" fill-rule="nonzero" stroke-linejoin="miter" stroke-miterlimit="10" stroke-dasharray="" stroke-dashoffset="0" style="mix-blend-mode: normal"><path d="M168.21294,275.07971v-190.15934h143.57412v190.15934z" fill-opacity="0.39608" fill="#33404f" stroke-opacity="0.24314" stroke="#ffffff" stroke-width="4.5" stroke-linecap="butt"/><text transform="translate(173.22612,200.98669) scale(0.67532,0.67532)" font-size="40" xml:space="preserve" fill="#ffffff" fill-rule="nonzero" stroke="#ffffff" stroke-width="3" stroke-linecap="butt" stroke-linejoin="miter" stroke-miterlimit="10" stroke-dasharray="" stroke-dashoffset="0" font-family="Sans Serif" font-weight="normal" text-anchor="start" style="mix-blend-mode: normal"><tspan x="0" dy="0">汽车拍卖会</tspan></text><path d="M120.7895,335.13157v-310.26309h238.421v310.26309z" fill="none" stroke="none" stroke-width="0" stroke-linecap="butt"/><g><path d="M211.12462,163.41434l-1.53105,-9.23267h59.94286l-1.20629,9.51106z" fill="#ffffff" stroke="none" stroke-width="0" stroke-linecap="butt"/><path d="M200.69176,156.16163c0,0 2.18203,-2.10219 2.56937,-3.03796c0.14408,-0.34806 -0.77652,-0.64299 -0.75667,-1.03003c0.02677,-0.52187 0.44159,-0.95297 0.44159,-0.95297l4.0403,-0.1987c0,0 19.33144,-6.51631 28.61337,-5.83261c8.57659,0.62482 15.76383,5.96507 15.76383,5.96507c0,0 15.48417,0.3663 19.85549,1.69848c1.0715,0.32654 4.31863,1.26201 4.51736,2.26676c0.05032,0.25434 -0.27794,0.79372 -0.4373,1.46139c-0.19895,0.83349 -0.24565,1.79292 -0.24565,1.79292c0,0 0.9282,-0.06073 1.08756,0.22047c0.20456,0.36101 0.03843,1.76657 0.03843,1.76657l-1.25845,0.39739l0.06366,1.44496l1.0196,0.7843c0,0 -1.84107,0.37438 -3.0474,0.50076c-1.4817,0.15524 -5.18776,0.36198 -5.18776,0.36198c0,0 0.04248,-0.36067 0.04913,-0.93356c0.02587,-2.22863 -0.49057,-7.66897 -6.16023,-7.58281c-7.52353,0.11434 -6.51616,8.75166 -6.51616,8.75166h-30.48973c0,0 0.60331,-8.04146 -6.07514,-8.3908c-7.33855,-0.38388 -6.91772,7.99846 -6.91772,7.99846c0,0 -3.73127,-0.00436 -5.47438,-0.19985c-1.6603,-0.18619 -4.74794,-0.94658 -4.74794,-0.94658c0,0 -1.015,-1.81644 -1.10998,-2.64748c-0.05174,-0.45263 0.7559,-0.98949 0.84725,-1.5993c0.13052,-0.87116 -0.48245,-2.05857 -0.48245,-2.05857z" fill="#e8e8e8" stroke="#e8e8e8" stroke-width="0" stroke-linecap="round"/><path d="M216.81084,161.67394c0,-0.67646 0.54837,-1.22482 1.22483,-1.22482c0.67646,0 1.22482,0.54836 1.22482,1.22482c0,0.67646 -0.54836,1.22482 -1.22482,1.22482c-0.67646,0 -1.22483,-0.54836 -1.22483,-1.22482z" fill="#ffffff" stroke="#bababa" stroke-width="1.5" stroke-linecap="butt"/><g fill="#e8e8e8" stroke="none" stroke-width="0" stroke-linecap="butt"><path d="M212.81081,161.62452c0,-2.92642 2.37235,-5.29877 5.29877,-5.29877c2.92642,0 5.29876,2.37234 5.29876,5.29877c0,2.92642 -2.37233,5.29877 -5.29875,5.29877c-2.92642,0 -5.29877,-2.37235 -5.29877,-5.29877z"/></g><g fill="#e8e8e8" stroke="none" stroke-width="0" stroke-linecap="butt"><path d="M256.25554,161.27848c0,-2.92642 2.37234,-5.29877 5.29877,-5.29877c2.92642,0 5.29878,2.37234 5.29878,5.29877c0,2.92642 -2.37235,5.29877 -5.29878,5.29877c-2.92642,0 -5.29877,-2.37235 -5.29877,-5.29877z"/></g></g><text transform="translate(228.06034,169.25886) scale(1.03605,1.03605)" font-size="40" xml:space="preserve" fill="#ffffff" fill-rule="nonzero" stroke="#ffffff" stroke-width="2" stroke-linecap="butt" stroke-linejoin="miter" stroke-miterlimit="10" stroke-dasharray="" stroke-dashoffset="0" font-family="Sans Serif" font-weight="normal" text-anchor="start" style="mix-blend-mode: normal"><tspan x="0" dy="0">$</tspan></text></g></g></svg>