<svg version="1.1" xmlns="http://www.w3.org/2000/svg" xmlns:xlink="http://www.w3.org/1999/xlink" width="192.28799" height="185.65737" viewBox="0,0,192.28799,185.65737"><defs><radialGradient cx="338.12798" cy="167.85961" r="13.82455" gradientUnits="userSpaceOnUse" id="color-1"><stop offset="0" stop-color="#f07070"/><stop offset="1" stop-color="#cf5555"/></radialGradient><radialGradient cx="338.12798" cy="167.85961" r="11.92469" gradientUnits="userSpaceOnUse" id="color-2"><stop offset="0" stop-color="#ff9d9d"/><stop offset="1" stop-color="#ff9d9d" stop-opacity="0"/></radialGradient><radialGradient cx="338.12798" cy="167.85961" r="11.92469" gradientUnits="userSpaceOnUse" id="color-3"><stop offset="0" stop-color="#ff9d9d"/><stop offset="1" stop-color="#ff9d9d" stop-opacity="0"/></radialGradient><radialGradient cx="282.13847" cy="167.43697" r="13.58909" gradientUnits="userSpaceOnUse" id="color-4"><stop offset="0" stop-color="#f7f7f7"/><stop offset="1" stop-color="#cecece"/></radialGradient><radialGradient cx="282.13847" cy="167.43697" r="11.72159" gradientUnits="userSpaceOnUse" id="color-5"><stop offset="0" stop-color="#f7f7f7"/><stop offset="1" stop-color="#f7f7f7" stop-opacity="0"/></radialGradient><radialGradient cx="310.23694" cy="167.68679" r="13.82455" gradientUnits="userSpaceOnUse" id="color-6"><stop offset="0" stop-color="#f07070"/><stop offset="1" stop-color="#cf5555"/></radialGradient><radialGradient cx="310.23694" cy="167.68679" r="11.92468" gradientUnits="userSpaceOnUse" id="color-7"><stop offset="0" stop-color="#ff9d9d"/><stop offset="1" stop-color="#ff9d9d" stop-opacity="0"/></radialGradient><radialGradient cx="310.23694" cy="167.68679" r="11.92468" gradientUnits="userSpaceOnUse" id="color-8"><stop offset="0" stop-color="#ff9d9d"/><stop offset="1" stop-color="#ff9d9d" stop-opacity="0"/></radialGradient><radialGradient cx="309.92589" cy="191.53417" r="13.82455" gradientUnits="userSpaceOnUse" id="color-9"><stop offset="0" stop-color="#f07070"/><stop offset="1" stop-color="#cf5555"/></radialGradient><radialGradient cx="309.92589" cy="191.53417" r="11.92469" gradientUnits="userSpaceOnUse" id="color-10"><stop offset="0" stop-color="#ff9d9d"/><stop offset="1" stop-color="#ff9d9d" stop-opacity="0"/></radialGradient><radialGradient cx="309.92589" cy="191.53417" r="11.92469" gradientUnits="userSpaceOnUse" id="color-11"><stop offset="0" stop-color="#ff9d9d"/><stop offset="1" stop-color="#ff9d9d" stop-opacity="0"/></radialGradient><radialGradient cx="282.00021" cy="191.21527" r="13.58909" gradientUnits="userSpaceOnUse" id="color-12"><stop offset="0" stop-color="#f7f7f7"/><stop offset="1" stop-color="#cecece"/></radialGradient><radialGradient cx="282.00021" cy="191.21527" r="11.72159" gradientUnits="userSpaceOnUse" id="color-13"><stop offset="0" stop-color="#f7f7f7"/><stop offset="1" stop-color="#f7f7f7" stop-opacity="0"/></radialGradient><radialGradient cx="254.62759" cy="167.43697" r="13.5891" gradientUnits="userSpaceOnUse" id="color-14"><stop offset="0" stop-color="#f7f7f7"/><stop offset="1" stop-color="#cecece"/></radialGradient><radialGradient cx="254.62759" cy="167.43697" r="11.72159" gradientUnits="userSpaceOnUse" id="color-15"><stop offset="0" stop-color="#f7f7f7"/><stop offset="1" stop-color="#f7f7f7" stop-opacity="0"/></radialGradient><radialGradient cx="254.48935" cy="191.21527" r="13.58909" gradientUnits="userSpaceOnUse" id="color-16"><stop offset="0" stop-color="#f7f7f7"/><stop offset="1" stop-color="#cecece"/></radialGradient><radialGradient cx="254.48935" cy="191.21527" r="11.72159" gradientUnits="userSpaceOnUse" id="color-17"><stop offset="0" stop-color="#f7f7f7"/><stop offset="1" stop-color="#f7f7f7" stop-opacity="0"/></radialGradient><radialGradient cx="224.90488" cy="167.85961" r="13.82455" gradientUnits="userSpaceOnUse" id="color-18"><stop offset="0" stop-color="#f07070"/><stop offset="1" stop-color="#cf5555"/></radialGradient><radialGradient cx="224.90488" cy="167.85961" r="11.92468" gradientUnits="userSpaceOnUse" id="color-19"><stop offset="0" stop-color="#ff9d9d"/><stop offset="1" stop-color="#ff9d9d" stop-opacity="0"/></radialGradient><radialGradient cx="224.90488" cy="167.85961" r="11.92468" gradientUnits="userSpaceOnUse" id="color-20"><stop offset="0" stop-color="#ff9d9d"/><stop offset="1" stop-color="#ff9d9d" stop-opacity="0"/></radialGradient><radialGradient cx="168.91536" cy="167.43697" r="13.5891" gradientUnits="userSpaceOnUse" id="color-21"><stop offset="0" stop-color="#f7f7f7"/><stop offset="1" stop-color="#cecece"/></radialGradient><radialGradient cx="168.91536" cy="167.43697" r="11.72159" gradientUnits="userSpaceOnUse" id="color-22"><stop offset="0" stop-color="#f7f7f7"/><stop offset="1" stop-color="#f7f7f7" stop-opacity="0"/></radialGradient><radialGradient cx="197.01384" cy="167.68679" r="13.82456" gradientUnits="userSpaceOnUse" id="color-23"><stop offset="0" stop-color="#f07070"/><stop offset="1" stop-color="#cf5555"/></radialGradient><radialGradient cx="197.01384" cy="167.68679" r="11.92469" gradientUnits="userSpaceOnUse" id="color-24"><stop offset="0" stop-color="#ff9d9d"/><stop offset="1" stop-color="#ff9d9d" stop-opacity="0"/></radialGradient><radialGradient cx="197.01384" cy="167.68679" r="11.92469" gradientUnits="userSpaceOnUse" id="color-25"><stop offset="0" stop-color="#ff9d9d"/><stop offset="1" stop-color="#ff9d9d" stop-opacity="0"/></radialGradient><radialGradient cx="196.70279" cy="191.53417" r="13.82455" gradientUnits="userSpaceOnUse" id="color-26"><stop offset="0" stop-color="#f07070"/><stop offset="1" stop-color="#cf5555"/></radialGradient><radialGradient cx="196.70279" cy="191.53417" r="11.92468" gradientUnits="userSpaceOnUse" id="color-27"><stop offset="0" stop-color="#ff9d9d"/><stop offset="1" stop-color="#ff9d9d" stop-opacity="0"/></radialGradient><radialGradient cx="196.70279" cy="191.53417" r="11.92468" gradientUnits="userSpaceOnUse" id="color-28"><stop offset="0" stop-color="#ff9d9d"/><stop offset="1" stop-color="#ff9d9d" stop-opacity="0"/></radialGradient><radialGradient cx="168.77711" cy="191.21527" r="13.58909" gradientUnits="userSpaceOnUse" id="color-29"><stop offset="0" stop-color="#f7f7f7"/><stop offset="1" stop-color="#cecece"/></radialGradient><radialGradient cx="168.77711" cy="191.21527" r="11.72159" gradientUnits="userSpaceOnUse" id="color-30"><stop offset="0" stop-color="#f7f7f7"/><stop offset="1" stop-color="#f7f7f7" stop-opacity="0"/></radialGradient><radialGradient cx="141.4045" cy="167.43697" r="13.5891" gradientUnits="userSpaceOnUse" id="color-31"><stop offset="0" stop-color="#f7f7f7"/><stop offset="1" stop-color="#cecece"/></radialGradient><radialGradient cx="141.4045" cy="167.43697" r="11.72159" gradientUnits="userSpaceOnUse" id="color-32"><stop offset="0" stop-color="#f7f7f7"/><stop offset="1" stop-color="#f7f7f7" stop-opacity="0"/></radialGradient><radialGradient cx="141.26625" cy="191.21527" r="13.5891" gradientUnits="userSpaceOnUse" id="color-33"><stop offset="0" stop-color="#f7f7f7"/><stop offset="1" stop-color="#cecece"/></radialGradient><radialGradient cx="141.26625" cy="191.21527" r="11.72159" gradientUnits="userSpaceOnUse" id="color-34"><stop offset="0" stop-color="#f7f7f7"/><stop offset="1" stop-color="#f7f7f7" stop-opacity="0"/></radialGradient><radialGradient cx="338.49835" cy="191.56332" r="13.82455" gradientUnits="userSpaceOnUse" id="color-35"><stop offset="0" stop-color="#f07070"/><stop offset="1" stop-color="#cf5555"/></radialGradient><radialGradient cx="338.49835" cy="191.56332" r="11.92469" gradientUnits="userSpaceOnUse" id="color-36"><stop offset="0" stop-color="#ff9d9d"/><stop offset="1" stop-color="#ff9d9d" stop-opacity="0"/></radialGradient><radialGradient cx="338.49835" cy="191.56332" r="11.92469" gradientUnits="userSpaceOnUse" id="color-37"><stop offset="0" stop-color="#ff9d9d"/><stop offset="1" stop-color="#ff9d9d" stop-opacity="0"/></radialGradient><radialGradient cx="224.79849" cy="192.32771" r="13.82455" gradientUnits="userSpaceOnUse" id="color-38"><stop offset="0" stop-color="#f07070"/><stop offset="1" stop-color="#cf5555"/></radialGradient><radialGradient cx="224.79849" cy="192.32771" r="11.92468" gradientUnits="userSpaceOnUse" id="color-39"><stop offset="0" stop-color="#ff9d9d"/><stop offset="1" stop-color="#ff9d9d" stop-opacity="0"/></radialGradient><radialGradient cx="224.79849" cy="192.32771" r="11.92468" gradientUnits="userSpaceOnUse" id="color-40"><stop offset="0" stop-color="#ff9d9d"/><stop offset="1" stop-color="#ff9d9d" stop-opacity="0"/></radialGradient><radialGradient cx="240" cy="180" r="70.53571" gradientUnits="userSpaceOnUse" id="color-41"><stop offset="0" stop-color="#a59962"/><stop offset="1" stop-color="#a59962" stop-opacity="0"/></radialGradient><radialGradient cx="240" cy="180" r="56.67698" gradientUnits="userSpaceOnUse" id="color-42"><stop offset="0" stop-color="#69613d"/><stop offset="1" stop-color="#bcae6d"/></radialGradient><radialGradient cx="240" cy="180" r="55.67458" gradientUnits="userSpaceOnUse" id="color-43"><stop offset="0" stop-color="#fff3bb"/><stop offset="1" stop-color="#fff3bb" stop-opacity="0"/></radialGradient><radialGradient cx="240.00001" cy="180.00001" r="55.55255" gradientUnits="userSpaceOnUse" id="color-44"><stop offset="0" stop-color="#add0d3"/><stop offset="1" stop-color="#92d1d7"/></radialGradient><radialGradient cx="201.61386" cy="187.87595" r="9.55479" gradientUnits="userSpaceOnUse" id="color-45"><stop offset="0" stop-color="#c9faff"/><stop offset="1" stop-color="#c9faff" stop-opacity="0"/></radialGradient><radialGradient cx="203.94263" cy="175.4102" r="9.5548" gradientUnits="userSpaceOnUse" id="color-46"><stop offset="0" stop-color="#c9faff"/><stop offset="1" stop-color="#c9faff" stop-opacity="0"/></radialGradient><radialGradient cx="216.33988" cy="185.75266" r="9.5548" gradientUnits="userSpaceOnUse" id="color-47"><stop offset="0" stop-color="#c9faff"/><stop offset="1" stop-color="#c9faff" stop-opacity="0"/></radialGradient><radialGradient cx="261.68235" cy="164.88506" r="9.5548" gradientUnits="userSpaceOnUse" id="color-48"><stop offset="0" stop-color="#c9faff"/><stop offset="1" stop-color="#c9faff" stop-opacity="0"/></radialGradient><radialGradient cx="264.01112" cy="148.60657" r="9.5548" gradientUnits="userSpaceOnUse" id="color-49"><stop offset="0" stop-color="#c9faff"/><stop offset="1" stop-color="#c9faff" stop-opacity="0"/></radialGradient><radialGradient cx="276.40838" cy="162.11235" r="9.5548" gradientUnits="userSpaceOnUse" id="color-50"><stop offset="0" stop-color="#c9faff"/><stop offset="1" stop-color="#c9faff" stop-opacity="0"/></radialGradient><radialGradient cx="279.62755" cy="200.09054" r="9.5548" gradientUnits="userSpaceOnUse" id="color-51"><stop offset="0" stop-color="#c9faff"/><stop offset="1" stop-color="#c9faff" stop-opacity="0"/></radialGradient></defs><g transform="translate(-143.856,-88.27642)"><g data-paper-data="{&quot;isPaintingLayer&quot;:true}" fill-rule="nonzero" stroke-width="0" stroke-linecap="butt" stroke-linejoin="miter" stroke-miterlimit="10" stroke-dasharray="" stroke-dashoffset="0" style="mix-blend-mode: normal"><path d="M173.9834,180c0,-36.30366 29.42992,-65.73358 65.73358,-65.73358c36.30365,0 65.73358,29.42992 65.73358,65.73358c0,36.30366 -29.42993,65.73358 -65.73358,65.73358c-36.30366,0 -65.73358,-29.42992 -65.73358,-65.73358z" fill="#cebe77" stroke="none"/><g><g><path d="" fill="url(#color-1)" stroke="#bfbfbf"/><path d="" fill="url(#color-2)" stroke="none"/><path d="" fill="#a3a3a3" stroke="none"/><path d="" fill="url(#color-3)" stroke="none"/><path d="" fill="#323232" stroke="none"/></g><g><path d="" fill="url(#color-4)" stroke="#bfbfbf"/><path d="" fill="url(#color-5)" stroke="none"/><path d="" fill="#a3a3a3" stroke="none"/><path d="" fill="#323232" stroke="none"/></g><g><path d="" fill="url(#color-6)" stroke="#bfbfbf"/><path d="" fill="url(#color-7)" stroke="none"/><path d="" fill="#a3a3a3" stroke="none"/><path d="" fill="url(#color-8)" stroke="none"/><path d="" fill="#323232" stroke="none"/></g><g><path d="" fill="url(#color-9)" stroke="#bfbfbf"/><path d="" fill="url(#color-10)" stroke="none"/><path d="" fill="#a3a3a3" stroke="none"/><path d="" fill="url(#color-11)" stroke="none"/><path d="" fill="#323232" stroke="none"/></g><g><path d="" fill="url(#color-12)" stroke="#bfbfbf"/><path d="" fill="url(#color-13)" stroke="none"/><path d="" fill="#a3a3a3" stroke="none"/><path d="" fill="#323232" stroke="none"/></g><g><path d="" fill="url(#color-14)" stroke="#bfbfbf"/><path d="" fill="url(#color-15)" stroke="none"/><path d="" fill="#a3a3a3" stroke="none"/><path d="" fill="#323232" stroke="none"/></g><g><path d="" fill="url(#color-16)" stroke="#bfbfbf"/><path d="" fill="url(#color-17)" stroke="none"/><path d="" fill="#a3a3a3" stroke="none"/><path d="" fill="#323232" stroke="none"/></g><g><path d="" fill="url(#color-18)" stroke="#bfbfbf"/><path d="" fill="url(#color-19)" stroke="none"/><path d="" fill="#a3a3a3" stroke="none"/><path d="" fill="url(#color-20)" stroke="none"/><path d="" fill="#323232" stroke="none"/></g><g><path d="" fill="url(#color-21)" stroke="#bfbfbf"/><path d="" fill="url(#color-22)" stroke="none"/><path d="" fill="#a3a3a3" stroke="none"/><path d="" fill="#323232" stroke="none"/></g><g><path d="" fill="url(#color-23)" stroke="#bfbfbf"/><path d="" fill="url(#color-24)" stroke="none"/><path d="" fill="#a3a3a3" stroke="none"/><path d="" fill="url(#color-25)" stroke="none"/><path d="" fill="#323232" stroke="none"/></g><g><path d="" fill="url(#color-26)" stroke="#bfbfbf"/><path d="" fill="url(#color-27)" stroke="none"/><path d="" fill="#a3a3a3" stroke="none"/><path d="" fill="url(#color-28)" stroke="none"/><path d="" fill="#323232" stroke="none"/></g><g><path d="" fill="url(#color-29)" stroke="#bfbfbf"/><path d="" fill="url(#color-30)" stroke="none"/><path d="" fill="#a3a3a3" stroke="none"/><path d="" fill="#323232" stroke="none"/></g><g><path d="" fill="url(#color-31)" stroke="#bfbfbf"/><path d="" fill="url(#color-32)" stroke="none"/><path d="" fill="#a3a3a3" stroke="none"/><path d="" fill="#323232" stroke="none"/></g><g><path d="" fill="url(#color-33)" stroke="#bfbfbf"/><path d="" fill="url(#color-34)" stroke="none"/><path d="" fill="#a3a3a3" stroke="none"/><path d="" fill="#323232" stroke="none"/></g><g><path d="" fill="url(#color-35)" stroke="#bfbfbf"/><path d="" fill="url(#color-36)" stroke="none"/><path d="" fill="#a3a3a3" stroke="none"/><path d="" fill="url(#color-37)" stroke="none"/><path d="" fill="#323232" stroke="none"/></g><g><path d="" fill="url(#color-38)" stroke="#bfbfbf"/><path d="" fill="url(#color-39)" stroke="none"/><path d="" fill="#a3a3a3" stroke="none"/><path d="" fill="url(#color-40)" stroke="none"/><path d="" fill="#323232" stroke="none"/></g></g><path d="M169.46429,180c0,-38.9558 31.57991,-70.53571 70.53571,-70.53571c38.9558,0 70.53571,31.57991 70.53571,70.53571c0,38.9558 -31.57991,70.53571 -70.53571,70.53571c-38.9558,0 -70.53571,-31.57991 -70.53571,-70.53571z" fill="url(#color-41)" stroke="none"/><path d="M175.54407,180c0,-35.59804 28.8579,-64.45593 64.45593,-64.45593c35.59804,0 64.45593,28.8579 64.45593,64.45593c0,35.59804 -28.8579,64.45593 -64.45593,64.45593c-35.59804,0 -64.45593,-28.8579 -64.45593,-64.45593z" fill="#f4e28e" stroke="none"/><path d="M181.31823,180c0,-32.40905 26.27272,-58.68176 58.68177,-58.68176c32.40905,0 58.68177,26.27271 58.68177,58.68177c0,32.40905 -26.27272,58.68177 -58.68177,58.68177c-32.40905,0 -58.68177,-26.27272 -58.68177,-58.68177z" fill="#cabb75" stroke="none"/><path d="M183.32302,180c0,-31.30184 25.37514,-56.67698 56.67698,-56.67698c31.30183,0 56.67698,25.37514 56.67698,56.67698c0,31.30184 -25.37515,56.67698 -56.67698,56.67698c-31.30184,0 -56.67698,-25.37514 -56.67698,-56.67698z" fill="url(#color-42)" stroke="none"/><path d="M184.32542,180c0,-30.74823 24.92635,-55.67458 55.67458,-55.67458c30.74822,0 55.67458,24.92635 55.67458,55.67458c0,30.74823 -24.92636,55.67458 -55.67458,55.67458c-30.74823,0 -55.67458,-24.92635 -55.67458,-55.67458z" fill="url(#color-43)" stroke="none"/><path d="M184.44745,180.00001c0,-30.68083 24.87172,-55.55255 55.55255,-55.55255c30.68083,0 55.55255,24.87172 55.55255,55.55255c0,30.68083 -24.87172,55.55255 -55.55255,55.55255c-30.68083,0 -55.55255,-24.87172 -55.55255,-55.55255z" fill="url(#color-44)" stroke="none"/><path d="M192.05907,187.87595c0,-5.27697 4.27783,-9.55479 9.55479,-9.55479c5.27697,0 9.55479,4.27783 9.55479,9.55479c0,5.27697 -4.27783,9.55479 -9.55479,9.55479c-5.27697,0 -9.55479,-4.27783 -9.55479,-9.55479z" fill="url(#color-45)" stroke="none"/><path d="M194.38783,175.4102c0,-5.27696 4.27783,-9.55479 9.55479,-9.55479c5.27696,0 9.5548,4.27783 9.5548,9.55479c0,5.27696 -4.27783,9.5548 -9.5548,9.5548c-5.27696,0 -9.55479,-4.27783 -9.55479,-9.5548z" fill="url(#color-46)" stroke="none"/><path d="M206.78509,185.75266c0,-5.27696 4.27783,-9.55479 9.55479,-9.55479c5.27696,0 9.5548,4.27783 9.5548,9.55479c0,5.27696 -4.27783,9.5548 -9.5548,9.5548c-5.27696,0 -9.55479,-4.27783 -9.55479,-9.5548z" fill="url(#color-47)" stroke="none"/><path d="M252.12756,164.88506c0,-6.89096 4.27783,-12.47719 9.55479,-12.47719c5.27697,0 9.5548,5.58623 9.5548,12.47719c0,6.89096 -4.27783,12.47719 -9.5548,12.47719c-5.27696,0 -9.55479,-5.58623 -9.55479,-12.47719z" fill="url(#color-48)" stroke="none"/><path d="M254.45632,148.60657c0,-6.89096 4.27783,-12.47719 9.55479,-12.47719c5.27696,0 9.5548,5.58623 9.5548,12.47719c0,6.89096 -4.27783,12.47719 -9.5548,12.47719c-5.27697,0 -9.55479,-5.58623 -9.55479,-12.47719z" fill="url(#color-49)" stroke="none"/><path d="M266.85358,162.11235c0,-6.89096 4.27783,-12.47719 9.5548,-12.47719c5.27697,0 9.5548,5.58623 9.5548,12.47719c0,6.89096 -4.27783,12.47719 -9.5548,12.47719c-5.27696,0 -9.5548,-5.58623 -9.5548,-12.47719z" fill="url(#color-50)" stroke="none"/><path d="M270.07276,200.09054c0,-6.89096 4.27783,-12.47719 9.55479,-12.47719c5.27697,0 9.5548,5.58623 9.5548,12.47719c0,6.89096 -4.27783,12.4772 -9.5548,12.4772c-5.27697,0 -9.55479,-5.58624 -9.55479,-12.4772z" fill="url(#color-51)" stroke="none"/><path d="M143.856,273.93379v-185.65737h192.28799v185.65737z" fill="none" stroke="none"/></g></g></svg>