<svg version="1.1" xmlns="http://www.w3.org/2000/svg" xmlns:xlink="http://www.w3.org/1999/xlink" width="49.06447" height="42.07399" viewBox="0,0,49.06447,42.07399"><defs><linearGradient x1="5446.76264" y1="-1687.86073" x2="5446.76264" y2="1046.94902" gradientUnits="userSpaceOnUse" id="color-1"><stop offset="0" stop-color="#000000"/><stop offset="1" stop-color="#000000" stop-opacity="0"/></linearGradient></defs><g transform="translate(-215.46776,-158.96301)"><g data-paper-data="{&quot;isPaintingLayer&quot;:true}" fill-rule="nonzero" stroke-width="0" stroke-linecap="butt" stroke-linejoin="miter" stroke-miterlimit="10" stroke-dasharray="" stroke-dashoffset="0" style="mix-blend-mode: normal"><path d="M215.46777,188.24808c0,-6.94306 0,-14.87932 0,-18.74689c0,-4.45193 4.79724,-10.53818 11.13097,-10.53818c32.39615,0 -40.91283,0 23.82007,0c9.01598,0 14.11343,6.15222 14.11343,13.09457c0,6.16911 0,12.96215 0,16.61657c0,5.01009 -4.4579,12.36285 -12.40916,12.36285c-61.49571,0 8.09015,0 -25.09826,0c-6.55741,0 -11.55703,-5.90649 -11.55703,-12.78892z" fill="url(#color-1)" stroke="none"/><path d="M218.0205,181.48848l26.21416,-13.777l16.95821,11.61908l-26.21415,13.777c0,0 -0.20106,-0.13776 -0.46816,-0.32077c-1.58523,-1.08614 -16.49005,-11.29832 -16.49005,-11.29832z" fill="#8e8e8e" stroke="#f7f7f7"/><path d="M218.54317,181.59304l-2.70323,-1.49291l26.74169,-13.6959l1.89635,1.37858z" fill="#aaaaaa" stroke="none"/><path d="M235.86049,193.52837l-2.58889,-1.49291l26.74169,-13.46722l1.89635,1.26423z" fill="#aaaaaa" stroke="none"/><path d="M227.70688,187.39414l-1.83974,-1.21318l8.42318,-4.4674l1.72693,1.22751z" fill="#e2d326" stroke="none"/><path d="M241.70688,179.59414l-1.83974,-1.21318l8.42318,-4.4674l1.72693,1.22751z" fill="#e2d326" stroke="none"/></g></g></svg>