<svg version="1.1" xmlns="http://www.w3.org/2000/svg" xmlns:xlink="http://www.w3.org/1999/xlink" width="52.9227" height="49.43896" viewBox="0,0,52.9227,49.43896"><defs><linearGradient x1="6242.93337" y1="-2002.8529" x2="6242.93337" y2="1192.94981" gradientUnits="userSpaceOnUse" id="color-1"><stop offset="0" stop-color="#000000"/><stop offset="1" stop-color="#000000" stop-opacity="0"/></linearGradient></defs><g transform="translate(-213.53865,-155.28052)"><g data-paper-data="{&quot;isPaintingLayer&quot;:true}" fill-rule="nonzero" stroke="none" stroke-width="0" stroke-linecap="butt" stroke-linejoin="miter" stroke-miterlimit="10" stroke-dasharray="" stroke-dashoffset="0" style="mix-blend-mode: normal"><path d="M213.53865,155.28052h52.56782l0.35488,49.16619l-52.37715,0.27277z" fill="url(#color-1)"/><path d="M234.56054,191.83048c-0.08009,-1.96425 -0.13545,-6.36596 -0.13545,-6.36596h10.83569c0,0 0,4.33651 0,6.23053c0,2.88734 -1.96598,4.87606 -3.92793,4.87606c-1.18434,0 -2.36721,0 -3.11526,0c-0.86313,0 -3.5216,-1.41881 -3.65704,-4.74062z" fill="#c68a23"/><path d="M247.91963,187.64636c-5.29764,0 -12.27085,0 -15.415,0c-3.12725,0 -5.78129,-2.14483 -3.70465,-4.89786c2.81483,-3.73165 6.47255,-8.58072 8.08642,-10.72018c1.5576,-2.06491 5.53805,-2.07393 6.96799,-0.01348c1.41753,2.04266 4.55349,6.56153 7.09093,10.21783c2.07952,2.9965 0.8033,5.41369 -3.02565,5.41369z" data-paper-data="{&quot;index&quot;:null}" fill="#56d346"/><path d="M246.28092,177.58065c-4.36593,0 -10.11275,0 -12.70392,0c-2.57725,0 -4.76452,-1.76761 -3.0531,-4.03646c2.31978,-3.07535 5.3342,-7.07161 6.66424,-8.8348c1.28366,-1.70175 4.56406,-1.70918 5.74251,-0.01111c1.16822,1.68341 3.75265,5.40754 5.84382,8.4208c1.71379,2.4695 0.66202,4.46157 -2.49352,4.46157z" data-paper-data="{&quot;index&quot;:null}" fill="#59dc49"/></g></g></svg>