<svg version="1.1" xmlns="http://www.w3.org/2000/svg" xmlns:xlink="http://www.w3.org/1999/xlink" width="484.97563" height="360.53869" viewBox="0,0,484.97563,360.53869"><defs><linearGradient x1="368.64352" y1="179.97265" x2="364.99034" y2="179.97265" gradientUnits="userSpaceOnUse" id="color-1"><stop offset="0" stop-color="#000000" stop-opacity="0"/><stop offset="1" stop-color="#000000"/></linearGradient><radialGradient cx="164.20552" cy="132.37806" r="41.77974" gradientUnits="userSpaceOnUse" id="color-2"><stop offset="0" stop-color="#d5d5d5"/><stop offset="1" stop-color="#c2c2c2"/></radialGradient><radialGradient cx="164.99573" cy="133.63916" r="40.98949" gradientUnits="userSpaceOnUse" id="color-3"><stop offset="0" stop-color="#000000"/><stop offset="1" stop-color="#000000" stop-opacity="0"/></radialGradient><radialGradient cx="164.20552" cy="227.62193" r="41.77974" gradientUnits="userSpaceOnUse" id="color-4"><stop offset="0" stop-color="#d5d5d5"/><stop offset="1" stop-color="#c2c2c2"/></radialGradient><radialGradient cx="164.99575" cy="226.34292" r="40.98949" gradientUnits="userSpaceOnUse" id="color-5"><stop offset="0" stop-color="#000000"/><stop offset="1" stop-color="#000000" stop-opacity="0"/></radialGradient><radialGradient cx="242.74619" cy="179.99102" r="122.40479" gradientUnits="userSpaceOnUse" id="color-6"><stop offset="0" stop-color="#f0f0f0"/><stop offset="1" stop-color="#cccccc"/></radialGradient><linearGradient x1="298.3411" y1="180" x2="277.93717" y2="180" gradientUnits="userSpaceOnUse" id="color-7"><stop offset="0" stop-color="#262626"/><stop offset="1" stop-color="#262626" stop-opacity="0"/></linearGradient><linearGradient x1="362.32318" y1="207.5859" x2="293.88138" y2="207.5859" gradientUnits="userSpaceOnUse" id="color-8"><stop offset="0" stop-color="#aeaeae"/><stop offset="1" stop-color="#aeaeae" stop-opacity="0"/></linearGradient><linearGradient x1="362.3232" y1="152.39614" x2="293.8814" y2="152.39614" gradientUnits="userSpaceOnUse" id="color-9"><stop offset="0" stop-color="#a8a8a8"/><stop offset="1" stop-color="#a8a8a8" stop-opacity="0"/></linearGradient><linearGradient x1="138.19727" y1="179.97266" x2="127.33138" y2="179.97266" gradientUnits="userSpaceOnUse" id="color-10"><stop offset="0" stop-color="#000000" stop-opacity="0"/><stop offset="1" stop-color="#000000"/></linearGradient><linearGradient x1="190.90881" y1="179.99102" x2="131.75752" y2="179.99102" gradientUnits="userSpaceOnUse" id="color-11"><stop offset="0" stop-color="#3b3b3b"/><stop offset="1" stop-color="#3b3b3b" stop-opacity="0"/></linearGradient><linearGradient x1="190.90881" y1="179.99102" x2="131.75752" y2="179.99102" gradientUnits="userSpaceOnUse" id="color-12"><stop offset="0" stop-color="#000000"/><stop offset="1" stop-color="#000000" stop-opacity="0"/></linearGradient><linearGradient x1="366.27859" y1="179.99102" x2="362.04081" y2="179.99102" gradientUnits="userSpaceOnUse" id="color-13"><stop offset="0" stop-color="#6e6e6e"/><stop offset="1" stop-color="#363636"/></linearGradient><radialGradient cx="303.86071" cy="196.4105" r="1.00786" gradientUnits="userSpaceOnUse" id="color-14"><stop offset="0" stop-color="#5a5a5a"/><stop offset="1" stop-color="#0c0c0c"/></radialGradient><radialGradient cx="118.05736" cy="216.18725" r="5.53667" gradientUnits="userSpaceOnUse" id="color-15"><stop offset="0" stop-color="#fc0204"/><stop offset="1" stop-color="#770505"/></radialGradient><linearGradient x1="117.44653" y1="206.09743" x2="115.52689" y2="206.09743" gradientUnits="userSpaceOnUse" id="color-16"><stop offset="0" stop-color="#fc0204"/><stop offset="1" stop-color="#770505"/></linearGradient><linearGradient x1="116.92415" y1="205.90221" x2="116.00547" y2="205.90221" gradientUnits="userSpaceOnUse" id="color-17"><stop offset="0" stop-color="#ff6406"/><stop offset="1" stop-color="#f02500"/></linearGradient><radialGradient cx="221.30907" cy="206.92068" r="30.51021" gradientUnits="userSpaceOnUse" id="color-18"><stop offset="0" stop-color="#ababab"/><stop offset="1" stop-color="#ababab" stop-opacity="0"/></radialGradient><linearGradient x1="199.8093" y1="211.43822" x2="199.8093" y2="220.67022" gradientUnits="userSpaceOnUse" id="color-19"><stop offset="0" stop-color="#4c4c4c"/><stop offset="1" stop-color="#1a1a1a"/></linearGradient><linearGradient x1="240.49478" y1="211.52266" x2="240.49478" y2="222.18078" gradientUnits="userSpaceOnUse" id="color-20"><stop offset="0" stop-color="#4c4c4c"/><stop offset="1" stop-color="#1a1a1a"/></linearGradient><radialGradient cx="303.86071" cy="163.57155" r="1.00786" gradientUnits="userSpaceOnUse" id="color-21"><stop offset="0" stop-color="#5a5a5a"/><stop offset="1" stop-color="#0c0c0c"/></radialGradient><radialGradient cx="118.05736" cy="143.79479" r="5.53667" gradientUnits="userSpaceOnUse" id="color-22"><stop offset="0" stop-color="#fc0204"/><stop offset="1" stop-color="#770505"/></radialGradient><linearGradient x1="117.44653" y1="153.88463" x2="115.52689" y2="153.88463" gradientUnits="userSpaceOnUse" id="color-23"><stop offset="0" stop-color="#fc0204"/><stop offset="1" stop-color="#770505"/></linearGradient><linearGradient x1="116.92415" y1="154.07983" x2="116.00547" y2="154.07983" gradientUnits="userSpaceOnUse" id="color-24"><stop offset="0" stop-color="#ff6406"/><stop offset="1" stop-color="#f02500"/></linearGradient><radialGradient cx="221.30907" cy="153.06139" r="30.51021" gradientUnits="userSpaceOnUse" id="color-25"><stop offset="0" stop-color="#ababab"/><stop offset="1" stop-color="#ababab" stop-opacity="0"/></radialGradient><linearGradient x1="185.84209" y1="179.99101" x2="149.3231" y2="179.99101" gradientUnits="userSpaceOnUse" id="color-26"><stop offset="0" stop-color="#4c4c4c"/><stop offset="1" stop-color="#1a1a1a"/></linearGradient><linearGradient x1="131.65676" y1="179.99101" x2="120.43301" y2="179.99101" gradientUnits="userSpaceOnUse" id="color-27"><stop offset="0" stop-color="#3869dc"/><stop offset="1" stop-color="#315cc3"/></linearGradient><linearGradient x1="199.8093" y1="139.31184" x2="199.8093" y2="148.54387" gradientUnits="userSpaceOnUse" id="color-28"><stop offset="0" stop-color="#1a1a1a"/><stop offset="1" stop-color="#4c4c4c"/></linearGradient><linearGradient x1="240.49478" y1="137.80128" x2="240.49478" y2="148.4594" gradientUnits="userSpaceOnUse" id="color-29"><stop offset="0" stop-color="#1a1a1a"/><stop offset="1" stop-color="#4c4c4c"/></linearGradient><linearGradient x1="290.78274" y1="179.99102" x2="255.11312" y2="179.99102" gradientUnits="userSpaceOnUse" id="color-30"><stop offset="0" stop-color="#1a1a1a"/><stop offset="1" stop-color="#4c4c4c"/></linearGradient><linearGradient x1="296.41638" y1="179.99102" x2="284.32226" y2="179.99102" gradientUnits="userSpaceOnUse" id="color-31"><stop offset="0" stop-color="#000000"/><stop offset="1" stop-color="#000000" stop-opacity="0"/></linearGradient><linearGradient x1="122.01351" y1="179.99101" x2="117.34079" y2="179.99101" gradientUnits="userSpaceOnUse" id="color-32"><stop offset="0" stop-color="#10234f"/><stop offset="1" stop-color="#162f6c"/></linearGradient><radialGradient cx="319.43649" cy="228.5505" r="20.52339" gradientUnits="userSpaceOnUse" id="color-33"><stop offset="0" stop-color="#dbdbdb"/><stop offset="1" stop-color="#dbdbdb" stop-opacity="0"/></radialGradient><radialGradient cx="319.43649" cy="228.5505" r="20.52339" gradientUnits="userSpaceOnUse" id="color-34"><stop offset="0" stop-color="#000000"/><stop offset="1" stop-color="#000000" stop-opacity="0"/></radialGradient><radialGradient cx="319.43649" cy="131.4495" r="20.52339" gradientUnits="userSpaceOnUse" id="color-35"><stop offset="0" stop-color="#d8d8d8"/><stop offset="1" stop-color="#d8d8d8" stop-opacity="0"/></radialGradient><radialGradient cx="319.43649" cy="131.4495" r="20.52339" gradientUnits="userSpaceOnUse" id="color-36"><stop offset="0" stop-color="#000000"/><stop offset="1" stop-color="#000000" stop-opacity="0"/></radialGradient><radialGradient cx="355.31128" cy="147.06784" r="10.9875" gradientUnits="userSpaceOnUse" id="color-37"><stop offset="0" stop-color="#4c4c4c"/><stop offset="1" stop-color="#0c0c0c"/></radialGradient><linearGradient x1="360.83551" y1="152.90882" x2="356.39748" y2="152.90882" gradientUnits="userSpaceOnUse" id="color-38"><stop offset="0" stop-color="#fefefe"/><stop offset="1" stop-color="#b3b3b3"/></linearGradient><linearGradient x1="353.49948" y1="149.22888" x2="353.49948" y2="142.19369" gradientUnits="userSpaceOnUse" id="color-39"><stop offset="0" stop-color="#4c4c4c"/><stop offset="1" stop-color="#0c0c0c"/></linearGradient><radialGradient cx="355.17893" cy="146.09054" r="3.69279" gradientUnits="userSpaceOnUse" id="color-40"><stop offset="0" stop-color="#fefefe"/><stop offset="1" stop-color="#808080"/></radialGradient><linearGradient x1="349.11363" y1="143.42865" x2="349.11363" y2="136.63811" gradientUnits="userSpaceOnUse" id="color-41"><stop offset="0" stop-color="#4c4c4c"/><stop offset="1" stop-color="#0c0c0c"/></linearGradient><linearGradient x1="352.84621" y1="141.01098" x2="351.11228" y2="141.01098" gradientUnits="userSpaceOnUse" id="color-42"><stop offset="0" stop-color="#fefefe"/><stop offset="1" stop-color="#808080"/></linearGradient><radialGradient cx="355.31128" cy="212.93217" r="10.9875" gradientUnits="userSpaceOnUse" id="color-43"><stop offset="0" stop-color="#4c4c4c"/><stop offset="1" stop-color="#0c0c0c"/></radialGradient><linearGradient x1="360.83551" y1="207.09117" x2="356.39748" y2="207.09117" gradientUnits="userSpaceOnUse" id="color-44"><stop offset="0" stop-color="#fefefe"/><stop offset="1" stop-color="#b3b3b3"/></linearGradient><linearGradient x1="353.49948" y1="210.77109" x2="353.49948" y2="217.80632" gradientUnits="userSpaceOnUse" id="color-45"><stop offset="0" stop-color="#4c4c4c"/><stop offset="1" stop-color="#0c0c0c"/></linearGradient><radialGradient cx="355.17893" cy="213.90945" r="3.69279" gradientUnits="userSpaceOnUse" id="color-46"><stop offset="0" stop-color="#fefefe"/><stop offset="1" stop-color="#808080"/></radialGradient><linearGradient x1="349.11363" y1="216.57135" x2="349.11363" y2="223.36186" gradientUnits="userSpaceOnUse" id="color-47"><stop offset="0" stop-color="#4c4c4c"/><stop offset="1" stop-color="#0c0c0c"/></linearGradient><linearGradient x1="352.84621" y1="218.98899" x2="351.11228" y2="218.98899" gradientUnits="userSpaceOnUse" id="color-48"><stop offset="0" stop-color="#fefefe"/><stop offset="1" stop-color="#808080"/></linearGradient><linearGradient x1="363.9539" y1="170.82392" x2="298.27224" y2="170.82392" gradientUnits="userSpaceOnUse" id="color-49"><stop offset="0" stop-color="#3f79ff"/><stop offset="1" stop-color="#6f93e8"/></linearGradient><linearGradient x1="364.22936" y1="188.67105" x2="297.44331" y2="188.67105" gradientUnits="userSpaceOnUse" id="color-50"><stop offset="0" stop-color="#3f79ff"/><stop offset="1" stop-color="#6f93e8"/></linearGradient></defs><g transform="translate(2.63138,-1.09611)"><g data-paper-data="{&quot;isPaintingLayer&quot;:true}" fill-rule="nonzero" stroke-width="0" stroke-linejoin="miter" stroke-miterlimit="10" stroke-dasharray="" stroke-dashoffset="0" style="mix-blend-mode: normal"><path d="M110.05678,179.98989c0,0 0.26492,-12.47397 0.57691,-18.22056c0.14231,-2.62123 0.49766,-9.4163 1.53708,-15.19459c0.53465,-2.9722 1.25995,-5.66825 1.9256,-7.61319c0.2317,-0.67699 1.12093,-2.25044 2.22546,-2.95249c1.6962,-1.07809 22.60269,-4.96881 25.38793,-5.28961c5.31597,-0.61227 10.70356,-1.0354 15.58076,-1.3278c10.47564,-0.62802 18.59682,-0.65281 18.59682,-0.65281c0,0 6.4081,-0.4458 14.02002,0.25069c5.50992,0.50419 11.58519,2.18471 16.63107,2.29552c4.31991,0.09486 25.14423,-0.48831 45.35293,-0.64574c12.24824,-0.0954 23.74865,0.3069 32.70598,0.1335c3.28948,-0.06369 11.8567,-0.69581 12.65592,-0.73969c2.65241,-0.14562 4.28576,-1.54435 7.39175,-1.80526c3.7786,-0.31742 32.11955,-0.13489 34.18808,0.43205c1.75275,0.48038 2.47544,2.00591 4.64784,3.16122c2.6877,1.42935 6.70942,1.52179 9.4294,3.06966c1.25361,0.7134 3.22919,1.82178 4.68637,3.94857c3.39604,4.95664 6.4123,13.05406 8.36388,17.44647c0.73438,1.65288 1.77209,1.37863 2.18026,2.81853c1.57843,5.56861 1.8024,20.48094 1.8024,20.48094v0.81152c0,0 -0.22397,14.91232 -1.8024,20.48094c-0.40813,1.43991 -1.44585,1.16564 -2.18026,2.81853c-1.95156,4.39243 -4.96785,12.48984 -8.36388,17.44647c-1.45716,2.12678 -3.43276,3.23516 -4.68637,3.94857c-2.71998,1.54788 -6.74172,1.64031 -9.4294,3.06965c-2.17239,1.1553 -2.89509,2.68084 -4.64784,3.16122c-2.06855,0.56693 -30.40951,0.74947 -34.18809,0.43205c-3.106,-0.26093 -4.73935,-1.65965 -7.39175,-1.80526c-0.79924,-0.04387 -9.36643,-0.676 -12.65592,-0.73969c-8.95731,-0.1734 -20.45773,0.2289 -32.70598,0.13349c-20.20869,-0.15742 -41.03302,-0.74061 -45.35293,-0.64574c-5.04587,0.11081 -11.12113,1.79136 -16.63107,2.29552c-7.61191,0.69651 -14.02002,0.25069 -14.02002,0.25069c0,0 -8.12119,-0.02481 -18.59682,-0.65283c-4.87723,-0.29239 -10.2648,-0.71552 -15.58076,-1.3278c-2.78524,-0.32079 -23.69173,-4.21152 -25.38793,-5.28961c-1.10453,-0.70204 -1.99375,-2.27549 -2.22546,-2.95249c-0.66566,-1.94493 -1.39096,-4.64098 -1.9256,-7.61319c-1.03942,-5.77828 -1.39476,-12.57336 -1.53708,-15.19459c-0.312,-5.74659 -0.57691,-18.22056 -0.57691,-18.22056z" data-paper-data="{&quot;index&quot;:null}" fill="#a5a5a5" stroke="#000000" stroke-linecap="round"/><path d="M366.18482,179.90793c0,0 -0.09591,-6.11855 -0.27335,-9.17941c-0.17757,-3.06296 -0.92111,-9.70967 -0.92111,-9.70967l1.32388,-0.78048c0,0 1.53051,4.20986 1.8417,6.85492c0.42763,3.63471 0.48761,12.94404 0.48761,12.94404v-0.1294c0,0 -0.05998,9.30933 -0.48761,12.94403c-0.31118,2.64507 -1.8417,6.85494 -1.8417,6.85494l-1.32388,-0.78048c0,0 0.74353,-6.64671 0.92111,-9.70967c0.17744,-3.06086 0.27335,-9.17941 0.27335,-9.17941z" data-paper-data="{&quot;index&quot;:null}" fill="url(#color-1)" stroke="none" stroke-linecap="round"/><path d="M164.86946,128.17756c7.29412,-0.29976 16.32644,-0.47081 20.30981,-0.34292c4.71146,0.15125 9.89884,1.95062 13.91538,2.57853c4.03657,0.63103 6.89059,1.00059 6.89059,1.00059c0,0 -32.97581,0.60005 -47.54051,1.41135c-12.5863,0.70111 -34.43846,3.03941 -34.43846,3.03941l0.04321,-0.60112l-1.62371,0.15155c0,0 11.44038,-3.41509 17.13958,-4.41043c5.02786,-0.87812 14.60752,-2.20942 14.60752,-2.20942z" data-paper-data="{&quot;index&quot;:null}" fill="url(#color-2)" stroke="none" stroke-linecap="round"/><path d="M124.00625,135.86453c0,0 21.85218,-2.33831 34.43846,-3.03941c14.5647,-0.81129 47.54051,-1.41135 47.54051,-1.41135" data-paper-data="{&quot;index&quot;:null}" fill="none" stroke="url(#color-3)" stroke-linecap="round"/><path d="M122.42578,135.41496c0,0 11.44038,-2.45982 17.13958,-3.45516c5.02786,-0.87812 14.60752,-2.20942 14.60752,-2.20942" data-paper-data="{&quot;index&quot;:null}" fill="none" stroke="#000000" stroke-linecap="round"/><path d="M154.17294,230.96607c0,0 -9.57966,-1.33133 -14.60752,-2.20942c-5.69921,-0.99535 -17.13958,-4.17162 -17.13958,-4.17162l1.62371,0.15155l-0.04321,-0.60112c0,0 21.85218,2.33831 34.43846,3.03941c14.5647,0.81129 47.54051,1.41135 47.54051,1.41135c0,0 -2.85404,0.36954 -6.89059,1.00059c-4.01654,0.62792 -9.20392,2.18846 -13.91538,2.33972c-3.98336,0.12787 -13.01566,-0.04313 -20.30981,-0.34292c-5.92096,-0.24334 -10.69658,-0.61754 -10.69658,-0.61754z" data-paper-data="{&quot;index&quot;:null}" fill="url(#color-4)" stroke="none" stroke-linecap="round"/><path d="M205.98527,228.56828c0,0 -32.97581,-0.60005 -47.54051,-1.41135c-12.5863,-0.7011 -34.43846,-3.03941 -34.43846,-3.03941" data-paper-data="{&quot;index&quot;:null}" fill="none" stroke="url(#color-5)" stroke-linecap="round"/><path d="M129.1827,180.09958l-4.76744,-7.92298l-4.07385,-31.46444c0,0 0.15426,-1.42006 0.09351,-2.13562l0.06682,-0.0146c0,0 16.17932,-0.99822 32.69943,-1.70276c9.39944,-0.40085 19.00211,-0.61541 25.56527,-0.72516c16.75128,-0.28009 46.59695,0.67459 46.59695,0.67459l48.6514,-0.98906c0,0 10.06214,-0.00404 21.57482,0.23668c10.26846,0.2147 21.69088,0.65167 28.15684,1.02631c9.67705,0.56068 24.75719,3.05287 24.75719,3.05287l8.61819,8.3465c0,0 2.82286,3.51263 3.84566,5.5973c1.2947,2.63885 3.30089,8.96879 3.30089,8.96879l0.88264,16.36893v1.1481l-0.88264,16.36893c0,0 -2.00619,6.32997 -3.30089,8.96879c-1.0228,2.08465 -3.84566,5.59729 -3.84566,5.59729l-8.61819,8.3465c0,0 -15.08016,2.49221 -24.75719,3.05287c-6.46598,0.37464 -17.8884,0.81162 -28.15686,1.02631c-11.5127,0.24071 -21.57482,0.23668 -21.57482,0.23668l-48.6514,-0.98906c0,0 -29.84568,0.95468 -46.59695,0.67459c-6.56316,-0.10975 -16.16586,-0.3243 -25.56527,-0.72516c-16.52011,-0.70454 -32.69943,-1.70276 -32.69943,-1.70276l-0.06682,-0.0146c0.06075,-0.71556 -0.09351,-2.13562 -0.09351,-2.13562l4.07385,-31.46444l4.76744,-7.92298z" data-paper-data="{&quot;index&quot;:null}" fill="url(#color-6)" stroke="none" stroke-linecap="round"/><path d="M287.91603,179.80234c0,0 -1.21132,-36.80583 -2.33657,-39.99005c-1.12055,-3.1709 -7.64229,-3.99172 -7.64229,-3.99172c0,0 3.97682,0.13894 6.62942,1.13919c0.97763,0.36865 3.71389,1.82529 5.73357,4.66714c2.45777,3.45828 4.15647,8.37488 4.15647,8.37488c0,0 2.15507,8.87806 2.77727,13.7193c0.27405,2.1323 0.78034,5.16481 0.95716,8.13635c0.24802,4.16815 0.1137,8.08576 0.1137,8.08576v0.11359c0,0 0.1343,3.9176 -0.1137,8.08576c-0.17681,2.97154 -0.68311,6.00405 -0.95716,8.13635c-0.62219,4.84123 -2.77727,13.7193 -2.77727,13.7193c0,0 -1.6987,4.9166 -4.15647,8.37488c-2.0197,2.84184 -4.75595,4.29849 -5.73357,4.66714c-2.6526,1.00026 -6.62942,1.13919 -6.62942,1.13919c0,0 6.52174,-0.82081 7.64229,-3.99172c1.12524,-3.18421 2.33657,-39.99003 2.33657,-39.99003z" data-paper-data="{&quot;index&quot;:null}" fill="url(#color-7)" stroke="none" stroke-linecap="round"/><path d="M361.77345,202.39336c0,0 -13.11281,2.78394 -26.95236,5.44051c-10.35577,1.98785 -21.25671,3.83657 -26.6219,4.76384c-8.22809,1.42207 -14.31781,1.52944 -14.31781,1.52944c0,0 2.79567,-1.08487 6.39519,-1.77291c5.13681,-0.9819 20.52997,-3.65414 34.53565,-6.19604c14.48672,-2.62921 27.51097,-5.11358 27.51097,-5.11358z" data-paper-data="{&quot;index&quot;:null}" fill="url(#color-8)" stroke="none" stroke-linecap="round"/><path d="M362.3232,158.93739c0,0 -13.02424,-2.48436 -27.51097,-5.11358c-14.00569,-2.54189 -29.39885,-5.21415 -34.53565,-6.19605c-3.59952,-0.68804 -6.39519,-1.77289 -6.39519,-1.77289c0,0 6.08974,0.10737 14.31781,1.52944c5.36518,0.92726 16.26613,2.77598 26.6219,4.76384c13.83955,2.65658 26.95236,5.44052 26.95236,5.44052z" data-paper-data="{&quot;index&quot;:null}" fill="url(#color-9)" stroke="none" stroke-linecap="round"/><path d="M209.81964,137.5855c0,0 -2.38195,-2.69358 -2.76908,-3.66062c-0.41693,-1.04151 0.35025,-2.3816 0.35025,-2.3816" data-paper-data="{&quot;index&quot;:null}" fill="none" stroke="#000000" stroke-linecap="round"/><path d="M131.75748,212.11041c0,0 6.97985,1.81348 13.54997,3.54223c4.60701,1.21221 10.48683,2.43938 14.16645,2.37228c4.33661,-0.07911 16.54547,-3.48348 25.13591,-6.21898c2.05996,-0.65596 3.77716,-1.46229 5.18833,-2.09029c1.31733,-0.58623 4.78332,-1.04386 5.7868,-1.05782c9.9392,-0.13843 32.38194,-0.53289 44.95211,0.2793c6.98417,0.45127 11.07608,2.95208 11.07608,2.95208c0,0 1.95951,1.174 5.05627,2.49272c3.73723,1.59147 8.94254,3.45523 11.89672,4.52608c4.65699,1.6881 13.55721,4.04064 13.55721,4.04064c0,0 -1.81231,0.94644 -4.04947,0.91602c-10.82155,-0.14712 -94.75138,-2.25934 -94.75138,-2.25934c0,0 -13.85268,-0.3711 -21.84095,-1.6037c-3.7205,-0.57408 -9.40976,-1.5297 -14.63177,-2.72829c-7.82373,-1.79573 -14.87236,-3.86819 -14.87236,-3.86819l-1.87125,-0.70401z" data-paper-data="{&quot;index&quot;:null}" fill="#a5a5a5" stroke="#082874" stroke-linecap="round"/><path d="M207.40082,228.43881c0,0 -0.76719,-1.34011 -0.35025,-2.3816c0.38713,-0.96705 2.76908,-3.66062 2.76908,-3.66062" data-paper-data="{&quot;index&quot;:null}" fill="none" stroke="#000000" stroke-linecap="round"/><path d="M130.10617,147.2809l1.87125,-0.70401c0,0 7.04862,-2.07246 14.87236,-3.86819c5.22201,-1.19857 10.91127,-2.1542 14.63177,-2.7283c7.98828,-1.23261 21.84095,-1.60369 21.84095,-1.60369c0,0 83.92983,-2.11219 94.75138,-2.25934c2.23715,-0.03043 4.04947,0.91602 4.04947,0.91602c0,0 -8.90022,2.35255 -13.55721,4.04064c-2.95418,1.07083 -8.15951,2.93462 -11.89672,4.52608c-3.09677,1.31873 -5.05627,2.49272 -5.05627,2.49272c0,0 -4.0919,2.50081 -11.07608,2.95208c-12.57016,0.81218 -35.01291,0.41772 -44.95211,0.2793c-1.00347,-0.01396 -4.46948,-0.47158 -5.7868,-1.05782c-1.41116,-0.62802 -3.12837,-1.43432 -5.18833,-2.09029c-8.59044,-2.7355 -20.79931,-6.13988 -25.13591,-6.21897c-3.6796,-0.06712 -9.55941,1.16004 -14.16645,2.37228c-6.57013,1.72875 -13.54997,3.54223 -13.54997,3.54223z" data-paper-data="{&quot;index&quot;:null}" fill="#a5a5a5" stroke="#082874" stroke-linecap="round"/><path d="M278.53635,223.58343c0,0 -23.2518,0.19044 -46.29052,-0.08271c-19.39337,-0.22992 -38.60374,-0.91413 -43.98624,-1.06473c-1.91914,-0.05369 -6.07751,-0.49129 -6.32125,-1.75374c-0.11579,-0.59973 2.18428,-1.88689 3.17751,-2.47518c3.9046,-2.3127 11.42461,-5.79707 14.49362,-6.77877c6.03664,-1.93095 17.24681,-1.65572 17.24681,-1.65572c0,0 25.95931,0.44021 29.51403,1.23615c4.15255,0.9298 8.98053,4.29499 14.4361,6.49276c8.74922,3.52458 17.72997,6.08191 17.72997,6.08191z" data-paper-data="{&quot;index&quot;:null}" fill="#333333" stroke="#000000" stroke-linecap="round"/><path d="M283.37005,222.28585c0,0 -1.1789,0.7731 -2.10517,1.05085c-0.95751,0.28713 -3.7063,0.79882 -3.7063,0.79882" data-paper-data="{&quot;index&quot;:null}" fill="none" stroke="#000000" stroke-linecap="round"/><path d="M278.53632,136.39862c0,0 -8.98075,2.5573 -17.72997,6.08191c-5.45559,2.19777 -10.28356,5.56296 -14.4361,6.49276c-3.55472,0.79594 -29.51403,1.23615 -29.51403,1.23615c0,0 -11.21018,0.27525 -17.24681,-1.65572c-3.069,-0.9817 -10.58903,-4.46607 -14.49362,-6.77877c-0.99322,-0.58831 -3.29331,-1.87546 -3.17751,-2.47518c0.24373,-1.26246 4.40213,-1.70005 6.32125,-1.75374c5.38254,-0.15058 24.59288,-0.83479 43.98624,-1.06473c23.03874,-0.27315 46.29052,-0.08271 46.29052,-0.08271z" data-paper-data="{&quot;index&quot;:null}" fill="#333333" stroke="#000000" stroke-linecap="round"/><path d="M127.33139,219.4843v-79.02333h10.86588v79.02333z" data-paper-data="{&quot;index&quot;:null}" fill="url(#color-10)" stroke="none" stroke-linecap="butt"/><path d="M296.55383,180.12704c0,0 -0.24813,7.76121 -1.24284,15.74623c-0.67703,5.43471 -1.92119,11.0455 -2.8051,14.10122c-0.94682,3.27319 -2.52754,6.49717 -4.41505,8.77196c-1.6104,1.94081 -3.90597,3.46042 -3.90597,3.46042c0,0 -4.91139,-0.58336 -8.70916,-1.86544c-4.80825,-1.62321 -16.99768,-6.57083 -22.54611,-8.84167c-1.74105,-0.71257 -2.06085,-2.9477 -1.40716,-4.748c1.05877,-2.91586 2.26559,-6.74459 2.76279,-9.62083c0.92081,-5.32668 1.03863,-17.00391 1.03863,-17.00391v-0.27202c0,0 -0.11785,-11.67721 -1.03863,-17.00391c-0.49721,-2.87624 -1.70403,-6.70497 -2.76279,-9.62083c-0.65369,-1.80031 -0.3339,-4.03542 1.40716,-4.748c5.54843,-2.27082 17.73785,-7.21846 22.5461,-8.84167c3.79777,-1.28207 8.70916,-1.86544 8.70916,-1.86544c0,0 2.29558,1.51961 3.90597,3.46042c1.88753,2.27478 3.46824,5.49876 4.41505,8.77196c0.8839,3.05571 2.12808,8.66651 2.8051,14.10122c0.99473,7.98505 1.24284,15.74625 1.24284,15.74625z" data-paper-data="{&quot;index&quot;:null}" fill="#333333" stroke="#000000" stroke-linecap="round"/><path d="M131.75752,147.87164c0,0 6.97985,-1.81348 13.54997,-3.54223c4.60701,-1.21221 10.48683,-2.43938 14.16645,-2.37228c6.34728,0.11578 15.14136,3.42964 22.78152,5.44271c5.02931,1.32514 8.6534,3.24134 8.6534,4.89557c0,4.75373 0,27.62163 0,27.62163v0.14795c0,0 0,22.8679 0,27.62163c0,1.65422 -3.62408,3.57041 -8.6534,4.89557c-7.64015,2.01308 -16.43423,5.32693 -22.78152,5.4427c-3.6796,0.06711 -9.55941,-1.16006 -14.16645,-2.37228c-6.57013,-1.72875 -13.54997,-3.54223 -13.54997,-3.54223" data-paper-data="{&quot;index&quot;:null}" fill="url(#color-11)" stroke="url(#color-12)" stroke-linecap="round"/><path d="M365.95767,180.06861c0,0 0.05422,6.71357 -0.38529,11.78198c-0.29438,3.39485 -0.94509,5.38235 -0.92048,6.60792c0.01135,0.56491 0.70288,0.81657 1.18033,0.9273c0.46737,0.10842 0.5612,0.44016 0.31206,0.84555c-0.23599,0.38398 -0.55216,0.81011 -0.88869,1.01391c-0.7403,0.44825 -3.21476,0.76242 -3.21476,0.76242c0,0 1.39337,-4.19646 1.70093,-7.01749c0.43885,-4.02501 0.68124,-14.83165 0.68124,-14.83165v-0.33497c0,0 -0.2424,-10.80663 -0.68124,-14.83165c-0.30758,-2.82102 -1.70093,-7.01749 -1.70093,-7.01749c0,0 2.47449,0.31416 3.21476,0.76242c0.33654,0.20378 0.65272,0.62994 0.88869,1.01391c0.24915,0.40539 0.15532,0.73715 -0.31206,0.84555c-0.47744,0.11074 -1.16901,0.3624 -1.18033,0.9273c-0.02461,1.22555 0.6261,3.21306 0.92048,6.60792c0.4395,5.06839 0.38529,11.78197 0.38529,11.78197z" data-paper-data="{&quot;index&quot;:null}" fill="url(#color-13)" stroke="#000000" stroke-linecap="round"/><path d="M333.0882,230.98247c0,0 4.37191,-2.25201 7.87177,-3.89082c1.9922,-0.93284 3.70184,-1.54546 4.16174,-1.73533c2.23476,-0.92267 4.55011,-2.19637 4.55011,-2.19637" data-paper-data="{&quot;index&quot;:null}" fill="none" stroke="#000000" stroke-linecap="round"/><path d="M155.0364,215.93769c-0.50212,0.91622 -1.41092,2.68942 -2.65977,2.82348c-4.24572,0.45571 -20.26182,-1.01853 -20.26182,-1.01853" data-paper-data="{&quot;index&quot;:null}" fill="none" stroke="#000000" stroke-linecap="round"/><path d="M131.29021,200.38918c0,0 0.75405,0.65153 1.25584,1.75105c0.57808,1.26668 0.91129,3.03968 0.85145,3.64379c-0.11181,1.12846 -2.74868,0.6294 -2.74868,0.6294z" data-paper-data="{&quot;index&quot;:null}" fill="#232323" stroke="#000000" stroke-linecap="round"/><path d="M303.54002,197.08485c-0.3795,0 -0.68716,-0.30191 -0.68716,-0.67435c0,-0.37245 0.30766,-0.67435 0.68716,-0.67435c0.3795,0 1.32852,0.30191 1.32852,0.67435c0,0.37245 -0.94901,0.67435 -1.32852,0.67435z" data-paper-data="{&quot;index&quot;:null}" fill="url(#color-14)" stroke="#000000" stroke-linecap="butt"/><path d="M113.99655,199.16637c0,0 0.49483,0.29231 1.22437,1.3136c1.59267,2.22958 4.3039,6.57891 5.42729,9.38788c1.70365,4.25988 3.38097,14.72174 3.38097,14.72174c0,0 -4.91769,0.28819 -6.25445,-3.0543c-0.94129,-2.35362 -2.45263,-8.05101 -3.07849,-13.14917c-0.59915,-4.88072 -0.6997,-9.21973 -0.6997,-9.21973z" data-paper-data="{&quot;index&quot;:null}" fill="none" stroke="#000000" stroke-linecap="round"/><path d="M120.34137,219.26987c0,0 0.15426,1.42006 0.09351,2.13563c-0.0614,0.723 -0.73486,2.09035 -0.73486,2.09035" data-paper-data="{&quot;index&quot;:null}" fill="none" stroke="#000000" stroke-linecap="round"/><path d="M350.01541,218.22817c0,0 -10.47379,1.32724 -22.63298,2.28526c-11.56671,0.91135 -24.69777,1.45012 -30.29335,1.66178c-5.87279,0.22214 -11.25504,-1.51937 -11.25504,-1.51937" data-paper-data="{&quot;index&quot;:null}" fill="none" stroke="#000000" stroke-linecap="round"/><path d="M284.54803,229.13644c0,0 -2.06221,-1.68331 -2.94478,-2.57858c-0.84341,-0.85553 -2.23843,-2.67927 -2.23843,-2.67927" data-paper-data="{&quot;index&quot;:null}" fill="none" stroke="#000000" stroke-linecap="round"/><path d="M119.21674,215.90986c0.64863,2.99682 0.6554,5.55043 0.01509,5.70363c-0.64028,0.1532 -1.68515,-2.15203 -2.33378,-5.14883c-0.64863,-2.99682 -0.6554,-5.55043 -0.01509,-5.70363c0.64028,-0.1532 1.68515,2.15203 2.33378,5.14883z" data-paper-data="{&quot;index&quot;:null}" fill="url(#color-15)" stroke="#000000" stroke-linecap="butt"/><path d="M117.24977,205.9976c0.32152,2.36646 0.24054,4.32953 -0.18086,4.38467c-0.42141,0.05513 -1.02369,-1.81855 -1.3452,-4.185c-0.32152,-2.36646 -0.24055,-4.32954 0.18085,-4.38468c0.42141,-0.05513 1.02369,1.81856 1.3452,4.185z" data-paper-data="{&quot;index&quot;:null}" fill="url(#color-16)" stroke="#000000" stroke-linecap="butt"/><path d="M116.78461,205.8594c0.18206,1.30976 0.18647,2.39073 0.00983,2.41437c-0.17665,0.02363 -0.46745,-1.01897 -0.64952,-2.32874c-0.18206,-1.30976 -0.18647,-2.39073 -0.00983,-2.41437c0.17665,-0.02363 0.46744,1.01897 0.64952,2.32874z" data-paper-data="{&quot;index&quot;:null}" fill="url(#color-17)" stroke="#000000" stroke-linecap="butt"/><path d="M118.48346,215.9295c0.50024,2.15452 0.67023,3.95378 0.37967,4.01874c-0.29058,0.06497 -0.93168,-1.62894 -1.43192,-3.78347c-0.50024,-2.15452 -0.67023,-3.95379 -0.37967,-4.01875c0.29058,-0.06497 0.93168,1.62894 1.43192,3.78347z" data-paper-data="{&quot;index&quot;:null}" fill="none" stroke="#000000" stroke-linecap="butt"/><path d="M231.58055,207.63641c-6.99709,-0.21034 -22.75348,-0.69444 -32.43468,-1.18123c-5.64032,-0.28361 -8.34701,-0.71069 -8.34701,-0.71069c0,0 25.06848,-0.11954 35.93935,0.20723c9.18316,0.27604 25.08105,2.16651 25.08105,2.16651c0,0 -11.56349,-0.22104 -20.23872,-0.4818z" data-paper-data="{&quot;index&quot;:null}" fill="url(#color-18)" stroke="none" stroke-linecap="round"/><path d="M154.17289,230.2317c0,0 -9.57966,-1.33133 -14.60752,-2.20942c-5.69921,-0.99535 -17.13958,-3.45516 -17.13958,-3.45516" data-paper-data="{&quot;index&quot;:null}" fill="none" stroke="#000000" stroke-linecap="round"/><path d="M216.46822,215.55138c-0.75754,1.81941 -2.47061,6.19781 -2.47061,6.19781c0,0 -22.32841,-0.84762 -26.51249,-1.2486c-0.71851,-0.06885 -1.55646,-0.35798 -1.47994,-1.01228c0.06961,-0.59528 5.03923,-2.81343 6.23898,-3.31272c3.16781,-1.31828 10.97866,-4.35292 10.97866,-4.35292l8.35594,-0.1079h6.5968c0,0 -1.11136,2.40513 -1.70738,3.8366z" data-paper-data="{&quot;index&quot;:null}" fill="#1a1a1a" stroke="#000000" stroke-linecap="round"/><path d="M211.57876,211.60688l-3.95807,9.06335c0,0 -14.35657,-0.34653 -18.02381,-0.71816c-1.99652,-0.20231 -1.76084,-1.5489 -1.01397,-1.90566c2.94837,-1.4083 10.59258,-4.99383 14.06031,-5.99928c3.55774,-1.03155 8.93554,-0.44025 8.93554,-0.44025z" data-paper-data="{&quot;index&quot;:null}" fill="url(#color-19)" stroke="#000000" stroke-linecap="round"/><path d="M209.81963,221.31762c0,0 2.03306,-4.34115 3.00147,-6.08346c0.7074,-1.27273 2.27598,-3.41148 2.27598,-3.41148" data-paper-data="{&quot;index&quot;:null}" fill="none" stroke="#000000" stroke-linecap="round"/><path d="M208.94007,221.31762c0,0 1.27293,-3.07587 2.08801,-4.64006c0.83371,-1.59997 2.8596,-4.85486 2.8596,-4.85486" data-paper-data="{&quot;index&quot;:null}" fill="none" stroke="#000000" stroke-linecap="round"/><path d="M266.99193,222.18078l-52.9943,-0.43159l4.06804,-10.03442c0,0 18.47804,-0.74796 26.51457,0.70777c3.53245,0.63986 8.19869,2.79491 12.19108,4.46112c4.62866,1.93177 8.35155,3.35498 8.35155,3.35498z" data-paper-data="{&quot;index&quot;:null}" fill="url(#color-20)" stroke="#000000" stroke-linecap="round"/><path d="M256.97304,179.98988c0,0 -0.08311,-9.28501 -0.80729,-14.00888c-0.56724,-3.70022 -2.19525,-10.14822 -3.14788,-13.78227c-0.42647,-1.62686 0.80956,-3.20178 2.36527,-3.72342c4.845,-1.62452 29.90118,-10.02576 29.90118,-10.02576c0,0 3.05255,2.45168 4.86248,5.78947c1.98175,3.65467 2.77443,8.37172 3.73229,12.09605c1.78515,6.94095 2.53731,24.46406 2.53731,24.46406v-1.61617c0,0 -0.75217,17.5231 -2.53731,24.46404c-0.95787,3.72433 -1.75054,8.44137 -3.73229,12.09606c-1.80993,3.3378 -4.86248,5.78947 -4.86248,5.78947c0,0 -25.05619,-8.40127 -29.90118,-10.02577c-1.5557,-0.52162 -2.79173,-2.09657 -2.36527,-3.7234c0.95262,-3.63405 2.58062,-10.08207 3.14788,-13.78227c0.72415,-4.72387 0.80729,-14.00888 0.80729,-14.00888z" data-paper-data="{&quot;index&quot;:null}" fill="#1a1a1a" stroke="#000000" stroke-linecap="round"/><path d="M349.67182,136.82213c0,0 -2.31535,-1.27369 -4.55011,-2.19637c-0.4599,-0.18987 -2.16954,-0.80248 -4.16174,-1.73533c-3.49986,-1.63881 -7.87177,-3.89082 -7.87177,-3.89082" data-paper-data="{&quot;index&quot;:null}" fill="none" stroke="#000000" stroke-linecap="round"/><path d="M364.57189,161.66086c0,0 -0.46707,-1.14369 -0.32696,-1.5676c0.13456,-0.40715 1.15155,-1.06239 1.15155,-1.06239" data-paper-data="{&quot;index&quot;:null}" fill="none" stroke="#000000" stroke-linecap="round"/><path d="M362.37298,158.76115c0,0 0.69032,0.24871 1.03452,0.40633c0.34296,0.15706 1.02698,0.53776 1.02698,0.53776" data-paper-data="{&quot;index&quot;:null}" fill="none" stroke="#000000" stroke-linecap="round"/><path d="M132.11484,142.23945c0,0 16.01611,-1.47426 20.26182,-1.01853c1.24884,0.13405 2.15764,1.90728 2.65975,2.82348" data-paper-data="{&quot;index&quot;:null}" fill="none" stroke="#000000" stroke-linecap="round"/><path d="M130.6489,153.56862c0,0 2.63687,-0.49908 2.74868,0.6294c0.05985,0.60409 -0.27338,2.37712 -0.85145,3.64379c-0.50181,1.09956 -1.25584,1.75105 -1.25584,1.75105z" data-paper-data="{&quot;index&quot;:null}" fill="#222222" stroke="#000000" stroke-linecap="round"/><path d="M304.86853,163.57155c0,0.37245 -0.94901,0.67435 -1.32852,0.67435c-0.3795,0 -0.68716,-0.30191 -0.68716,-0.67435c0,-0.37245 0.30766,-0.67435 0.68716,-0.67435c0.3795,0 1.32852,0.30191 1.32852,0.67435z" data-paper-data="{&quot;index&quot;:null}" fill="url(#color-21)" stroke="#000000" stroke-linecap="butt"/><path d="M113.99655,160.8157c0,0 0.10054,-4.33901 0.6997,-9.21973c0.62585,-5.09815 2.1372,-10.79554 3.07849,-13.14917c1.33677,-3.34251 6.25445,-3.0543 6.25445,-3.0543c0,0 -1.67732,10.46185 -3.38097,14.72174c-1.12341,2.80897 -3.83463,7.15832 -5.42729,9.38788c-0.72954,1.02129 -1.22437,1.31361 -1.22437,1.31361z" data-paper-data="{&quot;index&quot;:null}" fill="none" stroke="#000000" stroke-linecap="round"/><path d="M119.70002,136.48619c0,0 0.67346,1.36735 0.73486,2.09035c0.06075,0.71556 -0.09351,2.13562 -0.09351,2.13562" data-paper-data="{&quot;index&quot;:null}" fill="none" stroke="#000000" stroke-linecap="round"/><path d="M115.48541,200.65765c0,0 -0.9104,-5.68831 -1.10875,-8.81661c-0.22569,-3.55943 -0.17397,-11.41408 -0.17397,-11.41408v-0.87192c0,0 -0.05172,-7.85465 0.17396,-11.41407c0.19835,-3.12831 1.10875,-8.81661 1.10875,-8.81661" data-paper-data="{&quot;index&quot;:null}" fill="none" stroke="#000000" stroke-linecap="round"/><path d="M285.83404,139.32621c0,0 5.38224,-1.74151 11.25504,-1.51937c5.59558,0.21166 18.72664,0.75043 30.29335,1.66178c12.15918,0.95802 22.63298,2.28526 22.63298,2.28526" data-paper-data="{&quot;index&quot;:null}" fill="none" stroke="#000000" stroke-linecap="round"/><path d="M277.55857,135.84653c0,0 2.74881,0.51168 3.7063,0.7988c0.92627,0.27775 2.10517,1.05085 2.10517,1.05085" data-paper-data="{&quot;index&quot;:null}" fill="none" stroke="#000000" stroke-linecap="round"/><path d="M123.93757,224.70391c0,0 -4.38395,1.32716 -6.66982,-2.49264c-0.86325,-1.44254 -3.10788,-9.45219 -3.92811,-18.75649c-0.98107,-11.12864 -0.70106,-23.17168 -0.70106,-23.17168v-0.58415c0,0 -0.28,-12.04303 0.70106,-23.17168c0.82023,-9.3043 3.06485,-17.31397 3.92811,-18.75649c2.28586,-3.81979 6.66982,-2.49264 6.66982,-2.49264" data-paper-data="{&quot;index&quot;:null}" fill="none" stroke="#000000" stroke-linecap="round"/><path d="M114.05213,199.16507c0,0 -0.87782,-5.21685 -0.97346,-8.09128c-0.11137,-3.34727 -0.28307,-10.7907 -0.28307,-10.7907v-0.58415c0,0 0.17169,-7.44342 0.28307,-10.7907c0.09565,-2.87441 0.97346,-8.09127 0.97346,-8.09127" data-paper-data="{&quot;index&quot;:null}" fill="none" stroke="#000000" stroke-linecap="round"/><path d="M116.88295,149.22104c-0.64028,-0.1532 -0.63353,-2.7068 0.01509,-5.70363c0.64863,-2.99682 1.6935,-5.30204 2.33378,-5.14884c0.64028,0.1532 0.63353,2.7068 -0.01509,5.70363c-0.64863,2.99682 -1.6935,5.30204 -2.33378,5.14883z" data-paper-data="{&quot;index&quot;:null}" fill="url(#color-22)" stroke="#000000" stroke-linecap="butt"/><path d="M117.24974,153.98448c-0.32152,2.36646 -0.9238,4.24014 -1.3452,4.185c-0.42141,-0.05513 -0.50239,-2.01823 -0.18085,-4.38468c0.32152,-2.36646 0.92379,-4.24016 1.3452,-4.185c0.42142,0.05513 0.50239,2.01824 0.18086,4.38468z" data-paper-data="{&quot;index&quot;:null}" fill="url(#color-23)" stroke="#000000" stroke-linecap="butt"/><path d="M116.13514,156.45138c-0.17665,-0.02366 -0.17224,-1.10459 0.00983,-2.41437c0.18206,-1.30976 0.47287,-2.3524 0.64952,-2.32874c0.17665,0.02366 0.17224,1.1046 -0.00983,2.41437c-0.18206,1.30976 -0.47287,2.35239 -0.64952,2.32873z" data-paper-data="{&quot;index&quot;:null}" fill="url(#color-24)" stroke="#000000" stroke-linecap="butt"/><path d="M117.05158,147.83605c-0.29058,-0.06499 -0.12059,-1.86425 0.37967,-4.01875c0.50024,-2.15452 1.14135,-3.84844 1.43192,-3.78347c0.29058,0.06499 0.12058,1.86425 -0.37967,4.01875c-0.50024,2.15453 -1.14135,3.84843 -1.43192,3.78347z" data-paper-data="{&quot;index&quot;:null}" fill="none" stroke="#000000" stroke-linecap="butt"/><path d="M251.81927,151.86385c0,0 -15.89788,1.89045 -25.08105,2.16649c-10.87089,0.32679 -35.93935,0.20723 -35.93935,0.20723c0,0 2.70667,-0.42707 8.34701,-0.7107c9.6812,-0.48679 25.43759,-0.97091 32.43468,-1.18123c8.67523,-0.26078 20.23872,-0.4818 20.23872,-0.4818z" data-paper-data="{&quot;index&quot;:null}" fill="url(#color-25)" stroke="none" stroke-linecap="round"/><path d="M146.38041,180.02495c0,0 0.13525,-8.90822 1.14192,-16.34425c0.36218,-2.67531 1.02697,-6.57209 2.30172,-9.87625c1.14597,-2.97036 2.89035,-5.4618 3.55819,-6.1564c2.4433,-2.54117 7.83899,-2.83718 9.1874,-2.54646c3.02348,0.65187 14.97046,3.75391 21.57757,5.35658c2.6587,0.64489 4.45272,2.02404 4.45272,3.23992c0,4.03263 0,26.11107 0,26.11107v0.36373c0,0 0,22.07844 0,26.11107c0,1.21588 -1.79402,2.59501 -4.45272,3.23992c-6.60711,1.60266 -18.55408,4.70471 -21.57757,5.35658c-1.3484,0.29072 -6.7441,-0.00527 -9.1874,-2.54645c-0.66783,-0.6946 -2.41224,-3.18603 -3.55819,-6.1564c-1.27476,-3.30418 -1.93955,-7.20095 -2.30172,-9.87625c-1.00667,-7.43602 -1.14192,-16.34425 -1.14192,-16.34425z" data-paper-data="{&quot;index&quot;:null}" fill="#1a1a1a" stroke="#000000" stroke-linecap="round"/><path d="M185.74134,180.06501c0,0 0.08516,20.97797 0.10073,24.81678c0.0047,1.15983 -3.42806,3.05931 -7.65572,4.01705c-5.13111,1.16241 -18.34818,4.06274 -20.52188,3.32662c-1.40676,-0.47638 -2.61515,-2.112 -3.19837,-2.92903c-1.16481,-1.63179 -1.70679,-4.05827 -2.28592,-5.98151c-0.48477,-1.60987 -1.16583,-4.26039 -1.57069,-6.99426c-0.88884,-6.00197 -1.28643,-12.81787 -1.28643,-12.81787c0,0 1.94914,-0.20664 2.40645,-0.8707c0.42912,-0.62314 0.42912,-4.65902 0,-5.28214c-0.45729,-0.66406 -2.40645,-0.87069 -2.40645,-0.87069c0,0 0.39759,-6.81593 1.28643,-12.81787c0.40487,-2.73387 1.08593,-5.38438 1.57069,-6.99426c0.57912,-1.92322 1.1211,-4.34972 2.28592,-5.98151c0.58323,-0.81704 1.7916,-2.45266 3.19837,-2.92903c2.1737,-0.73609 15.39077,2.16423 20.52188,3.32664c4.22768,0.95774 7.66044,2.85722 7.65572,4.01705c-0.01559,3.83881 -0.10073,24.81678 -0.10073,24.81678" data-paper-data="{&quot;index&quot;:null}" fill="url(#color-26)" stroke="#000000" stroke-linecap="round"/><path d="M132.20645,141.40525v2.02309h-15.94227l0.18324,-2.02309z" data-paper-data="{&quot;index&quot;:null}" fill="#1c3e8e" stroke="#000000" stroke-linecap="butt"/><path d="M130.87798,179.8708c0,0 0.00219,13.40067 0.13525,19.70721c0.12615,5.97926 0.64354,17.20255 0.64354,17.20255l-9.75777,-0.04497l-1.46595,-36.50514v-0.47883l1.46595,-36.50514l9.75777,-0.04497c0,0 -0.51739,11.22328 -0.64354,17.20254c-0.13307,6.30655 -0.13525,19.70721 -0.13525,19.70721z" data-paper-data="{&quot;index&quot;:null}" fill="url(#color-27)" stroke="#000000" stroke-linecap="round"/><path d="M218.17561,148.26727h-6.5968l-8.35594,-0.1079c0,0 -7.81086,-3.03465 -10.97866,-4.35292c-1.19975,-0.49927 -6.16937,-2.71743 -6.23898,-3.31272c-0.07653,-0.65431 0.76142,-0.94341 1.47994,-1.01227c4.18407,-0.40098 26.51249,-1.24862 26.51249,-1.24862c0,0 1.71307,4.37842 2.47061,6.19781c0.59602,1.43148 1.70738,3.8366 1.70738,3.8366z" data-paper-data="{&quot;index&quot;:null}" fill="#1a1a1a" stroke="#000000" stroke-linecap="round"/><path d="M202.64322,147.93493c-3.46773,-1.00545 -11.11193,-4.59095 -14.06031,-5.99928c-0.74686,-0.35676 -0.98254,-1.70334 1.01397,-1.90566c3.66725,-0.37161 18.02381,-0.71816 18.02381,-0.71816l3.95807,9.06334c0,0 -5.37781,0.5913 -8.93554,-0.44025z" data-paper-data="{&quot;index&quot;:null}" fill="url(#color-28)" stroke="#000000" stroke-linecap="round"/><path d="M215.09709,148.15939c0,0 -1.56859,-2.13876 -2.27598,-3.41148c-0.96842,-1.74233 -3.00147,-6.08345 -3.00147,-6.08345" data-paper-data="{&quot;index&quot;:null}" fill="none" stroke="#000000" stroke-linecap="round"/><path d="M213.88767,148.15939c0,0 -2.02588,-3.25488 -2.8596,-4.85486c-0.81507,-1.56419 -2.08801,-4.64006 -2.08801,-4.64006" data-paper-data="{&quot;index&quot;:null}" fill="none" stroke="#000000" stroke-linecap="round"/><path d="M265.12283,139.74341c0,0 -3.72286,1.42322 -8.35155,3.35498c-3.99239,1.66621 -8.65864,3.82126 -12.19108,4.46112c-8.03653,1.45574 -26.51457,0.70775 -26.51457,0.70775l-4.06804,-10.03442l52.9943,-0.43159z" data-paper-data="{&quot;index&quot;:null}" fill="url(#color-29)" stroke="#000000" stroke-linecap="round"/><path d="M259.30938,180.25963c0,0 -0.3208,-10.45654 -1.20756,-15.22107c-0.53164,-2.85644 -1.41655,-7.04656 -2.44628,-10.15624c-0.79542,-2.40209 -0.75837,-4.49358 0.39392,-4.84834c2.79963,-0.86194 14.25106,-5.36605 20.85293,-7.39861c2.62494,-0.80816 7.22551,-1.66676 8.04635,1.80329c0.81472,3.44418 3.41317,12.70931 4.68749,20.83645c1.22647,7.82197 1.14538,14.57992 1.14538,14.57992v0.27202c0,0 0.08108,6.75792 -1.14538,14.57992c-1.27432,8.12715 -3.87275,17.39227 -4.68749,20.83645c-0.82086,3.47005 -5.42139,2.61143 -8.04635,1.80329c-6.60187,-2.03256 -18.05331,-6.53667 -20.85293,-7.39861c-1.15228,-0.35476 -1.18934,-2.44624 -0.39392,-4.84834c1.02971,-3.10966 1.91463,-7.29979 2.44628,-10.15623c0.88676,-4.76453 1.20756,-15.22107 1.20756,-15.22107" data-paper-data="{&quot;index&quot;:null}" fill="url(#color-30)" stroke="#000000" stroke-linecap="round"/><path d="M296.41638,179.45268c0,0 -0.22336,4.53314 -0.6946,10.09229c-0.5105,6.02216 -1.31191,13.24836 -2.43542,17.2201c-0.92786,3.28008 -2.16625,7.26229 -4.22179,10.3611c-1.94825,2.9371 -4.74232,5.08065 -4.74232,5.08065v-41.81008v-0.81152v-41.81008c0,0 2.79408,2.14353 4.74231,5.08065c2.05553,3.09883 3.29392,7.08103 4.22179,10.36113c1.12352,3.97175 1.92492,11.19794 2.43542,17.2201c0.47126,5.55915 0.6946,10.09232 0.6946,10.09232z" data-paper-data="{&quot;index&quot;:null}" fill="url(#color-31)" stroke="none" stroke-linecap="round"/><path d="M117.34079,179.92246v-36.81983c0,0 2.1811,-0.08089 3.03815,-0.00667c0.62863,0.05444 1.63459,0.41128 1.63459,0.41128v36.55009v-0.13259v36.55009c0,0 -1.00597,0.35685 -1.63459,0.41128c-0.85703,0.07421 -3.03815,-0.00665 -3.03815,-0.00665v-36.81985z" data-paper-data="{&quot;index&quot;:null}" fill="url(#color-32)" stroke="#000000" stroke-linecap="round"/><path d="M279.36484,136.12139c0,0 1.39504,-1.82373 2.23843,-2.67927c0.88256,-0.89527 2.94478,-2.57858 2.94478,-2.57858" data-paper-data="{&quot;index&quot;:null}" fill="none" stroke="#000000" stroke-linecap="round"/><path d="M275.35966,136.23189c0,0 -1.5991,0.75892 -2.89309,1.2019c-1.86766,0.63935 -7.23772,2.26622 -7.23772,2.26622l2.43454,-3.46811c0,0 1.73591,-0.14226 2.46727,-0.53262c0.7597,-0.40546 2.00912,-1.85653 2.00912,-1.85653c0,0 0.33711,0.79337 0.85004,1.17397c0.55675,0.41311 2.36983,1.21518 2.36983,1.21518z" data-paper-data="{&quot;index&quot;:null}" fill="#8d8d8d" stroke="#000000" stroke-linecap="round"/><path d="M272.98981,224.98327c-0.51295,0.3806 -0.85004,1.17397 -0.85004,1.17397c0,0 -1.24942,-1.45106 -2.00912,-1.85654c-0.73134,-0.39035 -2.46728,-0.53261 -2.46728,-0.53261l-2.43454,-3.46811c0,0 5.37004,1.62686 7.23772,2.26622c1.29398,0.44298 2.89308,1.2019 2.89308,1.2019c0,0 -1.81307,0.80205 -2.36983,1.21518z" data-paper-data="{&quot;index&quot;:null}" fill="#8d8d8d" stroke="#000000" stroke-linecap="round"/><path d="M298.91311,230.08332c0,0 5.52215,-2.57463 11.04724,-3.59105c2.25634,-0.41507 12.40919,-0.5809 19.75339,-0.22668c6.39876,0.30862 10.24611,1.12031 10.24611,1.12031l-0.06515,0.2102c-3.26119,1.56012 -6.80654,4.1028 -6.80654,4.1028c0,0 -21.56242,0.12514 -27.6854,-0.03595c-3.15692,-0.08304 -6.4897,-1.57963 -6.4897,-1.57963z" data-paper-data="{&quot;index&quot;:null}" fill="url(#color-33)" stroke="url(#color-34)" stroke-linecap="round"/><path d="M298.91311,129.91668c0,0 3.33277,-1.49659 6.4897,-1.57962c6.12297,-0.16109 27.6854,-0.03595 27.6854,-0.03595c0,0 3.54534,2.54272 6.80654,4.1028l0.06515,0.2102c0,0 -3.84734,0.81168 -10.24611,1.12031c-7.3442,0.35423 -17.49706,0.18841 -19.75339,-0.22668c-5.52512,-1.01641 -11.04724,-4.3075 -11.04724,-4.3075z" data-paper-data="{&quot;index&quot;:null}" fill="url(#color-35)" stroke="url(#color-36)" stroke-linecap="round"/><g data-paper-data="{&quot;index&quot;:null}" stroke-linecap="round"><path d="M264.08852,126.0037c2.67179,1.29673 5.08583,4.05523 5.26009,4.35946c0.88729,1.54908 1.18032,3.54882 0.78566,3.91627c-0.48108,0.44789 -2.8635,0.7373 -2.8635,0.7373c0,0 -2.16958,-0.15013 -2.88459,-1.05229c-0.4984,-0.62882 -0.8714,-2.00923 -1.64644,-3.41811c-1.37169,-2.49345 -3.16525,-5.24032 -3.16525,-5.24032c0,0 2.37374,-0.34108 4.51405,0.6977z" data-paper-data="{&quot;index&quot;:null}" fill="#f2f2f2" stroke="#000000"/><path d="M260.02985,125.31935c0,0 1.14177,-0.27087 2.26445,0.15514c0.24605,0.09335 1.32612,0.24432 2.74916,1.17658c1.50726,0.98741 3.35458,2.75639 3.35458,2.75639c0,0 0.90781,0.83188 1.32511,1.80391c0.3649,0.85002 0.36188,1.76139 0.44238,2.19143c0.15553,0.83108 -0.65576,1.23167 -0.65576,1.23167c0,0 -0.04724,-1.7372 -1.05427,-3.40315c-1.05172,-1.73982 -3.0838,-3.4291 -3.99996,-4.29002c-1.32296,-1.24319 -4.42564,-1.62193 -4.42564,-1.62193z" data-paper-data="{&quot;index&quot;:null}" fill="#a5a5a5" stroke="none"/><path d="M264.08852,126.0037c2.67179,1.29673 5.08583,4.05523 5.26009,4.35946c0.88729,1.54908 1.18032,3.54882 0.78566,3.91627c-0.48108,0.44789 -2.8635,0.7373 -2.8635,0.7373c0,0 -2.16958,-0.15013 -2.88459,-1.05229c-0.4984,-0.62882 -0.8714,-2.00923 -1.64644,-3.41811c-1.37169,-2.49345 -3.16525,-5.24032 -3.16525,-5.24032c0,0 2.37374,-0.34108 4.51405,0.6977z" data-paper-data="{&quot;index&quot;:null}" fill="none" stroke="#000000"/></g><g data-paper-data="{&quot;index&quot;:null}" stroke-linecap="round"><path d="M259.57443,234.69399c0,0 1.79357,-2.74686 3.16525,-5.24033c0.77504,-1.40887 1.14805,-2.78929 1.64644,-3.41811c0.71502,-0.90216 2.88459,-1.05229 2.88459,-1.05229c0,0 2.38241,0.28942 2.8635,0.7373c0.39466,0.36745 0.10162,2.36719 -0.78566,3.91627c-0.17426,0.30422 -2.58827,3.06272 -5.26009,4.35945c-2.1403,1.03877 -4.51405,0.6977 -4.51405,0.6977z" data-paper-data="{&quot;index&quot;:null}" fill="#f9f9f9" stroke="#000000"/><path d="M260.02983,234.68064c0,0 3.10266,-0.37874 4.42564,-1.62193c0.91617,-0.86092 2.94825,-2.55018 3.99996,-4.29002c1.00704,-1.66593 1.05427,-3.40315 1.05427,-3.40315c0,0 0.81133,0.40058 0.65576,1.23167c-0.08049,0.43004 -0.07746,1.34141 -0.44238,2.19143c-0.41728,0.97204 -1.32511,1.80391 -1.32511,1.80391c0,0 -1.84732,1.76896 -3.35458,2.75639c-1.42304,0.93227 -2.50312,1.08323 -2.74916,1.17659c-1.12267,0.426 -2.26445,0.15514 -2.26445,0.15514z" data-paper-data="{&quot;index&quot;:null}" fill="#a5a5a5" stroke="none"/><path d="M259.57443,234.69399c0,0 1.79357,-2.74686 3.16525,-5.24033c0.77504,-1.40887 1.14805,-2.78929 1.64644,-3.41811c0.71502,-0.90216 2.88459,-1.05229 2.88459,-1.05229c0,0 2.38241,0.28942 2.8635,0.7373c0.39466,0.36745 0.10162,2.36719 -0.78566,3.91627c-0.17426,0.30422 -2.58827,3.06272 -5.26009,4.35945c-2.1403,1.03877 -4.51405,0.6977 -4.51405,0.6977z" data-paper-data="{&quot;index&quot;:null}" fill="none" stroke="#000000"/></g><g data-paper-data="{&quot;index&quot;:null}" stroke="#000000"><path d="M361.36615,157.21342c-1.44729,-2.14964 -6.09872,-9.02688 -8.49113,-12.19242c-1.70478,-2.25569 -4.73642,-5.67833 -6.11447,-7.21443c-0.44483,-0.49583 -0.28717,-1.01178 -0.02755,-1.14251c0.33651,-0.16948 1.15902,-0.58375 1.15902,-0.58375c0,0 5.28467,1.53502 7.41365,4.41405c1.44875,1.95915 3.47104,6.23618 5.27115,10.02873c1.91475,4.03408 3.56535,7.53226 3.56535,7.53226c0,0 -1.29218,-0.10304 -1.72127,-0.13728c-0.2563,-0.02044 -0.77422,-0.28802 -1.05473,-0.70465z" data-paper-data="{&quot;index&quot;:null}" fill="url(#color-37)" stroke-linecap="round"/><path d="M356.39748,149.74254c0,0 1.78408,-0.30059 2.37126,0.54411c0.81569,1.17344 2.06678,5.84042 2.06678,5.84042z" fill="url(#color-38)" stroke-linecap="round"/><path d="M350.96069,142.19367l2.93642,0.18352l2.14116,6.85169z" fill="url(#color-39)" stroke-linecap="round"/><path d="M353.25416,143.15984c-0.36385,-1.05242 0.67585,-0.65025 0.8939,-0.75212c0.33114,-0.15471 1.01674,1.51209 1.90864,3.42106c0.89188,1.90896 1.34647,3.58192 1.01533,3.73664c-0.16578,0.07745 -0.43587,0.49385 -0.83728,-0.08228c-0.40042,-0.57474 -2.79189,-5.77746 -2.98059,-6.32329z" fill="url(#color-40)" stroke-linecap="butt"/><path d="M346.97334,136.63812c0,0 1.64646,0.74686 2.35798,1.19626c0.82221,0.51928 2.29136,1.86254 2.29136,1.86254l0.06118,3.73173c0,0 -1.52562,-1.93558 -2.96794,-3.59827c-0.78799,-0.90838 -1.67986,-1.69237 -1.98634,-2.13419c-0.53148,-0.76614 0.24375,-1.05806 0.24375,-1.05806z" fill="url(#color-41)" stroke-linecap="round"/><path d="M351.13328,142.08279c0,0 -0.21548,-2.04572 0.73411,-2.20232c0.53358,-0.08801 0.97882,2.2635 0.97882,2.2635z" fill="url(#color-42)" stroke-linecap="round"/></g><g data-paper-data="{&quot;index&quot;:null}" stroke="#000000"><path d="M361.36615,202.78657c0.28051,-0.41664 0.79845,-0.68423 1.05473,-0.70465c0.42908,-0.03422 1.72127,-0.13728 1.72127,-0.13728c0,0 -1.65059,3.49817 -3.56535,7.53226c-1.80011,3.79256 -3.8224,8.06956 -5.27115,10.02873c-2.12898,2.87903 -7.41365,4.41405 -7.41365,4.41405c0,0 -0.82251,-0.41426 -1.15902,-0.58375c-0.2596,-0.13072 -0.41727,-0.64667 0.02755,-1.14251c1.37806,-1.53609 4.4097,-4.95873 6.11447,-7.21443c2.39242,-3.16554 7.04384,-10.04277 8.49113,-12.19242z" data-paper-data="{&quot;index&quot;:null}" fill="url(#color-43)" stroke-linecap="round"/><path d="M360.83551,203.87291c0,0 -1.25109,4.66697 -2.06678,5.84042c-0.58719,0.84471 -2.37126,0.54411 -2.37126,0.54411z" fill="url(#color-44)" stroke-linecap="round"/><path d="M356.03827,210.77109l-2.14116,6.85169l-2.93642,0.18352z" fill="url(#color-45)" stroke-linecap="round"/><path d="M356.23476,210.51687c0.40141,-0.57614 0.6715,-0.15974 0.83728,-0.08228c0.33114,0.15471 -0.12343,1.82768 -1.01533,3.73664c-0.8919,1.90896 -1.57748,3.57578 -1.90864,3.42106c-0.21805,-0.10188 -1.25777,0.30027 -0.8939,-0.75212c0.1887,-0.54581 2.58016,-5.74854 2.98059,-6.32329z" fill="url(#color-46)" stroke-linecap="butt"/><path d="M346.72959,222.3038c0.30649,-0.44181 1.19835,-1.22582 1.98634,-2.13419c1.44232,-1.66269 2.96794,-3.59827 2.96794,-3.59827l-0.06118,3.73173c0,0 -1.46917,1.34326 -2.29136,1.86254c-0.71153,0.44939 -2.35798,1.19626 -2.35798,1.19626c0,0 -0.77521,-0.29191 -0.24375,-1.05806z" fill="url(#color-47)" stroke-linecap="round"/><path d="M352.84621,217.85604c0,0 -0.44524,2.35151 -0.97882,2.2635c-0.9496,-0.15661 -0.73411,-2.20232 -0.73411,-2.20232z" fill="url(#color-48)" stroke-linecap="round"/></g><path d="M116.44742,217.60033l-0.18324,-1.88819h15.94227v1.88819z" data-paper-data="{&quot;index&quot;:null}" fill="#1c3e8e" stroke="#000000" stroke-linecap="butt"/><path d="M364.32201,174.95394c0,0 -2.61641,0.8452 -7.03237,0.82406c-7.16422,-0.03428 -59.0174,0.46506 -59.0174,0.46506l-0.73627,-11.48284c0,0 52.53268,1.01627 59.32488,1.04324c4.71505,0.01873 7.09304,1.1053 7.09304,1.1053l0.36814,8.04517z" data-paper-data="{&quot;index&quot;:null}" fill="url(#color-49)" stroke="none" stroke-linecap="butt"/><path d="M356.08184,183.95228c4.41597,-0.02114 8.14752,0.82406 8.14752,0.82406l-0.36814,7.67346c0,0 -2.93555,0.52902 -7.6506,0.54773c-6.7922,0.02698 -58.76732,1.41497 -58.76732,1.41497l0.73628,-11.48284z" data-paper-data="{&quot;index&quot;:null}" fill="url(#color-50)" stroke="none" stroke-linecap="butt"/><path d="M-2.63138,361.63479v-360.53868h484.97563v360.53869z" fill="none" stroke="none" stroke-linecap="butt"/></g></g></svg>