<svg version="1.1" xmlns="http://www.w3.org/2000/svg" xmlns:xlink="http://www.w3.org/1999/xlink" width="370.52689" height="370.52689" viewBox="0,0,370.52689,370.52689"><defs><radialGradient cx="240.00003" cy="180" r="78.79064" gradientUnits="userSpaceOnUse" id="color-1"><stop offset="0" stop-color="#3f9421"/><stop offset="1" stop-color="#3f9421" stop-opacity="0"/></radialGradient></defs><g transform="translate(-54.73656,5.26343)"><g data-paper-data="{&quot;isPaintingLayer&quot;:true}" fill-rule="nonzero" stroke-linecap="butt" stroke-linejoin="miter" stroke-miterlimit="10" stroke-dasharray="" stroke-dashoffset="0" style="mix-blend-mode: normal"><path d="M161.20938,180c0,-43.51487 35.27576,-78.79064 78.79064,-78.79064c43.51487,0 78.79064,35.27576 78.79064,78.79064c0,43.51487 -35.27576,78.79064 -78.79064,78.79064c-43.51487,0 -78.79064,-35.27576 -78.79064,-78.79064z" fill="url(#color-1)" stroke="none" stroke-width="0"/><path d="M284.31351,222.83385c-13.66171,8.66562 -26.85715,20.85321 -44.31348,20.85321c-15.43855,0 -32.00455,3.08703 -42.01042,-6.02291c-4.74201,-4.31739 -4.88755,-18.01074 -8.53113,-23.76727c-6.25327,-9.87969 -13.39739,-21.59148 -13.39739,-34.14876c0,-14.16011 7.64813,-21.45152 13.57675,-31.27185c3.13144,-5.187 1.42714,-14.7095 7.3702,-18.39946c9.33229,-5.79429 28.30682,-9.97604 39.78661,-10.99428c1.88524,-0.16722 1.2767,-3.27335 3.2054,-3.27335c12.31796,0 25.33269,10.02819 35.09228,16.06345c9.51636,5.88488 9.91328,16.4381 14.85471,24.60649c4.51873,7.46965 13.99196,12.28543 13.99196,23.26898c0,17.85618 -5.30577,34.00275 -19.62546,43.08573z" data-paper-data="{&quot;index&quot;:null}" fill="#56ca2c" stroke="#54c42b" stroke-width="2"/><path d="M54.73656,365.26345v-370.52689h370.52689v370.52689z" fill="none" stroke="none" stroke-width="0"/></g></g></svg>