<svg version="1.1" xmlns="http://www.w3.org/2000/svg" xmlns:xlink="http://www.w3.org/1999/xlink" width="292.71415" height="170.57135" viewBox="0,0,292.71415,170.57135"><defs><linearGradient x1="271.42202" y1="179.48456" x2="191.18144" y2="179.48456" gradientUnits="userSpaceOnUse" id="color-1"><stop offset="0" stop-color="#ffc419"/><stop offset="1" stop-color="#ffc419" stop-opacity="0"/></linearGradient><radialGradient cx="256.64527" cy="183.66846" r="22.11044" gradientUnits="userSpaceOnUse" id="color-2"><stop offset="0" stop-color="#ffd800"/><stop offset="1" stop-color="#fffe00"/></radialGradient><radialGradient cx="230.08487" cy="193.22589" r="7.99399" gradientUnits="userSpaceOnUse" id="color-3"><stop offset="0" stop-color="#ffd800"/><stop offset="1" stop-color="#fffe00"/></radialGradient><radialGradient cx="243.33539" cy="168.68805" r="5.71527" gradientUnits="userSpaceOnUse" id="color-4"><stop offset="0" stop-color="#ffd800"/><stop offset="1" stop-color="#fffe00"/></radialGradient><radialGradient cx="226.22225" cy="173.76662" r="4.6606" gradientUnits="userSpaceOnUse" id="color-5"><stop offset="0" stop-color="#ffd800"/><stop offset="1" stop-color="#fffe00"/></radialGradient><radialGradient cx="244.92034" cy="178.3905" r="5.68997" gradientUnits="userSpaceOnUse" id="color-6"><stop offset="0" stop-color="#fdff3a"/><stop offset="1" stop-color="#fdff3a" stop-opacity="0"/></radialGradient></defs><g transform="translate(-90.15246,-91.35976)"><g data-paper-data="{&quot;isPaintingLayer&quot;:true}" fill-rule="nonzero" stroke-linecap="butt" stroke-linejoin="miter" stroke-miterlimit="10" stroke-dasharray="" stroke-dashoffset="0" style="mix-blend-mode: normal"><path d="M90.15247,261.93111v-170.57135h292.71415v170.57135z" fill="none" stroke="none" stroke-width="0"/><path d="M202.27876,204.00962v-48.01924h75.47561v48.01924z" fill="#efefef" stroke="none" stroke-width="0"/><path d="M209.41116,198.1028v-37.23642h62.01088v37.23642z" data-paper-data="{&quot;index&quot;:null}" fill="url(#color-1)" stroke="none" stroke-width="0"/><path d="M236.77643,177.35017c3.65452,0.11576 13.9824,0.4429 13.9824,0.4429c0,0 3.23193,-10.51233 4.30821,-14.0131c0.64503,-2.09805 2.51621,-2.01035 3.19993,0.12299c1.11847,3.48979 4.4221,13.79777 4.4221,13.79777c0,0 6.23836,-0.15605 10.65435,-0.28288c1.18107,-0.03392 2.18743,5.00539 0.64361,6.12058c-3.53218,2.55149 -7.69661,5.51995 -7.69661,5.51995c0,0 1.99427,6.03468 3.37603,10.21583c0.33719,1.02033 -5.15639,2.82725 -7.03633,1.44914c-2.98672,-2.18945 -5.97524,-4.38022 -5.97524,-4.38022c0,0 -2.78371,2.14102 -5.60622,4.31188c-1.83851,1.41404 -8.45341,2.71959 -7.79515,0.52541c1.04674,-3.48909 3.78232,-11.99111 3.78232,-11.99111c0,0 -8.43896,-6.31233 -11.40562,-8.5314c-1.89802,-1.41971 -1.21046,-3.38245 1.14623,-3.3078z" fill="url(#color-2)" stroke="#fff100" stroke-width="2"/><path d="M222.90133,190.94151c1.32129,0.04185 5.05531,0.16013 5.05531,0.16013c0,0 1.1685,-3.80071 1.55763,-5.06641c0.23321,-0.75854 0.90973,-0.72684 1.15693,0.04447c0.40438,1.26173 1.5988,4.98856 1.5988,4.98856c0,0 3.62326,-0.09064 4.93596,-0.13552c0.80324,-0.02746 1.19621,0.74084 0.5475,1.22514c-1.07197,0.80028 -4.18139,3.01671 -4.18139,3.01671c0,0 1.11587,3.37662 1.53307,4.63904c0.28775,0.87075 -0.36671,1.40353 -1.08776,0.87496c-1.06027,-0.77724 -3.92902,-2.88022 -3.92902,-2.88022c0,0 -2.74461,2.11095 -3.76464,2.89547c-0.69842,0.53718 -1.42146,0.21248 -1.18346,-0.58082c0.37845,-1.26147 1.47035,-4.90109 1.47035,-4.90109c0,0 -3.05109,-2.28221 -4.12368,-3.08451c-0.68623,-0.51329 -0.43764,-1.22292 0.41442,-1.19593z" fill="url(#color-3)" stroke="#fff100" stroke-width="1"/><path d="M238.19954,167.05485c0.94465,0.02992 3.61428,0.11448 3.61428,0.11448c0,0 0.83541,-2.71731 1.11362,-3.62221c0.16673,-0.54232 0.65041,-0.51965 0.82714,0.03179c0.28911,0.90207 1.14306,3.56655 1.14306,3.56655c0,0 2.59044,-0.0648 3.52894,-0.09689c0.57427,-0.01963 0.85523,0.52967 0.39143,0.87591c-0.7664,0.57215 -2.98947,2.15679 -2.98947,2.15679c0,0 0.79779,2.41411 1.09606,3.31667c0.20573,0.62254 -0.26218,1.00345 -0.77769,0.62555c-0.75804,-0.55569 -2.80904,-2.0592 -2.80904,-2.0592c0,0 -1.96225,1.50921 -2.69152,2.0701c-0.49934,0.38405 -1.01626,0.15191 -0.84611,-0.41526c0.27057,-0.90189 1.05122,-3.50402 1.05122,-3.50402c0,0 -2.18137,-1.63166 -2.94821,-2.20526c-0.49061,-0.36697 -0.31289,-0.87432 0.29629,-0.85503z" fill="url(#color-4)" stroke="#fff100" stroke-width="1"/><path d="M222.03414,172.43482c0.77033,0.0244 2.94731,0.09336 2.94731,0.09336c0,0 0.68125,-2.21586 0.90811,-2.95378c0.13597,-0.44224 0.53039,-0.42376 0.67451,0.02592c0.23576,0.7356 0.93212,2.90839 0.93212,2.90839c0,0 2.11241,-0.05284 2.87773,-0.07901c0.4683,-0.01601 0.6974,0.43193 0.3192,0.71428c-0.62498,0.46657 -2.4378,1.75878 -2.4378,1.75878c0,0 0.65057,1.96861 0.8938,2.70462c0.16776,0.50765 -0.2138,0.81828 -0.63417,0.51012c-0.61815,-0.45314 -2.29067,-1.6792 -2.29067,-1.6792c0,0 -1.60014,1.23071 -2.19483,1.68809c-0.40719,0.31318 -0.82873,0.12388 -0.68997,-0.33863c0.22064,-0.73545 0.85723,-2.8574 0.85723,-2.8574c0,0 -1.77882,-1.33056 -2.40416,-1.79831c-0.40008,-0.29925 -0.25515,-0.71298 0.24161,-0.69724z" fill="url(#color-5)" stroke="#fff100" stroke-width="1"/><text transform="translate(209.23703,173.71592) scale(0.3145,0.3145)" font-size="40" xml:space="preserve" fill="#4d4d4d" fill-rule="nonzero" stroke="#4d4d4d" stroke-width="2" stroke-linecap="butt" stroke-linejoin="miter" stroke-miterlimit="10" stroke-dasharray="" stroke-dashoffset="0" font-family="Sans Serif" font-weight="normal" text-anchor="start" style="mix-blend-mode: normal"><tspan x="0" dy="0">精选</tspan></text><text transform="translate(209.13938,191.36562) scale(0.3145,0.3145)" font-size="40" xml:space="preserve" fill="#4d4d4d" fill-rule="nonzero" stroke="#4d4d4d" stroke-width="2" stroke-linecap="butt" stroke-linejoin="miter" stroke-miterlimit="10" stroke-dasharray="" stroke-dashoffset="0" font-family="Sans Serif" font-weight="normal" text-anchor="start" style="mix-blend-mode: normal"><tspan x="0" dy="0">赛道</tspan></text><path d="M202.24566,203.92638v-6.05947h75.33336v6.05947z" fill="#efefef" stroke="none" stroke-width="0"/><path d="M239.23036,178.3905c0,-3.14249 2.54749,-5.68998 5.68998,-5.68998c3.14249,0 5.68997,2.54749 5.68997,5.68998c0,3.14249 -2.54749,5.68998 -5.68997,5.68998c-3.14249,0 -5.68998,-2.54749 -5.68998,-5.68998z" fill="url(#color-6)" stroke="#4d4d4d" stroke-width="0"/><path d="M277.60108,199.67937h-6.05947v-42.18924h6.05947z" fill="#efefef" stroke="none" stroke-width="0"/></g></g></svg>